<?xml version="1.0" encoding="utf-8"?>
<!-- Generator: Adobe Illustrator 26.3.1, SVG Export Plug-In . SVG Version: 6.00 Build 0)  -->
<svg version="1.1" id="Calque_2_00000132089325268761781100000017636600852908697729_"
	 xmlns="http://www.w3.org/2000/svg" xmlns:xlink="http://www.w3.org/1999/xlink" x="0px" y="0px" viewBox="0 0 38.4 34.9"
	 style="enable-background:new 0 0 38.4 34.9;" xml:space="preserve">
<style type="text/css">
	.st0{fill:#263B6D;}
</style>
<g id="Calque_1-2">
	<g transform="translate(0,-952.36218)">
		<path class="st0" d="M4.8,18.2l-0.3,1.2c-0.3,0.1-0.6,0.2-0.8,0.4l-1.2-0.7c-0.1,0-0.2,0-0.3,0l-1,1.2c-0.1,0.1-0.1,0.2,0,0.3
			l0.6,1.1c-0.2,0.2-0.3,0.5-0.4,0.8l-1.2,0.4C0.1,22.9,0,23,0,23v1.6c0,0.1,0.1,0.2,0.2,0.2l1.3,0.4c0,0.3,0.1,0.5,0.3,0.8
			l-0.7,1.1c0,0.1,0,0.2,0,0.3l1.1,1.1c0.1,0.1,0.2,0.1,0.3,0l1.2-0.6c0.2,0.1,0.5,0.2,0.8,0.3l0.4,1.3c0,0.1,0.1,0.2,0.2,0.2h1.6
			c0.1,0,0.2-0.1,0.2-0.2l0.4-1.3C7.5,28.1,7.7,28,8,27.9l1.2,0.6c0.1,0.1,0.2,0,0.3,0l1.1-1.1c0.1-0.1,0.1-0.2,0-0.3L9.9,26
			c0.1-0.3,0.3-0.5,0.3-0.8l1.3-0.4c0.1,0,0.2-0.1,0.2-0.2V23c0-0.1-0.1-0.2-0.2-0.2l-1.3-0.4c-0.1-0.2-0.2-0.5-0.3-0.7l0.6-1.2
			c0.1-0.1,0-0.2,0-0.3l-1.1-1.1c-0.1-0.1-0.2-0.1-0.3,0L8,19.7c-0.3-0.1-0.5-0.2-0.8-0.3l-0.4-1.3c0,0-0.1-0.1-0.2-0.1H5
			C4.9,18,4.9,18.1,4.8,18.2z M5.2,18.4h1.3l0.3,1.2c0,0.1,0.1,0.1,0.2,0.1c0.3,0.1,0.7,0.2,1,0.4c0.1,0,0.2,0,0.2,0l1.1-0.6
			l0.9,0.9l-0.7,1.2c0,0.1,0,0.2,0,0.2c0.2,0.3,0.3,0.6,0.4,0.9c0,0.1,0.1,0.1,0.1,0.2l1.2,0.3v1.2L10,24.8c0,0-0.1,0.1-0.1,0.2
			c-0.1,0.3-0.2,0.6-0.4,0.9c0,0.1,0,0.1,0,0.2l0.6,1.1l-0.9,0.9l-1.1-0.6c-0.1,0-0.2,0-0.2,0c-0.3,0.2-0.6,0.3-0.9,0.4
			c-0.1,0-0.2,0.1-0.2,0.1l-0.3,1.2H5.2L4.9,28c0-0.1-0.1-0.1-0.2-0.1c-0.3-0.1-0.7-0.2-1-0.4c-0.1,0-0.2,0-0.2,0l-1.1,0.6l-0.8-0.9
			l0.6-1.1c0-0.1,0-0.1,0-0.2C2,25.6,1.9,25.3,1.8,25c0-0.1-0.1-0.1-0.1-0.2l-1.3-0.3v-1.3l1.2-0.3c0.1,0,0.1-0.1,0.1-0.2
			c0.1-0.3,0.2-0.7,0.4-1c0-0.1,0-0.2,0-0.2l-0.5-1l0.9-0.9l1.1,0.6c0.1,0,0.2,0,0.2,0c0.3-0.2,0.6-0.3,1-0.4c0.1,0,0.1-0.1,0.2-0.1
			L5.2,18.4L5.2,18.4z M5.8,21.3c-1.4,0-2.6,1.2-2.6,2.6s1.2,2.6,2.6,2.6s2.6-1.2,2.6-2.6S7.3,21.3,5.8,21.3z M5.8,21.7
			C7,21.7,8,22.6,8,23.8S7,26,5.8,26s-2.1-1-2.1-2.2C3.7,22.6,4.6,21.7,5.8,21.7z M13.9,26.6c-0.1,0-0.1,0.1-0.2,0.2l-0.2,0.8
			c-0.2,0.1-0.3,0.1-0.5,0.2l-0.8-0.4c-0.1,0-0.2,0-0.3,0l-0.8,0.8c-0.1,0.1-0.1,0.2,0,0.3l0.4,0.8c-0.1,0.2-0.1,0.3-0.2,0.5
			L10.5,30c-0.1,0-0.2,0.1-0.2,0.2v1.1c0,0.1,0.1,0.2,0.2,0.2l0.8,0.2c0.1,0.2,0.1,0.3,0.2,0.5L11.2,33c-0.1,0.1,0,0.2,0,0.3L12,34
			c0.1,0.1,0.2,0.1,0.3,0l0.8-0.4c0.2,0.1,0.3,0.2,0.5,0.2l0.2,0.8c0,0.1,0.1,0.2,0.2,0.2h1c0.1,0,0.2-0.1,0.2-0.2l0.2-0.8
			c0.2-0.1,0.3-0.1,0.5-0.2l0.8,0.4c0.1,0,0.2,0,0.3,0l0.8-0.8c0.1-0.1,0.1-0.2,0-0.3l-0.4-0.8c0.1-0.2,0.1-0.3,0.2-0.5l0.8-0.2
			c0.1,0,0.2-0.1,0.2-0.2v-1.1c0-0.1-0.1-0.2-0.2-0.2l-0.9-0.2c-0.1-0.2-0.1-0.3-0.2-0.5l0.4-0.8c0-0.1,0-0.2,0-0.3L17,27.5
			c-0.1-0.1-0.2-0.1-0.3,0L16,27.9c-0.2-0.1-0.3-0.2-0.5-0.2l-0.2-0.8c0-0.1-0.1-0.1-0.2-0.2L13.9,26.6L13.9,26.6z M14.1,27.1h0.8
			l0.2,0.8c0,0.1,0.1,0.1,0.1,0.1c0.2,0.1,0.4,0.2,0.6,0.3c0.1,0,0.1,0,0.2,0l0.7-0.4l0.5,0.5l-0.4,0.7c0,0.1,0,0.1,0,0.2
			c0.1,0.2,0.2,0.4,0.3,0.6c0,0.1,0.1,0.1,0.2,0.1l0.8,0.2V31l-0.8,0.2c-0.1,0-0.1,0.1-0.2,0.2C17,31.6,17,31.8,16.8,32
			c0,0.1,0,0.1,0,0.2l0.4,0.7l-0.5,0.5L16,33c-0.1,0-0.1,0-0.2,0c-0.2,0.1-0.4,0.2-0.6,0.3c-0.1,0-0.1,0.1-0.1,0.1l-0.2,0.8h-0.8
			l-0.2-0.8c0-0.1-0.1-0.1-0.1-0.1c-0.2-0.1-0.4-0.2-0.6-0.3c-0.1,0-0.1,0-0.2,0l-0.7,0.4l-0.5-0.5l0.4-0.7c0-0.1,0-0.1,0-0.2
			c-0.1-0.2-0.2-0.4-0.3-0.6c0-0.1-0.1-0.1-0.2-0.2L10.9,31v-0.8l0.8-0.2c0.1,0,0.1-0.1,0.2-0.1c0.1-0.2,0.1-0.4,0.3-0.6
			c0-0.1,0-0.1,0-0.2l-0.4-0.7l0.5-0.5l0.7,0.4c0.1,0,0.1,0,0.2,0c0.2-0.1,0.4-0.2,0.6-0.3c0.1,0,0.1-0.1,0.1-0.1
			C13.9,27.9,14.1,27.1,14.1,27.1z M14.5,29.2c-0.8,0-1.5,0.7-1.5,1.5c0,0.8,0.7,1.5,1.5,1.5s1.5-0.7,1.5-1.5
			C16,29.9,15.3,29.2,14.5,29.2z M14.5,29.7c0.6,0,1.1,0.5,1.1,1.1s-0.5,1.1-1.1,1.1s-1.1-0.5-1.1-1.1S13.9,29.7,14.5,29.7z"/>
	</g>
</g>
<g>
	<path class="st0" d="M12.1,6.7c-3,0-5.4,2.4-5.4,5.4c0,3,2.4,5.4,5.4,5.4c3,0,5.4-2.4,5.4-5.4C17.5,9.1,15.1,6.7,12.1,6.7z
		 M12.1,16.5c-2.5,0-4.5-2-4.5-4.5s2-4.5,4.5-4.5s4.5,2,4.5,4.5S14.6,16.5,12.1,16.5z"/>
	<path class="st0" d="M38.2,24.8l-1.8-0.5c-0.1-0.4-0.3-0.7-0.4-1l0.9-1.6c0.1-0.2,0.1-0.4-0.1-0.5l-1.6-1.6
		c-0.1-0.1-0.4-0.2-0.5-0.1l-1.6,0.9c-0.3-0.2-0.7-0.3-1-0.4l-0.5-1.7c-0.1-0.2-0.2-0.3-0.4-0.3h-2.3c0,0-0.1,0-0.1,0
		c-0.2,0-0.3,0.2-0.3,0.3L28,19.9c-0.4,0.1-0.7,0.3-1,0.4l-1.6-0.9c-0.2-0.1-0.4-0.1-0.5,0.1l-1.6,1.6c-0.1,0.1-0.2,0.4-0.1,0.5
		l0.9,1.6c-0.2,0.3-0.3,0.7-0.4,1l-1.8,0.5c-0.2,0.1-0.3,0.2-0.3,0.4v2.3c0,0.2,0.1,0.4,0.3,0.4l1.7,0.5c0.1,0.4,0.3,0.7,0.4,1
		l-0.9,1.6c-0.1,0.2-0.1,0.4,0.1,0.5l1.6,1.6c0.1,0.1,0.4,0.2,0.5,0.1l1.6-0.9c0.3,0.2,0.7,0.3,1,0.4l0.5,1.7c0,0.2,0.2,0.3,0.4,0.3
		h2.3c0.2,0,0.4-0.1,0.4-0.3l0.5-1.7c0.4-0.1,0.7-0.3,1-0.4l1.6,0.9c0.2,0.1,0.4,0.1,0.5-0.1l1.6-1.6c0.1-0.1,0.2-0.4,0.1-0.5
		L36,29.5c0.2-0.3,0.3-0.7,0.4-1l1.7-0.5c0.2-0.1,0.3-0.2,0.3-0.4v-2.3C38.5,25.1,38.4,24.9,38.2,24.8z M37.6,27.2L36,27.6
		c-0.2,0-0.3,0.2-0.3,0.3c-0.1,0.5-0.3,0.9-0.5,1.3c-0.1,0.1-0.1,0.3,0,0.4l0.8,1.5l-1.1,1.1l-1.5-0.8c-0.1-0.1-0.3-0.1-0.4,0
		c-0.4,0.2-0.9,0.4-1.3,0.6c-0.1,0-0.3,0.2-0.3,0.3L30.8,34h-1.6l-0.5-1.6c0-0.1-0.2-0.3-0.3-0.3c-0.5-0.1-0.9-0.3-1.3-0.6
		c-0.1-0.1-0.3-0.1-0.4,0l-1.5,0.8l-1.1-1.1l0.8-1.5c0.1-0.1,0.1-0.3,0-0.4c-0.2-0.4-0.4-0.9-0.5-1.3c0-0.2-0.2-0.3-0.3-0.3
		l-1.6-0.5v-1.6l1.6-0.5c0.2,0,0.3-0.2,0.3-0.3c0.1-0.5,0.3-0.9,0.5-1.3c0.1-0.1,0.1-0.3,0-0.4l-0.8-1.5l1.1-1.1l1.5,0.8
		c0.1,0.1,0.3,0.1,0.4,0c0.4-0.2,0.9-0.4,1.3-0.6c0.1,0,0.3-0.2,0.3-0.3l0.5-1.6h1.6l0.5,1.6c0,0.1,0.2,0.3,0.3,0.3
		c0.5,0.1,0.9,0.3,1.3,0.6c0.1,0.1,0.3,0.1,0.4,0l1.5-0.8l1.1,1.1L35.1,23c-0.1,0.1-0.1,0.3,0,0.4c0.2,0.4,0.4,0.9,0.5,1.3
		c0,0.1,0.2,0.3,0.3,0.3l1.6,0.5V27.2z"/>
	<path class="st0" d="M30,23.2c-1.7,0-3.1,1.4-3.1,3.1c0,1.7,1.4,3.1,3.1,3.1c1.7,0,3.1-1.4,3.1-3.1C33.2,24.7,31.8,23.2,30,23.2z
		 M30,28.6c-1.2,0-2.2-1-2.2-2.2s1-2.2,2.2-2.2c1.2,0,2.2,1,2.2,2.2S31.3,28.6,30,28.6z"/>
	<path class="st0" d="M21.9,18.9l-1.3-2.4c0.3-0.5,0.5-1.1,0.7-1.7l2.6-0.7c0.2-0.1,0.3-0.2,0.3-0.4v-3.3c0-0.2-0.1-0.4-0.3-0.4
		l-2.6-0.7c-0.2-0.6-0.4-1.1-0.7-1.7l1.3-2.4C22,5,22,4.8,21.8,4.7l-2.3-2.3c-0.1-0.1-0.4-0.2-0.5-0.1l-2.4,1.3
		c-0.5-0.3-1.1-0.5-1.7-0.7l-0.8-2.6C14.1,0.1,13.9,0,13.7,0h-3.2c-0.2,0-0.4,0.2-0.4,0.3L9.3,2.9C8.7,3.1,8.2,3.3,7.6,3.6L5.3,2.3
		C5.1,2.2,4.9,2.2,4.7,2.4L2.4,4.7C2.3,4.8,2.3,5,2.4,5.2l1.3,2.4C3.4,8.1,3.2,8.7,3,9.2L0.4,10C0.2,10,0,10.2,0,10.4v3.3
		c0,0.2,0.1,0.4,0.3,0.4L3,14.9c0.2,0.6,0.4,1.1,0.7,1.7l-1.3,2.4c-0.1,0.2-0.1,0.4,0.1,0.5l2.3,2.3c0.1,0.1,0.4,0.2,0.5,0.1
		l2.4-1.3c0.5,0.3,1.1,0.5,1.7,0.7l0.8,2.6c0,0.2,0.2,0.3,0.4,0.3h3.2c0.2,0,0.4-0.1,0.4-0.3l0.8-2.6c0.6-0.2,1.1-0.4,1.7-0.7
		l2.4,1.3c0.2,0.1,0.4,0.1,0.5-0.1l2.3-2.3C22,19.3,22,19.1,21.9,18.9z M19.1,20.9l-2.3-1.3c-0.1-0.1-0.3-0.1-0.4,0
		c-0.6,0.4-1.3,0.6-2,0.8c-0.1,0-0.3,0.2-0.3,0.3l-0.7,2.5h-2.6l-0.7-2.5c0-0.1-0.2-0.3-0.3-0.3c-0.7-0.2-1.4-0.5-2-0.8
		c-0.1-0.1-0.3-0.1-0.4,0l-2.3,1.3l-1.8-1.8l1.3-2.3c0.1-0.1,0.1-0.3,0-0.4c-0.4-0.6-0.6-1.3-0.8-2c0-0.1-0.2-0.3-0.3-0.3l-2.5-0.7
		v-2.6L3.4,10c0.1,0,0.3-0.2,0.3-0.3c0.2-0.7,0.5-1.4,0.8-2c0.1-0.1,0.1-0.3,0-0.4L3.3,5l1.8-1.8l2.3,1.3c0.1,0.1,0.3,0.1,0.4,0
		c0.6-0.4,1.3-0.6,2-0.8c0.1,0,0.3-0.2,0.3-0.3l0.7-2.5h2.6l0.7,2.5c0,0.1,0.2,0.3,0.3,0.3c0.7,0.2,1.4,0.5,2,0.8
		c0.1,0.1,0.3,0.1,0.4,0l2.3-1.3L21,5l-1.3,2.3c-0.1,0.1-0.1,0.3,0,0.4c0.4,0.6,0.6,1.3,0.8,2c0,0.1,0.2,0.3,0.3,0.3l2.5,0.7v2.6
		l-2.5,0.7c-0.1,0-0.3,0.2-0.3,0.3c-0.2,0.7-0.5,1.4-0.8,2c-0.1,0.1-0.1,0.3,0,0.4l1.3,2.3L19.1,20.9z"/>
</g>
</svg>
