<?xml version="1.0" encoding="UTF-8"?>
<svg id="Calque_2" data-name="Calque 2" xmlns="http://www.w3.org/2000/svg" viewBox="0 0 17.67 17.67">
  <g id="Calque_1-2" data-name="Calque 1">
    <g>
      <path d="M8.83,1.83c.17,0,.3-.14,.3-.3V.3c0-.17-.14-.3-.3-.3s-.3,.14-.3,.3V1.52c0,.17,.14,.3,.3,.3Z" style="fill: #263b6d;"/>
      <path d="M.3,9.14H1.52c.17,0,.3-.14,.3-.3s-.14-.3-.3-.3H.3c-.17,0-.3,.14-.3,.3s.14,.3,.3,.3Z" style="fill: #263b6d;"/>
      <path d="M16.15,9.14h1.22c.17,0,.3-.14,.3-.3s-.14-.3-.3-.3h-1.22c-.17,0-.3,.14-.3,.3s.14,.3,.3,.3Z" style="fill: #263b6d;"/>
      <path d="M3.45,3.88c.06,.06,.14,.09,.22,.09s.16-.03,.22-.09c.12-.12,.12-.31,0-.43l-.86-.86c-.12-.12-.31-.12-.43,0s-.12,.31,0,.43l.86,.86Z" style="fill: #263b6d;"/>
      <path d="M14.87,15.17c.08,0,.16-.03,.22-.09,.12-.12,.12-.31,0-.43l-.86-.86c-.12-.12-.31-.12-.43,0s-.12,.31,0,.43l.86,.86c.06,.06,.14,.09,.22,.09Z" style="fill: #263b6d;"/>
      <path d="M3.94,13.79c-.12-.12-.31-.12-.43,0l-.86,.86c-.12,.12-.12,.31,0,.43,.06,.06,.14,.09,.22,.09s.16-.03,.22-.09l.86-.86c.12-.12,.12-.31,0-.43Z" style="fill: #263b6d;"/>
      <path d="M14.07,3.97c.08,0,.16-.03,.22-.09l.86-.86c.12-.12,.12-.31,0-.43s-.31-.12-.43,0l-.86,.86c-.12,.12-.12,.31,0,.43,.06,.06,.14,.09,.22,.09Z" style="fill: #263b6d;"/>
      <path d="M7.62,16.45h2.44c.17,0,.3-.14,.3-.3s-.14-.3-.3-.3h-2.44c-.17,0-.3,.14-.3,.3s.14,.3,.3,.3Z" style="fill: #263b6d;"/>
      <path d="M7.62,17.67h2.44c.17,0,.3-.14,.3-.3s-.14-.3-.3-.3h-2.44c-.17,0-.3,.14-.3,.3s.14,.3,.3,.3Z" style="fill: #263b6d;"/>
      <path d="M7.31,13.78v1.14c0,.17,.13,.3,.3,.3,.83,.01,1.39,.02,1.77,.02,.77,0,.8-.03,.88-.11,.06-.06,.09-.14,.09-.22v-1.14c2.11-.65,3.66-2.62,3.66-4.95,0-2.86-2.32-5.18-5.18-5.18S3.66,5.98,3.66,8.83c0,2.33,1.54,4.3,3.66,4.95Zm2.44,.85c-.38,0-1.11,0-1.83-.01v-.7c.3,.05,.6,.09,.91,.09s.62-.03,.91-.09v.71Zm-.61-4.46l1.13-1.13c.12-.12,.12-.31,0-.43s-.31-.12-.43,0l-.7,.7v-1.7c0-.17-.14-.3-.3-.3s-.3,.14-.3,.3v1.7l-.7-.7c-.12-.12-.31-.12-.43,0s-.12,.31,0,.43l1.13,1.13v1.99c-1.71-.15-3.05-1.59-3.05-3.34,0-1.85,1.5-3.35,3.35-3.35s3.35,1.5,3.35,3.35c0,1.74-1.34,3.18-3.05,3.34v-1.99Zm-.3-5.91c2.52,0,4.57,2.05,4.57,4.57s-1.89,4.4-4.26,4.55v-.61c2.04-.16,3.66-1.86,3.66-3.94,0-2.18-1.78-3.96-3.96-3.96s-3.96,1.78-3.96,3.96,1.61,3.79,3.66,3.94v.61c-2.38-.16-4.26-2.14-4.26-4.55s2.05-4.57,4.57-4.57Z" style="fill: #263b6d;"/>
    </g>
  </g>
</svg>