<?xml version="1.0" encoding="UTF-8"?>
<svg id="Calque_2" data-name="Calque 2" xmlns="http://www.w3.org/2000/svg" viewBox="0 0 14.92 12.75">
  <g id="Calque_1-2" data-name="Calque 1">
    <g>
      <path d="M7.4,2.55c1.13,0,2.19,.49,2.92,1.36,.23,.27,.56,.43,.92,.45,.35,.01,.7-.12,.96-.37,.46-.46,.5-1.21,.09-1.71C11.06,.83,9.28,0,7.4,0,3.97,0,1.16,2.72,1.03,6.12H.26c-.1,0-.2,.06-.24,.16-.04,.1-.02,.21,.06,.28l2.04,2.04s.12,.07,.18,.07,.13-.02,.18-.07l2.04-2.04c.07-.07,.09-.18,.06-.28-.04-.1-.13-.16-.24-.16h-.75c.13-1.99,1.79-3.57,3.81-3.57ZM2.3,8.05l-1.42-1.42H3.72l-1.42,1.42Zm.77-1.93H1.54C1.67,3,4.25,.51,7.4,.51c1.74,0,3.37,.76,4.49,2.1,.24,.29,.22,.74-.06,1.02-.15,.15-.36,.23-.58,.22-.22,0-.41-.1-.55-.27-.83-.98-2.03-1.54-3.31-1.54-2.3,0-4.2,1.81-4.33,4.08Z" style="fill: #263b6d;"/>
      <path d="M12.8,4.15c-.1-.1-.26-.1-.36,0l-2.04,2.04c-.07,.07-.09,.18-.06,.28,.04,.1,.13,.16,.24,.16h.75c-.13,2.02-1.75,3.57-3.81,3.57-1.13,0-2.19-.49-2.92-1.36-.23-.27-.56-.43-.92-.45-.36-.01-.71,.12-.96,.37-.46,.46-.5,1.21-.09,1.71,1.22,1.45,3,2.28,4.88,2.28,3.43,0,6.23-2.72,6.37-6.12h.77c.1,0,.2-.06,.24-.16,.04-.1,.02-.21-.06-.28l-2.04-2.04ZM7.52,12.24c-1.74,0-3.37-.76-4.49-2.1-.24-.29-.22-.74,.06-1.02,.15-.15,.34-.23,.54-.23h.03c.22,0,.41,.11,.55,.27,.83,.98,2.03,1.54,3.31,1.54,2.35,0,4.2-1.77,4.33-4.08h1.53c-.13,3.12-2.71,5.61-5.86,5.61Zm6.12-6.12h-2.44l1.42-1.42,1.42,1.42h-.4Z" style="fill: #263b6d;"/>
      <path d="M10.82,2.95s.12,.07,.18,.07,.13-.02,.18-.07c.1-.1,.1-.26,0-.36C9.09,.5,5.7,.5,3.61,2.59c-.1,.1-.1,.26,0,.36,.1,.1,.26,.1,.36,0,1.89-1.89,4.96-1.89,6.85,0Z" style="fill: #263b6d;"/>
      <path d="M10.82,9.8c-1.89,1.89-4.96,1.89-6.85,0-.1-.1-.26-.1-.36,0s-.1,.26,0,.36c1.04,1.04,2.42,1.57,3.79,1.57s2.74-.52,3.79-1.57c.1-.1,.1-.26,0-.36s-.26-.1-.36,0Z" style="fill: #263b6d;"/>
    </g>
  </g>
</svg>