<?xml version="1.0" encoding="UTF-8"?>
<svg id="Calque_2" data-name="Calque 2" xmlns="http://www.w3.org/2000/svg" viewBox="0 0 11.73 16.21">
  <g id="Calque_1-2" data-name="Calque 1">
    <g>
      <path d="M3.63,3.67c-.4-.85-.38-1.69,.12-2.5C4.27,.31,5.34-.15,6.34,.04c1.02,.2,1.84,1.03,2,2.03,.09,.56,.01,1.09-.23,1.6-.18,.29-.37,.56-.66,.8,.18,.02,.33,.04,.46,.09,.36,.22,.52,.52,.45,.91-.07,.35-.28,.57-.63,.66-.12,.03-.25,.03-.38,.02-.07,0-.1,.02-.1,.1,.02,1.19-.05,2.37,.04,3.56,.06,.84,.33,1.62,.81,2.33,.08,.12,.16,.17,.31,.16,.36-.02,.72,0,1.04,.19,.13,.08,.24,.17,.35,.27,.13,.12,.25,.24,.37,.37,.16,.17,.34,.3,.58,.37,.62,.18,1,.76,.98,1.37-.02,.65-.53,1.23-1.15,1.32-.01,0-.02,.02-.03,.03H1.12c-.1-.09-.25-.09-.37-.16-.54-.3-.83-.86-.73-1.47,.08-.56,.54-1.01,1.13-1.13,.08-.02,.14-.05,.2-.11,.19-.19,.38-.38,.57-.57,.32-.33,.71-.48,1.16-.48,.47,0,.46,0,.7-.41,.48-.84,.68-1.75,.69-2.71,0-.95,0-1.91,0-2.86,0-.13-.03-.17-.17-.16-.46,0-.76-.18-.9-.53-.16-.41,0-.81,.41-1.06,.14-.06,.29-.06,.46-.1-.29-.23-.47-.5-.65-.79Zm1.11,1.91c.06,0,.11,.02,.17,.02,.64,0,1.28,0,1.92,0,.06,0,.11-.01,.17-.02,.18,0,.36,0,.54,0,.17,0,.27-.1,.28-.24,.01-.15-.05-.25-.2-.29-.04,0-.08-.02-.12-.02-1.08,0-2.16,0-3.24,0-.04,0-.08,.01-.12,.02-.15,.04-.21,.14-.2,.29,.01,.15,.11,.23,.28,.24,.18,0,.36,0,.54,0Zm3.15,7.83h1.76c-.27-.29-.51-.56-.91-.56-.39,0-.78,0-1.17,0-1.13,0-2.27,0-3.4,0-.35,0-.7,.01-1.06,0-.45-.02-.74,.23-1.02,.56h1.75s.07,0,.11,0c1.28,0,2.55,0,3.83,0,.04,0,.07,0,.11,0ZM3.91,2.53c-.03,.13,0,.25,.03,.37,.25,1.2,1.5,1.88,2.65,1.43,.72-.28,1.27-1.09,1.22-1.81,0-.11-.01-.22-.03-.33-.14-1-1.08-1.73-2.12-1.63-1.02,.1-1.76,.96-1.76,1.95Zm1.13,4.46c-.03,.05-.02,.11-.02,.17,0,.65,0,1.3,0,1.96,0,.44-.03,.87-.11,1.3-.07,.39-.21,.76-.32,1.14l-.39,.73h.22s.08,.02,.12,.02c.88,0,1.76,0,2.64,0,.04,0,.08-.01,.12-.02,.07,0,.13,.01,.21,0l-.39-.73c-.04-.12-.07-.25-.11-.37-.18-.56-.3-1.14-.3-1.73,0-.76,0-1.53,0-2.29,0-.06,.02-.12-.02-.17,0-.25,0-.49,0-.74,0-.08-.03-.1-.1-.1-.49,0-.98,0-1.47,0-.07,0-.1,.02-.1,.1,0,.25,0,.49,0,.74Zm.82,8.66c.47,0,.95,0,1.42,0,1.03,0,2.07,0,3.1,0,.6,0,.97-.68,.69-1.21-.18-.34-.48-.46-.85-.46-2.91,0-5.81,0-8.72,0-.07,0-.14,0-.2,.01-.51,.05-.85,.56-.7,1.06,.12,.38,.42,.6,.86,.6,1.47,0,2.93,0,4.4,0Z" style="fill: #263b6d;"/>
      <path d="M2.51,14.53c.35,0,.71,0,1.06,0,.21,0,.33,.1,.33,.28,0,.17-.12,.29-.33,.29-.71,0-1.42,0-2.13,0-.2,0-.33-.12-.33-.29,0-.17,.13-.28,.33-.28,.35,0,.71,0,1.06,0Z" style="fill: #263b6d;"/>
      <path d="M5.8,3.9c-.83-.02-1.28-.69-1.33-1.36-.01-.16,.1-.28,.24-.29,.16-.01,.25,.06,.29,.24,.02,.09,.03,.17,.06,.26,.11,.39,.36,.59,.76,.61,.14,0,.26,.05,.29,.21,.03,.13-.01,.22-.12,.3-.08,.05-.16,.03-.2,.03Z" style="fill: #263b6d;"/>
    </g>
  </g>
</svg>