<?xml version="1.0" encoding="utf-8"?>
<!-- Generator: Adobe Illustrator 22.1.0, SVG Export Plug-In . SVG Version: 6.00 Build 0)  -->
<svg version="1.1" xmlns="http://www.w3.org/2000/svg" xmlns:xlink="http://www.w3.org/1999/xlink" x="0px" y="0px"
	 viewBox="0 0 119.3 40.8" style="enable-background:new 0 0 119.3 40.8;" xml:space="preserve">
<style type="text/css">
	.st1{fill:#FFFFFF;}
</style>
<g id="Artboard">
</g>
<g id="Layer_2">
	<g>
		<g>
			<path class="st1" d="M19.7,11.6c0,0.6-0.1,1.1-0.2,1.5c-0.1,0.4-0.3,0.8-0.6,1.1c-0.3,0.3-0.6,0.5-1,0.7
				c-0.4,0.2-0.8,0.2-1.3,0.2c-0.5,0-0.9-0.1-1.4-0.2c0-0.1,0-0.3,0-0.4s0-0.3,0-0.4c0-0.1,0-0.1,0.1-0.2c0,0,0.1-0.1,0.2-0.1
				c0.1,0,0.2,0,0.3,0.1c0.1,0,0.3,0.1,0.6,0.1c0.3,0,0.6,0,0.8-0.1c0.2-0.1,0.4-0.2,0.6-0.4c0.2-0.2,0.3-0.4,0.4-0.8
				s0.1-0.7,0.1-1.1V5.1h1.4V11.6z"/>
			<path class="st1" d="M28.2,11.6c0,0.5-0.1,1-0.2,1.4c-0.2,0.4-0.4,0.8-0.7,1.1s-0.7,0.6-1.1,0.7c-0.4,0.2-0.9,0.3-1.4,0.3
				c-0.5,0-1-0.1-1.4-0.3c-0.4-0.2-0.8-0.4-1.1-0.7c-0.3-0.3-0.5-0.7-0.7-1.1c-0.2-0.4-0.2-0.9-0.2-1.4c0-0.5,0.1-1,0.2-1.4
				C21.8,9.7,22,9.3,22.3,9c0.3-0.3,0.7-0.6,1.1-0.7C23.8,8.1,24.3,8,24.8,8c0.5,0,1,0.1,1.4,0.3C26.6,8.4,27,8.7,27.3,9
				c0.3,0.3,0.5,0.7,0.7,1.1C28.2,10.6,28.2,11.1,28.2,11.6z M27.3,11.6c0-0.4-0.1-0.8-0.2-1.2c-0.1-0.3-0.3-0.6-0.5-0.9
				S26.1,9.1,25.8,9c-0.3-0.1-0.6-0.2-1-0.2c-0.4,0-0.7,0.1-1,0.2S23.2,9.3,23,9.6s-0.4,0.5-0.5,0.9c-0.1,0.3-0.2,0.7-0.2,1.2
				c0,0.4,0.1,0.8,0.2,1.2c0.1,0.3,0.3,0.6,0.5,0.9s0.5,0.4,0.8,0.5c0.3,0.1,0.6,0.2,1,0.2c0.4,0,0.7-0.1,1-0.2
				c0.3-0.1,0.6-0.3,0.8-0.5s0.4-0.5,0.5-0.9C27.2,12.4,27.3,12,27.3,11.6z"/>
			<path class="st1" d="M30.5,15.1h-0.9v-7h0.9V15.1z"/>
			<path class="st1" d="M38,8.1v7h-0.5c-0.1,0-0.1,0-0.2,0s-0.1-0.1-0.1-0.1l-4.1-5.3c0,0.1,0,0.2,0,0.2c0,0.1,0,0.2,0,0.2v5h-0.8
				v-7h0.5c0,0,0.1,0,0.1,0s0.1,0,0.1,0c0,0,0,0,0.1,0c0,0,0,0,0.1,0.1l4.1,5.3c0-0.1,0-0.2,0-0.2c0-0.1,0-0.2,0-0.2v-5H38z"/>
			<path class="st1" d="M48.1,8.9h-2.3v6.2h-0.9V8.9h-2.3V8.1h5.5V8.9z"/>
			<path class="st1" d="M54.8,8.1v7h-0.9v-3.2h-3.8v3.2h-0.9v-7h0.9v3.1h3.8V8.1H54.8z"/>
			<path class="st1" d="M60.9,14.3l0,0.8h-4.3v-7h4.3v0.8h-3.4v2.3h2.7v0.7h-2.7v2.4H60.9z"/>
		</g>
		<g>
			<path class="st1" d="M77.7,20.6h-4.2c-0.3,0-0.5,0.2-0.5,0.5v14.1c0,0.3-0.2,0.5-0.5,0.5h-3.3c-0.3,0-0.5-0.2-0.5-0.5V21.1
				c0-0.3-0.2-0.5-0.5-0.5H64c-0.3,0-0.5-0.2-0.5-0.5v-2.5c0-0.2,0.2-0.4,0.4-0.4h13.8c0.3,0,0.5,0.2,0.5,0.5V20
				C78.2,20.3,78,20.6,77.7,20.6z"/>
			<path class="st1" d="M105.6,22.7c-0.1,0-0.2,0-0.3,0c-0.1,0-0.2,0-0.3,0.1s-0.1,0.1-0.2,0.1c-0.1,0.1-0.1,0.2-0.2,0.3l-3.3,6.6
				c-0.1,0.2-0.2,0.5-0.4,0.7c-0.1,0.2-0.2,0.5-0.3,0.8c-0.1-0.3-0.2-0.5-0.3-0.7c-0.1-0.2-0.2-0.5-0.3-0.7l-3.3-6.6
				c-0.1-0.1-0.1-0.2-0.2-0.3c-0.1-0.1-0.1-0.1-0.2-0.1c-0.1,0-0.2,0-0.3-0.1c-0.1,0-0.2,0-0.3,0h-1.8c-0.3,0-0.5,0.2-0.5,0.5v8
				c0,0.5-0.7,0.7-0.9,0.2L89.1,23c-0.1-0.2-0.2-0.3-0.4-0.3h-2.4c-0.2,0-0.4,0.1-0.4,0.3l-3.9,10.1c-0.1,0.2-0.2,0.3-0.4,0.3h-4
				c-0.3,0-0.5-0.2-0.5-0.5v-2.2c0-0.3,0.2-0.5,0.5-0.5h3.1c0.3,0,0.5-0.2,0.5-0.5v-1.3c0-0.3-0.2-0.5-0.5-0.5h-3.1
				c-0.3,0-0.5-0.2-0.5-0.5v-2.1c0-0.3,0.2-0.5,0.5-0.5h4.4c0.3,0,0.5-0.2,0.5-0.5v-1.4c0-0.3-0.2-0.5-0.5-0.5h-7.4
				c-0.3,0-0.5,0.2-0.5,0.5v12.1c0,0.3,0.2,0.5,0.5,0.5h6.5h1.4h0.9c0.2,0,0.5-0.1,0.6-0.2c0.2-0.1,0.3-0.3,0.4-0.5l0.7-1.9
				c0.1-0.2,0.2-0.3,0.4-0.3h4.3c0.2,0,0.4,0.1,0.4,0.3l0.7,1.9c0.1,0.2,0.2,0.3,0.4,0.5c0.2,0.1,0.4,0.2,0.6,0.2h1.6h0.8H96v-7.5
				c0-0.2,0-0.4,0-0.6c0-0.2,0-0.4,0-0.6l3.5,6.7c0.1,0.2,0.3,0.4,0.4,0.5c0.2,0.1,0.4,0.2,0.6,0.2h0.4c0.2,0,0.4-0.1,0.6-0.2
				c0.2-0.1,0.3-0.3,0.4-0.5l3.4-6.7c0,0.2,0,0.4,0,0.6c0,0.2,0,0.4,0,0.6v7c0,0.3,0.2,0.5,0.5,0.5h1.7c0.3,0,0.5-0.2,0.5-0.5V23.2
				c0-0.3-0.2-0.5-0.5-0.5H105.6z M86.4,30.7c-0.3,0-0.5-0.3-0.4-0.6l1-2.9c0.1-0.2,0.2-0.5,0.3-0.8c0.1-0.3,0.2-0.6,0.3-1
				c0.1,0.4,0.2,0.7,0.3,1c0.1,0.3,0.2,0.6,0.3,0.8l1,2.9c0.1,0.3-0.1,0.6-0.4,0.6H86.4z"/>
		</g>
		<g>
			<path class="st1" d="M27.9,29.6h-3.4c-0.3,0-0.6,0.3-0.6,0.6v1.2c0,2.9,1.4,4.3,5.1,4.3h7.2c4.2,0,6.3-0.5,6.3-5.1
				c0-4.6-0.3-6.4-6.6-6.4h-5.6c-2.6,0-2.6-3.1-0.2-3.1h5.3c1.3,0,1.8,0.3,1.9,1.4c0,0.3,0.3,0.5,0.6,0.5h3.4c0.3,0,0.6-0.3,0.6-0.6
				v-1.3c0-4.1-3.7-4.1-5.1-4.1h-7.1c-2.5,0-5.8-0.4-5.8,5.6c0,6,2.3,5.7,7.2,5.7h4.2c3.9,0,3,3.2,0.9,3.2h-6.1
				c-0.8,0-1.5-0.1-1.7-1.5C28.5,29.8,28.2,29.6,27.9,29.6"/>
			<path class="st1" d="M51.6,29.9L49.6,28c-0.6-0.6-0.6-1.5,0-2l1.9-1.9c0.6-0.6,1.5-0.6,2,0l1.9,1.9c0.6,0.6,0.6,1.5,0,2l-1.9,1.9
				C53,30.5,52.1,30.5,51.6,29.9"/>
			<path class="st1" d="M47.9,35.7h-3.6c-0.3,0-0.5-0.2-0.5-0.5V17.7c0-0.3,0.2-0.5,0.5-0.5h3.6c0.3,0,0.5,0.2,0.5,0.5v17.5
				C48.5,35.4,48.2,35.7,47.9,35.7"/>
			<path class="st1" d="M60.8,35.7h-3.6c-0.3,0-0.5-0.2-0.5-0.5V17.7c0-0.3,0.2-0.5,0.5-0.5h3.6c0.3,0,0.5,0.2,0.5,0.5v17.5
				C61.4,35.4,61.1,35.7,60.8,35.7"/>
			<path class="st1" d="M20.5,27.8V17.7c0-0.3-0.2-0.5-0.5-0.5h-4.2c-0.4,0-0.8,0.1-1.1,0.4l-9.5,7c-0.5,0.4-0.8,0.9-0.8,1.5v5.3
				c0,0.3,0.2,0.5,0.5,0.5H16v3.2c0,0.3,0.2,0.5,0.5,0.5h3.3c0.3,0,0.5-0.2,0.5-0.5v-3.2h1.7c0.3,0,0.5-0.2,0.5-0.5v-3
				c0-0.3-0.2-0.5-0.5-0.5H20.5z M15.9,27.8H8.2c-0.1,0-0.1-0.1-0.1-0.2l7.7-5.9c0.1-0.1,0.2,0,0.2,0.1v5.9
				C16,27.8,16,27.8,15.9,27.8"/>
		</g>
		<g>
			<path class="st1" d="M111.9,35.4l-1.4-1.4c-0.4-0.4-0.4-1,0-1.4l1.4-1.4c0.4-0.4,1-0.4,1.4,0l1.4,1.4c0.4,0.4,0.4,1,0,1.4
				l-1.4,1.4C112.9,35.8,112.3,35.8,111.9,35.4"/>
			<path class="st1" d="M113.8,29.9h-2.5c-0.2,0-0.4-0.2-0.4-0.4V17.3c0-0.2,0.2-0.4,0.4-0.4h2.5c0.2,0,0.4,0.2,0.4,0.4v12.2
				C114.2,29.8,114.1,29.9,113.8,29.9"/>
		</g>
	</g>
</g>
</svg>
