<svg xmlns="http://www.w3.org/2000/svg" xmlns:xlink="http://www.w3.org/1999/xlink" width="1586" height="1586" viewBox="0 0 1586 1586">
  <defs>
    <filter id="Ellipse_37" x="0" y="0" width="1586" height="1586" filterUnits="userSpaceOnUse">
      <feOffset dy="1" input="SourceAlpha"/>
      <feGaussianBlur stdDeviation="49.5" result="blur"/>
      <feFlood flood-opacity="0.161"/>
      <feComposite operator="in" in2="blur"/>
      <feComposite in="SourceGraphic"/>
    </filter>
    <filter id="Ellipse_34" x="150" y="150" width="1287" height="1287" filterUnits="userSpaceOnUse">
      <feOffset dy="1" input="SourceAlpha"/>
      <feGaussianBlur stdDeviation="49.5" result="blur-2"/>
      <feFlood flood-opacity="0.161"/>
      <feComposite operator="in" in2="blur-2"/>
      <feComposite in="SourceGraphic"/>
    </filter>
    <filter id="Ellipse_35" x="295" y="295" width="997" height="997" filterUnits="userSpaceOnUse">
      <feOffset dy="1" input="SourceAlpha"/>
      <feGaussianBlur stdDeviation="49.5" result="blur-3"/>
      <feFlood flood-opacity="0.161"/>
      <feComposite operator="in" in2="blur-3"/>
      <feComposite in="SourceGraphic"/>
    </filter>
    <filter id="Ellipse_36" x="439" y="439" width="709" height="709" filterUnits="userSpaceOnUse">
      <feOffset dy="1" input="SourceAlpha"/>
      <feGaussianBlur stdDeviation="49.5" result="blur-4"/>
      <feFlood flood-opacity="0.161"/>
      <feComposite operator="in" in2="blur-4"/>
      <feComposite in="SourceGraphic"/>
    </filter>
  </defs>
  <g id="Groupe_760" data-name="Groupe 760" transform="translate(59.5 -998.5)">
    <g id="Groupe_759" data-name="Groupe 759" transform="translate(-6 -78)" opacity="0.3">
      <g transform="matrix(1, 0, 0, 1, -53.5, 1076.5)" filter="url(#Ellipse_37)">
        <circle id="Ellipse_37-2" data-name="Ellipse 37" cx="644.5" cy="644.5" r="644.5" transform="translate(148.5 147.5)" fill="#fff"/>
      </g>
      <g transform="matrix(1, 0, 0, 1, -53.5, 1076.5)" filter="url(#Ellipse_34)">
        <circle id="Ellipse_34-2" data-name="Ellipse 34" cx="495" cy="495" r="495" transform="translate(298.5 297.5)" fill="#fff"/>
      </g>
      <g transform="matrix(1, 0, 0, 1, -53.5, 1076.5)" filter="url(#Ellipse_35)">
        <circle id="Ellipse_35-2" data-name="Ellipse 35" cx="350" cy="350" r="350" transform="translate(443.5 442.5)" fill="#fff"/>
      </g>
      <g transform="matrix(1, 0, 0, 1, -53.5, 1076.5)" filter="url(#Ellipse_36)">
        <circle id="Ellipse_36-2" data-name="Ellipse 36" cx="206" cy="206" r="206" transform="translate(587.5 586.5)" fill="#fff"/>
      </g>
    </g>
  </g>
</svg>
