<svg xmlns="http://www.w3.org/2000/svg" xmlns:xlink="http://www.w3.org/1999/xlink" width="847" height="1127"
     viewBox="0 0 847 1127">
    <style>
        * { font-family: 'Asap', sans-serif !important;}
    </style>
    <defs>
        <clipPath id="clip-path">
            <path id="Tracé_642" data-name="Tracé 642"
                  d="M261.736,805.463V626.377A48.662,48.662,0,0,0,213.1,577.736H34.009A48.662,48.662,0,0,1-14.632,529.1h0V350.009a48.662,48.662,0,0,1,48.641-48.641H213.1a48.662,48.662,0,0,0,48.641-48.641V73.641A48.662,48.662,0,0,0,213.1,25H34.009A48.662,48.662,0,0,0-14.632,73.641V252.727a48.662,48.662,0,0,1-48.641,48.641H-242.359A48.662,48.662,0,0,0-291,350.009V529.1a48.662,48.662,0,0,0,48.641,48.641H-63.273a48.662,48.662,0,0,1,48.641,48.641V805.463A48.662,48.662,0,0,1-63.273,854.1H-242.359A48.662,48.662,0,0,0-291,902.744v179.086a48.662,48.662,0,0,0,48.641,48.641H-63.273a48.662,48.662,0,0,0,48.641-48.641V902.744A48.662,48.662,0,0,1,34.009,854.1H213.1a48.662,48.662,0,0,0,48.641-48.641Z"
                  transform="translate(291 -25)" fill="none"/>
        </clipPath>
        <filter id="Tracé_641" x="102" y="276.368" width="294.211" height="294.21" filterUnits="userSpaceOnUse">
            <feOffset dy="3" input="SourceAlpha"/>
            <feGaussianBlur stdDeviation="3" result="blur"/>
            <feFlood flood-opacity="0.161"/>
            <feComposite operator="in" in2="blur"/>
            <feComposite in="SourceGraphic"/>
        </filter>
        <filter id="Tracé_646" x="378.368" y="0" width="294.211" height="294.21" filterUnits="userSpaceOnUse">
            <feOffset dy="3" input="SourceAlpha"/>
            <feGaussianBlur stdDeviation="3" result="blur-2"/>
            <feFlood flood-opacity="0.161"/>
            <feComposite operator="in" in2="blur-2"/>
            <feComposite in="SourceGraphic"/>
        </filter>
        <filter id="Tracé_650" x="102" y="829.104" width="294.211" height="294.21" filterUnits="userSpaceOnUse">
            <feOffset dy="3" input="SourceAlpha"/>
            <feGaussianBlur stdDeviation="3" result="blur-3"/>
            <feFlood flood-opacity="0.161"/>
            <feComposite operator="in" in2="blur-3"/>
            <feComposite in="SourceGraphic"/>
        </filter>
        <linearGradient id="linear-gradient" x1="-0.126" y1="8.773" x2="0.15" y2="9.049"
                        gradientUnits="objectBoundingBox">
            <stop offset="0" stop-color="#3e9d4b"/>
            <stop offset="1" stop-color="#f1c433"/>
        </linearGradient>
        <linearGradient id="linear-gradient-2" x1="5.207" y1="3.647" x2="5.493" y2="3.934"
                        gradientUnits="objectBoundingBox">
            <stop offset="0" stop-color="#ea2631"/>
            <stop offset="1" stop-color="#10aac7"/>
        </linearGradient>
        <filter id="Tracé_682" x="378.368" y="0" width="294.211" height="294.21" filterUnits="userSpaceOnUse">
            <feOffset dy="3" input="SourceAlpha"/>
            <feGaussianBlur stdDeviation="3" result="blur-4"/>
            <feFlood flood-opacity="0.161"/>
            <feComposite operator="in" in2="blur-4"/>
            <feComposite in="SourceGraphic"/>
        </filter>
        <filter id="Tracé_683" x="102" y="276.368" width="294.211" height="294.21" filterUnits="userSpaceOnUse">
            <feOffset dy="3" input="SourceAlpha"/>
            <feGaussianBlur stdDeviation="3" result="blur-5"/>
            <feFlood flood-opacity="0.161"/>
            <feComposite operator="in" in2="blur-5"/>
            <feComposite in="SourceGraphic"/>
        </filter>
        <filter id="Tracé_684" x="378.368" y="548.736" width="294.211" height="294.21" filterUnits="userSpaceOnUse">
            <feOffset dy="-1" input="SourceAlpha"/>
            <feGaussianBlur stdDeviation="3" result="blur-6"/>
            <feFlood flood-opacity="0.161"/>
            <feComposite operator="in" in2="blur-6"/>
            <feComposite in="SourceGraphic"/>
        </filter>
    </defs>
    <g id="Groupe_758" data-name="Groupe 758" transform="translate(-369 -1198)">
        <g id="Groupe_726" data-name="Groupe 726">
            <text id="Consiste_à_découvrir_et_à_modéliser_votre_projet_vos_objectifs_et_vos_technologies."
                  data-name="Consiste à découvrir et à modéliser votre projet, vos objectifs et vos technologies."
                  transform="translate(369 1322)" fill="#494849" font-size="24" font-family="Asap, sans-serif;">
                <tspan x="63.68" y="24">Consiste à découvrir et à</tspan>
                <tspan x="42.392" y="56">modéliser votre projet, vos</tspan>
                <tspan x="16.568" y="88">objectifs et vos technologies.</tspan>
            </text>
            <text id="Vise_la_réalisation_du_logiciel_cible_et_sa_mise_en_état_de_bon_fonctionnement."
                  data-name="Vise la réalisation du logiciel cible et sa mise en état de bon fonctionnement."
                  transform="translate(369 1892)" fill="#494849" font-size="24" font-family="Asap, sans-serif;">
                <tspan x="26.264" y="24">Vise la réalisation du logiciel</tspan>
                <tspan x="47.672" y="56">cible et sa mise en état de</tspan>
                <tspan x="104.072" y="88">bon fonctionnement.</tspan>
            </text>
            <text id="Consiste_à_spécifier_votre_produit_logiciel_cible_en_adéquation_avec_vos_processus_métier_et_vos_exigences."
                  data-name="Consiste à spécifier votre produit logiciel cible en adéquation avec vos processus métier et vos exigences."
                  transform="translate(810 1595)" fill="#494849" font-size="24" font-family="Asap, sans-serif;">
                <tspan x="0" y="24">Consiste à spécifier votre produit</tspan>
                <tspan x="0" y="56">logiciel cible en adéquation avec vos</tspan>
                <tspan x="0" y="88">processus métier et vos exigences.</tspan>
            </text>
            <text id="Vise_à_valider_la_solution_en_organisant_les_tests_et_recettes_puis_à_organiser_son_déploiement_selon_des_méthodes_industrielles_sécurisées."
                  data-name="Vise à valider la solution en organisant les tests et recettes puis à organiser son déploiement selon des méthodes industrielles sécurisées."
                  transform="translate(810 2148)" fill="#494849" font-size="24" font-family="Asap, sans-serif;">
                <tspan x="0" y="24">Vise à valider la solution en</tspan>
                <tspan x="0" y="56">organisant les tests et recettes puis à</tspan>
                <tspan x="0" y="88">organiser son déploiement selon des</tspan>
                <tspan x="0" y="120">méthodes industrielles sécurisées.</tspan>
            </text>
            <text id="DISCOVER" transform="translate(698 1293)" fill="#3e9d4b" font-size="34"
                  font-family="Asap-Bold, Asap" font-weight="700">
                <tspan x="-156.434" y="0">DISCOVER</tspan>
            </text>
            <text id="DEVELOP" transform="translate(698 1863)" fill="#ea2631" font-size="34"
                  font-family="Asap-Bold, Asap" font-weight="700">
                <tspan x="-142.426" y="0">DEVELOP</tspan>
            </text>
            <text id="DESIGN" transform="translate(810 1566)" fill="#f1c433" font-size="34"
                  font-family="Asap-Bold, Asap" font-weight="700">
                <tspan x="0" y="0">DESIGN</tspan>
            </text>
            <text id="DEPLOY" transform="translate(810 2119)" fill="#10aac7" font-size="34"
                  font-family="Asap-Bold, Asap" font-weight="700">
                <tspan x="0" y="0">DEPLOY</tspan>
            </text>
        </g>
        <g id="Groupe_757" data-name="Groupe 757" transform="translate(364 -8)">
            <g id="Groupe_753" data-name="Groupe 753" transform="translate(407 1187)">
                <g id="Groupe_723" data-name="Groupe 723" transform="translate(-291 25)">
                    <g id="Groupe_722" data-name="Groupe 722">
                        <g id="Groupe_721" data-name="Groupe 721" clip-path="url(#clip-path)">
                            <g id="Groupe_720" data-name="Groupe 720">
                                <path id="Tracé_638" data-name="Tracé 638"
                                      d="M-46.059,550H-259.573A31.408,31.408,0,0,0-291,581.427V794.783a31.408,31.408,0,0,0,31.427,31.427H-46.217A31.408,31.408,0,0,0-14.79,794.783V581.427A31.174,31.174,0,0,0-46.059,550Z"
                                      transform="translate(291 279.104)" fill="#10aac7"/>
                                <path id="Tracé_639" data-name="Tracé 639"
                                      d="M128.941,375H-84.573A31.408,31.408,0,0,0-116,406.427V619.783A31.408,31.408,0,0,0-84.573,651.21H128.783a31.408,31.408,0,0,0,31.427-31.427V406.427A31.173,31.173,0,0,0,128.941,375Z"
                                      transform="translate(392.368 177.736)" fill="#ea2631"/>
                                <path id="Tracé_640" data-name="Tracé 640"
                                      d="M128.941,25H-84.573A31.408,31.408,0,0,0-116,56.427V269.783A31.408,31.408,0,0,0-84.573,301.21H128.783a31.408,31.408,0,0,0,31.427-31.427V56.427A31.173,31.173,0,0,0,128.941,25Z"
                                      transform="translate(392.368 -25)" fill="#3e9d4b"/>
                                <g transform="matrix(1, 0, 0, 1, -111, -6)" filter="url(#Tracé_641)">
                                    <path id="Tracé_641-2" data-name="Tracé 641"
                                          d="M-46.059,200H-259.573A31.408,31.408,0,0,0-291,231.427V444.783a31.408,31.408,0,0,0,31.427,31.427H-46.217A31.408,31.408,0,0,0-14.79,444.783V231.427A31.173,31.173,0,0,0-46.059,200Z"
                                          transform="translate(402 82.37)" fill="#f1c433"/>
                                </g>
                                <g transform="matrix(1, 0, 0, 1, -111, -6)" filter="url(#Tracé_646)">
                                    <path id="Tracé_646-2" data-name="Tracé 646"
                                          d="M128.941,25H-84.573A31.408,31.408,0,0,0-116,56.427V269.783A31.408,31.408,0,0,0-84.573,301.21H128.783a31.408,31.408,0,0,0,31.427-31.427V56.427A31.173,31.173,0,0,0,128.941,25Z"
                                          transform="translate(503.37 -19)" fill="none"/>
                                </g>
                                <g transform="matrix(1, 0, 0, 1, -111, -6)" filter="url(#Tracé_650)">
                                    <path id="Tracé_650-2" data-name="Tracé 650"
                                          d="M-46.059,550H-259.573A31.408,31.408,0,0,0-291,581.427V794.783a31.408,31.408,0,0,0,31.427,31.427H-46.217A31.408,31.408,0,0,0-14.79,794.783V581.427A31.174,31.174,0,0,0-46.059,550Z"
                                          transform="translate(402 285.1)" fill="#10aac7"/>
                                </g>
                            </g>
                        </g>
                    </g>
                </g>
                <path id="Tracé_643" data-name="Tracé 643"
                      d="M-149.1,394.173A52.234,52.234,0,0,0-96.827,341.9a52.234,52.234,0,0,0,52.273,52.273,52.234,52.234,0,0,0-52.273,52.273A52.234,52.234,0,0,0-149.1,394.173Z"
                      transform="translate(82.195 183.563)" fill="#f1c433"/>
                <path id="Tracé_644" data-name="Tracé 644"
                      d="M-149.6,219.463A53.076,53.076,0,0,0-96.537,166.4a53.076,53.076,0,0,0,53.063,53.063,53.076,53.076,0,0,0-53.063,53.063A52.975,52.975,0,0,0-149.6,219.463Z"
                      transform="translate(81.905 81.905)" fill="url(#linear-gradient)"/>
                <path id="Tracé_645" data-name="Tracé 645"
                      d="M-148.7,568.941A51.56,51.56,0,0,0-97.059,517.3a51.56,51.56,0,0,0,51.641,51.641,51.56,51.56,0,0,0-51.641,51.641A51.56,51.56,0,0,0-148.7,568.941Z"
                      transform="translate(82.427 285.162)" fill="url(#linear-gradient-2)"/>
            </g>
            <g transform="matrix(1, 0, 0, 1, 5, 1206)" filter="url(#Tracé_682)">
                <path id="Tracé_682-2" data-name="Tracé 682"
                      d="M128.941,25H-84.573A31.408,31.408,0,0,0-116,56.427V269.783A31.408,31.408,0,0,0-84.573,301.21H128.783a31.408,31.408,0,0,0,31.427-31.427V56.427A31.173,31.173,0,0,0,128.941,25Z"
                      transform="translate(503.37 -19)" fill="#3e9d4b"/>
            </g>
            <g transform="matrix(1, 0, 0, 1, 5, 1206)" filter="url(#Tracé_683)">
                <path id="Tracé_683-2" data-name="Tracé 683"
                      d="M-46.059,200H-259.573A31.408,31.408,0,0,0-291,231.427V444.783a31.408,31.408,0,0,0,31.427,31.427H-46.217A31.408,31.408,0,0,0-14.79,444.783V231.427A31.173,31.173,0,0,0-46.059,200Z"
                      transform="translate(402 82.37)" fill="#f1c433"/>
            </g>
            <g transform="matrix(1, 0, 0, 1, 5, 1206)" filter="url(#Tracé_684)">
                <path id="Tracé_684-2" data-name="Tracé 684"
                      d="M128.941,375H-84.573A31.408,31.408,0,0,0-116,406.427V619.783A31.408,31.408,0,0,0-84.573,651.21H128.783a31.408,31.408,0,0,0,31.427-31.427V406.427A31.173,31.173,0,0,0,128.941,375Z"
                      transform="translate(503.37 183.74)" fill="#ea2631"/>
            </g>
            <path id="Tracé_685" data-name="Tracé 685"
                  d="M-46.059,550H-259.573A31.408,31.408,0,0,0-291,581.427V794.783a31.408,31.408,0,0,0,31.427,31.427H-46.217A31.408,31.408,0,0,0-14.79,794.783V581.427A31.174,31.174,0,0,0-46.059,550Z"
                  transform="translate(407 1491.104)" fill="#10aac7"/>
            <g id="Groupe_754" data-name="Groupe 754" transform="translate(655.114 1499.114)">
                <path id="Tracé_652" data-name="Tracé 652"
                      d="M-132.493-218.986v-6.761A2.254,2.254,0,0,0-134.746-228,2.254,2.254,0,0,0-137-225.747v6.761a2.254,2.254,0,0,0,2.254,2.253A2.254,2.254,0,0,0-132.493-218.986Z"
                      transform="translate(7.859 0)" fill="#fff"/>
                <path id="Tracé_653" data-name="Tracé 653"
                      d="M-132.493-100.986v-6.761A2.254,2.254,0,0,0-134.746-110,2.254,2.254,0,0,0-137-107.746v6.761a2.254,2.254,0,0,0,2.254,2.254A2.254,2.254,0,0,0-132.493-100.986Z"
                      transform="translate(7.859 14.957)" fill="#fff"/>
                <path id="Tracé_654" data-name="Tracé 654"
                      d="M-71.986-161.493a2.254,2.254,0,0,0,2.254-2.253A2.254,2.254,0,0,0-71.986-166h-6.761A2.254,2.254,0,0,0-81-163.746a2.254,2.254,0,0,0,2.254,2.253Z"
                      transform="translate(14.957 7.859)" fill="#fff"/>
                <path id="Tracé_655" data-name="Tracé 655"
                      d="M-196.747-166A2.254,2.254,0,0,0-199-163.746a2.254,2.254,0,0,0,2.253,2.253h6.761a2.254,2.254,0,0,0,2.254-2.253A2.254,2.254,0,0,0-189.986-166Z"
                      transform="translate(0 7.859)" fill="#fff"/>
                <path id="Tracé_656" data-name="Tracé 656"
                      d="M-172.214-201.214a2.253,2.253,0,0,0,0-3.186l-4.781-4.781a2.253,2.253,0,0,0-3.186,0,2.253,2.253,0,0,0,0,3.186l4.781,4.781a2.243,2.243,0,0,0,1.593.66A2.244,2.244,0,0,0-172.214-201.214Z"
                      transform="translate(2.302 2.302)" fill="#fff"/>
                <path id="Tracé_657" data-name="Tracé 657"
                      d="M-180.181-117.775a2.245,2.245,0,0,0,1.594.66,2.246,2.246,0,0,0,1.593-.66l4.781-4.78a2.253,2.253,0,0,0,0-3.186,2.252,2.252,0,0,0-3.186,0l-4.781,4.78A2.252,2.252,0,0,0-180.181-117.775Z"
                      transform="translate(2.302 12.878)" fill="#fff"/>
                <path id="Tracé_658" data-name="Tracé 658"
                      d="M-93.555-201.214l4.781-4.781a2.251,2.251,0,0,0,0-3.186,2.253,2.253,0,0,0-3.186,0l-4.781,4.781a2.253,2.253,0,0,0,0,3.186,2.243,2.243,0,0,0,1.593.66A2.243,2.243,0,0,0-93.555-201.214Z"
                      transform="translate(12.878 2.302)" fill="#fff"/>
                <path id="Tracé_659" data-name="Tracé 659" d="M-144.909-153.394l13.144-5.224-7.081-7.081Z"
                      transform="translate(6.856 7.897)" fill="#fff"/>
                <path id="Tracé_660" data-name="Tracé 660"
                      d="M-102.409-160.7A29.329,29.329,0,0,0-131.7-190,29.329,29.329,0,0,0-161-160.7a29.329,29.329,0,0,0,29.3,29.3A29.329,29.329,0,0,0-102.409-160.7Zm-45.07,16.9a2.25,2.25,0,0,1-1.655-.726,2.25,2.25,0,0,1-.366-2.524l10.266-20.834a2.255,2.255,0,0,1,1.19-1.1l21.282-8.461a2.248,2.248,0,0,1,2.488.564,2.252,2.252,0,0,1,.366,2.525l-10.266,20.836a2.257,2.257,0,0,1-1.189,1.1l-21.283,8.459A2.237,2.237,0,0,1-147.479-143.8Z"
                      transform="translate(4.817 4.817)" fill="#fff"/>
                <path id="Tracé_661" data-name="Tracé 661" d="M-136.755-168l7.08,7.081,6.063-12.305Z"
                      transform="translate(7.89 6.944)" fill="#fff"/>
                <path id="Tracé_662" data-name="Tracé 662"
                      d="M-105.541-121.037l4.919,5.148-.393.355.027.029a2.246,2.246,0,0,0,.065,2.933l21.295,23.533a7.01,7.01,0,0,0,5.2,2.221h0A7.825,7.825,0,0,0-69.139-88.9l4.265-3.906A7.8,7.8,0,0,0-62.33-98.2a6.9,6.9,0,0,0-1.824-5.014L-85.5-126.811a2.251,2.251,0,0,0-1.573-.739,2.325,2.325,0,0,0-1.571.545l-4.985-5.22A44.863,44.863,0,0,0-84.86-158.93,45.069,45.069,0,0,0-129.93-204,45.069,45.069,0,0,0-175-158.93a45.069,45.069,0,0,0,45.07,45.07A44.842,44.842,0,0,0-105.541-121.037Zm13.718-2.771-5.447,4.9-4.576-4.788a45.277,45.277,0,0,0,5.346-5.013Zm-71.909-35.122a33.8,33.8,0,0,1,33.8-33.8,33.8,33.8,0,0,1,33.8,33.8,33.8,33.8,0,0,1-33.8,33.8A33.8,33.8,0,0,1-163.732-158.93Z"
                      transform="translate(3.042 3.042)" fill="#fff"/>
            </g>
            <g id="Groupe_755" data-name="Groupe 755" transform="translate(144.5 2081.881)">
                <g id="Groupe_728" data-name="Groupe 728" transform="translate(31.5 41.75)">
                    <path id="Tracé_663" data-name="Tracé 663"
                          d="M102.926,68.847h-18.1a3.224,3.224,0,1,1,0-6.447h18.1a3.224,3.224,0,1,1,0,6.447Z"
                          transform="translate(42.637 -11.193)" fill="#fff"/>
                    <path id="Tracé_664" data-name="Tracé 664"
                          d="M98.227,78.054a8.927,8.927,0,1,1,8.927-8.927A9.051,9.051,0,0,1,98.227,78.054Z"
                          transform="translate(54.031 -14.448)" fill="#fff"/>
                    <path id="Tracé_665" data-name="Tracé 665"
                          d="M81.387,65.305a2.692,2.692,0,0,1-2.232-.992,3.143,3.143,0,0,1,0-4.464L92.05,46.955a3.156,3.156,0,0,1,4.464,4.464L83.619,64.313A3.693,3.693,0,0,1,81.387,65.305Z"
                          transform="translate(37.642 -35.424)" fill="#fff"/>
                    <path id="Tracé_666" data-name="Tracé 666"
                          d="M92,59.976a9.448,9.448,0,0,1-6.447-2.728A9.118,9.118,0,0,1,98.449,44.354h0a9.283,9.283,0,0,1,0,12.895A9.934,9.934,0,0,1,92,59.976Z"
                          transform="translate(44.634 -41.75)" fill="#fff"/>
                    <path id="Tracé_667" data-name="Tracé 667"
                          d="M94.882,93.505a2.692,2.692,0,0,1-2.232-.992L79.755,79.619a3.156,3.156,0,0,1,4.464-4.464L97.113,88.05a3.143,3.143,0,0,1,0,4.464A4.456,4.456,0,0,1,94.882,93.505Z"
                          transform="translate(38.53 6.306)" fill="#fff"/>
                    <path id="Tracé_668" data-name="Tracé 668"
                          d="M92.5,97.076a9.448,9.448,0,0,1-6.447-2.728,9.118,9.118,0,1,1,12.895,0h0A9,9,0,0,1,92.5,97.076Z"
                          transform="translate(45.374 13.15)" fill="#fff"/>
                    <path id="Tracé_669" data-name="Tracé 669"
                          d="M57.826,68.847h-18.1a3.224,3.224,0,0,1,0-6.447h18.1a3.224,3.224,0,0,1,0,6.447Z"
                          transform="translate(-24.101 -11.193)" fill="#fff"/>
                    <path id="Tracé_670" data-name="Tracé 670"
                          d="M40.427,78.054a8.927,8.927,0,1,1,8.927-8.927C49.6,73.839,45.387,78.054,40.427,78.054Z"
                          transform="translate(-31.5 -14.448)" fill="#fff"/>
                    <path id="Tracé_671" data-name="Tracé 671"
                          d="M58.082,65.305a2.692,2.692,0,0,1-2.232-.992L42.955,51.419a3.156,3.156,0,0,1,4.464-4.464L60.313,59.85a3.143,3.143,0,0,1,0,4.464A4.456,4.456,0,0,1,58.082,65.305Z"
                          transform="translate(-15.925 -35.424)" fill="#fff"/>
                    <path id="Tracé_672" data-name="Tracé 672"
                          d="M46.8,59.976a9.448,9.448,0,0,1-6.447-2.728,9.118,9.118,0,1,1,12.895,0A9,9,0,0,1,46.8,59.976Z"
                          transform="translate(-22.251 -41.75)" fill="#fff"/>
                    <path id="Tracé_673" data-name="Tracé 673"
                          d="M44.587,93.505a2.692,2.692,0,0,1-2.232-.992,3.143,3.143,0,0,1,0-4.464L55.25,75.155a3.156,3.156,0,0,1,4.464,4.464L46.819,92.513A3.693,3.693,0,0,1,44.587,93.505Z"
                          transform="translate(-16.813 6.306)" fill="#fff"/>
                    <path id="Tracé_674" data-name="Tracé 674"
                          d="M46.3,97.076a9.448,9.448,0,0,1-6.447-2.728A9.118,9.118,0,0,1,52.749,81.454a9.283,9.283,0,0,1,0,12.895A9.934,9.934,0,0,1,46.3,97.076Z"
                          transform="translate(-22.991 13.15)" fill="#fff"/>
                </g>
                <path id="Tracé_675" data-name="Tracé 675"
                      d="M93.3,44.2a49.1,49.1,0,1,0,49.1,49.1A49.212,49.212,0,0,0,93.3,44.2Zm23.31,64.722L96.027,119.337a4.794,4.794,0,0,1-6.943,0L68.5,108.922a4.794,4.794,0,0,1,0-6.943l3.224-1.984,16.119,8.183a6.366,6.366,0,0,0,4.464,1.736,7.725,7.725,0,0,0,4.464-1.736l16.119-8.183,3.224,1.984A4.46,4.46,0,0,1,116.609,108.922Zm0-12.647L96.027,106.69a4.794,4.794,0,0,1-6.943,0L68.5,96.275a4.794,4.794,0,0,1,0-6.943l3.224-1.984,16.119,8.183a6.366,6.366,0,0,0,4.464,1.736,7.725,7.725,0,0,0,4.464-1.736l16.119-8.183,3.224,1.984A4.452,4.452,0,0,1,116.609,96.275Zm0-12.647L96.027,94.043a4.794,4.794,0,0,1-6.943,0L68.5,83.628a4.794,4.794,0,0,1,0-6.943L89.084,67.51a4.794,4.794,0,0,1,6.943,0l20.582,9.175A4.792,4.792,0,0,1,116.609,83.628Z"
                      transform="translate(18.793 3.625)" fill="#fff"/>
            </g>
            <path id="Tracé_686" data-name="Tracé 686"
                  d="M89.714,79.92a4.131,4.131,0,0,0,3.4-4.049V71.355a4.13,4.13,0,0,0-3.4-3.98l-4.806-.84a22.593,22.593,0,0,0-4.545-7.877l1.68-4.586a4.131,4.131,0,0,0-1.8-4.958l-3.925-2.4a4.13,4.13,0,0,0-5.206.923l-3.126,3.732a22.816,22.816,0,0,0-9.1,0l-3.126-3.732a4.133,4.133,0,0,0-5.178-.923l-3.925,2.258a4.131,4.131,0,0,0-1.8,4.958l1.6,4.668A22.64,22.64,0,0,0,41.9,66.48l-4.751.9a4.131,4.131,0,0,0-3.4,4.049v4.531A4.131,4.131,0,0,0,37.15,80l4.806.84a22.609,22.609,0,0,0,4.489,7.795l-1.68,4.586a4.131,4.131,0,0,0,1.8,4.958l4.007,2.245a4.13,4.13,0,0,0,5.206-.923l3.057-3.7a22.816,22.816,0,0,0,9.1,0l3.126,3.732a4.13,4.13,0,0,0,5.206.923L80.2,98.195A4.131,4.131,0,0,0,82,93.237l-1.68-4.586a22.593,22.593,0,0,0,4.545-7.877ZM63.439,82.193A8.566,8.566,0,1,1,72,73.627a8.566,8.566,0,0,1-8.566,8.566ZM13.091,121h87.847l-5.674-13.372H14.372V39.612h98.175V80.926L125.919,86.6V19.671A12.105,12.105,0,0,0,113.828,7.58H13.091A12.105,12.105,0,0,0,1,19.671v89.238A12.105,12.105,0,0,0,13.091,121ZM49.075,19.575a5.027,5.027,0,1,1-.055,0Zm-15.011,0a5.027,5.027,0,1,1-.055,0h.055Zm-15.011,0a5.027,5.027,0,1,1-.055,0Zm115.417,96.206a5.064,5.064,0,0,1-7.161,7.161l-6.39-6.4-3.815,3.815a4.393,4.393,0,0,1-7.161-1.377l-10.852-25.6a4.354,4.354,0,0,1,.372-4.131,4.407,4.407,0,0,1,5.508-1.653L130.45,98.415a4.393,4.393,0,0,1,1.377,7.161l-3.746,3.8Z"
                  transform="translate(471 1838.943)" fill="#fff"/>
            <g id="Groupe_756" data-name="Groupe 756" transform="translate(180.799 1568.082)">
                <path id="Tracé_677" data-name="Tracé 677"
                      d="M43.127,14.258c0-6.047-3.586-10.947-8.02-10.947s-8.024,4.9-8.028,10.947V85.029H43.135Z"
                      transform="translate(77.589 0)" fill="#fff"/>
                <path id="Tracé_678" data-name="Tracé 678"
                      d="M35.064,46.782c4.118,0,7.508-15.569,7.963-22.619H27.093C27.556,31.217,30.945,46.782,35.064,46.782Z"
                      transform="translate(77.632 64.513)" fill="#fff"/>
                <path id="Tracé_679" data-name="Tracé 679"
                      d="M83.973,5.4,3.414,105.176c-2.714,3.365-1.4,6.116,2.923,6.116H11.59v-4.913a2.458,2.458,0,0,1,4.917,0v4.913h15.72v-4.913a2.458,2.458,0,0,1,4.917,0v4.913h15.72v-4.913a2.458,2.458,0,0,1,4.917,0v4.913H73.5v-4.913a2.458,2.458,0,0,1,4.917,0v4.913h2.649a7.881,7.881,0,0,0,7.86-7.86V92.055H82.589a2.46,2.46,0,0,1,0-4.921h6.337V71.413H82.589a2.456,2.456,0,1,1,0-4.913h6.337V50.78H82.589a2.46,2.46,0,0,1,0-4.921h6.337V30.139H82.589a2.456,2.456,0,1,1,0-4.913h6.337V7.144C88.91,2.821,86.691,2.039,83.973,5.4ZM69.264,91.641H39.6L69.264,54.9Z"
                      transform="translate(0 0.003)" fill="#fff"/>
            </g>
        </g>
    </g>
</svg>
