<svg xmlns="http://www.w3.org/2000/svg" width="86.014" height="28" viewBox="0 0 86.014 28">
    <g id="_4sh_logo" data-name="4sh_logo" transform="translate(-8.7 -5.25)">
        <g id="Groupe_1" data-name="Groupe 1" transform="translate(38.279 5.25)">
            <path id="Tracé_1" data-name="Tracé 1"
                  d="M266.6,24.079h-5.108a.892.892,0,0,0-.892.892v1.82c0,4.38,2.043,6.458,7.691,6.458h10.9c6.388,0,9.558-.681,9.558-7.621,0-6.893-.4-9.641-9.969-9.641H270.4c-3.9,0-3.922-4.615-.247-4.615H278.1c1.914,0,2.666.481,2.83,2.055a.881.881,0,0,0,.881.8h5.12a.892.892,0,0,0,.892-.892V11.385c0-6.13-5.625-6.13-7.727-6.13H269.325c-3.816,0-8.725-.528-8.725,8.419,0,9.018,3.5,8.607,10.815,8.607h6.376c5.93,0,4.591,4.826,1.362,4.826h-9.171c-1.256,0-2.3-.153-2.513-2.219A.872.872,0,0,0,266.6,24.079Z"
                  transform="translate(-260.6 -5.25)" fill="#494849"/>
        </g>
        <path id="Tracé_2" data-name="Tracé 2"
              d="M586.463,95.052l-4.345-4.345a1.155,1.155,0,0,1,0-1.644l4.345-4.345a1.155,1.155,0,0,1,1.644,0l4.345,4.345a1.155,1.155,0,0,1,0,1.644l-4.345,4.345A1.155,1.155,0,0,1,586.463,95.052Z"
              transform="translate(-505.782 -69.834)" fill="#ea2631"/>
        <path id="Tracé_3" data-name="Tracé 3"
              d="M522.3,33.459h-5.4a.792.792,0,0,1-.8-.8V6.3a.792.792,0,0,1,.8-.8h5.4a.792.792,0,0,1,.8.8V32.66A.8.8,0,0,1,522.3,33.459Z"
              transform="translate(-447.819 -0.221)" fill="#494849"/>
        <path id="Tracé_4" data-name="Tracé 4"
              d="M687.8,33.459h-5.4a.792.792,0,0,1-.8-.8V6.3a.792.792,0,0,1,.8-.8h5.4a.792.792,0,0,1,.8.8V32.66A.8.8,0,0,1,687.8,33.459Z"
              transform="translate(-593.885 -0.221)" fill="#494849"/>
        <g id="Groupe_2" data-name="Groupe 2" transform="translate(8.7 5.267)">
            <path id="Tracé_5" data-name="Tracé 5"
                  d="M33.054,21.5V6.234A.837.837,0,0,0,32.22,5.4H25.914a2.875,2.875,0,0,0-1.7.564L9.874,16.52A2.859,2.859,0,0,0,8.7,18.833v8a.837.837,0,0,0,.834.834h16.85v4.885a.837.837,0,0,0,.834.834h5a.837.837,0,0,0,.834-.834V27.664H35.6a.837.837,0,0,0,.834-.834v-4.5A.837.837,0,0,0,35.6,21.5H33.054Zm-6.822,0H14.583a.156.156,0,0,1-.094-.282l11.649-8.924a.162.162,0,0,1,.258.129v8.924A.158.158,0,0,1,26.232,21.5Z"
                  transform="translate(-8.7 -5.4)" fill="#494849"/>
        </g>
    </g>
</svg>
