<svg width="1645" height="680" viewBox="0 0 1645 680" fill="none" xmlns="http://www.w3.org/2000/svg">
<mask id="mask0_6_469" style="mask-type:alpha" maskUnits="userSpaceOnUse" x="0" y="0" width="1662" height="680">
<path d="M1656.84 569.755C1656.84 569.755 1319.78 679.842 806.932 605.57C294.08 531.299 0 679.842 0 679.842L0.424227 189.049C0.424227 189.049 316.673 -21.8879 806.932 86.6436C1297.2 195.181 1662 0.718262 1662 0.718262L1656.84 569.755Z" fill="url(#paint0_linear_6_469)"/>
</mask>
<g mask="url(#mask0_6_469)">
<path d="M1656.84 569.755C1656.84 569.755 1319.78 679.842 806.932 605.57C294.08 531.299 0 679.842 0 679.842L0.424227 189.049C0.424227 189.049 316.673 -21.8879 806.932 86.6436C1297.2 195.181 1662 0.718262 1662 0.718262L1656.84 569.755Z" fill="url(#paint1_linear_6_469)"/>
<path d="M1656.84 569.754C1656.84 569.754 1319.78 679.841 806.932 605.57C294.08 531.299 0 679.841 0 679.841L0.424227 491.15H1662L1656.84 569.754Z" fill="url(#paint2_linear_6_469)"/>
<path d="M282.426 398.341L290.435 398.45C290.39 402.416 291.393 413.851 296.535 419.051C298.347 420.889 300.533 421.783 303.2 421.783C315.856 421.783 323.499 421.757 326.642 421.744V397.364H340.429V431.148C343.039 431.161 354.422 431.212 375.364 431.212C379.606 431.212 383.077 429.785 385.976 426.854C395.225 417.489 395.078 396.754 395.071 396.541L399.076 396.49L403.08 396.432C403.093 397.416 403.292 420.697 391.69 432.466C387.274 436.946 381.785 439.215 375.37 439.215C354.506 439.215 343.129 439.163 340.436 439.15V579.19H326.648V429.747C323.473 429.76 315.831 429.785 303.207 429.785C298.347 429.785 294.182 428.063 290.827 424.663C282.278 415.992 282.419 399.055 282.432 398.341H282.426Z" fill="url(#paint3_linear_6_469)"/>
<path d="M243.256 367.443H251.258C251.31 366.325 251.348 364.846 251.348 362.879C251.348 355.918 260.604 356.792 260.604 356.792L262.037 356.831C264.377 350.545 270.156 346.052 276.892 346.052H397.147C403.215 346.052 408.518 349.69 411.218 355.012C411.218 354.999 411.218 354.986 411.218 354.973C423.983 354.973 424.606 366.376 424.632 367.649C432.326 368.857 438.278 375.908 438.278 384.386C438.278 393.707 431.092 401.323 422.305 401.323H243.249C234.463 401.323 227.276 393.7 227.276 384.386C227.276 375.066 234.463 367.45 243.249 367.45L243.256 367.443Z" fill="url(#paint4_linear_6_469)"/>
<path d="M426.13 382.375C426.098 381.096 425.474 369.699 412.715 369.699C412.715 369.712 412.715 369.725 412.715 369.738C410.016 364.416 404.713 360.778 398.645 360.778H278.389C271.653 360.778 265.875 365.264 263.535 371.557L262.102 371.525C262.102 371.525 252.846 370.657 252.846 377.612C252.846 379.585 252.807 381.063 252.756 382.175H244.753C243.095 382.175 241.488 382.452 239.984 382.953C240.871 374.514 247.665 367.887 255.854 367.887H263.856C263.908 366.768 263.946 365.29 263.946 363.323C263.946 356.362 273.202 357.236 273.202 357.236L274.636 357.275C276.975 350.988 282.754 346.495 289.49 346.495H409.746C415.813 346.495 421.116 350.133 423.816 355.456C423.816 355.443 423.816 355.43 423.816 355.417C436.581 355.417 437.205 366.82 437.23 368.092C444.924 369.301 450.876 376.352 450.876 384.83C450.876 392.389 436.697 396.953 430.224 399.112C430.288 398.495 430.224 399.749 430.224 399.112C430.224 390.634 433.817 383.577 426.13 382.375Z" fill="#55B898"/>
<path d="M458.082 294.296H454.27C452.554 285.837 445.034 279.422 436.093 279.422H348.291C338.09 279.422 329.74 287.772 329.74 297.973C329.74 308.173 338.09 316.523 348.291 316.523H352.102C353.818 324.982 361.339 331.397 370.28 331.397H458.082C468.283 331.397 476.632 323.047 476.632 312.846C476.632 302.646 468.283 294.296 458.082 294.296Z" fill="#55B898"/>
<path d="M472.306 350.403V402.082C472.306 409.448 470.352 414.931 466.502 418.382C460.518 423.743 451.564 422.843 451.493 422.83L428.277 422.805V353.894H409.456V366.138L393.104 366.145C391.761 365.913 386.992 364.486 386.992 355.867H378.372C378.372 369.789 387.557 374.301 392.41 374.739L409.45 374.758V594.726H428.27V431.405H450.774C451.185 431.444 451.995 431.495 453.087 431.495C457.265 431.495 465.628 430.679 472.178 424.849C477.975 419.694 480.919 412.026 480.919 402.063V350.384H472.3L472.306 350.403Z" fill="url(#paint5_linear_6_469)"/>
<path d="M535.767 325.361C535.767 315.675 527.841 307.749 518.155 307.749H414.913C406.718 307.749 399.802 313.431 397.861 321.048H368.531C358.845 321.048 350.919 328.973 350.919 338.66C350.919 348.347 358.845 356.272 368.531 356.272H506.81C515.385 356.272 522.571 350.056 524.107 341.906C530.882 339.444 535.76 332.952 535.76 325.355L535.767 325.361Z" fill="url(#paint6_linear_6_469)"/>
<path d="M326.893 310.982L315.085 311.143C315.156 316.992 313.671 333.846 306.093 341.52C303.419 344.226 300.205 345.544 296.265 345.544C277.605 345.544 266.338 345.506 261.703 345.486V309.543H241.372V359.351C237.522 359.37 220.746 359.447 189.867 359.447C183.607 359.447 178.49 357.345 174.229 353.026C160.589 339.213 160.808 308.643 160.814 308.334L154.914 308.257L149.013 308.174C148.994 309.626 148.704 343.944 165.809 361.298C172.32 367.906 180.419 371.255 189.874 371.255C220.637 371.255 237.413 371.178 241.379 371.158V577.629H261.71V357.294C266.389 357.313 277.663 357.352 296.271 357.352C303.438 357.352 309.577 354.813 314.519 349.799C327.118 337.021 326.912 312.049 326.893 310.989V310.982Z" fill="url(#paint7_linear_6_469)"/>
<path d="M384.646 265.423H372.851C372.774 263.778 372.716 261.599 372.716 258.693C372.716 248.435 359.063 249.714 359.063 249.714L356.949 249.765C353.504 240.49 344.974 233.876 335.043 233.876H157.748C148.801 233.876 140.985 239.243 137 247.085C137 247.066 137 247.046 137 247.033C118.18 247.033 117.26 263.842 117.215 265.725C105.877 267.506 97.0903 277.906 97.0903 290.401C97.0903 304.137 107.69 315.379 120.641 315.379H384.639C397.591 315.379 408.19 304.137 408.19 290.401C408.19 276.665 397.591 265.423 384.639 265.423H384.646Z" fill="url(#paint8_linear_6_469)"/>
<path d="M115.023 287.431C115.068 285.548 115.988 268.739 134.808 268.739C134.808 268.759 134.808 268.778 134.808 268.791C138.793 260.949 146.609 255.582 155.556 255.582H332.851C342.782 255.582 351.305 262.196 354.757 271.471L356.871 271.42C356.871 271.42 370.524 270.134 370.524 280.399C370.524 283.305 370.575 285.49 370.659 287.129H382.454C384.903 287.129 387.262 287.534 389.486 288.28C388.174 275.836 378.16 266.072 366.089 266.072H354.294C354.217 264.426 354.159 262.247 354.159 259.342C354.159 249.084 340.507 250.363 340.507 250.363L338.392 250.414C334.947 241.139 326.417 234.525 316.486 234.525H139.192C130.244 234.525 122.428 239.892 118.443 247.734C118.443 247.715 118.443 247.695 118.443 247.682C99.6227 247.682 98.7035 264.491 98.6585 266.374C87.3201 268.155 78.5334 278.555 78.5334 291.05C78.5334 302.189 87.6672 311.072 107.561 311.072C107.561 312.011 107.464 310.159 107.561 311.072C107.561 299.92 103.672 289.205 115.017 287.431H115.023Z" fill="#55B898"/>
<path d="M1244.17 429.817H982.626V439.851H1244.17V429.817Z" fill="#576F77"/>
<path d="M1677.64 433.918H1525.09V443.952H1677.64V433.918Z" fill="#576F77"/>
<path d="M1317.41 448.297V446.69H1337.21V417.592H1317.41V415.985H1337.21V386.887H1317.41V385.28H1337.21V356.182H1317.41V354.575H1337.21V331.217L1299.47 290.677V489.267H1337.21V448.297H1317.41Z" fill="#D7D7D7"/>
<path d="M1315.96 308.739L1302.74 297.523L1302.85 489.601L1299.36 489.023V290.054L1315.96 308.739Z" fill="url(#paint9_linear_6_469)"/>
<path d="M1452.91 449.801V447.86H1433.12V419.096H1452.91V417.155H1433.12V388.391H1452.91V386.45H1433.12V357.686H1452.91V355.745H1433.12V332.721L1470.86 292.182V490.771H1433.12V449.801H1452.91Z" fill="#D7D7D7"/>
<path d="M1454.37 310.243L1467.58 299.027L1467.47 491.105L1470.96 490.527V291.558L1454.37 310.243Z" fill="url(#paint10_linear_6_469)"/>
<path d="M1481.72 444.01C1385.71 427.452 1283.93 440.134 1282.91 440.262L1281.64 430.884C1282.66 430.749 1385.94 417.881 1483.41 434.696L1481.72 444.003L1481.72 444.01Z" fill="#576F77"/>
<path d="M1257.89 451.235V449.306H1290.04V414.134H1257.89V412.084H1290.04V377.04H1257.89V375.414H1290.04V339.946H1257.89V338.146H1290.04V302.851H1257.89V301.148H1290.04V281.827L1244.55 228.522V489.64H1290.04V451.235H1257.89Z" fill="url(#paint11_linear_6_469)"/>
<path d="M1265.39 253.828L1248.99 238.324L1249.16 489.743L1244.55 489.64V228.522L1265.39 253.828Z" fill="url(#paint12_linear_6_469)"/>
<path d="M1512.43 452.739V450.476H1480.28V415.638H1512.43V413.382H1480.28V378.544H1512.43V376.288H1480.28V341.45H1512.43V339.187H1480.28V304.355H1512.43V302.093H1480.28V283.33L1525.77 230.026V491.144H1480.28V452.739H1512.43Z" fill="url(#paint13_linear_6_469)"/>
<path d="M1504.93 255.331L1521.33 239.828L1521.17 491.247L1525.77 491.144V230.026L1504.93 255.331Z" fill="url(#paint14_linear_6_469)"/>
<path d="M1232.41 489.293H1351.06C1352.24 489.293 1353.19 490.244 1353.19 491.42V508.736H1230.28V491.42C1230.28 490.244 1231.24 489.293 1232.41 489.293Z" fill="url(#paint15_linear_6_469)"/>
<path d="M1418.87 489.293H1537.52C1538.7 489.293 1539.65 490.244 1539.65 491.42V508.736H1416.75V491.42C1416.75 490.244 1417.7 489.293 1418.87 489.293Z" fill="url(#paint16_linear_6_469)"/>
<path d="M186.583 470.273C-56.0624 417.875 -37.7435 696.836 -33.5655 727.368L589.599 594.328C577.386 522.98 539.463 488.528 466.187 470.273C374.593 447.455 339.059 503.2 186.583 470.273Z" fill="url(#paint17_linear_6_469)"/>
</g>
<defs>
<linearGradient id="paint0_linear_6_469" x1="830.996" y1="499.866" x2="830.996" y2="0.718262" gradientUnits="userSpaceOnUse">
<stop offset="0.01" stop-color="#F8FBFE"/>
<stop offset="0.4" stop-color="#DFE5F5"/>
<stop offset="0.51" stop-color="#DAE3F4"/>
<stop offset="0.61" stop-color="#CEDEF3"/>
<stop offset="0.72" stop-color="#BAD7F0"/>
<stop offset="0.82" stop-color="#9ECCED"/>
<stop offset="0.93" stop-color="#7ABEE8"/>
<stop offset="1" stop-color="#5CB3E5"/>
</linearGradient>
<linearGradient id="paint1_linear_6_469" x1="830.996" y1="499.866" x2="830.996" y2="0.718262" gradientUnits="userSpaceOnUse">
<stop offset="0.01" stop-color="#F8FBFE"/>
<stop offset="0.4" stop-color="#DFE5F5"/>
<stop offset="0.51" stop-color="#DAE3F4"/>
<stop offset="0.61" stop-color="#CEDEF3"/>
<stop offset="0.72" stop-color="#BAD7F0"/>
<stop offset="0.82" stop-color="#9ECCED"/>
<stop offset="0.93" stop-color="#7ABEE8"/>
<stop offset="1" stop-color="#5CB3E5"/>
</linearGradient>
<linearGradient id="paint2_linear_6_469" x1="830.996" y1="631.917" x2="830.996" y2="454.191" gradientUnits="userSpaceOnUse">
<stop offset="0.01" stop-color="#DFEEFC"/>
<stop offset="1" stop-color="#2090D0"/>
</linearGradient>
<linearGradient id="paint3_linear_6_469" x1="344.337" y1="577.911" x2="342.319" y2="348.79" gradientUnits="userSpaceOnUse">
<stop offset="0.02" stop-color="white"/>
<stop offset="0.7" stop-color="#A6553C"/>
<stop offset="0.92"/>
</linearGradient>
<linearGradient id="paint4_linear_6_469" x1="332.781" y1="370.58" x2="332.781" y2="416.435" gradientUnits="userSpaceOnUse">
<stop offset="0.33" stop-color="#428774"/>
<stop offset="0.86" stop-color="#436574"/>
</linearGradient>
<linearGradient id="paint5_linear_6_469" x1="427.75" y1="594.9" x2="429.903" y2="349.953" gradientUnits="userSpaceOnUse">
<stop offset="0.2" stop-color="white"/>
<stop offset="0.85" stop-color="#A6553C"/>
<stop offset="0.97"/>
</linearGradient>
<linearGradient id="paint6_linear_6_469" x1="443.343" y1="319.75" x2="443.343" y2="369.95" gradientUnits="userSpaceOnUse">
<stop offset="0.33" stop-color="#428774"/>
<stop offset="0.49" stop-color="#427D76"/>
<stop offset="0.86" stop-color="#436574"/>
</linearGradient>
<linearGradient id="paint7_linear_6_469" x1="235.96" y1="535.971" x2="238.165" y2="285.754" gradientUnits="userSpaceOnUse">
<stop offset="0.08" stop-color="white"/>
<stop offset="0.72" stop-color="#A6553C"/>
<stop offset="0.92"/>
</linearGradient>
<linearGradient id="paint8_linear_6_469" x1="252.647" y1="270.045" x2="252.647" y2="337.657" gradientUnits="userSpaceOnUse">
<stop offset="0.33" stop-color="#428774"/>
<stop offset="0.86" stop-color="#436574"/>
</linearGradient>
<linearGradient id="paint9_linear_6_469" x1="1307.66" y1="489.601" x2="1307.66" y2="290.054" gradientUnits="userSpaceOnUse">
<stop offset="0.19" stop-color="white"/>
<stop offset="0.24" stop-color="#DFECF6"/>
<stop offset="0.32" stop-color="#ADCEE7"/>
<stop offset="0.41" stop-color="#82B5DB"/>
<stop offset="0.49" stop-color="#5FA0D1"/>
<stop offset="0.58" stop-color="#4490C9"/>
<stop offset="0.67" stop-color="#3185C4"/>
<stop offset="0.76" stop-color="#257EC1"/>
<stop offset="0.85" stop-color="#227CC0"/>
</linearGradient>
<linearGradient id="paint10_linear_6_469" x1="1462.66" y1="491.105" x2="1462.66" y2="291.558" gradientUnits="userSpaceOnUse">
<stop offset="0.19" stop-color="white"/>
<stop offset="0.24" stop-color="#DFECF6"/>
<stop offset="0.32" stop-color="#ADCEE7"/>
<stop offset="0.41" stop-color="#82B5DB"/>
<stop offset="0.49" stop-color="#5FA0D1"/>
<stop offset="0.58" stop-color="#4490C9"/>
<stop offset="0.67" stop-color="#3185C4"/>
<stop offset="0.76" stop-color="#257EC1"/>
<stop offset="0.85" stop-color="#227CC0"/>
</linearGradient>
<linearGradient id="paint11_linear_6_469" x1="1268.68" y1="234.557" x2="1266.25" y2="453.928" gradientUnits="userSpaceOnUse">
<stop offset="0.19" stop-color="#EDEDED"/>
<stop offset="0.55" stop-color="#EBEBEB"/>
<stop offset="0.68" stop-color="#E4E4E4"/>
<stop offset="0.77" stop-color="#D8D8D8"/>
<stop offset="0.85" stop-color="#C6C6C6"/>
</linearGradient>
<linearGradient id="paint12_linear_6_469" x1="1254.97" y1="489.743" x2="1254.97" y2="228.522" gradientUnits="userSpaceOnUse">
<stop offset="0.19" stop-color="white"/>
<stop offset="0.24" stop-color="#DFECF6"/>
<stop offset="0.32" stop-color="#ADCEE7"/>
<stop offset="0.41" stop-color="#82B5DB"/>
<stop offset="0.49" stop-color="#5FA0D1"/>
<stop offset="0.58" stop-color="#4490C9"/>
<stop offset="0.67" stop-color="#3185C4"/>
<stop offset="0.76" stop-color="#257EC1"/>
<stop offset="0.85" stop-color="#227CC0"/>
</linearGradient>
<linearGradient id="paint13_linear_6_469" x1="1501.64" y1="236.061" x2="1504.07" y2="455.432" gradientUnits="userSpaceOnUse">
<stop offset="0.19" stop-color="#EDEDED"/>
<stop offset="0.55" stop-color="#EBEBEB"/>
<stop offset="0.68" stop-color="#E4E4E4"/>
<stop offset="0.77" stop-color="#D8D8D8"/>
<stop offset="0.85" stop-color="#C6C6C6"/>
</linearGradient>
<linearGradient id="paint14_linear_6_469" x1="1515.35" y1="491.247" x2="1515.35" y2="230.026" gradientUnits="userSpaceOnUse">
<stop offset="0.19" stop-color="white"/>
<stop offset="0.24" stop-color="#DFECF6"/>
<stop offset="0.32" stop-color="#ADCEE7"/>
<stop offset="0.41" stop-color="#82B5DB"/>
<stop offset="0.49" stop-color="#5FA0D1"/>
<stop offset="0.58" stop-color="#4490C9"/>
<stop offset="0.67" stop-color="#3185C4"/>
<stop offset="0.76" stop-color="#257EC1"/>
<stop offset="0.85" stop-color="#227CC0"/>
</linearGradient>
<linearGradient id="paint15_linear_6_469" x1="1291.86" y1="489.093" x2="1291.66" y2="506.564" gradientUnits="userSpaceOnUse">
<stop offset="0.19" stop-color="#EDEDED"/>
<stop offset="0.55" stop-color="#EBEBEB"/>
<stop offset="0.68" stop-color="#E4E4E4"/>
<stop offset="0.77" stop-color="#D8D8D8"/>
<stop offset="0.85" stop-color="#C6C6C6"/>
</linearGradient>
<linearGradient id="paint16_linear_6_469" x1="1478.32" y1="489.093" x2="1478.12" y2="506.564" gradientUnits="userSpaceOnUse">
<stop offset="0.19" stop-color="#EDEDED"/>
<stop offset="0.55" stop-color="#EBEBEB"/>
<stop offset="0.68" stop-color="#E4E4E4"/>
<stop offset="0.77" stop-color="#D8D8D8"/>
<stop offset="0.85" stop-color="#C6C6C6"/>
</linearGradient>
<linearGradient id="paint17_linear_6_469" x1="311.856" y1="449.889" x2="311.856" y2="594.328" gradientUnits="userSpaceOnUse">
<stop stop-color="#FFB03A"/>
<stop offset="1" stop-color="#FFEACA"/>
</linearGradient>
</defs>
</svg>
