<?xml version="1.0" encoding="utf-8"?>
<!-- Generator: Adobe Illustrator 26.0.2, SVG Export Plug-In . SVG Version: 6.00 Build 0)  -->
<svg version="1.1" id="Calque_1" xmlns="http://www.w3.org/2000/svg" xmlns:xlink="http://www.w3.org/1999/xlink" x="0px" y="0px"
	 viewBox="0 0 512 512" style="enable-background:new 0 0 512 512;" xml:space="preserve">
<style type="text/css">
	.st0{fill:#FFFFFF;}
</style>
<path class="st0" d="M256,0C114.6,0,0,114.6,0,256s114.6,256,256,256s256-114.6,256-256S397.4,0,256,0z M384,288H205.3l49.4,49.4
	c12.5,12.5,12.5,32.8,0,45.2s-32.8,12.5-45.2,0l-104-104c-8-7.9-9.4-17.7-9.4-22.6c0-4.9,1.4-14.7,9.4-22.6l103.1-103.1
	c12.5-12.5,32.8-12.5,45.2,0c12.5,12.5,12.5,32.8,0,45.2L205.3,224H384c17.7,0,32,14.3,32,32S401.7,288,384,288z"/>
</svg>
