<svg xmlns="http://www.w3.org/2000/svg" xmlns:xlink="http://www.w3.org/1999/xlink" width="1440.09" height="239.307" viewBox="0 0 1440.09 239.307">
  <defs>
    <radialGradient id="radial-gradient" cx="0.668" cy="0.837" r="1.263" gradientTransform="matrix(0.114, -0.727, 0.119, 0.677, 0.492, 0.756)" gradientUnits="objectBoundingBox">
      <stop offset="0" stop-color="#ea2631"/>
      <stop offset="1" stop-color="#ed3d47"/>
    </radialGradient>
  </defs>
  <g id="Groupe_757" data-name="Groupe 757" transform="translate(3969.09 -1075.956)">
    <g id="Groupe_756" data-name="Groupe 756" transform="translate(-4085 -137)">
      <path id="Union_9" data-name="Union 9" d="M-.059,235.576c0,.029,0,.06,0,.089A.08.08,0,0,1-.059,235.576ZM0,16.8,1439.917-3.331s-3.6,1.35-10.563,3.763L1440,.274l-10.645.158C1371.6,20.442,1082.782,113.424,702.41,113.424c-422.83,0-700.247,117.54-702.47,122.151C-.059,210.4,0,16.8,0,16.8Z" transform="translate(116 1216.598)" fill="url(#radial-gradient)"/>
      <path id="Tracé_286" data-name="Tracé 286" d="M0,205.378S311.185,118.1,737.42,118.1,1441.882,8.054,1439.642,5.474c0-44.951.275,200.15.275,200.15S-.882,205.887,0,205.378Z" transform="translate(1555.827 1418.648) rotate(180)" fill="#ea2631"/>
    </g>
  </g>
</svg>
