<?xml version="1.0" encoding="utf-8"?>
<!-- Generator: Adobe Illustrator 23.0.4, SVG Export Plug-In . SVG Version: 6.00 Build 0)  -->
<svg version="1.1" id="Calque_1" xmlns="http://www.w3.org/2000/svg" xmlns:xlink="http://www.w3.org/1999/xlink" x="0px" y="0px"
	 viewBox="0 0 1442.2 158.6" style="enable-background:new 0 0 1442.2 158.6;" xml:space="preserve">
<style type="text/css">
	.st0{fill:url(#Union_15_1_);}
	.st1{fill:#EA2631;}
</style>
<g id="Groupe_749" transform="translate(4288.415 -2909.72)">
	
		<radialGradient id="Union_15_1_" cx="-3569.4458" cy="2984.9377" r="511.5763" gradientTransform="matrix(1.0035 0 0 1 15.1103 0)" gradientUnits="userSpaceOnUse">
		<stop  offset="0" style="stop-color:#EA2631"/>
		<stop  offset="1" style="stop-color:#E8525B"/>
	</radialGradient>
	<path id="Union_15" class="st0" d="M-2845.5,3066.4C-2845.5,3066.4-2845.5,3066.4-2845.5,3066.4
		C-2845.5,3066.4-2845.5,3066.4-2845.5,3066.4z M-3549.6,2977c-426-7.2-738.7-67.3-738.7-67.3l1096.5,11.6l-1092.1-17.8l1092.1,17.8
		l345.9,3.7c0,0,0.4,137.2,0.4,141.4C-2847.8,3063.4-3127,2984.2-3549.6,2977L-3549.6,2977z"/>
	<path id="Tracé_686" class="st1" d="M-4288.4,2909.7c0,0,306.5,55.8,734.7,55.8s707.7,71.7,707.6,72c0.1,0.1,0-127.9,0-127.9
		L-4288.4,2909.7L-4288.4,2909.7z"/>
</g>
</svg>
