<?xml version="1.0" encoding="utf-8"?>
<!-- Generator: Adobe Illustrator 28.2.0, SVG Export Plug-In . SVG Version: 6.00 Build 0)  -->
<svg version="1.1" id="Calque_1" xmlns="http://www.w3.org/2000/svg" xmlns:xlink="http://www.w3.org/1999/xlink" x="0px" y="0px"
	 viewBox="0 0 54 39.5" style="enable-background:new 0 0 54 39.5;" xml:space="preserve">
<style type="text/css">
	.st0{fill:#7B6AA7;}
</style>
<g id="Groupe_752" transform="translate(-50 -47.682)">
	<path class="st0" d="M77.1,47.7L50,62.3l10.4,5.6v11.3c0,1.5,0.7,2.8,2,3.7c4.5,2.8,9.5,4.3,14.7,4.3c5,0,10.2-1.5,14.5-4.5
		c1.3-0.7,2-2.2,2-3.7V67.7l10.4-5.6L77.1,47.7z M90.5,79.2c0,0.4-0.2,0.9-0.6,1.1c-7.8,5-18,5-25.8,0c-0.4-0.2-0.6-0.7-0.6-1.1
		v-9.5l13.4,7.4L90.5,70V79.2z M77.1,73.3L56.7,62.2L77.1,51l20.4,11.1L77.1,73.3z"/>
</g>
</svg>
