<svg width="718" height="534" viewBox="0 0 718 534" fill="none" xmlns="http://www.w3.org/2000/svg">
<g clip-path="url(#clip0_363_2154)">
<path d="M674.428 413.931H346.796V464.024H674.428V413.931Z" fill="#231F20"/>
<path d="M346.737 466.243C345.514 466.243 344.516 465.245 344.516 464.024V413.931C344.545 412.695 345.559 411.711 346.796 411.711H674.428C675.651 411.711 676.649 412.709 676.649 413.931V464.024C676.649 465.245 675.651 466.243 674.428 466.243H346.796C346.796 466.243 346.767 466.243 346.752 466.243H346.737ZM672.207 416.299H349.017V461.79H672.207V416.299Z" fill="#231F20"/>
<path d="M486.664 413.931H346.796V464.024H486.664V413.931Z" fill="white"/>
<path d="M346.691 466.348C345.439 466.318 344.441 465.275 344.47 464.024V413.931C344.47 412.65 345.514 411.607 346.796 411.607H486.664C487.931 411.637 488.96 412.665 488.99 413.931V464.024C488.99 465.305 487.946 466.348 486.664 466.348H346.796C346.796 466.348 346.721 466.348 346.691 466.348ZM484.339 416.255H349.077V461.745H484.339V416.255Z" fill="#231F20"/>
<path d="M720.668 365.253H393.036V415.346H720.668V365.253Z" fill="#231F20"/>
<path d="M390.756 415.346V365.253C390.756 364.031 391.755 363.033 392.977 363.033H720.773C721.995 363.033 722.994 364.031 722.994 365.253V415.346C722.994 416.567 721.995 417.565 720.773 417.565H392.977C391.755 417.565 390.756 416.567 390.756 415.346ZM718.447 367.636H395.213V413.126H718.447V367.636Z" fill="#231F20"/>
<path d="M532.905 365.253H393.036V415.346H532.905V365.253Z" fill="white"/>
<path d="M392.932 417.67C391.68 417.64 390.681 416.597 390.711 415.346V365.253C390.711 363.987 391.724 362.959 392.991 362.929H532.905C534.172 362.959 535.185 363.987 535.185 365.253V415.346C535.185 415.346 535.185 415.376 535.185 415.391C535.185 416.642 534.172 417.67 532.905 417.67H392.991C392.991 417.67 392.962 417.67 392.947 417.67H392.932ZM530.579 367.577H395.317V413.067H530.579V367.577Z" fill="#231F20"/>
<path d="M557.829 401.344C563.666 401.344 568.397 396.616 568.397 390.783C568.397 384.951 563.666 380.223 557.829 380.223C551.992 380.223 547.26 384.951 547.26 390.783C547.26 396.616 551.992 401.344 557.829 401.344Z" fill="white"/>
<path d="M544.935 390.783C544.935 383.663 550.703 377.899 557.829 377.899C564.954 377.899 570.723 383.663 570.723 390.783C570.723 397.903 564.954 403.668 557.829 403.668C550.703 403.668 544.935 397.903 544.935 390.783ZM549.585 390.783C549.585 395.326 553.282 399.02 557.829 399.02C562.375 399.02 566.072 395.326 566.072 390.783C566.072 386.24 562.375 382.546 557.829 382.546C553.282 382.576 549.615 386.24 549.585 390.783Z" fill="#231F20"/>
<path d="M640.143 455.787V421.87C640.143 421.87 640.143 421.795 640.143 421.766C640.172 420.514 641.216 419.517 642.468 419.546C643.75 419.546 644.793 420.589 644.793 421.87V455.533C644.764 456.8 643.735 457.827 642.468 457.857C641.275 457.857 640.277 456.963 640.143 455.787Z" fill="white"/>
<path d="M775.547 463.862H370.923V531.442H775.547V463.862Z" fill="#231F20"/>
<path d="M370.923 533.662C369.701 533.662 368.702 532.663 368.702 531.442V463.862C368.702 462.641 369.701 461.643 370.923 461.643H775.607C776.83 461.643 777.828 462.641 777.828 463.862V531.442C777.828 532.663 776.83 533.662 775.607 533.662H370.923ZM773.327 466.081H373.159V529.014H773.341V466.081H773.327Z" fill="#231F20"/>
<path d="M591.481 463.862H370.982V531.442H591.481V463.862Z" fill="white"/>
<path d="M368.657 531.442V463.862C368.657 462.611 369.671 461.583 370.938 461.583H591.496C592.748 461.583 593.777 462.596 593.777 463.862V531.442C593.777 532.708 592.763 533.736 591.496 533.766H370.938C369.671 533.736 368.657 532.708 368.657 531.442ZM588.902 466.186H373.01V529.014H588.902V466.186Z" fill="#231F20"/>
<path d="M638.553 525.826C637.271 525.826 636.228 524.784 636.228 523.503V470.58C636.377 469.537 637.196 468.733 638.24 468.569C639.537 468.375 640.744 469.269 640.938 470.58V523.503C640.938 524.784 639.895 525.826 638.613 525.826C638.598 525.826 638.583 525.826 638.568 525.826H638.553Z" fill="white"/>
<path d="M334.379 139.454L339.581 135.433L361.509 144.564L406.065 129.519L410.089 135.671L363.477 162.378L334.379 139.454Z" fill="#E6E7E8"/>
<path d="M350.702 211.086L332.725 137.548L361.375 149.866L413.101 131.143L426.413 205.411L378.756 221.826L350.702 211.086Z" fill="white"/>
<path d="M378.756 222.511C378.681 222.511 378.592 222.511 378.517 222.511L350.463 211.771C350.254 211.682 350.105 211.518 350.046 211.295L332.053 137.712C331.994 137.459 332.083 137.205 332.277 137.041C332.471 136.863 332.754 136.833 332.993 136.937L361.315 149.136L412.847 130.502C413.026 130.428 413.235 130.428 413.414 130.502C413.592 130.607 413.712 130.785 413.742 130.979L427.083 205.232C427.143 205.56 426.949 205.888 426.636 205.992L378.935 222.377L378.756 222.511ZM351.283 210.595L378.771 221.126L425.652 204.979L412.579 132.081L361.598 150.522C361.434 150.581 361.27 150.581 361.106 150.522L333.708 138.754L351.283 210.595Z" fill="#231F20"/>
<path d="M374.597 218.638C374.269 218.638 374 218.4 373.926 218.087L360.674 149.985C360.599 149.628 360.838 149.27 361.196 149.196C361.553 149.122 361.911 149.36 361.986 149.717L375.223 217.804C375.297 218.161 375.059 218.519 374.701 218.593L374.597 218.623V218.638Z" fill="#231F20"/>
<path d="M393.633 235.023C393.633 235.023 388.386 226.771 389.161 224.596C389.757 222.436 390.174 220.232 390.383 218.013L384.778 219.353C384.778 219.353 378.994 204.905 378.413 199.885C377.832 194.865 367.039 199.498 366.652 203.356C366.264 207.213 366.07 217.238 369.156 223.017C372.242 228.797 380.917 242.664 380.917 242.664" fill="white"/>
<path d="M380.902 243.409C380.664 243.409 380.44 243.275 380.321 243.081C380.231 242.947 371.6 229.124 368.545 223.39C365.489 217.655 365.563 207.779 365.951 203.355C366.264 200.272 371.735 197.099 375.431 197.07C377.176 196.831 378.771 198.038 379.009 199.781C379.009 199.81 379.009 199.84 379.009 199.87C379.516 204.19 384.062 215.942 385.121 218.608L390.159 217.417C390.368 217.357 390.591 217.417 390.755 217.566C390.919 217.714 391.009 217.923 390.994 218.146C390.77 220.425 390.338 222.69 389.727 224.894C389.324 225.996 391.709 230.852 394.199 234.65C394.363 234.993 394.199 235.395 393.871 235.559C393.588 235.693 393.245 235.619 393.051 235.38C392.142 233.965 387.67 226.741 388.505 224.417C389.026 222.645 389.384 220.813 389.578 218.966L384.912 220.083C384.584 220.157 384.256 219.979 384.122 219.666C383.884 219.07 378.308 205.068 377.712 200.019C377.712 199.632 377.533 198.44 375.491 198.44C372.212 198.44 367.576 201.419 367.352 203.489C366.935 207.764 366.875 217.312 369.782 222.749C372.763 228.439 381.439 242.232 381.528 242.366C381.722 242.694 381.618 243.111 381.305 243.305C381.185 243.394 381.036 243.424 380.887 243.409H380.902Z" fill="#231F20"/>
<path d="M558.932 243.26C558.559 243.26 558.261 242.962 558.261 242.59C558.261 242.5 558.276 242.411 558.306 242.337C563.836 227.56 560.631 210.937 549.988 199.274C549.451 198.708 548.9 198.142 548.333 197.576C544.905 194.12 541.029 190.128 541.268 185.153C541.342 184.111 541.521 183.068 541.804 182.055C542.013 181.221 542.162 180.372 542.266 179.523C542.758 174.116 538.286 169.618 534.455 166.802C533.531 166.117 532.562 165.462 531.608 164.792C528.016 162.319 524.304 159.772 522.068 155.944C519.4 151.475 519.087 146.217 518.684 141.182C518.356 136.714 518.028 131.992 516.031 127.866C509.114 113.447 491.808 107.37 477.393 114.296C475.5 115.205 473.726 116.307 472.071 117.588C468.553 120.225 465.781 123.74 464.037 127.777C462.397 132.379 461.562 137.22 461.547 142.106C461.026 152.279 460.057 162.095 454.482 170.407C452.737 172.835 450.829 175.144 448.772 177.318C444.956 181.549 441.319 185.541 440.201 190.724C439.053 196.399 441.185 202.238 445.716 205.843C446.015 206.066 446.074 206.484 445.851 206.781C445.612 207.079 445.195 207.124 444.897 206.901C439.977 202.968 437.667 196.608 438.934 190.426C440.141 184.826 444.047 180.506 447.878 176.335C449.89 174.205 451.754 171.941 453.453 169.558C458.879 161.574 459.788 151.967 460.28 142.002C460.295 136.952 461.175 131.962 462.889 127.211C464.707 122.951 467.599 119.242 471.281 116.441C484.503 106.163 503.554 108.547 513.825 121.759C515.136 123.442 516.269 125.274 517.208 127.196C519.325 131.545 519.668 136.356 519.996 141.004C520.354 146.098 520.697 150.909 523.201 155.169C525.288 158.729 528.865 161.202 532.324 163.585C533.308 164.255 534.276 164.926 535.216 165.611C539.33 168.59 544.16 173.505 543.578 179.553C543.474 180.476 543.31 181.385 543.071 182.279C542.818 183.217 542.654 184.17 542.579 185.139C542.371 189.607 545.874 193.108 549.258 196.533C549.824 197.114 550.391 197.68 550.927 198.246C562.107 210.237 565.461 227.531 559.588 242.828C559.484 243.081 559.23 243.245 558.947 243.245L558.932 243.26Z" fill="#231F20"/>
<path d="M453.095 201.017L425.041 262.43L397.732 231.88L374.97 242.605C374.97 242.605 425.235 318.407 439.068 311.51C452.901 304.614 472.727 243.424 472.727 243.424L453.095 201.017Z" fill="#7B6AA7"/>
<path d="M489.289 183.947C489.289 183.947 458.879 187.283 451.724 201.985C444.569 216.687 446.194 284.863 446.194 284.863L558.396 296.883C558.396 296.883 555.548 240.832 550.257 215.957C544.965 191.082 528.791 174.682 489.289 183.947Z" fill="#7B6AA7"/>
<path d="M480.284 191.38L491.583 252.197L507.205 185.556L480.284 191.38Z" fill="#231F20"/>
<path d="M491.584 252.898C491.286 252.883 491.017 252.659 490.958 252.361L479.629 191.499C479.569 191.156 479.793 190.814 480.136 190.739L507.072 184.915C507.295 184.871 507.519 184.945 507.683 185.094C507.832 185.258 507.892 185.481 507.847 185.705L492.225 252.346C492.18 252.659 491.912 252.898 491.584 252.898ZM481.045 191.827L491.658 248.935L506.326 186.375L481.045 191.827Z" fill="#231F20"/>
<path d="M480.389 173.654L480.284 191.38C480.284 191.38 482.073 201.3 492.866 198.276C499.32 196.399 504.582 191.737 507.206 185.556L505.983 154.856C505.983 153.56 500.692 148.645 500.9 137.369C493.208 137.31 485.904 134.018 480.776 128.298C480.776 128.298 476.304 135.06 474.307 137.235C472.742 138.844 471.37 140.631 470.252 142.582C468.419 145.994 468.493 150.254 468.583 154.037C468.627 158.535 469.075 163.019 469.924 167.443C471.653 175.71 480.389 173.654 480.389 173.654Z" fill="white"/>
<path d="M489.035 199.527C487.276 199.557 485.547 199.095 484.056 198.172C481.761 196.608 480.151 194.225 479.584 191.499L479.674 174.459C477.319 174.816 474.919 174.354 472.862 173.178C470.909 171.867 469.597 169.811 469.224 167.488C468.36 163.064 467.913 158.58 467.868 154.082C467.793 150.432 467.689 145.904 469.612 142.285C470.76 140.259 472.176 138.382 473.801 136.714C475.709 134.643 480.166 127.955 480.21 127.896C480.33 127.717 480.523 127.598 480.747 127.598C480.971 127.568 481.179 127.672 481.299 127.851C486.322 133.392 493.433 136.609 500.916 136.714C501.095 136.714 501.273 136.788 501.393 136.922C501.527 137.041 501.587 137.22 501.587 137.399C501.363 142.866 502.809 148.273 505.76 152.875C506.208 153.456 506.506 154.141 506.67 154.856C506.67 154.856 506.67 155.541 507.892 185.556C507.892 185.645 507.892 185.719 507.892 185.809C505.224 192.214 499.768 197.055 493.09 198.946C491.778 199.334 490.407 199.527 489.035 199.527ZM480.956 191.38C481.507 193.659 482.864 195.669 484.787 197.025C487.217 198.351 490.094 198.574 492.687 197.621C498.874 195.804 503.927 191.35 506.521 185.451C506.431 183.187 505.313 155.124 505.298 154.886C505.104 154.424 504.866 153.977 504.583 153.575C501.631 148.943 500.111 143.536 500.215 138.039C492.881 137.801 485.92 134.703 480.837 129.415C478.973 132.275 476.961 135.031 474.799 137.667C473.279 139.231 471.952 140.974 470.849 142.866C469.09 146.172 469.18 150.313 469.269 153.977C469.314 158.416 469.746 162.855 470.581 167.219C470.879 169.171 471.952 170.899 473.562 172.031C475.589 173.133 477.945 173.461 480.196 172.984C480.389 172.939 480.613 172.984 480.762 173.118C480.926 173.252 481.03 173.446 481.03 173.654L480.911 191.38H480.956Z" fill="#231F20"/>
<path d="M480.493 182.353C480.493 182.353 487.693 182.681 492.329 177.885C495.012 175.412 496.473 171.897 496.324 168.247C496.324 168.247 488.543 173.476 480.448 173.654L480.493 182.353Z" fill="#231F20"/>
<path d="M480.807 183.023H480.464C480.121 183.023 479.838 182.725 479.838 182.383L479.733 173.669C479.733 173.312 480.017 173.029 480.374 173.014C488.171 172.835 495.833 167.771 495.907 167.726C496.101 167.607 496.339 167.607 496.533 167.726C496.742 167.815 496.891 168.009 496.921 168.232C496.921 168.441 497.592 173.446 492.792 178.406C489.542 181.43 485.249 183.083 480.807 183.023ZM481.045 174.28L481.135 181.727C485.115 181.668 488.931 180.134 491.852 177.423C494.014 175.308 495.356 172.492 495.624 169.483C491.182 172.165 486.203 173.803 481.045 174.28Z" fill="#231F20"/>
<path d="M482.386 147.617C482.386 147.617 476.677 156.078 478.034 157.567C479.39 159.057 483.191 158.074 483.191 158.074" fill="white"/>
<path d="M480.672 159.057C479.539 159.146 478.406 158.774 477.541 158.029C476.051 156.405 479.599 150.581 481.835 147.215C482.028 146.902 482.431 146.813 482.729 146.991C483.027 147.17 483.131 147.587 482.953 147.885C482.953 147.9 482.938 147.915 482.923 147.93C480.105 152.145 478.048 156.435 478.525 157.12C479.405 158.089 482.133 157.657 482.997 157.433C483.355 157.374 483.698 157.597 483.757 157.954C483.817 158.282 483.638 158.595 483.325 158.699C482.461 158.908 481.566 159.027 480.672 159.042V159.057Z" fill="#231F20"/>
<path d="M476.305 162.393C476.305 162.393 481.418 169.96 490.421 162.676L476.305 162.393Z" fill="white"/>
<path d="M482.908 166.504C482.491 166.504 482.058 166.475 481.641 166.415C479.256 166.028 477.109 164.702 475.678 162.751C475.469 162.453 475.559 162.051 475.857 161.842C476.14 161.634 476.543 161.708 476.751 161.991C476.751 161.991 476.751 162.006 476.766 162.021C478.004 163.645 479.807 164.747 481.82 165.104C484.324 165.477 487.067 164.479 489.929 162.125C490.212 161.902 490.629 161.946 490.853 162.229C491.092 162.498 491.062 162.9 490.793 163.138C490.793 163.138 490.779 163.138 490.764 163.153C488.602 165.134 485.83 166.326 482.908 166.504Z" fill="#231F20"/>
<path d="M459.519 284.058C459.161 284.029 458.878 283.716 458.893 283.358L463.127 212.993C463.127 212.65 463.425 212.367 463.768 212.382C463.782 212.382 463.797 212.382 463.812 212.382C464.17 212.382 464.453 212.68 464.438 213.038C464.438 213.052 464.438 213.067 464.438 213.082L460.205 283.433C460.19 283.79 459.877 284.073 459.519 284.058Z" fill="#231F20"/>
<path d="M540.179 292.34C540.701 293.83 557.56 342.538 538.226 359.935C517.61 378.465 413.339 368.709 413.339 368.709L401.95 333.6C400.683 321.133 400.042 312.345 424.429 310.066L458.565 303.08L459.519 283.403L540.179 292.34Z" fill="#231F20"/>
<path d="M470.371 371.926H468.001C439.679 371.807 413.488 369.379 413.234 369.364C412.966 369.334 412.743 369.155 412.668 368.902L401.294 333.809C400.609 327.27 399.982 321.222 403.62 316.798C406.929 312.762 413.518 310.423 424.325 309.351L457.895 302.484L458.819 283.299C458.819 283.12 458.923 282.956 459.057 282.837C459.191 282.718 459.37 282.658 459.549 282.688L540.209 291.625C540.462 291.655 540.686 291.834 540.76 292.072L540.134 292.281L540.79 292.176C542.549 297.375 557.426 343.446 538.629 360.352C530.177 368.053 507.191 371.926 470.371 371.926ZM413.831 368.083C421.15 368.738 518.281 377.02 537.794 359.444C555.682 343.357 541.789 299.252 539.687 292.936L460.145 284.178L459.236 303.154C459.221 303.452 458.998 303.705 458.7 303.765L424.563 310.751C414.054 311.734 407.749 313.938 404.678 317.677C401.384 321.669 401.98 327.463 402.606 333.585L413.831 368.083Z" fill="#231F20"/>
<path d="M430.646 336.982C430.646 336.982 425.235 310.93 405.558 316.828C385.881 322.727 429.662 419.606 429.662 425.966C429.662 432.327 412.937 451.527 412.937 451.527C417.707 451.273 422.477 450.767 427.202 450.037C432.375 449.054 446.581 428.409 447.132 426.205C447.684 424 437.294 355.675 430.646 336.982Z" fill="white"/>
<path d="M412.937 452.212C412.669 452.212 412.445 452.063 412.326 451.825C412.207 451.571 412.251 451.288 412.43 451.08C417.036 445.792 428.991 431.001 428.991 425.966C428.991 424.477 426.144 416.955 422.537 407.392C412.102 379.687 394.602 333.302 401.28 319.807C402.055 318.065 403.546 316.754 405.364 316.173C409.956 314.579 415.009 315.071 419.213 317.498C428.157 322.816 431.138 335.775 431.302 336.862C437.682 354.841 448.444 423.523 447.803 426.413C447.341 428.484 432.897 449.709 427.337 450.782C422.582 451.527 417.782 452.018 412.982 452.271L412.937 452.212ZM411.118 316.664C409.3 316.664 407.496 316.962 405.752 317.498C404.291 317.975 403.099 319.063 402.502 320.478C396.078 333.436 414.115 381.28 423.819 406.975C428.112 418.37 430.348 424.387 430.348 426.026C430.348 431.701 418.229 446.418 414.502 450.812C417.349 450.618 423.312 450.156 427.083 449.441C431.838 448.533 446 428.23 446.462 426.115C446.924 424 436.758 356.241 430.065 337.279V337.19C430.065 337.101 427.188 323.784 418.587 318.72C416.336 317.35 413.757 316.635 411.118 316.649V316.664Z" fill="#231F20"/>
<path d="M411.953 449.888C409.166 450.186 406.736 451.929 405.558 454.476C403.754 458.736 411.521 461.194 418.676 461.521C424.937 461.76 431.197 460.985 437.205 459.228C439.605 458.051 441.736 456.368 443.436 454.312C443.436 454.312 443.436 459.555 445.239 459.391C447.818 459.257 450.397 458.989 452.946 458.572C453.602 458.244 450.815 437.927 447.133 426.205C447.133 426.205 432.226 447.267 427.53 448.25C422.835 449.233 411.953 449.888 411.953 449.888Z" fill="#231F20"/>
<path d="M420.762 462.222H418.645C413.652 461.998 407.123 460.643 405.23 457.589C404.589 456.591 404.514 455.34 405.006 454.267C406.258 451.482 408.911 449.575 411.952 449.278C412.057 449.278 422.775 448.607 427.425 447.654C431.122 446.879 442.541 431.671 446.625 425.877C446.759 425.668 447.013 425.564 447.266 425.609C447.505 425.639 447.713 425.817 447.788 426.056C449.726 432.788 451.231 439.625 452.319 446.537C454.287 458.617 453.631 458.945 453.244 459.138C451.172 459.6 449.07 459.868 446.953 459.898L445.298 460.032C444.866 460.077 444.434 459.913 444.121 459.615C443.316 458.542 442.884 457.247 442.869 455.906C441.348 457.574 439.5 458.9 437.443 459.823C432.032 461.432 426.412 462.236 420.762 462.222ZM411.997 450.544C409.448 450.797 407.227 452.391 406.169 454.729C405.841 455.414 405.885 456.219 406.303 456.844C407.63 458.945 412.728 460.598 418.705 460.866C424.876 461.104 431.048 460.345 436.981 458.602C439.276 457.47 441.303 455.861 442.943 453.895C443.167 453.612 443.584 453.582 443.867 453.806C444.016 453.925 444.106 454.119 444.106 454.312C444.106 455.802 444.389 458.096 445.015 458.662C445.06 458.706 445.12 458.736 445.194 458.736L446.864 458.602C448.354 458.483 451.41 458.245 452.409 458.051C452.528 455.4 450.128 438.612 446.908 427.679C443.569 432.327 432.002 447.982 427.679 448.89C422.476 449.709 417.244 450.261 411.997 450.544Z" fill="#231F20"/>
<path d="M475.917 426.294C475.917 426.294 467.375 342.061 463.44 326.331C459.505 310.602 436.877 305.686 429.99 324.693C423.103 343.699 457.209 418.429 454.586 426.294C451.962 434.159 442.124 449.516 442.124 449.516C442.124 449.516 452.558 454.759 460.161 449.516C467.763 444.273 475.917 426.294 475.917 426.294Z" fill="white"/>
<path d="M452.111 452.584C448.548 452.495 445.045 451.676 441.825 450.171C441.647 450.082 441.527 449.918 441.468 449.739C441.423 449.546 441.468 449.352 441.557 449.188C441.647 449.039 451.381 433.771 453.944 426.07C454.884 423.255 450.099 409.283 445.001 394.507C436.057 368.589 425.026 336.415 429.334 324.499C432.315 316.113 438.889 311.332 446.745 311.749C455.062 312.27 462.083 318.124 464.096 326.197C468.001 341.793 476.483 425.415 476.573 426.249C476.603 426.368 476.603 426.488 476.573 426.607C476.23 427.351 468.21 444.854 460.593 450.141C458.089 451.825 455.122 452.674 452.111 452.584ZM443.167 449.263C445.582 450.275 453.781 453.195 459.818 448.994C466.749 444.183 474.411 427.992 475.261 426.175C474.814 421.706 466.615 341.644 462.829 326.495C460.951 319.003 454.451 313.581 446.73 313.089C439.545 312.702 433.508 317.156 430.675 325.006C426.531 336.43 437.98 369.781 446.342 394.135C452.752 412.769 456.315 423.479 455.286 426.577C452.901 433.518 445.06 446.179 443.122 449.263H443.167Z" fill="#231F20"/>
<path d="M442.124 449.516C439.127 450.916 436.414 452.823 434.089 455.161C431.391 458.364 428.931 459.838 432.598 462.296C436.265 464.754 459.43 463.026 462.605 462.043C465.78 461.06 471.221 453.448 471.221 453.448C471.221 453.448 470.968 462.043 471.952 462.296C474.128 462.207 476.304 461.924 478.436 461.432C479.181 449.68 478.347 437.897 475.976 426.368C475.976 426.368 468.001 444.392 457.954 448.026C447.907 451.661 442.124 449.516 442.124 449.516Z" fill="#231F20"/>
<path d="M443.122 464.247C438.128 464.247 433.776 463.89 432.255 462.892C431.182 462.355 430.392 461.372 430.109 460.196C429.945 458.825 431.003 457.649 432.359 456.174L433.597 454.789C435.967 452.361 438.769 450.38 441.855 448.965C442.019 448.905 442.198 448.905 442.362 448.965C442.362 448.965 448.041 451.02 457.731 447.475C467.42 443.93 475.231 426.219 475.305 426.041C475.425 425.787 475.693 425.624 475.976 425.653C476.259 425.683 476.498 425.892 476.558 426.175C478.928 437.763 479.748 449.62 479.017 461.432C479.002 461.715 478.794 461.953 478.51 462.013C476.319 462.594 474.083 462.922 471.817 462.996C471.37 462.877 470.476 462.653 470.535 455.548C468.717 457.902 465.258 461.998 462.814 462.758C456.299 463.815 449.711 464.307 443.122 464.247ZM442.168 450.26C439.351 451.586 436.787 453.418 434.595 455.638C434.163 456.144 433.731 456.621 433.343 457.053C432.21 458.289 431.316 459.257 431.42 460.032C431.42 460.553 431.987 461.134 432.911 461.789C436.22 463.994 458.774 462.564 462.352 461.462C464.811 460.717 469.149 455.176 470.625 453.105C470.833 452.808 471.236 452.733 471.534 452.942C471.713 453.076 471.817 453.284 471.817 453.508C471.638 456.248 471.772 459.004 472.22 461.715C474.053 461.551 475.887 461.253 477.676 460.821C478.287 449.963 477.586 439.074 475.574 428.394C473.263 433.161 466.511 445.628 458.103 448.696C449.1 452.018 443.465 450.663 442.168 450.26Z" fill="#231F20"/>
<path d="M544.592 328.178C545.62 329.668 548.9 361.887 548.9 361.887C548.9 361.887 585.451 365.193 585.972 362.631C586.494 360.069 567.339 353.56 567.339 353.56L561.377 328.015" fill="white"/>
<path d="M578.594 364.285C575.851 364.285 572.169 364.18 567.205 363.897C558.097 363.406 548.929 362.586 548.84 362.572C548.512 362.542 548.244 362.289 548.214 361.961C546.977 349.791 544.741 329.936 544.01 328.536C543.802 328.223 543.891 327.806 544.189 327.612C544.517 327.419 544.934 327.508 545.143 327.821C546.157 329.31 548.661 353.143 549.496 361.276C565.759 362.765 583.17 363.525 585.272 362.408C584.631 360.918 575.478 357.045 567.115 354.215C566.892 354.141 566.728 353.962 566.683 353.739L560.721 328.178C560.631 327.806 560.87 327.448 561.227 327.359C561.6 327.285 561.958 327.508 562.047 327.88L568.01 353.053C575.463 355.571 587.269 360.069 586.732 362.765C586.494 363.421 586.315 364.299 578.579 364.299L578.594 364.285Z" fill="#231F20"/>
<path d="M549.227 214.169L574.166 335.641L539.776 336.535C539.776 336.535 527.851 272.217 527.121 262.564C526.39 252.912 549.227 214.169 549.227 214.169Z" fill="#7B6AA7"/>
<path d="M472.995 153.769C477.284 153.769 480.761 150.295 480.761 146.009C480.761 141.723 477.284 138.248 472.995 138.248C468.706 138.248 465.229 141.723 465.229 146.009C465.229 150.295 468.706 153.769 472.995 153.769Z" fill="white"/>
<path d="M473.01 154.454H472.667C468.016 154.276 464.379 150.358 464.558 145.711C464.737 141.063 468.657 137.429 473.308 137.608C477.959 137.786 481.596 141.704 481.417 146.351C481.239 150.864 477.527 154.439 472.995 154.454H473.01ZM473.01 138.933C468.777 139.008 465.393 142.508 465.482 146.738C465.557 150.969 469.06 154.35 473.293 154.261C477.527 154.171 480.911 150.686 480.821 146.455C480.747 142.329 477.422 139.008 473.293 138.933H473.01Z" fill="#231F20"/>
<path d="M490.108 154.454C494.397 154.454 497.874 150.98 497.874 146.694C497.874 142.408 494.397 138.933 490.108 138.933C485.819 138.933 482.342 142.408 482.342 146.694C482.342 150.98 485.819 154.454 490.108 154.454Z" fill="white"/>
<path d="M490.108 155.124H489.765C485.1 154.901 481.492 150.939 481.716 146.277C481.82 144.072 482.789 141.987 484.399 140.482C487.828 137.325 493.179 137.533 496.339 140.959C497.86 142.598 498.665 144.787 498.575 147.021C498.396 151.55 494.67 155.124 490.138 155.124H490.108ZM490.108 139.604C486.203 139.529 482.968 142.642 482.894 146.545C482.819 150.447 485.934 153.68 489.84 153.754C491.718 153.843 493.552 153.173 494.923 151.877C496.309 150.611 497.129 148.839 497.189 146.962C497.308 143.074 494.252 139.827 490.362 139.693L490.108 139.604Z" fill="#231F20"/>
<path d="M435.356 274.421C435.162 274.421 434.984 274.347 434.864 274.198L401.682 235.976C401.444 235.708 401.474 235.291 401.742 235.053C401.742 235.053 401.742 235.053 401.757 235.053C401.995 234.8 402.413 234.785 402.666 235.038C402.666 235.038 402.666 235.038 402.681 235.053L435.863 273.274C436.102 273.542 436.072 273.944 435.818 274.183C435.818 274.183 435.818 274.183 435.789 274.198C435.684 274.332 435.52 274.421 435.356 274.436V274.421Z" fill="#231F20"/>
<path d="M373.896 161.679L405.364 149.613L408.197 164.032L376.49 174.205L373.896 161.679Z" fill="#E6E7E8"/>
<path d="M473.678 145.177C473.718 144.166 473.31 143.329 472.767 143.307C472.224 143.286 471.751 144.088 471.712 145.099C471.672 146.111 472.08 146.947 472.623 146.969C473.166 146.99 473.638 146.188 473.678 145.177Z" fill="#231F20"/>
<path d="M491.209 146.23C491.249 145.219 490.841 144.382 490.298 144.361C489.755 144.339 489.283 145.142 489.243 146.153C489.203 147.164 489.611 148.001 490.154 148.022C490.697 148.043 491.169 147.241 491.209 146.23Z" fill="#231F20"/>
<path d="M513.362 152.965C513.004 152.965 512.721 152.682 512.691 152.339C512.348 148.258 501.928 148.138 497.934 148.436C497.561 148.466 497.233 148.198 497.203 147.826C497.203 147.826 497.203 147.826 497.203 147.811C497.203 147.468 497.471 147.185 497.814 147.14C499.424 147.021 513.511 146.128 514.033 152.279C514.062 152.652 513.794 152.994 513.407 153.024L513.362 152.965Z" fill="#231F20"/>
<path d="M499.648 153.337C499.932 152.026 500.617 150.835 501.631 149.941C502.615 149.166 503.718 148.556 504.896 148.153C505.522 147.87 506.192 147.721 506.878 147.721C507.355 147.781 507.832 147.93 508.25 148.168C509.293 148.63 510.128 149.464 510.62 150.492C510.918 151.356 510.992 152.279 510.843 153.188C510.769 154.186 510.545 155.154 510.217 156.093C508.771 159.951 504.478 161.902 500.617 160.457C500.543 160.427 500.468 160.397 500.409 160.368" fill="white"/>
<path d="M503.196 161.5C502.168 161.5 501.169 161.306 500.215 160.919C499.902 160.815 499.738 160.472 499.842 160.159C499.947 159.846 500.29 159.683 500.603 159.787C500.632 159.787 500.647 159.802 500.677 159.817C504.21 161.261 508.25 159.563 509.696 156.033C509.711 155.988 509.74 155.929 509.755 155.884C510.068 154.991 510.277 154.067 510.337 153.129C510.471 152.309 510.411 151.49 510.158 150.701C509.725 149.807 508.98 149.107 508.071 148.705C507.713 148.496 507.326 148.377 506.923 148.317C506.327 148.317 505.745 148.451 505.209 148.705C504.091 149.092 503.047 149.658 502.108 150.388C501.199 151.192 500.573 152.265 500.319 153.456C500.245 153.769 499.932 153.978 499.619 153.918C499.306 153.844 499.097 153.546 499.157 153.218C499.455 151.773 500.23 150.462 501.333 149.494C502.362 148.675 503.524 148.034 504.762 147.602C505.477 147.275 506.252 147.111 507.027 147.141C507.579 147.2 508.116 147.379 508.607 147.647C509.77 148.168 510.709 149.107 511.246 150.269C511.574 151.222 511.663 152.25 511.499 153.248C511.425 154.29 511.201 155.333 510.843 156.316C510.038 158.312 508.488 159.921 506.521 160.785C505.477 161.247 504.359 161.5 503.211 161.5H503.196Z" fill="#231F20"/>
<path d="M539.284 334.285C538.956 334.285 538.673 334.047 538.614 333.719L518.37 210.222C518.311 209.865 518.549 209.507 518.922 209.448C519.28 209.373 519.637 209.612 519.712 209.984C519.712 209.984 519.712 209.984 519.712 209.999L539.955 333.496C540.015 333.868 539.776 334.211 539.404 334.271C539.404 334.271 539.404 334.271 539.389 334.271H539.284V334.285Z" fill="#231F20"/>
<path d="M478.152 304.659C478.048 304.673 477.959 304.673 477.854 304.659C470.058 301.173 458.863 303.839 458.744 303.854C458.357 303.958 457.954 303.72 457.85 303.333C457.745 302.931 457.984 302.529 458.386 302.424C458.863 302.305 470.192 299.609 478.451 303.318C478.823 303.482 478.987 303.929 478.823 304.301C478.674 304.539 478.421 304.688 478.138 304.673L478.152 304.659Z" fill="white"/>
<path d="M521.248 280.558C521.129 280.558 521.01 280.528 520.905 280.454L504.12 270.667C503.792 270.474 503.688 270.072 503.867 269.744C504.061 269.416 504.478 269.312 504.806 269.491L521.665 279.277C521.993 279.471 522.098 279.888 521.919 280.215C521.785 280.454 521.516 280.573 521.248 280.558Z" fill="#231F20"/>
<path d="M466.69 274.674C466.481 274.674 466.287 274.585 466.153 274.421C465.915 274.138 465.959 273.706 466.243 273.483L476.319 265.38C476.573 265.097 477.005 265.082 477.288 265.35C477.572 265.603 477.587 266.035 477.318 266.318C477.273 266.363 477.229 266.407 477.169 266.437L467.092 274.54C466.973 274.645 466.824 274.689 466.675 274.689L466.69 274.674Z" fill="#231F20"/>
<path d="M657.211 319.807C660.401 316.962 664.008 314.609 667.899 312.851C668.227 324.276 663.591 334.777 659.298 341.971H645.36" fill="white"/>
<path d="M659.298 342.746H645.36C644.928 342.746 644.585 342.403 644.585 341.972C644.585 341.54 644.928 341.197 645.36 341.197H658.865C662.726 334.628 667.139 324.812 667.154 314.043C663.74 315.741 660.565 317.871 657.718 320.388C657.42 320.686 656.943 320.686 656.644 320.388C656.346 320.09 656.346 319.599 656.644 319.301C659.894 316.381 663.576 313.983 667.556 312.196C667.958 312.032 668.406 312.24 668.555 312.628C668.585 312.702 668.599 312.792 668.614 312.881C668.942 324.663 664.053 335.447 659.894 342.418C659.76 342.612 659.536 342.731 659.298 342.746Z" fill="#231F20"/>
<path d="M637.236 322.891C640.664 305.016 654.662 293.785 654.662 293.785C657.27 302.201 658.135 311.049 657.211 319.807C656.48 327.359 654.87 334.792 652.396 341.972H637.385" fill="white"/>
<path d="M652.396 342.746H637.385C636.968 342.746 636.625 342.403 636.625 341.986C636.625 341.986 636.625 341.986 636.625 341.971C636.625 341.554 636.968 341.212 637.385 341.197H651.845C654.2 334.241 655.735 327.046 656.451 319.748C657.33 311.481 656.585 303.124 654.289 295.141C651.218 297.911 640.873 308.219 637.981 323.025C637.937 323.442 637.549 323.74 637.132 323.68C636.714 323.635 636.416 323.248 636.476 322.831C636.476 322.801 636.476 322.771 636.491 322.742C639.934 304.867 654.066 293.308 654.2 293.189C654.394 293.025 654.662 292.981 654.9 293.055C655.139 293.13 655.333 293.308 655.407 293.547C658.061 302.052 658.94 311.019 658.001 319.882C657.271 327.493 655.631 335 653.127 342.225C653.022 342.537 652.724 342.761 652.396 342.746Z" fill="#231F20"/>
<path d="M629.827 341.972H643.109C643.228 338.039 642.334 332.096 638.071 324.38C637.787 323.859 637.504 323.367 637.221 322.891C629.529 309.872 622.493 310.021 622.493 310.021C619.527 323.71 625.802 335.924 629.827 341.972Z" fill="white"/>
<path d="M643.109 342.746H629.827C629.574 342.746 629.335 342.612 629.186 342.403C625.102 336.252 618.752 323.844 621.733 309.857C621.793 309.5 622.106 309.246 622.463 309.246C622.806 309.246 630.036 309.246 637.877 322.503C638.16 322.995 638.443 323.486 638.726 323.993C643.198 332.066 643.974 338.233 643.854 341.986C643.854 342.403 643.526 342.731 643.109 342.746ZM630.245 341.256H642.349C642.349 337.637 641.41 332.036 637.4 324.872L636.565 323.382C630.468 313.074 624.893 311.272 623.149 310.959C620.585 323.754 626.354 335.254 630.245 341.212V341.256Z" fill="#231F20"/>
<path d="M632.242 363.019H658.284L662.488 341.986H628.054L632.242 363.019Z" fill="#231F20"/>
<path d="M226.843 236.687V115.215C226.843 112.887 224.954 111 222.624 111L47.2184 111C44.8885 111 42.9998 112.887 42.9998 115.215V236.687C42.9998 239.015 44.8885 240.902 47.2184 240.902H222.624C224.954 240.902 226.843 239.015 226.843 236.687Z" stroke="#231F20" stroke-width="3" stroke-miterlimit="10"/>
<path d="M122.318 140.835C122.228 140.835 123.361 140.627 123.346 140.627C113.597 146.823 107.426 156.46 106.681 167.513C105.384 184.434 119.202 199.88 136.211 199.687C157.736 199.716 171.703 176.971 163.4 157.369C160.777 150.726 155.723 144.872 149.09 140.656C147.748 139.867 147.316 138.109 148.151 136.784C148.807 135.756 150.044 135.294 151.162 135.577C167.395 139.405 179.902 156.043 179.946 172.95C180.99 203.53 149.418 225.366 120.901 214.612C95.7689 205.749 84.2014 174.365 98.9142 151.917C104.37 143.427 112.971 137.305 122.288 135.354C125.91 135.413 125.91 140.761 122.303 140.835H122.318Z" fill="#E6E7E8"/>
<path d="M88.5693 149.728H183.837" stroke="#231F20" stroke-width="3" stroke-miterlimit="10" stroke-linecap="round"/>
<path d="M69.5186 162.538H202.888" stroke="#231F20" stroke-width="3" stroke-miterlimit="10" stroke-linecap="round"/>
<path d="M83.2627 207.492H186.595" stroke="#231F20" stroke-width="2.64" stroke-miterlimit="10" stroke-linecap="round"/>
<path d="M83.2627 218.157H139.744" stroke="#231F20" stroke-width="2.64" stroke-miterlimit="10" stroke-linecap="round"/>
<path d="M148.315 218.157H186.596" stroke="#231F20" stroke-width="2.64" stroke-miterlimit="10" stroke-linecap="round"/>
<path d="M279.552 363.803V275.668C279.552 273.34 277.663 271.452 275.333 271.452H147.107C144.777 271.452 142.888 273.34 142.888 275.668V363.803C142.888 366.132 144.777 368.019 147.107 368.019H275.333C277.663 368.019 279.552 366.132 279.552 363.803Z" stroke="#231F20" stroke-width="3" stroke-miterlimit="10"/>
<path d="M177.188 291.129H245.251" stroke="#231F20" stroke-width="2.64" stroke-miterlimit="10" stroke-linecap="round"/>
<path d="M163.593 300.275H258.846" stroke="#231F20" stroke-width="2.64" stroke-miterlimit="10" stroke-linecap="round"/>
<path d="M206.971 330.87H245.251" stroke="#231F20" stroke-width="2.64" stroke-miterlimit="10" stroke-linecap="round"/>
<path d="M206.971 342.042H232.342" stroke="#231F20" stroke-width="2.64" stroke-miterlimit="10" stroke-linecap="round"/>
<path d="M180.691 348.342C188.331 348.342 194.524 342.153 194.524 334.519C194.524 326.885 188.331 320.696 180.691 320.696C173.051 320.696 166.857 326.885 166.857 334.519C166.857 342.153 173.051 348.342 180.691 348.342Z" stroke="#231F20" stroke-width="2.64" stroke-miterlimit="10" stroke-linecap="round"/>
<path d="M260.17 329.815C261.485 328.611 263.505 328.255 265.152 328.936L267.861 330.125C268.763 330.521 269.73 330.489 270.672 330.323L273.476 329.69C275.203 329.247 277.119 329.881 278.077 331.378L279.875 333.698C280.421 334.435 281.237 335.124 282.25 335.362L285.022 336.123C286.78 336.646 288.032 338.23 288.206 340.004L288.569 342.855C288.736 343.797 289.036 344.716 289.717 345.429L291.761 347.568C292.964 348.883 293.32 350.902 292.639 352.55L291.427 355.123C291.031 356.026 291.062 356.992 291.252 358.069L291.885 360.873C292.329 362.6 291.671 364.382 290.198 365.474L287.877 367.272C287.14 367.818 286.451 368.634 286.214 369.648L285.453 372.42C284.93 374.178 283.346 375.429 281.572 375.603L278.72 375.967C277.754 375.998 276.859 376.434 276.146 377.115L274.008 379.158C272.693 380.361 270.673 380.718 269.026 380.036L266.452 378.824C265.549 378.428 264.559 378.325 263.506 378.649L260.702 379.283C258.976 379.726 257.194 379.068 256.101 377.595L254.303 375.274C253.733 374.403 252.941 373.849 251.928 373.611L249.132 372.715C247.398 372.327 246.147 370.743 245.973 368.969L245.609 366.118C245.577 365.151 245.118 364.122 244.461 363.544L242.418 361.405C241.214 360.09 240.858 358.07 241.539 356.423L242.728 353.715C243.124 352.812 243.227 351.822 242.926 350.903L242.293 348.099C241.849 346.373 242.483 344.456 243.98 343.498L246.301 341.701C247.172 341.131 247.703 340.204 247.965 339.325L248.86 336.529C249.248 334.795 250.832 333.544 252.606 333.37L255.458 333.006C256.4 332.84 257.454 332.515 258.032 331.858L260.17 329.815ZM277.916 352.508C277.251 348.738 274.48 345.617 270.892 344.167C267.194 342.876 263.02 343.612 260.121 346.066C257.111 348.68 255.708 352.536 256.373 356.306C257.062 360.211 259.699 363.356 263.421 364.782C266.984 366.097 271.158 365.361 274.192 362.882C277.067 360.293 278.604 356.412 277.916 352.508ZM247.363 392.602L250.731 377.848L252.529 380.169C254.69 382.98 258.278 384.43 261.731 383.544L264.535 382.911L264.67 382.887L267.378 384.075C268.122 384.36 268.867 384.646 269.698 384.638L266.719 397.658C266.568 398.378 265.99 399.036 265.182 399.178C264.398 399.455 263.519 399.194 262.996 398.592L257.524 392.754L250.174 395.161C249.39 395.438 248.535 395.311 248.012 394.709C247.379 394.265 247.236 393.457 247.363 392.602ZM282.203 394.927L274.949 383.712C275.734 383.435 276.336 382.912 276.938 382.39L279.076 380.346L279.211 380.323L282.062 379.959C285.61 379.611 288.485 377.021 289.555 373.64L290.45 370.844L298.662 383.557C299.208 384.293 299.216 385.125 298.772 385.759C298.487 386.503 297.727 386.915 296.895 386.922L289.165 387.175L286.02 394.532C285.735 395.276 284.998 395.823 284.167 395.831C283.359 395.973 282.59 395.553 282.203 394.927Z" fill="#DDD9E7"/>
</g>
<defs>
<clipPath id="clip0_363_2154">
<rect width="718" height="444" fill="white" transform="translate(0 90)"/>
</clipPath>
</defs>
</svg>
