<?xml version="1.0" encoding="utf-8"?>
<!-- Generator: Adobe Illustrator 25.0.0, SVG Export Plug-In . SVG Version: 6.00 Build 0)  -->
<svg version="1.1" id="Layer_1" xmlns="http://www.w3.org/2000/svg" xmlns:xlink="http://www.w3.org/1999/xlink" x="0px"
     y="0px"
     viewBox="0 0 406 306" style="enable-background:new 0 0 406 306;" xml:space="preserve">
<style type="text/css">
	.st0{fill:#ED4750;}
	.st1{fill:#7E7E7D;}
	.st2{fill:#EEEEEE;}
	.st3{fill:#EA2631;}
	.st4{opacity:0.36;}
	.st5{fill:#00275E;}
	.st6{fill:#575756;}
	.st7{fill:#797978;}
	.st8{fill:#F0C232;}
	.st9{opacity:0.88;fill:#FFFFFF;enable-background:new    ;}
	.st10{fill:#10AAC7;}
	.st11{fill:#3E9D4B;}
</style>
    <path class="st0" d="M355.1,130.3c-2.7,13.5-12.7,21.5-23.3,29.3c-3.5,2.6-7.1,5.1-10.5,7.8c-6.1,4.2-11.5,8.9-12.8,15.1
	c-10.8,34.6-16.8,83.7-56.9,93.7c-25.4,6.2-41.9-12.9-58.2-30c-5.9-7.3-15.9-6.1-25.1-7c-34.5-1.8-77.5,16.7-102.8-13.4
	c-3.6-4.5-6.6-9.5-9.1-14.7c-5-10.4-8.4-21.6-9.9-33.3c-1.3-10.6-1-21.1,0.8-31.3c0.6-3.4,1.3-6.8,2.3-10.1c1.7-6.9,5-12.9,9.3-18.1
	c4.3-5.2,9.5-9.7,15.1-13.4c10.2-7.3,21.7-11.8,31.3-19.6c5-3.6,9.6-7.5,13.8-12.2c4.1-4.7,7.7-10,10.4-16.4
	c10.9-25.5,50.1-26.4,78.6-28c2.1-0.1,4.3-0.1,6.4-0.1c30.5,0.2,59,7.7,82.8,20.6c5.9,3.2,11.6,6.8,16.9,10.7
	c18.1,13.9,32.6,33.2,39.2,55C354.7,120,355.3,125.2,355.1,130.3z"/>
    <g>
	<g id="Layer_2_1_">
		<path class="st1" d="M35.5,178.8l163.1,96.5c1.4,0.8,3.2,0.8,4.6,0l159.6-93c2.2-1.3,3-4.2,1.7-6.5c-0.4-0.7-1-1.3-1.7-1.8
			L196.9,76.6c-1.4-0.8-3.2-0.8-4.6,0L35.5,170.6c-2.2,1.3-3,4.2-1.7,6.5C34.2,177.8,34.8,178.4,35.5,178.8z"/>
        <path class="st2" d="M35.5,176.3l163.1,94c1.4,0.8,3.2,0.8,4.6,0l159.6-90.6c2.2-1.3,3-4.1,1.7-6.3c-0.4-0.7-1-1.3-1.7-1.7
			L196.9,76.7c-1.4-0.8-3.2-0.8-4.6,0L35.5,168.2c-2.2,1.3-3,4.1-1.7,6.3C34.2,175.3,34.8,175.9,35.5,176.3z"/>
        <path class="st3" d="M202.7,242.9L75.8,169.8L198,98.5l129,73.8l-8.1,4.6l0.3,0.2l0.6,0.4l8.4-4.8l0.8-0.4L198.2,97.5l-0.3-0.1
			L73.8,169.8l128.7,74.1l0.3,0.1l7.4-4.2c-0.3-0.2-0.6-0.4-0.9-0.7L202.7,242.9z"/>
        <g>
			<path class="st3" d="M202.7,141.9l-16.6,10.1c0,0-3.3,0.6-4.1-2.4c-0.7-3-7.4-6.6-12.2-3.9c-4.8,2.7-0.4,6.5,4.7,7.1
				c5.1,0.6,4.7,1.8,3.6,3.1c-1.1,1.3-14.9,9.1-14.9,9.1l16.5,9.9c0,0,3,1.2,1.8,2.8c-1.2,1.6-4.6-2.3-8.4,1.5s3.8,7.2,8.4,6.6
				c4.5-0.6,4.8-2.4,4.8-3.8c0-1.4,1.3-2,2.6-1.4c1.3,0.6,19.9,10.8,19.9,10.8l15.5-9.4c0,0-7,0.4-9.9-3.2c-2.8-3.6-2-7.6,3.4-8.3
				c5.5-0.6,13,1.9,12.8,7.2l17-9.1l-19.5-11.4c0,0-2.8,8.4-13.2,6.1c-10.4-2.3-6.1-9.6,7.2-10L202.7,141.9z"/>
            <path class="st3" d="M167.8,137.7v10.5c0,0,1.9,2.4,6.4,1.9c4.4-0.4,6.3-6.8,6.3-6.8"/>
            <path class="st3" d="M163.3,154.6V165l9.7,4.7l-0.7,1.7l-0.1,10.1c0,0,5.1,1.2,7.6,0c2.5-1.2,3.6-5,6.2-5.3
				c2.6-0.3,28.6,7.6,28.6,7.6l9.8-1.9v-10.4c0,0-13.2,6.3-17.7,0.1"/>
            <path class="st3"
                  d="M247.8,168.6v-10.4l-25.5-4.8v-10.4c0,0-8.3-0.2-8.4-0.2s-11.4,2.9-6.2,9.5c5.2,6.7-3.2,12.7,4.4,13.9"/>
            <g class="st4">
				<path class="st5" d="M202.7,141.9l-16.6,10.1c0,0-3.3,0.6-4.1-2.4c-0.7-3-7.4-6.6-12.2-3.9c-4.8,2.7-0.4,6.5,4.7,7.1
					c5.1,0.6,4.7,1.8,3.6,3.1c-1.1,1.3-14.9,9.1-14.9,9.1l16.5,9.9c0,0,3,1.2,1.8,2.8c-1.2,1.6-4.6-2.3-8.4,1.5s3.8,7.2,8.4,6.6
					c4.5-0.6,4.8-2.4,4.8-3.8c0-1.4,1.3-2,2.6-1.4c1.3,0.6,19.9,10.8,19.9,10.8l15.5-9.4c0,0-7,0.4-9.9-3.2c-2.8-3.6-2-7.6,3.4-8.3
					c5.5-0.6,13,1.9,12.8,7.2l17-9.1l-19.5-11.4c0,0-2.8,8.4-13.2,6.1c-10.4-2.3-6.1-9.6,7.2-10L202.7,141.9z"/>
                <path class="st5" d="M167.8,137.7v10.5c0,0,1.9,2.4,6.4,1.9c4.4-0.4,6.3-6.8,6.3-6.8"/>
                <path class="st5" d="M163.3,154.6V165l9.7,4.7l-0.7,1.7l-0.1,10.1c0,0,5.1,1.2,7.6,0c2.5-1.2,3.6-5,6.2-5.3
					c2.6-0.3,28.6,7.6,28.6,7.6l9.8-1.9v-10.4c0,0-13.2,6.3-17.7,0.1"/>
                <path class="st5"
                      d="M247.8,168.6v-10.4l-25.5-4.8v-10.4c0,0-8.3-0.2-8.4-0.2s-11.4,2.9-6.2,9.5c5.2,6.7-3.2,12.7,4.4,13.9"/>
			</g>
            <path class="st3" d="M202.7,131.4l-16.6,10.1c0,0-3.3,0.6-4.1-2.4c-0.7-3-7.5-6.6-12.3-3.9c-4.8,2.7-0.4,6.5,4.7,7.1
				c5.1,0.6,4.7,1.8,3.6,3.1c-1.1,1.3-14.9,9.1-14.9,9.1l16.5,9.9c0,0,3,1.2,1.8,2.8s-4.6-2.3-8.4,1.5c-3.7,3.8,3.8,7.2,8.4,6.6
				s4.8-2.4,4.8-3.8c0-1.4,1.3-2,2.6-1.4c1.3,0.6,19.9,10.8,19.9,10.8l15.5-9.4c0,0-7,0.4-9.9-3.2c-2.8-3.6-2-7.6,3.4-8.3
				c5.5-0.6,13,1.9,12.8,7.2l17-9.1l-19.5-11.4c0,0-2.8,8.4-13.2,6.1c-10.4-2.3-6.1-9.6,7.2-10L202.7,131.4z"/>
		</g>
        <path class="st6" d="M274.6,152.7v3.7c0,0,1.6,4.3,10.9,4.3s10.7-4.7,10.7-4.7v-4.2"/>
        <path class="st7" d="M266.8,134.6c-1,0.4-1.7,1.3-1.9,2.3c-0.3,1.6,0,8.8,0,8.8s0.3,8.9,20.5,8.9c20.2,0,19.6-10,19.6-10v-7.9
			c-0.2-1.5-1.6-2.5-3.1-2.2c-0.2,0-0.3,0.1-0.5,0.1"/>
        <path class="st8" d="M267.8,137.4c0,0-1.1-4.5-3.1-6.8c-2-2.3-13-11.9-12.5-26.1c0.5-13.4,6.4-26.6,19-32.6
			c24.9-11.8,50.9,8.3,47.2,35.4c-1.9,14.2-13.4,21.3-14.6,24.6c-0.5,1.6-0.9,3.2-1,4.9c0,0-5.1,7.6-17.4,7.6
			S267.8,137.4,267.8,137.4z"/>
        <path class="st9" d="M304.9,106.2c-0.9-7.6-2.5-14.8-8.9-19.5c-2.6-1.9-5.2,2.5-2.6,4.4c4.7,3.5,5.8,9.7,6.4,15.1
			C300.2,109.4,305.3,109.5,304.9,106.2z"/>
        <path class="st9" d="M301.5,111.9c-1.4,0-2.5,1.1-2.5,2.5v0.3c0,1.4,1.1,2.5,2.5,2.5s2.5-1.1,2.5-2.5v-0.3
			C304,113.1,302.9,111.9,301.5,111.9z"/>
        <polygon class="st3" points="258.3,211.4 250.5,231.4 245.2,228.3 249.7,216.7 233.3,221.4 228.7,218.4 		"/>
        <polygon class="st3" points="286.1,195.7 278.3,215.7 273,212.7 277.4,201 261,205.7 256.4,202.7 		"/>
        <polygon class="st3" points="316.9,178.2 309.1,198.2 303.8,195.1 308.3,183.4 291.9,188.2 287.3,185.1 		"/>
        <polygon class="st3" points="232.5,226.1 224.7,246.1 219.4,243 223.9,231.3 207.4,236.1 202.9,233.1 		"/>
        <ellipse class="st3" cx="153.5" cy="214.9" rx="5.6" ry="2.7"/>
        <g>
			<path class="st10" d="M199.4,91.4l-11.8,7.1c0,0-2.4,0.4-2.9-1.7c-0.5-2.1-5.3-4.7-8.7-2.8c-3.4,1.9-0.3,4.6,3.3,5.1
				c3.6,0.4,3.3,1.3,2.6,2.2c-0.8,0.9-10.6,6.5-10.6,6.5l11.7,7c0,0,2.1,0.9,1.3,2c-0.9,1.2-3.3-1.6-5.9,1.1
				c-2.6,2.7,2.7,5.1,5.9,4.7c3.2-0.4,3.4-1.7,3.4-2.7s0.9-1.4,1.9-1c0.9,0.4,14.1,7.6,14.1,7.6l11-6.6c0,0-5,0.3-7-2.3
				c-2-2.6-1.4-5.4,2.4-5.8c3.9-0.4,9.2,1.3,9.1,5.1l12-6.5l-13.8-8.1c0,0-2,5.9-9.3,4.4s-4.3-6.8,5.1-7.1L199.4,91.4z"/>
            <path class="st10" d="M174.6,88.4v7.4c0,0,1.4,1.7,4.5,1.4c3.1-0.3,4.4-4.8,4.4-4.8"/>
            <path class="st10" d="M171.4,100.4v7.4l6.9,3.3l-0.5,1.2v7.1c0,0,3.6,0.8,5.4,0c1.8-0.8,2.6-3.5,4.4-3.7
				c1.8-0.2,20.2,5.4,20.2,5.4l7-1.3v-7.4c0,0-9.3,4.4-12.6,0.1"/>
            <path class="st10" d="M231.3,110.3V103l-18.1-3.4v-7.4c0,0-5.9-0.1-6-0.1c-0.1,0-8.1,2-4.4,6.8s-2.2,9,3,9.9"/>
            <g class="st4">
				<path class="st5" d="M199.4,91.4l-11.8,7.1c0,0-2.4,0.4-2.9-1.7c-0.5-2.1-5.3-4.7-8.7-2.8c-3.4,1.9-0.3,4.6,3.3,5.1
					c3.6,0.4,3.3,1.3,2.6,2.2c-0.8,0.9-10.6,6.5-10.6,6.5l11.7,7c0,0,2.1,0.9,1.3,2c-0.9,1.2-3.3-1.6-5.9,1.1
					c-2.6,2.7,2.7,5.1,5.9,4.7c3.2-0.4,3.4-1.7,3.4-2.7s0.9-1.4,1.9-1c0.9,0.4,14.1,7.6,14.1,7.6l11-6.6c0,0-5,0.3-7-2.3
					c-2-2.6-1.4-5.4,2.4-5.8c3.9-0.4,9.2,1.3,9.1,5.1l12-6.5l-13.8-8.1c0,0-2,5.9-9.3,4.4s-4.3-6.8,5.1-7.1L199.4,91.4z"/>
                <path class="st5" d="M174.6,88.4v7.4c0,0,1.4,1.7,4.5,1.4c3.1-0.3,4.4-4.8,4.4-4.8"/>
                <path class="st5" d="M171.4,100.4v7.4l6.9,3.3l-0.5,1.2v7.1c0,0,3.6,0.8,5.4,0c1.8-0.8,2.6-3.5,4.4-3.7
					c1.8-0.2,20.2,5.4,20.2,5.4l7-1.3v-7.4c0,0-9.3,4.4-12.6,0.1"/>
                <path class="st5"
                      d="M231.3,110.3V103l-18.1-3.4v-7.4c0,0-5.9-0.1-6-0.1c-0.1,0-8.1,2-4.4,6.8s-2.2,9,3,9.9"/>
			</g>
            <path class="st10" d="M199.4,84l-11.8,7.1c0,0-2.4,0.4-2.9-1.7c-0.5-2.1-5.3-4.7-8.7-2.8c-3.4,1.9-0.3,4.6,3.3,5.1
				s3.3,1.3,2.6,2.2s-10.6,6.5-10.6,6.5l11.7,7c0,0,2.1,0.9,1.3,2c-0.9,1.2-3.3-1.6-5.9,1.1c-2.6,2.7,2.7,5.1,5.9,4.7
				c3.2-0.4,3.4-1.7,3.4-2.7c0-1,0.9-1.4,1.9-1c0.9,0.4,14.1,7.6,14.1,7.6l11-6.6c0,0-5,0.3-7-2.3c-2-2.6-1.4-5.4,2.4-5.8
				c3.9-0.4,9.2,1.3,9.1,5.1l12.1-6.5l-13.8-8.1c0,0-2,5.9-9.3,4.4s-4.3-6.8,5.1-7.1L199.4,84z"/>
		</g>
        <g>
			<path class="st11" d="M97.5,178.2c9.4,0.3,12.4,5.5,5.1,7.1s-9.3-4.4-9.3-4.4L79.4,189l12,6.5c-0.1-3.8,5.2-5.6,9.1-5.1
				s4.4,3.3,2.4,5.8s-7,2.3-7,2.3l11,6.6c0,0,13.2-7.2,14.1-7.6s1.9,0,1.9,1s0.2,2.3,3.4,2.7s8.6-2,5.9-4.7
				c-2.6-2.7-5.1,0.1-5.9-1.1c-0.9-1.2,1.3-2,1.3-2l11.7-7c0,0-9.8-5.6-10.6-6.5c-0.8-0.9-1.1-1.8,2.6-2.2c3.6-0.4,6.8-3.1,3.3-5.1
				s-8.2,0.6-8.7,2.8c-0.5,2.1-2.9,1.7-2.9,1.7l-11.8-7.1L97.5,178.2z"/>
            <path class="st11" d="M127.2,171c0,0,1.3,4.5,4.4,4.8s4.5-1.4,4.5-1.4V167"/>
            <path class="st11" d="M108.5,191.1c-3.2,4.3-12.6-0.1-12.6-0.1v7.4l7,1.3c0,0,18.4-5.6,20.2-5.4c1.8,0.2,2.6,2.9,4.4,3.7
				s5.4,0,5.4,0v-7.1l-0.5-1.2l6.9-3.3V179"/>
            <path class="st11"
                  d="M104.8,187.3c5.3-0.9-0.6-5.1,3-9.9s-4.3-6.7-4.4-6.8c-0.1,0-6,0.1-6,0.1v7.4l-18.1,3.4v7.4"/>
            <g class="st4">
				<path class="st5" d="M97.5,178.2c9.4,0.3,12.4,5.5,5.1,7.1s-9.3-4.4-9.3-4.4L79.4,189l12,6.5c-0.1-3.8,5.2-5.6,9.1-5.1
					s4.4,3.3,2.4,5.8s-7,2.3-7,2.3l11,6.6c0,0,13.2-7.2,14.1-7.6s1.9,0,1.9,1s0.2,2.3,3.4,2.7s8.6-2,5.9-4.7
					c-2.6-2.7-5.1,0.1-5.9-1.1c-0.9-1.2,1.3-2,1.3-2l11.7-7c0,0-9.8-5.6-10.6-6.5c-0.8-0.9-1.1-1.8,2.6-2.2c3.6-0.4,6.8-3.1,3.3-5.1
					s-8.2,0.6-8.7,2.8c-0.5,2.1-2.9,1.7-2.9,1.7l-11.8-7.1L97.5,178.2z"/>
                <path class="st5" d="M127.2,171c0,0,1.3,4.5,4.4,4.8s4.5-1.4,4.5-1.4V167"/>
                <path class="st5" d="M108.5,191.1c-3.2,4.3-12.6-0.1-12.6-0.1v7.4l7,1.3c0,0,18.4-5.6,20.2-5.4c1.8,0.2,2.6,2.9,4.4,3.7
					s5.4,0,5.4,0v-7.1l-0.5-1.2l6.9-3.3V179"/>
                <path class="st5"
                      d="M104.8,187.3c5.3-0.9-0.6-5.1,3-9.9s-4.3-6.7-4.4-6.8c-0.1,0-6,0.1-6,0.1v7.4l-18.1,3.4v7.4"/>
			</g>
            <path class="st11" d="M97.5,170.7c9.4,0.3,12.4,5.5,5.1,7.1s-9.3-4.4-9.3-4.4l-13.8,8.1l12.1,6.5c-0.1-3.8,5.2-5.6,9.1-5.1
				c3.9,0.4,4.4,3.3,2.4,5.8c-2,2.6-7,2.3-7,2.3l11,6.6c0,0,13.2-7.2,14.1-7.6c0.9-0.4,1.9,0,1.9,1c0,1,0.2,2.3,3.4,2.7
				c3.2,0.4,8.6-2,5.9-4.7c-2.6-2.7-5.1,0.1-5.9-1.1s1.3-2,1.3-2l11.7-7c0,0-9.8-5.6-10.6-6.5s-1.1-1.8,2.6-2.2
				c3.6-0.4,6.8-3.1,3.3-5.1c-3.4-1.9-8.2,0.6-8.7,2.8c-0.5,2.1-2.9,1.7-2.9,1.7l-11.8-7.1L97.5,170.7z"/>
		</g>
	</g>
</g>
</svg>
