<?xml version="1.0" encoding="utf-8"?>
<!-- Generator: $$$/GeneralStr/196=Adobe Illustrator 27.6.0, SVG Export Plug-In . SVG Version: 6.00 Build 0)  -->
<svg version="1.1" xmlns="http://www.w3.org/2000/svg" xmlns:xlink="http://www.w3.org/1999/xlink" x="0px" y="0px"
	 viewBox="0 0 2171.9 1773.2" style="enable-background:new 0 0 2171.9 1773.2;" xml:space="preserve">
<style type="text/css">
	.st0{fill:#FFFFFF;stroke:#000000;stroke-width:2;stroke-linecap:round;stroke-linejoin:round;stroke-miterlimit:10;}
	.st1{stroke:#000000;stroke-linecap:round;stroke-linejoin:round;stroke-miterlimit:10;}
	.st2{fill:none;stroke:#000000;stroke-width:2;stroke-linecap:round;stroke-linejoin:round;stroke-miterlimit:10;}
	.st3{fill:none;stroke:#FFFFFF;stroke-linecap:round;stroke-linejoin:round;stroke-miterlimit:10;}
	.st4{fill:#221F20;}
	.st5{fill:#FFFFFF;}
	.st6{fill:#7A68A7;}
	.st7{fill:none;}
	.st8{fill:none;stroke:#FFFFFF;stroke-width:8.2583;stroke-linecap:round;stroke-linejoin:round;stroke-miterlimit:10;}
	.st9{fill:#FFFFFF;stroke:#000000;stroke-width:2.4;stroke-miterlimit:10;}
</style>
<g id="Calque_3">
</g>
<g id="Calque_1">
	<polygon class="st0" points="570.6,1434.4 293.9,1546.3 253.9,1730.1 468.2,1722.6 470.2,1687.8 529.8,1720.4 716.7,1713.8 	"/>
	<path class="st0" d="M813.8,424.8L797,460.5l-3.7,7.8c-7.1,12.5-21.2,31.5-27.5,71.6c-7.6,48.6-30.1,159.7-41.6,215.6
		c-4.5,22-10.9,43.6-19,64.5l-44.7,115.3l-130.8-54.8l49.6-103.6c5.9-12.4,11.3-25.2,15.9-38.2l73.7-206c0,0-17.6-31-23.8-42.4
		c-6.2-11.4-28.3-27.8-22.2-43.8s27.3,1.7,37.2,12.1c0,0,7.2,1,16.3,3.6c3.8-3.2,7.6-6.8,9.2-9.7c2.2-3.9,6.2-10.1,12.5-13.9l4.8-22
		c0,0-9-40.6,2.9-43.8c11.9-3.2,18.3,27,19.4,39.2c0.6,6.6-0.1,16.4-0.8,23.9c0.8,0,1.6-0.1,2.5-0.1l7.7-23.1
		c0,0-1.1-38.9,13.3-40.1c14.4-1.2,9,42.3,9,42.3l-8.7,23.9c0.3,0.1,0.7,0.3,1,0.4c4.4-8,11.8-21.1,14.2-24.3
		c0,0,7.9-38.1,20.5-37.7c12.6,0.4,1.8,40.6,1.8,40.6l-9.1,22.4c0.8,0,1.5,0,2.3,0l12.9-20.9c0,0,5.8-32.3,19.4-31.3
		C824.9,388.9,813.8,424.8,813.8,424.8z"/>
	<path class="st0" d="M68.7,1294.2l-59.2,95c-9.5,15.3-11.2,34.3-4.3,51.1l89.7,219.3l7,57.7c1.4,11.5,6.5,22.3,14.5,30.7l18.8,19.8
		c4.9,5.1,12.9,5.9,18.4,1.4c2.7-2.2,4.8-5.8,5-11.3c0,0,17.5,8,20.1-13.7c0,0,18.3,8,23.7-14.2c0,0,12.6,4.3,18.7-5.6
		c2.6-4.3,2.8-9.7,0.8-14.3l-3.5-7.9c2.8-3.9,7.3-9.6,12.7-14.2c9.3-8,1.5-21.9-3.4-25.5s-38.4-10.3-55.4-56.7
		c-14.5-39.6-37-123.1-43.3-146.6c-1-4-0.1-8.2,2.4-11.3l44-54l20.3-24.9l-120.5-85.4L68.7,1294.2"/>
	<g>
		<polygon points="561.9,1144.8 594.6,1441.8 272.2,1571.3 246.7,1370 194.1,1411.3 54.4,1280.8 173.7,1120.8 312,1042.1 
			329.7,1032 367.6,1016.3 394.1,1005.4 454.9,980.2 516,874.7 529.8,880.5 660.6,935.3 673.2,940.6 		"/>
		<path class="st0" d="M404.8,696c-0.2,14.7-7.2,43.9-50,79.6c-22.4,18.7-54.5,39.1-100.6,60.2l22.7,60c0.2,0.4,0.2,0.9,0.2,1.3
			c0,1.7-1.2,3.2-3,3.6c-0.2,0-0.4,0.1-0.6,0.1c-2.1,0-3.8,1.8-3.6,3.8c0.2,2.6-0.6,5.3-5.5,3c-4.1-1.9-9-4.3-14.5-7
			c-1.2-0.6-2.5-1.2-3.8-1.9c-2.7-1.4-5.5-2.8-8.4-4.3c-36.8-19.2-86.8-49.6-96.9-76.6c-3.3-8.9,0-18.9,7.7-24.4
			C178.7,771.9,297,684.2,312,618.1c17.3-75.8,41.3,34.5,15.8,63.1c0,0,22.6-13.9,34.2-33.1c2.8-4.6,9.7-4,11.4,1.1
			c5.6,16,10.9,42.5-5.9,61.3l28.1-19.3C399.6,688.4,404.9,691.3,404.8,696z"/>
		<path d="M399.8,1016.6c-5.7,0.8-11,1.2-15.9,1.2c-0.8,0-1.5,0-2.3,0c-0.1,0-0.3,0-0.4,0c-0.6,0-1.2,0-1.9-0.1c-0.2,0-0.4,0-0.6,0
			c-0.7,0-1.4-0.1-2.1-0.1c-0.1,0-0.3,0-0.4,0c-0.6,0-1.2-0.1-1.8-0.2c-0.1,0-0.3,0-0.4,0c-0.7-0.1-1.3-0.2-2-0.2
			c-0.6-0.1-1.3-0.2-1.9-0.3c-0.3-0.1-0.6-0.1-0.8-0.2c-0.1,0-0.1,0-0.2,0c-0.5-0.1-1-0.2-1.5-0.3c-0.7-0.1-1.4-0.3-2.1-0.4
			c-0.6-0.1-1.1-0.3-1.7-0.4c-0.2,0-0.4-0.1-0.6-0.2c-0.4-0.1-0.9-0.2-1.3-0.4c-0.8-0.2-1.5-0.4-2.3-0.7c-0.6-0.2-1.2-0.4-1.8-0.6
			c-0.4-0.2-0.9-0.3-1.3-0.5c-0.3-0.1-0.6-0.2-0.9-0.4c-0.5-0.2-1-0.4-1.5-0.6c-0.9-0.4-1.9-0.8-2.7-1.2c0,0,0,0-0.1,0
			c-0.2-0.1-0.5-0.2-0.8-0.4c-2.8-1.4-5.3-2.9-7.6-4.6c-0.2-0.2-0.5-0.3-0.7-0.5c-5-3.7-8.9-7.8-12-11.8c-0.1-0.1-0.2-0.3-0.3-0.4
			c-0.5-0.7-1-1.3-1.4-2c-0.2-0.3-0.5-0.7-0.7-1c-0.4-0.7-0.9-1.3-1.3-2c-0.2-0.3-0.4-0.7-0.6-1c-0.1-0.1-0.1-0.2-0.2-0.4
			c0,0,0-0.1,0-0.1c-2.3-4.3,2.2-9,6.7-7c2.2,1,4.6,2,7.3,3c0.3,0.1,0.6,0.2,0.9,0.3c1.1,0.4,2.3,0.8,3.5,1.2
			c0.4,0.1,0.8,0.3,1.2,0.4c0.2,0.1,0.5,0.1,0.7,0.2c0.2,0.1,0.5,0.1,0.7,0.2c0.4,0.1,0.8,0.2,1.1,0.3c0.4,0.1,0.8,0.2,1.3,0.3
			c0.9,0.2,1.8,0.5,2.7,0.7c0.4,0.1,0.9,0.2,1.4,0.3c0.6,0.1,1.3,0.3,2,0.4c0.4,0.1,0.8,0.2,1.3,0.2c0.3,0.1,0.6,0.1,1,0.2
			c0.5,0.1,1,0.2,1.4,0.2c1.4,0.2,2.8,0.4,4.2,0.6c0.5,0.1,0.9,0.1,1.4,0.2c0.9,0.1,1.8,0.2,2.8,0.2c0.4,0,0.8,0.1,1.2,0.1
			c0.4,0,0.8,0.1,1.2,0.1c0.5,0,1,0,1.4,0.1c2.9,0.1,6,0.1,9.1-0.1c1.4-0.1,2.8-0.2,4.2-0.4c0.5,0,1-0.1,1.4-0.2L399.8,1016.6z"/>
		<path class="st0" d="M436.5,960c-2.7,4.7-6.1,9.1-10.5,13.1c-14,9.2-27.8,13.7-40.5,15.3c-0.5,0.1-1,0.1-1.4,0.2
			c-1.4,0.2-2.8,0.3-4.2,0.4c-3.1,0.2-6.1,0.2-9.1,0.1c-0.5,0-1,0-1.4-0.1c-0.4,0-0.8,0-1.2-0.1c-0.4,0-0.8-0.1-1.2-0.1
			c-0.9-0.1-1.9-0.1-2.8-0.2c-0.5,0-0.9-0.1-1.4-0.2c-1.4-0.2-2.8-0.4-4.2-0.6c-0.5-0.1-1-0.2-1.4-0.2c-0.3,0-0.7-0.1-1-0.2
			c-0.4-0.1-0.9-0.2-1.3-0.2c-0.7-0.1-1.3-0.3-2-0.4c-0.5-0.1-0.9-0.2-1.4-0.3c-0.9-0.2-1.8-0.4-2.7-0.7c-0.4-0.1-0.9-0.2-1.3-0.3
			c-0.4-0.1-0.8-0.2-1.1-0.3c-0.2-0.1-0.5-0.1-0.7-0.2c-0.2-0.1-0.5-0.1-0.7-0.2c-0.4-0.1-0.8-0.2-1.2-0.4c-1.2-0.4-2.4-0.8-3.5-1.2
			c-0.3-0.1-0.6-0.2-0.9-0.3c-2.7-1-5.1-2-7.3-3c-4.5-2-9,2.8-6.7,7c0,0,0,0.1,0,0.1c0.1,0.1,0.1,0.2,0.2,0.4c0.2,0.3,0.4,0.7,0.6,1
			c0.4,0.7,0.8,1.3,1.3,2c0.2,0.3,0.4,0.7,0.7,1c0.5,0.7,0.9,1.3,1.4,2c0.1,0.1,0.2,0.3,0.3,0.4c3.1,4,7,8.1,12,11.8
			c0.2,0.2,0.4,0.3,0.7,0.5c2.3,1.7,4.9,3.2,7.6,4.6c0.2,0.1,0.5,0.2,0.8,0.4c0,0,0.1,0,0.1,0c0.9,0.4,1.8,0.8,2.7,1.2
			c0.5,0.2,1,0.4,1.5,0.6c0.3,0.1,0.6,0.2,0.9,0.4c0.4,0.2,0.9,0.3,1.3,0.5c0.6,0.2,1.2,0.4,1.8,0.6c0.8,0.2,1.5,0.5,2.3,0.7
			c0.4,0.1,0.9,0.2,1.3,0.4c0.2,0.1,0.4,0.1,0.6,0.2c0.6,0.1,1.1,0.3,1.7,0.4c0.7,0.1,1.4,0.3,2.1,0.4c0.5,0.1,1,0.2,1.5,0.3
			c0.1,0,0.1,0,0.2,0c0.3,0.1,0.6,0.1,0.8,0.2c0.6,0.1,1.2,0.2,1.9,0.3c0.7,0.1,1.3,0.2,2,0.2c0.1,0,0.3,0,0.4,0
			c0.6,0.1,1.2,0.1,1.8,0.2c0.1,0,0.2,0,0.4,0c0.7,0.1,1.4,0.1,2.1,0.1c0.2,0,0.4,0,0.6,0c0.6,0,1.2,0,1.9,0.1c0.2,0,0.3,0,0.4,0
			c0.8,0,1.5,0,2.3,0c4.9,0,10.2-0.4,15.9-1.2l16.8,33.4c0,0-47.9,69.2-104.3,11.1c0,0,5.3-71.8-40.1-102.6c0,0-47.1,8.6-51.4-24.8
			c-2.8-21.4,6.8-33.9,17-39.4c0,0,10.5-5.2,22.2-3.1l-19.1-49.9L349.9,772c0,0,1.5,1.5,4.2,4.3c1.4,1.5,3.1,3.3,5.1,5.4
			c0,0,0,0,0,0C387.4,811.9,467.6,905.5,436.5,960z"/>
	</g>
	<path class="st0" d="M359.3,781.7c-2-2.1-3.7-4-5.1-5.4c0.2-0.2,0.5-0.4,0.7-0.6C356.2,777.5,357.7,779.5,359.3,781.7z"/>
	<path class="st0" d="M436.5,960c-2.1,5.4-5.5,9.8-10.5,13.1C430.4,969.1,433.9,964.7,436.5,960z"/>
	
		<ellipse transform="matrix(0.8446 -0.5354 0.5354 0.8446 -414.2518 309.2697)" class="st1" cx="325.6" cy="868.2" rx="6" ry="8.1"/>
	
		<ellipse transform="matrix(0.8446 -0.5354 0.5354 0.8446 -386.3806 330.6732)" class="st1" cx="376.4" cy="830.9" rx="6" ry="8.1"/>
	<path class="st2" d="M369,854.5c0,0,69.3,46,14.3,54"/>
	<path class="st1" d="M360.3,928c10.3,3.3,31.7,8.9,47.8,4.2c1.9-0.6,3.6,1.5,2.6,3.2c-7,11.7-26.4,35.6-52.9-4
		C356.6,929.6,358.3,927.3,360.3,928z"/>
	<line class="st3" x1="272.2" y1="1571.3" x2="235.7" y2="1283.6"/>
	<path class="st0" d="M260,891.2c2.9,0.5,5.8,1.5,8.7,3.1"/>
	<polyline class="st2" points="529.8,880.5 520.8,899.3 656.8,945 660.6,935.3 	"/>
	<path class="st2" d="M797,460.5c-0.7,2.4-2,4.9-3.7,7.8"/>
	<line class="st2" x1="698.3" y1="438.6" x2="697.4" y2="442.8"/>
	<path class="st2" d="M676.6,462.1c12.5,3.5,28.8,10.1,35.6,21.1"/>
	<path class="st2" d="M778.9,440l-6.8,11l4.5-11C777.4,440,778.1,440,778.9,440"/>
	<path class="st2" d="M749.3,439.1c-1.9,3.5-3.2,5.9-3.4,6.2l2.4-6.6C748.6,438.8,748.9,438.9,749.3,439.1"/>
	<line class="st2" x1="727" y1="435.7" x2="722.1" y2="446.4"/>
	<line class="st2" x1="218.4" y1="1702.3" x2="205.6" y2="1673.4"/>
	<line class="st2" x1="202.5" y1="1730.1" x2="186.1" y2="1697.5"/>
	<line class="st2" x1="178.7" y1="1744.3" x2="160.1" y2="1713.8"/>
	<line class="st2" x1="158.6" y1="1758" x2="131.5" y2="1726.1"/>
	<path class="st4" d="M764.9,400.5l-0.5-0.1l-72.3-16.6c-3.5-0.8-5.8-4.3-4.9-7.9c0,0,0,0,0,0l2.9-12.7c0.4-1.7,1.4-3.2,2.9-4.1
		c1.5-0.9,3.3-1.2,5-0.8l72.3,16.6c3.5,0.8,5.8,4.4,5,7.9l-2.9,12.7C771.5,398.9,768.3,401,764.9,400.5z"/>
	<path class="st5" d="M773.3,382.3l-2.9,12.8c-0.6,2.5-3,4-5.5,3.4l-72.3-16.6c-2.5-0.6-4-3-3.4-5.5l2.9-12.7
		c0.5-2.3,2.8-3.9,5.1-3.5l0.3,0.1l72.3,16.6C772.3,377.4,773.8,379.8,773.3,382.3z"/>
	<path class="st4" d="M764.8,398.5l-72.3-16.6c-3.5-0.8-7.1,1.4-7.9,5l-2.9,12.8c-0.1,0.5-0.2,1-0.2,1.4c0,3,2.1,5.7,5.1,6.5
		l72.3,16.6l0.5,0.1c1.6,0.2,3.1-0.1,4.5-0.9c1.5-0.9,2.5-2.4,2.9-4.1l2.9-12.7c0,0,0,0,0,0C770.6,402.8,768.4,399.3,764.8,398.5z
		 M767.8,405.9l-2.9,12.7c-0.6,2.5-3,4-5.5,3.4l-72.3-16.6c-1.2-0.3-2.2-1-2.8-2c-0.7-1-0.9-2.3-0.6-3.5l2.9-12.7
		c0.5-2.3,2.8-3.8,5.1-3.5l0.4,0.1l72.3,16.6C766.8,401,768.4,403.5,767.8,405.9z"/>
	<path class="st5" d="M767.8,405.9l-2.9,12.7c-0.6,2.5-3,4-5.5,3.4l-72.3-16.6c-1.2-0.3-2.2-1-2.8-2c-0.7-1-0.9-2.3-0.6-3.5
		l2.9-12.7c0.5-2.3,2.8-3.8,5.1-3.5l0.4,0.1l72.3,16.6C766.8,401,768.4,403.5,767.8,405.9z"/>
	<path class="st4" d="M690.9,407.4c-2.1,8.9,10.7,19.4,28.5,23.6c17.8,4.2,33.8,0,35.7-8.8L690.9,407.4z"/>
	<path class="st4" d="M724.2,432.9c-1.7-0.3-3.4-0.5-5.1-1c-8-1.7-15.5-5.1-22-10.1c-5.7-4.7-8.2-9.9-7.2-14.6
		c0.2-0.5,0.7-0.9,1.2-0.8l64.5,14.8c0.5,0.1,0.9,0.6,0.8,1.2c0,0,0,0,0,0c-1.1,4.7-5.6,8.3-12.8,10
		C737.2,433.9,730.6,434,724.2,432.9z M691.6,408.6c-0.4,3.7,2,7.7,6.6,11.6c12.9,9.4,29,13.1,44.7,10.3c5.8-1.4,9.7-4.1,11-7.5
		L691.6,408.6z"/>
	<path class="st6" d="M709.3,361.8c-19.7-6.3-18.9-9.2-19.2-21c-0.5-21.3-8.3-40-16.5-59.2c-30.4-71.3,13.9-153.7,100.8-142.4
		c58.9,7.7,96,51.9,88.3,109.2c-3.6,27.7-18.1,52.8-40.2,69.8c-15.2,12.1-28.7,25-37.4,42.6c-5.7,11.3-7.1,18.7-28,12
		c-7.6-2.4-15.5-3.6-23.3-5.4C726,365.6,717.3,364.4,709.3,361.8z"/>
	<g>
		<path class="st5" d="M1769.4,1144c27.5-27.6,211.8-105.3,228.9-117.8c17.1-12.6,17.5-22.9,39.7-28.2s57.4-15.9,60.7-12
			c3.3,3.9,0.6,13.4-4.8,17.7c-5.4,4.3-19.3,7.1-24.3,11.5l0,0c0,0,28.3,6.2,37.6,1.8s25.5-16.2,33.6-17.2c5.1-0.5,10.3,0.6,14.9,3
			c0,0,10.6-6.7,14-1.2c2.3,3.7,0.2,7.8-2.9,10.2c6.9-1.9,1.8,6.7,0.4,9.1c-37.7,62.8-120.1,45.3-132.6,45.6c0,0-41,33.3-49.9,41.1
			c-22.2,19.7-44.8,38.8-68.3,56.9c-25.7,19.8-54,42.2-85.3,52C1766.3,1236.7,1741.8,1171.6,1769.4,1144z"/>
		<path class="st4" d="M1805.3,1221.4c-17.6-0.7-32.2-8.6-41-23.1c-11.1-18.3-9.3-41.4,4.4-55l0,0c17.7-17.8,100.5-56.4,160.9-84.6
			c33.3-15.5,62.1-28.9,68.1-33.4c4.8-3.6,9.2-7.7,13.3-12.1c6.8-7.1,12-12.7,26.8-16.2c5.2-1.3,11.1-2.8,17.4-4.4
			c28.2-7.3,41.8-10.4,44.5-7.3c1.5,2,2,4.5,1.6,7c-0.5,4.8-2.9,9.3-6.6,12.4c-3.8,2.4-7.9,4.4-12.2,5.7c-3.4,1.2-6.7,2.6-10,4.2
			c7.2,1.4,27,4.8,34.3,1.3c3.3-1.5,7.4-4,11.8-6.6c8.2-4.9,16.7-10,22.2-10.7c5.2-0.5,10.4,0.5,15,2.9c1.8-1,7.3-3.9,11.4-3
			c1.5,0.3,2.8,1.2,3.6,2.4c1.8,3.1,1.4,7-1,9.6c0.5,0.1,1,0.5,1.3,0.9c1.3,1.7,0.4,4.8-2.7,10c-33.3,55.4-100.5,49.1-125.7,46.7
			c-3.2-0.3-5.9-0.5-7.4-0.6c-3.8,3.1-41.1,33.4-49.5,40.8c-24.9,22.2-47.3,40.8-68.3,56.9l-3.3,2.5c-24.5,18.8-52.2,40.2-82.4,49.7
			C1823.1,1220.3,1814.2,1221.6,1805.3,1221.4z M2095.8,986.1c-6.4-0.2-26.4,4.9-40.2,8.5c-6.3,1.6-12.2,3.1-17.4,4.4
			c-14,3.4-19.2,8.8-25.6,15.6c-4.1,4.5-8.7,8.7-13.6,12.4c-6.2,4.6-33.7,17.4-68.5,33.6c-60.3,28.1-142.9,66.6-160.2,84.1l0,0
			c-12.8,12.9-14.4,34.8-3.9,52.2c12.3,20.3,36.4,27.1,64.5,18.3c29.8-9.3,57.4-30.6,81.7-49.3l3.3-2.5c21-16.1,43.3-34.7,68.2-56.8
			c8.8-7.8,49.5-40.8,49.9-41.2c0.2-0.2,0.4-0.3,0.7-0.3c1.7,0.1,4.4,0.2,8.1,0.6c24.9,2.4,91,8.6,123.5-45.6
			c3.7-6.2,2.9-7.4,2.9-7.4c0,0-0.6-0.3-2,0.1c-0.6,0.3-1.3,0.1-1.6-0.5c-0.3-0.6-0.1-1.3,0.5-1.6l0,0c2.7-2.1,4.6-5.6,2.6-8.7
			c-0.5-0.8-1.3-1.4-2.3-1.5c-3.3-0.7-8.5,2-10.3,3.1c-0.4,0.2-0.8,0.2-1.2,0c-4.3-2.3-9.3-3.3-14.1-2.8c-5,0.6-13.7,5.8-21.3,10.4
			c-4.4,2.7-8.6,5.2-12,6.7c-9,4.3-33.6-0.7-37.8-1.6l-1.8,1.6c-0.2,0.6-0.9,0.9-1.5,0.6c-0.6-0.2-0.9-0.9-0.6-1.5
			c0.1-0.3,0.4-0.6,0.7-0.7l2.2-1.9c3.9-2.7,8.2-4.8,12.8-6.2c4.1-1.3,8-3.1,11.6-5.4c3.2-2.8,5.3-6.6,5.7-10.9
			c0.3-1.8,0-3.7-1.1-5.2C2097.2,986.3,2096.5,986.1,2095.8,986.1z M1769.4,1144"/>
		<path class="st5" d="M2155.6,1002.7c0,0-14,16.6-41.4,27.8L2155.6,1002.7z"/>
		<path class="st4" d="M2114.2,1031.7c-0.5,0-0.9-0.3-1-0.7c-0.2-0.6,0-1.3,0.6-1.5c26.8-11,40.8-27.3,41-27.5
			c0.4-0.5,1.1-0.6,1.6-0.1c0.5,0.4,0.6,1.1,0.1,1.6c-0.1,0.2-14.5,16.9-41.9,28.1C2114.5,1031.7,2114.3,1031.7,2114.2,1031.7z"/>
		<path class="st5" d="M2166.8,1011.8c0,0-24.9,29.7-42,31.7L2166.8,1011.8z"/>
		<path class="st4" d="M2124.7,1044.6c-0.6,0-1.2-0.5-1.2-1.1s0.5-1.2,1.1-1.2c16.5-2,41-31,41.3-31.3c0.4-0.5,1.2-0.5,1.6-0.1
			c0.5,0.4,0.5,1.1,0.1,1.6c-1,1.2-25.4,30.1-42.8,32.1L2124.7,1044.6z"/>
		<path class="st5" d="M1036.5,1027.1c-25.4-20.9-43.1-52.3-59.5-80.3c-15-25.6-28.7-51.8-41.8-78.4c-5.3-10.7-30.7-56.9-30.7-56.9
			c-11.5-4.9-94.4-19.7-105.7-92.1c-0.4-2.8-1.9-12.6,3.8-8.3c-2-3.4-2.3-8,1.2-10.5c5.3-3.8,12.5,6.4,12.5,6.4
			c5.1-0.5,10.3,0.4,14.9,2.8c7.2,4,17.7,21,24.7,28.6c7,7.6,35.5,12.5,35.5,12.5l0,0c-3.1-6-14.8-13.8-18.2-19.8
			s-2.3-15.9,2.2-18.2c4.5-2.4,33.2,20.8,51.7,34s15.1,22.9,26.1,41c11.1,18.1,152.6,159.5,167.7,195.3
			C1136.1,1019.2,1088.9,1070.4,1036.5,1027.1z"/>
		<path class="st4" d="M1035.6,1027.9c-24.4-20.1-42.1-50.4-57.6-77l-2.1-3.6c-13.4-22.9-27.1-48.6-41.9-78.5
			c-5-10-28.1-52.1-30.5-56.5c-1.5-0.6-4-1.3-7.1-2.3c-24.3-7.3-88.9-26.7-98.9-90.6c-0.9-6-0.5-9.2,1.3-10.3c0.4-0.3,1-0.4,1.5-0.3
			c-1.2-3.4-0.1-7.1,2.7-9.3c1.2-0.9,2.8-1.2,4.3-0.9c4.2,0.7,8.2,5.4,9.5,7.1c5.2-0.5,10.4,0.6,15,3c4.8,2.7,10.8,10.6,16.5,18.3
			c3.1,4.1,6,7.9,8.4,10.6c5.4,6,25,10.3,32.2,11.7c-2.3-2.7-4.9-5.3-7.6-7.7c-3.5-2.9-6.6-6.2-9.2-9.9c-2.2-4.3-2.7-9.3-1.4-14
			c0.5-2.4,2-4.5,4.1-5.9c3.7-1.9,15.1,6.1,38.5,23.5c5.2,3.8,10.1,7.5,14.4,10.6c12.4,8.8,15.1,16,18.7,25.1
			c2.1,5.6,4.7,11.1,7.7,16.2c3.9,6.4,25.5,29.6,50.5,56.5c45.4,48.9,107.6,115.8,117.3,139l0,0c7.6,17.8,0.5,39.9-16.7,52.6
			c-13.6,10.1-30.1,12-46.7,6C1050.2,1038.2,1042.4,1033.7,1035.6,1027.9z M876,714c-1.5,1-2.6,2.6-3,4.4c-1.2,4.1-0.7,8.4,1.2,12.2
			c2.5,3.5,5.4,6.6,8.7,9.3c3.7,3,6.9,6.5,9.5,10.5l1.3,2.7c0.3,0.2,0.4,0.5,0.4,0.9c0,0.6-0.5,1.2-1.2,1.2c-0.6,0-1.2-0.5-1.2-1.2
			l-1.1-2.1c-4.2-0.7-28.9-5.4-35.6-12.8c-2.5-2.7-5.5-6.6-8.6-10.8c-5.3-7.1-11.4-15.2-15.8-17.6c-4.4-2.3-9.3-3.2-14.2-2.7
			c-0.4,0.1-0.9-0.1-1.1-0.4c-1.2-1.6-5-6.2-8.4-6.7c-0.9-0.2-1.9,0-2.7,0.6c-2.9,2.1-2.6,6.1-0.8,9.1l0,0c0.4,0.5,0.3,1.3-0.2,1.7
			c-0.5,0.4-1.3,0.3-1.7-0.2c-1.2-0.9-1.8-0.9-1.8-0.8c0,0-1.2,0.9-0.1,8c9.8,62.4,73.3,81.6,97.3,88.7c3.6,1,6.1,1.9,7.7,2.5
			c0.2,0.1,0.4,0.3,0.5,0.5c0.3,0.5,25.5,46.4,30.7,56.9c14.8,29.9,28.4,55.5,41.8,78.3l2.1,3.6c15.5,26.5,33,56.5,57.1,76.4
			c22.7,18.7,47.6,21.5,66.6,7.3c16.3-12.1,23.1-33.1,16.1-49.9l0,0c-9.5-22.7-71.5-89.5-116.8-138.2
			c-26.1-28.1-46.8-50.3-50.8-56.9c-3.1-5.3-5.8-10.8-7.9-16.6c-3.5-8.7-6.2-15.7-17.9-24.1c-4.4-3.2-9.3-6.8-14.5-10.6
			c-11.5-8.5-28-20.9-34-23C877.3,713.9,876.6,713.8,876,714z M1121,983.2"/>
		<path class="st5" d="M844.2,748.3C823,727.6,816.3,707,816.3,707L844.2,748.3z"/>
		<path class="st4" d="M843.4,749.2c-21.1-20.7-28.1-41.6-28.2-41.8c-0.2-0.6,0.1-1.3,0.8-1.5c0.6-0.2,1.3,0.1,1.4,0.7
			c0.1,0.2,6.9,20.6,27.6,40.9c0.5,0.4,0.5,1.2,0,1.6c-0.3,0.3-0.8,0.4-1.2,0.3C843.7,749.4,843.5,749.3,843.4,749.2z"/>
		<path class="st5" d="M829.6,756.4c-15.1-8.3-27-45.2-27-45.2L829.6,756.4z"/>
		<path class="st4" d="M829,757.4c-15.3-8.5-27.1-44.3-27.5-45.9c-0.2-0.6,0.1-1.3,0.7-1.5c0.6-0.2,1.3,0.1,1.5,0.7
			c0.1,0.4,11.9,36.5,26.4,44.6c0.6,0.3,0.8,1,0.6,1.5c-0.3,0.6-1,0.8-1.5,0.6L829,757.4z"/>
		<g>
			<path class="st5" d="M2017.4,1152.7l-348,177.7l-90.9,46.4c0,0-2,9-6.8,28.7c-1.5,6.1-3.2,13.2-5.2,21.4
				c-2.4,9.6-5.1,20.6-8.3,33.2c-9.7,38.3-23.3,90.9-41.9,160.1l-391.3,17.1c0,0,41.1-149.4,66.3-250.3c3-11.9,5.7-23.1,8.1-33.3
				c1.8-7.8,3.5-14.9,5-21.4c3.8-17.1,6.1-29.2,6.1-33.8l-54.1-70.3L890.8,882.7l136.3-94.9l300.5,365.4l197.9,46.5l436.9-196.1
				L2017.4,1152.7z"/>
			<path class="st6" d="M1575,1313.7l3.4,63.1c0,0-2,9-6.8,28.7l-367.3-73.2c3.8-17.1,6.1-29.2,6.1-33.8l-5.2-60.6L1575,1313.7z"/>
			<path class="st6" d="M1566.4,1426.9c-2.4,9.6-5.1,20.6-8.3,33.2l-366.9-73.2c3-11.9,5.7-23.1,8.1-33.3L1566.4,1426.9z"/>
			<path d="M1123.3,1638.6l0.4-1.6c0.9-3.1,84.6-308.2,85.5-338.2L889.1,882.4l138.2-96.2l0.7,0.9l300.2,365.1l197.1,46.3L1963,1002
				l0.4,1.2l55.5,150.1l-0.9,0.5l-438.4,223.8c-1.6,6.9-18.1,78.7-62.2,242.9l-0.2,0.8l-0.9,0L1123.3,1638.6z M892.5,883
				l319.2,415.1l0,0.4c-0.1,27.1-77.8,310.9-85.1,337.6l388.7-17c46-171.5,61.9-241.8,62-242.5l0.1-0.5l0.5-0.3l438-223.6
				l-54.3-146.9L1525.5,1201l-0.4-0.1l-198.3-46.6l-300.1-364.8L892.5,883z"/>
			<path d="M1210.5,1299.6c-0.6,0-1.1-0.5-1.2-1.1l-6.2-72.2c-0.1-0.7,0.4-1.2,1.1-1.3c0.7,0,1.2,0.4,1.3,1.1l6.2,72.2
				c0.1,0.7-0.4,1.2-1.1,1.3C1210.5,1299.6,1210.5,1299.6,1210.5,1299.6z"/>
			<path d="M1578.5,1378c-0.6,0-1.2-0.5-1.2-1.1l-4.3-78.4c0-0.7,0.5-1.2,1.1-1.3c0.7,0,1.2,0.5,1.3,1.1l4.3,78.4
				C1579.7,1377.4,1579.2,1378,1578.5,1378C1578.5,1378,1578.5,1378,1578.5,1378z"/>
		</g>
		<line class="st7" x1="1052.8" y1="836.8" x2="935.9" y2="916.2"/>
		<path d="M935.3,919.6c-0.9-0.2-1.7-0.7-2.2-1.4c-1.1-1.5-0.8-3.7,0.8-4.8l117-79.4c1.5-1.1,3.7-0.8,4.8,0.8
			c1.1,1.5,0.8,3.6-0.7,4.7c0,0,0,0,0,0l-117.1,79.6C937,919.5,936.1,919.7,935.3,919.6z"/>
		<g>
			<path class="st6" d="M1456.6,903.4c-10.3,10.9-14.6,20.4-14.7,28.7c-7.6,1.6-16.3,2.3-25.5,0.9c-29,36.5-89.1,122.7-56.3,176.2
				c8,13.1,17.9,19.8,28.6,22c-1.4,4.3-3.2,9.3-5.5,14.6c-158-41.3-142-132.7-142-132.7s51.9-14.4,126-89
				c49-49.4,81.4-40.4,97.6-28.6C1462,897.9,1459.3,900.5,1456.6,903.4z"/>
			<path class="st6" d="M1648.3,1133.8c-59.9,54.6-142.3,42.9-177.5,34.5c-10.7-2.6-17.1-4.8-17.1-4.8
				c67.1-83.1,52.6-155.6,39.8-188.6c-24.5-7.7-52.1-21.3-51.8-42.8c0.2-8.3,4.5-17.9,14.7-28.7c2.7-2.9,5.4-5.5,8.1-7.8
				c54.1-46.4,95.8,25.2,118.2,50.2c23.5,26.2,20.5,120.3,39,139.9C1640.5,1105.3,1648.3,1133.8,1648.3,1133.8z"/>
			<g>
				<path class="st5" d="M1469,1206.2c-63.3,38-118.1-17.6-118.1-17.6c6.8-3.9,12.7-9.8,17.7-16.6c72.4-4.2,84.5-37.4,83.3-62.1
					c-19.8,14.2-43,25.6-63.2,21.4c-10.7-2.3-20.6-9-28.6-22c-32.7-53.5,27.3-139.7,56.3-176.2c9.2,1.4,17.9,0.7,25.5-0.9
					c-0.4,21.6,27.3,35.1,51.8,42.8c12.7,33,27.2,105.5-39.8,188.6c0,0,6.4,2.3,17.1,4.8C1468.3,1191.3,1469,1206.2,1469,1206.2z"/>
				<path d="M1423,1220.8c-14.5,0-27.3-3.6-37.3-7.9c-21.6-9.1-35.2-22.8-35.7-23.4c-0.3-0.3-0.4-0.7-0.4-1.1c0.1-0.4,0.3-0.8,0.7-1
					c6.1-3.5,11.9-9,17.3-16.2c0.2-0.3,0.6-0.5,1-0.6c67.8-3.9,82.3-33.2,82.1-58.2c-24.2,17-45.1,23.7-62.2,20.1
					c-11.9-2.5-21.8-10.1-29.5-22.7c-14.4-23.6-12.8-55.8,4.9-95.8c14.3-32.3,35.9-62.4,51.5-82c0.3-0.4,0.8-0.6,1.3-0.5
					c7.9,1.2,16.4,0.9,25-0.9c0.4-0.1,0.8,0,1.2,0.3c0.3,0.3,0.5,0.7,0.5,1.1c-0.3,20.9,27.4,34.1,50.8,41.5
					c0.4,0.1,0.7,0.4,0.9,0.8c6.4,16.5,13.3,43.2,10.1,76.1c-3.7,38.4-20.2,76.2-48.9,112.3c2.6,0.8,7.9,2.4,15.1,4.2
					c0.7,0.2,1.1,0.8,1,1.5c-2.4,22.6-1.9,37.5-1.9,37.7c0,0.5-0.2,1-0.7,1.2C1453.2,1217.3,1437.3,1220.8,1423,1220.8z
					 M1353.1,1188.9c3.8,3.6,16.2,14.2,33.7,21.6c28,11.8,55.1,10.1,80.8-5c-0.1-3.4-0.2-16.9,1.8-36.1c-10-2.4-15.8-4.5-16-4.6
					c-0.4-0.1-0.7-0.5-0.9-0.9c-0.1-0.4,0-0.9,0.3-1.2c29.2-36.1,45.8-73.9,49.5-112.3c3.1-32-3.5-58-9.7-74.3
					c-41.5-13.2-51.4-30-52.1-42.3c-8.1,1.5-16,1.8-23.6,0.7c-27.9,35.2-88,121.3-55.7,174c7.3,11.9,16.6,19.1,27.7,21.4
					c16.8,3.5,37.7-3.6,62.1-21.2c0.4-0.3,0.9-0.3,1.4-0.1c0.5,0.2,0.8,0.7,0.8,1.2c0.8,16-4,29.4-14.4,39.8
					c-13.8,13.8-37.2,21.8-69.5,23.7C1364.2,1180,1358.8,1185.2,1353.1,1188.9z"/>
			</g>
			<path d="M1368.5,1172c6-8.1,10.9-17.5,14.5-26.1c2.3-5.3,4.1-10.3,5.5-14.6c20.2,4.2,43.4-7.2,63.2-21.4
				C1453.1,1134.6,1440.9,1167.8,1368.5,1172z"/>
			<path class="st5" d="M1416.3,934.4c-0.1,0-0.1,0-0.2,0c-3.2-0.5-6.4-1.2-9.4-2.1c-0.7-0.2-1.1-1-0.9-1.7c0.2-0.7,1-1.1,1.7-0.9
				c2.9,0.9,5.9,1.6,9,2c0.8,0.1,1.3,0.8,1.2,1.6C1417.6,933.9,1417,934.4,1416.3,934.4z"/>
			<path class="st5" d="M1530.7,985c-0.1,0-0.1,0-0.2,0c-0.2,0-17.9-2.6-37.3-8.7c-0.7-0.2-1.1-1-0.9-1.7c0.2-0.7,1-1.1,1.7-0.9
				c19.2,6.1,36.7,8.6,36.9,8.6c0.8,0.1,1.3,0.8,1.2,1.6C1531.9,984.5,1531.3,985,1530.7,985z"/>
			<path d="M1423.3,999.1c-0.4,0-0.8-0.2-1.1-0.5c-15.8-19-30.8-12.6-31.5-12.3c-0.7,0.3-1.5,0-1.8-0.7s0-1.5,0.7-1.8
				c0.2-0.1,17.5-7.6,34.7,13.1c0.5,0.6,0.4,1.5-0.2,1.9C1424,999,1423.7,999.1,1423.3,999.1z"/>
			<path d="M1481.3,1032.7c-0.5,0-1.1-0.3-1.3-0.9c-12.1-30.6-36.3-23.9-37.3-23.6c-0.7,0.2-1.5-0.2-1.7-0.9
				c-0.2-0.7,0.2-1.5,0.9-1.7c0.3-0.1,27.6-7.7,40.6,25.2c0.3,0.7-0.1,1.5-0.8,1.8C1481.7,1032.7,1481.5,1032.7,1481.3,1032.7z"/>
			<path d="M1400.7,1059.6c-0.1,0-0.1,0-0.2,0c-9.6-1.1-15.1-4-16.2-8.7c-1.3-5.3,2.9-12.3,12.4-21c6.8-6.3,14.1-11.2,14.2-11.2
				c0.6-0.4,1.5-0.3,1.9,0.4c0.4,0.6,0.3,1.5-0.4,1.9c-7.8,5.2-27.5,20.7-25.4,29.3c0.9,3.5,5.5,5.7,13.9,6.7
				c0.8,0.1,1.3,0.8,1.2,1.5C1402,1059,1401.4,1059.6,1400.7,1059.6z"/>
			<path d="M1396.4,1089.2c-0.5,0-1,0-1.4,0c-15.3-0.7-24.8-11.5-25.2-12c-0.5-0.6-0.4-1.4,0.1-1.9c0.6-0.5,1.4-0.4,1.9,0.1
				c0.1,0.1,9.2,10.4,23.3,11c10.3,0.4,20.8-4.4,31.1-14.4c0.5-0.5,1.4-0.5,1.9,0c0.5,0.5,0.5,1.4,0,1.9
				C1417.7,1084.1,1407.1,1089.2,1396.4,1089.2z"/>
			<path class="st5" d="M1456.6,904.7c-0.3,0-0.7-0.1-0.9-0.4c-0.6-0.5-0.6-1.4-0.1-1.9c2.8-2.9,5.5-5.6,8.2-7.9
				c0.6-0.5,1.4-0.4,1.9,0.2c0.5,0.6,0.4,1.4-0.2,1.9c-2.6,2.2-5.3,4.8-8,7.7C1457.3,904.6,1456.9,904.7,1456.6,904.7z"/>
		</g>
	</g>
	<g>
		<line class="st8" x1="800.5" y1="4.1" x2="788.9" y2="79.3"/>
		<line class="st8" x1="1001.5" y1="278.4" x2="924.5" y2="266.5"/>
		<line class="st8" x1="602.7" y1="216.9" x2="526.2" y2="205.1"/>
		<line class="st8" x1="957.8" y1="99.7" x2="895.9" y2="145"/>
		<line class="st8" x1="633.3" y1="337.4" x2="569.9" y2="383.9"/>
		<line class="st8" x1="906" y1="435.7" x2="859.3" y2="372.1"/>
		<line class="st8" x1="666.9" y1="109.4" x2="621.8" y2="47.8"/>
	</g>
	<path class="st9" d="M1210.5,1298.4"/>
</g>
</svg>
