<svg width="739" height="506" viewBox="0 0 739 506" fill="none" xmlns="http://www.w3.org/2000/svg">
<g clip-path="url(#clip0_121_178)">
<path d="M522.629 239.761C537.39 224.922 636.502 183.104 645.672 176.333C654.842 169.567 655.094 164.029 666.989 161.181C678.879 158.334 697.87 152.601 699.627 154.695C701.385 156.789 699.955 161.929 697.036 164.233C694.118 166.537 686.689 168.049 683.953 170.418C683.953 170.418 699.149 173.75 704.18 171.376C709.211 169.002 717.892 162.64 722.256 162.107C725.025 161.849 727.804 162.408 730.255 163.727C730.255 163.727 735.925 160.11 737.791 163.092C739.032 165.067 737.909 167.301 736.243 168.593C739.941 167.587 737.226 172.189 736.458 173.475C716.172 207.283 671.908 197.874 665.189 197.998C665.189 197.998 643.172 215.901 638.383 220.147C626.466 230.73 614.308 241.043 601.687 250.763C587.889 261.437 572.688 273.489 555.826 278.764C520.974 289.706 507.832 254.617 522.629 239.767V239.761Z" fill="white"/>
<path d="M541.958 281.423C532.471 281.067 524.661 276.783 519.91 268.967C513.943 259.117 514.905 246.662 522.259 239.336C531.783 229.745 576.279 208.973 608.771 193.8C626.676 185.457 642.135 178.239 645.365 175.838C647.935 173.879 650.326 171.693 652.503 169.304C656.137 165.487 658.97 162.473 666.909 160.578C669.725 159.9 672.902 159.077 676.251 158.205C691.425 154.259 698.724 152.58 700.165 154.292C700.949 155.379 701.261 156.735 701.03 158.054C700.734 160.648 699.471 163.038 697.488 164.734C695.445 166.053 693.236 167.091 690.914 167.818C689.076 168.448 687.286 169.207 685.566 170.106C689.425 170.859 700.073 172.678 703.981 170.795C705.739 169.966 707.959 168.631 710.324 167.226C714.742 164.583 719.316 161.843 722.262 161.456C725.035 161.192 727.83 161.73 730.314 163.001C731.276 162.441 734.243 160.885 736.458 161.391C737.258 161.553 737.963 162.026 738.409 162.71C739.376 164.368 739.156 166.467 737.866 167.888C738.14 167.963 738.376 168.13 738.543 168.362C739.231 169.255 738.769 170.918 737.097 173.755C719.193 203.585 683.104 200.167 669.516 198.886C667.769 198.719 666.36 198.596 665.517 198.585C663.453 200.259 643.398 216.568 638.894 220.567C625.483 232.5 613.475 242.507 602.171 251.221L600.391 252.583C587.249 262.724 572.349 274.226 556.106 279.307C551.548 280.814 546.758 281.53 541.958 281.412V281.423ZM698.106 154.814C694.661 154.685 683.937 157.478 676.503 159.41C673.144 160.277 669.973 161.106 667.129 161.784C659.609 163.593 656.836 166.494 653.342 170.159C651.117 172.603 648.676 174.842 646.037 176.834C642.705 179.31 627.944 186.2 609.239 194.925C576.821 210.06 532.439 230.778 523.113 240.187C516.222 247.13 515.346 258.945 521.017 268.311C527.623 279.216 540.588 282.898 555.676 278.166C571.71 273.15 586.513 261.717 599.569 251.636L601.348 250.274C612.625 241.581 624.606 231.575 638.007 219.679C642.758 215.47 664.619 197.697 664.834 197.519C664.941 197.428 665.07 197.374 665.21 197.374C666.102 197.406 667.554 197.46 669.559 197.686C682.948 198.956 718.472 202.304 735.963 173.141C737.963 169.82 737.527 169.169 737.516 169.147C737.506 169.126 737.199 168.986 736.447 169.196C736.14 169.368 735.748 169.261 735.576 168.954C735.404 168.647 735.512 168.254 735.818 168.082C737.275 166.957 738.264 165.068 737.237 163.399C736.968 162.963 736.527 162.667 736.028 162.581C734.264 162.177 731.453 163.652 730.513 164.228C730.308 164.346 730.061 164.335 729.868 164.206C727.54 162.963 724.896 162.43 722.262 162.678C719.58 163.001 714.919 165.783 710.818 168.254C708.442 169.68 706.196 171.026 704.373 171.882C699.547 174.186 686.308 171.516 684.055 171.031L683.082 171.876C682.953 172.194 682.593 172.35 682.276 172.221C681.959 172.092 681.803 171.731 681.932 171.414C682.002 171.241 682.142 171.112 682.319 171.053L683.523 170.003C685.63 168.561 687.947 167.441 690.387 166.693C692.586 166.009 694.682 165.035 696.628 163.808C698.353 162.322 699.45 160.234 699.702 157.968C699.885 156.988 699.676 155.976 699.127 155.147C698.837 154.927 698.477 154.814 698.111 154.824L698.106 154.814Z" fill="#221F20"/>
<path d="M730.254 163.743C730.254 163.743 722.729 172.662 707.991 178.702L730.254 163.743Z" fill="white"/>
<path d="M707.964 179.321C707.722 179.31 707.507 179.159 707.405 178.938C707.276 178.621 707.432 178.26 707.743 178.131C722.16 172.216 729.69 163.426 729.765 163.34C729.986 163.076 730.373 163.044 730.636 163.259C730.9 163.485 730.937 163.878 730.717 164.147C730.642 164.233 722.928 173.254 708.211 179.283C708.13 179.315 708.044 179.331 707.964 179.321Z" fill="#221F20"/>
<path d="M736.243 168.604C736.243 168.604 722.858 184.579 713.651 185.672L736.243 168.604Z" fill="white"/>
<path d="M713.629 186.296C713.285 186.313 712.995 186.043 712.979 185.699C712.963 185.354 713.231 185.064 713.575 185.048C722.434 183.987 735.63 168.356 735.764 168.184C735.995 167.931 736.382 167.904 736.645 168.119C736.903 168.34 736.936 168.733 736.71 168.991C736.162 169.654 723.057 185.166 713.715 186.286L713.629 186.296Z" fill="#221F20"/>
<path d="M128.713 176.866C115.076 165.622 105.519 148.731 96.7524 133.639C88.7166 119.875 81.3312 105.735 74.2683 91.4392C71.4248 85.7014 57.7612 60.8177 57.7612 60.8177C51.5745 58.1749 7.03611 50.2033 0.946084 11.2388C0.720328 9.75322 -0.0698161 4.47291 2.97788 6.79818C1.92436 4.97349 1.7201 2.48135 3.61215 1.11956C6.45559 -0.936582 10.3526 4.55365 10.3526 4.55365C13.1154 4.25761 15.9051 4.7851 18.3723 6.07153C22.2155 8.20842 27.8647 17.3803 31.6381 21.4765C35.4061 25.5726 50.7413 28.2155 50.7413 28.2155C49.1019 24.9859 42.7807 20.7875 40.9478 17.5526C39.1095 14.3176 39.7169 9.0158 42.1303 7.74013C44.5492 6.46446 59.9865 18.9305 69.9305 26.0517C79.8745 33.1728 78.0309 38.3993 83.9811 48.1256C89.9314 57.8519 166.033 133.956 174.127 153.269C182.255 172.603 156.889 200.157 128.713 176.882V176.866Z" fill="white"/>
<path d="M128.245 177.281C115.109 166.446 105.632 150.174 97.2631 135.824L96.1289 133.892C88.9316 121.555 81.5677 107.759 73.634 91.6492C70.9626 86.2451 58.5084 63.5791 57.2291 61.2484C56.4443 60.9362 55.0898 60.5218 53.4128 60.0158C40.3458 56.0865 5.62246 45.6443 0.252702 11.2604C-0.23106 8.00397 -0.0321797 6.29231 0.940719 5.72175C1.1826 5.57104 1.46748 5.50645 1.74699 5.53875C1.08585 3.73558 1.67174 1.71173 3.1929 0.538331C3.86479 0.0754296 4.69256 -0.0968129 5.49346 0.0538993C7.73489 0.419915 9.89569 2.97664 10.5783 3.85938C13.3573 3.61717 16.147 4.17157 18.6195 5.46339C21.205 6.93283 24.4085 11.1905 27.51 15.3081C29.1709 17.4988 30.7297 19.5711 32.0466 21.0029C34.9599 24.2163 45.5059 26.5469 49.3653 27.3059C48.1021 25.8257 46.7368 24.4424 45.2694 23.1721C43.3935 21.6219 41.738 19.8295 40.3404 17.8379C39.1418 15.518 38.8676 12.8268 39.5718 10.3131C39.8567 9.00513 40.6522 7.86402 41.7863 7.15352C43.759 6.11468 49.8974 10.4207 62.4698 19.7972C65.2434 21.8641 67.8719 23.8234 70.2315 25.5135C76.8806 30.2609 78.3695 34.1202 80.2992 39.0238C81.4172 42.0595 82.8093 44.9823 84.4541 47.7651C86.5451 51.2099 98.15 63.719 111.604 78.2035C136.002 104.508 169.419 140.528 174.633 153C178.691 162.554 174.901 174.46 165.672 181.334C158.335 186.781 149.488 187.804 140.565 184.558C136.072 182.857 131.906 180.392 128.251 177.275L128.245 177.281ZM42.4314 8.32692C41.609 8.88671 41.0338 9.74254 40.8349 10.7222C40.2168 12.9183 40.4479 15.2651 41.4853 17.2943C42.8237 19.1674 44.404 20.8576 46.1832 22.3216C48.1666 23.9364 49.892 25.8418 51.3003 27.9787L52.026 29.4051C52.1657 29.5235 52.2517 29.7011 52.2517 29.8841C52.2517 30.2286 51.9722 30.5031 51.6282 30.5031C51.2842 30.5031 51.0101 30.2232 51.0101 29.8788L50.4242 28.7269C48.1559 28.3232 34.89 25.8095 31.278 21.8533C29.9127 20.3785 28.3378 18.2847 26.6715 16.0671C23.8012 12.2347 20.5277 7.89631 18.1626 6.58835C15.8191 5.3665 13.1691 4.86054 10.5407 5.14044C10.3149 5.18888 10.0784 5.10276 9.93331 4.91975C9.27755 4.03162 7.22962 1.60946 5.44508 1.31881C4.94519 1.21115 4.42918 1.31881 4.01529 1.62023C2.43501 2.77748 2.63926 4.89822 3.56916 6.49146C3.78954 6.77136 3.74116 7.16967 3.46703 7.39035C3.18752 7.61104 2.78976 7.5626 2.56938 7.28808C1.95124 6.80903 1.61799 6.8198 1.59649 6.84133C1.57498 6.86286 0.929969 7.29885 1.53198 11.1259C6.77811 44.7347 40.9424 55.0262 53.8266 58.8962C55.7671 59.4453 57.1323 59.9405 57.9709 60.2473C58.0999 60.3011 58.202 60.4034 58.2665 60.5272C58.4009 60.7748 71.9731 85.4754 74.795 91.1702C82.7341 107.237 90.0765 121.027 97.2523 133.332L98.3865 135.264C106.691 149.523 116.114 165.697 129.078 176.387C141.28 186.458 154.675 187.933 164.893 180.322C173.671 173.782 177.299 162.505 173.525 153.479C168.419 141.244 135.088 105.321 110.749 79.0755C96.6987 63.9451 85.6205 51.9904 83.4597 48.4433C81.7666 45.6013 80.3422 42.6086 79.2026 39.5028C77.3482 34.7931 75.8647 31.0575 69.5811 26.5469C67.2 24.8461 64.5715 22.8868 61.7872 20.8145C55.6273 16.2178 46.7422 9.59183 43.501 8.40766C43.1677 8.25695 42.7915 8.23003 42.4367 8.32154L42.4314 8.32692Z" fill="#221F20"/>
<path d="M25.3599 26.8107C13.97 15.658 10.3525 4.55908 10.3525 4.55908L25.3545 26.8107H25.3599Z" fill="white"/>
<path d="M24.9298 27.2628C13.5614 16.1316 9.80958 4.86587 9.76658 4.75822C9.66446 4.42988 9.84184 4.07463 10.1751 3.96698C10.503 3.86471 10.847 4.04233 10.9545 4.37067C10.9921 4.47832 14.6633 15.4642 25.7952 26.3746C26.0371 26.6115 26.0425 27.0044 25.806 27.252C25.6286 27.4189 25.376 27.4781 25.1448 27.3973C25.0642 27.3704 24.989 27.3274 24.9298 27.2682V27.2628Z" fill="#221F20"/>
<path d="M17.4909 31.1382C9.37443 26.6491 2.97803 6.80896 2.97803 6.80896L17.4909 31.1382Z" fill="white"/>
<path d="M17.2003 31.6818C8.9656 27.1228 2.64982 7.81008 2.39719 6.99192C2.28968 6.66897 2.46169 6.3191 2.78957 6.20607C3.11745 6.1038 3.46684 6.28142 3.58509 6.599C3.64422 6.80353 9.99762 26.2616 17.8023 30.5838C18.1141 30.7291 18.2538 31.0951 18.1087 31.4073C17.9636 31.7195 17.5981 31.8594 17.2863 31.7141L17.211 31.671L17.2003 31.6818Z" fill="#221F20"/>
<path d="M655.97 244.493L468.894 340.12L420.029 365.1C420.029 365.1 418.938 369.945 416.368 380.537C415.573 383.815 414.637 387.642 413.552 392.045C412.272 397.202 410.783 403.155 409.069 409.937C403.855 430.558 396.523 458.886 386.558 496.118L176.245 505.316C176.245 505.316 198.315 424.922 211.871 370.564C213.462 364.174 214.941 358.146 216.247 352.65C217.241 348.473 218.139 344.603 218.918 341.115C220.977 331.906 222.208 325.371 222.213 322.906L193.16 285.072L50.3809 99.1309L123.622 48.0718L285.15 244.746L391.503 269.775L626.321 164.244L655.97 244.493Z" fill="white"/>
<path d="M418.18 331.142L420.029 365.1C420.029 365.1 418.938 369.945 416.369 380.537L218.918 341.115C220.977 331.906 222.208 325.371 222.213 322.906L219.397 290.309L418.18 331.142Z" fill="#7A68A7"/>
<path d="M413.552 392.045C412.273 397.202 410.784 403.155 409.069 409.937L211.872 370.564C213.463 364.175 214.941 358.146 216.247 352.65L413.552 392.045Z" fill="#7A68A7"/>
<path d="M175.391 506L175.627 505.144C176.084 503.481 221.122 339.275 221.568 323.122L49.4619 98.991L123.746 47.2052L124.122 47.6681L285.511 244.175L391.439 269.102L626.687 163.377L626.928 164.023L656.777 244.816L656.266 245.074L420.593 365.542C419.744 369.261 410.837 407.913 387.181 496.29L387.058 496.747L386.585 496.769L175.385 506.005L175.391 506ZM51.311 99.2763L222.864 322.686V322.906C222.837 337.52 181.045 490.277 177.105 504.633L386.063 495.493C410.773 403.182 419.325 365.332 419.411 364.96L419.475 364.664L419.744 364.524L655.175 244.181L625.966 165.116L391.578 270.453L391.363 270.405L284.796 245.327L123.504 48.9438L51.311 99.2763Z" fill="black"/>
<path d="M222.213 323.552C221.88 323.552 221.6 323.299 221.574 322.96L218.214 284.092C218.182 283.737 218.445 283.425 218.8 283.393C219.165 283.366 219.466 283.624 219.499 283.979L222.858 322.847C222.89 323.202 222.627 323.514 222.272 323.547C222.251 323.547 222.235 323.547 222.219 323.547L222.213 323.552Z" fill="black"/>
<path d="M420.029 365.746C419.69 365.746 419.405 365.477 419.384 365.138L417.083 322.944C417.062 322.589 417.336 322.282 417.691 322.266C418.067 322.26 418.352 322.519 418.368 322.874L420.668 365.068C420.69 365.423 420.416 365.73 420.061 365.746C420.05 365.746 420.04 365.746 420.023 365.746H420.029Z" fill="black"/>
<path d="M74.3164 118.987C73.8273 118.901 73.3919 118.627 73.107 118.223C72.5157 117.399 72.7039 116.253 73.5262 115.661L136.394 72.907C137.216 72.3149 138.361 72.5033 138.952 73.3269C139.538 74.1289 139.361 75.2538 138.56 75.8405C138.555 75.8405 138.549 75.8459 138.544 75.8513L75.6172 118.718C75.2302 118.966 74.7733 119.063 74.3218 118.993L74.3164 118.987Z" fill="black"/>
<path d="M354.501 110.257C348.975 116.102 346.659 121.226 346.573 125.71C342.482 126.56 337.784 126.948 332.866 126.211C317.257 145.857 284.984 192.271 302.588 221.073C306.893 228.114 312.193 231.72 317.966 232.936C317.203 235.245 316.219 237.942 315.004 240.795C230.061 218.554 238.661 169.39 238.661 169.39C238.661 169.39 266.564 161.649 306.388 121.469C332.753 94.8571 350.136 99.7444 358.871 106.085C357.43 107.318 355.979 108.706 354.501 110.267V110.257Z" fill="#7A68A7"/>
<path d="M457.585 234.282C425.415 263.66 381.108 257.395 362.166 252.868C356.398 251.49 352.985 250.268 352.985 250.268C389.047 205.539 381.232 166.537 374.405 148.764C361.225 144.592 346.379 137.32 346.573 125.71C346.653 121.226 348.975 116.102 354.501 110.257C355.974 108.701 357.43 107.307 358.871 106.074C387.95 81.1262 410.349 119.639 422.394 133.084C435.037 147.197 433.386 197.853 443.373 208.403C453.35 218.947 457.591 234.277 457.591 234.277L457.585 234.282Z" fill="#7A68A7"/>
<path d="M361.166 273.268C327.125 293.733 297.691 263.8 297.691 263.8C301.34 261.679 304.496 258.498 307.194 254.86C346.088 252.594 352.63 234.729 351.953 221.412C341.321 229.061 328.818 235.219 317.971 232.936C312.198 231.72 306.898 228.114 302.593 221.073C284.989 192.271 317.262 145.857 332.871 126.211C337.789 126.948 342.487 126.561 346.578 125.71C346.384 137.315 361.225 144.592 374.41 148.764C381.242 166.537 389.052 205.539 352.99 250.268C352.99 250.268 356.403 251.49 362.171 252.868C360.832 265.237 361.171 273.268 361.171 273.268H361.166Z" fill="white"/>
<path d="M336.446 281.132C328.668 281.132 321.788 279.189 316.375 276.89C304.759 271.965 297.471 264.629 297.164 264.322C297.003 264.161 296.928 263.929 296.96 263.703C296.992 263.477 297.121 263.278 297.32 263.16C300.583 261.26 303.706 258.315 306.598 254.418C306.727 254.241 306.931 254.133 307.146 254.122C343.584 251.996 351.405 236.231 351.254 222.812C338.23 231.941 326.985 235.59 317.815 233.658C311.419 232.312 306.081 228.205 301.959 221.455C294.192 208.747 295.079 191.404 304.598 169.906C312.29 152.537 323.9 136.303 332.291 125.748C332.457 125.543 332.715 125.436 332.979 125.479C337.246 126.119 341.772 125.958 346.427 124.983C346.648 124.935 346.873 124.994 347.051 125.139C347.223 125.285 347.319 125.5 347.319 125.721C347.131 136.981 362.069 144.081 374.631 148.053C374.846 148.123 375.018 148.285 375.098 148.495C378.522 157.397 382.236 171.736 380.522 189.477C378.517 210.163 369.675 230.487 354.232 249.902C355.635 250.354 358.462 251.216 362.343 252.147C362.703 252.233 362.945 252.577 362.907 252.949C361.59 265.113 361.902 273.16 361.908 273.241C361.918 273.51 361.779 273.769 361.547 273.909C352.679 279.237 344.127 281.137 336.446 281.137V281.132ZM298.895 263.935C300.964 265.851 307.613 271.578 316.993 275.55C332.027 281.907 346.631 281.003 360.408 272.859C360.365 271.04 360.279 263.762 361.359 253.439C356.006 252.131 352.867 251.022 352.732 250.973C352.506 250.893 352.334 250.71 352.27 250.478C352.205 250.247 352.254 249.999 352.404 249.811C368.073 230.374 377.033 210.034 379.038 189.343C380.704 172.108 377.162 158.145 373.835 149.366C351.539 142.24 346.18 133.235 345.847 126.614C341.482 127.432 337.225 127.567 333.178 127.007C318.159 145.975 285.866 192.303 303.217 220.686C307.119 227.069 312.134 230.95 318.116 232.21C327.125 234.104 338.365 230.272 351.517 220.809C351.738 220.653 352.028 220.626 352.27 220.745C352.512 220.863 352.673 221.105 352.689 221.375C353.13 230.008 350.518 237.221 344.933 242.808C337.515 250.225 324.948 254.526 307.581 255.581C304.872 259.176 301.959 261.981 298.9 263.929L298.895 263.935Z" fill="black"/>
<path d="M307.189 254.865C310.441 250.484 313.032 245.44 315.004 240.795C316.219 237.942 317.203 235.245 317.966 232.936C328.813 235.219 341.316 229.061 351.948 221.412C352.625 234.734 346.083 252.593 307.189 254.86V254.865Z" fill="black"/>
<path d="M332.866 126.953C332.828 126.953 332.791 126.953 332.758 126.943C331.027 126.684 329.334 126.302 327.722 125.802C327.335 125.678 327.114 125.263 327.233 124.876C327.356 124.483 327.765 124.267 328.157 124.391C329.694 124.87 331.312 125.236 332.968 125.484C333.371 125.543 333.651 125.92 333.591 126.324C333.538 126.69 333.221 126.953 332.86 126.953H332.866Z" fill="white"/>
<path d="M394.336 154.173C394.298 154.173 394.266 154.173 394.229 154.168C394.132 154.152 384.607 152.768 374.179 149.474C373.792 149.35 373.572 148.936 373.696 148.543C373.819 148.155 374.233 147.935 374.625 148.059C384.935 151.32 394.341 152.682 394.438 152.698C394.841 152.758 395.121 153.129 395.067 153.538C395.013 153.909 394.696 154.173 394.336 154.173Z" fill="white"/>
<path d="M336.645 161.789C336.435 161.789 336.22 161.698 336.075 161.52C327.561 151.277 319.503 154.728 319.165 154.884C318.794 155.05 318.353 154.884 318.186 154.512C318.02 154.141 318.186 153.705 318.552 153.533C318.643 153.49 327.942 149.42 337.209 160.573C337.472 160.885 337.429 161.353 337.112 161.617C336.972 161.73 336.806 161.789 336.639 161.789H336.645Z" fill="black"/>
<path d="M367.804 179.87C367.508 179.87 367.229 179.692 367.116 179.401C360.634 162.947 347.626 166.542 347.072 166.704C346.68 166.817 346.271 166.596 346.153 166.203C346.04 165.81 346.261 165.401 346.653 165.283C346.798 165.24 361.499 161.111 368.487 178.858C368.637 179.24 368.449 179.665 368.067 179.816C367.976 179.853 367.885 179.87 367.799 179.87H367.804Z" fill="black"/>
<path d="M324.47 194.332C324.443 194.332 324.416 194.332 324.39 194.332C319.229 193.762 316.295 192.179 315.666 189.623C314.972 186.791 317.208 182.991 322.309 178.325C325.991 174.955 329.91 172.312 329.947 172.285C330.286 172.059 330.743 172.151 330.974 172.49C331.2 172.829 331.108 173.292 330.77 173.518C326.583 176.333 315.967 184.649 317.101 189.273C317.563 191.162 320.068 192.368 324.551 192.863C324.954 192.906 325.25 193.272 325.207 193.681C325.164 194.058 324.846 194.338 324.47 194.338V194.332Z" fill="black"/>
<path d="M322.153 210.286C321.895 210.286 321.637 210.286 321.385 210.27C313.171 209.915 308.033 204.07 307.818 203.822C307.549 203.515 307.587 203.047 307.893 202.778C308.205 202.509 308.667 202.541 308.936 202.853C308.984 202.907 313.902 208.478 321.465 208.795C327.023 209.027 332.651 206.422 338.16 201.045C338.451 200.759 338.924 200.765 339.203 201.061C339.488 201.351 339.483 201.82 339.187 202.105C333.613 207.536 327.889 210.292 322.148 210.292L322.153 210.286Z" fill="black"/>
<path d="M354.501 110.999C354.318 110.999 354.135 110.935 353.99 110.795C353.694 110.515 353.684 110.047 353.963 109.751C355.447 108.184 356.936 106.758 358.387 105.515C358.699 105.251 359.166 105.289 359.43 105.595C359.693 105.908 359.655 106.376 359.349 106.64C357.935 107.845 356.484 109.234 355.038 110.768C354.893 110.919 354.7 110.999 354.501 110.999Z" fill="white"/>
</g>
<defs>
<clipPath id="clip0_121_178">
<rect width="739" height="506" fill="white"/>
</clipPath>
</defs>
</svg>
