<?xml version="1.0" encoding="utf-8"?>
<!-- Generator: Adobe Illustrator 26.0.3, SVG Export Plug-In . SVG Version: 6.00 Build 0)  -->
<svg version="1.1" id="Groupe_33" xmlns="http://www.w3.org/2000/svg" xmlns:xlink="http://www.w3.org/1999/xlink" x="0px" y="0px"
	 viewBox="0 0 270.8 78.1" style="enable-background:new 0 0 270.8 78.1;" xml:space="preserve">
<style type="text/css">
	.st0{fill:#FFFFFF;}
</style>
<path id="Tracé_875" class="st0" d="M60.6,0.7H18.6C9.1,0.6,1.3,8.3,1.2,17.8c0,0.1,0,0.2,0,0.3v41.7c-0.2,9.6,7.4,17.5,17,17.6
	c0.1,0,0.2,0,0.4,0h41.7c9.6,0,17.3-7.8,17.4-17.3V18.1C78,8.7,70,0.7,60.6,0.7 M16.9,56.8l-9-14l9-14.4h14l-9,14.4l9,14.4h-14
	L16.9,56.8z M39.3,62.1l-1,1.7H26.6l1-1.7H39.3z M33.6,71.1H21.9l1-1.7h11.7L33.6,71.1z M24.2,67.4l1-1.7h11.7l-1,1.7H24.2z
	 M50.2,71.1h-14l9-14.4l-9-14.3h14l9,14.3L50.2,71.1z"/>
<g>
	<path class="st0" d="M129.4,42.8v8.7h-4.3v7.3h-9.3v-7.3H98v-8.7l16.7-24.7h10.3v24.7H129.4z M107.7,42.8h8V31.1L107.7,42.8z"/>
	<path class="st0" d="M157.1,31.7v-15h9.3v42h-9.3v-2.7c-2,2.3-5,3.3-8.7,3.3c-8.5-0.2-15.2-7.2-15-15.7c-0.1-4.1,1.4-8.1,4.3-11
		c2.7-3,6.6-4.7,10.7-4.7C152.1,28.4,155.1,29.4,157.1,31.7z M149.8,51.1c3.8-0.1,6.8-3.2,6.7-7c-0.1-3.8-3.2-6.8-7-6.7
		c-3.8,0.1-6.8,3.2-6.7,7c0,1.8,0.8,3.4,2,4.7C146.1,50.4,147.9,51.2,149.8,51.1z"/>
	<path class="st0" d="M204.2,44.1v3.3h-20.7c1,2.3,3.7,3.3,6,3.3c2.3-0.1,4.6-0.8,6.7-2c2,2,4,4.3,6,6.3c-4.7,3.7-11.4,5.3-17,3.7
		c-10.7-2.7-15.7-15.7-8.7-24.7c2.7-3.4,6.7-5.5,11-6c5-0.3,10.7,1.7,13.7,6C203.2,37,204.3,40.5,204.2,44.1z M195.2,41.1
		c-1-3-2.7-4.3-6-4.3c-2.8-0.2-5.3,1.6-6,4.3H195.2z"/>
	<path class="st0" d="M208.2,52.4c0-0.3,0.7-0.3,1-0.7c2-1,3.7-2.3,5.7-3.3c1.3,2.7,5,4,8,3c0.3,0,0.7-0.3,1-0.7
		c0.3-0.6,0.1-1.2-0.3-1.7c-0.5-0.4-1.1-0.7-1.7-1c-2-0.7-4-1-6-1.7s-4-1.7-5-3.3c-1.6-2.1-2-4.9-1-7.3c0.9-2.5,2.7-4.5,5-5.7
		c2.2-1.2,4.8-1.7,7.3-1.3c3.1,0.2,6,1.4,8.3,3.3c1.1,1,2.1,2.2,3,3.3c-2.3,1.3-4.3,2.3-6.7,3.7c-1.2-1.7-3.3-2.6-5.3-2.3
		c-1-0.1-1.9,0.7-2,1.7c0,1,0.7,1.8,1.7,2c2.3,1.3,5.3,1.7,7.7,2.7c2.6,1.1,4.5,3.3,5.3,6c0.7,2.7-0.7,5.7-2.7,7.7
		c-2.1,2-4.8,3.1-7.7,3.3c-5,0.7-10.4-0.7-13.7-4.3c-0.6-0.6-1-1.3-1.3-2C208.2,53.1,208.2,52.8,208.2,52.4z"/>
	<path class="st0" d="M269.6,58.8h-11.4l-8.4-12v12h-9.3V16.7h9.3v24l7.4-11.6h11l-9,14.4L269.6,58.8z"/>
</g>
</svg>
