<?xml version="1.0" encoding="utf-8"?>
<!-- Generator: Adobe Illustrator 26.0.3, SVG Export Plug-In . SVG Version: 6.00 Build 0)  -->
<svg version="1.1" id="Groupe_33" xmlns="http://www.w3.org/2000/svg" xmlns:xlink="http://www.w3.org/1999/xlink" x="0px" y="0px"
	 viewBox="0 0 246.4 78.1" style="enable-background:new 0 0 246.4 78.1;" xml:space="preserve">
<style type="text/css">
	.st0{fill:#FFFFFF;}
</style>
<path id="Tracé_518" class="st0" d="M59.3,0H17.5C7.9,0,0,7.9,0,17.5v41.8c0,9.6,7.9,17.5,17.5,17.5h41.8c9.6,0,17.5-7.9,17.5-17.5
	V17.5C76.8,7.9,68.9,0,59.3,0 M15.8,56.2L6.9,41.8l8.9-14.4h14.1l-9.3,14.4l9.3,14.4H15.8z M38.4,61.4l-1,1.7h-12l1-1.7H38.4z
	 M32.6,70.3H20.9l1-1.7h11.7L32.6,70.3z M23.3,66.8l1-1.7H36l-1,1.7H23.3z M49,70.3H35l9.3-14.4L35,41.5H49l9.3,14.4L49,70.3z"/>
<path id="Tracé_520" class="st0" d="M129.2,43.5v8.9h-4.5V60h-9.6v-7.5H96.7v-8.9l17.5-25.4h10.6v25.4
	C124.8,43.5,129.2,43.5,129.2,43.5z M106.9,43.5h8.2v-12L106.9,43.5z M134.7,60V29.1h9.6V60H134.7z M135.7,25c-1-1-1.7-2.4-1.7-3.8
	s0.7-2.7,1.7-3.8s2.4-1.7,3.8-1.7c1.4,0,2.7,0.7,3.8,1.7c1,1,1.7,2.4,1.7,3.8s-0.7,2.7-1.7,3.8c-1,1-2.4,1.7-3.8,1.7
	C138.1,26.7,136.8,26,135.7,25z M160.4,17.8h8.9V60h-9.6V27.1l-9.9,2.4v-8.6L160.4,17.8z M182.7,20.9c3.1-2.4,6.9-3.8,10.6-3.4
	c3.8-0.3,7.5,1,10.6,3.4c2.4,2.1,3.8,5.1,3.8,8.6c0.3,3.8-1.7,7.2-5.1,8.6c4.1,1.4,6.9,5.1,6.9,9.6c0.3,3.8-1.4,7.5-4.5,9.9
	c-3.4,2.4-7.5,3.4-11.7,3.4c-4.1,0.3-8.2-1-11.7-3.4c-3.1-2.4-4.8-6.2-4.5-9.9c0-4.5,2.7-8.2,6.9-9.6c-3.4-1.4-5.8-4.8-5.1-8.6
	C178.6,26,179.9,23,182.7,20.9z M189.9,32.9c1,0.7,2.1,1.4,3.4,1.4c1.4,0,2.4-0.3,3.4-1.4c1-0.7,1.4-1.7,1.4-2.7s-0.7-2.1-1.4-2.7
	c-1-0.7-2.1-1.4-3.4-1c-1.4,0-2.4,0.3-3.4,1c-1,0.7-1.4,1.7-1.4,2.7S188.9,32.2,189.9,32.9L189.9,32.9z M188.5,50.7
	c1.4,1,3.1,1.4,4.5,1.4c1.7,0,3.1-0.3,4.5-1.4c1.4-1,2.1-2.4,1.7-3.8c0-1.4-0.7-2.7-1.7-3.8c-1.4-1-3.1-1.4-4.5-1.4
	c-1.7,0-3.1,0.3-4.5,1.4c-1.4,0.7-2.1,2.4-1.7,3.8C186.8,48.3,187.5,49.7,188.5,50.7z M237.2,60V42.8c0-3.8-1.7-5.5-4.8-5.5
	c-1.7,0-3.4,0.7-4.1,2.1c-0.7,1.4-1.4,2.7-1.4,4.1V60H217V29.1h9.9v2.7c2.1-2.4,5.1-3.8,8.2-3.4c2.1,0,3.8,0.3,5.5,1.4
	c1.4,0.7,2.4,1.7,3.4,2.7c0.7,1,1.4,2.4,1.7,3.4c0.3,1,0.7,2.1,0.7,3.1c0,0.7,0,1,0,1.4V60H237.2z"/>
</svg>
