<svg id="Calque_1" data-name="Calque 1" xmlns="http://www.w3.org/2000/svg" viewBox="0 0 147.71 65.26"><defs><style>.cls-1{fill:#fff;}</style></defs><g id="Groupe_850" data-name="Groupe 850"><g id="Groupe_847" data-name="Groupe 847"><g id="Groupe_846" data-name="Groupe 846"><g id="Groupe_845" data-name="Groupe 845"><g id="Groupe_843" data-name="Groupe 843"><path id="Tracé_764" data-name="Tracé 764" class="cls-1" d="M80.59,19.32H75.33a.91.91,0,0,0-.91.91h0v1.88c0,4.5,2.11,6.64,7.91,6.64H93.54c6.57,0,9.82-.7,9.82-7.84S103,11,93.11,11H84.5c-4,0-4-4.74-.25-4.74h8.16c2,0,2.73.5,2.9,2.12a.92.92,0,0,0,.91.83h5.27a.91.91,0,0,0,.91-.91h0v-2C102.4,0,96.62,0,94.46,0H83.39c-3.92,0-9-.55-9,8.66s3.6,8.84,11.13,8.84H92.1c6.09,0,4.72,5,1.4,5H84.07c-1.28,0-2.37-.16-2.58-2.29A.9.9,0,0,0,80.59,19.32Z"/></g><rect id="Rectangle_196" data-name="Rectangle 196" class="cls-1" x="114.5" y="10.82" width="8.71" height="8.71" rx="2.57" transform="translate(24.08 88.49) rotate(-45)"/><rect id="Rectangle_197" data-name="Rectangle 197" class="cls-1" x="105.26" y="-0.02" width="7.2" height="28.75" rx="1.77"/><rect id="Rectangle_198" data-name="Rectangle 198" class="cls-1" x="125.25" y="-0.02" width="7.2" height="28.75" rx="1.77"/><g id="Groupe_844" data-name="Groupe 844"><path id="Tracé_765" data-name="Tracé 765" class="cls-1" d="M69,16.53V.84A.86.86,0,0,0,68.19,0H61.7A3,3,0,0,0,60,.56L45.21,11.41A3,3,0,0,0,44,13.78V22a.85.85,0,0,0,.85.85H62.19v5a.86.86,0,0,0,.86.85h5.14a.85.85,0,0,0,.85-.85v-5h2.63a.85.85,0,0,0,.85-.85h0V17.38a.85.85,0,0,0-.85-.85H69Zm-7,0h-12a.16.16,0,0,1-.16-.16.16.16,0,0,1,.06-.13l12-9.17a.16.16,0,0,1,.23,0,.14.14,0,0,1,0,.09v9.18a.16.16,0,0,1-.16.16Z"/></g></g></g><path id="Tracé_766" data-name="Tracé 766" class="cls-1" d="M64.47,59.55a10.32,10.32,0,0,1-4.35,4.23,14.41,14.41,0,0,1-6.85,1.51H45.18V41.07h8.09a14.65,14.65,0,0,1,6.85,1.5,10.19,10.19,0,0,1,4.35,4.2,14.43,14.43,0,0,1,0,12.78Zm-4.82-.06a9.8,9.8,0,0,0,0-12.69Q57.33,44.54,53,44.54H49.09V61.76H53c2.91,0,5.14-.76,6.69-2.26Z"/><path id="Tracé_767" data-name="Tracé 767" class="cls-1" d="M89.5,60H79.27l-1.85,5.25H73.24l8.91-23.84h4.5l8.88,23.84H91.35Zm-1.1-3-4-11.31L80.37,57Z"/><path id="Tracé_768" data-name="Tracé 768" class="cls-1" d="M119.17,41.07v3.16h-6.76V65.29h-3.94V44.23h-6.73V41.07Z"/><path id="Tracé_769" data-name="Tracé 769" class="cls-1" d="M141.67,60H131.45l-1.85,5.25h-4.19l8.92-23.84h4.49l8.89,23.84h-4.18Zm-1.1-3-4-11.32-4,11.32Z"/></g><g id="Groupe_849" data-name="Groupe 849"><g id="Groupe_848" data-name="Groupe 848"><path id="Tracé_770" data-name="Tracé 770" class="cls-1" d="M40.54,55.3A23.44,23.44,0,0,1,7.68,50.92c-.1-.13-.2-.26-.29-.4a1.67,1.67,0,0,1,.37-2.33A2,2,0,0,1,8.22,48l19.67-6.42L32.73,40,31.15,35.1,24.73,15.43a1.66,1.66,0,0,1,1.06-2.1,1.53,1.53,0,0,1,.52-.08h0a23.34,23.34,0,0,1,13.07,4V13.78a7.62,7.62,0,0,1,.34-2.27A28.46,28.46,0,0,0,21.45,8.56a3.62,3.62,0,0,0-2.93,4.18,4.05,4.05,0,0,0,.12.5L26.3,36.68,2.86,44.34A3.62,3.62,0,0,0,.55,48.9a4.89,4.89,0,0,0,.2.48A28.56,28.56,0,0,0,39,62.22c.51-.26,1-.53,1.51-.81Z"/></g></g></g></svg>