<svg id="Calque_1" data-name="Calque 1" xmlns="http://www.w3.org/2000/svg" viewBox="0 0 218.19 65.26"><defs><style>.cls-1{fill:#fff;}</style></defs><g id="Groupe_833" data-name="Groupe 833"><g id="Groupe_830" data-name="Groupe 830"><g id="Groupe_829" data-name="Groupe 829"><g id="Groupe_828" data-name="Groupe 828"><g id="Groupe_826" data-name="Groupe 826"><path id="Tracé_741" data-name="Tracé 741" class="cls-1" d="M81.35,19.23H76.11a.91.91,0,0,0-.91.91V22c0,4.48,2.1,6.61,7.88,6.61H94.25c6.55,0,9.79-.7,9.79-7.81s-.41-9.87-10.22-9.87H85.24c-4,0-4-4.73-.25-4.73h8.13c2,0,2.73.49,2.9,2.12a.92.92,0,0,0,.91.82h5.25a.91.91,0,0,0,.91-.91v-2c0-6.27-5.77-6.27-7.91-6.27h-11c-3.91,0-8.94-.55-8.94,8.63s3.58,8.82,11.09,8.82h6.53c6.07,0,4.71,4.94,1.4,4.94h-9.4c-1.28,0-2.36-.15-2.57-2.28A.92.92,0,0,0,81.35,19.23Z"/></g><path id="Rectangle_190" data-name="Rectangle 190" class="cls-1" d="M117.72,10.76h3.53a2.57,2.57,0,0,1,2.57,2.57v3.53a2.57,2.57,0,0,1-2.57,2.57h-3.53a2.57,2.57,0,0,1-2.57-2.57V13.33a2.58,2.58,0,0,1,2.58-2.58Z" transform="translate(24.32 88.91) rotate(-45)"/><rect id="Rectangle_191" data-name="Rectangle 191" class="cls-1" x="105.94" y="-0.05" width="7.17" height="28.66" rx="1.77"/><rect id="Rectangle_192" data-name="Rectangle 192" class="cls-1" x="125.86" y="-0.05" width="7.17" height="28.66" rx="1.77"/><g id="Groupe_827" data-name="Groupe 827"><path id="Tracé_742" data-name="Tracé 742" class="cls-1" d="M69.84,16.44V.8A.85.85,0,0,0,69,0H62.52a2.92,2.92,0,0,0-1.74.57L46.09,11.34a2.91,2.91,0,0,0-1.2,2.36v8.2a.85.85,0,0,0,.85.85H63v5a.85.85,0,0,0,.85.85H69a.86.86,0,0,0,.85-.85v-5h2.61a.85.85,0,0,0,.85-.85V17.29a.85.85,0,0,0-.85-.84Zm-7,0H50.91a.16.16,0,0,1-.17-.15.17.17,0,0,1,.07-.13L62.75,7A.17.17,0,0,1,63,7a.17.17,0,0,1,0,.1v9.14a.16.16,0,0,1-.16.16Z"/></g></g><path id="Tracé_743" data-name="Tracé 743" class="cls-1" d="M60.31,41v3.14H50v7.49h8.54v3H50v10.5h-3.9V41Z"/><path id="Tracé_744" data-name="Tracé 744" class="cls-1" d="M83.32,59.88H73.13l-1.85,5.23H67.11L76,41.35h4.48l8.86,23.76H85.17Zm-1.1-3-4-11.28-4,11.28Z"/><path id="Tracé_745" data-name="Tracé 745" class="cls-1" d="M115.53,43a11.06,11.06,0,0,1,4,6.12h-4.14a7.41,7.41,0,0,0-2.71-3.47,8,8,0,0,0-4.57-1.28,7.11,7.11,0,0,0-3.84,1.06,7.24,7.24,0,0,0-2.67,3,11.24,11.24,0,0,0,0,9.16,7.24,7.24,0,0,0,2.67,3,7.11,7.11,0,0,0,3.84,1.06,7.89,7.89,0,0,0,4.57-1.29A7.32,7.32,0,0,0,115.35,57h4.14a11,11,0,0,1-4,6.1,11.87,11.87,0,0,1-7.39,2.24,11.68,11.68,0,0,1-6-1.56A10.45,10.45,0,0,1,98,59.42a14.83,14.83,0,0,1,0-12.75,10.56,10.56,0,0,1,4.07-4.36,11.58,11.58,0,0,1,6-1.58A11.87,11.87,0,0,1,115.53,43Z"/><path id="Tracé_746" data-name="Tracé 746" class="cls-1" d="M132.41,41V65.11h-3.9V41Z"/><path id="Tracé_747" data-name="Tracé 747" class="cls-1" d="M146.16,62.07h8.34v3H142.26V41h3.9Z"/><path id="Tracé_748" data-name="Tracé 748" class="cls-1" d="M166.57,41V65.11h-3.9V41Z"/><path id="Tracé_749" data-name="Tracé 749" class="cls-1" d="M191.94,41v3.14H185.2v21h-3.93v-21h-6.7V41Z"/><path id="Tracé_750" data-name="Tracé 750" class="cls-1" d="M218.19,41l-8,15.35v8.78h-3.93V56.33L198.16,41h4.52l5.54,11.18L213.76,41Z"/></g></g><g id="Groupe_832" data-name="Groupe 832"><g id="Groupe_831" data-name="Groupe 831"><path id="Tracé_751" data-name="Tracé 751" class="cls-1" d="M41.43,59.83H21.74a16.66,16.66,0,0,1-2.93-33l2.27-.4,1.2-2a23.18,23.18,0,0,1,18-11.16,7.63,7.63,0,0,1,2.49-5.16l-.52,0A28.44,28.44,0,0,0,17.93,21.78a21.73,21.73,0,0,0,3.81,43.13H41.43Z"/></g></g></g></svg>