<svg id="Calque_1" data-name="Calque 1" xmlns="http://www.w3.org/2000/svg" viewBox="0 0 406 64.44"><defs><style>.cls-1{fill:#fff;}</style></defs><g id="Groupe_806" data-name="Groupe 806"><g id="Groupe_811" data-name="Groupe 811"><g id="Groupe_807" data-name="Groupe 807"><path id="Tracé_722" data-name="Tracé 722" class="cls-1" d="M63.09,57.46a10,10,0,0,1-4.21,4.1A14,14,0,0,1,52.27,63H44.45V39.61h7.82a14.12,14.12,0,0,1,6.61,1.44,9.88,9.88,0,0,1,4.21,4.06,14,14,0,0,1,0,12.35Zm-4.66-.05a9.45,9.45,0,0,0,0-12.26A8.9,8.9,0,0,0,52,43H48.22V59.6H52a8.88,8.88,0,0,0,6.46-2.19Z"/><path id="Tracé_723" data-name="Tracé 723" class="cls-1" d="M77.09,39.61V63H73.31V39.61Z"/><path id="Tracé_724" data-name="Tracé 724" class="cls-1" d="M104.31,41.46a9.72,9.72,0,0,1,3.68,5.6h-4a6.36,6.36,0,0,0-2.51-3,7.49,7.49,0,0,0-4.12-1.13,7.62,7.62,0,0,0-3.93,1,7,7,0,0,0-2.72,2.92,9.48,9.48,0,0,0-1,4.44,10.08,10.08,0,0,0,1,4.61,6.91,6.91,0,0,0,2.81,2.93,8.38,8.38,0,0,0,4.19,1,7.39,7.39,0,0,0,5-1.81,7.63,7.63,0,0,0,2.52-4.95H96.68V50.31h11.77v3.62a11.28,11.28,0,0,1-1.84,4.69A10.56,10.56,0,0,1,102.79,62a11.3,11.3,0,0,1-5.41,1.26,11.7,11.7,0,0,1-6-1.52,10.35,10.35,0,0,1-4-4.23,14.11,14.11,0,0,1,0-12.36,10.34,10.34,0,0,1,4-4.21,11.81,11.81,0,0,1,6-1.51A11.46,11.46,0,0,1,104.31,41.46Z"/><path id="Tracé_725" data-name="Tracé 725" class="cls-1" d="M121,39.61V63h-3.78V39.61Z"/><path id="Tracé_726" data-name="Tracé 726" class="cls-1" d="M145.61,39.61v3h-6.53V63h-3.81V42.66h-6.5v-3Z"/><path id="Tracé_727" data-name="Tracé 727" class="cls-1" d="M167.36,57.94h-9.88L155.69,63h-4.05l8.62-23h4.34l8.59,23h-4ZM166.3,55l-3.88-10.94L158.54,55Z"/><path id="Tracé_728" data-name="Tracé 728" class="cls-1" d="M184.76,60.06h8.08V63H181V39.61h3.78Z"/><path id="Tracé_729" data-name="Tracé 729" class="cls-1" d="M228.05,60a6,6,0,0,1-2.52,2.37,8.71,8.71,0,0,1-4.14.89,10.32,10.32,0,0,1-4.28-.84,7.51,7.51,0,0,1-3-2.37,6.72,6.72,0,0,1-1.29-3.52h4a4.11,4.11,0,0,0,1.31,2.62,4.28,4.28,0,0,0,3.07,1.1,3.66,3.66,0,0,0,2.66-.93,3.2,3.2,0,0,0,1-2.39,3.06,3.06,0,0,0-.7-2.07,4.82,4.82,0,0,0-1.72-1.28c-.69-.31-1.63-.66-2.82-1.06A24.09,24.09,0,0,1,216,51.11a6.6,6.6,0,0,1-2.34-2,5.81,5.81,0,0,1-1-3.48,5.79,5.79,0,0,1,3.58-5.52,9.55,9.55,0,0,1,4-.78A8.7,8.7,0,0,1,226,41a6.49,6.49,0,0,1,2.41,4.51h-4.08a4,4,0,0,0-1.24-2.27,3.9,3.9,0,0,0-2.77-.94,3.79,3.79,0,0,0-2.55.81,2.88,2.88,0,0,0-1,2.33,2.93,2.93,0,0,0,.67,2,4.41,4.41,0,0,0,1.67,1.23c.67.3,1.6.65,2.77,1a23.91,23.91,0,0,1,3.63,1.41,6.42,6.42,0,0,1,2.38,2.07,6,6,0,0,1,1,3.58A6.42,6.42,0,0,1,228.05,60Z"/><path id="Tracé_730" data-name="Tracé 730" class="cls-1" d="M252.68,39.61v3h-6.53V63h-3.81V42.66h-6.5v-3Z"/><path id="Tracé_731" data-name="Tracé 731" class="cls-1" d="M272.77,63l-5.83-9.35h-2.69V63h-3.78V39.61h8.26q4,0,6.08,2a6.79,6.79,0,0,1,2.07,5.17,6.56,6.56,0,0,1-1.54,4.51,7.29,7.29,0,0,1-4.46,2.25L277,63Zm-8.52-12h4.18q4.57,0,4.58-4a4,4,0,0,0-1.12-3,4.82,4.82,0,0,0-3.46-1.07h-4.18Z"/><path id="Tracé_732" data-name="Tracé 732" class="cls-1" d="M299.23,57.94h-9.88L287.56,63h-4l8.62-23h4.34l8.58,23h-4ZM298.17,55l-3.88-10.94L290.41,55Z"/><path id="Tracé_733" data-name="Tracé 733" class="cls-1" d="M327.9,39.61v3h-6.53V63h-3.81V42.66h-6.5v-3Z"/><path id="Tracé_734" data-name="Tracé 734" class="cls-1" d="M339.47,42.66v7.09h8.62v2.92h-8.62v7.26h9.61V63H335.69V39.61h13.39v3Z"/><path id="Tracé_735" data-name="Tracé 735" class="cls-1" d="M375.4,41.46a9.67,9.67,0,0,1,3.68,5.6h-4a6.34,6.34,0,0,0-2.5-3,7.5,7.5,0,0,0-4.13-1.13,7.61,7.61,0,0,0-3.92,1,7.05,7.05,0,0,0-2.73,2.92,9.47,9.47,0,0,0-1,4.44,9.83,9.83,0,0,0,1,4.61,6.94,6.94,0,0,0,2.8,2.93,8.41,8.41,0,0,0,4.2,1,7.36,7.36,0,0,0,5-1.81,7.63,7.63,0,0,0,2.52-4.95h-8.59V50.31h11.78v3.62a11.28,11.28,0,0,1-1.84,4.69A10.56,10.56,0,0,1,373.89,62a11.31,11.31,0,0,1-5.42,1.26,11.69,11.69,0,0,1-6-1.52,10.35,10.35,0,0,1-4-4.23,14.11,14.11,0,0,1,0-12.36,10.38,10.38,0,0,1,4-4.21,11.87,11.87,0,0,1,6-1.51A11.43,11.43,0,0,1,375.4,41.46Z"/><path id="Tracé_736" data-name="Tracé 736" class="cls-1" d="M406,39.61l-7.79,14.88V63H394.4V54.49l-7.83-14.88H391l5.37,10.84,5.37-10.84Z"/></g><g id="Groupe_810" data-name="Groupe 810"><g id="Groupe_808" data-name="Groupe 808"><path id="Tracé_737" data-name="Tracé 737" class="cls-1" d="M78.66,18.54H73.58a.88.88,0,0,0-.88.88h0v1.81c0,4.35,2,6.42,7.64,6.42H91.17c6.35,0,9.49-.68,9.49-7.57s-.39-9.58-9.9-9.58H82.44c-3.87,0-3.9-4.58-.25-4.58h7.89c1.9,0,2.64.48,2.81,2.05a.89.89,0,0,0,.87.8h5.09a.89.89,0,0,0,.89-.89v-2c0-6.09-5.59-6.09-7.68-6.09H81.36c-3.79,0-8.66-.52-8.66,8.37s3.47,8.56,10.75,8.56h6.33c5.89,0,4.57,4.79,1.36,4.79H82c-1.25,0-2.29-.14-2.5-2.21A.88.88,0,0,0,78.66,18.54Z"/></g><rect id="Rectangle_181" data-name="Rectangle 181" class="cls-1" x="111.43" y="10.32" width="8.42" height="8.42" rx="2.5" transform="translate(23.59 86.02) rotate(-45)"/><rect id="Rectangle_182" data-name="Rectangle 182" class="cls-1" x="102.5" y="-0.15" width="6.95" height="27.78" rx="1.72"/><rect id="Rectangle_183" data-name="Rectangle 183" class="cls-1" x="121.82" y="-0.15" width="6.95" height="27.78" rx="1.72"/><g id="Groupe_809" data-name="Groupe 809"><path id="Tracé_738" data-name="Tracé 738" class="cls-1" d="M67.5,15.84V.67a.82.82,0,0,0-.82-.82H60.41a2.86,2.86,0,0,0-1.69.56L44.47,10.89a2.86,2.86,0,0,0-1.16,2.3v8a.82.82,0,0,0,.82.82H60.88v4.85a.83.83,0,0,0,.82.83h5a.83.83,0,0,0,.83-.83h0V22H70a.83.83,0,0,0,.83-.82V16.66a.83.83,0,0,0-.83-.82Zm-6.77,0H49.15a.16.16,0,0,1-.16-.16.14.14,0,0,1,.06-.12L60.63,6.69a.16.16,0,0,1,.22,0,.17.17,0,0,1,0,.1v8.86A.16.16,0,0,1,60.73,15.84Z"/></g></g></g><g id="Groupe_812" data-name="Groupe 812"><path id="Tracé_739" data-name="Tracé 739" class="cls-1" d="M40,58.74H22.33c-1,0-1.44-.31-2.16-2.65a27.26,27.26,0,0,0-7.43-12.33C5,36.23,2.7,25.64,7,17.41c4-7.62,12.84-12,24.4-12A37.29,37.29,0,0,1,42.28,6.94L47,3.48A39.92,39.92,0,0,0,31.37.58C17.94.58,7.47,5.9,2.66,15.17-2.6,25.32.09,38.2,9.36,47.23a22.62,22.62,0,0,1,6.19,10.34c.58,1.9,1.81,5.85,6.69,6H40Z"/></g></g></svg>