<svg id="Calque_1" data-name="Calque 1" xmlns="http://www.w3.org/2000/svg" viewBox="0 0 132.7 65.26"><defs><style>.cls-1{fill:#fff;}</style></defs><g id="Groupe_797" data-name="Groupe 797"><g id="Groupe_793" data-name="Groupe 793"><g id="Groupe_792" data-name="Groupe 792"><g id="Groupe_790" data-name="Groupe 790"><path id="Tracé_715" data-name="Tracé 715" class="cls-1" d="M81.14,19.25H75.92a.91.91,0,0,0-.91.91V22c0,4.47,2.09,6.6,7.86,6.6H94c6.53,0,9.76-.7,9.76-7.8S103.37,11,93.59,11H85c-4,0-4-4.71-.25-4.71h8.11c2,0,2.72.49,2.89,2.11a.93.93,0,0,0,.9.82h5.24a.91.91,0,0,0,.91-.91v-2C102.83,0,97.08,0,94.93,0h-11C80,0,75-.54,75,8.62s3.57,8.8,11.06,8.8h6.52c6,0,4.7,4.93,1.4,4.93H84.61c-1.28,0-2.35-.15-2.56-2.27A.92.92,0,0,0,81.14,19.25Z"/></g><path id="Rectangle_176" data-name="Rectangle 176" class="cls-1" d="M117.43,10.8h3.51a2.57,2.57,0,0,1,2.57,2.57v3.51a2.57,2.57,0,0,1-2.57,2.57h-3.51a2.57,2.57,0,0,1-2.57-2.57V13.37a2.58,2.58,0,0,1,2.58-2.58Z" transform="translate(24.21 88.71) rotate(-45)"/><rect id="Rectangle_177" data-name="Rectangle 177" class="cls-1" x="105.67" y="0.02" width="7.16" height="28.59" rx="1.77"/><rect id="Rectangle_178" data-name="Rectangle 178" class="cls-1" x="125.54" y="0.02" width="7.16" height="28.59" rx="1.77"/><g id="Groupe_791" data-name="Groupe 791"><path id="Tracé_716" data-name="Tracé 716" class="cls-1" d="M69.66,16.47V.87A.85.85,0,0,0,68.81,0H62.36a3,3,0,0,0-1.74.57L46,11.38a2.94,2.94,0,0,0-1.2,2.36v8.18a.85.85,0,0,0,.85.85H62.85v5a.85.85,0,0,0,.84.84h5.12a.85.85,0,0,0,.85-.84v-5h2.61a.85.85,0,0,0,.84-.85h0v-4.6a.85.85,0,0,0-.84-.85H69.66Zm-7,0H50.78a.16.16,0,0,1-.17-.15.16.16,0,0,1,.07-.13L62.59,7.06a.17.17,0,0,1,.23,0,.19.19,0,0,1,0,.1v9.12a.16.16,0,0,1-.16.16Z"/></g></g><path id="Tracé_717" data-name="Tracé 717" class="cls-1" d="M49.82,40.93V55.22A6.94,6.94,0,0,0,51.24,60a5.75,5.75,0,0,0,7.91,0,6.93,6.93,0,0,0,1.41-4.77V40.93h3.89V55.22c0,3.3-.85,5.79-2.56,7.49a9.19,9.19,0,0,1-6.75,2.54,9,9,0,0,1-6.68-2.54c-1.69-1.7-2.53-4.19-2.53-7.49V40.93Z"/><path id="Tracé_718" data-name="Tracé 718" class="cls-1" d="M87.85,65l-5.77-8.9L76.93,65H72.47l7.47-12.28L72.3,40.93h4.63l5.67,8.73,5.11-8.73h4.47L84.75,53l7.73,12Z"/></g><g id="Groupe_794" data-name="Groupe 794"><path id="Tracé_719" data-name="Tracé 719" class="cls-1" d="M54.43,49v.46l.42-.42Z"/></g><g id="Groupe_796" data-name="Groupe 796"><g id="Groupe_795" data-name="Groupe 795"><path id="Tracé_720" data-name="Tracé 720" class="cls-1" d="M44.23,64.86a13.16,13.16,0,0,1-2.39-5.07h-29V42.05a5.69,5.69,0,0,1-1.91.33,5.89,5.89,0,0,1,0-11.77,5.69,5.69,0,0,1,1.91.33V13.2H25.62A10.94,10.94,0,0,0,39.1,20.77a10.34,10.34,0,0,0,1.07-.36v-5.9a5.85,5.85,0,0,1-8.28-.26,5.66,5.66,0,0,1-.79-1.05,5.75,5.75,0,0,1-.82-3,5.33,5.33,0,0,1,.4-2.09H7.79V26a11,11,0,0,0,0,21V64.86Z"/></g></g></g></svg>