<?xml version="1.0" encoding="utf-8"?>
<!-- Generator: Adobe Illustrator 26.0.3, SVG Export Plug-In . SVG Version: 6.00 Build 0)  -->
<svg version="1.1" id="Groupe_33" xmlns="http://www.w3.org/2000/svg" xmlns:xlink="http://www.w3.org/1999/xlink" x="0px" y="0px"
	 viewBox="0 0 246.4 78.1" style="enable-background:new 0 0 246.4 78.1;" xml:space="preserve">
<style type="text/css">
	.st0{fill:#FFFFFF;}
</style>
<g id="Groupe_65-2">
	<path id="Tracé_518" class="st0" d="M59.6,0h-42C7.9,0,0,7.9,0,17.6v42c0,9.7,7.9,17.5,17.6,17.6h42c9.7,0,17.6-7.9,17.6-17.6v-42
		C77.1,7.9,69.3,0,59.6,0 M15.9,56.4L6.7,42.1l9.2-14.3H30l-9.2,14.3L30,56.4H15.9z M38.4,61.8l-1,1.6H25.6l1-1.6H38.4z M32.7,70.8
		H20.9l1-1.6h11.8L32.7,70.8z M23.3,67.1l1-1.6H36l-1,1.6H23.3z M49.3,70.8H35.1l9.2-14.3l-9.2-14.3h14.1l9.2,14.3L49.3,70.8z"/>
	<path id="Tracé_519" class="st0" d="M119,58.2V42c0-3.5-1.5-5.3-4.5-5.3c-1.6-0.1-3.1,0.7-3.9,2c-0.7,1.1-1.2,2.5-1.2,3.8v15.7
		h-9.3V17h9.3v14.6c2-2.3,4.9-3.5,7.9-3.3c1.8,0,3.6,0.4,5.2,1.2c1.3,0.6,2.4,1.5,3.3,2.7c0.7,1,1.3,2.1,1.7,3.3
		c0.3,0.9,0.6,1.8,0.8,2.8c0.1,0.6,0.1,1.1,0.1,1.4v18.6H119z M149.3,59c-2.2,0-4.4-0.3-6.4-1.1c-1.6-0.6-3-1.5-4.2-2.7
		c-1-1.1-1.7-2.3-2.3-3.7c-0.5-1.1-0.9-2.3-1.1-3.6c-0.1-1-0.2-1.9-0.2-2.9V29h9.2v16.2c0,3.5,1.6,5.3,4.9,5.3
		c3.3,0,4.9-1.8,4.9-5.3V29h9.2v16c0,1-0.1,2-0.2,2.9c-0.2,1.2-0.6,2.4-1.1,3.6c-0.5,1.4-1.3,2.6-2.3,3.7c-1.2,1.2-2.6,2.1-4.2,2.7
		C153.6,58.7,151.5,59.1,149.3,59L149.3,59z M180.3,17v14.6c2.2-2.3,5.4-3.5,8.6-3.3c4-0.1,7.8,1.6,10.4,4.5
		c2.8,2.9,4.4,6.8,4.3,10.8c0.1,4-1.5,8-4.3,10.9c-2.7,2.9-6.5,4.6-10.5,4.5c-3.2,0.2-6.4-1-8.6-3.3v2.6H171V17H180.3z M187.4,50.5
		c1.8,0,3.6-0.7,4.9-2c2.7-2.7,2.7-7.1,0-9.8c-1.3-1.3-3.1-2-4.9-2c-1.9,0-3.7,0.7-5.1,2c-2.7,2.7-2.7,7.1,0,9.8
		C183.7,49.9,185.5,50.6,187.4,50.5z M210.2,58.2V29h9.2v29.2L210.2,58.2z M211.2,25.1c-1-1-1.6-2.3-1.5-3.7c0-1.4,0.6-2.7,1.6-3.7
		c2.1-2,5.4-2,7.4,0c1,1,1.5,2.3,1.5,3.6c0,1.4-0.6,2.7-1.6,3.7C216.5,27.1,213.2,27.2,211.2,25.1C211.2,25.1,211.2,25.1,211.2,25.1
		z M225,37.5V29h5.3V19l9.2-2v12h6.9v8.5h-7v9.1c0,0.1,0,0.3,0,0.4c0.1,0.3,0.1,0.6,0.2,0.9c0.1,0.4,0.3,0.8,0.6,1.2
		c0.3,0.4,0.7,0.7,1.2,0.9c0.6,0.3,1.3,0.4,2,0.4c1-0.1,1.9-0.2,2.9-0.4v7.7c-1.9,0.2-3.8,0.3-5.7,0.3c-0.6,0-1.2,0-1.7-0.1
		c-0.9-0.1-1.7-0.4-2.5-0.7c-1.1-0.4-2.1-1-2.9-1.7c-1-1-1.7-2.2-2.2-3.4c-0.7-1.8-1-3.7-1-5.6v-9.2H225z"/>
</g>
</svg>
