<svg id="Calque_1" data-name="Calque 1" xmlns="http://www.w3.org/2000/svg" viewBox="0 0 238.07 65.26">
    <defs>
        <style>.cls-1{fill:#fff;}</style>
    </defs>
    <g id="Groupe_834" data-name="Groupe 834">
        <g id="Groupe_840" data-name="Groupe 840">
            <g id="Groupe_838" data-name="Groupe 838">
                <g id="Groupe_837" data-name="Groupe 837">
                    <g id="Groupe_835" data-name="Groupe 835">
                        <path id="Tracé_753" data-name="Tracé 753" class="cls-1"
                              d="M81.3,19.42H76.06a.91.91,0,0,0-.91.91h0V22.2c0,4.48,2.1,6.61,7.88,6.61H94.2c6.54,0,9.78-.69,9.78-7.8s-.41-9.88-10.21-9.88H85.19c-4,0-4-4.72-.25-4.72h8.13c2,0,2.73.49,2.9,2.11a.91.91,0,0,0,.9.83h5.25a.91.91,0,0,0,.91-.91h0v-2C103,.14,97.27.14,95.12.14h-11c-3.91,0-8.94-.55-8.94,8.63s3.58,8.81,11.08,8.81h6.53c6.07,0,4.71,4.94,1.4,4.94H84.77c-1.29,0-2.36-.15-2.57-2.28A.92.92,0,0,0,81.3,19.42Z"/>
                    </g>
                    <rect id="Rectangle_193" data-name="Rectangle 193" class="cls-1" x="115.08" y="10.95" width="8.68"
                          height="8.68" rx="2.56" transform="translate(24.16 88.92) rotate(-45)"/>
                    <rect id="Rectangle_194" data-name="Rectangle 194" class="cls-1" x="105.88" y="0.15" width="7.17"
                          height="28.64" rx="1.76"/>
                    <rect id="Rectangle_195" data-name="Rectangle 195" class="cls-1" x="125.79" y="0.15" width="7.17"
                          height="28.64" rx="1.76"/>
                    <g id="Groupe_836" data-name="Groupe 836">
                        <path id="Tracé_754" data-name="Tracé 754" class="cls-1"
                              d="M69.79,16.64V1A.85.85,0,0,0,69,.15H62.48a2.87,2.87,0,0,0-1.74.58L46.06,11.53a2.94,2.94,0,0,0-1.2,2.37v8.19a.85.85,0,0,0,.85.85H63v5a.84.84,0,0,0,.85.84h5.12a.84.84,0,0,0,.85-.84v-5h2.62a.85.85,0,0,0,.85-.85h0v-4.6a.85.85,0,0,0-.85-.85H69.79Zm-7,0H50.88a.17.17,0,0,1-.17-.16.17.17,0,0,1,.07-.13L62.71,7.21a.17.17,0,0,1,.23,0,.17.17,0,0,1,0,.1v9.14a.16.16,0,0,1-.16.16Z"/>
                    </g>
                </g>
            </g>
            <g id="Groupe_839" data-name="Groupe 839">
                <path id="Tracé_755" data-name="Tracé 755" class="cls-1" d="M49.92,41.12H46V65.25H58.25v-3H49.92Z"/>
                <path id="Tracé_756" data-name="Tracé 756" class="cls-1"
                      d="M70.32,44.27v7.31H79.2v3H70.32v7.48h9.91v3.18H66.42V41.13H80.23v3.14Z"/>
                <path id="Tracé_757" data-name="Tracé 757" class="cls-1"
                      d="M103.53,60H93.35L91.5,65.25H87.33L96.22,41.5h4.47l8.86,23.75h-4.17Zm-1.09-3-4-11.27L94.44,57Z"/>
                <path id="Tracé_758" data-name="Tracé 758" class="cls-1"
                      d="M130.26,65.25l-6-9.64h-2.77v9.64h-3.89V41.12h8.51q4.13,0,6.27,2a7,7,0,0,1,2.13,5.33,6.81,6.81,0,0,1-1.59,4.65,7.53,7.53,0,0,1-4.59,2.32l6.32,9.81Zm-8.79-12.41h4.31q4.71,0,4.71-4.16a4.1,4.1,0,0,0-1.14-3.1,5,5,0,0,0-3.57-1.11h-4.31Z"/>
                <path id="Tracé_759" data-name="Tracé 759" class="cls-1"
                      d="M162.65,65.25h-3.9L147,47.45v17.8h-3.89V41.16H147L158.75,59V41.16h3.9Z"/>
                <path id="Tracé_760" data-name="Tracé 760" class="cls-1" d="M176.39,41.12V65.25h-3.9V41.12Z"/>
                <path id="Tracé_761" data-name="Tracé 761" class="cls-1"
                      d="M205.74,65.25h-3.89l-11.73-17.8v17.8h-3.89V41.16h3.89L201.85,59V41.16h3.89Z"/>
                <path id="Tracé_762" data-name="Tracé 762" class="cls-1"
                      d="M233.8,43a10,10,0,0,1,3.79,5.77h-4.1a6.54,6.54,0,0,0-2.58-3.11,7.59,7.59,0,0,0-4.25-1.16,7.74,7.74,0,0,0-4,1.06,7.28,7.28,0,0,0-2.81,3,9.91,9.91,0,0,0-1,4.57,10.28,10.28,0,0,0,1,4.75,7.11,7.11,0,0,0,2.88,3A8.72,8.72,0,0,0,227,62a7.64,7.64,0,0,0,5.16-1.87,7.87,7.87,0,0,0,2.59-5.1h-8.85V52.16h12.14v3.72a11.62,11.62,0,0,1-1.9,4.84,10.81,10.81,0,0,1-3.93,3.46,11.67,11.67,0,0,1-5.59,1.3,12.12,12.12,0,0,1-6.22-1.57,10.72,10.72,0,0,1-4.16-4.36,14.54,14.54,0,0,1,0-12.74,10.64,10.64,0,0,1,4.15-4.34,12.12,12.12,0,0,1,6.2-1.56A11.8,11.8,0,0,1,233.8,43Z"/>
            </g>
        </g>
        <g id="Groupe_842" data-name="Groupe 842">
            <g id="Groupe_841" data-name="Groupe 841">
                <path id="Tracé_763" data-name="Tracé 763" class="cls-1"
                      d="M41.4,59.18a31.68,31.68,0,0,1-20.9-4.83,1.37,1.37,0,0,1-.61-1.15V39.88L37.72,49.5l3.68-2V41.36l-3.68,2L11.05,28.83,37.72,14.3l2.52,1.38V13.9a7.54,7.54,0,0,1,1-3.71L37.71,8.27,0,28.83l14.6,8V53.21a6.63,6.63,0,0,0,3,5.56,37.09,37.09,0,0,0,20.11,5.92,36.42,36.42,0,0,0,3.69-.19Z"/>
            </g>
        </g>
    </g>
</svg>
