<svg id="Groupe_33" data-name="Groupe 33" xmlns="http://www.w3.org/2000/svg" viewBox="0 0 601.97 78.14">
  <path id="Tracé_323" data-name="Tracé 323" d="M59.82,0H17.65A17.69,17.69,0,0,0,0,17.65V59.81A17.69,17.69,0,0,0,17.65,77.46H59.82A17.69,17.69,0,0,0,77.47,59.81V17.65A17.7,17.7,0,0,0,59.82,0M16,56.66,6.78,42.3,16,28H30.14L21,42.3l9.19,14.36Zm22.57,5.4-1,1.59H25.72l1-1.59ZM32.8,71H21l1-1.59h11.8Zm-9.44-3.69,1-1.59h11.8l-1,1.59Zm26,3.69H35.22l9.19-14.36L35.22,42.3H49.39l9.19,14.36Z" style="fill: #fff"/>
  <path id="Tracé_330" data-name="Tracé 330" d="M129.71,43.49V52.4h-4.38v7.54h-9.61V52.4H97.55V43.49L114.7,18.34h10.63V43.49Zm-22.2,0h8.21V31.58Zm37.35,13.79V72.5h-9.67v-43h9.67v2.63a11.45,11.45,0,0,1,9-3.44,14.58,14.58,0,0,1,10.9,4.7,15.75,15.75,0,0,1,4.5,11.31A15.82,15.82,0,0,1,164.75,56a14.49,14.49,0,0,1-10.89,4.72,11.54,11.54,0,0,1-9-3.48Zm7.4-19.74a7.24,7.24,0,0,0-5.27,2,7.27,7.27,0,0,0,0,10.28,7.28,7.28,0,0,0,5.27,2,7.12,7.12,0,0,0,5.14-2,7.29,7.29,0,0,0,0-10.29,7.1,7.1,0,0,0-5.15-2Zm51.42,6.1-.07-.28V60H194V42.34c0-3.2-1.29-4.8-3.89-4.8q-4.32,0-4.32,6.1V60h-9.67V29.5h9.68v2.63a9.31,9.31,0,0,1,7.61-3.43,8.81,8.81,0,0,1,8.06,4.59A8.7,8.7,0,0,1,205,30.1a12.36,12.36,0,0,1,3.3-1.26,13.78,13.78,0,0,1,1.92-.14A11.73,11.73,0,0,1,216,30a8.7,8.7,0,0,1,3.53,3.38,15.94,15.94,0,0,1,1.54,3.81,14.4,14.4,0,0,1,.42,3.33V60h-9.63V42.34q0-4.8-3.89-4.8c-2.88,0-4.31,2-4.31,6.08Z" style="fill: #fff"/>
  <path id="Tracé_319" data-name="Tracé 319" d="M368.08,0H326.37A17.51,17.51,0,0,0,308.9,17.47V59.19a17.51,17.51,0,0,0,17.47,17.47h41.71a17.51,17.51,0,0,0,17.47-17.47V17.47A17.52,17.52,0,0,0,368.08,0M324.7,56.07l-9.1-14.2,9.1-14.21h14l-9.09,14.21,9.09,14.2ZM347,61.42,346,63H334.34l1-1.57Zm-5.68,8.86H329.67l1-1.57h11.67ZM332,66.63l1-1.57h11.67l-1,1.57Zm25.76,3.65h-14l9.09-14.21-9.09-14.2h14l9.1,14.2Z" style="fill: #fff"/>
  <path id="Tracé_325" data-name="Tracé 325" d="M437.25,43v8.82h-4.33v7.46h-9.51V51.85h-18V43l17-24.88h10.52V43Zm-22,0h8.13V31.25Zm24.82-5.1V29.17h5.48V18.8l9.52-2.08V29.18h7.18v8.76H455.1v9.43a2.83,2.83,0,0,0,0,.41,6.17,6.17,0,0,0,.26,1A5.57,5.57,0,0,0,456,50a3,3,0,0,0,1.2,1,4.58,4.58,0,0,0,2.07.43,30,30,0,0,0,3-.38v8a55.42,55.42,0,0,1-5.9.34c-.63,0-1.22,0-1.79-.07a11.29,11.29,0,0,1-2.62-.71,9.05,9.05,0,0,1-3-1.77,10.15,10.15,0,0,1-2.28-3.56,14.93,14.93,0,0,1-1-5.76V37.91Zm29,21.38V29.18h9.51V34a7.05,7.05,0,0,1,1.68-2.85,6.41,6.41,0,0,1,2.47-1.59,16.12,16.12,0,0,1,2.13-.61,8.6,8.6,0,0,1,1.51-.16l3.44.25v8.81l-2.92-.31a7.18,7.18,0,0,0-6.16,3,9.82,9.82,0,0,0-2.17,5.79v13Zm48-27.52V29.18h9.63V59.31h-9.61V56.68a11.46,11.46,0,0,1-8.89,3.43,14.34,14.34,0,0,1-10.76-4.67A15.7,15.7,0,0,1,493,44.23,15.67,15.67,0,0,1,497.46,33a14.3,14.3,0,0,1,10.76-4.65,11.29,11.29,0,0,1,8.89,3.4Zm-7.32,19.57a7.18,7.18,0,0,0,5.22-2,7.21,7.21,0,0,0,0-10.17,7.18,7.18,0,0,0-5.22-2,7.06,7.06,0,0,0-5.09,2,7.23,7.23,0,0,0,0,10.17,7,7,0,0,0,5.1,2Zm46.14-4.06H566a15.52,15.52,0,0,1-5.66,9.18,16.8,16.8,0,0,1-22-1,15.5,15.5,0,0,1,0-22.41,16.81,16.81,0,0,1,22-1A15.52,15.52,0,0,1,566,41.19H555.84a5.71,5.71,0,0,0-6-4.06,6.37,6.37,0,0,0-4.8,2,7.58,7.58,0,0,0,0,10.17,6.41,6.41,0,0,0,4.8,2,5.9,5.9,0,0,0,6.11-4Zm46.06,12H590.24L581.62,47V59.31h-9.5V16.73h9.5V41l7.32-11.79h11.31l-9,14.71Z" style="fill: #fff"/>
</svg>
