<svg id="Calque_1" data-name="Calque 1" xmlns="http://www.w3.org/2000/svg" viewBox="0 0 187.42 65.26">
    <defs>
        <style>.cls-1{fill:#fff;}</style>
    </defs>
    <g id="Groupe_787" data-name="Groupe 787">
        <g id="Groupe_786" data-name="Groupe 786">
            <g id="Groupe_785" data-name="Groupe 785">
                <g id="Groupe_784" data-name="Groupe 784">
                    <g id="Groupe_782" data-name="Groupe 782">
                        <g id="Groupe_780" data-name="Groupe 780">
                            <path id="Tracé_705" data-name="Tracé 705" class="cls-1"
                                  d="M80.11,19.36H74.94a.9.9,0,0,0-.9.9h0V22.1c0,4.43,2.08,6.54,7.79,6.54h11c6.47,0,9.66-.69,9.66-7.72s-.4-9.75-10.08-9.75H84c-3.94,0-4-4.67-.25-4.67h8c1.93,0,2.69.49,2.85,2.09a.91.91,0,0,0,.9.81h5.18a.89.89,0,0,0,.9-.89h0v-2c0-6.2-5.69-6.2-7.82-6.2H82.87C79,.31,74-.23,74,8.83S77.58,17.54,85,17.54h6.45c6,0,4.65,4.88,1.38,4.88H83.54c-1.26,0-2.33-.15-2.54-2.25A.89.89,0,0,0,80.11,19.36Z"/>
                        </g>
                        <rect id="Rectangle_172" data-name="Rectangle 172" class="cls-1" x="113.48" y="10.99"
                              width="8.57" height="8.57" rx="2.56" transform="translate(23.69 87.75) rotate(-45)"/>
                        <rect id="Rectangle_173" data-name="Rectangle 173" class="cls-1" x="104.39" y="0.33"
                              width="7.08" height="28.3" rx="1.76"/>
                        <rect id="Rectangle_174" data-name="Rectangle 174" class="cls-1" x="124.06" y="0.33"
                              width="7.08" height="28.3" rx="1.76"/>
                        <g id="Groupe_781" data-name="Groupe 781">
                            <path id="Tracé_706" data-name="Tracé 706" class="cls-1"
                                  d="M68.74,16.61V1.16A.83.83,0,0,0,67.9.33H61.52A2.88,2.88,0,0,0,59.8.89L45.29,11.57a2.89,2.89,0,0,0-1.18,2.34V22a.84.84,0,0,0,.83.84H62v4.94a.84.84,0,0,0,.84.84H67.9a.83.83,0,0,0,.84-.84V22.84h2.59a.85.85,0,0,0,.84-.84h0V17.45a.84.84,0,0,0-.84-.84H68.74Zm-6.9,0H50.05a.16.16,0,0,1-.16-.16.14.14,0,0,1,.06-.12l11.79-9a.16.16,0,0,1,.23,0,.19.19,0,0,1,0,.1v9A.16.16,0,0,1,61.84,16.61Z"/>
                        </g>
                    </g>
                    <g id="Groupe_783" data-name="Groupe 783">
                        <path id="Tracé_707" data-name="Tracé 707" class="cls-1"
                              d="M60.81,61.74a6.2,6.2,0,0,1-2.56,2.41,8.88,8.88,0,0,1-4.21.9,10.44,10.44,0,0,1-4.34-.85,7.46,7.46,0,0,1-3.06-2.41,6.8,6.8,0,0,1-1.32-3.57h4.11a4.23,4.23,0,0,0,1.33,2.66A4.3,4.3,0,0,0,53.87,62a3.68,3.68,0,0,0,2.71-.94,3.24,3.24,0,0,0,1-2.42,3.15,3.15,0,0,0-.7-2.11,5.17,5.17,0,0,0-1.75-1.29c-.7-.31-1.65-.67-2.87-1.08a24.33,24.33,0,0,1-3.61-1.41,6.56,6.56,0,0,1-2.38-2.06,5.88,5.88,0,0,1-1-3.53,6,6,0,0,1,.94-3.37,6.09,6.09,0,0,1,2.69-2.23,9.68,9.68,0,0,1,4-.79,8.74,8.74,0,0,1,5.77,1.75,6.54,6.54,0,0,1,2.44,4.57H57a4,4,0,0,0-1.26-2.3,4.55,4.55,0,0,0-5.4-.14,2.94,2.94,0,0,0-1,2.38A3,3,0,0,0,50,49a4.64,4.64,0,0,0,1.7,1.24c.68.31,1.62.66,2.81,1.07a23.16,23.16,0,0,1,3.68,1.43,6.65,6.65,0,0,1,2.43,2.1,6.13,6.13,0,0,1,1,3.63A6.48,6.48,0,0,1,60.81,61.74Z"/>
                        <path id="Tracé_708" data-name="Tracé 708" class="cls-1"
                              d="M85.81,41.06v3.09H79.18V64.82H75.31V44.15h-6.6V41.06Z"/>
                        <path id="Tracé_709" data-name="Tracé 709" class="cls-1"
                              d="M97.39,41.06v14.1a6.81,6.81,0,0,0,1.39,4.71,5.71,5.71,0,0,0,7.81,0A6.81,6.81,0,0,0,108,55.16V41.06h3.84v14.1q0,4.88-2.52,7.39a9.07,9.07,0,0,1-6.67,2.5A8.87,8.87,0,0,1,96,62.55c-1.66-1.67-2.49-4.14-2.49-7.39V41.06Z"/>
                        <path id="Tracé_710" data-name="Tracé 710" class="cls-1"
                              d="M140.29,59.18A10.22,10.22,0,0,1,136,63.34a14.31,14.31,0,0,1-6.71,1.48h-8V41.06h8A14.32,14.32,0,0,1,136,42.52a10.07,10.07,0,0,1,4.28,4.12,14.17,14.17,0,0,1,0,12.54Zm-4.73,0a9.61,9.61,0,0,0,0-12.45A9.07,9.07,0,0,0,129,44.46h-3.8V61.35H129A9.07,9.07,0,0,0,135.56,59.13Z"/>
                        <path id="Tracé_711" data-name="Tracé 711" class="cls-1" d="M154.5,41.06V64.82h-3.83V41.06Z"/>
                        <path id="Tracé_712" data-name="Tracé 712" class="cls-1"
                              d="M181.18,42.3a11.07,11.07,0,0,1,4.2,4.33,13.57,13.57,0,0,1,0,12.55,11.09,11.09,0,0,1-4.2,4.34,12.25,12.25,0,0,1-12,0A11.28,11.28,0,0,1,165,59.18a13.52,13.52,0,0,1,0-12.55,11.25,11.25,0,0,1,4.22-4.33A12.4,12.4,0,0,1,181.18,42.3Zm-10.05,3.06a7.19,7.19,0,0,0-2.78,3,10.93,10.93,0,0,0,0,9.09,7.1,7.1,0,0,0,2.78,3,8,8,0,0,0,4.07,1.05,7.77,7.77,0,0,0,4-1.05,7.11,7.11,0,0,0,2.76-3,10.85,10.85,0,0,0,0-9.09,7.08,7.08,0,0,0-2.76-3,7.86,7.86,0,0,0-4-1,8.07,8.07,0,0,0-4.07,1Z"/>
                    </g>
                </g>
            </g>
        </g>
        <path id="Tracé_713" data-name="Tracé 713" class="cls-1"
              d="M42.33,4A35.34,35.34,0,0,0,28.05.89h-.12c-8.49,0-16.57,3.26-22,9.32C2.82,13.65.53,17.52.08,22.29a17.78,17.78,0,0,0,9.7,17.58c2,1,4.06,1.89,6.1,2.8a5.26,5.26,0,0,1,3.38,4.79,5.4,5.4,0,0,1-2.9,5.11,8,8,0,0,0-2.45,2c-2.05,2.94-.74,6.52,2.83,8.08a30.65,30.65,0,0,0,12.41,2.59,32.23,32.23,0,0,0,12.7-2.62,11.53,11.53,0,0,1-1.07-4l-.08-1a27,27,0,0,1-11.55,2.59,25.84,25.84,0,0,1-10.4-2.16,1.92,1.92,0,0,1-.77-.55h0a7.47,7.47,0,0,1,1-.67,10.48,10.48,0,0,0-1-18.76l-1-.43c-1.72-.77-3.35-1.49-4.94-2.29A12.82,12.82,0,0,1,5.07,22.75c.3-3.13,1.75-6.05,4.57-9.19C14,8.71,20.67,5.93,28,5.91A30.44,30.44,0,0,1,40.26,8.56c.36.16.71.33,1.06.51a7.8,7.8,0,0,1,1.26-1.18l3-2.21A31.45,31.45,0,0,0,42.33,4Z"/>
    </g>
</svg>
