<svg width="834" height="815" viewBox="0 0 834 815" fill="none" xmlns="http://www.w3.org/2000/svg">
<path d="M424.147 813.39C422.108 813.39 420.083 812.868 418.302 811.873L345.438 771.453C343.864 770.58 342.082 770.122 340.287 770.122C340.187 770.122 340.079 770.122 339.979 770.122L279.298 771.86C279.184 771.86 279.069 771.86 278.955 771.86C276.887 771.86 274.841 771.324 273.038 770.308L198.064 728.078C189.915 723.485 185.98 713.662 188.713 704.712L217.101 611.738C217.258 611.23 217.373 610.701 217.451 610.171L228.64 533.673C229.177 529.995 231.33 526.826 234.549 524.973L237.304 523.385C241.281 521.096 243.335 516.531 242.405 512.039L232.131 462.139C231.488 459.02 229.513 456.38 226.701 454.892L184.128 432.342C182.132 431.283 180.479 429.695 179.349 427.749L163.932 401.215C162.63 398.969 162.079 396.314 162.386 393.739L164.79 373.493C165.262 369.537 163.502 365.688 160.211 363.456L123.611 338.595C122.953 338.145 122.238 337.773 121.501 337.486L13.1022 295.242C8.81688 293.575 5.96954 289.847 5.49022 285.269C5.0109 280.697 7.01404 276.462 10.8558 273.937L11.1348 273.751C13.9678 271.891 15.7062 268.879 15.9066 265.495C16.1069 262.111 14.7333 258.92 12.1364 256.738L6.49895 252.002C4.26688 250.128 2.79314 247.51 2.34243 244.626L0.868693 235.169C0.375062 231.978 1.15486 228.78 3.065 226.176C4.98229 223.572 7.79384 221.877 10.9917 221.397L100.339 208.005C100.926 207.919 101.527 207.869 102.127 207.869C104.453 207.869 106.713 208.534 108.666 209.793L142.441 231.585C144.158 232.693 146.154 233.28 148.2 233.28C149.266 233.28 150.325 233.123 151.348 232.801L198.922 218.056C204.331 216.382 207.471 210.766 206.069 205.279L190.874 145.814C189.972 142.28 190.702 138.567 192.877 135.641C195.052 132.715 198.393 130.941 202.041 130.784L216.135 130.183C216.307 130.183 216.478 130.168 216.65 130.168C217.902 130.168 219.14 130.362 220.327 130.741L293.707 154.228C294.758 154.564 295.846 154.736 296.947 154.736C299.244 154.736 301.426 154.013 303.272 152.646L355.825 113.743C356.505 113.235 357.249 112.805 358.022 112.455L402.484 92.2876C405.94 90.7208 408.308 87.4013 408.673 83.6311L414.088 27.4716C414.546 22.6999 417.794 18.6507 422.358 17.1626L471.135 1.28055C472.344 0.887072 473.596 0.686768 474.862 0.686768C477.731 0.686768 480.514 1.70981 482.696 3.57702L666.362 160.459C667.421 161.36 668.623 162.04 669.947 162.476L792.789 202.868C793.054 202.954 793.312 203.054 793.569 203.154L824.825 215.889C829.783 217.906 832.845 223.035 832.258 228.358L831.979 230.884C831.572 234.575 829.54 237.823 826.385 239.797L814.838 247.016C813.386 247.925 812.163 249.191 811.297 250.672L703.914 434.682L703.75 434.975C701.854 438.302 701.875 442.258 703.8 445.57C705.724 448.875 709.158 450.857 712.978 450.857L728.231 450.735C734.269 450.735 739.406 455.25 740.185 461.238L752.469 555.65C753.084 560.365 750.852 565.015 746.796 567.497L735.056 574.658C731.236 576.991 729.275 581.505 730.184 585.883C730.663 588.215 731.937 590.34 733.761 591.864L739.878 596.993C743.126 599.719 744.714 604.012 744.027 608.197L740.049 632.284C739.62 634.874 740.164 637.514 741.573 639.732L745.272 645.534C746.853 648.016 749.421 649.74 752.312 650.27L762.327 652.108C766.777 652.924 770.254 655.986 771.628 660.3C773.001 664.607 771.942 669.121 768.794 672.362L690.329 753.167C688.068 755.492 684.92 756.823 681.679 756.823C680.349 756.823 679.039 756.601 677.773 756.172L561.763 716.452C560.654 716.073 559.495 715.88 558.322 715.88C556.776 715.88 555.281 716.209 553.879 716.853L505.982 738.923C502.863 740.361 500.624 743.23 499.987 746.607L490.673 796.113C489.714 801.221 485.6 805.127 480.449 805.828L425.814 813.261C425.277 813.333 424.726 813.368 424.19 813.368L424.147 813.39Z" fill="white"/>
<path d="M474.826 1.43795C477.487 1.43795 480.106 2.37515 482.195 4.15652L665.861 161.038C666.985 161.997 668.279 162.727 669.682 163.185L792.524 203.576C792.775 203.655 793.018 203.748 793.261 203.848L824.517 216.583C829.21 218.493 832.065 223.279 831.514 228.315L831.235 230.841C830.856 234.289 828.917 237.379 825.977 239.225L814.43 246.444C812.871 247.417 811.576 248.754 810.646 250.343L703.263 434.353L703.091 434.646C698.784 442.215 704.257 451.594 712.942 451.594C712.971 451.594 713.007 451.594 713.035 451.594L728.102 451.472C728.102 451.472 728.159 451.472 728.195 451.472C733.889 451.472 738.704 455.693 739.441 461.352L751.725 555.764C752.304 560.207 750.208 564.571 746.388 566.911L734.648 574.072C730.556 576.568 728.474 581.362 729.454 586.055C729.969 588.552 731.314 590.798 733.274 592.436L739.391 597.566C742.46 600.141 743.948 604.148 743.29 608.104L739.312 632.191C738.854 634.953 739.434 637.779 740.936 640.14L744.635 645.942C746.33 648.596 749.049 650.427 752.147 651L762.17 652.838C771.084 654.476 774.568 665.386 768.258 671.889L689.792 752.695C687.617 754.934 684.669 756.136 681.658 756.136C680.427 756.136 679.189 755.936 677.988 755.528L561.977 715.808C560.782 715.401 559.545 715.2 558.307 715.2C556.683 715.2 555.066 715.551 553.564 716.238L505.667 738.308C502.334 739.846 499.951 742.901 499.272 746.506L489.957 796.013C489.056 800.813 485.178 804.49 480.342 805.148L425.706 812.582C425.198 812.653 424.683 812.689 424.175 812.689C422.258 812.689 420.362 812.202 418.674 811.265L345.817 770.845C344.135 769.907 342.24 769.421 340.315 769.421C340.208 769.421 340.101 769.421 339.993 769.421L279.312 771.159C279.205 771.159 279.098 771.159 278.99 771.159C277.044 771.159 275.127 770.659 273.424 769.7L198.45 727.469C190.53 723.005 186.774 713.633 189.428 704.941L217.816 611.967C217.98 611.423 218.109 610.865 218.188 610.3L229.377 533.801C229.878 530.367 231.931 527.348 234.936 525.617L237.69 524.029C241.925 521.589 244.121 516.703 243.134 511.917L232.861 462.017C232.181 458.705 230.049 455.865 227.059 454.284L184.485 431.734C182.611 430.74 181.051 429.245 179.985 427.413L164.568 400.879C163.33 398.754 162.822 396.286 163.116 393.846L165.52 373.6C166.02 369.394 164.132 365.266 160.633 362.883L124.033 338.023C123.332 337.544 122.574 337.15 121.78 336.835L13.381 294.591C4.80324 291.25 3.57275 279.61 11.2705 274.552L11.5495 274.366C17.8952 270.195 18.4318 261.095 12.6155 256.209L6.9781 251.473C4.88195 249.706 3.49407 247.245 3.07198 244.533L1.59822 235.076C0.632415 228.866 4.90342 223.05 11.1203 222.12L100.468 208.727C101.026 208.641 101.591 208.599 102.149 208.599C104.316 208.599 106.456 209.221 108.294 210.409L142.069 232.2C143.921 233.395 146.061 234.01 148.214 234.01C149.337 234.01 150.475 233.845 151.569 233.502L199.144 218.757C204.91 216.969 208.265 210.974 206.77 205.122L191.575 145.657C189.793 138.682 194.88 131.828 202.077 131.521L216.17 130.92C216.335 130.92 216.492 130.912 216.657 130.912C217.83 130.912 218.996 131.091 220.112 131.449L293.492 154.936C294.622 155.301 295.788 155.472 296.947 155.472C299.344 155.472 301.719 154.714 303.693 153.247L356.247 114.344C356.891 113.864 357.585 113.464 358.308 113.127L402.77 92.9601C406.469 91.286 408.987 87.7591 409.373 83.7242L414.789 27.5647C415.225 23.0719 418.273 19.2659 422.566 17.8709L471.342 1.98883C472.494 1.61682 473.674 1.43082 474.855 1.43082M474.855 0C473.51 0 472.179 0.214604 470.898 0.62954L422.122 16.5116C417.293 18.0855 413.852 22.3708 413.365 27.4287L407.95 83.5882C407.614 87.108 405.403 90.1986 402.176 91.658L357.714 111.825C356.891 112.197 356.111 112.655 355.389 113.192L302.835 152.096C301.118 153.369 299.079 154.042 296.94 154.042C295.917 154.042 294.901 153.884 293.921 153.569L220.542 130.083C219.282 129.682 217.973 129.475 216.65 129.475C216.471 129.475 216.285 129.474 216.106 129.489L202.012 130.09C198.149 130.254 194.615 132.129 192.304 135.234C190.001 138.338 189.228 142.266 190.18 146.008L205.375 205.472C206.684 210.587 203.758 215.824 198.707 217.391L151.133 232.136C150.181 232.429 149.194 232.579 148.2 232.579C146.289 232.579 144.429 232.028 142.827 230.998L109.052 209.207C106.985 207.869 104.588 207.168 102.127 207.168C101.498 207.168 100.861 207.218 100.231 207.311L10.8842 220.703C7.50034 221.211 4.51709 223.007 2.48534 225.768C0.453578 228.53 -0.369148 231.914 0.1531 235.29L1.62684 244.748C2.09901 247.796 3.66575 250.572 6.02659 252.56L11.664 257.296C14.0821 259.328 15.3627 262.304 15.1767 265.466C14.9907 268.621 13.3667 271.426 10.7268 273.164L10.4478 273.35C6.43439 275.983 4.25954 280.59 4.76033 285.362C5.26111 290.134 8.35166 294.183 12.823 295.921L121.222 338.173C121.915 338.445 122.574 338.788 123.189 339.211L159.789 364.071C162.865 366.16 164.497 369.744 164.06 373.436L161.656 393.682C161.334 396.415 161.914 399.226 163.295 401.601L178.712 428.136C179.914 430.203 181.666 431.884 183.777 433.008L226.351 455.557C228.976 456.945 230.822 459.406 231.416 462.318L241.689 512.218C242.555 516.41 240.637 520.667 236.932 522.798L234.177 524.387C230.765 526.354 228.483 529.709 227.917 533.601L216.728 610.1C216.657 610.593 216.55 611.08 216.399 611.559L188.012 704.534C186.631 709.048 186.839 713.948 188.591 718.334C190.344 722.719 193.578 726.411 197.691 728.729L272.666 770.959C274.576 772.032 276.744 772.605 278.933 772.605C279.055 772.605 279.176 772.605 279.298 772.605L339.986 770.866C340.079 770.866 340.172 770.866 340.272 770.866C341.946 770.866 343.613 771.295 345.08 772.111L417.937 812.531C419.826 813.583 421.972 814.134 424.132 814.134C424.705 814.134 425.284 814.091 425.856 814.02L480.492 806.586C485.951 805.842 490.3 801.707 491.316 796.299L500.631 746.793C501.225 743.645 503.314 740.969 506.225 739.624L554.122 717.554C555.431 716.953 556.826 716.645 558.271 716.645C559.366 716.645 560.446 716.824 561.483 717.182L677.494 756.901C678.832 757.359 680.22 757.588 681.629 757.588C685.063 757.588 688.404 756.179 690.793 753.711L769.259 672.905C772.6 669.464 773.723 664.692 772.264 660.121C770.805 655.557 767.12 652.316 762.406 651.45L752.383 649.612C749.686 649.118 747.296 647.508 745.823 645.198L742.124 639.396C740.807 637.335 740.307 634.867 740.7 632.456L744.678 608.368C745.408 603.933 743.726 599.39 740.285 596.5L734.169 591.37C732.466 589.947 731.285 587.965 730.835 585.79C729.983 581.698 731.808 577.491 735.378 575.317L747.117 568.155C751.417 565.53 753.778 560.608 753.127 555.607L740.843 461.195C740.021 454.856 734.576 450.07 728.181 450.07H728.08L713.014 450.192H712.928C709.365 450.192 706.16 448.353 704.372 445.263C702.576 442.179 702.562 438.481 704.329 435.383L704.501 435.09L811.876 251.094C812.685 249.713 813.822 248.533 815.181 247.688L826.728 240.47C830.062 238.381 832.222 234.94 832.652 231.034L832.931 228.508C833.546 222.871 830.305 217.434 825.054 215.295L793.798 202.561C793.519 202.446 793.24 202.346 792.968 202.253L670.132 161.861C668.902 161.453 667.779 160.824 666.791 159.979L483.125 3.09771C480.814 1.12318 477.867 0.0357617 474.833 0.0357617L474.855 0Z" fill="#E51131"/>
<path opacity="0.1" d="M241.06 521.017L296.64 553.153C296.711 553.196 296.804 553.182 296.862 553.118L345.795 498.41C345.86 498.339 345.967 498.332 346.039 498.389L395.945 538.38C395.981 538.409 396.01 538.459 396.01 538.509L399.294 591.685C399.294 591.728 399.286 591.771 399.258 591.8L348.156 660.522C348.156 660.522 348.092 660.579 348.049 660.586L292.176 672.219C292.104 672.233 292.047 672.297 292.04 672.369L289.965 688.194C289.965 688.194 289.965 688.265 289.979 688.294L303.923 717.325C305.962 721.575 305.64 726.583 303.064 730.532L277.331 771.253C277.281 771.331 277.174 771.36 277.095 771.31L195.617 724.672C190.173 721.618 187.533 715.222 189.236 709.213L222.087 593.581C222.087 593.581 222.087 593.56 222.087 593.553L228.111 528.336C228.111 528.279 228.147 528.229 228.197 528.2L240.888 521.017C240.945 520.989 241.01 520.989 241.06 521.017Z" fill="#E40D31"/>
</svg>
