<?xml version="1.0" encoding="utf-8"?>
<!-- Generator: Adobe Illustrator 25.0.0, SVG Export Plug-In . SVG Version: 6.00 Build 0)  -->
<svg version="1.1" id="Calque_1" xmlns="http://www.w3.org/2000/svg" xmlns:xlink="http://www.w3.org/1999/xlink" x="0px"
     y="0px"
     viewBox="0 0 54 54" style="enable-background:new 0 0 54 54;" xml:space="preserve">
<style type="text/css">
	.st0{fill:#FFFFFF;}
	.st1{fill:#7D67AA;}
	.st2{fill:#F0C233;}
	.st3{fill:#3C9C4B;}
	.st4{fill:#08A9C6;}
	.st5{fill:#E52A34;}
</style>
    <g>
	<g>
		<path class="st0" d="M27,53.2c-0.8,0-1.7-0.2-2.5-0.5c-0.1,0-0.2-0.1-0.3-0.1c-0.7-0.3-1.3-0.8-1.9-1.3l-0.1-0.1l0,0L2.8,31.7
			c-1.2-1.2-1.9-2.9-1.9-4.6c0-1.6,0.6-3.1,1.6-4.3l0,0l0.3-0.3L22.3,2.8l0,0l0,0c0,0,0.1-0.1,0.1-0.1c0.1-0.1,0.1-0.1,0.2-0.2
			c0.1,0,0.1-0.1,0.2-0.1l0.1-0.1l0,0C23,2.2,23.1,2.1,23.2,2c0.7-0.5,1.5-0.9,2.4-1l0,0c0.1,0,0.2,0,0.3-0.1
			c0.4-0.1,0.7-0.1,1.1-0.1c0.3,0,0.6,0,0.9,0.1c0.1,0,0.2,0,0.3,0l0,0c0.7,0.1,1.4,0.4,2.1,0.8c0.1,0,0.2,0.1,0.2,0.1l0,0l0,0
			c0.4,0.2,0.7,0.5,1,0.8l19.6,19.6c2.5,2.5,2.6,6.5,0.2,9.1l0,0L51,31.8L31.6,51.2C30.4,52.5,28.7,53.2,27,53.2z"/>
        <path class="st1" d="M27,1.7c0.3,0,0.5,0,0.8,0.1c0.1,0,0.2,0,0.3,0c0.6,0.1,1.2,0.3,1.8,0.7c0.1,0,0.2,0.1,0.2,0.1l0,0l0,0
			C30.4,2.8,30.7,3,31,3.3l19.6,19.6c2.2,2.2,2.2,5.7,0.2,7.9l-0.4,0.4L31.1,50.7c-1.1,1.1-2.5,1.7-4.1,1.7c-0.7,0-1.5-0.1-2.1-0.4
			c-0.1,0-0.2-0.1-0.3-0.1c-0.6-0.3-1.2-0.7-1.6-1.1l0,0l0,0L3.3,31.1C2.3,30,1.7,28.5,1.7,27c0-1.4,0.5-2.8,1.5-3.9l0,0l0.2-0.2
			L22.9,3.4l0,0c0,0,0.1-0.1,0.1-0.1c0.1-0.1,0.1-0.1,0.2-0.2C23.3,3.1,23.3,3,23.4,3l0,0l0,0c0.1-0.1,0.2-0.2,0.3-0.3
			C24.3,2.3,25,2,25.8,1.8l0,0l0,0c0.1,0,0.2,0,0.2,0C26.3,1.7,26.7,1.7,27,1.7 M24.2,4.5c0,0,0.1-0.1,0.1-0.1c0,0,0,0,0,0
			c0,0,0,0,0,0C24.3,4.4,24.2,4.4,24.2,4.5 M27,0c-0.4,0-0.8,0-1.3,0.1c-0.1,0-0.2,0-0.3,0.1l0,0l0,0l0,0l0,0
			c-1,0.2-1.9,0.6-2.6,1.2c-0.1,0.1-0.2,0.2-0.4,0.3l0,0l-0.1,0.1l-0.1,0l0,0c0,0-0.1,0.1-0.1,0.1C22,1.9,22,2,21.9,2.1
			c0,0-0.1,0.1-0.1,0.1l0,0l0,0L2.2,21.8L2,22l-0.2,0.2l0,0.1C0.6,23.6,0,25.3,0,27c0,2,0.8,3.8,2.2,5.2l19.5,19.5l0,0l0.1,0.1
			c0.6,0.6,1.3,1.1,2.1,1.5l0,0l0,0c0.1,0,0.2,0.1,0.3,0.1C25.1,53.8,26,54,27,54c2,0,3.8-0.8,5.2-2.2l19.4-19.4l0,0l0,0L52,32l0,0
			l0,0c2.7-2.9,2.5-7.4-0.3-10.2L32.2,2.1l0,0l0,0c-0.3-0.3-0.7-0.6-1.1-0.9L31,1.2l-0.1,0c-0.1,0-0.1-0.1-0.2-0.1l0,0l0,0
			c-0.7-0.4-1.5-0.7-2.3-0.9l0,0c-0.1,0-0.2,0-0.3-0.1C27.7,0,27.3,0,27,0L27,0z"/>
	</g>
</g>
    <path class="st2" d="M49.5,29.9C49.5,29.9,49.5,29.9,49.5,29.9l-2.9,2.9h-2.5v-2.9l0.6-0.6c0,0,0,0,0,0c1.3-1.3,1.3-3.3,0-4.5
	L31.5,11.5h2.9V9l15.1,15.1C51.1,25.7,51.1,28.3,49.5,29.9z"/>
    <path class="st3" d="M32.8,7.4v2.5h-2.9l-0.6-0.6c-0.2-0.2-0.3-0.3-0.5-0.4c0,0-0.1-0.1-0.1-0.1c-0.3-0.2-0.7-0.3-1-0.4
	c-0.1,0-0.1,0-0.2,0c-0.1,0-0.3,0-0.5,0c-0.2,0-0.4,0-0.5,0c-0.1,0-0.1,0-0.2,0c-0.4,0.1-0.8,0.3-1.1,0.5C25.1,9,25,9,25,9.1
	c0,0-0.1,0.1-0.1,0.1c0,0-0.1,0.1-0.1,0.1c0,0,0,0-0.1,0.1L9.3,24.7c0,0,0,0,0,0c-0.4,0.4-0.6,0.8-0.8,1.3h-5
	c0.2-0.7,0.5-1.4,1.1-1.9c0,0,0,0,0,0L24.1,4.5c0,0,0-0.1,0.1-0.1c0,0,0.1-0.1,0.1-0.1c0,0,0.1-0.1,0.1-0.1c0.1-0.1,0.2-0.1,0.2-0.2
	c0.4-0.3,0.9-0.5,1.5-0.6c0.1,0,0.1,0,0.2,0c0.2,0,0.5-0.1,0.7-0.1c0.2,0,0.4,0,0.6,0c0.1,0,0.1,0,0.2,0c0.4,0.1,0.9,0.2,1.3,0.5
	c0.1,0,0.1,0.1,0.2,0.1c0.2,0.1,0.4,0.3,0.6,0.5L32.8,7.4z"/>
    <path class="st4" d="M22.5,42.5h-2.9V45L4.5,29.9c-0.6-0.6-1-1.4-1.1-2.2h5c0.1,0.6,0.4,1.1,0.9,1.6L22.5,42.5z"/>
    <path class="st5" d="M45,34.4L29.9,49.5c-0.8,0.8-1.8,1.2-2.9,1.2c-0.5,0-1-0.1-1.5-0.3c-0.1,0-0.1-0.1-0.2-0.1
	c-0.4-0.2-0.8-0.5-1.2-0.8c0,0,0,0,0,0l-2.9-2.9v-2.5h2.9l0.6,0.6c0,0,0,0,0,0c0.3,0.3,0.6,0.5,0.9,0.6c0,0,0.1,0,0.1,0.1
	c0.4,0.2,0.8,0.2,1.2,0.2c0.8,0,1.6-0.3,2.3-0.9l13.2-13.2v2.9H45z"/>
</svg>
