<?xml version="1.0" encoding="utf-8"?>
<!-- Generator: Adobe Illustrator 25.0.0, SVG Export Plug-In . SVG Version: 6.00 Build 0)  -->
<svg version="1.1" id="Calque_1" xmlns="http://www.w3.org/2000/svg" xmlns:xlink="http://www.w3.org/1999/xlink" x="0px" y="0px"
	 viewBox="0 0 54 54" style="enable-background:new 0 0 54 54;" xml:space="preserve">
<style type="text/css">
	.st0{fill:#589B54;}
	.st1{fill:#FFFFFF;}
</style>
<g id="Groupe_752" transform="translate(-50 -47.682)">
	<g id="Groupe_751">
		<path id="Tracé_522" class="st0" d="M52.2,69.4l19.5-19.5c2.9-2.9,7.7-2.9,10.6,0c0,0,0,0,0,0l19.5,19.5c2.9,2.9,2.9,7.7,0,10.6
			c0,0,0,0,0,0L82.3,99.5c-2.9,2.9-7.7,2.9-10.6,0c0,0,0,0,0,0L52.2,80C49.3,77,49.3,72.3,52.2,69.4z"/>
	</g>
	<path class="st1" d="M77.5,63.4c4.8,0,8.6,1.8,10.2,5c1.8,3.4,0.8,7.9-2.4,11c-1.5,1.4-2.6,3.2-3.1,5.2v0l0,0
		c-0.3,1-0.5,1.1-0.9,1.1h-7.6c-0.4,0-0.5-0.1-0.8-1.1v0l0,0c-0.4-1.2-1-3.1-3.1-5.2c-3.2-3.1-4.2-7.6-2.4-11
		C68.9,65.3,72.6,63.4,77.5,63.4 M77.5,61.3c-5.7,0-10.1,2.2-12.1,6.1c-2.2,4.3-1.1,9.7,2.8,13.5c1.8,1.7,2.3,3.3,2.6,4.4
		c0.2,0.8,0.8,2.5,2.8,2.5h7.7c2.1-0.1,2.6-1.7,2.8-2.6c0.3-1,0.8-2.6,2.6-4.3c3.9-3.8,5-9.2,2.8-13.5
		C87.5,63.6,83.1,61.3,77.5,61.3z"/>
</g>
</svg>
