<svg xmlns="http://www.w3.org/2000/svg" width="53.972" height="54" viewBox="0 0 53.972 54">
    <g id="Groupe_752" data-name="Groupe 752" transform="translate(-50 -47.682)">
        <g id="Groupe_751" data-name="Groupe 751">
            <path id="Tracé_522" data-name="Tracé 522"
                  d="M19.3,44.051l19.5-19.5a7.485,7.485,0,0,1,10.6,0l19.5,19.5a7.485,7.485,0,0,1,0,10.6l-19.5,19.5a7.485,7.485,0,0,1-10.6,0l-19.5-19.5A7.553,7.553,0,0,1,19.3,44.051Z"
                  transform="translate(32.875 25.332)" fill="#ea2631"/>
        </g>
        <g id="Groupe_633" data-name="Groupe 633" transform="translate(60.7 55.597)">
            <path id="Tracé_548" data-name="Tracé 548"
                  d="M49.288,45.928a1.164,1.164,0,1,0-1.188-1.14A1.167,1.167,0,0,0,49.288,45.928Z"
                  transform="translate(-24.568 -22.363)" fill="#fff"/>
            <path id="Tracé_549" data-name="Tracé 549"
                  d="M14.088,45.928a1.164,1.164,0,1,0-1.188-1.14A1.233,1.233,0,0,0,14.088,45.928Z"
                  transform="translate(-6.089 -22.363)" fill="#fff"/>
            <path id="Tracé_550" data-name="Tracé 550"
                  d="M43.208,29.843a.47.47,0,1,0-.665.665l1.235,1.235a.47.47,0,1,0,.665-.665Z"
                  transform="translate(-21.575 -15.066)" fill="#fff"/>
            <path id="Tracé_551" data-name="Tracé 551"
                  d="M20.378,8.443a.47.47,0,0,0,.665-.665L19.808,6.543a.47.47,0,0,0-.665.665Z"
                  transform="translate(-9.292 -2.835)" fill="#fff"/>
            <path id="Tracé_552" data-name="Tracé 552"
                  d="M20.378,29.943l-1.235,1.235a.47.47,0,0,0,.665.665l1.235-1.235a.47.47,0,1,0-.665-.665Z"
                  transform="translate(-9.292 -15.119)" fill="#fff"/>
            <path id="Tracé_553" data-name="Tracé 553"
                  d="M32.475,3.66a.449.449,0,0,0,.475-.475V1.475A.449.449,0,0,0,32.475,1,.511.511,0,0,0,32,1.475v1.71A.449.449,0,0,0,32.475,3.66Z"
                  transform="translate(-16.116)" fill="#fff"/>
            <path id="Tracé_554" data-name="Tracé 554"
                  d="M8,36.7a6.722,6.722,0,1,0,6.7,6.746A6.731,6.731,0,0,0,8,36.7Zm0,2.328a2.119,2.119,0,0,1,2.09,2.138A2.078,2.078,0,0,1,8,43.256a2.15,2.15,0,0,1-2.138-2.09A2.191,2.191,0,0,1,8,39.028Zm3.04,8.788a.449.449,0,0,1-.475-.475,2.565,2.565,0,0,0-5.131,0,.449.449,0,0,1-.475.475.449.449,0,0,1-.475-.475,3.515,3.515,0,1,1,7.031,0A.476.476,0,0,1,11.038,47.816Z"
                  transform="translate(0 -18.741)" fill="#fff"/>
            <path id="Tracé_555" data-name="Tracé 555"
                  d="M14.075,20.35h1.758a.475.475,0,0,0,0-.95H14.075a.449.449,0,0,0-.475.475A.511.511,0,0,0,14.075,20.35Z"
                  transform="translate(-6.457 -9.659)" fill="#fff"/>
            <path id="Tracé_556" data-name="Tracé 556"
                  d="M47.175,20.35h1.71a.511.511,0,0,0,.475-.475.476.476,0,0,0-.475-.475h-1.71a.449.449,0,0,0-.475.475A.476.476,0,0,0,47.175,20.35Z"
                  transform="translate(-23.833 -9.659)" fill="#fff"/>
            <path id="Tracé_557" data-name="Tracé 557"
                  d="M22.957,18.588a9.693,9.693,0,0,1,1.378,2.328h2.28v-3.99l-1.473-1.473a.47.47,0,0,1,.665-.665L27.09,16.07l1.283-1.283a.47.47,0,0,1,.665.665l-1.473,1.473v3.99h2.328a8.856,8.856,0,0,1,1.378-2.328,5.342,5.342,0,1,0-8.313,0Z"
                  transform="translate(-10.731 -4.667)" fill="#fff"/>
            <path id="Tracé_558" data-name="Tracé 558"
                  d="M43.2,36.7a6.722,6.722,0,1,0,6.7,6.746A6.731,6.731,0,0,0,43.2,36.7Zm0,2.328a2.129,2.129,0,0,1,2.138,2.138,2.089,2.089,0,0,1-2.138,2.09,2.114,2.114,0,1,1,0-4.228Zm3.04,8.788a.449.449,0,0,1-.475-.475,2.565,2.565,0,0,0-5.131,0,.476.476,0,0,1-.475.475.449.449,0,0,1-.475-.475,3.515,3.515,0,1,1,7.031,0A.476.476,0,0,1,46.239,47.816Z"
                  transform="translate(-18.478 -18.741)" fill="#fff"/>
            <path id="Tracé_559" data-name="Tracé 559"
                  d="M43.208,8.443l1.235-1.235a.47.47,0,1,0-.665-.665L42.543,7.778a.459.459,0,0,0,0,.665A.506.506,0,0,0,43.208,8.443Z"
                  transform="translate(-21.575 -2.835)" fill="#fff"/>
            <path id="Tracé_560" data-name="Tracé 560"
                  d="M32.731,35.908V35.1H27.6v.808A1.118,1.118,0,0,0,28.5,37a1.686,1.686,0,0,0,1.663,1.425A1.65,1.65,0,0,0,31.828,37,1.081,1.081,0,0,0,32.731,35.908Z"
                  transform="translate(-13.806 -17.901)" fill="#fff"/>
        </g>
    </g>
</svg>
