<?xml version="1.0" encoding="utf-8"?>
<!-- Generator: $$$/GeneralStr/196=Adobe Illustrator 27.6.0, SVG Export Plug-In . SVG Version: 6.00 Build 0)  -->
<svg version="1.1" id="Calque_1" xmlns="http://www.w3.org/2000/svg" xmlns:xlink="http://www.w3.org/1999/xlink" x="0px" y="0px"
	 viewBox="0 0 54 54" style="enable-background:new 0 0 54 54;" xml:space="preserve">
<style type="text/css">
	.st0{fill:#EA2631;}
	.st1{fill:#FFFFFF;}
	.st2{fill:#F4F5F7;}
</style>
<g id="Groupe_755" transform="translate(-50 -47.682)">
	<g id="Groupe_752">
		<path id="Tracé_522" class="st0" d="M52.2,69.4l19.5-19.5c2.9-2.9,7.7-2.9,10.6,0c0,0,0,0,0,0l19.5,19.5c2.9,2.9,2.9,7.7,0,10.6
			c0,0,0,0,0,0L82.3,99.5c-2.9,2.9-7.7,2.9-10.6,0c0,0,0,0,0,0L52.2,80C49.3,77,49.3,72.3,52.2,69.4z"/>
	</g>
</g>
<g>
	<path class="st1" d="M27.3,11.7c0.1,0,0.2,0,0.3,0.1l6.9,5.9c0,0,0.1,0.1,0.1,0.1l4.6,1.5c0,0,0,0,0,0l1.2,0.5
		c0.2,0.1,0.3,0.3,0.3,0.4l0,0.1c0,0.1-0.1,0.2-0.2,0.3L40.1,21C40,21,40,21,39.9,21.1l-4,6.9l0,0c-0.2,0.3,0,0.6,0.4,0.6
		c0,0,0,0,0,0l0.6,0c0,0,0,0,0,0c0.2,0,0.4,0.2,0.4,0.4l0.5,3.6c0,0.2-0.1,0.3-0.2,0.4l-0.4,0.3c-0.2,0.1-0.2,0.3-0.2,0.5
		c0,0.1,0.1,0.2,0.1,0.2l0.2,0.2c0.1,0.1,0.2,0.2,0.1,0.4l-0.1,0.9c0,0.1,0,0.2,0.1,0.3l0.1,0.2c0.1,0.1,0.2,0.2,0.3,0.2l0.4,0.1
		c0.3,0.1,0.5,0.5,0.2,0.7l-3,3c-0.1,0.1-0.2,0.1-0.3,0.1c0,0-0.1,0-0.1,0l-4.4-1.5c0,0-0.1,0-0.1,0c-0.1,0-0.1,0-0.2,0l-1.8,0.8
		c-0.1,0.1-0.2,0.2-0.2,0.3l-0.4,1.9c0,0.2-0.2,0.3-0.4,0.3l-2.1,0.3c0,0,0,0-0.1,0c-0.1,0-0.1,0-0.2-0.1l-2.7-1.5
		c-0.1,0-0.1-0.1-0.2-0.1c0,0,0,0,0,0l-2.3,0.1c0,0,0,0,0,0c-0.1,0-0.1,0-0.2-0.1l-2.8-1.6c-0.3-0.2-0.4-0.5-0.3-0.8l1.1-3.5
		c0,0,0,0,0-0.1l0.4-2.9c0-0.1,0.1-0.2,0.2-0.3l0.1-0.1c0.2-0.1,0.2-0.3,0.2-0.5l-0.4-1.9c0-0.1-0.1-0.2-0.2-0.3l-1.6-0.8
		c-0.1,0-0.1-0.1-0.2-0.2l-0.6-1c0-0.1-0.1-0.2-0.1-0.3l0.1-0.8c0-0.2-0.1-0.3-0.2-0.4l-1.4-0.9c0,0-0.1,0-0.1,0l-4.1-1.6
		c-0.3-0.1-0.4-0.6-0.1-0.8l0,0c0.2-0.2,0.3-0.5,0-0.7l-0.2-0.2c-0.1-0.1-0.1-0.2-0.1-0.3l-0.1-0.4c0-0.2,0.1-0.5,0.4-0.5l3.4-0.5
		c0,0,0,0,0.1,0c0.1,0,0.2,0,0.2,0.1l1.3,0.8c0.1,0,0.2,0.1,0.2,0.1c0,0,0.1,0,0.1,0l1.8-0.6c0.2-0.1,0.3-0.3,0.3-0.5l-0.6-2.2
		c-0.1-0.3,0.1-0.5,0.4-0.5l0.5,0c0,0,0,0,0,0c0,0,0.1,0,0.1,0l2.8,0.9c0,0,0.1,0,0.1,0c0.1,0,0.2,0,0.3-0.1l2-1.5c0,0,0.1,0,0.1,0
		l1.7-0.8c0.1-0.1,0.2-0.2,0.2-0.3l0.2-2.1c0-0.2,0.1-0.3,0.3-0.4l1.8-0.6C27.2,11.7,27.3,11.7,27.3,11.7 M27.3,10.9
		c-0.1,0-0.3,0-0.4,0.1l-1.8,0.6c-0.5,0.2-0.8,0.6-0.8,1l-0.2,1.9l-1.5,0.7c-0.1,0-0.2,0.1-0.2,0.1l-1.8,1.4L18,15.9
		c-0.1,0-0.2-0.1-0.4-0.1h0l0,0l-0.5,0c-0.4,0-0.7,0.2-0.9,0.5c-0.2,0.3-0.3,0.7-0.2,1l0.5,1.9l-1.3,0.4l-1.1-0.7
		c-0.2-0.1-0.4-0.2-0.7-0.2c-0.1,0-0.1,0-0.2,0l-3.4,0.5c-0.3,0-0.6,0.2-0.8,0.5c-0.2,0.3-0.3,0.6-0.2,0.9L8.8,21
		c0,0.3,0.2,0.5,0.3,0.7c-0.2,0.2-0.2,0.5-0.2,0.8c0,0.5,0.3,0.8,0.8,1l4,1.6l1.2,0.8l-0.1,0.5c0,0.3,0,0.5,0.2,0.8l0.6,1
		c0.1,0.2,0.3,0.4,0.5,0.5l1.4,0.8l0.3,1.5c-0.3,0.2-0.4,0.5-0.5,0.8l-0.4,2.9L15.8,38c-0.2,0.7,0.1,1.4,0.7,1.8l2.8,1.6
		c0.2,0.1,0.4,0.2,0.6,0.2l2.2-0.1l2.7,1.5c0.2,0.1,0.4,0.2,0.6,0.2c0.1,0,0.1,0,0.2,0l2.1-0.3c0.5-0.1,0.9-0.5,1-1l0.3-1.7l1.5-0.7
		l4.2,1.4c0.1,0,0.3,0.1,0.4,0.1c0.3,0,0.7-0.1,0.9-0.4l3-3c0.3-0.3,0.4-0.8,0.3-1.2c-0.1-0.4-0.5-0.8-0.9-0.8l-0.2,0l0.1-0.7
		c0.1-0.4,0-0.7-0.3-1l0,0c0.4-0.3,0.6-0.7,0.6-1.2l-0.5-3.6c-0.1-0.6-0.6-1-1.1-1.1l3.7-6.3l0.4-0.2c0.3-0.2,0.5-0.5,0.6-0.9l0-0.1
		c0.1-0.5-0.3-1.1-0.8-1.3l-1.2-0.5l0,0l-0.1,0L35,17.1l-6.9-5.9C27.9,11,27.6,10.9,27.3,10.9L27.3,10.9z"/>
</g>
<path class="st2" d="M27.1,19.9c-0.1,0-0.3,0-0.4,0c-0.1,0-0.3,0-0.4,0c-2.9,0.3-4.7,3.5-3.5,6.2l0.7,1.7l2.7,6.3
	c0.2,0.5,0.8,0.5,1,0l2.7-6.3l0.7-1.7C31.7,23.3,30,20.2,27.1,19.9z M28.1,26.8c-2.8,1.3-5.5-1.4-4.2-4.2c0.2-0.5,0.6-0.9,1.1-1.2
	c2.8-1.5,5.7,1.4,4.2,4.2C29,26.2,28.6,26.6,28.1,26.8z"/>
</svg>
