<svg xmlns="http://www.w3.org/2000/svg" width="53.972" height="54" viewBox="0 0 53.972 54">
    <g id="Groupe_749" data-name="Groupe 749" transform="translate(-50 -47.682)">
        <path id="Tracé_522" data-name="Tracé 522"
              d="M19.3,44.051l19.5-19.5a7.485,7.485,0,0,1,10.6,0l19.5,19.5a7.485,7.485,0,0,1,0,10.6l-19.5,19.5a7.485,7.485,0,0,1-10.6,0l-19.5-19.5A7.553,7.553,0,0,1,19.3,44.051Z"
              transform="translate(32.875 25.332)" fill="#ea2631"/>
        <g id="Groupe_632" data-name="Groupe 632" transform="translate(56.619 54.5)">
            <path id="Tracé_524" data-name="Tracé 524"
                  d="M33.219,11.8h-1.1a1.589,1.589,0,0,0-1.581,1.4l-.147,1.287a.3.3,0,0,0,.257.368c.221.037.478.074.735.11l.184,3.052a.447.447,0,0,0,.441.441h1.4a.425.425,0,0,0,.441-.441l.184-3.052c.257-.037.478-.074.735-.11a.33.33,0,0,0,.257-.368L34.874,13.2A1.722,1.722,0,0,0,33.219,11.8Z"
                  transform="translate(-17.073 -5.881)" fill="#fff"/>
            <circle id="Ellipse_14" data-name="Ellipse 14" cx="1.507" cy="1.507" r="1.507"
                    transform="translate(14.087 2.5)" fill="#fff"/>
            <path id="Tracé_525" data-name="Tracé 525"
                  d="M60.119,11.8h-1.1a1.589,1.589,0,0,0-1.581,1.4l-.147,1.287a.3.3,0,0,0,.257.368c.221.037.478.074.735.11l.184,3.052a.447.447,0,0,0,.441.441h1.4a.425.425,0,0,0,.441-.441l.184-3.052c.257-.037.478-.074.735-.11a.33.33,0,0,0,.257-.368L61.774,13.2A1.722,1.722,0,0,0,60.119,11.8Z"
                  transform="translate(-34.082 -5.881)" fill="#fff"/>
            <circle id="Ellipse_15" data-name="Ellipse 15" cx="1.507" cy="1.507" r="1.507"
                    transform="translate(23.941 2.5)" fill="#fff"/>
            <path id="Tracé_526" data-name="Tracé 526"
                  d="M19.719,28.7h-1.1a1.589,1.589,0,0,0-1.581,1.4l-.147,1.287a.3.3,0,0,0,.257.368c.221.037.478.074.735.11l.184,3.052a.447.447,0,0,0,.441.441h1.36a.425.425,0,0,0,.441-.441l.184-3.052c.257-.037.478-.074.735-.11a.33.33,0,0,0,.257-.368L21.337,30.1A1.625,1.625,0,0,0,19.719,28.7Z"
                  transform="translate(-8.536 -16.567)" fill="#fff"/>
            <circle id="Ellipse_16" data-name="Ellipse 16" cx="1.507" cy="1.507" r="1.507"
                    transform="translate(9.124 8.714)" fill="#fff"/>
            <path id="Tracé_527" data-name="Tracé 527"
                  d="M46.619,28.7h-1.1a1.589,1.589,0,0,0-1.581,1.4l-.147,1.287a.3.3,0,0,0,.257.368c.221.037.478.074.735.11l.184,3.052a.447.447,0,0,0,.441.441h1.4a.425.425,0,0,0,.441-.441l.184-3.052c.257-.037.478-.074.735-.11a.33.33,0,0,0,.257-.368L48.274,30.1A1.692,1.692,0,0,0,46.619,28.7Z"
                  transform="translate(-25.546 -16.567)" fill="#fff"/>
            <circle id="Ellipse_17" data-name="Ellipse 17" cx="1.507" cy="1.507" r="1.507"
                    transform="translate(19.014 8.714)" fill="#fff"/>
            <path id="Tracé_528" data-name="Tracé 528"
                  d="M73.519,28.7h-1.1a1.589,1.589,0,0,0-1.581,1.4l-.147,1.287a.3.3,0,0,0,.257.368c.221.037.478.074.735.11l.184,3.052a.447.447,0,0,0,.441.441h1.4a.425.425,0,0,0,.441-.441l.184-3.052c.257-.037.478-.074.735-.11a.33.33,0,0,0,.257-.368L75.174,30.1A1.692,1.692,0,0,0,73.519,28.7Z"
                  transform="translate(-42.555 -16.567)" fill="#fff"/>
            <circle id="Ellipse_18" data-name="Ellipse 18" cx="1.507" cy="1.507" r="1.507"
                    transform="translate(28.905 8.714)" fill="#fff"/>
            <path id="Tracé_529" data-name="Tracé 529"
                  d="M6.256,45.6h-1.1A1.589,1.589,0,0,0,3.572,47l-.184,1.324a.3.3,0,0,0,.257.368c.221.037.478.074.735.11l.184,3.052a.447.447,0,0,0,.441.441H6.4a.425.425,0,0,0,.441-.441L7.028,48.8c.257-.037.478-.074.735-.11a.33.33,0,0,0,.257-.368l-.147-1.287A1.626,1.626,0,0,0,6.256,45.6Z"
                  transform="translate(0 -27.253)" fill="#fff"/>
            <circle id="Ellipse_19" data-name="Ellipse 19" cx="1.507" cy="1.507" r="1.507"
                    transform="translate(4.197 14.928)" fill="#fff"/>
            <path id="Tracé_530" data-name="Tracé 530"
                  d="M33.156,45.6h-1.1A1.589,1.589,0,0,0,30.472,47l-.184,1.324a.3.3,0,0,0,.257.368c.221.037.478.074.735.11l.184,3.052a.447.447,0,0,0,.441.441h1.4a.425.425,0,0,0,.441-.441l.184-3.052c.257-.037.478-.074.735-.11a.33.33,0,0,0,.257-.368l-.147-1.287A1.654,1.654,0,0,0,33.156,45.6Z"
                  transform="translate(-17.009 -27.253)" fill="#fff"/>
            <circle id="Ellipse_20" data-name="Ellipse 20" cx="1.507" cy="1.507" r="1.507"
                    transform="translate(14.087 14.928)" fill="#fff"/>
            <path id="Tracé_531" data-name="Tracé 531"
                  d="M60.056,45.6h-1.1A1.589,1.589,0,0,0,57.372,47l-.184,1.324a.3.3,0,0,0,.257.368c.221.037.478.074.735.11l.184,3.052a.447.447,0,0,0,.441.441h1.4a.425.425,0,0,0,.441-.441l.184-3.052c.257-.037.478-.074.735-.11a.33.33,0,0,0,.257-.368l-.147-1.287A1.654,1.654,0,0,0,60.056,45.6Z"
                  transform="translate(-34.019 -27.253)" fill="#fff"/>
            <circle id="Ellipse_21" data-name="Ellipse 21" cx="1.507" cy="1.507" r="1.507"
                    transform="translate(23.941 14.928)" fill="#fff"/>
            <path id="Tracé_532" data-name="Tracé 532"
                  d="M88.5,47a1.589,1.589,0,0,0-1.581-1.4h-1.1A1.589,1.589,0,0,0,84.235,47l-.147,1.324a.3.3,0,0,0,.257.368c.221.037.478.074.735.11l.184,3.052a.447.447,0,0,0,.441.441h1.4a.425.425,0,0,0,.441-.441l.184-3.052c.257-.037.478-.074.735-.11a.33.33,0,0,0,.257-.368Z"
                  transform="translate(-51.028 -27.253)" fill="#fff"/>
            <circle id="Ellipse_22" data-name="Ellipse 22" cx="1.507" cy="1.507" r="1.507"
                    transform="translate(33.832 14.928)" fill="#fff"/>
            <path id="Tracé_533" data-name="Tracé 533"
                  d="M19.719,62.5h-1.1a1.589,1.589,0,0,0-1.581,1.4l-.147,1.287a.3.3,0,0,0,.257.368c.221.037.478.074.735.11l.184,3.052a.447.447,0,0,0,.441.441h1.36a.425.425,0,0,0,.441-.441l.184-3.052c.257-.037.478-.074.735-.11a.33.33,0,0,0,.257-.368L21.337,63.9A1.625,1.625,0,0,0,19.719,62.5Z"
                  transform="translate(-8.536 -37.939)" fill="#fff"/>
            <circle id="Ellipse_23" data-name="Ellipse 23" cx="1.507" cy="1.507" r="1.507"
                    transform="translate(9.124 21.141)" fill="#fff"/>
            <path id="Tracé_534" data-name="Tracé 534"
                  d="M46.619,62.5h-1.1a1.589,1.589,0,0,0-1.581,1.4l-.147,1.287a.3.3,0,0,0,.257.368c.221.037.478.074.735.11l.184,3.052a.447.447,0,0,0,.441.441h1.4a.425.425,0,0,0,.441-.441l.184-3.052c.257-.037.478-.074.735-.11a.33.33,0,0,0,.257-.368L48.274,63.9A1.692,1.692,0,0,0,46.619,62.5Z"
                  transform="translate(-25.546 -37.939)" fill="#fff"/>
            <circle id="Ellipse_24" data-name="Ellipse 24" cx="1.507" cy="1.507" r="1.507"
                    transform="translate(19.014 21.141)" fill="#fff"/>
            <path id="Tracé_535" data-name="Tracé 535"
                  d="M73.519,62.5h-1.1a1.589,1.589,0,0,0-1.581,1.4l-.147,1.287a.3.3,0,0,0,.257.368c.221.037.478.074.735.11l.184,3.052a.447.447,0,0,0,.441.441h1.4a.425.425,0,0,0,.441-.441l.184-3.052c.257-.037.478-.074.735-.11a.33.33,0,0,0,.257-.368L75.174,63.9A1.692,1.692,0,0,0,73.519,62.5Z"
                  transform="translate(-42.555 -37.939)" fill="#fff"/>
            <circle id="Ellipse_25" data-name="Ellipse 25" cx="1.507" cy="1.507" r="1.507"
                    transform="translate(28.905 21.141)" fill="#fff"/>
            <path id="Tracé_536" data-name="Tracé 536"
                  d="M33.219,79.4h-1.1a1.589,1.589,0,0,0-1.581,1.4l-.147,1.287a.3.3,0,0,0,.257.368c.221.037.478.074.735.11l.184,3.052a.447.447,0,0,0,.441.441h1.4a.425.425,0,0,0,.441-.441l.184-3.052c.257-.037.478-.074.735-.11a.33.33,0,0,0,.257-.368L34.874,80.8A1.722,1.722,0,0,0,33.219,79.4Z"
                  transform="translate(-17.073 -48.626)" fill="#fff"/>
            <circle id="Ellipse_26" data-name="Ellipse 26" cx="1.507" cy="1.507" r="1.507"
                    transform="translate(14.087 27.355)" fill="#fff"/>
            <path id="Tracé_537" data-name="Tracé 537"
                  d="M60.119,79.4h-1.1a1.589,1.589,0,0,0-1.581,1.4l-.147,1.287a.3.3,0,0,0,.257.368c.221.037.478.074.735.11l.184,3.052a.447.447,0,0,0,.441.441h1.4a.425.425,0,0,0,.441-.441l.184-3.052c.257-.037.478-.074.735-.11a.33.33,0,0,0,.257-.368L61.774,80.8A1.722,1.722,0,0,0,60.119,79.4Z"
                  transform="translate(-34.082 -48.626)" fill="#fff"/>
            <circle id="Ellipse_27" data-name="Ellipse 27" cx="1.507" cy="1.507" r="1.507"
                    transform="translate(23.941 27.355)" fill="#fff"/>
        </g>
    </g>
</svg>
