<?xml version="1.0" encoding="utf-8"?>
<!-- Generator: Adobe Illustrator 25.0.0, SVG Export Plug-In . SVG Version: 6.00 Build 0)  -->
<svg version="1.1" id="Calque_1" xmlns="http://www.w3.org/2000/svg" xmlns:xlink="http://www.w3.org/1999/xlink" x="0px" y="0px"
	 viewBox="0 0 54 54" style="enable-background:new 0 0 54 54;" xml:space="preserve">
<style type="text/css">
	.st0{fill:#F1C433;}
	.st1{fill:#FFFFFF;}
</style>
<g id="Groupe_752" transform="translate(-50 -47.682)">
	<g id="Groupe_751">
		<path id="Tracé_522" class="st0" d="M52.2,69.4l19.5-19.5c2.9-2.9,7.7-2.9,10.6,0c0,0,0,0,0,0l19.5,19.5c2.9,2.9,2.9,7.7,0,10.6
			c0,0,0,0,0,0L82.3,99.5c-2.9,2.9-7.7,2.9-10.6,0c0,0,0,0,0,0L52.2,80C49.3,77,49.3,72.3,52.2,69.4z"/>
	</g>
	<path class="st1" d="M81.5,63.9c-1.7-0.8-3.6-1.2-5.5-1.2h0c-3.2,0-6.3,1.2-8.4,3.5c-1.2,1.3-2.1,2.8-2.3,4.6
		c-0.3,2.8,1.2,5.5,3.7,6.7c0.8,0.4,1.5,0.7,2.3,1.1c0.8,0.4,1.2,1,1.3,1.8c0,0.9-0.4,1.5-1.1,1.9c-0.4,0.2-0.7,0.5-0.9,0.8
		c-0.8,1.1-0.3,2.5,1.1,3.1c1.5,0.7,3.1,1,4.8,1c4.2,0,8.1-2.2,10.4-5.7C90.7,75.1,88.3,67,81.5,63.9z M85.2,80.5
		c-1.9,3-5.2,4.8-8.7,4.8c-1.4,0-2.8-0.3-4-0.8c-0.1,0-0.2-0.1-0.3-0.2l0,0c0.1-0.1,0.2-0.2,0.4-0.3c1.4-0.8,2.1-2.1,2-3.7
		c-0.1-1.6-0.9-2.8-2.4-3.5l-0.4-0.2c-0.7-0.3-1.3-0.6-1.9-0.9c-1.8-0.9-2.8-2.8-2.6-4.8c0.1-1.2,0.7-2.3,1.8-3.5
		c1.7-1.8,4.2-2.9,7-2.9c1.6,0,3.3,0.4,4.7,1c2.7,1.2,4.7,3.5,5.6,6.3C87.2,74.9,86.8,77.9,85.2,80.5L85.2,80.5z"/>
</g>
</svg>
