<?xml version="1.0" encoding="utf-8"?>
<!-- Generator: Adobe Illustrator 25.0.0, SVG Export Plug-In . SVG Version: 6.00 Build 0)  -->
<svg version="1.1" id="Calque_1" xmlns="http://www.w3.org/2000/svg" xmlns:xlink="http://www.w3.org/1999/xlink" x="0px" y="0px"
	 viewBox="0 0 54 54" style="enable-background:new 0 0 54 54;" xml:space="preserve">
<style type="text/css">
	.st0{fill:#EA2631;}
	.st1{fill:#FFFFFF;}
</style>
<g id="Groupe_752" transform="translate(-50 -47.682)">
	<path id="Tracé_522" class="st0" d="M52.2,69.4l19.5-19.5c2.9-2.9,7.7-2.9,10.6,0c0,0,0,0,0,0l19.5,19.5c2.9,2.9,2.9,7.7,0,10.6
		c0,0,0,0,0,0L82.3,99.5c-2.9,2.9-7.7,2.9-10.6,0c0,0,0,0,0,0L52.2,80C49.3,77,49.3,72.3,52.2,69.4z"/>
</g>
<g>
	<path class="st1" d="M13.3,23v2.4h7.8v-7.8H18c0,0.1,0.1,0.2,0.1,0.3c0,0.1,0,0.3-0.1,0.4c-0.2,0.4-0.7,0.5-1.1,0.3
		c-0.1-0.1-0.2-0.2-0.3-0.3c-0.1-0.1-0.1-0.3-0.1-0.4c0-0.1,0-0.2,0.1-0.3h-3.1v2.4c-0.8,0.2-1.2,1.1-1,1.9
		C12.5,22.4,12.8,22.8,13.3,23z"/>
	<path class="st1" d="M24.7,14.9c0.3,0.1,0.5,0.2,0.8,0.4c0.3,0.1,0.4,0.3,0.4,0.6c0,0.3-0.1,0.5-0.4,0.7c-0.1,0.1-0.2,0.2-0.3,0.3
		c-0.3,0.4-0.1,0.9,0.4,1.1c0.5,0.2,1.1,0.3,1.6,0.3c1.4,0,2.8-0.7,3.5-2c1.3-2.2,0.5-5-1.8-6c-0.6-0.3-1.2-0.4-1.9-0.4h0
		c-1.1,0-2.2,0.4-2.9,1.2c-0.4,0.4-0.7,1-0.8,1.6C23.3,13.5,23.8,14.5,24.7,14.9z"/>
	<path class="st1" d="M11,31.4l2.2,1.2v2.3c0,0.3,0.2,0.6,0.4,0.8c0.9,0.6,2,0.9,3,0.9c1.1,0,2.1-0.3,3-0.9c0.3-0.2,0.4-0.5,0.4-0.8
		v-2.3l2.2-1.2l-5.6-3.1L11,31.4z"/>
	<path class="st1" d="M28.4,35.3L28.4,35.3c-1.4,0-2.8,0.8-3.5,2c-1.7,0.3-2.8,1.9-2.5,3.6c0.3,1.5,1.6,2.6,3.1,2.6h3
		c2.3,0,4.1-1.8,4.1-4.1C32.5,37.1,30.7,35.3,28.4,35.3z"/>
	<path class="st1" d="M37.4,29.4c-0.3,0.1-0.5,0.3-0.4,0.6c0,0,0,0,0,0.1l1.1,3.3l-3.3,1.1c-0.3,0.1-0.4,0.4-0.3,0.7
		c0,0,0,0.1,0,0.1c1,2,3.5,2.8,5.5,1.7s2.8-3.5,1.7-5.5C40.9,30,39.2,29.1,37.4,29.4z"/>
	<path class="st1" d="M36.2,24.8c0.1,0.2,0.2,0.7,0.8,0.8h2.3c0.6,0,0.8-0.5,0.9-0.8c0.1-0.3,0.3-0.8,0.8-1.3
		c1.2-1.1,1.5-2.8,0.8-4.1c-0.6-1.2-1.9-1.9-3.6-1.9c-1.7,0-3,0.7-3.6,1.9c-0.7,1.3-0.3,2.9,0.8,4.1C36,24,36.1,24.4,36.2,24.8z"/>
</g>
</svg>
