<?xml version="1.0" encoding="utf-8"?>
<!-- Generator: Adobe Illustrator 25.0.0, SVG Export Plug-In . SVG Version: 6.00 Build 0)  -->
<svg version="1.1" id="Calque_1" xmlns="http://www.w3.org/2000/svg" xmlns:xlink="http://www.w3.org/1999/xlink" x="0px"
     y="0px"
     viewBox="0 0 54 54" style="enable-background:new 0 0 54 54;" xml:space="preserve">
<style type="text/css">
	.st0{fill:#E69535;}
	.st1{fill:#FFFFFF;}
</style>
    <g id="Groupe_752" transform="translate(-50 -47.682)">
	<g id="Groupe_751">
		<path id="Tracé_522" class="st0" d="M52.2,69.4l19.5-19.5c2.9-2.9,7.7-2.9,10.6,0c0,0,0,0,0,0l19.5,19.5c2.9,2.9,2.9,7.7,0,10.6
			c0,0,0,0,0,0L82.3,99.5c-2.9,2.9-7.7,2.9-10.6,0c0,0,0,0,0,0L52.2,80C49.3,77,49.3,72.3,52.2,69.4z"/>
	</g>
        <path class="st1" d="M75.7,62.2c6.3-0.3,11.6,4.5,12,10.7c0.3,6.3-4.5,11.6-10.7,12c-3.9,0.2-7.7-1.6-10-4.9
		c-0.3-0.4-0.2-1,0.2-1.2c0.1,0,0.1-0.1,0.2-0.1l9.5-3.2l1.8-0.6L78.2,73l-3.2-9.6c-0.2-0.5,0.1-1,0.6-1.1
		C75.6,62.2,75.7,62.2,75.7,62.2z M76.3,73.6l-10.8,3.7c-0.9,0.3-1.4,1.3-1.1,2.2c0,0.1,0.1,0.2,0.1,0.2c3.4,6.5,11.4,9,17.9,5.7
		c6.5-3.4,9-11.4,5.7-17.9c-2.7-5.2-8.4-8-14.1-6.9c-0.9,0.2-1.5,1.1-1.4,2c0,0.1,0,0.2,0.1,0.2L76.3,73.6z"/>
</g>
</svg>
