<?xml version="1.0" encoding="utf-8"?>
<!-- Generator: Adobe Illustrator 25.0.0, SVG Export Plug-In . SVG Version: 6.00 Build 0)  -->
<svg version="1.1" id="Calque_1" xmlns="http://www.w3.org/2000/svg" xmlns:xlink="http://www.w3.org/1999/xlink" x="0px" y="0px"
	 viewBox="0 0 54 54" style="enable-background:new 0 0 54 54;" xml:space="preserve">
<style type="text/css">
	.st0{fill:#7B6AA7;}
	.st1{fill:#FFFFFF;}
</style>
<g id="Groupe_752" transform="translate(-50 -47.682)">
	<g id="Groupe_751">
		<path id="Tracé_522" class="st0" d="M52.2,69.4l19.5-19.5c2.9-2.9,7.7-2.9,10.6,0c0,0,0,0,0,0l19.5,19.5c2.9,2.9,2.9,7.7,0,10.6
			c0,0,0,0,0,0L82.3,99.5c-2.9,2.9-7.7,2.9-10.6,0c0,0,0,0,0,0L52.2,80C49.3,77,49.3,72.3,52.2,69.4z"/>
	</g>
	<path class="st1" d="M77.5,84.6c-2.8,0-5.5-0.8-7.9-2.3c-0.7-0.5-1.1-1.2-1.1-2v-6.1l-5.6-3l14.6-7.9L92,71.1l-5.6,3v6.1
		c0,0.8-0.4,1.6-1.1,2C83,83.8,80.2,84.6,77.5,84.6z M70.2,75.2v5.1c0,0.2,0.1,0.5,0.3,0.6c4.2,2.7,9.7,2.7,13.9,0
		c0.2-0.1,0.3-0.4,0.3-0.6v-5l-7.3,3.9L70.2,75.2z M66.5,71.1l11,6l11-6l-11-6L66.5,71.1z"/>
</g>
</svg>
