<svg xmlns="http://www.w3.org/2000/svg" width="53.972" height="54" viewBox="0 0 53.972 54">
  <g id="Groupe_750" data-name="Groupe 750" transform="translate(-50 -47.682)">
    <path id="Tracé_522" data-name="Tracé 522" d="M19.3,44.051l19.5-19.5a7.485,7.485,0,0,1,10.6,0l19.5,19.5a7.485,7.485,0,0,1,0,10.6l-19.5,19.5a7.485,7.485,0,0,1-10.6,0l-19.5-19.5A7.553,7.553,0,0,1,19.3,44.051Z" transform="translate(32.875 25.332)" fill="#ea2631"/>
    <g id="Groupe_749" data-name="Groupe 749" transform="translate(52.078 50.271)">
      <path id="Tracé_683" data-name="Tracé 683" d="M15.607,16.764h.765V14.057c0-1.863-.866-2.421-1.382-2.589a2.683,2.683,0,0,0,.616,5.3Z" transform="translate(0 -0.164)" fill="#f4f5f7"/>
      <path id="Tracé_684" data-name="Tracé 684" d="M16.372,74.136V71.451h-.765a2.683,2.683,0,0,0-.655,5.286C15.462,76.584,16.372,76.047,16.372,74.136Z" transform="translate(0 -41.551)" fill="#f4f5f7"/>
      <path id="Tracé_685" data-name="Tracé 685" d="M38.371,11.23H20.846c.148.007,1.741.135,1.741,2.662V32.585c0,2.65-1.756,2.663-1.756,2.663h-.3a2.682,2.682,0,0,0,.325.022l1.891-.022H38.582a2.58,2.58,0,0,0,2.58-2.58V14.022A2.791,2.791,0,0,0,38.371,11.23Zm-7.652,3.113.882-1.788.882,1.788,1.973.287-1.428,1.392.337,1.965L31.6,17.058l-1.765.928.337-1.965-1.428-1.392ZM37.245,28.69H26.567v-1.1H37.245Zm0-3.51H26.567v-1.1H37.245Zm0-3.35H26.567v-1.1H37.245Z" transform="translate(-5.251)" fill="#f4f5f7"/>
    </g>
  </g>
</svg>
