<?xml version="1.0" encoding="utf-8"?>
<!-- Generator: Adobe Illustrator 23.0.4, SVG Export Plug-In . SVG Version: 6.00 Build 0)  -->
<svg version="1.1" id="Calque_1" xmlns="http://www.w3.org/2000/svg" xmlns:xlink="http://www.w3.org/1999/xlink" x="0px" y="0px"
	 viewBox="0 0 99 99" style="enable-background:new 0 0 99 99;" xml:space="preserve">
<style type="text/css">
	.st0{fill:#EA2631;}
</style>
<title>Plan de travail 1</title>
<g>
	<path class="st0" d="M45.8,98.8c-8.6,0-17.1-4.2-22.2-11.8L5.4,59.5c-8-12.2-4.7-28.7,7.4-36.8L40.2,4.5c12.2-8,28.7-4.7,36.8,7.4
		l12,18.5l-5,3.3L72,15.2C65.8,5.9,53,3.3,43.6,9.5L16.1,27.7c-9.4,6.3-12,19-5.7,28.5l18.2,27.5c6.3,9.4,19,12,28.5,5.7l3.3,5
		C55.9,97.4,50.8,98.8,45.8,98.8z"/>
</g>
</svg>
