<?xml version="1.0" encoding="utf-8"?>
<!-- Generator: Adobe Illustrator 25.0.0, SVG Export Plug-In . SVG Version: 6.00 Build 0)  -->
<svg version="1.1" id="Calque_1" xmlns="http://www.w3.org/2000/svg" xmlns:xlink="http://www.w3.org/1999/xlink" x="0px"
     y="0px"
     viewBox="0 0 54 54" style="enable-background:new 0 0 54 54;" xml:space="preserve">
<style type="text/css">
	.st0{fill:#9EBE44;}
	.st1{fill:#FFFFFF;}
</style>
    <g id="Groupe_752" transform="translate(-50 -47.682)">
	<g id="Groupe_751">
		<path id="Tracé_522" class="st0" d="M52.2,69.4l19.5-19.5c2.9-2.9,7.7-2.9,10.6,0c0,0,0,0,0,0l19.5,19.5c2.9,2.9,2.9,7.7,0,10.6
			c0,0,0,0,0,0L82.3,99.5c-2.9,2.9-7.7,2.9-10.6,0c0,0,0,0,0,0L52.2,80C49.3,77,49.3,72.3,52.2,69.4z"/>
	</g>
        <path class="st1" d="M67,70.7c-2.2,0.7-3.5,3-2.8,5.2c0.4,1.3,1.5,2.4,2.8,2.8v6.8h21.7V63.8h-8.8c0.1,0.3,0.2,0.5,0.2,0.8
		c0,0.4-0.1,0.8-0.3,1.1c-0.6,1.1-2,1.4-3.1,0.8c-0.3-0.2-0.6-0.5-0.8-0.8c-0.2-0.3-0.3-0.7-0.3-1.1c0-0.3,0.1-0.5,0.2-0.8H67V70.7z
		 M77.9,68.7c1.9,0,3.6-1.3,4.2-3.1h5v18.3H68.7v-7C68.5,77,68.2,77,68,77c-1.3,0-2.3-1-2.3-2.3s1-2.3,2.3-2.3c0.3,0,0.5,0,0.8,0.1
		v-7h5C74.3,67.4,76,68.7,77.9,68.7L77.9,68.7z"/>
</g>
</svg>
