<?xml version="1.0" encoding="utf-8"?>
<!-- Generator: Adobe Illustrator 25.1.0, SVG Export Plug-In . SVG Version: 6.00 Build 0)  -->
<svg version="1.1" id="Calque_1" xmlns="http://www.w3.org/2000/svg" xmlns:xlink="http://www.w3.org/1999/xlink" x="0px" y="0px"
	 viewBox="0 0 54 54" style="enable-background:new 0 0 54 54;" xml:space="preserve">
<style type="text/css">
	.st0{fill:#EA2631;}
	.st1{fill:#FFFFFF;}
</style>
<g id="Groupe_750" transform="translate(-50 -47.682)">
	<path id="Tracé_522" class="st0" d="M52.2,69.4l19.5-19.5c2.9-2.9,7.7-2.9,10.6,0l0,0l19.5,19.5c2.9,2.9,2.9,7.7,0,10.6l0,0
		L82.3,99.5c-2.9,2.9-7.7,2.9-10.6,0l0,0L52.2,80C49.3,77,49.3,72.3,52.2,69.4z"/>
	<g>
		<path class="st1" d="M77,62.2c-6.5,0-11.8,5.3-11.8,11.8c0,6.5,5.3,11.8,11.8,11.8S88.8,80.5,88.8,74C88.8,67.5,83.5,62.2,77,62.2
			z M77,67.4c1.1,0,2,0.9,2,2s-0.9,2-2,2s-2-0.9-2-2S75.9,67.4,77,67.4z M79.7,79.5c0,0.3-0.3,0.6-0.6,0.6h-4.2
			c-0.3,0-0.6-0.3-0.6-0.6v-1.1c0-0.3,0.3-0.6,0.6-0.6h0.6v-3h-0.6c-0.3,0-0.6-0.3-0.6-0.6v-1.1c0-0.3,0.3-0.6,0.6-0.6h3
			c0.3,0,0.6,0.3,0.6,0.6v4.8h0.6c0.3,0,0.6,0.3,0.6,0.6V79.5z"/>
	</g>
</g>
</svg>
