<?xml version="1.0" encoding="utf-8"?>
<!-- Generator: Adobe Illustrator 25.0.0, SVG Export Plug-In . SVG Version: 6.00 Build 0)  -->
<svg version="1.1" id="Calque_1" xmlns="http://www.w3.org/2000/svg" xmlns:xlink="http://www.w3.org/1999/xlink" x="0px"
     y="0px"
     viewBox="0 0 54 54" style="enable-background:new 0 0 54 54;" xml:space="preserve">
<style type="text/css">
	.st0{fill:#4DA7C4;}
	.st1{fill:#FFFFFF;}
</style>
    <g id="Groupe_752" transform="translate(-50 -47.682)">
	<g id="Groupe_751">
		<path id="Tracé_522" class="st0" d="M52.2,69.4l19.5-19.5c2.9-2.9,7.7-2.9,10.6,0c0,0,0,0,0,0l19.5,19.5c2.9,2.9,2.9,7.7,0,10.6
			c0,0,0,0,0,0L82.3,99.5c-2.9,2.9-7.7,2.9-10.6,0c0,0,0,0,0,0L52.2,80C49.3,77,49.3,72.3,52.2,69.4z"/>
	</g>
        <path class="st1" d="M79.5,63.2C79.5,63.2,79.5,63.2,79.5,63.2l-1.1,0l0.1,0.1c-3.3,0.3-6.3,2.2-8,5c-2.1,0.4-3.9,1.6-5.2,3.4
		c-1.3,1.8-1.7,4-1.3,6.1c0.7,3.9,4.1,6.8,8.1,6.8h7.5c2.8,0,5.5-1.1,7.5-3.1c2-2,3.1-4.7,3.1-7.5C90.2,68,85.4,63.2,79.5,63.2z
		 M79.5,65.4C79.5,65.4,79.5,65.4,79.5,65.4C79.5,65.4,79.5,65.4,79.5,65.4C79.5,65.4,79.5,65.4,79.5,65.4c2.3,0,4.4,0.9,6,2.5
		c1.6,1.6,2.5,3.7,2.5,6c0,2.3-0.9,4.4-2.5,6c-1.6,1.6-3.7,2.5-6,2.5H72c-1.6,0-3.1-0.7-4.3-1.8c-1.1-1.2-1.7-2.7-1.7-4.3
		c0-2.9,2.1-5.4,4.9-5.9l0.8-0.1l0.4-0.7C73.7,67,76.5,65.4,79.5,65.4z"/>
</g>
</svg>
