<?xml version="1.0" encoding="utf-8"?>
<!-- Generator: Adobe Illustrator 24.0.2, SVG Export Plug-In . SVG Version: 6.00 Build 0)  -->
<svg version="1.1" id="Calque_1" xmlns="http://www.w3.org/2000/svg" xmlns:xlink="http://www.w3.org/1999/xlink" x="0px"
     y="0px"
     viewBox="0 0 54 54" style="enable-background:new 0 0 54 54;" xml:space="preserve">
<style type="text/css">
	.st0{fill:#EA2631;}
	.st1{fill:#FFFFFF;}
</style>
    <g id="Groupe_750" transform="translate(-50 -47.682)">
	<path id="Tracé_522" class="st0" d="M52.2,69.4l19.5-19.5c2.9-2.9,7.7-2.9,10.6,0c0,0,0,0,0,0l19.5,19.5c2.9,2.9,2.9,7.7,0,10.6
		c0,0,0,0,0,0L82.3,99.5c-2.9,2.9-7.7,2.9-10.6,0c0,0,0,0,0,0L52.2,80C49.3,77,49.3,72.3,52.2,69.4z"/>
        <path class="st1" d="M89.2,82.9L84.3,78c-0.7-0.7-1.8-0.8-2.7-0.3L80,76.1c0.7-0.8,1.2-1.7,1.6-2.6c0-0.1,0.1-0.1,0.1-0.2
		c0.6-1.7,0.7-3.6,0.2-5.3c-1.3-4.6-6.2-7.3-10.8-6c-4.6,1.3-7.3,6.2-6,10.8c1.1,3.8,4.5,6.4,8.4,6.4c0.2,0,0.4,0,0.6,0
		c1.9-0.1,3.7-0.9,5.1-2.2l1.6,1.6c-0.5,0.9-0.4,2,0.3,2.7l4.9,4.9c0.9,0.9,2.3,0.8,3.1,0S90,83.8,89.2,82.9z M73.9,77.1
		c-0.2,0-0.3,0-0.5,0c-0.5,0-0.9,0-1.4-0.1c-3.7-0.8-6.2-4.4-5.4-8.1c0.8-3.7,4.4-6.2,8.1-5.4c3.7,0.8,6.2,4.4,5.4,8.1
		c0,0.1-0.1,0.3-0.1,0.4c0,0.1,0,0.1-0.1,0.2c0,0.1-0.1,0.2-0.1,0.3l-0.1,0.2C78.8,75.2,76.5,76.9,73.9,77.1z"/>
        <circle class="st1" cx="69" cy="81" r="1.4"/>
        <path class="st1" d="M71,84.4v0.7c0,0.3-0.2,0.5-0.5,0.5h-2.7c-0.3,0-0.5-0.2-0.5-0.5v-0.7c0-0.9,0.9-1.7,1.9-1.7S71,83.4,71,84.4z
		"/>
        <circle class="st1" cx="86.3" cy="65.4" r="1.4"/>
        <path class="st1" d="M88.2,68.8v0.7c0,0.3-0.2,0.5-0.5,0.5h-2.7c-0.3,0-0.5-0.2-0.5-0.5v-0.7c0-0.9,0.9-1.7,1.9-1.7
		S88.2,67.9,88.2,68.8z"/>
        <path class="st1" d="M75.8,66.9c0,1.4-1.1,2.5-2.4,2.6h-0.2c-0.1,0-0.3,0-0.4,0c-0.8-0.1-1.5-0.6-1.9-1.3c-0.2-0.4-0.3-0.8-0.3-1.3
		c0-1.4,1.2-2.6,2.6-2.6c0.4,0,0.8,0.1,1.2,0.3C75.2,65,75.8,65.9,75.8,66.9z"/>
        <path class="st1" d="M77,73.3v1.6c0,0.3-0.2,0.5-0.5,0.5h-6.7c-0.3,0-0.5-0.2-0.5-0.5v-1.6c0-1.1,0.6-2.1,1.5-2.7
		c0.5-0.3,1-0.5,1.6-0.6c0.2,0,0.5-0.1,0.7-0.1C75.3,69.9,77,71.4,77,73.3z"/>
</g>
</svg>
