<svg xmlns="http://www.w3.org/2000/svg" width="53.972" height="54" viewBox="0 0 53.972 54">
    <g id="Groupe_754" data-name="Groupe 754" transform="translate(-50 -47.682)">
        <path id="Tracé_522" data-name="Tracé 522"
              d="M19.3,44.051l19.5-19.5a7.485,7.485,0,0,1,10.6,0l19.5,19.5a7.485,7.485,0,0,1,0,10.6l-19.5,19.5a7.485,7.485,0,0,1-10.6,0l-19.5-19.5A7.553,7.553,0,0,1,19.3,44.051Z"
              transform="translate(32.875 25.332)" fill="#ea2631"/>
        <g id="Groupe_753" data-name="Groupe 753" transform="translate(63.5 34.556)">
            <circle id="Ellipse_38" data-name="Ellipse 38" cx="3.618" cy="3.618" r="3.618"
                    transform="translate(10.224 35.354)" fill="#f4f5f7"/>
            <path id="Tracé_685" data-name="Tracé 685"
                  d="M26.336,38.585a1.207,1.207,0,0,0-1.568.674L22.94,43.827l-3.565-2.674a1.2,1.2,0,0,0-.724-.241H9a1.205,1.205,0,0,0-.724.241L4.715,43.827,2.888,39.259a1.206,1.206,0,1,0-2.24.895l2.412,6.03A1.206,1.206,0,0,0,4.9,46.7l4.1-3.075V50.56h9.648V43.626l4.1,3.075a1.205,1.205,0,0,0,.724.241A1.317,1.317,0,0,0,23.8,46.9a1.207,1.207,0,0,0,.795-.714l2.412-6.03A1.213,1.213,0,0,0,26.336,38.585Z"
                  transform="translate(0.013 2.883)" fill="#f4f5f7"/>
            <path id="Tracé_686" data-name="Tracé 686"
                  d="M13.118,31.736A3.618,3.618,0,1,0,9.5,28.118,3.618,3.618,0,0,0,13.118,31.736Zm0-6.03a2.412,2.412,0,1,1-2.412,2.412A2.414,2.414,0,0,1,13.118,25.706Z"
                  transform="translate(1.854 0)" fill="#f4f5f7"/>
            <path id="Tracé_687" data-name="Tracé 687" d="M21.324,27.5,16.5,35.942h9.648Zm0,2.431,2.745,4.8H18.578Z"
                  transform="translate(3.296 0.618)" fill="#f4f5f7"/>
            <path id="Tracé_688" data-name="Tracé 688"
                  d="M10.148,33.324,5.324,28.5.5,33.324l4.824,4.824ZM5.324,30.205l3.119,3.119L5.324,36.443,2.205,33.324Z"
                  transform="translate(0 0.824)" fill="#f4f5f7"/>
        </g>
    </g>
</svg>
