<svg xmlns="http://www.w3.org/2000/svg" width="53.972" height="54" viewBox="0 0 53.972 54">
    <g id="Groupe_750" data-name="Groupe 750" transform="translate(-50 -47.682)">
        <path id="Tracé_522" data-name="Tracé 522"
              d="M19.3,44.051l19.5-19.5a7.485,7.485,0,0,1,10.6,0l19.5,19.5a7.485,7.485,0,0,1,0,10.6l-19.5,19.5a7.485,7.485,0,0,1-10.6,0l-19.5-19.5A7.553,7.553,0,0,1,19.3,44.051Z"
              transform="translate(32.875 25.332)" fill="#ea2631"/>
        <g id="Groupe_631" data-name="Groupe 631" transform="translate(60.444 57.613)">
            <rect id="Rectangle_115" data-name="Rectangle 115" width="1.652" height="1.652"
                  transform="translate(16.096 1.7)" fill="#fff"/>
            <rect id="Rectangle_116" data-name="Rectangle 116" width="1.652" height="1.652"
                  transform="translate(16.096 31.336)" fill="#fff"/>
            <rect id="Rectangle_117" data-name="Rectangle 117" width="1.652" height="1.652"
                  transform="translate(5.246 26.574)" fill="#fff"/>
            <rect id="Rectangle_118" data-name="Rectangle 118" width="1.652" height="1.652"
                  transform="translate(26.493 26.574)" fill="#fff"/>
            <rect id="Rectangle_119" data-name="Rectangle 119" width="1.652" height="1.652"
                  transform="translate(5.246 6.234)" fill="#fff"/>
            <rect id="Rectangle_120" data-name="Rectangle 120" width="1.652" height="1.652"
                  transform="translate(26.493 6.234)" fill="#fff"/>
            <rect id="Rectangle_121" data-name="Rectangle 121" width="1.652" height="1.652"
                  transform="translate(1.1 16.372)" fill="#fff"/>
            <rect id="Rectangle_122" data-name="Rectangle 122" width="1.652" height="1.652"
                  transform="translate(31.124 16.372)" fill="#fff"/>
            <path id="Tracé_538" data-name="Tracé 538"
                  d="M5.532,24.1a14.642,14.642,0,0,0-2.3,6.186l-.032.194h.972l.032-.162a14.645,14.645,0,0,1,2.364-6.057L6.763,24H5.629Z"
                  transform="translate(-1.42 -15.077)" fill="#fff"/>
            <path id="Tracé_539" data-name="Tracé 539"
                  d="M4.072,55.262,4.039,55.1H3.1l.032.194A15.269,15.269,0,0,0,5.4,61.642l.065.065H6.6L6.4,61.448A14.691,14.691,0,0,1,4.072,55.262Z"
                  transform="translate(-1.352 -36.105)" fill="#fff"/>
            <path id="Tracé_540" data-name="Tracé 540"
                  d="M88.426,30.483l.032.162h.972l-.032-.194a15.56,15.56,0,0,0-2.3-6.186l-.065-.065H85.9l.194.259A14.731,14.731,0,0,1,88.426,30.483Z"
                  transform="translate(-57.335 -15.213)" fill="#fff"/>
            <path id="Tracé_541" data-name="Tracé 541"
                  d="M88.559,55.1l-.032.162a14.53,14.53,0,0,1-2.332,6.186L86,61.74h1.134l.065-.065a14.679,14.679,0,0,0,2.267-6.348l.032-.194-.939-.032Z"
                  transform="translate(-57.402 -36.105)" fill="#fff"/>
            <path id="Tracé_542" data-name="Tracé 542"
                  d="M61.524,6.306l.032.032h1.619l-.421-.324a14.769,14.769,0,0,0-7.061-2.883L55.5,3.1v.972l.162.032A13.757,13.757,0,0,1,61.524,6.306Z"
                  transform="translate(-36.781 -0.947)" fill="#fff"/>
            <path id="Tracé_543" data-name="Tracé 543"
                  d="M21.021,6.015l-.421.324h1.619l.032-.032a14.021,14.021,0,0,1,5.927-2.2l.162-.032V3.1l-.194.032A15,15,0,0,0,21.021,6.015Z"
                  transform="translate(-13.184 -0.947)" fill="#fff"/>
            <path id="Tracé_544" data-name="Tracé 544"
                  d="M61.619,86.732a14.542,14.542,0,0,1-6.057,2.3l-.162.032v.972L55.594,90a15.16,15.16,0,0,0,7.223-2.98l.421-.324-1.619.032Z"
                  transform="translate(-36.713 -57.47)" fill="#fff"/>
            <path id="Tracé_545" data-name="Tracé 545"
                  d="M21.852,86.732l-.065-.032H20.2l.421.324A15.274,15.274,0,0,0,27.876,90l.194.032v-.972L27.908,89A14.772,14.772,0,0,1,21.852,86.732Z"
                  transform="translate(-12.914 -57.47)" fill="#fff"/>
            <path id="Tracé_546" data-name="Tracé 546"
                  d="M33.355,37.825a4.244,4.244,0,0,1,7.417-2.818V29.436a.954.954,0,0,0-.972-.972H35.978v-.583A1.776,1.776,0,0,0,34.2,26.1H30.31a1.776,1.776,0,0,0-1.781,1.781v.583H24.772a.954.954,0,0,0-.972.972V40.092a.954.954,0,0,0,.972.972H34.844A4.266,4.266,0,0,1,33.355,37.825ZM29.6,27.881a.684.684,0,0,1,.68-.68h3.887a.684.684,0,0,1,.68.68v.583H29.6Z"
                  transform="translate(-15.348 -16.497)" fill="#fff"/>
            <path id="Tracé_547" data-name="Tracé 547"
                  d="M60.391,53.6a2.591,2.591,0,1,0,0,5.182,2.812,2.812,0,0,0,1.263-.324l.065-.032h0l1.036,1.036a.536.536,0,0,0,.389.162h0a.553.553,0,0,0,.551-.551.6.6,0,0,0-.162-.389l-1-1,.032-.065a2.454,2.454,0,0,0,.421-1.425A2.6,2.6,0,0,0,60.391,53.6Zm0,4.243a1.652,1.652,0,1,1,1.652-1.652A1.638,1.638,0,0,1,60.391,57.843Z"
                  transform="translate(-38.336 -35.09)" fill="#fff"/>
        </g>
    </g>
</svg>
