<svg xmlns="http://www.w3.org/2000/svg" width="53.972" height="54" viewBox="0 0 53.972 54">
    <g id="Groupe_755" data-name="Groupe 755" transform="translate(-50 -47.682)">
        <g id="Groupe_752" data-name="Groupe 752">
            <path id="Tracé_522" data-name="Tracé 522"
                  d="M19.3,44.051l19.5-19.5a7.485,7.485,0,0,1,10.6,0l19.5,19.5a7.485,7.485,0,0,1,0,10.6l-19.5,19.5a7.485,7.485,0,0,1-10.6,0l-19.5-19.5A7.553,7.553,0,0,1,19.3,44.051Z"
                  transform="translate(32.875 25.332)" fill="#ea2631"/>
            <g id="Groupe_755-2" data-name="Groupe 755" transform="translate(56 53.832)">
                <path id="Tracé_689" data-name="Tracé 689"
                      d="M35.439,48.373l-.035.141-2.361.7C32.374,49.43,31.6,51.4,31,54.5a13.1,13.1,0,0,0,6.694,1.832,7.364,7.364,0,0,0,.881-.035,13.2,13.2,0,0,0,5.848-1.8c-.6-3.065-1.374-5.109-2.043-5.285l-2.361-.7-.035-.141a.471.471,0,0,0-.247-.282l-.282-.176.176-.211a2.31,2.31,0,0,0,.423-.564,4.556,4.556,0,0,0,.634-1.233l.211-.528.035-.07.07-.035a.634.634,0,0,0,.247-.528v-.7a.677.677,0,0,0-.141-.423l-.035-.07V42.489A2.9,2.9,0,0,0,38.187,39.6H37.166a2.9,2.9,0,0,0-2.889,2.889v1.057l-.035.07a.863.863,0,0,0-.141.423v.7a.689.689,0,0,0,.247.528l.07.035.035.07a2.037,2.037,0,0,0,.176.493A6,6,0,0,0,35.3,47.1c.141.211.282.388.423.564l.176.211-.247.176C35.58,48.2,35.474,48.267,35.439,48.373Z"
                      transform="translate(-16.84 -22.28)" fill="#f4f5f7"/>
                <path id="Tracé_690" data-name="Tracé 690"
                      d="M18.532,48.482c.07-.388.176-.775.282-1.2.881-3.629,1.8-4.334,2.572-4.58l1.339-.388a6.737,6.737,0,0,1-.564-1.127c-.035-.106-.106-.247-.141-.352h0l-1.445-.423-.035-.141a.471.471,0,0,0-.247-.282l-.247-.211.176-.211c.141-.176.282-.352.423-.564a4.933,4.933,0,0,0,.634-1.2l.211-.528.035-.07.07-.035a.634.634,0,0,0,.247-.528v-.7a.677.677,0,0,0-.141-.423l-.035-.07V34.389A2.9,2.9,0,0,0,18.779,31.5H17.757a2.9,2.9,0,0,0-2.889,2.889v1.057l-.035.07a.863.863,0,0,0-.141.423v.7a.689.689,0,0,0,.247.528l.07.035.035.07a1.235,1.235,0,0,0,.211.493A6,6,0,0,0,15.925,39c.141.211.282.388.423.564l.176.211-.247.176a.592.592,0,0,0-.247.282L16,40.378l-2.361.7H13.6A13.349,13.349,0,0,0,18.532,48.482Z"
                      transform="translate(-5.57 -17.034)" fill="#f4f5f7"/>
                <path id="Tracé_691" data-name="Tracé 691"
                      d="M65.432,31.4H64.411a2.9,2.9,0,0,0-2.889,2.889v1.057l-.035.07a.938.938,0,0,0-.106.423v.7a.689.689,0,0,0,.247.528l.07.035.035.07c.07.176.106.352.176.493a6,6,0,0,0,.669,1.233c.106.141.247.352.423.564l.176.211-.247.176a.592.592,0,0,0-.247.282l-.035.141L61.2,40.7h0c-.035.141-.106.247-.141.388a11.2,11.2,0,0,1-.564,1.127l1.339.388c.775.211,1.691.951,2.572,4.51.106.423.211.846.282,1.268a13.083,13.083,0,0,0,2.043-1.9,13.345,13.345,0,0,0,2.889-5.5H69.59l-2.361-.7-.035-.141a.471.471,0,0,0-.247-.282l-.247-.141.211-.211c.141-.176.282-.352.423-.564a4.934,4.934,0,0,0,.634-1.2l.211-.528.035-.07.07-.035a.634.634,0,0,0,.247-.528v-.7a.677.677,0,0,0-.141-.423l-.035-.07V34.324A2.94,2.94,0,0,0,65.432,31.4Z"
                      transform="translate(-35.946 -16.969)" fill="#f4f5f7"/>
                <path id="Tracé_692" data-name="Tracé 692"
                      d="M21.02,9.534,19.927,9.5a15.112,15.112,0,0,1,19.73,0l-1.092.035.669.634,1.55-.07-.07-1.515-.669-.634L40.08,9.04A15.755,15.755,0,0,0,19.5,9.005l.035-1.092-.669.669-.07,1.55,1.55.07Z"
                      transform="translate(-8.938)" fill="#f4f5f7"/>
                <path id="Tracé_693" data-name="Tracé 693"
                      d="M35.088,30.1l-.775.388a14.836,14.836,0,0,1,1.55,6.588,15.009,15.009,0,1,1-30.018,0A14.836,14.836,0,0,1,7.4,30.488L6.621,30.1A15.549,15.549,0,0,0,5,37.041a15.854,15.854,0,1,0,31.709,0A15.549,15.549,0,0,0,35.088,30.1Z"
                      transform="translate(0 -16.127)" fill="#f4f5f7"/>
            </g>
        </g>
    </g>
</svg>
