<?xml version="1.0" encoding="utf-8"?>
<!-- Generator: Adobe Illustrator 25.0.0, SVG Export Plug-In . SVG Version: 6.00 Build 0)  -->
<svg version="1.1" id="Calque_1" xmlns="http://www.w3.org/2000/svg" xmlns:xlink="http://www.w3.org/1999/xlink" x="0px" y="0px"
	 viewBox="0 0 54 54" style="enable-background:new 0 0 54 54;" xml:space="preserve">
<style type="text/css">
	.st0{fill:#EA2631;}
	.st1{fill:#F4F5F7;}
</style>
<g id="Groupe_752" transform="translate(-50 -47.682)">
	<path id="Tracé_522" class="st0" d="M52.2,69.4l19.5-19.5c2.9-2.9,7.7-2.9,10.6,0c0,0,0,0,0,0l19.5,19.5c2.9,2.9,2.9,7.7,0,10.6
		c0,0,0,0,0,0L82.3,99.5c-2.9,2.9-7.7,2.9-10.6,0c0,0,0,0,0,0L52.2,80C49.3,77,49.3,72.3,52.2,69.4z"/>
	<g id="Groupe_751" transform="translate(54 52.1)">
		<path id="Tracé_682" class="st1" d="M34.6,18.5l-1.7,1.7c0.3,1,0.5,2,0.5,3c0,5.9-4.8,10.6-10.7,10.6S12,29.1,12,23.3
			s4.8-10.6,10.6-10.6c0,0,0,0,0,0c1,0,2,0.2,3,0.5l1.7-1.7c-6.6-2.6-14,0.6-16.6,7.2s0.6,14,7.2,16.6s14-0.6,16.6-7.2
			c0.6-1.5,0.9-3.1,0.9-4.7c0-1.3-0.2-2.6-0.6-3.9C34.8,19.1,34.7,18.8,34.6,18.5z"/>
		<path id="Tracé_683" class="st1" d="M22.7,17.4c0.3,0,0.5,0,0.8,0.1l0.7-0.7v-1.4c-0.5-0.1-0.9-0.1-1.4-0.1c-4.4,0-8,3.6-8,8
			s3.6,8,8,8s8-3.6,8-8c0,0,0,0,0,0c0-0.5,0-0.9-0.1-1.4h-1.5l-0.7,0.7c0,0.3,0.1,0.5,0.1,0.8c0,3.2-2.7,5.8-5.9,5.8
			s-5.8-2.7-5.8-5.9C16.9,20,19.5,17.4,22.7,17.4z"/>
		<path id="Tracé_684" class="st1" d="M26.8,15.8v2.1l-2.5,2.5c-1.6-0.9-3.5-0.3-4.4,1.2c-0.3,0.5-0.4,1-0.4,1.6c0,0.1,0,0.2,0,0.3
			c0.2,1.7,1.6,2.9,3.2,2.9c1.7,0,3.1-1.3,3.2-2.9c0-0.1,0-0.2,0-0.3c0-0.6-0.1-1.1-0.4-1.6l2.5-2.5h2.1l5.9-5.9h-3.3V9.9L26.8,15.8
			z"/>
	</g>
</g>
</svg>
