<svg xmlns="http://www.w3.org/2000/svg" width="53.972" height="54" viewBox="0 0 53.972 54">
  <g id="Groupe_752" data-name="Groupe 752" transform="translate(-50 -47.682)">
    <path id="Tracé_522" data-name="Tracé 522" d="M19.3,44.051l19.5-19.5a7.485,7.485,0,0,1,10.6,0l19.5,19.5a7.485,7.485,0,0,1,0,10.6l-19.5,19.5a7.485,7.485,0,0,1-10.6,0l-19.5-19.5A7.553,7.553,0,0,1,19.3,44.051Z" transform="translate(32.875 25.332)" fill="#ea2631"/>
    <g id="Groupe_751" data-name="Groupe 751" transform="translate(54 52.1)">
      <path id="Tracé_682" data-name="Tracé 682" d="M34.586,19.677,32.892,21.37a10.329,10.329,0,0,1,.456,3.029A10.649,10.649,0,1,1,22.7,13.749a10.5,10.5,0,0,1,3.029.456l1.693-1.693A12.793,12.793,0,1,0,35.5,24.4a12.546,12.546,0,0,0-.619-3.875C34.781,20.2,34.683,19.937,34.586,19.677Z" transform="translate(0 -1.146)" fill="#f4f5f7"/>
      <path id="Tracé_683" data-name="Tracé 683" d="M32.679,28.349a6.324,6.324,0,0,1,.782.065l.651-.651V26.33a6.8,6.8,0,0,0-1.4-.13,8.011,8.011,0,1,0,8.011,8.011,6.591,6.591,0,0,0-.13-1.4H39.127l-.651.651a6.323,6.323,0,0,1,.065.782,5.862,5.862,0,1,1-5.862-5.895Z" transform="translate(-9.98 -10.992)" fill="#f4f5f7"/>
      <path id="Tracé_684" data-name="Tracé 684" d="M46.493,15.762v2.117l-2.54,2.508A3.249,3.249,0,0,0,39.1,23.22a1.108,1.108,0,0,0,.033.326,3.275,3.275,0,0,0,3.224,2.931,3.225,3.225,0,0,0,3.224-2.931c0-.1.033-.228.033-.326a3.333,3.333,0,0,0-.423-1.6L47.7,19.116h2.117l5.862-5.862H52.355V9.9Z" transform="translate(-19.691)" fill="#f4f5f7"/>
    </g>
  </g>
</svg>
