<svg xmlns="http://www.w3.org/2000/svg" width="53.972" height="54" viewBox="0 0 53.972 54">
  <g id="Groupe_752" data-name="Groupe 752" transform="translate(-50 -47.682)">
    <path id="Tracé_522" data-name="Tracé 522" d="M19.3,44.051l19.5-19.5a7.485,7.485,0,0,1,10.6,0l19.5,19.5a7.485,7.485,0,0,1,0,10.6l-19.5,19.5a7.485,7.485,0,0,1-10.6,0l-19.5-19.5A7.553,7.553,0,0,1,19.3,44.051Z" transform="translate(32.875 25.332)" fill="#ea2631"/>
    <path id="Tracé_689" data-name="Tracé 689" d="M22.057,16h-11.3A8.246,8.246,0,0,0,2.5,24.256h0a8.3,8.3,0,0,0,4.216,7.2,16.292,16.292,0,0,1-1.639,2.811,1.032,1.032,0,0,0,1.113,1.61,28.633,28.633,0,0,0,7.466-3.367h8.4a8.246,8.246,0,0,0,8.256-8.256h0A8.246,8.246,0,0,0,22.057,16ZM11.781,25.369a.556.556,0,0,1-.556.556H9a.556.556,0,0,1-.556-.556V23.144A.556.556,0,0,1,9,22.587h2.225a.556.556,0,0,1,.556.556Zm6.295,0a.556.556,0,0,1-.556.556H15.294a.556.556,0,0,1-.556-.556V23.144a.556.556,0,0,1,.556-.556h2.225a.556.556,0,0,1,.556.556Zm6.295,0a.556.556,0,0,1-.556.556H21.588a.556.556,0,0,1-.556-.556V23.144a.556.556,0,0,1,.556-.556h2.225a.556.556,0,0,1,.556.556Z" transform="translate(61 50)" fill="#f4f5f7"/>
  </g>
</svg>
