<?xml version="1.0" encoding="utf-8"?>
<!-- Generator: Adobe Illustrator 26.0.2, SVG Export Plug-In . SVG Version: 6.00 Build 0)  -->
<svg version="1.1" id="Calque_1" xmlns="http://www.w3.org/2000/svg" xmlns:xlink="http://www.w3.org/1999/xlink" x="0px" y="0px"
	 viewBox="0 0 667.4 589.5" style="enable-background:new 0 0 667.4 589.5;" xml:space="preserve">
<style type="text/css">
	.st0{fill:#A0616A;}
	.st1{fill:#EA2631;}
	.st2{fill:#F2F2F2;}
	.st3{fill:#E6E6E6;}
	.st4{fill:#FFFFFF;}
	.st5{fill:#2F2E41;}
	.st6{fill:#3F3D56;}
	.st7{fill:#CACACA;}
</style>
<path class="st0" d="M517,377.6c-2.1-3.7-0.9-8.4,2.8-10.6c0.4-0.2,0.8-0.4,1.2-0.6l-0.4-27.4l12,7.7l-1.5,24.9
	c1.2,4.1-1.2,8.4-5.3,9.6C522.4,382.2,518.7,380.8,517,377.6z"/>
<path class="st1" d="M502.5,228.7c-7.3,1.3-12.8,7.6-12.9,15.1c-0.2,8,2.5,11,6.3,12.1c7,2,18.1,42.4,18.1,42.4s1.2,37.7,3.1,35.9
	s-0.3,2.5,0.3,3.8s-2.7,3.3,0.4,4.8s1.2,13.5,1.2,13.5l14-1c0,0-2.3-9.8,0.8-10.4s1.7-3.4,0.4-5.5s2.3-5.1,0.5-6.1s3.2-40,3.2-40
	l-19.5-57.5C515.1,230.4,508.7,227.6,502.5,228.7z"/>
<polygon class="st1" points="460,230.9 470.1,213.3 483.7,213.3 493.9,231.9 "/>
<path class="st2" d="M432.9,72.2c-8-27-30.8-44.6-58.3-48.4c-0.3,0-0.6,0-0.9,0c-0.4-0.1-0.8-0.2-1.2-0.3
	c-37.8-4.9-79,3.9-111.8,24.4C229.3,67.6,193.1,78.7,156,78.5c-1.2,0-2.3,0-3.5,0.1C124,80,98.8,100.8,91.1,128.1
	c-1,3.6,0.8,6.8,3.6,8.8c5,3.6,8.4,6.1,14.5,7.4c11,2.3,21.9,4.5,33,6.4v-43.9c0-8.7,7-15.7,15.7-15.7h215.5c8.7,0,15.7,7,15.7,15.7
	v54.7c3-0.9,5.8-2.1,8.6-3.4c10.4-5.1,19.3-12.9,25.8-22.5C435.9,117.5,439.2,93.2,432.9,72.2z"/>
<path class="st2" d="M342.2,329.3H151.7c-9.2,0-16.6-7.4-16.6-16.6v-73.9c-23.2-7.1-47.6-9.2-71.7-6.3c-0.4,0.1-0.8,0.2-1.2,0.3
	c-0.3,0-0.6,0-0.9,0c-27.5,3.9-50.2,21.5-58.3,48.4c-6.3,21-3,45.3,9.5,63.4c6.5,9.6,15.4,17.4,25.8,22.5
	c14.3,6.9,29.3,7.4,44.9,7.9c46.8,1.5,93.7-0.3,140.3-5.3c22.9-2.5,45.7-5.7,68.5-9.6c11.6-2,23.2-4.3,34.8-6.7
	c6.1-1.3,9.5-3.8,14.5-7.4c2.8-2,4.6-5.2,3.6-8.8C344.2,334.4,343.3,331.8,342.2,329.3z"/>
<path class="st3" d="M359,307.4H172.1c-7.5,0-13.6-6.1-13.6-13.6V120c0-7.5,6.1-13.6,13.6-13.6H359c7.5,0,13.6,6.1,13.6,13.6v173.7
	C372.6,301.3,366.6,307.4,359,307.4z"/>
<path class="st4" d="M319.7,298.2H181.3c-7.5,0-13.6-6.1-13.6-13.6V129.2c0-7.5,6.1-13.6,13.6-13.6h168.6c7.5,0,13.6,6.1,13.6,13.6
	v125.2C363.4,278.6,343.9,298.2,319.7,298.2z"/>
<circle class="st1" cx="265.9" cy="207.1" r="61"/>
<polygon class="st0" points="528.5,578.3 519.4,578.3 515.1,543.4 528.5,543.4 "/>
<path class="st5" d="M528.8,587.8l-27.8,0v-0.4c0-6,4.8-10.8,10.8-10.8h0l5.1-3.9l9.5,3.9l2.4,0L528.8,587.8z"/>
<polygon class="st0" points="460.5,578.3 451.4,578.3 447.1,543.4 460.5,543.4 "/>
<path class="st5" d="M460.8,587.8l-27.8,0v-0.4c0-6,4.8-10.8,10.8-10.8h0l5.1-3.9l9.5,3.9l2.4,0L460.8,587.8z"/>
<path class="st5" d="M531.3,549.4c3.3-2.2,1.4-2,1.4-2s-7.4-59.9-13-78l-6.5-88.3c0,0-0.4,1.8,0-2.5s3.4-1.3,0.4-4.3s-5-4.5-3-6.8
	s7.5-6.8,4.3-9.5s-9.7-20.6-9.7-20.6l-62.5,0.5l2.5-0.5c0,0-7.8-2.9-4.2,0.9s-2,13-4,22c-1.7,7.5-6.6,9.4,0,11c6.6,1.6,0.6,6,0.6,6
	s-9.9,47.1-2.4,78.1c0,0,5.2,76.7,7.8,83.3c2.6,6.6,3.6,2.6,2.6,6.6s-3-3-1,4c1.1,3.7,2,7.4,2.6,11.1l13.6-1c0,0,3.1-9.9,0-12.5
	s-1,5,2.4-0.8s-0.6-3.8-1.6-11.8s8.2-45.3,1.6-68.1l12.2-64.2l19.3,66.4c0,0,10.3,81.1,13.6,84c3.3,2.9,2-4.1,3.3,2.9
	c1.4,7,4.4,5.2,4.4,6c-0.9,9.2,15.3,0.1,15.3,0.1c-0.2-2.3-0.2-4.7,0-7C531.6,552.3,528,551.6,531.3,549.4z"/>
<path class="st6" d="M449,358.3c-4,0-15-5.4-13-7.7s2-9.9,2-12.1s9-83.2,9-83.2l-0.7-19.8c-0.2-4.9,3.7-9,8.6-9.2c0.1,0,0.2,0,0.3,0
	l8.8-3l25-1l12.5,4c4,0,7.2,3.2,7.2,7.2c0,1.1-0.3,2.3-0.8,3.3l0,0c6.6,10.8,9.9,23.3,9.6,36c-0.3,9.5-5.1,21-6.2,31.7
	c-0.1,0.9-0.2,1.9-0.2,2.8c0,0.3-2.1,1.5,0,0.8s-1.1,1.9,0,3.6s3.1,0.6,0.1,2.6s3.6,21.3,3,22c-2,2-6,3-3,6s6,1,2,5s-16,11-16,11
	H449z"/>
<circle class="st0" cx="475.7" cy="189.2" r="21.5"/>
<path class="st0" d="M344.6,255.9c3.9-1.7,8.5,0,10.2,3.9c0.2,0.4,0.3,0.8,0.4,1.3l27.3,2.6l-8.9,11.1l-24.6-4.2
	c-4.2,0.7-8.2-2.1-9-6.3C339.5,260.9,341.4,257.4,344.6,255.9L344.6,255.9z"/>
<path class="st1" d="M474.2,239.9c-1.3-7.3-7.6-12.8-15.1-12.9c-8-0.2-11,2.5-12.1,6.3c-2,7-34.2,31.6-34.2,31.6l-27.7-3
	c-1.7-0.5-0.9-2.1-7.1-0.8c-3.1-2-5.1-1.7-6.8-0.7l-10.2-1.1l1,16c0,0,11-2.6,13,2s1.6,5.3,6,2s4,0,4,0l32,8l50.1-31.4
	C472.5,252.5,475.3,246.2,474.2,239.9L474.2,239.9z"/>
<path class="st5" d="M484.1,208.4l1.4,0.5c-4.4,0.4-12.3,2.8-11.5,1.5s-2.1-6.5-0.7-7.1c1.5-0.5,2.8-1.4,3.8-2.6
	c0.9-1.3,0.9-3.3-0.5-4.1c-1.3-0.8-2.9,0.1-4.2,0.8c-1.3,0.8-3.7-10.4-3.1-13.9c-3.7-2-8.1,1.8-12.2,1.1c-2.5-0.5-4.3-2.5-5.5-4.9
	c1.9-1.8,3.2-4,4-6.4c-1.7,0.9-3.6,1.5-5.5,1.8c-0.3-1.8-0.3-3.7,0.1-5.5c0.7-2.9,2.8-5.3,5.6-6.3c2.9-1,6,0.2,7.6,2.8
	c0.2-2.8-1.5-5.4-4.1-6.4c3.3-1.7,7.4-0.4,9.1,2.9c0.3,0.5,0.5,1.1,0.6,1.7c4.5-2.3,9.7-2.8,14.6-1.6c4.8,1.3,11.3,6.6,11.3,6.6
	C505.9,171.7,505.4,213.2,484.1,208.4z"/>
<path class="st2" d="M598.1,579.2c0.7,0,1.2-0.5,1.3-1.2c0-0.4-0.1-0.7-0.4-0.9l-0.1-0.3l0-0.1c0.7-1.7,2.6-2.4,4.3-1.7
	c0.8,0.3,1.4,1,1.7,1.8c1,2.4,2.2,4.8,2.5,7.3c0.1,1.1,0.1,2.2-0.2,3.3c2.3-5,3.5-10.5,3.5-16.1c0-1.4-0.1-2.8-0.2-4.2
	c-0.1-1.1-0.3-2.3-0.5-3.4c-1.2-6.1-3.9-11.8-7.8-16.6c-1.9-1-3.4-2.6-4.3-4.5c-0.3-0.7-0.6-1.4-0.7-2.2c0.4-1.1,0.6-2.2,0.6-3.4
	c0.3-0.4,0.8-0.7,1.1-1.1c1.6-2.2,3.8-1.8,5,1.2c2.5,1.2,2.5,3.3,1,5.3c-1,1.3-1.1,3-1.9,4.3c0.1,0.1,0.2,0.2,0.3,0.3
	c1.6,2,3,4.2,4.1,6.5c-0.3-2.6,0.1-5.2,1-7.6c0.9-2.3,2.7-4.2,4.2-6.1c1.1-1.5,3.3-1.7,4.7-0.6c0.7,0.5,1.2,1.4,1.3,2.2l0,0.1
	c-0.2,0.1-0.5,0.3-0.7,0.4c-0.8,0.5-1,1.5-0.5,2.3c0.3,0.4,0.7,0.6,1.1,0.7l0,0c-0.1,0.8-0.2,1.6-0.4,2.5c2,7.7-2.3,10.5-8.4,10.6
	c-0.1,0.1-0.3,0.1-0.4,0.2c1.2,3.3,1.9,6.7,2.2,10.2c0.2,2.1,0.1,4.1,0,6.2l0-0.1c0.4-2.3,1.7-4.3,3.4-5.8c2.7-2.2,6.4-3,9.3-4.7
	c0.9-0.6,2.1-0.3,2.6,0.6c0.2,0.4,0.3,0.8,0.3,1.3l0,0.1c-0.4,0.2-0.8,0.4-1.2,0.6c-0.2,0.1-0.5,0.3-0.7,0.4c-0.8,0.5-1,1.5-0.5,2.3
	c0.3,0.4,0.7,0.6,1.1,0.7l0,0l0.1,0c-0.7,1.7-1.8,3.3-3,4.7c-1.2,6.7-6.6,7.3-12.3,5.4h0c-0.6,2.7-1.5,5.4-2.7,7.9h-9.7
	c0-0.1-0.1-0.2-0.1-0.3c0.9,0.1,1.8,0,2.7-0.2c-0.7-0.9-1.4-1.8-2.1-2.6c0,0,0,0,0-0.1c-0.4-0.5-0.7-0.9-1.1-1.3l0,0
	C597.6,581.9,597.8,580.5,598.1,579.2L598.1,579.2z"/>
<path class="st7" d="M276.5,589.2l389.7,0.3c0.7,0,1.2-0.5,1.2-1.2c0-0.7-0.5-1.2-1.2-1.2l-389.7-0.3c-0.7,0-1.2,0.5-1.2,1.2
	C275.3,588.6,275.9,589.2,276.5,589.2z"/>
<g>
	<path class="st4" d="M231.5,180.8c0.4-0.9,1.1-1.2,2.1-1.2c17.2,0,34.3,0,51.5,0c0.2,0,0.4,0,0.5,0c1,0,1.7,0.7,1.7,1.7
		c0,2.2,0,4.4,0,6.7c0,0.8-0.4,1.3-1,1.8c-6.4,6.4-12.7,12.9-19.1,19.3c-0.3,0.4-0.5,0.7-0.5,1.2c0,6.8,0,13.6,0,20.4
		c0,1.2-0.4,1.9-1.5,2.4c-3.5,1.7-7,3.5-10.6,5.3c-1.2,0.6-2.2,0.3-2.6-0.8c-0.1-0.3-0.1-0.7-0.1-1.1c0-6.8,0-13.6,0-20.4
		c0-1.9,0-3.9,0-5.8c0-0.5-0.1-0.9-0.5-1.3c-6.4-6.4-12.8-12.9-19.1-19.4c-0.3-0.3-0.6-0.8-0.9-1.1
		C231.5,186,231.5,183.4,231.5,180.8z M255.3,234.3c0.3-0.1,0.5-0.2,0.6-0.3c2.3-1.1,4.5-2.2,6.8-3.3c0.6-0.3,0.8-0.6,0.8-1.3
		c0-6.7,0-13.4,0-20.2c0-0.8,0.2-1.4,0.8-1.9c5.7-5.8,11.4-11.5,17.1-17.3c0.2-0.2,0.5-0.3,0.7-0.5c-0.1-0.1-0.1-0.1-0.2-0.2
		c-15,0-30,0-44.9,0c-0.1,0.1-0.1,0.2-0.2,0.3c0.2,0.1,0.5,0.2,0.7,0.4c5.7,5.8,11.4,11.6,17.1,17.3c0.6,0.6,0.8,1.2,0.8,2
		c0,8,0,16,0,24C255.3,233.7,255.3,234,255.3,234.3z M234.9,186.1c16.4,0,32.8,0,49.2,0c0-1.1,0-2.2,0-3.2c-16.4,0-32.8,0-49.2,0
		C234.9,184,234.9,185,234.9,186.1z"/>
	<path class="st4" d="M286.1,231.5c-7.8,0-14.2-6.4-14.2-14.3c0-7.8,6.5-14.1,14.4-14.1c7.7,0,14,6.5,14,14.3
		C300.3,225.2,293.9,231.5,286.1,231.5z M297,217.3c0-6.1-4.7-10.9-10.8-10.9c-6,0-10.7,4.6-10.7,10.6c0,6,4.9,10.9,10.9,11
		C292.4,228,297,223.4,297,217.3z"/>
	<path class="st4" d="M283.8,217.3c-1.3-1.3-2.6-2.5-3.8-3.8c-0.3-0.3-0.6-0.8-0.7-1.3c-0.1-0.7,0.3-1.4,0.9-1.6
		c0.7-0.3,1.3-0.2,1.8,0.3c1.2,1.2,2.4,2.4,3.6,3.6c0.2,0.2,0.3,0.4,0.4,0.5c1-1,2-1.9,2.9-2.8c0.4-0.4,0.8-0.8,1.2-1.2
		c0.7-0.7,1.6-0.7,2.3-0.1c0.7,0.7,0.7,1.7,0,2.5c-1,1-2,2-2.9,2.9c-0.3,0.3-0.7,0.6-1.1,1.1c0.6,0.6,1.2,1.2,1.8,1.8
		c0.7,0.7,1.5,1.5,2.2,2.2c0.7,0.7,0.7,1.8,0,2.5c-0.7,0.6-1.6,0.6-2.3-0.2c-1.2-1.2-2.3-2.3-3.4-3.5c-0.2-0.2-0.3-0.4-0.4-0.6
		c-1.4,1.4-2.7,2.7-4,4c-0.9,0.9-1.8,1-2.5,0.3c-0.7-0.7-0.7-1.8,0.1-2.6C281.2,219.9,282.5,218.6,283.8,217.3z"/>
</g>
<g>
	<path class="st2" d="M80.7,173.6c0.2-0.4,0.5-0.6,1-0.6c8.1,0,16.2,0,24.2,0c0.1,0,0.2,0,0.3,0c0.5,0,0.8,0.3,0.8,0.8
		c0,1,0,2.1,0,3.1c0,0.4-0.2,0.6-0.4,0.9c-3,3-6,6.1-9,9.1c-0.2,0.2-0.2,0.3-0.2,0.6c0,3.2,0,6.4,0,9.6c0,0.6-0.2,0.9-0.7,1.1
		c-1.7,0.8-3.3,1.7-5,2.5c-0.6,0.3-1.1,0.1-1.2-0.4c-0.1-0.2-0.1-0.3-0.1-0.5c0-3.2,0-6.4,0-9.6c0-0.9,0-1.8,0-2.8
		c0-0.3-0.1-0.4-0.2-0.6c-3-3-6-6.1-9-9.1c-0.2-0.2-0.3-0.4-0.4-0.5C80.7,176,80.7,174.8,80.7,173.6z M91.9,198.8
		c0.1-0.1,0.2-0.1,0.3-0.1c1.1-0.5,2.1-1.1,3.2-1.6c0.3-0.1,0.4-0.3,0.4-0.6c0-3.2,0-6.3,0-9.5c0-0.4,0.1-0.6,0.4-0.9
		c2.7-2.7,5.4-5.4,8-8.1c0.1-0.1,0.2-0.2,0.3-0.2c0,0-0.1-0.1-0.1-0.1c-7.1,0-14.1,0-21.2,0c0,0-0.1,0.1-0.1,0.1
		c0.1,0.1,0.2,0.1,0.3,0.2c2.7,2.7,5.4,5.4,8,8.2c0.3,0.3,0.4,0.6,0.4,1c0,3.8,0,7.6,0,11.3C91.9,198.5,91.9,198.6,91.9,198.8z
		 M82.2,176.1c7.7,0,15.4,0,23.2,0c0-0.5,0-1,0-1.5c-7.7,0-15.4,0-23.2,0C82.2,175.1,82.2,175.6,82.2,176.1z"/>
	<path class="st2" d="M106.4,197.5c-3.7,0-6.7-3-6.7-6.7c0-3.7,3.1-6.7,6.8-6.6c3.6,0,6.6,3.1,6.6,6.7
		C113.1,194.5,110.1,197.5,106.4,197.5z M111.5,190.8c0-2.9-2.2-5.1-5.1-5.1c-2.8,0-5,2.2-5,5c0,2.8,2.3,5.2,5.1,5.2
		C109.3,195.8,111.5,193.6,111.5,190.8z"/>
	<path class="st2" d="M105.3,190.8c-0.6-0.6-1.2-1.2-1.8-1.8c-0.1-0.2-0.3-0.4-0.3-0.6c-0.1-0.3,0.1-0.6,0.4-0.8
		c0.3-0.1,0.6-0.1,0.8,0.1c0.6,0.6,1.1,1.1,1.7,1.7c0.1,0.1,0.1,0.2,0.2,0.3c0.5-0.5,0.9-0.9,1.4-1.3c0.2-0.2,0.4-0.4,0.6-0.6
		c0.3-0.3,0.8-0.3,1.1-0.1c0.3,0.3,0.3,0.8,0,1.2c-0.5,0.5-0.9,0.9-1.4,1.4c-0.2,0.2-0.3,0.3-0.5,0.5c0.3,0.3,0.6,0.6,0.9,0.8
		c0.4,0.3,0.7,0.7,1,1.1c0.3,0.4,0.3,0.8,0,1.2c-0.3,0.3-0.7,0.3-1.1-0.1c-0.5-0.5-1.1-1.1-1.6-1.6c-0.1-0.1-0.1-0.2-0.2-0.3
		c-0.7,0.7-1.3,1.3-1.9,1.9c-0.4,0.4-0.8,0.4-1.2,0.1c-0.3-0.3-0.3-0.8,0.1-1.2C104.1,192,104.7,191.4,105.3,190.8z"/>
</g>
<g>
	<path class="st2" d="M236.8,394.8c0.2-0.4,0.5-0.6,1-0.6c8.1,0,16.2,0,24.2,0c0.1,0,0.2,0,0.3,0c0.5,0,0.8,0.3,0.8,0.8
		c0,1,0,2.1,0,3.1c0,0.4-0.2,0.6-0.4,0.9c-3,3-6,6.1-9,9.1c-0.2,0.2-0.2,0.3-0.2,0.6c0,3.2,0,6.4,0,9.6c0,0.6-0.2,0.9-0.7,1.1
		c-1.7,0.8-3.3,1.7-5,2.5c-0.6,0.3-1.1,0.1-1.2-0.4c-0.1-0.2-0.1-0.3-0.1-0.5c0-3.2,0-6.4,0-9.6c0-0.9,0-1.8,0-2.8
		c0-0.3-0.1-0.4-0.2-0.6c-3-3-6-6.1-9-9.1c-0.2-0.2-0.3-0.4-0.4-0.5C236.8,397.2,236.8,396,236.8,394.8z M248,420
		c0.1-0.1,0.2-0.1,0.3-0.1c1.1-0.5,2.1-1.1,3.2-1.6c0.3-0.1,0.4-0.3,0.4-0.6c0-3.2,0-6.3,0-9.5c0-0.4,0.1-0.6,0.4-0.9
		c2.7-2.7,5.4-5.4,8-8.1c0.1-0.1,0.2-0.2,0.3-0.2c0,0-0.1-0.1-0.1-0.1c-7.1,0-14.1,0-21.2,0c0,0-0.1,0.1-0.1,0.1
		c0.1,0.1,0.2,0.1,0.3,0.2c2.7,2.7,5.4,5.4,8,8.2c0.3,0.3,0.4,0.6,0.4,1c0,3.8,0,7.6,0,11.3C248,419.7,248,419.9,248,420z
		 M238.3,397.3c7.7,0,15.4,0,23.2,0c0-0.5,0-1,0-1.5c-7.7,0-15.4,0-23.2,0C238.3,396.3,238.3,396.8,238.3,397.3z"/>
	<path class="st2" d="M262.5,418.7c-3.7,0-6.7-3-6.7-6.7c0-3.7,3.1-6.7,6.8-6.6c3.6,0,6.6,3.1,6.6,6.7
		C269.1,415.7,266.1,418.7,262.5,418.7z M267.6,412c0-2.9-2.2-5.1-5.1-5.1c-2.8,0-5,2.2-5,5c0,2.8,2.3,5.2,5.1,5.2
		C265.4,417,267.6,414.9,267.6,412z"/>
	<path class="st2" d="M261.4,412c-0.6-0.6-1.2-1.2-1.8-1.8c-0.1-0.2-0.3-0.4-0.3-0.6c-0.1-0.3,0.1-0.6,0.4-0.8
		c0.3-0.1,0.6-0.1,0.8,0.1c0.6,0.6,1.1,1.1,1.7,1.7c0.1,0.1,0.1,0.2,0.2,0.3c0.5-0.5,0.9-0.9,1.4-1.3c0.2-0.2,0.4-0.4,0.6-0.6
		c0.3-0.3,0.8-0.3,1.1-0.1c0.3,0.3,0.4,0.8,0,1.2c-0.5,0.5-0.9,0.9-1.4,1.4c-0.2,0.2-0.3,0.3-0.5,0.5c0.3,0.3,0.6,0.6,0.9,0.8
		c0.4,0.3,0.7,0.7,1,1.1c0.3,0.4,0.3,0.8,0,1.2c-0.3,0.3-0.7,0.3-1.1-0.1c-0.5-0.5-1.1-1.1-1.6-1.6c-0.1-0.1-0.1-0.2-0.2-0.3
		c-0.7,0.7-1.3,1.3-1.9,1.9c-0.4,0.4-0.8,0.4-1.2,0.1c-0.3-0.3-0.3-0.8,0.1-1.2C260.2,413.2,260.8,412.6,261.4,412z"/>
</g>
<g>
	<path class="st2" d="M193,1.7c0.2-0.4,0.5-0.6,1-0.6c8.1,0,16.2,0,24.2,0c0.1,0,0.2,0,0.3,0c0.5,0,0.8,0.3,0.8,0.8c0,1,0,2.1,0,3.1
		c0,0.4-0.2,0.6-0.4,0.9c-3,3-6,6.1-9,9.1c-0.2,0.2-0.2,0.3-0.2,0.6c0,3.2,0,6.4,0,9.6c0,0.6-0.2,0.9-0.7,1.1
		c-1.7,0.8-3.3,1.7-5,2.5c-0.6,0.3-1.1,0.1-1.2-0.4c-0.1-0.2-0.1-0.3-0.1-0.5c0-3.2,0-6.4,0-9.6c0-0.9,0-1.8,0-2.8
		c0-0.3-0.1-0.4-0.2-0.6c-3-3-6-6.1-9-9.1c-0.2-0.2-0.3-0.4-0.4-0.5C193,4.2,193,2.9,193,1.7z M204.2,26.9c0.1-0.1,0.2-0.1,0.3-0.1
		c1.1-0.5,2.1-1.1,3.2-1.6c0.3-0.1,0.4-0.3,0.4-0.6c0-3.2,0-6.3,0-9.5c0-0.4,0.1-0.6,0.4-0.9c2.7-2.7,5.4-5.4,8-8.1
		c0.1-0.1,0.2-0.2,0.3-0.2c0,0-0.1-0.1-0.1-0.1c-7.1,0-14.1,0-21.2,0c0,0-0.1,0.1-0.1,0.1c0.1,0.1,0.2,0.1,0.3,0.2
		c2.7,2.7,5.4,5.4,8,8.2c0.3,0.3,0.4,0.6,0.4,1c0,3.8,0,7.6,0,11.3C204.2,26.7,204.2,26.8,204.2,26.9z M194.6,4.2
		c7.7,0,15.4,0,23.2,0c0-0.5,0-1,0-1.5c-7.7,0-15.4,0-23.2,0C194.6,3.2,194.6,3.7,194.6,4.2z"/>
	<path class="st2" d="M218.7,25.6c-3.7,0-6.7-3-6.7-6.7c0-3.7,3.1-6.7,6.8-6.6c3.6,0,6.6,3.1,6.6,6.7
		C225.4,22.6,222.4,25.6,218.7,25.6z M223.8,18.9c0-2.9-2.2-5.1-5.1-5.1c-2.8,0-5,2.2-5,5c0,2.8,2.3,5.2,5.1,5.2
		C221.7,23.9,223.8,21.8,223.8,18.9z"/>
	<path class="st2" d="M217.6,18.9c-0.6-0.6-1.2-1.2-1.8-1.8c-0.1-0.2-0.3-0.4-0.3-0.6c-0.1-0.3,0.1-0.6,0.4-0.8
		c0.3-0.1,0.6-0.1,0.8,0.1c0.6,0.6,1.1,1.1,1.7,1.7c0.1,0.1,0.1,0.2,0.2,0.3c0.5-0.5,0.9-0.9,1.4-1.3c0.2-0.2,0.4-0.4,0.6-0.6
		c0.3-0.3,0.8-0.3,1.1-0.1c0.3,0.3,0.3,0.8,0,1.2c-0.5,0.5-0.9,0.9-1.4,1.4c-0.2,0.2-0.3,0.3-0.5,0.5c0.3,0.3,0.6,0.6,0.9,0.8
		c0.4,0.3,0.7,0.7,1,1.1c0.3,0.4,0.3,0.8,0,1.2c-0.3,0.3-0.7,0.3-1.1-0.1c-0.5-0.5-1.1-1.1-1.6-1.6c-0.1-0.1-0.1-0.2-0.2-0.3
		c-0.7,0.7-1.3,1.3-1.9,1.9c-0.4,0.4-0.8,0.4-1.2,0.1c-0.3-0.3-0.3-0.8,0.1-1.2C216.4,20.1,217,19.5,217.6,18.9z"/>
</g>
<g>
	<path class="st2" d="M398.4,187.3c0.2-0.4,0.5-0.6,1-0.6c8.1,0,16.2,0,24.2,0c0.1,0,0.2,0,0.3,0c0.5,0,0.8,0.3,0.8,0.8
		c0,1,0,2.1,0,3.1c0,0.4-0.2,0.6-0.4,0.9c-3,3-6,6.1-9,9.1c-0.2,0.2-0.2,0.3-0.2,0.6c0,3.2,0,6.4,0,9.6c0,0.6-0.2,0.9-0.7,1.1
		c-1.7,0.8-3.3,1.7-5,2.5c-0.6,0.3-1.1,0.1-1.2-0.4c-0.1-0.2-0.1-0.3-0.1-0.5c0-3.2,0-6.4,0-9.6c0-0.9,0-1.8,0-2.8
		c0-0.3-0.1-0.4-0.2-0.6c-3-3-6-6.1-9-9.1c-0.2-0.2-0.3-0.4-0.4-0.5C398.4,189.7,398.4,188.5,398.4,187.3z M409.6,212.5
		c0.1-0.1,0.2-0.1,0.3-0.1c1.1-0.5,2.1-1.1,3.2-1.6c0.3-0.1,0.4-0.3,0.4-0.6c0-3.2,0-6.3,0-9.5c0-0.4,0.1-0.6,0.4-0.9
		c2.7-2.7,5.4-5.4,8-8.1c0.1-0.1,0.2-0.2,0.3-0.2c0,0-0.1-0.1-0.1-0.1c-7.1,0-14.1,0-21.2,0c0,0-0.1,0.1-0.1,0.1
		c0.1,0.1,0.2,0.1,0.3,0.2c2.7,2.7,5.4,5.4,8,8.2c0.3,0.3,0.4,0.6,0.4,1c0,3.8,0,7.6,0,11.3C409.6,212.2,409.6,212.3,409.6,212.5z
		 M399.9,189.8c7.7,0,15.4,0,23.2,0c0-0.5,0-1,0-1.5c-7.7,0-15.4,0-23.2,0C399.9,188.8,399.9,189.3,399.9,189.8z"/>
	<path class="st2" d="M424.1,211.1c-3.7,0-6.7-3-6.7-6.7c0-3.7,3.1-6.7,6.8-6.6c3.6,0,6.6,3.1,6.6,6.7
		C430.7,208.2,427.7,211.2,424.1,211.1z M429.2,204.5c0-2.9-2.2-5.1-5.1-5.1c-2.8,0-5,2.2-5,5c0,2.8,2.3,5.2,5.1,5.2
		C427,209.5,429.2,207.3,429.2,204.5z"/>
	<path class="st2" d="M423,204.5c-0.6-0.6-1.2-1.2-1.8-1.8c-0.1-0.2-0.3-0.4-0.3-0.6c-0.1-0.3,0.1-0.6,0.4-0.8
		c0.3-0.1,0.6-0.1,0.8,0.1c0.6,0.6,1.1,1.1,1.7,1.7c0.1,0.1,0.1,0.2,0.2,0.3c0.5-0.5,0.9-0.9,1.4-1.3c0.2-0.2,0.4-0.4,0.6-0.6
		c0.3-0.3,0.8-0.3,1.1-0.1c0.3,0.3,0.4,0.8,0,1.2c-0.5,0.5-0.9,0.9-1.4,1.4c-0.2,0.2-0.3,0.3-0.5,0.5c0.3,0.3,0.6,0.6,0.9,0.8
		c0.4,0.3,0.7,0.7,1,1.1c0.3,0.4,0.3,0.8,0,1.2c-0.3,0.3-0.7,0.3-1.1-0.1c-0.5-0.5-1.1-1.1-1.6-1.6c-0.1-0.1-0.1-0.2-0.2-0.3
		c-0.7,0.7-1.3,1.3-1.9,1.9c-0.4,0.4-0.8,0.4-1.2,0.1c-0.3-0.3-0.3-0.8,0.1-1.2C421.8,205.7,422.4,205.1,423,204.5z"/>
</g>
<g>
	<path class="st4" d="M350.4,40c0.2-0.4,0.5-0.6,1-0.6c8.1,0,16.2,0,24.2,0c0.1,0,0.2,0,0.3,0c0.5,0,0.8,0.3,0.8,0.8
		c0,1,0,2.1,0,3.1c0,0.4-0.2,0.6-0.4,0.9c-3,3-6,6.1-9,9.1c-0.2,0.2-0.2,0.3-0.2,0.6c0,3.2,0,6.4,0,9.6c0,0.6-0.2,0.9-0.7,1.1
		c-1.7,0.8-3.3,1.7-5,2.5c-0.6,0.3-1.1,0.1-1.2-0.4c-0.1-0.2-0.1-0.3-0.1-0.5c0-3.2,0-6.4,0-9.6c0-0.9,0-1.8,0-2.8
		c0-0.3-0.1-0.4-0.2-0.6c-3-3-6-6.1-9-9.1c-0.2-0.2-0.3-0.4-0.4-0.5C350.4,42.5,350.4,41.2,350.4,40z M361.6,65.2
		c0.1-0.1,0.2-0.1,0.3-0.1c1.1-0.5,2.1-1.1,3.2-1.6c0.3-0.1,0.4-0.3,0.4-0.6c0-3.2,0-6.3,0-9.5c0-0.4,0.1-0.6,0.4-0.9
		c2.7-2.7,5.4-5.4,8-8.1c0.1-0.1,0.2-0.2,0.3-0.2c0,0-0.1-0.1-0.1-0.1c-7.1,0-14.1,0-21.2,0c0,0-0.1,0.1-0.1,0.1
		c0.1,0.1,0.2,0.1,0.3,0.2c2.7,2.7,5.4,5.4,8,8.2c0.3,0.3,0.4,0.6,0.4,1c0,3.8,0,7.6,0,11.3C361.6,65,361.6,65.1,361.6,65.2z
		 M352,42.5c7.7,0,15.4,0,23.2,0c0-0.5,0-1,0-1.5c-7.7,0-15.4,0-23.2,0C352,41.5,352,42,352,42.5z"/>
	<path class="st4" d="M376.1,63.9c-3.7,0-6.7-3-6.7-6.7c0-3.7,3.1-6.7,6.8-6.6c3.6,0,6.6,3.1,6.6,6.7
		C382.8,60.9,379.8,63.9,376.1,63.9z M381.3,57.2c0-2.9-2.2-5.1-5.1-5.1c-2.8,0-5,2.2-5,5c0,2.8,2.3,5.2,5.1,5.2
		C379.1,62.2,381.3,60.1,381.3,57.2z"/>
	<path class="st4" d="M375,57.2c-0.6-0.6-1.2-1.2-1.8-1.8c-0.1-0.2-0.3-0.4-0.3-0.6c-0.1-0.3,0.1-0.6,0.4-0.8
		c0.3-0.1,0.6-0.1,0.8,0.1c0.6,0.6,1.1,1.1,1.7,1.7c0.1,0.1,0.1,0.2,0.2,0.3c0.5-0.5,0.9-0.9,1.4-1.3c0.2-0.2,0.4-0.4,0.6-0.6
		c0.3-0.3,0.8-0.3,1.1-0.1c0.3,0.3,0.4,0.8,0,1.2c-0.5,0.5-0.9,0.9-1.4,1.4c-0.2,0.2-0.3,0.3-0.5,0.5c0.3,0.3,0.6,0.6,0.9,0.8
		c0.4,0.3,0.7,0.7,1,1.1c0.3,0.4,0.3,0.8,0,1.2c-0.3,0.3-0.7,0.3-1.1-0.1c-0.5-0.5-1.1-1.1-1.6-1.6c-0.1-0.1-0.1-0.2-0.2-0.3
		c-0.7,0.7-1.3,1.3-1.9,1.9c-0.4,0.4-0.8,0.4-1.2,0.1c-0.3-0.3-0.3-0.8,0.1-1.2C373.8,58.4,374.4,57.8,375,57.2z"/>
</g>
<g>
	<path class="st4" d="M38.6,276.9c0.2-0.4,0.5-0.6,1-0.6c8.1,0,16.2,0,24.2,0c0.1,0,0.2,0,0.3,0c0.5,0,0.8,0.3,0.8,0.8
		c0,1,0,2.1,0,3.1c0,0.4-0.2,0.6-0.4,0.9c-3,3-6,6.1-9,9.1c-0.2,0.2-0.2,0.3-0.2,0.6c0,3.2,0,6.4,0,9.6c0,0.6-0.2,0.9-0.7,1.1
		c-1.7,0.8-3.3,1.7-5,2.5c-0.6,0.3-1.1,0.1-1.2-0.4c-0.1-0.2-0.1-0.3-0.1-0.5c0-3.2,0-6.4,0-9.6c0-0.9,0-1.8,0-2.8
		c0-0.3-0.1-0.4-0.2-0.6c-3-3-6-6.1-9-9.1c-0.2-0.2-0.3-0.4-0.4-0.5C38.6,279.4,38.6,278.2,38.6,276.9z M49.8,302.2
		c0.1-0.1,0.2-0.1,0.3-0.1c1.1-0.5,2.1-1.1,3.2-1.6c0.3-0.1,0.4-0.3,0.4-0.6c0-3.2,0-6.3,0-9.5c0-0.4,0.1-0.6,0.4-0.9
		c2.7-2.7,5.4-5.4,8-8.1c0.1-0.1,0.2-0.2,0.3-0.2c0,0-0.1-0.1-0.1-0.1c-7.1,0-14.1,0-21.2,0c0,0-0.1,0.1-0.1,0.1
		c0.1,0.1,0.2,0.1,0.3,0.2c2.7,2.7,5.4,5.4,8,8.2c0.3,0.3,0.4,0.6,0.4,1c0,3.8,0,7.6,0,11.3C49.8,301.9,49.8,302,49.8,302.2z
		 M40.2,279.4c7.7,0,15.4,0,23.2,0c0-0.5,0-1,0-1.5c-7.7,0-15.4,0-23.2,0C40.2,278.4,40.2,278.9,40.2,279.4z"/>
	<path class="st4" d="M64.3,300.8c-3.7,0-6.7-3-6.7-6.7c0-3.7,3.1-6.7,6.8-6.6c3.6,0,6.6,3.1,6.6,6.7C71,297.9,68,300.8,64.3,300.8z
		 M69.4,294.2c0-2.9-2.2-5.1-5.1-5.1c-2.8,0-5,2.2-5,5c0,2.8,2.3,5.2,5.1,5.2C67.3,299.2,69.4,297,69.4,294.2z"/>
	<path class="st4" d="M63.2,294.1c-0.6-0.6-1.2-1.2-1.8-1.8c-0.1-0.2-0.3-0.4-0.3-0.6c-0.1-0.3,0.1-0.6,0.4-0.8
		c0.3-0.1,0.6-0.1,0.8,0.1c0.6,0.6,1.1,1.1,1.7,1.7c0.1,0.1,0.1,0.2,0.2,0.3c0.5-0.5,0.9-0.9,1.4-1.3c0.2-0.2,0.4-0.4,0.6-0.6
		c0.3-0.3,0.8-0.3,1.1-0.1c0.3,0.3,0.3,0.8,0,1.2c-0.5,0.5-0.9,0.9-1.4,1.4c-0.2,0.2-0.3,0.3-0.5,0.5c0.3,0.3,0.6,0.6,0.9,0.8
		c0.4,0.3,0.7,0.7,1,1.1c0.3,0.4,0.3,0.8,0,1.2c-0.3,0.3-0.7,0.3-1.1-0.1c-0.5-0.5-1.1-1.1-1.6-1.6c-0.1-0.1-0.1-0.2-0.2-0.3
		c-0.7,0.7-1.3,1.3-1.9,1.9c-0.4,0.4-0.8,0.4-1.2,0.1c-0.3-0.3-0.3-0.8,0.1-1.2C62,295.4,62.6,294.8,63.2,294.1z"/>
</g>
</svg>
