<svg width="68" height="92" viewBox="0 0 68 92" fill="none" xmlns="http://www.w3.org/2000/svg">
<path d="M38.8372 72.547C36.2962 77.202 34.3141 82.1974 33.5921 87.2155C32.8625 81.8947 30.7754 76.6205 28.0854 71.7196C24.715 65.5792 20.3598 59.9559 16.4036 55.4629L16.3827 55.439L16.3602 55.4166L5.3501 44.4065C2.54023 41.5966 1 37.8734 1 33.9032C1 29.9333 2.54714 26.2028 5.3501 23.3998L23.3999 5.3501L22.6928 4.64299L23.3999 5.3501C26.2097 2.54023 29.933 1 33.9032 1C37.8731 1 41.6035 2.54714 44.4065 5.3501L62.4562 23.3998C68.2468 29.1904 68.2468 38.623 62.4562 44.4136L50.0439 56.8259L50.0194 56.8504L49.9967 56.8765C46.2235 61.2119 42.0609 66.6413 38.8372 72.547Z" fill="#E51131" stroke="white" stroke-width="2"/>
<path d="M22.9789 46.4656H17.7493V32.8657H22.9789" stroke="white" stroke-linecap="round" stroke-linejoin="round"/>
<path d="M28.2084 37.0508H31.349" stroke="white" stroke-linecap="round" stroke-linejoin="round"/>
<path d="M28.2084 41.2358H31.349" stroke="white" stroke-linecap="round" stroke-linejoin="round"/>
<path d="M28.2084 32.8657H31.349" stroke="white" stroke-linecap="round" stroke-linejoin="round"/>
<path d="M34.4898 23.451V16.1323L49.127 21.362V46.4656H22.9789V27.6361H36.5788V46.1151" stroke="white" stroke-linecap="round" stroke-linejoin="round"/>
<path d="M40.7638 41.236V23.4509" stroke="white" stroke-linecap="round" stroke-linejoin="round"/>
<path d="M44.9491 41.2358V25.5469" stroke="white" stroke-linecap="round" stroke-linejoin="round"/>
</svg>
