<?xml version="1.0" encoding="iso-8859-1"?>
<!-- Generator: $$$/GeneralStr/196=Adobe Illustrator 27.6.0, SVG Export Plug-In . SVG Version: 6.00 Build 0)  -->
<svg version="1.0" id="Calque_1" xmlns="http://www.w3.org/2000/svg" xmlns:xlink="http://www.w3.org/1999/xlink" x="0px" y="0px"
	 viewBox="0 0 54 54" style="enable-background:new 0 0 54 54;" xml:space="preserve">
<style type="text/css">
	.st0{fill:#494849;}
</style>
<g>
	<path class="st0" d="M49.9,45.9L39.2,35.2c2.6-3.4,4-7.6,4-11.9c0-11-8.9-19.9-19.9-19.9S3.3,12.3,3.3,23.3s8.9,19.9,19.9,19.9
		c4.3,0,8.5-1.4,11.9-4l10.7,10.7c1.2,1,3,0.9,4-0.2C50.9,48.6,50.9,47,49.9,45.9L49.9,45.9z M9,23.3C9,15.4,15.4,9,23.3,9
		s14.2,6.4,14.2,14.2s-6.4,14.2-14.2,14.2C15.4,37.5,9,31.1,9,23.3L9,23.3z"/>
</g>
</svg>
