<svg xmlns="http://www.w3.org/2000/svg" xmlns:xlink="http://www.w3.org/1999/xlink" width="60.62" height="14"
     viewBox="0 0 60.62 14">
    <defs>
        <linearGradient id="linear-gradient" x1="0.212" y1="0.502" x2="0.783" y2="0.502"
                        gradientUnits="objectBoundingBox">
            <stop offset="0" stop-color="#ea2631"/>
            <stop offset="1" stop-color="#10aac7"/>
        </linearGradient>
        <linearGradient id="linear-gradient-2" x1="0.228" y1="0.502" x2="0.798" y2="0.502"
                        gradientUnits="objectBoundingBox">
            <stop offset="0" stop-color="#f1c433"/>
            <stop offset="1" stop-color="#ea2631"/>
        </linearGradient>
        <linearGradient id="linear-gradient-3" x1="0.216" y1="0.502" x2="0.803" y2="0.502"
                        gradientUnits="objectBoundingBox">
            <stop offset="0" stop-color="#3e9d4b"/>
            <stop offset="1" stop-color="#f1c433"/>
        </linearGradient>
    </defs>
    <g id="_4sh_glyph_vertical" data-name="4sh_glyph_vertical" transform="translate(-17.125 -21.987)">
        <path id="Tracé_517" data-name="Tracé 517"
              d="M475,80.1a1.936,1.936,0,0,0,2.74,0,1.936,1.936,0,0,0,0,2.74,1.936,1.936,0,0,0-2.74,0A1.936,1.936,0,0,0,475,80.1Z"
              transform="translate(-413.379 -52.466)" fill="url(#linear-gradient)"/>
        <path id="Tracé_518" data-name="Tracé 518"
              d="M317.54,80.1a1.936,1.936,0,0,0,0,2.74,1.935,1.935,0,0,0-2.74,0,1.936,1.936,0,0,0,0-2.74A1.935,1.935,0,0,0,317.54,80.1Z"
              transform="translate(-268.747 -52.466)" fill="url(#linear-gradient-2)"/>
        <path id="Tracé_519" data-name="Tracé 519"
              d="M154.9,80.1a1.936,1.936,0,0,0,2.74,0,1.936,1.936,0,0,0,0,2.74,1.936,1.936,0,0,0-2.74,0A1.936,1.936,0,0,0,154.9,80.1Z"
              transform="translate(-124.386 -52.466)" fill="url(#linear-gradient-3)"/>
        <path id="Tracé_520" data-name="Tracé 520"
              d="M502.934,35.38l-5.073-5a1.944,1.944,0,0,1-.019-2.74l5-5.073a1.944,1.944,0,0,1,2.74-.019l5.083,5a1.945,1.945,0,0,1,.02,2.74l-5,5.073A1.939,1.939,0,0,1,502.934,35.38Z"
              transform="translate(-433.5 0)" fill="#10aac7"/>
        <path id="Tracé_521" data-name="Tracé 521"
              d="M342.762,35.837,337.719,30.8a1.936,1.936,0,0,1,0-2.74l5.044-5.044a1.935,1.935,0,0,1,2.74,0l5.044,5.034a1.936,1.936,0,0,1,0,2.74L345.5,35.837A1.936,1.936,0,0,1,342.762,35.837Z"
              transform="translate(-288.925 -0.418)" fill="#ea2631"/>
        <path id="Tracé_522" data-name="Tracé 522"
              d="M17.686,27.962l5.044-5.044a1.936,1.936,0,0,1,2.74,0l5.044,5.044a1.936,1.936,0,0,1,0,2.74L25.47,35.746a1.936,1.936,0,0,1-2.74,0L17.686,30.7A1.953,1.953,0,0,1,17.686,27.962Z"
              transform="translate(0 -0.328)" fill="#3e9d4b"/>
        <path id="Tracé_523" data-name="Tracé 523"
              d="M182.762,35.837,177.719,30.8a1.936,1.936,0,0,1,0-2.74l5.044-5.044a1.936,1.936,0,0,1,2.74,0l5.044,5.034a1.936,1.936,0,0,1,0,2.74L185.5,35.837A1.936,1.936,0,0,1,182.762,35.837Z"
              transform="translate(-144.474 -0.418)" fill="#f1c433"/>
    </g>
</svg>
