<?xml version="1.0" encoding="utf-8"?>
<!-- Generator: Adobe Illustrator 25.0.0, SVG Export Plug-In . SVG Version: 6.00 Build 0)  -->
<svg version="1.1" id="Calque_1" xmlns="http://www.w3.org/2000/svg" xmlns:xlink="http://www.w3.org/1999/xlink" x="0px"
     y="0px"
     viewBox="0 0 60.6 14" style="enable-background:new 0 0 60.6 14;" xml:space="preserve">
<style type="text/css">
	.st0{fill:#E69535;}
</style>
    <g id="_4sh_glyph_vertical" transform="translate(-17.125 -21.987)">
	<path id="Tracé_517" class="st0" d="M61.6,27.6c0.8,0.8,2,0.8,2.7,0c0,0,0,0,0,0c-0.8,0.8-0.8,2,0,2.7c0,0,0,0,0,0
		c-0.8-0.8-2-0.8-2.7,0c0,0,0,0,0,0C62.4,29.6,62.4,28.4,61.6,27.6C61.6,27.6,61.6,27.6,61.6,27.6z"/>
        <path id="Tracé_518" class="st0" d="M48.8,27.6c-0.8,0.8-0.8,2,0,2.7c0,0,0,0,0,0c-0.8-0.8-2-0.8-2.7,0c0,0,0,0,0,0
		c0.8-0.8,0.8-2,0-2.7c0,0,0,0,0,0C46.8,28.4,48,28.4,48.8,27.6C48.8,27.6,48.8,27.6,48.8,27.6z"/>
        <path id="Tracé_519" class="st0" d="M30.5,27.6c0.8,0.8,2,0.8,2.7,0c0,0,0,0,0,0c-0.8,0.8-0.8,2,0,2.7c0,0,0,0,0,0
		c-0.8-0.8-2-0.8-2.7,0c0,0,0,0,0,0C31.3,29.6,31.3,28.4,30.5,27.6C30.5,27.6,30.5,27.6,30.5,27.6z"/>
        <path id="Tracé_520" class="st0" d="M69.4,35.4l-5.1-5c-0.8-0.8-0.8-2,0-2.7l5-5.1c0.8-0.8,2-0.8,2.7,0l5.1,5c0.8,0.8,0.8,2,0,2.7
		l-5,5.1C71.4,36.1,70.2,36.1,69.4,35.4C69.4,35.4,69.4,35.4,69.4,35.4z"/>
        <path id="Tracé_521" class="st0" d="M53.8,35.4l-5-5c-0.8-0.8-0.8-2,0-2.7c0,0,0,0,0,0l5-5c0.8-0.8,2-0.8,2.7,0c0,0,0,0,0,0l5,5
		c0.8,0.8,0.8,2,0,2.7c0,0,0,0,0,0l-5,5C55.8,36.2,54.6,36.2,53.8,35.4C53.8,35.4,53.8,35.4,53.8,35.4z"/>
        <path id="Tracé_522" class="st0" d="M17.7,27.6l5-5c0.8-0.8,2-0.8,2.7,0c0,0,0,0,0,0l5,5c0.8,0.8,0.8,2,0,2.7c0,0,0,0,0,0l-5,5
		c-0.8,0.8-2,0.8-2.7,0c0,0,0,0,0,0l-5-5C16.9,29.6,16.9,28.4,17.7,27.6z"/>
        <path id="Tracé_523" class="st0" d="M38.3,35.4l-5-5c-0.8-0.8-0.8-2,0-2.7c0,0,0,0,0,0l5-5c0.8-0.8,2-0.8,2.7,0c0,0,0,0,0,0l5,5
		c0.8,0.8,0.8,2,0,2.7c0,0,0,0,0,0l-5,5C40.3,36.2,39,36.2,38.3,35.4C38.3,35.4,38.3,35.4,38.3,35.4z"/>
</g>
</svg>
