<svg xmlns="http://www.w3.org/2000/svg" viewBox="0 0 400 300" width="406" height="306" class="illustration styles_illustrationTablet__1DWOa"><g id="_368_construction_worker_flatline" data-name="#368_construction_worker_flatline"><path d="M289.49,50.59s1.54-6.27.37-10.85l-11.11.81s0,10.33,3.14,11.83,8.42-2.21,8.42-2.21" fill="#fff"></path><path d="M283.6,53.25a4.36,4.36,0,0,1-1.94-.41c-3.29-1.59-3.42-11.2-3.42-12.29a.5.5,0,0,1,.47-.51l11.12-.81a.49.49,0,0,1,.53.39c.91,3.56.24,8-.15,10.05a.52.52,0,0,1,.4.93C290.42,50.73,286.75,53.25,283.6,53.25ZM279.27,41c.07,3.08.66,9.83,2.84,10.88,2,1,5.27-.59,6.9-1.53.17-.77,1.31-6,.45-10.09Z" fill="#231f20"></path><path d="M258.6,112.31c-4,5.52-18.45,35.52-19.42,36.92-1.34,1.94-5.59,2.52-7.34,3.83-2.08,1.56-3.52,4.66-4.54,7a5.47,5.47,0,0,0-.62,2.66,2.11,2.11,0,0,0,1.65,2,3.19,3.19,0,0,0,2.26-1l4.13-3.44c.41.94-.1,2-.5,2.92s-.64,2.18.12,2.85a2.09,2.09,0,0,0,1,.44c2.35.48,4.76-.85,6.28-2.69s3.52-2.72,4.36-5c1-2.62,5.46-6.94,6.75-9.43.9-1.73-2.34-2.91-1.13-4.47l8-10.27,10.18-13.13" fill="#fff"></path><path d="M236.29,167a5.16,5.16,0,0,1-1-.1,2.59,2.59,0,0,1-1.25-.56c-.79-.71-.89-2-.25-3.44l.07-.18a5.9,5.9,0,0,0,.52-1.55L230.92,164a3.57,3.57,0,0,1-2.65,1.13,2.62,2.62,0,0,1-2.1-2.41,5.79,5.79,0,0,1,.66-2.91c.84-1.91,2.4-5.47,4.7-7.19a13.09,13.09,0,0,1,3.13-1.44c1.67-.61,3.39-1.25,4.1-2.27.28-.41,2.06-4,4.12-8.08,5-10,12.51-25,15.31-28.85a.52.52,0,1,1,.83.61c-2.74,3.74-10.55,19.37-15.22,28.7-2.54,5.08-3.88,7.76-4.19,8.21-.89,1.29-2.78,2-4.6,2.65a12.47,12.47,0,0,0-2.86,1.3c-2.09,1.56-3.58,5-4.38,6.77a4.79,4.79,0,0,0-.57,2.4,1.6,1.6,0,0,0,1.19,1.49,2.81,2.81,0,0,0,1.87-.9l4.13-3.43a.5.5,0,0,1,.45-.11.5.5,0,0,1,.35.3,3.94,3.94,0,0,1-.42,3.15l-.07.18c-.17.38-.66,1.69,0,2.26a1.58,1.58,0,0,0,.77.32,6.29,6.29,0,0,0,5.78-2.52,14.43,14.43,0,0,1,1.86-1.82,7.5,7.5,0,0,0,2.41-3c.58-1.54,2.23-3.55,3.82-5.49a28.62,28.62,0,0,0,3-4c.26-.5,0-.92-.61-1.71s-1.34-1.72-.48-2.83l18.15-23.4a.52.52,0,0,1,.73-.1.53.53,0,0,1,.09.73L252,145.18c-.32.41-.18.72.48,1.57s1.3,1.67.7,2.82a29.26,29.26,0,0,1-3.08,4.18,24.07,24.07,0,0,0-3.65,5.19,8.49,8.49,0,0,1-2.7,3.4A15.44,15.44,0,0,0,242,164,7.72,7.72,0,0,1,236.29,167Z" fill="#231f20"></path><path d="M252.24,84.19s2.71,25.09.36,30.88c-2.62,6.48-13.82,30.74-13.82,30.74l12.43,7.74S263.1,135,264.33,127.37,252.24,84.19,252.24,84.19Z" fill="#EA2631"></path><path d="M184.9,171.94s-30.28-.65-42.39,3l8.59,21.23S184.5,185.82,184.9,171.94Z" fill="#231f20"></path><path d="M151.1,196.68a.47.47,0,0,1-.46-.31l-8.59-21.23a.53.53,0,0,1,0-.41.51.51,0,0,1,.31-.26c12-3.64,41.31-3.06,42.54-3a.48.48,0,0,1,.49.51c-.17,6-6,11.93-17.32,17.76a117.74,117.74,0,0,1-16.83,6.95A.39.39,0,0,1,151.1,196.68Zm-7.92-21.4,8.21,20.29c3.86-1.27,31.88-10.87,33-23.14C180.38,172.36,154.51,172.1,143.18,175.28Z" fill="#231f20"></path><path d="M53.45,191.4s9-5,24.74-6.4l3,16.8Z" fill="#231f20"></path><path d="M81.24,202.3a.39.39,0,0,1-.18,0L53.28,191.87a.5.5,0,0,1-.33-.43.51.51,0,0,1,.26-.47c.09-.05,9.24-5.05,24.93-6.47a.51.51,0,0,1,.54.41l3,16.8a.53.53,0,0,1-.17.47A.49.49,0,0,1,81.24,202.3Zm-26.53-11L80.59,201l-2.81-15.48C65.53,186.71,57.42,190.06,54.71,191.34Z" fill="#231f20"></path><path d="M180.22,198.12l-.69,32.58a6.64,6.64,0,0,1-5.5,6.4l-19,3.33a6.63,6.63,0,0,1-6.92-3.25L139.4,222l5-2.32L151.81,233a4.13,4.13,0,0,0,4.31,2.08l14.53-2.5a4.12,4.12,0,0,0,3.43-3.95l.71-25.64Z" fill="#231f20"></path><path d="M153.85,241a7.16,7.16,0,0,1-6.21-3.6L139,222.23a.51.51,0,0,1-.05-.4.53.53,0,0,1,.27-.3l5.05-2.32a.5.5,0,0,1,.65.21l7.35,13.36a3.66,3.66,0,0,0,3.8,1.83l14.53-2.5a3.64,3.64,0,0,0,3-3.48L174.3,203a.5.5,0,0,1,.16-.36l5.42-4.89a.47.47,0,0,1,.54-.08.48.48,0,0,1,.29.46L180,230.71a7.16,7.16,0,0,1-5.92,6.88l-19,3.33A6.39,6.39,0,0,1,153.85,241ZM140.1,222.21l8.4,14.72a6.17,6.17,0,0,0,6.41,3l19-3.33a6.16,6.16,0,0,0,5.09-5.93l.66-31.42-4.4,4-.71,25.42a4.63,4.63,0,0,1-3.84,4.43l-14.53,2.5a4.64,4.64,0,0,1-4.84-2.33l-7.13-12.95Z" fill="#231f20"></path><path d="M88,258.57,240.49,161a2.73,2.73,0,0,0,.46-3.83h0a2.72,2.72,0,0,0-3.82-.46L84.6,254.28a2.73,2.73,0,0,0-.46,3.83h0A2.73,2.73,0,0,0,88,258.57Z" fill="#fff"></path><path d="M86.29,259.66a3.23,3.23,0,0,1-2-5.78l152.57-97.64a3.24,3.24,0,0,1,4,5.13L88.26,259A3.21,3.21,0,0,1,86.29,259.66Zm152.51-103a2.2,2.2,0,0,0-1.36.47L84.88,254.72a2.19,2.19,0,0,0-.33,3.07,2.22,2.22,0,0,0,3.1.37l0,0,152.52-97.6a2.22,2.22,0,0,0,.34-3.08,2.27,2.27,0,0,0-1.48-.83Z" fill="#231f20"></path><path d="M201.68,199.43,201,232a6.66,6.66,0,0,1-5.5,6.41l-19,3.33a6.65,6.65,0,0,1-6.92-3.26l-8.67-15.19,5-2.33,7.35,13.36a4.12,4.12,0,0,0,4.32,2.08l14.53-2.49a4.13,4.13,0,0,0,3.43-4l.71-25.63Z" fill="#fff"></path><path d="M175.32,242.36a7.18,7.18,0,0,1-6.23-3.61l-8.67-15.2a.5.5,0,0,1,.23-.72l5-2.33a.53.53,0,0,1,.67.22l7.36,13.36a3.59,3.59,0,0,0,3.77,1.82L192,233.41a3.63,3.63,0,0,0,3-3.46l.71-25.64a.5.5,0,0,1,.17-.37l5.42-4.89a.52.52,0,0,1,.56-.09.55.55,0,0,1,.3.48L201.51,232a7.18,7.18,0,0,1-5.93,6.91l-19,3.33A7.29,7.29,0,0,1,175.32,242.36Zm-13.73-18.83,8.4,14.71a6.13,6.13,0,0,0,6.38,3l19-3.33a6.15,6.15,0,0,0,5.07-5.91l.66-31.38-4.37,3.94-.7,25.42a4.66,4.66,0,0,1-3.86,4.45l-14.53,2.49a4.66,4.66,0,0,1-4.86-2.34l-7.12-12.94Z" fill="#231f20"></path><path d="M73.63,187.3h.22c1.36-3.24,2.87-7.67,5.66-10,2.12-1.76,5.85-1.87,7.26.51a14.7,14.7,0,0,1,3.4-4.82c1.54-1.25,3.82-1.8,5.52-.78-1-.62,4-4.63,4.54-4.87a11.93,11.93,0,0,1,6.62-.61c-.38-4.18,8.89-8.26,12.14-9.59,5.61-2.28,15.38-3.46,18.42,3.07,1.71-1.15,3.5-2.59,5.63-2.95s4.72.75,5.18,2.89c3.71-1,4.08.21,5.91,2.48,1,1.23,4.06.72,5.58,1.4a6.12,6.12,0,0,1,3.67,5.37,10,10,0,0,1,10,2.73c5.21,5.34,4.77,13.69,1.63,19.83-4.09,8-11.3,15.28-18.88,20.05-9.25,5.81-19.93,9-30.7,10.82-11.15,1.87-22.79,2.29-33.6-1a42.44,42.44,0,0,1-18.71-11.52c-2.52-2.74-5.16-5.13-7.57-7.72a8.51,8.51,0,0,1-1.62-8.62C65.39,190.06,69.5,187.62,73.63,187.3Z" fill="#fff"></path><path d="M109.47,224.75a60.43,60.43,0,0,1-17.84-2.49A42.67,42.67,0,0,1,72.71,210.6c-1.31-1.42-2.66-2.76-4-4s-2.44-2.42-3.61-3.67a9,9,0,0,1-1.72-9.14c1.47-3.77,5.52-6.54,10.09-6.93.15-.36.31-.74.46-1.12,1.28-3.14,2.73-6.7,5.23-8.78a6.33,6.33,0,0,1,5-1.34,4.45,4.45,0,0,1,2.51,1.3,13.48,13.48,0,0,1,3.16-4.27,5.79,5.79,0,0,1,5.34-1.18c.78-1.62,4.51-4.4,4.83-4.54a11.56,11.56,0,0,1,6.33-.72c.38-4,7.87-7.63,12.45-9.49,5.77-2.34,15.36-3.45,18.8,2.8l.28-.2a12.75,12.75,0,0,1,5.08-2.51c2.19-.37,4.83.66,5.61,2.78,3.06-.73,3.93.18,5.38,2,.18.22.36.47.57.72.46.57,1.68.68,2.85.78a8.69,8.69,0,0,1,2.54.48,6.67,6.67,0,0,1,3.93,5.18,10.62,10.62,0,0,1,9.85,3c5.5,5.64,4.83,14.31,1.72,20.4-3.9,7.63-11,15.2-19.06,20.25-8.33,5.24-18.44,8.8-30.89,10.89A96.78,96.78,0,0,1,109.47,224.75ZM83.2,176.49a5.37,5.37,0,0,0-3.37,1.19c-2.31,1.92-3.71,5.36-4.94,8.38-.2.49-.39,1-.58,1.42a.52.52,0,0,1-.44.31h-.2c-4.23.33-8,2.86-9.33,6.3a8,8,0,0,0,1.53,8.1c1.15,1.23,2.33,2.4,3.57,3.64s2.68,2.65,4,4.08A41.58,41.58,0,0,0,91.93,221.3c9.37,2.89,20.29,3.22,33.37,1,12.31-2.07,22.3-5.59,30.52-10.76,7.89-5,14.88-12.38,18.7-19.85,2.94-5.77,3.61-14-1.55-19.25a9.46,9.46,0,0,0-9.44-2.6.52.52,0,0,1-.45-.07.54.54,0,0,1-.2-.41,5.64,5.64,0,0,0-3.38-4.91,7.74,7.74,0,0,0-2.22-.4c-1.38-.12-2.81-.26-3.53-1.15-.22-.26-.41-.51-.59-.74-1.34-1.72-1.84-2.37-4.81-1.56a.54.54,0,0,1-.39-.06.5.5,0,0,1-.23-.32c-.4-1.87-2.74-2.82-4.61-2.51a12.27,12.27,0,0,0-4.67,2.35l-.76.53a.49.49,0,0,1-.41.06.48.48,0,0,1-.32-.27c-1.52-3.26-7.69-6.92-17.78-2.81-7.64,3.1-12.07,6.5-11.83,9.07a.53.53,0,0,1-.15.41.51.51,0,0,1-.41.13,11.5,11.5,0,0,0-6.35.57c-.64.32-4.09,3.23-4.38,4.09a.5.5,0,0,1-.63.76h0c-1.6-1-3.68-.29-4.94.74A14.4,14.4,0,0,0,87.21,178a.48.48,0,0,1-.43.27.54.54,0,0,1-.45-.24,3.22,3.22,0,0,0-2.32-1.5A4.36,4.36,0,0,0,83.2,176.49ZM73.63,187.3h0Z" fill="#d1d3d4"></path><path d="M174.53,213.3s9-24.26,7.73-34.74c0,0-12.74,15.29-57.72,22.13-39.16,6-68.58-6.84-68.58-6.84s31.2,40.25,55.65,50.54Z" fill="#fff"></path><path d="M111.61,244.9a.45.45,0,0,1-.2,0c-24.29-10.22-55.55-50.29-55.86-50.7a.52.52,0,0,1,.61-.79c.3.13,29.76,12.68,68.3,6.81,44.21-6.72,57.28-21.8,57.41-22a.52.52,0,0,1,.91.27c1.31,10.48-7.4,34-7.77,35a.55.55,0,0,1-.26.28l-62.92,31.09A.54.54,0,0,1,111.61,244.9ZM57.55,195c5.92,7.36,32.7,39.67,54,48.79l62.52-30.89c.81-2.22,8.28-23,7.74-33.18-3.42,3.36-18.14,15.5-57.24,21.45C91.21,206.29,64.56,197.63,57.55,195Zm117,18.27h0Z" fill="#231f20"></path><circle cx="88.75" cy="256" r="15.28" fill="#231f20"></circle><path d="M88.75,271.78A15.78,15.78,0,1,1,104.53,256,15.8,15.8,0,0,1,88.75,271.78Zm0-30.56A14.78,14.78,0,1,0,103.53,256,14.8,14.8,0,0,0,88.75,241.22Z" fill="#231f20"></path><circle cx="88.75" cy="256" r="10" fill="#fff"></circle><path d="M88.75,266.51A10.51,10.51,0,1,1,99.26,256,10.52,10.52,0,0,1,88.75,266.51Zm0-20A9.48,9.48,0,1,0,98.23,256,9.49,9.49,0,0,0,88.75,246.52Z" fill="#231f20"></path><path d="M306.89,134.76l-.89,61,25.55,30.45L326,238.8s-39.72-22.89-46.47-32.31-7.76-32.13-7.76-32.13l-22.23,22.31L241,239.73l-17-.93s2.16-30.17,2.16-43.36,33.6-58.56,33.6-58.56Z" fill="#231f20"></path><path d="M241,240.23h0l-17-.93a.51.51,0,0,1-.34-.17.49.49,0,0,1-.13-.36c0-.3,2.16-30.3,2.16-43.33,0-13.21,32.32-57,33.7-58.86a.49.49,0,0,1,.37-.2l47.09-2.12a.47.47,0,0,1,.37.14.51.51,0,0,1,.15.37l-.89,60.8,25.43,30.3a.47.47,0,0,1,.08.52L326.45,239a.45.45,0,0,1-.3.27.51.51,0,0,1-.4,0c-1.63-.94-39.88-23-46.63-32.45-6-8.35-7.49-26.53-7.79-31.28L250,196.91l-8.51,42.92A.49.49,0,0,1,241,240.23Zm-16.43-1.9,16,.88,8.46-42.64a.5.5,0,0,1,.13-.26L271.41,174a.51.51,0,0,1,.54-.11.49.49,0,0,1,.31.44c0,.22,1.08,22.66,7.67,31.86,6.22,8.67,41.3,29.25,45.84,31.89l5.2-11.82-25.35-30.2a.52.52,0,0,1-.12-.33l.89-60.46-46.32,2.09c-2.37,3.22-33.36,45.61-33.36,58.07C226.71,207.57,224.86,234.32,224.58,238.33Z" fill="#231f20"></path><path d="M305.72,70.49c-13.45-6.78-48.05-8.63-53.12,1.69-4,8.2,8.17,51.41,8.17,51.41l42.8,8.84S312.43,73.87,305.72,70.49Z" fill="#EA2631"></path><polygon points="255.44 144.86 259.56 102.48 308.07 105.69 306.8 140.8 255.44 144.86" fill="#231f20"></polygon><path d="M255.44,145.36a.47.47,0,0,1-.35-.15.49.49,0,0,1-.14-.4l4.11-42.38a.49.49,0,0,1,.53-.45l48.51,3.21a.5.5,0,0,1,.47.51l-1.27,35.12a.51.51,0,0,1-.46.48l-51.36,4.06ZM260,103l-4,41.31,50.32-4,1.24-34.19Z" fill="#231f20"></path><path d="M274.36,63.74l.92,9s2.13,4.81,7.71,2.4a9.43,9.43,0,0,0,5.67-8.1l-1.78-16.19s-4.71-1.56-5.05-11.15c0,0-5.6,0-14.44.41,0,0-1.22,14.91.26,19.3S274.36,63.74,274.36,63.74Z" fill="#fff"></path><path d="M280.05,76.37A6,6,0,0,1,274.81,73a.94.94,0,0,1,0-.16l-.88-8.6c-1.39-.1-5.43-.74-6.73-4.61-1.49-4.44-.34-18.89-.29-19.51a.52.52,0,0,1,.5-.47c8.75-.38,14.4-.41,14.46-.41h0a.52.52,0,0,1,.52.5c.32,9.12,4.65,10.66,4.7,10.67a.53.53,0,0,1,.35.44L289.18,67a10.06,10.06,0,0,1-6,8.64A8,8,0,0,1,280.05,76.37Zm-4.26-3.73c.28.57,2.26,4.11,7,2.07a8.87,8.87,0,0,0,5.36-7.64L286.4,51.25c-1.1-.54-4.64-2.89-5.06-11-1.53,0-6.46.09-13.47.39-.19,2.52-1,14.82.27,18.64s6,3.94,6.21,3.93a.54.54,0,0,1,.53.47Z" fill="#231f20"></path><path d="M285.15,51.19a3.84,3.84,0,0,1,.94-2.25c1.36-1.55,4.21-2.63,5.5-.46,2.06,3.47-1.64,7.94-5.39,7" fill="#fff"></path><path d="M287.23,56.12a4.54,4.54,0,0,1-1.15-.15.51.51,0,0,1-.38-.62.52.52,0,0,1,.63-.38,4.31,4.31,0,0,0,4.43-1.78,3.91,3.91,0,0,0,.39-4.44,1.88,1.88,0,0,0-1.48-1,4.25,4.25,0,0,0-3.19,1.5,3.35,3.35,0,0,0-.82,1.95.51.51,0,0,1-.55.48.52.52,0,0,1-.48-.55,4.42,4.42,0,0,1,1.07-2.56,5.19,5.19,0,0,1,4.07-1.84A2.83,2.83,0,0,1,292,48.22a5,5,0,0,1-.44,5.59A5.52,5.52,0,0,1,287.23,56.12Z" fill="#231f20"></path><path d="M274.8,68.07a9.83,9.83,0,0,0,4.94-3.15,4.42,4.42,0,0,0,1-4.34,8.47,8.47,0,0,1-6.42,3.16Z" fill="#231f20"></path><path d="M274.8,68.57a.45.45,0,0,1-.29-.1.49.49,0,0,1-.2-.35l-.44-4.33a.5.5,0,0,1,.51-.55h.18a8.08,8.08,0,0,0,5.83-3,.48.48,0,0,1,.46-.19.51.51,0,0,1,.4.32,4.87,4.87,0,0,1-1.14,4.84,10.29,10.29,0,0,1-5.21,3.31Zm.11-4.34.33,3.2a10.14,10.14,0,0,0,4.13-2.84,4,4,0,0,0,1.1-2.93A8.68,8.68,0,0,1,274.91,64.23Z" fill="#231f20"></path><path d="M272.81,56.3a2,2,0,0,1-1.32-.4c-.94-.78.29-3.86,1.48-6.29a.5.5,0,0,1,.9.44c-1.12,2.29-1.92,4.68-1.71,5.12.38.31,1.59,0,2.27-.22a.49.49,0,0,1,.65.27.5.5,0,0,1-.27.65A6,6,0,0,1,272.81,56.3Z" fill="#231f20"></path><ellipse cx="268.99" cy="48.1" rx="0.56" ry="1.45" fill="#231f20"></ellipse><ellipse cx="277.79" cy="48.1" rx="0.56" ry="1.45" fill="#231f20"></ellipse><path d="M274.72,59.74a6.91,6.91,0,0,1-3.35-.85.5.5,0,1,1,.53-.85,5.87,5.87,0,0,0,6.55-.64.49.49,0,0,1,.7.1.5.5,0,0,1-.09.7A7,7,0,0,1,274.72,59.74Z" fill="#231f20"></path><path d="M89.69,258.62,322.81,142.38a2.73,2.73,0,0,0,1.06-3.71h0a2.74,2.74,0,0,0-3.71-1.06L87,253.86A2.72,2.72,0,0,0,86,257.57h0A2.72,2.72,0,0,0,89.69,258.62Z" fill="#fff"></path><path d="M88.37,259.48a3.24,3.24,0,0,1-1.58-6.07L319.93,137.15a3.25,3.25,0,0,1,4.39,1.27,3.24,3.24,0,0,1-1.25,4.41L89.93,259.08A3.23,3.23,0,0,1,88.37,259.48ZM321.49,137.79a2.14,2.14,0,0,0-1.07.28L87.27,254.32a2.21,2.21,0,0,0,2.17,3.85h0L322.58,141.91a2.2,2.2,0,0,0-.49-4A2.06,2.06,0,0,0,321.49,137.79Z" fill="#231f20"></path><path d="M313.5,128.53l-22,25.65s1.63,7.56.12,8.28-9.3,3.26-10.5,1.26a7.68,7.68,0,0,1-.8-4.56l-2-.15s-.77-3.22.79-5.13,22.7-30.21,22.7-30.21" fill="#fff"></path><path d="M283.35,165c-1.24,0-2.24-.27-2.67-1a7.89,7.89,0,0,1-.93-4.36l-1.5-.1a.52.52,0,0,1-.46-.4c0-.14-.82-3.49.9-5.58,1.54-1.88,22.47-29.9,22.68-30.19a.52.52,0,0,1,.83.62c-.87,1.16-21.16,28.32-22.72,30.23-1.09,1.33-.89,3.47-.76,4.32l1.63.11a.52.52,0,0,1,.37.19.54.54,0,0,1,.11.4,7.11,7.11,0,0,0,.73,4.22c.87,1.45,7.82-.51,9.84-1.46.59-.28.4-4-.41-7.7a.53.53,0,0,1,.11-.44l22-25.65a.51.51,0,1,1,.78.67l-21.84,25.45c.53,2.52,1.43,7.83-.21,8.6C291.16,163.24,286.49,165,283.35,165Z" fill="#231f20"></path><path d="M101.48,204.12a159.38,159.38,0,0,0,49.62-7.94c23.55-7.73,37.47-18.24,38.05-18.68a3.5,3.5,0,1,0-4.25-5.56c-.25.19-13.84,10.37-36.26,17.68a152.38,152.38,0,0,1-91.67.87,3.5,3.5,0,0,0-2,6.71A160.89,160.89,0,0,0,101.48,204.12Z" fill="#fff"></path><path d="M101.48,204.63a161.9,161.9,0,0,1-46.68-6.94,4,4,0,0,1-.74-7.38,4,4,0,0,1,3-.31,152,152,0,0,0,91.37-.87c22.21-7.25,35.56-17.19,36.11-17.61a4,4,0,0,1,5.63.76,4,4,0,0,1-.76,5.63c-.58.45-14.53,11-38.2,18.76A159,159,0,0,1,101.48,204.63ZM56,190.86a3,3,0,0,0-.85,5.84,160.87,160.87,0,0,0,46.38,6.9,158.2,158.2,0,0,0,49.46-7.91c23.5-7.72,37.32-18.16,37.9-18.6a2.93,2.93,0,0,0,1.14-2,3,3,0,0,0-2.56-3.36,2.9,2.9,0,0,0-2.2.59c-.57.42-14.05,10.46-36.41,17.76a153,153,0,0,1-92,.88A2.91,2.91,0,0,0,56,190.86Z" fill="#231f20"></path><path d="M80.68,186.44a.4.4,0,0,1-.15,0,.5.5,0,0,1-.33-.62c.68-2.12,1.49-4.31,3.27-5.72,2.51-2,5.94-1.72,9.23-1.26l4.59.64a.51.51,0,0,1,.43.57.51.51,0,0,1-.57.42l-4.59-.64c-3.08-.42-6.27-.7-8.47,1.06-1.56,1.23-2.3,3.26-2.93,5.23A.51.51,0,0,1,80.68,186.44Z" fill="#d1d3d4"></path><path d="M146.86,176.15a.52.52,0,0,1-.37-.16,17.72,17.72,0,0,0-21-3.6.5.5,0,0,1-.48-.88,18.75,18.75,0,0,1,22.18,3.8.5.5,0,0,1-.37.84Z" fill="#d1d3d4"></path><path d="M111,186.29a.52.52,0,0,1-.41-.21.51.51,0,0,1,.11-.7,19.28,19.28,0,0,1,10.9-3.72.48.48,0,0,1,.51.49.49.49,0,0,1-.49.51,18.31,18.31,0,0,0-10.33,3.53A.53.53,0,0,1,111,186.29Z" fill="#d1d3d4"></path><path d="M166.88,177.45a5.75,5.75,0,0,0-3.25-2.43,24.25,24.25,0,0,0-6.57-1.52" fill="#fff"></path><path d="M166.88,178a.49.49,0,0,1-.44-.27,5.36,5.36,0,0,0-3-2.19A23.77,23.77,0,0,0,157,174a.5.5,0,0,1,.09-1,24.94,24.94,0,0,1,6.7,1.56,6.15,6.15,0,0,1,3.52,2.67.5.5,0,0,1-.22.67A.48.48,0,0,1,166.88,178Z" fill="#d1d3d4"></path><path d="M305.72,70.49s23.75,33.23,24,39.42-31.53,38.57-31.53,38.57l-12.67-9.85s22.52-27.8,22.1-30.54S292.87,86,292.87,86,294,73.32,305.72,70.49Z" fill="#EA2631"></path><path d="M264.33,105.83S261.05,82,265,65.62l5.52-.54s-2.52,16.81-.13,42.58Z" fill="#231f20"></path><path d="M270.41,108.16a.35.35,0,0,1-.14,0l-6.09-1.83a.5.5,0,0,1-.35-.4c0-.24-3.24-24.08.71-40.4a.5.5,0,0,1,.44-.37l5.51-.54a.49.49,0,0,1,.41.15.53.53,0,0,1,.13.42c0,.17-2.48,17-.12,42.45a.49.49,0,0,1-.18.43A.47.47,0,0,1,270.41,108.16Zm-5.63-2.72,5.07,1.53c-2-22.39-.3-38.07.11-41.33l-4.53.44C261.89,81.18,264.42,102.59,264.78,105.44Z" fill="#231f20"></path><path d="M292.5,66.27a174.55,174.55,0,0,0-5.63,44.34l6.06-.56S292.5,88.44,299,68.2Z" fill="#231f20"></path><path d="M286.87,111.11a.46.46,0,0,1-.33-.13.48.48,0,0,1-.17-.37A177.22,177.22,0,0,1,292,66.13a.55.55,0,0,1,.24-.3.56.56,0,0,1,.38,0l6.49,1.93a.5.5,0,0,1,.3.25.47.47,0,0,1,0,.38c-6.39,19.93-6.05,41.47-6,41.69a.51.51,0,0,1-.45.51l-6.06.56Zm6-44.22a177.27,177.27,0,0,0-5.48,43.18l5.06-.47c0-3.23.17-22.74,5.93-41.06Z" fill="#231f20"></path><path d="M291.05,44.48c0,.29-21.88.5-28,.55a1.33,1.33,0,0,1-1.22-1.67h0a1.27,1.27,0,0,1,1.21-1h3.35s-.89-11.17,10.56-12.67S291,38.1,291.05,44.48Z" fill="#fff"></path><path d="M263,45.55a1.74,1.74,0,0,1-1.34-.65,1.91,1.91,0,0,1-.37-1.65A1.77,1.77,0,0,1,263,41.81h2.82c0-2.34.72-11.32,11-12.67,4.06-.53,7.37.29,9.86,2.45,4.28,3.7,4.83,10.24,4.86,12.89h0a.53.53,0,0,1-.15.37c-.22.23-.45.46-28.4.7Zm0-2.71a.77.77,0,0,0-.71.63.94.94,0,0,0,.18.78.67.67,0,0,0,.53.27h0c15.15-.13,25.41-.31,27.51-.47-.09-2.73-.75-8.44-4.49-11.68-2.26-1.95-5.3-2.7-9-2.2-10.82,1.41-10.15,11.68-10.11,12.11a.53.53,0,0,1-.52.56Z" fill="#231f20"></path><path d="M270.71,42.32s-.39-6.55,2-10.73c1.59-2.83,6-3.5,7.07-2.3.67.75-2.24,2.11-3.09,5.49a50.52,50.52,0,0,0-.6,7.54" fill="#fff"></path><path d="M270.71,42.84a.51.51,0,0,1-.51-.49c0-.27-.37-6.75,2-11a6.8,6.8,0,0,1,5.06-3.09,3.32,3.32,0,0,1,2.84.71c.61.67,0,1.39-.71,2.15a8.89,8.89,0,0,0-2.26,3.81,50.36,50.36,0,0,0-.59,7.42.49.49,0,0,1-.52.51.52.52,0,0,1-.51-.52,49.67,49.67,0,0,1,.62-7.67,9.86,9.86,0,0,1,2.49-4.23,5.54,5.54,0,0,0,.66-.84,2.68,2.68,0,0,0-1.91-.31,5.7,5.7,0,0,0-4.27,2.57c-2.27,4-1.92,10.39-1.92,10.45a.52.52,0,0,1-.48.55Z" fill="#231f20"></path><path d="M290.13,42.82H266.35a.5.5,0,1,1,0-1h23.78a.5.5,0,0,1,0,1Z" fill="#231f20"></path><path d="M259.55,103a.51.51,0,0,1-.49-.41c-.13-.73-3.15-18-1.66-26.8a.51.51,0,0,1,.58-.41.51.51,0,0,1,.41.58c-1.47,8.63,1.63,26.27,1.66,26.45a.5.5,0,0,1-.41.58Z" fill="#231f20"></path><path d="M307.65,108.59a.48.48,0,0,1-.42-.23L297.14,92.7a.5.5,0,0,1,.15-.69.48.48,0,0,1,.69.15l10.09,15.66a.5.5,0,0,1-.15.69A.53.53,0,0,1,307.65,108.59Z" fill="#231f20"></path><path d="M278,137.67c-.44,0-.89,0-1.33-.06a13.86,13.86,0,0,1-12.6-14.69l.77-12.78a.47.47,0,0,1,.18-.36.51.51,0,0,1,.38-.11L292,112.86a.49.49,0,0,1,.44.52l-.55,11.07A13.93,13.93,0,0,1,278,137.67Zm-12.2-26.94L265.08,123a12.91,12.91,0,1,0,25.79,1.42l.53-10.6Z" fill="#fff"></path><path d="M245.37,224.26,223,220.64l-.93,32.47s-13.64,4.43-13.52,6.89c.17,3.62,31.27,2.13,31.27,2.13Z" fill="#fff"></path><path d="M226.51,263h-2.24c-16.07-.17-16.17-2.09-16.2-2.91,0-.66.85-3.14,13.52-7.3l.93-32.11a.5.5,0,0,1,.19-.38.54.54,0,0,1,.41-.11l22.33,3.62a.51.51,0,0,1,.43.58l-5.52,37.87a.51.51,0,0,1-.49.44C239.8,262.65,233.43,263,226.51,263Zm-3-41.71-.92,31.88a.52.52,0,0,1-.35.48c-6.38,2.07-13.22,5.1-13.16,6.38,0,.18.5,1.77,15.18,1.93,6.67.06,13.39-.2,15.12-.28l5.39-36.95Z" fill="#231f20"></path><path d="M318.47,208.35l-14.72,18.71L327.4,245.5s-4.4,10.56-3.19,12,20.36-17.74,20.36-17.74Z" fill="#fff"></path><path d="M324.4,258.06h0a.79.79,0,0,1-.55-.25c-1.24-1.44,1.53-8.7,2.95-12.14l-23.34-18.2a.49.49,0,0,1-.19-.35.52.52,0,0,1,.1-.38L318.06,208a.52.52,0,0,1,.4-.2.61.61,0,0,1,.4.19L345,239.4a.52.52,0,0,1,0,.7C340.72,244.32,326.79,258.06,324.4,258.06ZM304.47,227l23.25,18.13a.53.53,0,0,1,.16.6c-2.2,5.28-3.67,10.27-3.34,11.3,1.76-.5,11-9,19.34-17.3l-25.4-30.53Z" fill="#231f20"></path><path d="M242.23,231.79h-.08L224,229.11a.51.51,0,0,1-.42-.57.49.49,0,0,1,.56-.42l18.18,2.67a.5.5,0,0,1-.07,1Z" fill="#d1d3d4"></path><path d="M241.53,235.73h-.06l-17.09-2.28a.5.5,0,0,1,.14-1l17.08,2.28a.5.5,0,0,1-.07,1Z" fill="#d1d3d4"></path><path d="M312.77,230.45a.56.56,0,0,1-.31-.11.5.5,0,0,1-.08-.7l10.42-13.23a.5.5,0,1,1,.78.61l-10.41,13.24A.53.53,0,0,1,312.77,230.45Z" fill="#d1d3d4"></path><path d="M316.16,231.79a.49.49,0,0,1-.32-.12.51.51,0,0,1-.06-.71l9.55-11.37a.5.5,0,0,1,.76.64l-9.55,11.38A.53.53,0,0,1,316.16,231.79Z" fill="#d1d3d4"></path></g></svg>