<?xml version="1.0" encoding="UTF-8"?>
<svg id="Calque_2" data-name="Calque 2" xmlns="http://www.w3.org/2000/svg" viewBox="0 0 51.39 44.16">
  <g id="Calque_1-2" data-name="Calque 1">
    <path d="M13.39,.41l-1.01,3.33c-.78,.23-1.52,.51-2.22,.87l-3.19-1.68c-.23-.11-.53-.07-.71,.11l-3.06,2.9c-.18,.17-.22,.46-.09,.67l1.76,3.01c-.38,.67-.69,1.38-.93,2.12l-3.49,.94C.18,12.74,0,12.97,0,13.22v4.12c0,.24,.18,.48,.43,.55l3.49,.94c.24,.74,.57,1.45,.95,2.12l-1.77,3.01c-.13,.21-.09,.51,.09,.69l3.06,2.9c.18,.17,.49,.21,.71,.09l3.19-1.68c.7,.36,1.45,.66,2.22,.88l1.01,3.31c.07,.24,.32,.42,.58,.42h4.33c.26,0,.51-.18,.58-.42l1.01-3.31c.78-.23,1.52-.53,2.22-.88l3.19,1.68c.22,.12,.53,.08,.71-.09l3.06-2.9c.19-.18,.23-.48,.09-.69l-1.77-3.01c.38-.67,.71-1.38,.95-2.12l3.49-.94c.25-.07,.43-.3,.43-.55v-4.12c0-.24-.18-.48-.43-.55l-3.49-.94c-.24-.74-.56-1.45-.93-2.12l1.76-3.01c.13-.21,.09-.5-.09-.67l-3.06-2.9c-.18-.17-.48-.22-.71-.11l-3.19,1.68c-.7-.36-1.45-.64-2.22-.87l-1.01-3.33C18.8,.17,18.56,0,18.3,0h-4.33C13.65,0,13.45,.22,13.39,.41Zm1.01,.73h3.47l.93,3.15c.06,.18,.22,.34,.41,.39,.93,.24,1.83,.6,2.65,1.04,.18,.09,.4,.09,.58,0l3.04-1.59,2.43,2.3-1.7,2.88c-.1,.17-.1,.38,0,.55,.47,.78,.85,1.61,1.1,2.49,.06,.18,.22,.34,.41,.39l3.34,.9v3.27l-3.34,.9c-.19,.05-.36,.2-.41,.39-.26,.88-.63,1.71-1.1,2.49-.1,.17-.1,.39,0,.57l1.68,2.88-2.41,2.28-3.04-1.59c-.18-.09-.4-.09-.58,0-.82,.44-1.72,.8-2.65,1.04-.19,.05-.36,.2-.41,.39l-.95,3.17h-3.44l-.95-3.17c-.06-.18-.22-.34-.41-.39-.93-.24-1.83-.6-2.65-1.04-.18-.09-.4-.09-.58,0l-3.04,1.59-2.41-2.28,1.68-2.88c.1-.17,.1-.39,0-.57-.47-.78-.85-1.61-1.1-2.49-.06-.18-.22-.34-.41-.39l-3.34-.9v-3.27l3.34-.9c.19-.05,.36-.2,.41-.39,.26-.88,.63-1.71,1.1-2.49,.1-.17,.1-.38,0-.55l-1.7-2.88,2.43-2.3,3.04,1.59c.18,.09,.4,.09,.58,0,.82-.44,1.72-.8,2.65-1.04,.19-.05,.36-.2,.41-.39l.93-3.15Zm1.74,7.36c-3.95,0-7.17,3.05-7.17,6.79s3.22,6.79,7.17,6.79,7.17-3.05,7.17-6.79-3.22-6.79-7.17-6.79Zm0,1.13c3.31,0,5.98,2.53,5.98,5.66s-2.67,5.66-5.98,5.66-5.98-2.53-5.98-5.66,2.67-5.66,5.98-5.66Zm22.28,13.02c-.21,.04-.39,.21-.45,.41l-.67,2.19c-.48,.15-.94,.35-1.38,.57l-2.13-1.13c-.23-.11-.53-.07-.71,.11l-2.13,2c-.19,.18-.23,.48-.09,.69l1.18,2c-.23,.41-.41,.86-.56,1.31l-2.35,.64c-.25,.07-.43,.3-.43,.55v2.85c0,.24,.18,.48,.43,.55l2.33,.64c.15,.46,.35,.89,.58,1.31l-1.18,2.02c-.13,.21-.09,.5,.09,.67l2.13,2c.18,.17,.48,.22,.71,.11l2.13-1.13c.44,.22,.9,.42,1.38,.57l.67,2.19c.06,.24,.3,.42,.56,.42h3.02c.26,0,.5-.19,.56-.42l.67-2.19c.48-.15,.94-.35,1.38-.57l2.13,1.13c.23,.11,.53,.07,.71-.11l2.13-2c.18-.17,.22-.46,.09-.67l-1.18-2.02c.23-.42,.42-.85,.58-1.31l2.33-.64c.25-.07,.43-.3,.43-.55v-2.85c0-.24-.18-.48-.43-.55l-2.35-.64c-.15-.45-.33-.9-.56-1.31l1.18-2c.13-.21,.09-.51-.09-.69l-2.13-2c-.18-.17-.48-.22-.71-.11l-2.13,1.13c-.44-.22-.9-.42-1.38-.57l-.67-2.19c-.07-.23-.31-.4-.56-.41h-3.02s-.07,0-.11,0Zm.56,1.13h2.13l.62,2.05c.06,.18,.22,.34,.41,.39,.63,.16,1.22,.41,1.77,.71,.18,.1,.42,.1,.6,0l1.98-1.04,1.48,1.4-1.1,1.89c-.09,.17-.08,.38,.02,.55,.32,.53,.55,1.1,.73,1.7,.06,.19,.23,.34,.43,.39l2.17,.58v2l-2.17,.58c-.21,.05-.38,.21-.43,.41-.17,.6-.41,1.15-.73,1.68-.1,.16-.11,.38-.02,.55l1.12,1.89-1.49,1.4-1.98-1.04c-.18-.1-.42-.1-.6,0-.56,.3-1.14,.54-1.77,.71-.19,.05-.36,.2-.41,.39l-.62,2.07h-2.13l-.62-2.07c-.06-.18-.22-.34-.41-.39-.63-.16-1.22-.41-1.77-.71-.18-.1-.42-.1-.6,0l-1.98,1.04-1.49-1.4,1.12-1.89c.09-.17,.08-.38-.02-.55-.32-.53-.55-1.08-.73-1.68-.05-.19-.22-.36-.43-.41l-2.17-.58v-2l2.17-.58c.2-.05,.37-.2,.43-.39,.17-.6,.41-1.17,.73-1.7,.1-.16,.11-.38,.02-.55l-1.1-1.89,1.48-1.4,1.98,1.04c.18,.1,.42,.1,.6,0,.56-.3,1.14-.54,1.77-.71,.19-.05,.36-.2,.41-.39l.62-2.05Zm1.06,5.66c-2.3,0-4.18,1.78-4.18,3.96s1.88,3.96,4.18,3.96,4.18-1.78,4.18-3.96-1.88-3.96-4.18-3.96Zm0,1.13c1.66,0,2.99,1.26,2.99,2.83s-1.33,2.83-2.99,2.83-2.99-1.26-2.99-2.83,1.33-2.83,2.99-2.83Z" style="fill: #dc6c36;"/>
  </g>
</svg>