<?xml version="1.0" encoding="UTF-8"?>
<svg id="Calque_2" data-name="Calque 2" xmlns="http://www.w3.org/2000/svg" viewBox="0 0 68.12 58.23">
  <g id="Calque_1-2" data-name="Calque 1">
    <g>
      <path d="M33.77,11.65c5.14,0,10,2.26,13.33,6.2,1.04,1.24,2.57,1.98,4.19,2.05,1.61,.06,3.22-.55,4.37-1.7,2.12-2.12,2.3-5.54,.41-7.79C50.52,3.79,42.4,0,33.77,0,18.11,0,5.3,12.43,4.69,27.95H1.16c-.47,0-.9,.28-1.08,.72-.18,.44-.08,.94,.25,1.27l9.32,9.32c.23,.23,.53,.34,.82,.34s.6-.11,.82-.34l9.32-9.32c.33-.33,.43-.83,.25-1.27-.18-.44-.61-.72-1.08-.72h-3.43c.6-9.09,8.17-16.3,17.41-16.3ZM10.48,36.78l-6.51-6.51h13.01l-6.51,6.51Zm3.53-8.83H7.01C7.62,13.72,19.39,2.33,33.77,2.33c7.93,0,15.41,3.49,20.52,9.57,1.12,1.33,1,3.37-.28,4.64-.7,.7-1.64,1.06-2.63,1.02-.98-.04-1.87-.48-2.51-1.23-3.77-4.46-9.28-7.02-15.11-7.02-10.53,0-19.16,8.26-19.76,18.63Z" style="fill: #dc6c36;"/>
      <path d="M58.46,18.97c-.46-.46-1.19-.46-1.65,0l-9.32,9.32c-.33,.33-.43,.83-.25,1.27,.18,.44,.61,.72,1.08,.72h3.44c-.58,9.23-8.01,16.3-17.41,16.3-5.14,0-10-2.26-13.33-6.2-1.04-1.24-2.57-1.98-4.19-2.05-1.63-.06-3.22,.55-4.37,1.7-2.12,2.12-2.3,5.54-.41,7.79,5.55,6.61,13.68,10.4,22.3,10.4,15.66,0,28.47-12.43,29.09-27.95h3.52c.47,0,.9-.28,1.08-.72,.18-.44,.08-.94-.25-1.27l-9.32-9.32Zm-24.11,36.93c-7.93,0-15.41-3.49-20.52-9.57-1.12-1.33-1-3.37,.28-4.64,.67-.67,1.54-1.03,2.47-1.03,.05,0,.1,0,.15,0,.98,.04,1.87,.48,2.51,1.23,3.77,4.46,9.28,7.02,15.11,7.02,10.71,0,19.18-8.09,19.77-18.63h6.99c-.61,14.23-12.38,25.62-26.76,25.62Zm27.95-27.95h-11.16l6.51-6.51,6.51,6.51h-1.85Z" style="fill: #dc6c36;"/>
      <path d="M49.42,13.47c.23,.23,.53,.34,.82,.34s.6-.11,.82-.34c.46-.46,.46-1.19,0-1.65-9.54-9.54-25.05-9.54-34.59,0-.46,.46-.46,1.19,0,1.65,.46,.46,1.19,.46,1.65,0,8.63-8.62,22.67-8.62,31.29,0Z" style="fill: #dc6c36;"/>
      <path d="M49.42,44.76c-8.63,8.62-22.67,8.62-31.29,0-.46-.46-1.19-.46-1.65,0-.46,.46-.46,1.19,0,1.65,4.77,4.77,11.03,7.15,17.29,7.15s12.53-2.38,17.29-7.15c.46-.46,.46-1.19,0-1.65-.46-.46-1.19-.46-1.65,0Z" style="fill: #dc6c36;"/>
    </g>
  </g>
</svg>