<?xml version="1.0" encoding="UTF-8"?>
<svg id="Calque_2" data-name="Calque 2" xmlns="http://www.w3.org/2000/svg" viewBox="0 0 41.54 57.35">
  <g id="Calque_1-2" data-name="Calque 1">
    <path d="M1.07,47.6c-.99-1.36-1.34-2.86-.86-4.49,.5-1.67,1.61-2.78,3.27-3.31,.37-.12,.48-.25,.48-.64-.02-3.02-.02-6.05,0-9.07,0-.38-.09-.54-.48-.65C1.38,28.81-.1,26.72,.02,24.58c.13-2.39,1.7-4.23,3.99-4.66,.41-.08,.77-.23,1.12-.46,3.41-2.28,6.82-4.56,10.24-6.82,.35-.23,.53-.48,.63-.91,.43-1.75,1.5-2.98,3.24-3.54,.45-.14,.55-.34,.54-.77-.02-2,0-4-.02-5.99,0-.61,.15-1.09,.67-1.42h.67c.52,.33,.68,.81,.67,1.42-.03,2.02,0,4.03-.02,6.05,0,.38,.08,.57,.49,.7,1.82,.58,2.92,1.86,3.33,3.72,.06,.28,.18,.46,.41,.62,3.57,2.37,7.14,4.75,10.7,7.14,.28,.19,.59,.22,.89,.28,2.04,.39,3.73,2.25,3.92,4.21,.25,2.59-1.35,4.63-3.3,5.24-.5,.16-.64,.36-.64,.88,.03,2.97,.02,5.94,0,8.9,0,.39,.1,.53,.48,.64,2.39,.71,3.88,3.2,3.41,5.64-.48,2.45-2.7,4.15-5.19,3.98-2.07-.14-3.8-1.5-4.38-3.49-.11-.36-.26-.45-.61-.45-2.13,.02-4.26,.02-6.38,0-2.46-.01-4.28-1.4-4.94-3.75-.14-.5-.17-1.03-.17-1.55,0-4.63,0-9.26,.01-13.89,0-.47-.12-.58-.58-.57-2.97,.02-5.94,.02-8.9,0-.39,0-.52,.12-.65,.49-.52,1.61-1.61,2.7-3.23,3.22-.39,.12-.47,.28-.47,.66,.01,3.02,.01,6.05,0,9.07,0,.29,0,.5,.37,.62,3.45,1.1,4.63,4.87,2.47,7.83-.71,.78-1.55,1.38-2.58,1.65-.19,.05-.3,.13-.29,.34,.03,.89-.08,1.78,.06,2.66,0,1.21-.01,2.42-.02,3.62,0,.17,0,.34-.01,.5-.08,.6-.49,.99-1.02,.97-.56-.01-.95-.44-.96-1.08-.01-1.13,0-2.27,0-3.4,0-.2,0-.41-.01-.61,0-.88,.01-1.75,.02-2.63,0-.18-.02-.3-.24-.36-1.07-.26-1.91-.89-2.65-1.67ZM18.03,13.93c.41,1.15,1.48,1.88,2.73,1.88,1.26,0,2.33-.73,2.73-1.88,.46-1.35,.1-2.64-.97-3.44-1.05-.78-2.48-.78-3.53,0-1.07,.8-1.43,2.09-.97,3.44ZM7.66,45.56c.44-1.04,.26-2.01-.4-2.88-.89-1.16-2.43-1.46-3.71-.78-1.32,.7-1.84,2.12-1.36,3.68,.07,.15,.12,.31,.21,.45,.63,.99,1.55,1.53,2.71,1.43,1.2-.1,2.15-.66,2.55-1.9ZM24.64,15.91c-.14,.14-.29,.29-.43,.43-1.13,1.1-2.47,1.56-4.05,1.39-1.35-.15-2.38-.85-3.27-1.81-.3-.43-.55-.88-.76-1.35-.04,0-.06,0-.07,.01-2.83,1.87-5.65,3.75-8.48,5.62-.3,.2-.14,.28,.05,.41,1.02,.67,1.73,1.58,2.05,2.76,.08,.28,.2,.37,.5,.37,7.05,0,14.11,0,21.16,0,.3,0,.42-.1,.5-.37,.31-1.14,.98-2.05,1.96-2.7,.37-.25,.36-.34,0-.57-2.46-1.62-4.9-3.26-7.35-4.89-.34-.23-.68-.45-1.04-.69-.22,.52-.48,.97-.78,1.4Zm-2.87,17.49c0,2.3,0,4.59,0,6.89,0,1.98,1.19,3.19,3.15,3.2,2.13,.01,4.25,0,6.38,.01,.34,0,.47-.1,.58-.43,.52-1.66,1.63-2.77,3.29-3.29,.33-.1,.42-.25,.42-.58-.01-3.06-.01-6.12,0-9.18,0-.38-.14-.48-.48-.59-1.61-.53-2.7-1.61-3.22-3.23-.12-.37-.26-.49-.65-.48-2.99,.02-5.97,.02-8.96,0-.41,0-.53,.09-.53,.51,.02,2.39,.01,4.78,.01,7.17ZM7.89,24.74c0-1.62-1.3-2.96-2.93-2.98-1.59-.02-2.96,1.32-2.98,2.94-.02,1.6,1.32,2.96,2.94,2.97,1.62,.01,2.96-1.31,2.97-2.93Zm25.75,0c0,1.62,1.34,2.94,2.97,2.94,1.61,0,2.96-1.37,2.94-2.97-.02-1.62-1.38-2.96-2.98-2.94-1.62,.02-2.94,1.35-2.93,2.98Zm0,19.78c0,1.62,1.36,2.96,2.96,2.94,1.62-.02,2.96-1.37,2.94-2.98-.02-1.63-1.35-2.94-2.97-2.93-1.63,0-2.94,1.33-2.93,2.96Z" style="fill: #dc6c36;"/>
  </g>
</svg>