<?xml version="1.0" encoding="utf-8"?>
<!-- Generator: $$$/GeneralStr/196=Adobe Illustrator 27.6.0, SVG Export Plug-In . SVG Version: 6.00 Build 0)  -->
<svg version="1.1" id="Calque_1" xmlns="http://www.w3.org/2000/svg" xmlns:xlink="http://www.w3.org/1999/xlink" x="0px" y="0px"
	 viewBox="0 0 200 200" style="enable-background:new 0 0 200 200;" xml:space="preserve">
<style type="text/css">
	.st0{fill:#DC9AC4;}
</style>
<g>
	<g>
		<path class="st0" d="M99,35.1c1.6,0,2.8-1.3,2.8-2.8V21c0-1.6-1.3-2.8-2.8-2.8s-2.8,1.3-2.8,2.8v11.2C96.2,33.8,97.4,35.1,99,35.1
			z"/>
		<path class="st0" d="M20.4,102.5h11.2c1.6,0,2.8-1.3,2.8-2.8c0-1.6-1.3-2.8-2.8-2.8H20.4c-1.6,0-2.8,1.3-2.8,2.8
			C17.5,101.2,18.8,102.5,20.4,102.5z"/>
		<path class="st0" d="M166.4,102.5h11.2c1.6,0,2.8-1.3,2.8-2.8c0-1.6-1.3-2.8-2.8-2.8h-11.2c-1.6,0-2.8,1.3-2.8,2.8
			C163.6,101.2,164.9,102.5,166.4,102.5z"/>
		<path class="st0" d="M49.3,54c0.5,0.5,1.3,0.8,2,0.8s1.4-0.3,2-0.8c1.1-1.1,1.1-2.9,0-4l-7.9-7.9c-1.1-1.1-2.9-1.1-4,0
			c-1.1,1.1-1.1,2.9,0,4L49.3,54z"/>
		<path class="st0" d="M154.6,158.1c0.7,0,1.4-0.3,2-0.8c1.1-1.1,1.1-2.9,0-4l-7.9-7.9c-1.1-1.1-2.9-1.1-4,0c-1.1,1.1-1.1,2.9,0,4
			l7.9,7.9C153.2,157.8,153.9,158.1,154.6,158.1z"/>
		<path class="st0" d="M53.9,145.4c-1.1-1.1-2.9-1.1-4,0l-7.9,7.9c-1.1,1.1-1.1,2.9,0,4c0.5,0.5,1.3,0.8,2,0.8s1.4-0.3,2-0.8
			l7.9-7.9C55,148.2,55,146.5,53.9,145.4z"/>
		<path class="st0" d="M147.2,54.8c0.7,0,1.4-0.3,2-0.8l7.9-7.9c1.1-1.1,1.1-2.9,0-4c-1.1-1.1-2.9-1.1-4,0l-7.9,7.9
			c-1.1,1.1-1.1,2.9,0,4C145.8,54.6,146.5,54.8,147.2,54.8z"/>
		<path class="st0" d="M87.8,169.9h22.5c1.6,0,2.8-1.3,2.8-2.8s-1.3-2.8-2.8-2.8H87.8c-1.6,0-2.8,1.3-2.8,2.8S86.2,169.9,87.8,169.9
			z"/>
		<path class="st0" d="M87.8,181.1h22.5c1.6,0,2.8-1.3,2.8-2.8s-1.3-2.8-2.8-2.8H87.8c-1.6,0-2.8,1.3-2.8,2.8S86.2,181.1,87.8,181.1
			z"/>
		<path class="st0" d="M85,145.3v10.5c0,1.5,1.2,2.8,2.8,2.8c7.7,0.1,12.9,0.2,16.4,0.2c7.1,0,7.4-0.3,8.1-1c0.5-0.5,0.8-1.3,0.8-2
			v-10.5c19.5-6,33.7-24.2,33.7-45.6c0-26.3-21.4-47.7-47.7-47.7S51.3,73.4,51.3,99.7C51.3,121.1,65.5,139.3,85,145.3z M107.4,153.2
			c-3.5,0.1-10.2,0-16.9-0.1v-6.4c2.7,0.5,5.5,0.8,8.4,0.8s5.7-0.3,8.4-0.8V153.2z M101.8,112.1l10.4-10.4c1.1-1.1,1.1-2.9,0-4
			c-1.1-1.1-2.9-1.1-4,0l-6.4,6.4V88.5c0-1.6-1.3-2.8-2.8-2.8s-2.8,1.3-2.8,2.8v15.7l-6.4-6.4c-1.1-1.1-2.9-1.1-4,0
			c-1.1,1.1-1.1,2.9,0,4l10.4,10.4v18.4c-15.7-1.4-28.1-14.7-28.1-30.8c0-17,13.9-30.9,30.9-30.9s30.9,13.9,30.9,30.9
			c0,16.1-12.4,29.3-28.1,30.8V112.1z M99,57.6c23.2,0,42.1,18.9,42.1,42.1c0,22.3-17.4,40.5-39.3,42v-5.6
			c18.8-1.4,33.7-17.2,33.7-36.4c0-20.1-16.4-36.5-36.5-36.5S62.5,79.6,62.5,99.7c0,19.2,14.9,34.9,33.7,36.4v5.6
			c-21.9-1.5-39.3-19.7-39.3-42C56.9,76.5,75.8,57.6,99,57.6z"/>
	</g>
</g>
</svg>
