<?xml version="1.0" encoding="utf-8"?>
<!-- Generator: $$$/GeneralStr/196=Adobe Illustrator 27.6.0, SVG Export Plug-In . SVG Version: 6.00 Build 0)  -->
<svg version="1.1" id="Calque_1" xmlns="http://www.w3.org/2000/svg" xmlns:xlink="http://www.w3.org/1999/xlink" x="0px" y="0px"
	 viewBox="0 0 200 200" style="enable-background:new 0 0 200 200;" xml:space="preserve">
<style type="text/css">
	.st0{fill:#DC9AC4;}
</style>
<g>
	<g transform="translate(0.000000,512.000000) scale(0.100000,-0.100000)">
		<path class="st0" d="M518.1,5022.9c-69.5-5.3-158.2-26.2-204-48.6c-39.4-19.5-58.5-35.5-70.6-59.6l-9.2-18.4v-358.6v-358.6
			l9.2-18.8c25.2-50.4,120.3-90.5,244.4-103.2c21.6-2.1,44.3-5,50.7-5.7l11.4-1.8v-52.1c0-57.5,3.5-70.9,23.4-90.8
			c23.8-23.8,19.2-23.4,224.2-23.4h185.2v-97.5v-97.5H655.7c-228.4,0-331.7-1.1-341.6-3.9c-18.8-5.3-45.8-32.3-51.1-51.1
			c-2.5-8.5-3.9-48.6-3.9-101.5v-87.3l-13.8-3.9c-7.4-2.5-21.3-11-30.5-19.2c-52.9-46.8-42.2-133,20.2-164.6
			c83.7-42.6,174.9,43.3,137.6,129.1c-9.6,22.3-36.9,48.6-57.1,54.3l-13.8,4.3v88.7v88.3l12.1,12.1l12.1,12.1h149.3h149.3v-100.4
			v-100.7l-13.8-4.3c-20.2-5.7-47.5-31.9-57.1-54.3c-11-25.5-8.9-65.6,4.3-88.3c17.4-29.1,44-46.8,78.4-51.4
			c34.1-4.6,75.9,16.7,96.1,49.3c14.9,24.1,17.4,63.5,5.7,90.5c-9.6,22.3-36.9,48.6-57.1,54.3l-13.8,4.3v100.7v100.4h157.9h157.9
			v-100.4v-100.7l-13.8-4.3c-19.9-5.7-47.5-31.9-56.8-53.9c-10.6-24.1-10.6-56.8,0-80.9c14.5-34.4,54.3-60.7,91.9-60.7
			c36.5,0,75.2,24.8,90.8,58.5c11.7,24.8,11.7,60.3,0,85.1c-9.9,21.3-36.5,46.1-55.7,52.1l-13.8,3.9v100.7v100.4h157.9h157.9v-98.6
			v-99l-13.5-3.9c-17.7-5.3-40.8-25.5-53.2-46.1c-8.5-14.9-9.6-20.2-9.6-48.6c0-23.8,1.8-34.8,6.4-43.3c33-61,108.2-75.9,157.9-31.2
			c55.3,50,39.7,143.3-28,167.4l-17.4,6.4v98.3v98.6H1533h149.3l12.1-12.1l12.1-12.1v-88.3v-88l-17.4-6.4
			c-20.6-7.1-42.9-28.4-54.3-51.4c-11.4-23.4-11-59.9,0.4-83.4c18.4-38,49.7-57.1,92.6-57.5c23.1,0,29.1,1.4,45.8,10.6
			c45.8,25.2,64.6,74.5,47.5,124.5c-7.8,22.3-36.9,52.1-57.1,58.5l-14.9,4.3v87.3c0,52.9-1.4,92.9-3.9,101.5
			c-5.3,18.8-32.3,45.8-51.1,51.1c-9.9,2.8-113.2,3.9-341.2,3.9h-327.4v97.5v97.5h185.5h185.5l18.1,8.9
			c18.1,9.2,32.3,25.5,39.7,45.4c2.1,5.7,3.9,33,3.9,61v51.1l11.7,1.8c6,0.7,29.1,3.5,50.4,5.7c124.2,12.8,219.2,52.9,244.4,103.2
			l9.2,18.8v358.6v358.6l-9.2,18.8c-23.4,47.2-102.9,83-225.6,102.2c-56.4,8.5-187.3,8.5-243.7,0c-122-19.2-201.8-55.3-225.2-102.2
			l-9.2-18.8v-358.6v-358.6l9.2-18.8c28-56.4,135.5-96.1,289.8-107.5l55.7-4.3V4001c0-51.4-3.5-63.9-20.2-71.3
			c-12.8-5.7-770.8-5.3-783.2,0.4c-16.3,7.4-19.5,19.2-19.5,71.3v47.2l56,4.3c153.9,11.4,259.3,50.4,288.7,106.8l9.9,18.8v359V4896
			l-8.5,18.1c-24.8,53.6-126.3,94.4-267.5,107.8C636.2,5025.1,555.4,5025.8,518.1,5022.9z M720.3,4972.9
			c55-9.2,91.9-19.9,125.9-36.2c29.8-14.2,53.2-34.8,56.8-49.7c5-20.9-28-48.6-81.2-68.1c-64.9-23.8-138.3-34.8-230.2-34.8
			c-84.1,0-144,7.4-206.4,25.2c-58.5,17-108.2,50.4-108.2,72.7c0,40.8,101.8,83.7,228.8,96.8
			C555.7,4984.3,672.8,4980.7,720.3,4972.9z M1541.5,4974c106.8-16.7,189.8-56.4,189.8-90.5c0-31.9-67.8-68.5-161.4-86.6
			c-99.7-19.5-241.2-16.7-332.4,6.4c-84.8,21.6-138.7,55.7-132.3,83.7c9.9,41.5,114.9,81.9,243,93.6
			C1381.5,4983.6,1507.4,4979.3,1541.5,4974z M337.2,4781.4c30.5-12.1,71.3-22.3,122.4-31.6c28-5,56-6,131.2-6
			c84.4-0.4,101.1,0.7,140.8,7.8c72.4,13.1,133.7,33.3,162.8,54.3l10.3,7.1v-82.3c0-94.4-0.7-96.5-31.2-116.3
			c-72.7-46.8-215.3-69.5-359.7-57.1l-53.9,4.6l-6.4-8.2c-8.5-10.6-7.1-20.6,4.3-28.7c20.9-14.9,173.8-17.7,258.9-5
			c71.3,11,122.7,26.2,166,49.7l22,12.4v-82.6c0-89.4,0-89-21.3-107.8c-23.8-20.9-88.7-45-151.5-55.7
			c-179.5-31.6-401.5,4.3-449.1,72.4c-5.3,7.4-6,18.8-6,91.2v82.6l19.5-11c22.3-12.8,35.1-12.1,41.5,2.1c6,13.1,0,22.7-23.8,36.9
			c-36.9,22.3-37.2,23.4-37.2,119.5v83l17-10.3C303.1,4796.6,322.7,4787.1,337.2,4781.4z M1163.7,4781.4
			c30.5-12.1,71.3-22.3,122.4-31.6c28-5,56-6,131.2-6c84.4-0.4,101.1,0.7,140.8,7.8c72.4,13.1,133.7,33.3,162.8,54.3l10.3,7.1V4731
			c0-90.8-0.7-94.4-22.7-111.4c-19.9-14.9-61-33-97.9-42.9c-62.4-16.3-104.6-21.3-193.3-21.3c-59.9,0-91.9,1.8-120.6,6.4
			c-95.8,14.9-172.4,46.5-188.4,77.3c-3.9,7.8-5,27.3-5,91.5v81.9l17-10.3C1129.7,4796.6,1149.2,4787.1,1163.7,4781.4z
			 M1166.9,4550.1c27.3-10.6,80.5-23.4,128.1-30.9c30.2-4.6,61.7-6.4,122.4-6.4c87.6,0,131.6,5,197.2,21.3
			c40.1,9.9,64.6,19.2,94.7,35.5l22,12.4v-82.6c0-89.4,0-89-21.3-107.8c-23.8-20.9-88.7-45-151.5-55.7
			c-179.5-31.6-401.5,4.3-449.1,72.4c-5.3,7.4-6,18.8-6,91.2v82.6l22.3-12.4C1137.8,4563.2,1156.3,4554.4,1166.9,4550.1z
			 M293.9,4342.9c19.5-13.1,62.8-29.4,103.9-39.4c64.6-15.6,112.1-20.6,193-20.6s128.4,5,193,20.6c41.1,9.9,84.4,26.2,103.9,39.4
			c7.4,4.6,14.2,8.5,15.3,8.5c1.1,0,1.8-36.9,1.8-81.6c0-93.3-0.7-95.4-27-113.5c-59.2-41.1-156.1-61.7-287-61.7
			s-227.7,20.6-287,61.7c-26.2,18.1-27,20.2-27,113.5c0,44.7,0.7,81.6,1.8,81.6C279.7,4351.5,286.5,4347.6,293.9,4342.9z
			 M1120.4,4342.9c19.5-13.1,62.8-29.4,103.9-39.4c64.6-15.6,112.1-20.6,193-20.6c80.9,0,128.4,5,193,20.6
			c41.1,9.9,84.4,26.2,103.9,39.4c7.4,4.6,14.2,8.5,15.3,8.5c1.1,0,1.8-36.9,1.8-81.6c0-93.3-0.7-95.4-27-113.5
			c-59.2-41.1-156.1-61.7-287-61.7s-227.7,20.6-287,61.7c-26.2,18.1-27,20.2-27,113.5c0,44.7,0.7,81.6,1.8,81.6
			C1106.2,4351.5,1113,4347.6,1120.4,4342.9z M1389.3,3400.4c36.9-17.7,43.3-65.3,12.4-92.9c-16.3-14.9-34.4-19.2-53.6-13.5
			c-26.6,7.8-42.6,28.4-42.6,55C1305.6,3394.1,1348.5,3420.3,1389.3,3400.4z M310.2,3396.2c16-8.9,30.5-33,30.5-50.4
			c0-18.4-14.2-41.1-31.9-50.4c-18.8-9.9-35.1-10.3-53.2-1.1c-25.5,13.1-38,43.6-28.7,71.7C237.9,3399,279.4,3413.9,310.2,3396.2z
			 M677,3394.8c15.3-11.4,23.1-24.5,24.5-42.6c4.6-46.8-39.7-78.4-81.9-58.2c-42.9,20.9-43.6,81.6-1.1,103.2
			C636.6,3406.5,662.8,3405.4,677,3394.8z M1035.3,3394.8c34.8-25.5,34.4-72.4-0.4-98.3c-14.2-10.3-47.5-10.3-61.7,0
			c-17,12.8-25.9,29.1-25.9,48.2c0,25.5,13.5,46.5,35.5,55.7C995.9,3406.1,1024.3,3402.9,1035.3,3394.8z M1760.7,3392.6
			c34.4-26.2,30.2-78.7-8.2-98.3c-26.2-13.5-58.2-5.3-75.2,18.4c-11.7,16.7-11.7,49.3,0,66
			C1696.5,3405.4,1735.5,3411.8,1760.7,3392.6z"/>
		<path class="st0" d="M756.8,4716.8c-14.2-8.5-22.3-23.8-22.3-42.6c0-29.8,20.2-50.4,50-50.7c52.5-0.7,70.9,70.9,24.5,95.1
			C794.4,4726,770.3,4725.3,756.8,4716.8z M793.4,4677.4c2.8-5-7.4-15.3-12.4-12.4c-2.1,1.4-3.9,5.7-3.9,9.6
			C777.1,4682.1,789.1,4684.2,793.4,4677.4z"/>
		<path class="st0" d="M463.1,4673.5c-14.2-7.8-16.7-22.7-6-32.6c9.6-8.5,56-13.5,130.2-13.5c84.1-0.4,106.8,2.5,114.2,13.5
			c6.4,10.3,3.9,24.5-5.7,29.4c-4.3,2.5-23.1,2.5-53.9,0.4c-42.6-2.8-150.8,0.7-166.4,5.3C472.7,4676.7,467,4675.7,463.1,4673.5z"/>
		<path class="st0" d="M768.2,4496.5c-18.8-5.3-31.2-21.6-33-43.3c-2.8-33.7,16.7-55.7,49-55.7c21.6,0,37.6,10.3,46.5,30.2
			c12.1,27,0,56.4-27.7,67.8C790.2,4501.1,783.8,4501.1,768.2,4496.5z M791.2,4452.6c5.3-6.4,1.8-12.4-7.4-12.4
			c-4.3,0-6.7,2.5-6.7,6.4C777.1,4458.2,784.2,4461.4,791.2,4452.6z"/>
		<path class="st0" d="M458.2,4444c-9.2-9.2-9.6-18.4-1.1-28c5-6,12.8-8.2,40.4-11.4c39.4-3.9,151.1-4.3,179.8-0.4
			c25.9,3.9,35.8,17.7,24.1,33.7c-4.6,6-12.8,6.7-107.5,7.4c-56.4,0.4-108.2,1.8-115.3,3.5C468.1,4451.1,464.5,4450.4,458.2,4444z"
			/>
		<path class="st0" d="M1584.1,4716.8c-30.5-20.2-30.2-66.7,0.7-85.8c25.5-15.6,59.2-6.4,72.4,19.2c12.1,23.8,7.1,46.1-14.5,64.6
			C1628.4,4726.4,1600.4,4727.5,1584.1,4716.8z M1620.2,4675.7c2.5-6.4-5-12.4-12.1-9.6c-2.5,1.1-4.6,5-4.6,8.5
			C1603.6,4683.1,1617,4683.8,1620.2,4675.7z"/>
		<path class="st0" d="M1286.4,4669.3c-10.6-10.3-11.4-15.3-3.9-25.9c6.4-9.2,16.7-11,83.4-15.3c69.5-3.9,150.4,0.7,160,9.2
			c9.2,8.5,8.9,24.8-1.1,31.2c-6.7,4.3-16.3,4.6-56,2.1c-44.3-2.8-145.1,0.7-165.3,5.7C1297.8,4677.8,1292.8,4676,1286.4,4669.3z"/>
		<path class="st0" d="M1589.4,4492.6c-33.7-17.4-38-57.1-8.9-84.4c8.2-7.4,12.8-8.9,31.9-8.9c19.2,0,23.8,1.4,31.9,8.9
			c20.2,18.8,24.8,41.5,13.1,63.8c-6.7,12.8-31.2,28.4-45,28.4C1608.5,4500.4,1597.9,4496.9,1589.4,4492.6z M1617.4,4454.7
			c6-3.9,2.5-14.5-4.6-14.5c-6.7,0-10.3,6-7.8,12.4C1607.1,4458.6,1610.3,4458.9,1617.4,4454.7z"/>
		<path class="st0" d="M1284.7,4441.9c-8.2-10.6-7.4-21.6,2.1-29.1s43.6-9.9,138-9.9c86.6,0,93.3,0.4,100.4,6.7
			c8.9,7.8,9.9,24.1,1.8,30.9c-4.3,3.2-28.7,4.6-103.6,5c-53.9,0-105.7,1.8-114.6,3.2C1293.5,4451.5,1292.1,4450.8,1284.7,4441.9z"
			/>
		<path class="st0" d="M760.7,4266.7c-18.8-11.4-26.2-24.1-26.2-44c0-21.6,9.6-38.3,26.2-46.5c35.1-16.7,74.1,7.1,74.1,45.4
			S792.3,4285.8,760.7,4266.7z M792,4226.6c2.8-7.4-0.7-13.5-8.2-13.5c-6.7,0-9.6,10.3-4.3,15.3
			C783.4,4232.3,790.5,4231.2,792,4226.6z"/>
		<path class="st0" d="M457.1,4217.7c-8.2-9.2-8.2-20.6,0.4-29.1c5-5,14.9-7.8,34.8-9.9c40.8-4.3,188.7-3.2,200.4,1.8
			c12.1,5,16.3,19.2,8.9,30.2c-5,7.8-5.7,7.8-100.4,7.8c-52.5,0.4-105,1.8-116.7,3.2C465.6,4224.1,462.4,4223.8,457.1,4217.7z"/>
		<path class="st0" d="M1589.4,4267c-36.2-18.1-37.6-68.1-2.8-89.4c35.1-21.3,80.2,7.8,76.3,49.3c-1.1,8.5-4.6,19.5-8.5,24.8
			c-8.5,11.7-28,21.6-41.9,21.6C1606.8,4273.4,1596.1,4270.6,1589.4,4267z M1620.6,4222.7c1.4-7.1-8.9-12.1-14.2-6.7
			c-5.3,5.3-0.4,15.6,6.7,14.2C1616.7,4229.4,1619.9,4226.2,1620.6,4222.7z"/>
		<path class="st0" d="M1287.5,4219.5c-10.3-8.2-11.4-19.2-2.5-29.1c7.4-8.2,12.1-9.2,52.5-13.1c26.6-2.5,70.9-3.2,111-2.1
			c74.1,2.1,84.1,5,84.1,23.1c0,20.6,1.4,20.2-101.8,20.2c-52.1,0.4-104.6,1.4-116.3,3.2C1298.5,4223.8,1291.8,4223,1287.5,4219.5z"
			/>
	</g>
</g>
</svg>
