<?xml version="1.0" encoding="utf-8"?>
<!-- Generator: $$$/GeneralStr/196=Adobe Illustrator 27.6.0, SVG Export Plug-In . SVG Version: 6.00 Build 0)  -->
<svg version="1.1" id="Calque_1" xmlns="http://www.w3.org/2000/svg" xmlns:xlink="http://www.w3.org/1999/xlink" x="0px" y="0px"
	 viewBox="0 0 200 200" style="enable-background:new 0 0 200 200;" xml:space="preserve">
<style type="text/css">
	.st0{fill:#DC9AC4;}
</style>
<g>
	<path class="st0" d="M100,30c19,0,36.3,7.7,48.8,20.2C161.2,62.7,169,80,169,99s-7.7,36.3-20.2,48.8C136.3,160.2,119,168,100,168
		H49.1c-5,0-9.5-2-12.7-5.3c-3.3-3.3-5.3-7.8-5.3-12.7V99c0-19,7.7-36.3,20.2-48.8S81,30,100,30L100,30z M100,45.2
		c3.4,0,6.4,1.4,8.6,3.6s3.6,5.2,3.6,8.6s-1.4,6.4-3.6,8.6c-2.2,2.2-5.2,3.6-8.6,3.6c-3.4,0-6.4-1.4-8.6-3.6
		c-2.2-2.2-3.6-5.2-3.6-8.6c0-3.4,1.4-6.4,3.6-8.6C93.6,46.6,96.6,45.2,100,45.2z M103.8,53.6c-1-1-2.3-1.6-3.8-1.6
		s-2.8,0.6-3.8,1.6c-1,1-1.6,2.3-1.6,3.8c0,1.5,0.6,2.8,1.6,3.8c1,1,2.3,1.6,3.8,1.6s2.8-0.6,3.8-1.6c1-1,1.6-2.3,1.6-3.8
		C105.4,55.9,104.8,54.5,103.8,53.6z M101.3,145.4c-1.9-2.4-3-5.2-3.5-8.3c-1-6.3,0.9-13.6,4.4-21.7c4.6-10.6,6.8-19.4,6.3-25.9
		c-0.2-2.5-0.9-4.7-2-6.4c-1.1-1.6-2.7-2.9-4.8-3.8c-0.9-0.4-2-0.7-3.1-1c1.9,2.4,3,5.2,3.5,8.3c1,6.3-0.9,13.6-4.4,21.7
		c-4.6,10.6-6.8,19.4-6.3,25.9c0.2,2.5,0.9,4.7,2,6.4c1.1,1.6,2.7,2.9,4.8,3.8C99.2,144.8,100.2,145.1,101.3,145.4L101.3,145.4z
		 M104.5,136.1c0.7,4.3,3.4,7.7,9.2,9.9c1.3,0.4,2.3,1.5,2.4,3c0.2,1.9-1.2,3.5-3.1,3.6c-7.3,0.6-13.1-0.1-17.5-2
		c-3.4-1.4-5.9-3.6-7.8-6.3c-1.8-2.7-2.8-5.9-3.1-9.6c-0.6-7.6,1.8-17.5,6.8-29.1c3-7,4.7-13.2,3.9-18.1c-0.7-4.3-3.4-7.7-9.2-9.9
		c-1.3-0.4-2.3-1.5-2.4-3c-0.2-1.9,1.2-3.5,3.1-3.6c7.3-0.6,13.1,0.1,17.5,2c3.4,1.4,5.9,3.6,7.8,6.3c1.8,2.7,2.8,5.9,3.1,9.6
		c0.6,7.6-1.8,17.5-6.8,29.1C105.5,125,103.8,131.2,104.5,136.1L104.5,136.1z M144,55c-11.3-11.3-26.8-18.2-44-18.2s-32.7,7-44,18.2
		S37.8,81.8,37.8,99v50.9c0,3.1,1.3,5.9,3.3,8c2,2,4.9,3.3,8,3.3H100c17.2,0,32.7-7,44-18.2s18.2-26.8,18.2-44S155.2,66.3,144,55
		L144,55z"/>
</g>
</svg>
