<?xml version="1.0" encoding="utf-8"?>
<!-- Generator: $$$/GeneralStr/196=Adobe Illustrator 27.6.0, SVG Export Plug-In . SVG Version: 6.00 Build 0)  -->
<svg version="1.1" id="Calque_1" xmlns="http://www.w3.org/2000/svg" xmlns:xlink="http://www.w3.org/1999/xlink" x="0px" y="0px"
	 viewBox="0 0 200 200" style="enable-background:new 0 0 200 200;" xml:space="preserve">
<style type="text/css">
	.st0{fill:#DC9AC4;}
</style>
<g>
	<path class="st0" d="M77.6,76.9c0.1,0,0.2,0,0.3,0.1c0.4-0.6,0.9-1.1,1.3-1.6c4-4.8,8.1-8.9,10.6-9.7c10.7-3.3,18.2-0.4,25.6,2.4
		c5.8,2.2,11.5,4.4,18.6,3l2.3-0.6c-0.3-0.9-0.4-1.8-0.2-2.6c0.3-1.1,0.9-2,1.9-2.6l33.7-20.7c0.7-0.4,1.4-0.6,2.2-0.6
		c0.8,0,1.5,0.2,2.2,0.6c0,0,0.1,0,0.1,0.1c0.6,0.4,1.1,0.9,1.5,1.5c0.4,0.7,0.6,1.4,0.6,2.2v45.1c0,2.1-0.5,4-1.5,5.7
		c-1,1.7-2.3,3.2-4.1,4.3l-9.2,5.7c-0.5,0.3-1,0.5-1.6,0.6c-0.6,0.1-1.1,0-1.7-0.1c-0.6-0.2-1.1-0.4-1.5-0.7
		c-0.4-0.3-0.8-0.8-1.1-1.3l-0.8-1.5c-1.4,1.4-3.5,3.3-5.6,5.3c-2,1.8-3.9,3.6-5.1,4.8l0.4,0.3c2.6,2,3.6,4.8,3.2,7.4
		c-0.2,1.2-0.6,2.4-1.4,3.4c-0.7,1-1.8,1.8-3,2.4c-2,0.9-4.5,1.1-7.5,0.2c0,0.5,0,1-0.1,1.5c-0.2,1.3-0.8,2.5-1.7,3.5
		c-0.8,1-1.9,1.8-3.1,2.4c-1.8,0.9-3.8,1.3-5.9,1c0,0.6-0.1,1.1-0.2,1.7c-0.3,1.5-1.1,3-2.2,4.2c-1.1,1.2-2.5,2.2-4.1,2.7
		c-1.7,0.6-3.6,0.6-5.6-0.1c0,0.2,0,0.3,0,0.5c-0.1,1.4-0.7,2.7-1.6,3.7c-0.8,0.9-2,1.7-3.2,2.1c-1.7,0.6-3.7,0.6-5.5-0.2
		c-1-0.4-3.6-1.6-6.3-2.9c-2.4-1.2-4.9-2.3-6.4-3c-0.4,0.6-0.8,1.2-1.3,1.7c-1.6,2.1-3.3,4.1-4,4.5c-1.4,0.8-3.2,1.1-4.9,0.8
		c-1.4-0.2-2.8-0.8-3.9-1.8c-1.2-1-2.1-2.3-2.5-4c-0.1-0.2-0.1-0.5-0.2-0.7c-1.7,0.9-3.8,1.1-5.8,0.6c-1.3-0.3-2.6-1-3.7-1.9
		c-1.1-1-2-2.2-2.4-3.7c-0.2-0.6-0.2-1.2-0.2-1.8c-0.6,0.1-1.3,0.2-2,0.2c-1.9,0-3.7-0.6-5-1.4c-0.2-0.1-0.3-0.2-0.5-0.3
		c-2-1.5-2.9-3.5-2.9-5.8c0-1,0.2-2.1,0.5-3.1c-1.4-0.1-2.8-0.7-3.9-1.6c-1.1-0.9-2-2.2-2.4-3.5c-0.3-0.8-0.4-1.7-0.4-2.6
		c0.1-1.2,0.9-3,2.1-4.7c-0.1-0.1-0.2-0.2-0.3-0.3c-0.4-0.5-1.1-1.6-2-2.7c-1.4-2-3.1-4.4-4-5.3l0,0l0,0l-1.2-1.3l-0.2,0.3
		c-0.3,0.5-0.7,0.9-1.1,1.3c0,0-0.1,0.1-0.2,0.1c-0.4,0.3-0.9,0.5-1.4,0.6l-0.1,0c-0.5,0.1-1.1,0.2-1.6,0.1
		c-0.6-0.1-1.1-0.3-1.6-0.6l-9.2-5.7c-1.8-1.1-3.2-2.5-4.1-4.3c-0.9-1.7-1.5-3.7-1.5-5.7V48.7c0-0.8,0.2-1.5,0.6-2.2
		c0.4-0.6,0.9-1.2,1.6-1.6c0.7-0.4,1.4-0.6,2.2-0.6c0.8,0,1.5,0.2,2.2,0.6L60,65.8c1,0.6,1.7,1.6,1.9,2.6c0.2,0.7,0.2,1.5-0.1,2.3
		l0.4,0.3c1.7,1.2,4.5,3.1,5.9,3.4c0.5,0.1,1.6,0.4,2.9,0.8C73.6,75.9,76.8,76.8,77.6,76.9z M138.1,73.8l-3.2,0.9v0l-0.1,0
		c-8.1,1.6-14.3-0.7-20.7-3.1c-6.8-2.6-13.7-5.2-23.2-2.3c-1.7,0.5-5.2,4.1-8.8,8.5c-4.3,5.2-8.5,11.4-10.2,14.9c0,0,0,0.1,0,0.1
		c-0.1,0.2-0.1,0.3-0.1,0.5c0,0.1,0.1,0.3,0.2,0.4c4.3,3.4,7.2,0,10.5-3.8c3.2-3.7,6.7-7.7,12-8.2c1-0.1,1.9,0.7,2,1.6
		c0,0.2,0,0.3,0,0.5c1.1,0.6,2.7,1.4,4.3,2.2c2.2,1.1,4.3,2.2,5.5,2.9l0,0c13.2,7.1,25.2,16.1,36.7,25c1.2-1.1,3.4-3.1,5.6-5.1
		c2.3-2.2,4.8-4.5,6.2-5.9L138.1,73.8z M161.5,105.8l9.2-5.7c1.2-0.8,2.2-1.8,2.9-2.9c0.6-1.2,1-2.5,1-4V48.2c0-0.1,0-0.3-0.1-0.3
		c0-0.1-0.1-0.1-0.2-0.2l-0.1,0c-0.1-0.1-0.2-0.1-0.3-0.1c-0.1,0-0.2,0-0.3,0.1l-33.7,20.7c-0.2,0.1-0.3,0.2-0.3,0.4
		c0,0.2,0,0.4,0.1,0.5l20.9,36.4c0,0.1,0.1,0.1,0.2,0.2c0.1,0,0.1,0.1,0.2,0.1c0.1,0,0.2,0,0.3,0
		C161.3,105.9,161.4,105.9,161.5,105.8z M55.4,125C55.4,125,55.5,125,55.4,125c0.6-0.6,1.1-1.2,1.6-1.9c0.6-0.8,1.2-1.7,1.7-2.5h0
		c0,0,0-0.1,0-0.1l0,0c0.3-0.5,0.4-0.8,0.4-1c0-0.6-0.1-1.3-0.5-1.8c-0.3-0.5-0.7-1-1.2-1.3c-0.5-0.3-1-0.5-1.6-0.5
		c-0.5,0-1,0.1-1.5,0.4c-0.1,0.1-0.2,0.1-0.3,0.1c-0.6,0.2-1.6,1.4-2.5,2.6c-1,1.3-1.7,2.7-1.8,3.3c0,0.4,0,0.8,0.2,1.3
		c0.3,0.7,0.7,1.4,1.3,1.9c0.6,0.5,1.2,0.8,1.9,0.8c0.3,0,0.7,0,1-0.2l0,0c0,0,0.3-0.3,0.8-0.7C55.2,125.3,55.3,125.1,55.4,125z
		 M58.2,127.3c-0.2,0.3-0.4,0.6-0.6,0.9c-1,1.7-1.6,3.3-1.6,4.7c0,1.2,0.5,2.2,1.4,2.9c0.1,0.1,0.2,0.1,0.3,0.2
		c0.8,0.5,2,0.8,3.2,0.8c0.9,0,1.8-0.2,2.4-0.6l0,0c0.2-0.2,0.6-0.6,1.1-1.3c0.1-0.1,0.2-0.2,0.2-0.3c1.3-1.8,3.3-4.6,4.8-6.8
		c1-1.4,1.8-2.7,2.3-3.3c0.6-0.7,1-1.5,1.2-2.2c0.2-0.8,0.1-1.7-0.4-2.9c-0.1-0.4-0.5-0.8-0.9-1.2c-0.5-0.5-1.1-0.9-1.7-1.1
		c-1.1-0.5-2.4-0.3-3.7,0.5c-1.6,0.9-3.1,2.6-4.4,4.8l0,0c-0.5,0.9-1.2,2-2,3C59.3,126.1,58.7,126.8,58.2,127.3z M62,116.3
		c0.8-0.7,1.6-1.3,2.4-1.8c2.3-1.3,4.7-1.6,6.9-0.7c1,0.5,2,1.1,2.7,1.8c0.8,0.8,1.5,1.7,1.8,2.5c0.6,1.4,0.8,2.6,0.7,3.7
		c1.2-0.1,2.4,0.1,3.5,0.5c1.2,0.4,2.3,1.1,3.3,1.9c1,0.9,1.8,1.9,2.3,3.2c0.7,1.7,0.9,3.6,0.2,5.7c0.3,0,0.6,0,1,0
		c1.7,0.1,3.1,0.7,4.3,1.7c1.1,0.9,2,2.2,2.5,3.5c0.6,1.7,0.6,3.6,0,5.3c0,0,0,0.1,0,0.1c1.6,0.7,3.9,1.8,6.1,2.9
		c2.5,1.2,5,2.4,6.1,2.8c1,0.4,2.1,0.4,3,0.1c0.7-0.2,1.2-0.6,1.7-1.1c0.4-0.5,0.7-1,0.7-1.6c0.1-0.7-0.1-1.4-0.6-2.3
		c-1.1-0.6-2.3-1.3-3.5-2c-2.4-1.3-4.8-2.7-6.4-3.5c-0.9-0.5-1.2-1.5-0.8-2.4s1.5-1.2,2.4-0.8c1.7,0.8,4.1,2.2,6.6,3.6
		c2.5,1.4,4.9,2.7,6.3,3.4c1.5,0.7,3,0.8,4.2,0.4c1-0.3,1.9-0.9,2.5-1.7c0.7-0.8,1.2-1.7,1.4-2.6c0.2-0.9,0.1-1.7-0.3-2.5
		c-1.8-1-6.9-3.8-11.1-6.1c-2.8-1.6-5.3-2.9-6.2-3.4c-0.9-0.5-1.2-1.6-0.7-2.5c0.5-0.9,1.6-1.2,2.5-0.7c1,0.6,3.4,1.9,6.1,3.4
		c4.3,2.4,9.6,5.3,11.4,6.4c0.1,0,0.1,0.1,0.2,0.1v0c2,1.2,4.3,1.1,6,0.2c0.8-0.4,1.4-0.9,1.9-1.5c0.5-0.6,0.8-1.2,0.9-1.9
		c0.2-1-0.1-2.1-1.1-3.1c0,0-0.1-0.1-0.2-0.2c-0.1-0.1-0.2-0.2-0.3-0.2c0,0-0.1-0.1-0.1-0.1v0c-0.3-0.3-4.1-2.7-8.3-5.2
		c-5.1-3.1-10.7-6.4-11.8-6.9c-0.9-0.4-1.3-1.5-0.9-2.4c0.4-0.9,1.5-1.3,2.4-0.9c1.2,0.6,7,3.9,12.1,7c4.1,2.5,7.8,4.8,8.9,5.7
		l0.1,0.1c0,0,0.1,0.1,0.1,0.1c0.1,0.1,0.2,0.2,0.2,0.2c3.7,2.2,6.5,2.5,8.4,1.6c0.7-0.3,1.2-0.7,1.6-1.3c0.4-0.5,0.6-1.1,0.7-1.7
		c0.2-1.4-0.4-2.9-1.9-4.1l-0.7-0.6c-12.2-9.4-24.9-19.1-38.9-26.7l-0.1,0c-1.1-0.6-3.2-1.7-5.3-2.8c-2.8-1.4-5.6-2.9-6.4-3.5
		c-2.9,1.1-5.3,3.9-7.5,6.4c-4.5,5.2-8.5,9.8-15.5,4.3c-0.8-0.6-1.3-1.4-1.5-2.4c-0.2-0.9-0.2-1.9,0.3-2.8c0,0,0-0.1,0.1-0.1
		c1.3-2.7,3.9-6.8,6.9-10.9c-1.5-0.4-3.6-1-5.3-1.5c-1.3-0.4-2.4-0.7-2.8-0.8c-2-0.5-5.1-2.6-7.1-3.9l-0.1-0.1l-17.6,30.5l2,2.2l0,0
		c1,1.1,2.8,3.6,4.3,5.7c0.6,0.9,1.2,1.7,1.7,2.3c0.8-0.8,1.5-1.4,2.2-1.6c1.1-0.6,2.3-0.8,3.4-0.8c1.2,0.1,2.4,0.5,3.4,1.2
		c1,0.7,1.8,1.6,2.3,2.6C61.9,116.1,62,116.2,62,116.3z M75.9,141.2c0.1-0.1,0.2-0.3,0.3-0.4c1.3-1.7,2.8-3.7,3.9-5.2
		c0-0.1,0.1-0.1,0.1-0.2c0.4-0.5,0.7-0.9,1.1-1.5c1.4-1.9,1.6-3.7,1-5c-0.3-0.7-0.8-1.3-1.4-1.9c-0.6-0.5-1.3-1-2.1-1.2
		c-1.4-0.5-2.8-0.5-3.8,0.3c-0.2,0.3-0.3,0.5-0.5,0.8c-0.4,0.6-1.2,1.7-2.2,3.1c-1.5,2.2-3.4,5-5,7c-1,1.8-1.2,3.2-0.9,4.4
		c0.2,0.8,0.6,1.4,1.2,1.9c0.6,0.5,1.4,0.9,2.2,1.1c1.3,0.3,2.6,0.2,3.4-0.4c0.1,0,0.1-0.1,0.2-0.1v0
		C73.9,143.7,74.8,142.6,75.9,141.2z M79.1,143c-0.7,1.7-0.8,3.1-0.5,4.2c0.2,0.9,0.7,1.6,1.3,2.1c0.6,0.5,1.4,0.9,2.2,1
		c0.9,0.2,1.8,0,2.4-0.3c0.3-0.2,1.6-1.8,2.9-3.6c1.3-1.8,2.6-3.5,2.7-4c0.3-0.9,0.3-1.9,0-2.8c-0.3-0.8-0.7-1.4-1.3-1.9
		c-0.6-0.5-1.3-0.8-2.2-0.8c-1.1-0.1-2.3,0.3-3.8,1.2C81.8,139.4,80.4,141.3,79.1,143z M23.4,48.7v45.1c0,1.5,0.3,2.8,1,4
		c0.6,1.2,1.6,2.2,2.9,2.9l9.2,5.7c0.1,0.1,0.2,0.1,0.2,0.1c0.1,0,0.2,0,0.2,0l0,0c0.1,0,0.2,0,0.2-0.1l0,0c0.1-0.1,0.1-0.1,0.2-0.2
		l20.9-36.4c0.1-0.2,0.1-0.3,0.1-0.5s-0.1-0.3-0.3-0.4L24.4,48.2c-0.1-0.1-0.2-0.1-0.3-0.1c-0.1,0-0.2,0-0.3,0.1
		c-0.1,0.1-0.2,0.1-0.3,0.2C23.5,48.5,23.4,48.6,23.4,48.7z"/>
</g>
</svg>
