<?xml version="1.0" encoding="utf-8"?>
<!-- Generator: $$$/GeneralStr/196=Adobe Illustrator 27.6.0, SVG Export Plug-In . SVG Version: 6.00 Build 0)  -->
<svg version="1.1" id="Calque_1" xmlns="http://www.w3.org/2000/svg" xmlns:xlink="http://www.w3.org/1999/xlink" x="0px" y="0px"
	 viewBox="0 0 200 200" style="enable-background:new 0 0 200 200;" xml:space="preserve">
<style type="text/css">
	.st0{fill:#DC9AC4;}
</style>
<path class="st0" d="M23.1,38l-0.8,0.7v10.8v10.8l0.8,0.7l0.7,0.8h10.8h10.8l0.7-0.8c0.7-0.7,0.8-0.9,0.8-4.9V52h2.5H52v22.3v22.3
	h-2.5h-2.5v-4.2c0-4,0-4.2-0.8-4.9l-0.7-0.8H34.7H23.9l-0.7,0.8l-0.8,0.7V99v10.8l0.8,0.7l0.7,0.8h10.8h10.8l0.7-0.8
	c0.7-0.7,0.8-0.9,0.8-4.9v-4.2h2.5H52v22.3V146h-2.5h-2.5v-4.2c0-4,0-4.2-0.8-4.9l-0.7-0.8H34.7H23.9l-0.7,0.8l-0.8,0.7v10.8v10.8
	l0.8,0.7l0.7,0.8h10.8h10.8l0.7-0.8c0.7-0.7,0.8-0.9,0.8-4.9v-4.2h4.2c4,0,4.2,0,4.9-0.8l0.8-0.7v-24v-24h1.2h1.2v1.7
	c0,2.6,0.6,3.1,4.5,3.5c1.7,0.2,3.3,0.4,3.6,0.5c0.2,0.1,0.7,0.9,1,1.9c0.3,1,1.1,2.7,1.6,3.9l1.1,2.1L69,118
	c-3.1,4.1-3.2,3.9,1.9,9.1c5.1,5.1,4.9,5.1,9.1,1.9l2.9-2.2l2.1,1.1c1.1,0.6,2.9,1.3,3.9,1.6c1,0.3,1.9,0.8,1.9,1
	c0.1,0.3,0.3,1.9,0.5,3.6c0.6,4.6,0.3,4.5,7.7,4.5s7.1,0.1,7.7-4.5c0.2-1.7,0.4-3.3,0.5-3.6c0.1-0.2,0.9-0.7,1.9-1
	c1-0.3,2.7-1.1,3.9-1.6l2.1-1.1l2.8,2.2c4.1,3.2,3.9,3.2,9.1-1.9c5.1-5.1,5.1-4.9,1.9-9.1l-2.2-2.8l1.1-2.1c0.6-1.1,1.3-2.9,1.6-3.9
	c0.3-1,0.8-1.9,1-1.9c0.3-0.1,1.9-0.3,3.6-0.5c3.9-0.5,4.5-1,4.5-3.5v-1.7h1.2h1.2v24v24l0.8,0.7c0.7,0.7,0.9,0.8,4.9,0.8h4.2v4.2
	c0,4,0,4.2,0.8,4.9l0.7,0.8h10.8h10.8l0.7-0.8l0.8-0.7v-10.8v-10.8l-0.8-0.7l-0.7-0.8h-10.8h-10.8l-0.7,0.8
	c-0.7,0.7-0.8,0.9-0.8,4.9v4.2h-2.5H146v-22.3v-22.3h2.5h2.5v4.2c0,4,0,4.2,0.8,4.9l0.7,0.8h10.8h10.8l0.7-0.8l0.8-0.7V99V88.2
	l-0.8-0.7l-0.7-0.8h-10.8h-10.8l-0.7,0.8c-0.7,0.7-0.8,0.9-0.8,4.9v4.2h-2.5H146V74.3V52h2.5h2.5v4.2c0,4,0,4.2,0.8,4.9l0.7,0.8
	h10.8h10.8l0.7-0.8l0.8-0.7V49.5V38.7l-0.8-0.7l-0.7-0.8h-10.8h-10.8l-0.7,0.8c-0.7,0.7-0.8,0.9-0.8,4.9v4.2h-4.2
	c-4,0-4.2,0-4.9,0.8l-0.8,0.7v24v24h-1.2h-1.2v-1.7c0-2.6-0.6-3.1-4.5-3.5c-1.7-0.2-3.3-0.4-3.6-0.5c-0.2-0.1-0.7-0.9-1-1.9
	c-0.3-1-1.1-2.7-1.6-3.9l-1.1-2.1L129,80c3.2-4.1,3.2-3.9-1.9-9.1c-5.1-5.1-4.9-5.1-9.1-1.9l-2.8,2.2l-2.1-1.1
	c-1.1-0.6-2.9-1.3-3.9-1.6c-1-0.3-1.9-0.8-1.9-1c-0.1-0.3-0.3-1.9-0.5-3.6c-0.6-4.6-0.3-4.5-7.7-4.5s-7.1-0.1-7.7,4.5
	c-0.2,1.7-0.4,3.3-0.5,3.6c-0.1,0.2-0.9,0.7-1.9,1c-1,0.3-2.7,1.1-3.9,1.6l-2.1,1.1L80,69c-4.1-3.1-3.9-3.2-9.1,1.9
	c-5.1,5.1-5.1,4.9-1.9,9.1l2.2,2.8L70.2,85c-0.6,1.1-1.3,2.9-1.6,3.9c-0.3,1-0.8,1.9-1,1.9c-0.3,0.1-1.9,0.3-3.6,0.5
	c-3.9,0.5-4.5,1-4.5,3.5v1.7h-1.2H57v-24v-24l-0.8-0.7c-0.7-0.7-0.9-0.8-4.9-0.8h-4.2v-4.2c0-4,0-4.2-0.8-4.9l-0.7-0.8H34.7H23.9
	L23.1,38z M42.1,49.5V57h-7.4h-7.4v-7.4v-7.4h7.4h7.4V49.5z M170.7,49.5V57h-7.4h-7.4v-7.4v-7.4h7.4h7.4V49.5z M101.8,64.6
	c0,0.2,0.2,1.6,0.5,3.3c0.3,2.1,0.6,3.2,1,3.6c0.3,0.3,1.6,0.8,2.8,1.2c2.3,0.6,4.9,1.8,7.4,3.2c0.8,0.4,1.6,0.8,1.9,0.8
	c0.3,0,1.7-0.9,3.2-2c1.5-1.1,2.8-2,2.9-2c0.3,0,3.8,3.5,3.8,3.7c0,0.1-0.9,1.4-2,2.9c-1.1,1.5-2,2.9-2,3.2c0,0.3,0.3,1.1,0.8,1.9
	c1.4,2.5,2.7,5.4,3.3,7.5c0.3,1.2,0.8,2.4,1.1,2.8c0.4,0.4,1.5,0.7,3.6,1c1.7,0.2,3.2,0.5,3.3,0.5c0.1,0,0.2,1.2,0.2,2.8
	c0,1.5-0.1,2.8-0.2,2.8c-0.2,0-1.6,0.2-3.3,0.5c-2.1,0.3-3.2,0.6-3.6,1c-0.3,0.3-0.8,1.5-1.1,2.8c-0.6,2.2-1.9,5-3.3,7.5
	c-0.4,0.8-0.8,1.6-0.8,1.9c0,0.3,0.9,1.7,2,3.2c1.1,1.5,2,2.8,2,2.9c0,0.2-3.5,3.7-3.8,3.7c-0.1,0-1.4-0.9-2.9-2
	c-1.5-1.1-2.9-2-3.2-2c-0.3,0-1.1,0.3-1.9,0.8c-2.5,1.4-5.4,2.7-7.5,3.3c-1.2,0.3-2.4,0.8-2.8,1.1c-0.4,0.4-0.7,1.5-1,3.6
	c-0.2,1.7-0.5,3.2-0.5,3.3c0,0.2-1.2,0.2-2.8,0.2c-1.5,0-2.8-0.1-2.8-0.2c0-0.1-0.2-1.6-0.5-3.3c-0.3-2.1-0.6-3.2-1-3.6
	c-0.3-0.3-1.5-0.8-2.8-1.1c-2.2-0.6-5-1.9-7.5-3.3c-0.8-0.4-1.6-0.8-1.9-0.8c-0.3,0-1.7,0.9-3.2,2c-1.5,1.1-2.8,2-2.9,2
	c-0.3,0-3.8-3.5-3.8-3.7c0-0.1,0.9-1.4,2-2.9c1.1-1.5,2-2.9,2-3.2c0-0.3-0.3-1.1-0.8-1.9c-1.4-2.5-2.7-5.4-3.3-7.5
	c-0.8-3-1.1-3.2-4.8-3.8c-1.7-0.2-3.2-0.4-3.3-0.4c-0.2,0-0.2-1.3-0.2-2.8c0-1.5,0.1-2.8,0.2-2.8c0.1,0,1.6-0.2,3.3-0.4
	c2.1-0.3,3.2-0.6,3.6-1c0.3-0.3,0.9-1.6,1.2-2.8c0.6-2.3,1.8-4.9,3.2-7.4c0.4-0.8,0.8-1.6,0.8-1.9c0-0.3-0.9-1.7-2-3.2
	c-1.1-1.5-2-2.8-2-2.9c0-0.2,3.5-3.7,3.8-3.7c0.1,0,1.4,0.9,2.9,2c1.5,1.1,2.9,2,3.2,2c0.3,0,1.1-0.3,1.9-0.8
	c2.5-1.4,5.4-2.7,7.5-3.3c1.2-0.3,2.4-0.8,2.8-1.1c0.4-0.4,0.7-1.5,1-3.6c0.2-1.7,0.5-3.2,0.5-3.3c0-0.1,1.3-0.2,2.8-0.2
	C100.5,64.4,101.8,64.5,101.8,64.6z M42.1,99v7.4h-7.4h-7.4V99v-7.4h7.4h7.4V99z M170.7,99v7.4h-7.4h-7.4V99v-7.4h7.4h7.4V99z
	 M42.1,148.5v7.4h-7.4h-7.4v-7.4V141h7.4h7.4V148.5z M170.7,148.5v7.4h-7.4h-7.4v-7.4V141h7.4h7.4V148.5z"/>
</svg>
