<?xml version="1.0" encoding="utf-8"?>
<!-- Generator: $$$/GeneralStr/196=Adobe Illustrator 27.6.0, SVG Export Plug-In . SVG Version: 6.00 Build 0)  -->
<svg version="1.1" id="Calque_1" xmlns="http://www.w3.org/2000/svg" xmlns:xlink="http://www.w3.org/1999/xlink" x="0px" y="0px"
	 viewBox="0 0 200 200" style="enable-background:new 0 0 200 200;" xml:space="preserve">
<style type="text/css">
	.st0{fill:#DC9AC4;}
</style>
<g>
	<path class="st0" d="M78.8,59.1c-3.6-7.8-3.5-15.5,1.1-22.9c4.8-7.9,14.5-12,23.7-10.3c9.3,1.8,16.8,9.4,18.3,18.5
		c0.8,5.1,0.1,10-2.1,14.6c-1.6,2.6-3.4,5.1-6,7.3c1.7,0.2,3,0.4,4.2,0.8c3.3,2,4.8,4.8,4.1,8.3c-0.6,3.2-2.6,5.2-5.7,6
		c-1.1,0.3-2.3,0.2-3.4,0.2c-0.7,0-0.9,0.2-0.9,0.9c0.2,10.8-0.5,21.7,0.3,32.5c0.6,7.7,3,14.8,7.4,21.3c0.7,1.1,1.5,1.5,2.8,1.5
		c3.3-0.1,6.5,0,9.5,1.7c1.2,0.7,2.2,1.6,3.2,2.5c1.1,1.1,2.3,2.2,3.4,3.4c1.5,1.6,3.1,2.7,5.3,3.4c5.7,1.6,9.2,6.9,9,12.5
		c-0.2,6-4.8,11.2-10.5,12c-0.1,0-0.2,0.2-0.3,0.3c-28.7,0-57.5,0-86.2,0c-1-0.8-2.3-0.9-3.4-1.5c-4.9-2.8-7.5-7.9-6.7-13.4
		c0.8-5.1,4.9-9.3,10.3-10.3c0.7-0.1,1.3-0.4,1.9-1c1.7-1.8,3.5-3.5,5.2-5.2c2.9-3,6.4-4.4,10.6-4.4c4.3,0,4.2,0,6.4-3.8
		c4.4-7.7,6.2-16,6.3-24.7c0-8.7,0-17.4,0-26.2c0-1.2-0.3-1.5-1.5-1.5c-4.2,0.1-7-1.6-8.2-4.8c-1.4-3.7,0-7.4,3.8-9.7
		c1.3-0.5,2.6-0.6,4.2-0.9C82.1,64.3,80.4,61.7,78.8,59.1z M88.9,76.6c0.5,0.1,1,0.1,1.6,0.1c5.8,0,11.7,0,17.5,0
		c0.5,0,1-0.1,1.6-0.1c1.6,0,3.3,0.1,4.9,0c1.5-0.1,2.4-0.9,2.6-2.2c0.1-1.4-0.5-2.3-1.8-2.7c-0.4,0-0.8-0.1-1.1-0.1
		c-9.9,0-19.7,0-29.6,0c-0.4,0-0.8,0.1-1.1,0.1c-1.4,0.4-2,1.3-1.8,2.7c0.1,1.3,1,2.1,2.6,2.2C85.7,76.7,87.3,76.6,88.9,76.6z
		 M117.8,148.2c5.3,0,10.5,0,16.1,0c-2.4-2.7-4.6-5.1-8.4-5.1c-3.6,0-7.1,0-10.7,0c-10.4,0-20.7,0-31.1,0c-3.2,0-6.4,0.1-9.7-0.1
		c-4.1-0.2-6.8,2.1-9.3,5.1c5.5,0,10.7,0,16,0c0.3,0,0.7,0.1,1,0.1c11.7,0,23.4,0,35,0C117.1,148.3,117.4,148.2,117.8,148.2z
		 M81.4,48.7c-0.3,1.2,0.1,2.3,0.3,3.4c2.3,11,13.8,17.2,24.2,13.1c6.6-2.6,11.6-10,11.2-16.5c-0.1-1-0.1-2-0.2-3
		c-1.3-9.1-9.9-15.8-19.4-14.9C88.1,31.7,81.4,39.7,81.4,48.7z M91.7,89.5c-0.3,0.5-0.2,1-0.2,1.5c0,6,0,11.9,0,17.9
		c0,4-0.3,8-1,11.9c-0.7,3.6-2,7-2.9,10.4c-1.2,2.2-2.3,4.4-3.6,6.7c0.8,0,1.4,0,2,0c0.4,0.1,0.8,0.1,1.1,0.2c8,0,16.1,0,24.1,0
		c0.4,0,0.8-0.1,1.1-0.2c0.6,0.1,1.2,0.1,1.9-0.1c-1.2-2.2-2.4-4.5-3.5-6.7c-0.3-1.1-0.7-2.3-1-3.4c-1.7-5.1-2.7-10.4-2.7-15.8
		c0-7,0-14-0.1-20.9c0-0.5,0.1-1.1-0.2-1.5c0-2.3,0-4.5,0.1-6.8c0-0.7-0.2-0.9-0.9-0.9c-4.5,0-8.9,0-13.4,0c-0.7,0-0.9,0.2-0.9,0.9
		C91.7,85,91.7,87.2,91.7,89.5z M99.2,168.6c4.3,0,8.7,0,13,0c9.5,0,18.9,0.1,28.3-0.1c5.5-0.1,8.9-6.2,6.3-11
		c-1.7-3.1-4.4-4.2-7.8-4.2c-26.6,0-53.1,0-79.7,0c-0.6,0-1.3,0.1-1.9,0.1c-4.7,0.5-7.8,5.2-6.4,9.7c1.1,3.5,3.9,5.5,7.9,5.5
		C72.4,168.6,85.8,168.6,99.2,168.6z"/>
	<path class="st0" d="M68.6,158.4c3.2,0,6.5,0,9.7,0c1.9,0,3,1,3.1,2.5c0,1.6-1.1,2.6-3,2.6c-6.5,0-13,0-19.5,0c-1.9,0-3-1.1-3-2.6
		c0-1.6,1.2-2.5,3.1-2.5C62.1,158.4,65.4,158.4,68.6,158.4z"/>
	<path class="st0" d="M98.7,61.2c-7.6-0.1-11.7-6.3-12.1-12.4c-0.1-1.5,0.9-2.6,2.2-2.7c1.5-0.1,2.3,0.6,2.7,2.2
		c0.2,0.8,0.3,1.6,0.5,2.4c1,3.5,3.3,5.4,6.9,5.6c1.3,0.1,2.3,0.5,2.7,1.9c0.3,1.2-0.1,2.1-1.1,2.7C99.8,61.4,99.1,61.2,98.7,61.2z"
		/>
</g>
</svg>
