<?xml version="1.0" encoding="UTF-8"?>
<svg xmlns="http://www.w3.org/2000/svg" viewBox="0 0 54.31 54.31">
  <g id="Calque_1" data-name="Calque 1"/>
  <g id="Calque_2" data-name="Calque 2">
    <g id="Calque_1-2" data-name="Calque 1">
      <g>
        <path d="M27.15,5.62c.52,0,.94-.42,.94-.94V.94c0-.52-.42-.94-.94-.94s-.94,.42-.94,.94v3.75c0,.52,.42,.94,.94,.94Z" style="fill: #68a345;"/>
        <path d="M.94,28.09h3.75c.52,0,.94-.42,.94-.94s-.42-.94-.94-.94H.94c-.52,0-.94,.42-.94,.94s.42,.94,.94,.94Z" style="fill: #68a345;"/>
        <path d="M49.62,28.09h3.75c.52,0,.94-.42,.94-.94s-.42-.94-.94-.94h-3.75c-.52,0-.94,.42-.94,.94s.42,.94,.94,.94Z" style="fill: #68a345;"/>
        <path d="M10.6,11.92c.18,.18,.42,.27,.66,.27s.48-.09,.66-.27c.37-.37,.37-.96,0-1.32l-2.65-2.65c-.37-.37-.96-.37-1.32,0-.37,.37-.37,.96,0,1.32l2.65,2.65Z" style="fill: #68a345;"/>
        <path d="M45.69,46.63c.24,0,.48-.09,.66-.27,.37-.37,.37-.96,0-1.32l-2.65-2.65c-.37-.37-.96-.37-1.32,0s-.37,.96,0,1.32l2.65,2.65c.18,.18,.42,.27,.66,.27Z" style="fill: #68a345;"/>
        <path d="M12.11,42.38c-.37-.37-.96-.37-1.32,0l-2.65,2.65c-.37,.37-.37,.96,0,1.32,.18,.18,.42,.27,.66,.27s.48-.09,.66-.27l2.65-2.65c.37-.37,.37-.96,0-1.32Z" style="fill: #68a345;"/>
        <path d="M43.23,12.2c.24,0,.48-.09,.66-.27l2.65-2.65c.37-.37,.37-.96,0-1.32-.37-.37-.96-.37-1.32,0l-2.65,2.65c-.37,.37-.37,.96,0,1.32,.18,.18,.42,.27,.66,.27Z" style="fill: #68a345;"/>
        <path d="M23.41,50.56h7.49c.52,0,.94-.42,.94-.94s-.42-.94-.94-.94h-7.49c-.52,0-.94,.42-.94,.94s.42,.94,.94,.94Z" style="fill: #68a345;"/>
        <path d="M23.41,54.31h7.49c.52,0,.94-.42,.94-.94s-.42-.94-.94-.94h-7.49c-.52,0-.94,.42-.94,.94s.42,.94,.94,.94Z" style="fill: #68a345;"/>
        <path d="M22.47,42.37v3.51c0,.51,.41,.93,.92,.94,2.56,.04,4.29,.06,5.45,.06,2.37,0,2.47-.09,2.71-.33,.18-.18,.28-.42,.28-.67v-3.51c6.5-2,11.24-8.06,11.24-15.21,0-8.78-7.14-15.92-15.92-15.92s-15.92,7.14-15.92,15.92c0,7.15,4.74,13.21,11.24,15.21Zm7.49,2.63c-1.16,.02-3.41,0-5.62-.03v-2.15c.91,.16,1.85,.26,2.81,.26s1.9-.1,2.81-.26v2.18Zm-1.87-13.7l3.47-3.47c.37-.37,.37-.96,0-1.32s-.96-.37-1.32,0l-2.15,2.15v-5.23c0-.52-.42-.94-.94-.94s-.94,.42-.94,.94v5.23l-2.15-2.15c-.37-.37-.96-.37-1.32,0-.37,.37-.37,.96,0,1.32l3.47,3.47v6.12c-5.24-.47-9.36-4.89-9.36-10.25,0-5.68,4.62-10.3,10.3-10.3s10.3,4.62,10.3,10.3c0,5.36-4.12,9.78-9.36,10.25v-6.12Zm-.94-18.18c7.74,0,14.04,6.3,14.04,14.04s-5.8,13.51-13.11,14v-1.87c6.27-.48,11.24-5.73,11.24-12.12,0-6.71-5.46-12.17-12.17-12.17s-12.17,5.46-12.17,12.17,4.96,11.64,11.24,12.12v1.87c-7.31-.49-13.11-6.57-13.11-14s6.3-14.04,14.04-14.04Z" style="fill: #68a345;"/>
      </g>
    </g>
  </g>
</svg>