<?xml version="1.0" encoding="utf-8"?>
<!-- Generator: Adobe Illustrator 26.2.1, SVG Export Plug-In . SVG Version: 6.00 Build 0)  -->
<svg version="1.1" id="Calque_1" xmlns="http://www.w3.org/2000/svg" xmlns:xlink="http://www.w3.org/1999/xlink" x="0px" y="0px"
	 viewBox="0 0 244 192" style="enable-background:new 0 0 244 192;" xml:space="preserve">
<style type="text/css">
	.st0{fill:#53A633;}
</style>
<path class="st0" d="M3.8,1L2.6,2.2V19v16.9L3.8,37l1.2,1.2h16.9h16.9l1.2-1.2c1.2-1.1,1.2-1.4,1.2-7.7v-6.5h3.8h3.8v34.6v34.6h-3.8
	H41v-6.5c0-6.3,0-6.6-1.2-7.7l-1.2-1.2H21.8H4.9l-1.2,1.2L2.6,79v16.9v16.9l1.2,1.2l1.2,1.2h16.9h16.9l1.2-1.2
	c1.2-1.1,1.2-1.4,1.2-7.7v-6.5h3.8h3.8v34.6v34.6h-3.8H41v-6.5c0-6.3,0-6.6-1.2-7.7l-1.2-1.2H21.8H4.9l-1.2,1.2l-1.2,1.2v16.9v16.9
	l1.2,1.2l1.2,1.2h16.9h16.9l1.2-1.2c1.2-1.1,1.2-1.4,1.2-7.7v-6.5h6.5c6.3,0,6.6,0,7.7-1.2l1.2-1.2V137V99.7h1.9h1.9v2.6
	c0,4,1,4.8,7,5.5c2.6,0.3,5.1,0.7,5.5,0.8c0.4,0.1,1.1,1.4,1.6,3c0.5,1.5,1.6,4.2,2.5,6l1.6,3.3l-3.4,4.5c-4.9,6.4-4.9,6.1,3,14.1
	c8,7.9,7.7,7.9,14.1,3l4.5-3.4l3.3,1.6c1.8,0.9,4.5,2.1,6,2.5c1.5,0.5,2.9,1.2,3,1.6c0.1,0.4,0.5,2.9,0.8,5.5c0.9,7.2,0.5,7,12,7
	s11.1,0.2,12-7c0.3-2.6,0.7-5.1,0.8-5.5c0.1-0.4,1.4-1.1,3-1.6c1.5-0.5,4.2-1.6,6-2.5l3.3-1.6l4.4,3.4c6.4,4.9,6.1,4.9,14.1-3
	c7.9-8,7.9-7.7,3-14.1l-3.4-4.4l1.6-3.3c0.9-1.8,2.1-4.5,2.5-6c0.5-1.5,1.2-2.9,1.6-3c0.4-0.1,2.9-0.5,5.5-0.8c6.1-0.7,7-1.5,7-5.5
	v-2.6h1.9h1.9V137v37.3l1.2,1.2c1.1,1.2,1.4,1.2,7.7,1.2h6.5v6.5c0,6.3,0,6.6,1.2,7.7l1.2,1.2h16.9h16.9l1.2-1.2l1.2-1.2v-16.9
	v-16.9l-1.2-1.2l-1.2-1.2h-16.9h-16.9l-1.2,1.2c-1.2,1.1-1.2,1.4-1.2,7.7v6.5h-3.8h-3.8v-34.6V99.7h3.8h3.8v6.5c0,6.3,0,6.6,1.2,7.7
	l1.2,1.2h16.9h16.9l1.2-1.2l1.2-1.2V95.9V79l-1.2-1.2l-1.2-1.2h-16.9h-16.9l-1.2,1.2c-1.2,1.1-1.2,1.4-1.2,7.7v6.5h-3.8h-3.8V57.5
	V22.9h3.8h3.8v6.5c0,6.3,0,6.6,1.2,7.7l1.2,1.2h16.9h16.9l1.2-1.2l1.2-1.2V19V2.2L239.7,1l-1.2-1.2h-16.9h-16.9L203.6,1
	c-1.2,1.1-1.2,1.4-1.2,7.7v6.5H196c-6.3,0-6.6,0-7.7,1.2l-1.2,1.2v37.3v37.2h-1.9h-1.9v-2.6c0-4-1-4.8-7-5.5
	c-2.6-0.3-5.1-0.7-5.5-0.8c-0.4-0.1-1.1-1.4-1.6-3c-0.5-1.5-1.6-4.2-2.5-6l-1.6-3.3l3.4-4.4c4.9-6.4,4.9-6.1-3-14.1
	c-8-7.9-7.7-7.9-14.1-3l-4.4,3.4l-3.3-1.6c-1.8-0.9-4.5-2.1-6-2.5c-1.5-0.5-2.9-1.2-3-1.6c-0.1-0.4-0.5-2.9-0.8-5.5
	c-0.9-7.2-0.5-7-12-7s-11.1-0.2-12,7c-0.3,2.6-0.7,5.1-0.8,5.5c-0.1,0.4-1.4,1.1-3,1.6c-1.5,0.5-4.2,1.6-6,2.5l-3.3,1.6l-4.5-3.4
	c-6.4-4.9-6.1-4.9-14.1,3c-7.9,8-7.9,7.7-3,14.1l3.4,4.4l-1.6,3.3c-0.9,1.8-2.1,4.5-2.5,6c-0.5,1.5-1.2,2.9-1.6,3
	c-0.4,0.1-2.9,0.5-5.5,0.8c-6.1,0.7-7,1.5-7,5.5v2.6h-1.9h-1.9V54.8V17.5l-1.2-1.2c-1.1-1.2-1.4-1.2-7.7-1.2H41V8.7
	c0-6.3,0-6.6-1.2-7.7l-1.2-1.2H21.8H4.9L3.8,1z M33.3,19v11.5H21.8H10.3V19V7.5h11.5h11.5V19z M233.2,19v11.5h-11.5h-11.5V19V7.5
	h11.5h11.5V19z M126,42.4c0,0.2,0.3,2.5,0.7,5.1c0.5,3.3,1,5,1.5,5.7c0.5,0.5,2.5,1.3,4.4,1.8c3.5,1,7.5,2.7,11.6,5
	c1.2,0.7,2.5,1.2,3,1.2c0.4,0,2.7-1.4,4.9-3.1c2.3-1.7,4.3-3.1,4.5-3.1c0.4,0,5.9,5.4,5.9,5.8c0,0.2-1.4,2.2-3.1,4.5
	c-1.7,2.3-3.1,4.5-3.1,4.9c0,0.5,0.5,1.8,1.2,3c2.2,3.9,4.1,8.4,5.1,11.7c0.5,1.9,1.3,3.8,1.8,4.3c0.6,0.6,2.4,1.1,5.7,1.5
	c2.6,0.4,4.9,0.7,5.1,0.7c0.2,0,0.3,1.9,0.3,4.3c0,2.4-0.1,4.3-0.3,4.3c-0.2,0-2.5,0.3-5.1,0.7c-3.3,0.5-5,1-5.7,1.5
	c-0.5,0.5-1.3,2.4-1.8,4.3c-1,3.4-2.9,7.8-5.1,11.7c-0.7,1.2-1.2,2.5-1.2,3c0,0.4,1.4,2.7,3.1,4.9c1.7,2.3,3.1,4.3,3.1,4.5
	c0,0.4-5.4,5.8-5.9,5.8c-0.2,0-2.2-1.4-4.5-3.1c-2.3-1.7-4.5-3.1-4.9-3.1c-0.5,0-1.8,0.5-3,1.2c-3.9,2.2-8.4,4.1-11.7,5.1
	c-1.9,0.5-3.8,1.3-4.3,1.8c-0.6,0.6-1.1,2.4-1.5,5.7c-0.4,2.6-0.7,4.9-0.7,5.1c0,0.2-1.9,0.4-4.3,0.4c-2.4,0-4.3-0.1-4.3-0.4
	c0-0.2-0.3-2.5-0.7-5.1c-0.5-3.3-1-5-1.5-5.7c-0.5-0.5-2.4-1.3-4.3-1.8c-3.4-1-7.8-2.9-11.7-5.1c-1.2-0.7-2.5-1.2-3-1.2
	c-0.4,0-2.7,1.4-4.9,3.1c-2.3,1.7-4.3,3.1-4.5,3.1c-0.4,0-5.9-5.4-5.9-5.8c0-0.2,1.4-2.2,3.1-4.5c1.7-2.3,3.1-4.5,3.1-4.9
	c0-0.5-0.5-1.8-1.2-3c-2.2-3.9-4.1-8.4-5.1-11.7c-1.2-4.7-1.8-5-7.4-5.9c-2.6-0.3-4.9-0.7-5.1-0.7c-0.2,0-0.4-2-0.4-4.3
	c0-2.4,0.1-4.3,0.4-4.3c0.2,0,2.5-0.3,5.1-0.7c3.3-0.5,5-1,5.6-1.6c0.5-0.5,1.3-2.5,1.9-4.4c1-3.5,2.7-7.5,5-11.6
	c0.7-1.2,1.2-2.5,1.2-3c0-0.4-1.4-2.7-3.1-4.9c-1.7-2.3-3.1-4.3-3.1-4.5c0-0.4,5.4-5.8,5.9-5.8c0.2,0,2.2,1.4,4.5,3.1
	c2.3,1.7,4.5,3.1,4.9,3.1c0.5,0,1.8-0.5,3-1.2c3.9-2.2,8.4-4.1,11.7-5.1c1.9-0.5,3.8-1.3,4.3-1.8c0.6-0.6,1.1-2.4,1.5-5.7
	c0.4-2.6,0.7-4.9,0.7-5.1c0-0.2,2-0.3,4.3-0.3C124.1,42.1,126,42.2,126,42.4z M33.3,95.9v11.5H21.8H10.3V95.9V84.4h11.5h11.5V95.9z
	 M233.2,95.9v11.5h-11.5h-11.5V95.9V84.4h11.5h11.5V95.9z M33.3,172.8v11.5H21.8H10.3v-11.5v-11.5h11.5h11.5V172.8z M233.2,172.8
	v11.5h-11.5h-11.5v-11.5v-11.5h11.5h11.5V172.8z"/>
</svg>
