<?xml version="1.0" encoding="UTF-8"?>
<svg xmlns="http://www.w3.org/2000/svg" viewBox="0 0 45.26 26.64">
  <g id="Calque_1" data-name="Calque 1"/>
  <g id="Calque_2" data-name="Calque 2">
    <g id="Calque_1-2" data-name="Calque 1">
      <g style="opacity: .8;">
        <path d="M45,12.53C39.04,4.45,31.09,0,22.63,0S6.22,4.45,.26,12.53c-.34,.47-.34,1.1,0,1.57,5.97,8.08,13.92,12.53,22.37,12.53s16.41-4.45,22.37-12.53c.34-.47,.34-1.1,0-1.57Zm-22.37,11.44c-7.31,0-14.25-3.77-19.63-10.65C8.33,6.43,15.32,2.66,22.63,2.66s14.25,3.77,19.63,10.65c-5.38,6.89-12.32,10.65-19.63,10.65Zm0-18.64c-4.41,0-7.99,3.58-7.99,7.99s3.58,7.99,7.99,7.99,7.99-3.58,7.99-7.99-3.58-7.99-7.99-7.99Zm0,13.32c-2.94,0-5.33-2.38-5.33-5.33s2.38-5.33,5.33-5.33,5.33,2.38,5.33,5.33-2.38,5.33-5.33,5.33Z" style="fill: #68a345;"/>
      </g>
    </g>
  </g>
</svg>