<?xml version="1.0" encoding="utf-8"?>
<!-- Generator: Adobe Illustrator 26.2.1, SVG Export Plug-In . SVG Version: 6.00 Build 0)  -->
<svg version="1.1" id="Calque_1" xmlns="http://www.w3.org/2000/svg" xmlns:xlink="http://www.w3.org/1999/xlink" x="0px" y="0px"
	 viewBox="0 0 244 192" style="enable-background:new 0 0 244 192;" xml:space="preserve">
<style type="text/css">
	.st0{fill:#53A633;}
</style>
<g>
	<g transform="translate(0.000000,512.000000) scale(0.100000,-0.100000)">
		<path class="st0" d="M695.8,5118.1c-75-5.7-170.6-28.3-220-52.4c-42.5-21-63.1-38.3-76.1-64.3l-9.9-19.9v-386.8v-386.8l9.9-20.3
			c27.2-54.3,129.7-97.6,263.6-111.3c23.3-2.3,47.8-5.4,54.7-6.1l12.2-1.9v-56.2c0-62,3.8-76.5,25.3-98
			c25.6-25.6,20.7-25.3,241.8-25.3h199.7v-105.2v-105.2H844.3c-246.4,0-357.8-1.1-368.5-4.2c-20.3-5.7-49.4-34.8-55.1-55.1
			c-2.7-9.2-4.2-52.4-4.2-109.4v-94.1l-14.9-4.2c-8-2.7-23-11.9-32.9-20.7c-57-50.5-45.5-143.5,21.8-177.5
			c90.3-45.9,188.6,46.7,148.5,139.3c-10.3,24.1-39.8,52.4-61.6,58.5l-14.9,4.6v95.7v95.3l13,13l13,13h161.1h161.1v-108.3v-108.7
			l-14.9-4.6c-21.8-6.1-51.3-34.4-61.6-58.5c-11.9-27.5-9.6-70.8,4.6-95.3c18.7-31.4,47.4-50.5,84.6-55.5c36.7-5,81.9,18,103.7,53.2
			c16.1,26,18.7,68.5,6.1,97.6c-10.3,24.1-39.8,52.4-61.6,58.5l-14.9,4.6v108.7v108.3h170.3h170.3v-108.3v-108.7l-14.9-4.6
			c-21.4-6.1-51.3-34.4-61.2-58.2c-11.5-26-11.5-61.2,0-87.2c15.7-37.1,58.5-65.4,99.1-65.4c39.4,0,81.1,26.8,98,63.1
			c12.6,26.8,12.6,65,0,91.8c-10.7,23-39.4,49.7-60.1,56.2l-14.9,4.2v108.7v108.3h170.3h170.3V3526v-106.8l-14.5-4.2
			c-19.1-5.7-44-27.5-57.4-49.7c-9.2-16.1-10.3-21.8-10.3-52.4c0-25.6,1.9-37.5,6.9-46.7c35.6-65.8,116.7-81.9,170.3-33.7
			c59.7,53.9,42.9,154.6-30.2,180.6l-18.7,6.9v106v106.4h161.1h161.1l13-13l13-13v-95.3v-94.9l-18.7-6.9
			c-22.2-7.7-46.3-30.6-58.5-55.5c-12.2-25.3-11.9-64.7,0.4-89.9c19.9-40.9,53.6-61.6,99.9-62c24.9,0,31.4,1.5,49.4,11.5
			c49.4,27.2,69.6,80.4,51.3,134.3c-8.4,24.1-39.8,56.2-61.6,63.1l-16.1,4.6v94.1c0,57-1.5,100.2-4.2,109.4
			c-5.7,20.3-34.8,49.4-55.1,55.1c-10.7,3.1-122.1,4.2-368.1,4.2H1243v105.2v105.2h200.1h200.1l19.5,9.6c19.5,9.9,34.8,27.5,42.9,49
			c2.3,6.1,4.2,35.6,4.2,65.8v55.1l12.6,1.9c6.5,0.8,31.4,3.8,54.3,6.1c133.9,13.8,236.5,57,263.6,111.3l9.9,20.3v386.8v386.8
			l-9.9,20.3c-25.3,50.9-111,89.5-243.3,110.2c-60.8,9.2-202,9.2-262.9,0c-131.6-20.7-217.7-59.7-243-110.2l-9.9-20.3v-386.8v-386.8
			l9.9-20.3c30.2-60.8,146.2-103.7,312.6-115.9l60.1-4.6v-51.3c0-55.5-3.8-68.9-21.8-76.9c-13.8-6.1-831.4-5.7-844.8,0.4
			c-17.6,8-21,20.7-21,76.9v50.9l60.5,4.6c166.1,12.2,279.7,54.3,311.5,115.2l10.7,20.3v387.2v386.8l-9.2,19.5
			c-26.8,57.8-136.2,101.8-288.5,116.3C823.2,5120.4,736,5121.1,695.8,5118.1z M913.9,5064.1c59.3-9.9,99.1-21.4,135.8-39
			c32.1-15.3,57.4-37.5,61.2-53.6c5.4-22.6-30.2-52.4-87.6-73.5c-70-25.6-149.2-37.5-248.3-37.5c-90.7,0-155.3,8-222.7,27.2
			c-63.1,18.4-116.7,54.3-116.7,78.4c0,44,109.8,90.3,246.8,104.5C736.4,5076.4,862.6,5072.6,913.9,5064.1z M1799.7,5065.3
			c115.2-18,204.7-60.8,204.7-97.6c0-34.4-73.1-73.8-174.1-93.4c-107.5-21-260.2-18-358.5,6.9c-91.4,23.3-149.6,60.1-142.7,90.3
			c10.7,44.8,124,88.4,262.1,101C1627.1,5075.6,1763,5071,1799.7,5065.3z M500.7,4857.5c32.9-13,76.9-24.1,132-34.1
			c30.2-5.4,60.5-6.5,141.6-6.5c91.1-0.4,109,0.8,151.9,8.4c78.1,14.2,144.2,36,175.6,58.5l11.1,7.7v-88.8
			c0-101.8-0.8-104.1-33.7-125.5c-78.4-50.5-232.3-75-388-61.6l-58.2,5l-6.9-8.8c-9.2-11.5-7.7-22.2,4.6-31
			c22.6-16.1,187.5-19.1,279.3-5.4c76.9,11.9,132.4,28.3,179.1,53.6l23.7,13.4v-89.2c0-96.4,0-96-23-116.3
			c-25.6-22.6-95.7-48.6-163.4-60.1c-193.6-34.1-433.1,4.6-484.4,78.1c-5.7,8-6.5,20.3-6.5,98.3v89.2l21-11.9
			c24.1-13.8,37.9-13,44.8,2.3c6.5,14.2,0,24.5-25.6,39.8c-39.8,24.1-40.2,25.3-40.2,128.9v89.5l18.4-11.1
			C464,4874,485,4863.6,500.7,4857.5z M1392.2,4857.5c32.9-13,76.9-24.1,132-34.1c30.2-5.4,60.5-6.5,141.6-6.5
			c91.1-0.4,109,0.8,151.9,8.4c78.1,14.2,144.2,36,175.6,58.5l11.1,7.7v-88.4c0-98-0.8-101.8-24.5-120.1
			c-21.4-16.1-65.8-35.6-105.6-46.3c-67.3-17.6-112.9-23-208.5-23c-64.7,0-99.1,1.9-130.1,6.9c-103.3,16.1-186,50.1-203.2,83.4
			c-4.2,8.4-5.4,29.5-5.4,98.7v88.4l18.4-11.1C1355.5,4874,1376.5,4863.6,1392.2,4857.5z M1395.6,4608
			c29.5-11.5,86.9-25.3,138.1-33.3c32.5-5,66.6-6.9,132-6.9c94.5,0,142,5.4,212.7,23c43.2,10.7,69.6,20.7,102.2,38.3l23.7,13.4
			v-89.2c0-96.4,0-96-23-116.3c-25.6-22.6-95.7-48.6-163.4-60.1c-193.6-34.1-433.1,4.6-484.4,78.1c-5.7,8-6.5,20.3-6.5,98.3v89.2
			l24.1-13.4C1364.3,4622.2,1384.2,4612.6,1395.6,4608z M454,4384.6c21-14.2,67.7-31.8,112.1-42.5c69.6-16.8,120.9-22.2,208.1-22.2
			s138.5,5.4,208.1,22.2c44.4,10.7,91.1,28.3,112.1,42.5c8,5,15.3,9.2,16.5,9.2c1.1,0,1.9-39.8,1.9-88c0-100.6-0.8-102.9-29.1-122.4
			c-63.9-44.4-168.4-66.6-309.5-66.6s-245.6,22.2-309.5,66.6c-28.3,19.5-29.1,21.8-29.1,122.4c0,48.2,0.8,88,1.9,88
			C438.7,4393.8,446,4389.6,454,4384.6z M1345.5,4384.6c21-14.2,67.7-31.8,112.1-42.5c69.6-16.8,120.9-22.2,208.1-22.2
			c87.2,0,138.5,5.4,208.1,22.2c44.4,10.7,91.1,28.3,112.1,42.5c8,5,15.3,9.2,16.5,9.2c1.1,0,1.9-39.8,1.9-88
			c0-100.6-0.8-102.9-29.1-122.4c-63.9-44.4-168.4-66.6-309.5-66.6s-245.6,22.2-309.5,66.6c-28.3,19.5-29.1,21.8-29.1,122.4
			c0,48.2,0.8,88,1.9,88S1337.5,4389.6,1345.5,4384.6z M1635.5,3368c39.8-19.1,46.7-70.4,13.4-100.2c-17.6-16.1-37.1-20.7-57.8-14.5
			c-28.7,8.4-45.9,30.6-45.9,59.3C1545.2,3361.1,1591.5,3389.4,1635.5,3368z M471.6,3363.4c17.2-9.6,32.9-35.6,32.9-54.3
			c0-19.9-15.3-44.4-34.4-54.3c-20.3-10.7-37.9-11.1-57.4-1.1c-27.5,14.2-40.9,47.1-31,77.3C393.6,3366.4,438.3,3382.5,471.6,3363.4
			z M867.2,3361.8c16.5-12.2,24.9-26.4,26.4-45.9c5-50.5-42.9-84.6-88.4-62.8c-46.3,22.6-47.1,88-1.1,111.3
			C823.6,3374.5,851.9,3373.3,867.2,3361.8z M1253.7,3361.8c37.5-27.5,37.1-78.1-0.4-106c-15.3-11.1-51.3-11.1-66.6,0
			c-18.4,13.8-27.9,31.4-27.9,52c0,27.5,14.5,50.1,38.3,60.1C1211.2,3374.1,1241.8,3370.6,1253.7,3361.8z M2036.1,3359.6
			c37.1-28.3,32.5-84.9-8.8-106c-28.3-14.5-62.8-5.7-81.1,19.9c-12.6,18-12.6,53.2,0,71.2C1966.9,3373.3,2009,3380.2,2036.1,3359.6z
			"/>
		<path class="st0" d="M953.3,4787.9c-15.3-9.2-24.1-25.6-24.1-45.9c0-32.1,21.8-54.3,53.9-54.7c56.6-0.8,76.5,76.5,26.4,102.5
			C993.9,4797.8,967.9,4797.1,953.3,4787.9z M992.7,4745.4c3.1-5.4-8-16.5-13.4-13.4c-2.3,1.5-4.2,6.1-4.2,10.3
			C975.1,4750.4,988.1,4752.7,992.7,4745.4z"/>
		<path class="st0" d="M636.5,4741.2c-15.3-8.4-18-24.5-6.5-35.2c10.3-9.2,60.5-14.5,140.4-14.5c90.7-0.4,115.2,2.7,123.2,14.5
			c6.9,11.1,4.2,26.4-6.1,31.8c-4.6,2.7-24.9,2.7-58.2,0.4c-45.9-3.1-162.6,0.8-179.4,5.7C646.8,4744.6,640.7,4743.5,636.5,4741.2z"
			/>
		<path class="st0" d="M965.6,4550.3c-20.3-5.7-33.7-23.3-35.6-46.7c-3.1-36.3,18-60.1,52.8-60.1c23.3,0,40.6,11.1,50.1,32.5
			c13,29.1,0,60.8-29.8,73.1C989.3,4555.2,982.4,4555.2,965.6,4550.3z M990.4,4502.8c5.7-6.9,1.9-13.4-8-13.4
			c-4.6,0-7.3,2.7-7.3,6.9C975.1,4508.9,982.8,4512.4,990.4,4502.8z"/>
		<path class="st0" d="M631.2,4493.6c-9.9-9.9-10.3-19.9-1.1-30.2c5.4-6.5,13.8-8.8,43.6-12.2c42.5-4.2,163-4.6,194-0.4
			c27.9,4.2,38.6,19.1,26,36.3c-5,6.5-13.8,7.3-115.9,8c-60.8,0.4-116.7,1.9-124.4,3.8C641.9,4501.3,638,4500.5,631.2,4493.6z"/>
		<path class="st0" d="M1845.6,4787.9c-32.9-21.8-32.5-71.9,0.8-92.6c27.5-16.8,63.9-6.9,78.1,20.7c13,25.6,7.7,49.7-15.7,69.6
			C1893.4,4798.2,1863.2,4799.4,1845.6,4787.9z M1884.6,4743.5c2.7-6.9-5.4-13.4-13-10.3c-2.7,1.1-5,5.4-5,9.2
			C1866.6,4751.5,1881.2,4752.3,1884.6,4743.5z"/>
		<path class="st0" d="M1524.6,4736.6c-11.5-11.1-12.2-16.5-4.2-27.9c6.9-9.9,18-11.9,89.9-16.5c75-4.2,162.2,0.8,172.6,9.9
			c9.9,9.2,9.6,26.8-1.1,33.7c-7.3,4.6-17.6,5-60.5,2.3c-47.8-3.1-156.5,0.8-178.3,6.1C1536.8,4745.8,1531.5,4743.9,1524.6,4736.6z"
			/>
		<path class="st0" d="M1851.3,4546.1c-36.3-18.7-40.9-61.6-9.6-91.1c8.8-8,13.8-9.6,34.4-9.6c20.7,0,25.6,1.5,34.4,9.6
			c21.8,20.3,26.8,44.8,14.2,68.9c-7.3,13.8-33.7,30.6-48.6,30.6C1872,4554.5,1860.5,4550.7,1851.3,4546.1z M1881.6,4505.1
			c6.5-4.2,2.7-15.7-5-15.7c-7.3,0-11.1,6.5-8.4,13.4C1870.5,4509.3,1873.9,4509.7,1881.6,4505.1z"/>
		<path class="st0" d="M1522.7,4491.3c-8.8-11.5-8-23.3,2.3-31.4s47.1-10.7,148.8-10.7c93.4,0,100.6,0.4,108.3,7.3
			c9.6,8.4,10.7,26,1.9,33.3c-4.6,3.4-31,5-111.7,5.4c-58.2,0-114,1.9-123.6,3.4C1532.2,4501.7,1530.7,4500.9,1522.7,4491.3z"/>
		<path class="st0" d="M957.5,4302.3c-20.3-12.2-28.3-26-28.3-47.4c0-23.3,10.3-41.3,28.3-50.1c37.9-18,80,7.7,80,49
			C1037.5,4295.1,991.6,4323,957.5,4302.3z M991.2,4259.1c3.1-8-0.8-14.5-8.8-14.5c-7.3,0-10.3,11.1-4.6,16.5
			C982,4265.2,989.7,4264.1,991.2,4259.1z"/>
		<path class="st0" d="M630,4249.5c-8.8-9.9-8.8-22.2,0.4-31.4c5.4-5.4,16.1-8.4,37.5-10.7c44-4.6,203.6-3.4,216.2,1.9
			c13,5.4,17.6,20.7,9.6,32.5c-5.4,8.4-6.1,8.4-108.3,8.4c-56.6,0.4-113.3,1.9-125.9,3.4C639.2,4256.4,635.8,4256,630,4249.5z"/>
		<path class="st0" d="M1851.3,4302.7c-39-19.5-40.6-73.5-3.1-96.4c37.9-23,86.5,8.4,82.3,53.2c-1.1,9.2-5,21-9.2,26.8
			c-9.2,12.6-30.2,23.3-45.1,23.3C1870.1,4309.6,1858.6,4306.5,1851.3,4302.7z M1885,4254.9c1.5-7.7-9.6-13-15.3-7.3
			c-5.7,5.7-0.4,16.8,7.3,15.3C1880.8,4262.2,1884.2,4258.7,1885,4254.9z"/>
		<path class="st0" d="M1525.7,4251.4c-11.1-8.8-12.2-20.7-2.7-31.4c8-8.8,13-9.9,56.6-14.2c28.7-2.7,76.5-3.4,119.8-2.3
			c80,2.3,90.7,5.4,90.7,24.9c0,22.2,1.5,21.8-109.8,21.8c-56.2,0.4-112.9,1.5-125.5,3.4C1537.6,4256,1530.3,4255.3,1525.7,4251.4z"
			/>
	</g>
</g>
</svg>
