<svg width="25" height="25" viewBox="0 0 25 25" fill="none" xmlns="http://www.w3.org/2000/svg">
<g clip-path="url(#clip0_825_515)">
<path d="M14.43 4.95H10.31C10.08 4.95 9.9 4.77 9.9 4.54V0.41C9.9 0.18 10.08 0 10.31 0H14.43C14.66 0 14.84 0.18 14.84 0.41V4.53C14.84 4.76 14.65 4.94 14.43 4.94V4.95ZM10.72 4.12H14.02V0.82H10.72V4.12ZM4.53 14.84H0.41C0.18 14.84 0 14.65 0 14.43V10.31C0 10.08 0.18 9.9 0.41 9.9H4.53C4.76 9.9 4.94 10.08 4.94 10.31V14.43C4.94 14.66 4.76 14.84 4.53 14.84ZM0.82 14.01H4.12V10.71H0.82V14.01ZM14.43 24.73H10.31C10.08 24.73 9.9 24.54 9.9 24.32V20.2C9.9 19.97 10.08 19.79 10.31 19.79H14.43C14.66 19.79 14.84 19.98 14.84 20.2V24.32C14.84 24.55 14.65 24.73 14.43 24.73ZM10.72 23.91H14.02V20.61H10.72V23.91ZM24.32 14.84H20.2C19.97 14.84 19.79 14.65 19.79 14.43V10.31C19.79 10.08 19.98 9.9 20.2 9.9H24.32C24.55 9.9 24.73 10.08 24.73 10.31V14.43C24.73 14.66 24.54 14.84 24.32 14.84ZM20.61 14.01H23.91V10.71H20.61V14.01ZM22.06 10.39C21.27 6.49 18.24 3.47 14.35 2.68L14.51 1.87C18.73 2.73 22.01 6.01 22.87 10.23L22.06 10.39ZM2.67 10.39L1.86 10.23C2.72 6.01 5.99 2.73 10.21 1.87L10.37 2.68C6.48 3.47 3.46 6.5 2.67 10.39ZM10.22 22.87C6.01 22.01 2.73 18.74 1.87 14.53L2.68 14.37C3.48 18.26 6.5 21.28 10.39 22.07L10.23 22.88L10.22 22.87ZM14.52 22.86L14.36 22.05C18.25 21.25 21.27 18.23 22.06 14.34L22.87 14.5C22.01 18.71 18.74 21.99 14.53 22.85L14.52 22.86Z" fill="#29275C"/>
<rect x="10" y="20" width="4.8" height="5" rx="1" fill="#29275C"/>
</g>
<defs>
<clipPath id="clip0_825_515">
<rect width="24.73" height="24.73" fill="white"/>
</clipPath>
</defs>
</svg>
