<svg width="1558" height="1704" viewBox="0 0 1558 1704" fill="none" xmlns="http://www.w3.org/2000/svg">
<g clip-path="url(#clip0_793_444)">
<path d="M35.4813 478.399C54.9696 465.055 80.0713 494.498 66.4083 512.715C52.6395 531.249 22.4539 525.953 12.0743 507.101C-1.16502 482.954 12.0743 454.358 33.3631 440.377C57.6174 424.491 87.3794 423.644 115.341 425.126C143.62 426.609 171.264 428.621 199.437 424.597C223.267 421.102 246.569 414.535 268.811 405.109C314.46 385.939 354.495 355.543 385.316 316.779C399.721 298.563 413.172 278.016 421.327 256.198C427.682 239.359 430.648 217.223 421.645 200.807C414.337 187.039 397.285 181.743 383.516 189.051C381.821 189.898 380.232 190.957 378.75 192.228C363.816 204.514 359.685 227.285 371.23 243.171C383.516 260.223 406.711 266.048 426.623 262.977C454.373 258.634 476.826 239.041 498.009 222.201L655.292 97.3321C681.241 76.7854 706.872 55.7092 733.139 35.5861C754.534 19.1699 780.589 3.28327 808.338 12.0739C819.565 15.5689 830.898 23.9359 833.652 36.0097C835.77 47.2363 831.533 58.6747 822.637 65.7707C814.693 72.549 802.725 71.5958 795.946 63.5466C795.629 63.1229 795.205 62.6993 794.887 62.2756C789.062 54.1205 788.532 42.4703 791.921 33.1501C800.924 8.47291 834.075 5.82513 856.106 7.83744C882.161 10.4852 907.368 18.7463 929.928 32.091C976.636 59.2042 1011.16 103.369 1031.39 152.935C1053.85 207.903 1060.73 268.696 1059.88 327.688C1059.67 339.762 1058.83 353.001 1052.05 363.38C1045.37 373.548 1033.83 376.619 1023.45 369.841C1020.06 367.617 1015.72 363.274 1016.57 358.72C1017.63 353.001 1029.06 353.001 1033.62 353.213C1046.12 353.848 1057.87 360.097 1066.77 368.57C1087.95 388.693 1089.65 419.513 1086.89 446.944C1083.82 477.023 1075.14 506.995 1078.63 537.392C1084.25 587.276 1125.23 615.024 1165.48 638.007C1186.03 649.763 1207.11 660.99 1225.64 675.923C1244.49 691.174 1261.02 709.179 1274.68 729.302C1301.69 768.913 1317.57 815.09 1320.75 862.962C1322.34 886.898 1320.43 910.834 1315.14 934.24C1309.84 957.117 1301.48 985.924 1279.55 998.21C1268.85 1004.35 1255.4 1003.19 1245.98 995.245C1237.08 988.148 1232.74 975.439 1241.95 966.543C1249.58 959.129 1261.76 960.718 1270.97 963.683C1281.99 967.284 1290.67 974.062 1298.93 982.006C1314.61 997.257 1333.04 1015.9 1356.97 1011.03C1361.42 1010.18 1359.52 1003.4 1355.07 1004.25C1326.15 1010.07 1308.78 976.604 1287.49 963.683C1272.03 954.363 1245.76 947.373 1233.69 965.589C1220.66 985.289 1241.63 1006.47 1261.02 1009.01C1286.22 1012.3 1303.81 987.619 1312.28 967.284C1331.98 920.048 1332.51 864.656 1320.54 815.408C1308.47 765.418 1282.52 719.876 1245.55 684.184C1226.91 666.391 1205.52 652.835 1183.28 640.125C1160.82 627.31 1137.31 615.024 1118.03 597.443C1096.43 578.379 1084.35 550.842 1084.99 522.035C1085.2 489.308 1095.68 457.535 1095.05 424.703C1094.52 397.484 1085.3 370.9 1061.58 355.649C1051.84 349.082 1040.18 345.799 1028.43 346.434C1023.66 346.858 1016.88 347.6 1012.96 350.671C1009.79 353.107 1009.15 358.72 1009.79 362.427C1011.27 371.112 1019.53 377.149 1027.48 379.585C1037.43 382.762 1048.23 379.585 1054.8 371.535C1062.43 362.639 1065.07 350.883 1066.24 339.55C1067.72 324.193 1066.88 308.307 1066.24 292.95C1063.49 230.25 1051.09 166.068 1018.58 111.736C990.935 65.453 947.827 26.6896 896.247 9.53201C871.887 1.48279 843.078 -3.38911 817.976 3.91874C796.37 10.2734 779.847 28.0664 783.448 51.5786C786.52 71.4899 807.067 85.2583 825.285 72.7608C841.807 61.3224 845.938 38.7634 834.499 22.3472C833.44 20.8645 832.381 19.4876 831.11 18.1108C813.528 -0.317699 784.825 -0.211788 762.901 9.21428C749.662 14.8276 738.011 23.3004 726.678 32.091C712.274 43.3176 698.081 54.756 683.783 66.0884L511.884 202.608C498.327 213.41 484.982 224.531 470.895 234.699C457.762 244.23 443.357 253.021 427.258 256.093C404.593 260.435 368.688 249.102 371.442 220.401C372.501 209.28 379.915 196.888 391.248 193.711C402.369 190.534 412.854 197.736 416.879 207.797C425.987 230.038 415.29 255.563 404.699 275.051C378.432 323.452 336.914 362.851 288.405 388.481C264.044 401.296 237.99 410.616 211.087 415.912C180.796 421.843 151.034 420.678 120.425 418.878C90.6627 417.077 59.5239 417.289 33.0453 432.752C11.3329 445.461 -3.1774 468.444 0.317776 494.074C3.38929 516.316 21.1829 533.367 44.2722 531.461C63.6545 529.872 83.0369 513.35 76.1524 492.38C70.4331 475.01 48.5088 461.348 31.7743 472.786C28.0673 475.328 31.5625 481.365 35.2695 478.823L35.4813 478.399Z" fill="#403D58"/>
<path d="M1521.14 984.547H1351.26C1345.75 984.547 1341.3 988.996 1341.3 994.503V1100.2C1341.3 1105.71 1345.75 1110.16 1351.26 1110.16H1521.14C1526.65 1110.16 1531.1 1105.71 1531.2 1100.2V994.503C1531.2 988.996 1526.76 984.547 1521.25 984.547H1521.14Z" fill="#F2F2F2"/>
<path d="M1521.14 984.547H1351.26C1345.75 984.547 1341.3 988.996 1341.3 994.503V1100.2C1341.3 1105.71 1345.75 1110.16 1351.26 1110.16H1521.14C1526.65 1110.16 1531.1 1105.71 1531.2 1100.2V994.503C1531.2 988.996 1526.76 984.547 1521.25 984.547H1521.14ZM1524.43 1060.49C1524.43 1082.83 1506.31 1101.05 1483.97 1101.47C1466.7 1101.68 1493.5 1101.79 1472.74 1101.79C1425.18 1101.79 1375.62 1101.37 1357.19 1101.05C1352.1 1101.05 1348.08 1096.81 1348.08 1091.73V994.503C1348.08 992.703 1349.56 991.22 1351.36 991.22H1521.25C1523.05 991.22 1524.53 992.703 1524.53 994.503V1060.49H1524.43Z" fill="#E7E6E6"/>
<path d="M1500.17 923.648H1370.74C1368.41 923.648 1366.29 925.131 1365.55 927.355L1345.54 983.382C1344.48 986.242 1346.07 989.419 1348.93 990.478C1349.56 990.69 1350.2 990.796 1350.83 990.796L1524.42 991.114C1527.5 991.114 1529.93 988.678 1529.93 985.606C1529.93 984.865 1529.83 984.124 1529.51 983.382L1505.36 927.038C1504.51 925.025 1502.5 923.648 1500.28 923.648H1500.17Z" fill="#E7E6E6"/>
<path d="M1529.93 984.547C1529.93 985.289 1529.83 986.03 1529.51 986.772L1505.36 1030.2C1504.51 1032.21 1502.5 1033.58 1500.28 1033.58H1370.85C1368.52 1033.58 1366.4 1032.1 1365.66 1029.88L1345.64 986.772C1344.58 983.912 1346.07 980.735 1349.03 979.676C1349.67 979.464 1350.3 979.358 1350.83 979.358H1372.01H1380.7L1494.56 979.146H1503.24H1524.42C1527.5 979.146 1529.93 981.582 1529.93 984.653V984.547Z" fill="#E7E6E6"/>
<path d="M1363.96 1063.77C1366.51 1063.77 1401.78 1065.89 1401.78 1068.53C1401.78 1071.18 1366.51 1073.09 1363.96 1073.09C1361.42 1073.09 1359.3 1070.97 1359.3 1068.43C1359.3 1065.89 1361.42 1063.77 1363.96 1063.77Z" fill="#E7E6E6"/>
<path d="M1492.12 889.545H1383.03C1376.99 889.545 1372.01 894.523 1372.01 900.56V1033.58H1500.17C1501.23 1033.58 1502.29 1033.27 1503.14 1032.74V900.666C1503.14 894.629 1498.16 889.651 1492.12 889.651V889.545Z" fill="#F2F2F2"/>
<path d="M1450.5 898.442H1390.66C1385.15 898.442 1380.59 902.89 1380.59 908.503V1033.58H1494.45V942.501C1494.45 918.247 1474.75 898.548 1450.39 898.442H1450.5Z" fill="white"/>
<path d="M1475.07 1022.36H1399.98C1398.6 1022.36 1397.54 1023.42 1397.54 1024.79C1397.54 1026.17 1398.6 1027.23 1399.98 1027.23H1475.07C1476.45 1027.23 1477.5 1026.17 1477.5 1024.79C1477.5 1023.42 1476.45 1022.36 1475.07 1022.36Z" fill="#E4E4E3"/>
<path d="M1475.07 1012.72H1399.98C1398.6 1012.72 1397.54 1013.78 1397.54 1015.16C1397.54 1016.53 1398.6 1017.59 1399.98 1017.59H1475.07C1476.45 1017.59 1477.5 1016.53 1477.5 1015.16C1477.5 1013.78 1476.45 1012.72 1475.07 1012.72Z" fill="#E4E4E3"/>
<path d="M1432.6 1003.08H1400.08C1398.7 1003.08 1397.65 1004.14 1397.65 1005.52C1397.65 1006.89 1398.7 1007.95 1400.08 1007.95H1432.6C1433.97 1007.95 1435.03 1006.89 1435.03 1005.52C1435.03 1004.14 1433.97 1003.08 1432.6 1003.08Z" fill="#E4E4E3"/>
<path d="M1475.07 982.853H1399.98C1398.6 982.853 1397.54 983.912 1397.54 985.289C1397.54 986.666 1398.6 987.725 1399.98 987.725H1475.07C1476.45 987.725 1477.5 986.666 1477.5 985.289C1477.5 983.912 1476.45 982.853 1475.07 982.853Z" fill="#E4E4E3"/>
<path d="M1475.07 973.109H1399.98C1398.6 973.109 1397.54 974.168 1397.54 975.545C1397.54 976.922 1398.6 977.981 1399.98 977.981H1475.07C1476.45 977.981 1477.5 976.922 1477.5 975.545C1477.5 974.168 1476.45 973.109 1475.07 973.109Z" fill="#E4E4E3"/>
<path d="M1432.6 963.471H1400.08C1398.7 963.471 1397.65 964.53 1397.65 965.907C1397.65 967.284 1398.7 968.343 1400.08 968.343H1432.6C1433.97 968.343 1435.03 967.284 1435.03 965.907C1435.03 964.53 1433.97 963.471 1432.6 963.471Z" fill="#E4E4E3"/>
<path d="M1475.07 943.242H1399.98C1398.6 943.242 1397.54 944.301 1397.54 945.678C1397.54 947.055 1398.6 948.114 1399.98 948.114H1475.07C1476.45 948.114 1477.5 947.055 1477.5 945.678C1477.5 944.301 1476.45 943.242 1475.07 943.242Z" fill="#E4E4E3"/>
<path d="M1475.07 933.499H1399.98C1398.6 933.499 1397.54 934.558 1397.54 935.935C1397.54 937.311 1398.6 938.37 1399.98 938.37H1475.07C1476.45 938.37 1477.5 937.311 1477.5 935.935C1477.5 934.558 1476.45 933.499 1475.07 933.499Z" fill="#E4E4E3"/>
<path d="M1432.6 923.86H1400.08C1398.7 923.86 1397.65 924.919 1397.65 926.296C1397.65 927.673 1398.7 928.732 1400.08 928.732H1432.6C1433.97 928.732 1435.03 927.673 1435.03 926.296C1435.03 924.919 1433.97 923.86 1432.6 923.86Z" fill="#E4E4E3"/>
<path d="M624.153 465.266C664.164 465.266 696.599 432.833 696.599 392.823C696.599 352.814 664.164 320.38 624.153 320.38C584.143 320.38 551.708 352.814 551.708 392.823C551.708 432.833 584.143 465.266 624.153 465.266Z" fill="#F5AEB5"/>
<path d="M706.872 351.412C699.246 339.656 684.948 331.819 671.073 333.937C667.154 307.247 642.37 288.713 615.68 292.632C605.724 294.115 596.51 298.563 589.201 305.447C584.859 302.376 579.245 301.846 574.373 303.964C569.607 306.082 565.477 309.472 562.299 313.602C546.094 333.831 542.281 361.262 552.449 385.092C550.755 378.949 556.898 373.124 563.146 371.747C569.395 370.37 575.962 371.747 582.211 370.794C590.366 369.629 597.569 364.969 605.724 363.91C612.503 363.062 619.387 364.757 626.06 366.558C632.732 368.358 639.511 370.053 646.395 369.311C653.28 368.464 662.07 394.412 661.859 412.629C661.859 416.124 662.6 420.572 665.883 421.208C670.014 422.161 672.45 416.336 676.369 414.853C680.182 413.794 684.101 415.912 685.372 419.619C686.431 423.326 685.583 427.35 683.041 430.316C680.605 433.281 677.746 435.717 674.462 437.73L676.051 439.106C678.805 442.707 684.418 442.813 688.337 440.589C692.044 438.047 695.116 434.658 697.128 430.528C704.33 418.454 710.685 405.639 713.227 391.87C715.769 378.102 714.18 363.062 706.554 351.306L706.872 351.412Z" fill="#312F43"/>
<path d="M709.202 1661.21H670.014L651.479 1510.39H709.202V1661.21Z" fill="#F5AEB5"/>
<path d="M710.579 1702.09H590.261V1700.61C590.261 1674.77 611.232 1653.8 637.075 1653.8L658.999 1637.17L699.988 1653.8H710.474V1702.09H710.579Z" fill="#312F43"/>
<path d="M779.741 1592.16L749.026 1616.41L640.888 1509.65L686.113 1473.86L779.741 1592.16Z" fill="#F5AEB5"/>
<path d="M806.114 1623.3L711.744 1697.86L710.791 1696.69C694.798 1676.36 698.187 1646.91 718.523 1630.92L725.407 1604.23L767.879 1591.84L776.14 1585.38L806.114 1623.3Z" fill="#312F43"/>
<path d="M506.906 954.045L504.47 997.998L516.121 1012.08L514.744 1056.14L526.076 1084.95L534.02 1176.67L645.018 1559.22L745.001 1527.13L635.804 1170.53L767.243 1167.24L771.692 966.119L748.391 921.107L506.906 954.045Z" fill="#312F43"/>
<path d="M754.534 1136.85L767.243 1167.24L718.311 1594.17L649.784 1599.15L620.128 1121.81L754.534 1136.85Z" fill="#312F43"/>
<path opacity="0.1" d="M687.384 507.737L664.824 476.493L592.167 479.459L590.79 503.5L542.493 959.659L589.837 958.599L648.725 972.262L762.054 932.651L687.384 507.737Z" fill="#114277"/>
<path d="M561.134 968.026H449.606L478.733 762.664L490.489 679.418C490.489 679.418 482.122 619.896 478.097 588.865C477.674 585.581 478.309 582.192 479.792 579.227C481.063 576.367 482.864 573.825 484.876 571.495C498.433 555.82 528.936 542.264 548.107 534.85C557.957 531.037 564.841 528.813 564.841 528.813L590.79 503.395C628.072 549.995 561.134 968.026 561.134 968.026Z" fill="#403D58"/>
<path d="M673.192 490.791L708.567 511.02C708.567 511.02 813.316 528.178 823.484 567.576L784.931 683.972V928.627L691.409 966.119C691.409 966.119 610.808 570.86 673.086 490.791H673.192Z" fill="#403D58"/>
<path opacity="0.4" d="M637.392 1111.96L620.128 1312.13L649.573 1545.13" fill="#010101"/>
<path d="M220.196 739.046C231.105 731.209 246.251 733.75 254.088 744.553C254.936 745.718 255.677 746.989 256.313 748.26L341.997 738.516L321.662 778.445L243.391 781.516C230.893 786.494 216.701 780.457 211.723 767.96C207.486 757.475 211.087 745.507 220.302 738.94L220.196 739.046Z" fill="#F5AEB5"/>
<path d="M579.881 564.081L604.453 578.803L467.082 772.302L299.42 786.494L292.747 738.622L416.243 701.553L477.25 583.251L579.881 564.081Z" fill="#403D58"/>
<path d="M1079.8 722.736C1068.89 714.899 1053.74 717.44 1045.9 728.243C1045.06 729.408 1044.32 730.679 1043.68 731.95L957.995 722.206L978.331 762.135L1056.6 765.206C1069.1 770.184 1083.29 764.147 1088.27 751.65C1092.51 741.164 1088.91 729.197 1079.69 722.63L1079.8 722.736Z" fill="#F5AEB5"/>
<path d="M720.112 547.771L695.54 562.387L832.91 755.886L1000.57 770.184L1007.25 722.312L883.749 685.243L822.637 566.835L720.112 547.771Z" fill="#403D58"/>
<path d="M386.164 502.229V499.687H343.268V440.06H340.727V499.687H291.582V453.616C290.735 454.252 289.888 454.993 289.04 455.734V499.687H256.631C256.313 500.535 255.889 501.382 255.571 502.229H289.04V552.325H247.416C247.416 553.172 247.416 554.02 247.628 554.867H289.04V594.901H258.007C258.431 595.749 258.749 596.596 259.172 597.443H289.04V631.017H291.582V597.443H340.727V631.017H343.268V597.443H386.164V594.901H343.268C343.268 572.766 361.168 554.867 383.198 554.867H386.058V552.325H343.163V502.229H386.058H386.164ZM340.727 594.901H291.582V554.867H340.727V594.901ZM340.727 552.325H291.582V551.372C291.582 524.259 313.612 502.229 340.727 502.229V552.325Z" fill="#E7E6E6"/>
<path d="M758.664 148.275C757.923 148.593 757.182 148.275 756.864 147.534L753.263 138.955C752.945 138.214 753.263 137.472 754.004 137.154C754.746 136.837 755.487 137.154 755.805 137.896L759.406 146.475C759.724 147.216 759.406 147.957 758.664 148.275Z" fill="#403D58"/>
<path d="M830.262 84.7287L819.671 59.0983C816.282 50.9431 806.855 47.0244 798.7 50.4136L744.472 72.8667C736.316 76.2558 732.397 85.6819 735.787 93.8371L793.934 234.275C797.323 242.43 806.749 246.349 814.905 242.96L869.133 220.506C877.288 217.117 881.207 207.691 877.818 199.536L837.782 102.945C837.782 102.945 838.524 102.098 838.312 101.674L831.533 85.3642C831.321 84.8346 830.686 84.6228 830.262 84.8346V84.7287Z" fill="#403D58"/>
<path d="M816.494 60.4749L874.535 200.701C877.077 206.738 874.217 213.728 868.18 216.27C868.18 216.27 868.18 216.27 868.074 216.27L813.528 238.829C807.385 241.371 800.395 238.405 797.853 232.368L739.812 92.1423C737.27 85.9995 740.235 79.0093 746.273 76.4675L752.839 73.7138C752.839 76.8911 755.381 79.433 758.559 79.3271C759.3 79.3271 760.041 79.2212 760.677 78.9034L791.71 66.0882C792.345 65.7705 792.981 65.3468 793.51 64.9232C795.735 62.6991 795.735 59.0981 793.51 56.874L800.607 53.9085C806.75 51.3666 813.74 54.3321 816.282 60.369L816.494 60.4749Z" fill="#29275C"/>
<path d="M752.521 133.659C751.78 133.977 751.039 133.659 750.721 132.918L747.12 124.339C746.802 123.598 747.12 122.856 747.861 122.539C748.603 122.221 749.344 122.539 749.662 123.28L753.263 131.859C753.581 132.6 753.263 133.342 752.521 133.659Z" fill="#403D58"/>
<path d="M745.425 117.137C744.684 117.455 743.942 117.137 743.625 116.396L740.024 107.817C739.706 107.076 740.024 106.334 740.765 106.017C741.506 105.699 742.248 106.017 742.565 106.758L746.167 115.337C746.484 116.078 746.167 116.82 745.425 117.137Z" fill="#403D58"/>
<path d="M765.443 70.4309C765.125 69.6895 765.443 68.9481 766.184 68.6304L774.764 65.0294C775.505 64.7117 776.246 65.0294 776.564 65.7708C776.882 66.5122 776.564 67.2536 775.823 67.5713L767.244 71.1723C766.502 71.49 765.761 71.1723 765.443 70.4309Z" fill="white"/>
<path d="M780.059 65.7708C780.82 65.7708 781.436 65.1543 781.436 64.3939C781.436 63.6335 780.82 63.0171 780.059 63.0171C779.299 63.0171 778.682 63.6335 778.682 64.3939C778.682 65.1543 779.299 65.7708 780.059 65.7708Z" fill="white"/>
<path d="M1076.09 671.475C1076.09 671.475 1075.77 671.475 1075.56 671.475C1071.43 671.369 1067.62 669.145 1065.39 665.756C1057.13 653.47 1047.07 642.455 1035.42 633.347C1028.43 627.734 1021.01 622.544 1013.92 617.46C995.595 604.433 978.331 592.147 968.799 575.202C947.933 538.239 972.506 486.766 1007.67 463.572C1047.07 437.624 1098.97 433.599 1149.06 433.069C1154.25 433.069 1159.44 433.069 1164.74 433.069C1255.08 433.069 1345.32 441.33 1434.19 457.747C1463.74 463.148 1494.66 469.926 1519.55 486.131C1544.23 502.229 1559.27 527.648 1557.79 550.736C1555.67 584.522 1519.76 609.835 1487.14 616.401C1456 622.65 1423.7 618.413 1389.49 613.965C1381.97 613.012 1374.13 611.953 1366.4 611C1282.52 601.256 1124.81 631.229 1118.14 632.5L1111.57 633.77L1085.94 666.815C1083.61 669.886 1080.01 671.686 1076.09 671.686V671.475Z" fill="#29275C"/>
<path d="M1449.86 506.572H1095.05C1090.81 506.572 1087.32 503.077 1087.32 498.84C1087.32 494.604 1090.81 491.109 1095.05 491.109H1449.86C1454.1 491.109 1457.59 494.604 1457.59 498.84C1457.59 503.077 1454.1 506.572 1449.86 506.572Z" fill="white"/>
<path d="M1449.86 553.914H1095.05C1090.81 553.914 1087.32 550.419 1087.32 546.182C1087.32 541.946 1090.81 538.451 1095.05 538.451H1449.86C1454.1 538.451 1457.59 541.946 1457.59 546.182C1457.59 550.419 1454.1 553.914 1449.86 553.914Z" fill="white"/>
<path d="M1136.46 601.362H1095.15C1090.92 601.362 1087.42 597.867 1087.42 593.63C1087.42 589.394 1090.92 585.899 1095.15 585.899H1136.46C1140.7 585.899 1144.19 589.394 1144.19 593.63C1144.19 597.867 1140.7 601.362 1136.46 601.362Z" fill="white"/>
<path d="M1080.54 725.278C1101.25 725.278 1118.03 708.492 1118.03 687.785C1118.03 667.079 1101.25 650.293 1080.54 650.293C1059.83 650.293 1043.04 667.079 1043.04 687.785C1043.04 708.492 1059.83 725.278 1080.54 725.278Z" fill="white"/>
<path d="M1080.54 725.807C1059.57 725.807 1042.51 708.756 1042.51 687.785C1042.51 666.815 1059.57 649.763 1080.54 649.763C1101.51 649.763 1118.56 666.815 1118.56 687.785C1118.56 708.756 1101.51 725.701 1080.54 725.807Z" fill="#403D58"/>
<path d="M1077.68 702.824H1077.47C1075.98 702.824 1074.71 702.083 1073.87 700.918L1067.62 692.869C1065.92 690.75 1066.35 687.679 1068.46 685.984L1068.68 685.773C1070.79 684.078 1073.87 684.502 1075.56 686.62C1076.73 688.209 1079.06 688.42 1080.54 687.255C1080.64 687.15 1080.86 687.044 1080.96 686.938L1093.67 673.487C1095.58 671.475 1098.65 671.475 1100.66 673.275L1100.87 673.487C1102.89 675.393 1102.89 678.465 1101.09 680.477L1081.28 701.342C1080.33 702.295 1079.06 702.824 1077.68 702.824Z" fill="white"/>
<path d="M379.915 202.819L356.931 64.8174C355.978 58.9923 359.897 53.4849 365.722 52.5317L469.942 35.1623C475.767 34.2091 481.275 38.1278 482.228 43.9529L505.211 181.955C506.165 187.78 502.246 193.287 496.421 194.24L392.201 211.61C386.376 212.563 380.868 208.644 379.915 202.819Z" fill="#403D58"/>
<path d="M380.974 159.82L366.252 71.0664C365.404 65.6649 369.006 60.4753 374.513 59.5221L464.117 44.5887C469.518 43.7414 474.708 47.3423 475.661 52.8497L496.103 175.706C496.95 181.108 493.349 186.297 487.841 187.251L432.342 196.465C408.088 200.489 385.104 184.073 381.08 159.82H380.974Z" fill="white"/>
<path d="M384.893 93.4134C384.045 88.1179 387.646 83.0342 392.942 82.1869L455.114 71.8076C460.41 70.9603 465.493 74.5613 466.341 79.8568C467.188 85.1524 463.587 90.2361 458.291 91.0834L396.12 101.463C390.824 102.31 385.74 98.709 384.893 93.4134Z" fill="#29275C"/>
<path d="M389.871 123.386C389.023 118.091 392.624 113.007 397.92 112.16L460.092 101.78C465.387 100.933 470.471 104.534 471.319 109.829C472.166 115.125 468.565 120.209 463.269 121.056L401.098 131.435C395.802 132.283 390.718 128.682 389.871 123.386Z" fill="#29275C"/>
<path d="M394.849 153.359C394.001 148.063 397.602 142.979 402.898 142.132L465.07 131.753C470.366 130.906 475.449 134.507 476.297 139.802C477.144 145.098 473.543 150.181 468.247 151.029L406.076 161.408C400.78 162.255 395.696 158.654 394.849 153.359Z" fill="#29275C"/>
<path d="M924.632 1606.67L926.327 1569.49C943.591 1560.28 962.761 1555.41 982.249 1555.3C955.347 1577.33 958.737 1619.69 940.519 1649.24C928.869 1667.78 909.38 1680.06 887.562 1682.61L865.108 1696.37C858.859 1661.53 868.18 1625.73 890.634 1598.41C896.883 1590.89 904.191 1584.21 912.134 1578.5C917.536 1592.69 924.738 1606.77 924.738 1606.77L924.632 1606.67Z" fill="#F2F2F2"/>
<path d="M1222.89 1700.4C1222.89 1702.41 1221.3 1704 1219.29 1704H242.438C240.426 1704 238.837 1702.41 238.837 1700.4C238.837 1698.39 240.426 1696.8 242.438 1696.8H1219.29C1221.3 1696.8 1222.89 1698.39 1222.89 1700.4Z" fill="#CDCCCC"/>
<path d="M244.768 720.406C227.398 720.088 134.405 717.44 119.154 718.076C118.306 715.004 89.3916 752.179 88.6502 752.391C87.0615 754.086 87.1674 756.733 88.862 758.322C89.1798 758.64 89.6034 758.957 90.133 759.169C91.8276 760.228 241.908 757.475 243.709 757.792C245.297 757.792 246.78 756.839 247.416 755.356L248.369 753.132C248.369 749.32 249.746 729.62 248.581 726.337C249.534 724.219 248.581 721.783 246.463 720.829C245.933 720.618 245.403 720.512 244.768 720.512V720.406Z" fill="#403D58"/>
<path opacity="0.17" d="M248.263 753.026C247.416 755.145 246.251 757.792 243.497 757.686L91.5101 759.381C89.1799 759.381 87.3794 757.475 87.3794 755.145C87.3794 754.509 87.5912 753.874 87.909 753.238L248.263 753.026Z" fill="#010101"/>
<path d="M119.789 717.546C118.2 714.686 77.5293 513.668 74.1401 511.973L46.3905 478.082L43.9545 476.175C40.4593 474.269 32.198 475.54 32.9394 480.835C39.5061 512.079 81.3422 690.009 82.2955 717.758L87.3794 753.132C87.6971 755.462 89.9213 757.157 92.3573 756.839C92.4632 756.839 92.6751 756.839 92.781 756.839C95.7466 756.521 98.2885 754.721 99.4536 751.967C99.8773 750.696 121.696 718.393 119.789 717.652V717.546Z" fill="#403D58"/>
<path opacity="0.17" d="M46.3904 478.082L99.4535 751.861C97.6529 756.309 89.3916 759.487 87.4851 753.556C87.4851 753.556 33.0452 481.047 33.0452 480.835C32.5156 474.269 43.3189 474.057 46.4963 478.082H46.3904Z" fill="#010101"/>
<path d="M47.9792 489.308L74.9874 526.801L105.173 670.416L91.1923 682.701L47.9792 489.308Z" fill="#29275C"/>
<path d="M227.398 739.682L234.812 739.999C234.918 737.775 235.342 735.657 235.871 733.539C237.036 728.243 237.99 721.889 233.329 721.889C230.152 721.571 229.093 725.596 228.563 729.938C228.457 733.221 228.034 736.504 227.398 739.682Z" fill="#312F43"/>
<path d="M184.609 729.726L189.587 729.937H192.023C192.023 727.396 193.188 721.888 190.222 720.511C189.693 720.3 189.269 720.194 188.739 720.194C185.88 719.982 185.032 722.206 184.82 724.642C184.609 726.125 184.82 727.713 184.715 728.984C184.715 729.196 184.715 729.514 184.715 729.726H184.609Z" fill="#312F43"/>
<path d="M169.675 729.09L174.759 729.302H177.195C177.195 726.337 178.783 719.664 173.805 719.558C169.251 719.347 169.887 725.066 169.781 728.349C169.781 728.561 169.781 728.879 169.781 729.09H169.675Z" fill="#312F43"/>
<path d="M154.847 728.455L159.825 728.667H162.261C162.261 725.701 163.849 719.029 158.871 718.923C154.317 718.605 154.953 724.431 154.847 727.714C154.847 727.926 154.847 728.243 154.847 728.455Z" fill="#312F43"/>
<path d="M139.913 727.925L144.997 728.137H147.433C147.433 725.172 149.021 718.499 144.044 718.393C139.489 718.182 140.125 723.901 140.019 727.184C140.019 727.396 140.019 727.714 140.019 727.925H139.913Z" fill="#312F43"/>
<path d="M125.085 727.29L130.063 727.502H132.499C132.499 724.748 133.77 718.923 130.169 717.97C130.169 717.97 129.533 717.864 129.11 717.864C128.686 717.864 128.262 717.864 127.839 717.97C124.661 718.817 125.191 723.689 125.085 726.654C125.085 726.866 125.085 727.184 125.085 727.396V727.29Z" fill="#312F43"/>
<path d="M212.358 725.701L219.772 726.019C219.772 726.019 219.772 725.384 219.772 725.066C219.984 723.265 219.984 721.465 219.772 719.664C219.56 717.652 218.713 716.169 216.277 716.063C213.841 715.958 212.888 717.44 212.57 719.453C212.57 719.77 212.464 720.088 212.358 720.512C212.146 722.312 212.358 724.325 212.146 725.595L212.358 725.701Z" fill="#312F43"/>
<path d="M197.424 725.066L204.838 725.383C204.944 723.371 205.05 721.359 204.944 719.346C204.732 717.334 203.885 715.639 201.449 715.534C199.013 715.322 198.06 717.016 197.636 719.135C197.318 721.147 197.424 723.583 197.318 725.066H197.424Z" fill="#312F43"/>
<path d="M182.596 724.536H184.82L190.01 724.854C190.01 723.689 190.222 722.1 190.222 720.512C190.222 719.982 190.222 719.559 190.222 719.029C190.01 716.805 189.269 715.004 186.727 715.004C184.185 714.899 183.232 716.699 182.914 718.817C182.596 720.83 182.808 723.054 182.596 724.536Z" fill="#312F43"/>
<path d="M212.464 739.152L219.878 739.47C219.878 736.398 221.467 729.726 216.489 729.62C211.617 729.302 212.676 736.081 212.358 739.152H212.464Z" fill="#312F43"/>
<path d="M197.636 738.516L205.05 738.834C205.05 735.763 206.639 729.09 201.661 728.984C196.789 728.667 197.848 735.445 197.53 738.516H197.636Z" fill="#312F43"/>
<path d="M182.702 737.987L190.116 738.305C190.116 736.081 190.963 732.162 189.587 729.938C188.951 728.985 187.892 728.455 186.833 728.455C186.091 728.455 185.35 728.561 184.609 728.985C182.173 730.573 182.914 735.551 182.702 737.987Z" fill="#312F43"/>
<path d="M167.874 737.352L175.288 737.669C175.288 735.445 176.03 731.526 174.759 729.302C174.123 728.349 173.064 727.714 171.899 727.82C171.158 727.82 170.416 727.925 169.675 728.349C167.239 729.938 167.98 734.916 167.768 737.352H167.874Z" fill="#312F43"/>
<path d="M152.94 736.716L160.354 737.034C160.354 734.81 161.202 730.891 159.825 728.667C159.189 727.714 158.13 727.078 157.071 727.184C156.33 727.184 155.588 727.29 154.847 727.714C152.411 729.303 153.152 734.28 152.94 736.716Z" fill="#312F43"/>
<path d="M138.006 736.187L145.42 736.504C145.42 734.28 146.162 730.361 144.891 728.137C144.255 727.184 143.196 726.549 142.031 726.655C141.29 726.655 140.548 726.761 139.807 727.184C137.371 728.773 138.112 733.751 137.9 736.187H138.006Z" fill="#312F43"/>
<path d="M123.178 735.551L130.592 735.869C130.592 733.645 131.334 729.726 130.063 727.502C129.427 726.549 128.368 725.913 127.309 726.019C126.568 726.019 125.826 726.125 125.085 726.549C122.649 728.137 123.39 733.115 123.178 735.551Z" fill="#312F43"/>
</g>
<defs>
<clipPath id="clip0_793_444">
<rect width="1558" height="1704" fill="white"/>
</clipPath>
</defs>
</svg>
