<?xml version="1.0" encoding="UTF-8"?>
<svg xmlns="http://www.w3.org/2000/svg" viewBox="0 0 10.65 18.18">
  <g id="Calque_1" data-name="Calque 1"/>
  <g id="Calque_2" data-name="Calque 2">
    <g id="Calque_1-2" data-name="Calque 1">
      <g>
        <path d="M9.34,0c.26,.1,.52,.17,.74,.35,.35,.3,.54,.68,.57,1.13,0,.05,0,.11,0,.16,0,4.96,0,9.92,0,14.87,0,.68-.28,1.18-.89,1.49-.22,.11-.46,.16-.7,.16-2.49,0-4.98,0-7.47,0-.93,0-1.59-.69-1.59-1.63,0-1.59,0-3.18,0-4.77,0-3.37,0-6.73,0-10.1C0,.98,.28,.47,.89,.16,1.03,.09,1.17,.05,1.32,0H9.34ZM5.33,17.54c1.28,0,2.56,0,3.83,0,.12,0,.23-.04,.34-.09,.39-.2,.52-.54,.52-.97,0-4.75,0-9.5,0-14.25,0-.21,0-.43,0-.64-.01-.57-.39-.95-.97-.95-.32,0-.64,0-.96,0-.1,0-.16,.03-.23,.1-.33,.33-.66,.66-.99,.99-.11,.11-.23,.16-.39,.16-.77,0-1.54,0-2.31,0-.16,0-.28-.05-.39-.16-.21-.21-.44-.4-.62-.63-.29-.37-.64-.53-1.12-.46-.22,.03-.45-.02-.67,.02-.4,.09-.74,.43-.74,1.02,0,4.94,0,9.88,0,14.82,0,.06,0,.12,0,.18,.03,.49,.43,.86,.92,.86,.07,0,.14,.01,.21,.01,1.1,0,2.19,0,3.29,0,.09,0,.18,0,.26-.01ZM7.06,.65H3.59c.2,.19,.37,.36,.54,.53,.05,.05,.1,.07,.17,.07,.68,0,1.36,0,2.04,0,.07,0,.12-.01,.17-.07,.17-.17,.34-.34,.54-.53Z" style="fill: #3e72a9;"/>
        <path d="M5.33,14.93c-.42,0-.84,0-1.25,0-.84,0-1.67,0-2.51,0-.25-.08-.31-.16-.31-.42,0-1.19,0-2.38,0-3.57,0-.26,.07-.35,.32-.42h3.76c.25,.07,.32,.15,.32,.41,0,1.19,0,2.38,0,3.57,0,.26-.06,.33-.31,.42Zm-3.44-2.84c0,.7,0,1.39,0,2.09,0,.09,.03,.11,.11,.11,.97,0,1.94,0,2.91,0,.08,0,.11-.02,.11-.11,0-.7,0-1.39,0-2.09,0-.27,0-.54,0-.82,0-.08,0-.12-.1-.12-.98,0-1.95,0-2.93,0-.1,0-.1,.04-.1,.12,0,.27,0,.54,0,.82Z" style="fill: #3e72a9;"/>
        <path d="M5.33,5.52c.23,.05,.31,.14,.31,.38,0,1.21,0,2.42,0,3.63,0,.23-.08,.32-.31,.38-.06,0-.13-.01-.19-.01-1.13,0-2.26,0-3.39,0-.06,0-.13,0-.19,.01-.23-.06-.31-.15-.31-.38,0-1.21,0-2.42,0-3.63,0-.23,.08-.33,.31-.38h3.76Zm-.32,1.57c0-.28,0-.56,0-.83,0-.08-.03-.1-.1-.1-.98,0-1.95,0-2.93,0-.08,0-.1,.02-.1,.1,0,.28,0,.56,0,.83,0,.7,0,1.39,0,2.09,0,.09,.03,.11,.11,.11,.97,0,1.94,0,2.91,0,.08,0,.11-.03,.11-.11,0-.7,0-1.39,0-2.09Z" style="fill: #3e72a9;"/>
        <path d="M7.85,5.52c.39,0,.78,0,1.17,0,.24,0,.38,.11,.39,.3,0,.19-.14,.33-.38,.33-.79,0-1.58,0-2.38,0-.23,0-.37-.13-.37-.32,0-.19,.14-.31,.39-.31,.4,0,.79,0,1.19,0Z" style="fill: #3e72a9;"/>
        <path d="M7.84,10.53c.39,0,.78,0,1.17,0,.24,0,.39,.12,.39,.32,0,.19-.15,.32-.39,.32-.79,0-1.57,0-2.36,0-.24,0-.39-.13-.38-.33,0-.19,.15-.31,.38-.31,.4,0,.79,0,1.19,0Z" style="fill: #3e72a9;"/>
        <path d="M7.83,7.4c-.39,0-.78,0-1.17,0-.24,0-.39-.12-.39-.32,0-.19,.15-.32,.39-.32,.79,0,1.57,0,2.36,0,.24,0,.39,.13,.38,.32,0,.19-.15,.31-.38,.31-.4,0-.79,0-1.19,0Z" style="fill: #3e72a9;"/>
        <path d="M7.83,12.41c-.4,0-.79,0-1.19,0-.23,0-.37-.12-.37-.31,0-.18,.14-.32,.36-.32,.8,0,1.61,0,2.41,0,.23,0,.37,.14,.37,.33,0,.19-.15,.3-.38,.3-.4,0-.79,0-1.19,0Z" style="fill: #3e72a9;"/>
        <path d="M7.19,8.65c-.19,0-.39,0-.58,0-.2,0-.32-.12-.34-.29-.01-.17,.11-.32,.3-.33,.42-.01,.85-.01,1.27,0,.2,0,.31,.15,.3,.33,0,.18-.13,.29-.33,.29-.21,0-.41,0-.62,0Z" style="fill: #3e72a9;"/>
        <path d="M7.21,13.04c.19,0,.39,0,.58,0,.22,0,.35,.13,.35,.31,0,.18-.13,.31-.34,.31-.4,0-.8,0-1.2,0-.2,0-.34-.14-.34-.31,0-.18,.13-.3,.34-.31,.01,0,.02,0,.04,0,.19,0,.38,0,.57,0Z" style="fill: #3e72a9;"/>
      </g>
    </g>
  </g>
</svg>