<?xml version="1.0" encoding="UTF-8"?>
<svg xmlns="http://www.w3.org/2000/svg" viewBox="0 0 13.12 18.12">
  <g id="Calque_1" data-name="Calque 1"/>
  <g id="Calque_2" data-name="Calque 2">
    <g id="Calque_1-2" data-name="Calque 1">
      <path d="M.34,15.04c-.31-.43-.42-.9-.27-1.42,.16-.53,.51-.88,1.03-1.05,.12-.04,.15-.08,.15-.2,0-.96,0-1.91,0-2.87,0-.12-.03-.17-.15-.2C.44,9.1-.03,8.44,0,7.76c.04-.76,.54-1.34,1.26-1.47,.13-.02,.24-.07,.35-.15,1.08-.72,2.15-1.44,3.23-2.16,.11-.07,.17-.15,.2-.29,.14-.55,.47-.94,1.02-1.12,.14-.05,.17-.11,.17-.24,0-.63,0-1.26,0-1.89,0-.19,.05-.34,.21-.45h.21c.16,.11,.22,.26,.21,.45,0,.64,0,1.27,0,1.91,0,.12,.02,.18,.15,.22,.58,.18,.92,.59,1.05,1.17,.02,.09,.06,.15,.13,.2,1.13,.75,2.26,1.5,3.38,2.25,.09,.06,.19,.07,.28,.09,.65,.12,1.18,.71,1.24,1.33,.08,.82-.43,1.46-1.04,1.66-.16,.05-.2,.11-.2,.28,0,.94,0,1.88,0,2.81,0,.12,.03,.17,.15,.2,.75,.22,1.23,1.01,1.08,1.78-.15,.77-.85,1.31-1.64,1.26-.65-.04-1.2-.47-1.38-1.1-.03-.11-.08-.14-.19-.14-.67,0-1.34,0-2.02,0-.78,0-1.35-.44-1.56-1.19-.04-.16-.05-.32-.05-.49,0-1.46,0-2.93,0-4.39,0-.15-.04-.18-.18-.18-.94,0-1.88,0-2.81,0-.12,0-.17,.04-.2,.15-.17,.51-.51,.85-1.02,1.02-.12,.04-.15,.09-.15,.21,0,.96,0,1.91,0,2.87,0,.09,0,.16,.12,.2,1.09,.35,1.46,1.54,.78,2.47-.22,.25-.49,.43-.82,.52-.06,.02-.09,.04-.09,.11,.01,.28-.02,.56,.02,.84,0,.38,0,.76,0,1.14,0,.05,0,.11,0,.16-.03,.19-.16,.31-.32,.31-.18,0-.3-.14-.3-.34,0-.36,0-.72,0-1.07,0-.06,0-.13,0-.19,0-.28,0-.55,0-.83,0-.06,0-.1-.08-.11-.34-.08-.6-.28-.84-.53ZM5.7,4.4c.13,.36,.47,.59,.86,.59,.4,0,.74-.23,.86-.59,.15-.42,.03-.83-.31-1.09-.33-.25-.78-.25-1.11,0-.34,.25-.45,.66-.31,1.09ZM2.42,14.4c.14-.33,.08-.64-.13-.91-.28-.37-.77-.46-1.17-.25-.42,.22-.58,.67-.43,1.16,.02,.05,.04,.1,.07,.14,.2,.31,.49,.48,.86,.45,.38-.03,.68-.21,.81-.6ZM7.79,5.03s-.09,.09-.14,.14c-.36,.35-.78,.49-1.28,.44-.43-.05-.75-.27-1.03-.57-.1-.13-.17-.28-.24-.43-.01,0-.02,0-.02,0-.89,.59-1.78,1.19-2.68,1.78-.1,.06-.05,.09,.02,.13,.32,.21,.55,.5,.65,.87,.02,.09,.06,.12,.16,.12,2.23,0,4.46,0,6.69,0,.09,0,.13-.03,.16-.12,.1-.36,.31-.65,.62-.85,.12-.08,.11-.11,0-.18-.78-.51-1.55-1.03-2.32-1.55-.11-.07-.21-.14-.33-.22-.07,.16-.15,.31-.25,.44Zm-.91,5.52c0,.73,0,1.45,0,2.18,0,.62,.38,1.01,.99,1.01,.67,0,1.34,0,2.02,0,.11,0,.15-.03,.18-.13,.16-.53,.51-.88,1.04-1.04,.11-.03,.13-.08,.13-.18,0-.97,0-1.93,0-2.9,0-.12-.05-.15-.15-.19-.51-.17-.85-.51-1.02-1.02-.04-.12-.08-.15-.2-.15-.94,0-1.89,0-2.83,0-.13,0-.17,.03-.17,.16,0,.75,0,1.51,0,2.26ZM2.49,7.82c0-.51-.41-.93-.92-.94-.5,0-.93,.42-.94,.93,0,.51,.42,.94,.93,.94,.51,0,.94-.41,.94-.93Zm8.13,0c0,.51,.42,.93,.94,.93,.51,0,.94-.43,.93-.94,0-.51-.44-.94-.94-.93-.51,0-.93,.43-.93,.94Zm0,6.25c0,.51,.43,.94,.94,.93,.51,0,.94-.43,.93-.94,0-.51-.43-.93-.94-.93-.51,0-.93,.42-.93,.94Z" style="fill: #3e72a9;"/>
    </g>
  </g>
</svg>