<?xml version="1.0" standalone="no"?>
<!DOCTYPE svg PUBLIC "-//W3C//DTD SVG 1.1//EN" "http://www.w3.org/Graphics/SVG/1.1/DTD/svg11.dtd" >
<svg xmlns="http://www.w3.org/2000/svg" xmlns:xlink="http://www.w3.org/1999/xlink" version="1.1">
<metadata></metadata>
<defs>
<font id="kuroregular" horiz-adv-x="456" >
<font-face units-per-em="2048" ascent="1536" descent="-512" />
<missing-glyph horiz-adv-x="526" />
<glyph horiz-adv-x="0" />
<glyph horiz-adv-x="682" />
<glyph unicode=" "  horiz-adv-x="526" />
<glyph unicode="&#x09;" horiz-adv-x="526" />
<glyph unicode="&#xa0;" horiz-adv-x="526" />
<glyph unicode="!" horiz-adv-x="534" d="M197 0v166h141v-166h-141zM197 313v1123h139v-1123h-139z" />
<glyph unicode="&#x22;" horiz-adv-x="706" d="M125 1536h133l-14 -473h-107zM449 1536h133l-13 -473h-106z" />
<glyph unicode="#" horiz-adv-x="1470" d="M33 385v119h323l62 428h-309v119h325l58 403h118l-57 -403h461l57 403h119l-57 -403h305l-2 -119h-320l-61 -428h307l-2 -119h-324l-53 -383h-119l56 383h-463l-54 -383h-118l55 383h-307zM475 504h461l61 428h-460z" />
<glyph unicode="$" horiz-adv-x="1140" d="M119 23l14 135q229 -65 410 -52q165 0 251.5 56t86.5 162q0 143 -158 237l-330 193q-151 97 -205.5 173t-54.5 191q0 157 108 244t314 98l-4 236h115l-2 -234q156 -3 325 -24l-16 -133q-209 38 -355 24q-169 0 -255.5 -53t-86.5 -156q0 -76 40 -125t169 -131l320 -190 q221 -131 221 -346q0 -148 -96.5 -237t-278.5 -109l4 -230h-116l4 223h-2q-185 0 -422 48z" />
<glyph unicode="%" horiz-adv-x="1603" d="M115 1090q0 183 68.5 271.5t209.5 88.5q143 0 212 -88.5t69 -271.5q0 -359 -281 -359q-278 0 -278 359zM225 1090q0 -133 41 -196t127 -63q88 0 129 62.5t41 196.5q0 136 -41 199t-129 63q-87 0 -127.5 -63t-40.5 -199zM453 0l614 1438h102l-608 -1438h-108zM934 344 q0 361 278 361q144 0 213.5 -89t69.5 -272q0 -181 -69.5 -269.5t-213.5 -88.5q-278 0 -278 358zM1044 344q0 -133 41 -195.5t127 -62.5q89 0 130.5 62t41.5 196q0 136 -41.5 199t-130.5 63q-87 0 -127.5 -63t-40.5 -199z" />
<glyph unicode="&#x26;" horiz-adv-x="1347" d="M102 379q0 118 57.5 202t194.5 158q-121 176 -121 340q0 148 102.5 239t278.5 91q165 0 263 -88t98 -236q0 -120 -84 -198.5t-301 -165.5q-6 -2 -20 -7.5t-21 -8.5q136 -154 383 -345q65 142 88 318l131 -4q-38 -227 -121 -387q125 -92 301 -209l-67 -103 q-192 127 -301 205q-154 -205 -402 -205q-208 0 -333.5 108.5t-125.5 295.5zM240 373q0 -133 88 -211t231 -78q182 0 307 166q-292 219 -440 395q-104 -58 -145 -119t-41 -153zM369 1077q0 -134 104 -278q6 3 18.5 8t18.5 8q206 85 272 139t66 140q0 92 -63 150.5t-164 58.5 q-116 0 -184 -63.5t-68 -162.5z" />
<glyph unicode="'" horiz-adv-x="380" d="M125 1536h133l-14 -473h-107z" />
<glyph unicode="(" horiz-adv-x="622" d="M178 645q0 301 73.5 542t207.5 374l100 -33q-114 -148 -177 -379t-63 -504q0 -274 62.5 -501.5t177.5 -376.5l-100 -37q-134 133 -207.5 373t-73.5 542z" />
<glyph unicode=")" horiz-adv-x="624" d="M66 -233q114 148 176.5 376t62.5 502t-62.5 504.5t-176.5 378.5l100 33q134 -133 207 -374t73 -542q0 -302 -73 -542t-207 -373z" />
<glyph unicode="*" horiz-adv-x="761" d="M133 1221l29 92l174 -60l-2 183h96l-4 -183l176 60l27 -92l-174 -56l110 -145l-78 -57l-106 149l-107 -149l-75 57l108 145z" />
<glyph unicode="+" horiz-adv-x="1118" d="M119 506v119h370v383h140v-383h372v-119h-372v-381h-140v381h-370z" />
<glyph unicode="," horiz-adv-x="440" d="M88 -170q35 59 54.5 166.5t19.5 206.5h145q0 -109 -39.5 -232t-105.5 -192z" />
<glyph unicode="-" horiz-adv-x="741" d="M59 500v100h623v-100h-623z" />
<glyph unicode="." horiz-adv-x="440" d="M147 0v203h146v-203h-146z" />
<glyph unicode="/" horiz-adv-x="886" d="M76 0l594 1436h141l-592 -1436h-143z" />
<glyph unicode="0" horiz-adv-x="1335" d="M117 717q0 375 137 560t414 185t414 -185t137 -560q0 -742 -551 -742t-551 742zM260 717q0 -308 101.5 -458t306.5 -150t306 150t101 458q0 310 -101 461t-306 151t-306.5 -151.5t-101.5 -460.5z" />
<glyph unicode="1" horiz-adv-x="845" d="M53 1184l430 252h113v-1436h-139v1286l-353 -209z" />
<glyph unicode="2" horiz-adv-x="1187" d="M121 0v256q0 37 6.5 73.5t21.5 77t45.5 76.5t73.5 60l432 258q120 75 165 133t44 156q0 135 -77.5 187.5t-286.5 53.5q-181 0 -400 -37l-16 129q230 39 418 39q191 -1 301 -38.5t157.5 -115t47.5 -210.5q0 -144 -58.5 -227t-212.5 -175l-426 -254q-96 -59 -96 -186v-125 h811v-131h-950z" />
<glyph unicode="3" horiz-adv-x="1165" d="M49 25l23 131q261 -50 473 -50q185 0 272.5 67.5t87.5 207.5q0 142 -81 206t-249 64h-307v131h305q295 0 295 299q0 129 -81.5 189.5t-254.5 60.5q-200 0 -430 -47l-24 127q256 51 461 51q241 0 355 -89t114 -275q0 -145 -47.5 -239.5t-135.5 -133.5q107 -32 164.5 -118 t57.5 -228q0 -207 -121 -305.5t-377 -98.5q-234 0 -500 50z" />
<glyph unicode="4" horiz-adv-x="1267" d="M96 262v107l504 1069h154l-484 -1045h580v344h139v-344h201v-131h-201v-262h-139v262h-754z" />
<glyph unicode="5" horiz-adv-x="1191" d="M104 35l23 129q244 -58 469 -58q164 0 254 87.5t90 240.5q0 301 -336 301q-91 0 -205 -20.5t-178 -46.5l-94 55v715h858v-131h-719v-490q219 54 373 51q438 -9 438 -440q0 -212 -120.5 -332.5t-344.5 -120.5q-244 0 -508 60z" />
<glyph unicode="6" horiz-adv-x="1251" d="M117 692q-3 770 565 770q172 0 387 -41l-20 -133q-194 43 -355 43q-98 0 -171 -26t-129 -85t-88.5 -159.5t-43.5 -245.5q200 82 404 82q233 0 351 -110.5t118 -327.5q0 -221 -125 -352.5t-363 -131.5q-271 0 -399.5 179t-130.5 538zM258 672q2 -290 94.5 -428t290.5 -138 q174 0 261 92t87 261q0 158 -80.5 232.5t-248.5 74.5q-191 0 -404 -90v-4z" />
<glyph unicode="7" horiz-adv-x="1056" d="M55 1307v131h942v-86q-245 -294 -368.5 -643t-132.5 -709h-140q10 350 119.5 688.5t327.5 618.5h-748z" />
<glyph unicode="8" horiz-adv-x="1304" d="M117 391q0 133 66.5 228t191.5 139q-107 37 -164 122.5t-57 211.5q0 174 131 272t368 98q236 0 367 -98t131 -272q0 -126 -57 -211.5t-164 -122.5q125 -44 191.5 -139t66.5 -228q0 -194 -141.5 -305t-393.5 -111q-254 0 -395 110.5t-141 305.5zM258 393 q0 -136 104 -212.5t289 -76.5t289 76.5t104 212.5q0 139 -104 218t-289 79t-289 -79t-104 -218zM297 1085q0 -127 94 -197.5t260 -70.5q168 0 262.5 70.5t94.5 197.5q0 115 -95 180.5t-262 65.5q-166 0 -260 -65.5t-94 -180.5z" />
<glyph unicode="9" horiz-adv-x="1251" d="M117 979q0 220 125 351.5t364 131.5q269 0 398 -179.5t131 -539.5q3 -768 -566 -768q-188 0 -387 41l21 131q199 -41 354 -41q200 0 306.5 117t125.5 398q-200 -82 -403 -82q-233 0 -351 111t-118 329zM260 979q0 -159 81 -234t249 -75q198 0 403 92v2q0 292 -92.5 429.5 t-292.5 137.5q-173 0 -260.5 -92t-87.5 -260z" />
<glyph unicode=":" horiz-adv-x="440" d="M147 0v203h146v-203h-146zM147 723v201h146v-201h-146z" />
<glyph unicode=";" horiz-adv-x="440" d="M88 -170q35 59 54.5 166.5t19.5 206.5h145q0 -109 -39.5 -232t-105.5 -192zM147 723v201h146v-201h-146z" />
<glyph unicode="&#x3c;" horiz-adv-x="997" d="M45 483v156l829 362v-141l-718 -297l718 -299v-139z" />
<glyph unicode="=" horiz-adv-x="1122" d="M121 272v119h880v-119h-880zM121 741v117h880v-117h-880z" />
<glyph unicode="&#x3e;" horiz-adv-x="997" d="M123 125v139l719 297l-719 299v141l829 -362v-156z" />
<glyph unicode="?" horiz-adv-x="991" d="M55 1386q242 74 412 74q208 0 336.5 -92.5t128.5 -257.5q0 -63 -17.5 -118t-51.5 -100t-68.5 -77.5t-83.5 -69.5q-12 -9 -52.5 -39.5t-55.5 -42.5t-44.5 -40t-41.5 -47.5t-23 -47.5t-11 -57v-158h-139v164q0 44 14 84.5t34.5 72t57 67t66.5 59.5t78 59q96 71 145 137.5 t49 157.5q0 111 -88 172.5t-239 61.5q-87 0 -163.5 -15t-213.5 -55zM342 0v166h141v-166h-141z" />
<glyph unicode="@" horiz-adv-x="1613" d="M135 545q0 355 175.5 539t502.5 184q326 0 496 -176t170 -492q0 -209 -74.5 -317.5t-210.5 -108.5q-65 0 -141 31q-147 -39 -265 -39q-133 0 -212.5 51.5t-79.5 161.5q0 208 243 227l228 19v47q0 82 -39 116.5t-127 34.5q-65 0 -236 -18l-16 98q193 21 266 21 q152 0 218.5 -63.5t66.5 -180.5v-401q46 -15 82 -15q88 0 137 83t49 247q0 280 -140 428.5t-417 148.5q-278 0 -421.5 -156.5t-143.5 -469.5q0 -322 151.5 -481.5t442.5 -159.5q213 0 389 88l53 -82q-186 -100 -442 -100q-337 0 -521 186t-184 549zM627 387q0 -65 46 -98 t126 -33q59 0 168 31v250l-197 -15q-143 -11 -143 -135z" />
<glyph unicode="A" horiz-adv-x="1378" d="M61 0l482 1436h293l481 -1436h-146l-133 397h-698l-133 -397h-146zM387 539h604l-262 784h-80z" />
<glyph unicode="B" horiz-adv-x="1316" d="M170 0v1438h543q221 0 327.5 -88t106.5 -273q0 -131 -51.5 -217.5t-139.5 -118.5q113 -24 182.5 -111t69.5 -245q0 -208 -113.5 -296.5t-328.5 -88.5h-596zM311 135h439q166 0 238.5 59.5t72.5 202.5q0 146 -79 206.5t-271 60.5h-400v-529zM311 799h432q129 0 195 71.5 t66 200.5q0 125 -70 178.5t-232 53.5h-391v-504z" />
<glyph unicode="C" horiz-adv-x="1226" d="M113 715q0 204 37.5 347t116 231.5t192 128.5t272.5 40q98 0 210.5 -12.5t176.5 -30.5l-12 -139q-183 39 -363 39q-256 0 -368.5 -139.5t-112.5 -464.5q0 -327 110 -461.5t371 -134.5q190 0 363 39l10 -138q-181 -45 -383 -45q-325 0 -472.5 171.5t-147.5 568.5z" />
<glyph unicode="D" horiz-adv-x="1409" d="M170 0v1436h524q299 0 450.5 -180.5t151.5 -538.5q0 -355 -151.5 -536t-450.5 -181h-524zM313 135h379q224 0 339.5 147.5t115.5 434.5q0 288 -115 435.5t-340 147.5h-379v-1165z" />
<glyph unicode="E" horiz-adv-x="1210" d="M168 0v1436h926v-136h-781v-514h635v-137h-635v-512h781v-137h-926z" />
<glyph unicode="F" horiz-adv-x="1153" d="M170 0v1436h926v-136h-783v-563h645v-135h-645v-602h-143z" />
<glyph unicode="G" horiz-adv-x="1378" d="M113 715q0 204 39 346.5t121 231.5t202 129t289 40q221 0 455 -57l-23 -135q-116 34 -212 48q-80 12 -176 12q-21 0 -42 -1q-278 0 -392 -141.5t-114 -476.5q0 -328 113.5 -465t376.5 -137q217 0 333 36v473h-309v130h451v-705q-207 -68 -473 -68q-343 0 -491 171 t-148 569z" />
<glyph unicode="H" horiz-adv-x="1458" d="M170 0v1436h143v-652h832v652h145v-1436h-145v649h-832v-649h-143z" />
<glyph unicode="I" horiz-adv-x="483" d="M170 0v1436h143v-1436h-143z" />
<glyph unicode="J" horiz-adv-x="516" d="M-53 -29q86 0 134 11t76.5 46t37 86t8.5 144v1180h143v-1180q0 -97 -10.5 -167t-32.5 -116.5t-54.5 -74.5t-77 -41.5t-100.5 -16.5h-45q-37 0 -79 2v127z" />
<glyph unicode="K" horiz-adv-x="1288" d="M170 0v1436h143v-658h252l471 658h170l-518 -715l555 -721h-176l-492 645h-262v-645h-143z" />
<glyph unicode="L" horiz-adv-x="1116" d="M170 0v1436h143v-1301h744v-135h-887z" />
<glyph unicode="M" horiz-adv-x="1671" d="M168 0v1436h254l414 -1250l415 1250h254v-1436h-139v1278h-20l-435 -1278h-151l-432 1278h-23v-1278h-137z" />
<glyph unicode="N" horiz-adv-x="1406" d="M170 0v1438h201l725 -1264v1264h143v-1438h-201l-727 1262v-1262h-141z" />
<glyph unicode="O" horiz-adv-x="1460" d="M113 717q0 372 156 558.5t460 186.5q619 0 619 -745q0 -370 -156.5 -556t-462.5 -186q-616 0 -616 742zM260 717q0 -306 116.5 -456t352.5 -150q238 0 354.5 150t116.5 456q0 307 -116.5 457.5t-354.5 150.5q-236 0 -352.5 -150.5t-116.5 -457.5z" />
<glyph unicode="P" horiz-adv-x="1318" d="M170 0v1436h582q248 0 369.5 -111t121.5 -344q0 -251 -122 -371.5t-369 -120.5h-439v-489h-143zM313 625h439q175 0 257.5 86.5t82.5 269.5q0 165 -82.5 242t-257.5 77h-439v-675z" />
<glyph unicode="Q" horiz-adv-x="1474" d="M113 717q0 372 156 558.5t460 186.5q619 0 619 -745q0 -457 -238 -633l188 -301l-114 -57l-183 297q-121 -48 -272 -48q-616 0 -616 742zM260 717q0 -306 116.5 -456t352.5 -150q238 0 354.5 150t116.5 456q0 307 -116.5 457.5t-354.5 150.5q-236 0 -352.5 -150.5 t-116.5 -457.5z" />
<glyph unicode="R" horiz-adv-x="1380" d="M168 0v1436h582q248 0 369.5 -105.5t121.5 -324.5q0 -175 -78.5 -282t-228.5 -144l336 -580h-152l-325 559h-43h-439v-559h-143zM311 690h439q175 0 258.5 79.5t83.5 236.5q0 150 -83 223.5t-259 73.5h-439v-613z" />
<glyph unicode="S" horiz-adv-x="1101" d="M100 23l15 135q190 -54 347 -54q31 0 62 2q164 0 251 56t87 162q0 143 -157 237l-330 193q-152 97 -206 172.5t-54 191.5q0 167 124 255.5t359 88.5q186 0 371 -24l-15 -133q-153 28 -272 28q-44 0 -82 -4q-169 0 -255.5 -53t-86.5 -156q0 -76 40 -125t169 -131l317 -190 q224 -133 224 -346q0 -169 -127 -261t-359 -92q-185 0 -422 48z" />
<glyph unicode="T" horiz-adv-x="1206" d="M29 1300v136h1149v-136h-502v-1300h-146v1300h-501z" />
<glyph unicode="U" horiz-adv-x="1392" d="M170 465v971h143v-965q0 -186 92.5 -273t290.5 -87q197 0 290 88t93 272v965h146v-971q0 -250 -130 -370t-399 -120t-397.5 120t-128.5 370z" />
<glyph unicode="V" horiz-adv-x="1312" d="M63 1436h148l424 -1321h41l428 1321h143l-463 -1436h-256z" />
<glyph unicode="W" horiz-adv-x="1773" d="M61 1436h148l276 -1309h35l283 1309h168l280 -1309h37l279 1309h145l-313 -1436h-252l-260 1227l-260 -1227h-252z" />
<glyph unicode="X" horiz-adv-x="1329" d="M63 1436h166l430 -607l437 607h168l-514 -717l514 -719h-170l-426 604l-432 -604h-170l512 713z" />
<glyph unicode="Y" horiz-adv-x="1259" d="M63 1436h154l412 -701l413 701h154l-494 -838v-598h-143v598z" />
<glyph unicode="Z" horiz-adv-x="1155" d="M61 -2v123l852 1179h-852v136h1033v-123l-852 -1180h852v-135h-1033z" />
<glyph unicode="[" horiz-adv-x="585" d="M201 -244v1780h450v-111h-317v-1560h317v-109h-450z" />
<glyph unicode="\" horiz-adv-x="897" d="M80 1436h143l594 -1436h-143z" />
<glyph unicode="]" horiz-adv-x="585" d="M-63 -135h315v1560h-315v111h448v-1780h-448v109z" />
<glyph unicode="^" horiz-adv-x="833" d="M74 721l260 715h164l262 -715h-129l-215 586l-211 -586h-131z" />
<glyph unicode="_" horiz-adv-x="1167" d="M115 -70h938v-96h-938v96z" />
<glyph unicode="`" horiz-adv-x="673" d="M174 1458l123 47l231 -327h-114z" />
<glyph unicode="a" horiz-adv-x="1046" d="M98 276q0 136 77.5 220t246.5 98l328 27v90q0 122 -57 174.5t-183 52.5q-95 0 -320 -27l-16 115q230 29 346 29q195 0 282 -85.5t87 -252.5v-672q-216 -78 -408 -78q-171 0 -277 78.5t-106 230.5zM233 281q0 -100 69 -150.5t187 -50.5q121 0 261 49v381l-301 -27 q-116 -9 -166 -61t-50 -141z" />
<glyph unicode="b" horiz-adv-x="1120" d="M160 23v1513h139v-543q145 60 309 60q214 0 312 -126t98 -392q0 -134 -23.5 -234t-75.5 -175t-140 -113t-212 -38q-207 0 -407 48zM299 109q122 -19 264 -19q90 0 152.5 31t97 91.5t49.5 137.5t15 182q0 206 -67.5 305t-225.5 99q-133 0 -285 -62v-765z" />
<glyph unicode="c" horiz-adv-x="923" d="M102 514q0 539 410 539q178 0 336 -41l-14 -117q-164 37 -289 37q-155 0 -228 -102t-73 -316t83.5 -316t258.5 -102q117 0 243 47l13 -118q-121 -50 -271 -50q-236 0 -352.5 130.5t-116.5 408.5z" />
<glyph unicode="d" horiz-adv-x="1120" d="M102 532q0 265 98.5 393t311.5 128q162 0 311 -60v543h140v-1513q-202 -48 -410 -48q-242 0 -346.5 141.5t-104.5 415.5zM244 532q0 -105 14.5 -182t49 -137.5t97 -91.5t152.5 -31q141 0 266 19v765q-156 62 -286 62q-158 0 -225.5 -99t-67.5 -305z" />
<glyph unicode="e" horiz-adv-x="1052" d="M102 514q0 279 110.5 410t344.5 131q209 1 305 -127q89 -118 89 -353q0 -20 -1 -40q0 -11 -1 -35t-1 -35h-704q7 -193 91 -280t251 -87q161 0 313 76l19 -115q-161 -84 -340 -84q-246 0 -361 130t-115 409zM244 582h573q0 189 -63 272.5t-199 83.5q-149 0 -224 -84 t-87 -272z" />
<glyph unicode="f" horiz-adv-x="598" d="M18 913v115h166v137q0 213 77 308.5t235 95.5q93 0 170 -25l-11 -108q-74 18 -135 18q-108 0 -152 -62.5t-44 -220.5v-143h256v-115h-256v-913h-140v913h-166z" />
<glyph unicode="g" horiz-adv-x="1120" d="M102 532q0 271 102.5 396t323.5 125q208 0 435 -43v-1012q0 -255 -96 -354t-339 -99q-161 0 -393 84l29 113q204 -82 362 -82q171 0 234 72.5t63 267.5v33q-144 -58 -301 -58q-218 0 -319 131.5t-101 425.5zM244 532q0 -238 67.5 -339t229.5 -101q140 0 282 68v755 q-160 23 -286 23q-154 0 -223.5 -96t-69.5 -310z" />
<glyph unicode="h" horiz-adv-x="1159" d="M160 0v1536h139v-530q151 47 281 47q224 0 321.5 -120t97.5 -390v-543h-139v539q0 206 -66.5 299.5t-218.5 93.5q-121 0 -276 -51v-881h-139z" />
<glyph unicode="i" d="M152 1196v168h155v-168h-155zM160 0v1028h139v-1028h-139z" />
<glyph unicode="j" horiz-adv-x="458" d="M-125 -430l14 104q60 -18 107 -18q92 0 128 72.5t36 273.5v1026h139v-1024q0 -253 -63.5 -356t-210.5 -103q-59 0 -150 25zM152 1196v168h155v-168h-155z" />
<glyph unicode="k" horiz-adv-x="1056" d="M160 0v1536h139v-901h184l369 393h174l-420 -442l416 -586h-166l-364 518h-193v-518h-139z" />
<glyph unicode="l" d="M160 0v1536h139v-1536h-139z" />
<glyph unicode="m" horiz-adv-x="1728" d="M160 0v971q206 82 385 82q182 0 278 -86q166 86 340 86q214 0 310 -120.5t96 -389.5v-543h-139v539q0 205 -62.5 299t-202.5 94q-138 0 -270 -66q55 -113 55 -323v-543h-139v539q0 206 -62 299.5t-202 93.5q-89 0 -248 -43v-889h-139z" />
<glyph unicode="n" horiz-adv-x="1159" d="M160 0v975q235 78 415 78q226 0 325 -120t99 -390v-543h-139v539q0 206 -66.5 299.5t-220.5 93.5q-102 0 -274 -43v-889h-139z" />
<glyph unicode="o" horiz-adv-x="1136" d="M102 514q0 539 467 539q465 0 465 -539t-465 -539q-467 0 -467 539zM244 514q0 -213 80.5 -317.5t244.5 -104.5q322 0 322 422t-322 422q-164 0 -244.5 -104.5t-80.5 -317.5z" />
<glyph unicode="p" horiz-adv-x="1120" d="M160 -430v1440q242 43 432 43q226 0 326 -126t100 -392q0 -280 -96.5 -420t-323.5 -140q-156 0 -299 56v-461h-139zM299 160q139 -68 281 -68q73 0 126 20.5t86 56t52 92.5t26 120.5t7 150.5q0 209 -67 307.5t-226 98.5q-101 0 -285 -23v-755z" />
<glyph unicode="q" horiz-adv-x="1120" d="M102 532q0 267 100.5 394t325.5 127q190 0 435 -43v-1440h-140v461q-146 -56 -301 -56q-228 0 -324 138.5t-96 418.5zM244 532q0 -87 7 -150.5t26 -120.5t52 -92.5t86 -56t126 -20.5q140 0 282 68v755q-153 23 -286 23q-159 0 -226 -98.5t-67 -307.5z" />
<glyph unicode="r" horiz-adv-x="708" d="M160 0v991q275 62 403 62q77 0 127 -13v-114q-52 8 -104 8q-131 0 -287 -35v-899h-139z" />
<glyph unicode="s" horiz-adv-x="825" d="M82 799q0 123 88.5 188.5t253.5 65.5t287 -29l-15 -115q-118 33 -266 33q-100 0 -156.5 -37.5t-56.5 -103.5q0 -46 30 -82t101 -72l207 -112q99 -54 144.5 -122.5t45.5 -166.5q0 -134 -92 -202.5t-270 -68.5q-126 0 -295 31l18 117q159 -33 265 -33q124 0 180.5 36 t56.5 116q0 65 -32 109.5t-107 84.5l-209 117q-94 51 -136 109.5t-42 136.5z" />
<glyph unicode="t" horiz-adv-x="655" d="M39 913v115h143v268h140v-268h272v-115h-272v-573q0 -67 3 -106.5t10.5 -69.5t24 -43t39 -19t60.5 -6q65 0 137 21l12 -115q-106 -27 -182 -27q-148 0 -196 73.5t-48 279.5v585h-143z" />
<glyph unicode="u" horiz-adv-x="1132" d="M160 485v543h139v-541q0 -209 54.5 -306t183.5 -97q131 0 297 51v893h139v-975q-229 -88 -434 -88q-203 0 -291 124t-88 396z" />
<glyph unicode="v" horiz-adv-x="987" d="M55 1028h144l284 -930h19l291 930h139l-334 -1028h-211z" />
<glyph unicode="w" horiz-adv-x="1566" d="M55 1028h144l239 -922h8l267 922h147l252 -922h8l254 922h137l-294 -1028h-203l-232 852l-237 -852h-201z" />
<glyph unicode="x" horiz-adv-x="1036" d="M55 1028h158l297 -414l293 414h155l-368 -516l391 -512h-156l-313 414l-295 -414h-158l369 516z" />
<glyph unicode="y" horiz-adv-x="985" d="M55 1028h142l280 -919h23l293 919h135l-467 -1458h-135l139 430h-80z" />
<glyph unicode="z" horiz-adv-x="966" d="M80 0v100l635 813h-631v115h803v-100l-633 -813h633v-115h-807z" />
<glyph unicode="{" horiz-adv-x="663" d="M41 604v82q116 29 165 72t56.5 115.5t-0.5 185.5q-9 107 -1 188.5t32 139t76.5 95t132 56.5t198.5 23l5 -109q-154 -8 -223.5 -50t-81 -127t0.5 -218q8 -115 2 -194.5t-55.5 -132t-159.5 -85.5q110 -33 160 -86t55.5 -131.5t-2.5 -191.5q-11 -133 0 -218.5t80.5 -128 t223.5 -49.5l-5 -110q-119 4 -198.5 23t-132 56.5t-76.5 95t-32 139t1 187.5q8 113 0.5 186t-57 116t-164.5 71z" />
<glyph unicode="|" horiz-adv-x="436" d="M147 -428v1964h142v-1964h-142z" />
<glyph unicode="}" horiz-adv-x="663" d="M-39 -160q153 7 221.5 49.5t79.5 128t0 218.5q-8 113 -2.5 191.5t55.5 131.5t160 86q-110 33 -159.5 85.5t-55.5 132t2 194.5q12 133 0.5 218t-80 127t-221.5 50l2 109q119 -4 198.5 -23t132 -56.5t76.5 -95t32 -139t-1 -188.5q-8 -113 -0.5 -185.5t57 -115.5t165.5 -72 v-82q-115 -28 -165 -71t-57.5 -116t0.5 -186q9 -106 1 -187.5t-32 -139t-76.5 -95t-132 -56.5t-198.5 -23z" />
<glyph unicode="~" horiz-adv-x="1122" d="M121 504v119q3 1 28 6.5t29.5 6.5t26.5 6t30 6.5t27 5t30 4.5t27.5 3t30.5 2.5t29 0.5q75 0 194.5 -41t194.5 -41q77 0 233 41v-119q-160 -41 -233 -41q-76 0 -195 41t-194 41q-105 0 -258 -41z" />
<glyph unicode="&#xa1;" horiz-adv-x="534" d="M197 -408v1125h139v-1125h-139zM197 862v166h141v-166h-141z" />
<glyph unicode="&#xa2;" horiz-adv-x="944" d="M102 514q0 523 383 539l-2 225h115l-2 -227q137 -10 252 -39l-14 -117q-164 37 -289 37q-155 0 -228 -102t-73 -316t83.5 -316t258.5 -102q117 0 243 47l13 -118q-118 -47 -258 -50l2 -223h-115l2 230q-187 25 -279 154.5t-92 377.5z" />
<glyph unicode="&#xa3;" horiz-adv-x="1200" d="M115 0v80q92 9 123.5 67t31.5 189v260h-153v111h153v243q0 267 101.5 388.5t320.5 121.5q187 0 365 -45l-35 -127q-144 41 -305 41q-158 0 -231.5 -87t-73.5 -288v-247h495v-111h-495v-221q-3 -195 -60 -240h684v-135h-921z" />
<glyph unicode="&#xa4;" horiz-adv-x="1173" d="M109 207l145 203q-96 129 -96 350t96 350l-145 203l96 63l131 -190q98 67 250 67q151 0 252 -67l131 190l96 -63l-147 -203q96 -129 96 -350t-96 -350l147 -203l-96 -62l-131 189q-103 -68 -252 -68q-150 0 -250 68l-131 -189zM301 760q0 -186 75 -280.5t210 -94.5 q134 0 209 94.5t75 280.5t-75 281.5t-209 95.5q-135 0 -210 -95t-75 -282z" />
<glyph unicode="&#xa5;" horiz-adv-x="1216" d="M45 1436h150l413 -701l414 701h149l-464 -787h364v-106h-391v-203h391v-104h-391v-236h-141v236h-394v104h394v203h-394v106h367z" />
<glyph unicode="&#xa6;" horiz-adv-x="436" d="M147 -430v887h142v-887h-142zM147 649v887h142v-887h-142z" />
<glyph unicode="&#xa7;" horiz-adv-x="1011" d="M82 -406l18 123q213 -49 385 -49q303 0 303 201q0 77 -40 129t-115 94l-268 141q-144 76 -205.5 157t-61.5 194q0 187 168 266q-83 59 -123.5 128t-40.5 161q0 160 121 241.5t352 81.5q135 0 318 -26l-21 -123q-197 26 -299 26q-327 0 -327 -204q0 -72 45 -127.5 t155 -114.5l263 -139q223 -112 223 -334q0 -183 -158 -264q154 -114 154 -289q0 -84 -33.5 -147t-95 -101t-140.5 -56t-176 -18q-175 0 -401 49zM242 586q0 -45 12 -78.5t42.5 -62.5t62 -50t90.5 -53l200 -111q73 20 108.5 64t35.5 117q0 27 -4.5 51t-13 43.5t-18 36 t-23.5 30t-24.5 23t-25 18.5t-22 13t-19 10t-12.5 6l-236 131q-80 -23 -116.5 -69t-36.5 -119z" />
<glyph unicode="&#xa8;" horiz-adv-x="792" d="M152 1198v158h141v-158h-141zM502 1198v158h141v-158h-141z" />
<glyph unicode="&#xa9;" horiz-adv-x="1605" d="M119 717q0 745 684 745t684 -745q0 -742 -684 -742t-684 742zM229 717q0 -328 141.5 -487.5t432.5 -159.5q289 0 431 160.5t142 486.5q0 330 -141.5 489.5t-431.5 159.5q-291 0 -432.5 -159t-141.5 -490zM449 717q0 244 86.5 343t291.5 99q138 0 232 -24l-19 -99 q-108 23 -211 23q-141 0 -200.5 -79.5t-59.5 -264.5q0 -180 61.5 -257t200.5 -77q100 0 209 25l19 -101q-126 -29 -234 -29q-202 0 -289 101.5t-87 339.5z" />
<glyph unicode="&#xaa;" horiz-adv-x="555" d="M68 1077q0 146 170 160l145 14v31q0 58 -24 80t-85 22q-66 0 -159 -14l-13 80q122 14 187 14q108 0 154 -45.5t46 -130.5v-327q-122 -39 -219 -39q-202 0 -202 155zM168 1083q0 -45 29.5 -67.5t81.5 -22.5q42 0 104 19v168l-121 -13q-51 -4 -72.5 -25t-21.5 -59z" />
<glyph unicode="&#xab;" horiz-adv-x="1134" d="M96 451v112l482 301l4 -129l-383 -229l383 -225l-4 -131zM535 451v112l481 301l4 -129l-383 -229l383 -225l-4 -131z" />
<glyph unicode="&#xac;" horiz-adv-x="1122" d="M121 506v119h880v-119v-381h-139v381h-741z" />
<glyph unicode="&#xad;" horiz-adv-x="1228" d="M59 500v100h623v-100h-623z" />
<glyph unicode="&#xae;" horiz-adv-x="1605" d="M119 717q0 745 684 745t684 -745q0 -742 -684 -742t-684 742zM229 717q0 -328 141.5 -487.5t432.5 -159.5q289 0 431 160.5t142 486.5q0 330 -141.5 489.5t-431.5 159.5q-291 0 -432.5 -159t-141.5 -490zM492 293v852h344q305 0 305 -268q0 -200 -172 -252l192 -332h-114 l-181 315q-10 -2 -30 -2h-236v-313h-108zM600 694h236q190 0 190 185q0 86 -46.5 128t-143.5 42h-236v-355z" />
<glyph unicode="&#xaf;" horiz-adv-x="888" d="M147 1233v102h596v-102h-596z" />
<glyph unicode="&#xb0;" horiz-adv-x="692" d="M57 1198q0 118 80 191t211 73q129 0 208 -72.5t79 -191.5q0 -117 -79 -188.5t-208 -71.5q-131 0 -211 71.5t-80 188.5zM170 1198q0 -74 48.5 -120t129.5 -46q78 0 127 46t49 120q0 75 -49 121.5t-127 46.5q-81 0 -129.5 -46t-48.5 -122z" />
<glyph unicode="&#xb1;" horiz-adv-x="1118" d="M119 0v119h882v-119h-882zM119 610v117h370v350h140v-350h372v-117h-372v-350h-140v350h-370z" />
<glyph unicode="&#xb2;" horiz-adv-x="628" d="M78 844v133q0 117 80 156l198 108q46 27 64 51t18 62q0 56 -30.5 77t-112.5 21q-72 0 -178 -20l-8 96q118 20 186 20q144 0 198 -42t54 -146q0 -71 -28 -112.5t-99 -78.5l-195 -104q-37 -22 -37 -76v-49h361v-96h-471z" />
<glyph unicode="&#xb3;" horiz-adv-x="628" d="M74 856l14 94q120 -24 215 -24q75 0 110.5 26.5t35.5 83.5q0 58 -31.5 84.5t-100.5 26.5h-143v88h145q58 0 85.5 26.5t27.5 88.5q0 55 -32.5 78.5t-106.5 23.5q-78 0 -191 -20l-18 92q112 24 219 24q123 0 180.5 -43t57.5 -135q0 -121 -74 -176q90 -41 90 -164 q0 -103 -60.5 -152t-189.5 -49q-98 0 -233 27z" />
<glyph unicode="&#xb4;" horiz-adv-x="673" d="M115 1178l231 327l123 -47l-240 -280h-114z" />
<glyph unicode="&#xb5;" horiz-adv-x="1181" d="M160 -430v1458h139v-541q0 -207 52 -300t173 -93q118 0 305 56q-12 61 -12 190v688h139v-682q0 -108 6.5 -161.5t22 -74t47.5 -20.5q56 0 121 21l12 -109q-91 -27 -153 -27q-102 0 -146 66q-195 -66 -338 -66q-160 0 -241 93l22 -498h-149z" />
<glyph unicode="&#xb6;" horiz-adv-x="1132" d="M59 1075q0 204 101.5 295.5t331.5 91.5q201 0 448 -51v-1411h-125v1321q-157 23 -248 27v-1348h-125v659q-215 9 -299 104t-84 312z" />
<glyph unicode="&#xb7;" horiz-adv-x="378" d="M117 635v203h145v-203h-145z" />
<glyph unicode="&#xb8;" horiz-adv-x="348" d="M63 -389l115 266h111l-90 -266h-136z" />
<glyph unicode="&#xb9;" horiz-adv-x="630" d="M100 1386l289 150h80v-692h-109v571l-221 -115z" />
<glyph unicode="&#xba;" horiz-adv-x="616" d="M66 1194q0 270 245 270q244 0 244 -270q0 -272 -244 -272q-245 0 -245 272zM176 1194q0 -97 33 -143.5t102 -46.5q135 0 135 190t-135 190q-69 0 -102 -46.5t-33 -143.5z" />
<glyph unicode="&#xbb;" horiz-adv-x="1134" d="M96 281l383 225l-383 229l4 129l482 -301v-112l-482 -301zM535 281l383 225l-383 229l2 129l483 -301v-112l-483 -301z" />
<glyph unicode="&#xbc;" horiz-adv-x="1636" d="M100 1288l289 150h80v-693h-109v572l-221 -115zM459 0l612 1438h103l-609 -1438h-106zM1053 119v84l209 489h112l-198 -479h227v162h98v-162h84v-94h-84v-119h-98v119h-350z" />
<glyph unicode="&#xbd;" horiz-adv-x="1634" d="M100 1288l289 150h80v-693h-109v572l-221 -115zM459 0l612 1438h103l-609 -1438h-106zM1083 0v133q0 117 80 156l199 108q46 27 64 51t18 62q0 56 -31 77t-113 21q-72 0 -178 -20l-8 96q124 21 186 21q144 0 198 -42t54 -147q0 -71 -28 -112t-99 -78l-194 -105 q-37 -22 -37 -76v-49h360v-96h-471z" />
<glyph unicode="&#xbe;" horiz-adv-x="1634" d="M74 758l14 94q125 -25 215 -25q75 0 110.5 27t35.5 84q0 58 -31.5 84.5t-100.5 26.5h-143v88h145q58 0 85.5 26t27.5 88q0 55 -32.5 79t-106.5 24q-72 0 -191 -21l-18 92q117 25 219 25q123 0 180.5 -43t57.5 -135q0 -121 -74 -176q90 -41 90 -164q0 -103 -60.5 -152 t-189.5 -49q-98 0 -233 27zM457 0l612 1438h102l-608 -1438h-106zM1051 119v84l209 489h112l-198 -479h227v162h98v-162h84v-94h-84v-119h-98v119h-350z" />
<glyph unicode="&#xbf;" horiz-adv-x="991" d="M59 -82q0 63 18 118t52 100t69 78t83 69q10 8 52 39.5t56 43t44 39.5t41.5 47.5t22.5 47.5t11 57v160h139v-166q0 -44 -14.5 -84.5t-34 -71t-57 -67t-66 -59.5t-78.5 -60q-47 -35 -78.5 -63t-60.5 -64.5t-43 -78t-14 -89.5q0 -111 88 -171t241 -60q90 0 168.5 15 t208.5 54l29 -110q-242 -74 -414 -74q-208 0 -335.5 92.5t-127.5 257.5zM506 862v166h143v-166h-143z" />
<glyph unicode="&#xc0;" horiz-adv-x="1378" d="M61 0l482 1436h293l481 -1436h-146l-133 397h-698l-133 -397h-146zM387 539h604l-262 784h-80zM436 1808l137 52l261 -273h-123z" />
<glyph unicode="&#xc1;" horiz-adv-x="1378" d="M61 0l482 1436h293l481 -1436h-146l-133 397h-698l-133 -397h-146zM387 539h604l-262 784h-80zM543 1587l260 273l137 -52l-274 -221h-123z" />
<glyph unicode="&#xc2;" horiz-adv-x="1378" d="M61 0l482 1436h293l481 -1436h-146l-133 397h-698l-133 -397h-146zM383 1616l207 248h198l205 -248l-73 -43l-230 207l-231 -207zM387 539h604l-262 784h-80z" />
<glyph unicode="&#xc3;" horiz-adv-x="1378" d="M61 0l482 1436h293l481 -1436h-146l-133 397h-698l-133 -397h-146zM379 1681q63 63 109.5 91t105.5 28q42 0 85 -26.5t79.5 -53t60.5 -26.5q44 0 131 84l68 -66q-60 -65 -101.5 -94t-95.5 -29q-34 0 -68.5 16.5t-57.5 37t-49.5 37t-47.5 16.5q-61 0 -149 -84zM387 539 h604l-262 784h-80z" />
<glyph unicode="&#xc4;" horiz-adv-x="1378" d="M61 0l482 1436h293l481 -1436h-146l-133 397h-698l-133 -397h-146zM387 539h604l-262 784h-80zM444 1606v157h142v-157h-142zM795 1606v157h141v-157h-141z" />
<glyph unicode="&#xc5;" horiz-adv-x="1378" d="M61 0l482 1436h293l481 -1436h-146l-133 397h-698l-133 -397h-146zM387 539h604l-262 784h-80zM475 1747q0 75 57 129.5t158 54.5t158 -54.5t57 -129.5q0 -77 -57 -130.5t-158 -53.5t-158 53.5t-57 130.5zM584 1747q0 -39 27.5 -68.5t78.5 -29.5q49 0 77 29.5t28 68.5 t-28 68.5t-77 29.5q-51 0 -78.5 -29.5t-27.5 -68.5z" />
<glyph unicode="&#xc6;" horiz-adv-x="1886" d="M63 0l594 1436h310h805l-3 -131h-720v-525h577l-2 -123h-575v-526h723l-3 -131h-864v406h-528l-168 -406h-146zM430 528h475v785h-149z" />
<glyph unicode="&#xc7;" horiz-adv-x="1226" d="M113 715q0 204 37.5 347t116 231.5t192 128.5t272.5 40q98 0 210.5 -12.5t176.5 -30.5l-12 -139q-183 39 -363 39q-256 0 -368.5 -139.5t-112.5 -464.5q0 -327 110 -461.5t371 -134.5q190 0 363 39l10 -138q-181 -45 -383 -45q-325 0 -472.5 171.5t-147.5 568.5z M557 -389l115 266h110l-90 -266h-135z" />
<glyph unicode="&#xc8;" horiz-adv-x="1210" d="M168 0v1436h926v-136h-781v-514h635v-137h-635v-512h781v-137h-926zM381 1808l137 52l260 -273h-123z" />
<glyph unicode="&#xc9;" horiz-adv-x="1210" d="M168 0v1436h926v-136h-781v-514h635v-137h-635v-512h781v-137h-926zM485 1587l260 273l138 -52l-275 -221h-123z" />
<glyph unicode="&#xca;" horiz-adv-x="1210" d="M168 0v1436h926v-136h-781v-514h635v-137h-635v-512h781v-137h-926zM328 1616l207 248h198l205 -248l-74 -43l-229 207l-232 -207z" />
<glyph unicode="&#xcb;" horiz-adv-x="1210" d="M168 0v1436h926v-136h-781v-514h635v-137h-635v-512h781v-137h-926zM387 1606v157h141v-157h-141zM737 1606v157h142v-157h-142z" />
<glyph unicode="&#xcc;" horiz-adv-x="483" d="M-12 1808l137 52l260 -273h-123zM170 0v1436h143v-1436h-143z" />
<glyph unicode="&#xcd;" horiz-adv-x="483" d="M92 1587l260 273l137 -52l-274 -221h-123zM170 0v1436h143v-1436h-143z" />
<glyph unicode="&#xce;" horiz-adv-x="483" d="M-66 1616l207 248h199l205 -248l-74 -43l-229 207l-232 -207zM170 0v1436h143v-1436h-143z" />
<glyph unicode="&#xcf;" horiz-adv-x="483" d="M-6 1606v157h141v-157h-141zM170 0v1436h143v-1436h-143zM344 1606v157h141v-157h-141z" />
<glyph unicode="&#xd0;" horiz-adv-x="1409" d="M-45 657v123h215v656h524q299 0 450.5 -180.5t151.5 -538.5q0 -355 -151.5 -536t-450.5 -181h-524v657h-215zM313 135h379q224 0 339.5 147.5t115.5 434.5q0 288 -115 435.5t-340 147.5h-379v-520h375v-123h-375v-522z" />
<glyph unicode="&#xd1;" horiz-adv-x="1406" d="M170 0v1438h201l725 -1264v1264h143v-1438h-201l-727 1262v-1262h-141zM418 1681q63 63 109.5 91t105.5 28q42 0 85 -26.5t79.5 -53t60.5 -26.5q44 0 131 84l68 -66q-60 -65 -101.5 -94t-95.5 -29q-34 0 -68.5 16.5t-57.5 37t-49.5 37t-47.5 16.5q-62 0 -150 -84z" />
<glyph unicode="&#xd2;" horiz-adv-x="1460" d="M113 717q0 372 156 558.5t460 186.5q619 0 619 -745q0 -370 -156.5 -556t-462.5 -186q-616 0 -616 742zM260 717q0 -306 116.5 -456t352.5 -150q238 0 354.5 150t116.5 456q0 307 -116.5 457.5t-354.5 150.5q-236 0 -352.5 -150.5t-116.5 -457.5zM481 1808l137 52 l261 -273h-123z" />
<glyph unicode="&#xd3;" horiz-adv-x="1460" d="M113 717q0 372 156 558.5t460 186.5q619 0 619 -745q0 -370 -156.5 -556t-462.5 -186q-616 0 -616 742zM260 717q0 -306 116.5 -456t352.5 -150q238 0 354.5 150t116.5 456q0 307 -116.5 457.5t-354.5 150.5q-236 0 -352.5 -150.5t-116.5 -457.5zM586 1587l260 273 l137 -52l-274 -221h-123z" />
<glyph unicode="&#xd4;" horiz-adv-x="1460" d="M113 717q0 372 156 558.5t460 186.5q619 0 619 -745q0 -370 -156.5 -556t-462.5 -186q-616 0 -616 742zM260 717q0 -306 116.5 -456t352.5 -150q238 0 354.5 150t116.5 456q0 307 -116.5 457.5t-354.5 150.5q-236 0 -352.5 -150.5t-116.5 -457.5zM428 1616l207 248h199 l204 -248l-73 -43l-230 207l-231 -207z" />
<glyph unicode="&#xd5;" horiz-adv-x="1460" d="M113 717q0 372 156 558.5t460 186.5q619 0 619 -745q0 -370 -156.5 -556t-462.5 -186q-616 0 -616 742zM260 717q0 -306 116.5 -456t352.5 -150q238 0 354.5 150t116.5 456q0 307 -116.5 457.5t-354.5 150.5q-236 0 -352.5 -150.5t-116.5 -457.5zM422 1681 q63 63 109.5 91t105.5 28q42 0 85 -26.5t79.5 -53t60.5 -26.5q44 0 131 84l68 -66q-60 -65 -101.5 -94t-95.5 -29q-34 0 -68.5 16.5t-57.5 37t-49.5 37t-47.5 16.5q-61 0 -149 -84z" />
<glyph unicode="&#xd6;" horiz-adv-x="1460" d="M113 717q0 372 156 558.5t460 186.5q619 0 619 -745q0 -370 -156.5 -556t-462.5 -186q-616 0 -616 742zM260 717q0 -306 116.5 -456t352.5 -150q238 0 354.5 150t116.5 456q0 307 -116.5 457.5t-354.5 150.5q-236 0 -352.5 -150.5t-116.5 -457.5zM487 1606v157h142v-157 h-142zM838 1606v157h141v-157h-141z" />
<glyph unicode="&#xd7;" horiz-adv-x="1085" d="M100 213l355 354l-351 353l89 88l350 -351l350 351l90 -90l-350 -351l352 -352l-90 -88l-352 352l-355 -354z" />
<glyph unicode="&#xd8;" horiz-adv-x="1460" d="M113 717q0 372 156 558.5t460 186.5q160 0 279 -49l106 217l105 -43l-113 -229q242 -172 242 -641q0 -370 -156.5 -556t-462.5 -186q-160 0 -278 50l-127 -256l-105 43l133 268q-239 175 -239 637zM260 717q0 -356 158 -502l526 1069q-86 41 -215 41 q-236 0 -352.5 -150.5t-116.5 -457.5zM512 154q90 -43 217 -43q238 0 354.5 150t116.5 456q0 360 -162 506z" />
<glyph unicode="&#xd9;" horiz-adv-x="1392" d="M170 465v971h143v-965q0 -186 92.5 -273t290.5 -87q197 0 290 88t93 272v965h146v-971q0 -250 -130 -370t-399 -120t-397.5 120t-128.5 370zM453 1808l137 52l260 -273h-123z" />
<glyph unicode="&#xda;" horiz-adv-x="1392" d="M170 465v971h143v-965q0 -186 92.5 -273t290.5 -87q197 0 290 88t93 272v965h146v-971q0 -250 -130 -370t-399 -120t-397.5 120t-128.5 370zM557 1587l260 273l137 -52l-274 -221h-123z" />
<glyph unicode="&#xdb;" horiz-adv-x="1392" d="M170 465v971h143v-965q0 -186 92.5 -273t290.5 -87q197 0 290 88t93 272v965h146v-971q0 -250 -130 -370t-399 -120t-397.5 120t-128.5 370zM399 1616l207 248h199l205 -248l-74 -43l-229 207l-232 -207z" />
<glyph unicode="&#xdc;" horiz-adv-x="1392" d="M170 465v971h143v-965q0 -186 92.5 -273t290.5 -87q197 0 290 88t93 272v965h146v-971q0 -250 -130 -370t-399 -120t-397.5 120t-128.5 370zM459 1606v157h141v-157h-141zM809 1606v157h141v-157h-141z" />
<glyph unicode="&#xdd;" horiz-adv-x="1259" d="M63 1436h154l412 -701l413 701h154l-494 -838v-598h-143v598zM481 1587l260 273l138 -52l-275 -221h-123z" />
<glyph unicode="&#xde;" horiz-adv-x="1325" d="M176 0v1436h146v-211h436q249 0 370 -111t121 -344q0 -252 -121 -371.5t-370 -119.5h-436v-279h-146zM322 414h436q177 0 259.5 86.5t82.5 269.5q0 165 -82.5 242.5t-259.5 77.5h-436v-676z" />
<glyph unicode="&#xdf;" horiz-adv-x="1148" d="M160 0v1102q0 170 112.5 265t302.5 95q215 0 317.5 -87.5t102.5 -268.5q0 -225 -213 -307q136 -34 204.5 -141.5t68.5 -282.5q0 -209 -140.5 -310t-425.5 -81v122q214 -13 318 58t104 215q0 179 -102 262.5t-320 83.5v117q187 1 275 64t88 192q0 126 -66.5 185.5 t-207.5 59.5q-132 0 -205.5 -64t-73.5 -179v-1100h-139z" />
<glyph unicode="&#xe0;" horiz-adv-x="1046" d="M98 276q0 136 77.5 220t246.5 98l328 27v90q0 122 -57 174.5t-183 52.5q-95 0 -320 -27l-16 115q230 29 346 29q195 0 282 -85.5t87 -252.5v-672q-216 -78 -408 -78q-171 0 -277 78.5t-106 230.5zM233 281q0 -100 69 -150.5t187 -50.5q121 0 261 49v381l-301 -27 q-116 -9 -166 -61t-50 -141zM307 1458l123 47l232 -327h-115z" />
<glyph unicode="&#xe1;" horiz-adv-x="1046" d="M98 276q0 136 77.5 220t246.5 98l328 27v90q0 122 -57 174.5t-183 52.5q-95 0 -320 -27l-16 115q230 29 346 29q195 0 282 -85.5t87 -252.5v-672q-216 -78 -408 -78q-171 0 -277 78.5t-106 230.5zM233 281q0 -100 69 -150.5t187 -50.5q121 0 261 49v381l-301 -27 q-116 -9 -166 -61t-50 -141zM383 1178l231 327l123 -47l-239 -280h-115z" />
<glyph unicode="&#xe2;" horiz-adv-x="1046" d="M98 276q0 136 77.5 220t246.5 98l328 27v90q0 122 -57 174.5t-183 52.5q-95 0 -320 -27l-16 115q230 29 346 29q195 0 282 -85.5t87 -252.5v-672q-216 -78 -408 -78q-171 0 -277 78.5t-106 230.5zM233 281q0 -100 69 -150.5t187 -50.5q121 0 261 49v381l-301 -27 q-116 -9 -166 -61t-50 -141zM262 1202l180 260h172l177 -260l-68 -43l-195 215l-196 -215z" />
<glyph unicode="&#xe3;" horiz-adv-x="1046" d="M98 276q0 136 77.5 220t246.5 98l328 27v90q0 122 -57 174.5t-183 52.5q-95 0 -320 -27l-16 115q230 29 346 29q195 0 282 -85.5t87 -252.5v-672q-216 -78 -408 -78q-171 0 -277 78.5t-106 230.5zM213 1274q63 63 109.5 91t105.5 28q33 0 68 -16.5t58.5 -37t51 -37 t47.5 -16.5q44 0 131 84l68 -65q-60 -65 -101.5 -94t-95.5 -29q-44 0 -86 26.5t-77 53t-60 26.5q-61 0 -149 -84zM233 281q0 -100 69 -150.5t187 -50.5q121 0 261 49v381l-301 -27q-116 -9 -166 -61t-50 -141z" />
<glyph unicode="&#xe4;" horiz-adv-x="1046" d="M98 276q0 136 77.5 220t246.5 98l328 27v90q0 122 -57 174.5t-183 52.5q-95 0 -320 -27l-16 115q230 29 346 29q195 0 282 -85.5t87 -252.5v-672q-216 -78 -408 -78q-171 0 -277 78.5t-106 230.5zM233 281q0 -100 69 -150.5t187 -50.5q121 0 261 49v381l-301 -27 q-116 -9 -166 -61t-50 -141zM279 1198v158h141v-158h-141zM629 1198v158h141v-158h-141z" />
<glyph unicode="&#xe5;" horiz-adv-x="1046" d="M98 276q0 136 77.5 220t246.5 98l328 27v90q0 122 -57 174.5t-183 52.5q-95 0 -320 -27l-16 115q230 29 346 29q195 0 282 -85.5t87 -252.5v-672q-216 -78 -408 -78q-171 0 -277 78.5t-106 230.5zM233 281q0 -100 69 -150.5t187 -50.5q121 0 261 49v381l-301 -27 q-116 -9 -166 -61t-50 -141zM307 1339q0 76 57.5 130.5t157.5 54.5t157.5 -54.5t57.5 -130.5q0 -77 -57 -130.5t-158 -53.5t-158 53.5t-57 130.5zM416 1339q0 -39 27.5 -68.5t78.5 -29.5q49 0 77 29.5t28 68.5t-28 69t-77 30q-50 0 -78 -30t-28 -69z" />
<glyph unicode="&#xe6;" horiz-adv-x="1697" d="M92 276q0 135 78.5 219.5t245.5 98.5l329 27v90q0 123 -56.5 177t-182.5 54q-100 0 -320 -27l-16 111q230 29 346 29q247 0 328 -150q111 150 358 150q209 0 305 -127.5t88 -392.5q0 -11 -1 -35t-1 -35h-704q7 -194 90.5 -280.5t251.5 -86.5q158 0 313 76l19 -115 q-161 -84 -340 -84q-224 0 -340 107q-196 -115 -406 -115q-171 0 -278 78.5t-107 230.5zM227 281q0 -102 69.5 -153.5t186.5 -51.5q170 0 328 104q-63 120 -63 332l-304 -27q-116 -9 -166.5 -61.5t-50.5 -142.5zM889 582h573q0 189 -63 272.5t-199 83.5q-151 0 -225 -83.5 t-86 -272.5z" />
<glyph unicode="&#xe7;" horiz-adv-x="923" d="M102 514q0 539 410 539q178 0 336 -41l-14 -117q-164 37 -289 37q-155 0 -228 -102t-73 -316t83.5 -316t258.5 -102q117 0 243 47l13 -118q-121 -50 -271 -50q-236 0 -352.5 130.5t-116.5 408.5zM377 -389l115 266h110l-90 -266h-135z" />
<glyph unicode="&#xe8;" horiz-adv-x="1052" d="M102 514q0 279 110.5 410t344.5 131q209 0 305 -127.5t88 -392.5q0 -11 -1 -35t-1 -35h-704q7 -193 91 -280t251 -87q161 0 313 76l19 -115q-161 -84 -340 -84q-246 0 -361 130t-115 409zM244 582h573q0 189 -63 272.5t-199 83.5q-149 0 -224 -84t-87 -272zM340 1458 l123 47l231 -327h-114z" />
<glyph unicode="&#xe9;" horiz-adv-x="1052" d="M102 514q0 279 110.5 410t344.5 131q209 0 305 -127.5t88 -392.5q0 -11 -1 -35t-1 -35h-704q7 -193 91 -280t251 -87q161 0 313 76l19 -115q-161 -84 -340 -84q-246 0 -361 130t-115 409zM244 582h573q0 189 -63 272.5t-199 83.5q-149 0 -224 -84t-87 -272zM416 1178 l231 327l123 -47l-240 -280h-114z" />
<glyph unicode="&#xea;" horiz-adv-x="1052" d="M102 514q0 279 110.5 410t344.5 131q209 0 305 -127.5t88 -392.5q0 -11 -1 -35t-1 -35h-704q7 -193 91 -280t251 -87q161 0 313 76l19 -115q-161 -84 -340 -84q-246 0 -361 130t-115 409zM244 582h573q0 189 -63 272.5t-199 83.5q-149 0 -224 -84t-87 -272zM295 1202 l180 260h172l176 -260l-67 -43l-195 215l-196 -215z" />
<glyph unicode="&#xeb;" horiz-adv-x="1052" d="M102 514q0 279 110.5 410t344.5 131q209 0 305 -127.5t88 -392.5q0 -11 -1 -35t-1 -35h-704q7 -193 91 -280t251 -87q161 0 313 76l19 -115q-161 -84 -340 -84q-246 0 -361 130t-115 409zM244 582h573q0 189 -63 272.5t-199 83.5q-149 0 -224 -84t-87 -272zM311 1198v158 h142v-158h-142zM662 1198v158h141v-158h-141z" />
<glyph unicode="&#xec;" d="M12 1458l123 47l232 -327h-115zM160 0v1028h139v-1028h-139z" />
<glyph unicode="&#xed;" d="M86 1178l231 327l123 -47l-239 -280h-115zM160 0v1028h139v-1028h-139z" />
<glyph unicode="&#xee;" d="M-33 1202l180 260h172l177 -260l-68 -43l-195 215l-196 -215zM160 0v1028h139v-1028h-139z" />
<glyph unicode="&#xef;" d="M-18 1198v158h141v-158h-141zM160 0v1028h139v-1028h-139zM332 1198v158h141v-158h-141z" />
<glyph unicode="&#xf0;" horiz-adv-x="1067" d="M102 532q0 269 99.5 395t320.5 126q112 0 234 -33q-62 168 -201 307l-238 -104l-41 80l209 92q-84 70 -168 125l109 45q81 -44 178 -119l262 117l39 -80l-227 -101q163 -155 225 -345t62 -441q0 -320 -100 -470.5t-333 -150.5q-229 0 -329.5 143t-100.5 414zM244 530 q0 -102 14 -178.5t47 -137.5t91 -92.5t141 -31.5q68 0 118 22.5t81.5 62.5t50 103.5t25.5 136.5t7 171q0 180 -26 307q-130 45 -248 45q-164 0 -232.5 -98.5t-68.5 -309.5z" />
<glyph unicode="&#xf1;" horiz-adv-x="1159" d="M160 0v975q235 78 415 78q226 0 325 -120t99 -390v-543h-139v539q0 206 -66.5 299.5t-220.5 93.5q-102 0 -274 -43v-889h-139zM262 1274q63 63 109.5 91t105.5 28q33 0 68 -16.5t58.5 -37t51 -37t47.5 -16.5q45 0 132 84l67 -65q-60 -65 -101.5 -94t-94.5 -29 q-34 0 -69 16.5t-58 36.5t-49.5 36.5t-47.5 16.5q-61 0 -149 -84z" />
<glyph unicode="&#xf2;" horiz-adv-x="1136" d="M102 514q0 539 467 539q465 0 465 -539t-465 -539q-467 0 -467 539zM244 514q0 -213 80.5 -317.5t244.5 -104.5q322 0 322 422t-322 422q-164 0 -244.5 -104.5t-80.5 -317.5zM344 1458l123 47l231 -327h-114z" />
<glyph unicode="&#xf3;" horiz-adv-x="1136" d="M102 514q0 539 467 539q465 0 465 -539t-465 -539q-467 0 -467 539zM244 514q0 -213 80.5 -317.5t244.5 -104.5q322 0 322 422t-322 422q-164 0 -244.5 -104.5t-80.5 -317.5zM418 1178l231 327l123 -47l-240 -280h-114z" />
<glyph unicode="&#xf4;" horiz-adv-x="1136" d="M102 514q0 539 467 539q465 0 465 -539t-465 -539q-467 0 -467 539zM244 514q0 -213 80.5 -317.5t244.5 -104.5q322 0 322 422t-322 422q-164 0 -244.5 -104.5t-80.5 -317.5zM299 1202l180 260h172l176 -260l-67 -43l-195 215l-196 -215z" />
<glyph unicode="&#xf5;" horiz-adv-x="1136" d="M102 514q0 539 467 539q465 0 465 -539t-465 -539q-467 0 -467 539zM244 514q0 -213 80.5 -317.5t244.5 -104.5q322 0 322 422t-322 422q-164 0 -244.5 -104.5t-80.5 -317.5zM250 1274q63 63 109.5 91t105.5 28q33 0 68 -16.5t58.5 -37t51 -37t47.5 -16.5q44 0 131 84 l68 -65q-60 -65 -101.5 -94t-95.5 -29q-44 0 -86 26.5t-77 53t-60 26.5q-62 0 -150 -84z" />
<glyph unicode="&#xf6;" horiz-adv-x="1136" d="M102 514q0 539 467 539q465 0 465 -539t-465 -539q-467 0 -467 539zM244 514q0 -213 80.5 -317.5t244.5 -104.5q322 0 322 422t-322 422q-164 0 -244.5 -104.5t-80.5 -317.5zM313 1198v158h142v-158h-142zM664 1198v158h141v-158h-141z" />
<glyph unicode="&#xf7;" horiz-adv-x="1118" d="M119 506v119h882v-119h-882zM487 137v162h146v-162h-146zM487 831v162h146v-162h-146z" />
<glyph unicode="&#xf8;" horiz-adv-x="1136" d="M102 514q0 539 467 539q109 0 189 -29l90 182l104 -43l-94 -190q176 -126 176 -459q0 -539 -465 -539q-101 0 -190 29l-109 -217l-104 43l113 225q-177 130 -177 459zM244 514q0 -227 96 -334l362 733q-64 23 -133 23q-164 0 -244.5 -104.5t-80.5 -317.5zM434 117 q61 -25 135 -25q322 0 322 422q0 233 -94 334z" />
<glyph unicode="&#xf9;" horiz-adv-x="1132" d="M160 485v543h139v-541q0 -209 54.5 -306t183.5 -97q131 0 297 51v893h139v-975q-229 -88 -434 -88q-203 0 -291 124t-88 396zM352 1458l123 47l232 -327h-115z" />
<glyph unicode="&#xfa;" horiz-adv-x="1132" d="M160 485v543h139v-541q0 -209 54.5 -306t183.5 -97q131 0 297 51v893h139v-975q-229 -88 -434 -88q-203 0 -291 124t-88 396zM426 1178l231 327l123 -47l-239 -280h-115z" />
<glyph unicode="&#xfb;" horiz-adv-x="1132" d="M160 485v543h139v-541q0 -209 54.5 -306t183.5 -97q131 0 297 51v893h139v-975q-229 -88 -434 -88q-203 0 -291 124t-88 396zM307 1202l180 260h172l177 -260l-68 -43l-195 215l-196 -215z" />
<glyph unicode="&#xfc;" horiz-adv-x="1132" d="M160 485v543h139v-541q0 -209 54.5 -306t183.5 -97q131 0 297 51v893h139v-975q-229 -88 -434 -88q-203 0 -291 124t-88 396zM322 1198v158h141v-158h-141zM672 1198v158h141v-158h-141z" />
<glyph unicode="&#xfd;" horiz-adv-x="985" d="M55 1028h142l280 -919h23l293 919h135l-467 -1458h-135l139 430h-80zM352 1178l232 327l123 -47l-240 -280h-115z" />
<glyph unicode="&#xfe;" horiz-adv-x="1120" d="M160 -430v1966h139v-508q153 25 293 25q226 0 326 -126t100 -392q0 -280 -96.5 -420t-323.5 -140q-160 0 -299 58v-463h-139zM299 162q143 -70 281 -70q73 0 126 20.5t86 56t52 92.5t26 120.5t7 150.5q0 209 -67 307.5t-226 98.5q-105 0 -285 -27v-749z" />
<glyph unicode="&#xff;" horiz-adv-x="985" d="M55 1028h142l280 -919h23l293 919h135l-467 -1458h-135l139 430h-80zM246 1198v158h141v-158h-141zM596 1198v158h141v-158h-141z" />
<glyph unicode="&#x152;" horiz-adv-x="2082" d="M113 715q0 276 65 439.5t198 235.5t353 72q156 0 334 -26h905l-2 -136h-780v-514h637v-137h-637v-512h782l-2 -137h-913q-146 -25 -322 -25q-331 0 -474.5 170t-143.5 570zM260 711q0 -324 110.5 -462t362.5 -138q171 0 307 24v1168q-175 24 -311 24q-252 0 -360.5 -143 t-108.5 -473z" />
<glyph unicode="&#x153;" horiz-adv-x="1845" d="M102 514q0 539 467 539q272 0 381 -213q102 215 400 215q209 0 305 -127.5t88 -392.5q0 -11 -1 -35t-1 -35h-705q7 -194 90.5 -280.5t251.5 -86.5q159 0 314 76l16 -115q-156 -84 -338 -84q-313 0 -418 215q-108 -215 -383 -215q-467 0 -467 539zM244 514 q0 -213 80.5 -317.5t244.5 -104.5q322 0 322 422t-322 422q-164 0 -244.5 -104.5t-80.5 -317.5zM1036 582h572q1 189 -61.5 272.5t-200.5 83.5q-149 0 -223.5 -83.5t-86.5 -272.5z" />
<glyph unicode="&#x178;" horiz-adv-x="1259" d="M63 1436h154l412 -701l413 701h154l-494 -838v-598h-143v598zM383 1606v157h141v-157h-141zM733 1606v157h141v-157h-141z" />
<glyph unicode="&#x2c6;" horiz-adv-x="612" d="M45 1202l180 260h172l176 -260l-67 -43l-195 215l-196 -215z" />
<glyph unicode="&#x2dc;" horiz-adv-x="962" d="M152 1274q63 63 109.5 91t105.5 28q33 0 68 -16.5t58.5 -37t51 -37t47.5 -16.5q44 0 131 84l68 -65q-60 -65 -101.5 -94t-95.5 -29q-44 0 -86 26.5t-77 53t-60 26.5q-62 0 -150 -84z" />
<glyph unicode="&#x2000;" horiz-adv-x="965" />
<glyph unicode="&#x2001;" horiz-adv-x="1931" />
<glyph unicode="&#x2002;" horiz-adv-x="965" />
<glyph unicode="&#x2003;" horiz-adv-x="1931" />
<glyph unicode="&#x2004;" horiz-adv-x="643" />
<glyph unicode="&#x2005;" horiz-adv-x="482" />
<glyph unicode="&#x2006;" horiz-adv-x="321" />
<glyph unicode="&#x2007;" horiz-adv-x="321" />
<glyph unicode="&#x2008;" horiz-adv-x="241" />
<glyph unicode="&#x2009;" horiz-adv-x="386" />
<glyph unicode="&#x200a;" horiz-adv-x="107" />
<glyph unicode="&#x2010;" horiz-adv-x="741" d="M59 500v100h623v-100h-623z" />
<glyph unicode="&#x2011;" horiz-adv-x="741" d="M59 500v100h623v-100h-623z" />
<glyph unicode="&#x2012;" horiz-adv-x="741" d="M59 500v100h623v-100h-623z" />
<glyph unicode="&#x2013;" horiz-adv-x="954" d="M59 500v100h836v-100h-836z" />
<glyph unicode="&#x2014;" horiz-adv-x="1329" d="M59 500v100h1209v-100h-1209z" />
<glyph unicode="&#x2018;" d="M172 1536h145q-27 -106 -28 -215t18 -211l-112 -14q-67 233 -23 440z" />
<glyph unicode="&#x2019;" d="M137 1536h150q40 -205 -23 -438l-114 14q38 238 -13 424z" />
<glyph unicode="&#x201a;" d="M158 203h145q-27 -104 -28 -214.5t16 -211.5l-111 -15q-68 225 -22 441z" />
<glyph unicode="&#x201c;" horiz-adv-x="755" d="M172 1536h145q-27 -106 -28 -215t18 -211l-112 -14q-67 233 -23 440zM473 1536h145q-27 -104 -28 -214.5t16 -211.5l-110 -14q-68 226 -23 440z" />
<glyph unicode="&#x201d;" horiz-adv-x="755" d="M137 1536h150q40 -205 -23 -438l-114 14q38 238 -13 424zM438 1536h148q42 -212 -23 -438l-112 14q38 238 -13 424z" />
<glyph unicode="&#x201e;" horiz-adv-x="757" d="M158 203h145q-27 -106 -28 -215t18 -211l-113 -15q-66 231 -22 441zM457 203h145q-27 -106 -28 -215t18 -211l-113 -15q-66 231 -22 441z" />
<glyph unicode="&#x2022;" horiz-adv-x="436" d="M125 627v213h186v-213h-186z" />
<glyph unicode="&#x2026;" horiz-adv-x="1187" d="M147 0v203h146v-203h-146zM522 0v203h144v-203h-144zM895 0v203h143v-203h-143z" />
<glyph unicode="&#x202f;" horiz-adv-x="386" />
<glyph unicode="&#x2039;" horiz-adv-x="696" d="M96 451v112l484 301l2 -129l-383 -229l383 -225l-2 -131z" />
<glyph unicode="&#x203a;" horiz-adv-x="696" d="M96 281l383 225l-383 229l4 129l482 -301v-112l-482 -301z" />
<glyph unicode="&#x205f;" horiz-adv-x="482" />
<glyph unicode="&#x20ac;" horiz-adv-x="1323" d="M0 485v105h190q-4 78 -4 125q0 55 2 84h-188v104h195q32 302 176.5 430.5t433.5 128.5q89 0 204 -12t181 -29l-23 -133q-195 39 -362 39q-215 0 -325 -100t-138 -324h584v-104h-594q0 -14 -1 -43t-1 -45q0 -43 4 -121h592v-105h-578q33 -199 143.5 -286.5t315.5 -87.5 q192 0 360 41l21 -123q-181 -54 -383 -54q-280 0 -424 119.5t-180 390.5h-201z" />
<glyph unicode="&#x2122;" horiz-adv-x="1433" d="M37 1339v99h545v-99h-217v-594h-111v594h-217zM666 745v693h161l166 -535l164 535h162v-693h-105v570l-4 -4l-172 -566h-94l-170 564l-4 4v-568h-104z" />
<glyph unicode="&#x25fc;" horiz-adv-x="1024" d="M0 0v1024h1024v-1024h-1024z" />
</font>
</defs>
</svg>
