<?xml version="1.0" encoding="utf-8"?>
<!-- Generator: $$$/GeneralStr/196=Adobe Illustrator 27.6.0, SVG Export Plug-In . SVG Version: 6.00 Build 0)  -->
<svg version="1.1" id="Calque_1" xmlns="http://www.w3.org/2000/svg" xmlns:xlink="http://www.w3.org/1999/xlink" x="0px" y="0px"
	 viewBox="0 0 41.8 47.2" style="enable-background:new 0 0 41.8 47.2;" xml:space="preserve">
<style type="text/css">
	.st0{fill:#EA2631;}
	.st1{fill:#C61C2C;}
	.st2{fill:#8C1B26;}
	.st3{fill:#F9485A;}
</style>
<g>
	<polygon class="st0" points="12,28.7 19.9,33.3 19.9,24.1 12,19.7 	"/>
	<polygon class="st1" points="20.9,13.3 13.1,17.8 20.9,22.2 28.8,17.9 	"/>
	<polygon class="st2" points="10,18.6 0,13 0,34.4 10,28.6 	"/>
	<polygon class="st2" points="31.8,18.7 31.8,28.6 41.8,34.4 41.8,13.2 	"/>
	<polygon class="st2" points="21.9,35.6 21.9,47.2 40.7,36.4 30.6,30.6 	"/>
	<polygon class="st3" points="21.9,33.3 29.8,28.7 29.8,19.8 21.9,24.1 	"/>
	<polygon class="st2" points="19.9,11.6 19.9,0 0.8,11.1 11,16.7 	"/>
	<polygon class="st2" points="1.1,36.4 19.9,47.2 19.9,35.6 11.2,30.6 	"/>
	<polygon class="st2" points="41.2,11.1 21.9,0 21.9,11.6 30.9,16.8 	"/>
</g>
</svg>
