<?xml version="1.0" encoding="utf-8"?>
<!-- Generator: $$$/GeneralStr/196=Adobe Illustrator 27.6.0, SVG Export Plug-In . SVG Version: 6.00 Build 0)  -->
<svg version="1.1" id="Calque_1" xmlns="http://www.w3.org/2000/svg" xmlns:xlink="http://www.w3.org/1999/xlink" x="0px" y="0px"
	 viewBox="0 0 135 135" style="enable-background:new 0 0 135 135;" xml:space="preserve">
<style type="text/css">
	.st0{fill:url(#SVGID_1_);}
	.st1{fill:url(#SVGID_00000018238867521344091170000008105033523213988741_);}
</style>
<linearGradient id="SVGID_1_" gradientUnits="userSpaceOnUse" x1="111.5059" y1="6.5055" x2="34.775" y2="55.8837" gradientTransform="matrix(1 0 0 -1 0 135.8898)">
	<stop  offset="0.18" style="stop-color:#0052CC"/>
	<stop  offset="1" style="stop-color:#2684FF"/>
</linearGradient>
<path class="st0" d="M7,96.9c-1.2,1.8-2.8,4.4-4.4,6.2c-1.2,1.8-0.4,4,1.2,5.1l26.8,15.2c2,1.1,4.4,0.7,5.6-1.1
	c1.2-1.8,2.4-3.6,4-5.8c10.8-16,21.6-13.8,40.9-5.4l26.4,11.6c2,0.7,4.4,0,5.6-1.8l13.2-26.1c0.8-1.8,0-4-2-5.1
	c-5.6-2.5-16.8-7.3-26.8-11.6C61.5,61.7,31,62.4,7,96.9z"/>
<linearGradient id="SVGID_00000040555480389945900850000004097782881791195545_" gradientUnits="userSpaceOnUse" x1="45.3588" y1="116.0215" x2="122.0899" y2="66.6453" gradientTransform="matrix(1 0 0 -1 0 135.8898)">
	<stop  offset="0.18" style="stop-color:#0052CC"/>
	<stop  offset="1" style="stop-color:#2684FF"/>
</linearGradient>
<path style="fill:url(#SVGID_00000040555480389945900850000004097782881791195545_);" d="M128,38.1c1.2-1.8,2.8-4.4,4.4-6.2
	c1.2-1.8,0.4-4-1.2-5.1l-26.8-15.2c-2-1.1-4.4-0.7-5.6,1.1c0,0,0,0,0,0.4c-1.2,1.8-2.4,3.6-4,5.8c-10.8,16-21.6,13.8-40.9,5.4
	L27.4,12.7c-2-0.7-4.4,0-5.6,1.8L8.6,40.7c-0.8,1.8,0,4,2,5.1c5.6,2.5,16.8,7.3,26.8,11.6C73.5,73.7,104.4,72.6,128,38.1z"/>
</svg>
