<?xml version="1.0" encoding="utf-8"?>
<!-- Generator: $$$/GeneralStr/196=Adobe Illustrator 27.6.0, SVG Export Plug-In . SVG Version: 6.00 Build 0)  -->
<svg version="1.1" id="Layer_1" xmlns="http://www.w3.org/2000/svg" xmlns:xlink="http://www.w3.org/1999/xlink" x="0px" y="0px"
	 viewBox="0 0 510.4 255.9" style="enable-background:new 0 0 510.4 255.9;" xml:space="preserve">
<style type="text/css">
	.st0{fill:#264DE4;}
	.st1{fill:#2965F1;}
	.st2{fill:#EBEBEB;}
	.st3{fill:#FFFFFF;}
	.st4{fill:#CD6799;}
</style>
<g id="layer1" transform="translate(-193.633,-276.3622)">
	<g id="g3013" transform="translate(119,276.3622)">
		<polygon id="polygon2989" class="st0" points="259.1,55.4 242.9,237 170,257.3 97.3,237.1 81.1,55.4 		"/>
		<polygon id="polygon2991" class="st1" points="229,225.5 242.8,70.2 170.1,70.2 170.1,241.8 		"/>
		<polygon id="polygon2993" class="st2" points="118.2,137.6 120.2,159.9 170.1,159.9 170.1,137.6 		"/>
		<polygon id="polygon2995" class="st2" points="170.1,92.5 170,92.5 114.2,92.5 116.2,114.8 170.1,114.8 		"/>
		<polygon id="polygon2997" class="st2" points="170.1,218.7 170.1,195.5 170,195.5 145.2,188.8 143.6,171.1 131.5,171.1 
			121.2,171.1 124.3,206 170,218.7 		"/>
		<path id="path2999" d="M123,6h27v11.3h-15.7v11.3H150v11.3h-27V6z"/>
		<path id="path3001" d="M155.4,6h27v9.8h-15.7v2h15.7v22.6h-27V30h15.7v-2h-15.7V6z"/>
		<path id="path3003" d="M187.7,6h27v9.8H199v2h15.7v22.6h-27V30h15.7v-2h-15.7V6z"/>
		<polygon id="polygon3005" class="st3" points="197.4,159.9 194.9,188.8 170,195.5 170,218.7 215.7,206 216,202.3 221.3,143.6 
			221.8,137.6 225.8,92.5 170,92.5 170,114.8 201.4,114.8 199.4,137.6 170,137.6 170,159.9 		"/>
	</g>
</g>
<path class="st4" d="M472.8,143.1c-9.4,0-17.6,2.3-24.5,5.7c-2.5-5-5-9.4-5.5-12.7c-0.5-3.8-1.1-6.1-0.5-10.7
	c0.6-4.5,3.3-11,3.2-11.5c0-0.5-0.6-2.8-6-2.9s-10.1,1-10.7,2.5s-1.6,4.7-2.3,8c-0.9,4.9-10.9,22.6-16.5,31.8
	c-1.8-3.6-3.4-6.8-3.8-9.3c-0.5-3.8-1.1-6.1-0.5-10.7s3.3-11,3.2-11.5c0-0.5-0.6-2.8-6-2.9s-10.1,1-10.7,2.5s-1.1,4.8-2.3,8
	c-1.1,3.3-14.3,32.7-17.8,40.3c-1.8,3.9-3.3,7-4.4,9.1l0,0c0,0,0,0.1-0.2,0.4c-0.9,1.8-1.5,2.8-1.5,2.8s0,0,0,0
	c-0.7,1.3-1.5,2.6-1.9,2.6c-0.3,0-0.8-3.6,0.1-8.4c2-10.2,6.7-26.1,6.6-26.7c0-0.3,0.9-3.1-3.1-4.5c-3.9-1.4-5.2,0.9-5.6,0.9
	s-0.6,0.8-0.6,0.8s4.3-17.9-8.2-17.9c-7.8,0-18.6,8.5-23.9,16.2c-3.4,1.8-10.5,5.7-18.2,9.9c-2.9,1.6-5.9,3.3-8.7,4.8
	c-0.2-0.2-0.4-0.4-0.6-0.6c-15.1-16.1-43.1-27.6-41.9-49.2c0.4-7.9,3.2-28.6,53.7-53.8c41.6-20.5,74.7-14.8,80.4-2.2
	c8.2,18-17.7,51.4-60.7,56.2c-16.4,1.8-25-4.5-27.2-6.9c-2.3-2.5-2.6-2.6-3.5-2.1c-1.4,0.7-0.5,3,0,4.2c1.3,3.4,6.6,9.3,15.5,12.2
	c7.9,2.6,27.1,4,50.4-5c26-10.1,46.4-38.1,40.4-61.5c-6-23.8-45.5-31.7-82.9-18.4c-22.2,7.9-46.3,20.3-63.7,36.5
	c-20.6,19.3-23.9,36-22.5,43c4.8,24.9,39.1,41.1,52.8,53.1c-0.7,0.4-1.3,0.7-1.9,1c-6.9,3.4-33,17.1-39.6,31.6
	c-7.4,16.4,1.2,28.1,6.9,29.7c17.6,4.9,35.8-3.9,45.5-18.4c9.7-14.5,8.5-33.4,4-42c0-0.1-0.1-0.2-0.2-0.3c1.8-1,3.6-2.1,5.4-3.2
	c3.5-2.1,7-4,9.9-5.6c-1.7,4.6-2.9,10.1-3.5,18c-0.7,9.3,3.1,21.3,8,26.1c2.2,2.1,4.8,2.1,6.5,2.1c5.8,0,8.4-4.8,11.4-10.6
	c3.6-7,6.8-15.2,6.8-15.2s-4,22,6.9,22c4,0,8-5.1,9.7-7.8c0,0,0,0,0,0s0.1-0.1,0.3-0.5c0.4-0.6,0.6-1,0.6-1s0,0,0-0.1
	c1.6-2.8,5.1-9,10.4-19.5c6.8-13.4,13.4-30.2,13.4-30.2s0.6,4.1,2.6,10.9c1.2,4,3.7,8.4,5.6,12.6c-1.6,2.2-2.6,3.5-2.6,3.5s0,0,0,0
	c-1.3,1.7-2.7,3.5-4.2,5.3c-5.4,6.4-11.8,13.8-12.7,15.9c-1,2.5-0.8,4.3,1.2,5.8c1.4,1.1,4,1.2,6.6,1.1c4.8-0.3,8.2-1.5,9.9-2.3
	c2.6-0.9,5.7-2.4,8.5-4.5c5.3-3.9,8.5-9.5,8.2-16.8c-0.1-4-1.5-8.1-3.1-11.9c0.5-0.7,0.9-1.4,1.4-2.1c8.3-12.2,14.8-25.6,14.8-25.6
	s0.6,4.1,2.6,10.9c1,3.5,3,7.2,4.8,10.9c-7.9,6.4-12.7,13.8-14.4,18.6c-3.1,9-0.7,13,3.9,14c2.1,0.4,5-0.5,7.2-1.5
	c2.8-0.9,6-2.4,9.1-4.7c5.3-3.9,10.4-9.3,10.1-16.7c-0.1-3.4-1-6.7-2.3-9.9c6.7-2.8,15.3-4.3,26.2-3c23.5,2.8,28.1,17.4,27.3,23.6
	c-0.9,6.2-5.8,9.5-7.5,10.6s-2.2,1.4-2,2.1c0.2,1.1,1,1,2.4,0.8c1.9-0.3,12.3-5,12.8-16.3C511.1,158.8,497.3,143,472.8,143.1z
	 M291.5,204.3c-7.8,8.5-18.7,11.7-23.4,9c-5-2.9-3.1-15.5,6.5-24.4c5.8-5.5,13.3-10.6,18.3-13.7c1.1-0.7,2.8-1.7,4.8-2.9
	c0.3-0.2,0.5-0.3,0.5-0.3l0,0c0.4-0.2,0.8-0.5,1.2-0.7C303,184,299.7,195.3,291.5,204.3z M348.3,165.6c-2.7,6.6-8.4,23.6-11.9,22.6
	c-3-0.8-4.8-13.6-0.6-26.3c2.1-6.4,6.6-14,9.2-16.9c4.2-4.7,8.9-6.3,10.1-4.4C356.6,143.1,350,161.5,348.3,165.6z M395.1,188.1
	c-1.1,0.6-2.2,1-2.7,0.7c-0.3-0.2,0.5-1,0.5-1s5.9-6.3,8.2-9.2c1.3-1.7,2.9-3.7,4.6-5.9c0,0.2,0,0.4,0,0.6
	C405.7,180.9,398.4,186,395.1,188.1z M431.3,179.8c-0.8-0.6-0.7-2.6,2.1-8.7c1.1-2.4,3.7-6.5,8-10.4c0.5,1.6,0.8,3.1,0.8,4.5
	C442.2,174.8,435.4,178.3,431.3,179.8z"/>
</svg>
