<svg width="91" height="135" viewBox="0 0 91 135" fill="none" xmlns="http://www.w3.org/2000/svg">
<g clip-path="url(#clip0_423_2212)">
<path d="M22.5482 135C34.99 135 45.0877 124.92 45.0877 112.5V90H22.5482C10.1065 90 0.00878906 100.08 0.00878906 112.5C0.00878906 124.92 10.1065 135 22.5482 135Z" fill="#0ACF83"/>
<path d="M0.00878906 67.5C0.00878906 55.08 10.1065 45 22.5482 45H45.0877V90H22.5482C10.1065 90 0.00878906 79.92 0.00878906 67.5Z" fill="#A259FF"/>
<path d="M0.00927734 22.5C0.00927734 10.08 10.1069 0 22.5487 0H45.0882V45H22.5487C10.1069 45 0.00927734 34.92 0.00927734 22.5Z" fill="#F24E1E"/>
<path d="M45.0879 0H67.6273C80.0691 0 90.1668 10.08 90.1668 22.5C90.1668 34.92 80.0691 45 67.6273 45H45.0879V0Z" fill="#FF7262"/>
<path d="M90.1668 67.5C90.1668 79.92 80.0691 90 67.6273 90C55.1856 90 45.0879 79.92 45.0879 67.5C45.0879 55.08 55.1856 45 67.6273 45C80.0691 45 90.1668 55.08 90.1668 67.5Z" fill="#1ABCFE"/>
</g>
<defs>
<clipPath id="clip0_423_2212">
<rect width="90.1758" height="135" fill="white"/>
</clipPath>
</defs>
</svg>
