<?xml version="1.0" encoding="UTF-8"?>
<svg id="Calque_1" data-name="Calque 1" xmlns="http://www.w3.org/2000/svg" viewBox="0 0 231.38 63.62">
  <defs>
    <style>
      .cls-1 {
        fill: #02303a;
      }

      .cls-2 {
        fill: #bbc7c9;
      }

      .cls-3 {
        fill: #375b63;
      }
    </style>
  </defs>
  <path class="cls-1" d="m14.13,23.36c.65,1.12,1.23,2.12,1.81,3.12,1.2,2.06,2.38,4.14,3.6,6.19,1.15,1.95,2.85,3.14,5.09,3.54,1.57.28,3.04-.03,4.43-.76,3.83-2,7.33-4.5,10.59-7.33.19-.16.38-.33.54-.52.45-.53.45-1.09.03-1.58-.42-.49-1.1-.59-1.65-.23-.28.18-.52.41-.77.63-3.09,2.64-6.39,4.98-10.02,6.83-2.15,1.1-4.07.3-5.21-.81-.33-.32-.62-.72-.85-1.12-1.84-3.16-3.63-6.36-5.52-9.5-1.35-2.24-.71-5.4,2.08-6.64,2.61-1.16,5.26-2.21,8.03-2.95,4-1.07,8.05-1.62,12.19-1.45,4.56.19,8.93,1.27,13.17,2.94,3.72,1.47,7.22,3.4,10.82,5.13,1.67.8,3.38,1.54,5.13,2.17,1.55.57,3.17.8,4.83.48,3.16-.61,5.91-3.55,6.29-6.75.58-4.88-3.21-8.87-7.98-8.81-1.48.02-2.87.45-4.05,1.34-1.08.82-1.82.52-2.52-.3-.34-.4-.74-.75-1.11-1.13-.9-.93-.87-1.72.1-2.55,2.26-1.93,4.86-3.04,7.85-3.26,3.21-.24,6.18.4,8.87,2.2,2.98,1.99,4.92,4.78,5.99,8.17,1.42,4.48,1.02,8.88-.85,13.16-1.5,3.41-3.58,6.45-6.15,9.15-2.22,2.34-4.55,4.57-7.18,6.45-3.27,2.34-5.52,5.41-6.99,9.12-.93,2.36-1.61,4.79-1.95,7.3-.29,2.2-.46,4.41-.65,6.62-.08.95-.45,1.38-1.39,1.39-1.94.02-3.89.01-5.83,0-.77,0-1.13-.34-1.33-1.12-.16-.64-.26-1.31-.5-1.93-1.34-3.41-3.86-5.33-7.48-5.78-4.59-.57-8.89,2.98-9.55,7.3-.02.11-.04.22-.07.33-.19.87-.55,1.19-1.42,1.2-1.92.01-3.83.01-5.75,0-.84,0-1.19-.29-1.44-1.11-.22-.74-.35-1.52-.66-2.23-1.41-3.21-3.86-5.04-7.36-5.49-4.05-.52-8.77,2.44-9.58,7.28,0,.05-.01.11-.02.17-.18,1.08-.52,1.38-1.6,1.39-1.89,0-3.78,0-5.67,0-.03,0-.06,0-.08,0-.91-.02-1.26-.27-1.45-1.16-.21-1-.39-2.01-.53-3.03-.51-3.73-.55-7.49-.14-11.22.93-8.34,4.08-15.69,10.13-21.64,1.14-1.12,2.43-2.1,3.72-3.2Zm45.3,5.43c.99-.85,1.28-1.85.88-2.86-.41-1.03-1.38-1.68-2.46-1.66-1.05.02-2.02.76-2.36,1.8-.12.36-.19.68.27.9,1.22.59,2.43,1.2,3.67,1.82Z"/>
  <path class="cls-1" d="m113.58,46.31c.11,0,.22,0,.33,0,.04.08.09.17.13.25.07-.08.14-.17.2-.25.33,0,.67,0,1,0,.04.09.09.17.13.26.07-.09.14-.17.2-.26.5,0,1,0,1.5,0,.34.46.66.46,1,0,1.44,0,2.89,0,4.33,0,.04.34.3.33.55.33.59,0,1.19,0,1.78,0,.01.25.03.5.03.75,0,4.11,0,8.22.02,12.33,0,.48-.14.77-.53,1.02-2.99,1.97-6.25,3.1-9.83,3.23-2.39.09-4.79.09-7.12-.52-5.15-1.36-9.06-4.29-11.42-9.17-1.61-3.31-1.9-6.79-1.55-10.39.26-2.62,1.03-5.05,2.37-7.29,2.26-3.77,5.58-6.07,9.8-7.18,1.81-.48,3.66-.71,5.52-.71,3.39.01,6.69.55,9.7,2.25,1.11.63,2.12,1.4,3.04,2.3-.65,1.01-1.26,2-1.92,2.96-.68.98-1.46,1.16-2.51.55-1.44-.84-2.91-1.6-4.55-2.02-2.44-.63-4.88-.68-7.31.03-2.85.84-4.96,2.57-6.22,5.26-1.85,3.98-1.98,8.06-.33,12.11,1.47,3.61,4.24,5.75,8.08,6.46,2.87.53,5.63.18,8.29-1.02.39-.17.54-.38.54-.81-.02-1.72,0-3.44,0-5.17,0-.11-.03-.21-.05-.38-.22-.02-.43-.07-.64-.07-1.19,0-2.39.02-3.58,0-.95,0-1.32-.36-1.33-1.3,0-1.14.03-2.27.05-3.41.09-.05.18-.11.27-.16Z"/>
  <path class="cls-1" d="m186.74,60.63c-.89.71-1.72,1.5-2.67,2.11-2.59,1.64-7.15,1.93-10.03-.47-1.52-1.27-2.51-2.9-3.12-4.73-.37-1.1-.63-2.25-.74-3.4-.27-2.66-.26-5.33.61-7.91,1.07-3.2,2.95-5.74,6.21-6.95,2.3-.85,4.69-.92,7.01-.02.89.34,1.67.95,2.58,1.49v-12.54h5.89c.19.64.28,32.46.09,35.42-1.29,0-2.58.03-3.88-.01-.62-.02-1.01-.43-1.16-1.03-.17-.64-.32-1.29-.49-1.93-.03-.06-.06-.11-.09-.17-.07.05-.14.1-.2.15Zm-.15-9.74c0-1.64,0-3.28,0-4.92,0-.39-.12-.68-.39-.96-1.5-1.56-3.36-2.01-5.42-1.65-1.99.35-3.19,1.7-3.87,3.53-.83,2.24-.86,4.57-.57,6.9.12.95.39,1.91.76,2.8.81,1.94,2.62,2.86,4.72,2.62,1.73-.2,3.06-1.06,4.25-2.25.37-.38.54-.79.53-1.34-.03-1.58-.01-3.17,0-4.75Z"/>
  <path class="cls-1" d="m214.92,52.3c.07,1.76.53,3.39,1.61,4.8,1.1,1.44,2.62,2.08,4.39,2.22,1.77.13,3.41-.3,4.96-1.13.42-.22.82-.47,1.24-.68,1.05-.53,1.84-.35,2.56.55.48.61.95,1.22,1.49,1.92-.62.8-1.39,1.42-2.23,1.95-3.03,1.9-6.36,2.3-9.85,1.96-2.86-.28-5.17-1.57-7.07-3.66-1.55-1.71-2.44-3.78-2.87-6.01-.48-2.45-.43-4.91.26-7.34,1.38-4.84,5.54-8.03,10.58-8.1,1.25-.02,2.49-.03,3.72.28,3.62.92,5.98,3.14,7.05,6.72.51,1.69.77,3.41.5,5.17-.15,1-.43,1.21-1.44,1.21-4.69,0-9.39,0-14.08,0-.22,0-.44.02-.66.02-.06.04-.11.07-.17.11Zm10.98-3.86c.01-.18.04-.31.03-.44-.16-2.55-1.71-4.72-4.75-4.92-3.06-.19-5.65,1.57-6.09,5.36h10.81Z"/>
  <path class="cls-1" d="m160.58,60.74c-1.11.95-2.19,1.82-3.48,2.37-2.38,1.03-4.84,1.2-7.32.52-2.55-.7-4.12-2.75-4.39-5.37-.3-2.92,1.01-4.89,3.39-6.33,1.45-.88,3.07-1.27,4.69-1.63,2.12-.47,4.27-.71,6.51-.69.02-.23.08-.44.06-.64-.09-.94-.11-1.89-.32-2.8-.4-1.72-1.67-2.63-3.43-2.72-1.64-.08-3.12.34-4.52,1.17-.57.33-1.16.65-1.78.87-.93.32-1.7-.04-2.24-.82-.45-.66-.84-1.37-1.36-2.23.19-.11.4-.2.57-.35,2.27-1.93,4.88-3.01,7.84-3.3,1.47-.14,2.93-.19,4.38.15,3.49.83,5.59,3.03,6.35,6.5.22,1.02.32,2.09.33,3.13.04,4.89.02,9.77.02,14.66,0,.11-.01.21-.03.44-1.17-.03-2.32.08-3.47-.08-.58-.09-1.01-.43-1.2-1.03-.15-.48-.3-.95-.45-1.42-.04-.12-.1-.23-.17-.39Zm-.53-7.4c-.24-.03-.38-.06-.51-.05-1.24.12-2.49.21-3.71.4-1.2.19-2.39.49-3.43,1.18-.52.35-.94.78-1.15,1.38-.59,1.62.34,3.22,2.14,3.53,2.58.45,4.67-.53,6.41-2.38.14-.15.25-.39.25-.59.02-1.13.01-2.27.01-3.48Z"/>
  <path class="cls-1" d="m198.48,28.19h5.93v35.42h-5.93V28.19Z"/>
  <path class="cls-1" d="m129.75,39.13c1.19,0,2.39-.04,3.58-.02,1.05.01,1.36.3,1.54,1.35.1.6.16,1.21.25,1.81.03.22.08.43.14.78.19-.28.32-.45.42-.63.6-1.06,1.4-1.93,2.35-2.67,1.7-1.31,4.46-1.47,6.38-.35-.07.92-.13,1.88-.21,2.84-.03.41-.08.83-.13,1.24-.11.91-.4,1.17-1.29,1.13-.42-.02-.83-.07-1.24-.12-2.72-.34-5.1,1.24-5.83,3.88-.09.31-.09.66-.09.99,0,4.53,0,9.05-.01,13.58,0,.19,0,.38,0,.63h-5.93c-.02-.15-.07-.31-.07-.47,0-7.86,0-15.72,0-23.58,0-.08.02-.17.02-.25.04-.06.08-.11.12-.17Z"/>
  <path class="cls-1" d="m124.74,46.63c-.59,0-1.19,0-1.78,0-.25,0-.5.01-.55-.33.66-.01,1.31-.02,1.97-.04.25,0,.45.03.36.36Z"/>
  <path class="cls-1" d="m118.08,46.31c-.34.46-.66.46-1,0h1Z"/>
  <path class="cls-1" d="m114.25,46.31c-.07.08-.14.17-.2.25-.04-.08-.09-.17-.13-.25.11,0,.22,0,.33,0Z"/>
  <path class="cls-1" d="m115.58,46.31c-.07.09-.14.17-.2.26-.04-.09-.09-.17-.13-.26.11,0,.22,0,.33,0Z"/>
  <path class="cls-1" d="m113.58,46.31c-.09.05-.18.11-.27.16.09-.05.18-.11.27-.16Z"/>
  <path class="cls-2" d="m186.74,60.63c.07-.05.14-.1.2-.15.03.06.06.11.09.17-.1,0-.2-.01-.3-.02Z"/>
  <path class="cls-3" d="m129.75,39.13c-.04.06-.08.11-.12.17.04-.06.08-.11.12-.17Z"/>
  <path class="cls-2" d="m214.92,52.3c.06-.04.11-.07.17-.11-.06.04-.11.07-.17.11Z"/>
</svg>