<?xml version="1.0" encoding="utf-8"?>
<!-- Generator: $$$/GeneralStr/196=Adobe Illustrator 27.6.0, SVG Export Plug-In . SVG Version: 6.00 Build 0)  -->
<svg version="1.1" id="Layer_1" xmlns="http://www.w3.org/2000/svg" xmlns:xlink="http://www.w3.org/1999/xlink" x="0px" y="0px"
	 viewBox="0 0 452.7 255.9" style="enable-background:new 0 0 452.7 255.9;" xml:space="preserve">
<style type="text/css">
	.st0{fill:#264DE4;}
	.st1{fill:#2965F1;}
	.st2{fill:#EBEBEB;}
	.st3{fill:#FFFFFF;}
	.st4{fill:#E44D26;}
	.st5{fill:#F16529;}
</style>
<g id="layer1" transform="translate(-193.633,-276.3622)">
	<g id="g3013" transform="translate(119,276.3622)">
		<polygon id="polygon2989" class="st0" points="527.3,50.3 510.8,235.4 436.5,255.9 362.5,235.4 346,50.3 		"/>
		<polygon id="polygon2991" class="st1" points="496.7,223.6 510.8,65.4 436.7,65.4 436.7,240.2 		"/>
		<polygon id="polygon2993" class="st2" points="383.8,134.1 385.8,156.8 436.7,156.8 436.7,134.1 		"/>
		<polygon id="polygon2995" class="st2" points="436.7,88.1 436.6,88.1 379.7,88.1 381.8,110.8 436.7,110.8 		"/>
		<polygon id="polygon2997" class="st2" points="436.7,216.6 436.7,193 436.6,193 411.3,186.2 409.7,168.1 397.4,168.1 386.9,168.1 
			390,203.8 436.6,216.7 		"/>
		<path id="path2999" d="M388.7-0.1h27.5v11.5h-16v11.5h16v11.5h-27.5V-0.1z"/>
		<path id="path3001" d="M421.7-0.1h27.5v10h-16v2h16v23h-27.5V24.4h16v-2h-16V-0.1z"/>
		<path id="path3003" d="M454.7-0.1h27.5v10h-16v2h16v23h-27.5V24.4h16v-2h-16V-0.1z"/>
		<polygon id="polygon3005" class="st3" points="464.5,156.8 461.9,186.2 436.6,193 436.6,216.7 483.1,203.8 483.5,199.9 
			488.8,140.2 489.4,134.1 493.5,88.1 436.6,88.1 436.6,110.8 468.6,110.8 466.5,134.1 436.6,134.1 436.6,156.8 		"/>
	</g>
</g>
<path d="M17.8-0.1h11.5v11.4h10.6V-0.1h11.5v34.5H39.9V22.9H29.4v11.5H17.8 M66.6,11.4H56.4V-0.1h31.8v11.5H78.1v23H66.6 M93.3-0.1
	h12.1l7.4,12.1l7.4-12.1h12.1v34.5h-11.5V17.3l-8.1,12.4l-8.1-12.4v17.1H93.3 M137.9-0.1h11.5V23h16.3v11.4h-27.8"/>
<path class="st4" d="M17.4,235.4L0.9,50.2h181.4l-16.5,185.1l-74.3,20.6"/>
<path class="st5" d="M91.6,240.2V65.4h74.1l-14.1,158"/>
<path class="st2" d="M34.6,88.1h57v22.7H59.5l2.1,23.2h30v22.6H40.8 M41.8,168.1h22.8l1.6,18.1l25.4,6.8v23.7l-46.6-13"/>
<path class="st3" d="M148.4,88.1H91.5v22.7h54.8 M144.2,134H91.5v22.7h28l-2.6,29.5L91.5,193v23.6l46.5-12.9"/>
</svg>
