<svg id="Calque_1" data-name="Calque 1" xmlns="http://www.w3.org/2000/svg" xmlns:xlink="http://www.w3.org/1999/xlink" viewBox="0 0 500 500"><defs><style>.cls-1{fill:url(#Dégradé_sans_nom_5);}.cls-2{fill:#7463a5;}.cls-3{fill:#c6ce62;}.cls-4{fill:url(#Dégradé_sans_nom_5-2);}.cls-5{fill:url(#linear-gradient);}.cls-6{fill:url(#linear-gradient-2);}</style><linearGradient id="Dégradé_sans_nom_5" x1="134.37" y1="187.33" x2="357.76" y2="187.33" gradientUnits="userSpaceOnUse"><stop offset="0" stop-color="#7463a5"/><stop offset="1" stop-color="#c6ce62"/></linearGradient><linearGradient id="Dégradé_sans_nom_5-2" x1="0.19" y1="201.86" x2="499.66" y2="201.86" xlink:href="#Dégradé_sans_nom_5"/><linearGradient id="linear-gradient" x1="271.37" y1="208.4" x2="452.54" y2="208.4" gradientUnits="userSpaceOnUse"><stop offset="0" stop-color="#a3a288"/><stop offset="1" stop-color="#c6ce62"/></linearGradient><linearGradient id="linear-gradient-2" x1="42.57" y1="208.12" x2="226.74" y2="208.12" gradientUnits="userSpaceOnUse"><stop offset="0" stop-color="#7463a5"/><stop offset="1" stop-color="#959190"/></linearGradient></defs><title>Plan de travail 1</title><path class="cls-1" d="M346.57,220.75a10.78,10.78,0,0,1-7.68-3.27c-25.21-25.51-58.18-39.56-92.83-39.56S178.45,192,153.24,217.48a10.66,10.66,0,0,1-15.82-.5,12.65,12.65,0,0,1,.46-17c29.39-29.73,67.81-46.1,108.18-46.1s78.8,16.37,108.18,46.1a12.64,12.64,0,0,1,.47,17A10.83,10.83,0,0,1,346.57,220.75Z"/><path class="cls-2" d="M126.13,255.82c2.88-5.87.77-13.13-4.7-16.22s-12.23-.82-15.11,5.05A178.91,178.91,0,0,0,88.71,311.2h22.47A150.9,150.9,0,0,1,126.13,255.82Z"/><path class="cls-3" d="M385.6,244.22c-2.89-5.87-9.67-8.1-15.13-5s-7.54,10.37-4.65,16.23a153.13,153.13,0,0,1,15.11,55.75h22.49A178.84,178.84,0,0,0,385.6,244.22Z"/><path class="cls-2" d="M249.84,243.35c38.89,0,71.38,29.24,78.52,67.85h23.23a108.75,108.75,0,0,0-40.34-70.56,99.14,99.14,0,0,0-122.82,0,108.75,108.75,0,0,0-40.34,70.56h23.23C178.46,272.59,211,243.35,249.84,243.35Z"/><path class="cls-4" d="M249.84,49.4C114.86,49.4,4.9,161.59.19,301.83a14.7,14.7,0,0,1,11.55-2.2A15.38,15.38,0,0,1,23,310.35C23.39,179.63,125,73.42,249.84,73.42c125.12,0,226.9,106.66,226.9,237.78a251.52,251.52,0,0,1-1.68,29,35.07,35.07,0,0,1,21.21,14.17,276,276,0,0,0,3.39-43.13C499.66,166.61,387.81,49.4,249.84,49.4Z"/><path class="cls-2" d="M39,350.73H35.94a40.93,40.93,0,0,0-12.48,2V325.46a15.3,15.3,0,0,0-11.72-13.82A14.62,14.62,0,0,0,0,314V443.22c0,2.31,1.72,3.84,5.12,4.56a33.92,33.92,0,0,0,6.6.57c8,0,11.72-1.63,11.72-5.13V379.79a18.1,18.1,0,0,1,12.48-5H39c10.26,0,18.61,8.59,18.61,19.15v31.07c0,4.53,0,12.26,6.29,17.24a14.75,14.75,0,0,0,17.16.92V394C81.07,370.14,62.2,350.73,39,350.73Z"/><path class="cls-2" d="M163.31,350.73c-13.38-.47-13.6,2.81-13.71,4.58v64.37a18.41,18.41,0,0,1-12.48,5h-3.07c-10.26,0-18.61-8.59-18.61-19.14v-52.1c0-.34-4.37-3-8.85-2.71C93.6,352.08,92,362.83,92,366.15v39.36c0,23.85,18.86,43.25,42.05,43.25h3.07A41,41,0,0,0,151,446.39c1.64,1.37,5,2,10.42,2,8.28,0,11.66-1.37,11.66-4.72V355.31C173.05,351.39,168,350.89,163.31,350.73Z"/><path class="cls-2" d="M223,350.73a98.79,98.79,0,0,0-15.54,1V328c-.43-7.64-7.06-14.65-15.26-14.41,0,0-5,.24-8.19,2.66v127c0,2.31,1.73,3.84,5.12,4.56a34,34,0,0,0,6.6.57c5.42,0,8.87-.74,10.54-2.31a40.49,40.49,0,0,0,13.67,2.31H223c23.2,0,42.06-19.4,42.06-43.25V394C265,370.14,246.16,350.73,223,350.73Zm18.62,54.37c0,10.55-8.35,19.14-18.62,19.14H219.9a18.1,18.1,0,0,1-12.48-4.94V377.59a39.21,39.21,0,0,1,12.48-2.75H223c10.27,0,18.62,8.59,18.62,19.15Z"/><path class="cls-2" d="M288.1,324.74c-6.31-1.48-11.73,1.63-11.73,4.24V432.89A15.5,15.5,0,0,0,288.1,448c6,1.18,9.9-.94,11.72-2.27V339.83A15.46,15.46,0,0,0,288.1,324.74Z"/><path class="cls-3" d="M394.18,351c-5-1.17-9.23,1.28-9.23,3.34v67.12a20.27,20.27,0,0,1,7.95,16.2,20.63,20.63,0,0,1-2.07,9,13.35,13.35,0,0,0,3.35,1.41,11.37,11.37,0,0,0,9.24-1.79v-83.4A12.18,12.18,0,0,0,394.18,351Z"/><path class="cls-2" d="M359.4,424.24h-2.62c-3.23,0-6.58,0-7.62-1a4.11,4.11,0,0,1-.65-2.62V373.47h13.28c3.36,0,5-3.72,5-11.37s-1.63-11.37-5-11.37H348.51V329.4c0-3.48-3.62-5-11.72-5s-11.73,1.55-11.73,5v21.33h-11.6a15.36,15.36,0,0,0-1.87,7.46c0,8.52,6.94,15,13.47,15.28v48.36c0,24.14,15.23,26.46,32.38,26.52a20.6,20.6,0,0,1,2-24.11Z"/><path class="cls-3" d="M385,427a14.8,14.8,0,0,0-11.28-5.32,14.65,14.65,0,0,0-9.47,3.51,16.54,16.54,0,0,0-1.84,23.15,14.83,14.83,0,0,0,11.31,5.36,15.22,15.22,0,0,0,14-9.76A16.63,16.63,0,0,0,385,427Z"/><path class="cls-3" d="M488.55,363.35c-7.42-8.45-18.2-12.73-32-12.73s-24.65,4.25-32.15,12.63-11.25,20.47-11.25,36.07,3.77,27.76,11.21,36.2,18.27,12.8,32.07,12.8,24.59-4.3,32.07-12.8,11.2-20.58,11.2-36.08S495.92,371.75,488.55,363.35Zm-12.3,36.09c0,28.37-14.95,28.37-19.86,28.37-6.66,0-11.5-2.23-14.77-6.81s-5.09-12-5.09-21.56,1.73-16.86,5.14-21.59,8.17-6.85,14.84-6.85C461.39,371,476.25,371,476.25,399.44Z"/><path class="cls-5" d="M452.48,309.57a232.83,232.83,0,0,0-4.85-37.48c-18.19-85.24-82.05-150.54-162.69-166.37a11.51,11.51,0,0,0-13.38,9.6,12,12,0,0,0,9.16,14c71.62,14.06,128.36,72.15,144.55,148a208.87,208.87,0,0,1,4.32,33.43c0,.18,0,.35,0,.52h22.94Z"/><path class="cls-6" d="M226.58,114.94a11.52,11.52,0,0,0-13.23-9.81C173.15,112.32,136.19,132,106.46,162a221.53,221.53,0,0,0-59,110.08,233.31,233.31,0,0,0-4.9,38.57c0,.2,0,.42,0,.62H65.51a208.1,208.1,0,0,1,4.33-33.95c16.47-77.16,74.32-135.46,147.37-148.53A12,12,0,0,0,226.58,114.94Z"/></svg>