<?xml version="1.0" encoding="utf-8"?>
<!-- Generator: $$$/GeneralStr/196=Adobe Illustrator 27.6.0, SVG Export Plug-In . SVG Version: 6.00 Build 0)  -->
<svg version="1.1" id="Layer_1" xmlns="http://www.w3.org/2000/svg" xmlns:xlink="http://www.w3.org/1999/xlink" x="0px" y="0px"
	 viewBox="0 0 435.5 255.9" style="enable-background:new 0 0 435.5 255.9;" xml:space="preserve">
<style type="text/css">
	.st0{fill:#478AFF;}
	.st1{fill:#53B9FF;}
	.st2{fill:#119EFF;}
	.st3{fill-opacity:0.2;}
</style>
<path class="st0" d="M73.5,40C55,40,40,55,40,73.5S55,107,73.5,107S107,92,107,73.5l0,0C107,55,92,40,73.5,40z"/>
<circle class="st0" cx="121.6" cy="27.7" r="15.3"/>
<path class="st0" d="M140.4,43.1l-0.6-1.4l-1,1.2c-2.5,2.8-5.7,5-9.2,6.3l-1,0.4l0.4,1c12.7,30.6-1.8,65.8-32.4,78.6
	c-30.6,12.7-65.8-1.8-78.6-32.4s1.8-65.8,32.4-78.6c15.7-6.5,33.5-6.1,48.8,1.2l0.9,0.4l0.4-1c1.5-3.5,3.8-6.5,6.8-8.9l1.2-1
	l-1.4-0.7C96.8,2.7,85.2-0.1,73.5,0C32.9,0,0,32.9,0,73.5S32.9,147,73.5,147S147,114.1,147,73.5C147,62.9,144.7,52.5,140.4,43.1
	L140.4,43.1z"/>
<rect x="184.8" y="41.5" class="st0" width="15.5" height="64"/>
<rect x="352.1" y="41.5" class="st0" width="15.5" height="64"/>
<path class="st0" d="M316.3,40c-10.9,0-19.3,6.6-21.2,8.4l0,0l-1-6.9h-12.9v64h15.5V66.8c0-7.6,10.3-13.8,17.9-13.8
	s13.2,7.2,13.2,15.8v36.8h15.5V70.3C343.2,53.5,336,40,316.3,40z"/>
<path class="st0" d="M408.3,93.9c-11.6,0-19.4-9.1-19.4-20.4s7.7-20.4,19.4-20.4c9.9,0,16,9.6,16,9.6l11.2-7.5c-3.2-5-7-8-12.1-11.1
	c-4.4-2.7-9.5-4.1-14.7-4.2c-19.4,0-34.2,14.6-34.3,33.5c0.1,18.9,14.9,33.5,34.3,33.5c5.1,0,10.2-1.5,14.6-4.1
	c5.1-3.1,8.9-6.1,12.1-11.1l-11.2-7.5C424.2,84.2,418.2,93.9,408.3,93.9z"/>
<path id="path3000" class="st0" d="M240.8,40c-18.2-0.3-33.2,14.2-33.5,32.5c0,0.3,0,0.5,0,0.8c0,18.2,13.6,33.8,33.8,33.8
	c18.3,0,33.2-14,33.2-33.4C274.2,51.4,256.8,40,240.8,40z M240.9,53.2c9.6,0,18.7,7.8,18.7,20.4c0,12.3-9.1,20.3-18.8,20.3
	c-10.6,0-19-8.6-19-20.4C221.9,61.8,230.2,53.2,240.9,53.2L240.9,53.2z"/>
<g>
	<path d="M225.5,198c11.8,0,18.7,9.2,18.7,20.7c0,11.5-6.9,20.7-18.7,20.7c-5.7,0-9.9-2.4-12-5.1v17.6h-11v-52.9h10.2v4.8
		C215.2,200.1,219.8,198,225.5,198z M129.4,186.8c15.3,0,23,10.4,24.4,19.4l0,0H142c-1.4-5.4-6.4-9.2-12.7-9.2
		c-8.4,0-14.5,6.7-14.5,16.2c0,9.4,6.1,16.1,14.5,16.1c6.3,0,11.4-3.8,12.7-9.2l0,0h11.7c-1.4,9-9.1,19.4-24.4,19.4
		c-15.2,0-25.7-11.7-25.7-26.2C103.7,198.6,114.2,186.8,129.4,186.8z M174.5,198c5.7,0,10.3,2.1,12.9,5.7v-4.8h10.2v39.6h-10.2v-4.8
		c-2.6,3.6-7.2,5.7-12.9,5.7c-11.8,0-18.7-9.2-18.7-20.7C155.8,207.2,162.7,198,174.5,198z M265.6,198c5.7,0,10.3,2.1,12.9,5.7v-4.8
		h10.2v39.6h-10.2v-4.8c-2.6,3.6-7.2,5.7-12.9,5.7c-11.8,0-18.7-9.2-18.7-20.7C246.9,207.2,253.8,198,265.6,198z M312.2,198
		c12.6,0,18.6,8.7,19.4,15.4h-11.3c-0.9-3.4-4.1-5.9-8.2-5.9c-5.9,0-9.3,4.5-9.3,11.2c0,6.6,3.4,11.2,9.3,11.2c4,0,7.3-2.5,8.2-5.9
		h11.3c-0.8,6.7-6.8,15.4-19.4,15.4c-11.8,0-20.4-8.9-20.4-20.7C291.8,206.9,300.4,198,312.2,198z M388.6,198
		c13,0,21.3,9.4,21.3,20.7s-8.3,20.7-21.3,20.7c-13,0-21.3-9.4-21.3-20.7S375.6,198,388.6,198z M434.2,198.5c0.4,0,1.3,0.1,1.3,0.1
		v10.1c0,0-1.2-0.2-2.1-0.2c-6.4,0-9.7,3.1-9.7,10.4v19.7h-10.9v-39.6h10.1v5.1C424.3,201.7,427.4,198.5,434.2,198.5z M360.6,189.1
		v9.8h8.5v8.7h-8.5v30.9h-11v-49.4H360.6z M344.6,198.9v39.6h-11v-39.6H344.6z M176.9,207.4c-6.1,0-10,4.8-10,11.3
		c0,6.4,3.9,11.3,10,11.3c6.1,0,10-4.8,10-11.3C186.9,212.3,183,207.4,176.9,207.4z M223.2,207.4c-6.1,0-10,4.8-10,11.3
		c0,6.4,3.9,11.3,10,11.3c6.1,0,10-4.8,10-11.3C233.2,212.3,229.3,207.4,223.2,207.4z M267.9,207.4c-6.1,0-10,4.8-10,11.3
		c0,6.4,3.9,11.3,10,11.3c6.1,0,10-4.8,10-11.3C277.9,212.3,274.1,207.4,267.9,207.4z M388.6,207.4c-5.8,0-10.3,4.2-10.3,11.3
		s4.5,11.3,10.3,11.3c5.8,0,10.3-4.2,10.3-11.3S394.4,207.4,388.6,207.4z M339.1,182.7c3.9,0,6.7,2.7,6.7,6.5s-2.8,6.4-6.7,6.4
		c-3.9,0-6.7-2.6-6.7-6.4S335.2,182.7,339.1,182.7z"/>
	<g>
		<polygon class="st1" points="12.9,189.9 0.1,202.7 19.9,222.5 0,242.5 12.8,255.3 32.7,235.4 52.5,255.2 65.3,242.3 		"/>
		<polygon class="st2" points="45.5,222.5 32.7,235.4 52.5,255.2 65.3,242.3 		"/>
		<polygon class="st3" points="45.5,222.5 32.7,235.4 37.6,240.3 		"/>
		<polygon class="st1" points="63,205.1 83,185.1 70.1,172.3 50.2,192.2 30.4,172.4 17.6,185.3 70,237.7 82.8,224.9 		"/>
		<polygon class="st2" points="37.4,205.1 50.2,192.2 30.4,172.4 17.6,185.3 		"/>
		<polygon class="st3" points="37.4,205.1 50.2,192.2 45.3,187.3 		"/>
	</g>
</g>
</svg>
