<?xml version="1.0" encoding="utf-8"?>
<!-- Generator: $$$/GeneralStr/196=Adobe Illustrator 27.6.0, SVG Export Plug-In . SVG Version: 6.00 Build 0)  -->
<svg version="1.1" id="Calque_1" xmlns="http://www.w3.org/2000/svg" xmlns:xlink="http://www.w3.org/1999/xlink" x="0px" y="0px"
	 viewBox="0 0 135 135" style="enable-background:new 0 0 135 135;" xml:space="preserve">
<style type="text/css">
	.st0{fill:#2684FF;}
	.st1{fill:url(#SVGID_1_);}
	.st2{fill:url(#SVGID_00000058573866660321568430000010098449869175434174_);}
</style>
<path class="st0" d="M131.3,65.5L68.2,5.3L1.7,62.4c-2.3,1.7-2.3,5.1-0.4,6.8l63.1,60.2l66.5-57.1C133.2,70.6,133.5,67.5,131.3,65.5
	z M65.9,85.5L46.4,66.8l20.7-17.7l19.5,18.7L65.9,85.5z"/>
<linearGradient id="SVGID_1_" gradientUnits="userSpaceOnUse" x1="63.833" y1="108.9209" x2="37.5753" y2="81.4338" gradientTransform="matrix(1 0 0 -1 0 135.8898)">
	<stop  offset="0.18" style="stop-color:#0052CC"/>
	<stop  offset="1" style="stop-color:#2684FF"/>
</linearGradient>
<path class="st1" d="M67.1,49.1C54.3,36.9,54.7,17.5,68.2,5.6L22.8,44.4l23.7,22.4L67.1,49.1z"/>
<linearGradient id="SVGID_00000181088430831825905210000005438091061576617385_" gradientUnits="userSpaceOnUse" x1="72.9008" y1="31.5436" x2="99.1594" y2="59.031" gradientTransform="matrix(1 0 0 -1 0 135.8898)">
	<stop  offset="0.18" style="stop-color:#0052CC"/>
	<stop  offset="1" style="stop-color:#2684FF"/>
</linearGradient>
<path style="fill:url(#SVGID_00000181088430831825905210000005438091061576617385_);" d="M87,67.8l-21,18
	c12.8,12.2,12.4,32-1.1,43.9l45.8-39.1L87,67.8z"/>
</svg>
