<svg width="116" height="58" viewBox="0 0 116 58" fill="none" xmlns="http://www.w3.org/2000/svg">
<rect x="65" y="11" width="49" height="45" fill="white"/>
<path d="M59.0122 0.687988V57.48H115.804V0.687988H59.0122ZM91.9962 32.184H84.9282V52.52H79.2242V32.184H72.1562V27.72H91.9962V32.184ZM110.472 48.924C109.976 49.916 109.232 50.66 108.364 51.156C107.496 51.776 106.38 52.148 105.264 52.396C104.024 52.644 102.784 52.768 101.42 52.768C100.056 52.768 98.6922 52.644 97.5762 52.396C96.3362 52.148 95.2202 51.776 94.3522 51.404V45.824C95.3442 46.692 96.4602 47.312 97.5762 47.684C98.8162 48.056 99.9322 48.304 101.172 48.304C101.916 48.304 102.536 48.18 103.032 48.056C103.528 47.932 104.024 47.808 104.396 47.56C104.768 47.312 105.016 47.064 105.14 46.816C105.264 46.568 105.388 46.196 105.388 45.824C105.388 45.328 105.264 44.956 105.016 44.46C104.768 44.088 104.396 43.716 103.9 43.344C103.404 42.972 102.908 42.724 102.164 42.352C101.42 41.98 100.8 41.732 100.056 41.484C98.0722 40.616 96.7082 39.624 95.7162 38.508C94.7242 37.392 94.2282 35.904 94.2282 34.292C94.2282 33.052 94.4762 31.936 94.9722 30.944C95.4682 29.952 96.2122 29.208 97.0802 28.588C97.9482 27.968 99.0642 27.596 100.18 27.224C101.42 26.976 102.66 26.852 103.9 26.852C105.14 26.852 106.38 26.976 107.372 27.1C108.364 27.224 109.356 27.472 110.1 27.844V33.052C109.728 32.804 109.232 32.556 108.736 32.308C108.24 32.06 107.744 31.936 107.248 31.812C106.752 31.688 106.256 31.564 105.636 31.44C105.14 31.316 104.644 31.316 104.148 31.316C103.528 31.316 102.908 31.316 102.412 31.44C101.916 31.564 101.42 31.688 101.048 31.936C100.676 32.184 100.428 32.432 100.18 32.68C99.9322 32.928 99.9322 33.3 99.9322 33.672C99.9322 34.044 100.056 34.416 100.304 34.788C100.552 35.16 100.8 35.408 101.296 35.78C101.668 36.028 102.164 36.4 102.784 36.648C103.404 36.896 104.024 37.268 104.768 37.516C105.76 37.888 106.628 38.384 107.496 38.88C108.24 39.376 108.984 39.872 109.48 40.492C110.1 41.112 110.472 41.732 110.844 42.476C111.092 43.22 111.34 44.088 111.34 45.08C111.216 46.816 110.968 47.932 110.472 48.924Z" fill="#3178C6"/>
<path d="M57.2758 0.687988H0.23584V57.728H57.2758V0.687988Z" fill="#F7DF1E"/>
<path d="M38.5517 45.204C39.6677 47.064 41.1557 48.428 43.8837 48.428C46.1157 48.428 47.4797 47.312 47.4797 45.824C47.4797 43.964 45.9917 43.344 43.6357 42.228L42.2717 41.608C38.4277 39.996 35.8237 37.888 35.8237 33.548C35.8237 29.58 38.9237 26.48 43.6357 26.48C46.9837 26.48 49.4637 27.72 51.1997 30.82L46.9837 33.548C46.1157 31.936 45.1237 31.192 43.5117 31.192C41.8997 31.192 40.9077 32.184 40.9077 33.548C40.9077 35.16 41.8997 35.78 44.2557 36.772L45.6197 37.392C50.2077 39.376 52.6877 41.36 52.6877 45.824C52.6877 50.66 48.8437 53.264 43.7597 53.264C38.7997 53.264 35.5757 50.908 33.9637 47.808L38.5517 45.204ZM19.5797 45.7C20.4477 47.188 21.1917 48.428 23.0517 48.428C24.7877 48.428 25.9037 47.684 25.9037 45.08V26.852H31.2357V45.204C31.2357 50.784 28.0117 53.264 23.1757 53.264C18.8357 53.264 16.3557 51.032 15.1157 48.428L19.5797 45.7Z" fill="black"/>
</svg>
