<svg width="1792" height="832" viewBox="0 0 1792 832" fill="none" xmlns="http://www.w3.org/2000/svg">
<g clip-path="url(#clip0_620_2773)">
<path d="M161.3 584.18C161.3 592.67 161.45 601.17 161.22 609.65C161.14 612.6 162.2 613.57 164.87 614.33C207.77 626.53 234.45 654.65 244.53 697.79C260.78 767.35 204.52 834.33 133.21 831.03C84.0404 828.75 40.4604 789.64 32.3604 740.5C24.1904 690.94 47.8304 643.99 92.3904 621.88C98.7404 618.73 105.64 616.61 112.44 614.48C115.24 613.6 116.48 612.79 116.45 609.57C116.26 592.59 116.24 575.61 116.47 558.63C116.52 555.1 115.04 554.33 112.12 553.68C61.4504 542.44 26.9104 511.98 8.91043 463.86C-21.1096 383.61 27.7704 295.61 111.64 277.43C115.46 276.6 116.54 275.27 116.48 271.35C116.21 254.87 116.27 238.39 116.45 221.91C116.49 218.59 115.38 217.48 112.25 216.66C61.8204 203.43 27.4504 155.4 31.0004 103.32C34.5504 51.11 73.0704 8.31995 122.98 1.11995C174.18 -6.26005 223.04 23.42 240.64 72.6C262.51 133.7 227.81 200.02 165.15 216.73C162.29 217.49 161.18 218.53 161.22 221.69C161.4 238.67 161.38 255.65 161.24 272.63C161.22 275.53 162.03 276.48 164.94 277.07C196.57 283.44 222.77 299.15 243.7 323.61C245.7 325.95 247.06 325.9 249.45 324.48C263.72 315.96 278 307.43 292.47 299.27C295.97 297.29 295.83 295.31 294.92 292.15C280.97 243.36 303.23 190.28 347.78 165.93C409.98 131.93 487.28 166.7 503.95 236.18C516 286.4 493.27 336.99 447.8 361.2C407.71 382.54 354.96 373.93 322.73 340.48C319.38 337 317.3 336.95 313.39 339.35C299.94 347.62 286.27 355.52 272.56 363.35C269.6 365.04 268.79 366.39 269.96 369.9C280.09 400.22 280.05 430.67 270.02 461C268.81 464.65 269.57 466.14 272.73 467.94C287.04 476.06 301.23 484.39 315.35 492.84C317.81 494.31 318.97 494.26 321.08 492.15C351.86 461.42 388.58 450.38 430.28 463.28C472.86 476.46 497.96 506.91 505.64 550.51C516.1 609.92 475.95 666.16 416.58 676.94C362.28 686.79 306.71 649.48 294.08 594.87C289.64 575.66 289.68 556.62 295.24 537.69C296.05 534.92 295.54 533.69 293.04 532.25C278.48 523.89 264 515.41 249.61 506.76C246.9 505.13 245.51 505.41 243.47 507.78C222.57 532.02 196.57 547.73 165 553.78C161.75 554.4 161.2 555.82 161.25 558.7C161.41 567.19 161.31 575.68 161.31 584.17L161.3 584.18ZM211.38 415.67C211.46 374.86 179.28 341.75 139.41 341.61C99.1404 341.47 66.4404 374.37 66.3104 415.15C66.1804 456.14 98.5604 489.4 138.64 489.45C179.01 489.5 211.29 456.76 211.37 415.68L211.38 415.67ZM348.92 568.23C348.96 596.52 371.19 619.34 398.68 619.3C426.9 619.26 449.23 596.75 449.15 568.43C449.07 540.13 426.87 517.36 399.36 517.35C371.21 517.35 348.88 539.87 348.92 568.23ZM88.7704 721.34C88.9804 749.41 111.51 772.18 138.99 772.1C166.76 772.02 189.3 748.9 189.09 720.7C188.88 692.27 166.39 669.83 138.35 670.09C110.61 670.35 88.5604 693.15 88.7704 721.34ZM88.7704 109.43C88.2704 137.24 110.22 160.39 137.57 160.9C165.87 161.42 188.5 139.55 189.07 111.12C189.64 82.82 167.58 59.5 139.76 59.01C111.96 58.51 89.2804 80.94 88.7704 109.43ZM449.09 262.32C449.05 234.38 426.62 211.83 398.8 211.78C371.08 211.72 348.79 234.7 348.91 263.2C349.03 291.43 371.57 313.85 399.72 313.73C427.16 313.62 449.13 290.74 449.1 262.32H449.09Z" fill="#242021"/>
<path d="M1791.15 338.64C1791.2 340.46 1791.3 342.29 1791.3 344.11C1791.3 419.05 1791.3 493.99 1791.3 568.93C1791.3 570.75 1791.2 572.58 1791.15 574.4C1790.88 574.68 1790.61 574.95 1790.34 575.23C1773.03 575.29 1755.72 575.27 1738.41 575.47C1735.42 575.5 1735.33 574.13 1735.35 571.88C1735.43 562.27 1735.38 552.65 1735.38 541.76C1734.06 543.7 1733.37 544.66 1732.72 545.65C1719.25 566.13 1699.61 577.3 1676.03 580.93C1636.95 586.94 1601.93 577.82 1573.42 549.32C1552.9 528.8 1542.25 503.24 1538.79 474.78C1534.89 442.66 1540.05 412.14 1557.34 384.29C1586.28 337.67 1646.99 317.26 1695.95 337.66C1712.23 344.44 1725.22 355.21 1735.39 370.34C1735.39 368.53 1735.39 366.72 1735.39 364.92C1735.39 356.93 1735.44 348.95 1735.36 340.96C1735.34 338.7 1735.44 337.31 1738.43 337.35C1755.73 337.57 1773.04 337.58 1790.35 337.66C1790.62 337.99 1790.89 338.33 1791.16 338.66L1791.15 338.64ZM1664.5 529.76C1713.65 530.15 1735.49 488.88 1735.79 455.8C1736.17 414.15 1704.81 382.64 1663.69 382.8C1623.73 382.96 1593.28 415.11 1593.48 457.31C1593.63 490.41 1616.63 530.04 1664.5 529.76Z" fill="#242021"/>
<path d="M1074.92 542.29C1051.4 577.1 1018.06 585.82 979.75 581.58C927.79 575.82 889.92 537.35 879.95 484.47C873.31 449.27 877.7 415.55 896.74 384.58C925.58 337.67 986.4 317.2 1035.67 337.68C1051.88 344.42 1064.8 355.23 1074.91 371.58C1074.91 360.52 1075.06 350.98 1074.83 341.44C1074.75 338.06 1075.85 337.28 1079.07 337.31C1095.05 337.46 1111.04 337.47 1127.02 337.31C1130.11 337.28 1130.89 338.12 1130.88 341.19C1130.79 418.08 1130.8 494.96 1130.87 571.85C1130.87 574.66 1130.14 575.47 1127.3 575.45C1111.15 575.32 1095 575.27 1078.85 575.47C1075.34 575.51 1074.8 574.23 1074.86 571.18C1075.03 561.87 1074.92 552.55 1074.92 542.28V542.29ZM1003.9 529.76C1051.84 530.23 1074.78 491.07 1075.44 456.02C1076.23 414.49 1044.64 382.79 1003.55 382.78C964.02 382.78 933.09 414.72 933.03 456.07C932.97 491.5 957.29 529.95 1003.91 529.75L1003.9 529.76Z" fill="#242021"/>
<path d="M868.05 337.39C857.98 348.29 848.87 358.17 839.74 368.03C817.79 391.72 795.89 415.45 773.8 439.01C771.32 441.66 771.39 443.12 773.46 445.92C804.15 487.55 834.71 529.28 865.3 570.99C866.17 572.17 867 573.37 868.22 575.09C866.33 575.21 864.95 575.38 863.56 575.38C845.41 575.4 827.26 575.29 809.11 575.48C805.71 575.52 803.75 574.39 801.85 571.68C776.13 535.09 750.3 498.57 724.5 462.03C723.55 460.69 722.57 459.37 720.68 456.77V463.1C720.68 498.72 720.61 534.34 720.77 569.95C720.79 574.06 720.2 575.64 715.49 575.53C700.01 575.16 684.52 575.27 669.03 575.48C665.46 575.53 664.72 574.5 664.72 571.07C664.82 467.05 664.83 363.02 664.69 259C664.69 255.01 665.99 254.48 669.47 254.52C684.95 254.7 700.45 254.76 715.93 254.49C720.04 254.42 720.77 255.75 720.76 259.52C720.64 313.28 720.68 367.04 720.68 420.8C720.68 422.61 720.68 424.42 720.68 427.55C722.56 425.57 723.75 424.4 724.86 423.15C749.19 395.79 773.55 368.44 797.8 341C800.06 338.44 802.32 337.26 805.85 337.3C824.67 337.49 843.48 337.39 862.3 337.39H868.04H868.05Z" fill="#242021"/>
<path d="M1380.93 427.89C1383.1 425.52 1384.31 424.23 1385.49 422.91C1409.93 395.41 1434.35 367.89 1458.89 340.47C1460.25 338.96 1462.66 337.54 1464.6 337.52C1484.75 337.31 1504.91 337.39 1525.06 337.4C1525.83 337.4 1526.59 337.52 1528.21 337.65C1517.49 349.25 1507.38 360.2 1497.25 371.14C1476.33 393.74 1455.45 416.4 1434.39 438.87C1431.8 441.63 1431.86 443.24 1434.02 446.16C1464.62 487.67 1495.08 529.28 1525.58 570.86C1526.52 572.15 1527.45 573.44 1528.87 575.4C1513.79 575.4 1499.54 575.43 1485.29 575.39C1478.48 575.37 1470.62 577.27 1465.18 574.5C1459.92 571.83 1457.14 564.27 1453.3 558.84C1430.45 526.52 1407.61 494.19 1384.75 461.87C1383.84 460.59 1382.85 459.36 1380.94 456.85V463.67C1380.94 499.29 1380.88 534.92 1381.02 570.54C1381.03 574.31 1380.25 575.56 1376.21 575.5C1360.56 575.24 1344.9 575.3 1329.24 575.47C1326 575.5 1325.11 574.66 1325.11 571.37C1325.2 467.16 1325.21 362.95 1325.09 258.74C1325.09 254.95 1326.42 254.5 1329.66 254.54C1345.15 254.69 1360.64 254.75 1376.13 254.51C1380.05 254.45 1381.03 255.51 1381.02 259.41C1380.89 313.35 1380.93 367.28 1380.93 421.22V427.89Z" fill="#242021"/>
<path d="M1249.98 479.02C1249.98 509.64 1249.9 540.26 1250.08 570.89C1250.1 574.69 1249.1 575.54 1245.41 575.49C1229.93 575.27 1214.44 575.26 1198.96 575.49C1195.07 575.55 1194.05 574.54 1194.06 570.62C1194.19 509.71 1194.16 448.8 1194.14 387.89C1194.14 380.09 1194.89 381.24 1187.59 381.18C1181.26 381.12 1174.93 381.07 1168.61 381.22C1165.98 381.28 1165.16 380.38 1165.18 377.78C1165.29 365.47 1165.32 353.15 1165.16 340.84C1165.12 337.82 1166.32 337.29 1168.95 337.36C1174.61 337.51 1180.27 337.41 1185.93 337.41C1194.15 337.41 1193.8 337.39 1194.23 329.41C1194.78 319.14 1194.86 308.67 1197.06 298.71C1203.07 271.55 1221.71 256.98 1248.1 252C1259.64 249.82 1271.57 249.72 1283.31 248.55C1286.41 248.24 1287.28 249.29 1287.23 252.37C1287.07 264.35 1287.07 276.34 1287.25 288.32C1287.3 291.45 1286.2 292.32 1283.26 292.3C1258.5 292.11 1250.33 304.5 1249.96 326.13C1249.76 337.41 1249.66 337.4 1260.93 337.4C1268.26 337.4 1275.59 337.52 1282.91 337.34C1285.94 337.27 1287.32 337.8 1287.25 341.36C1287.01 353.34 1287.08 365.32 1287.23 377.3C1287.27 380.39 1286.28 381.27 1283.24 381.22C1273.75 381.05 1264.25 381.39 1254.77 381.06C1250.63 380.92 1249.87 382.41 1249.89 386.16C1250.02 417.11 1249.96 448.07 1249.96 479.02H1249.98Z" fill="#242021"/>
</g>
<defs>
<clipPath id="clip0_620_2773">
<rect width="1791.3" height="831.14" fill="white"/>
</clipPath>
</defs>
</svg>
