<?xml version="1.0" encoding="utf-8"?>
<!-- Generator: $$$/GeneralStr/196=Adobe Illustrator 27.6.0, SVG Export Plug-In . SVG Version: 6.00 Build 0)  -->
<svg version="1.1" id="Calque_1" xmlns="http://www.w3.org/2000/svg" xmlns:xlink="http://www.w3.org/1999/xlink" x="0px" y="0px"
	 viewBox="0 0 94.3 31.5" style="enable-background:new 0 0 94.3 31.5;" xml:space="preserve">
<style type="text/css">
	.st0{fill:#000400;}
	.st1{fill:url(#SVGID_1_);}
	.st2{fill:url(#SVGID_00000042698317611963876230000004767893632338172317_);}
	.st3{fill:url(#SVGID_00000129173472312987539900000016900139865468544933_);}
</style>
<g transform="translate(.129)">
	<g>
		<path class="st0" d="M36.5,7.6h3.7v7.3L47,7.6h4.4l-6.8,7.1l7.1,9.6h-4.4l-5.2-7.1l-1.9,2v5.1h-3.7V7.6z M49.8,18L49.8,18
			c0-3.7,3-6.7,7-6.7c4,0,6.9,2.9,6.9,6.7v0c0,3.7-3,6.7-7,6.7C52.7,24.7,49.8,21.7,49.8,18z M60.1,18L60.1,18
			c0-1.9-1.4-3.6-3.3-3.6c-2.1,0-3.3,1.6-3.3,3.5v0c0,1.9,1.4,3.5,3.3,3.5C58.8,21.5,60.1,19.9,60.1,18L60.1,18z"/>
		<path class="st0" d="M64.7,20.7v-6h-1.5v-3.1h1.5V8.3h3.6v3.3h3v3.1h-3v5.5c0,0.8,0.4,1.2,1.2,1.2c0.6,0,1.2-0.2,1.8-0.5v2.9
			c-0.8,0.5-1.6,0.7-2.9,0.7C66.2,24.6,64.7,23.7,64.7,20.7L64.7,20.7z M72.4,6.9H76v17.5h-3.6V6.9z M77.3,6.9h3.8v3.2h-3.8
			L77.3,6.9z M77.4,11.5H81v12.8h-3.6V11.5z M82.4,11.5h3.6v1.8c0.8-1.1,1.9-2.1,3.8-2.1c2.8,0,4.4,1.8,4.4,4.8v8.3h-3.6v-7.2
			c0-1.7-0.8-2.6-2.2-2.6c-1.4,0-2.3,0.9-2.3,2.6v7.1h-3.6L82.4,11.5z"/>
	</g>
	
		<linearGradient id="SVGID_1_" gradientUnits="userSpaceOnUse" x1="-184.0777" y1="319.4039" x2="-176.1666" y2="327.3149" gradientTransform="matrix(3.7037 0 0 -3.7037 676.3419 1211.9237)">
		<stop  offset="0.108" style="stop-color:#C757BC"/>
		<stop  offset="0.173" style="stop-color:#CD5CA9"/>
		<stop  offset="0.492" style="stop-color:#E8744F"/>
		<stop  offset="0.716" style="stop-color:#F88316"/>
		<stop  offset="0.823" style="stop-color:#FF8900"/>
	</linearGradient>
	<path class="st1" d="M15.7,0L-0.1,16.6v14.9l15.8-15.8L31.4,0L15.7,0z"/>
	
		<linearGradient id="SVGID_00000055688442442805258460000010869373900188104068_" gradientUnits="userSpaceOnUse" x1="-179.9336" y1="317.1849" x2="-176.0777" y2="321.0409" gradientTransform="matrix(3.7037 0 0 -3.7037 676.3419 1211.9237)">
		<stop  offset="0.296" style="stop-color:#00AFFF"/>
		<stop  offset="0.694" style="stop-color:#5282FF"/>
		<stop  offset="1" style="stop-color:#945DFF"/>
	</linearGradient>
	<path style="fill:url(#SVGID_00000055688442442805258460000010869373900188104068_);" d="M-0.1,31.5l15.8-15.8l15.7,15.8H-0.1z"/>
	
		<linearGradient id="SVGID_00000031202580398366744340000009230878563944059323_" gradientUnits="userSpaceOnUse" x1="-182.7489" y1="324.8742" x2="-180.0439" y2="327.5792" gradientTransform="matrix(3.7037 0 0 -3.7037 676.3419 1211.9237)">
		<stop  offset="0.296" style="stop-color:#00AFFF"/>
		<stop  offset="0.694" style="stop-color:#5282FF"/>
		<stop  offset="1" style="stop-color:#945DFF"/>
	</linearGradient>
	<path style="fill:url(#SVGID_00000031202580398366744340000009230878563944059323_);" d="M-0.1,0h15.8L-0.1,16.6V0z"/>
</g>
</svg>
