<?xml version="1.0" encoding="utf-8"?>
<!-- Generator: $$$/GeneralStr/196=Adobe Illustrator 27.6.0, SVG Export Plug-In . SVG Version: 6.00 Build 0)  -->
<svg version="1.1" xmlns="http://www.w3.org/2000/svg" xmlns:xlink="http://www.w3.org/1999/xlink" x="0px" y="0px"
	 viewBox="0 0 100 88.7" style="enable-background:new 0 0 100 88.7;" xml:space="preserve">
<style type="text/css">
	.st0{fill:#05444C;}
	.st1{fill:#10AAC7;}
	.st2{fill:#718182;}
</style>
<g id="Calque_2">
</g>
<g id="Calque_1">
	<g>
		<g>
			<path class="st0" d="M69.8,45.9c-0.8,0-1.6,0-2.3-0.1v12.1H9.2V20.3c0-0.2,0.2-0.4,0.4-0.4h34.7c0-2.3,0.4-4.6,1-6.7H7.8
				c-2.9,0-5.3,2.4-5.3,5.3v49.7c0,2.9,2.4,5.3,5.3,5.3h22.3v8H22c-2,0-3.6,1.6-3.6,3.6s1.6,3.6,3.6,3.6h32.6c2,0,3.6-1.6,3.6-3.6
				s-1.6-3.6-3.6-3.6h-8.1v-8h22.3c2.9,0,5.3-2.4,5.3-5.3V45.5C72.8,45.8,71.3,45.9,69.8,45.9z M11.3,68.1c-1.3,0-2.3-1-2.3-2.3
				s1-2.3,2.3-2.3s2.3,1,2.3,2.3S12.5,68.1,11.3,68.1z M18.2,68.1c-1.3,0-2.3-1-2.3-2.3s1-2.3,2.3-2.3s2.3,1,2.3,2.3
				S19.5,68.1,18.2,68.1z M25.1,68.1c-1.3,0-2.3-1-2.3-2.3s1-2.3,2.3-2.3s2.3,1,2.3,2.3S26.4,68.1,25.1,68.1z"/>
		</g>
		<g>
			<g>
				<path class="st1" d="M96.2,40.8l-9.8-9c2.3-3.3,3.7-7.3,3.7-11.6C90.1,9,81,0,69.9,0S49.7,9.1,49.7,20.2
					c0,11.2,9.1,20.2,20.2,20.2c4.3,0,8.3-1.4,11.6-3.7l9,9.8c0.1,0.1,0.2,0.2,0.2,0.2c1.7,1.5,4.2,1.4,5.8-0.2
					C97.9,44.9,97.8,42.4,96.2,40.8z M55.1,20.3c0-8.2,6.6-14.8,14.8-14.8s14.8,6.6,14.8,14.8S78,35.1,69.8,35.1
					S55.1,28.4,55.1,20.3z"/>
			</g>
			<path class="st1" d="M69.8,10.2c-5.6,0-10.1,4.5-10.1,10.1c0,1.5,1.2,2.7,2.7,2.7s2.7-1.2,2.7-2.7c0-2.6,2.1-4.7,4.7-4.7
				c1.5,0,2.7-1.2,2.7-2.7C72.6,11.4,71.3,10.2,69.8,10.2z"/>
		</g>
		<path class="st2" d="M37,51.4c-1,0-2-0.6-2.4-1.6l-6.1-14.4l-1.8,4.4c-0.4,1-1.3,1.6-2.4,1.6h-7.1c-1.4,0-2.6-1.2-2.6-2.6
			c0-1.4,1.2-2.6,2.6-2.6h5.4l3.6-8.4c0.4-0.9,1.3-1.4,2.4-1.4s2,0.6,2.4,1.4l6,14.4l1.8-4.4c0.4-1,1.3-1.6,2.4-1.6h7
			c1.4,0,2.6,1.2,2.6,2.6c0,1.4-1.2,2.6-2.6,2.6H43l-3.6,8.4C39,50.8,38.1,51.4,37,51.4z"/>
	</g>
</g>
</svg>
