<?xml version="1.0" encoding="utf-8"?>
<!-- Generator: $$$/GeneralStr/196=Adobe Illustrator 27.6.0, SVG Export Plug-In . SVG Version: 6.00 Build 0)  -->
<svg version="1.1" id="Calque_1" xmlns="http://www.w3.org/2000/svg" xmlns:xlink="http://www.w3.org/1999/xlink" x="0px" y="0px"
	 viewBox="0 0 800 659.7" style="enable-background:new 0 0 800 659.7;" xml:space="preserve">
<style type="text/css">
	.st0{fill:#6DB33F;}
	.st1{fill:#FFFFFF;}
</style>
<g>
	<path class="st0" d="M423.7,54.1c24.5,0,48.5,19.4,48.5,54.3v0.4c0,34.7-23.8,54.3-48.5,54.3c-17.3,0-28.2-8.7-35.6-18.5v36.9
		c0,6.5-5.1,11.8-11.6,12l-0.4,0c-6.5,0-11.8-5.3-11.8-11.8V66.5c-0.2-6.5,5.1-11.8,11.6-12h0.2c6.5,0,11.8,5.1,12,11.6l0,0.4v7.1
		C395.9,62.8,406.8,54.1,423.7,54.1z M740.4,53.9c16.6,0,27.5,8.4,35.2,19.1l0.4,0.5v-7.1l0-0.4c0.2-6.4,5.3-11.4,11.6-11.6l0.4,0
		h0.2c6.5,0.2,11.8,5.4,11.8,11.8l0,0.4v73c0,17.6-4.7,30.7-13.3,39.4c-9.3,9.6-24,14-42.9,14c-14,0-27.8-3.1-40.5-9.3
		c-4-1.3-6.7-5.3-6.7-9.6c0.2-5.6,4.7-9.8,10.2-9.8c1.6,0,2.9,0.2,4.2,0.9c9.8,5.6,20.9,8.2,32,8.2c20.2,0,31.8-9.8,32.9-28.7
		c-7.3,9.6-18.2,18.2-35.6,18.2c-24.4,0-48-19.2-48.5-53.2l0-1v-0.4C691.9,73.2,715.9,53.9,740.4,53.9z M645.4,54.5
		c23.6,0,37.1,15.8,37.1,40v56.3c0.2,6.5-4.9,11.6-11.3,11.8h-0.4c-6.5,0.2-11.8-5.1-12-11.6v-49.2c0-16.2-8-25.6-22.5-25.6
		c-13.8,0-23.6,9.8-23.6,26v48.7c0,6.7-5.3,12-12,12c-6.7,0-12-5.3-12-12l0.2-84.3c-0.2-6.5,5.1-11.8,11.6-12h0.2
		c6.5,0,11.8,5.1,12,11.6l0,0.4v4.9C619.8,60.5,632.3,54.1,645.4,54.5z M314.5,54.3c11.6,0.2,22.7,3.1,32.9,8.5
		c3.6,1.8,5.8,5.1,5.8,9.1c0,5.3-4.4,9.8-9.8,9.8h-0.2c-1.6,0-3.1-0.4-4.7-1.1c-7.6-4.2-15.8-6.7-24.5-7.1
		c-9.3,0-14.7,4.4-14.7,10.2v0.4c0,7.8,11.3,10.9,23.6,14.9c0.3,0.1,0.7,0.2,1,0.3l1,0.3c1.2,0.4,2.4,0.8,3.5,1.2l1,0.4
		c13.3,4.8,25.9,12.3,25.9,28.3v0.4c0,22-17.1,32.9-38.7,32.9c-14.2-0.2-28.2-4.4-40-12.5c-2.9-1.8-4.7-4.9-4.4-8.2
		c0-5.3,4.2-9.8,9.6-9.8h0.2c1.8,0,3.6,0.4,5.1,1.3c8.9,6.2,19.4,9.6,30,10c10.2,0,16.2-4.4,16.2-11.3v-0.4
		c0-8.2-11.1-10.9-23.4-14.7c-1.3-0.4-2.6-0.8-3.9-1.2l-1-0.3c-13.9-4.4-27.9-11.3-27.9-29.2v-0.4C277.3,66.3,293.8,54.3,314.5,54.3
		z M564.7,54.8c6.5,0,11.8,5.1,12,11.6l0,0.4v84.3c0,6.7-5.3,11.8-12,11.8c-6.7,0-11.8-5.3-11.8-11.8V66.8
		c-0.2-6.5,5.1-11.8,11.6-12H564.7z M543.3,64.5v1.8c0,5.8-4,10.7-9.6,11.6c-17.1,2.9-28.7,17.8-28.7,38.5v34.5
		c0,6.7-5.3,11.8-12,11.8c-6.3,0-11.6-4.9-11.8-11.2l0-0.4v-0.2l0.2-84.3c-0.2-6.5,5.1-11.8,11.6-12h0.2c6.5,0,11.8,5.1,12,11.6
		l0,0.4v5.8c1.1-8.9,15.8-17.8,26.2-17.8C537.5,54.1,542.9,58.5,543.3,64.5z M418.3,75c-16.2,0-30.5,13.6-30.5,33.4v0.4
		c0,20,14.2,33.4,30.5,33.4c16.2,0,29.8-12.7,29.8-33.4v-0.4C448.1,88.1,434.6,75,418.3,75z M746,74.8c-16.1,0-29.5,12.9-29.8,32.7
		l0,0.6v0.4c0,20.7,13.3,33.6,29.8,33.6c16.3,0,30.4-13.3,30.5-33l0-0.6v-0.4C776.4,88.3,762.2,74.8,746,74.8z M576.9,25.4v0.4l0,0
		c0,6.7-5.3,12-12,12c-6.7,0-12-5.3-12-12c0-6.5,5.1-11.8,11.6-12l0.4,0C571.4,13.6,576.7,18.9,576.9,25.4z"/>
	<g>
		<path class="st0" d="M32.9,30.3C75.6-11.1,143.9-10,185.2,33c4.7-6.2,8.7-13.1,11.6-20.2c13.6,41.4,21.8,76.1,18.7,103
			c-1.6,22.7-10.5,44.5-25.1,61.8C152.1,222.9,84,228.7,38.7,190.4l0,0l-0.9-0.8l-0.2-0.1c-0.1-0.1-0.2-0.2-0.3-0.2
			c-0.4-0.3-0.8-0.7-1.1-1l-0.1-0.1l-1.4-1.3c-1.3-1.1-2.7-2.3-3.9-3.6l-0.6-0.7C-11.2,139.9-9.8,71.7,32.9,30.3z M48.9,175.1
			c-4-3.1-9.8-2.7-12.9,1.3c-2.7,3.5-2.7,8.3,0,11.6l0.1,0.1l1.7,1.5l0.2,0.1c3.9,2.5,9,2,12-1.5l0.2-0.3
			C53.3,184,52.7,178.2,48.9,175.1z M195.7,23.8C184.6,47.2,157,65,133.2,70.6c-9.2,2.2-17.9,2.7-26.3,3.2l-2.5,0.1
			c-11.4,0.6-22.5,1.2-33.9,5.6c-47.2,18-46.3,74.1-20.5,86.7l0,0l1.6,0.9c0,0,17.1-3.4,34.7-8l1.6-0.4c0.3-0.1,0.5-0.1,0.8-0.2
			l1.6-0.4c7.4-2,14.6-4.1,20.5-6.3c30.7-11.3,64.5-39.4,75.6-71.8c-5.8,33.8-34.9,66.5-64.1,81.4c-15.6,8-27.6,9.8-53.2,18.7
			c-3.1,1.1-5.6,2.2-5.6,2.2c0.1,0,0.3,0,0.4-0.1l0.9-0.1l0,0l0.9-0.1c5.6-0.7,10.7-1,10.7-1c36.3-1.8,93.2,10.2,119.7-25.1
			C223.3,119.7,208.1,61.4,195.7,23.8z"/>
		<path class="st1" d="M48.9,175.1c3.8,3.1,4.4,8.9,1.3,12.9c-3.1,4-8.9,4.4-12.9,1.3c-4-3.1-4.4-8.9-1.3-12.9
			C39.1,172.4,44.9,172,48.9,175.1z M195.7,23.8c12.5,37.6,27.6,95.9,0.4,131.9c-26.5,35.4-83.4,23.4-119.7,25.1
			c0,0-6.5,0.4-12.9,1.3c0,0,2.4-1.1,5.6-2.2c25.6-8.9,37.6-10.7,53.2-18.7c29.1-14.9,58.3-47.6,64.1-81.4
			c-11.1,32.5-44.9,60.5-75.6,71.8c-5.5,2-12.1,4-18.9,5.9l-1.6,0.4c-18.9,5.1-38.6,9-38.6,9l-1.6-0.9
			c-25.8-12.7-26.7-68.7,20.5-86.7c20.7-8,40.3-3.6,62.7-8.9C157,65,184.6,47.2,195.7,23.8z"/>
	</g>
</g>
<g>
	<path d="M255.5,345v46.1h-34.2V264.5h41.5c34.4,0,51.6,12.5,51.6,37.4c0,14.7-7.2,26-21.5,34l36.9,55.2H291L264.1,345H255.5z
		 M255.5,319.3h6.4c12,0,17.9-5.3,17.9-15.8c0-8.7-5.9-13.1-17.6-13.1h-6.8V319.3z"/>
	<path d="M416.4,391.1h-75.2V264.5h75.2V292h-41v19.9h37.9v27.5h-37.9v23.9h41V391.1z"/>
	<path d="M521.4,352.7c0,7.9-2,14.8-6,20.9c-4,6.1-9.7,10.8-17.2,14.2c-7.5,3.4-16.3,5.1-26.4,5.1c-8.4,0-15.5-0.6-21.2-1.8
		s-11.7-3.2-17.8-6.2v-30.5c6.5,3.3,13.3,6,20.3,7.8c7,1.9,13.5,2.8,19.4,2.8c5.1,0,8.8-0.9,11.2-2.6s3.6-4,3.6-6.8
		c0-1.7-0.5-3.2-1.4-4.5c-1-1.3-2.5-2.6-4.6-3.9c-2.1-1.3-7.7-4-16.8-8.1c-8.3-3.8-14.4-7.4-18.6-10.9c-4.1-3.5-7.2-7.6-9.2-12.1
		c-2-4.6-3-10-3-16.2c0-11.7,4.2-20.8,12.7-27.3c8.5-6.5,20.1-9.8,35-9.8c13.1,0,26.5,3,40.1,9.1l-10.5,26.4
		c-11.8-5.4-22.1-8.1-30.7-8.1c-4.4,0-7.7,0.8-9.7,2.3c-2,1.6-3,3.5-3,5.8c0,2.5,1.3,4.7,3.9,6.7c2.6,2,9.5,5.5,20.9,10.7
		c10.9,4.9,18.5,10.2,22.7,15.8S521.4,344.1,521.4,352.7z"/>
	<path d="M596.8,391.1h-34.2v-98.6h-30.9v-28h95.9v28h-30.8V391.1z"/>
</g>
<g>
	<path d="M259.5,659.7c-6.2,0-12.1-0.6-17.7-1.8v-26.5c1.8,0.3,3.8,0.7,5.9,1.2c2.1,0.4,4.3,0.6,6.7,0.6c5.6,0,9.7-1.7,12.1-5.1
		c2.4-3.4,3.6-9.2,3.6-17.4V493.7h34.3v113.9c0,17.1-3.7,30-11.2,38.8C285.7,655.3,274.4,659.7,259.5,659.7z"/>
	<path d="M423.3,533.9c0,14.1-4.2,25-12.5,32.7c-8.3,7.7-20.1,11.5-35.5,11.5h-9.6V620h-34.1V493.7h43.7c16,0,27.9,3.5,35.9,10.5
		C419.3,511.2,423.3,521.1,423.3,533.9z M365.8,550.3h6.2c5.1,0,9.2-1.4,12.2-4.3c3-2.9,4.5-6.9,4.5-11.9c0-8.5-4.7-12.8-14.2-12.8
		h-8.8V550.3z"/>
	<path d="M520.9,620l-6.2-23.7h-41l-6.4,23.7h-37.5L471,493.2h45.5L558.2,620H520.9z M507.6,568.4l-5.4-20.7
		c-1.3-4.6-2.8-10.6-4.6-17.9c-1.8-7.3-3-12.6-3.6-15.7c-0.5,2.9-1.5,7.8-3.1,14.5s-4.9,20-10.1,39.8H507.6z"/>
</g>
</svg>
