<svg width="136" height="66" viewBox="0 0 136 66" fill="none" xmlns="http://www.w3.org/2000/svg">
<g clip-path="url(#clip0_717_5937)">
<path d="M32.9002 23.6358C45.5751 23.6358 55.8502 19.4049 55.8502 14.1858C55.8502 8.96675 45.5751 4.73584 32.9002 4.73584C20.2253 4.73584 9.9502 8.96675 9.9502 14.1858C9.9502 19.4049 20.2253 23.6358 32.9002 23.6358Z" stroke="#DF6C20" stroke-width="3"/>
<path d="M9.9502 14.186V54.686C10.0563 55.9289 10.7549 57.1596 12.0062 58.3078C13.2576 59.456 15.0371 60.4993 17.2432 61.3782C19.4493 62.257 22.0388 62.9541 24.8638 63.4297C27.6888 63.9053 30.694 64.1501 33.7079 64.1501C36.7217 64.1501 39.6851 63.9053 42.429 63.4297C45.1728 62.9541 47.6433 62.257 49.6994 61.3782C51.7555 60.4993 53.357 59.456 54.4123 58.3078C55.4677 57.1596 55.9563 55.9289 55.8502 54.686V14.186M9.9502 27.686C10.0563 28.9289 10.7549 30.1596 12.0062 31.3078C13.2576 32.456 15.0371 33.4993 17.2432 34.3782C19.4493 35.257 22.0388 35.9541 24.8638 36.4297C27.6888 36.9053 30.694 37.1501 33.7079 37.1501C36.7217 37.1501 39.6851 36.9053 42.429 36.4297C45.1728 35.9541 47.6433 35.257 49.6994 34.3782C51.7555 33.4993 53.357 32.456 54.4123 31.3078C55.4677 30.1596 55.9563 28.9289 55.8502 27.686M9.9502 41.186C10.0563 42.4289 10.7549 43.6596 12.0062 44.8078C13.2576 45.956 15.0371 46.9993 17.2432 47.8782C19.4493 48.757 22.0388 49.4541 24.8638 49.9297C27.6888 50.4053 30.694 50.6501 33.7079 50.6501C36.7217 50.6501 39.6851 50.4053 42.429 49.9297C45.1728 49.4541 47.6433 48.757 49.6994 47.8782C51.7555 46.9993 53.357 45.956 54.4123 44.8078C55.4677 43.6596 55.9563 42.4289 55.8502 41.186" stroke="#DF6C20" stroke-width="3"/>
<path d="M81.4999 27.686C81.4999 26.7996 81.3253 25.9219 80.9861 25.1029C80.6469 24.284 80.1497 23.5399 79.5229 22.9131C78.8961 22.2863 78.152 21.7891 77.333 21.4498C76.5141 21.1106 75.6363 20.936 74.7499 20.936C73.8635 20.936 72.9857 21.1106 72.1668 21.4498C71.3478 21.7891 70.6037 22.2863 69.9769 22.9131C69.3501 23.5399 68.8529 24.284 68.5137 25.1029C68.1745 25.9219 67.9999 26.7996 67.9999 27.686C67.9646 28.7399 68.1273 29.7874 68.4749 30.7447C68.8225 31.7021 69.3453 32.5425 70.0016 33.1988C70.6578 33.855 71.4291 34.3087 72.2537 34.5236C73.0783 34.7384 73.9332 34.7085 74.7499 34.436C75.4627 34.4291 76.1684 34.5986 76.8264 34.9347C77.4843 35.2708 78.0815 35.7669 78.5835 36.3944C79.0855 37.0219 79.4824 37.7683 79.7512 38.5907C80.0201 39.4131 80.1556 40.2952 80.1499 41.186C79.9709 42.9762 79.088 44.622 77.6956 45.7613C76.3031 46.9006 74.5151 47.4401 72.7249 47.261C70.9347 47.082 69.2889 46.1992 68.1496 44.8067C67.0103 43.4143 66.4709 41.6262 66.6499 39.836" stroke="#DF6C20" stroke-width="3"/>
<path d="M101.75 47.9359C98.3999 48.4867 94.9652 47.7551 92.1304 45.8867C89.2957 44.0184 87.2689 41.1505 86.4541 37.8547C85.6393 34.5588 86.0963 31.077 87.7339 28.1029C89.3716 25.1289 92.0697 22.8811 95.2905 21.8075C98.5114 20.7339 102.019 20.9133 105.113 22.3099C108.208 23.7065 110.662 26.2179 111.988 29.3434C113.314 32.469 113.413 35.9793 112.266 39.1748C111.119 42.3704 108.811 45.0165 105.8 46.5859M101.75 41.1859L109.85 51.9859" stroke="#DF6C20" stroke-width="3"/>
<path d="M119.3 19.5859V41.1859C119.3 42.9761 120.011 44.693 121.277 45.9589C122.543 47.2248 124.26 47.9359 126.05 47.9359H131.45" stroke="#DF6C20" stroke-width="3"/>
</g>
<defs>
<clipPath id="clip0_717_5937">
<rect width="135" height="64.8" fill="white" transform="translate(0.5 0.686035)"/>
</clipPath>
</defs>
</svg>
