<svg width="235" height="180" viewBox="0 0 235 180" fill="none" xmlns="http://www.w3.org/2000/svg">
<g clip-path="url(#clip0_791_444)">
<path d="M159.29 179.37C159.06 179.57 158.83 179.76 158.59 179.94H129.63C129.46 179.75 129.3 179.56 129.13 179.37C127.79 177.77 126.62 176.04 125.61 174.2C123.23 169.92 122.41 164.3 122.41 158.58C122.41 158.23 122.41 157.88 122.41 157.53C122.44 155.93 122.53 154.32 122.66 152.74C122.68 152.47 122.71 152.19 122.73 151.92C122.94 149.65 123.25 147.45 123.59 145.38C123.63 145.12 123.68 144.86 123.72 144.6C124.42 140.5 125.35 136.45 126.52 132.46C126.52 132.46 126.56 132.46 126.63 132.49C126.84 132.55 127.36 132.69 128.11 132.92C130.19 133.54 134.09 134.78 138.59 136.63C138.84 136.73 139.08 136.83 139.33 136.94C143.14 138.51 146.82 140.36 150.35 142.47C150.57 142.6 150.79 142.74 151 142.87V142.89L150.53 158.25L154.77 145.46C155.63 146.12 156.46 146.8 157.25 147.51C157.47 147.7 157.68 147.9 157.89 148.11C159.68 149.75 161.21 151.66 162.42 153.76C168.76 165.2 166.1 173.6 159.27 179.37H159.29Z" fill="#F2F2F2"/>
<path d="M155.21 179.95H154.44C154.44 179.76 154.43 179.57 154.42 179.38C154.11 173.6 151.63 167.22 148.25 161.06C148.13 160.84 148.01 160.61 147.88 160.38C146.24 157.45 144.42 154.58 142.53 151.86C142.39 151.65 142.24 151.43 142.09 151.22C139.58 147.64 136.99 144.32 134.65 141.49C134.49 141.29 134.32 141.09 134.15 140.89C130.68 136.73 127.81 133.69 126.66 132.5C126.49 132.32 126.36 132.19 126.26 132.1C126.18 132.01 126.13 131.96 126.12 131.95L126.39 131.68L126.66 131.4C126.66 131.41 126.84 131.57 127.13 131.88C127.38 132.13 127.72 132.49 128.13 132.93C129.59 134.47 131.99 137.1 134.78 140.42C134.94 140.61 135.11 140.81 135.27 141.01C137.17 143.31 139.23 145.91 141.27 148.71C141.78 149.41 142.28 150.11 142.76 150.8C142.91 151.01 143.06 151.22 143.21 151.44C145.25 154.38 147.03 157.22 148.56 159.93L148.94 160.61C152.82 167.69 154.91 173.97 155.18 179.37C155.18 179.56 155.2 179.75 155.2 179.94L155.21 179.95Z" fill="white"/>
<path d="M139.04 136.07C138.9 136.26 138.76 136.45 138.62 136.63C137.52 138.05 136.23 139.33 134.79 140.41C134.58 140.56 134.37 140.72 134.15 140.88C133.55 141.3 132.93 141.68 132.29 142.04C129.66 143.5 126.75 144.38 123.75 144.6C123.65 144.6 123.55 144.62 123.46 144.62C123.42 144.88 123.38 145.14 123.33 145.4C123.43 145.4 123.52 145.4 123.62 145.38C126.8 145.17 129.89 144.26 132.67 142.71C133.35 142.33 134.01 141.92 134.65 141.47C134.87 141.32 135.08 141.16 135.29 141C136.83 139.83 138.2 138.46 139.37 136.93C139.51 136.74 139.65 136.56 139.78 136.37C139.53 136.26 139.29 136.16 139.05 136.06L139.04 136.07Z" fill="white"/>
<path d="M150.64 141.94C150.56 142.12 150.47 142.3 150.38 142.48C148.66 145.9 146.03 148.78 142.78 150.8C142.55 150.94 142.32 151.08 142.09 151.21C142.02 151.25 141.95 151.29 141.88 151.33C135.98 154.61 128.86 154.83 122.76 151.92C122.69 151.89 122.62 151.85 122.55 151.82C122.52 152.09 122.5 152.37 122.48 152.65C122.55 152.68 122.62 152.72 122.69 152.74C128.96 155.63 136.22 155.36 142.26 152.01C142.36 151.96 142.45 151.9 142.54 151.85C142.77 151.72 143 151.58 143.23 151.44C146.56 149.36 149.27 146.41 151.04 142.9C151.13 142.72 151.22 142.54 151.31 142.35C151.09 142.21 150.87 142.07 150.65 141.93L150.64 141.94Z" fill="white"/>
<path d="M157.4 146.97C157.36 147.15 157.32 147.34 157.27 147.52C156.03 152.61 152.92 157.04 148.56 159.93C148.34 160.08 148.1 160.23 147.87 160.37C147.62 160.52 147.37 160.67 147.12 160.81C139.06 165.27 129.04 163.94 122.42 157.54C122.36 157.49 122.31 157.44 122.26 157.38C122.26 157.74 122.26 158.09 122.26 158.45C122.31 158.5 122.36 158.54 122.41 158.58C129.29 164.81 139.37 165.98 147.49 161.48C147.75 161.34 148 161.2 148.24 161.04C148.48 160.9 148.71 160.76 148.93 160.61C153.35 157.68 156.55 153.23 157.9 148.11C157.95 147.94 157.99 147.76 158.03 147.59C157.82 147.38 157.6 147.18 157.38 146.97H157.4Z" fill="white"/>
<path d="M137.2 107.74H0V4.7998H137.2V107.74Z" fill="white"/>
<path d="M33.25 26.2901C36.2655 26.2901 38.71 23.8456 38.71 20.8301C38.71 17.8146 36.2655 15.3701 33.25 15.3701C30.2346 15.3701 27.79 17.8146 27.79 20.8301C27.79 23.8456 30.2346 26.2901 33.25 26.2901Z" fill="#E7E6E6"/>
<path d="M45.86 17.1904C45.36 17.1904 44.95 17.6004 44.95 18.1004C44.95 18.6004 45.36 19.0104 45.86 19.0104H112.32C112.82 19.0104 113.23 18.6004 113.23 18.1004C113.23 17.6004 112.82 17.1904 112.32 17.1904H45.86Z" fill="#E7E6E6"/>
<path d="M45.86 22.6504C45.36 22.6504 44.95 23.0604 44.95 23.5604C44.95 24.0604 45.36 24.4704 45.86 24.4704H87.87C88.37 24.4704 88.7799 24.0604 88.7799 23.5604C88.7799 23.0604 88.37 22.6504 87.87 22.6504H45.86Z" fill="#E7E6E6"/>
<path d="M137.2 107.74H0V4.7998H137.2V107.74ZM1.54 106.21H135.67V6.3398H1.54V106.21Z" fill="#E7E6E6"/>
<path d="M7.66992 36.2002V97.4302H129.53V36.2002H7.66992ZM128.95 51.3602H99.2199V36.7902H128.95V51.3602ZM68.8899 51.3602V36.7902H98.6199V51.3602H68.8899ZM98.6299 51.9402V66.5102H68.8999V51.9402H98.6299ZM68.3099 51.3602H38.5799V36.7902H68.3099V51.3602ZM68.3099 51.9402V66.5102H38.5799V51.9402H68.3099ZM37.9899 66.5202H8.24992V51.9502H37.9799V66.5202H37.9899ZM37.9899 67.1002V81.6702H8.24992V67.1002H37.9799H37.9899ZM38.5699 67.1002H68.2999V81.6702H38.5699V67.1002ZM68.3099 82.2602V96.8302H38.5799V82.2602H68.3099ZM68.8899 82.2602H98.6199V96.8302H68.8899V82.2602ZM68.8899 81.6702V67.1002H98.6199V81.6702H68.8899ZM99.2099 67.1002H128.94V81.6702H99.2099V67.1002ZM99.2099 66.5202V51.9502H128.94V66.5202H99.2099ZM37.9899 36.7802V51.3502H8.24992V36.7802H37.9799H37.9899ZM8.24992 82.2602H37.9799V96.8302H8.24992V82.2602ZM99.2099 96.8302V82.2602H128.94V96.8302H99.2099Z" fill="#E4E4E3"/>
<path d="M57.69 52.6703L45.56 52.4004C44.35 47.7004 44.89 43.2304 45.86 39.1104L57.99 39.3804C56.76 43.7104 56.66 48.2903 57.69 52.6703Z" fill="#114277"/>
<path d="M47.95 42.0403V41.5703L54.24 41.8003L54.2299 42.2603L47.95 42.0403Z" fill="white"/>
<path d="M47.9199 43.8799L47.9299 43.4199L54.2099 43.6399L54.1999 44.1099L47.9199 43.8799Z" fill="white"/>
<path d="M47.8899 45.7295L47.8999 45.2695L54.1799 45.4895V45.9495L47.8899 45.7295Z" fill="white"/>
<path d="M47.8701 47.5704V47.1104L54.1601 47.3404L54.1501 47.8004L47.8701 47.5704Z" fill="white"/>
<path d="M47.8401 49.42L47.8501 48.96L54.1301 49.18L54.1201 49.64L47.8401 49.42Z" fill="white"/>
<path d="M31.3299 86.6498L19.1999 86.3798C17.9899 81.6798 18.5299 77.2098 19.4999 73.0898L31.6299 73.3598C30.3999 77.6898 30.2999 82.2698 31.3299 86.6498Z" fill="#F0F0F0"/>
<path d="M21.5801 76.0196L21.5901 75.5596L27.8701 75.7796L27.8601 76.2396L21.5801 76.0196Z" fill="white"/>
<path d="M21.5601 77.8604V77.4004L27.8401 77.6304V78.0904L21.5601 77.8604Z" fill="white"/>
<path d="M21.53 79.71L21.54 79.25L27.82 79.47L27.81 79.93L21.53 79.71Z" fill="white"/>
<path d="M21.5 81.5499L21.51 81.0898L27.79 81.3198V81.7798L21.5 81.5499Z" fill="white"/>
<path d="M21.48 83.4004V82.9404L27.77 83.1604L27.76 83.6204L21.48 83.4004Z" fill="white"/>
<path d="M94.61 71.1196L82.48 70.8496C81.27 66.1496 81.81 61.6796 82.78 57.5596L94.91 57.8296C93.68 62.1596 93.58 66.7396 94.61 71.1196Z" fill="#F0F0F0"/>
<path d="M84.8601 60.4903V60.0303L91.1501 60.2503L91.1401 60.7203L84.8601 60.4903Z" fill="white"/>
<path d="M84.8301 62.3399L84.8401 61.8799L91.1201 62.0999L91.1101 62.5599L84.8301 62.3399Z" fill="white"/>
<path d="M84.8101 64.1797V63.7197L91.0901 63.9497V64.4097L84.8101 64.1797Z" fill="white"/>
<path d="M84.78 66.0303L84.79 65.5703L91.07 65.7903L91.06 66.2503L84.78 66.0303Z" fill="white"/>
<path d="M84.75 67.8702L84.76 67.4102L91.04 67.6402L91.03 68.1002L84.75 67.8702Z" fill="white"/>
<path d="M89.3299 68.1899L77.1999 67.9199C75.9899 63.2199 76.5299 58.7499 77.4999 54.6299L89.6299 54.8999C88.3999 59.2299 88.2999 63.8099 89.3299 68.1899Z" fill="#114277"/>
<path d="M79.5901 57.5596V57.0996L85.8701 57.3296V57.7896L79.5901 57.5596Z" fill="white"/>
<path d="M79.5601 59.4102L79.5701 58.9502L85.8501 59.1702L85.8401 59.6302L79.5601 59.4102Z" fill="white"/>
<path d="M79.53 61.25L79.54 60.79L85.82 61.02L85.81 61.48L79.53 61.25Z" fill="white"/>
<path d="M79.51 63.0996V62.6396L85.79 62.8596V63.3196L79.51 63.0996Z" fill="white"/>
<path d="M79.48 64.9405L79.49 64.4805L85.77 64.7105L85.76 65.1705L79.48 64.9405Z" fill="white"/>
<path d="M134.06 94.9496L121.93 94.6796C120.72 89.9796 121.26 85.5096 122.23 81.3896L134.36 81.6597C133.13 85.9897 133.03 90.5696 134.06 94.9496Z" fill="#114277"/>
<path d="M124.31 84.3204V83.8604L130.6 84.0903L130.59 84.5504L124.31 84.3204Z" fill="white"/>
<path d="M124.28 86.17L124.29 85.71L130.57 85.93L130.56 86.39L124.28 86.17Z" fill="white"/>
<path d="M124.25 88.0098L124.26 87.5498L130.54 87.7798V88.2398L124.25 88.0098Z" fill="white"/>
<path d="M124.23 89.8604L124.24 89.4004L130.52 89.6204L130.51 90.0804L124.23 89.8604Z" fill="white"/>
<path d="M124.2 91.7002L124.21 91.2402L130.49 91.4702L130.48 91.9302L124.2 91.7002Z" fill="white"/>
<path d="M120.97 55.0102L108.84 54.7402C107.63 50.0402 108.17 45.5702 109.14 41.4502L121.27 41.7202C120.04 46.0502 119.94 50.6302 120.97 55.0102Z" fill="#F0F0F0"/>
<path d="M111.22 44.3799L111.23 43.9199L117.51 44.1399V44.5999L111.22 44.3799Z" fill="white"/>
<path d="M111.2 46.2298V45.7598L117.49 45.9898L117.48 46.4498L111.2 46.2298Z" fill="white"/>
<path d="M111.17 48.0704L111.18 47.6104L117.46 47.8304L117.45 48.3004L111.17 48.0704Z" fill="white"/>
<path d="M111.14 49.9202L111.15 49.4502L117.43 49.6802V50.1402L111.14 49.9202Z" fill="white"/>
<path d="M111.12 51.7598V51.2998L117.41 51.5298L117.4 51.9898L111.12 51.7598Z" fill="white"/>
<path d="M133.4 85.1604C134.98 84.7704 135.95 83.1804 135.56 81.6004C135.52 81.4304 135.46 81.2704 135.39 81.1104L143.04 73.9604L137.75 72.6904L131.3 79.6804C129.85 80.4404 129.3 82.2304 130.06 83.6804C130.7 84.8904 132.08 85.5104 133.41 85.1704L133.4 85.1604Z" fill="#F5AEB5"/>
<path d="M137.35 79.3999L133.78 74.3699L147.17 60.5199L150.28 38.6899C150.86 34.6299 154.62 31.8099 158.68 32.3799C159.13 32.4399 159.57 32.5499 160 32.6899C163.88 33.9999 165.97 38.2098 164.67 42.0998L156.74 65.6399L137.35 79.3899V79.3999Z" fill="#E4E4E3"/>
<path d="M162.5 172.43H158.54L156.66 157.16H162.5V172.43Z" fill="#F5AEB5"/>
<path d="M164.63 179.95H161.82L161.32 177.3L160.04 179.95H152.59C151.67 179.95 150.92 179.2 150.92 178.28C150.92 177.73 151.19 177.21 151.64 176.9L157.59 172.79V170.11L163.85 170.48L164.64 179.95H164.63Z" fill="#312F43"/>
<path d="M186.92 168.4L183.44 170.3L174.49 157.78L179.62 154.99L186.92 168.4Z" fill="#F5AEB5"/>
<path d="M192.38 173.99L189.91 175.33L188.2 173.24L188.34 176.18L181.8 179.74C180.99 180.18 179.97 179.88 179.53 179.07C179.27 178.59 179.26 178 179.51 177.51L182.77 171.06L181.49 168.71L187.16 166.05L192.38 173.99Z" fill="#312F43"/>
<path d="M164.17 166.99H155.99V137.86L150.93 118.87C147.3 105.29 146.33 91.13 148.09 77.18V77.12L148.14 77.08C148.27 76.97 161.23 66.25 169.43 74.45C174.96 79.98 169.76 99.85 169.47 100.94V135.2L164.17 166.98V166.99Z" fill="#312F43"/>
<path d="M145.59 82.4804L148.23 56.1203C147.89 55.4003 142.96 50.8504 148.11 42.8404L153.68 29.7704L164.11 29.6104L164.15 29.6504C169.13 34.6204 171.29 41.7604 169.91 48.6604L166.84 64.0203L169.5 74.6703L145.6 82.4804H145.59Z" fill="#E4E4E3"/>
<path d="M159.29 138.02L176.09 161.65L182.54 157.07L168.5 128.23L159.29 138.02Z" fill="#312F43"/>
<path d="M157.91 27.1096C163.229 27.1096 167.54 22.7981 167.54 17.4796C167.54 12.1611 163.229 7.84961 157.91 7.84961C152.592 7.84961 148.28 12.1611 148.28 17.4796C148.28 22.7981 152.592 27.1096 157.91 27.1096Z" fill="#F5AEB5"/>
<path opacity="0.1" d="M155.55 52.3096L158.18 68.1296L155.55 81.3096H150.27L152.67 68.1296L155.55 52.3096Z" fill="#010101"/>
<path d="M158.06 94.8897C159.27 93.7997 159.37 91.9397 158.28 90.7297C158.16 90.5997 158.04 90.4797 157.9 90.3797L161.28 80.4697L156.02 81.8397L153.62 91.0397C152.7 92.3897 153.05 94.2397 154.41 95.1497C155.54 95.9197 157.05 95.8097 158.07 94.8897H158.06Z" fill="#F5AEB5"/>
<path d="M158.83 87.9501L153.32 85.1901L158.61 66.6601L151.07 45.9301C149.67 42.0801 151.66 37.8101 155.51 36.4101C155.94 36.2501 156.38 36.1401 156.83 36.0601C160.87 35.3901 164.7 38.1201 165.38 42.1601L169.46 66.6601L158.83 87.9301V87.9501Z" fill="#E4E4E3"/>
<path d="M234.71 179.6C234.71 179.79 234.56 179.95 234.36 179.95H44.7399C44.5499 179.95 44.3899 179.79 44.3899 179.6C44.3899 179.41 44.5499 179.25 44.7399 179.25H234.36C234.55 179.25 234.71 179.41 234.71 179.6Z" fill="#CBCACA"/>
<path d="M195.36 17.0102C194.15 18.9802 191.57 19.8502 189.29 19.4602C187.01 19.0702 185.02 17.5902 183.56 15.8002C182.1 14.0102 181.08 11.8902 180.08 9.80021C179.08 7.71021 178.07 5.60021 176.62 3.80021C175.16 2.00021 173.19 0.520212 170.91 0.100212C169.67 -0.129788 168.26 0.020212 167.36 0.900212C166.74 1.56021 166.4 2.43021 166.41 3.34021C165.08 2.87021 163.63 3.57021 163.16 4.90021C163.05 5.21021 163 5.54021 163.02 5.87021C162.99 5.87021 162.95 5.87021 162.92 5.87021C158.67 3.46021 152.23 4.86021 152.23 7.49021C149.9 7.49021 147.05 9.79021 147.05 13.2902C151.87 13.2902 154.7 19.4602 151.89 23.8902C151.16 25.0202 150.36 26.1002 149.49 27.1202H155.52C156.03 26.3902 156.33 25.5502 156.4 24.6702C156.62 25.4702 156.75 26.2902 156.79 27.1202C156.79 27.1202 173.25 29.2402 169 12.8402C169.28 12.8302 169.55 12.7402 169.8 12.6002C170.44 12.2102 170.79 11.4002 170.85 10.5702C171.01 10.6102 171.17 10.6502 171.32 10.7002C172.45 11.0102 173.63 11.4002 174.41 12.2802C175.72 13.7602 175.45 16.0202 175.92 17.9402C176.5 20.2602 178.22 22.1402 180.13 23.5702C182.18 25.1102 184.58 26.2802 187.14 26.5302C189.7 26.7702 192.42 26.0002 194.19 24.1402C195.96 22.2802 196.58 19.2802 195.35 17.0302L195.36 17.0102Z" fill="#312F43"/>
</g>
<defs>
<clipPath id="clip0_791_444">
<rect width="234.71" height="179.95" fill="white"/>
</clipPath>
</defs>
</svg>
