<?xml version="1.0" encoding="utf-8"?>
<!-- Generator: Adobe Illustrator 26.2.1, SVG Export Plug-In . SVG Version: 6.00 Build 0)  -->
<svg version="1.1" id="Calque_1" xmlns="http://www.w3.org/2000/svg" xmlns:xlink="http://www.w3.org/1999/xlink" x="0px" y="0px"
	 viewBox="0 0 244 192" style="enable-background:new 0 0 244 192;" xml:space="preserve">
<style type="text/css">
	.st0{fill:#295162;}
</style>
<g>
	<g transform="translate(0.000000,512.000000) scale(0.100000,-0.100000)">
		<path class="st0" d="M872.5,4877.8c-140.4-21.3-244.3-72.6-337.3-165.1c-100.1-100.1-154.6-219.6-167-365.2l-3.3-41.7l-34.2-8.5
			c-148.9-37.9-269.9-157-310.7-306.4c-14.2-53.1-14.7-158.9,0-211.1c41.7-152.3,158.9-267.5,315-309.3l39.4-10.4h846.7
			c792.6,0,848.6,0.5,879.4,8.5c158.9,40.8,279.9,157,321.6,309.7c8.1,30.4,10,50.3,10,106.3s-1.9,75.9-10,106.3
			c-41.7,151.3-167,273.2-318.8,308.3c-16.1,3.8-30.4,7.6-31.3,9c-0.9,0.9-6.2,18.5-11.4,39.4c-37.5,147.5-155.1,265.2-306,306
			c-30.8,8.5-50.8,10.4-106.7,10.4c-79.7,0-116.2-7.6-183.6-39.4c-35.6-16.6-41.7-18-45.5-11.9c-1.9,3.8-16.6,24.2-32.3,44.6
			c-78.3,103.9-196.9,180.2-326.8,209.7C1020.5,4875.9,904.8,4882.6,872.5,4877.8z M1043.3,4724.1c87.3-22.3,165.1-72.1,220.6-140.9
			c35.6-44.1,55-79.7,83.5-151.8c12.3-32.3,24.2-58.3,26.6-58.3c1.9,0,28,23.2,57.9,51.7c41.3,39.4,62.1,55.5,88.7,68.8
			c63.6,31.3,130.4,38.9,195.9,21.8c53.6-13.8,90.1-34.6,130.9-75.9c60.7-60.7,85.4-123.8,85.4-219.1v-51.2h51.2
			c94.9,0,166.5-28,226.3-87.8c156.1-156.1,79.7-416.5-138-472c-35.6-9.5-56-9.5-851-9.5s-815.4,0-851,9.5
			c-157,39.8-250.5,191.6-211.6,343.9c26.1,101,106.3,179.3,211.6,206.3c27,7.1,52.7,9.5,97.7,9.5c60.7,0,60.7,0,58.3,10.9
			c-10,46-17.6,124.8-14.7,159.9c13.3,195.9,155.1,354.3,350.5,391.8C908.6,4740.7,994.4,4736.9,1043.3,4724.1z"/>
	</g>
</g>
</svg>
