<?xml version="1.0" encoding="utf-8"?>
<!-- Generator: Adobe Illustrator 27.9.0, SVG Export Plug-In . SVG Version: 6.00 Build 0)  -->
<svg version="1.1" id="Calque_1" xmlns="http://www.w3.org/2000/svg" xmlns:xlink="http://www.w3.org/1999/xlink" x="0px" y="0px"
	 viewBox="0 0 400 300" style="enable-background:new 0 0 400 300;" xml:space="preserve">
<style type="text/css">
	.st0{fill:#D1D3D4;}
	.st1{fill:none;stroke:#231F20;stroke-linecap:round;stroke-linejoin:round;}
	.st2{fill:#FFFFFF;}
	.st3{fill:#231F20;}
	.st4{fill:#E62C35;}
	.st5{fill:#DD0031;}
	.st6{fill:#C3002F;}
	.st7{display:none;}
	.st8{display:inline;}
	.st9{display:inline;fill:#FFFFFF;}
	.st10{display:inline;fill:#231F20;}
	.st11{display:inline;fill:#E62C35;}
</style>
<g>
	<g>
		<path class="st0" d="M206,238.1c-0.3,0-0.5-0.2-0.5-0.5V43.8c0-0.3,0.2-0.5,0.5-0.5s0.5,0.2,0.5,0.5v193.8
			C206.5,237.9,206.3,238.1,206,238.1z"/>
		<path class="st0" d="M188.6,256.2c-0.1,0-0.3-0.1-0.4-0.1c-0.2-0.2-0.2-0.5,0-0.7c0,0,0,0,0,0l17.4-18c0.2-0.2,0.5-0.2,0.7,0
			l17.4,18c0.2,0.2,0.1,0.5-0.1,0.7c-0.2,0.2-0.5,0.2-0.7,0l-17.1-17.6L189,256C188.9,256.1,188.8,256.2,188.6,256.2z"/>
		<path class="st1" d="M206,238.1c-0.3,0-0.5-0.2-0.5-0.5V43.8c0-0.3,0.2-0.5,0.5-0.5s0.5,0.2,0.5,0.5v193.8
			C206.5,237.9,206.3,238.1,206,238.1z"/>
		<path class="st1" d="M188.6,256.2c-0.1,0-0.3-0.1-0.4-0.1c-0.2-0.2-0.2-0.5,0-0.7c0,0,0,0,0,0l17.4-18c0.2-0.2,0.5-0.2,0.7,0
			l17.4,18c0.2,0.2,0.1,0.5-0.1,0.7c-0.2,0.2-0.5,0.2-0.7,0l-17.1-17.6L189,256C188.9,256.1,188.8,256.2,188.6,256.2z"/>
		<rect x="130.6" y="48" class="st2" width="150.9" height="111.5"/>
		<path class="st3" d="M281.5,160H130.6c-0.3,0-0.5-0.2-0.5-0.5V48c0-0.3,0.2-0.5,0.5-0.5c0,0,0,0,0,0h150.9c0.3,0,0.5,0.2,0.5,0.5
			c0,0,0,0,0,0.1v111.5C282.1,159.8,281.9,160,281.5,160C281.6,160,281.6,160,281.5,160z M131.2,159H281V48.5H131.2V159z"/>
	</g>
	<path class="st0" d="M180.9,122.1h-35.8c-0.3,0-0.5-0.2-0.5-0.5s0.2-0.5,0.5-0.5h35.9c0.3,0,0.5,0.2,0.5,0.5
		C181.4,121.9,181.2,122.1,180.9,122.1C180.9,122.1,180.9,122.1,180.9,122.1z"/>
	<path class="st0" d="M180.9,130.4h-35.8c-0.3,0-0.5-0.2-0.5-0.5s0.2-0.5,0.5-0.5h35.9c0.3,0,0.5,0.2,0.5,0.5
		C181.4,130.1,181.2,130.4,180.9,130.4C180.9,130.4,180.9,130.4,180.9,130.4z"/>
	<path class="st0" d="M180.9,138.6h-35.8c-0.3,0-0.5-0.2-0.5-0.5s0.2-0.5,0.5-0.5h35.9c0.3,0,0.5,0.2,0.5,0.5
		S181.2,138.6,180.9,138.6L180.9,138.6z"/>
	<path class="st0" d="M172.3,146.9h-27.2c-0.3,0-0.5-0.2-0.5-0.5s0.2-0.5,0.5-0.5h27.2c0.3,0,0.5,0.2,0.5,0.5
		C172.8,146.6,172.6,146.9,172.3,146.9C172.3,146.9,172.3,146.9,172.3,146.9z"/>
</g>
<path class="st3" d="M372.5,256.6H27.5c-0.3,0-0.5-0.2-0.5-0.5s0.2-0.5,0.5-0.5h345.1c0.3,0,0.5,0.2,0.5,0.5
	S372.8,256.6,372.5,256.6z"/>
<g>
	<rect x="89.9" y="97.9" class="st2" width="96.9" height="69"/>
	<path class="st3" d="M186.8,167.4H90c-0.3,0-0.5-0.2-0.5-0.5v-69c0-0.3,0.2-0.5,0.5-0.5h96.9c0.3,0,0.5,0.2,0.5,0.5v69
		C187.4,167.2,187.1,167.4,186.8,167.4C186.8,167.4,186.8,167.4,186.8,167.4z M90.4,166.4h95.9v-68H90.4V166.4z"/>
	<path class="st3" d="M186.8,105.3H90c-0.3,0-0.5-0.2-0.5-0.5s0.2-0.5,0.5-0.5h96.9c0.3,0,0.5,0.2,0.5,0.5
		C187.4,105,187.1,105.3,186.8,105.3C186.8,105.3,186.8,105.3,186.8,105.3z"/>
	<path class="st0" d="M110.3,110.8H98.4c-0.3,0-0.5-0.2-0.5-0.5s0.2-0.5,0.5-0.5h11.8c0.3,0,0.5,0.2,0.5,0.5
		S110.5,110.8,110.3,110.8z"/>
	<path class="st4" d="M140.1,110.8h-23.6c-0.3,0-0.5-0.2-0.5-0.5c0-0.3,0.2-0.5,0.5-0.5h23.6c0.3,0,0.5,0.2,0.5,0.5
		S140.4,110.8,140.1,110.8z"/>
	<path class="st4" d="M147.2,116.9h-23.6c-0.3,0-0.5-0.2-0.5-0.5c0-0.3,0.2-0.5,0.5-0.5h23.6c0.3,0,0.5,0.2,0.5,0.5
		S147.5,116.9,147.2,116.9z"/>
	<path class="st0" d="M113,116.9h-11.8c-0.3,0-0.5-0.2-0.5-0.5c0-0.3,0.2-0.5,0.5-0.5H113c0.3,0,0.5,0.2,0.5,0.5
		S113.3,116.9,113,116.9z"/>
	<path class="st0" d="M113.5,123H104c-0.3,0-0.5-0.2-0.5-0.5c0-0.3,0.2-0.5,0.5-0.5h9.5c0.3,0,0.5,0.2,0.5,0.5
		C114,122.8,113.8,123,113.5,123z"/>
	<path class="st4" d="M151.4,123h-29.6c-0.3,0-0.5-0.2-0.5-0.5c0-0.3,0.2-0.5,0.5-0.5h29.6c0.3,0,0.5,0.2,0.5,0.5
		C151.9,122.8,151.7,123,151.4,123z"/>
	<path class="st0" d="M118.6,129.2h-11.8c-0.3,0-0.5-0.2-0.5-0.5s0.2-0.5,0.5-0.5h11.8c0.3,0,0.5,0.2,0.5,0.5
		C119.1,129,118.9,129.2,118.6,129.2z"/>
	<path class="st4" d="M157.6,129.2h-35.1c-0.3,0-0.5-0.2-0.5-0.5s0.2-0.5,0.5-0.5h35.2c0.3,0,0.5,0.2,0.5,0.5
		S157.8,129.2,157.6,129.2L157.6,129.2z"/>
	<path class="st0" d="M115.5,135.3h-11.8c-0.3,0-0.5-0.2-0.5-0.5s0.2-0.5,0.5-0.5h11.8c0.3,0,0.5,0.2,0.5,0.5
		S115.7,135.3,115.5,135.3z"/>
	<path class="st4" d="M139,135.3H120c-0.3,0-0.5-0.2-0.5-0.5s0.2-0.5,0.5-0.5H139c0.3,0,0.5,0.2,0.5,0.5S139.3,135.3,139,135.3z"/>
	<path class="st4" d="M165.4,135.3h-19.1c-0.3,0-0.5-0.2-0.5-0.5s0.2-0.5,0.5-0.5h19.1c0.3,0,0.5,0.2,0.5,0.5
		S165.7,135.3,165.4,135.3z"/>
	<path class="st0" d="M107.7,141.5h-4.1c-0.3,0-0.5-0.2-0.5-0.5s0.2-0.5,0.5-0.5h4.1c0.3,0,0.5,0.2,0.5,0.5S108,141.5,107.7,141.5z"
		/>
	<path class="st4" d="M139,141.5h-24.4c-0.3,0-0.5-0.2-0.5-0.5s0.2-0.5,0.5-0.5H139c0.3,0,0.5,0.2,0.5,0.5S139.3,141.5,139,141.5z"
		/>
	<path class="st4" d="M148.7,141.5h-6.8c-0.3,0-0.5-0.2-0.5-0.5s0.2-0.5,0.5-0.5h6.8c0.3,0,0.5,0.2,0.5,0.5S148.9,141.5,148.7,141.5
		z"/>
	<path class="st0" d="M110,147.6h-6.4c-0.3,0-0.5-0.2-0.5-0.5c0-0.3,0.2-0.5,0.5-0.5h6.4c0.3,0,0.5,0.2,0.5,0.5
		C110.5,147.4,110.3,147.6,110,147.6z"/>
	<path class="st4" d="M145,147.6h-29c-0.3,0-0.5-0.2-0.5-0.5s0.2-0.5,0.5-0.5h29c0.3,0,0.5,0.2,0.5,0.5
		C145.5,147.4,145.3,147.6,145,147.6z"/>
	<path class="st4" d="M159.7,147.6h-11.8c-0.3,0-0.5-0.2-0.5-0.5s0.2-0.5,0.5-0.5h11.8c0.3,0,0.5,0.2,0.5,0.5
		C160.2,147.4,160,147.6,159.7,147.6z"/>
	<path class="st0" d="M107.1,153.7h-6.3c-0.3,0-0.5-0.2-0.5-0.5c0-0.3,0.2-0.5,0.5-0.5h6.3c0.3,0,0.5,0.2,0.5,0.5
		S107.4,153.7,107.1,153.7z"/>
	<path class="st4" d="M141.9,153.7h-27.4c-0.3,0-0.5-0.2-0.5-0.5s0.2-0.5,0.5-0.5h27.4c0.3,0,0.5,0.2,0.5,0.5
		S142.1,153.7,141.9,153.7z"/>
	<path class="st0" d="M112.7,159.9h-11.8c-0.3,0-0.5-0.2-0.5-0.5c0-0.3,0.2-0.5,0.5-0.5h11.8c0.3,0,0.5,0.2,0.5,0.5
		S112.9,159.9,112.7,159.9z"/>
	<path class="st4" d="M178.3,129.2h-16c-0.3,0-0.5-0.2-0.5-0.5s0.2-0.5,0.5-0.5h16c0.3,0,0.5,0.2,0.5,0.5S178.6,129.2,178.3,129.2z"
		/>
	<path class="st4" d="M154.3,110.8c-4.6,0-7.9,0-8.1,0c-0.3-0.1-0.4-0.3-0.4-0.6c0.1-0.3,0.3-0.4,0.6-0.4c0.8,0.1,19.5,0,26.7,0l0,0
		c0.3,0,0.5,0.2,0.5,0.5c0,0.3-0.2,0.5-0.5,0.5L154.3,110.8z"/>
	<path class="st4" d="M157,153.7h-12c-0.3,0-0.5-0.2-0.5-0.5s0.2-0.5,0.5-0.5h12c0.3,0,0.5,0.2,0.5,0.5S157.2,153.7,157,153.7z"/>
	<path class="st0" d="M129.5,159.9h-8.8c-0.3,0-0.5-0.2-0.5-0.5s0.2-0.5,0.5-0.5h8.8c0.3,0,0.5,0.2,0.5,0.5S129.8,159.9,129.5,159.9
		z"/>
	<path class="st4" d="M153.8,159.9h-20.9c-0.3,0-0.5-0.2-0.5-0.5s0.2-0.5,0.5-0.5h20.9c0.3,0,0.5,0.2,0.5,0.5
		C154.3,159.7,154.1,159.9,153.8,159.9L153.8,159.9z"/>
</g>
<g>
	<rect x="101.6" y="34.5" class="st2" width="61.4" height="40.2"/>
	<path class="st3" d="M163,75.3h-61.4c-0.3,0-0.5-0.2-0.5-0.5V34.6c0-0.3,0.2-0.5,0.5-0.5H163c0.3,0,0.5,0.2,0.5,0.5v40.2
		C163.5,75,163.3,75.3,163,75.3z M102.1,74.3h60.4V35h-60.4V74.3z"/>
	<path class="st3" d="M163,39h-61.4c-0.3,0-0.5-0.2-0.5-0.5s0.2-0.5,0.5-0.5H163c0.3,0,0.5,0.2,0.5,0.5S163.3,39,163,39z"/>
	<path class="st4" d="M114.5,42.2H107c-0.3,0-0.5-0.2-0.5-0.5s0.2-0.5,0.5-0.5h7.5c0.3,0,0.5,0.2,0.5,0.5
		C115,42,114.8,42.2,114.5,42.2z"/>
	<path class="st4" d="M133.4,42.2h-15c-0.3,0-0.5-0.2-0.5-0.5c0-0.3,0.2-0.5,0.5-0.5h15c0.3,0,0.5,0.2,0.5,0.5
		S133.7,42.2,133.4,42.2z"/>
	<path class="st4" d="M137.9,46.8h-15c-0.3,0-0.5-0.2-0.5-0.5c0-0.3,0.2-0.5,0.5-0.5h15c0.3,0,0.5,0.2,0.5,0.5
		S138.2,46.8,137.9,46.8z"/>
	<path class="st4" d="M116.3,46.8h-7.5c-0.3,0-0.5-0.2-0.5-0.5s0.2-0.5,0.5-0.5h7.5c0.3,0,0.5,0.2,0.5,0.5
		C116.8,46.6,116.5,46.8,116.3,46.8z"/>
	<path class="st4" d="M116.5,51.4h-6c-0.3,0-0.5-0.2-0.5-0.5s0.2-0.5,0.5-0.5h6c0.3,0,0.5,0.2,0.5,0.5S116.8,51.4,116.5,51.4z"/>
	<path class="st4" d="M140.6,51.4h-18.7c-0.3,0-0.5-0.2-0.5-0.5c0-0.3,0.2-0.5,0.5-0.5h18.7c0.3,0,0.5,0.2,0.5,0.5
		C141.1,51.2,140.9,51.4,140.6,51.4z"/>
	<path class="st4" d="M119.8,56h-7.5c-0.3,0-0.5-0.2-0.5-0.5s0.2-0.5,0.5-0.5h7.5c0.3,0,0.5,0.2,0.5,0.5S120.1,56,119.8,56z"/>
	<path class="st4" d="M144.5,56h-22.3c-0.3,0-0.5-0.2-0.5-0.5s0.2-0.5,0.5-0.5h22.3c0.3,0,0.5,0.2,0.5,0.5
		C145,55.8,144.7,56,144.5,56z"/>
	<path class="st4" d="M117.8,60.6h-7.5c-0.3,0-0.5-0.2-0.5-0.5s0.2-0.5,0.5-0.5h7.5c0.3,0,0.5,0.2,0.5,0.5S118.1,60.6,117.8,60.6z"
		/>
	<path class="st4" d="M132.7,60.6h-12.1c-0.3,0-0.5-0.2-0.5-0.5s0.2-0.5,0.5-0.5h12.1c0.3,0,0.5,0.2,0.5,0.5S133,60.6,132.7,60.6z"
		/>
	<path class="st0" d="M149.4,60.6h-12.1c-0.3,0-0.5-0.2-0.5-0.5s0.2-0.5,0.5-0.5h12.1c0.3,0,0.5,0.2,0.5,0.5S149.7,60.6,149.4,60.6z
		"/>
	<path class="st4" d="M112.9,65.2h-2.6c-0.3,0-0.5-0.2-0.5-0.5c0-0.3,0.2-0.5,0.5-0.5h2.6c0.3,0,0.5,0.2,0.5,0.5
		C113.4,65,113.2,65.2,112.9,65.2L112.9,65.2z"/>
	<path class="st4" d="M132.7,65.2h-15.5c-0.3,0-0.5-0.2-0.5-0.5c0-0.3,0.2-0.5,0.5-0.5h15.5c0.3,0,0.5,0.2,0.5,0.5
		C133.2,65,133,65.2,132.7,65.2z"/>
	<path class="st0" d="M140.8,65.2h-4.3c-0.3,0-0.5-0.2-0.5-0.5c0-0.3,0.2-0.5,0.5-0.5h4.3c0.3,0,0.5,0.2,0.5,0.5
		C141.3,65,141.1,65.2,140.8,65.2z"/>
	<path class="st4" d="M114.4,69.8h-4.1c-0.3,0-0.5-0.2-0.5-0.5c0-0.3,0.2-0.5,0.5-0.5h4.1c0.3,0,0.5,0.2,0.5,0.5
		C114.9,69.6,114.6,69.8,114.4,69.8z"/>
	<path class="st4" d="M136.5,69.8h-18.3c-0.3,0-0.5-0.2-0.5-0.5c0-0.3,0.2-0.5,0.5-0.5h18.3c0.3,0,0.5,0.2,0.5,0.5
		C137,69.6,136.8,69.8,136.5,69.8z"/>
	<path class="st0" d="M147.8,69.8h-7.5c-0.3,0-0.5-0.2-0.5-0.5c0-0.3,0.2-0.5,0.5-0.5h7.5c0.3,0,0.5,0.2,0.5,0.5
		C148.3,69.6,148.1,69.8,147.8,69.8z"/>
	<path class="st0" d="M157.6,56h-10.1c-0.3,0-0.5-0.2-0.5-0.5c0-0.3,0.2-0.5,0.5-0.5h10.1c0.3,0,0.5,0.2,0.5,0.5S157.9,56,157.6,56z
		"/>
	<path class="st0" d="M142.5,42.3c-5.1,0-5.2,0-5.3,0c-0.3-0.1-0.4-0.3-0.4-0.6c0.1-0.3,0.3-0.4,0.6-0.4c0.6,0,10.4,0,16.9,0l0,0
		c0.3,0,0.5,0.2,0.5,0.5c0,0,0,0,0,0c0,0.3-0.2,0.5-0.5,0.5L142.5,42.3z"/>
</g>
<g>
	<polygon class="st5" points="232.5,70 232.5,70 232.5,70 200.1,81.6 205.1,124.3 232.5,139.5 232.5,139.5 232.5,139.5 259.8,124.3 
		264.8,81.6 	"/>
	<polygon class="st6" points="232.5,70 232.5,77.8 232.5,77.7 232.5,112.9 232.5,112.9 232.5,139.5 232.5,139.5 259.8,124.3 
		264.8,81.6 	"/>
	<path class="st2" d="M232.5,77.7L212.3,123l0,0h7.5l0,0l4.1-10.1H241l4.1,10.1l0,0h7.5l0,0L232.5,77.7L232.5,77.7L232.5,77.7
		L232.5,77.7L232.5,77.7z M238.4,106.6h-11.8l5.9-14.2L238.4,106.6z"/>
</g>
<g>
	<polygon class="st2" points="342.9,213.2 345.7,253.5 357.9,251.7 357.9,211.3 	"/>
	<path class="st3" d="M345.2,254.1l-2.9-41.3l16-2v41.3L345.2,254.1z M343.4,213.7l2.8,39.3l11.2-1.7v-39.3L343.4,213.7z"/>
	<path class="st3" d="M359,256.1c0.1-1.9,0.1-3.8,0-5.7c0,0-13.3,0.9-12.8-0.2c-0.1-1.3-0.4-2.5-0.7-3.7c0,0-8.3,3-10.6,5
		s-3.1,3.2-2.1,4.1C333.7,256.5,359,256.1,359,256.1z"/>
	<path class="st3" d="M347.8,256.6c-7.3,0-14.7-0.1-15.3-0.8c-0.3-0.3-0.5-0.7-0.5-1.2c0-1,1-2,2.7-3.6c2.3-2.1,10.4-4.9,10.7-5.1
		c0.1,0,0.2,0,0.4,0c0.1,0.1,0.2,0.2,0.2,0.3c0.4,1.2,0.6,2.5,0.7,3.7c1.1,0.4,7,0.2,12.3-0.1c0.1,0,0.2,0,0.3,0.1
		c0.1,0.1,0.1,0.2,0.1,0.3c0.2,5.7,0,5.8-0.1,6c-0.1,0.1-0.2,0.1-0.3,0.1l0,0C356.2,256.6,352,256.6,347.8,256.6z M345.2,247.1
		c-1.8,0.6-8.1,3.1-10,4.7c-1.2,1.1-2.4,2.2-2.4,2.9c0,0.2,0.1,0.4,0.2,0.5c1.1,0.6,16,0.6,25.5,0.4c0-0.8,0-2.8,0-4.8
		c-5.5,0.4-12.1,0.6-12.7-0.3c-0.2-0.2-0.2-0.4-0.1-0.6C345.6,249,345.4,248,345.2,247.1L345.2,247.1z"/>
	<polygon class="st2" points="314.3,217.1 315.3,253.5 327.5,251.7 330.1,213.2 	"/>
	<path class="st3" d="M314.8,254.1l-1-37.4l16.9-4.1l-2.6,39.5L314.8,254.1z M314.8,217.5l1,35.4l11.2-1.7l2.5-37.4L314.8,217.5z"/>
	<path class="st2" d="M299.9,121.5l-6.2,7c0,0-22-9.7-23.1-11.4c-1.1-1.7-4.3-5.9-5.2-5.7s0.8,4.9,0.8,4.9s-9.2-3.9-9.2-3.2
		s-0.3,6.6,0.8,7s33.4,23.8,37.9,22.5s9.2-7.3,9.2-7.3"/>
	<path class="st3" d="M295.4,143.2c-4.1,0-18.1-9.2-32.8-19.3c-2.5-1.7-4.6-3.2-4.9-3.3c-0.9-0.3-1.2-2.3-1.1-7c0-0.2,0-0.3,0-0.4
		c0-0.2,0.1-0.3,0.2-0.4c0.2-0.2,0.8-0.5,8.6,2.8c-0.5-1.4-1-3.5-0.6-4.2c0.1-0.2,0.3-0.3,0.5-0.4c1.6-0.3,5.6,5.8,5.7,5.9
		c0.8,1.2,14.1,7.4,22.6,11.2l6-6.8c0.2-0.2,0.5-0.2,0.6,0c0.1,0.2,0.2,0.4,0,0.6l-6.2,7c-0.1,0.1-0.3,0.2-0.5,0.1
		c-3.7-1.6-22.1-9.9-23.3-11.6c-1.4-2.2-3.8-5.1-4.6-5.4c0.1,1.5,0.5,2.9,1.1,4.3c0.1,0.2,0,0.4-0.1,0.5c-0.1,0.1-0.3,0.2-0.5,0.1
		c-2.8-1.2-5.6-2.3-8.5-3.2c0,0,0,0,0,0.1c-0.1,5.2,0.4,6,0.5,6.1c0.2,0.1,1.3,0.8,5.1,3.4c8.8,6,29.2,20.1,32.5,19.1
		c4.3-1.3,8.9-7.1,8.9-7.2c0.2-0.2,0.5-0.2,0.7,0c0.1,0.1,0.2,0.4,0.1,0.6c-0.2,0.2-4.8,6.1-9.4,7.5
		C295.8,143.1,295.6,143.2,295.4,143.2z"/>
	<path class="st3" d="M309.9,220.7c-0.2-18.6,0.1-47.7,0.1-58.8s5.3-27.9,5.3-27.9l36.8-1.2c0,0,7.4,37,9,87.9L309.9,220.7z"/>
	<path class="st3" d="M361.1,221.2h-51.2c-0.2,0-0.4-0.2-0.4-0.4l0,0c-0.1-12.6,0-29.7,0.1-43.4c0-6.3,0.1-11.8,0.1-15.3
		c0-11,5.2-27.9,5.3-28.1c0.1-0.2,0.2-0.3,0.4-0.3l36.8-1.2c0.2,0,0.4,0.2,0.5,0.4c0.1,0.4,7.4,37.6,9,87.9c0,0.1,0,0.2-0.1,0.3
		C361.3,221.1,361.2,221.2,361.1,221.2z M310.3,220.3h50.3c-1.6-47.3-8.2-83-9-87l-36.1,1.2c-0.7,2.3-5.1,17.4-5.1,27.5
		c0,3.6,0,9-0.1,15.3C310.3,190.9,310.2,207.7,310.3,220.3L310.3,220.3z"/>
	<path class="st2" d="M346.9,89.8c-0.4-2.4,1.4-4.9,1.8-7.4c0.7-3.5-1.2-6.7-2.8-9.8s-1.7-6.3-3.6-8.8c-3.7-4.7-11.3-7.8-17-5.6
		c-6.5,2.5-11.2,9.1-10.3,16.1c0.2,1.7,0.7,3.3,0.4,4.9c-0.7,3.4-5,6-4.2,9.4c0.3,1.2,1.1,2.1,1.6,3.2c1.4,3.5-1.3,7.2-2.1,11
		c-0.6,3.3,0.4,6.7,1.4,9.8c0.9,2.8,2.1,5.7,4.6,7.1c1.6,0.8,3.4,1.1,5.2,1c8,0.1,16.4-1.4,22.5-6.7s8.6-15,4-21.5
		c-0.5-0.6-0.9-1.3-1.3-2C347,90.4,346.9,90.1,346.9,89.8z"/>
	<path class="st3" d="M322.8,121.4h-0.9c-1.9,0.1-3.8-0.3-5.5-1.1c-2.7-1.5-3.9-4.6-4.8-7.4c-1.1-3.2-2.1-6.7-1.4-10.1
		c0.3-1.3,0.7-2.6,1.2-3.8c0.9-2.4,1.8-4.8,0.9-6.9c-0.2-0.4-0.4-0.9-0.7-1.3c-0.4-0.6-0.7-1.3-0.9-2.1c-0.5-2.2,0.8-4,2.1-5.8
		c1-1.1,1.7-2.4,2.1-3.8c0.2-1.2,0.1-2.4-0.2-3.5c-0.1-0.4-0.1-0.8-0.2-1.2c-0.9-7,3.5-13.9,10.5-16.6c6.2-2.4,14,1.2,17.6,5.8
		c1.1,1.6,1.9,3.4,2.3,5.2c0.3,1.2,0.8,2.5,1.3,3.6l0.5,0.9c1.5,2.8,3,5.8,2.3,9.1c-0.2,1-0.5,2-0.9,2.9c-0.7,1.3-1,2.8-0.9,4.3l0,0
		c0,0.3,0.1,0.5,0.2,0.8c0.2,0.5,0.5,1,0.9,1.5l0.3,0.4c3.9,5.5,3.4,15.6-4.1,22.1C339.6,119.1,332,121.4,322.8,121.4z M329.3,58
		c-1.3,0-2.7,0.2-3.9,0.7c-6.6,2.5-10.8,9.1-10,15.6c0,0.4,0.1,0.8,0.2,1.2c0.3,1.3,0.4,2.6,0.2,3.9c-0.4,1.5-1.2,3-2.3,4.2
		c-1.2,1.7-2.4,3.2-2,5c0.2,0.6,0.5,1.2,0.9,1.8c0.3,0.4,0.5,0.9,0.7,1.4c1,2.5,0,5.1-0.9,7.6c-0.5,1.2-0.9,2.4-1.2,3.6
		c-0.6,3.2,0.3,6.3,1.4,9.6c0.9,2.6,2,5.6,4.4,6.9c1.6,0.7,3.3,1.1,5,1c9.4,0.2,17-2.1,22.1-6.6c7.1-6.2,7.6-15.7,3.9-20.9
		c-0.1-0.1-0.2-0.3-0.3-0.4c-0.4-0.5-0.7-1.1-1-1.7c-0.1-0.3-0.2-0.7-0.3-1c-0.1-1.6,0.2-3.3,1-4.8c0.4-0.9,0.7-1.8,0.9-2.8
		c0.6-3-0.9-5.8-2.2-8.5l-0.5-0.9c-0.6-1.2-1-2.5-1.4-3.8c-0.4-1.8-1.2-3.5-2.2-5C338.8,60.4,334.2,58.2,329.3,58z"/>
	<path class="st4" d="M313.9,98.4L296,121c0,0,1.8,4.1,9.2,20.6c6.5-3.2,17.3-20.8,17.3-20.8L313.9,98.4z"/>
	<path class="st4" d="M330.2,92.9c0,0-14.3,1.3-17.6,7.1s-2.5,40.2-2.5,40.2l43.5,0.8c0,0,4.3-34.7-1.6-43.7
		C349.8,92.2,343.8,92.2,330.2,92.9z"/>
	<polygon class="st2" points="338.7,93.5 337.6,140.8 323.2,140.2 326,95.8 	"/>
	<path class="st2" d="M326.1,88.1l0,8.3c0,0,0.8,4.7,5.9,3.2c3-0.9,5.5-3.1,6.7-6l-0.6-14.4c-0.7-2.5-0.9-5.1-0.8-7.7
		c-6.2-0.1-11-4.8-11-4.8s-2.1,3.2-3,4.2c-0.7,0.8-1.4,1.6-1.9,2.5c-0.7,1.7-1,3.5-0.8,5.4c0,2.1,0.2,4.2,0.6,6.3
		C322,89,326.1,88.1,326.1,88.1z"/>
	<path class="st3" d="M330.1,100.4c-0.8,0-1.7-0.2-2.4-0.7c-1.1-0.8-1.9-1.9-2.1-3.2v-7.9c-1.1,0.1-2.2-0.1-3.1-0.6
		c-0.9-0.6-1.6-1.6-1.8-2.8c-0.4-2.1-0.6-4.2-0.6-6.4c0-1.7-0.1-3.9,0.8-5.6c0.6-1,1.2-1.8,2-2.6c0.9-1,3-4.1,3-4.1
		c0.1-0.2,0.4-0.3,0.7-0.1c0,0,0,0,0,0c0,0,4.8,4.5,10.7,4.6c0.1,0,0.2,0.1,0.3,0.1c0.1,0.1,0.1,0.2,0.1,0.3c-0.1,2.4,0.1,4.7,0.7,7
		c0.1,0.2,0.1,0.5,0.1,0.7c0,0.1,0.6,14.4,0.6,14.4c0,0.1,0,0.1,0,0.2c-1.3,3-3.8,5.3-7,6.3C331.5,100.3,330.8,100.4,330.1,100.4z
		 M326.5,96.4c0.4,2.1,2.4,3.5,4.5,3.1c0.3-0.1,0.6-0.1,0.8-0.3c2.9-0.8,5.2-2.9,6.4-5.6c-0.6-14.3-0.6-14.3-0.6-14.3
		c0-0.2-0.1-0.4-0.1-0.5c-0.6-2.2-0.8-4.5-0.7-6.8c-5.1-0.2-9.2-3.4-10.5-4.5c-0.9,1.3-1.8,2.6-2.8,3.8c-0.7,0.7-1.3,1.5-1.8,2.4
		c-0.7,1.6-0.9,3.4-0.7,5.2c0,2.1,0.2,4.1,0.6,6.2c0.1,0.9,0.6,1.7,1.4,2.2c0.9,0.5,2,0.6,3,0.4c0.2-0.1,0.5,0.1,0.5,0.3
		c0,0,0,0.1,0,0.1L326.5,96.4L326.5,96.4z"/>
	<path class="st3" d="M326.1,92.2c2.1,0,4-0.7,5.6-2.1c1.2-1.2,1.9-2.8,1.9-4.5c-2.2,1.4-4.8,2.3-7.5,2.5L326.1,92.2z"/>
	<path class="st3" d="M326.3,92.6h-0.2c-0.2,0-0.4-0.2-0.4-0.4l0-4.1c0-0.2,0.2-0.4,0.4-0.4c0,0,0,0,0,0c2.6-0.2,5.1-1.1,7.2-2.5
		c0.1-0.1,0.3-0.1,0.4,0c0.1,0.1,0.2,0.2,0.3,0.3c0.1,1.8-0.6,3.6-2,4.9C330.4,91.8,328.4,92.6,326.3,92.6z M326.5,88.5v3.2
		c1.8-0.1,3.5-0.8,4.8-2c0.9-0.9,1.6-2.1,1.7-3.4C331,87.5,328.8,88.2,326.5,88.5z"/>
	<path class="st2" d="M329,76.1c0,0-2.7,4-2,4.7s2.4,0.2,2.4,0.2"/>
	<path class="st3" d="M328.2,81.6c-0.6,0-1.1-0.1-1.6-0.5c-0.7-0.8,0.7-3.3,2-5.2c0.1-0.2,0.4-0.2,0.6-0.1c0.2,0.1,0.2,0.4,0.1,0.6
		c-1.2,1.8-2.2,3.8-2.1,4.2c0.3,0.3,1.4,0.2,2,0.1c0.2-0.1,0.5,0.1,0.5,0.3c0.1,0.2-0.1,0.5-0.3,0.5c0,0,0,0,0,0
		C329.1,81.6,328.7,81.6,328.2,81.6z"/>
	
		<ellipse transform="matrix(3.925982e-02 -0.9992 0.9992 3.925982e-02 237.1024 397.3655)" class="st3" cx="325.2" cy="75.4" rx="0.9" ry="0.5"/>
	
		<ellipse transform="matrix(3.925982e-02 -0.9992 0.9992 3.925982e-02 243.9884 402.9552)" class="st3" cx="331.5" cy="74.6" rx="0.9" ry="0.5"/>
	<path class="st2" d="M327.2,83.1l2.1-0.6c0,0,0.4,3.1-0.8,3.4S327.2,83.1,327.2,83.1z"/>
	<path class="st3" d="M328.4,86.4c-0.2,0-0.5-0.1-0.6-0.2c-0.9-0.7-1-2.7-1-3.1c0-0.2,0.1-0.4,0.3-0.4l2.1-0.6c0.1,0,0.3,0,0.4,0.1
		c0.1,0.1,0.2,0.2,0.2,0.3c0.1,0.6,0.4,3.5-1.1,3.9C328.6,86.4,328.5,86.5,328.4,86.4z M327.7,83.4c0,0.7,0.2,1.4,0.6,2
		c0,0,0.1,0,0.1,0c0.4-0.1,0.5-1.3,0.5-2.4L327.7,83.4z"/>
	<path class="st3" d="M310,140.8L310,140.8c-0.3,0-0.5-0.2-0.4-0.5c0,0,0,0,0,0l3.9-34.2c0-0.2,0.2-0.4,0.5-0.4
		c0.2,0,0.4,0.2,0.4,0.5l-3.9,34.2C310.4,140.6,310.2,140.8,310,140.8z"/>
	<path class="st2" d="M335.3,75c0.3-1,0.8-2,1.6-2.8c0.7-0.8,1.9-1.1,3-0.7c1,0.7,1.6,1.9,1.4,3.1c0,1.4-0.3,2.7-0.7,4
		c-0.2,0.8-0.6,1.5-1.1,2.1c-0.6,0.6-1.5,0.7-2.2,0.3"/>
	<path class="st3" d="M338,81.6c-0.4,0-0.8-0.1-1.1-0.3c-0.2-0.1-0.3-0.4-0.1-0.6c0,0,0,0,0,0c0.1-0.2,0.4-0.3,0.6-0.1c0,0,0,0,0,0
		c0.5,0.3,1.2,0.2,1.6-0.3c0.5-0.5,0.8-1.2,1-1.9c0.4-1.2,0.7-2.5,0.7-3.8c0-0.5-0.1-2.1-1.2-2.7c-0.9-0.3-1.8-0.1-2.4,0.6
		c-0.6,0.8-1.1,1.7-1.4,2.7c-0.1,0.2-0.4,0.3-0.6,0.3c-0.2-0.1-0.4-0.4-0.3-0.6c0.3-1.1,0.9-2.1,1.7-3c0.9-1,2.3-1.3,3.5-0.8
		c1.5,0.8,1.7,2.7,1.7,3.5c0,1.4-0.3,2.8-0.8,4.1c-0.2,0.9-0.7,1.6-1.3,2.3C339.2,81.3,338.6,81.6,338,81.6z"/>
	<path class="st4" d="M367.8,178.5c-0.9,0.2-31.7-14-31.7-14L325,187.2l32.4,15.6L367.8,178.5z"/>
	<path class="st2" d="M365.2,131.5c0,0-3,34.8-11.1,45.3c0,0-5.8,5.3-7.4,3.6s-2.7-5.4-1.6-6.8c1-1.1,2.2-2.1,3.4-3
		c0,0-2-2.3-1.8-2.8s3.2-2.4,3.2-2.4l2-32.5"/>
	<path class="st3" d="M347.6,181.2c-0.4,0-0.9-0.2-1.2-0.5c-1.6-1.7-3-5.8-1.6-7.4c0.9-1,2-1.9,3.1-2.8c-1.3-1.4-1.8-2.4-1.5-3
		s2.2-1.9,3.2-2.5l2-32.3c0-0.2,0.2-0.4,0.4-0.4c0,0,0,0,0,0l0,0c0.3,0,0.4,0.2,0.4,0.5l-2.1,32.5c0,0.1-0.1,0.3-0.2,0.4
		c-1.1,0.6-2.1,1.4-3.1,2.3c0.5,0.8,1,1.6,1.7,2.3c0.1,0.1,0.1,0.2,0.1,0.4c0,0.1-0.1,0.2-0.2,0.3c-1.2,0.9-2.3,1.9-3.3,2.9
		c-0.9,1,0,4.5,1.6,6.1c0.9,0.9,4.6-1.6,6.8-3.6c7.8-10.2,10.9-44.7,10.9-45c0-0.2,0.3-0.4,0.5-0.4c0.3,0,0.4,0.2,0.4,0.5
		c-0.1,1.4-3.1,35.1-11.2,45.6C353.6,177.9,349.9,181.2,347.6,181.2z"/>
	<path class="st4" d="M350,94.7c0,0,8,5.6,10.6,10.8s7.3,30.4,7.3,30.4h-19.1L350,94.7z"/>
	<path class="st3" d="M363.3,136.3h-14.6c-0.2,0-0.4-0.2-0.4-0.4l-2.3-29.7c0-0.2,0.2-0.4,0.4-0.5c0,0,0,0,0,0
		c0.2,0,0.4,0.2,0.5,0.4c0,0,0,0,0,0l2.3,29.3h14.2c0.2,0,0.4,0.2,0.4,0.4c0,0,0,0,0,0C363.8,136.1,363.6,136.3,363.3,136.3
		C363.3,136.3,363.3,136.3,363.3,136.3z"/>
	<path class="st3" d="M328.6,256.1c0.1-1.9,0.1-3.8,0-5.7c0,0-13.3,0.9-12.8-0.2c-0.1-1.3-0.4-2.5-0.7-3.7c0,0-8.3,3-10.6,5
		s-3.1,3.2-2.2,4.1C303.3,256.5,328.6,256.1,328.6,256.1z"/>
	<path class="st3" d="M317.4,256.6c-7.3,0-14.7-0.1-15.3-0.8c-0.3-0.3-0.5-0.7-0.5-1.2c0-1,1-2,2.7-3.6c2.3-2.1,10.4-4.9,10.7-5.1
		c0.1-0.1,0.2-0.1,0.4,0c0.1,0.1,0.2,0.2,0.2,0.3c0.4,1.2,0.6,2.5,0.7,3.7c1.1,0.4,7,0.2,12.3-0.1c0.1,0,0.2,0,0.3,0.1
		c0.1,0.1,0.1,0.2,0.1,0.3c0.2,5.7,0,5.9-0.1,6c-0.1,0.1-0.2,0.1-0.3,0.1l0,0C325.8,256.6,321.6,256.6,317.4,256.6z M314.8,247.1
		c-1.8,0.6-8.1,3.1-10,4.7c-1.2,1.1-2.4,2.2-2.4,2.9c0,0.2,0.1,0.4,0.2,0.5c1.1,0.6,16.1,0.6,25.5,0.4c0-0.8,0-2.8,0-4.8
		c-5.5,0.4-12.1,0.6-12.7-0.3c-0.1-0.2-0.1-0.4-0.1-0.6C315.3,249,315.1,248,314.8,247.1z"/>
</g>
<g id="essentiel">
	<path class="st2" d="M135.8,221.2c0,0-4.7-0.1-9.7,8.5l0,0.1l0-0.1c-2.3-11.8-11.5-19.3-11.5-19.3c-1.7,5.6-2.3,11.4-1.7,17.2
		c-2.1-1.9-4.5-3.5-7.1-4.6c-0.2,7.6,2.9,14.5,5.7,19.3h9.2l0,0h1.6h3.7h5C133.6,238.4,137.7,230.3,135.8,221.2z"/>
	<path class="st3" d="M136.4,221.1c-0.1-0.3-0.3-0.5-0.6-0.5c-0.2,0-4.6,0-9.5,7.6c-2.7-11.1-11-17.9-11.4-18.2
		c-0.2-0.1-0.4-0.2-0.6-0.1c-0.2,0.1-0.3,0.2-0.4,0.4c-1.6,5.2-2.2,10.6-1.8,16c-1.9-1.5-3.9-2.8-6.1-3.8c-0.2-0.1-0.4,0-0.6,0.1
		c-0.2,0.1-0.3,0.3-0.3,0.5c-0.2,7.6,2.9,14.7,5.6,19.3h-1.4l2.8,13.9h17.2l2.8-13.9h-0.4C134.4,238.2,138.4,230.2,136.4,221.1z
		 M135.4,222c1.6,8.4-2.2,15.9-4.7,19.9h-4.3c-0.1-0.1-0.3-0.1-0.4,0h-3.1c0.2-3.8,1.3-7.5,3.3-10.7c0.2-0.3,0.4-0.7,0.6-1
		C130.5,223.5,134.1,222.2,135.4,222z M114.8,211.6c2.2,2,8.7,8.6,10.6,18.1l-0.4,0.8c-2.7,4.9-3.4,8.8-3.4,11.3h-5.1
		c-1.5-4.5-2.5-9.1-3-13.8c0.1-0.2,0-0.4-0.1-0.5C112.8,222.1,113.3,216.7,114.8,211.6z M112.2,228.1c0.5,4.7,1.5,9.3,3,13.8h-3.4
		c-2.5-4.4-5.4-10.8-5.4-17.8C108.5,225.2,110.5,226.5,112.2,228.1z"/>
</g>
<g id="fondamental" class="st7">
	<g class="st8">
		<circle class="st4" cx="116.2" cy="199.8" r="4.6"/>
	</g>
	<path class="st9" d="M135.8,221.2c0,0-1.8,0-4.5,2.1c2.3-10.3-1.4-19.4-1.4-19.4c-4,3.7-7.2,8.2-9.5,13.2c-3-4.2-6-6.6-6-6.6
		c-1.7,5.6-2.3,11.4-1.7,17.2c-2.1-1.9-4.5-3.5-7.1-4.6c-0.2,7.6,2.9,14.5,5.7,19.3h9.2l0,0h1.6h3.7h5
		C133.6,238.4,137.7,230.3,135.8,221.2z"/>
	<path class="st10" d="M136.4,221.1c-0.1-0.3-0.3-0.5-0.6-0.5c-0.1,0-1.5,0-3.6,1.3c1.6-9.6-1.6-17.8-1.7-18.2
		c-0.1-0.2-0.2-0.3-0.4-0.4c-0.2,0-0.4,0-0.5,0.1c-3.6,3.4-6.7,7.4-8.9,11.9c-0.8-4.3-1.7-8-2.4-10.8c1.9-0.8,3.2-2.6,3.2-4.8
		c0-2.2-1.4-4.1-3.4-4.9c-0.4-0.1-0.8-0.2-1.2-0.3c-0.2,0-0.4,0-0.7,0c-2.9,0-5.2,2.3-5.2,5.2c0,2.6,2,4.8,4.6,5.1
		c0.2,0,0.4,0,0.6,0c0.3,0,0.6,0,0.9-0.1c0.7,2.5,1.5,5.9,2.2,9.6c-2.3-2.7-4.2-4.3-4.4-4.5c-0.2-0.1-0.4-0.2-0.6-0.1
		c-0.2,0.1-0.3,0.2-0.4,0.4c-1.6,5.2-2.2,10.6-1.8,16c-1.9-1.5-3.9-2.8-6.1-3.8c-0.2-0.1-0.4,0-0.6,0.1c-0.2,0.1-0.3,0.3-0.3,0.5
		c-0.2,7.6,2.9,14.7,5.6,19.3h-1.4l2.8,13.9h17.2l2.8-13.9h-0.4C134.4,238.2,138.4,230.2,136.4,221.1z M112.2,200.2
		c1-0.3,2.1-0.2,2.9-0.1c0,0.4-0.1,0.8-0.1,1.2c0,0.7,0.1,1.5,0.2,2.3C113.6,203.3,112.4,201.9,112.2,200.2z M115.3,199
		C115.3,199,115.3,199,115.3,199c-0.8-0.1-1.9-0.2-3,0c0.2-0.9,0.7-1.7,1.4-2.3c0.7-0.6,1.6-0.9,2.5-0.9h0.1
		C115.9,196.6,115.5,197.7,115.3,199z M116.7,203.7c-0.1,0-0.2,0-0.2,0c-0.1-0.6-0.2-1.1-0.2-1.7c0,0,0,0,0,0c0-0.8,0-1.6,0.1-2.3
		c0.2-1.6,0.7-2.9,1.1-3.7c1.6,0.5,2.7,2,2.7,3.8c0,1.6-0.9,3-2.3,3.6C117.5,203.6,117.1,203.7,116.7,203.7z M129.7,205
		c0.8,2.5,2.8,9.9,1.1,18c-1.4,1.1-2.9,2.8-4.5,5.2c-1.1-4.5-3.1-8.3-5.2-11.2C123.3,212.5,126.1,208.5,129.7,205z M111.8,241.9
		c-2.5-4.4-5.4-10.8-5.4-17.8c2.1,1.1,4.1,2.4,5.9,4c0.5,4.7,1.5,9.3,2.9,13.8H111.8z M121.9,238.4c-0.1,0.7-0.2,1.4-0.3,1.9
		c0,0.5-0.1,1-0.1,1.4h-0.2h-1.2h-3.7c-1.5-4.5-2.5-9.1-3-13.8c0.1-0.2,0-0.4-0.1-0.5c-0.5-5.3-0.1-10.7,1.4-15.9c1,0.9,3,2.9,5,5.6
		c0,0,0,0,0,0c0.3,0.4,0.5,0.7,0.8,1.1c0.3,0.4,0.5,0.8,0.8,1.2c1.7,2.8,3.3,6.2,4.1,10.2l-0.4,0.8
		C123.3,233.5,122.4,236.2,121.9,238.4C121.9,238.4,121.9,238.4,121.9,238.4z M122.8,241.8L122.8,241.8c0.2-3.8,1.3-7.5,3.3-10.7
		c0.2-0.3,0.4-0.7,0.6-1c1.2-2.1,2.5-3.7,3.6-4.8c0.6-0.6,1.1-1.1,1.7-1.5c1.6-1.3,2.8-1.7,3.5-1.8c1.6,8.4-2.2,15.9-4.7,19.9H122.8
		z"/>
</g>
<g id="expert" class="st7">
	<path class="st9" d="M135.8,221.2c0,0-1.8,0-4.5,2.1c2.3-10.3-1.4-19.4-1.4-19.4c-4,3.7-7.2,8.2-9.5,13.2c-3-4.2-6-6.6-6-6.6
		c-1.7,5.6-2.3,11.4-1.7,17.2c-2.1-1.9-4.5-3.5-7.1-4.6c-0.2,7.6,2.9,14.5,5.7,19.3h9.2l0,0h1.6h3.7h5
		C133.6,238.4,137.7,230.3,135.8,221.2z"/>
	<path class="st10" d="M136.4,221.1c-0.1-0.3-0.3-0.5-0.6-0.5c-0.1,0-1.5,0-3.6,1.3c1.6-9.6-1.6-17.8-1.7-18.2
		c-0.1-0.2-0.2-0.3-0.4-0.4c-0.2,0-0.4,0-0.5,0.1c-3.5,3.3-6.4,7.1-8.6,11.4c-1.1-8.1-3.2-16.9-7.3-24.1l-1,0.6
		c4,7.1,6.1,15.5,7.2,23.5l-0.5-0.3c-2.3-2.7-4.2-4.3-4.4-4.5c-0.2-0.1-0.4-0.2-0.6-0.1c-0.2,0.1-0.3,0.2-0.4,0.4
		c-1.6,5.2-2.2,10.6-1.8,16c-1.9-1.5-3.9-2.8-6.1-3.8c-0.2-0.1-0.4,0-0.6,0.1c-0.2,0.1-0.3,0.3-0.3,0.5c-0.2,7.6,2.9,14.7,5.6,19.3
		h-1.4l2.8,13.9h17.2l2.8-13.9h-0.4C134.4,238.2,138.4,230.2,136.4,221.1z M129.7,205c0.8,2.5,2.8,9.9,1.1,18
		c-1.4,1.1-2.9,2.8-4.5,5.2c-1.1-4.5-3.1-8.2-5.1-11.2c0,0,0,0,0,0s0,0,0,0C123.3,212.5,126.1,208.5,129.7,205z M111.8,241.9
		c-2.5-4.4-5.4-10.8-5.4-17.8c2.1,1.1,4.1,2.4,5.9,4c0.5,4.7,1.5,9.3,2.9,13.8H111.8z M121.9,238.4c-0.1,0.7-0.2,1.4-0.3,1.9
		c0,0.5-0.1,1-0.1,1.4h-0.3h-1.2h-3.6c-1.5-4.5-2.5-9.1-3-13.8c0.1-0.2,0-0.4-0.1-0.5c-0.5-5.3-0.1-10.7,1.4-15.9c1,0.9,3,2.9,5,5.6
		c0,0,0,0,0,0c0.1,0.1,0.2,0.3,0.3,0.4c0.2,0.2,0.3,0.5,0.5,0.7c0.3,0.4,0.5,0.8,0.8,1.2c0,0.1,0.1,0.1,0.1,0.2
		c1.7,2.8,3.2,6.1,4,9.9l-0.4,0.8C123.3,233.5,122.4,236.2,121.9,238.4C121.9,238.4,121.9,238.4,121.9,238.4z M122.8,241.8
		L122.8,241.8c0.2-3.8,1.3-7.5,3.3-10.7c0.2-0.3,0.4-0.7,0.6-1c1.2-2.1,2.5-3.7,3.6-4.8c0.6-0.6,1.1-1.1,1.7-1.5
		c1.6-1.3,2.8-1.7,3.5-1.8c1.6,8.4-2.2,15.9-4.7,19.9H122.8z"/>
	<path class="st11" d="M128,191c0-0.9-2.1-1.7-4.9-2c2.5-1.4,4.1-2.9,3.8-3.7c-0.4-0.9-2.6-0.8-5.4,0.1c1.9-2.3,2.8-4.3,2.2-5
		c-0.6-0.6-2.6,0.3-4.9,2.1c0.8-2.8,0.9-5,0.1-5.3c-0.9-0.4-2.4,1.3-3.8,3.9c-0.3-2.9-1.1-5.1-2-5.1c-0.9,0-1.7,2.1-2,4.9
		c-1.4-2.5-2.9-4.1-3.7-3.8c-0.9,0.4-0.8,2.6,0.1,5.4c-2.3-1.9-4.3-2.8-5-2.2c-0.6,0.6,0.3,2.6,2.1,4.9c-2.8-0.8-5-0.9-5.3-0.1
		c-0.4,0.9,1.3,2.4,3.9,3.8c-2.9,0.3-5.1,1.1-5.1,2c0,0.9,2.1,1.7,4.9,2c-2.5,1.4-4.1,2.9-3.8,3.7c0.4,0.9,2.6,0.8,5.4-0.1
		c-1.9,2.3-2.8,4.3-2.2,5c0.6,0.6,2.6-0.3,4.9-2.1c-0.8,2.8-0.9,5-0.1,5.3c0.9,0.4,2.4-1.3,3.8-3.9c0.3,2.9,1.1,5.1,2,5.1
		c0.9,0,1.7-2.1,2-4.9c1.4,2.5,2.9,4.1,3.7,3.8c0.9-0.4,0.8-2.6-0.1-5.4c2.3,1.9,4.3,2.8,5,2.2c0.6-0.6-0.3-2.6-2.1-4.9
		c2.8,0.8,5,0.9,5.3,0.1c0.4-0.9-1.3-2.4-3.9-3.8C125.9,192.7,128,191.9,128,191z"/>
	<g class="st8">
		<g>
			<g>
				<path class="st3" d="M99.8,185.4c0.1-0.1,0.4-0.2,1-0.2c0.8,0,1.9,0.2,3.4,0.6c-0.4-0.5-0.8-1-1.1-1.5c-2.1-0.5-3.9-0.4-4.4,0.7
					c-0.5,1.1,0.8,2.4,2.7,3.7c0.6-0.1,1.2-0.2,1.9-0.2C100.7,187,99.6,185.8,99.8,185.4z"/>
			</g>
			<g>
				<path class="st3" d="M107.1,176.6c-1.1,0.5-1.1,2.3-0.7,4.5c0.5,0.3,1,0.7,1.5,1.2c-0.8-2.7-0.7-4.4-0.4-4.5c0,0,0,0,0.1,0
					c0.4,0,1.6,1.1,2.8,3.4c0-0.7,0.1-1.3,0.2-1.9C109.5,177.4,108.2,176.1,107.1,176.6z"/>
			</g>
			<g>
				<path class="st3" d="M119,176.6c-0.8-0.3-1.8,0.2-2.9,1.6c-0.2,0.3-0.5,0.7-0.7,1c0.1,0.6,0.2,1.2,0.2,1.9
					c0.5-0.8,0.9-1.6,1.4-2.2c0.9-1.1,1.4-1.3,1.5-1.3c0,0,0,0,0,0c0.1,0,0.4,0.5,0.2,2c-0.1,0.7-0.3,1.6-0.5,2.5
					c0.5-0.4,1-0.8,1.5-1.1c0.1-0.4,0.2-0.8,0.2-1.2C120.1,178.1,119.8,177,119,176.6z"/>
			</g>
			<g>
				<path class="st3" d="M127.4,185.1c-0.4-1.1-2.3-1.2-4.4-0.7c-0.3,0.5-0.7,1-1.1,1.5c2.7-0.8,4.4-0.7,4.5-0.4
					c0.1,0.3-0.9,1.5-3.4,2.9c0.7,0,1.3,0.1,1.9,0.2C126.6,187.5,127.8,186.1,127.4,185.1z"/>
			</g>
			<g>
				<path class="st3" d="M124.7,193.3c-0.6,0.1-1.2,0.2-1.9,0.2c2.5,1.4,3.6,2.6,3.5,2.9c-0.1,0.3-1.7,0.4-4.4-0.4
					c0.4,0.5,0.8,1,1.1,1.5c0.8,0.2,1.5,0.3,2.2,0.3c1.1,0,1.9-0.3,2.2-0.9C127.8,195.9,126.6,194.6,124.7,193.3z"/>
			</g>
			<g>
				<path class="st3" d="M119.6,200.9c-0.5-0.4-1-0.7-1.5-1.2c0.8,2.8,0.7,4.5,0.4,4.6c-0.3,0.1-1.5-0.9-2.8-3.4
					c-0.1,0.7-0.1,1.3-0.3,1.9c1,1.6,2.1,2.7,3.1,2.7c0.2,0,0.3,0,0.5-0.1C120,204.9,120.1,203.1,119.6,200.9z"/>
			</g>
			<g>
				<path class="st3" d="M110.4,200.7c-1.4,2.5-2.6,3.6-3,3.5c-0.3-0.1-0.4-1.7,0.4-4.4c-0.5,0.4-1,0.8-1.5,1.1
					c-0.4,2.1-0.3,3.9,0.7,4.3c0.1,0.1,0.3,0.1,0.5,0.1c1,0,2.2-1.2,3.2-2.8C110.6,202,110.5,201.4,110.4,200.7z"/>
			</g>
			<g>
				<path class="st3" d="M99.7,196.4c-0.1-0.3,0.9-1.5,3.4-2.9c-0.6-0.1-1.3-0.1-1.9-0.3c-1.8,1.2-3.1,2.5-2.6,3.6
					c0.3,0.7,1.1,1,2.3,1c0.7,0,1.4-0.1,2.3-0.3c0.4-0.5,0.7-1,1.2-1.5C101.6,196.9,99.9,196.7,99.7,196.4z"/>
			</g>
		</g>
		<g>
			<path class="st3" d="M128.6,191c0-1.8-4.2-2.7-8.1-2.7c-0.3,0-0.7,0-1,0c0.2-0.2,0.5-0.5,0.7-0.7c2.7-2.7,5.1-6.3,3.8-7.6
				c-1.3-1.3-4.9,1.1-7.6,3.8c-0.2,0.2-0.5,0.5-0.7,0.7c0-0.3,0-0.7,0-1c0-3.9-0.8-8.1-2.7-8.1s-2.7,4.2-2.7,8.1c0,0.3,0,0.7,0,1
				c-0.2-0.2-0.5-0.5-0.7-0.7c-2.7-2.7-6.3-5.1-7.6-3.8c-1.3,1.3,1.1,4.9,3.8,7.6c0.2,0.2,0.5,0.5,0.7,0.7c-0.3,0-0.7,0-1,0
				c-3.9,0-8.1,0.8-8.1,2.7c0,1.9,4.2,2.7,8.1,2.7c0.3,0,0.7,0,1,0c-0.2,0.2-0.5,0.5-0.7,0.7c-2.7,2.7-5.1,6.3-3.8,7.6
				c0.3,0.3,0.6,0.4,1,0.4c1.7,0,4.4-2,6.6-4.2c0.2-0.2,0.5-0.5,0.7-0.7c0,0.3,0,0.7,0,1c0,3.9,0.9,8.1,2.7,8.1s2.7-4.2,2.7-8.1
				c0-0.3,0-0.7,0-1c0.2,0.2,0.5,0.5,0.7,0.7c2.2,2.2,5,4.2,6.6,4.2c0.4,0,0.7-0.1,1-0.4c1.3-1.3-1.1-4.9-3.8-7.6
				c-0.2-0.2-0.5-0.5-0.7-0.7c0.3,0,0.7,0,1,0C124.4,193.7,128.6,192.8,128.6,191z M118,192.4c-1.4-0.1-2.5-0.4-3.2-0.7
				c0.7,0.3,1.6,0.9,2.7,1.8c0.6,0.5,1.2,1,1.9,1.7c3.2,3.2,4.1,5.6,3.8,5.9c-0.3,0.3-2.8-0.6-5.9-3.8c-0.7-0.7-1.2-1.3-1.7-1.9
				c-0.8-1-1.4-1.9-1.8-2.6c0.2,0.7,0.5,1.8,0.6,3.1c0.1,0.7,0.1,1.6,0.1,2.5c0,4.5-1.1,6.9-1.5,6.9s-1.5-2.4-1.5-6.9
				c0-0.9,0-1.8,0.1-2.5c0.1-1.3,0.3-2.3,0.6-3c-0.4,0.7-0.9,1.6-1.7,2.6c-0.5,0.6-1,1.2-1.7,1.9c-3.2,3.2-5.6,4.1-5.9,3.8
				c-0.3-0.3,0.6-2.8,3.8-5.9c0.7-0.7,1.3-1.2,1.9-1.7c1.1-0.9,2-1.4,2.7-1.8c-0.7,0.3-1.8,0.5-3.2,0.6c-0.7,0.1-1.6,0.1-2.5,0.1
				c-4.5,0-6.9-1.1-6.9-1.5c0-0.4,2.4-1.5,6.9-1.5c0.9,0,1.8,0,2.5,0.1c1.4,0.1,2.4,0.4,3.2,0.6c-0.2-0.1-0.3-0.2-0.5-0.3
				c-0.7-0.4-1.4-0.9-2.2-1.5c-0.6-0.5-1.3-1.1-1.9-1.7c-3.2-3.2-4.1-5.6-3.8-5.9c0,0,0.1-0.1,0.2-0.1c0.7,0,2.9,1.1,5.7,3.9
				c0.7,0.7,1.2,1.3,1.7,1.9c0.9,1,1.4,1.9,1.8,2.6c-0.2-0.7-0.5-1.8-0.6-3.1c-0.1-0.7-0.1-1.6-0.1-2.5c0-4.5,1.1-6.9,1.5-6.9
				s1.5,2.4,1.5,6.9c0,0.9,0,1.8-0.1,2.5c-0.1,1.4-0.4,2.4-0.6,3.2c0.3-0.7,0.9-1.6,1.8-2.7c0.5-0.6,1-1.2,1.7-1.9
				c2.8-2.8,5-3.9,5.7-3.9c0.1,0,0.2,0,0.2,0.1c0.3,0.3-0.6,2.8-3.8,5.9c-0.6,0.6-1.3,1.2-1.9,1.7c-0.7,0.6-1.5,1.1-2.2,1.5
				c-0.2,0.1-0.4,0.2-0.5,0.3c0.7-0.3,1.8-0.5,3.2-0.6c0.7-0.1,1.6-0.1,2.5-0.1c4.5,0,6.9,1.1,6.9,1.5c0,0.4-2.4,1.5-6.9,1.5
				C119.6,192.5,118.7,192.4,118,192.4z"/>
		</g>
	</g>
	<g class="st8">
		<circle class="st2" cx="113.1" cy="191" r="3"/>
		<path class="st3" d="M113.1,194.5c-1.2,0-2.3-0.6-3-1.6c-1.1-1.6-0.6-3.8,1.1-4.9c1.6-1.1,3.8-0.6,4.9,1.1v0
			c1.1,1.6,0.6,3.8-1.1,4.9C114.4,194.4,113.7,194.5,113.1,194.5z M113,188.6c-0.4,0-0.9,0.1-1.3,0.4c-1.1,0.7-1.4,2.2-0.7,3.3
			c0.7,1.1,2.2,1.4,3.3,0.7c1.1-0.7,1.4-2.2,0.7-3.3l0,0C114.6,189,113.8,188.6,113,188.6z"/>
	</g>
</g>
</svg>
