<?xml version="1.0" encoding="UTF-8"?><svg id="Calque_1" xmlns="http://www.w3.org/2000/svg" viewBox="0 0 400 300"><defs><style>.cls-1{stroke-width:.84px;}.cls-1,.cls-2,.cls-3{fill:none;stroke:#231f20;stroke-miterlimit:10;}.cls-3{stroke-width:.67px;}.cls-4{fill:#231f20;}.cls-4,.cls-5,.cls-6,.cls-7{stroke-width:0px;}.cls-5{fill:#d1d3d4;}.cls-6{fill:#fff;}.cls-7{fill:#e52c36;}</style></defs><path class="cls-6" d="M257.57,22.76v161.92c0,3.83-4.8,6.87-10.88,6.87H31.54c-5.97,0-10.88-3.04-10.88-6.87V22.76c0-3.83,4.8-6.87,10.88-6.87h215.15c5.97,0,10.88,3.04,10.88,6.87Z"/><path class="cls-5" d="M19.16,184.68V22.67c0-4.26,5.44-7.74,12.27-7.74h215.37c6.72,0,12.27,3.48,12.27,7.74v161.92c0,4.26-5.44,7.74-12.27,7.74H31.54c-6.72.09-12.27-3.3-12.37-7.65h0ZM255.97,22.67c0-3.22-4.16-5.83-9.17-5.83H31.54c-5.12,0-9.17,2.61-9.17,5.83h0v161.92c0,3.22,4.16,5.83,9.17,5.83h215.15c5.12,0,9.17-2.61,9.17-5.83l.11-161.92Z"/><path class="cls-5" d="M37.19,178.45V29.39c0-.52.64-.96,1.49-.96h200.86c.85,0,1.49.43,1.49.96v149.05c0,.52-.64.96-1.49.96H38.68c-.75,0-1.49-.43-1.49-.96h0ZM40.28,30.26v147.23h197.76V30.35l-197.76-.09Z"/><path class="cls-4" d="M366.96,277.18H35.29c-.35.09-.7-.43-.78-1.22s.17-1.48.61-1.57h331.85c.35-.09.7.43.78,1.22s-.17,1.48-.61,1.57c0,0-.09,0-.17,0Z"/><g id="expert"><path class="cls-6" d="M81.14,231.65s-2.3-.05-5.66,2.61c2.86-12.98-1.75-24.55-1.75-24.55-5.06,4.76-9.12,10.42-12.03,16.74-3.81-5.36-7.57-8.37-7.57-8.37-2.2,7.06-2.91,14.48-2.15,21.85-2.66-2.41-5.71-4.36-9.02-5.86-.25,9.57,3.61,18.39,7.22,24.4h24.75c3.41-5.06,8.67-15.33,6.21-26.81Z"/><path class="cls-4" d="M81.9,231.5c-.1-.35-.4-.6-.75-.6-.15,0-1.9,0-4.51,1.65,2.05-12.18-2-22.6-2.2-23.1-.1-.25-.3-.4-.55-.45s-.5,0-.7.2c-4.46,4.16-8.12,9.02-10.92,14.43-1.35-10.32-4.06-21.34-9.27-30.56l-1.3.75c5.06,8.97,7.77,19.69,9.07,29.76l-.6-.35c-2.86-3.46-5.31-5.46-5.51-5.66-.2-.15-.45-.2-.7-.15s-.45.25-.5.5c-2.05,6.56-2.86,13.48-2.3,20.29-2.35-1.9-4.96-3.56-7.72-4.81-.25-.1-.5-.05-.7.05-.2.15-.35.35-.35.65-.25,9.62,3.66,18.59,7.11,24.45h-1.85l3.51,17.64h21.8l3.51-17.64h-.55c3.51-5.41,8.52-15.58,6.01-27.06ZM73.33,211.06c1.05,3.16,3.61,12.53,1.45,22.8-1.7,1.4-3.66,3.51-5.66,6.61-1.4-5.66-3.91-10.42-6.51-14.18v-.1c2.66-5.56,6.31-10.72,10.72-15.13ZM50.73,257.75c-3.21-5.51-6.86-13.63-6.86-22.5,2.71,1.35,5.21,3.06,7.47,5.01.6,5.96,1.85,11.82,3.76,17.49h-4.36ZM63.56,253.45c-.2.9-.3,1.7-.35,2.46-.05.65-.1,1.25-.1,1.75h-6.46c-1.9-5.66-3.16-11.52-3.76-17.49.05-.2.05-.45-.05-.65-.65-6.76-.1-13.58,1.75-20.09,1.25,1.15,3.76,3.61,6.26,7.11h0c.15.15.25.35.35.5.2.3.4.6.65.9.35.5.65,1,.95,1.55.05.1.1.15.15.25,2.15,3.51,4.06,7.77,5.01,12.63l-.55.95c-2.15,3.91-3.31,7.27-3.86,10.02v.1ZM64.66,257.7h0c.2-4.86,1.65-9.52,4.16-13.58.25-.45.5-.85.7-1.25,1.55-2.66,3.11-4.66,4.51-6.11.75-.75,1.45-1.4,2.1-1.9,2-1.6,3.61-2.1,4.41-2.3,2,10.67-2.76,20.19-6.01,25.15h-9.87Z"/><path class="cls-7" d="M71.27,193.32c0-1.15-2.61-2.1-6.21-2.51,3.21-1.7,5.26-3.61,4.81-4.66-.45-1.1-3.31-1-6.91.1,2.41-2.91,3.61-5.51,2.76-6.31-.8-.8-3.36.35-6.16,2.66,1.05-3.51,1.15-6.26.1-6.71-1.1-.45-3.01,1.65-4.81,4.96-.35-3.71-1.35-6.41-2.51-6.41s-2.1,2.61-2.51,6.21c-1.7-3.21-3.61-5.26-4.66-4.81-1.1.45-1,3.31.1,6.91-2.91-2.41-5.51-3.61-6.31-2.76-.8.8.35,3.36,2.66,6.16-3.51-1.05-6.26-1.15-6.71-.1-.45,1.1,1.65,3.01,4.96,4.81-3.71.35-6.41,1.35-6.41,2.51s2.61,2.1,6.21,2.51c-3.21,1.7-5.26,3.61-4.81,4.66.45,1.1,3.31,1,6.91-.1-2.41,2.91-3.61,5.51-2.76,6.31.8.8,3.36-.35,6.16-2.66-1.05,3.51-1.15,6.26-.1,6.71,1.1.45,3.01-1.65,4.81-4.96.35,3.71,1.35,6.41,2.51,6.41s2.1-2.61,2.51-6.21c1.7,3.21,3.61,5.26,4.66,4.81,1.1-.45,1-3.31-.1-6.91,2.91,2.41,5.51,3.61,6.31,2.76.8-.8-.35-3.36-2.66-6.16,3.51,1.05,6.26,1.15,6.71.1.45-1.1-1.65-3.01-4.96-4.81,3.71-.3,6.41-1.3,6.41-2.51Z"/><path class="cls-4" d="M35.5,186.3c.05-.2.5-.3,1.25-.3.95,0,2.46.2,4.36.75-.5-.65-1-1.3-1.45-1.9-2.71-.55-4.96-.5-5.56.85-.55,1.35,1,3.11,3.41,4.66.75-.15,1.55-.25,2.41-.3-3.16-1.75-4.56-3.36-4.41-3.76Z"/><path class="cls-4" d="M44.82,175.08c-1.35.55-1.45,2.86-.9,5.66.65.45,1.25.95,1.9,1.45-1-3.46-.85-5.56-.45-5.71h.05c.5,0,2,1.4,3.61,4.36.05-.8.2-1.65.3-2.41-1.5-2.35-3.16-3.91-4.51-3.36Z"/><path class="cls-4" d="M59.9,175.18c-1-.45-2.25.25-3.71,2.05-.3.4-.65.8-.95,1.3.15.75.25,1.55.3,2.35.6-1.05,1.2-2,1.8-2.76,1.1-1.4,1.75-1.6,1.9-1.6h.05c.1.05.45.6.2,2.51-.1.95-.35,2-.65,3.11.65-.5,1.25-1,1.9-1.45.1-.5.2-1,.25-1.5.3-2.25-.1-3.61-1.1-4.01Z"/><path class="cls-4" d="M70.52,185.85c-.55-1.35-2.86-1.45-5.61-.9-.45.65-.95,1.25-1.45,1.9,3.46-1,5.51-.85,5.71-.45.15.4-1.2,1.95-4.31,3.61.8.05,1.6.2,2.35.3,2.3-1.45,3.86-3.11,3.31-4.46Z"/><path class="cls-4" d="M67.07,196.28c-.75.15-1.55.25-2.41.3,3.16,1.75,4.56,3.31,4.41,3.76-.15.4-2.2.55-5.56-.45.5.65,1,1.25,1.4,1.9,1,.2,1.9.35,2.71.35,1.4,0,2.41-.35,2.76-1.2.65-1.35-.9-3.06-3.31-4.66Z"/><path class="cls-4" d="M60.65,205.85c-.65-.45-1.3-.95-1.95-1.5,1.05,3.51.9,5.66.5,5.81-.4.15-1.95-1.2-3.61-4.26-.05.8-.2,1.65-.35,2.41,1.3,2,2.71,3.36,3.91,3.36.2,0,.4-.05.6-.1,1.35-.55,1.45-2.91.9-5.71Z"/><path class="cls-4" d="M49.03,205.65c-1.75,3.21-3.36,4.61-3.76,4.46-.4-.15-.5-2.2.45-5.56-.65.55-1.3,1.05-1.95,1.45-.55,2.71-.45,4.91.9,5.46.2.1.35.1.6.1,1.25,0,2.71-1.45,4.06-3.56-.15-.7-.25-1.55-.3-2.35Z"/><path class="cls-4" d="M35.45,200.23c-.15-.4,1.2-1.95,4.26-3.61-.8-.05-1.6-.2-2.35-.35-2.35,1.5-3.86,3.16-3.31,4.51.35.85,1.4,1.25,2.86,1.25.85,0,1.8-.1,2.86-.35.45-.65.95-1.3,1.5-1.95-3.51,1.05-5.66.9-5.81.5Z"/><path class="cls-4" d="M71.98,193.32c0-2.35-5.31-3.41-10.22-3.41-.45,0-.85,0-1.3.05.3-.3.6-.6.95-.9,3.46-3.46,6.46-7.97,4.81-9.67-1.65-1.65-6.16,1.35-9.67,4.81-.3.3-.6.6-.9.95,0-.45.05-.85.05-1.3,0-4.91-1.05-10.22-3.41-10.22s-3.41,5.31-3.41,10.22c0,.45,0,.85.05,1.3-.3-.3-.6-.6-.9-.95-3.46-3.46-7.97-6.46-9.62-4.81s1.35,6.16,4.81,9.67c.3.3.6.6.95.9-.45,0-.85-.05-1.3-.05-4.91,0-10.22,1.05-10.22,3.41s5.31,3.41,10.22,3.41c.45,0,.85,0,1.3-.05-.3.3-.6.6-.95.9-3.46,3.46-6.46,7.97-4.81,9.62.35.35.75.5,1.25.5,2.1,0,5.56-2.51,8.37-5.31.3-.3.6-.6.9-.95,0,.45-.05.85-.05,1.3,0,4.91,1.1,10.22,3.41,10.22s3.41-5.31,3.41-10.22c0-.45,0-.85-.05-1.3.3.3.6.6.9.95,2.81,2.81,6.26,5.31,8.37,5.31.5,0,.95-.15,1.25-.5,1.65-1.65-1.35-6.16-4.81-9.62-.3-.3-.6-.6-.95-.9.45,0,.85.05,1.3.05,5.01,0,10.27-1.05,10.27-3.41ZM58.6,195.07c-1.75-.2-3.11-.5-4.06-.8.9.4,2.05,1.15,3.46,2.25.75.6,1.55,1.3,2.35,2.15,4.01,4.01,5.21,7.11,4.81,7.52-.4.4-3.51-.8-7.52-4.81-.85-.85-1.55-1.65-2.15-2.35-1.05-1.3-1.8-2.46-2.2-3.31.3.95.6,2.25.8,3.96.1.95.15,2,.15,3.16,0,5.66-1.35,8.72-1.9,8.72s-1.9-3.06-1.9-8.72c0-1.15.05-2.25.15-3.16.15-1.6.45-2.91.75-3.86-.45.85-1.15,1.95-2.15,3.26-.6.75-1.3,1.55-2.15,2.35-4.01,4.01-7.11,5.21-7.52,4.81s.8-3.51,4.81-7.52c.85-.85,1.65-1.55,2.35-2.15,1.35-1.1,2.51-1.8,3.41-2.25-.95.35-2.25.65-4.01.8-.95.1-2,.15-3.21.15-5.66,0-8.72-1.35-8.72-1.9s3.06-1.9,8.72-1.9c1.15,0,2.25.05,3.21.15,1.75.15,3.11.5,4.01.8-.2-.1-.4-.2-.65-.35-.85-.5-1.8-1.1-2.71-1.9-.8-.65-1.6-1.35-2.41-2.15-4.01-4.01-5.21-7.11-4.81-7.52.05-.05.1-.05.25-.05.9,0,3.76,1.35,7.27,4.91.85.85,1.55,1.65,2.15,2.35,1.1,1.3,1.8,2.46,2.2,3.31-.3-.95-.6-2.25-.8-3.96-.1-.95-.15-2-.15-3.16,0-5.66,1.35-8.72,1.9-8.72s1.9,3.06,1.9,8.72c0,1.15-.05,2.25-.15,3.16-.2,1.75-.5,3.06-.8,4.01.45-.85,1.15-2,2.25-3.36.6-.75,1.3-1.55,2.15-2.41,3.56-3.56,6.36-4.91,7.27-4.91.1,0,.2.05.25.05.4.4-.8,3.51-4.81,7.52-.8.8-1.6,1.5-2.41,2.15-.95.8-1.85,1.4-2.71,1.9-.25.15-.5.25-.65.35.95-.35,2.3-.65,4.01-.8.95-.1,2-.15,3.21-.15,5.66,0,8.72,1.35,8.72,1.9s-3.06,1.9-8.72,1.9c-1.25,0-2.3-.05-3.26-.15Z"/><circle class="cls-6" cx="52.33" cy="193.32" r="3.76"/><path class="cls-4" d="M52.33,197.83c-1.45,0-2.91-.7-3.76-2.05-1.35-2.05-.75-4.86,1.35-6.21,2.1-1.35,4.86-.75,6.21,1.35h0c1.35,2.05.75,4.86-1.35,6.21-.8.45-1.6.7-2.46.7ZM52.33,190.36c-.55,0-1.1.15-1.6.45-1.4.9-1.8,2.76-.9,4.11.9,1.4,2.76,1.8,4.11.9,1.4-.9,1.8-2.76.9-4.11h0c-.55-.9-1.55-1.35-2.51-1.35Z"/></g><rect class="cls-6" x="69.52" y="71.79" width="36.76" height="25.79"/><rect class="cls-5" x="56.61" y="112.33" width="38.82" height="26.18"/><rect class="cls-6" x="139.36" y="93.1" width="36.02" height="28.56"/><rect class="cls-5" x="182.4" y="130.09" width="14.75" height="14.75"/><rect class="cls-6" x="112.8" y="108.09" width="12.77" height="12.77"/><path class="cls-5" d="M125.57,121.35h-12.77c-.28,0-.5-.22-.5-.5v-12.76c0-.28.22-.5.5-.5h12.77c.28,0,.5.22.5.5v12.76c0,.28-.22.5-.5.5ZM113.3,120.35h11.77v-11.76h-11.77v11.76Z"/><rect class="cls-6" x="160.77" y="78.12" width="11.24" height="8.43"/><path class="cls-5" d="M171.99,87.05h-11.22c-.27,0-.49-.23-.5-.5v-8.43c0-.28.22-.5.5-.5h11.22c.28,0,.5.22.5.5v8.43c0,.28-.22.5-.5.5ZM161.25,86.05h10.24v-7.43h-10.22l-.02,7.43Z"/><rect class="cls-6" x="157.57" y="134.25" width="6.41" height="6.41"/><path class="cls-4" d="M163.99,141.17h-6.41c-.28,0-.5-.22-.5-.5v-6.42c0-.28.22-.5.5-.5h6.41c.28,0,.5.22.5.5v6.42c0,.28-.22.5-.5.5ZM158.08,140.17h5.41v-5.42h-5.41v5.42Z"/><rect class="cls-5" x="114.79" y="137.46" width="16.05" height="7.37"/><rect class="cls-6" x="100.75" y="133.2" width="5.32" height="5.32"/><path class="cls-5" d="M106.06,139.01h-5.31c-.28,0-.5-.22-.5-.5v-5.31c0-.28.22-.5.5-.5h5.31c.28,0,.5.22.5.5v5.31c0,.28-.22.5-.5.5ZM101.25,138.01h4.31v-4.31h-4.31v4.31Z"/><rect class="cls-5" x="139.36" y="64.28" width="10.99" height="10.99"/><rect class="cls-6" x="189.78" y="112.33" width="9.78" height="7.62"/><path class="cls-5" d="M199.56,120.46h-9.78c-.28,0-.5-.22-.5-.5v-7.63c0-.28.22-.5.5-.5h9.78c.28,0,.5.22.5.5v7.62c0,.28-.21.5-.49.51,0,0,0,0-.01,0ZM190.28,119.46h8.78v-6.63h-8.78v6.63Z"/><path class="cls-6" d="M360.11,185.57l5.58-15.95s-3.45-8.15-2.79-12.72,2.79-12.8,4.65-12,.8,4.51,2.13,10.63c0,0,10.63-19.41,13.56-18.88s2.39,2.78,1.59,4.18c0,0,3.19-2.71,4.26-.85.61,1.16.61,2.56,0,3.72,0,0,2.26-2.53,3.05-.8s-.66,3.86-.66,3.86c0,0,2.66-2.53,2.92-.27s-20.33,46.52-20.33,46.52"/><path class="cls-4" d="M374.07,193.53c-.08,0-.15-.02-.22-.05-.26-.12-.37-.42-.25-.68,0,0,0,0,0,0,8.17-17.56,20.32-44.37,20.29-46.26,0-.25-.1-.43-.19-.46-.32-.12-1.24.46-1.87,1-.22.19-.55.16-.73-.05-.15-.17-.17-.42-.05-.62,0,0,1.29-1.91.62-3.34-.12-.28-.25-.3-.3-.3-.47-.07-1.42.69-1.9,1.22-.18.2-.47.23-.69.08-.21-.16-.27-.45-.14-.68.53-1,.53-2.21,0-3.21-.1-.2-.29-.33-.51-.37-.81-.14-2.25.76-3,1.37-.2.16-.48.16-.67,0-.19-.16-.24-.43-.12-.65.49-.71.64-1.6.43-2.44-.36-.59-.98-.96-1.67-1h-.07c-1.69,0-8,9.57-12.94,18.62-.13.25-.44.34-.69.21-.13-.07-.23-.2-.26-.35-.45-2.13-.72-4.29-.82-6.46-.14-2.28-.26-3.49-1-3.81h-.18c-1.29.72-3.05,6.71-3.76,11.58-.64,4.36,2.72,12.36,2.76,12.44.05.12.05.25,0,.37l-5.58,16c-.09.28-.39.42-.67.33-.28-.09-.42-.39-.33-.67l5.52-15.77c-.53-1.27-3.38-8.48-2.75-12.8.51-3.53,2.24-11.19,4.28-12.33.33-.2.73-.23,1.09-.08,1.37.59,1.47,2.22,1.63,4.7.09,1.65.26,3.29.53,4.92,3.12-5.62,10.59-18.4,13.41-17.89,1.02.07,1.93.66,2.42,1.56.24.55.29,1.16.16,1.75.71-.46,1.55-.68,2.39-.62.52.09.98.41,1.23.88.43.75.62,1.62.53,2.48.42-.3.94-.44,1.46-.4.49.08.91.41,1.09.88.34.82.38,1.74.11,2.59.4-.23.88-.28,1.33-.16.53.23.87.75.87,1.32.26,2.29-16.94,39.39-20.39,46.8-.06.18-.21.32-.4.35Z"/><path class="cls-4" d="M257.33,247.75s-13.86,41.3-15.16,52h93.94s-8.32-36.75-13.06-50.23l-65.72-1.77Z"/><path class="cls-4" d="M336.11,300.24h-93.94c-.14,0-.28-.06-.37-.17-.1-.11-.14-.25-.13-.39,1.3-10.62,14.62-50.4,15.19-52.09.06-.21.25-.35.47-.34h0l65.73,1.76c.2,0,.38.14.45.33,4.69,13.36,13,49.92,13.08,50.29.06.28-.12.54-.4.6-.03,0-.06,0-.09,0h.01ZM242.74,299.24h92.75c-1.1-4.8-8.44-36.66-12.79-49.25l-65-1.74c-1.34,3.97-13.38,40.23-14.96,50.99h0Z"/><path class="cls-6" d="M178.45,207.91s-7.78-11.29-12.7-16.51-22-33.56-18.14-36.66c.87-.7,2.67,1.8,3,2.17,1.51,1.61,4.57,5.65,6,7.32.77.89-1.09,2.5-.32,3.39.58.67,1.34,1.06,1.89,1.73,1.28,1.37,2.8,2.51,4.49,3.34l5.69,3.27c-.96-3.63-1.58-7.35-1.85-11.1-.12-.96-.06-1.93.19-2.87.27-.95,1.04-1.68,2-1.9.94-.08,1.86.34,2.43,1.09.55.76.97,1.59,1.26,2.48,2.72,7.13,6.52,13.71,9.51,20.67,2.37,5.48,4.62,11.37,8.1,16.28l-11.55,7.3Z"/><path class="cls-4" d="M178.46,208.4c-.17,0-.33-.09-.43-.23-.08-.11-7.81-11.32-12.66-16.45s-19.29-29-18.83-35.71c0-.65.27-1.26.75-1.7,1.13-.91,2.66.95,3.49,1.95.1.12.17.22.22.27.91,1,2.31,2.72,3.67,4.42.92,1.15,1.78,2.23,2.37,2.91s.22,1.55-.08,2.24-.4,1-.24,1.15c.26.29.55.56.87.79.37.3.7.63,1,1,1.24,1.32,2.71,2.41,4.34,3.22l4.7,2.65c-.8-3.28-1.33-6.63-1.57-10-.13-1.03-.05-2.08.22-3.08.42-1.6,2.06-2.56,3.66-2.14.67.18,1.26.58,1.67,1.14.57.77,1.01,1.64,1.31,2.55,1.59,4.17,3.55,8.16,5.44,12,1.39,2.83,2.83,5.75,4.1,8.7.35.81.69,1.63,1,2.45,2,4.72,4.07,9.6,7,13.74.08.12.11.26.08.4-.02.14-.11.26-.23.33l-11.59,7.31c-.08.05-.17.08-.26.09ZM147.99,155.1h-.06c-.25.27-.38.63-.36,1-.43,6.33,14.05,30.15,18.55,34.93,4.37,4.63,11,14.1,12.48,16.17l10.72-6.75c-2.84-4.13-4.85-8.88-6.8-13.49-.35-.82-.69-1.63-1-2.44-1.26-2.92-2.69-5.84-4.07-8.66-1.91-3.88-3.87-7.89-5.46-12-.26-.83-.66-1.62-1.17-2.33-.46-.63-1.22-.98-2-.91-.78.18-1.39.78-1.6,1.55-.23.87-.29,1.78-.17,2.68.27,3.72.89,7.4,1.84,11,.07.28-.1.56-.38.63-.13.03-.27.01-.38-.05l-5.69-3.27c-1.74-.87-3.3-2.04-4.63-3.46-.26-.3-.56-.57-.88-.81-.36-.28-.69-.58-1-.91-.59-.69-.22-1.55.08-2.24s.4-1,.24-1.16c-.6-.69-1.47-1.78-2.4-2.94-1.28-1.6-2.73-3.42-3.61-4.35-.06-.06-.15-.18-.27-.33-1.34-1.68-1.83-1.86-1.98-1.86Z"/><polygon class="cls-4" points="171.01 187.57 174.57 185.27 132.28 121.85 130.74 122.85 171.01 187.57"/><path class="cls-4" d="M171.01,188.06h-.11c-.13-.03-.24-.11-.31-.22l-40.27-64.73c-.14-.23-.07-.53.15-.68l1.54-1c.23-.15.54-.09.69.14l42.29,63.42c.15.23.08.54-.15.69l-3.56,2.3c-.08.05-.17.08-.27.08ZM131.42,123l39.75,63.91,2.71-1.74-41.74-62.63-.72.46Z"/><path class="cls-6" d="M167.86,186.43c-1.72-1.23-2.6-3.31-2.29-5.4.34-2.04,1.11-3.99,2.24-5.72,1.14-1.72,2.03-3.6,2.62-5.58.21-.9.19-2-.6-2.51-.77-.3-1.64-.13-2.25.42-2.66,1.87-3.84,5.2-4.74,8.33l1.51-5.56c.46-1.43.7-2.93.71-4.44,0-1.53-.72-2.96-1.93-3.89-.29-.22-.64-.33-1-.31-.6.06-1,.65-1.26,1.19-1.28,2.54-2.04,5.32-2.22,8.16l-.13-9c.05-.81-.08-1.63-.39-2.38-.34-.79-1.15-1.25-2-1.13-1,.21-1.4,1.33-1.61,2.3-.35,1.61-.54,3.25-.58,4.89"/><path class="cls-4" d="M167.85,186.91c-.07.02-.15.02-.22,0-1.91-1.31-2.89-3.6-2.53-5.89.34-2.11,1.13-4.13,2.31-5.92l.26-.46c1-1.55,1.78-3.23,2.3-5,.17-.74.17-1.63-.37-1.94s-1.43.21-1.68.39c-2.58,1.81-3.7,5.11-4.54,8-.08.27-.36.43-.64.36-.27-.08-.43-.36-.36-.63l1.51-5.57c.45-1.38.68-2.82.7-4.27,0-1.37-.63-2.66-1.71-3.49-.17-.15-.4-.23-.63-.23-.28,0-.55.33-.85.91-1.25,2.49-1.99,5.21-2.16,8-.08.28-.37.44-.64.36-.17-.05-.31-.18-.36-.36l-.14-9c.05-.74-.07-1.47-.33-2.16-.24-.55-.79-.9-1.39-.86-.56.13-1,.77-1.21,1.91-.34,1.57-.54,3.18-.58,4.79,0,.28-.24.51-.52.5,0,0,0,0-.01,0-.28,0-.51-.24-.5-.52,0,0,0,0,0,0,.04-1.68.24-3.36.6-5,.34-1.57,1-2.48,2-2.7,1.06-.14,2.09.43,2.53,1.41.34.83.5,1.72.45,2.61v3.81c.35-1.11.8-2.2,1.32-3.24.27-.74.9-1.29,1.67-1.47.47-.02.93.12,1.31.4,1.35,1.01,2.16,2.58,2.19,4.26.02,1.14-.12,2.28-.42,3.38.59-.81,1.31-1.53,2.13-2.12.76-.69,1.86-.86,2.8-.43.86.5,1.18,1.65.84,3.07-.54,1.87-1.35,3.64-2.41,5.27l-.26.45c-1.1,1.67-1.84,3.54-2.18,5.51-.29,1.88.48,3.77,2,4.91.24.15.33.46.18.71-.1.16-.27.25-.46.25Z"/><path class="cls-7" d="M331.55,156.42s8,7.62,10.09,10.81,4.09,42,4.09,42l12.08-29.24,20.27,7.9s-12.39,63.21-25.45,64.54-38.3-23.28-38.3-23.28l17.22-72.73Z"/><path class="cls-7" d="M272.36,150.05s-23.33,4.59-29,11.68,11.58,71.38,11.91,89.1c0,0,40.31,7.05,67.82-1.32,0,0,9.56-33.9,12-53.39s-.7-36.51-3.54-39.7-13.73-5.29-13.73-5.29c0,0-40.13,0-45.46-1.08Z"/><path class="cls-6" d="M336.82,149.53c.51-2.27.78-4.59.8-6.92.06-1.39-.15-2.77-.62-4.08-1.72-4.27-7.45-6.2-8.38-10.71-.78-3.79.64-7.12-.35-10.78-.94-3.49-2-5.15-1.6-9.35.64-7.44-.57-14.92-3.51-21.78-2.75-6.45-6.64-9.41-11.35-14.3-1.11-1.09-2.45-1.92-3.91-2.44-12.47-4.91-26.12-1-32.4,11.3-3.49,6.85-5,14.64-9.08,21.18-2.85,4.6-7,8.66-8.06,14-.95,4.69.78,9.14-.31,13.88-.32,1.59-.93,3.1-1.8,4.47-.99,1.36-2.15,2.58-3.45,3.65-2.94,2.46-5.53,5.31-7.71,8.47-.69,1.1-1.29,2.26-1.77,3.46l93.5-.05Z"/><path class="cls-4" d="M336.82,150.05h-93.5c-.17,0-.33-.09-.42-.23-.1-.14-.12-.32-.06-.48.5-1.23,1.11-2.42,1.82-3.54,2.2-3.2,4.82-6.08,7.79-8.58l.16-.15c1.21-.99,2.29-2.14,3.21-3.4.83-1.32,1.42-2.77,1.73-4.3.42-2.31.48-4.67.18-7-.29-2.29-.24-4.62.13-6.9.78-3.84,3.12-7.06,5.38-10.17.94-1.28,1.9-2.61,2.74-4,2.14-3.73,3.88-7.67,5.21-11.76,1.09-3.21,2.38-6.34,3.85-9.39,6.14-12,19.73-16.78,33-11.54,1.54.54,2.93,1.42,4.09,2.57.91.94,1.79,1.81,2.63,2.64,3.52,3.5,6.56,6.51,8.82,11.81,2.97,6.93,4.19,14.49,3.56,22-.25,2.37.07,4.77.92,7,.21.67.44,1.39.66,2.2.42,1.88.5,3.83.25,5.74-.2,1.69-.17,3.4.11,5.08.46,2.25,2.24,3.83,4.12,5.51,1.66,1.48,3.39,3,4.23,5.11.49,1.37.71,2.82.66,4.27-.02,2.36-.29,4.7-.81,7,0,.26-.2.48-.46.51ZM244.1,149.05h92.31c.45-2.1.68-4.25.7-6.4.05-1.32-.15-2.64-.59-3.89-.75-1.86-2.38-3.31-4-4.72-1.92-1.71-3.91-3.49-4.44-6.07-.3-1.77-.34-3.58-.13-5.36.24-1.8.17-3.63-.22-5.4-.21-.8-.43-1.5-.64-2.16-.9-2.35-1.24-4.87-1-7.37.63-7.35-.57-14.75-3.48-21.53-2.18-5.12-5-7.93-8.59-11.48-.85-.84-1.73-1.72-2.65-2.67-1.06-1.03-2.33-1.82-3.73-2.32-12.81-5-25.86-.49-31.75,11.05-1.45,3.01-2.72,6.11-3.8,9.27-1.35,4.17-3.13,8.19-5.3,12-.86,1.38-1.84,2.73-2.79,4-2.29,3.16-4.47,6.14-5.2,9.76-.35,2.19-.39,4.42-.11,6.62.31,2.42.24,4.88-.21,7.28-.33,1.65-.97,3.22-1.87,4.64-.97,1.34-2.11,2.55-3.38,3.6l-.16.14c-2.9,2.44-5.46,5.25-7.61,8.37-.51.83-.97,1.7-1.36,2.6v.04Z"/><path class="cls-6" d="M307.01,146.61s3.16,44.92-12.59,41.91c-20.92-4.46-11.4-36-11.4-36l.34-5.9.8-13.72.75-12.82,22-.25.85,10.47.26,3.4-1.01,12.91Z"/><path class="cls-4" d="M295.89,189.18c-.52,0-1.05-.05-1.56-.15-4.54-.82-8.5-3.57-10.84-7.54-6.26-10.6-1.38-27.74-1-29.07l1.88-32.39c.02-.27.24-.48.51-.48l22-.24h0c.27,0,.49.2.52.47l1.1,13.87-1,13c.13,1.8,2.11,32.74-6.84,40.7-1.31,1.18-3.01,1.83-4.77,1.83ZM285.4,120.58l-1.87,32s0,.08,0,.12c0,.17-5.28,17.9.87,28.31,2.2,3.71,5.9,6.28,10.15,7.05,1.96.44,4-.12,5.47-1.48,8.65-7.69,6.52-39.58,6.5-39.9v-.07l1-12.92-1.09-13.35-21.03.24Z"/><path class="cls-4" d="M308.01,133.69c-1.73,3.01-4.19,5.53-7.15,7.34-4.7,3.06-11.34,5.78-17.1,4.84l.4-13c4.21.57,8.47.57,12.68,0,3.71-.41,7.52-.87,10.91-2.55l.26,3.37Z"/><path class="cls-4" d="M286.11,146.55c-.81,0-1.63-.06-2.43-.19-.24-.04-.42-.26-.41-.51l.39-13c0-.14.07-.28.18-.37.11-.09.25-.13.39-.11,4.16.58,8.39.58,12.55,0,3.44-.38,7.34-.82,10.75-2.5.15-.08.32-.08.47,0,.14.08.23.23.25.39l.25,3.4c0,.09,0,.19-.05.27-1.76,3.09-4.28,5.68-7.32,7.53-5.03,3.27-10.5,5.09-15.02,5.09ZM284.28,145.44c4.66.6,10.72-1.18,16.31-4.83,2.85-1.73,5.22-4.13,6.91-7l-.19-2.53c-3.39,1.51-7.11,1.92-10.42,2.29-4.06.57-8.18.61-12.25.12l-.36,11.95Z"/><path class="cls-6" d="M296.82,135.98h-2.26c-10.66.12-19.4-8.41-19.54-19.07-.07-6.1,1.67-17.73,1.67-17.73,0,0,8.94-3.27,15.94-5.88,11.76-4.45,14.92-10.8,14.92-10.8.37,4.22,1.3,8.37,2.76,12.35,1.26,2.9,5.25,8.07,5.25,8.07,0,0,.34,9.53.39,13.51.11,10.68-8.45,19.43-19.13,19.55Z"/><path class="cls-4" d="M294.35,136.52c-10.87-.01-19.71-8.75-19.85-19.61-.07-6.08,1.66-17.7,1.68-17.82.03-.19.16-.34.34-.41.09,0,9-3.23,15.92-5.85,11.43-4.32,14.61-10.48,14.64-10.54.06-.28.33-.45.61-.39.27.06.44.32.39.59.37,4.16,1.29,8.26,2.72,12.18,1.23,2.8,5.15,7.9,5.19,8,.06.09.1.19.1.3,0,.09.35,9.58.39,13.53.11,10.95-8.68,19.93-19.63,20.06h-2.25l-.25-.04ZM277.16,99.52c-.27,1.87-1.69,11.9-1.63,17.35.13,10.31,8.51,18.59,18.82,18.61h2.46c10.38-.13,18.7-8.62,18.61-19,0-3.65-.34-12.06-.38-13.34-1.97-2.51-3.72-5.18-5.21-8-1.32-3.55-2.22-7.24-2.66-11-1.57,2.13-5.63,6.45-14.37,9.75-6.17,2.24-14.05,5.02-15.64,5.64h0Z"/><path class="cls-4" d="M294.46,116.4c-.83,0-1.66-.04-2.49-.13-.39-.05-.73-.27-.93-.61-1.45-2.36,2.21-12.54,3-14.56.1-.28.4-.42.68-.32.28.1.42.4.32.68-1.66,4.49-4,12.16-3,13.66.06.1.12.12.17.12,1.82.19,3.66.17,5.48-.06.28-.04.54.17.58.45.04.28-.16.54-.44.58-1.12.13-2.24.2-3.37.19Z"/><ellipse class="cls-4" cx="304.3" cy="104.61" rx="1.33" ry="3.28" transform="translate(-1.13 3.35) rotate(-.63)"/><ellipse class="cls-4" cx="286.69" cy="104.19" rx="1.33" ry="3.28" transform="translate(-1.13 3.16) rotate(-.63)"/><path class="cls-6" d="M283.78,146.61c-4.18-2.24-10.77,1.1-11.41,3.44s1.95,39.15,11.41,44.82c4.1,2.46,11.47-6.35,11.47-6.35,0,0-10.55-4.61-11.47-41.91Z"/><path class="cls-4" d="M285.39,195.82c-.66.01-1.31-.16-1.88-.5-9.5-5.7-12.4-42.62-11.64-45.4.34-1.23,2-2.63,4.14-3.57,2.92-1.25,5.91-1.33,8-.2.16.09.26.26.27.44.91,36.54,11.07,41.41,11.17,41.46.15.06.26.19.29.35.04.16,0,.32-.1.45-.26.33-5.88,6.97-10.25,6.97ZM280.56,146.38c-1.43.03-2.84.34-4.14.92-1.84.79-3.31,2-3.55,2.89-.45,1.61,1.92,38.69,11.17,44.24,2.86,1.72,8.16-3.22,10.42-5.78-2.28-1.57-10.34-9.39-11.19-41.72-.85-.37-1.78-.56-2.71-.55Z"/><path class="cls-6" d="M307.01,146.61c4.18-2.24,10.77,1.1,11.41,3.44s-2,39.15-11.41,44.82c-4.1,2.46-11.47-6.35-11.47-6.35,0,0,10.55-4.61,11.47-41.91Z"/><path class="cls-4" d="M305.4,195.82c-4.37,0-10-6.64-10.26-7-.1-.13-.14-.29-.1-.45.03-.16.14-.29.29-.35.1,0,10.27-5.12,11.17-41.46,0-.18.11-.35.27-.44,2.1-1.12,5.09-1,8,.2,2.18.94,3.81,2.34,4.14,3.57.76,2.78-2.15,39.7-11.64,45.4-.56.35-1.21.53-1.87.53ZM296.33,188.65c2.26,2.56,7.55,7.5,10.42,5.78,9.25-5.55,11.62-42.63,11.18-44.24-.25-.91-1.72-2.1-3.56-2.89-2.13-1.06-4.61-1.2-6.85-.37-.89,32.33-8.89,40.15-11.19,41.72h0Z"/><path class="cls-6" d="M284.91,120.07l22-.25s-3.35,11.61-11.76,10.47-10.24-10.22-10.24-10.22Z"/><path class="cls-4" d="M296.28,130.91c-.4,0-.81-.03-1.21-.09-8.67-1.17-10.65-10.54-10.67-10.63-.03-.15.01-.31.11-.43.09-.12.24-.19.39-.19l22-.24c.16-.01.32.06.41.2.1.13.13.3.09.46-.04.09-3.26,10.92-11.12,10.92ZM285.57,120.57c.59,2,2.95,8.31,9.64,9.21,6.69.9,10.11-7,11-9.43l-20.64.22Z"/><path class="cls-7" d="M243.32,161.73l-28.36,46.18-27.86-16.21-16.56,10.16s40.05,53.43,59.66,44.39c9.11-4.2,38.28-49,38.28-49l-25.16-35.52Z"/><path class="cls-4" d="M324.7,243.99h-.15c-.27-.08-.42-.37-.34-.64,0,0,0,0,0,0,.17-.59,17.45-58.78,9.47-79.87-.1-.27.03-.57.3-.67.27-.1.56.04.67.3,3.4,9,2.85,25.31-1.66,48.44-3.35,17.19-7.75,31.95-7.8,32.09-.07.21-.27.36-.49.35Z"/><path class="cls-4" d="M254.9,246.73c-.26,0-.47-.19-.51-.44-.07-.52-7.13-51.73-9.49-63.28-.06-.27.11-.54.38-.6,0,0,.01,0,.02,0,.28-.06.55.11.61.39,0,0,0,0,0,.01,2.37,11.58,9.43,62.82,9.5,63.34.04.28-.16.54-.44.58h-.07Z"/><path class="cls-4" d="M339.9,223.84c-.06,0-.13,0-.19,0-.26-.1-.39-.4-.29-.66,0,0,0-.01,0-.02l16.69-40.41c.08-.28.36-.44.64-.37s.44.36.37.64c-.01.04-.03.09-.05.13l-16.69,40.41c-.09.18-.28.29-.48.28Z"/><path class="cls-4" d="M378.08,163.79c-.21,0-.4-.13-.48-.33-2-5-8.05-7.43-8.11-7.45-.26-.11-.39-.4-.29-.67.1-.26.4-.4.66-.29,0,0,0,0,.01,0,.26.1,6.53,2.61,8.69,8,.11.25,0,.55-.26.66-.01,0-.02,0-.03.01-.06.04-.12.06-.19.07Z"/><polygon class="cls-2" points="168.94 94.01 149.51 94.01 139.79 110.84 149.51 127.66 168.94 127.66 178.65 110.84 168.94 94.01"/><polygon class="cls-3" points="223.83 95.53 210.73 95.53 204.18 106.88 210.73 118.23 223.83 118.23 230.38 106.88 223.83 95.53"/><polygon class="cls-1" points="90.84 71.58 74.54 71.58 66.39 85.7 74.54 99.81 90.84 99.81 98.99 85.7 90.84 71.58"/><polygon class="cls-5" points="209.29 59.51 193.37 59.51 185.4 73.31 193.37 87.1 209.29 87.1 217.26 73.31 209.29 59.51"/><polygon class="cls-5" points="107.4 74.43 97.35 74.43 92.32 83.14 97.35 91.85 107.4 91.85 112.43 83.14 107.4 74.43"/></svg>