<?xml version="1.0" encoding="utf-8"?>
<!-- Generator: Adobe Illustrator 28.1.0, SVG Export Plug-In . SVG Version: 6.00 Build 0)  -->
<svg version="1.1" id="Calque_1" xmlns="http://www.w3.org/2000/svg" xmlns:xlink="http://www.w3.org/1999/xlink" x="0px" y="0px"
	 viewBox="0 0 400 300" style="enable-background:new 0 0 400 300;" xml:space="preserve">
<style type="text/css">
	.st0{fill:#231F20;}
	.st1{fill:#FFFFFF;}
	.st2{fill:#484948;}
	.st3{fill:#D1D3D4;}
	.st4{fill:#2684FF;}
	.st5{fill:url(#SVGID_1_);}
	.st6{fill:url(#SVGID_00000155140165835922083170000014221294683820433322_);}
	.st7{fill:url(#SVGID_00000079464627996485485010000006734096628434479030_);}
	.st8{fill:url(#SVGID_00000127736280175623756840000018259422750892513432_);}
	.st9{fill:none;stroke:#D1D3D4;stroke-width:0.94;stroke-miterlimit:10;}
</style>
<g id="_566_team_presentation_flatline">
	<path class="st0" d="M349.2,266.3H50.8c-0.3,0-0.5-0.2-0.5-0.5s0.2-0.5,0.5-0.5h298.4c0.3,0,0.5,0.2,0.5,0.5
		S349.5,266.3,349.2,266.3L349.2,266.3z"/>
</g>
<g id="expert">
	<path class="st1" d="M349.1,232.4c0,0-1.8,0-4.3,2c2.2-9.8-1.3-18.6-1.3-18.6c-3.8,3.6-6.9,7.9-9.1,12.7c-2.9-4.1-5.7-6.3-5.7-6.3
		c-1.7,5.4-2.2,11-1.6,16.6c-2-1.8-4.3-3.3-6.8-4.4c-0.2,7.2,2.7,13.9,5.5,18.5h18.8C347,248.8,351,241,349.1,232.4L349.1,232.4z"/>
	<path class="st0" d="M349.7,232.2c-0.1-0.3-0.3-0.5-0.6-0.5c-0.1,0-1.4,0-3.4,1.2c1.6-9.2-1.5-17.1-1.7-17.5
		c-0.1-0.2-0.2-0.3-0.4-0.3s-0.4,0-0.5,0.1c-3.4,3.1-6.1,6.8-8.3,10.9c-1-7.8-3.1-16.2-7-23.2l-1,0.6c3.8,6.8,5.9,14.9,6.9,22.6
		l-0.5-0.3c-2.2-2.6-4-4.1-4.2-4.3c-0.1-0.1-0.3-0.1-0.5-0.1s-0.3,0.2-0.4,0.4c-1.6,5-2.2,10.2-1.8,15.4c-1.8-1.4-3.8-2.7-5.9-3.6
		c-0.2-0.1-0.4,0-0.5,0c-0.1,0.1-0.3,0.3-0.3,0.5c-0.2,7.3,2.8,14.1,5.4,18.5h-1.4l2.7,13.4h16.5l2.7-13.4h-0.4
		C347.8,248.6,351.5,240.9,349.7,232.2L349.7,232.2z M343.2,216.8c0.8,2.4,2.7,9.5,1.1,17.3c-1.3,1.1-2.8,2.7-4.3,5
		c-1.1-4.3-3-7.9-4.9-10.7v-0.1C337.1,224,339.8,220.1,343.2,216.8L343.2,216.8z M326.1,252.1c-2.4-4.2-5.2-10.3-5.2-17
		c2,1,4,2.3,5.7,3.8c0.5,4.5,1.4,9,2.9,13.2L326.1,252.1L326.1,252.1z M335.8,248.9c-0.1,0.7-0.2,1.3-0.3,1.9c0,0.5-0.1,0.9-0.1,1.3
		h-4.9c-1.4-4.3-2.4-8.7-2.9-13.2c0-0.1,0-0.3,0-0.5c-0.5-5.1-0.1-10.3,1.3-15.2c1,0.9,2.9,2.7,4.8,5.4l0,0c0.1,0.1,0.2,0.3,0.3,0.4
		c0.1,0.2,0.3,0.5,0.5,0.7c0.3,0.4,0.5,0.8,0.7,1.2c0,0.1,0.1,0.1,0.1,0.2c1.6,2.7,3.1,5.9,3.8,9.6l-0.4,0.7
		C337.1,244.2,336.2,246.7,335.8,248.9L335.8,248.9L335.8,248.9z M336.6,252.1L336.6,252.1c0.1-3.7,1.2-7.2,3.1-10.3
		c0.2-0.3,0.4-0.6,0.5-0.9c1.2-2,2.4-3.5,3.4-4.6c0.6-0.6,1.1-1.1,1.6-1.4c1.5-1.2,2.7-1.6,3.3-1.8c1.5,8.1-2.1,15.3-4.6,19.1H336.6
		L336.6,252.1z"/>
	<path class="st2" d="M341.6,203.3c0-0.9-2-1.6-4.7-1.9c2.4-1.3,4-2.7,3.6-3.5c-0.3-0.8-2.5-0.8-5.2,0.1c1.8-2.2,2.7-4.2,2.1-4.8
		c-0.6-0.6-2.5,0.3-4.7,2c0.8-2.7,0.9-4.8,0.1-5.1c-0.8-0.3-2.3,1.2-3.6,3.8c-0.3-2.8-1-4.9-1.9-4.9s-1.6,2-1.9,4.7
		c-1.3-2.4-2.7-4-3.5-3.6c-0.8,0.3-0.8,2.5,0.1,5.2c-2.2-1.8-4.2-2.7-4.8-2.1c-0.6,0.6,0.3,2.5,2,4.7c-2.7-0.8-4.8-0.9-5.1-0.1
		c-0.3,0.8,1.2,2.3,3.8,3.6c-2.8,0.3-4.9,1-4.9,1.9s2,1.6,4.7,1.9c-2.4,1.3-4,2.7-3.6,3.5c0.3,0.8,2.5,0.8,5.2-0.1
		c-1.8,2.2-2.7,4.2-2.1,4.8c0.6,0.6,2.5-0.3,4.7-2c-0.8,2.7-0.9,4.8-0.1,5.1c0.8,0.3,2.3-1.2,3.6-3.8c0.3,2.8,1,4.9,1.9,4.9
		s1.6-2,1.9-4.7c1.3,2.4,2.7,4,3.5,3.6c0.8-0.3,0.8-2.5-0.1-5.2c2.2,1.8,4.2,2.7,4.8,2.1c0.6-0.6-0.3-2.5-2-4.7
		c2.7,0.8,4.8,0.9,5.1,0.1c0.3-0.8-1.2-2.3-3.8-3.6C339.6,205,341.6,204.2,341.6,203.3z"/>
	<path class="st0" d="M314.5,198c0-0.1,0.4-0.2,1-0.2c0.7,0,1.9,0.1,3.3,0.6c-0.4-0.5-0.8-1-1.1-1.4c-2-0.4-3.8-0.4-4.2,0.6
		c-0.4,1,0.8,2.4,2.6,3.5c0.6-0.1,1.2-0.2,1.8-0.2C315.5,199.5,314.4,198.3,314.5,198z"/>
	<path class="st0" d="M321.6,189.5c-1,0.4-1.1,2.2-0.7,4.3c0.5,0.3,1,0.7,1.4,1.1c-0.8-2.6-0.6-4.2-0.3-4.3h0c0.4,0,1.5,1.1,2.7,3.3
		c0-0.6,0.1-1.2,0.2-1.8C323.9,190.2,322.6,189.1,321.6,189.5L321.6,189.5z"/>
	<path class="st0" d="M333,189.6c-0.8-0.3-1.7,0.2-2.8,1.6c-0.2,0.3-0.5,0.6-0.7,1c0.1,0.6,0.2,1.2,0.2,1.8c0.5-0.8,0.9-1.5,1.4-2.1
		c0.8-1.1,1.3-1.2,1.4-1.2h0c0.1,0,0.3,0.5,0.1,1.9c-0.1,0.7-0.3,1.5-0.5,2.4c0.5-0.4,1-0.8,1.4-1.1c0.1-0.4,0.1-0.8,0.2-1.1
		C334.1,190.9,333.8,189.9,333,189.6L333,189.6z"/>
	<path class="st0" d="M341,197.6c-0.4-1-2.2-1.1-4.2-0.7c-0.3,0.5-0.7,0.9-1.1,1.4c2.6-0.8,4.2-0.6,4.3-0.3c0.1,0.3-0.9,1.5-3.3,2.7
		c0.6,0,1.2,0.1,1.8,0.2C340.3,199.9,341.5,198.7,341,197.6L341,197.6z"/>
	<path class="st0" d="M338.4,205.6c-0.6,0.1-1.2,0.2-1.8,0.2c2.4,1.3,3.5,2.5,3.3,2.9c-0.1,0.3-1.7,0.4-4.2-0.3
		c0.4,0.5,0.8,0.9,1.1,1.4c0.8,0.1,1.4,0.3,2,0.3c1.1,0,1.8-0.3,2.1-0.9C341.4,208.1,340.3,206.8,338.4,205.6L338.4,205.6z"/>
	<path class="st0" d="M333.6,212.8c-0.5-0.3-1-0.7-1.5-1.1c0.8,2.7,0.7,4.3,0.4,4.4s-1.5-0.9-2.7-3.2c0,0.6-0.1,1.2-0.3,1.8
		c1,1.5,2,2.5,3,2.5c0.1,0,0.3,0,0.5-0.1C333.9,216.7,334,214.9,333.6,212.8L333.6,212.8z"/>
	<path class="st0" d="M324.8,212.6c-1.3,2.4-2.5,3.5-2.9,3.4c-0.3-0.1-0.4-1.7,0.3-4.2c-0.5,0.4-1,0.8-1.5,1.1
		c-0.4,2.1-0.3,3.7,0.7,4.1c0.1,0.1,0.3,0.1,0.5,0.1c1,0,2-1.1,3.1-2.7C324.9,213.9,324.8,213.3,324.8,212.6L324.8,212.6z"/>
	<path class="st0" d="M314.5,208.6c-0.1-0.3,0.9-1.5,3.2-2.7c-0.6,0-1.2-0.1-1.8-0.3c-1.8,1.1-2.9,2.4-2.5,3.4
		c0.3,0.6,1.1,0.9,2.2,0.9c0.6,0,1.4-0.1,2.2-0.3c0.3-0.5,0.7-1,1.1-1.5C316.2,209,314.6,208.8,314.5,208.6L314.5,208.6z"/>
	<path class="st0" d="M342.1,203.3c0-1.8-4-2.6-7.7-2.6c-0.3,0-0.6,0-1,0c0.2-0.2,0.5-0.5,0.7-0.7c2.6-2.6,4.9-6,3.6-7.3
		c-1.2-1.2-4.7,1-7.3,3.6c-0.2,0.2-0.5,0.5-0.7,0.7c0-0.3,0-0.6,0-1c0-3.7-0.8-7.7-2.6-7.7s-2.6,4-2.6,7.7c0,0.3,0,0.6,0,1
		c-0.2-0.2-0.5-0.5-0.7-0.7c-2.6-2.6-6-4.9-7.3-3.6s1,4.7,3.6,7.3c0.2,0.2,0.5,0.5,0.7,0.7c-0.3,0-0.6,0-1,0c-3.7,0-7.7,0.8-7.7,2.6
		s4,2.6,7.7,2.6c0.3,0,0.6,0,1,0c-0.2,0.2-0.5,0.5-0.7,0.7c-2.6,2.6-4.9,6-3.6,7.3c0.3,0.3,0.6,0.4,1,0.4c1.6,0,4.2-1.9,6.3-4
		c0.2-0.2,0.5-0.5,0.7-0.7c0,0.3,0,0.6,0,1c0,3.7,0.8,7.7,2.6,7.7s2.6-4,2.6-7.7c0-0.3,0-0.6,0-1c0.2,0.2,0.5,0.5,0.7,0.7
		c2.1,2.1,4.8,4,6.3,4c0.4,0,0.7-0.1,1-0.4c1.2-1.2-1-4.7-3.6-7.3c-0.2-0.2-0.5-0.5-0.7-0.7c0.3,0,0.6,0,1,0
		C338.2,205.9,342.2,205.1,342.1,203.3L342.1,203.3z M332,204.6c-1.3-0.1-2.4-0.4-3.1-0.6c0.7,0.3,1.6,0.9,2.6,1.7
		c0.6,0.5,1.2,1,1.8,1.6c3,3,4,5.4,3.6,5.7c-0.3,0.3-2.7-0.6-5.7-3.6c-0.6-0.6-1.2-1.2-1.6-1.8c-0.8-1-1.4-1.9-1.7-2.5
		c0.2,0.7,0.5,1.7,0.6,3c0.1,0.7,0.1,1.5,0.1,2.4c0,4.3-1,6.6-1.4,6.6s-1.4-2.3-1.4-6.6c0-0.9,0-1.7,0.1-2.4
		c0.1-1.2,0.3-2.2,0.6-2.9c-0.3,0.6-0.9,1.5-1.6,2.5c-0.5,0.6-1,1.2-1.6,1.8c-3,3-5.4,3.9-5.7,3.6s0.6-2.7,3.6-5.7
		c0.6-0.6,1.2-1.2,1.8-1.6c1-0.8,1.9-1.4,2.6-1.7c-0.7,0.3-1.7,0.5-3,0.6c-0.7,0.1-1.5,0.1-2.4,0.1c-4.3,0-6.6-1-6.6-1.4
		s2.3-1.4,6.6-1.4c0.9,0,1.7,0,2.4,0.1c1.3,0.1,2.4,0.4,3,0.6c-0.1-0.1-0.3-0.1-0.5-0.3c-0.6-0.4-1.4-0.8-2-1.4
		c-0.6-0.5-1.2-1-1.8-1.6c-3-3-4-5.4-3.6-5.7c0,0,0.1,0,0.2,0c0.7,0,2.9,1,5.5,3.7c0.6,0.6,1.2,1.2,1.6,1.8c0.8,1,1.4,1.9,1.7,2.5
		c-0.2-0.7-0.5-1.7-0.6-3c-0.1-0.7-0.1-1.5-0.1-2.4c0-4.3,1-6.6,1.4-6.6s1.4,2.3,1.4,6.6c0,0.9,0,1.7-0.1,2.4
		c-0.1,1.3-0.4,2.3-0.6,3c0.3-0.6,0.9-1.5,1.7-2.5c0.5-0.6,1-1.2,1.6-1.8c2.7-2.7,4.8-3.7,5.5-3.7c0.1,0,0.1,0,0.2,0
		c0.3,0.3-0.6,2.7-3.6,5.7c-0.6,0.6-1.2,1.1-1.8,1.6c-0.7,0.6-1.4,1.1-2,1.4c-0.2,0.1-0.4,0.2-0.5,0.3c0.7-0.3,1.8-0.5,3-0.6
		c0.7-0.1,1.5-0.1,2.4-0.1c4.3,0,6.6,1,6.6,1.4s-2.3,1.4-6.6,1.4C333.5,204.8,332.8,204.7,332,204.6L332,204.6z"/>
	<circle class="st1" cx="327.3" cy="203.3" r="2.9"/>
	<path class="st0" d="M327.3,206.7c-1.1,0-2.2-0.5-2.9-1.6c-1-1.6-0.6-3.7,1-4.7c1.6-1,3.7-0.6,4.7,1l0,0c1,1.6,0.6,3.7-1,4.7
		C328.5,206.5,327.9,206.7,327.3,206.7L327.3,206.7z M327.3,201.1c-0.4,0-0.8,0.1-1.2,0.3c-1.1,0.7-1.4,2.1-0.7,3.1
		c0.7,1.1,2.1,1.4,3.1,0.7c1.1-0.7,1.4-2.1,0.7-3.1l0,0C328.7,201.4,328,201.1,327.3,201.1L327.3,201.1z"/>
</g>
<g id="_010">
	<polyline class="st0" points="237.8,206.5 245.7,265 248.8,265.4 242.5,205.9 235.7,206.5 	"/>
	<path class="st0" d="M248.8,265.8L248.8,265.8l-3.1-0.4c-0.2,0-0.3-0.2-0.3-0.3l-8-58.3l-1.7,0.2c-0.2,0-0.4-0.2-0.5-0.4v-0.1
		c0-0.2,0.2-0.4,0.3-0.4l0,0l6.9-0.6c0.2,0,0.4,0.2,0.4,0.3l6.3,59.4c0,0.2,0,0.2-0.1,0.3C249,265.8,248.9,265.8,248.8,265.8
		L248.8,265.8z M246.2,264.6l2.1,0.2l-6.1-58.5l-3.9,0.3L246.2,264.6L246.2,264.6z"/>
	<polygon class="st1" points="202,86.8 286.6,86.8 278.4,212.7 193.8,212.7 	"/>
	<path class="st0" d="M278.4,213.1h-84.6c-0.1,0-0.2-0.1-0.3-0.2s-0.2-0.2-0.1-0.3l8.1-125.9c0-0.2,0.2-0.4,0.4-0.4h84.6
		c0.2,0,0.4,0.2,0.4,0.4l0,0l-8.1,125.9C278.9,212.9,278.7,213.1,278.4,213.1z M194.3,212.2H278l8.1-125.1h-83.7L194.3,212.2
		L194.3,212.2z"/>
	<polygon class="st1" points="206.3,90.6 281.8,90.6 274.2,208.9 198.7,208.9 	"/>
	<path class="st3" d="M274.2,209.2h-75.5c-0.1,0-0.2-0.1-0.2-0.1c-0.1-0.1-0.1-0.2-0.1-0.2l7.6-118.2c0-0.2,0.2-0.3,0.4-0.3h75.4
		c0.1,0,0.2,0.1,0.2,0.1c0.1,0.1,0.1,0.2,0.1,0.2l-7.6,118.2C274.5,209,274.3,209.2,274.2,209.2L274.2,209.2z M199.1,208.4h74.8
		L281.5,91h-74.8L199.1,208.4z"/>
	<path class="st1" d="M203.4,80.8H286c1.3,0,2.3,1,2.4,2.3v0.2l-0.2,3.4h-87.6l0.2-3.4C200.9,81.9,202,80.8,203.4,80.8L203.4,80.8z"
		/>
	<path class="st0" d="M288.1,87.2h-87.6c-0.1,0-0.2-0.1-0.3-0.2c-0.1-0.1-0.2-0.2-0.1-0.3l0.2-3.4c0.1-1.6,1.4-2.9,3.1-2.9H286
		c1.5,0,2.8,1.2,2.8,2.8v0.2l-0.2,3.4C288.5,87,288.3,87.2,288.1,87.2L288.1,87.2z M200.9,86.2h86.7l0.2-3c0.1-1-0.7-1.9-1.7-2
		h-82.7c-1.2,0-2.1,0.9-2.2,2.1L200.9,86.2L200.9,86.2z"/>
	<polygon class="st1" points="200.8,212.7 192,283.7 195.3,283.7 206.5,212.7 	"/>
	<path class="st0" d="M195.3,284.1H192c-0.1,0-0.2-0.1-0.3-0.2c-0.1-0.1-0.1-0.2-0.1-0.3l8.8-71c0-0.2,0.2-0.4,0.4-0.4h5.8
		c0.2,0,0.2,0.1,0.3,0.2s0.1,0.2,0.1,0.3l-11.4,71C195.6,283.9,195.4,284.1,195.3,284.1L195.3,284.1z M192.5,283.3h2.4l11.2-70.2
		h-4.9L192.5,283.3z"/>
	<polygon class="st1" points="268.6,212.7 271.3,283.7 268.1,283.7 262.9,212.7 	"/>
	<path class="st0" d="M271.3,284.1H268c-0.2,0-0.4-0.2-0.4-0.4l-5.2-71c0-0.1,0-0.2,0.1-0.3c0.1-0.1,0.2-0.2,0.3-0.2h5.8
		c0.2,0,0.4,0.2,0.4,0.4l2.7,71c0,0.1,0,0.2-0.1,0.3C271.6,284.1,271.5,284.1,271.3,284.1L271.3,284.1z M268.4,283.3h2.4l-2.7-70.2
		h-4.9L268.4,283.3z"/>
</g>
<path class="st1" d="M129.8,69c-6.8,1-11.9,6.7-12.1,13.5c-0.2,3.2,0.6,6.8-1.1,9.5c-1.4,2.2-4,3.2-5.8,5c-2.2,2.2-3,5.5-2.2,8.5
	c0.4,1.5,1.3,2.9,1.2,4.4c-0.1,2.2-1.9,3.8-3.2,5.6c-4.5,6.3-1.6,15.8,4.7,20.4c6.3,4.6,14.7,5,22.3,3.6c6.7-1.2,13.1-4,18.5-8.2
	c3.1-2.5,5.9-6.3,4.9-10.2s-5.3-5.9-6.3-9.7c-0.8-2.8,0.4-5.7,1.1-8.5c1.9-7.5,0.1-15.5-2.1-22.9c-1.1-3.7-2-8.3-5.9-9.7
	c-1.7-0.6-3.7,0.8-3.7,0.8C139.2,68.8,132.4,68.5,129.8,69L129.8,69z"/>
<path class="st0" d="M126.1,140.8c-5.4,0.2-10.7-1.4-15.1-4.4c-6.2-4.6-9.7-14.3-4.8-21.1c0.3-0.4,0.7-0.9,1-1.3
	c1.1-1.3,2.1-2.6,2.1-4.1c0-1-0.3-1.9-0.7-2.8c-0.2-0.5-0.3-0.9-0.5-1.4c-0.9-3.2-0.1-6.7,2.3-9c0.8-0.8,1.6-1.4,2.6-2
	c1.2-0.8,2.3-1.7,3.2-2.9c1.2-1.9,1.1-4.2,1.1-6.6v-2.7c0.2-7.1,5.5-13,12.5-14l0,0c2.1-0.4,8.8-0.4,10.5,2c1.1-0.6,2.4-0.8,3.7-0.5
	c3.7,1.3,4.8,5.1,5.8,8.5c0.1,0.5,0.3,1,0.4,1.5c2.2,7,4.1,15.3,2.1,23.2c-0.1,0.6-0.3,1.1-0.5,1.7c-0.6,2.2-1.3,4.4-0.7,6.5
	c0.6,1.7,1.7,3.3,3,4.6c1.5,1.4,2.6,3.2,3.3,5.1c1.3,4.9-3.1,9.1-5.1,10.7c-5.4,4.3-11.9,7.1-18.7,8.4
	C131.1,140.6,128.6,140.8,126.1,140.8L126.1,140.8z M129.9,69.5c-6.5,0.9-11.5,6.4-11.7,13.1v2.6c0.1,2.5,0.1,5.1-1.2,7.2
	c-0.9,1.3-2.1,2.4-3.5,3.2c-0.9,0.6-1.7,1.2-2.4,1.9c-2,2.1-2.8,5.2-2,8c0.1,0.4,0.3,0.9,0.5,1.3c0.5,1,0.7,2.1,0.8,3.3
	c-0.1,1.8-1.2,3.3-2.3,4.7c-0.3,0.4-0.7,0.8-1,1.2c-3.6,5.1-2.7,14.4,4.6,19.7c5.3,3.9,13.1,5.1,21.9,3.4c6.7-1.1,12.9-3.9,18.2-8.1
	c1.8-1.5,5.9-5.3,4.8-9.6c-0.6-1.8-1.7-3.4-3-4.7c-1.5-1.4-2.6-3.1-3.3-5c-0.7-2.4,0-4.8,0.7-7.1c0.2-0.6,0.3-1.1,0.5-1.6
	c1.9-7.7,0-15.8-2.1-22.7l-0.4-1.5c-1-3.3-2-6.8-5.1-7.8c-1.1-0.2-2.3,0.1-3.3,0.7c-0.2,0.2-0.6,0.1-0.7-0.1c0,0-0.1-0.1-0.1-0.1
	C138.9,69.4,132.8,68.9,129.9,69.5L129.9,69.5L129.9,69.5z"/>
<path class="st0" d="M167.8,280.9c-5,0-23.7-3.3-24.5-3.4c-0.2,0-0.4-0.2-0.4-0.5l-1.1-13.3c0-0.3,0.2-0.5,0.5-0.6l11-1.1
	c0.3,0,0.5,0.2,0.6,0.5c0,0,0,0,0,0l0.6,5.8c3.7,0.7,7.3,2.1,10.5,4c3.4,2,7.2,4.8,6.6,7C171.3,280.3,170,280.9,167.8,280.9
	L167.8,280.9z M143.9,276.5c2.8,0.5,19.4,3.4,23.9,3.4c1.6,0,2.6-0.3,2.8-0.9c0.2-0.8-1.2-2.9-6.2-5.8c-3.2-2-6.8-3.4-10.5-4
	c-0.2,0-0.4-0.2-0.5-0.5l-0.6-5.7l-10,1L143.9,276.5L143.9,276.5z"/>
<path class="st0" d="M109.5,289.1c-0.8,0-1.6-0.2-2.3-0.7c-3.4-2.3-2.9-12.4-2.5-14.3v-0.3c0.5-2.6,1.7-8.6,1.6-11.9
	c0-0.2,0.1-0.3,0.2-0.4c0.1-0.1,0.3-0.1,0.5-0.1l9,2c0.1,0,0.3,0.1,0.3,0.2c0.1,0.1,0.1,0.3,0.1,0.4c-0.6,2.7-0.8,5.5-0.7,8.3
	c0.2,1.8,1,8-0.1,11.8c-0.7,2.2-2.3,3.9-4.4,4.8C110.6,289,110.1,289.1,109.5,289.1L109.5,289.1z M107.4,262.5
	c-0.2,3.9-0.8,7.7-1.6,11.5v0.3c-0.5,2.5-0.6,11.5,2.1,13.2c0.9,0.6,2,0.7,3,0.3c1.8-0.7,3.2-2.2,3.8-4.1c1-3.5,0.3-9.6,0.1-11.3
	c-0.2-2.7,0-5.5,0.6-8.1L107.4,262.5L107.4,262.5z"/>
<path class="st0" d="M128.3,150.8c1.7-1.1,26.2-1.8,26.2-1.8s1.6,81.6-0.4,117h-12.3c0,0-12.2-52.8-10.1-71.4c0,0-13.5,52.4-14,73.1
	h-13.9c0,0-2.1-48.2,3-69.6S128.3,150.8,128.3,150.8L128.3,150.8z"/>
<path class="st0" d="M117.7,268.1h-14c-0.3,0-0.5-0.2-0.5-0.5c0-0.5-2-48.5,3-69.7c5-21.2,21.4-47.1,21.7-47.4
	c0.1-0.1,0.1-0.1,0.2-0.2c1.7-1.1,22.4-1.8,26.5-1.9c0.1,0,0.3,0.1,0.4,0.1c0.1,0.1,0.2,0.2,0.2,0.4c0,0.8,1.6,82-0.4,117
	c0,0.3-0.2,0.5-0.5,0.5h-12.3c-0.2,0-0.4-0.2-0.5-0.4c-0.1-0.5-10.4-45-10.4-66.5c-3.3,13.5-12.4,51.5-12.8,68.1
	C118.2,267.8,118,268,117.7,268.1L117.7,268.1z M104.2,267.1h12.9c0.7-20.7,13.9-72.2,14-72.7c0.1-0.3,0.3-0.5,0.6-0.4
	s0.5,0.3,0.4,0.6l0,0c-2,17.5,8.9,66,10,70.9h11.4c1.9-33.7,0.6-109,0.4-115.9c-9.3,0.3-23.7,1-25.4,1.7c-1.2,1.9-16.7,26.7-21.4,47
	C102.5,218,104,262,104.2,267.1L104.2,267.1L104.2,267.1z"/>
<path class="st0" d="M136.2,106.1c0,0,11.9,6.7,14.1,18.1s-0.3,37.2-0.3,37.2l-29.3-1.2c0,0,2.9-32.5,0-41.6s-2.3-6.8,0.4-7.7
	S131.1,100.4,136.2,106.1z"/>
<path class="st0" d="M150.1,161.9L150.1,161.9l-29.3-1.2c-0.1,0-0.3-0.1-0.4-0.2c-0.1-0.1-0.1-0.2-0.1-0.4c0-0.3,2.8-32.5,0-41.4
	l-0.5-1.6c-1.4-4.4-1.7-5.3-1.3-6c0.3-0.3,0.8-0.6,1.2-0.5c0.4,0,0.9-0.1,1.3-0.2c1.1-0.6,2.1-1.3,2.9-2.1c3.4-2.8,8.5-7.1,12.5-2.7
	c1.1,0.6,12.1,7.2,14.3,18.4c2.3,11.4-0.2,37.1-0.3,37.4C150.6,161.8,150.3,162,150.1,161.9L150.1,161.9z M121.3,159.7l28.3,1.1
	c0.3-3.6,2.3-26.2,0.2-36.6c-2.2-11.1-13.8-17.7-13.9-17.8c-0.1,0-0.1-0.1-0.1-0.1c-3.4-3.8-8,0-11.2,2.7c-1,0.9-2.1,1.7-3.3,2.3
	c-0.5,0.2-1,0.2-1.5,0.3c-0.2,0-0.3,0-0.5,0.1c-0.1,0.3,0.5,2.1,1.4,5.1l0.5,1.6C123.9,127.1,121.7,155.4,121.3,159.7z"/>
<path class="st2" d="M135.9,102.2c0,0,2.3,0,4.4,4.6c2,3.7,4.4,97.1,4.4,97.1h20.1c0,0-8.2-70.1-10.3-80.2
	C152.7,113.6,145.6,105.4,135.9,102.2L135.9,102.2z"/>
<path class="st2" d="M139.2,103.5c0,0,9.6,3.5,13.4,7.1s20.5,34.6,20.5,34.6l-10.8,5.7l-13.2-16"/>
<path class="st0" d="M158.4,145.7L158.4,145.7c-0.5,0-1.6-0.1-5.3-25.5c0-0.3,0.2-0.6,0.4-0.6c0.3,0,0.6,0.2,0.6,0.4
	c1.2,8.5,3.4,21.9,4.4,24.4c0.1,0,0.1,0,0.2,0c0.3,0.1,0.4,0.3,0.4,0.6c0,0,0,0,0,0C158.9,145.6,158.6,145.7,158.4,145.7z"/>
<path class="st1" d="M140.7,101.4v9c0,0-0.9,5-6.4,3.4c-3.2-0.9-5.9-3.3-7.2-6.4l0.6-15.5c0.7-2.7,1-5.5,0.9-8.3
	c6.7-0.1,11.9-5,11.9-5s2.3,3.4,3.3,4.5c0.8,0.8,1.5,1.7,2.1,2.7c0.8,1.8,1.1,3.8,0.8,5.8c0,2.3-0.2,4.5-0.7,6.8
	C145.1,102.5,140.7,101.4,140.7,101.4L140.7,101.4z"/>
<path class="st0" d="M136.3,114.7c-0.7,0-1.4-0.1-2.1-0.3c-3.4-1-6.2-3.5-7.6-6.8c0-0.1,0-0.1,0-0.2c0,0,0.6-15.4,0.6-15.5
	c0-0.3,0.1-0.6,0.2-0.8c0.6-2.4,0.8-5,0.7-7.5c0-0.3,0.2-0.5,0.5-0.5c0,0,0,0,0,0c6.4-0.1,11.4-4.9,11.5-5c0.1-0.1,0.3-0.2,0.4-0.2
	c0.1,0,0.3,0.1,0.4,0.2c0,0,2.3,3.4,3.2,4.4c0.8,0.8,1.5,1.8,2.1,2.8c0.8,1.9,1.1,4,0.9,6c0,2.3-0.2,4.6-0.7,6.8
	c-0.2,1.2-0.9,2.3-1.9,3c-1,0.6-2.2,0.8-3.4,0.7v8.4c-0.3,1.4-1.1,2.7-2.3,3.6C138.2,114.5,137.3,114.7,136.3,114.7L136.3,114.7z
	 M127.7,107.3c1.3,2.9,3.8,5.1,6.8,6c2.1,0.9,4.5,0,5.4-2.1c0.1-0.3,0.2-0.7,0.3-1l-0.1-8.9c0-0.2,0.1-0.3,0.2-0.4
	c0.1-0.1,0.3-0.1,0.4-0.1c1.1,0.2,2.2,0.1,3.2-0.5c0.8-0.5,1.3-1.3,1.4-2.3c0.4-2.2,0.6-4.4,0.7-6.7c0.2-1.9-0.1-3.8-0.8-5.5
	c-0.6-0.9-1.2-1.8-2-2.6c-0.8-0.9-2.3-3.1-3-4.1c-3.1,2.7-7.1,4.4-11.2,4.8c0.1,2.4-0.2,4.9-0.8,7.2c-0.1,0.2-0.1,0.4-0.1,0.6l0,0
	C128.3,92,128.3,92.2,127.7,107.3L127.7,107.3z"/>
<path class="st0" d="M140.6,105.8c-2.2,0-4.4-0.8-6-2.3c-1.4-1.2-2.1-3-2-4.9c2.4,1.6,5.1,2.5,8,2.7L140.6,105.8L140.6,105.8z"/>
<path class="st0" d="M140.5,106.3c-2.3,0-4.5-0.8-6.2-2.4c-1.5-1.4-2.2-3.3-2.1-5.3c0-0.2,0.1-0.3,0.3-0.4c0.1-0.1,0.3-0.1,0.5,0
	c2.3,1.5,5,2.4,7.8,2.7c0.3,0,0.5,0.2,0.5,0.5v4.4c0,0.3-0.2,0.5-0.5,0.5l0,0L140.5,106.3L140.5,106.3z M140.7,105.8L140.7,105.8z
	 M133.2,99.6c0.2,1.4,0.8,2.6,1.8,3.6c1.4,1.3,3.2,2,5.1,2.1v-3.4C137.7,101.6,135.3,100.8,133.2,99.6L133.2,99.6z"/>
<path class="st1" d="M138.5,88.1c0,0,2.9,4.3,2.2,5.1s-2.6,0.2-2.6,0.2"/>
<path class="st0" d="M139.4,94c-0.5,0-0.9-0.1-1.4-0.2c-0.3-0.1-0.4-0.3-0.4-0.6c0.1-0.3,0.3-0.4,0.6-0.4l0,0
	c0.6,0.2,1.8,0.2,2.1-0.1c0.1-0.4-0.9-2.5-2.3-4.4c-0.1-0.2-0.1-0.6,0.2-0.7c0.2-0.1,0.5-0.1,0.7,0.1c1.4,2.1,2.9,4.8,2.1,5.7
	C140.6,93.9,140,94.1,139.4,94L139.4,94z"/>
<ellipse transform="matrix(0.9992 -3.925982e-02 3.925982e-02 0.9992 -3.3112 5.6472)" class="st0" cx="142.1" cy="87.1" rx="0.5" ry="0.9"/>
<ellipse transform="matrix(2.966619e-02 -0.9996 0.9996 2.966619e-02 44.558 219.3238)" class="st0" cx="135.2" cy="86.7" rx="0.9" ry="0.5"/>
<path class="st1" d="M130.8,87.3c-0.3-1.1-0.9-2.2-1.6-3c-0.8-0.9-2.1-1.2-3.2-0.8c-1.1,0.7-1.7,2-1.5,3.3c0.1,1.5,0.3,2.9,0.8,4.3
	c0.2,0.8,0.6,1.6,1.2,2.3c0.6,0.6,1.6,0.8,2.4,0.3"/>
<path class="st0" d="M127.9,94.5c-0.7,0-1.3-0.3-1.8-0.7c-0.7-0.7-1.1-1.5-1.4-2.4c-0.5-1.4-0.8-2.9-0.8-4.5c0-0.9,0.2-3,1.8-3.8
	c1.3-0.5,2.8-0.2,3.8,0.9c0.8,0.9,1.4,2,1.8,3.2c0.1,0.3,0,0.6-0.3,0.7c0,0,0,0,0,0c-0.3,0.1-0.6,0-0.7-0.2c0,0,0,0,0,0
	c-0.3-1.1-0.9-2-1.6-2.8c-0.6-0.7-1.7-1-2.6-0.7c-1.1,0.6-1.2,2.3-1.2,2.8c0.1,1.4,0.3,2.8,0.8,4.1c0.2,0.8,0.6,1.4,1.1,2
	c0.4,0.5,1.1,0.6,1.7,0.3c0.2-0.2,0.6-0.1,0.7,0.1c0,0,0,0,0,0c0.2,0.2,0.1,0.6-0.1,0.7l0,0C128.7,94.4,128.3,94.5,127.9,94.5
	L127.9,94.5z"/>
<path class="st2" d="M126.5,104.6c0,0,0.7,20.9,0.7,33.5c0,14.5-2.2,64.8-2.2,64.8L98.3,200c0,0,5.1-25.3,6.6-42.1
	c0.9-10.6,5-33.8,4.6-41.3S126.5,104.6,126.5,104.6L126.5,104.6z"/>
<polygon class="st1" points="156,139.8 141.4,172.5 169.7,172.5 183.9,140.6 "/>
<path class="st0" d="M169.7,173.1h-28.3c-0.3,0-0.5-0.2-0.5-0.5c0-0.1,0-0.2,0.1-0.2l14.6-32.7c0.1-0.2,0.3-0.3,0.5-0.3l27.9,0.7
	c0.2,0,0.3,0.1,0.4,0.2c0.1,0.1,0.1,0.3,0,0.5l-14.2,31.9C170.1,172.9,169.9,173,169.7,173.1L169.7,173.1z M142.2,172h27.2
	l13.8-30.9l-26.8-0.7L142.2,172L142.2,172z"/>
<path class="st1" d="M130.6,167.8c5.9,0.2,12.2-1.2,17.8,0.9l3.9,1.5c-0.1-0.9-0.6-1.7-1.4-2.1c-0.8-0.4-1.5-0.8-2.2-1.4l3.3,1.6
	c0.6,0.3,1.6,0.5,1.9-0.1c-1.3-1.3-2.7-2.4-4.2-3.3c1.2,0.6,2.4,1.1,3.6,1.5c0.8,0.3,1.8,0.5,2.3-0.2c-1.3-1-2.8-1.8-4.4-2.4
	l3.1,0.9c0.4,0.1,0.8,0.2,1.1,0.1s0.7-0.4,0.7-0.8c-0.1-0.3-0.3-0.6-0.6-0.7c-2.1-1.6-4.5-2.7-7.1-3.2c0.2-0.7,1.5-4.1,1.1-4.7
	s-2.2,2.6-4.9,2.9s-11.9,0.7-11.9,0.7"/>
<path class="st0" d="M152.3,170.7c-0.1,0-0.1,0-0.2,0l-3.8-1.5c-3.8-1.4-8-1.2-11.9-1c-1.9,0.1-3.8,0.2-5.7,0.1
	c-0.3,0-0.5-0.2-0.5-0.5c0-0.3,0.2-0.5,0.5-0.5h0c1.9,0.1,3.8,0,5.6-0.1c4.1-0.2,8.4-0.4,12.4,1.1l2.9,1.1c-0.2-0.3-0.5-0.6-0.9-0.8
	c-0.2-0.2-0.5-0.3-0.8-0.4c-0.6-0.3-1.1-0.6-1.5-1c-0.2-0.2-0.2-0.5-0.1-0.7c0.1-0.2,0.4-0.3,0.7-0.2l3.3,1.6
	c0.2,0.1,0.5,0.2,0.8,0.2c-1.1-1-2.3-1.9-3.6-2.7c-0.2-0.1-0.3-0.4-0.2-0.7c0.1-0.2,0.4-0.4,0.7-0.2c1.2,0.6,2.4,1.1,3.6,1.5
	c0.4,0.1,0.8,0.2,1.1,0.2c-1.1-0.8-2.3-1.4-3.6-1.8c-0.3-0.1-0.5-0.3-0.4-0.6c0.1-0.3,0.3-0.5,0.6-0.4c0.1,0,0.1,0,0.1,0l3.1,0.9
	c0.3,0.1,0.6,0.1,0.9,0.1c0.2,0,0.3-0.2,0.3-0.2s-0.1-0.2-0.3-0.4c-2-1.6-4.4-2.6-6.8-3.1c-0.1,0-0.3-0.1-0.4-0.2
	c-0.1-0.1-0.1-0.3,0-0.4c0.5-1.2,0.9-2.5,1.1-3.9l-0.4,0.4c-1,1.2-2.4,2-4,2.4c-2.7,0.3-11.5,0.7-11.9,0.8c-0.3,0-0.5-0.2-0.5-0.4
	c0,0,0,0,0-0.1c0-0.3,0.2-0.5,0.5-0.6l0,0c0.1,0,9.1-0.4,11.8-0.7c1.3-0.3,2.5-1,3.4-2.1c0.6-0.6,1-1,1.5-0.9c0.2,0,0.4,0.1,0.5,0.3
	c0.2,0.2,0.6,0.8-0.8,4.6c2.4,0.6,4.7,1.7,6.7,3.2c0.4,0.3,0.7,0.7,0.7,1.1c0,0.7-0.5,1.2-1.1,1.3l0,0l0.5,0.4
	c0.1,0.1,0.2,0.2,0.2,0.4c0,0.1,0,0.3-0.1,0.4c-0.6,0.6-1.4,0.8-2.7,0.4c0.3,0.3,0.6,0.6,0.9,0.8c0.2,0.2,0.2,0.4,0.1,0.6
	c-0.4,0.6-1.1,0.8-1.8,0.6c0.2,0.4,0.3,0.8,0.2,1.1c0,0.2-0.1,0.3-0.2,0.4C152.5,170.8,152.4,170.7,152.3,170.7L152.3,170.7z"/>
<path class="st2" d="M110,112.6c0,0-27.9,53.9-19.7,56.6c3.3,1.1,46.1,3.2,46.1,3.2l0.9-14.6l-18.4-2.5
	C118.7,155.4,110,112.6,110,112.6z"/>
<path class="st0" d="M111.7,155.3L111.7,155.3c-0.3,0-0.5-0.3-0.5-0.6l3.1-35.3c0-0.3,0.3-0.5,0.6-0.5s0.5,0.3,0.5,0.5c0,0,0,0,0,0
	l-3.1,35.3C112.3,155.1,112,155.3,111.7,155.3L111.7,155.3z"/>
<path class="st0" d="M131.2,174L131.2,174l-27.9-2.1c-0.3,0-0.5-0.3-0.5-0.6c0-0.3,0.3-0.5,0.5-0.5c0,0,0,0,0,0l27.9,2
	c0.3,0,0.5,0.3,0.4,0.6C131.7,173.8,131.5,173.9,131.2,174L131.2,174L131.2,174z"/>
<path class="st0" d="M166.4,169.8c-0.4,0-0.9-0.1-1.3-0.3c-0.2-0.1-0.4-0.4-0.5-0.7c0-0.4,0.1-0.8,0.4-1c0.5-0.4,1-0.7,1.6-0.9h-0.1
	c-0.9,0-1.8-0.4-2.3-1.1c-0.1-0.2-0.1-0.5,0.2-0.7c0.7-0.5,1.6-0.8,2.5-0.9c-0.4-0.1-0.8-0.3-1.2-0.4c-0.4-0.2-0.6-0.5-0.7-0.9
	c-0.1-0.2,0-0.5,0.2-0.7c0.2-0.2,0.4-0.2,0.6-0.2l2.7-0.2h-0.1c-1.1-0.6-1.5-1.3-1.5-1.8c0-0.2,0.1-0.5,0.2-0.7
	c0.3-0.3,0.7-0.4,1-0.3l0.8,0.1c1.3,0.2,3.4,0.5,4.2,0.6c0.6,0.2,1.2,0.1,1.8-0.1c0.2-0.2,0.4-0.5,0.6-0.8c0.1-0.1,0.2-0.2,0.4-0.3
	c0.1,0,0.3,0,0.4,0.1c0.9,0.7,1.4,1.6,1.5,2.7c0,0.6-0.1,1.1-0.3,1.6c-0.1,0.3-0.2,0.6-0.3,0.9l-0.2,0.6c-0.3,1.1-0.9,2.2-1.7,3.1
	c-1,0.9-2.3,1.4-3.6,1.5c-1.3,0.2-2.7,0.5-4,0.7C167.2,169.8,166.8,169.9,166.4,169.8L166.4,169.8z M165.7,168.6
	c0.5,0.2,1.1,0.2,1.6,0c1.4-0.2,2.7-0.5,4-0.7c1.1-0.1,2.2-0.6,3-1.3c0.7-0.8,1.2-1.7,1.5-2.7c0.1-0.2,0.1-0.4,0.2-0.6l0.3-0.8l0,0
	c0.1-0.4,0.2-0.9,0.3-1.3c-0.1-0.6-0.3-1.1-0.7-1.5c-0.1,0.2-0.3,0.4-0.5,0.5c-0.8,0.5-1.7,0.6-2.6,0.3c-0.7-0.1-2.8-0.4-4.1-0.6
	l-0.8-0.1l0,0c0.2,0.4,0.5,0.7,0.9,0.8c1,0.5,2.1,0.8,3.3,0.8c0.3,0,0.5,0.3,0.4,0.6c0,0.2-0.2,0.4-0.4,0.4l-5.7,0.3
	c1.4,0.5,2.9,0.6,4.4,0.4c0.3-0.1,0.6,0.1,0.6,0.3c0.1,0.3-0.1,0.6-0.3,0.6l0,0c-0.9,0.4-1.9,0.6-3,0.7c-0.9,0.1-1.8,0.3-2.7,0.6
	c0.4,0.2,0.8,0.2,1.1,0.3c1.4,0.1,2.8,0,4.1-0.4c0.3-0.1,0.6,0.1,0.6,0.4c0.1,0.2,0,0.4-0.2,0.6c-0.8,0.5-1.7,0.8-2.6,1
	C167.5,167.5,166.5,167.9,165.7,168.6L165.7,168.6L165.7,168.6z"/>
<path class="st0" d="M137.2,158.4L137.2,158.4l-28.5-3.2c-0.3,0-0.5-0.3-0.5-0.6c0,0,0,0,0,0c0-0.3,0.3-0.5,0.6-0.5l28.5,3.2
	c0.3,0,0.5,0.3,0.4,0.6c0,0.2-0.2,0.4-0.4,0.4H137.2z"/>
<path class="st0" d="M139.4,97.3c-0.2,0-0.4,0-0.5,0c-2.9-0.3-5-3.3-5.1-3.5c-0.1-0.2-0.1-0.5,0.1-0.7c0.2-0.2,0.5-0.1,0.7,0.1
	c0,0,1.9,2.8,4.3,3c1.3,0.1,2.6-0.4,3.5-1.4c0.2-0.2,0.5-0.2,0.7,0c0.2,0.2,0.2,0.5,0,0.7c0,0,0,0-0.1,0.1
	C142.2,96.7,140.8,97.3,139.4,97.3L139.4,97.3z"/>
<g>
	<path class="st4" d="M254.9,175l-16.8-17.7l-17.7,16.8c-0.6,0.5-0.6,1.5-0.1,2l16.8,17.7l17.7-16.8
		C255.4,176.5,255.5,175.6,254.9,175z M237.5,180.9l-5.2-5.5l5.5-5.2l5.2,5.5L237.5,180.9z"/>
	
		<linearGradient id="SVGID_1_" gradientUnits="userSpaceOnUse" x1="-286.6471" y1="301.7775" x2="-289.1053" y2="304.2358" gradientTransform="matrix(3.0589 8.223699e-02 -8.223699e-02 3.0589 1139.0958 -735.3116)">
		<stop  offset="0.18" style="stop-color:#0052CC"/>
		<stop  offset="1" style="stop-color:#2684FF"/>
	</linearGradient>
	<path class="st5" d="M237.8,170.2c-3.4-3.6-3.3-9.3,0.3-12.8L226,168.8l6.3,6.6L237.8,170.2L237.8,170.2z"/>
	
		<linearGradient id="SVGID_00000036253315346161641490000006924217955491940788_" gradientUnits="userSpaceOnUse" x1="-285.9942" y1="308.8566" x2="-283.536" y2="306.3984" gradientTransform="matrix(3.0589 8.223699e-02 -8.223699e-02 3.0589 1139.0958 -735.3116)">
		<stop  offset="0.18" style="stop-color:#0052CC"/>
		<stop  offset="1" style="stop-color:#2684FF"/>
	</linearGradient>
	<path style="fill:url(#SVGID_00000036253315346161641490000006924217955491940788_);" d="M243.1,175.7l-5.6,5.3
		c3.4,3.6,3.3,9.4-0.3,12.9l0,0l12.2-11.5L243.1,175.7L243.1,175.7z"/>
</g>
<g>
	
		<linearGradient id="SVGID_00000084515943767727736170000011604481134349693869_" gradientUnits="userSpaceOnUse" x1="-418.0621" y1="173.6542" x2="-422.3463" y2="171.2032" gradientTransform="matrix(4.7399 3.722749e-02 -3.722749e-02 4.7399 2238.5312 -670.4338)">
		<stop  offset="0.18" style="stop-color:#0052CC"/>
		<stop  offset="1" style="stop-color:#2684FF"/>
	</linearGradient>
	<path style="fill:url(#SVGID_00000084515943767727736170000011604481134349693869_);" d="M223.8,129.2c-0.3,0.5-0.7,1.2-1.1,1.7
		c-0.3,0.5-0.1,1.1,0.3,1.4l6.7,4.2c0.5,0.3,1.1,0.2,1.4-0.3l0,0c0.3-0.5,0.6-1,1-1.6c2.7-4.4,5.4-3.8,10.2-1.5l6.6,3.2
		c0.5,0.2,1.1,0,1.4-0.5c0,0,0,0,0,0l3.3-7.2c0.2-0.5,0-1.1-0.5-1.4c-1.4-0.7-4.2-2-6.7-3.2C237.4,119.5,229.8,119.7,223.8,129.2
		L223.8,129.2L223.8,129.2z"/>
	
		<linearGradient id="SVGID_00000134234518288590598190000011545697384949361572_" gradientUnits="userSpaceOnUse" x1="-491.0794" y1="-1782.1167" x2="-495.3636" y2="-1784.5676" gradientTransform="matrix(-4.7399 -3.722724e-02 3.722724e-02 -4.7399 -2028.2812 -8356.7959)">
		<stop  offset="0.18" style="stop-color:#0052CC"/>
		<stop  offset="1" style="stop-color:#2684FF"/>
	</linearGradient>
	<path style="fill:url(#SVGID_00000134234518288590598190000011545697384949361572_);" d="M254,113c0.3-0.5,0.7-1.2,1.1-1.7
		c0.3-0.5,0.1-1.1-0.3-1.4l-6.7-4.2c-0.5-0.3-1.1-0.2-1.4,0.3c0,0,0,0,0,0.1c-0.3,0.5-0.6,1-1,1.6c-2.7,4.4-5.4,3.8-10.2,1.5
		l-6.6-3.2c-0.5-0.2-1.1,0-1.4,0.5c0,0,0,0,0,0l-3.3,7.2c-0.2,0.5,0,1.1,0.5,1.4c1.4,0.7,4.2,2,6.7,3.2
		C240.4,122.8,248.1,122.5,254,113L254,113L254,113z"/>
</g>
<line class="st9" x1="216.9" y1="147.3" x2="264" y2="147.3"/>
</svg>
