<?xml version="1.0" encoding="UTF-8"?><svg id="Calque_1" xmlns="http://www.w3.org/2000/svg" viewBox="0 0 400 300"><defs><style>.cls-1{fill:none;stroke:#d1d3d4;stroke-miterlimit:10;stroke-width:1.59px;}.cls-2{fill:#1b73ba;}.cls-2,.cls-3,.cls-4,.cls-5,.cls-6,.cls-7,.cls-8,.cls-9{stroke-width:0px;}.cls-3{fill:#1c88c7;}.cls-4{fill:#232020;}.cls-5{fill:#231f20;}.cls-6{fill:#d1d3d4;}.cls-7{fill:#cf649a;}.cls-8{fill:#fff;}.cls-9{fill:#e52c36;}</style></defs><g id="_492_conventiona_flatline"><path class="cls-8" d="M138.88,58.9h230.7c3.9,0,7.1,3.4,7.1,7.5v149.1c0,4.1-3.2,7.5-7.1,7.5h-230.7c-3.9,0-7.1-3.4-7.1-7.5V66.4c0-4.1,3.2-7.5,7.1-7.5Z"/><path class="cls-6" d="M369.58,224.1h-230.7c-4.4,0-8-3.8-8-8.5V66.4c0-4.7,3.6-8.5,8-8.5h230.7c4.4,0,8,3.8,8,8.5v149.1c.1,4.7-3.5,8.6-8,8.6q.1,0,0,0ZM138.88,60c-3.3,0-6,2.8-6,6.4v149.2c0,3.5,2.7,6.4,6,6.4h230.7c3.3,0,6-2.8,6-6.4h0V66.4c0-3.5-2.7-6.4-6-6.4h-230.7Z"/><path class="cls-6" d="M362.98,211.6h-217.4c-.6,0-1-.5-1-1.1V71.4c0-.6.4-1.1,1-1.1h217.4c.6,0,1,.5,1,1.1v139.2c0,.5-.5,1-1,1h0ZM146.48,209.49h215.5V72.49h-215.4l-.1,137Z"/><path class="cls-5" d="M44.58,229.8v.3c1,7.3,1.5,15.7.7,16.6-.7.1-1.4-2-1.7-3.4-.4-1.4-.6-2.1-1.2-2.4-.2-.1-.5-.1-.7,0-.7.3-.8,1.1-1.3,4.6-.4,2.9-1.4,9.5-2.8,9.7-2.2.3-3.5-.3-5.2-4.3-1.3-3.1.6-16.8,1.5-22v-.9l-1.4.1v.7c-.3,1.9-3.2,18.5-1.4,22.7,1.7,4.2,3.5,5.5,6.7,5.1,2.2-.3,3.1-4.9,4-10.9l.3-2.2c0,.1.1.1.1.1.6,2,1.4,4.8,3.3,4.5,2.3-.4,1.6-10.1.5-18.1l.5-2.5-1.4.1-.5,2.2Z"/><path class="cls-4" d="M396.88,289.39H19.68c-.4,0-.7-.2-.7-.5s.3-.5.7-.5h377.2c.4,0,.7.2.7.5,0,.3-.3.5-.7.5Z"/></g><path class="cls-2" d="M158.83,171.11l-5.88-71.86,70.23.14-6.22,71.72-28.63,8.29-29.5-8.29Z"/><path class="cls-3" d="M188.32,172.46v-66.37l28.92.1-5.16,59.38-23.76,6.89Z"/><path class="cls-8" d="M210.06,114.58h-44.49l1.21,8.68h21.11l-20.77,8.92,1.2,8.39h30.61l-1.11,11.71-10.36,2.02-9.4-2.41-.72-6.65h-8.63l1.16,13.83,18.51,5.16,17.74-5.64,2.27-27.04h-18.75l20.44-8.48v-8.48Z"/><path class="cls-7" d="M342.76,144.66c-3.35.02-6.25.82-8.68,2.02-.9-1.78-1.8-3.33-1.95-4.49-.17-1.35-.37-2.17-.17-3.78.21-1.61,1.14-3.89,1.14-4.08-.02-.17-.21-.99-2.13-1.01s-3.59.37-3.78.88-.56,1.67-.8,2.86c-.34,1.76-3.85,7.99-5.86,11.26-.65-1.27-1.22-2.39-1.33-3.29-.17-1.35-.37-2.17-.17-3.78.21-1.61,1.14-3.89,1.14-4.08-.02-.17-.21-.99-2.13-1.01-1.93-.02-3.59.37-3.78.88s-.39,1.7-.8,2.86c-.39,1.16-5.07,11.56-6.29,14.27-.62,1.38-1.16,2.49-1.55,3.24-.39.75-.02.06-.06.13-.34.64-.52.99-.52.99v.02c-.26.47-.54.92-.67.92-.09,0-.28-1.25.04-2.97.69-3.61,2.38-9.24,2.36-9.45,0-.09.32-1.09-1.09-1.59-1.37-.51-1.85.34-1.96.34s-.21.3-.21.3c0,0,1.52-6.34-2.9-6.34-2.77,0-6.59,3.01-8.47,5.76-1.2.65-3.74,2.04-6.44,3.52-1.03.56-2.1,1.16-3.11,1.7l-.21-.22c-5.35-5.71-15.25-9.75-14.84-17.42.15-2.79,1.12-10.14,19.01-19.05,14.65-7.3,26.38-5.29,28.42-.84,2.9,6.36-6.27,18.18-21.5,19.89-5.8.65-8.85-1.59-9.62-2.43-.8-.88-.92-.92-1.22-.75-.49.26-.19,1.05,0,1.52.45,1.18,2.32,3.27,5.5,4.32,2.79.92,9.6,1.42,17.83-1.76,9.22-3.57,16.43-13.49,14.31-21.78-2.15-8.44-16.15-11.21-29.37-6.51-7.88,2.81-16.41,7.18-22.54,12.93-7.3,6.81-8.46,12.76-7.97,15.23,1.7,8.81,13.84,14.56,18.71,18.8-.24.13-.47.26-.67.37-2.43,1.2-11.69,6.04-14.01,11.17-2.62,5.8.41,9.97,2.43,10.53,6.25,1.74,12.65-1.38,16.11-6.53,3.44-5.14,3.03-11.82,1.44-14.87l-.06-.11,1.91-1.12c1.23-.73,2.45-1.4,3.52-1.98-.6,1.63-1.03,3.55-1.25,6.36-.26,3.29,1.09,7.56,2.86,9.24.79.73,1.72.75,2.3.75,2.06,0,2.99-1.7,4.02-3.74,1.27-2.49,2.39-5.37,2.39-5.37,0,0-1.4,7.8,2.43,7.8,1.4,0,2.81-1.81,3.44-2.75v.02s.04-.06.11-.19c.08-.12.15-.23.22-.36v-.04c.56-.97,1.81-3.2,3.69-6.88,2.41-4.75,4.73-10.7,4.73-10.7,0,0,.22,1.46.92,3.85.41,1.42,1.31,2.97,2,4.49-.56.79-.9,1.23-.9,1.23l.02.02c-.45.6-.95,1.23-1.48,1.87-1.91,2.28-4.19,4.88-4.49,5.63-.36.88-.28,1.53.41,2.06.51.37,1.4.45,2.36.37,1.72-.11,2.92-.54,3.52-.8.94-.34,2-.84,3.03-1.59,1.87-1.38,3.01-3.35,2.9-5.97-.06-1.44-.52-2.86-1.1-4.21.17-.24.34-.49.51-.75,2.96-4.32,5.24-9.07,5.24-9.07,0,0,.22,1.46.92,3.85.36,1.22,1.07,2.54,1.7,3.85-2.77,2.26-4.51,4.88-5.11,6.6-1.1,3.18-.24,4.62,1.38,4.96.73.15,1.78-.19,2.56-.52.97-.32,2.15-.86,3.24-1.67,1.87-1.38,3.67-3.31,3.57-5.91-.06-1.2-.37-2.38-.8-3.5,2.36-.97,5.41-1.53,9.28-1.07,8.33.97,9.97,6.17,9.65,8.34-.32,2.17-2.06,3.37-2.64,3.74-.58.36-.77.49-.71.75.07.39.34.37.84.3.69-.11,4.38-1.78,4.53-5.78.22-5.15-4.66-10.76-13.32-10.7h0ZM278.55,166.3c-2.75,3.01-6.62,4.15-8.27,3.18-1.78-1.03-1.09-5.46,2.3-8.66,2.06-1.95,4.73-3.74,6.49-4.85.39-.24.99-.6,1.7-1.03.11-.07.19-.11.19-.11.13-.07.28-.17.43-.26,1.25,4.56.06,8.57-2.84,11.73h0ZM298.66,152.63c-.95,2.34-2.97,8.34-4.19,8.01-1.05-.28-1.68-4.83-.21-9.32.75-2.26,2.34-4.96,3.27-6.01,1.52-1.68,3.16-2.25,3.57-1.55.49.9-1.85,7.41-2.45,8.87ZM315.26,160.56c-.41.21-.79.36-.95.24-.13-.07.17-.36.17-.36,0,0,2.08-2.23,2.9-3.26.47-.6,1.03-1.29,1.63-2.08v.22c0,2.69-2.58,4.49-3.74,5.22h0ZM328.05,157.64c-.3-.22-.26-.92.75-3.09.39-.86,1.29-2.3,2.84-3.67.19.56.3,1.1.28,1.61-.02,3.37-2.41,4.62-3.87,5.14Z"/><line class="cls-1" x1="254.47" y1="111.35" x2="233.79" y2="171.28"/><polygon class="cls-8" points="33.53 225.8 33.93 229.2 33.53 231.8 32.43 239.2 31.73 249.4 32.63 252.6 33.93 254.6 35.13 255.7 38.03 255.99 38.83 255.8 39.93 254.1 40.63 251.9 40.93 249.6 41.83 243.8 42.33 242.4 42.93 242.3 43.93 244.9 45.03 246.9 45.93 247.4 46.63 246.3 47.13 242.6 46.63 237.9 46.53 234.7 45.93 231.4 46.03 228.99 46.43 226.6 34.03 224.8 33.53 225.8"/><path class="cls-9" d="M50.23,129.2s-16.8,10.1-19.6,27.7c-1.9,12.1,0,70.4,0,70.4h20l-.4-98.1Z"/><polygon class="cls-5" points="55.13 194.8 53.03 304.39 71.13 305.6 83.63 227.49 100.13 308.49 119.93 304.39 103.83 187.2 55.13 194.8"/><path class="cls-5" d="M100.13,308.99c-.1,0-.2,0-.3-.1-.1-.1-.2-.2-.2-.3l-15.9-78.3-12.1,75.4c0,.3-.3.4-.5.4l-18.1-1.3c-.3,0-.5-.2-.5-.5l2.1-109.6c0-.2.2-.4.4-.5l48.7-7.6c.1,0,.3,0,.4.1s.2.2.2.3l16.1,117.1c0,.3-.1.5-.4.6l-19.9,4.1v.2ZM83.63,226.99c.2,0,.4.2.5.4l16.4,80.4,18.9-3.9-16-116.2-47.8,7.4-2.1,108.7,17.2,1.3,12.4-77.7c.1-.2.3-.4.5-.4h0Z"/><path class="cls-8" d="M62.73,107.8c-1-3.5-1.7-7.2-2.2-10.8-.3-3.7.2-7.5,2.2-10.6.8-1.3,2-2.2,3.4-2.7,1.1-.2,2.3,0,3.3.3,1-.7,2.1-1.4,3.2-2.1,2.4-1.1,4.9-1.7,7.6-1.8,3.7-.3,7.9-.2,10.3,2.7,1.7,2.1,1.9,5,1.9,7.8l.2,6.9"/><path class="cls-5" d="M62.73,108.3c-.2,0-.5-.2-.5-.4-.2-.9-.4-1.9-.7-2.8-.7-2.6-1.2-5.3-1.5-8.1-.3-3-.1-7.4,2.4-10.9,1.3-2.6,4.3-3.8,7-2.7,1-.7,2-1.4,3-2,2.4-1.1,5.1-1.7,7.7-1.9,5.2-.5,8.7.4,10.7,2.9s2,5.6,2.1,8.1l.2,7c0,.3-.2.5-.5.5s-.5-.2-.5-.4v-.1l-.2-7c-.1-2.9-.3-5.5-1.8-7.4-1.8-2.2-5-3-9.8-2.5-2.5.2-5,.8-7.3,1.8-1.1.6-2.1,1.3-3.1,2-.1.1-.3.1-.5.1-1-.3-2-.4-3-.3-1.3.5-2.4,1.4-3.1,2.5-2.2,3.3-2.4,7.4-2.2,10.2.3,2.7.8,5.3,1.5,7.9.2.9.4,1.9.7,2.8.1.3-.1.5-.4.6h0l-.2.1Z"/><path class="cls-5" d="M106.83,205.2c-4-18.8-11.8-75.3-13.6-76.2-4.3-2-27.2-4.2-32.4,4.6-1.6,2.8,3.1,60.8,5.2,76.8l40.8-5.2Z"/><polygon class="cls-8" points="84.53 137.8 81.63 144.6 88.63 185.49 83.63 193.99 75.53 188.1 78.33 144.3 71.13 135.4 84.53 137.8"/><path class="cls-5" d="M83.63,194.49c-.1,0-.2,0-.3-.1l-8.1-6c-.1-.1-.2-.3-.2-.4l2.9-43.5-7.1-8.8c-.1-.2-.1-.4,0-.6s.3-.3.5-.2l13.4,2.4c.2,0,.3.1.4.3.1.1.1.3,0,.4l-2.9,6.7,7,40.7c0,.1,0,.2-.1.4l-5,8.5c-.1.1-.2.2-.3.2h-.2ZM76.03,187.8l7.4,5.5,4.6-7.9-7-40.7v-.3l2.7-6.2-11.4-2.1,6.4,7.9c.1.1.1.2.1.4l-2.8,43.4Z"/><path class="cls-9" d="M74.73,216.99l-8-86.5,22-.8,4,87.3,20.9-2.1c-3.2-28.5-5.8-81.2-8.5-84.1-10.1-11-36.2-7.3-36.2-7.3,0,0-18.7.9-24.7,11.9-1.5,2.8.1,76.3.3,88.2l30.2-6.6Z"/><path class="cls-5" d="M47.63,220.4h0c-.3,0-.5-.2-.5-.5v-76.1c0-.3.2-.5.5-.5h0c.3,0,.5.2.5.5h0v76.1c0,.3-.2.5-.5.5h0Z"/><path class="cls-5" d="M44.43,224.1c-.3,0-.5-.3-.4-.6,0-.2.2-.3.3-.4l29.6-6.5-.6-15.4c0-.3.2-.5.5-.5s.5.2.5.5l.6,15.9c0,.3-.2.5-.4.5l-30,6.6-.1-.1Z"/><path class="cls-8" d="M87.13,123.2l1.2,7.7s-1.2,11.2-9.7,9.2-11.8-9.6-11.8-9.6l-1.1-20.3s6.2-3.4,4.3-17c6.9,2.9,14.5,3.9,22,2.8,0,0,3,14,2.1,20.5-.4,3.7-3.4,6.6-7,6.7Z"/><path class="cls-5" d="M80.53,140.8c-.7,0-1.3-.1-2-.2-5.3-1.3-9.8-5-12.2-9.9v-.2l-1.1-20.3c0-.2.1-.4.3-.5.1,0,5.9-3.4,4-16.4,0-.2.1-.4.2-.5.2-.1.4-.1.5,0,6.9,2.8,14.3,3.8,21.7,2.8.3,0,.5.1.6.4.1.6,3,14.2,2.1,20.7-.3,3.7-3.2,6.6-6.8,7l1.1,7.2v.1c0,.2-.7,6.1-4.4,8.7-1.3.7-2.6,1.2-4,1.1ZM67.33,130.4c.4.8,3.8,7.4,11.4,9.2,1.7.5,3.6.2,5.1-.8,3.1-2.2,3.9-7.3,3.9-7.9l-1.2-7.7c0-.1,0-.3.1-.4s.2-.2.4-.2c3.4-.1,6.1-2.8,6.4-6.2.8-5.7-1.4-17.4-2-19.9-7.1.9-14.3,0-20.9-2.6,1.4,11.6-3.1,15.6-4.4,16.4l1.2,20.1Z"/><path class="cls-8" d="M82.73,104.2s4,7.4,2.8,8.5-4.2,0-4.2,0"/><path class="cls-5" d="M83.83,113.7c-.9,0-1.8-.2-2.7-.5-.3-.1-.4-.4-.3-.6.1-.3.4-.4.6-.3h0c.7.2,2.9.8,3.7.1.5-.4-.9-4.2-2.9-7.9-.1-.2-.1-.5.2-.7h0c.2-.1.5,0,.7.2h0c1.3,2.3,4.1,7.8,2.7,9.1-.5.4-1.2.7-2,.6Z"/><ellipse class="cls-5" cx="75.53" cy="102.89" rx=".8" ry="1.9" transform="translate(-4.26 3.27) rotate(-2.41)"/><ellipse class="cls-5" cx="88.83" cy="102.89" rx=".8" ry="1.9" transform="translate(-4.25 3.83) rotate(-2.41)"/><path class="cls-8" d="M71.13,106.7c-.7-1.3-1.7-2.4-2.9-3.3-.6-.5-1.4-.9-2.2-1-.7,0-1.3.2-1.9.6-1.7,1-2.9,2.6-3.3,4.6-.2.9-.1,1.8.1,2.7.5,1.3,1.4,2.5,2.6,3.2,1.2.7,2.5,1.3,3.9,1.7"/><path class="cls-5" d="M67.53,115.5h-.2c-1.4-.4-2.7-1-4-1.7-1.3-.8-2.3-2-2.9-3.4-.3-.9-.3-1.9-.1-2.9.4-2.1,1.7-3.8,3.5-4.9.6-.4,1.4-.6,2.1-.6.9.1,1.8.5,2.5,1.1,1.2.9,2.2,2.1,3,3.4.1.3,0,.6-.2.7s-.5,0-.6-.2c-.7-1.2-1.6-2.3-2.7-3.2-.5-.5-1.2-.8-1.9-.8-.6,0-1.1.2-1.6.5-1.6.9-2.6,2.5-3,4.2-.2.8-.1,1.6.1,2.4.4,1.2,1.3,2.2,2.4,2.9,1.2.7,2.4,1.2,3.8,1.6.3.1.4.4.3.7-.1.1-.3.2-.5.2Z"/><path class="cls-5" d="M87.13,123.2c-4.9.7-9.9-.1-14.2-2.4,0,0,7.2,11.1,15.3,9.6l-1.1-7.2Z"/><path class="cls-5" d="M86.63,131c-7.6,0-13.9-9.5-14.1-9.9-.1-.2-.1-.4,0-.6.2-.2.4-.2.6-.1,4.3,2.2,9.1,3,13.9,2.3.1,0,.3,0,.4.1s.2.2.2.3l1.1,7.2c0,.3-.1.5-.4.6-.6.1-1.2.1-1.7.1ZM74.43,122c2.2,2.9,7.5,8.6,13.2,7.9l-1-6.2c-4.1.6-8.3,0-12.2-1.7h0Z"/><ellipse class="cls-5" cx="83.13" cy="117.2" rx="1.4" ry="2.1"/><path class="cls-5" d="M76.33,109.6c-3.7,0-6.7-3-6.7-6.7s3-6.7,6.7-6.7,6.7,3,6.7,6.7h0c.1,3.7-3,6.7-6.7,6.7ZM76.33,97.2c-3.1,0-5.7,2.6-5.7,5.7s2.6,5.7,5.7,5.7,5.7-2.6,5.7-5.7h0c0-3.1-2.5-5.7-5.7-5.7h0Z"/><path class="cls-5" d="M89.73,109.6c-3.7,0-6.7-3-6.7-6.7s3-6.7,6.7-6.7,6.7,3,6.7,6.7h0c.1,3.7-2.9,6.7-6.7,6.7ZM89.73,97.2c-3.1,0-5.7,2.6-5.7,5.7s2.6,5.7,5.7,5.7,5.7-2.6,5.7-5.7h0c0-3.1-2.5-5.7-5.7-5.7h0Z"/><path class="cls-8" d="M156.83,142.4c-.1-.9,4.6-3.8,5.3-4.6,2.7-2.9,5.4-5.7,8.1-8.6.7-1,1.8-1.6,2.9-1.9.2,0,.4,0,.6.1.6.3.3,1.2,0,1.8-1.2,2.3-2.5,4.5-4,6.6,4-2.8,8.1-5.4,12.2-7.9.6-.4,1.4-.8,2.1-.4.4.3.7.7.8,1.2.3,2,0,4.1-1.1,5.9-2.9,5.8-8.1,9.8-13.4,13.3-2.6,1.7-4.7,3.6-7.2,5.4-.5.4-5.1,3.1-5,3.6l-1.3-14.5Z"/><path class="cls-5" d="M158.13,157.49c-.3,0-.5-.2-.5-.5h0l-.2-2.8c-.4-4.2-1.1-11.7-1.1-11.8-.1-.8,1.2-1.8,3.8-3.7.6-.4,1.1-.8,1.7-1.3l5.3-5.7,2.8-2.9c.8-1,2-1.7,3.2-2,.3-.1.7,0,1,.2.7.4.8,1.4.2,2.4-.8,1.5-1.6,3-2.5,4.4,3.3-2.2,6.6-4.4,10-6.4.7-.6,1.7-.8,2.6-.4.5.3.9.9,1,1.5.5,1.8.1,3.9-1.1,6.3-3,6-8.6,10.2-13.6,13.5-1.5,1-3,2.1-4.3,3.2-.9.7-1.9,1.5-2.8,2.2l-.9.6c-1.4.8-2.7,1.7-4,2.8,0,.2-.2.4-.5.4h-.1ZM158.63,156.9h0ZM157.33,142.4c.1.6.7,7.7,1.1,11.7.1.7.1,1.2.1,1.6.6-.5,1.7-1.2,3.5-2.4.4-.2.7-.4.8-.5,1-.7,1.9-1.4,2.8-2.2,1.4-1.1,2.8-2.2,4.4-3.3,4.9-3.2,10.3-7.3,13.2-13.1,1-1.7,1.4-3.6,1.1-5.6,0-.4-.2-.7-.5-.9-.4-.2-1.1.1-1.6.4-4.1,2.5-8.2,5.2-12.1,7.9-.2.1-.5.1-.7-.1s-.2-.5-.1-.7c1.5-2.1,2.8-4.3,4-6.5.3-.5.3-1,.1-1.1h-.3c-1,.2-2,.9-2.6,1.7l-2.8,2.9-5.4,5.6c-.6.5-1.2,1-1.8,1.4-.9,1.1-3,2.7-3.2,3.2Z"/><path class="cls-9" d="M105.23,130.8s22.3,17.4,26.9,19.7,23.5-10.2,23.5-10.2l12.8,11.2s-22.2,26.7-36.3,26.2-31.9-24.9-31.9-24.9"/><path class="cls-5" d="M168.43,144.3c-.1,0-.2,0-.3-.1-.2-.2-.3-.5-.2-.7,3-4.6,1.4-7.4,1.4-7.4-.2-.2-.1-.6.1-.7s.6-.1.7.1c0,0,0,.1.1.1.1.1,2,3.3-1.4,8.5-.1.1-.2.2-.4.2Z"/><path class="cls-5" d="M92.83,217.49c-.1,0-.2,0-.3-.1-.1-.1-.2-.2-.2-.4l-1.2-25.6c0-.3.2-.5.5-.5s.5.2.5.5l1.1,25,20.4-2c.3-.1.6,0,.7.3s0,.6-.3.7h-.3l-20.9,2.1Z"/><g id="expert"><path class="cls-8" d="M356.57,255.47s-2.09-.05-5.14,2.37c2.59-11.79-1.59-22.31-1.59-22.31-4.6,4.32-8.29,9.47-10.93,15.21-3.46-4.87-6.87-7.6-6.87-7.6-2,6.42-2.64,13.16-1.96,19.85-2.41-2.19-5.19-3.96-8.19-5.33-.23,8.7,3.28,16.71,6.56,22.17h22.49c3.1-4.6,7.88-13.93,5.64-24.36Z"/><path class="cls-5" d="M357.26,255.33c-.09-.32-.36-.55-.68-.55-.14,0-1.73,0-4.1,1.5,1.87-11.06-1.82-20.53-2-20.99-.09-.23-.27-.36-.5-.41s-.46,0-.64.18c-4.05,3.78-7.37,8.19-9.92,13.11-1.23-9.38-3.69-19.39-8.42-27.77l-1.18.68c4.6,8.15,7.06,17.89,8.24,27.04l-.55-.32c-2.59-3.14-4.83-4.96-5.01-5.14-.18-.14-.41-.18-.64-.14s-.41.23-.46.46c-1.87,5.96-2.59,12.25-2.09,18.44-2.14-1.73-4.51-3.23-7.01-4.37-.23-.09-.46-.05-.64.05-.18.14-.32.32-.32.59-.23,8.74,3.32,16.89,6.46,22.22h-1.68l3.19,16.02h19.8l3.19-16.02h-.5c3.19-4.92,7.74-14.16,5.46-24.58ZM349.47,236.76c.96,2.87,3.28,11.38,1.32,20.71-1.55,1.27-3.32,3.19-5.14,6.01-1.27-5.14-3.55-9.47-5.92-12.88v-.09c2.41-5.05,5.74-9.74,9.74-13.75ZM328.94,279.19c-2.91-5.01-6.24-12.38-6.24-20.44,2.46,1.23,4.73,2.78,6.78,4.55.55,5.42,1.68,10.74,3.41,15.89h-3.96ZM340.59,275.27c-.18.82-.27,1.55-.32,2.23-.05.59-.09,1.14-.09,1.59h-5.87c-1.73-5.14-2.87-10.47-3.41-15.89.05-.18.05-.41-.05-.59-.59-6.15-.09-12.34,1.59-18.26,1.14,1.05,3.41,3.28,5.69,6.46h0c.14.14.23.32.32.46.18.27.36.55.59.82.32.46.59.91.86,1.41.05.09.09.14.14.23,1.96,3.19,3.69,7.06,4.55,11.47l-.5.86c-1.96,3.55-3,6.6-3.51,9.1v.09ZM341.6,279.14h0c.18-4.42,1.5-8.65,3.78-12.34.23-.41.46-.77.64-1.14,1.41-2.41,2.82-4.23,4.1-5.55.68-.68,1.32-1.27,1.91-1.73,1.82-1.46,3.28-1.91,4.01-2.09,1.82,9.7-2.5,18.35-5.46,22.85h-8.97Z"/><path class="cls-9" d="M347.61,220.64c0-1.05-2.37-1.91-5.65-2.28,2.91-1.55,4.78-3.28,4.37-4.23-.41-1-3-.91-6.28.09,2.19-2.64,3.28-5.01,2.5-5.74-.73-.73-3.05.32-5.6,2.41.96-3.19,1.05-5.69.09-6.1-1-.41-2.73,1.5-4.37,4.51-.32-3.37-1.23-5.83-2.28-5.83s-1.91,2.37-2.28,5.65c-1.55-2.91-3.28-4.78-4.23-4.37-1,.41-.91,3,.09,6.28-2.64-2.19-5.01-3.28-5.74-2.5-.73.73.32,3.05,2.41,5.6-3.19-.96-5.69-1.05-6.1-.09-.41,1,1.5,2.73,4.51,4.37-3.37.32-5.83,1.23-5.83,2.28s2.37,1.91,5.65,2.28c-2.91,1.55-4.78,3.28-4.37,4.23.41,1,3,.91,6.28-.09-2.19,2.64-3.28,5.01-2.5,5.74.73.73,3.05-.32,5.6-2.41-.96,3.19-1.05,5.69-.09,6.1,1,.41,2.73-1.5,4.37-4.51.32,3.37,1.23,5.83,2.28,5.83s1.91-2.37,2.28-5.65c1.55,2.91,3.28,4.78,4.23,4.37,1-.41.91-3-.09-6.28,2.64,2.19,5.01,3.28,5.74,2.5.73-.73-.32-3.05-2.41-5.6,3.19.96,5.69,1.05,6.1.09.41-1-1.5-2.73-4.51-4.37,3.37-.27,5.83-1.18,5.83-2.28Z"/><path class="cls-5" d="M315.1,214.27c.05-.18.46-.27,1.14-.27.86,0,2.23.18,3.96.68-.46-.59-.91-1.18-1.32-1.73-2.46-.5-4.51-.46-5.05.77-.5,1.23.91,2.82,3.1,4.23.68-.14,1.41-.23,2.19-.27-2.87-1.59-4.14-3.05-4.01-3.41Z"/><path class="cls-5" d="M323.57,204.07c-1.23.5-1.32,2.59-.82,5.14.59.41,1.14.86,1.73,1.32-.91-3.14-.77-5.05-.41-5.19h.05c.46,0,1.82,1.27,3.28,3.96.05-.73.18-1.5.27-2.19-1.37-2.14-2.87-3.55-4.1-3.05Z"/><path class="cls-5" d="M337.27,204.16c-.91-.41-2.05.23-3.37,1.87-.27.36-.59.73-.86,1.18.14.68.23,1.41.27,2.14.55-.96,1.09-1.82,1.64-2.5,1-1.27,1.59-1.46,1.73-1.46h.05c.09.05.41.55.18,2.28-.09.86-.32,1.82-.59,2.82.59-.46,1.14-.91,1.73-1.32.09-.46.18-.91.23-1.37.27-2.05-.09-3.28-1-3.64Z"/><path class="cls-5" d="M346.92,213.86c-.5-1.23-2.59-1.32-5.1-.82-.41.59-.86,1.14-1.32,1.73,3.14-.91,5.01-.77,5.19-.41.14.36-1.09,1.78-3.92,3.28.73.05,1.46.18,2.14.27,2.09-1.32,3.51-2.82,3-4.05Z"/><path class="cls-5" d="M343.78,223.33c-.68.14-1.41.23-2.19.27,2.87,1.59,4.14,3,4.01,3.41-.14.36-2,.5-5.05-.41.46.59.91,1.14,1.27,1.73.91.18,1.73.32,2.46.32,1.27,0,2.19-.32,2.5-1.09.59-1.23-.82-2.78-3-4.23Z"/><path class="cls-5" d="M337.95,232.02c-.59-.41-1.18-.86-1.78-1.37.96,3.19.82,5.14.46,5.28-.36.14-1.78-1.09-3.28-3.87-.05.73-.18,1.5-.32,2.19,1.18,1.82,2.46,3.05,3.55,3.05.18,0,.36-.05.55-.09,1.23-.5,1.32-2.64.82-5.19Z"/><path class="cls-5" d="M327.39,231.84c-1.59,2.91-3.05,4.19-3.41,4.05-.36-.14-.46-2,.41-5.05-.59.5-1.18.96-1.78,1.32-.5,2.46-.41,4.46.82,4.96.18.09.32.09.55.09,1.14,0,2.46-1.32,3.69-3.23-.14-.64-.23-1.41-.27-2.14Z"/><path class="cls-5" d="M315.06,226.93c-.14-.36,1.09-1.78,3.87-3.28-.73-.05-1.46-.18-2.14-.32-2.14,1.37-3.51,2.87-3,4.1.32.77,1.27,1.14,2.59,1.14.77,0,1.64-.09,2.59-.32.41-.59.86-1.18,1.37-1.78-3.19.96-5.14.82-5.28.46Z"/><path class="cls-5" d="M348.24,220.64c0-2.14-4.83-3.1-9.29-3.1-.41,0-.77,0-1.18.05.27-.27.55-.55.86-.82,3.14-3.14,5.87-7.24,4.37-8.79-1.5-1.5-5.6,1.23-8.79,4.37-.27.27-.55.55-.82.86,0-.41.05-.77.05-1.18,0-4.46-.96-9.29-3.1-9.29s-3.1,4.83-3.1,9.29c0,.41,0,.77.05,1.18-.27-.27-.55-.55-.82-.86-3.14-3.14-7.24-5.87-8.74-4.37s1.23,5.6,4.37,8.79c.27.27.55.55.86.82-.41,0-.77-.05-1.18-.05-4.46,0-9.29.96-9.29,3.1s4.83,3.1,9.29,3.1c.41,0,.77,0,1.18-.05-.27.27-.55.55-.86.82-3.14,3.14-5.87,7.24-4.37,8.74.32.32.68.46,1.14.46,1.91,0,5.05-2.28,7.6-4.83.27-.27.55-.55.82-.86,0,.41-.05.77-.05,1.18,0,4.46,1,9.29,3.1,9.29s3.1-4.83,3.1-9.29c0-.41,0-.77-.05-1.18.27.27.55.55.82.86,2.55,2.55,5.69,4.83,7.6,4.83.46,0,.86-.14,1.14-.46,1.5-1.5-1.23-5.6-4.37-8.74-.27-.27-.55-.55-.86-.82.41,0,.77.05,1.18.05,4.55,0,9.33-.96,9.33-3.1ZM336.09,222.24c-1.59-.18-2.82-.46-3.69-.73.82.36,1.87,1.05,3.14,2.05.68.55,1.41,1.18,2.14,1.96,3.64,3.64,4.73,6.46,4.37,6.83-.36.36-3.19-.73-6.83-4.37-.77-.77-1.41-1.5-1.96-2.14-.96-1.18-1.64-2.23-2-3,.27.86.55,2.05.73,3.6.09.86.14,1.82.14,2.87,0,5.14-1.23,7.92-1.73,7.92s-1.73-2.78-1.73-7.92c0-1.05.05-2.05.14-2.87.14-1.46.41-2.64.68-3.51-.41.77-1.05,1.78-1.96,2.96-.55.68-1.18,1.41-1.96,2.14-3.64,3.64-6.46,4.73-6.83,4.37s.73-3.19,4.37-6.83c.77-.77,1.5-1.41,2.14-1.96,1.23-1,2.28-1.64,3.1-2.05-.86.32-2.05.59-3.64.73-.86.09-1.82.14-2.91.14-5.14,0-7.92-1.23-7.92-1.73s2.78-1.73,7.92-1.73c1.05,0,2.05.05,2.91.14,1.59.14,2.82.46,3.64.73-.18-.09-.36-.18-.59-.32-.77-.46-1.64-1-2.46-1.73-.73-.59-1.46-1.23-2.19-1.96-3.64-3.64-4.73-6.46-4.37-6.83.05-.05.09-.05.23-.05.82,0,3.41,1.23,6.6,4.46.77.77,1.41,1.5,1.96,2.14,1,1.18,1.64,2.23,2,3-.27-.86-.55-2.05-.73-3.6-.09-.86-.14-1.82-.14-2.87,0-5.14,1.23-7.92,1.73-7.92s1.73,2.78,1.73,7.92c0,1.05-.05,2.05-.14,2.87-.18,1.59-.46,2.78-.73,3.64.41-.77,1.05-1.82,2.05-3.05.55-.68,1.18-1.41,1.96-2.19,3.23-3.23,5.78-4.46,6.6-4.46.09,0,.18.05.23.05.36.36-.73,3.19-4.37,6.83-.73.73-1.46,1.37-2.19,1.96-.86.73-1.68,1.27-2.46,1.73-.23.14-.46.23-.59.32.86-.32,2.09-.59,3.64-.73.86-.09,1.82-.14,2.91-.14,5.14,0,7.92,1.23,7.92,1.73s-2.78,1.73-7.92,1.73c-1.14,0-2.09-.05-2.96-.14Z"/><circle class="cls-8" cx="330.4" cy="220.64" r="3.41"/><path class="cls-5" d="M330.4,224.74c-1.32,0-2.64-.64-3.41-1.87-1.23-1.87-.68-4.42,1.23-5.65,1.91-1.23,4.42-.68,5.65,1.23h0c1.23,1.87.68,4.42-1.23,5.65-.73.41-1.46.64-2.23.64ZM330.4,217.96c-.5,0-1,.14-1.46.41-1.27.82-1.64,2.5-.82,3.73.82,1.27,2.5,1.64,3.73.82,1.27-.82,1.64-2.5.82-3.73h0c-.5-.82-1.41-1.23-2.28-1.23Z"/></g></svg>