<svg width="502" height="380" viewBox="0 0 502 380" fill="none" xmlns="http://www.w3.org/2000/svg">
<path d="M340.646 366.54L337.534 377.974L289.054 360.51L306.29 356.326" fill="white"/>
<path d="M337.534 378.797C337.434 378.814 337.352 378.814 337.252 378.797L288.773 361.334C288.425 361.202 288.21 360.873 288.227 360.51C288.227 360.148 288.491 359.835 288.856 359.753L306.092 355.584C306.555 355.469 307.002 355.749 307.118 356.21C307.234 356.672 306.953 357.117 306.489 357.232L291.902 360.757L336.971 377.002L339.835 366.425C339.951 365.98 340.415 365.716 340.862 365.832C341.292 365.964 341.557 366.408 341.441 366.853L338.328 378.287C338.262 378.517 338.113 378.698 337.914 378.814C337.782 378.83 337.666 378.814 337.534 378.797Z" fill="#1F292E"/>
<path d="M166.333 346.952C165.869 346.952 165.505 346.589 165.505 346.128V1.01535C165.505 0.554056 165.869 0.191612 166.333 0.191612C166.797 0.191612 167.161 0.554056 167.161 1.01535V346.128C167.161 346.589 166.797 346.952 166.333 346.952Z" fill="#C8CDD0"/>
<path d="M197.725 379.11C197.493 379.11 197.295 379.028 197.129 378.863L166.482 347.364L135.835 378.863C135.52 379.193 134.99 379.193 134.659 378.863C134.345 378.534 134.345 378.023 134.659 377.694L165.902 345.601C166.234 345.271 166.763 345.271 167.095 345.601L198.338 377.694C198.669 378.007 198.669 378.534 198.338 378.863C198.172 379.028 197.957 379.11 197.725 379.11Z" fill="#C8CDD0"/>
<path d="M166.333 346.952C165.869 346.952 165.505 346.589 165.505 346.128V1.01535C165.505 0.554056 165.869 0.191612 166.333 0.191612C166.797 0.191612 167.161 0.554056 167.161 1.01535V346.128C167.161 346.589 166.797 346.952 166.333 346.952Z" fill="#1F292E"/>
<path d="M197.725 379.11C197.493 379.11 197.295 379.028 197.129 378.863L166.482 347.364L135.835 378.863C135.52 379.193 134.99 379.193 134.659 378.863C134.345 378.534 134.345 378.023 134.659 377.694L165.902 345.601C166.234 345.271 166.763 345.271 167.095 345.601L198.338 377.694C198.669 378.007 198.669 378.534 198.338 378.863C198.172 379.028 197.957 379.11 197.725 379.11Z" fill="#1F292E"/>
<path d="M301.522 7.55582H31.3592C30.8956 7.55582 30.5148 7.93474 30.5148 8.39603V207.032C30.5148 207.51 30.8956 207.889 31.3758 207.889H301.522C302.002 207.889 302.383 207.51 302.383 207.032V8.37956C302.366 7.91827 301.985 7.53935 301.522 7.55582ZM300.677 206.241H32.2864V9.25272H300.677V206.241Z" fill="#1F292E"/>
<path d="M300.677 9.25271H32.2864V206.241H300.677V9.25271Z" fill="white"/>
<path d="M91.0808 98.1174C93.4857 98.1174 95.4353 96.1775 95.4353 93.7845C95.4353 91.3916 93.4857 89.4517 91.0808 89.4517C88.6758 89.4517 86.7262 91.3916 86.7262 93.7845C86.7262 96.1775 88.6758 98.1174 91.0808 98.1174Z" fill="white"/>
<path d="M344.504 166.092C344.504 166.092 315.91 253.919 306.224 356.326L340.564 366.54L386.924 218.103L404.325 368.023L440.668 368.797C440.668 368.797 440.999 279.257 431.677 166.158C412.852 165.763 344.504 166.092 344.504 166.092Z" fill="#1F292E"/>
<path d="M254.235 120.77C254.235 120.77 291.505 167.097 308.691 165.614C325.877 164.132 347.186 129.172 347.186 129.172L329.619 98.3151C329.619 98.3151 307.201 125.449 303.128 123.604C299.055 121.759 271.371 101.659 271.371 101.659" fill="white"/>
<path d="M307.88 166.471C290.147 166.471 255.096 123.159 253.589 121.281C253.274 120.951 253.291 120.424 253.622 120.111C253.953 119.798 254.483 119.815 254.798 120.144C254.831 120.177 254.864 120.21 254.88 120.259C255.261 120.704 292.084 166.207 308.625 164.741C324.205 163.39 343.759 133.011 346.21 129.106L329.487 99.699C327.732 101.791 323.245 107.08 318.493 112.17C305.843 125.713 303.674 124.724 302.747 124.296C298.608 122.418 271.967 103.093 270.825 102.269C270.461 101.989 270.378 101.478 270.643 101.116C270.924 100.753 271.438 100.671 271.802 100.951C272.083 101.149 299.436 121.001 303.426 122.797C305.082 123.538 315.38 114.213 328.974 97.7385C329.139 97.5243 329.421 97.409 329.686 97.4419C329.95 97.4584 330.199 97.6232 330.331 97.8538L347.898 128.711C348.064 128.975 348.064 129.288 347.898 129.551C347.021 131.001 326.192 164.873 308.774 166.389L307.88 166.471Z" fill="#1F292E"/>
<path d="M427.306 113.044L450.271 103.636C442.108 86.305 432.919 76.0083 426.578 71.9885C418.481 65.2833 398.431 64.822 380.003 64.1136C374.125 63.7511 368.214 64.3113 362.502 65.761C340.978 71.6755 321.109 102.599 321.109 102.599L340.332 113.999C340.332 113.999 338.196 156.076 340.961 170.31C340.961 170.31 390.814 191.727 432.671 180.013C432.638 180.063 426.81 118.48 427.306 113.044Z" fill="#F1C433"/>
<path d="M383.198 58.4792L380.334 72.2191C380.334 72.2191 383.397 81.3461 392.669 80.4565C398.232 79.814 403.199 76.7332 406.229 72.0544L409.541 46.7986C409.541 46.7986 403.348 42.3669 407.256 28.2316C399.474 30.3898 391.245 30.4392 383.447 28.3469C383.447 28.3469 377.254 43.4213 377.403 50.5054C377.552 57.5896 383.198 58.4792 383.198 58.4792Z" fill="white"/>
<path d="M391.328 81.3296C382.586 81.3296 379.556 72.598 379.523 72.5157C379.489 72.3674 379.489 72.2191 379.523 72.0709L382.238 59.0888C378.645 57.7708 376.36 54.2782 376.575 50.4725C376.426 43.2895 382.42 28.5941 382.668 27.968C382.834 27.5726 383.264 27.3584 383.678 27.4738C391.328 29.5002 399.374 29.4672 406.991 27.3749C407.289 27.2761 407.62 27.342 407.852 27.5561C408.084 27.7703 408.166 28.0998 408.084 28.3964C404.424 41.7079 410.004 46.0243 410.054 46.0573C410.302 46.2385 410.435 46.5515 410.402 46.8645L407.09 72.1203C407.09 72.2356 407.04 72.3345 406.991 72.4333C403.845 77.3592 398.613 80.6048 392.785 81.2473C392.321 81.2967 391.791 81.3296 391.328 81.3296ZM381.211 72.1697C381.725 73.5042 384.755 80.4071 392.586 79.5504C397.818 78.9243 402.504 76.0413 405.401 71.659L408.613 46.9469C407.272 45.6783 403.282 40.7689 406.03 29.253C398.762 30.9829 391.195 30.9499 383.943 29.1542C382.751 32.1691 378.115 44.3109 378.248 50.2748C378.38 56.5352 383.215 57.4742 383.347 57.5072C383.811 57.5896 384.125 58.0344 384.043 58.4957C384.043 58.4957 384.043 58.5122 384.043 58.5286L381.211 72.1697Z" fill="#1F292E"/>
<path d="M404.309 45.6125C404.772 44.4263 405.633 43.4048 406.726 42.7459C407.752 42.1857 408.878 41.7903 410.037 41.5926C410.666 41.4443 411.345 41.4443 411.974 41.5926C412.422 41.7244 412.835 41.9386 413.2 42.2187C414.11 42.8282 414.773 43.7343 415.071 44.7722C415.203 45.6289 415.12 46.5186 414.839 47.3423C414.591 48.2649 414.243 49.1545 413.779 49.9783C411.743 53.372 407.322 54.4759 403.895 52.4495C403.878 52.4495 403.861 52.433 403.845 52.4165" fill="white"/>
<path d="M407.67 54.2287C406.179 54.2287 404.722 53.8333 403.448 53.059C403.05 52.8119 402.918 52.2847 403.166 51.8893C403.398 51.4939 403.928 51.3621 404.325 51.5928C404.325 51.5928 404.325 51.5928 404.342 51.5928C407.322 53.405 411.213 52.4824 413.034 49.517C413.034 49.484 413.067 49.4675 413.084 49.4346C413.514 48.6767 413.845 47.853 414.061 47.0128C414.309 46.3209 414.375 45.5795 414.276 44.8546C414.028 44.0144 413.481 43.2895 412.736 42.8117C412.471 42.5811 412.157 42.4163 411.825 42.3175C411.312 42.2022 410.782 42.2022 410.269 42.3175C409.193 42.4987 408.133 42.8447 407.173 43.3719C406.229 43.9485 405.517 44.7887 405.103 45.8101C404.938 46.255 404.441 46.4691 403.994 46.3044C403.563 46.1232 403.348 45.6289 403.514 45.2006C404.06 43.8332 405.02 42.6799 406.279 41.9056C407.421 41.2796 408.646 40.8512 409.921 40.6371C410.683 40.4559 411.478 40.4559 412.239 40.6371C412.802 40.7853 413.316 41.0489 413.763 41.4114C414.839 42.1363 415.617 43.2071 415.948 44.4592C416.114 45.4642 416.031 46.4856 415.7 47.4411C415.451 48.4296 415.071 49.3852 414.557 50.2748C413.448 52.1035 411.676 53.4215 409.59 53.9487C408.961 54.1134 408.315 54.2123 407.67 54.2123V54.2287Z" fill="#1F292E"/>
<path d="M410.799 60.4232C410.335 60.3573 410.004 59.929 410.054 59.4677C410.104 59.1547 410.302 58.8911 410.6 58.7757C415.849 57.4413 420.319 54.031 422.952 49.3193C426.992 42.2351 428.283 33.9154 426.578 25.9416C425.469 21.5429 424.028 20.2908 423.002 20.0107C421.992 19.8789 420.982 20.2249 420.253 20.9333C420.005 21.1969 419.607 21.2628 419.276 21.1145C418.962 20.9498 418.763 20.6203 418.796 20.2578C418.796 20.0272 419.276 14.7223 413.829 9.38451C409.772 5.48 396.494 0.619959 386.443 1.92146C381.278 2.59693 377.569 4.75511 375.416 8.33013C373.115 12.1852 372.436 15.7438 373.396 18.9234C374.588 22.136 376.956 24.8049 380.019 26.37C380.45 26.5677 380.632 27.0784 380.417 27.5067C380.218 27.9351 379.705 28.1163 379.291 27.9021C375.764 26.1558 373.049 23.1244 371.724 19.4341C370.598 15.7767 371.327 11.7404 373.91 7.45697C376.327 3.42066 380.45 0.982403 386.162 0.24104C397.073 -1.19226 410.733 4.06318 414.971 8.16538C418.001 10.9167 419.938 14.6564 420.468 18.7092C421.379 18.215 422.439 18.0832 423.449 18.3303C425.568 18.9069 427.174 21.3122 428.234 25.4968C430.038 33.9154 428.681 42.7129 424.409 50.2089C421.528 55.2996 416.693 59.0064 411.014 60.4562L410.799 60.4232Z" fill="#1F292E"/>
<path d="M382.089 65.3656C385.4 66.1894 388.91 65.5469 391.709 63.6193C396.179 60.3244 396.129 58.1003 396.129 58.1003C396.129 58.1003 389.275 60.7198 383.546 58.7593L382.089 65.3656Z" fill="#1F292E"/>
<path d="M385.019 66.5518C383.96 66.5518 382.884 66.42 381.857 66.1564C381.443 66.0411 381.195 65.6128 381.294 65.2009L382.735 58.611C382.784 58.3803 382.933 58.1826 383.132 58.0673C383.347 57.9685 383.596 57.9685 383.811 58.0673C389.175 59.9125 395.765 57.4413 395.831 57.4083C396.262 57.2436 396.742 57.4578 396.908 57.8861C396.941 57.9849 396.957 58.0673 396.957 58.1662C396.957 58.4298 396.874 60.9339 392.189 64.3607C390.103 65.8434 387.586 66.6012 385.019 66.5518ZM383.082 64.7396C385.93 65.2503 388.844 64.6078 391.212 62.9603C392.619 62.0048 393.828 60.7857 394.788 59.3853C391.344 60.4232 387.685 60.5715 384.159 59.8136L383.082 64.7396Z" fill="#1F292E"/>
<path d="M340.994 171.183C340.564 171.183 340.199 170.837 340.166 170.409C339.322 141.677 341.689 112.945 347.236 84.7399C347.319 84.2951 347.749 84.015 348.18 84.0974C348.627 84.1798 348.925 84.6081 348.842 85.053C343.329 113.109 340.978 141.693 341.805 170.26C341.838 170.722 341.491 171.1 341.027 171.133L340.978 171.166L340.994 171.183Z" fill="#1F292E"/>
<path d="M385.93 163.473C385.93 162.188 379.109 110.754 379.109 110.754L329.139 108.2L337.683 159.272L385.93 163.473Z" fill="#1F292E"/>
<path d="M448.483 98.8917C448.483 98.8917 487.177 167.081 462.474 171.249C445.271 174.165 410.948 166.306 398.133 159.716C385.318 153.126 380.003 148.316 380.003 148.316C380.003 148.316 365.697 147.261 367.403 143.868C368.396 141.907 370.598 140.853 372.751 141.314C372.751 141.314 365.913 140.672 366.774 137.492C367.634 134.312 373.181 135.367 373.181 135.367C373.181 135.367 363.561 131.956 366.128 130.045C368.694 128.134 373.595 129.617 373.595 129.617C373.595 129.617 366.972 128.431 367.204 125.581C367.601 120.754 388.331 126.009 392.387 129.831C396.444 133.653 421.147 137.492 425.634 137.92L414.044 113.34" fill="white"/>
<path d="M453.831 172.698C435.403 172.698 408.895 166.109 397.752 160.392C391.328 157.295 385.268 153.505 379.672 149.09C377.221 148.892 368.214 148.003 366.707 145.334C366.376 144.757 366.376 144.032 366.707 143.456C367.154 142.517 367.866 141.726 368.76 141.182C367.833 140.869 367.005 140.293 366.393 139.535C365.913 138.876 365.764 138.052 365.995 137.278C366.426 135.845 367.651 134.79 369.141 134.576C367.088 133.587 365.118 132.319 364.919 131.017C364.82 130.375 365.101 129.716 365.664 129.37C366.376 128.876 367.204 128.53 368.065 128.381C367.038 127.788 366.393 126.685 366.409 125.498C366.525 124.444 367.27 123.554 368.313 123.291C373.28 121.38 389.208 125.647 393 129.222C396.46 132.517 417.107 136.026 424.293 136.915L413.266 113.67C413.067 113.258 413.249 112.763 413.647 112.566C414.061 112.385 414.557 112.566 414.756 112.961L426.346 137.558C426.495 137.805 426.495 138.134 426.346 138.382C426.18 138.612 425.899 138.744 425.601 138.728C421.478 138.332 396.229 134.527 391.858 130.49C388.546 127.327 373.297 123.225 368.893 124.889C368.098 125.202 368.065 125.564 368.048 125.713C367.966 126.866 370.251 127.953 372.386 128.546C372.883 128.629 373.396 128.744 373.877 128.892C374.29 129.007 374.539 129.436 374.439 129.864C374.34 130.293 373.926 130.556 373.496 130.49C373.297 130.49 372.734 130.342 372.006 130.144C370.201 129.683 368.313 129.914 366.658 130.754C366.658 131.561 369.969 133.39 373.479 134.642C373.893 134.774 374.125 135.218 374.009 135.63C373.893 136.042 373.479 136.306 373.049 136.223C373.049 136.223 368.231 135.383 367.601 137.739C367.502 138.052 367.552 138.382 367.75 138.645C368.959 139.683 370.482 140.326 372.072 140.441C372.37 140.441 372.668 140.49 372.966 140.556C373.429 140.622 373.727 141.051 373.661 141.512C373.595 141.973 373.165 142.27 372.701 142.204L371.972 142.105C370.4 141.94 368.876 142.747 368.131 144.148C368.065 144.247 368.065 144.378 368.131 144.477C368.976 145.96 375.615 147.08 380.052 147.426C380.234 147.426 380.417 147.509 380.549 147.624C380.549 147.624 385.963 152.468 398.497 158.909C411.031 165.351 445.403 173.275 462.308 170.441C465.04 170.112 467.424 168.382 468.567 165.894C476.233 149.848 448.036 99.7978 447.738 99.2871C447.539 98.8752 447.705 98.381 448.119 98.1833C448.499 98.0021 448.963 98.1174 449.178 98.4798C450.37 100.572 478.104 149.799 470.057 166.603C468.683 169.585 465.851 171.644 462.59 172.056C459.692 172.517 456.745 172.731 453.814 172.698H453.831Z" fill="#1F292E"/>
<path d="M275.676 105.07C275.676 105.07 265.742 78.7102 263.573 79.6328C261.404 80.5553 265.229 96.9148 265.229 96.9148C265.229 96.9148 249.35 79.7151 247.297 80.8354C245.244 81.9557 246.536 86.2062 252.513 94.9378C252.513 94.9378 241.966 82.8289 240.294 85.3495C238.621 87.8701 248.97 98.727 248.97 98.727C248.97 98.727 239.035 88.2655 237.628 90.3578C236.221 92.4501 247.016 103.323 247.016 103.323C247.016 103.323 236.916 91.6264 236.221 95.2508C235.525 98.8752 255.543 122.467 261.288 128.958" fill="white"/>
<path d="M261.305 129.782C261.073 129.782 260.841 129.683 260.692 129.502C260.427 129.205 234.499 99.8472 235.426 95.086C235.492 94.46 235.939 93.9493 236.552 93.7845C237.048 93.7022 237.578 93.7845 238.025 93.9987C236.916 92.2359 236.37 90.7038 236.949 89.913C237.197 89.5341 237.611 89.3034 238.058 89.2705C239.25 89.4023 240.36 89.88 241.27 90.6543C239.731 88.2655 238.82 86.0744 239.615 84.8882C239.896 84.4763 240.36 84.2127 240.873 84.1798C242.429 84.0809 245.095 86.1897 247.612 88.5785C245.476 84.5257 245.426 82.7794 245.675 81.758C245.824 81.0496 246.271 80.4565 246.916 80.1105C248.572 79.2209 254.202 83.9326 263.755 94.0976C262.215 87.0299 261.156 79.6492 263.275 78.8584C263.573 78.7266 263.921 78.7266 264.219 78.8584C267.033 80.127 274.302 98.9906 276.454 104.74C276.57 105.185 276.305 105.63 275.858 105.745C275.477 105.844 275.097 105.663 274.915 105.317C270.726 94.1799 265.56 82.2522 263.755 80.6048C263.225 82.1534 264.434 89.9789 266.056 96.75C266.139 97.1124 265.974 97.4913 265.643 97.6561C265.311 97.8373 264.897 97.7714 264.633 97.4914C257.596 89.7812 249.383 81.9227 247.612 81.5438C247.43 81.6756 247.314 81.8733 247.281 82.0875C246.983 83.3066 247.761 86.4533 253.208 94.4106C253.457 94.7895 253.374 95.3002 252.993 95.5473C252.645 95.778 252.182 95.7286 251.9 95.4155C247.165 89.9789 242.065 85.5307 240.956 85.7613C240.294 86.7828 244.267 92.516 249.549 98.0515C249.864 98.381 249.847 98.9082 249.516 99.2212C249.185 99.5342 248.655 99.5177 248.34 99.1882C244.052 94.6742 239.598 90.9509 238.406 90.9509C238.406 91.8735 240.376 94.7071 243.373 98.0844C245.029 99.7319 246.685 101.627 247.794 102.829C248.092 103.159 248.092 103.636 247.794 103.966C247.479 104.279 246.95 104.279 246.635 103.966C245.294 102.599 243.671 100.902 242.148 99.1553C239.764 96.8488 237.777 95.3167 237.181 95.4155C236.783 97.9526 251.437 116.371 262.149 128.464C262.447 128.81 262.414 129.337 262.066 129.634C261.851 129.798 261.57 129.864 261.305 129.782Z" fill="#1F292E"/>
<path d="M265.245 96.9147C262.099 98.9247 260.858 102.862 262.265 106.305Z" fill="white"/>
<path d="M262.265 107.129C261.917 107.129 261.603 106.915 261.47 106.585C259.947 102.78 261.338 98.4304 264.782 96.2063C265.162 95.9757 265.659 96.1075 265.891 96.4864C265.891 96.4864 265.891 96.4864 265.891 96.5029C266.123 96.8983 265.99 97.3925 265.609 97.6232C262.795 99.4189 261.685 102.961 262.977 106.025C263.126 106.454 262.894 106.931 262.464 107.08C262.397 107.113 262.315 107.129 262.248 107.129H262.265Z" fill="#1F292E"/>
<path d="M404.342 368.089L405.385 379.176H457.192C452.01 375.239 446.463 371.779 440.635 368.863" fill="white"/>
<path d="M457.192 380H405.385C404.954 380 404.607 379.671 404.557 379.242L403.53 368.155C403.481 367.71 403.812 367.314 404.259 367.265C404.259 367.265 404.259 367.265 404.275 367.265C404.722 367.216 405.12 367.545 405.17 367.99C405.17 367.99 405.17 367.99 405.17 368.006L406.146 378.353H454.725C450.139 375.091 445.321 372.158 440.304 369.588C439.89 369.374 439.741 368.88 439.939 368.468C440.155 368.056 440.651 367.908 441.065 368.122C446.927 371.071 452.49 374.563 457.705 378.534C457.987 378.748 458.086 379.11 457.97 379.44C457.854 379.769 457.54 380 457.192 380Z" fill="#1F292E"/>
<path d="M500.505 379.901H0.827856C0.380814 379.901 0.0165571 379.522 0 379.077C0 378.616 0.364257 378.254 0.827856 378.254H500.505C500.969 378.254 501.333 378.616 501.333 379.077C501.333 379.539 500.969 379.901 500.505 379.901Z" fill="#1F292E"/>
<path d="M401.858 224.495C401.775 224.495 401.676 224.495 401.593 224.495L375.483 215.203C375.052 215.055 374.837 214.594 374.986 214.165C375.135 213.737 375.598 213.523 376.029 213.671L402.14 222.946C402.603 223.029 402.901 223.457 402.835 223.918C402.752 224.38 402.322 224.676 401.858 224.594V224.495Z" fill="white"/>
<path d="M338.775 199.124C338.312 199.14 337.931 198.794 337.914 198.333C337.898 197.872 338.246 197.493 338.709 197.476C350.382 196.323 352.866 182.221 352.899 182.073C352.981 181.628 353.395 181.331 353.842 181.397C354.289 181.48 354.587 181.908 354.521 182.353C354.521 182.501 351.789 197.822 338.875 199.107H338.792L338.775 199.124Z" fill="white"/>
<path d="M430.767 199.124C430.767 199.124 430.618 199.124 430.535 199.124C424.227 197.509 419.872 191.776 420.005 185.302C420.021 184.873 420.385 184.527 420.833 184.544C420.833 184.544 420.849 184.544 420.866 184.544C421.313 184.56 421.66 184.939 421.644 185.384C421.644 185.384 421.644 185.384 421.644 185.4C421.495 191.134 425.386 196.208 430.999 197.559C431.462 197.625 431.777 198.037 431.711 198.498C431.644 198.959 431.23 199.272 430.767 199.206V199.124Z" fill="white"/>
<path d="M391.493 37.9352C391.493 37.9352 385.616 44.0968 386.526 45.4971C387.437 46.8975 390.699 46.6339 390.699 46.6339" fill="white"/>
<path d="M390.02 47.4741C388.463 47.6224 386.907 47.0622 385.814 45.9419C384.771 44.2945 388 40.39 390.881 37.3751C391.195 37.0456 391.725 37.0456 392.056 37.3751C392.371 37.6881 392.387 38.1988 392.056 38.5118C389.391 41.3125 387.089 44.4098 387.222 45.1017C387.602 45.6783 389.457 45.876 390.533 45.7772C390.98 45.7442 391.377 46.0737 391.427 46.5186C391.477 46.9634 391.146 47.3588 390.699 47.4082C390.699 47.4082 390.699 47.4082 390.682 47.4082L390.02 47.4576V47.4741Z" fill="#1F292E"/>
<path d="M388.828 51.461C388.828 51.461 393.795 54.031 396.03 49.2369Z" fill="white"/>
<path d="M391.742 52.9602C390.599 52.9602 389.457 52.6801 388.43 52.1859C388.033 51.9882 387.867 51.4939 388.066 51.0985C388.066 51.0985 388.066 51.0985 388.066 51.0821C388.265 50.6702 388.761 50.5219 389.175 50.7196C390.351 51.2962 391.675 51.4445 392.95 51.1315C393.993 50.7361 394.821 49.9288 395.252 48.8909C395.5 48.512 395.997 48.3802 396.394 48.6273C396.725 48.825 396.858 49.2204 396.742 49.5829C395.947 51.6257 393.977 52.9766 391.775 52.9602H391.725H391.742Z" fill="#1F292E"/>
<path d="M400.541 39.5245C400.882 38.6804 400.671 37.8006 400.069 37.5594C399.466 37.3183 398.701 37.8071 398.36 38.6511C398.019 39.4952 398.23 40.375 398.832 40.6162C399.435 40.8573 400.2 40.3686 400.541 39.5245Z" fill="#1F292E"/>
<path d="M388.355 37.5248C388.696 36.6807 388.485 35.8009 387.882 35.5598C387.28 35.3186 386.515 35.8074 386.174 36.6515C385.832 37.4956 386.044 38.3753 386.646 38.6165C387.249 38.8577 388.014 38.3689 388.355 37.5248Z" fill="#1F292E"/>
<path d="M64.5532 355.517L62.5582 355.045C69.448 326.425 54.9897 282.181 54.8458 281.729L56.7996 281.092C56.9435 281.544 71.587 326.342 64.5532 355.537V355.517Z" fill="#1F292E"/>
<path d="M55.8121 289.346C60.2078 289.346 63.7713 285.789 63.7713 281.4C63.7713 277.012 60.2078 273.455 55.8121 273.455C51.4163 273.455 47.8528 277.012 47.8528 281.4C47.8528 285.789 51.4163 289.346 55.8121 289.346Z" fill="#F1C533"/>
<path d="M58.9589 272.983C58.3213 272.736 57.6426 272.572 56.9433 272.49C56.5731 272.428 56.2029 272.408 55.8122 272.408C50.8351 272.408 46.804 276.432 46.804 281.4C46.804 285.979 50.2592 289.777 54.7221 290.311C55.0718 290.352 55.442 290.372 55.8122 290.372C56.3263 290.372 56.8199 290.331 57.3135 290.229C58.0128 290.126 58.6709 289.941 59.2879 289.674C62.5169 288.319 64.7998 285.116 64.7998 281.4C64.7998 277.684 62.3729 274.256 58.9589 272.983ZM56.3263 288.299C56.1618 288.319 55.9973 288.319 55.8122 288.319C55.2569 288.319 54.7016 288.258 54.1874 288.114C51.3698 287.457 49.2103 285.055 48.9018 282.119C48.8812 281.893 48.8607 281.647 48.8607 281.4C48.8607 280.928 48.9018 280.456 49.0046 280.004C49.6628 276.843 52.4598 274.461 55.8122 274.461H55.9356C56.676 274.461 57.3752 274.605 58.0334 274.83C60.7687 275.754 62.7431 278.362 62.7431 281.4C62.7431 284.172 61.0978 286.574 58.7326 287.662C58.1156 287.95 57.4575 288.155 56.7582 288.237C56.6143 288.278 56.4703 288.299 56.3263 288.299Z" fill="#1F292E"/>
<path d="M80.7187 327.451C87.4028 307.639 79.7315 288.566 79.7315 288.566C72.3481 295.485 66.4866 303.861 62.4761 313.141C58.9386 321.087 56.3678 329.422 54.7842 337.963L69.7772 346.422" fill="white"/>
<path d="M69.2424 347.346L54.2494 338.887C53.8586 338.661 53.6529 338.209 53.7352 337.758C55.3188 329.114 57.9308 320.696 61.5094 312.669C65.5816 303.266 71.5459 294.787 79.0321 287.765C79.2789 287.539 79.6491 287.436 79.9782 287.519C80.3072 287.601 80.5952 287.827 80.7391 288.155C81.0682 288.956 88.4722 307.865 81.7469 327.78C81.5618 328.334 80.9448 328.621 80.3895 328.457C79.8342 328.272 79.5463 327.677 79.7314 327.143C85.1404 311.067 80.8625 295.3 79.2378 290.434C72.5331 297.065 67.1652 304.908 63.4221 313.552C60.008 321.189 57.4989 329.196 55.9358 337.409L70.2707 345.477C70.8466 345.621 71.1962 346.196 71.0523 346.771C70.9083 347.346 70.3324 347.695 69.7566 347.551C69.5715 347.51 69.3864 347.407 69.2424 347.263V347.346Z" fill="#1F292E"/>
<path d="M49.9932 329.853C46.3118 326.568 42.1574 323.858 37.6533 321.846C37.2831 334.945 42.6098 347.017 47.5253 355.27H63.5466" fill="white"/>
<path d="M63.6073 356.317H47.5859C47.2157 356.317 46.8661 356.133 46.681 355.804C41.8889 347.777 36.2743 335.273 36.6445 321.826C36.6445 321.477 36.8296 321.148 37.1381 320.963C37.426 320.778 37.7756 320.737 38.1047 320.861C42.7116 322.934 46.9483 325.706 50.6914 329.073C51.1645 329.422 51.2879 330.079 50.9382 330.572C50.5886 331.044 49.9305 331.167 49.4369 330.818C49.3752 330.777 49.3135 330.715 49.2724 330.674C46.1051 327.862 42.5676 325.46 38.7628 323.55C38.7628 335.684 43.8222 346.791 48.2029 354.346H63.6073C64.1831 354.182 64.759 354.511 64.9235 355.086C65.0881 355.66 64.759 356.235 64.1831 356.4C63.998 356.461 63.7924 356.461 63.5867 356.4V356.338L63.6073 356.317Z" fill="#1F292E"/>
<path d="M72.9233 333.364C68.9951 312.833 52.912 299.981 52.912 299.981C49.9093 309.63 48.9015 319.793 49.9916 329.853C50.8348 338.497 52.6858 347.038 55.524 355.25H72.7382" fill="white"/>
<path d="M72.7383 356.317H55.5241C55.0717 356.317 54.6603 356.03 54.5163 355.599C51.637 347.304 49.7655 338.681 48.9222 329.935C47.8322 319.752 48.84 309.445 51.9044 299.652C52.0072 299.324 52.2746 299.077 52.6037 298.975C52.9327 298.872 53.3029 298.954 53.5703 299.16C54.249 299.693 70.0236 312.525 73.9723 333.159C74.0752 333.733 73.705 334.288 73.1291 334.411C72.5532 334.514 72.0185 334.144 71.8951 333.59C68.6867 316.939 57.19 305.298 53.3852 301.87C50.8144 310.924 50.0123 320.409 50.9995 329.771C51.8016 338.107 53.5497 346.298 56.2439 354.223H72.6972C73.2731 354.059 73.8489 354.388 74.0135 354.962C74.178 355.537 73.8489 356.112 73.2731 356.276C73.088 356.338 72.8823 356.338 72.6766 356.276L72.7178 356.338L72.7383 356.317Z" fill="#1F292E"/>
<path d="M81.479 355.25H66.2392C66.0747 350.733 67.103 343.917 71.9978 335.068L72.985 333.343C81.8081 318.417 89.8908 318.582 89.8908 318.582C93.2637 334.308 86.0448 348.331 81.479 355.25Z" fill="white"/>
<path d="M81.4793 356.317H66.2394C65.6636 356.317 65.2111 355.886 65.17 355.311C65.026 350.979 65.9309 343.855 71.0726 334.575L72.0598 332.83C81.1091 317.535 89.5414 317.535 89.9116 317.535C90.4052 317.535 90.8371 317.904 90.9399 318.376C94.4362 334.493 87.0734 348.762 82.3636 355.845C82.158 356.133 81.8289 356.317 81.4793 356.317ZM67.2883 354.264H80.9034C85.3252 347.469 91.8448 334.452 89.13 319.834C86.95 320.306 80.7183 322.585 73.9725 333.98C73.664 334.514 73.3349 335.068 73.0058 335.663C69.5712 341.268 67.5968 347.633 67.2472 354.203L67.2883 354.264Z" fill="#1F292E"/>
<path d="M78.6633 379.415H48.7595L43.9469 355.27H83.4758L78.6633 379.415Z" fill="#1F292E"/>
<path d="M59.0215 273.024C59.0215 273.024 58.7953 273.352 58.4868 273.927C58.3634 274.173 58.1988 274.481 58.0343 274.83C57.3556 276.268 56.4918 278.526 56.101 281.298C55.9365 282.55 55.8542 283.885 55.9365 285.322V285.363C55.9776 286.307 56.101 287.293 56.3273 288.299C56.389 288.627 56.4712 288.956 56.5741 289.305C56.6358 289.551 56.6975 289.818 56.7797 290.064L55.8131 290.372C55.4429 290.372 55.0727 290.352 54.7231 290.311C54.5997 289.941 54.5174 289.592 54.4352 289.223C54.3323 288.853 54.2706 288.483 54.1884 288.114C53.7976 285.938 53.7564 283.905 53.9415 282.057C54.0032 281.339 54.1061 280.661 54.2295 280.004C54.6202 277.746 55.3195 275.857 55.9365 274.461C56.101 274.091 56.2656 273.742 56.4095 273.455C56.6152 273.065 56.8003 272.736 56.9443 272.49C57.6435 272.572 58.3222 272.736 58.9598 272.983L59.0215 273.024Z" fill="#1F292E"/>
<path d="M55.5458 282.386C55.5458 282.386 51.2268 281.195 48.2241 282.365L47.4837 280.456C51.1239 279.06 55.8954 280.374 56.1011 280.436L55.5458 282.407V282.386Z" fill="#1F292E"/>
<path d="M99.2434 193.704H64.4735V224.116H99.2434V193.704Z" fill="#F1C433"/>
<path d="M83.4479 190.557H79.408V196.669H83.4479V190.557Z" fill="#E6E7E8"/>
<path d="M81.4445 203.457H70.9142C70.4506 203.457 70.0863 203.094 70.0863 202.633C70.0863 202.172 70.4506 201.809 70.9142 201.809H81.4445C81.9081 201.809 82.2724 202.172 82.2724 202.633C82.2724 203.094 81.9081 203.457 81.4445 203.457Z" fill="white"/>
<path d="M89.5244 210.047H70.9142C70.4506 210.047 70.0863 209.684 70.0863 209.223C70.0863 208.762 70.4506 208.399 70.9142 208.399H89.5244C89.988 208.399 90.3523 208.762 90.3523 209.223C90.3523 209.684 89.988 210.047 89.5244 210.047Z" fill="white"/>
<path d="M93.8789 203.704H86.1136C85.65 203.704 85.2858 203.342 85.2858 202.88C85.2858 202.419 85.65 202.056 86.1136 202.056H93.8789C94.3425 202.056 94.7068 202.419 94.7068 202.88C94.7068 203.342 94.3425 203.704 93.8789 203.704Z" fill="white"/>
<path d="M233.154 53.0295L199.678 62.3798L207.938 91.6604L241.414 82.31L233.154 53.0295Z" fill="#F1C433"/>
<path d="M217.081 54.2483L213.192 55.3347L214.852 61.2194L218.741 60.1329L217.081 54.2483Z" fill="#E6E7E8"/>
<path d="M218.67 67.2108L208.537 70.0445C208.09 70.1598 207.643 69.9127 207.511 69.4678C207.378 69.023 207.643 68.5782 208.09 68.4464L218.223 65.6128C218.67 65.4974 219.117 65.7446 219.25 66.1894C219.382 66.6342 219.117 67.079 218.67 67.2108Z" fill="white"/>
<path d="M228.24 71.3789L210.325 76.3872C209.878 76.5025 209.431 76.2554 209.299 75.8106C209.166 75.3658 209.431 74.921 209.878 74.7892L227.793 69.7808C228.24 69.6655 228.687 69.9126 228.82 70.3575C228.952 70.8023 228.687 71.2471 228.24 71.3789Z" fill="white"/>
<path d="M230.707 64.0971L223.223 66.1894C222.776 66.3047 222.329 66.0576 222.197 65.6128C222.064 65.1679 222.329 64.7231 222.776 64.5913L230.26 62.499C230.707 62.3837 231.154 62.6308 231.287 63.0757C231.419 63.5205 231.154 63.9653 230.707 64.0971Z" fill="white"/>
<path d="M237.609 20.6186L229.421 49.9192L262.92 59.1881L271.108 29.8875L237.609 20.6186Z" fill="#F1C433"/>
<path d="M252.851 21.5492L251.206 27.4378L255.098 28.5148L256.744 22.6261L252.851 21.5492Z" fill="#E6E7E8"/>
<path d="M251.354 34.5414L241.204 31.7407C240.757 31.6254 240.509 31.1641 240.625 30.7193C240.741 30.2745 241.204 30.0273 241.651 30.1427L251.801 32.9434C252.248 33.0587 252.496 33.52 252.38 33.9648C252.264 34.4096 251.801 34.6567 251.354 34.5414Z" fill="white"/>
<path d="M257.364 43.0424L239.433 38.0835C238.986 37.9681 238.737 37.5069 238.853 37.062C238.969 36.6172 239.433 36.3701 239.88 36.4854L257.811 41.4443C258.258 41.5596 258.506 42.0209 258.391 42.4657C258.275 42.9106 257.811 43.1577 257.364 43.0424Z" fill="white"/>
<path d="M263.258 38.1L255.775 36.0241C255.327 35.9088 255.079 35.4475 255.195 35.0027C255.311 34.5579 255.775 34.3108 256.222 34.4261L263.705 36.5019C264.152 36.6172 264.401 37.0785 264.285 37.5233C264.169 37.9682 263.705 38.2153 263.258 38.1Z" fill="white"/>
<path d="M52.0391 18.3303H21.3421V45.1676H52.0391V18.3303Z" fill="#F1C433"/>
<path d="M38.0648 15.5625H34.5051V20.9662H38.0648V15.5625Z" fill="#E6E7E8"/>
<path d="M46.8567 26.8148H26.9881C26.6735 26.8148 26.4252 26.5676 26.4252 26.2546C26.4252 25.9416 26.6735 25.6945 26.9881 25.6945H46.8567C47.1713 25.6945 47.4196 25.9416 47.4196 26.2546C47.4196 26.5676 47.1713 26.8148 46.8567 26.8148Z" fill="white"/>
<path d="M46.8567 32.5809H26.9881C26.6735 32.5315 26.4583 32.235 26.508 31.9219C26.5576 31.6748 26.7398 31.4936 26.9881 31.4442H46.8567C47.1713 31.3947 47.4693 31.6089 47.519 31.9219C47.5686 32.235 47.3534 32.5315 47.0388 32.5809C46.9726 32.5809 46.9063 32.5809 46.8401 32.5809H46.8567Z" fill="white"/>
<path d="M39.6543 38.3306H27.0212C26.7066 38.3306 26.4583 38.0835 26.4583 37.7705C26.4583 37.4574 26.7066 37.2103 27.0212 37.2103H39.6543C39.9689 37.2103 40.2173 37.4574 40.2173 37.7705C40.2173 38.0835 39.9689 38.3306 39.6543 38.3306Z" fill="white"/>
<g clip-path="url(#clip0_1_39)">
<path d="M71.6384 95.4817L108.045 59.0752C113.459 53.6609 122.421 53.6609 127.835 59.0752L164.241 95.4817C169.656 100.896 169.656 109.858 164.241 115.272L127.835 151.678C122.421 157.093 113.459 157.093 108.045 151.678L71.6384 115.272C66.2241 109.671 66.2241 100.896 71.6384 95.4817Z" fill="#F1C533"/>
<path d="M118.826 123.796C113.603 123.796 108.567 122.304 104.09 119.506C102.785 118.574 102.039 117.268 102.039 115.776V104.398L91.5932 98.8019L118.826 84.0663L145.872 98.6153L135.427 104.211V115.589C135.427 117.082 134.681 118.574 133.375 119.32C129.085 122.304 123.862 123.796 118.826 123.796ZM105.21 106.263V115.776C105.21 116.149 105.396 116.708 105.769 116.895C113.603 121.931 123.862 121.931 131.696 116.895C132.069 116.708 132.256 116.149 132.256 115.776V106.449L118.64 113.724L105.21 106.263ZM98.3081 98.6153L118.826 109.807L139.344 98.6153L118.826 87.4237L98.3081 98.6153Z" fill="white"/>
</g>
<defs>
<clipPath id="clip0_1_39">
<rect width="100.725" height="100.725" fill="white" transform="translate(67.5312 54.9345)"/>
</clipPath>
</defs>
</svg>
