<svg width="592" height="380" viewBox="0 0 592 380" fill="none" xmlns="http://www.w3.org/2000/svg">
<g clip-path="url(#clip0_1_254)">
<path d="M154.604 358.608L152.945 358.216C158.674 334.416 146.651 297.625 146.532 297.25L148.156 296.72C148.276 297.096 160.453 334.348 154.604 358.625V358.608Z" fill="#1F292E"/>
<path d="M147.336 303.583C150.991 303.583 153.954 300.625 153.954 296.976C153.954 293.327 150.991 290.369 147.336 290.369C143.68 290.369 140.717 293.327 140.717 296.976C140.717 300.625 143.68 303.583 147.336 303.583Z" fill="#E23645"/>
<path d="M149.952 289.977C149.422 289.772 148.858 289.635 148.276 289.567C147.968 289.516 147.66 289.499 147.336 289.499C143.197 289.499 139.845 292.845 139.845 296.976C139.845 300.784 142.718 303.942 146.429 304.386C146.72 304.42 147.028 304.437 147.336 304.437C147.763 304.437 148.174 304.403 148.584 304.318C149.165 304.232 149.713 304.079 150.226 303.857C152.911 302.73 154.809 300.067 154.809 296.976C154.809 293.886 152.791 291.035 149.952 289.977ZM147.763 302.713C147.626 302.73 147.489 302.73 147.336 302.73C146.874 302.73 146.412 302.679 145.984 302.559C143.641 302.013 141.846 300.015 141.589 297.574C141.572 297.386 141.555 297.181 141.555 296.976C141.555 296.584 141.589 296.191 141.675 295.815C142.222 293.186 144.548 291.206 147.336 291.206H147.438C148.054 291.206 148.635 291.325 149.183 291.513C151.457 292.281 153.099 294.45 153.099 296.976C153.099 299.281 151.731 301.279 149.764 302.184C149.251 302.423 148.704 302.593 148.122 302.662C148.003 302.696 147.883 302.713 147.763 302.713Z" fill="#1F292E"/>
<path d="M168.046 335.27C173.605 318.795 167.225 302.935 167.225 302.935C161.086 308.688 156.212 315.654 152.877 323.37C149.935 329.978 147.797 336.909 146.48 344.011L158.948 351.045" fill="white"/>
<path d="M158.503 351.813L146.036 344.779C145.711 344.592 145.54 344.216 145.608 343.84C146.925 336.653 149.097 329.653 152.073 322.978C155.459 315.159 160.419 308.108 166.644 302.269C166.849 302.081 167.157 301.996 167.431 302.064C167.704 302.132 167.944 302.32 168.063 302.593C168.337 303.259 174.494 318.983 168.901 335.543C168.748 336.004 168.234 336.243 167.773 336.107C167.311 335.953 167.071 335.458 167.225 335.014C171.723 321.646 168.166 308.535 166.815 304.488C161.24 310.003 156.776 316.524 153.663 323.712C150.824 330.063 148.738 336.721 147.438 343.55L159.358 350.26C159.837 350.379 160.128 350.857 160.008 351.335C159.889 351.813 159.41 352.104 158.931 351.984C158.777 351.95 158.623 351.865 158.503 351.745V351.813Z" fill="#1F292E"/>
<path d="M142.496 337.268C139.434 334.536 135.98 332.282 132.234 330.609C131.926 341.502 136.356 351.54 140.443 358.403H153.766" fill="white"/>
<path d="M153.817 359.274H140.495C140.187 359.274 139.896 359.12 139.742 358.847C135.757 352.172 131.088 341.775 131.396 330.592C131.396 330.302 131.55 330.029 131.807 329.875C132.046 329.721 132.337 329.687 132.611 329.79C136.441 331.514 139.964 333.819 143.077 336.619C143.47 336.909 143.573 337.455 143.282 337.865C142.992 338.258 142.444 338.36 142.034 338.07C141.983 338.036 141.931 337.985 141.897 337.95C139.263 335.611 136.322 333.614 133.158 332.026C133.158 342.116 137.365 351.352 141.008 357.635H153.817C154.296 357.498 154.775 357.772 154.912 358.25C155.049 358.728 154.775 359.206 154.296 359.342C154.142 359.393 153.971 359.393 153.8 359.342V359.291L153.817 359.274Z" fill="#1F292E"/>
<path d="M161.565 340.187C158.298 323.114 144.924 312.427 144.924 312.427C142.427 320.451 141.589 328.902 142.496 337.268C143.197 344.455 144.736 351.557 147.096 358.386H161.411" fill="white"/>
<path d="M161.411 359.274H147.096C146.72 359.274 146.378 359.035 146.258 358.676C143.864 351.779 142.307 344.609 141.606 337.336C140.7 328.868 141.538 320.297 144.086 312.154C144.172 311.881 144.394 311.676 144.668 311.59C144.941 311.505 145.249 311.573 145.471 311.744C146.036 312.188 159.153 322.858 162.437 340.016C162.522 340.494 162.214 340.955 161.736 341.058C161.257 341.143 160.812 340.836 160.709 340.375C158.042 326.529 148.481 316.849 145.317 313.998C143.18 321.527 142.513 329.414 143.334 337.199C144.001 344.131 145.454 350.943 147.695 357.533H161.376C161.855 357.396 162.334 357.669 162.471 358.147C162.608 358.625 162.334 359.103 161.855 359.24C161.701 359.291 161.53 359.291 161.359 359.24L161.394 359.291L161.411 359.274Z" fill="#1F292E"/>
<path d="M168.679 358.386H156.006C155.87 354.63 156.725 348.962 160.795 341.604L161.616 340.17C168.953 327.758 175.674 327.895 175.674 327.895C178.479 340.972 172.476 352.633 168.679 358.386Z" fill="white"/>
<path d="M168.679 359.274H156.006C155.527 359.274 155.151 358.915 155.117 358.437C154.997 354.835 155.75 348.911 160.025 341.194L160.846 339.743C168.371 327.024 175.383 327.024 175.691 327.024C176.101 327.024 176.461 327.331 176.546 327.724C179.453 341.126 173.331 352.991 169.414 358.881C169.243 359.12 168.97 359.274 168.679 359.274ZM156.879 357.567H168.2C171.877 351.916 177.299 341.092 175.041 328.936C173.228 329.329 168.046 331.224 162.437 340.699C162.18 341.143 161.907 341.604 161.633 342.099C158.777 346.76 157.135 352.052 156.844 357.516L156.879 357.567Z" fill="#1F292E"/>
<path d="M166.336 378.481H141.469L137.468 358.403H170.338L166.336 378.481Z" fill="#1F292E"/>
<path d="M150.003 290.011C150.003 290.011 149.815 290.284 149.559 290.762C149.456 290.967 149.319 291.223 149.183 291.513C148.618 292.708 147.9 294.586 147.575 296.891C147.438 297.932 147.37 299.042 147.438 300.237V300.271C147.472 301.057 147.575 301.876 147.763 302.713C147.814 302.986 147.883 303.259 147.968 303.549C148.02 303.754 148.071 303.976 148.139 304.181L147.336 304.437C147.028 304.437 146.72 304.42 146.429 304.386C146.327 304.079 146.258 303.788 146.19 303.481C146.104 303.174 146.053 302.866 145.984 302.559C145.66 300.749 145.625 299.059 145.779 297.523C145.831 296.925 145.916 296.362 146.019 295.816C146.344 293.938 146.925 292.367 147.438 291.206C147.575 290.899 147.712 290.608 147.832 290.369C148.003 290.045 148.156 289.772 148.276 289.567C148.858 289.635 149.422 289.772 149.952 289.977L150.003 290.011Z" fill="#1F292E"/>
<path d="M147.113 297.796C147.113 297.796 143.522 296.806 141.025 297.779L140.409 296.191C143.436 295.03 147.404 296.123 147.575 296.174L147.113 297.813V297.796Z" fill="#1F292E"/>
<path d="M306.181 348.313C305.719 348.313 305.343 347.921 305.326 347.46V16.6287C305.326 16.1506 305.702 15.775 306.181 15.775C306.66 15.775 307.036 16.1506 307.036 16.6287V347.46C307.036 347.938 306.66 348.313 306.181 348.313Z" fill="#C8CDD0"/>
<path d="M276.491 379.146C276.269 379.146 276.047 379.061 275.893 378.89C275.568 378.566 275.551 378.037 275.893 377.712L305.736 346.982C306.078 346.657 306.626 346.657 306.968 346.982L336.811 377.712C337.119 378.071 337.067 378.617 336.691 378.907C336.366 379.181 335.887 379.163 335.58 378.89L306.335 348.757L277.107 378.89C276.953 379.061 276.731 379.163 276.491 379.163V379.146Z" fill="#C8CDD0"/>
<path d="M306.181 348.313C305.719 348.313 305.343 347.921 305.326 347.46V16.6287C305.326 16.1506 305.702 15.775 306.181 15.775C306.66 15.775 307.036 16.1506 307.036 16.6287V347.46C307.036 347.938 306.66 348.313 306.181 348.313Z" stroke="#1F292E" stroke-linecap="round" stroke-linejoin="round"/>
<path d="M276.491 379.146C276.269 379.146 276.047 379.061 275.893 378.89C275.568 378.566 275.551 378.037 275.893 377.712L305.736 346.982C306.078 346.657 306.626 346.657 306.968 346.982L336.811 377.712C337.119 378.071 337.067 378.617 336.691 378.907C336.366 379.181 335.887 379.163 335.58 378.89L306.335 348.757L277.107 378.89C276.953 379.061 276.731 379.163 276.491 379.163V379.146Z" stroke="#1F292E" stroke-linecap="round" stroke-linejoin="round"/>
<path d="M435.371 23.7137H177.299V214.123H435.371V23.7137Z" fill="white"/>
<path d="M435.371 214.977H177.299C176.82 214.977 176.426 214.584 176.426 214.106V23.765C176.426 23.2869 176.803 22.8943 177.282 22.8772C177.282 22.8772 177.282 22.8772 177.299 22.8772H435.371C435.85 22.843 436.277 23.2016 436.312 23.6796C436.312 23.7137 436.312 23.7308 436.312 23.765V214.123C436.312 214.601 435.901 214.994 435.422 214.977C435.405 214.977 435.388 214.977 435.371 214.977ZM178.188 213.27H434.482V24.5844H178.188V213.27Z" fill="#1F292E"/>
<path d="M263.306 150.306H202.011C201.532 150.306 201.156 149.931 201.156 149.453C201.156 148.975 201.532 148.599 202.011 148.599H263.323C263.802 148.599 264.178 148.975 264.178 149.453C264.178 149.931 263.802 150.306 263.323 150.306C263.323 150.306 263.323 150.306 263.306 150.306Z" fill="#C8CDD0"/>
<path d="M263.306 164.391H202.011C201.532 164.391 201.156 164.016 201.156 163.538C201.156 163.06 201.532 162.684 202.011 162.684H263.323C263.802 162.684 264.178 163.06 264.178 163.538C264.178 164.016 263.802 164.391 263.323 164.391C263.323 164.391 263.323 164.391 263.306 164.391Z" fill="#C8CDD0"/>
<path d="M263.306 178.459H202.011C201.532 178.459 201.156 178.083 201.156 177.605C201.156 177.127 201.532 176.752 202.011 176.752H263.323C263.802 176.752 264.178 177.127 264.178 177.605C264.178 178.083 263.802 178.459 263.323 178.459H263.306Z" fill="#C8CDD0"/>
<path d="M248.512 192.544H202.011C201.532 192.544 201.156 192.168 201.156 191.69C201.156 191.212 201.532 190.837 202.011 190.837H248.529C249.008 190.837 249.384 191.212 249.384 191.69C249.384 192.168 249.008 192.544 248.529 192.544C248.529 192.544 248.529 192.544 248.512 192.544Z" fill="#C8CDD0"/>
<path d="M590.984 379.898H0.85511C0.376249 379.898 0 379.522 0 379.044C0 378.566 0.376249 378.19 0.85511 378.19H590.984C591.463 378.19 591.839 378.566 591.839 379.044C591.839 379.522 591.463 379.898 590.984 379.898Z" fill="#1F292E"/>
<path d="M273.396 109.025H107.676V226.774H273.396V109.025Z" fill="white"/>
<path d="M273.379 227.628H107.727C107.248 227.628 106.872 227.252 106.872 226.774V108.974C106.872 108.496 107.248 108.12 107.727 108.12H273.43C273.909 108.12 274.285 108.496 274.285 108.974V226.774C274.285 227.252 273.909 227.628 273.43 227.628C273.413 227.628 273.396 227.628 273.379 227.628ZM108.531 225.921H272.524V109.827H108.531V225.921Z" fill="#1F292E"/>
<path d="M273.379 121.522H107.727C107.248 121.522 106.872 121.147 106.872 120.669C106.872 120.191 107.248 119.815 107.727 119.815H273.43C273.909 119.815 274.285 120.191 274.285 120.669C274.285 121.147 273.909 121.522 273.43 121.522C273.413 121.522 273.396 121.522 273.379 121.522Z" fill="#1F292E"/>
<path d="M142.427 130.946H122.195C121.716 130.946 121.34 130.571 121.34 130.093C121.34 129.615 121.716 129.239 122.195 129.239H142.427C142.906 129.239 143.282 129.615 143.282 130.093C143.282 130.571 142.906 130.946 142.427 130.946Z" fill="#C8CDD0"/>
<path d="M193.477 130.946H153.082C152.62 130.946 152.244 130.554 152.227 130.093C152.227 129.615 152.603 129.239 153.082 129.239H193.477C193.956 129.239 194.332 129.615 194.332 130.093C194.332 130.571 193.956 130.946 193.477 130.946Z" fill="#E23645"/>
<path d="M205.637 141.412H165.242C164.763 141.412 164.386 141.036 164.386 140.558C164.386 140.097 164.78 139.721 165.242 139.704H205.637C206.116 139.704 206.492 140.08 206.492 140.558C206.492 141.036 206.116 141.412 205.637 141.412Z" fill="#E23645"/>
<path d="M147.182 141.412H126.933C126.454 141.412 126.077 141.036 126.077 140.558C126.077 140.097 126.471 139.721 126.933 139.704H147.182C147.66 139.704 148.037 140.08 148.037 140.558C148.037 141.036 147.66 141.412 147.182 141.412Z" fill="#C8CDD0"/>
<path d="M147.951 151.894H131.67C131.191 151.894 130.815 151.519 130.815 151.041C130.815 150.58 131.208 150.204 131.67 150.187H147.934C148.413 150.187 148.789 150.562 148.789 151.041C148.789 151.501 148.413 151.877 147.951 151.894Z" fill="#C8CDD0"/>
<path d="M212.871 151.894H162.3C161.821 151.894 161.445 151.519 161.445 151.041C161.445 150.58 161.838 150.204 162.3 150.187H212.871C213.333 150.187 213.709 150.58 213.726 151.041C213.726 151.519 213.35 151.894 212.871 151.894Z" fill="#E23645"/>
<path d="M156.69 162.411H136.441C135.963 162.411 135.586 162.035 135.586 161.557C135.586 161.079 135.963 160.704 136.441 160.704H156.69C157.152 160.704 157.528 161.096 157.546 161.557C157.546 162.035 157.169 162.411 156.69 162.411Z" fill="#C8CDD0"/>
<path d="M223.321 162.411H163.206C162.728 162.411 162.351 162.035 162.351 161.557C162.351 161.079 162.728 160.704 163.206 160.704H223.321C223.8 160.704 224.176 161.079 224.176 161.557C224.176 162.035 223.8 162.411 223.321 162.411Z" fill="#E23645"/>
<path d="M151.32 172.859H131.071C130.592 172.859 130.216 172.484 130.216 172.006C130.216 171.528 130.592 171.152 131.071 171.152H151.32C151.799 171.152 152.175 171.528 152.175 172.006C152.175 172.484 151.799 172.859 151.32 172.859Z" fill="#C8CDD0"/>
<path d="M191.664 172.859H159.033C158.555 172.859 158.178 172.484 158.178 172.006C158.178 171.528 158.555 171.152 159.033 171.152H191.664C192.143 171.152 192.52 171.528 192.52 172.006C192.52 172.484 192.143 172.859 191.664 172.859Z" fill="#E23645"/>
<path d="M236.712 172.859H204.115C203.636 172.859 203.26 172.484 203.26 172.006C203.26 171.528 203.636 171.152 204.115 171.152H236.712C237.191 171.152 237.567 171.528 237.567 172.006C237.567 172.484 237.191 172.859 236.712 172.859Z" fill="#E23645"/>
<path d="M138.049 183.342H131.071C130.592 183.342 130.216 182.966 130.216 182.488C130.216 182.01 130.592 181.634 131.071 181.634H138.049C138.528 181.634 138.904 182.01 138.904 182.488C138.904 182.966 138.528 183.342 138.049 183.342Z" fill="#C8CDD0"/>
<path d="M191.664 183.342H149.935C149.456 183.342 149.08 182.966 149.08 182.488C149.08 182.01 149.456 181.634 149.935 181.634H191.664C192.143 181.634 192.52 182.01 192.52 182.488C192.52 182.966 192.143 183.342 191.664 183.342Z" fill="#E23645"/>
<path d="M208.117 183.342H196.47C195.991 183.342 195.615 182.966 195.615 182.488C195.615 182.01 195.991 181.634 196.47 181.634H208.117C208.596 181.634 208.972 182.01 208.972 182.488C208.972 182.966 208.596 183.342 208.117 183.342Z" fill="#E23645"/>
<path d="M142.034 193.824H131.071C130.61 193.824 130.233 193.432 130.216 192.971C130.216 192.493 130.592 192.117 131.071 192.117H142.034C142.513 192.117 142.889 192.493 142.889 192.971C142.889 193.432 142.496 193.807 142.034 193.824Z" fill="#C8CDD0"/>
<path d="M201.892 193.824H152.295C151.816 193.824 151.44 193.449 151.44 192.971C151.44 192.493 151.816 192.117 152.295 192.117H201.892C202.37 192.117 202.747 192.493 202.747 192.971C202.747 193.432 202.353 193.807 201.892 193.824Z" fill="#E23645"/>
<path d="M227.032 193.824H206.783C206.304 193.824 205.928 193.449 205.928 192.971C205.928 192.493 206.304 192.117 206.783 192.117H227.032C227.511 192.117 227.887 192.493 227.887 192.971C227.887 193.432 227.494 193.807 227.032 193.824Z" fill="#E23645"/>
<path d="M137.057 204.307H126.317C125.855 204.307 125.479 203.914 125.462 203.453C125.462 202.975 125.838 202.6 126.317 202.6H137.057C137.536 202.6 137.912 202.975 137.912 203.453C137.912 203.931 137.536 204.307 137.057 204.307Z" fill="#C8CDD0"/>
<path d="M196.47 204.307H149.576C149.097 204.307 148.721 203.931 148.721 203.453C148.721 202.975 149.097 202.6 149.576 202.6H196.47C196.949 202.6 197.325 202.975 197.325 203.453C197.325 203.931 196.949 204.307 196.47 204.307Z" fill="#E23645"/>
<path d="M146.566 214.772H126.317C125.838 214.772 125.462 214.397 125.462 213.919C125.462 213.458 125.855 213.082 126.317 213.065H146.566C147.045 213.065 147.421 213.441 147.421 213.919C147.421 214.397 147.045 214.772 146.566 214.772Z" fill="#C8CDD0"/>
<path d="M258.859 162.411H231.495C231.017 162.411 230.64 162.035 230.64 161.557C230.64 161.079 231.017 160.704 231.495 160.704H258.859C259.338 160.704 259.714 161.079 259.714 161.557C259.714 162.035 259.338 162.411 258.859 162.411Z" fill="#E23645"/>
<path d="M217.745 130.997H203.944C203.482 130.895 203.174 130.434 203.277 129.973C203.379 129.546 203.79 129.256 204.235 129.307C205.551 129.393 237.635 129.307 249.932 129.307C250.393 129.307 250.77 129.683 250.787 130.144C250.787 130.622 250.411 130.997 249.932 131.014H217.745V130.997Z" fill="#E23645"/>
<path d="M222.312 204.307H201.789C201.31 204.307 200.934 203.931 200.934 203.453C200.934 202.975 201.31 202.6 201.789 202.6H222.312C222.79 202.6 223.167 202.975 223.167 203.453C223.167 203.931 222.79 204.307 222.312 204.307Z" fill="#E23645"/>
<path d="M175.366 214.772H160.316C159.837 214.772 159.461 214.397 159.461 213.919C159.461 213.441 159.837 213.065 160.316 213.065H175.366C175.845 213.065 176.221 213.441 176.221 213.919C176.221 214.397 175.845 214.772 175.366 214.772Z" fill="#C8CDD0"/>
<path d="M216.907 214.772H181.095C180.616 214.772 180.24 214.397 180.24 213.919C180.24 213.441 180.616 213.065 181.095 213.065H216.907C217.369 213.065 217.745 213.458 217.762 213.919C217.762 214.397 217.386 214.772 216.907 214.772Z" fill="#E23645"/>
<path d="M232.624 0.802429H127.685V69.451H232.624V0.802429Z" fill="white"/>
<path d="M232.624 70.3046H127.685C127.206 70.3046 126.83 69.929 126.83 69.451V0.853626C126.83 0.392668 127.223 0.0170725 127.685 0H232.624C233.103 0 233.479 0.375595 233.479 0.853626V69.451C233.479 69.929 233.103 70.3046 232.624 70.3046ZM128.54 68.5974H231.769V1.65603H128.54V68.5974Z" fill="#1F292E"/>
<path d="M232.624 8.4509H127.685C127.206 8.4509 126.83 8.07531 126.83 7.59728C126.83 7.11925 127.206 6.74365 127.685 6.74365H232.624C233.103 6.74365 233.479 7.11925 233.479 7.59728C233.479 8.07531 233.103 8.4509 232.624 8.4509Z" fill="#1F292E"/>
<path d="M149.713 13.9482H136.886C136.407 13.9482 136.031 13.5726 136.031 13.0946C136.031 12.6166 136.407 12.241 136.886 12.241H149.713C150.192 12.241 150.568 12.6166 150.568 13.0946C150.568 13.5556 150.175 13.9311 149.713 13.9482Z" fill="#E23645"/>
<path d="M182.036 13.9482H156.383C155.921 13.9482 155.545 13.5556 155.527 13.0946C155.527 12.6166 155.904 12.241 156.383 12.241H182.036C182.515 12.241 182.891 12.6166 182.891 13.0946C182.891 13.5726 182.515 13.9482 182.036 13.9482Z" fill="#E23645"/>
<path d="M189.732 21.7845H164.079C163.6 21.7845 163.223 21.4089 163.223 20.9309C163.223 20.4699 163.617 20.0943 164.079 20.0773H189.732C190.211 20.0773 190.587 20.4529 190.587 20.9309C190.587 21.4089 190.211 21.7845 189.732 21.7845Z" fill="#E23645"/>
<path d="M152.723 21.7845H139.896C139.417 21.7845 139.041 21.4089 139.041 20.9309C139.041 20.4529 139.417 20.0773 139.896 20.0773H152.723C153.184 20.0773 153.561 20.4699 153.578 20.9309C153.578 21.4089 153.202 21.7845 152.723 21.7845Z" fill="#E23645"/>
<path d="M153.202 29.6379H142.94C142.461 29.6379 142.085 29.2623 142.085 28.7842C142.085 28.3062 142.461 27.9306 142.94 27.9306H153.202C153.68 27.9306 154.057 28.3062 154.057 28.7842C154.057 29.2623 153.68 29.6379 153.202 29.6379Z" fill="#E23645"/>
<path d="M194.315 29.6379H162.283C161.821 29.6379 161.445 29.2452 161.428 28.7842C161.428 28.3062 161.804 27.9306 162.283 27.9306H194.315C194.794 27.9306 195.17 28.3062 195.17 28.7842C195.17 29.2452 194.777 29.6208 194.315 29.6379Z" fill="#E23645"/>
<path d="M158.726 37.4742H145.916C145.437 37.4742 145.061 37.0986 145.061 36.6205C145.061 36.1425 145.437 35.7669 145.916 35.7669H158.726C159.204 35.7669 159.581 36.1425 159.581 36.6205C159.581 37.0986 159.204 37.4742 158.726 37.4742Z" fill="#E23645"/>
<path d="M200.934 37.4742H162.864C162.385 37.4742 162.009 37.0986 162.009 36.6205C162.009 36.1425 162.385 35.7669 162.864 35.7669H200.934C201.396 35.7669 201.772 36.1596 201.789 36.6205C201.789 37.0986 201.413 37.4742 200.934 37.4742Z" fill="#E23645"/>
<path d="M155.339 45.3275H142.513C142.034 45.3275 141.658 44.9519 141.658 44.4739C141.658 43.9958 142.034 43.6202 142.513 43.6202H155.339C155.818 43.6202 156.194 43.9958 156.194 44.4739C156.194 44.9519 155.818 45.3275 155.339 45.3275Z" fill="#E23645"/>
<path d="M180.89 45.3275H160.248C159.769 45.3275 159.393 44.9519 159.393 44.4739C159.393 43.9958 159.769 43.6202 160.248 43.6202H180.89C181.369 43.6202 181.745 43.9958 181.745 44.4739C181.745 44.9519 181.369 45.3275 180.89 45.3275Z" fill="#E23645"/>
<path d="M209.417 45.3275H188.774C188.295 45.3275 187.919 44.9519 187.919 44.4739C187.919 43.9958 188.295 43.6202 188.774 43.6202H209.417C209.895 43.6202 210.272 43.9958 210.272 44.4739C210.272 44.9519 209.895 45.3275 209.417 45.3275Z" fill="#C8CDD0"/>
<path d="M146.925 53.1809H142.513C142.034 53.1809 141.658 52.8053 141.658 52.3273C141.658 51.8492 142.034 51.4736 142.513 51.4736H146.925C147.404 51.4736 147.78 51.8492 147.78 52.3273C147.78 52.8053 147.404 53.1809 146.925 53.1809Z" fill="#E23645"/>
<path d="M180.89 53.1809H154.45C153.988 53.1809 153.612 52.7882 153.595 52.3273C153.595 51.8492 153.971 51.4736 154.45 51.4736H180.89C181.369 51.4736 181.745 51.8492 181.745 52.3273C181.745 52.8053 181.369 53.1809 180.89 53.1809Z" fill="#E23645"/>
<path d="M194.726 53.1809H187.355C186.876 53.1809 186.5 52.8053 186.5 52.3273C186.5 51.8492 186.876 51.4736 187.355 51.4736H194.726C195.205 51.4736 195.581 51.8492 195.581 52.3273C195.581 52.7882 195.188 53.1638 194.726 53.1809Z" fill="#C8CDD0"/>
<path d="M149.456 61.0172H142.513C142.034 61.0172 141.658 60.6416 141.658 60.1636C141.658 59.6855 142.034 59.3099 142.513 59.3099H149.456C149.935 59.3099 150.311 59.6855 150.311 60.1636C150.311 60.6416 149.935 61.0172 149.456 61.0172Z" fill="#E23645"/>
<path d="M187.355 61.0172H155.989C155.51 61.0172 155.134 60.6416 155.134 60.1636C155.134 59.6855 155.51 59.3099 155.989 59.3099H187.355C187.834 59.3099 188.21 59.6855 188.21 60.1636C188.21 60.6416 187.834 61.0172 187.355 61.0172Z" fill="#E23645"/>
<path d="M206.697 61.0172H193.871C193.392 61.0172 193.016 60.6416 193.016 60.1636C193.016 59.6855 193.392 59.3099 193.871 59.3099H206.697C207.176 59.3099 207.552 59.6855 207.552 60.1636C207.552 60.6416 207.176 61.0172 206.697 61.0172Z" fill="#C8CDD0"/>
<path d="M223.44 37.4742H206.099C205.62 37.4742 205.244 37.0986 205.244 36.6205C205.244 36.1596 205.637 35.784 206.099 35.7669H223.44C223.919 35.7669 224.295 36.1425 224.295 36.6205C224.295 37.0986 223.919 37.4742 223.44 37.4742Z" fill="#C8CDD0"/>
<path d="M197.565 13.9824H188.569C188.124 13.8629 187.834 13.419 187.936 12.958C188.039 12.5312 188.449 12.241 188.877 12.3093H217.78C218.241 12.3093 218.618 12.6678 218.635 13.1288C218.635 13.1288 218.635 13.1288 218.635 13.1458C218.635 13.6239 218.258 13.9995 217.78 14.0165L197.565 13.9824Z" fill="#C8CDD0"/>
<path d="M540.259 305.854L545.099 374.588L565.981 371.498L565.946 302.644L540.259 305.854Z" fill="white"/>
<path d="M544.312 375.561L539.352 305.103L566.801 301.688V372.249L544.312 375.561ZM541.182 306.588L545.885 373.615L565.125 370.764V303.618L541.182 306.588Z" fill="#1F292E"/>
<path d="M567.793 379.044C567.964 375.817 567.964 372.573 567.793 369.347C567.793 369.347 545.116 370.9 545.937 368.971C545.714 366.82 545.304 364.703 544.723 362.62C544.723 362.62 530.528 367.742 526.663 371.156C522.797 374.571 521.378 376.551 522.986 378.139C524.593 379.727 567.793 379.044 567.793 379.044Z" fill="#1F292E"/>
<path d="M548.622 379.949C536.171 379.949 523.516 379.693 522.455 378.651C521.908 378.139 521.6 377.405 521.6 376.654C521.6 374.946 523.311 373.239 526.184 370.559C530.1 367.042 543.902 362.108 544.5 361.903C544.688 361.818 544.911 361.818 545.099 361.903C545.287 362.006 545.424 362.176 545.475 362.381C546.108 364.464 546.518 366.598 546.723 368.749C548.588 369.398 558.695 369.159 567.759 368.544C567.964 368.527 568.17 368.595 568.324 368.732C568.477 368.869 568.563 369.056 568.563 369.261C568.854 378.976 568.563 379.232 568.341 379.505C568.187 379.641 567.999 379.727 567.793 379.744C563.005 379.863 555.856 379.949 548.622 379.949ZM544.209 363.61C541.199 364.72 530.374 368.817 527.193 371.686C525.089 373.581 523.139 375.493 523.105 376.688C523.105 377.029 523.259 377.354 523.533 377.576C525.363 378.549 550.982 378.532 567.143 378.293V370.149C557.652 370.781 546.518 371.173 545.424 369.654C545.167 369.381 545.082 368.988 545.201 368.63C544.979 366.939 544.654 365.266 544.227 363.61H544.209Z" fill="#1F292E"/>
<path d="M491.415 312.478L493.176 374.588L514.058 371.498L518.436 305.854L491.415 312.478Z" fill="white"/>
<path d="M492.338 375.578L490.628 311.812L519.445 304.744L514.948 372.249L492.338 375.578ZM492.338 313.144L494.049 373.598L513.289 370.764L517.564 306.964L492.338 313.144Z" fill="#1F292E"/>
<path d="M466.839 149.197L456.15 161.147C456.15 161.147 418.525 144.553 416.678 141.599C414.831 138.646 409.376 131.595 407.768 131.919C406.16 132.244 409.205 140.336 409.205 140.336C409.205 140.336 393.522 133.678 393.522 134.958C393.522 136.239 392.992 146.26 394.924 146.909C396.857 147.558 452.114 187.61 459.81 185.356C467.506 183.103 475.493 172.859 475.493 172.859" fill="white"/>
<path d="M459.16 186.261C452.217 186.261 428.205 170.503 403.082 153.328C398.841 150.409 395.164 147.899 394.651 147.677C393.06 147.148 392.513 143.819 392.718 135.726V134.975C392.735 134.668 392.889 134.395 393.128 134.224C393.505 133.968 394.462 133.336 407.853 138.936C407.033 136.495 406.143 133.029 406.742 131.8C406.93 131.475 407.238 131.253 407.597 131.168C410.299 130.639 417.243 141.087 417.311 141.19C418.611 143.17 441.459 153.806 455.928 160.226L466.189 148.65C466.514 148.36 467.01 148.377 467.301 148.702C467.557 148.975 467.574 149.384 467.369 149.675L456.697 161.625C456.458 161.865 456.099 161.95 455.791 161.813C449.48 159.03 417.927 144.963 415.96 141.975C413.497 138.202 409.393 133.302 408.025 132.705C408.264 135.214 408.897 137.69 409.889 140.012C409.991 140.302 409.923 140.626 409.701 140.848C409.478 141.07 409.136 141.121 408.845 141.002C404.108 138.868 399.217 137.058 394.24 135.573V135.709C394.018 144.672 394.89 145.953 395.164 146.124C395.437 146.294 397.353 147.438 403.937 151.945C418.919 162.189 453.961 186.193 459.571 184.554C466.942 182.403 474.774 172.432 474.843 172.33C475.151 172.023 475.647 172.023 475.954 172.33C476.211 172.586 476.245 172.979 476.074 173.286C475.749 173.713 467.865 183.769 459.998 186.056C459.725 186.159 459.451 186.227 459.16 186.261Z" fill="#1F292E"/>
<path d="M483.839 318.658C483.497 286.835 484.078 237.274 484.078 218.357C484.078 199.441 493.074 170.674 493.074 170.674L555.924 168.625C555.924 168.625 568.512 231.793 571.402 318.658H483.839Z" fill="#1F292E"/>
<path d="M571.402 319.427H483.839C483.428 319.427 483.086 319.085 483.086 318.676C482.847 297.079 483.086 267.953 483.189 244.53C483.189 233.706 483.325 224.452 483.325 218.357C483.325 199.578 492.253 170.742 492.356 170.452C492.441 170.145 492.715 169.94 493.04 169.923L555.907 167.874C556.266 167.874 556.591 168.13 556.677 168.489C556.797 169.12 569.298 232.732 572.154 318.641C572.154 318.846 572.086 319.051 571.949 319.188C571.812 319.341 571.607 319.427 571.402 319.427ZM484.574 317.907H570.632C567.879 237.086 556.608 176.205 555.24 169.376L493.57 171.374C492.373 175.318 484.762 201.131 484.762 218.323C484.762 224.418 484.762 233.689 484.625 244.513C484.54 267.68 484.352 296.413 484.574 317.907Z" fill="#1F292E"/>
<path d="M547.151 95.1622C546.518 91.0818 549.494 86.8308 550.281 82.5456C551.409 76.5019 548.143 71.0558 545.543 65.8828C542.944 60.7098 542.653 55.1271 539.335 50.8761C533.059 42.852 520.044 37.5254 510.176 41.2813C499.06 45.5153 491.073 56.749 492.612 68.8193C492.971 71.6363 493.809 74.4703 493.211 77.236C491.979 83.1261 484.66 87.4795 486.011 93.3013C486.489 95.3158 487.96 96.9377 488.73 98.8498C491.193 104.876 486.438 111.21 485.19 117.63C484.095 123.246 485.788 128.983 487.601 134.412C489.157 139.124 491.158 144.212 495.502 146.602C498.307 147.899 501.385 148.48 504.481 148.309C518.163 148.531 532.597 145.868 542.893 136.887C553.188 127.907 557.6 111.279 549.733 100.147C548.878 99.0889 548.126 97.945 547.527 96.7328C547.339 96.2207 547.202 95.6914 547.151 95.1622Z" fill="white"/>
<path d="M505.969 149.128H504.464C501.249 149.282 498.033 148.633 495.109 147.267C490.526 144.724 488.439 139.414 486.866 134.651C485.019 129.102 483.308 123.212 484.437 117.459C484.933 115.257 485.617 113.105 486.472 111.005C488.046 106.84 489.534 102.896 488.012 99.1742C487.687 98.423 487.293 97.706 486.866 97.006C486.147 95.9304 485.6 94.7353 485.258 93.4891C484.369 89.7672 486.643 86.66 488.85 83.6724C490.491 81.7432 491.723 79.5067 492.458 77.0994C492.749 75.0849 492.663 73.0362 492.184 71.0558C492.065 70.3558 491.945 69.6388 491.86 68.9217C490.337 56.9709 497.931 45.1226 509.902 40.5472C520.557 36.501 533.845 42.5105 539.968 50.398C541.832 53.1126 543.2 56.1515 543.97 59.344C544.569 61.461 545.338 63.5268 546.262 65.5243L547.083 67.1291C549.562 71.9948 552.213 77.0141 551.067 82.6822C550.691 84.4065 550.178 86.0796 549.494 87.7015C548.365 89.9721 547.818 92.4988 547.938 95.0426C548.006 95.5207 548.126 95.9646 548.314 96.4085C548.724 97.3133 549.237 98.1669 549.87 98.9523L550.417 99.7205C557.053 109.179 556.249 126.302 543.423 137.485C534.666 145.116 521.737 149.128 505.969 149.128ZM517.119 40.8374C514.845 40.8204 512.587 41.213 510.45 42.0154C499.128 46.3177 491.962 57.5514 493.347 68.7339C493.433 69.4168 493.553 70.1168 493.672 70.7997C494.185 72.9679 494.271 75.2044 493.946 77.4067C493.176 80.053 491.86 82.4944 490.064 84.5772C487.994 87.4112 486.028 90.0916 486.729 93.1135C487.054 94.2061 487.55 95.2475 488.183 96.1865C488.661 96.9377 489.072 97.7401 489.431 98.5596C491.141 102.862 489.431 107.284 487.909 111.535C487.071 113.549 486.404 115.632 485.925 117.749C484.882 123.127 486.455 128.573 488.302 134.139C489.807 138.629 491.723 143.614 495.844 145.902C498.512 147.148 501.454 147.728 504.395 147.609C520.437 147.882 533.555 143.99 542.277 136.375C554.454 125.773 555.257 109.588 549.015 100.677C548.844 100.438 548.673 100.181 548.485 99.9425C547.801 99.0547 547.219 98.0816 546.775 97.0572C546.552 96.5109 546.398 95.9304 546.313 95.35C546.142 92.5501 546.706 89.7502 547.938 87.2234C548.57 85.6869 549.083 84.0821 549.443 82.4602C550.4 77.3385 547.972 72.5411 545.595 67.9144L544.774 66.2925C543.799 64.2268 542.995 62.0756 542.397 59.8733C541.678 56.8173 540.413 53.932 538.651 51.337C533.298 44.9348 525.465 41.1106 517.119 40.8374Z" fill="#1F292E"/>
<path d="M490.697 109.793L460.067 148.394C460.067 148.394 463.145 155.343 475.732 183.598C486.832 178.066 505.336 148.104 505.336 148.104L490.697 109.793Z" fill="#E23645"/>
<path d="M518.659 100.352C518.659 100.352 494.237 102.606 488.49 112.542C482.744 122.478 484.266 181.156 484.266 181.156L558.592 182.539C558.592 182.539 565.981 123.349 555.89 107.984C552.042 99.2766 541.866 99.2937 518.659 100.352Z" fill="#E23645"/>
<path d="M533.059 101.445L531.195 182.164L506.636 181.208L511.424 105.354L533.059 101.445Z" fill="white"/>
<path d="M511.51 92.1745L511.424 106.413C511.424 106.413 512.861 114.369 521.549 111.944C526.731 110.442 530.972 106.669 533.059 101.701L532.067 77.0653C530.938 72.7631 530.459 68.3071 530.647 63.8512C520.112 63.6805 511.835 55.7418 511.835 55.7418C511.835 55.7418 508.209 61.1879 506.704 62.8951C505.456 64.1927 504.361 65.6267 503.455 67.1803C502.241 70.0827 501.796 73.2411 502.121 76.3654C502.155 79.9677 502.514 83.5529 503.198 87.0869C504.498 93.7622 511.51 92.1745 511.51 92.1745Z" fill="white"/>
<path d="M518.453 113.174C517 113.191 515.58 112.815 514.332 112.064C512.451 110.749 511.134 108.786 510.655 106.55V93.0793C508.808 93.3183 506.927 92.9427 505.302 92.0037C503.677 90.9111 502.583 89.2038 502.275 87.2746C501.574 83.6894 501.214 80.07 501.18 76.4165C501.18 73.48 501.043 69.7924 502.617 66.8559C503.557 65.234 504.703 63.7316 506.037 62.4C507.542 60.6927 511.168 55.4003 511.168 55.349C511.425 54.9905 511.92 54.9052 512.28 55.1442C512.314 55.1612 512.331 55.1783 512.365 55.2125C512.451 55.2125 520.574 62.9463 530.664 63.1C530.87 63.117 531.058 63.2024 531.212 63.339C531.349 63.4926 531.434 63.6975 531.434 63.9024C531.229 67.9144 531.622 71.9435 532.597 75.8531C532.734 76.2629 532.819 76.6897 532.854 77.1165C532.854 77.2872 533.845 101.752 533.845 101.752C533.845 101.855 533.845 101.957 533.845 102.059C531.691 107.249 527.278 111.176 521.874 112.747C520.762 113.054 519.616 113.191 518.453 113.174ZM512.211 106.345C512.878 109.896 516.316 112.252 519.873 111.569C520.369 111.483 520.848 111.33 521.327 111.125C526.201 109.691 530.203 106.174 532.272 101.53C531.622 85.2089 531.297 77.0425 531.297 77.0311C531.246 76.7238 531.178 76.4165 531.092 76.1092C530.134 72.3362 529.724 68.4607 529.861 64.5682C521.121 64.1414 514.144 58.7465 511.972 56.9026C510.501 59.1391 508.893 61.3073 507.2 63.3902C505.986 64.6365 504.926 66.0194 504.053 67.5217C502.925 70.3046 502.497 73.3435 502.822 76.3312C502.856 79.8822 503.198 83.4163 503.865 86.899C504.105 88.4014 504.943 89.7502 506.208 90.6209C507.782 91.4574 509.595 91.7135 511.339 91.355C511.749 91.2525 512.177 91.5086 512.28 91.9184C512.28 91.9867 512.297 92.0549 512.297 92.1062L512.211 106.345Z" fill="#1F292E"/>
<path d="M511.596 99.1742C515.119 99.2425 518.522 97.945 521.104 95.5719C523.242 93.5744 524.388 90.7575 524.268 87.8381C520.437 90.3136 516.059 91.7989 511.51 92.1745L511.596 99.1742Z" fill="#1F292E"/>
<path d="M511.852 99.9254H511.561C511.168 99.8913 510.843 99.5669 510.843 99.1742L510.757 92.1916C510.757 91.7818 511.082 91.4404 511.493 91.4233C515.888 91.0477 520.129 89.5965 523.858 87.2235C524.08 87.0869 524.354 87.0869 524.576 87.2235C524.816 87.3259 524.987 87.5478 525.021 87.8039C525.175 90.9623 523.909 94.0183 521.6 96.1695C518.949 98.6108 515.461 99.9596 511.852 99.9254ZM512.28 92.8915V98.406C515.341 98.3035 518.265 97.0914 520.489 94.9915C522.113 93.4379 523.139 91.3721 523.43 89.1356C520.027 91.1672 516.23 92.4477 512.28 92.8915Z" fill="#1F292E"/>
<path d="M516.555 71.7386C516.555 71.7386 511.972 78.5677 513.135 79.7627C514.298 80.9578 517.273 80.1554 517.273 80.1554" fill="white"/>
<path d="M515.204 81.1627C514.212 81.2481 513.254 80.9237 512.502 80.275C511.271 78.9262 513.699 74.6581 515.922 71.3119C516.162 70.9704 516.641 70.9021 516.983 71.1582C517.291 71.3972 517.376 71.8241 517.171 72.1484C515.084 75.2898 513.425 78.6189 513.648 79.3018C514.144 79.8311 515.957 79.6945 517.068 79.4213C517.479 79.3189 517.889 79.5579 517.992 79.9677C518.094 80.3603 517.855 80.7871 517.462 80.8896C516.726 81.0774 515.974 81.1627 515.221 81.1627H515.204Z" fill="#1F292E"/>
<path d="M510.819 70.5604C510.851 69.7501 510.525 69.0795 510.09 69.0624C509.656 69.0454 509.278 69.6884 509.247 70.4987C509.215 71.3089 509.541 71.9796 509.975 71.9967C510.409 72.0137 510.787 71.3706 510.819 70.5604Z" fill="#1F292E"/>
<path d="M521.679 69.2182C521.71 68.4079 521.384 67.7373 520.95 67.7203C520.516 67.7033 520.138 68.3463 520.106 69.1565C520.074 69.9668 520.401 70.6375 520.835 70.6545C521.269 70.6715 521.647 70.0284 521.679 69.2182Z" fill="#1F292E"/>
<path d="M513.443 83.7748L517.085 82.8358C517.085 82.8358 517.838 88.1624 515.786 88.6234C513.733 89.0844 513.443 83.7748 513.443 83.7748Z" fill="white"/>
<path d="M515.529 89.4087C515.136 89.4087 514.742 89.2892 514.434 89.0331C512.981 87.9234 512.724 84.4918 512.724 83.8089C512.69 83.4504 512.929 83.126 513.289 83.0407L516.931 82.1017C517.137 82.0505 517.359 82.1017 517.547 82.2041C517.718 82.3236 517.838 82.5285 517.872 82.7334C518.009 83.7407 518.59 88.777 515.974 89.3575C515.837 89.3917 515.683 89.4087 515.529 89.4087ZM514.246 84.287C514.281 85.5162 514.674 86.6942 515.358 87.7015C515.443 87.7356 515.529 87.7356 515.615 87.7015C516.367 87.5308 516.555 85.3967 516.418 83.6041L514.246 84.287Z" fill="#1F292E"/>
<path d="M484.044 182.181H483.958C483.548 182.13 483.24 181.771 483.291 181.361L489.944 123.059C489.995 122.649 490.372 122.342 490.782 122.393C491.193 122.444 491.5 122.82 491.449 123.229L484.796 181.532C484.745 181.908 484.42 182.198 484.044 182.198V182.181Z" fill="#1F292E"/>
<path d="M527.312 69.8607C527.86 68.0852 528.766 66.4462 529.98 65.0463C531.246 63.6293 533.247 63.1512 535.025 63.8171C536.753 64.9951 537.693 67.0096 537.471 69.0925C537.42 71.4143 536.992 73.7191 536.223 75.9215C535.898 77.2531 535.214 78.4823 534.273 79.4726C533.281 80.4628 531.742 80.6847 530.511 80.0018" fill="white"/>
<path d="M531.913 81.1286C531.246 81.1286 530.613 80.9408 530.066 80.5652C529.724 80.3432 529.621 79.8652 529.861 79.5237C529.861 79.5237 529.861 79.5067 529.878 79.4896C530.117 79.1311 530.596 79.0457 530.938 79.2847C531.862 79.7457 532.99 79.575 533.726 78.8238C534.564 77.9018 535.145 76.7921 535.436 75.5971C536.171 73.4801 536.582 71.2606 536.65 69.0241C536.65 68.1876 536.496 65.3706 534.632 64.4487C533.161 63.9365 531.52 64.3633 530.476 65.5243C529.382 66.873 528.561 68.4095 528.082 70.0826C527.928 70.4753 527.466 70.6802 527.073 70.5265C526.663 70.3729 526.457 69.929 526.611 69.5192C527.193 67.6413 528.168 65.8999 529.45 64.3975C530.955 62.7585 533.315 62.2122 535.402 63.0146C538.018 64.2951 538.292 67.6242 538.292 68.99C538.241 71.3972 537.813 73.7874 537.009 76.058C536.633 77.5092 535.881 78.8408 534.837 79.9335C534.034 80.6847 532.99 81.1115 531.896 81.1286H531.913Z" fill="#1F292E"/>
<path d="M582.963 246.493C581.355 246.834 528.715 222.591 528.715 222.591L509.766 261.38L565.177 287.979L582.963 246.493Z" fill="#E23645"/>
<path d="M578.482 166.269C578.482 166.269 573.352 225.682 559.533 243.642C559.533 243.642 549.614 252.656 546.86 249.771C544.107 246.886 542.191 240.466 544.124 238.23C545.903 236.369 547.818 234.645 549.887 233.108C549.887 233.108 546.467 229.25 546.86 228.294C547.254 227.338 552.419 224.128 552.419 224.128L555.839 168.625" fill="white"/>
<path d="M548.331 251.103C547.561 251.137 546.826 250.846 546.296 250.3C543.542 247.415 541.165 240.483 543.525 237.718C545.133 235.993 546.894 234.423 548.759 232.989C546.604 230.53 545.732 228.84 546.159 227.867C546.587 226.894 549.939 224.691 551.666 223.599L555.086 168.506C555.086 168.096 555.446 167.754 555.856 167.772C556.284 167.806 556.609 168.164 556.591 168.591L553.068 224.094C553.051 224.35 552.914 224.572 552.709 224.708C550.811 225.801 549.049 227.099 547.442 228.567C548.228 230.001 549.22 231.315 550.349 232.493C550.503 232.647 550.571 232.869 550.554 233.091C550.537 233.313 550.417 233.501 550.246 233.637C548.228 235.157 546.33 236.83 544.586 238.657C543.081 240.364 544.586 246.305 547.305 249.139C548.827 250.744 555.104 246.408 558.883 242.993C572.291 225.494 577.525 166.713 577.576 166.167C577.644 165.74 578.003 165.45 578.431 165.467C578.858 165.501 579.183 165.877 579.149 166.303C578.927 168.745 573.813 226.142 560.029 244.086C558.609 245.52 552.247 251.103 548.331 251.103Z" fill="#1F292E"/>
<path d="M552.418 103.442C552.418 103.442 566.1 112.935 570.513 121.898C574.925 130.861 582.963 173.815 582.963 173.815H550.332L552.418 103.442Z" fill="#E23645"/>
<path d="M575.25 174.566H550.332C549.939 174.566 549.614 174.259 549.58 173.866L545.646 123.161C545.612 122.751 545.903 122.393 546.313 122.359C546.313 122.359 546.33 122.359 546.347 122.359C546.758 122.325 547.117 122.615 547.151 123.025C547.151 123.025 547.151 123.025 547.151 123.042L551.033 173.064H575.284C575.695 173.064 576.037 173.388 576.054 173.798C576.054 173.798 576.054 173.798 576.054 173.815C576.054 174.242 575.695 174.584 575.267 174.566C575.267 174.566 575.267 174.566 575.25 174.566Z" fill="#1F292E"/>
<path d="M515.871 379.044C516.042 375.817 516.042 372.573 515.871 369.347C515.871 369.347 493.194 370.9 493.997 368.971C493.775 366.82 493.382 364.703 492.8 362.62C492.8 362.62 478.588 367.742 474.74 371.156C470.892 374.571 469.439 376.551 471.046 378.139C472.654 379.727 515.871 379.044 515.871 379.044Z" fill="#1F292E"/>
<path d="M496.717 379.949C484.249 379.949 471.593 379.693 470.55 378.651C469.986 378.139 469.678 377.405 469.695 376.654C469.695 374.946 471.405 373.239 474.278 370.559C478.195 367.042 491.996 362.108 492.578 361.903C492.766 361.818 493.005 361.818 493.194 361.903C493.382 362.006 493.518 362.176 493.57 362.381C494.203 364.464 494.613 366.598 494.818 368.749C496.682 369.398 506.79 369.159 515.854 368.544C516.059 368.527 516.264 368.595 516.418 368.732C516.572 368.869 516.658 369.056 516.658 369.261C516.948 378.976 516.658 379.249 516.418 379.505C516.264 379.641 516.076 379.727 515.871 379.744C511.082 379.863 503.934 379.949 496.717 379.949ZM492.304 363.61C489.294 364.72 478.469 368.817 475.288 371.686C473.184 373.581 471.234 375.493 471.2 376.688C471.2 377.029 471.337 377.354 471.611 377.576C473.458 378.549 499.077 378.549 515.238 378.293V370.149C505.747 370.781 494.613 371.173 493.518 369.654C493.313 369.364 493.279 369.005 493.416 368.681C493.142 366.974 492.766 365.283 492.304 363.61Z" fill="#1F292E"/>
<g clip-path="url(#clip1_1_254)">
<path d="M290.007 106.348L324.707 71.6481C329.867 66.4876 338.409 66.4876 343.569 71.6481L378.269 106.348C383.43 111.508 383.43 120.05 378.269 125.21L343.569 159.91C338.409 165.071 329.867 165.071 324.707 159.91L290.007 125.21C284.846 119.872 284.846 111.508 290.007 106.348Z" fill="#E23645"/>
<path d="M335.028 133.396C330.045 133.396 325.241 131.972 320.97 129.303C319.724 128.414 319.012 127.168 319.012 125.744V114.889L309.047 109.551L335.028 95.4931L360.83 109.373L350.865 114.711V125.566C350.865 126.99 350.153 128.413 348.908 129.125C344.815 131.972 339.832 133.396 335.028 133.396ZM322.037 116.669V125.744C322.037 126.1 322.215 126.634 322.571 126.812C330.045 131.617 339.832 131.617 347.306 126.812C347.662 126.634 347.84 126.1 347.84 125.744V116.847L334.85 123.787L322.037 116.669ZM315.453 109.373L335.028 120.05L354.602 109.373L335.028 98.6962L315.453 109.373Z" fill="white"/>
</g>
</g>
<defs>
<clipPath id="clip0_1_254">
<rect width="591.839" height="380" fill="white"/>
</clipPath>
<clipPath id="clip1_1_254">
<rect width="96.0919" height="96.092" fill="white" transform="translate(286.092 67.7012)"/>
</clipPath>
</defs>
</svg>
