<svg width="613" height="380" viewBox="0 0 613 380" fill="none" xmlns="http://www.w3.org/2000/svg">
<g clip-path="url(#clip0_1_140)">
<path d="M481.203 335.521C478.033 332.678 474.455 330.332 470.577 328.591C470.258 339.928 474.845 350.377 479.077 357.521H492.873" fill="white"/>
<path d="M492.926 358.427H479.131C478.812 358.427 478.511 358.267 478.351 357.983C474.225 351.034 469.391 340.212 469.709 328.573C469.709 328.271 469.869 327.986 470.135 327.826C470.382 327.666 470.684 327.631 470.967 327.738C474.934 329.532 478.582 331.931 481.805 334.846C482.212 335.148 482.318 335.716 482.017 336.143C481.716 336.552 481.149 336.658 480.724 336.356C480.671 336.321 480.618 336.267 480.583 336.232C477.856 333.797 474.81 331.718 471.533 330.065C471.533 340.568 475.89 350.181 479.662 356.721H492.926C493.422 356.579 493.917 356.863 494.059 357.361C494.201 357.858 493.918 358.356 493.422 358.498C493.262 358.551 493.085 358.551 492.908 358.498V358.445L492.926 358.427Z" fill="#1F292E"/>
<path d="M500.948 338.56C497.566 320.789 483.717 309.665 483.717 309.665C481.132 318.017 480.264 326.814 481.203 335.521C481.929 343.002 483.522 350.395 485.966 357.503H500.789" fill="white"/>
<path d="M500.788 358.427H485.966C485.577 358.427 485.222 358.178 485.098 357.805C482.619 350.626 481.008 343.162 480.282 335.592C479.343 326.778 480.211 317.857 482.849 309.381C482.938 309.097 483.168 308.883 483.452 308.794C483.735 308.706 484.054 308.777 484.284 308.954C484.868 309.416 498.451 320.523 501.851 338.382C501.94 338.88 501.621 339.359 501.125 339.466C500.629 339.555 500.169 339.235 500.062 338.755C497.3 324.343 487.401 314.268 484.124 311.3C481.911 319.137 481.22 327.347 482.07 335.45C482.761 342.665 484.266 349.755 486.586 356.614H500.753C501.249 356.472 501.745 356.756 501.886 357.254C502.028 357.752 501.745 358.249 501.249 358.391C501.089 358.445 500.912 358.445 500.735 358.391L500.771 358.445L500.788 358.427Z" fill="#1F292E"/>
<path d="M508.315 357.503H495.193C495.051 353.593 495.936 347.694 500.151 340.035L501.001 338.542C508.598 325.623 515.558 325.765 515.558 325.765C518.462 339.377 512.246 351.514 508.315 357.503Z" fill="white"/>
<path d="M508.315 358.427H495.193C494.697 358.427 494.307 358.054 494.272 357.556C494.148 353.807 494.927 347.64 499.354 339.608L500.204 338.098C507.996 324.859 515.257 324.859 515.575 324.859C516 324.859 516.372 325.179 516.461 325.587C519.471 339.537 513.132 351.887 509.076 358.018C508.899 358.267 508.616 358.427 508.315 358.427ZM496.096 356.65H507.819C511.626 350.768 517.24 339.501 514.902 326.849C513.025 327.258 507.66 329.23 501.851 339.093C501.585 339.555 501.302 340.035 501.019 340.55C498.061 345.401 496.361 350.91 496.06 356.597L496.096 356.65Z" fill="#1F292E"/>
<path d="M505.889 378.418H480.14L475.996 357.521H510.033L505.889 378.418Z" fill="#1F292E"/>
<path d="M317.041 347.018C316.563 347.018 316.174 346.61 316.156 346.13V1.77703C316.156 1.27946 316.546 0.888512 317.041 0.888512C317.537 0.888512 317.927 1.27946 317.927 1.77703V346.13C317.927 346.627 317.537 347.018 317.041 347.018Z" fill="#C8CDD0"/>
<path d="M286.299 379.111C286.069 379.111 285.839 379.023 285.679 378.845C285.343 378.507 285.325 377.956 285.679 377.619L316.581 345.632C316.935 345.295 317.502 345.295 317.856 345.632L348.758 377.619C349.077 377.992 349.024 378.561 348.634 378.863C348.298 379.147 347.802 379.129 347.483 378.845L317.201 347.48L286.936 378.845C286.777 379.023 286.547 379.129 286.299 379.129V379.111Z" fill="#C8CDD0"/>
<path d="M317.041 347.018C316.563 347.018 316.174 346.61 316.156 346.13V1.77703C316.156 1.27946 316.546 0.888512 317.041 0.888512C317.537 0.888512 317.927 1.27946 317.927 1.77703V346.13C317.927 346.627 317.537 347.018 317.041 347.018Z" stroke="#1F292E" stroke-linecap="round" stroke-linejoin="round"/>
<path d="M286.299 379.111C286.069 379.111 285.839 379.023 285.679 378.845C285.343 378.507 285.325 377.956 285.679 377.619L316.581 345.632C316.935 345.295 317.502 345.295 317.856 345.632L348.758 377.619C349.077 377.992 349.024 378.561 348.634 378.863C348.298 379.147 347.802 379.129 347.483 378.845L317.201 347.48L286.936 378.845C286.777 379.023 286.547 379.129 286.299 379.129V379.111Z" stroke="#1F292E" stroke-linecap="round" stroke-linejoin="round"/>
<path d="M450.814 9.1517H183.588V207.344H450.814V9.1517Z" fill="white"/>
<path d="M450.814 208.232H183.588C183.092 208.232 182.684 207.824 182.684 207.326V9.20501C182.684 8.70744 183.074 8.29872 183.57 8.28095C183.57 8.28095 183.57 8.28095 183.588 8.28095H450.814C451.31 8.24541 451.753 8.61859 451.788 9.11616C451.788 9.1517 451.788 9.16947 451.788 9.20501V207.344C451.788 207.841 451.363 208.25 450.867 208.232C450.85 208.232 450.832 208.232 450.814 208.232ZM184.508 206.455H449.893V10.058H184.508V206.455Z" fill="#1F292E"/>
<path d="M272.645 140.918H209.177C208.681 140.918 208.291 140.528 208.291 140.03C208.291 139.532 208.681 139.141 209.177 139.141H272.663C273.159 139.141 273.549 139.532 273.549 140.03C273.549 140.528 273.159 140.918 272.663 140.918C272.663 140.918 272.663 140.918 272.645 140.918Z" fill="#C8CDD0"/>
<path d="M272.645 155.579H209.177C208.681 155.579 208.291 155.188 208.291 154.69C208.291 154.193 208.681 153.802 209.177 153.802H272.663C273.159 153.802 273.549 154.193 273.549 154.69C273.549 155.188 273.159 155.579 272.663 155.579C272.663 155.579 272.663 155.579 272.645 155.579Z" fill="#C8CDD0"/>
<path d="M272.645 170.222H209.177C208.681 170.222 208.291 169.831 208.291 169.333C208.291 168.836 208.681 168.445 209.177 168.445H272.663C273.159 168.445 273.549 168.836 273.549 169.333C273.549 169.831 273.159 170.222 272.663 170.222H272.645Z" fill="#C8CDD0"/>
<path d="M257.327 184.882H209.177C208.681 184.882 208.291 184.491 208.291 183.994C208.291 183.496 208.681 183.105 209.177 183.105H257.345C257.841 183.105 258.23 183.496 258.23 183.994C258.23 184.491 257.841 184.882 257.345 184.882C257.345 184.882 257.345 184.882 257.327 184.882Z" fill="#C8CDD0"/>
<path d="M275.674 82.3653H211.196C210.7 82.3653 210.31 81.9744 210.31 81.4768V32.3952C210.31 31.8977 210.7 31.5067 211.196 31.5067H275.674C276.169 31.5067 276.559 31.8977 276.559 32.3952V81.4768C276.559 81.9566 276.152 82.3475 275.674 82.3653ZM212.081 80.5883H274.788V33.2838H212.081V80.5883Z" fill="#C8CDD0"/>
<path d="M611.947 379.893H0.885442C0.389595 379.893 0 379.502 0 379.005C0 378.507 0.389595 378.116 0.885442 378.116H611.947C612.443 378.116 612.832 378.507 612.832 379.005C612.832 379.502 612.443 379.893 611.947 379.893Z" fill="#1F292E"/>
<path d="M98.5497 53.2398C97.4695 49.277 96.6549 45.2609 96.0882 41.1915C95.5392 37.0688 96.4424 32.875 98.6206 29.321C99.4883 27.8994 100.816 26.8154 102.393 26.2467C104.004 25.7136 105.775 26.229 106.837 27.544C107.989 25.9624 109.547 24.7362 111.336 23.9899C115.426 21.9285 120.013 21.0578 124.564 21.4487C129.133 21.8752 133.383 24.0432 136.411 27.5084C137.509 29.0544 138.696 30.5294 139.953 31.9332C142.326 34.1723 145.638 35.0963 148.807 34.4033C147.78 40.4985 144.309 45.9184 139.209 49.3836C134.127 52.7955 128.407 55.1057 122.386 56.1719C119.269 56.9538 116.028 57.1848 112.823 56.8649C109.6 56.5273 106.643 54.8924 104.624 52.3335" fill="white"/>
<path d="M115.391 57.9489C114.488 57.9489 113.585 57.8956 112.681 57.7712C109.193 57.4158 105.987 55.6388 103.827 52.8666C103.526 52.4579 103.615 51.907 104.004 51.6049C104.411 51.3206 104.978 51.4095 105.279 51.8182C107.156 54.1639 109.901 55.6566 112.876 55.9764C115.975 56.2785 119.092 56.0475 122.12 55.3012C128 54.2705 133.613 52.0136 138.572 48.6728C143.088 45.563 146.311 40.8717 147.603 35.5228C144.522 35.8071 141.476 34.7587 139.227 32.6263C138.377 31.7555 137.598 30.8137 136.907 29.8008C136.5 29.2321 136.093 28.6635 135.632 28.1304C132.763 24.8251 128.743 22.7637 124.405 22.3728C120.013 21.9996 115.621 22.8526 111.672 24.8251C110.043 25.5004 108.626 26.5844 107.546 27.9882C107.386 28.237 107.103 28.3969 106.802 28.3969C106.501 28.3969 106.218 28.2548 106.041 28.006C105.226 27.0108 103.88 26.6021 102.658 26.9931C101.295 27.5084 100.126 28.4502 99.3644 29.6942C97.3279 33.0883 96.4955 37.0511 96.9914 40.9783C97.3633 43.9815 97.9654 46.9491 98.7623 49.8634C99.0279 50.9297 99.2758 51.9781 99.506 53.0443C99.63 53.5241 99.329 54.0217 98.8508 54.1461C98.8508 54.1461 98.8331 54.1461 98.8154 54.1461C98.3196 54.2349 97.8414 53.9151 97.7352 53.4353C97.5049 52.3868 97.2393 51.3384 96.9914 50.2899C96.1768 47.3045 95.5747 44.2658 95.2205 41.1915C94.6715 36.8734 95.5924 32.5019 97.8414 28.7701C98.8331 27.1885 100.338 25.9802 102.109 25.3582C103.685 24.8429 105.421 25.145 106.749 26.1401C107.935 24.8962 109.352 23.901 110.928 23.2258C115.161 21.0933 119.907 20.1871 124.635 20.6135C129.434 21.0756 133.861 23.3502 137.031 26.9931C137.509 27.5795 137.952 28.1837 138.395 28.7701C139.014 29.6764 139.705 30.5471 140.484 31.329C142.627 33.3548 145.638 34.1723 148.506 33.5503C148.807 33.497 149.109 33.5859 149.321 33.7813C149.534 33.9768 149.64 34.2789 149.604 34.5632C148.542 40.8717 144.982 46.4871 139.705 50.0945C134.534 53.5952 128.673 55.9764 122.528 57.0426C120.172 57.5935 117.782 57.8956 115.373 57.9667L115.391 57.9489Z" fill="#1F292E"/>
<path d="M127.61 71.5787L128.796 86.2748C128.796 86.2748 124.44 95.4087 114.966 93.2052C109.299 91.8191 104.571 87.963 102.038 82.6852L101.897 55.9053C101.897 55.9053 108.874 52.0847 106.678 36.8378C114.435 40.1075 122.935 41.2093 131.276 40.0365C131.276 40.0365 135.721 56.5628 134.658 63.9197C133.596 71.2766 127.61 71.5787 127.61 71.5787Z" fill="white"/>
<path d="M117.835 94.5024C116.79 94.5024 115.763 94.378 114.753 94.147C108.803 92.7076 103.809 88.656 101.188 83.0939C101.188 82.9873 101.188 82.8629 101.188 82.7563L101.047 55.9764C101.047 55.6388 101.224 55.3189 101.525 55.159C101.525 55.159 107.918 51.3561 105.846 37.0155C105.793 36.6779 105.934 36.3402 106.2 36.1448C106.466 35.9493 106.837 35.9138 107.139 36.0559C114.753 39.219 123.059 40.303 131.223 39.1835C131.683 39.1124 132.126 39.3967 132.232 39.841C132.427 40.534 136.712 56.6517 135.632 64.1152C135.366 68.1135 132.533 71.4721 128.655 72.3962L129.77 86.257C129.824 86.3992 129.824 86.5769 129.77 86.719C129.77 86.719 125.804 94.5024 117.835 94.5024ZM102.942 82.543C105.385 87.4654 109.866 91.0372 115.178 92.3522C123.13 94.1292 127.167 87.4832 127.858 86.1504L126.689 71.7031C126.689 71.4543 126.76 71.2056 126.919 71.0101C127.079 70.8324 127.309 70.7258 127.557 70.708C127.769 70.708 132.869 70.3348 133.755 63.8487C134.658 57.6468 131.453 44.4257 130.603 41.1027C122.882 42.009 115.054 41.0494 107.776 38.295C109.122 50.6276 104.394 55.2301 102.818 56.4029L102.942 82.543Z" fill="#1F292E"/>
<path d="M127.858 78.8823C124.334 79.3266 120.774 78.1893 118.136 75.8081C113.939 71.8098 114.275 69.4818 114.275 69.4818C114.275 69.4818 121.04 73.0359 127.22 71.8098L127.858 78.8823Z" fill="#1F292E"/>
<path d="M126.406 79.8597C123.13 79.8952 119.96 78.6869 117.551 76.4478C113.142 72.2718 113.39 69.6418 113.425 69.3397C113.461 69.0554 113.638 68.7888 113.903 68.6644C114.151 68.54 114.47 68.54 114.718 68.6644C114.718 68.6644 121.27 72.2185 127.114 70.9035C127.362 70.8502 127.628 70.9035 127.822 71.0634C128.017 71.2233 128.141 71.4366 128.177 71.6854L128.814 78.7935C128.85 79.2555 128.531 79.6642 128.07 79.7353C127.521 79.8242 126.955 79.8597 126.406 79.8597ZM115.568 71.0456C116.365 72.6094 117.445 74.0133 118.773 75.1683C121.005 77.1764 123.927 78.2248 126.919 78.0827L126.441 72.7516C122.74 73.107 118.986 72.5206 115.568 71.0456Z" fill="#1F292E"/>
<path d="M121.005 49.2237C121.005 49.2237 125.503 57.5225 124.139 58.7664C122.775 60.0103 119.393 58.7664 119.393 58.7664" fill="white"/>
<path d="M122.244 60.2058C121.182 60.1702 120.119 59.9747 119.11 59.6193C118.649 59.4594 118.401 58.9618 118.543 58.4998C118.702 58.0378 119.198 57.789 119.659 57.9312C119.659 57.9312 119.694 57.9312 119.712 57.9312C120.881 58.3399 122.899 58.6953 123.572 58.0911C123.82 57.398 122.297 53.4175 120.243 49.6324C120.013 49.2059 120.172 48.6551 120.597 48.424C121.022 48.193 121.571 48.353 121.801 48.7795C123.997 52.8489 126.3 57.9845 124.759 59.4416C124.033 59.9925 123.147 60.2591 122.244 60.188V60.2058Z" fill="#1F292E"/>
<path d="M120.881 65.7501H120.314C117.534 65.5369 114.966 64.1685 113.23 61.965C112.894 61.6096 112.894 61.0587 113.23 60.7033C113.585 60.3657 114.134 60.3657 114.488 60.7033C115.887 62.5159 117.959 63.6532 120.225 63.8842C122.829 63.8487 125.343 62.8891 127.309 61.1831C127.663 60.8455 128.212 60.8455 128.566 61.1831C128.92 61.5208 128.92 62.0894 128.566 62.4448C126.441 64.364 123.732 65.5191 120.881 65.7501Z" fill="#1F292E"/>
<path d="M116.134 47.873C116.211 46.6978 115.862 45.7179 115.355 45.6842C114.847 45.6506 114.373 46.576 114.296 47.7511C114.219 48.9263 114.567 49.9062 115.075 49.9398C115.582 49.9735 116.056 49.0481 116.134 47.873Z" fill="#1F292E"/>
<path d="M128.761 47.8638C128.839 46.6887 128.49 45.7088 127.983 45.6751C127.475 45.6415 127.001 46.5669 126.924 47.742C126.846 48.9172 127.195 49.8971 127.702 49.9307C128.21 49.9644 128.684 49.039 128.761 47.8638Z" fill="#1F292E"/>
<path d="M107.971 51.9781C107.139 50.5565 106.023 49.2948 104.712 48.2997C104.039 47.6955 103.189 47.3223 102.286 47.2334C101.543 47.2334 100.834 47.4467 100.214 47.8554C98.3195 48.9572 96.9914 50.823 96.5664 52.9732C96.3539 53.9684 96.3893 54.9813 96.6726 55.9587C97.2039 57.4514 98.2487 58.7131 99.63 59.5127C100.994 60.3124 102.428 60.9343 103.933 61.3964" fill="white"/>
<path d="M103.933 62.2671C103.827 62.2671 103.738 62.2671 103.632 62.2671C102.056 61.7873 100.551 61.1298 99.1342 60.2946C97.5758 59.3706 96.407 57.9312 95.8049 56.2252C95.4684 55.1235 95.4153 53.9506 95.6632 52.8133C96.1414 50.3966 97.6289 48.2997 99.754 47.0557C100.515 46.5582 101.419 46.3094 102.322 46.3094C103.42 46.416 104.447 46.8603 105.279 47.5711C106.714 48.6551 107.9 50.0056 108.821 51.5516C109.069 51.9959 108.927 52.5645 108.484 52.8133C108.059 53.0621 107.493 52.9199 107.245 52.4935C106.448 51.1607 105.421 50.0056 104.217 49.046C103.685 48.5662 103.012 48.2464 102.304 48.1575C101.737 48.1575 101.188 48.3352 100.728 48.6551C99.0633 49.6324 97.8946 51.2673 97.505 53.1687C97.2925 54.0039 97.2925 54.8747 97.505 55.7099C97.9831 56.9893 98.8862 58.0733 100.073 58.7664C101.383 59.5127 102.764 60.1169 104.199 60.5434C104.677 60.7033 104.925 61.2364 104.766 61.7162C104.624 62.0539 104.305 62.2849 103.933 62.2849V62.2671Z" fill="#1F292E"/>
<path d="M51.8161 359.902C51.8161 359.902 46.167 375.415 48.6639 376.908C51.1609 378.401 88.4557 379.04 101.419 376.908C105.598 376.215 81.7441 360.915 81.7441 360.915" fill="white"/>
<path d="M73.6511 379.2C61.2549 379.2 49.7796 378.632 48.1858 377.672C45.4763 376.037 48.7702 365.642 50.9661 359.6C51.1432 359.138 51.639 358.907 52.0995 359.067C52.5599 359.226 52.7901 359.742 52.6307 360.204C49.8504 367.845 48.2035 375.291 49.0889 376.197C51.3203 377.388 86.6671 378.312 100.781 376.197C99.1873 373.976 89.961 367.312 81.3013 361.714C80.894 361.466 80.7701 360.932 81.018 360.524C81.018 360.524 81.018 360.506 81.0357 360.488C81.3013 360.079 81.8503 359.955 82.2576 360.222C91.9089 366.441 103.313 374.349 102.818 376.837C102.676 377.405 102.18 377.832 101.596 377.868C92.3162 378.934 82.9837 379.378 73.6511 379.2Z" fill="#1F292E"/>
<path d="M137.97 352.687L138.643 377.708C138.643 377.708 189.821 380.267 187.165 376.926C184.509 373.585 160.602 355.903 160.602 355.903L157.308 337.955L137.97 352.687Z" fill="white"/>
<path d="M170.164 379.556C160.07 379.556 147.727 379.04 138.589 378.596C138.129 378.561 137.757 378.187 137.757 377.725L137.084 352.705C137.084 352.42 137.208 352.154 137.438 351.976L156.759 337.191C157.148 336.889 157.697 336.96 157.998 337.334C158.087 337.44 158.14 337.582 158.175 337.724L161.434 355.388C164.267 357.485 185.288 373.158 187.855 376.375C188.174 376.748 188.245 377.281 188.015 377.708C187.307 379.094 179.763 379.556 170.164 379.556ZM139.493 376.855C159.822 377.85 181.994 378.187 186.031 376.979C182.72 373.62 167.88 362.39 160.106 356.614C159.929 356.49 159.787 356.294 159.752 356.063L156.688 339.466L138.873 353.114L139.493 376.855Z" fill="#1F292E"/>
<path d="M143.672 179.053L165.95 359.28L136.695 359.937L103.455 234.284L85.0379 360.897L51.1432 359.28C51.1432 359.28 57.0402 288.554 60.1216 261.543C63.2029 234.532 67.9489 188.099 67.9489 188.099L143.672 179.053Z" fill="#1F292E"/>
<path d="M102.959 231.689C102.747 231.689 102.552 231.618 102.393 231.476C101.95 231.103 91.6079 222.271 91.5547 208.374C91.5547 207.877 91.9443 207.486 92.4402 207.486C92.9183 207.486 93.3079 207.895 93.3256 208.374C93.3256 221.471 103.437 230.09 103.526 230.179C103.898 230.481 103.951 231.032 103.65 231.405C103.65 231.405 103.65 231.405 103.65 231.423C103.473 231.6 103.225 231.707 102.977 231.689H102.959Z" fill="white"/>
<path d="M226.053 117.355L258.974 40.6407L261.294 41.2982L230.941 119.861L226.053 117.355Z" fill="#1F292E"/>
<path d="M207.654 120.749C211.373 119.043 214.985 117.071 218.439 114.867C223.751 111.313 226.231 105.982 229.542 100.473C229.825 99.9224 230.233 99.4603 230.764 99.1405C231.72 98.7851 232.783 99.1405 233.367 99.9579C233.916 100.793 234.27 101.735 234.412 102.712C236.413 100.491 238.822 98.6784 241.496 97.3812C241.797 97.2035 242.151 97.0969 242.505 97.0969C242.948 97.168 243.355 97.3812 243.656 97.7011C246.631 100.402 248.154 104.365 247.747 108.363C246.436 119.647 228.922 130.274 219.909 134.77" fill="white"/>
<path d="M219.855 135.694C219.519 135.694 219.2 135.499 219.058 135.196C218.846 134.752 219.005 134.219 219.448 134.006C223.769 131.856 245.409 120.518 246.808 108.292C247.216 104.578 245.834 100.882 243.072 98.3586C242.948 98.3586 242.647 97.9854 242.452 97.9854C242.257 98.0209 242.062 98.092 241.885 98.1809C239.317 99.4426 237.015 101.184 235.103 103.316C234.749 103.672 234.182 103.69 233.828 103.334C233.704 103.21 233.615 103.068 233.58 102.908C233.473 102.055 233.172 101.237 232.712 100.509C232.376 100.011 231.773 99.7802 231.189 99.9401C230.817 100.189 230.534 100.544 230.339 100.953C229.737 101.913 229.188 102.872 228.568 103.814C225.947 108.292 223.486 112.522 218.917 115.596C215.428 117.835 211.78 119.807 208.026 121.549C207.583 121.762 207.052 121.567 206.839 121.14C206.627 120.714 206.804 120.181 207.229 119.967C210.895 118.279 214.454 116.324 217.854 114.139C222.087 111.295 224.46 107.226 226.974 102.943L228.745 100.029C229.117 99.336 229.666 98.7495 230.339 98.3586C231.667 97.8255 233.19 98.2697 234.04 99.4248C234.394 99.8868 234.66 100.42 234.837 100.971C236.661 99.1938 238.751 97.7189 241.035 96.5993C241.478 96.3328 241.991 96.2084 242.505 96.2262C243.143 96.315 243.727 96.5993 244.17 97.0436C247.375 99.9401 249.004 104.205 248.544 108.523C247.074 121.318 226.496 132.495 220.21 135.623C220.086 135.676 219.962 135.712 219.838 135.712L219.855 135.694Z" fill="#1F292E"/>
<path d="M213.764 110.354C213.764 110.354 179.214 129.599 173.21 124.783C160.566 114.672 140.307 89.2424 133.914 82.8274C124.334 73.1603 93.184 68.0602 80.4867 81.9033C80.4867 81.9033 69.6489 93.1874 59.2361 116.022C51.0369 133.935 45.5295 160.448 47.2826 162.723C49.4608 165.459 58.6694 173.385 67.2405 170.684C65.7175 189.485 66.2842 192.79 66.2842 192.79C89.3057 211.093 149.657 191.866 149.657 191.866L142.981 139.675C142.981 139.675 145.673 153.891 167.933 158.511C190.193 163.131 230.994 133.366 230.994 133.366L213.764 110.354Z" fill="#0FAAC8"/>
<path d="M143.672 142.589C143.424 142.589 143.211 142.5 143.034 142.322C136.394 135.445 130.142 128.213 124.298 120.66C123.997 120.269 124.086 119.718 124.476 119.416C124.865 119.15 125.414 119.221 125.715 119.594C131.506 127.093 137.722 134.272 144.309 141.078C144.664 141.416 144.664 141.985 144.309 142.34C144.132 142.5 143.902 142.589 143.672 142.589Z" fill="#1F292E"/>
<path d="M66.8686 176.903C66.3905 176.903 66.0009 176.512 65.9832 176.033C65.9832 175.588 64.7967 130.256 80.3451 84.6755C80.5045 84.2134 81.0003 83.9646 81.4607 84.1246C81.9212 84.2845 82.1868 84.7998 82.0274 85.2619C66.5853 130.523 67.7541 175.535 67.7541 175.979C67.7718 176.477 67.3999 176.886 66.9041 176.903H66.8686Z" fill="#1F292E"/>
<g clip-path="url(#clip1_1_140)">
<path d="M311.452 98.1765L346.352 63.2761C351.543 58.0857 360.134 58.0857 365.324 63.2761L400.224 98.1765C405.415 103.367 405.415 111.958 400.224 117.148L365.324 152.048C360.134 157.239 351.543 157.239 346.352 152.048L311.452 117.148C306.262 111.779 306.262 103.367 311.452 98.1765Z" fill="#0FAAC8"/>
<path d="M356.733 125.381C351.722 125.381 346.889 123.949 342.594 121.264C341.341 120.37 340.625 119.117 340.625 117.685V106.767L330.602 101.398L356.733 87.2589L382.685 101.219L372.662 106.588V117.506C372.662 118.938 371.946 120.37 370.693 121.086C366.577 123.949 361.565 125.381 356.733 125.381ZM343.668 108.557V117.685C343.668 118.043 343.847 118.58 344.205 118.759C351.722 123.591 361.565 123.591 369.082 118.759C369.44 118.58 369.619 118.043 369.619 117.685V108.736L356.554 115.716L343.668 108.557ZM337.046 101.219L356.733 111.958L376.421 101.219L356.733 90.4805L337.046 101.219Z" fill="white"/>
</g>
</g>
<defs>
<clipPath id="clip0_1_140">
<rect width="612.832" height="380" fill="white"/>
</clipPath>
<clipPath id="clip1_1_140">
<rect width="96.6474" height="96.6474" fill="white" transform="translate(307.514 59.3064)"/>
</clipPath>
</defs>
</svg>
