<?xml version="1.0" encoding="utf-8"?>
<!-- Generator: Adobe Illustrator 27.9.0, SVG Export Plug-In . SVG Version: 6.00 Build 0)  -->
<svg version="1.1" id="Calque_1" xmlns="http://www.w3.org/2000/svg" xmlns:xlink="http://www.w3.org/1999/xlink" x="0px" y="0px"
	 viewBox="0 0 400 300" style="enable-background:new 0 0 400 300;" xml:space="preserve">
<style type="text/css">
	.st0{fill:#D1D3D4;}
	.st1{fill:none;stroke:#231F20;stroke-linecap:round;stroke-linejoin:round;}
	.st2{fill:#FFFFFF;}
	.st3{fill:#231F20;}
	.st4{fill:#0FAAC8;}
	.st5{clip-path:url(#SVGID_00000151543947992751736690000003222477148198634386_);}
	.st6{fill:#1D63ED;}
	.st7{display:none;}
	.st8{display:inline;}
	.st9{display:inline;fill:#FFFFFF;}
	.st10{display:inline;fill:#231F20;}
	.st11{display:inline;fill:#0FAAC8;}
</style>
<g>
	<g>
		<path class="st0" d="M206,238.1c-0.3,0-0.5-0.2-0.5-0.5V43.8c0-0.3,0.2-0.5,0.5-0.5s0.5,0.2,0.5,0.5v193.8
			C206.5,237.9,206.3,238.1,206,238.1z"/>
		<path class="st0" d="M188.6,256.2c-0.1,0-0.3-0.1-0.4-0.1c-0.2-0.2-0.2-0.5,0-0.7c0,0,0,0,0,0l17.4-18c0.2-0.2,0.5-0.2,0.7,0
			l17.4,18c0.2,0.2,0.1,0.5-0.1,0.7c-0.2,0.2-0.5,0.2-0.7,0l-17.1-17.6L189,256C188.9,256.1,188.8,256.2,188.6,256.2z"/>
		<path class="st1" d="M206,238.1c-0.3,0-0.5-0.2-0.5-0.5V43.8c0-0.3,0.2-0.5,0.5-0.5s0.5,0.2,0.5,0.5v193.8
			C206.5,237.9,206.3,238.1,206,238.1z"/>
		<path class="st1" d="M188.6,256.2c-0.1,0-0.3-0.1-0.4-0.1c-0.2-0.2-0.2-0.5,0-0.7c0,0,0,0,0,0l17.4-18c0.2-0.2,0.5-0.2,0.7,0
			l17.4,18c0.2,0.2,0.1,0.5-0.1,0.7c-0.2,0.2-0.5,0.2-0.7,0l-17.1-17.6L189,256C188.9,256.1,188.8,256.2,188.6,256.2z"/>
		<rect x="130.6" y="48" class="st2" width="150.9" height="111.5"/>
		<path class="st3" d="M281.5,160H130.6c-0.3,0-0.5-0.2-0.5-0.5V48c0-0.3,0.2-0.5,0.5-0.5c0,0,0,0,0,0h150.9c0.3,0,0.5,0.2,0.5,0.5
			c0,0,0,0,0,0.1v111.5C282.1,159.8,281.9,160,281.5,160C281.6,160,281.6,160,281.5,160z M131.2,159H281V48.5H131.2V159z"/>
	</g>
	<path class="st0" d="M180.9,122.1h-35.8c-0.3,0-0.5-0.2-0.5-0.5s0.2-0.5,0.5-0.5h35.9c0.3,0,0.5,0.2,0.5,0.5
		C181.4,121.9,181.2,122.1,180.9,122.1C180.9,122.1,180.9,122.1,180.9,122.1z"/>
	<path class="st0" d="M180.9,130.4h-35.8c-0.3,0-0.5-0.2-0.5-0.5s0.2-0.5,0.5-0.5h35.9c0.3,0,0.5,0.2,0.5,0.5
		C181.4,130.1,181.2,130.4,180.9,130.4C180.9,130.4,180.9,130.4,180.9,130.4z"/>
	<path class="st0" d="M180.9,138.6h-35.8c-0.3,0-0.5-0.2-0.5-0.5s0.2-0.5,0.5-0.5h35.9c0.3,0,0.5,0.2,0.5,0.5
		S181.2,138.6,180.9,138.6L180.9,138.6z"/>
	<path class="st0" d="M172.3,146.9h-27.2c-0.3,0-0.5-0.2-0.5-0.5s0.2-0.5,0.5-0.5h27.2c0.3,0,0.5,0.2,0.5,0.5
		C172.8,146.6,172.6,146.9,172.3,146.9C172.3,146.9,172.3,146.9,172.3,146.9z"/>
	<path class="st0" d="M182.6,89.2h-36.4c-0.3,0-0.5-0.2-0.5-0.5V61c0-0.3,0.2-0.5,0.5-0.5h36.4c0.3,0,0.5,0.2,0.5,0.5v27.6
		C183.1,88.9,182.9,89.2,182.6,89.2z M146.7,88.2h35.4V61.5h-35.4V88.2z"/>
</g>
<path class="st3" d="M372.5,256.6H27.5c-0.3,0-0.5-0.2-0.5-0.5s0.2-0.5,0.5-0.5h345.1c0.3,0,0.5,0.2,0.5,0.5
	S372.8,256.6,372.5,256.6z"/>
<g>
	<path class="st2" d="M82.6,72.8c-0.6-2.2-1.1-4.5-1.4-6.8c-0.3-2.3,0.2-4.7,1.4-6.7c0.5-0.8,1.2-1.4,2.1-1.7c0.9-0.3,1.9,0,2.5,0.7
		c0.6-0.9,1.5-1.6,2.5-2c2.3-1.2,4.9-1.7,7.5-1.4c2.6,0.2,5,1.5,6.7,3.4c0.6,0.9,1.3,1.7,2,2.5c1.3,1.3,3.2,1.8,5,1.4
		c-0.6,3.4-2.5,6.5-5.4,8.4c-2.9,1.9-6.1,3.2-9.5,3.8c-1.8,0.4-3.6,0.6-5.4,0.4c-1.8-0.2-3.5-1.1-4.6-2.6"/>
	<path class="st3" d="M92.1,75.4c-0.5,0-1,0-1.5-0.1c-2-0.2-3.8-1.2-5-2.8c-0.2-0.2-0.1-0.5,0.1-0.7c0,0,0,0,0,0
		c0.2-0.2,0.6-0.1,0.7,0.1c1.1,1.3,2.6,2.2,4.3,2.3c1.7,0.2,3.5,0,5.2-0.4c3.3-0.6,6.5-1.8,9.3-3.7c2.6-1.8,4.4-4.4,5.1-7.4
		c-1.7,0.2-3.5-0.4-4.7-1.6c-0.5-0.5-0.9-1-1.3-1.6c-0.2-0.3-0.5-0.6-0.7-0.9c-1.6-1.9-3.9-3-6.3-3.2c-2.5-0.2-5,0.3-7.2,1.4
		c-0.9,0.4-1.7,1-2.3,1.8c-0.1,0.1-0.3,0.2-0.4,0.2c-0.2,0-0.3-0.1-0.4-0.2C86.4,58,85.6,57.8,85,58c-0.8,0.3-1.4,0.8-1.9,1.5
		c-1.1,1.9-1.6,4.1-1.3,6.4c0.2,1.7,0.5,3.4,1,5c0.2,0.6,0.3,1.2,0.4,1.8c0.1,0.3-0.1,0.5-0.4,0.6c0,0,0,0,0,0
		c-0.3,0.1-0.5-0.1-0.6-0.4c-0.1-0.6-0.3-1.2-0.4-1.8c-0.5-1.7-0.8-3.4-1-5.1c-0.3-2.4,0.2-4.9,1.5-7c0.6-0.9,1.4-1.6,2.4-1.9
		c0.9-0.3,1.9-0.1,2.6,0.4c0.7-0.7,1.5-1.3,2.4-1.6c2.4-1.2,5.1-1.7,7.7-1.5c2.7,0.3,5.2,1.5,7,3.6c0.3,0.3,0.5,0.7,0.8,1
		c0.4,0.5,0.7,1,1.2,1.4c1.2,1.1,2.9,1.6,4.5,1.2c0.2,0,0.3,0,0.5,0.1c0.1,0.1,0.2,0.3,0.2,0.4c-0.6,3.6-2.6,6.7-5.6,8.7
		c-2.9,2-6.2,3.3-9.7,3.9C94.8,75.2,93.5,75.4,92.1,75.4z"/>
	<path class="st2" d="M99,83.1l0.7,8.3c0,0-2.5,5.1-7.8,3.9c-3.2-0.8-5.9-3-7.3-5.9l-0.1-15.1c0,0,3.9-2.2,2.7-10.7
		c4.4,1.8,9.2,2.5,13.9,1.8c0,0,2.5,9.3,1.9,13.4S99,83.1,99,83.1z"/>
	<path class="st3" d="M93.5,96c-0.6,0-1.2-0.1-1.7-0.2c-3.4-0.8-6.2-3.1-7.7-6.2c0-0.1,0-0.1,0-0.2L84,74.3c0-0.2,0.1-0.4,0.3-0.5
		c0,0,3.6-2.1,2.4-10.2c0-0.2,0-0.4,0.2-0.5c0.2-0.1,0.4-0.1,0.5,0c4.3,1.8,9,2.4,13.6,1.8c0.3,0,0.5,0.1,0.6,0.4
		c0.1,0.4,2.5,9.5,1.9,13.7c-0.1,2.2-1.7,4.1-3.9,4.7l0.6,7.8c0,0.1,0,0.2,0,0.3C100.3,91.6,98,96,93.5,96z M85.1,89.3
		c1.4,2.8,3.9,4.8,6.9,5.5c4.5,1,6.8-2.7,7.2-3.5l-0.7-8.1c0-0.1,0-0.3,0.1-0.4c0.1-0.1,0.2-0.2,0.4-0.2l0,0c0.1,0,3-0.2,3.5-3.9
		c0.5-3.5-1.3-10.9-1.8-12.8c-4.4,0.5-8.8,0-12.9-1.6c0.8,6.9-1.9,9.5-2.8,10.2L85.1,89.3z"/>
	<path class="st3" d="M99.2,87.2c-2,0.2-4-0.4-5.5-1.7c-2.4-2.2-2.2-3.6-2.2-3.6s3.8,2,7.3,1.3L99.2,87.2z"/>
	<path class="st3" d="M98.4,87.8c-1.9,0-3.6-0.7-5-1.9c-2.5-2.3-2.3-3.8-2.3-4c0-0.2,0.1-0.3,0.3-0.4c0.1-0.1,0.3-0.1,0.5,0
		c0,0,3.7,2,7,1.3c0.1,0,0.3,0,0.4,0.1c0.1,0.1,0.2,0.2,0.2,0.3l0.4,4c0,0.3-0.2,0.5-0.4,0.5C99,87.7,98.7,87.8,98.4,87.8z
		 M92.2,82.8c0.4,0.9,1.1,1.7,1.8,2.3c1.3,1.1,2.9,1.7,4.6,1.6l-0.3-3C96.3,84,94.2,83.6,92.2,82.8z"/>
	<path class="st2" d="M95.3,70.5c0,0,2.5,4.7,1.8,5.4s-2.7,0-2.7,0"/>
	<path class="st3" d="M96,76.7c-0.6,0-1.2-0.1-1.8-0.3c-0.3-0.1-0.4-0.4-0.3-0.6c0.1-0.3,0.4-0.4,0.6-0.3c0,0,0,0,0,0
		c0.7,0.2,1.8,0.4,2.2,0.1c0.1-0.4-0.7-2.6-1.9-4.8c-0.1-0.2,0-0.5,0.2-0.7s0.5,0,0.7,0.2c1.2,2.3,2.5,5.2,1.7,6
		C97,76.6,96.5,76.7,96,76.7z"/>
	<path class="st3" d="M95.2,79.8h-0.3c-1.6-0.1-3-0.9-4-2.1c-0.2-0.2-0.2-0.5,0-0.7c0.2-0.2,0.5-0.2,0.7,0c0.8,1,2,1.7,3.2,1.8
		c1.5,0,2.9-0.6,4-1.5c0.2-0.2,0.5-0.2,0.7,0c0.2,0.2,0.2,0.5,0,0.7c0,0,0,0,0,0C98.4,79,96.8,79.7,95.2,79.8z"/>
	
		<ellipse transform="matrix(6.592558e-02 -0.9978 0.9978 6.592558e-02 16.3845 156.9604)" class="st3" cx="92" cy="69.7" rx="1.2" ry="0.5"/>
	
		<ellipse transform="matrix(6.592558e-02 -0.9978 0.9978 6.592558e-02 23.0589 164.0814)" class="st3" cx="99.2" cy="69.7" rx="1.2" ry="0.5"/>
	<path class="st2" d="M87.9,72.1c-0.5-0.8-1.1-1.5-1.8-2.1c-0.4-0.3-0.9-0.5-1.4-0.6c-0.4,0-0.8,0.1-1.2,0.3
		c-1.1,0.6-1.8,1.7-2.1,2.9c-0.1,0.6-0.1,1.1,0.1,1.7c0.3,0.8,0.9,1.6,1.7,2c0.8,0.4,1.6,0.8,2.4,1.1"/>
	<path class="st3" d="M85.7,77.9c-0.1,0-0.1,0-0.2,0c-0.9-0.3-1.7-0.6-2.5-1.1c-0.9-0.5-1.5-1.3-1.9-2.3c-0.2-0.6-0.2-1.3-0.1-1.9
		c0.3-1.4,1.1-2.5,2.3-3.2c0.4-0.3,0.9-0.4,1.4-0.4c0.6,0.1,1.2,0.3,1.7,0.7c0.8,0.6,1.5,1.4,2,2.2c0.1,0.2,0.1,0.6-0.2,0.7
		c-0.2,0.1-0.6,0.1-0.7-0.2c0,0,0,0,0,0c-0.4-0.7-1-1.4-1.7-1.9c-0.3-0.3-0.7-0.4-1.1-0.5c-0.3,0-0.6,0.1-0.9,0.3
		c-0.9,0.6-1.6,1.5-1.8,2.5c-0.1,0.5-0.1,1,0,1.4c0.3,0.7,0.8,1.3,1.4,1.7c0.7,0.4,1.5,0.8,2.3,1c0.3,0.1,0.4,0.4,0.3,0.7
		C86.1,77.7,85.9,77.9,85.7,77.9z"/>
	<path class="st2" d="M56.2,245.3c0,0-3.2,8.7-1.8,9.6s22.5,1.2,29.8,0c2.4-0.4-11.1-9-11.1-9"/>
	<path class="st3" d="M68.6,256.2c-7,0-13.5-0.3-14.4-0.9c-1.5-0.9,0.3-6.8,1.6-10.2c0.1-0.3,0.4-0.4,0.6-0.3
		c0.3,0.1,0.4,0.4,0.3,0.6c-1.6,4.3-2.5,8.5-2,9c1.3,0.7,21.2,1.2,29.2,0c-0.9-1.2-6.1-5-11-8.1c-0.2-0.1-0.3-0.4-0.2-0.7
		c0,0,0,0,0,0c0.1-0.2,0.5-0.3,0.7-0.1c5.4,3.5,11.9,7.9,11.6,9.4c-0.1,0.3-0.4,0.6-0.7,0.6C79.1,256.1,73.8,256.3,68.6,256.2z"/>
	<path class="st2" d="M104.9,241.3l0.4,14.1c0,0,28.9,1.4,27.4-0.4c-1.5-1.9-15-11.8-15-11.8l-1.9-10.1L104.9,241.3z"/>
	<path class="st3" d="M123.1,256.4c-5.7,0-12.7-0.3-17.8-0.5c-0.3,0-0.5-0.2-0.5-0.5l-0.4-14.1c0-0.2,0.1-0.3,0.2-0.4l10.9-8.3
		c0.2-0.2,0.5-0.1,0.7,0.1c0,0.1,0.1,0.1,0.1,0.2l1.8,9.9c1.6,1.2,13.5,10,14.9,11.8c0.2,0.2,0.2,0.5,0.1,0.8
		C132.7,256.1,128.5,256.4,123.1,256.4z M105.7,254.9c11.5,0.6,24,0.8,26.3,0.1c-1.9-1.9-10.2-8.2-14.6-11.5
		c-0.1-0.1-0.2-0.2-0.2-0.3l-1.7-9.3l-10.1,7.7L105.7,254.9z"/>
	<path class="st3" d="M108.1,143.6L120.7,245l-16.5,0.4l-18.8-70.7L75,245.9L55.9,245c0,0,3.3-39.8,5.1-55s4.4-41.3,4.4-41.3
		L108.1,143.6z"/>
	<path class="st2" d="M85.1,173.2c-0.1,0-0.2,0-0.3-0.1c-0.2-0.2-6.1-5.2-6.1-13c0-0.3,0.2-0.5,0.5-0.5l0,0c0.3,0,0.5,0.2,0.5,0.5
		c0,7.4,5.7,12.2,5.8,12.3c0.2,0.2,0.2,0.5,0.1,0.7c0,0,0,0,0,0C85.4,173.2,85.3,173.2,85.1,173.2z"/>
	<polygon class="st3" points="154.6,108.9 173.2,65.7 174.5,66.1 157.4,110.3 	"/>
	<path class="st2" d="M144.2,110.8c2.1-1,4.1-2.1,6.1-3.3c3-2,4.4-5,6.3-8.1c0.2-0.3,0.4-0.6,0.7-0.8c0.5-0.2,1.1,0,1.5,0.5
		c0.3,0.5,0.5,1,0.6,1.6c1.1-1.2,2.5-2.3,4-3c0.2-0.1,0.4-0.2,0.6-0.2c0.2,0,0.5,0.2,0.6,0.3c1.7,1.5,2.5,3.7,2.3,6
		c-0.7,6.3-10.6,12.3-15.7,14.9"/>
	<path class="st3" d="M151.1,119.2c-0.2,0-0.4-0.1-0.4-0.3c-0.1-0.2,0-0.5,0.2-0.7c2.4-1.2,14.7-7.6,15.4-14.5
		c0.2-2.1-0.6-4.2-2.1-5.6c-0.1,0-0.2-0.2-0.4-0.2c-0.1,0-0.2,0.1-0.3,0.1c-1.4,0.7-2.8,1.7-3.8,2.9c-0.2,0.2-0.5,0.2-0.7,0
		c-0.1-0.1-0.1-0.1-0.1-0.2c-0.1-0.5-0.2-0.9-0.5-1.3c-0.2-0.3-0.5-0.4-0.9-0.3c-0.2,0.1-0.4,0.3-0.5,0.6c-0.3,0.5-0.6,1.1-1,1.6
		c-1.5,2.5-2.9,4.9-5.4,6.6c-2,1.3-4,2.4-6.1,3.3c-0.2,0.1-0.5,0-0.7-0.2c0,0,0,0,0,0c-0.1-0.2,0-0.5,0.2-0.7c0,0,0,0,0,0
		c2.1-1,4.1-2,6-3.3c2.4-1.6,3.7-3.9,5.1-6.3l1-1.6c0.2-0.4,0.5-0.7,0.9-0.9c0.8-0.3,1.6-0.1,2.1,0.6c0.2,0.3,0.4,0.6,0.4,0.9
		c1-1,2.2-1.8,3.5-2.5c0.3-0.1,0.5-0.2,0.8-0.2c0.4,0,0.7,0.2,0.9,0.5c1.8,1.6,2.7,4,2.5,6.5c-0.8,7.2-12.4,13.5-16,15.2
		C151.3,119.2,151.2,119.2,151.1,119.2z"/>
	<path class="st4" d="M147.7,104.9c0,0-19.5,10.8-22.9,8.1c-7.1-5.7-18.6-20-22.2-23.6c-5.4-5.4-23-8.3-30.2-0.5
		c0,0-6.1,6.3-12,19.2c-4.6,10.1-7.7,25-6.8,26.3c1.2,1.5,6.4,6,11.3,4.5c-0.9,10.6-0.5,12.4-0.5,12.4c13,10.3,47.1-0.5,47.1-0.5
		l-3.8-29.4c0,0,1.5,8,14.1,10.6s35.6-14.2,35.6-14.2L147.7,104.9z"/>
	<path class="st3" d="M108.1,123.1c-0.1,0-0.3-0.1-0.4-0.2c-3.7-3.9-7.3-7.9-10.6-12.2c-0.2-0.2-0.1-0.5,0.1-0.7
		c0.2-0.2,0.5-0.1,0.7,0.1c3.3,4.2,6.8,8.3,10.5,12.1c0.2,0.2,0.2,0.5,0,0.7c0,0,0,0,0,0C108.4,123,108.2,123.1,108.1,123.1z"/>
	<path class="st3" d="M64.7,142.4c-0.3,0-0.5-0.2-0.5-0.5c0-0.2-0.7-25.8,8.1-51.4c0.1-0.3,0.4-0.4,0.6-0.3c0.3,0.1,0.4,0.4,0.3,0.6
		c-8.7,25.5-8.1,50.8-8.1,51.1C65.2,142.1,65,142.4,64.7,142.4C64.8,142.4,64.8,142.4,64.7,142.4L64.7,142.4z"/>
</g>
<g>
	<defs>
		<rect id="SVGID_1_" x="195.9" y="79.8" width="73" height="51"/>
	</defs>
	<clipPath id="SVGID_00000119104973003778725950000015204691113486253994_">
		<use xlink:href="#SVGID_1_"  style="overflow:visible;"/>
	</clipPath>
	<g style="clip-path:url(#SVGID_00000119104973003778725950000015204691113486253994_);">
		<path class="st6" d="M235.8,103.1h-7.5v-6.8h7.5V103.1z M235.8,79.8h-7.5v6.9h7.5V79.8z M244.8,96.3h-7.5v6.8h7.5V96.3z
			 M226.9,88.1h-7.5v6.8h7.5V88.1z M235.8,88.1h-7.5v6.8h7.5V88.1z M267.4,99.5c-1.6-1.1-5.4-1.5-8.3-1c-0.4-2.7-1.9-5.1-4.7-7.2
			l-1.6-1.1l-1.1,1.6c-2.1,3.2-2.7,8.4-0.4,11.8c-1,0.5-2.9,1.3-5.5,1.2h-49.6c-1,5.8,0.7,13.3,5,18.4c4.2,5,10.6,7.5,18.9,7.5
			c18,0,31.2-8.2,37.5-23.2c2.4,0,7.7,0,10.4-5.1c0.2-0.3,0.8-1.5,1-1.9L267.4,99.5z M209.1,96.3h-7.5v6.8h7.5L209.1,96.3
			L209.1,96.3z M218,96.3h-7.5v6.8h7.5V96.3z M226.9,96.3h-7.5v6.8h7.5V96.3z M218,88.1h-7.5v6.8h7.5V88.1z"/>
	</g>
</g>
<g id="essentiel">
	<path class="st2" d="M327.7,217.2c0,0-5.2-0.1-10.8,9.4l0,0.1l0-0.1c-2.5-13.1-12.8-21.4-12.8-21.4c-1.9,6.2-2.6,12.7-1.9,19.1
		c-2.3-2.1-5-3.8-7.9-5.1c-0.2,8.4,3.2,16.1,6.3,21.4h10.2l0,0h1.7h4.2h5.6C325.2,236.2,329.8,227.3,327.7,217.2z"/>
	<path class="st3" d="M328.4,217.1c-0.1-0.3-0.3-0.5-0.7-0.5c-0.2,0-5.1,0-10.5,8.4c-3-12.3-12.3-19.9-12.7-20.2
		c-0.2-0.1-0.4-0.2-0.6-0.1c-0.2,0.1-0.4,0.2-0.4,0.4c-1.8,5.7-2.5,11.8-2,17.8c-2.1-1.7-4.3-3.1-6.8-4.2c-0.2-0.1-0.4-0.1-0.6,0.1
		c-0.2,0.1-0.3,0.3-0.3,0.6c-0.2,8.4,3.2,16.3,6.2,21.4h-1.5l3.1,15.5h19.1l3.1-15.5h-0.5C326.1,236,330.5,227.1,328.4,217.1z
		 M327.2,218c1.7,9.4-2.4,17.7-5.3,22h-4.8c-0.1-0.1-0.3-0.1-0.5,0h-3.5c0.2-4.2,1.5-8.3,3.7-11.9c0.2-0.4,0.4-0.7,0.6-1.1
		C321.8,219.8,325.8,218.3,327.2,218z M304.4,206.5c2.4,2.2,9.7,9.6,11.8,20.1l-0.5,0.8c-3,5.5-3.7,9.8-3.8,12.6h-5.7
		c-1.7-5-2.8-10.1-3.3-15.3c0.1-0.2,0-0.4-0.1-0.6C302.2,218.2,302.7,212.2,304.4,206.5z M301.5,224.8c0.5,5.2,1.6,10.3,3.3,15.3
		H301c-2.8-4.8-6-11.9-6-19.7C297.4,221.6,299.6,223,301.5,224.8z"/>
</g>
<g id="fondamental" class="st7">
	<g class="st8">
		<circle class="st4" cx="305.9" cy="193.4" r="5.1"/>
	</g>
	<path class="st9" d="M327.7,217.2c0,0-2,0-4.9,2.3c2.5-11.4-1.5-21.5-1.5-21.5c-4.4,4.2-8,9.1-10.5,14.6c-3.3-4.7-6.6-7.3-6.6-7.3
		c-1.9,6.2-2.6,12.7-1.9,19.1c-2.3-2.1-5-3.8-7.9-5.1c-0.2,8.4,3.2,16.1,6.3,21.4h10.2l0,0h1.7h4.2h5.6
		C325.2,236.2,329.8,227.3,327.7,217.2z"/>
	<path class="st10" d="M328.3,217.1c-0.1-0.3-0.3-0.5-0.7-0.5c-0.1,0-1.7,0-4,1.4c1.8-10.7-1.7-19.8-1.9-20.2
		c-0.1-0.2-0.3-0.4-0.5-0.4c-0.2-0.1-0.4,0-0.6,0.2c-4,3.8-7.4,8.3-9.9,13.2c-0.9-4.7-1.9-8.9-2.7-12c2.1-0.9,3.5-2.9,3.5-5.3
		c0-2.5-1.6-4.6-3.7-5.4c-0.4-0.2-0.8-0.3-1.3-0.3c-0.2,0-0.5-0.1-0.7-0.1c-3.2,0-5.8,2.6-5.8,5.8c0,2.9,2.2,5.4,5.1,5.7
		c0.2,0,0.5,0,0.7,0c0.3,0,0.6,0,1-0.1c0.7,2.8,1.6,6.5,2.4,10.7c-2.5-3-4.6-4.8-4.8-4.9c-0.2-0.1-0.4-0.2-0.6-0.1
		c-0.2,0.1-0.4,0.2-0.4,0.4c-1.8,5.8-2.5,11.8-2,17.8c-2.1-1.7-4.3-3.1-6.8-4.2c-0.2-0.1-0.4-0.1-0.6,0.1c-0.2,0.1-0.3,0.3-0.3,0.6
		c-0.2,8.4,3.2,16.3,6.2,21.4h-1.6l3.1,15.5h19.1l3.1-15.5h-0.5C326.1,236,330.5,227.1,328.3,217.1z M301.5,193.9
		c1.1-0.3,2.4-0.2,3.2-0.1c0,0.4-0.1,0.9-0.1,1.4c0,0.8,0.1,1.6,0.2,2.5C303.1,197.3,301.7,195.8,301.5,193.9z M304.9,192.5
		C304.9,192.5,304.9,192.5,304.9,192.5c-0.9-0.1-2.1-0.2-3.3,0c0.2-1,0.8-1.9,1.5-2.5c0.8-0.6,1.8-1,2.8-1h0.1
		C305.6,189.9,305.1,191.1,304.9,192.5z M306.5,197.8c-0.1,0-0.2,0-0.3,0c-0.1-0.6-0.2-1.3-0.2-1.9c0,0,0,0,0,0
		c-0.1-0.9,0-1.8,0.1-2.6c0.2-1.8,0.8-3.2,1.2-4.1c1.7,0.6,3,2.3,3,4.2c0,1.8-1.1,3.3-2.6,4C307.4,197.6,307,197.7,306.5,197.8z
		 M320.9,199.2c0.9,2.7,3.2,11,1.3,20c-1.5,1.2-3.2,3.1-5,5.8c-1.2-5-3.4-9.2-5.7-12.4C313.8,207.6,317,203,320.9,199.2z M301,240.1
		c-2.8-4.8-6-11.9-6-19.7c2.4,1.2,4.5,2.7,6.5,4.4c0.5,5.2,1.6,10.3,3.3,15.3H301z M312.3,236.3c-0.2,0.8-0.2,1.5-0.3,2.2
		c-0.1,0.6-0.1,1.1-0.1,1.6h-0.2h-1.3h-4.1c-1.7-5-2.8-10.1-3.3-15.3c0.1-0.2,0-0.4-0.1-0.6c-0.6-5.9-0.1-11.9,1.6-17.6
		c1.1,1,3.3,3.2,5.5,6.2c0,0,0,0,0,0c0.3,0.4,0.6,0.8,0.9,1.3c0.3,0.4,0.6,0.9,0.9,1.3c1.9,3.1,3.7,6.9,4.5,11.3l-0.5,0.9
		C313.8,230.9,312.8,233.8,312.3,236.3C312.3,236.3,312.3,236.3,312.3,236.3z M313.2,240L313.2,240c0.2-4.2,1.5-8.3,3.7-11.9
		c0.2-0.4,0.4-0.7,0.6-1.1c1.4-2.3,2.7-4.1,4-5.4c0.7-0.7,1.3-1.2,1.9-1.7c1.8-1.4,3.2-1.9,3.9-2c1.7,9.4-2.4,17.7-5.3,22H313.2z"/>
</g>
<g id="expert" class="st7">
	<path class="st9" d="M327.7,217.2c0,0-2,0-4.9,2.3c2.5-11.4-1.5-21.5-1.5-21.5c-4.4,4.2-8,9.1-10.5,14.6c-3.3-4.7-6.6-7.3-6.6-7.3
		c-1.9,6.2-2.6,12.7-1.9,19.1c-2.3-2.1-5-3.8-7.9-5.1c-0.2,8.4,3.2,16.1,6.3,21.4h10.2l0,0h1.7h4.2h5.6
		C325.2,236.2,329.8,227.3,327.7,217.2z"/>
	<path class="st10" d="M328.3,217.1c-0.1-0.3-0.3-0.5-0.7-0.5c-0.1,0-1.7,0-4,1.4c1.8-10.7-1.7-19.8-1.9-20.2
		c-0.1-0.2-0.3-0.4-0.5-0.4c-0.2-0.1-0.4,0-0.6,0.2c-3.9,3.7-7.1,7.9-9.6,12.6c-1.2-9-3.6-18.7-8.1-26.8l-1.1,0.6
		c4.5,7.8,6.8,17.2,7.9,26.1l-0.5-0.3c-2.5-3-4.6-4.8-4.8-4.9c-0.2-0.1-0.4-0.2-0.6-0.1c-0.2,0.1-0.4,0.2-0.4,0.4
		c-1.8,5.8-2.5,11.8-2,17.8c-2.1-1.7-4.3-3.1-6.8-4.2c-0.2-0.1-0.4-0.1-0.6,0.1c-0.2,0.1-0.3,0.3-0.3,0.6
		c-0.2,8.4,3.2,16.3,6.2,21.4h-1.6l3.1,15.5h19.1l3.1-15.5h-0.5C326.1,236,330.5,227.1,328.3,217.1z M320.9,199.2
		c0.9,2.7,3.2,11,1.3,20c-1.5,1.2-3.2,3.1-5,5.8c-1.2-5-3.4-9.1-5.7-12.4c0,0,0,0,0,0s0,0,0,0C313.8,207.5,317,203,320.9,199.2z
		 M301,240.1c-2.8-4.8-6-11.9-6-19.7c2.4,1.2,4.5,2.7,6.5,4.4c0.5,5.2,1.6,10.3,3.3,15.3H301z M312.3,236.3
		c-0.2,0.8-0.2,1.5-0.3,2.2c-0.1,0.6-0.1,1.1-0.1,1.6h-0.3h-1.3h-4c-1.7-5-2.8-10.1-3.3-15.3c0.1-0.2,0-0.4-0.1-0.6
		c-0.6-5.9-0.1-11.9,1.6-17.6c1.1,1,3.3,3.2,5.5,6.2c0,0,0,0,0,0c0.1,0.1,0.2,0.3,0.3,0.5c0.2,0.3,0.4,0.5,0.6,0.8
		c0.3,0.4,0.6,0.9,0.9,1.3c0,0.1,0.1,0.1,0.1,0.2c1.9,3.1,3.6,6.8,4.4,11l-0.5,0.9C313.8,230.9,312.8,233.8,312.3,236.3
		C312.3,236.3,312.3,236.3,312.3,236.3z M313.2,240L313.2,240c0.2-4.2,1.5-8.3,3.7-11.9c0.2-0.4,0.4-0.7,0.6-1.1
		c1.4-2.3,2.7-4.1,4-5.4c0.7-0.7,1.3-1.2,1.9-1.7c1.8-1.4,3.2-1.9,3.9-2c1.7,9.4-2.4,17.7-5.3,22H313.2z"/>
	<path class="st11" d="M319,183.6c0-1-2.3-1.9-5.5-2.2c2.8-1.5,4.6-3.2,4.2-4.1c-0.4-0.9-2.9-0.9-6,0.1c2.1-2.5,3.1-4.8,2.4-5.5
		c-0.7-0.7-2.9,0.3-5.4,2.3c0.9-3.1,1-5.5,0.1-5.9c-0.9-0.4-2.7,1.4-4.2,4.3c-0.3-3.3-1.2-5.6-2.2-5.6c-1,0-1.9,2.3-2.2,5.5
		c-1.5-2.8-3.2-4.6-4.1-4.2c-0.9,0.4-0.9,2.9,0.1,6c-2.5-2.1-4.8-3.1-5.5-2.4c-0.7,0.7,0.3,2.9,2.3,5.4c-3.1-0.9-5.5-1-5.9-0.1
		c-0.4,0.9,1.4,2.7,4.3,4.2c-3.3,0.3-5.6,1.2-5.6,2.2c0,1,2.3,1.9,5.5,2.2c-2.8,1.5-4.6,3.2-4.2,4.1c0.4,0.9,2.9,0.9,6-0.1
		c-2.1,2.5-3.1,4.8-2.4,5.5c0.7,0.7,2.9-0.3,5.4-2.3c-0.9,3.1-1,5.5-0.1,5.9c0.9,0.4,2.7-1.4,4.2-4.3c0.3,3.3,1.2,5.6,2.2,5.6
		c1,0,1.9-2.3,2.2-5.5c1.5,2.8,3.2,4.6,4.1,4.2c0.9-0.4,0.9-2.9-0.1-6c2.5,2.1,4.8,3.1,5.5,2.4c0.7-0.7-0.3-2.9-2.3-5.4
		c3.1,0.9,5.5,1,5.9,0.1c0.4-0.9-1.4-2.7-4.3-4.2C316.7,185.5,319,184.7,319,183.6z"/>
	<g class="st8">
		<g>
			<g>
				<path class="st3" d="M287.7,177.5c0.1-0.2,0.4-0.3,1.1-0.3c0.9,0,2.1,0.2,3.8,0.7c-0.5-0.6-0.9-1.1-1.3-1.7
					c-2.4-0.5-4.4-0.4-4.9,0.8c-0.5,1.2,0.9,2.7,3,4.1c0.7-0.1,1.4-0.2,2.1-0.3C288.8,179.2,287.6,177.8,287.7,177.5z"/>
			</g>
			<g>
				<path class="st3" d="M295.9,167.7c-1.2,0.5-1.3,2.5-0.8,4.9c0.6,0.4,1.1,0.8,1.7,1.3c-0.9-3-0.7-4.9-0.4-5c0,0,0,0,0.1,0
					c0.4,0,1.7,1.2,3.1,3.8c0.1-0.7,0.2-1.4,0.3-2.1C298.5,168.5,297,167.2,295.9,167.7z"/>
			</g>
			<g>
				<path class="st3" d="M309.1,167.7c-0.9-0.4-2,0.2-3.2,1.8c-0.3,0.3-0.6,0.7-0.8,1.1c0.1,0.7,0.2,1.4,0.3,2.1
					c0.5-0.9,1-1.7,1.6-2.4c1-1.2,1.5-1.4,1.7-1.4c0,0,0,0,0,0c0.1,0,0.4,0.5,0.2,2.2c-0.1,0.8-0.3,1.7-0.6,2.7
					c0.6-0.5,1.1-0.9,1.7-1.3c0.1-0.5,0.2-0.9,0.2-1.3C310.3,169.3,310,168.1,309.1,167.7z"/>
			</g>
			<g>
				<path class="st3" d="M318.4,177.1c-0.5-1.2-2.5-1.3-4.9-0.8c-0.4,0.6-0.8,1.1-1.3,1.7c3-0.9,4.8-0.7,5-0.4
					c0.1,0.3-1.1,1.7-3.8,3.2c0.7,0.1,1.4,0.2,2.1,0.3C317.5,179.7,318.8,178.3,318.4,177.1z"/>
			</g>
			<g>
				<path class="st3" d="M315.4,186.2c-0.7,0.1-1.4,0.2-2.1,0.3c2.8,1.5,4,2.9,3.8,3.3c-0.1,0.4-1.9,0.5-4.9-0.4
					c0.5,0.6,0.9,1.1,1.2,1.7c0.9,0.2,1.7,0.3,2.4,0.3c1.2,0,2.1-0.3,2.4-1.1C318.8,189.1,317.4,187.6,315.4,186.2z"/>
			</g>
			<g>
				<path class="st3" d="M309.7,194.6c-0.6-0.4-1.1-0.8-1.7-1.3c0.9,3.1,0.8,4.9,0.4,5.1c-0.3,0.1-1.7-1-3.2-3.7
					c-0.1,0.7-0.2,1.4-0.3,2.1c1.1,1.7,2.4,3,3.4,3c0.2,0,0.4,0,0.5-0.1C310.1,199.1,310.2,197,309.7,194.6z"/>
			</g>
			<g>
				<path class="st3" d="M299.5,194.4c-1.5,2.8-2.9,4-3.3,3.9c-0.3-0.1-0.5-1.9,0.4-4.9c-0.6,0.5-1.1,0.9-1.7,1.3
					c-0.5,2.4-0.4,4.3,0.8,4.8c0.2,0.1,0.3,0.1,0.5,0.1c1.1,0,2.4-1.3,3.6-3.1C299.7,195.9,299.6,195.1,299.5,194.4z"/>
			</g>
			<g>
				<path class="st3" d="M287.7,189.7c-0.1-0.3,1.1-1.7,3.7-3.2c-0.7-0.1-1.4-0.2-2.1-0.3c-2,1.3-3.4,2.8-2.9,4
					c0.3,0.8,1.2,1.1,2.5,1.1c0.7,0,1.6-0.1,2.5-0.3c0.4-0.6,0.8-1.1,1.3-1.7C289.7,190.1,287.8,190,287.7,189.7z"/>
			</g>
		</g>
		<g>
			<path class="st3" d="M319.7,183.6c0-2-4.6-3-8.9-3c-0.4,0-0.7,0-1.1,0c0.3-0.2,0.5-0.5,0.8-0.8c3-3,5.7-7,4.2-8.4
				c-1.4-1.4-5.4,1.2-8.4,4.2c-0.3,0.3-0.5,0.5-0.8,0.8c0-0.4,0-0.7,0-1.1c0-4.3-0.9-8.9-3-8.9c-2,0-3,4.6-3,8.9c0,0.4,0,0.7,0,1.1
				c-0.2-0.3-0.5-0.5-0.8-0.8c-3-3-7-5.7-8.4-4.2c-1.5,1.5,1.2,5.4,4.2,8.4c0.3,0.3,0.5,0.5,0.8,0.8c-0.4,0-0.7,0-1.1,0
				c-4.3,0-9,0.9-9,3c0,2.1,4.7,3,9,3c0.4,0,0.7,0,1.1,0c-0.3,0.2-0.5,0.5-0.8,0.8c-3,3-5.7,7-4.2,8.4c0.3,0.3,0.7,0.4,1.1,0.4
				c1.9,0,4.9-2.2,7.3-4.6c0.3-0.3,0.5-0.5,0.8-0.8c0,0.4,0,0.7,0,1.1c0,4.3,0.9,9,3,9c2,0,3-4.7,3-9c0-0.4,0-0.7,0-1.1
				c0.2,0.3,0.5,0.5,0.8,0.8c2.5,2.5,5.5,4.6,7.3,4.6c0.4,0,0.8-0.1,1.1-0.4c1.4-1.4-1.2-5.4-4.2-8.4c-0.3-0.3-0.5-0.5-0.8-0.8
				c0.4,0,0.7,0,1.1,0C315,186.6,319.7,185.7,319.7,183.6z M307.9,185.2c-1.5-0.2-2.7-0.4-3.5-0.7c0.8,0.4,1.8,1,3,2
				c0.6,0.5,1.3,1.1,2.1,1.9c3.5,3.5,4.6,6.2,4.2,6.6c-0.3,0.4-3.1-0.7-6.6-4.2c-0.7-0.7-1.4-1.4-1.9-2.1c-0.9-1.2-1.6-2.2-1.9-2.9
				c0.3,0.8,0.5,2,0.7,3.5c0.1,0.8,0.1,1.7,0.1,2.8c0,5-1.2,7.6-1.7,7.6c-0.5,0-1.7-2.7-1.7-7.6c0-1,0.1-2,0.1-2.8
				c0.1-1.4,0.4-2.5,0.6-3.4c-0.4,0.7-1,1.7-1.9,2.8c-0.5,0.6-1.2,1.3-1.9,2.1c-3.5,3.5-6.2,4.6-6.6,4.2c-0.4-0.3,0.7-3.1,4.2-6.6
				c0.7-0.7,1.4-1.4,2.1-1.9c1.2-1,2.2-1.6,3-2c-0.8,0.3-2,0.6-3.5,0.7c-0.8,0.1-1.8,0.1-2.8,0.1c-5,0-7.6-1.2-7.6-1.7
				s2.7-1.7,7.6-1.7c1,0,2,0.1,2.8,0.1c1.5,0.1,2.7,0.4,3.5,0.7c-0.2-0.1-0.4-0.2-0.6-0.3c-0.7-0.4-1.6-1-2.4-1.7
				c-0.7-0.6-1.4-1.2-2.1-1.9c-3.5-3.5-4.6-6.2-4.2-6.6c0,0,0.1-0.1,0.2-0.1c0.8,0,3.3,1.2,6.4,4.3c0.7,0.7,1.4,1.4,1.9,2.1
				c0.9,1.2,1.6,2.2,1.9,2.9c-0.3-0.8-0.5-2-0.7-3.5c-0.1-0.8-0.1-1.7-0.1-2.8c0-5,1.2-7.6,1.7-7.6c0.5,0,1.7,2.7,1.7,7.6
				c0,1-0.1,2-0.1,2.8c-0.2,1.5-0.4,2.7-0.7,3.5c0.4-0.8,1-1.8,2-2.9c0.5-0.7,1.2-1.4,1.9-2.1c3.1-3.1,5.6-4.3,6.4-4.3
				c0.1,0,0.2,0,0.2,0.1c0.3,0.3-0.7,3.1-4.2,6.6c-0.7,0.7-1.4,1.3-2.1,1.9c-0.8,0.7-1.6,1.2-2.4,1.7c-0.2,0.1-0.4,0.2-0.6,0.3
				c0.8-0.3,2-0.6,3.5-0.7c0.8-0.1,1.8-0.1,2.8-0.1c5,0,7.6,1.2,7.6,1.7s-2.7,1.7-7.6,1.7C309.7,185.3,308.8,185.3,307.9,185.2z"/>
		</g>
	</g>
	<g class="st8">
		<circle class="st2" cx="302.4" cy="183.6" r="3.3"/>
		<path class="st3" d="M302.5,187.6c-1.3,0-2.6-0.6-3.3-1.8c-1.2-1.8-0.6-4.3,1.2-5.4c1.8-1.2,4.3-0.6,5.4,1.2v0
			c1.2,1.8,0.6,4.3-1.2,5.4C303.9,187.4,303.2,187.6,302.5,187.6z M302.4,181c-0.5,0-1,0.1-1.4,0.4c-1.2,0.8-1.6,2.4-0.8,3.6
			c0.8,1.2,2.4,1.6,3.6,0.8c1.2-0.8,1.6-2.4,0.8-3.6l0,0C304.1,181.5,303.3,181,302.4,181z"/>
	</g>
</g>
</svg>
