<?xml version="1.0" encoding="utf-8"?>
<!-- Generator: Adobe Illustrator 27.9.0, SVG Export Plug-In . SVG Version: 6.00 Build 0)  -->
<svg version="1.1" id="Calque_1" xmlns="http://www.w3.org/2000/svg" xmlns:xlink="http://www.w3.org/1999/xlink" x="0px" y="0px"
	 viewBox="0 0 400 300" style="enable-background:new 0 0 400 300;" xml:space="preserve">
<style type="text/css">
	.st0{fill:#FFFFFF;}
	.st1{fill:#231F20;}
	.st2{fill:#D1D3D4;}
	.st3{fill:#F1C433;}
	.st4{fill:#E6E7E8;}
	.st5{fill:none;stroke:#000000;stroke-width:1.2251;stroke-miterlimit:10;}
	.st6{fill:#F1C433;stroke:#000000;stroke-width:1.2251;stroke-miterlimit:10;}
	.st7{fill:#F34E1D;}
	.st8{fill:#A259FF;}
	.st9{fill:#04D082;}
	.st10{fill:#FF7262;}
	.st11{fill:#1CBCFF;}
	.st12{display:none;}
	.st13{display:inline;}
	.st14{display:inline;fill:#FFFFFF;}
	.st15{display:inline;fill:#231F20;}
	.st16{display:inline;fill:#F1C433;}
</style>
<g>
	<g id="_001">
		<polyline class="st0" points="263.1,262.7 261.2,269.6 231.9,259 242.3,256.5 		"/>
		<path class="st1" d="M261.2,270.1c-0.1,0-0.1,0-0.2,0l-29.3-10.6c-0.2-0.1-0.3-0.3-0.3-0.5s0.2-0.4,0.4-0.5l10.4-2.5
			c0.3-0.1,0.6,0.1,0.6,0.4c0.1,0.3-0.1,0.6-0.4,0.6l-8.8,2.1l27.2,9.9l1.7-6.4c0.1-0.3,0.3-0.4,0.6-0.4c0.3,0.1,0.4,0.4,0.4,0.6
			l-1.9,6.9c0,0.1-0.1,0.2-0.2,0.3C261.4,270.2,261.3,270.1,261.2,270.1z"/>
		<path class="st2" d="M157.8,250.8c-0.3,0-0.5-0.2-0.5-0.5V40.8c0-0.3,0.2-0.5,0.5-0.5s0.5,0.2,0.5,0.5v209.5
			C158.3,250.6,158.1,250.8,157.8,250.8z"/>
		<path class="st2" d="M176.8,270.3c-0.1,0-0.3-0.1-0.4-0.1l-18.5-19.1l-18.5,19.1c-0.2,0.2-0.5,0.2-0.7,0l0,0
			c-0.2-0.2-0.2-0.5,0-0.7l18.9-19.5c0.2-0.2,0.5-0.2,0.7,0l18.9,19.5c0.2,0.2,0.2,0.5,0,0.7l0,0C177,270.3,176.9,270.3,176.8,270.3
			z"/>
		<path class="st1" d="M157.8,250.8c-0.3,0-0.5-0.2-0.5-0.5V40.8c0-0.3,0.2-0.5,0.5-0.5s0.5,0.2,0.5,0.5v209.5
			C158.3,250.6,158.1,250.8,157.8,250.8z"/>
		<path class="st1" d="M176.8,270.3c-0.1,0-0.3-0.1-0.4-0.1l-18.5-19.1l-18.5,19.1c-0.2,0.2-0.5,0.2-0.7,0l0,0
			c-0.2-0.2-0.2-0.5,0-0.7l18.9-19.5c0.2-0.2,0.5-0.2,0.7,0l18.9,19.5c0.2,0.2,0.2,0.5,0,0.7l0,0C177,270.3,176.9,270.3,176.8,270.3
			z"/>
		<path class="st1" d="M239.5,44.8H76.3c-0.3,0-0.5,0.2-0.5,0.5v120.6c0,0.3,0.2,0.5,0.5,0.5h163.2c0.3,0,0.5-0.2,0.5-0.5V45.3
			C240,45,239.7,44.8,239.5,44.8z M239,165.4H76.8V45.8h162.1L239,165.4L239,165.4z"/>
		<rect x="76.8" y="45.8" class="st0" width="162.1" height="119.6"/>
		<circle class="st0" cx="112.4" cy="97.1" r="2.6"/>
		<path class="st1" d="M265.4,141c0,0-17.3,53.3-23.1,115.5l20.7,6.2l28-90.1l10.5,91l22,0.5c0,0,0.2-54.4-5.4-123
			C306.7,140.8,265.4,141,265.4,141z"/>
		<path class="st0" d="M210.9,113.5c0,0,22.5,28.1,32.9,27.2s23.2-22.1,23.2-22.1l-10.6-18.7c0,0-13.5,16.5-16,15.3
			s-19.1-13.3-19.1-13.3"/>
		<path class="st1" d="M243.3,141.2c-10.7,0-31.9-26.3-32.8-27.4c-0.2-0.2-0.2-0.5,0-0.7s0.5-0.2,0.7,0c0,0,0,0,0.1,0.1
			c0.2,0.3,22.5,27.9,32.5,27c9.4-0.8,21.2-19.3,22.7-21.6l-10.2-17.9c-1.1,1.3-3.8,4.5-6.6,7.6c-7.6,8.2-8.9,7.6-9.5,7.4
			c-2.5-1.1-18.6-12.9-19.3-13.4c-0.2-0.2-0.3-0.5-0.1-0.7s0.5-0.3,0.7-0.1c0.2,0.1,16.7,12.2,19.1,13.3c1,0.4,7.2-5.2,15.4-15.2
			c0.1-0.1,0.3-0.2,0.4-0.2c0.2,0,0.3,0.1,0.4,0.2l10.6,18.7c0.1,0.2,0.1,0.4,0,0.5c-0.5,0.9-13.1,21.4-23.6,22.4H243.3z"/>
		<path class="st3" d="M315.4,108.8l13.9-5.7c-4.9-10.5-10.5-16.8-14.3-19.2c-4.9-4.1-17-4.3-28.1-4.8c-3.6-0.2-7.1,0.1-10.6,1
			c-13,3.6-25,22.4-25,22.4l11.6,6.9c0,0-1.3,25.5,0.4,34.2c0,0,30.1,13,55.4,5.9C318.7,149.5,315.1,112.1,315.4,108.8z"/>
		<path class="st0" d="M288.8,75.7l-1.7,8.3c0,0,1.9,5.5,7.5,5c3.4-0.4,6.4-2.3,8.2-5.1l2-15.3c0,0-3.7-2.7-1.4-11.3
			c-4.7,1.3-9.7,1.3-14.4,0.1c0,0-3.7,9.1-3.6,13.5S288.8,75.7,288.8,75.7z"/>
		<path class="st1" d="M293.7,89.6c-5.3,0-7.1-5.3-7.1-5.3c0-0.1,0-0.2,0-0.3l1.6-7.9c-2.2-0.8-3.6-2.9-3.4-5.2
			c-0.1-4.4,3.5-13.3,3.7-13.7c0.1-0.2,0.4-0.4,0.6-0.3c4.6,1.2,9.5,1.2,14.1-0.1c0.2-0.1,0.4,0,0.5,0.1s0.2,0.3,0.1,0.5
			c-2.2,8.1,1.2,10.7,1.2,10.7c0.2,0.1,0.2,0.3,0.2,0.5l-2,15.3c0,0.1,0,0.1-0.1,0.2c-1.9,3-5.1,5-8.6,5.3
			C294.3,89.5,294,89.6,293.7,89.6z M287.6,84c0.3,0.8,2.1,5,6.9,4.5c3.2-0.4,6-2.1,7.7-4.8l1.9-15c-0.8-0.8-3.2-3.8-1.6-10.7
			c-4.4,1-9,1-13.3-0.1c-0.7,1.8-3.5,9.2-3.4,12.8c0.1,3.8,3,4.4,3.1,4.4c0.3,0,0.5,0.3,0.4,0.6l0,0L287.6,84z"/>
		<path class="st0" d="M301.5,67.9c0.3-0.7,0.8-1.3,1.5-1.7c0.6-0.3,1.3-0.6,2-0.7c0.4-0.1,0.8-0.1,1.2,0c0.3,0.1,0.5,0.2,0.7,0.4
			c0.5,0.4,0.9,0.9,1.1,1.6c0.1,0.5,0,1.1-0.1,1.6c-0.1,0.6-0.4,1.1-0.6,1.6c-1.2,2.1-3.9,2.7-6,1.5l0,0"/>
		<path class="st1" d="M303.6,73.1c-0.9,0-1.8-0.2-2.5-0.7c-0.2-0.2-0.3-0.5-0.2-0.7c0.1-0.2,0.5-0.3,0.7-0.2l0,0
			c1.8,1.1,4.2,0.5,5.3-1.3l0,0c0.3-0.5,0.5-1,0.6-1.5c0.1-0.4,0.2-0.9,0.1-1.3c-0.2-0.5-0.5-0.9-0.9-1.2c-0.2-0.1-0.3-0.2-0.5-0.3
			c-0.3-0.1-0.6-0.1-0.9,0c-0.7,0.1-1.3,0.3-1.9,0.6c-0.6,0.3-1,0.9-1.2,1.5c-0.1,0.3-0.4,0.4-0.7,0.3c-0.3-0.1-0.4-0.4-0.3-0.7
			c0.3-0.8,0.9-1.5,1.7-2c0.7-0.4,1.4-0.6,2.2-0.8c0.5-0.1,0.9-0.1,1.4,0c0.3,0.1,0.6,0.3,0.9,0.5c0.6,0.4,1.1,1.1,1.3,1.8
			c0.1,0.6,0,1.2-0.1,1.8c-0.1,0.6-0.4,1.2-0.7,1.7c-0.7,1.1-1.7,1.9-3,2.2C304.4,73.1,304,73.1,303.6,73.1z"/>
		<path class="st1" d="M305.5,76.9c-0.3,0-0.5-0.3-0.4-0.6c0-0.2,0.2-0.3,0.3-0.4c3.2-0.8,5.9-2.9,7.5-5.7c2.4-4.3,3.2-9.4,2.2-14.2
			c-0.7-2.7-1.5-3.4-2.2-3.6c-0.6-0.1-1.2,0.1-1.7,0.6c-0.2,0.2-0.4,0.2-0.6,0.1c-0.2-0.1-0.3-0.3-0.3-0.5c0-0.1,0.3-3.4-3-6.6
			c-2.5-2.4-10.5-5.3-16.5-4.5c-3.1,0.4-5.4,1.7-6.7,3.9c-1.4,2.3-1.8,4.5-1.2,6.4c0.7,2,2.1,3.6,4,4.5c0.3,0.1,0.4,0.4,0.2,0.7
			c-0.1,0.3-0.4,0.4-0.7,0.2c-2.1-1.1-3.8-2.9-4.6-5.1c-0.7-2.2-0.2-4.7,1.3-7.3c1.5-2.5,4-3.9,7.4-4.4c6.6-0.9,14.8,2.3,17.4,4.8
			c1.8,1.7,3,3.9,3.3,6.4c0.5-0.3,1.2-0.4,1.8-0.2c1.3,0.3,2.2,1.8,2.9,4.3c1.1,5.1,0.3,10.5-2.3,15C311.9,73.8,308.9,76,305.5,76.9
			L305.5,76.9z"/>
		<path class="st1" d="M288.1,79.9c2,0.5,4.1,0.1,5.8-1.1c2.7-2,2.7-3.3,2.7-3.3s-4.1,1.6-7.6,0.4L288.1,79.9z"/>
		<path class="st1" d="M289.9,80.6c-0.6,0-1.3-0.1-1.9-0.2c-0.2-0.1-0.4-0.3-0.3-0.6l0.9-4c0-0.1,0.1-0.3,0.2-0.3
			c0.1-0.1,0.3-0.1,0.4,0c3.2,1.1,7.2-0.4,7.3-0.4c0.3-0.1,0.5,0,0.6,0.3c0,0.1,0,0.1,0,0.2c0,0.2,0,1.7-2.9,3.8
			C293,80.2,291.4,80.6,289.9,80.6z M288.7,79.5c1.7,0.3,3.5-0.1,4.9-1.1c0.9-0.6,1.6-1.3,2.2-2.2c-2.1,0.6-4.3,0.7-6.4,0.3
			L288.7,79.5z"/>
		<path class="st1" d="M263.3,144.1c-0.3,0-0.5-0.2-0.5-0.5c-0.5-17.4,0.9-34.9,4.3-52c0-0.3,0.3-0.4,0.6-0.4l0,0
			c0.3,0,0.5,0.3,0.4,0.6l0,0c-3.3,17-4.8,34.4-4.2,51.7C263.8,143.8,263.6,144.1,263.3,144.1L263.3,144.1L263.3,144.1z"/>
		<path class="st1" d="M290.4,139.4c0-0.8-4.1-32-4.1-32l-30.2-1.6l5.2,31L290.4,139.4z"/>
		<path class="st0" d="M328.2,100.2c0,0,23.4,41.4,8.5,43.9c-10.4,1.8-31.1-3-38.9-7s-11-6.9-11-6.9s-8.6-0.6-7.6-2.7
			c0.6-1.2,1.9-1.8,3.2-1.6c0,0-4.1-0.4-3.6-2.3s3.9-1.3,3.9-1.3s-5.8-2.1-4.3-3.2s4.5-0.3,4.5-0.3s-4-0.7-3.9-2.4
			c0.2-2.9,12.8,0.3,15.2,2.6s17.4,4.7,20.1,4.9l-7-14.9"/>
		<path class="st1" d="M331.4,145c-11.1,0-27.1-4-33.9-7.5c-3.9-1.9-7.5-4.2-10.9-6.9c-1.5-0.1-6.9-0.7-7.8-2.3
			c-0.2-0.4-0.2-0.8,0-1.1c0.3-0.6,0.7-1.1,1.2-1.4c-0.6-0.2-1.1-0.5-1.4-1c-0.3-0.4-0.4-0.9-0.2-1.4c0.3-0.9,1-1.5,1.9-1.6
			c-1.2-0.6-2.4-1.4-2.5-2.2c-0.1-0.4,0.1-0.8,0.5-1c0.4-0.3,0.9-0.5,1.5-0.6c-0.6-0.4-1-1-1-1.8c0.1-0.6,0.5-1.2,1.1-1.3
			c3-1.2,12.6,1.4,14.9,3.6c2.1,2,14.6,4.1,18.9,4.7l-6.7-14.1c-0.1-0.2,0-0.5,0.2-0.7l0,0c0.3-0.1,0.5,0,0.7,0.2l7,14.9
			c0.1,0.2,0.1,0.3,0,0.5c-0.1,0.1-0.3,0.2-0.5,0.2c-2.5-0.2-17.7-2.6-20.4-5c-2-1.9-11.2-4.4-13.9-3.4c-0.5,0.2-0.5,0.4-0.5,0.5
			c0,0.7,1.3,1.4,2.6,1.7c0.3,0,0.6,0.1,0.9,0.2s0.4,0.3,0.3,0.6c-0.1,0.3-0.3,0.4-0.6,0.4c-0.1,0-0.5-0.1-0.9-0.2
			c-1.1-0.3-2.2-0.1-3.2,0.4c0,0.5,2,1.6,4.1,2.4c0.3,0.1,0.4,0.3,0.3,0.6c-0.1,0.3-0.3,0.4-0.6,0.4c0,0-2.9-0.5-3.3,0.9
			c-0.1,0.2,0,0.4,0.1,0.6c0.7,0.6,1.6,1,2.6,1.1c0.2,0,0.4,0,0.5,0.1c0.3,0,0.5,0.3,0.4,0.6c0,0.3-0.3,0.5-0.6,0.4l-0.4-0.1
			c-1-0.1-1.9,0.4-2.3,1.2c0,0.1,0,0.1,0,0.2c0.5,0.9,4.5,1.6,7.2,1.8c0.1,0,0.2,0,0.3,0.1c0,0,3.3,2.9,10.8,6.9s28.3,8.7,38.5,7
			c1.7-0.2,3.1-1.2,3.8-2.8c4.6-9.7-12.4-40.1-12.6-40.4c-0.1-0.2,0-0.5,0.2-0.7c0.2-0.1,0.5,0,0.6,0.2c0.7,1.3,17.5,31.1,12.6,41.4
			c-0.8,1.8-2.5,3.1-4.5,3.3C335,144.9,333.2,145,331.4,145z"/>
		<path class="st0" d="M223.9,104c0,0-6-16-7.3-15.4s1,10.5,1,10.5s-9.6-10.4-10.8-9.8s-0.5,3.3,3.1,8.6c0,0-6.4-7.3-7.4-5.8
			s5.2,8.1,5.2,8.1s-6-6.3-6.9-5.1s5.7,7.9,5.7,7.9s-6.1-7.1-6.5-4.9s11.7,16.5,15.1,20.5"/>
		<path class="st1" d="M215.2,119c-0.1,0-0.3-0.1-0.4-0.2c-0.2-0.2-15.8-18-15.3-20.9c0-0.4,0.3-0.7,0.7-0.8c0.3-0.1,0.6,0,0.9,0.1
			c-0.7-1.1-1-2-0.6-2.5c0.1-0.2,0.4-0.4,0.7-0.4c0.7,0.1,1.4,0.4,1.9,0.8c-0.9-1.4-1.5-2.8-1-3.5c0.2-0.3,0.5-0.4,0.8-0.4
			c0.9-0.1,2.6,1.2,4.1,2.7c-1.3-2.5-1.3-3.5-1.2-4.1c0.1-0.4,0.4-0.8,0.8-1c1-0.5,4.4,2.3,10.2,8.5c-0.9-4.3-1.6-8.8-0.3-9.2
			c0.2-0.1,0.4-0.1,0.6,0c1.7,0.8,6.1,12.2,7.4,15.7c0.1,0.3-0.1,0.5-0.4,0.6c-0.2,0.1-0.5,0-0.6-0.3c-2.5-6.8-5.6-14-6.7-15
			c-0.3,0.9,0.4,5.7,1.4,9.8c0.1,0.2-0.1,0.4-0.2,0.6c-0.2,0.1-0.5,0.1-0.6-0.1c-4.3-4.7-9.2-9.4-10.3-9.7c-0.1,0.1-0.2,0.2-0.2,0.3
			c-0.2,0.7,0.3,2.7,3.6,7.5c0.2,0.2,0.1,0.5-0.1,0.7c-0.2,0.1-0.5,0.1-0.7-0.1c-2.9-3.3-5.9-6-6.6-5.9c-0.4,0.6,2,4.1,5.2,7.5l0,0
			l0,0c0.2,0.2,0.2,0.5,0,0.7s-0.5,0.2-0.7,0l0,0c-2.6-2.7-5.3-5-6-5c0,0.6,1.2,2.3,3,4.3c1,1,2,2.2,2.7,2.9c0.2,0.2,0.2,0.5,0,0.7
			s-0.5,0.2-0.7,0c-0.8-0.8-1.8-1.9-2.7-2.9c-1.4-1.4-2.6-2.3-3-2.3c-0.2,1.5,8.6,12.7,15.1,20.1c0.2,0.2,0.2,0.5-0.1,0.7
			C215.5,119,215.3,119,215.2,119z"/>
		<path class="st0" d="M217.5,99c-1.9,1.2-2.7,3.6-1.8,5.7"/>
		<path class="st1" d="M215.7,105.2c-0.2,0-0.4-0.1-0.5-0.3c-0.9-2.3-0.1-4.9,2-6.3c0.2-0.1,0.5-0.1,0.7,0.2l0,0
			c0.1,0.2,0.1,0.5-0.2,0.7c-1.7,1.1-2.4,3.2-1.6,5.1C216.2,104.9,216,105.1,215.7,105.2C215.8,105.2,215.8,105.2,215.7,105.2z"/>
		<path class="st0" d="M301.6,263.6l0.6,6.7h31.3c-3.1-2.4-6.5-4.5-10-6.3"/>
		<path class="st1" d="M333.5,270.9h-31.3c-0.3,0-0.5-0.2-0.5-0.5l-0.6-6.7c0-0.3,0.2-0.5,0.4-0.5l0,0c0.3,0,0.5,0.2,0.5,0.4l0,0
			l0.6,6.3h29.3c-2.8-2-5.7-3.8-8.7-5.3c-0.2-0.1-0.3-0.4-0.2-0.7c0.1-0.2,0.4-0.3,0.7-0.2c3.5,1.8,6.9,3.9,10,6.3
			c0.2,0.1,0.2,0.4,0.2,0.5C333.9,270.7,333.7,270.9,333.5,270.9z"/>
		<path class="st1" d="M359.6,270.8H57.8c-0.3,0-0.5-0.2-0.5-0.5s0.2-0.5,0.5-0.5h301.8c0.3,0,0.5,0.2,0.5,0.5
			S359.9,270.8,359.6,270.8z"/>
		<path class="st0" d="M300.1,176.5c-0.1,0-0.1,0-0.2,0l-15.8-5.6c-0.3-0.1-0.4-0.4-0.3-0.6c0.1-0.3,0.4-0.4,0.6-0.3l15.8,5.6
			c0.3,0,0.5,0.3,0.4,0.6C300.6,176.4,300.3,176.6,300.1,176.5L300.1,176.5L300.1,176.5z"/>
		<path class="st0" d="M262,161.1c-0.3,0-0.5-0.2-0.5-0.5s0.2-0.5,0.5-0.5c7-0.7,8.5-9.3,8.6-9.4c0-0.3,0.3-0.5,0.6-0.4
			c0.3,0.1,0.5,0.3,0.4,0.6C271.5,151,269.8,160.3,262,161.1L262,161.1z"/>
		<path class="st0" d="M317.5,161.1h-0.1c-3.8-1-6.4-4.5-6.4-8.4c0-0.3,0.2-0.5,0.5-0.5l0,0c0.3,0,0.5,0.2,0.5,0.5l0,0
			c-0.1,3.5,2.3,6.6,5.6,7.4c0.3,0,0.5,0.3,0.4,0.6S317.8,161.2,317.5,161.1L317.5,161.1z"/>
		<path class="st0" d="M293.8,63.2c0,0-3.5,3.7-3,4.6s2.5,0.7,2.5,0.7"/>
		<path class="st1" d="M292.9,69c-0.9,0.1-1.9-0.3-2.5-0.9c-0.6-1,1.3-3.4,3.1-5.2c0.2-0.2,0.5-0.2,0.7,0l0,0c0.2,0.2,0.2,0.5,0,0.7
			l0,0c-1.6,1.7-3,3.6-2.9,4c0.2,0.3,1.4,0.5,2,0.4c0.3,0,0.5,0.2,0.5,0.4c0,0.3-0.2,0.5-0.4,0.5l0,0L292.9,69z"/>
		<path class="st0" d="M292.2,71.4c0,0,3,1.6,4.4-1.3"/>
		<path class="st1" d="M293.9,72.3c-0.7,0-1.4-0.2-2-0.5c-0.2-0.1-0.3-0.4-0.2-0.7l0,0c0.1-0.2,0.4-0.3,0.7-0.2
			c0.7,0.4,1.5,0.4,2.3,0.2c0.6-0.2,1.1-0.7,1.4-1.4c0.1-0.2,0.5-0.3,0.7-0.2c0.2,0.1,0.3,0.4,0.2,0.6
			C296.5,71.5,295.3,72.4,293.9,72.3L293.9,72.3z"/>
		<ellipse transform="matrix(0.3733 -0.9277 0.9277 0.3733 127.8087 317.0222)" class="st1" cx="298.6" cy="63.9" rx="1" ry="0.7"/>
		<ellipse transform="matrix(0.3733 -0.9277 0.9277 0.3733 124.2805 309.4515)" class="st1" cx="291.2" cy="62.7" rx="1" ry="0.7"/>
		<g>
			<rect x="96.3" y="157.8" class="st3" width="21" height="18.5"/>
			<rect x="105.3" y="155.9" class="st4" width="2.4" height="3.7"/>
			<path class="st0" d="M106.5,163.7h-6.4c-0.3,0-0.5-0.2-0.5-0.5s0.2-0.5,0.5-0.5h6.4c0.3,0,0.5,0.2,0.5,0.5
				S106.8,163.7,106.5,163.7z"/>
			<path class="st0" d="M111.4,167.7h-11.2c-0.3,0-0.5-0.2-0.5-0.5s0.2-0.5,0.5-0.5h11.2c0.3,0,0.5,0.2,0.5,0.5
				S111.7,167.7,111.4,167.7z"/>
			<path class="st0" d="M114.1,163.8h-4.7c-0.3,0-0.5-0.2-0.5-0.5s0.2-0.5,0.5-0.5h4.7c0.3,0,0.5,0.2,0.5,0.5
				S114.3,163.8,114.1,163.8z"/>
		</g>
		<g>
			
				<rect x="180.1" y="74.9" transform="matrix(0.9628 -0.2702 0.2702 0.9628 -15.6445 54.6261)" class="st3" width="21" height="18.5"/>
			
				<rect x="186.6" y="73.4" transform="matrix(0.9628 -0.2702 0.2702 0.9628 -13.3473 53.5372)" class="st4" width="2.4" height="3.7"/>
			<path class="st0" d="M189.4,81l-6.1,1.7c-0.3,0.1-0.5-0.1-0.6-0.3c-0.1-0.3,0.1-0.5,0.3-0.6l6.1-1.7c0.3-0.1,0.5,0.1,0.6,0.3
				S189.7,80.9,189.4,81z"/>
			<path class="st0" d="M195.2,83.5l-10.8,3c-0.3,0.1-0.5-0.1-0.6-0.3c-0.1-0.3,0.1-0.5,0.3-0.6l10.8-3c0.3-0.1,0.5,0.1,0.6,0.3
				C195.6,83.2,195.5,83.5,195.2,83.5z"/>
			<path class="st0" d="M196.7,79.1l-4.5,1.3c-0.3,0.1-0.5-0.1-0.6-0.3c-0.1-0.3,0.1-0.5,0.3-0.6l4.5-1.3c0.3-0.1,0.5,0.1,0.6,0.3
				C197.1,78.8,197,79,196.7,79.1z"/>
		</g>
		<g>
			
				<rect x="199.2" y="53.9" transform="matrix(0.268 -0.9634 0.9634 0.268 90.5805 247.9864)" class="st3" width="18.5" height="21"/>
			
				<rect x="208.9" y="54.2" transform="matrix(0.268 -0.9634 0.9634 0.268 100.8688 243.577)" class="st4" width="3.7" height="2.4"/>
			<path class="st0" d="M209.2,61.2l-6.1-1.7c-0.3-0.1-0.4-0.3-0.3-0.6c0.1-0.3,0.3-0.4,0.6-0.3l6.1,1.7c0.3,0.1,0.4,0.3,0.3,0.6
				C209.7,61.1,209.4,61.2,209.2,61.2z"/>
			<path class="st0" d="M212.8,66.3l-10.8-3c-0.3-0.1-0.4-0.3-0.3-0.6c0.1-0.3,0.3-0.4,0.6-0.3l10.8,3c0.3,0.1,0.4,0.3,0.3,0.6
				S213.1,66.4,212.8,66.3z"/>
			<path class="st0" d="M216.4,63.3l-4.5-1.3c-0.3-0.1-0.4-0.3-0.3-0.6s0.3-0.4,0.6-0.3l4.5,1.3c0.3,0.1,0.4,0.3,0.3,0.6
				C216.9,63.2,216.6,63.4,216.4,63.3z"/>
		</g>
		<rect x="70.2" y="51.3" class="st3" width="18.5" height="16.3"/>
		<rect x="78.2" y="49.6" class="st4" width="2.2" height="3.3"/>
		<path class="st0" d="M85.6,56.5h-12c-0.2,0-0.3-0.2-0.3-0.3s0.2-0.3,0.3-0.3h12c0.2,0,0.3,0.2,0.3,0.3S85.8,56.5,85.6,56.5z"/>
		<path class="st0" d="M85.6,60h-12c-0.2,0-0.3-0.2-0.3-0.4c0-0.1,0.1-0.3,0.3-0.3h12c0.2,0,0.4,0.1,0.4,0.3S85.9,60,85.6,60
			C85.7,60,85.7,60,85.6,60z"/>
		<path class="st0" d="M81.3,63.5h-7.6c-0.2,0-0.3-0.2-0.3-0.3s0.2-0.3,0.3-0.3l0,0h7.6c0.2,0,0.3,0.2,0.3,0.3S81.5,63.5,81.3,63.5z
			"/>
		<g>
			<rect x="100.9" y="64.9" class="st5" width="21.1" height="21.1"/>
			<g>
				<rect x="119.1" y="62.1" class="st6" width="5.8" height="5.8"/>
				<rect x="119.2" y="83.1" class="st6" width="5.8" height="5.8"/>
			</g>
			<g>
				<rect x="98.8" y="62.1" class="st6" width="5.8" height="5.8"/>
				<rect x="98.8" y="83.1" class="st6" width="5.8" height="5.8"/>
			</g>
			<circle class="st3" cx="111.6" cy="75.5" r="7.2"/>
		</g>
		<g>
			<rect x="101" y="116.2" class="st5" width="21.1" height="21.1"/>
			<g>
				<rect x="119.2" y="113.3" class="st6" width="5.8" height="5.8"/>
				<rect x="119.1" y="134.4" class="st6" width="5.8" height="5.8"/>
			</g>
			<g>
				<rect x="98.8" y="113.3" class="st6" width="5.8" height="5.8"/>
				<rect x="98.8" y="134.4" class="st6" width="5.8" height="5.8"/>
			</g>
			<polygon class="st3" points="117,126.7 117,133 111.6,129.9 106.1,126.7 111.6,123.6 117,120.5 			"/>
		</g>
		<line class="st5" x1="111.6" y1="86" x2="111.6" y2="116.2"/>
	</g>
	<g>
		<path class="st7" d="M149.1,79.5h8.8v17.6h-8.8c-4.9,0-8.8-3.9-8.8-8.8C140.2,83.4,144.2,79.5,149.1,79.5z"/>
		<path class="st8" d="M149.1,97.1h8.8v17.6h-8.8c-4.9,0-8.8-3.9-8.8-8.8C140.2,101,144.2,97.1,149.1,97.1z"/>
		<path class="st9" d="M149.1,114.7h8.8v8.8c0,4.9-4,8.8-8.8,8.8c-4.9,0-8.8-3.9-8.8-8.8C140.2,118.6,144.2,114.7,149.1,114.7z"/>
		<path class="st10" d="M157.9,79.5h8.8c4.9,0,8.8,3.9,8.8,8.8s-4,8.8-8.8,8.8h-8.8V79.5L157.9,79.5z"/>
		<path class="st11" d="M166.7,114.7c4.9,0,8.8-3.9,8.8-8.8s-4-8.8-8.8-8.8s-8.8,3.9-8.8,8.8C157.9,110.7,161.9,114.7,166.7,114.7z"
			/>
	</g>
</g>
<g id="essentiel">
	<path class="st0" d="M125.5,220.5c0,0-6.6-0.1-13.7,12l-0.1,0.1l0-0.1c-3.2-16.7-16.3-27.2-16.3-27.2c-2.4,7.9-3.3,16.1-2.4,24.3
		c-3-2.7-6.4-4.9-10-6.5c-0.3,10.7,4,20.5,8,27.2h13l0,0h2.2h5.3h7.1C122.3,244.7,128.2,233.3,125.5,220.5z"/>
	<path class="st1" d="M126.3,220.3c-0.1-0.4-0.4-0.7-0.8-0.7c-0.3,0-6.5,0-13.4,10.7c-3.8-15.6-15.6-25.2-16.1-25.6
		c-0.2-0.2-0.5-0.2-0.8-0.2c-0.3,0.1-0.5,0.3-0.6,0.6c-2.3,7.3-3.1,15-2.6,22.6c-2.6-2.1-5.5-3.9-8.6-5.3c-0.3-0.1-0.6-0.1-0.8,0.1
		c-0.2,0.2-0.4,0.4-0.4,0.7c-0.3,10.7,4.1,20.7,7.9,27.2h-2l3.9,19.6h24.3l3.9-19.6h-0.6C123.5,244.4,129.1,233.1,126.3,220.3z
		 M124.9,221.5c2.2,11.9-3.1,22.5-6.7,28h-6.1c-0.2-0.1-0.4-0.1-0.6-0.1h-4.4c0.3-5.3,1.9-10.5,4.7-15.1c0.3-0.5,0.5-0.9,0.8-1.4
		C118,223.7,123.1,221.9,124.9,221.5z M95.8,206.9c3.1,2.8,12.3,12.1,15,25.5l-0.6,1.1c-3.8,7-4.8,12.4-4.8,16h-7.2
		c-2.1-6.3-3.5-12.8-4.2-19.5c0.1-0.2,0.1-0.5-0.1-0.7C93.1,221.7,93.8,214.1,95.8,206.9z M92.2,230.1c0.7,6.6,2.1,13.1,4.2,19.5
		h-4.8c-3.6-6.1-7.7-15.2-7.7-25.1C86.9,226,89.7,227.9,92.2,230.1z"/>
</g>
<g id="fondamental" class="st12">
	<g class="st13">
		<circle class="st3" cx="97.8" cy="190.2" r="6.5"/>
	</g>
	<path class="st14" d="M125.5,220.5c0,0-2.6,0-6.3,2.9c3.2-14.5-2-27.4-2-27.4c-5.6,5.3-10.1,11.6-13.4,18.6
		c-4.2-5.9-8.4-9.3-8.4-9.3c-2.4,7.9-3.3,16.1-2.4,24.3c-3-2.7-6.4-4.9-10-6.5c-0.3,10.7,4,20.5,8,27.2h13l0,0h2.2h5.3h7.1
		C122.3,244.7,128.2,233.3,125.5,220.5z"/>
	<path class="st15" d="M126.3,220.3c-0.1-0.4-0.4-0.7-0.8-0.7c-0.2,0-2.1,0-5,1.8c2.3-13.6-2.2-25.2-2.5-25.7
		c-0.1-0.3-0.3-0.5-0.6-0.5c-0.3-0.1-0.6,0-0.8,0.2c-5.1,4.8-9.4,10.5-12.6,16.8c-1.1-6-2.4-11.3-3.4-15.2c2.6-1.1,4.5-3.7,4.5-6.7
		c0-3.1-2-5.8-4.7-6.8c-0.5-0.2-1.1-0.3-1.6-0.4c-0.3-0.1-0.6-0.1-0.9-0.1c-4,0-7.3,3.3-7.3,7.3c0,3.7,2.8,6.8,6.4,7.2
		c0.3,0,0.6,0.1,0.9,0.1c0.4,0,0.8,0,1.2-0.1c0.9,3.6,2.1,8.3,3.1,13.5c-3.2-3.9-5.9-6.1-6.1-6.3c-0.2-0.2-0.5-0.2-0.8-0.2
		c-0.3,0.1-0.5,0.3-0.6,0.6c-2.3,7.3-3.2,15-2.6,22.6c-2.6-2.1-5.5-3.9-8.6-5.3c-0.3-0.1-0.6-0.1-0.8,0.1c-0.3,0.2-0.4,0.4-0.4,0.7
		c-0.3,10.7,4.1,20.7,7.9,27.2h-2l3.9,19.6h24.3l3.9-19.6h-0.6C123.5,244.4,129.1,233.1,126.3,220.3z M92.2,190.9
		c1.4-0.4,3-0.3,4.1-0.1c-0.1,0.6-0.1,1.1-0.1,1.7c0,1,0.1,2.1,0.3,3.2C94.2,195.2,92.5,193.2,92.2,190.9z M96.5,189.1
		C96.5,189.1,96.5,189.1,96.5,189.1c-1.1-0.2-2.7-0.3-4.2,0c0.3-1.3,1-2.4,1.9-3.2c1-0.8,2.2-1.3,3.6-1.3h0.1
		C97.4,185.7,96.8,187.3,96.5,189.1z M98.6,195.8c-0.1,0-0.2,0.1-0.4,0.1c-0.2-0.8-0.3-1.6-0.3-2.4c0,0,0,0,0,0
		c-0.1-1.2,0-2.3,0.1-3.3c0.3-2.3,1-4.1,1.6-5.3c2.2,0.8,3.8,2.9,3.8,5.3c0,2.3-1.3,4.2-3.3,5.1C99.7,195.6,99.1,195.7,98.6,195.8z
		 M116.8,197.6c1.2,3.5,4,13.9,1.6,25.4c-1.9,1.6-4.1,3.9-6.3,7.4c-1.5-6.3-4.4-11.7-7.3-15.8C107.8,208.2,111.8,202.5,116.8,197.6z
		 M91.6,249.6c-3.6-6.1-7.7-15.2-7.7-25.1c3,1.5,5.8,3.4,8.3,5.6c0.7,6.6,2.1,13.1,4.2,19.5H91.6z M105.9,244.7
		c-0.2,1-0.3,1.9-0.4,2.7c-0.1,0.7-0.1,1.4-0.1,2h-0.3h-1.7h-5.3c-2.1-6.3-3.5-12.8-4.2-19.5c0.1-0.3,0.1-0.5-0.1-0.8
		c-0.8-7.5-0.1-15.1,2-22.4c1.4,1.3,4.2,4,7,7.9c0,0,0,0,0,0c0.4,0.5,0.8,1.1,1.1,1.6c0.4,0.6,0.7,1.1,1.1,1.7
		c2.4,4,4.7,8.8,5.8,14.3l-0.6,1.1C107.8,237.8,106.5,241.6,105.9,244.7C105.9,244.7,105.9,244.7,105.9,244.7z M107.1,249.5
		L107.1,249.5c0.3-5.4,1.9-10.6,4.6-15.1c0.3-0.5,0.5-0.9,0.8-1.4c1.8-3,3.5-5.2,5-6.8c0.8-0.9,1.6-1.6,2.4-2.1
		c2.2-1.8,4-2.4,4.9-2.6c2.2,11.9-3.1,22.5-6.7,28H107.1z"/>
</g>
<g id="expert" class="st12">
	<path class="st14" d="M125.5,220.5c0,0-2.6,0-6.3,2.9c3.2-14.5-2-27.4-2-27.4c-5.6,5.3-10.1,11.6-13.4,18.6
		c-4.2-5.9-8.4-9.3-8.4-9.3c-2.4,7.9-3.3,16.1-2.4,24.3c-3-2.7-6.4-4.9-10-6.5c-0.3,10.7,4,20.5,8,27.2h13l0,0h2.2h5.3h7.1
		C122.3,244.7,128.2,233.3,125.5,220.5z"/>
	<path class="st15" d="M126.3,220.3c-0.1-0.4-0.4-0.7-0.8-0.7c-0.2,0-2.1,0-5,1.8c2.3-13.6-2.2-25.2-2.5-25.7
		c-0.1-0.3-0.3-0.5-0.6-0.5c-0.3-0.1-0.6,0-0.8,0.2c-4.9,4.6-9.1,10.1-12.2,16.1c-1.5-11.5-4.5-23.8-10.3-34l-1.5,0.8
		c5.7,10,8.6,21.9,10.1,33.1l-0.7-0.4c-3.2-3.9-5.9-6.1-6.1-6.3c-0.2-0.2-0.5-0.2-0.8-0.2c-0.3,0.1-0.5,0.3-0.6,0.6
		c-2.3,7.3-3.2,15-2.6,22.6c-2.6-2.1-5.5-3.9-8.6-5.3c-0.3-0.1-0.6-0.1-0.8,0.1c-0.3,0.2-0.4,0.4-0.4,0.7
		c-0.3,10.7,4.1,20.7,7.9,27.2h-2l3.9,19.6h24.3l3.9-19.6h-0.6C123.5,244.4,129.1,233.1,126.3,220.3z M116.8,197.6
		c1.2,3.5,4,13.9,1.6,25.4c-1.9,1.6-4.1,3.9-6.3,7.4c-1.5-6.3-4.4-11.6-7.2-15.8c0,0,0,0,0,0s0,0,0,0
		C107.8,208.2,111.9,202.5,116.8,197.6z M91.6,249.6c-3.6-6.1-7.7-15.2-7.7-25.1c3,1.5,5.8,3.4,8.3,5.6c0.7,6.6,2.1,13.1,4.2,19.5
		H91.6z M105.9,244.7c-0.2,1-0.3,1.9-0.4,2.7c-0.1,0.7-0.1,1.4-0.1,2H105h-1.7h-5.1c-2.1-6.3-3.5-12.8-4.2-19.5
		c0.1-0.3,0.1-0.5-0.1-0.8c-0.8-7.5-0.1-15.1,2-22.4c1.4,1.3,4.2,4,7,7.9c0,0,0,0,0,0c0.2,0.2,0.3,0.4,0.4,0.6
		c0.2,0.3,0.5,0.7,0.7,1c0.4,0.6,0.7,1.1,1.1,1.7c0.1,0.1,0.1,0.2,0.2,0.3c2.4,3.9,4.5,8.7,5.6,14l-0.6,1.1
		C107.8,237.8,106.5,241.6,105.9,244.7C105.9,244.7,105.9,244.7,105.9,244.7z M107.1,249.5L107.1,249.5c0.3-5.4,1.9-10.6,4.6-15.1
		c0.3-0.5,0.5-0.9,0.8-1.4c1.8-3,3.5-5.2,5-6.8c0.8-0.9,1.6-1.6,2.4-2.1c2.2-1.8,4-2.4,4.9-2.6c2.2,11.9-3.1,22.5-6.7,28H107.1z"/>
	<path class="st16" d="M114.5,177.8c0-1.3-2.9-2.4-6.9-2.8c3.6-1.9,5.9-4,5.4-5.2c-0.5-1.2-3.7-1.1-7.7,0.1c2.7-3.2,4-6.1,3.1-7
		c-0.9-0.9-3.7,0.4-6.9,2.9c1.2-3.9,1.3-7,0.1-7.5c-1.2-0.5-3.4,1.8-5.3,5.5c-0.4-4.1-1.5-7.1-2.8-7.1c-1.3,0-2.4,2.9-2.8,6.9
		c-1.9-3.6-4-5.9-5.2-5.4c-1.2,0.5-1.1,3.7,0.1,7.7c-3.2-2.7-6.1-4-7-3.1c-0.9,0.9,0.4,3.7,2.9,6.9c-3.9-1.2-7-1.3-7.5-0.1
		c-0.5,1.2,1.8,3.4,5.5,5.3c-4.1,0.4-7.1,1.5-7.1,2.8c0,1.3,2.9,2.4,6.9,2.8c-3.6,1.9-5.9,4-5.4,5.2c0.5,1.2,3.7,1.1,7.7-0.1
		c-2.7,3.2-4,6.1-3.1,7c0.9,0.9,3.7-0.4,6.9-2.9c-1.2,3.9-1.3,7-0.1,7.5c1.2,0.5,3.4-1.8,5.3-5.5c0.4,4.1,1.5,7.1,2.8,7.1
		c1.3,0,2.4-2.9,2.8-6.9c1.9,3.6,4,5.9,5.2,5.4c1.2-0.5,1.1-3.7-0.1-7.7c3.2,2.7,6.1,4,7,3.1c0.9-0.9-0.4-3.7-2.9-6.9
		c3.9,1.2,7,1.3,7.5,0.1c0.5-1.2-1.8-3.4-5.5-5.3C111.5,180.2,114.5,179.1,114.5,177.8z"/>
	<g class="st13">
		<g>
			<g>
				<path class="st1" d="M74.7,170c0.1-0.2,0.6-0.3,1.4-0.3c1.1,0,2.7,0.2,4.8,0.9c-0.6-0.7-1.1-1.4-1.6-2.1c-3-0.6-5.5-0.5-6.2,1
					c-0.6,1.5,1.1,3.4,3.8,5.2c0.9-0.2,1.7-0.3,2.7-0.4C76,172.2,74.5,170.4,74.7,170z"/>
			</g>
			<g>
				<path class="st1" d="M85,157.5c-1.5,0.6-1.6,3.2-1,6.3c0.7,0.5,1.4,1,2.1,1.6c-1.1-3.8-1-6.2-0.5-6.4c0,0,0.1,0,0.1,0
					c0.6,0,2.2,1.6,4,4.8c0.1-0.9,0.2-1.8,0.4-2.7C88.4,158.6,86.5,156.9,85,157.5z"/>
			</g>
			<g>
				<path class="st1" d="M101.8,157.6c-1.1-0.5-2.5,0.3-4.1,2.3c-0.4,0.4-0.7,0.9-1,1.5c0.2,0.8,0.3,1.7,0.4,2.6
					c0.7-1.2,1.3-2.2,2-3.1c1.2-1.5,2-1.8,2.1-1.8c0,0,0,0,0,0c0.1,0,0.5,0.7,0.2,2.8c-0.1,1-0.4,2.2-0.8,3.5
					c0.7-0.6,1.4-1.1,2.1-1.6c0.1-0.6,0.2-1.1,0.3-1.7C103.4,159.6,103,158.1,101.8,157.6z"/>
			</g>
			<g>
				<path class="st1" d="M113.6,169.5c-0.6-1.5-3.2-1.6-6.3-1c-0.5,0.7-1,1.4-1.6,2.1c3.8-1.1,6.2-1,6.3-0.5c0.2,0.4-1.3,2.2-4.8,4
					c0.9,0.1,1.8,0.2,2.6,0.4C112.5,172.9,114.2,171,113.6,169.5z"/>
			</g>
			<g>
				<path class="st1" d="M109.8,181.1c-0.9,0.2-1.8,0.3-2.7,0.4c3.5,1.9,5.1,3.7,4.9,4.2c-0.2,0.5-2.5,0.6-6.2-0.5
					c0.6,0.7,1.1,1.4,1.6,2.1c1.1,0.2,2.1,0.4,3,0.4c1.6,0,2.7-0.4,3.1-1.3C114.2,184.8,112.5,182.9,109.8,181.1z"/>
			</g>
			<g>
				<path class="st1" d="M102.6,191.8c-0.7-0.5-1.4-1.1-2.2-1.7c1.2,3.9,1,6.3,0.5,6.5c-0.4,0.2-2.2-1.3-4-4.7
					c-0.1,0.9-0.2,1.8-0.4,2.7c1.4,2.2,3,3.8,4.4,3.8c0.2,0,0.5,0,0.7-0.1C103.2,197.5,103.3,194.9,102.6,191.8z"/>
			</g>
			<g>
				<path class="st1" d="M89.7,191.5c-1.9,3.6-3.7,5.1-4.2,5c-0.4-0.2-0.6-2.5,0.5-6.2c-0.7,0.6-1.4,1.2-2.2,1.6
					c-0.6,3-0.5,5.5,1,6.1c0.2,0.1,0.4,0.1,0.7,0.1c1.4,0,3-1.6,4.5-3.9C89.9,193.4,89.8,192.4,89.7,191.5z"/>
			</g>
			<g>
				<path class="st1" d="M74.6,185.5c-0.2-0.4,1.3-2.2,4.8-4c-0.9-0.1-1.8-0.2-2.6-0.4c-2.6,1.7-4.3,3.5-3.7,5
					c0.4,1,1.6,1.4,3.2,1.4c0.9,0,2-0.1,3.2-0.4c0.5-0.7,1.1-1.4,1.7-2.2C77.2,186.1,74.8,185.9,74.6,185.5z"/>
			</g>
		</g>
		<g>
			<path class="st1" d="M115.3,177.8c0-2.6-5.9-3.8-11.4-3.8c-0.5,0-1,0-1.4,0c0.4-0.3,0.7-0.7,1-1c3.9-3.9,7.2-8.9,5.4-10.7
				c-1.8-1.8-6.9,1.5-10.7,5.4c-0.4,0.4-0.7,0.7-1,1c0-0.5,0-1,0-1.4c0-5.5-1.2-11.4-3.8-11.4c-2.6,0-3.8,5.9-3.8,11.4
				c0,0.5,0,1,0,1.4c-0.3-0.4-0.7-0.7-1-1c-3.9-3.9-8.9-7.2-10.7-5.4c-1.9,1.9,1.5,6.9,5.4,10.7c0.4,0.4,0.7,0.7,1,1
				c-0.5,0-1,0-1.4,0c-5.5,0-11.4,1.2-11.4,3.8c0,2.6,5.9,3.8,11.4,3.8c0.5,0,1,0,1.4,0c-0.4,0.3-0.7,0.7-1,1
				c-3.9,3.9-7.2,8.9-5.4,10.7c0.4,0.4,0.8,0.5,1.4,0.5c2.4,0,6.2-2.8,9.3-5.9c0.4-0.4,0.7-0.7,1-1c0,0.5,0,1,0,1.4
				c0,5.5,1.2,11.4,3.8,11.4c2.6,0,3.8-5.9,3.8-11.4c0-0.5,0-1,0-1.4c0.3,0.4,0.7,0.7,1,1c3.1,3.1,7,5.9,9.3,5.9
				c0.6,0,1.1-0.2,1.4-0.5c1.8-1.8-1.5-6.8-5.4-10.7c-0.4-0.4-0.7-0.7-1-1c0.5,0,1,0,1.4,0C109.4,181.6,115.3,180.4,115.3,177.8z
				 M100.4,179.8c-2-0.2-3.5-0.6-4.5-0.9c1,0.5,2.3,1.3,3.8,2.5c0.8,0.7,1.7,1.5,2.6,2.4c4.5,4.5,5.8,7.9,5.4,8.4
				c-0.4,0.5-3.9-0.9-8.4-5.3c-0.9-0.9-1.7-1.8-2.4-2.6c-1.2-1.5-2-2.7-2.5-3.7c0.4,1,0.7,2.5,0.9,4.4c0.1,1,0.2,2.2,0.2,3.5
				c0,6.3-1.5,9.7-2.1,9.7s-2.1-3.4-2.1-9.7c0-1.3,0.1-2.5,0.2-3.5c0.2-1.8,0.5-3.2,0.8-4.3c-0.5,1-1.3,2.2-2.4,3.6
				c-0.7,0.8-1.5,1.7-2.4,2.6c-4.5,4.5-7.9,5.8-8.4,5.3c-0.5-0.4,0.9-3.9,5.3-8.4c0.9-0.9,1.8-1.7,2.6-2.4c1.5-1.2,2.8-2,3.8-2.5
				c-1,0.4-2.5,0.7-4.4,0.9c-1.1,0.1-2.3,0.2-3.6,0.2c-6.3,0-9.7-1.5-9.7-2.1s3.4-2.1,9.7-2.1c1.3,0,2.5,0.1,3.6,0.2
				c1.9,0.2,3.4,0.5,4.5,0.9c-0.2-0.1-0.5-0.2-0.8-0.4c-1-0.5-2-1.3-3-2.1c-0.9-0.7-1.8-1.5-2.7-2.4c-4.5-4.5-5.8-7.9-5.3-8.4
				c0.1-0.1,0.1-0.1,0.3-0.1c1,0,4.2,1.5,8.1,5.4c0.9,0.9,1.7,1.8,2.4,2.6c1.2,1.5,2,2.7,2.5,3.7c-0.4-1-0.7-2.5-0.9-4.4
				c-0.1-1-0.2-2.2-0.2-3.5c0-6.3,1.5-9.7,2.1-9.7s2.1,3.4,2.1,9.7c0,1.3-0.1,2.5-0.2,3.5c-0.2,1.9-0.5,3.4-0.9,4.5
				c0.5-1,1.3-2.3,2.5-3.7c0.7-0.8,1.5-1.7,2.4-2.7c3.9-3.9,7.1-5.4,8.1-5.4c0.1,0,0.2,0,0.3,0.1c0.4,0.4-0.9,3.9-5.4,8.4
				c-0.9,0.9-1.8,1.7-2.7,2.4c-1.1,0.9-2.1,1.6-3,2.1c-0.3,0.2-0.5,0.3-0.8,0.4c1-0.4,2.5-0.7,4.5-0.9c1.1-0.1,2.3-0.2,3.6-0.2
				c6.3,0,9.7,1.5,9.7,2.1s-3.4,2.1-9.7,2.1C102.6,179.9,101.4,179.9,100.4,179.8z"/>
		</g>
	</g>
	<g class="st13">
		<circle class="st0" cx="93.4" cy="177.8" r="4.2"/>
		<path class="st1" d="M93.4,182.8c-1.6,0-3.3-0.8-4.2-2.3c-1.5-2.3-0.8-5.4,1.5-6.9c2.3-1.5,5.4-0.8,6.9,1.5v0
			c1.5,2.3,0.8,5.4-1.5,6.9C95.3,182.6,94.3,182.8,93.4,182.8z M93.4,174.5c-0.6,0-1.2,0.2-1.8,0.5c-1.5,1-2,3.1-1,4.6
			c1,1.5,3.1,2,4.6,1c1.5-1,2-3.1,1-4.6l0,0C95.6,175,94.5,174.5,93.4,174.5z"/>
	</g>
</g>
</svg>
