<?xml version="1.0" encoding="utf-8"?>
<!-- Generator: Adobe Illustrator 27.9.0, SVG Export Plug-In . SVG Version: 6.00 Build 0)  -->
<svg version="1.1" id="Calque_1" xmlns="http://www.w3.org/2000/svg" xmlns:xlink="http://www.w3.org/1999/xlink" x="0px" y="0px"
	 viewBox="0 0 750.5 562.9" style="enable-background:new 0 0 750.5 562.9;" xml:space="preserve">
<style type="text/css">
	.st0{fill:#231F20;}
	.st1{fill:#FFFFFF;}
	.st2{fill:#484948;}
	.st3{fill:#D1D3D4;}
	.st4{fill:#413000;}
	.st5{fill:#F05133;}
	.st6{display:none;}
	.st7{display:inline;fill:#FFFFFF;}
	.st8{display:inline;fill:#231F20;}
	.st9{display:inline;}
</style>
<g id="_342_teacher_flatline">
	<path class="st0" d="M717.1,77.4H279c-0.6,0-1.1,0.5-1.1,1.1v326.7c0,0.6,0.5,1.1,1.1,1.1h438.1c0.6,0,1.1-0.5,1.1-1.1V78.6
		C718.3,77.9,717.8,77.4,717.1,77.4z M716,404.1H280.2V79.7H716V404.1z"/>
	<rect x="280.2" y="79.7" class="st1" width="435.8" height="324.4"/>
	<path class="st1" d="M429.4,270.5c-6,0.8-29,17.6-34.9,18.7c0,0-10.2,10.2-22.4,21c6.5,11.3,11.9,23.1,16.1,35.4
		c10.6-11.7,19.9-23.4,22.7-26.7c2.3-3.2,4.9-6.2,7.6-9.1c4.2-3.9,9.7-6.7,14.3-10c5.2-3.3,9.5-7.9,12.6-13.2c1.3-2.1,1.8-4.5,1.6-7
		C446,273.6,434.7,269.8,429.4,270.5z"/>
	<path class="st0" d="M388.2,346.7H388c-0.4-0.1-0.7-0.3-0.9-0.7c-4.2-12.2-9.6-24-16-35.2c-0.3-0.5-0.2-1.1,0.2-1.4
		c12.1-10.6,22.3-20.9,22.4-21c0.2-0.2,0.4-0.3,0.6-0.3c2.7-0.5,9.6-4.8,16.4-8.9c7.8-4.8,15.3-9.4,18.6-9.8l0,0
		c5.7-0.7,17.7,3.1,18.8,10.1c0.3,2.7-0.3,5.4-1.7,7.7c-3.2,5.5-7.6,10.2-13,13.6c-1.7,1.2-3.5,2.3-5.2,3.4c-3.2,1.9-6.3,4-9.1,6.5
		c-1.8,1.8-3.5,3.8-5.1,6c-0.8,1-1.6,2.1-2.3,3l-1.8,2.3c-3.9,4.8-12,14.7-20.8,24.5C388.8,346.7,388.5,346.8,388.2,346.7z
		 M373.5,310.3c6,10.6,11.1,21.7,15.2,33.1c8.3-9.3,15.8-18.5,19.5-23l1.9-2.3c0.8-1,1.6-2,2.3-3c1.6-2.2,3.4-4.3,5.3-6.2
		c2.9-2.6,6-4.9,9.4-6.8c1.7-1.1,3.5-2.3,5.1-3.3c5-3.3,9.2-7.6,12.3-12.8c1.2-1.9,1.7-4.1,1.5-6.3c-0.8-5.3-11.6-8.8-16.3-8.2l0,0
		c-2.8,0.4-10.7,5.2-17.7,9.5c-7,4.3-13.6,8.3-16.8,9.1c-1.6,1.7-10.8,10.8-21.5,20.4V310.3z"/>
	<polygon class="st0" points="404.8,308.3 489.9,195.5 491.7,196.4 409.5,310.9 	"/>
	<path class="st0" d="M409.5,312c-0.2,0-0.4,0-0.5-0.1l-4.7-2.5c-0.3-0.2-0.5-0.4-0.6-0.8c-0.1-0.3,0-0.7,0.2-0.9L489,194.8
		c0.3-0.5,0.9-0.6,1.4-0.3l1.8,0.9c0.3,0.2,0.5,0.4,0.6,0.8c0.1,0.3,0,0.6-0.2,0.9l-82.2,114.5C410.2,311.8,409.9,312,409.5,312z
		 M406.5,307.9l2.7,1.5l74.4-103.5L406.5,307.9z"/>
	<path class="st1" d="M392.6,291c6.3-6.8,12.9-17.3,15.9-21.3c0.6-0.9,1.4-1.7,2.3-2.3c1.1-0.6,2.3-0.9,3.6-0.8
		c7.6-0.5,15.2,0.1,22.6,1.9c2.3,0.4,4.5,1.4,6.2,3.1c0.5,0.5,0.8,1.1,0.8,1.8c0,1.2-1.2,2.1-2.3,2.7c-3.6,1.7-7.4,2.6-11.4,2.8
		c-5.6,0.6-7.6-0.6-13.2-0.7c0.7,0,2.1,5.8,0.7,9.6c-1.6,3.6-3.9,6.8-6.8,9.5"/>
	<path class="st0" d="M411.2,298.5c-0.3,0-0.6-0.1-0.8-0.3c-0.4-0.4-0.4-1.2,0-1.6c0,0,0,0,0,0l0.2-0.2c2.7-2.5,4.9-5.5,6.3-8.8
		c0.8-2.7,0.7-5.6-0.3-8.3c-0.3-0.2-0.5-0.6-0.5-1c0-0.6,0.5-1.1,1.1-1.1c1.9,0,3.9,0.2,5.8,0.5c2.4,0.4,4.8,0.5,7.2,0.2
		c3.8-0.2,7.5-1.1,10.9-2.7c0.5-0.3,1.6-0.9,1.6-1.7c-0.1-0.4-0.3-0.8-0.5-1.1c-1.6-1.4-3.5-2.4-5.6-2.7c-7.3-1.7-14.8-2.4-22.2-1.9
		c-1.1,0-2.1,0.2-3.1,0.7c-0.7,0.5-1.4,1.2-1.9,1.9c-1,1.2-2.3,3.1-3.8,5.3c-3.8,5.6-7.9,11-12.3,16.1c-0.4,0.5-1.1,0.5-1.6,0.1
		c-0.5-0.4-0.5-1.1-0.1-1.6c4.4-5,8.4-10.4,12.1-15.9c1.5-2.3,2.8-4.1,3.8-5.4c1.4-2.3,3.9-3.6,6.6-3.5c7.7-0.5,15.4,0.2,22.9,1.9
		c2.6,0.4,5,1.6,6.8,3.4c0.7,0.7,1.1,1.6,1.1,2.6c0,1-0.5,2.5-2.8,3.7c-3.7,1.7-7.7,2.7-11.8,2.9c-2.6,0.3-5.2,0.2-7.8-0.3
		c-1.1-0.2-2.3-0.3-3.7-0.4c0.8,2.9,0.8,5.9,0,8.8c-1.6,3.6-3.9,6.9-6.8,9.6l-0.2,0.2C411.9,298.3,411.5,298.5,411.2,298.5z"/>
	<path class="st2" d="M273,246.7c0,0,32.3,109.5,42.3,104.3s68.6-56.5,68.6-56.5l25.7,34.1c0,0-78.3,124.5-103.3,111.2
		c-24.9-13.3-50.9-83.7-50.9-83.7L273,246.7z"/>
	<path class="st2" d="M111.6,340.6l-37.5-9.5c1.4-2.6,24.2-71.1,45.1-84.5c18-14.9,54-16.4,94.9-18c13.1-0.8,26.2,0.5,38.9,3.8
		c47.6,13.2,27,110.3,27,110.3s5.2,46.5,13.4,138.4c0,0-67,12.9-183.8,6.4C109.5,487.7,112.7,352.7,111.6,340.6z"/>
	<polygon class="st1" points="235.3,370.6 223.4,393.9 198.9,374.4 204.6,284.6 198.9,277.4 206.1,266.5 216,276.7 209.5,284.3 	"/>
	<path class="st1" d="M218.7,221.1l6.1,30.6c0,0-9.6,20.3-30,16.9c-20.4-3.4-24.4-18.7-24.4-18.7l-8.4-58.5c0,0-17.4-22-8.7-45.7
		c8.8-23.7,64-24.7,68.9,8.1c0,0,11.7,34.4,10.4,50S218.7,221.1,218.7,221.1z"/>
	<path class="st0" d="M199.3,270.1c-1.5,0-3-0.1-4.5-0.4c-20.9-3.5-25.2-18.8-25.3-19.5l-8.4-58.3c-1.9-2.6-17-23.9-8.6-46.5
		c3.9-10.4,18.6-19.9,39.4-17.7c13.6,1.4,29.2,9,31.8,26c0.4,1.2,11.7,34.6,10.4,50.4c-1.1,13.5-10.4,17.1-13.6,17.9l5.9,29.6
		c0.1,0.2,0.1,0.5,0,0.7C225.8,252.4,217.2,270.1,199.3,270.1z M186.5,129.7c-13.4,0-28,5.3-32.1,16.5c-8.5,22.7,8.3,44.4,8.5,44.6
		c0.1,0.2,0.2,0.3,0.2,0.5l8.4,58.5c0.1,0.5,4,14.5,23.5,17.7c18.2,3,27.3-13.3,28.7-15.9l-6-30.2c-0.1-0.3,0-0.6,0.2-0.9
		c0.2-0.3,0.5-0.4,0.8-0.5c0.5,0,11.8-1.5,12.9-16.1c1.3-15.3-10.2-49.3-10.3-49.7c-2-13.6-13.2-22.6-29.7-24.3
		C189.8,129.8,188.2,129.7,186.5,129.7L186.5,129.7z"/>
	<path class="st3" d="M233.1,199.2c0,0-2.1-6.2-24.8-2.3s-22,29-35.5,17.9c-13.5-11.1-6.3-30.7-7.7-48.9
		c-1.8-23.3-6.8-22.7-11.8-20.2c-17.6,8.6-12,45.3,12,78.1c8.5,11.6,61.4,33.2,68.4,1.7C237.7,208,233.1,199.2,233.1,199.2z"/>
	<path class="st0" d="M210.3,243c-18.2,0-40.4-11.1-45.9-18.5c-17-23.2-25.6-49.9-21.5-66.5c1.1-5.7,4.8-10.6,9.9-13.3
		c2-1.3,4.6-1.6,6.8-0.6c3.5,2,5.5,8.7,6.5,21.7c0.3,5.5,0.2,11-0.3,16.5c-0.8,12.4-1.5,24.2,7.6,31.6c1.5,1.6,3.6,2.5,5.8,2.5
		c2.5-0.3,4.5-2.9,7.3-6.2c4.2-5.3,10-12.4,21.4-14.4c22.2-3.9,25.6,1.8,26,2.9c0.4,1.1,4.5,9.9,0.7,27c-1.6,8.5-8.4,15.2-17,16.6
		C215.3,242.8,212.8,243,210.3,243z M157.2,145.7c-1.2,0.1-2.3,0.5-3.3,1c-4.6,2.4-7.8,6.8-8.7,11.8c-4,15.9,4.5,41.9,21.1,64.6
		c5.8,7.9,33.1,20.7,51.2,16.9c7.7-1.2,13.9-7.1,15.2-14.8c3.8-16.9-0.5-25.5-0.6-25.5l0,0c0-0.2-2.9-5.1-23.6-1.5
		c-10.6,1.8-15.9,8.4-20,13.6c-2.9,3.6-5.4,6.8-8.8,7.1c-2.8,0.1-5.5-1-7.5-3c-10-8.2-9.1-20.5-8.4-33.5c0.5-5.4,0.5-10.8,0.3-16.2
		c-0.9-11.7-2.7-18.4-5.4-19.9C158.2,145.9,157.7,145.7,157.2,145.7z"/>
	<path class="st1" d="M168.4,189.1c-1.5-3.9-4.6-7-8.4-8.7c-3-1.5-6.5-1.8-9.7-0.7c-5.1,1.9-6.6,6.8-5.5,11.7c0.4,2.1,1.1,4.1,2,6
		c4,7.8,13.6,11,21.4,7c0.1,0,0.2-0.1,0.3-0.1"/>
	<path class="st0" d="M160.9,207.1c-1.7,0-3.4-0.3-5.1-0.8c-4.4-1.4-8-4.4-10.1-8.5c-1-2-1.7-4.1-2.1-6.3c-1.3-6.1,1.1-11.1,6.3-13
		c3.5-1.2,7.3-0.9,10.6,0.8c4.2,1.8,7.5,5.1,9.1,9.3c0.2,0.6-0.1,1.2-0.7,1.4c0,0,0,0,0,0c-0.6,0.2-1.2-0.1-1.4-0.7c0,0,0,0,0,0
		c-1.4-3.6-4.3-6.5-7.8-8c-2.7-1.4-5.9-1.6-8.8-0.7c-4.1,1.5-5.9,5.4-4.8,10.4c0.4,2,1,3.9,1.9,5.7c3.8,7.3,12.7,10.1,20,6.3
		c0,0,0.1,0,0.1-0.1c0.6-0.3,1.3-0.1,1.5,0.5c0.3,0.6,0.1,1.3-0.5,1.5C166.6,206.5,163.8,207.2,160.9,207.1z"/>
	<path class="st0" d="M221.7,190.2c-0.6,0-1.2,0-1.7,0c-10.6-1-18.4-10.3-17.5-20.9l0,0c0.9-10.6,10.3-18.4,20.8-17.5
		c10.6,0.9,18.4,10.3,17.5,20.8C240,182.6,231.7,190.2,221.7,190.2L221.7,190.2z M204.8,169.5c-0.8,9.3,6.1,17.6,15.4,18.4
		c9.3,0.8,17.6-6.1,18.4-15.4c0.8-9.3-6.1-17.6-15.4-18.4C213.8,153.2,205.6,160.1,204.8,169.5C204.8,169.5,204.8,169.5,204.8,169.5
		z"/>
	<path class="st0" d="M183.8,191.9H182c-10.6-0.9-18.4-10.2-17.5-20.8c0,0,0,0,0,0h1.1h-1.1c1-10.6,10.3-18.4,20.9-17.5
		c10.6,1,18.3,10.4,17.3,21C201.8,184.4,193.6,191.9,183.8,191.9L183.8,191.9z M183.8,155.7c-9.4-0.1-17,7.3-17.2,16.7
		c-0.1,9,6.8,16.5,15.7,17.1c9.3,0.8,17.6-6,18.4-15.3c0.4-4.5-1-9-3.9-12.4c-2.9-3.5-7-5.6-11.5-6
		C184.7,155.7,184.2,155.7,183.8,155.7L183.8,155.7z"/>
	<path class="st0" d="M285.6,406.4c-0.6,0-1.1-0.4-1.1-1l-12.6-138.7c-0.1-0.6,0.4-1.2,1-1.2c0.6-0.1,1.2,0.4,1.2,1l12.6,138.7
		c0.1,0.6-0.4,1.2-1,1.2H285.6z"/>
	<path class="st0" d="M204.3,196c-1,0-2-0.1-3-0.2c-0.6-0.1-1-0.7-1-1.3c0.1-0.6,0.7-1,1.3-1c0,0,0,0,0,0c1.7,0.3,6.8,0.5,8.3-1.5
		c0.9-1.2-2.8-8-7.8-14.6c-0.4-0.5-0.3-1.2,0.2-1.6c0.5-0.4,1.2-0.3,1.6,0.2c3.2,4.1,10.3,14,7.9,17.3
		C210.2,195.5,206.8,196,204.3,196z"/>
	
		<ellipse transform="matrix(0.9997 -2.321080e-02 2.321080e-02 0.9997 -4.0227 4.4123)" class="st0" cx="188.1" cy="175.5" rx="2.6" ry="3.7"/>
	
		<ellipse transform="matrix(0.9485 -0.3168 0.3168 0.9485 -43.8276 76.2684)" class="st0" cx="212.6" cy="172.9" rx="2.6" ry="3.7"/>
	<path class="st0" d="M211.2,220c-5.2-0.1-10.3-1.9-14.4-5.2c-0.5-0.4-0.5-1.1-0.1-1.6s1.1-0.5,1.6-0.1c0.5,0.5,13.4,11.7,27.5-1.9
		c0.4-0.4,1.1-0.4,1.6,0c0,0,0,0,0,0c0.4,0.4,0.4,1.2,0,1.6c0,0,0,0,0,0C223.2,217.3,217.3,219.9,211.2,220z"/>
	<path class="st1" d="M225.1,411.4c0,0,33.7-4.2,42.6-2.3c13.9,3.7,26.2,11.8,35,23.2c1.8,2.1,3,4.6,3.5,7.3c0.5,2.8-0.8,5.5-3.1,7
		c-3,1.5-6.5-0.3-9.7-1.3c-7.2-2.4-15-1-22.5,0c-2.9,0.5-5.9,0.6-8.9,0.4c-6.8-0.8-12.6-4.8-18.8-7.5c-11.4-4.8-24.5-4.4-36.4-2.5"
		/>
	<path class="st0" d="M300.6,448.4c-2-0.1-4-0.6-5.9-1.4l-1.6-0.6c-6.2-2.1-13.1-1.1-19.8-0.3l-2.3,0.3c-3,0.5-6.1,0.6-9.1,0.3
		c-4.8-0.8-9.4-2.5-13.6-4.9c-1.8-0.9-3.7-1.9-5.5-2.6c-9.4-4-21.1-4.8-35.8-2.4c-0.6,0.1-1.2-0.3-1.3-1c-0.1-0.6,0.3-1.2,1-1.3
		c0,0,0,0,0,0c15.1-2.4,27.3-1.5,37,2.6c1.9,0.8,3.8,1.8,5.7,2.7c4,2.3,8.3,3.9,12.8,4.7c2.9,0.2,5.8,0.1,8.6-0.3l2.3-0.3
		c6.8-0.9,14.1-1.9,20.8,0.3l1.6,0.6c2.6,0.9,5.1,1.8,7.2,0.8c2-1.2,3-3.5,2.5-5.8c-0.5-2.5-1.7-4.9-3.3-6.8
		c-8.6-11.2-20.7-19.2-34.3-22.7c-8.6-1.9-41.9,2.2-42.2,2.3c-0.6,0.1-1.2-0.3-1.3-0.9c0,0,0,0,0-0.1c-0.1-0.6,0.4-1.2,1-1.3
		c1.4-0.2,34-4.2,43-2.3c14.2,3.7,26.7,12,35.7,23.7c1.9,2.3,3.2,4.9,3.8,7.8c0.6,3.2-0.9,6.5-3.8,8.2
		C302.7,448.1,301.7,448.4,300.6,448.4z"/>
	<path class="st2" d="M74.1,331.1c0,0-36.9,109.8-18.8,122.2s162.5,6.4,162.5,6.4l9.1-51.8c0,0-99.5,12.8-97,5.4
		c2.5-7.4,14.6-91,14.6-91L74.1,331.1z"/>
	<path class="st0" d="M260.6,450.8h233c2.4,0,4.4,2,4.4,4.4v0.2c0,2.4-2,4.4-4.4,4.4h-233c-2.4,0-4.4-2-4.4-4.4v-0.2
		C256.2,452.8,258.2,450.8,260.6,450.8z"/>
	<path class="st0" d="M493.6,461h-233c-3.1,0-5.7-2.5-5.7-5.7c0-3.1,2.5-5.7,5.7-5.7h233c3.1,0,5.7,2.5,5.7,5.7
		C499.3,458.4,496.8,461,493.6,461z M260.6,451.9c-1.8,0-3.3,1.5-3.3,3.3c-0.1,1.8,1.4,3.4,3.2,3.5c0,0,0.1,0,0.1,0h233
		c1.8,0,3.3-1.5,3.3-3.3c0.1-1.9-1.4-3.4-3.3-3.5c0,0,0,0-0.1,0H260.6z"/>
	<polygon class="st0" points="408.3,337.8 550.9,337.8 493.8,455.2 351.3,455.2 	"/>
	<path class="st0" d="M493.8,456.3H351.3c-0.4,0-0.7-0.2-1-0.5c-0.2-0.3-0.2-0.8,0-1.1l57-117.4c0.2-0.4,0.6-0.6,1-0.6h142.6
		c0.4,0,0.8,0.2,1,0.5c0.2,0.3,0.2,0.8,0,1.1l-57,117.4C494.7,456.1,494.3,456.3,493.8,456.3z M353.1,454h140l55.9-115.1H409
		L353.1,454z"/>
	<path class="st0" d="M226.9,409.1L226.9,409.1l-106.2-7.8c-0.3,0-0.6-0.2-0.8-0.5c-0.2-0.3-0.3-0.6-0.2-0.9l23.7-94.8
		c0.1-0.6,0.7-1,1.3-0.8c0,0,0,0,0,0c0.6,0.1,1,0.7,0.8,1.3c0,0,0,0,0,0.1L122.2,399l104.8,7.7c0.6,0,1.1,0.5,1.1,1.1
		S227.6,409,226.9,409.1L226.9,409.1z"/>
	<path class="st0" d="M177.2,460.9c-0.5,0-1-0.3-1.1-0.8c-0.2-0.6,0.2-1.2,0.8-1.4c0,0,0,0,0,0c0.3,0,30-8.4,42.9-14.6
		c0.6-0.3,1.2,0,1.5,0.5c0.3,0.6,0,1.2-0.5,1.5c0,0,0,0,0,0c-13,6.3-42,14.4-43.2,14.7L177.2,460.9z"/>
	<path class="st1" d="M35,459.7h582.2c6.1,0,11.1,5,11.1,11.1v14.7c0,6.1-5,11.1-11.1,11.1H35c-6.1,0-11.1-5-11.1-11.1v-14.7
		C24,464.7,28.9,459.7,35,459.7z"/>
	<path class="st0" d="M617.3,497.8H35.1c-6.7,0-12.2-5.4-12.2-12.2c0,0,0-0.1,0-0.1v-14.8c0-6.7,5.5-12.2,12.2-12.2l0,0h582.2
		c6.7,0,12.2,5.5,12.2,12.2v14.8C629.5,492.2,624,497.7,617.3,497.8C617.3,497.8,617.3,497.8,617.3,497.8z M35.1,460.9
		c-5.5,0-9.9,4.4-9.9,9.9l0,0v14.7c0,5.5,4.4,9.9,9.9,9.9h582.2c5.5,0,9.9-4.5,9.9-9.9v-14.8c0-5.5-4.4-9.9-9.9-9.9L35.1,460.9z"/>
	<g>
		<path class="st4" d="M534.5,167.6c-6,0-10.4,2.9-10.4,10c0,5.3,2.9,9,10.1,9c6.1,0,10.2-3.6,10.2-9.2
			C544.4,171,540.7,167.6,534.5,167.6L534.5,167.6z M522.6,217.6c-1.4,1.7-2.8,3.6-2.8,5.8c0,4.3,5.5,5.7,13.2,5.7
			c6.3,0,14.9-0.4,14.9-6.3c0-3.5-4.1-3.7-9.4-4L522.6,217.6L522.6,217.6z M554.8,167.9c2,2.5,4,6,4,11c0,12.1-9.5,19.1-23.2,19.1
			c-3.5,0-6.6-0.4-8.6-1l-3.6,5.8l10.7,0.7c18.8,1.2,29.9,1.7,29.9,16.2c0,12.5-11,19.6-29.9,19.6c-19.7,0-27.2-5-27.2-13.6
			c0-4.9,2.2-7.5,6-11.1c-3.6-1.5-4.8-4.2-4.8-7.2c0-2.4,1.2-4.6,3.2-6.6c2-2.1,4.1-4.1,6.7-6.5c-5.3-2.6-9.4-8.3-9.4-16.3
			c0-12.5,8.3-21.1,24.9-21.1c4.7,0,7.5,0.4,10,1.1h21.2v9.2L554.8,167.9"/>
		<path class="st4" d="M583.9,148.2c-6.2,0-9.8-3.6-9.8-9.8c0-6.2,3.6-9.6,9.8-9.6c6.3,0,9.9,3.4,9.9,9.6
			C593.8,144.6,590.2,148.2,583.9,148.2z M569.9,213.6V205l5.5-0.8c1.5-0.2,1.7-0.5,1.7-2.2v-32c0-1.2-0.3-2-1.4-2.3l-5.9-2.1
			l1.2-8.8h22.5V202c0,1.7,0.1,2,1.7,2.2l5.5,0.8v8.6L569.9,213.6"/>
		<path class="st4" d="M643.9,209.3c-4.7,2.3-11.5,4.3-17.7,4.3c-12.9,0-17.8-5.2-17.8-17.5v-28.5c0-0.7,0-1.1-0.9-1.1h-7.6v-9.7
			c9.6-1.1,13.4-5.9,14.6-17.7h10.3v15.5c0,0.8,0,1.1,0.9,1.1H641v10.9h-16.2v26c0,6.4,1.5,8.9,7.4,8.9c3,0,6.2-0.8,8.8-1.7
			L643.9,209.3"/>
		<path class="st5" d="M482.7,180.8L433,131c-2.9-2.9-7.5-2.9-10.4,0l-10.3,10.3l13.1,13.1c3-1,6.5-0.3,9,2.1c2.4,2.4,3.1,6,2.1,9
			l12.6,12.6c3.1-1.1,6.6-0.4,9,2.1c3.4,3.4,3.4,8.9,0,12.3c-3.4,3.4-8.9,3.4-12.3,0c-2.6-2.6-3.2-6.3-1.9-9.5L432,171.4l0,31
			c0.8,0.4,1.6,1,2.3,1.7c3.4,3.4,3.4,8.9,0,12.3c-3.4,3.4-8.9,3.4-12.3,0c-3.4-3.4-3.4-8.9,0-12.3c0.8-0.8,1.8-1.5,2.9-1.9v-31.3
			c-1-0.4-2-1.1-2.9-1.9c-2.6-2.6-3.2-6.4-1.9-9.5l-12.9-12.9l-34.1,34.1c-2.9,2.9-2.9,7.5,0,10.4l49.7,49.7c2.9,2.9,7.5,2.9,10.4,0
			l49.5-49.5C485.6,188.3,485.6,183.7,482.7,180.8"/>
	</g>
</g>
<g id="essentiel" class="st6">
	<path class="st7" d="M595.9,371.5c0,0-11.8-0.2-24.6,21.5l-0.1,0.2l0-0.1c-5.7-29.9-29.1-48.7-29.1-48.7
		c-4.4,14.1-5.8,28.9-4.3,43.6c-5.3-4.8-11.4-8.7-18-11.7c-0.5,19.1,7.2,36.7,14.4,48.7h23.3l0,0h3.9h9.5h12.7
		C590.3,414.9,600.8,394.4,595.9,371.5z"/>
	<path class="st8" d="M597.4,371.2c-0.2-0.7-0.8-1.2-1.5-1.2c-0.5,0-11.6,0-24,19.2c-6.8-28-27.9-45.2-28.9-46
		c-0.4-0.3-0.9-0.4-1.4-0.3c-0.5,0.1-0.9,0.5-1,1c-4.1,13.1-5.6,26.8-4.6,40.5c-4.7-3.8-9.9-7.1-15.5-9.6c-0.5-0.2-1-0.1-1.4,0.1
		c-0.4,0.3-0.7,0.7-0.7,1.3c-0.5,19.2,7.3,37,14.2,48.8H529l7,35.2h43.5l7-35.2h-1.1C592.3,414.4,602.4,394.1,597.4,371.2z
		 M594.8,373.3c4,21.3-5.5,40.3-12,50.2h-10.9c-0.3-0.1-0.7-0.2-1-0.1h-7.9c0.5-9.6,3.4-18.9,8.4-27c0.5-0.9,1-1.7,1.4-2.5
		C582.5,377.3,591.6,374,594.8,373.3z M542.7,347.1c5.5,5,22,21.8,26.8,45.8l-1.1,1.9c-6.9,12.5-8.5,22.2-8.6,28.6h-13
		c-3.8-11.3-6.3-23-7.5-34.9c0.2-0.4,0.1-0.9-0.1-1.3C537.9,373.8,539.1,360.1,542.7,347.1z M536.3,388.8
		c1.2,11.9,3.7,23.6,7.5,34.9h-8.6c-6.4-11-13.7-27.2-13.7-44.9C526.8,381.4,531.8,384.8,536.3,388.8z"/>
</g>
<g id="fondamental" class="st6">
	<g class="st9">
		<circle class="st2" cx="546.3" cy="317.3" r="11.6"/>
	</g>
	<path class="st7" d="M595.9,371.5c0,0-4.6-0.1-11.3,5.2c5.7-25.9-3.5-49-3.5-49c-10.1,9.5-18.2,20.8-24,33.4
		c-7.6-10.7-15.1-16.7-15.1-16.7c-4.4,14.1-5.8,28.9-4.3,43.6c-5.3-4.8-11.4-8.7-18-11.7c-0.5,19.1,7.2,36.7,14.4,48.7h23.3l0,0h3.9
		h9.5h12.7C590.3,414.9,600.8,394.4,595.9,371.5z"/>
	<path class="st8" d="M597.4,371.2c-0.2-0.7-0.8-1.2-1.5-1.2c-0.3,0-3.8,0-9,3.3c4.1-24.3-4-45.1-4.4-46.1c-0.2-0.5-0.6-0.8-1.1-0.9
		c-0.5-0.1-1,0-1.4,0.4c-9.2,8.7-16.9,18.8-22.5,30.1c-2-10.7-4.3-20.3-6.2-27.3c4.7-2,8-6.6,8-12.1c0-5.6-3.5-10.4-8.5-12.3
		c-0.9-0.4-1.9-0.6-2.9-0.7c-0.5-0.1-1.1-0.1-1.6-0.1c-7.2,0-13.1,5.9-13.1,13.1c0,6.7,5,12.2,11.5,13c0.5,0.1,1,0.1,1.6,0.1
		c0.7,0,1.5-0.1,2.2-0.2c1.7,6.4,3.7,14.8,5.6,24.3c-5.7-6.9-10.6-10.9-11-11.3c-0.4-0.3-0.9-0.4-1.4-0.3c-0.5,0.1-0.9,0.5-1,1
		c-4.1,13.1-5.7,26.9-4.6,40.5c-4.7-3.8-9.9-7.1-15.4-9.6c-0.5-0.2-1-0.1-1.4,0.1c-0.4,0.3-0.7,0.7-0.7,1.3
		c-0.5,19.2,7.3,37.1,14.2,48.8H529l7,35.2h43.5l7-35.2h-1.1C592.4,414.4,602.4,394.1,597.4,371.2z M536.2,318.4
		c2.5-0.7,5.4-0.4,7.3-0.1c-0.1,1-0.1,2-0.1,3.1c0,1.8,0.1,3.7,0.5,5.7C539.8,326.1,536.7,322.6,536.2,318.4z M544,315.3
		C544,315.3,544,315.3,544,315.3c-2-0.3-4.9-0.5-7.6,0c0.5-2.3,1.7-4.3,3.5-5.8c1.8-1.4,4-2.3,6.4-2.3h0.2
		C545.6,309.2,544.5,312,544,315.3z M547.6,327.3c-0.2,0.1-0.4,0.1-0.6,0.1c-0.3-1.5-0.5-2.9-0.6-4.3c0,0,0,0,0-0.1
		c-0.1-2.1,0-4,0.2-5.9c0.6-4,1.8-7.3,2.8-9.4c4,1.3,6.9,5.1,6.9,9.6c0,4-2.4,7.5-5.8,9.1C549.6,326.8,548.7,327.1,547.6,327.3z
		 M580.3,330.4c2.1,6.3,7.2,25,2.9,45.5c-3.4,2.8-7.3,7-11.3,13.2c-2.8-11.3-7.8-20.9-13-28.3C564.2,349.5,571.5,339.2,580.3,330.4z
		 M535.2,423.6c-6.4-11-13.7-27.2-13.7-44.9c5.4,2.7,10.4,6.1,14.9,10c1.2,11.9,3.7,23.6,7.5,34.9H535.2z M560.8,415
		c-0.4,1.8-0.6,3.4-0.7,4.9c-0.1,1.3-0.2,2.5-0.2,3.5h-0.5h-3.1h-9.4c-3.8-11.3-6.3-23-7.5-34.9c0.1-0.4,0.1-0.9-0.1-1.3
		c-1.3-13.5-0.2-27.1,3.5-40.1c2.5,2.3,7.5,7.2,12.5,14.2c0,0,0,0,0,0c0.7,0.9,1.3,1.9,2,2.9c0.7,1,1.3,2,1.9,3.1
		c4.4,7.1,8.4,15.8,10.3,25.7l-1.1,1.9c-4.3,7.8-6.6,14.5-7.7,20C560.8,414.9,560.8,415,560.8,415z M563,423.5L563,423.5
		c0.4-9.7,3.3-19,8.3-27.1c0.5-0.9,1-1.7,1.4-2.5c3.1-5.3,6.2-9.3,9-12.2c1.5-1.5,2.9-2.8,4.2-3.8c4-3.2,7.2-4.2,8.8-4.6
		c4,21.3-5.5,40.3-12,50.2H563z"/>
</g>
<g id="expert">
	<path class="st1" d="M595.9,371.5c0,0-4.6-0.1-11.3,5.2c5.7-25.9-3.5-49-3.5-49c-10.1,9.5-18.2,20.8-24,33.4
		c-7.6-10.7-15.1-16.7-15.1-16.7c-4.4,14.1-5.8,28.9-4.3,43.6c-5.3-4.8-11.4-8.7-18-11.7c-0.5,19.1,7.2,36.7,14.4,48.7h23.3l0,0h3.9
		h9.5h12.7C590.3,414.9,600.8,394.4,595.9,371.5z"/>
	<path class="st0" d="M597.4,371.2c-0.2-0.7-0.8-1.2-1.5-1.2c-0.3,0-3.8,0-9,3.3c4.1-24.3-4-45.1-4.4-46.1c-0.2-0.5-0.6-0.8-1.1-0.9
		c-0.5-0.1-1,0-1.4,0.4c-8.9,8.3-16.2,18-21.8,28.8c-2.7-20.6-8.1-42.6-18.5-61l-2.6,1.5c10.1,17.9,15.5,39.3,18.1,59.4l-1.2-0.7
		c-5.7-6.9-10.6-10.9-11-11.3c-0.4-0.3-0.9-0.4-1.4-0.3c-0.5,0.1-0.9,0.5-1,1c-4.1,13.1-5.7,26.9-4.6,40.5
		c-4.7-3.8-9.9-7.1-15.4-9.6c-0.5-0.2-1-0.1-1.4,0.1c-0.4,0.3-0.7,0.7-0.7,1.3c-0.5,19.2,7.3,37.1,14.2,48.8H529l7,35.2h43.5l7-35.2
		h-1.1C592.4,414.4,602.4,394.1,597.4,371.2z M580.3,330.4c2.1,6.3,7.2,25,2.9,45.5c-3.4,2.8-7.3,7-11.3,13.2
		c-2.8-11.3-7.8-20.8-13-28.3c0,0,0,0,0-0.1c0,0,0,0,0-0.1C564.2,349.5,571.5,339.2,580.3,330.4z M535.2,423.6
		c-6.4-11-13.7-27.2-13.7-44.9c5.4,2.7,10.4,6.1,14.9,10c1.2,11.9,3.7,23.6,7.5,34.9H535.2z M560.8,415c-0.4,1.8-0.6,3.4-0.7,4.9
		c-0.1,1.3-0.2,2.5-0.2,3.5h-0.7h-3h-9.2c-3.8-11.3-6.3-23-7.5-34.9c0.1-0.4,0.1-0.9-0.1-1.3c-1.3-13.5-0.2-27.1,3.5-40.1
		c2.5,2.3,7.5,7.2,12.5,14.2c0,0,0,0,0,0c0.3,0.3,0.5,0.7,0.7,1c0.4,0.6,0.8,1.2,1.3,1.8c0.7,1,1.3,2,1.9,3.1
		c0.1,0.2,0.2,0.3,0.3,0.5c4.3,7,8.1,15.5,10,25.2l-1.1,1.9c-4.3,7.8-6.6,14.5-7.7,20C560.8,414.9,560.8,415,560.8,415z M563,423.5
		L563,423.5c0.4-9.7,3.3-19,8.3-27.1c0.5-0.9,1-1.7,1.4-2.5c3.1-5.3,6.2-9.3,9-12.2c1.5-1.5,2.9-2.8,4.2-3.8c4-3.2,7.2-4.2,8.8-4.6
		c4,21.3-5.5,40.3-12,50.2H563z"/>
	<path class="st2" d="M576.2,295c0-2.3-5.2-4.2-12.4-5c6.4-3.4,10.5-7.2,9.6-9.3c-0.9-2.2-6.6-2-13.8,0.2c4.8-5.8,7.2-11,5.5-12.6
		c-1.6-1.6-6.7,0.7-12.3,5.3c2.1-7,2.3-12.5,0.2-13.4c-2.2-0.9-6,3.3-9.6,9.9c-0.7-7.4-2.7-12.8-5-12.8c-2.3,0-4.2,5.2-5,12.4
		c-3.4-6.4-7.2-10.5-9.3-9.6c-2.2,0.9-2,6.6,0.2,13.8c-5.8-4.8-11-7.2-12.6-5.5c-1.6,1.6,0.7,6.7,5.3,12.3c-7-2.1-12.5-2.3-13.4-0.2
		c-0.9,2.2,3.3,6,9.9,9.6c-7.4,0.7-12.8,2.7-12.8,5c0,2.3,5.2,4.2,12.4,5c-6.4,3.4-10.5,7.2-9.6,9.3c0.9,2.2,6.6,2,13.8-0.2
		c-4.8,5.8-7.2,11-5.5,12.6c1.6,1.6,6.7-0.7,12.3-5.3c-2.1,7-2.3,12.5-0.2,13.4c2.2,0.9,6-3.3,9.6-9.9c0.7,7.4,2.7,12.8,5,12.8
		c2.3,0,4.2-5.2,5-12.4c3.4,6.4,7.2,10.5,9.3,9.6c2.2-0.9,2-6.6-0.2-13.8c5.8,4.8,11,7.2,12.6,5.5c1.6-1.6-0.7-6.7-5.3-12.3
		c7,2.1,12.5,2.3,13.4,0.2c0.9-2.2-3.3-6-9.9-9.6C570.8,299.4,576.2,297.4,576.2,295z"/>
	<g>
		<g>
			<g>
				<path class="st0" d="M504.8,281c0.1-0.4,1-0.6,2.5-0.6c1.9,0,4.9,0.4,8.7,1.5c-1-1.3-2-2.6-2.9-3.8c-5.4-1.1-9.9-1-11.1,1.7
					c-1.1,2.7,2,6.2,6.8,9.3c1.5-0.3,3.1-0.5,4.8-0.6C507.3,285,504.5,281.8,504.8,281z"/>
			</g>
			<g>
				<path class="st0" d="M523.4,258.6c-2.7,1.1-2.9,5.7-1.8,11.3c1.3,0.9,2.5,1.9,3.8,2.9c-2-6.9-1.7-11.1-0.9-11.4
					c0.1,0,0.1,0,0.1,0c1,0,4,2.8,7.2,8.7c0.1-1.6,0.4-3.3,0.6-4.8C529.4,260.6,526.1,257.5,523.4,258.6z"/>
			</g>
			<g>
				<path class="st0" d="M553.5,258.8c-2-0.9-4.5,0.5-7.4,4.1c-0.6,0.8-1.3,1.6-1.9,2.6c0.3,1.5,0.5,3.1,0.6,4.7
					c1.2-2.1,2.4-4,3.6-5.5c2.2-2.8,3.5-3.2,3.8-3.2c0,0,0.1,0,0.1,0c0.2,0.1,0.9,1.2,0.4,5c-0.2,1.9-0.7,4-1.3,6.2
					c1.3-1,2.5-2,3.8-2.9c0.2-1,0.4-2,0.5-3C556.3,262.3,555.5,259.6,553.5,258.8z"/>
			</g>
			<g>
				<path class="st0" d="M574.7,280.1c-1.1-2.7-5.7-2.9-11.2-1.8c-0.9,1.3-1.9,2.5-2.9,3.8c6.9-2,11-1.7,11.4-0.9
					c0.3,0.8-2.4,3.9-8.6,7.2c1.6,0.1,3.2,0.4,4.7,0.6C572.7,286.1,575.8,282.8,574.7,280.1z"/>
			</g>
			<g>
				<path class="st0" d="M567.8,300.9c-1.5,0.3-3.1,0.5-4.8,0.6c6.3,3.5,9.1,6.6,8.8,7.5c-0.3,0.8-4.4,1.1-11.1-0.9
					c1,1.3,2,2.5,2.8,3.8c2,0.4,3.8,0.7,5.4,0.7c2.8,0,4.8-0.7,5.5-2.4C575.7,307.5,572.6,304.1,567.8,300.9z"/>
			</g>
			<g>
				<path class="st0" d="M555,320c-1.3-0.9-2.6-1.9-3.9-3c2.1,7,1.8,11.3,1,11.6c-0.8,0.3-3.9-2.4-7.2-8.5c-0.1,1.6-0.4,3.3-0.7,4.8
					c2.6,4,5.4,6.7,7.8,6.7c0.4,0,0.8-0.1,1.2-0.2C555.9,330.3,556.1,325.6,555,320z"/>
			</g>
			<g>
				<path class="st0" d="M531.8,319.6c-3.5,6.4-6.7,9.2-7.5,8.9c-0.8-0.3-1-4.4,0.9-11.1c-1.3,1.1-2.6,2.1-3.9,2.9
					c-1.1,5.4-0.9,9.8,1.8,10.9c0.4,0.2,0.7,0.2,1.2,0.2c2.5,0,5.4-2.9,8.1-7.1C532.1,322.9,531.9,321.2,531.8,319.6z"/>
			</g>
			<g>
				<path class="st0" d="M504.7,308.8c-0.3-0.8,2.4-3.9,8.5-7.2c-1.6-0.1-3.2-0.4-4.7-0.7c-4.7,3-7.7,6.3-6.6,9
					c0.7,1.7,2.8,2.5,5.7,2.5c1.7,0,3.6-0.2,5.7-0.7c0.9-1.3,1.9-2.6,3-3.9C509.3,309.9,505,309.6,504.7,308.8z"/>
			</g>
		</g>
		<g>
			<path class="st0" d="M577.6,295c0-4.7-10.6-6.8-20.4-6.8c-0.9,0-1.7,0-2.6,0.1c0.6-0.6,1.2-1.2,1.9-1.8
				c6.9-6.9,12.9-15.9,9.6-19.3c-3.3-3.3-12.3,2.7-19.3,9.6c-0.6,0.6-1.2,1.2-1.8,1.9c0-0.9,0.1-1.7,0.1-2.6
				c0-9.8-2.1-20.4-6.8-20.4c-4.7,0-6.8,10.6-6.8,20.4c0,0.9,0,1.7,0.1,2.6c-0.6-0.6-1.2-1.2-1.8-1.9c-6.9-6.9-15.9-12.9-19.2-9.6
				s2.7,12.3,9.6,19.3c0.6,0.6,1.2,1.2,1.9,1.8c-0.9,0-1.7-0.1-2.6-0.1c-9.8,0-20.4,2.1-20.4,6.8c0,4.7,10.6,6.8,20.4,6.8
				c0.9,0,1.7,0,2.6-0.1c-0.6,0.6-1.2,1.2-1.9,1.8c-6.9,6.9-12.9,15.9-9.6,19.2c0.7,0.7,1.5,1,2.5,1c4.2,0,11.1-5,16.7-10.6
				c0.6-0.6,1.2-1.2,1.8-1.9c0,0.9-0.1,1.7-0.1,2.6c0,9.8,2.2,20.4,6.8,20.4c4.7,0,6.8-10.6,6.8-20.4c0-0.9,0-1.7-0.1-2.6
				c0.6,0.6,1.2,1.2,1.8,1.9c5.6,5.6,12.5,10.6,16.7,10.6c1,0,1.9-0.3,2.5-1c3.3-3.3-2.7-12.3-9.6-19.2c-0.6-0.6-1.2-1.2-1.9-1.8
				c0.9,0,1.7,0.1,2.6,0.1C567.1,301.8,577.6,299.7,577.6,295z M550.9,298.5c-3.5-0.4-6.2-1-8.1-1.6c1.8,0.8,4.1,2.3,6.9,4.5
				c1.5,1.2,3.1,2.6,4.7,4.3c8,8,10.4,14.2,9.6,15c-0.8,0.8-7-1.6-15-9.6c-1.7-1.7-3.1-3.3-4.3-4.7c-2.1-2.6-3.6-4.9-4.4-6.6
				c0.6,1.9,1.2,4.5,1.6,7.9c0.2,1.9,0.3,4,0.3,6.3c0,11.3-2.7,17.4-3.8,17.4s-3.8-6.1-3.8-17.4c0-2.3,0.1-4.5,0.3-6.3
				c0.3-3.2,0.9-5.8,1.5-7.7c-0.9,1.7-2.3,3.9-4.3,6.5c-1.2,1.5-2.6,3.1-4.3,4.7c-8,8-14.2,10.4-15,9.6c-0.8-0.8,1.6-7,9.6-15
				c1.7-1.7,3.3-3.1,4.7-4.3c2.7-2.2,5-3.6,6.8-4.5c-1.9,0.7-4.5,1.3-8,1.6c-1.9,0.2-4,0.3-6.4,0.3c-11.3,0-17.4-2.7-17.4-3.8
				s6.1-3.8,17.4-3.8c2.3,0,4.5,0.1,6.4,0.3c3.5,0.3,6.2,1,8,1.6c-0.4-0.2-0.8-0.4-1.3-0.7c-1.7-1-3.6-2.2-5.4-3.8
				c-1.6-1.3-3.2-2.7-4.8-4.3c-8-8-10.4-14.2-9.6-15c0.1-0.1,0.2-0.1,0.5-0.1c1.8,0,7.5,2.7,14.5,9.8c1.7,1.7,3.1,3.3,4.3,4.7
				c2.2,2.6,3.6,4.9,4.4,6.6c-0.6-1.9-1.2-4.5-1.6-7.9c-0.2-1.9-0.3-4-0.3-6.3c0-11.3,2.7-17.4,3.8-17.4s3.8,6.1,3.8,17.4
				c0,2.3-0.1,4.5-0.3,6.3c-0.4,3.5-1,6.1-1.6,8c0.9-1.7,2.3-4,4.5-6.7c1.2-1.5,2.6-3.1,4.3-4.8c7.1-7.1,12.7-9.8,14.5-9.8
				c0.2,0,0.4,0.1,0.5,0.1c0.8,0.8-1.6,7-9.6,15c-1.6,1.6-3.2,3-4.8,4.3c-1.9,1.6-3.7,2.8-5.4,3.8c-0.5,0.3-1,0.5-1.3,0.7
				c1.9-0.7,4.6-1.3,8-1.6c1.9-0.2,4-0.3,6.4-0.3c11.3,0,17.4,2.7,17.4,3.8s-6.1,3.8-17.4,3.8C554.9,298.8,552.8,298.7,550.9,298.5z
				"/>
		</g>
	</g>
	<g>
		<circle class="st1" cx="538.4" cy="295" r="7.5"/>
		<path class="st0" d="M538.4,304c-2.9,0-5.8-1.4-7.5-4.1c-2.7-4.1-1.5-9.7,2.7-12.4c4.2-2.7,9.7-1.5,12.4,2.7v0
			c2.7,4.1,1.5,9.7-2.7,12.4C541.7,303.5,540.1,304,538.4,304z M538.4,289.1c-1.1,0-2.2,0.3-3.2,0.9c-2.8,1.8-3.6,5.5-1.8,8.2
			c1.8,2.8,5.5,3.6,8.2,1.8c2.8-1.8,3.6-5.5,1.8-8.2l0,0C542.3,290,540.3,289.1,538.4,289.1z"/>
	</g>
</g>
</svg>
