<?xml version="1.0" encoding="utf-8"?>
<!-- Generator: Adobe Illustrator 28.1.0, SVG Export Plug-In . SVG Version: 6.00 Build 0)  -->
<svg version="1.1" id="Calque_1" xmlns="http://www.w3.org/2000/svg" xmlns:xlink="http://www.w3.org/1999/xlink" x="0px" y="0px"
	 viewBox="0 0 400 300" style="enable-background:new 0 0 400 300;" xml:space="preserve">
<style type="text/css">
	.st0{fill:#231F20;}
	.st1{fill:#FFFFFF;}
	.st2{fill:none;}
	.st3{fill:#484948;}
	.st4{fill:#010002;}
	.st5{fill:url(#GRADLEPHANT_00000023994323585716874060000001113163099602849158_);}
	.st6{fill:#D1D3D4;}
	.st7{fill:#68E1FD;}
</style>
<g id="_566_team_presentation_flatline">
	<path class="st0" d="M138.5,249.2c0,0-5.5,8.5-6.5,16.6h51.7c-1.3-3-3.8-5.3-6.8-6.5c-5.2-2-16.4-2.9-18.3-5
		c-1.1-1.5-1.7-3.3-1.5-5.2L138.5,249.2L138.5,249.2z"/>
	<path class="st0" d="M183.6,266.2h-51.7c-0.1,0-0.2-0.1-0.3-0.1c-0.1-0.1-0.1-0.2-0.1-0.4c1.1-8.1,6.6-16.7,6.6-16.8
		c0.1-0.1,0.2-0.2,0.4-0.2H157c0.1,0,0.2,0.1,0.3,0.1c0.1,0.1,0.1,0.2,0.1,0.3c-0.2,1.7,0.3,3.4,1.4,4.8c1,1.1,5.2,1.9,9.3,2.7
		c3,0.5,5.9,1.2,8.8,2.1c3.2,1.2,5.8,3.6,7.1,6.7c0.1,0.1,0,0.3-0.1,0.4C183.9,266.2,183.7,266.2,183.6,266.2L183.6,266.2z
		 M132.4,265.4h50.5c-1.3-2.6-3.6-4.6-6.3-5.6c-2.8-0.9-5.7-1.6-8.7-2.1c-4.6-0.9-8.6-1.7-9.8-3c-1.1-1.4-1.7-3.2-1.6-5h-17.9
		C137.9,250.9,133.5,258.3,132.4,265.4z"/>
	<polygon class="st1" points="139.8,243.6 138.5,249.2 157,249.2 157.6,242.2 	"/>
	<path class="st0" d="M157,249.7h-18.5c-0.3,0-0.5-0.2-0.5-0.5c0,0,0-0.1,0-0.1l1.4-5.6c0.1-0.2,0.2-0.4,0.4-0.4l17.8-1.4
		c0.1,0,0.3,0,0.4,0.1c0.1,0.1,0.2,0.2,0.1,0.4l-0.6,6.9C157.5,249.5,157.3,249.7,157,249.7L157,249.7z M139.1,248.7h17.5l0.5-5.9
		l-16.8,1.3L139.1,248.7L139.1,248.7z"/>
	<line class="st2" x1="109.2" y1="193.2" x2="121.2" y2="265.8"/>
	<path class="st0" d="M121.2,266.3c-0.2,0-0.5-0.2-0.5-0.4l-12-72.6c-0.1-0.3,0.1-0.5,0.4-0.6c0,0,0,0,0,0c0.3-0.1,0.5,0.1,0.6,0.4
		c0,0,0,0,0,0l12,72.6C121.7,266,121.5,266.2,121.2,266.3L121.2,266.3L121.2,266.3z"/>
	<line class="st2" x1="96" y1="193.2" x2="83.7" y2="265.8"/>
	<path class="st0" d="M83.7,266.3L83.7,266.3c-0.3,0-0.5-0.3-0.5-0.6v0l12.2-72.6c0.1-0.3,0.3-0.4,0.6-0.4c0.3,0,0.4,0.3,0.4,0.6
		c0,0,0,0,0,0l-12.2,72.6C84.2,266.1,84,266.3,83.7,266.3z"/>
	<path class="st0" d="M155.2,177.6c0,0,9.1-10.7,14.3-6.6S159,245.5,159,245.5h-21.1c0,0,2.1-43.7,4.7-52S155.2,177.6,155.2,177.6
		L155.2,177.6z"/>
	<path class="st0" d="M159,246h-21.1c-0.1,0-0.2-0.1-0.3-0.1c-0.1-0.1-0.1-0.2-0.1-0.3c0.1-1.8,2.2-43.8,4.7-52.1s12-15.5,12.8-16.1
		c0.7-0.8,9.5-10.9,14.9-6.7s-8.8,67.8-10.4,75C159.4,245.8,159.2,246,159,246z M138.4,245.1h20.3c6.3-28.2,14.4-70.9,10.7-73.8
		c-4.9-3.8-13.6,6.5-13.7,6.6l-0.1,0.1c-0.1,0.1-10.1,7.6-12.5,15.7C140.6,201.4,138.6,240.4,138.4,245.1L138.4,245.1L138.4,245.1z
		 M155.3,177.6L155.3,177.6z"/>
	<path class="st1" d="M107.7,242.8c-1.5,1.7-2.6,3.7-3.2,5.9h18.6l2.4-5.9C125.5,242.8,107.6,242.8,107.7,242.8z"/>
	<path class="st0" d="M123.1,249.2h-18.6c-0.2,0-0.3-0.1-0.4-0.2c-0.1-0.1-0.1-0.3-0.1-0.4c0.6-2.3,1.7-4.4,3.3-6.1
		c0.1-0.1,0.2-0.2,0.4-0.2h17.9c0.2,0,0.3,0.1,0.4,0.2c0.1,0.1,0.1,0.3,0,0.5l-2.4,5.9C123.5,249,123.3,249.1,123.1,249.2z
		 M105.1,248.2h17.7l2-4.9h-16.9C106.7,244.7,105.7,246.4,105.1,248.2L105.1,248.2L105.1,248.2z"/>
	<path class="st0" d="M89.3,177.2c0,0-0.7,7.9,7.5,13.4s36,2.6,36,2.6l-27.5,49.3l23.6,1.9c0,0,33.4-55.1,32.9-64.3
		s-14.2-10.9-14.2-10.9H91.9L89.3,177.2L89.3,177.2z"/>
	<path class="st0" d="M128.9,245L128.9,245l-23.6-2c-0.2,0-0.3-0.1-0.4-0.2c-0.1-0.1-0.1-0.3,0-0.4l27.1-48.5
		c-4.8,0.4-27.9,2.3-35.4-2.8c-8.3-5.6-7.7-13.7-7.7-13.8v-0.1l2.5-7.9c0.1-0.2,0.2-0.3,0.4-0.3h55.7c0.6,0.1,14.2,1.9,14.7,11.3
		c0.5,9.2-31.6,62.2-33,64.5C129.1,244.9,129,245,128.9,245z M106,242.2l22.6,1.9c2.4-3.9,33.2-55.1,32.7-63.8s-13.7-10.4-13.9-10.5
		H92.2l-2.4,7.5c0,0.6-0.3,7.8,7.3,12.9c8,5.4,35.4,2.6,35.7,2.6c0.2,0,0.3,0.1,0.4,0.2c0.1,0.1,0.1,0.3,0,0.5L106,242.2L106,242.2z
		"/>
	<path class="st1" d="M87,150.7c0.2,1.3,0.3,2.6,0.4,3.9c0.4,7.2-0.3,14.5,1.1,21.6c0.2,1.3,0.7,2.5,1.5,3.5
		c0.7,0.7,1.6,1.1,2.6,1.4c5.8,1.8,11.9,1.5,17.8,2.6s12.1,4,14.4,9.6c0.6,0.8,0.4,1.9-0.4,2.5c-0.2,0.1-0.5,0.3-0.7,0.3
		c-4.5,1.7-10.1,0.6-14.8,0.6c-6.6,0-13.2-0.3-19.8-0.7c-2.3,0-4.5-0.5-6.6-1.3c-7.6-3.6-9.6-15.2-10.5-22.5
		c-1.3-10.8-1.9-21.6-1.8-32.5c0-3.3,1.2-7.7,4.4-7.7s7.7,5.9,9.2,8.6C85.4,143.5,86.6,147.1,87,150.7z"/>
	<path class="st0" d="M117.4,197.4c-1.5,0-3.1-0.1-4.6-0.2s-2.7-0.2-4-0.2c-6.6,0-13.3-0.3-19.9-0.7c-2.3,0-4.6-0.5-6.8-1.4
		c-7.6-3.6-9.8-14.8-10.8-22.9c-1.3-10.8-1.9-21.7-1.8-32.6c0-3.8,1.4-8.1,4.9-8.2l0,0c3.9,0,8.3,6.5,9.6,8.8
		c1.7,3.3,2.8,6.9,3.3,10.6c0.2,1.2,0.3,2.5,0.4,3.9c0.2,2.6,0.2,5.2,0.2,7.7c-0.1,4.6,0.2,9.2,0.9,13.8c0.1,1.2,0.6,2.3,1.4,3.2
		c0.7,0.6,1.5,1,2.4,1.2c3.5,0.9,7.1,1.5,10.7,1.7c2.3,0.2,4.7,0.4,7.1,0.8c3.5,0.6,12,2.8,14.8,9.9c0.4,0.8,0.4,1.7,0,2.4
		c-0.3,0.5-0.9,0.8-1.4,1C121.7,197.1,119.6,197.4,117.4,197.4L117.4,197.4z M74.6,132.2L74.6,132.2c-3,0-3.9,4.5-4,7.2
		c-0.1,10.9,0.5,21.7,1.8,32.5c1,7.9,3.1,18.8,10.2,22.1c2.1,0.8,4.3,1.2,6.5,1.3c6.6,0.4,13.2,0.7,19.8,0.7c1.3,0,2.7,0.1,4.1,0.2
		c3.7,0.2,7.4,0.5,10.6-0.7c0.4-0.1,0.7-0.3,0.9-0.6c0.2-0.5,0.2-1.1-0.1-1.5c-2.6-6.6-10.7-8.7-14-9.3c-2.3-0.4-4.7-0.6-7-0.8
		c-3.7-0.2-7.3-0.8-10.9-1.8c-1-0.3-2-0.8-2.8-1.4c-0.9-1.1-1.5-2.4-1.7-3.7c-0.8-4.6-1.1-9.3-0.9-14c0-2.5,0-5.1-0.2-7.7
		c-0.1-1.3-0.2-2.6-0.4-3.8l0,0c-0.4-3.6-1.5-7-3.2-10.2C81.9,137.9,77.7,132.2,74.6,132.2z"/>
	<path class="st1" d="M188.2,160.4c2.9,0.7,5.4,2.3,7.2,4.7c0.2,0.3,0.4,0.6,0.4,1c-0.1,0.6-0.8,0.8-1.3,0.8
		c-1.8,0.1-3.6-0.1-5.4-0.4c-3.8-0.4-7.7,0.2-11.6-0.3c-3.3-0.4,0.5-5.6,2.2-6.3C181.9,158.9,185.9,159.7,188.2,160.4L188.2,160.4z"
		/>
	<path class="st0" d="M193.4,167.4c-1,0-2-0.1-3-0.3c-0.5-0.1-0.9-0.1-1.4-0.2c-1.8-0.1-3.6-0.2-5.4-0.1c-2.1,0.1-4.1,0-6.2-0.2
		c-0.9,0-1.6-0.6-1.7-1.5c-0.3-2,2.4-5.2,3.8-5.7c2.3-1,6.2-0.3,9,0.4c3,0.7,5.6,2.4,7.5,4.9c0.3,0.4,0.5,0.9,0.4,1.4
		c-0.1,0.7-0.8,1.1-1.8,1.2C194.2,167.4,193.8,167.4,193.4,167.4L193.4,167.4z M185.6,165.9c1.1,0,2.3,0,3.4,0.1l1.5,0.2
		c1.3,0.2,2.6,0.3,3.9,0.2c0.4,0,0.9-0.2,0.9-0.4s-0.1-0.4-0.3-0.6c-1.7-2.2-4.2-3.8-6.9-4.5l0,0c-3.8-1-6.7-1.2-8.3-0.5
		c-1.1,0.5-3.4,3.3-3.2,4.7c0,0.2,0.1,0.6,0.9,0.7c2,0.2,4,0.3,6.1,0.2L185.6,165.9z"/>
	<path class="st3" d="M91.9,171.6c0,0-14-33.1-12.4-51.9c1.2-13.9,13.5-19.9,18.1-20.2c4.2-0.3,26.9-3.3,35.1,6.8s7.6,63.6,7.6,63.6
		S91.9,171.6,91.9,171.6z"/>
	<polygon class="st0" points="120,108.2 119.7,146.4 103.5,105.7 	"/>
	<path class="st0" d="M119.7,146.9c-0.2,0-0.4-0.1-0.5-0.3L103,105.9c-0.1-0.2,0-0.4,0.1-0.5s0.3-0.2,0.5-0.2l16.5,2.6
		c0.2,0,0.4,0.2,0.4,0.5l-0.3,38.1C120.1,146.6,120,146.8,119.7,146.9L119.7,146.9L119.7,146.9z M104.3,106.3l14.9,37.5l0.3-35.1
		L104.3,106.3z"/>
	<path class="st3" d="M132.7,106.4c0,0,6.1,11.7,9.7,17.8c3.6,6,11.4,14.7,11.4,14.7s27.6,9.8,27.8,10.4S179,159,179,159
		s-29-2.1-33.8-4.4s-14.5-13.4-14.5-13.4L132.7,106.4z"/>
	<polygon class="st1" points="113.7,112.4 111.7,115.7 113.9,117 114.1,132.4 119.7,146.4 120,133.4 115.3,116.6 116.7,114.9 	"/>
	<path class="st0" d="M119.7,146.9c-0.2,0-0.4-0.1-0.5-0.3l-5.6-14c0-0.1,0-0.1,0-0.2l-0.2-15.1l-2-1.2c-0.1-0.1-0.2-0.2-0.2-0.3
		c0-0.1,0-0.3,0.1-0.4l2-3.2c0.1-0.1,0.2-0.2,0.3-0.2c0.1,0,0.3,0,0.4,0.1l3,2.5c0.2,0.2,0.2,0.5,0.1,0.7l0,0l-1.2,1.4l4.6,16.6
		c0,0,0,0.1,0,0.1l-0.3,13C120.1,146.7,120,146.8,119.7,146.9L119.7,146.9L119.7,146.9z M114.6,132.3l4.6,11.6l0.2-10.4l-4.6-16.8
		c-0.1-0.2,0-0.3,0.1-0.5l1-1.2l-2.2-1.8l-1.5,2.3l1.8,1.1c0.2,0.1,0.2,0.2,0.2,0.4L114.6,132.3L114.6,132.3z"/>
	<path class="st1" d="M101.8,66.1c0.6-0.2,1.2-0.4,1.8-0.5c2.5-0.3,2.6,0.2,4.5-1.4c2.9-2.3,6.5-3.7,10.3-3.9
		c7.2-0.5,12.5,3.1,10.8,11c-0.8,3.1-2.2,6.1-4.2,8.6c-4.1,5.6-9.8,10.8-16.8,11.3c-2,0.2-5.9,0-7.4-1.7C96.5,84.7,95.1,78,97,71.8
		c0.4-1.3,1-2.5,1.9-3.6C99.7,67.2,100.7,66.5,101.8,66.1z"/>
	<path class="st0" d="M107,91.9c-1.8,0-5.1-0.2-6.6-1.9c-4.4-5-5.9-12-3.9-18.4c0.4-1.4,1.1-2.7,2-3.8c0.8-1,1.9-1.7,3.1-2.2l0,0
		c0.6-0.2,1.3-0.4,2-0.5c0.7-0.1,1.2-0.1,1.6-0.1c1.1,0,1.3-0.1,2.7-1.2c3-2.4,6.7-3.8,10.6-4c4.3-0.3,7.7,0.8,9.7,3.1
		c1.8,2.1,2.4,5,1.6,8.5c-0.8,3.2-2.3,6.2-4.3,8.8c-3.6,4.9-9.4,10.9-17.1,11.5C108.2,91.8,107.7,91.9,107,91.9L107,91.9z M102,66.6
		c-1.1,0.4-2,1.1-2.7,1.9c-0.8,1-1.4,2.2-1.8,3.4c-1.9,6-0.5,12.6,3.7,17.4c1.2,1.3,4.5,1.7,7,1.5c7.3-0.6,13-6.3,16.4-11.1
		c2-2.5,3.4-5.3,4.1-8.4c0.7-3.2,0.2-5.8-1.4-7.7c-1.8-2.1-4.9-3.1-8.9-2.8c-3.6,0.2-7.1,1.5-10,3.8c-0.8,0.9-2,1.4-3.2,1.3
		c-0.5,0-1,0.1-1.5,0.1C103.2,66.2,102.6,66.3,102,66.6C102,66.5,102,66.6,102,66.6z"/>
	<path class="st1" d="M120.6,97.5v10.9c0,0-2.6,6-9.7,4.2s-8-6.9-8-6.9l0.3-20.2c0,0,5.3-2.8,3.9-14.3c5.8,2.6,12.2,3.6,18.5,2.8
		c0,0,2.2,12.6,1.4,18.1C126.4,97.5,120.7,97.4,120.6,97.5z"/>
	<path class="st0" d="M113.5,113.4c-0.9,0-1.8-0.1-2.7-0.3c-7.3-1.9-8.3-7.1-8.4-7.3l0.3-20.2c0-0.2,0.1-0.3,0.3-0.4
		c0,0,5-2.8,3.6-13.8c0-0.2,0.1-0.4,0.2-0.5c0.2-0.1,0.4-0.1,0.5,0c5.7,2.5,12,3.5,18.2,2.8c0.3,0,0.5,0.2,0.6,0.4
		c0.1,0.5,2.2,12.7,1.4,18.3c-0.4,3.3-2.8,5.3-6.5,5.7v10.4c0,0.1,0,0.1,0,0.2C119.7,111.5,116.7,113.3,113.5,113.4z M103.7,85.7
		l-0.3,19.9c0,0.1,0.9,4.7,7.6,6.4c6.2,1.6,8.7-3.1,9-3.8V97.5c0-0.2,0.1-0.3,0.2-0.4c0.1-0.1,0.3-0.1,0.5-0.1
		c3.4-0.3,5.5-2,5.9-4.9c0.7-4.8-1-15.2-1.3-17.5c-5.9,0.6-11.9-0.3-17.5-2.5C108.7,81.7,104.8,85,103.7,85.7z M120.6,108.3
		L120.6,108.3z"/>
	<path class="st1" d="M107.4,85.1c-0.2-1-0.8-1.9-1.6-2.5c-0.8-0.6-1.6-1-2.5-1.3c-0.5-0.2-1-0.3-1.5-0.3c-0.3,0.1-0.7,0.2-1,0.4
		c-0.8,0.4-1.4,1-1.8,1.8c-0.2,0.7-0.2,1.3-0.1,2c0.1,0.7,0.2,1.5,0.5,2.2c1.2,2.9,4.5,4.2,7.4,3c0,0,0,0,0.1,0"/>
	<path class="st0" d="M104.8,91.4c-0.8,0-1.6-0.2-2.3-0.4c-1.5-0.6-2.7-1.8-3.4-3.4c-0.3-0.7-0.5-1.5-0.6-2.3
		c-0.1-0.8-0.1-1.6,0.2-2.3c0.4-0.9,1.1-1.6,2-2c0.4-0.2,0.8-0.3,1.2-0.4c0.6,0,1.2,0.1,1.7,0.3c0.9,0.3,1.8,0.8,2.6,1.4
		c0.8,0.7,1.4,1.7,1.7,2.7c0.1,0.3-0.1,0.5-0.4,0.6c-0.3,0.1-0.5-0.1-0.6-0.4c-0.2-0.9-0.7-1.7-1.4-2.2c-0.7-0.5-1.5-0.9-2.3-1.2
		c-0.4-0.2-0.8-0.3-1.3-0.3c-0.3,0.1-0.6,0.2-0.8,0.3c-0.7,0.3-1.2,0.8-1.5,1.5c-0.2,0.6-0.2,1.2-0.1,1.8c0.1,0.7,0.2,1.4,0.5,2
		c1.1,2.6,4.1,3.9,6.7,2.8c0,0,0.1,0,0.1,0c0.2-0.1,0.6,0,0.7,0.3c0.1,0.2,0,0.6-0.3,0.7l0,0C106.4,91.2,105.6,91.4,104.8,91.4
		L104.8,91.4z"/>
	<path class="st1" d="M120.2,81.2c0,0,3.9,5.5,3,6.5s-3.4,0.4-3.4,0.4"/>
	<path class="st0" d="M121.3,88.8c-0.6,0-1.1-0.1-1.6-0.2c-0.3-0.1-0.4-0.3-0.4-0.6c0.1-0.3,0.3-0.4,0.6-0.4
		c0.9,0.2,2.4,0.3,2.9-0.2c0.2-0.5-1.2-3.2-3-5.9c-0.2-0.2-0.1-0.5,0.2-0.7c0.2-0.1,0.5-0.1,0.7,0.1c1.5,2.2,4,6,3,7.1
		C123,88.6,122.2,88.9,121.3,88.8z"/>
	
		<ellipse transform="matrix(6.157113e-02 -0.9981 0.9981 6.157113e-02 30.0316 191.9583)" class="st0" cx="117.1" cy="80" rx="1.3" ry="0.9"/>
	
		<ellipse transform="matrix(0.9975 -7.010469e-02 7.010469e-02 0.9975 -5.304 8.9631)" class="st0" cx="125" cy="80" rx="0.9" ry="1.3"/>
	<path class="st0" d="M120.3,92.1c-2.1,0-4.9-0.3-6.8-1.8c-0.2-0.2-0.2-0.5,0-0.7c0.2-0.2,0.4-0.2,0.6-0.1c2.9,2.4,9,1.4,9,1.4
		c0.3,0,0.5,0.1,0.6,0.4s-0.1,0.5-0.4,0.6C122.3,92,121.3,92.1,120.3,92.1z"/>
	<path class="st0" d="M127.3,86.9c-3.8,0-6.9-3.1-6.9-6.9s3.1-6.9,6.9-6.9c3.8,0,6.9,3.1,6.9,6.9c0,0.4,0,0.8-0.1,1.2
		C133.5,84.5,130.7,86.9,127.3,86.9z M127.3,74.1c-3.3,0-5.9,2.6-6,5.9c0,3.3,2.6,5.9,5.9,6c3.3,0,5.9-2.6,6-5.9
		c0-2.9-2.1-5.4-4.9-5.9C128,74.1,127.7,74.1,127.3,74.1L127.3,74.1z"/>
	<path class="st0" d="M113.9,86.4c-0.4,0-0.8,0-1.2-0.1c-3.8-0.7-6.3-4.2-5.6-8c0.3-1.8,1.3-3.4,2.8-4.5c3.1-2.2,7.4-1.4,9.6,1.7
		s1.4,7.4-1.7,9.6C116.7,86,115.3,86.4,113.9,86.4C113.9,86.4,113.9,86.4,113.9,86.4z M113.9,73.6c-3.3,0-5.9,2.7-5.9,5.9
		c0,2.9,2.1,5.3,4.9,5.8c3.2,0.4,6.2-1.9,6.6-5.1c0.4-3.1-1.6-5.9-4.6-6.6C114.5,73.6,114.2,73.6,113.9,73.6L113.9,73.6z"/>
	<path class="st0" d="M120.6,97.5c0,0-6.8,1.6-10.8-0.7c0,0,4.4,9.1,10.8,8.2V97.5z"/>
	<path class="st0" d="M119.6,105.5c-6.1,0-10.1-8.2-10.3-8.5c-0.1-0.2-0.1-0.4,0.1-0.6s0.4-0.2,0.6-0.1c3.8,2.2,10.3,0.7,10.4,0.7
		c0.3-0.1,0.5,0.1,0.6,0.4c0,0,0,0.1,0,0.1v7.5c0,0.2-0.2,0.4-0.4,0.5C120.3,105.5,120,105.5,119.6,105.5z M111,97.8
		c1.4,2.3,4.8,7,9.1,6.7v-6.4C118.5,98.4,114.3,99,111,97.8z"/>
	<path class="st3" d="M86.4,105.3c-8.4,5.3-19.4,56.4-12.2,61.9c11.2,8.6,42.6-8.4,42.6-8.4l-3.2-15c0,0-25,0.7-25.3-4.4
		s14.5-28.9,12.6-32.4S86.4,105.3,86.4,105.3z"/>
	<path class="st0" d="M97.6,167.4c-0.2,0-0.4-0.1-0.5-0.4c-0.1-0.3,0.1-0.5,0.3-0.6l13.7-3.9v-11.9l-21.9-2.2
		c-0.1,0-0.3-0.1-0.4-0.2s-0.1-0.3-0.1-0.4l8.3-37.3c0.1-0.3,0.3-0.4,0.6-0.4s0.4,0.3,0.4,0.6l0,0l-8.2,36.8l21.8,2.2
		c0.3,0,0.4,0.2,0.4,0.5V163c0,0.2-0.2,0.4-0.4,0.5l-14.1,4C97.7,167.5,97.6,167.5,97.6,167.4z"/>
	<path class="st1" d="M151,160.7c-0.2,0.5-1,0.4-1.5,0.1l-7.1-3.3c1.6,0.8,3.2,1.8,4.6,3c0.3,0.2,0.6,0.5,0.5,0.9
		c-0.1,0.6-1,0.5-1.6,0.2c-2.7-1.3-5.4-2.9-7.8-4.7l5.5,4.2c0,0.5-0.4,0.9-0.9,0.9c0,0,0,0,0,0c-0.5,0-0.9-0.2-1.3-0.4l-6.1-3.6
		l3.8,2.7c0.6,0.4,1.3,1.1,1,1.8s-1.5,0.6-2.3,0.2c-3.2-1.4-6.5-2.4-9.9-3c-1.2-0.4-2.4-0.6-3.7-0.8c-1.9,0.2-3.8,0.7-5.6,1.2
		c-2.3,0.5-4.7,1.1-7,1.6v-9.8c4,0.2,8,0,12-0.6c3-0.7,6.1-1.1,9.3-1.1c4.1,0.2,8.2,1.1,12,2.7c0.1,0.1,0.3,0.1,0.4,0.3
		c0.4,0.5-0.5,1-1.1,1c-1.6,0-3.3-0.2-4.9-0.6c3.9,1.4,7.6,3.4,11.1,5.9C150.7,159.8,151.2,160.3,151,160.7L151,160.7z"/>
	<path class="st0" d="M139.1,163.5c-0.5,0-1.1-0.1-1.5-0.4c-3.1-1.4-6.4-2.4-9.8-3c-0.4-0.1-0.8-0.2-1.2-0.3
		c-0.7-0.3-1.5-0.4-2.3-0.4c-1.3,0.1-2.5,0.4-3.8,0.8c-0.6,0.2-1.2,0.3-1.8,0.4l-6.9,1.6c-0.1,0-0.3,0-0.4-0.1
		c-0.1-0.1-0.2-0.2-0.2-0.3v-9.8c0-0.1,0.1-0.2,0.1-0.3s0.2-0.1,0.3-0.1c4,0.2,8,0,11.9-0.6l1.1-0.2c2.7-0.6,5.5-0.9,8.3-0.9
		c4.2,0.2,8.3,1.1,12.1,2.8c0.2,0.1,0.4,0.2,0.6,0.4c0.2,0.3,0.2,0.6,0.1,0.9c-0.4,0.5-0.9,0.8-1.6,0.8H143c2.7,1.2,5.2,2.7,7.6,4.4
		c0.7,0.5,1,1.1,0.8,1.7c-0.2,0.4-0.6,0.6-1.1,0.6c-0.4,0-0.7-0.1-1-0.2l-2.1-1c0.4,0.3,0.6,0.8,0.6,1.3c-0.1,0.3-0.3,0.5-0.5,0.7
		c-0.6,0.2-1.2,0.1-1.7-0.1c-0.5-0.3-1.1-0.5-1.6-0.8c0,0.3-0.1,0.5-0.3,0.7c-0.3,0.3-0.6,0.5-1,0.5c-0.5,0-1.1-0.2-1.5-0.5
		l-0.7-0.4c0.1,0.4,0.1,0.8,0,1.1c-0.1,0.3-0.4,0.6-0.7,0.7C139.6,163.4,139.4,163.5,139.1,163.5L139.1,163.5z M124.4,158.5
		c0.8,0,1.7,0.2,2.4,0.4c0.4,0.1,0.8,0.2,1.2,0.3c3.4,0.6,6.8,1.7,10,3.1c0.4,0.2,1,0.3,1.5,0.2c0.1,0,0.2-0.1,0.2-0.2
		c0.2-0.4-0.6-1-0.8-1.2l-1.6-1.1l-2.2-1.6c-0.2-0.1-0.2-0.4-0.1-0.6c0.1-0.2,0.4-0.3,0.6-0.1l6.1,3.6c0.3,0.2,0.6,0.4,1,0.4
		c0.1,0,0.3-0.1,0.4-0.2l0,0l-5.3-4.1c-0.2-0.2-0.2-0.4-0.1-0.6s0.4-0.2,0.6-0.1l0,0c2.4,1.8,5,3.4,7.8,4.7c0.3,0.1,0.6,0.2,0.9,0.1
		c0-0.1,0-0.2-0.3-0.5c-1.4-1.2-2.9-2.2-4.5-3c-0.2-0.1-0.3-0.4-0.2-0.6s0.4-0.3,0.6-0.2l3.1,1.4l4.1,1.9c0.2,0.1,0.4,0.2,0.7,0.2
		c0.2,0,0.2-0.1,0.2-0.1l0,0c0-0.1-0.1-0.3-0.5-0.6c-3.4-2.4-7.1-4.4-11-5.8c-0.2-0.1-0.4-0.3-0.3-0.6s0.3-0.4,0.6-0.3
		c1.6,0.4,3.1,0.6,4.8,0.6c0.3,0,0.6-0.1,0.8-0.3l-0.2-0.1c-3.8-1.6-7.7-2.5-11.8-2.7c-2.7-0.1-5.4,0.2-8.1,0.9l-1.1,0.2
		c-3.8,0.6-7.7,0.8-11.6,0.6v8.8c2.2-0.5,4.3-1,6.4-1.5c0.6-0.1,1.1-0.3,1.7-0.4c1.3-0.4,2.6-0.7,4-0.8L124.4,158.5L124.4,158.5z"/>
	<path class="st0" d="M136.3,147.7c-0.2,0-0.4-0.2-0.4-0.4c-0.6-13.7-2.2-34.6-2.2-34.8c0-0.2,0.2-0.5,0.4-0.5c0,0,0,0,0,0
		c0.2,0,0.5,0.2,0.5,0.4c0,0,0,0,0,0c0,0.2,1.6,21.1,2.2,34.8C136.8,147.5,136.6,147.7,136.3,147.7L136.3,147.7L136.3,147.7z"/>
	<rect x="146.3" y="34.6" class="st1" width="126.7" height="90.6"/>
	<g id="LOGO-STACKED">
		<path id="TEXT" class="st4" d="M191.5,103.7v5.7c-0.7,0.5-1.5,0.9-2.3,1.2c-0.9,0.2-1.7,0.4-2.6,0.4c-1.1,0-2.2-0.2-3.2-0.5
			c-0.9-0.3-1.7-0.9-2.4-1.5c-0.7-0.6-1.2-1.4-1.5-2.3c-0.4-0.9-0.6-1.9-0.5-2.9c0-1,0.2-2,0.5-2.9c0.3-0.9,0.8-1.6,1.5-2.3
			c0.7-0.7,1.5-1.2,2.3-1.5c1-0.4,2-0.5,3.1-0.5c0.5,0,1.1,0,1.6,0.1c0.5,0.1,0.9,0.2,1.4,0.4c0.4,0.2,0.8,0.3,1.2,0.6
			c0.3,0.2,0.7,0.5,1,0.8l-0.8,1.2c0,0.1-0.1,0.2-0.2,0.2c-0.1,0.1-0.2,0.1-0.3,0.1c-0.1,0-0.2,0-0.3,0s-0.2-0.1-0.3-0.1l-0.7-0.4
			c-0.2-0.1-0.5-0.2-0.7-0.3c-0.3-0.1-0.6-0.2-0.9-0.2c-0.4-0.1-0.8-0.1-1.2-0.1c-0.7,0-1.3,0.1-1.9,0.4c-0.6,0.2-1.1,0.6-1.5,1
			c-0.4,0.5-0.7,1-0.9,1.6c-0.2,0.7-0.3,1.4-0.3,2c0,0.7,0.1,1.5,0.3,2.2c0.2,0.6,0.6,1.1,1,1.6c0.4,0.4,1,0.8,1.5,1
			c1.1,0.4,2.3,0.5,3.4,0.2c0.4-0.1,0.8-0.3,1.2-0.5v-2.5h-1.8c-0.1,0-0.2,0-0.2,0c-0.1,0-0.1-0.1-0.2-0.1c0,0-0.1-0.1-0.1-0.2
			c0-0.1,0-0.1,0-0.2v-1.5H191.5z M195.8,102.5c0.3-0.5,0.7-1,1.1-1.4c0.4-0.3,1-0.5,1.5-0.5c0.4,0,0.8,0.1,1.1,0.3l-0.2,1.8
			c0,0.1-0.1,0.2-0.1,0.2c-0.1,0.1-0.2,0.1-0.3,0.1c-0.1,0-0.3,0-0.4,0c-0.2,0-0.4,0-0.6,0c-0.2,0-0.5,0-0.7,0.1
			c-0.2,0.1-0.4,0.2-0.6,0.3c-0.2,0.2-0.3,0.3-0.4,0.5c-0.1,0.2-0.3,0.5-0.4,0.7v6.2h-2.4v-10h1.4c0.2,0,0.4,0,0.5,0.1
			c0.1,0.1,0.2,0.3,0.2,0.5L195.8,102.5z M200.6,102.1c1.1-1,2.7-1.6,4.2-1.6c0.5,0,1.1,0.1,1.6,0.3c0.5,0.2,0.9,0.5,1.2,0.8
			c0.3,0.4,0.6,0.8,0.7,1.2c0.2,0.5,0.3,1,0.2,1.6v6.3h-1.1c-0.2,0-0.4,0-0.5-0.1c-0.1-0.1-0.3-0.2-0.3-0.4l-0.2-0.7
			c-0.2,0.2-0.5,0.4-0.8,0.6c-0.2,0.2-0.5,0.3-0.8,0.4c-0.3,0.1-0.5,0.2-0.8,0.3c-0.3,0.1-0.7,0.1-1,0.1c-0.4,0-0.8-0.1-1.2-0.2
			c-0.3-0.1-0.7-0.3-0.9-0.5c-0.3-0.2-0.5-0.5-0.6-0.9c-0.2-0.4-0.2-0.8-0.2-1.2c0-0.3,0-0.5,0.1-0.8c0.1-0.3,0.2-0.5,0.4-0.7
			c0.2-0.2,0.5-0.5,0.8-0.6c0.4-0.2,0.7-0.4,1.1-0.5c0.5-0.2,1-0.3,1.6-0.4c0.7-0.1,1.4-0.2,2.1-0.2v-0.6c0-0.5-0.1-1.1-0.4-1.5
			c-0.2-0.2-0.4-0.3-0.6-0.4c-0.2-0.1-0.4-0.1-0.7-0.1c-0.3,0-0.7,0-1,0.1c-0.2,0.1-0.5,0.2-0.7,0.3l-0.5,0.3
			c-0.2,0.1-0.4,0.1-0.5,0.1c-0.2,0-0.3,0-0.4-0.1c-0.1-0.1-0.2-0.2-0.3-0.3L200.6,102.1z M206.2,106.5c-0.6,0-1.2,0.1-1.8,0.2
			c-0.4,0.1-0.8,0.2-1.2,0.3c-0.2,0.1-0.5,0.3-0.6,0.5c-0.1,0.2-0.2,0.5-0.2,0.8c0,0.3,0.2,0.5,0.4,0.7c0.3,0.2,0.6,0.3,1,0.3
			c0.4,0,0.9-0.1,1.3-0.3c0.4-0.2,0.8-0.5,1.1-0.8V106.5z M219.7,96.2v14.5h-1.5c-0.1,0-0.3,0-0.4-0.1c-0.1-0.1-0.2-0.2-0.2-0.3
			l-0.2-1c-0.4,0.5-0.9,0.8-1.4,1.1c-0.6,0.3-1.2,0.4-1.9,0.4c-0.5,0-1.1-0.1-1.5-0.3c-0.5-0.2-0.9-0.6-1.2-1
			c-0.4-0.5-0.6-1-0.8-1.6c-0.2-0.7-0.3-1.4-0.3-2.2c0-0.7,0.1-1.4,0.3-2.1c0.2-0.6,0.5-1.2,0.9-1.7c0.4-0.5,0.8-0.8,1.4-1.1
			c0.6-0.3,1.2-0.4,1.8-0.4c0.5,0,1,0.1,1.5,0.3c0.4,0.2,0.8,0.4,1.1,0.7v-5.2H219.7z M217.2,103.3c-0.2-0.3-0.6-0.5-0.9-0.7
			c-0.3-0.1-0.7-0.2-1.1-0.2c-0.3,0-0.7,0.1-1,0.2c-0.3,0.1-0.6,0.4-0.8,0.6c-0.2,0.3-0.4,0.7-0.5,1.1c-0.1,0.5-0.2,1-0.2,1.5
			c0,0.5,0,1,0.1,1.5c0.1,0.4,0.2,0.7,0.4,1c0.2,0.2,0.4,0.4,0.7,0.6c0.3,0.1,0.6,0.2,0.9,0.2c0.5,0,0.9-0.1,1.3-0.3
			c0.4-0.2,0.7-0.5,1-0.9L217.2,103.3z M224.6,96.2v14.5h-2.4V96.2H224.6z M228.9,106.1c0,0.5,0.1,0.9,0.3,1.3
			c0.1,0.3,0.3,0.7,0.6,0.9c0.2,0.2,0.5,0.4,0.8,0.5c0.3,0.1,0.7,0.2,1.1,0.2c0.3,0,0.7,0,1-0.1c0.3-0.1,0.5-0.2,0.8-0.3
			c0.2-0.1,0.4-0.2,0.6-0.3c0.1-0.1,0.3-0.1,0.5-0.1c0.1,0,0.2,0,0.3,0.1c0.1,0,0.1,0.1,0.2,0.2l0.7,0.9c-0.3,0.3-0.6,0.6-0.9,0.8
			c-0.3,0.2-0.7,0.4-1.1,0.5c-0.4,0.1-0.7,0.2-1.1,0.3c-0.4,0.1-0.7,0.1-1.1,0.1c-0.7,0-1.3-0.1-2-0.3c-0.6-0.2-1.1-0.6-1.6-1
			c-0.5-0.5-0.8-1.1-1.1-1.7c-0.3-0.7-0.4-1.5-0.4-2.3c0-0.7,0.1-1.3,0.3-1.9c0.2-0.6,0.5-1.1,1-1.6c0.4-0.5,1-0.8,1.5-1.1
			c0.6-0.3,1.3-0.4,2-0.4c0.6,0,1.2,0.1,1.8,0.3c0.5,0.2,1,0.5,1.4,0.9c0.4,0.4,0.7,0.9,0.9,1.4c0.2,0.6,0.3,1.3,0.3,1.9
			c0,0.3,0,0.5-0.1,0.7c-0.1,0.1-0.1,0.1-0.2,0.2c-0.1,0-0.2,0-0.3,0L228.9,106.1z M233.5,104.6c0-0.3,0-0.6-0.1-0.9
			c-0.1-0.3-0.2-0.5-0.4-0.7c-0.2-0.2-0.4-0.4-0.7-0.5c-0.3-0.1-0.6-0.2-1-0.2c-0.3,0-0.6,0-0.9,0.1c-0.3,0.1-0.5,0.3-0.8,0.5
			c-0.4,0.5-0.7,1.1-0.8,1.7H233.5z"/>
		
			<linearGradient id="GRADLEPHANT_00000044883200854864747930000014577004998584099712_" gradientUnits="userSpaceOnUse" x1="186.904" y1="258.9916" x2="229.7201" y2="200.2966" gradientTransform="matrix(1 0 0 -1 0 302)">
			<stop  offset="0" style="stop-color:#209BC4"/>
			<stop  offset="1" style="stop-color:#4DC9C0"/>
		</linearGradient>
		<path id="GRADLEPHANT" style="fill:url(#GRADLEPHANT_00000044883200854864747930000014577004998584099712_);" d="M237.1,51.7
			c-1.8-1.8-4.2-2.8-6.7-2.8c-2.5,0-5,0.9-6.8,2.6c-0.1,0.1-0.2,0.2-0.2,0.3s-0.1,0.2-0.1,0.4c0,0.1,0,0.3,0.1,0.4s0.1,0.2,0.2,0.3
			l1.2,1.2c0.2,0.2,0.4,0.3,0.6,0.3c0.2,0,0.4-0.1,0.6-0.2c1.1-0.9,2.6-1.3,4-1.2c1.4,0.1,2.8,0.8,3.7,1.9c0.9,1.1,1.4,2.5,1.4,3.9
			c-0.1,1.4-0.7,2.8-1.8,3.8c-7.8,7.7-18.1-13.9-41.6-2.8c-0.4,0.2-0.7,0.5-1,0.8c-0.3,0.3-0.5,0.7-0.6,1.1
			c-0.1,0.4-0.2,0.9-0.1,1.3c0.1,0.4,0.2,0.9,0.4,1.2l4,6.9c0.4,0.7,1.1,1.2,1.9,1.5c0.8,0.2,1.7,0.1,2.4-0.3l0.1-0.1l-0.1,0.1
			l1.8-1c2-1.2,3.9-2.6,5.6-4.2c0.2-0.2,0.4-0.2,0.6-0.3c0.2,0,0.5,0.1,0.6,0.2c0.1,0.1,0.2,0.2,0.2,0.3c0.1,0.1,0.1,0.2,0.1,0.4
			s0,0.3-0.1,0.4c0,0.1-0.1,0.2-0.2,0.3c-1.8,1.7-3.8,3.1-5.9,4.4h-0.1l-1.8,1c-0.8,0.4-1.6,0.6-2.5,0.6c-0.9,0-1.8-0.2-2.6-0.7
			c-0.8-0.4-1.4-1.1-1.9-1.9l-3.8-6.5c-7.3,5.2-11.8,15.1-9.4,27.6c0,0.2,0.2,0.4,0.3,0.5c0.2,0.1,0.4,0.2,0.6,0.2h4.3
			c0.2,0,0.5-0.1,0.6-0.2c0.2-0.2,0.3-0.4,0.3-0.6c0.2-1.5,1-2.9,2.1-3.9c1.2-1,2.7-1.6,4.2-1.6c1.5,0,3,0.6,4.2,1.6
			c1.2,1,1.9,2.4,2.1,3.9c0,0.2,0.1,0.4,0.3,0.6c0.2,0.1,0.4,0.2,0.6,0.2h4.2c0.2,0,0.4-0.1,0.6-0.2c0.2-0.1,0.3-0.4,0.3-0.6
			c0.2-1.5,1-2.9,2.1-3.9c1.2-1,2.7-1.6,4.2-1.6c1.5,0,3,0.6,4.2,1.6c1.2,1,1.9,2.4,2.1,3.9c0,0.2,0.1,0.4,0.3,0.6
			c0.2,0.1,0.4,0.2,0.6,0.2h4.2c0.2,0,0.5-0.1,0.7-0.3c0.2-0.2,0.3-0.4,0.3-0.6c0.1-5.8,1.7-12.6,6.2-15.9
			C244.9,65.3,240.8,55.3,237.1,51.7z M221.1,69.3l-3-1.5c0-0.3,0.1-0.6,0.2-0.9c0.2-0.3,0.4-0.5,0.7-0.7s0.6-0.3,0.9-0.3
			c0.3,0,0.6,0.1,0.9,0.2c0.3,0.1,0.5,0.4,0.7,0.6c0.2,0.3,0.3,0.6,0.3,0.9c0,0.3,0,0.6-0.2,0.9S221.4,69.1,221.1,69.3L221.1,69.3z"
			/>
	</g>
	<path class="st0" d="M273.2,125.3H146.5c-0.3,0-0.5-0.2-0.5-0.5V34.2c0-0.3,0.2-0.5,0.5-0.5h126.7c0.3,0,0.5,0.2,0.5,0.5v90.6
		C273.7,125.1,273.5,125.3,273.2,125.3z M147,124.3h125.7V34.7H147L147,124.3L147,124.3z"/>
	<circle class="st1" cx="177" cy="78.9" r="2.3"/>
	<circle class="st1" cx="188.9" cy="59.9" r="2.3"/>
	<circle class="st1" cx="226.4" cy="47.4" r="2.3"/>
	<circle class="st1" cx="243.5" cy="95" r="2.3"/>
	<circle class="st1" cx="207.5" cy="84.3" r="2.3"/>
	<path class="st1" d="M281.1,158.9c0,0-8.8-0.7-12.8,1.1s-8.1,4.2-7.2,5.6s21.8,2.5,21.8,2.5L281.1,158.9L281.1,158.9z"/>
	<rect x="54.3" y="167.2" class="st1" width="291.3" height="8.8"/>
	<path class="st0" d="M345.7,176.6H54.3c-0.3,0-0.5-0.2-0.5-0.5v-8.8c0-0.3,0.2-0.5,0.5-0.5h291.3c0.3,0,0.5,0.2,0.5,0.5v8.8
		C346.2,176.4,345.9,176.6,345.7,176.6L345.7,176.6z M54.8,175.6h290.3v-7.8H54.8V175.6z"/>
	<polygon class="st1" points="138,166.9 148,133.6 189.8,133.6 181,166.6 	"/>
	<path class="st0" d="M138,167.4c-0.2,0-0.3-0.1-0.4-0.2c-0.1-0.1-0.1-0.3-0.1-0.4l10-33.3c0.1-0.2,0.3-0.4,0.5-0.4h41.8
		c0.1,0,0.3,0.1,0.4,0.2c0.1,0.1,0.1,0.3,0.1,0.4l-8.9,33c-0.1,0.2-0.2,0.4-0.5,0.4L138,167.4L138,167.4L138,167.4z M148.3,134.1
		l-9.7,32.3l41.9-0.3l8.6-32L148.3,134.1z"/>
	
		<ellipse transform="matrix(0.7768 -0.6297 0.6297 0.7768 -56.7669 137.325)" class="st0" cx="165.4" cy="148.7" rx="5.4" ry="3.5"/>
	<path class="st1" d="M142.1,223.2c-0.1,0-0.2,0-0.2-0.1c-0.2-0.1-0.3-0.4-0.2-0.7l0,0c8.4-15.3,20.5-39.1,19.6-42
		c-0.1-0.3,0.1-0.5,0.3-0.6c0,0,0,0,0,0c0.3-0.1,0.5,0.1,0.6,0.3c1.4,4.3-17.5,38.9-19.7,42.8C142.5,223.1,142.3,223.2,142.1,223.2
		L142.1,223.2z"/>
	<path class="st0" d="M104.5,248.7c0,0-6.7,12.8-6.7,17.1h49.4c0,0,1.7-4.4-5.1-5.8s-19-4.3-20.2-6.5s1.2-4.8,1.2-4.8H104.5z"/>
	<path class="st0" d="M147.2,266.2H97.8c-0.2,0-0.4-0.2-0.4-0.4l0,0c0-4.4,6.4-16.8,6.7-17.4c0.1-0.1,0.2-0.2,0.4-0.2h18.6
		c0.2,0,0.3,0.1,0.4,0.3c0.1,0.2,0,0.3-0.1,0.5c0,0-2.1,2.4-1.1,4.3c0.8,1.5,8.2,3.8,19.9,6.3c2.6,0.5,4.3,1.6,5.1,3.1
		c0.5,1,0.6,2.2,0.3,3.3C147.6,266.1,147.4,266.2,147.2,266.2L147.2,266.2z M98.3,265.4h48.6c0.2-0.8,0.1-1.6-0.3-2.3
		c-0.7-1.2-2.2-2.1-4.5-2.6c-8.7-1.8-19.3-4.5-20.5-6.7c-0.9-1.7,0-3.6,0.7-4.6h-17.5C103.9,250.8,98.7,261.1,98.3,265.4z"/>
	<path class="st0" d="M349.2,266.3H50.8c-0.3,0-0.5-0.2-0.5-0.5s0.2-0.5,0.5-0.5h298.4c0.3,0,0.5,0.2,0.5,0.5
		S349.5,266.3,349.2,266.3L349.2,266.3z"/>
	<g id="essentiel">
		<path class="st1" d="M330.1,132.7c0,0-4.6-0.1-9.7,8.5l0,0.1v0c-2.2-11.8-11.5-19.2-11.5-19.2c-1.7,5.6-2.3,11.4-1.7,17.2
			c-2.1-1.9-4.5-3.4-7.1-4.6c-0.2,7.5,2.8,14.4,5.7,19.2h19.5C327.9,149.8,332,141.8,330.1,132.7L330.1,132.7z"/>
		<path class="st0" d="M330.7,132.6c-0.1-0.3-0.3-0.5-0.6-0.5c-0.2,0-4.6,0-9.5,7.6c-2.7-11-11-17.8-11.4-18.1
			c-0.2-0.1-0.4-0.2-0.5-0.1s-0.4,0.2-0.4,0.4c-1.6,5.2-2.2,10.5-1.8,16c-1.9-1.5-3.9-2.8-6.1-3.8c-0.2-0.1-0.4,0-0.5,0
			c-0.2,0.1-0.3,0.3-0.3,0.5c-0.2,7.6,2.9,14.6,5.6,19.2h-1.4l2.8,13.9h17.1l2.8-13.9H326C328.7,149.6,332.7,141.6,330.7,132.6
			L330.7,132.6z M329.7,133.4c1.6,8.4-2.2,15.9-4.7,19.8h-4.3c-0.1,0-0.3-0.1-0.4,0h-3.1c0.2-3.8,1.3-7.4,3.3-10.6
			c0.2-0.4,0.4-0.7,0.5-1C324.8,135,328.4,133.7,329.7,133.4L329.7,133.4z M309.1,123.1c2.2,2,8.7,8.6,10.5,18l-0.4,0.8
			c-2.7,4.9-3.4,8.7-3.4,11.3h-5.1c-1.5-4.4-2.5-9.1-3-13.7c0.1-0.2,0-0.4,0-0.5C307.3,133.6,307.7,128.2,309.1,123.1L309.1,123.1z
			 M306.6,139.6c0.5,4.7,1.5,9.3,3,13.7h-3.4c-2.5-4.3-5.4-10.7-5.4-17.7C302.9,136.6,304.9,138,306.6,139.6L306.6,139.6z"/>
	</g>
</g>
<g id="_125_team_presentation_flatline">
	<path class="st6" d="M357.2,493.7h-297c-0.3,0-0.5-0.2-0.5-0.5c0-0.3,0.2-0.5,0.5-0.5h297c0.3,0,0.5,0.2,0.5,0.5
		C357.7,493.5,357.5,493.7,357.2,493.7z"/>
	<path class="st0" d="M239.3,515.7c-0.2,0-0.4,0-0.5-0.1l-28-10.8l-28,10.8c-0.8,0.3-1.6-0.1-1.9-0.9s0.1-1.6,0.9-1.9l28.1-10.9
		c0.6-0.2,1.2-0.2,1.8,0l28.2,10.9c0.8,0.3,1.2,1.2,0.9,1.9C240.5,515.3,239.9,515.7,239.3,515.7L239.3,515.7z"/>
	<path class="st1" d="M208.7,450.2h4.4l0,0v48.9c0,0.6-0.4,1-1,1h-2.3c-0.6,0-1-0.4-1-1L208.7,450.2L208.7,450.2z"/>
	<path class="st0" d="M212.1,500.6h-2.3c-0.8,0-1.5-0.7-1.5-1.5v-48.9c0-0.3,0.2-0.5,0.5-0.5h4.4c0.3,0,0.5,0.2,0.5,0.5v48.9
		C213.6,499.9,212.9,500.6,212.1,500.6L212.1,500.6z M209.2,450.6V499c0,0.3,0.2,0.5,0.5,0.5h2.3c0.3,0,0.5-0.2,0.5-0.5v-48.4
		L209.2,450.6z"/>
	<path class="st1" d="M210.1,500.1h1.7c1.6,0,2.8,1.3,2.8,2.8l0,0c0,1.6-1.3,2.8-2.8,2.8h-1.7c-1.6,0-2.8-1.3-2.8-2.8l0,0
		C207.2,501.4,208.5,500.1,210.1,500.1z"/>
	<path class="st0" d="M211.8,506.3h-1.7c-1.8,0.1-3.4-1.3-3.5-3.1c-0.1-1.8,1.3-3.4,3.1-3.5c0.1,0,0.2,0,0.4,0h1.7
		c1.8,0.1,3.2,1.7,3.1,3.5C214.9,504.8,213.5,506.2,211.8,506.3z M210.1,500.6c-1.3-0.1-2.4,0.9-2.5,2.2c-0.1,1.3,0.9,2.4,2.2,2.5
		c0.1,0,0.2,0,0.3,0h1.7c1.3-0.1,2.3-1.2,2.2-2.5c-0.1-1.2-1-2.1-2.2-2.2H210.1z"/>
	<rect x="126.1" y="341.5" class="st1" width="165.3" height="106.8"/>
	<path class="st0" d="M291.4,448.7H126.1c-0.3,0-0.5-0.2-0.5-0.5V341.5c0-0.3,0.2-0.5,0.5-0.5h165.3c0.3,0,0.5,0.2,0.5,0.5v106.8
		C291.9,448.5,291.6,448.7,291.4,448.7z M126.6,447.7h164.2V342H126.6V447.7z"/>
	<rect x="121.9" y="336.5" class="st1" width="173.6" height="5"/>
	<path class="st0" d="M295.5,342H121.9c-0.3,0-0.5-0.2-0.5-0.5v-5c0-0.3,0.2-0.5,0.5-0.5h173.6c0.3,0,0.5,0.2,0.5,0.5v5
		C296,341.7,295.8,342,295.5,342z M122.4,341H295v-4H122.4L122.4,341z"/>
	<rect x="121.9" y="448.2" class="st1" width="173.6" height="5"/>
	<path class="st0" d="M295.5,453.7H121.9c-0.3,0-0.5-0.2-0.5-0.5v-5c0-0.3,0.2-0.5,0.5-0.5h173.6c0.3,0,0.5,0.2,0.5,0.5v5
		C296,453.5,295.8,453.7,295.5,453.7z M122.4,452.7H295v-4H122.4L122.4,452.7z"/>
	<path class="st0" d="M210.9,515.7c-0.8,0-1.5-0.7-1.5-1.5l0,0v-11.3c0-0.8,0.7-1.5,1.5-1.5s1.5,0.7,1.5,1.5v11.3
		C212.4,515,211.8,515.7,210.9,515.7C210.9,515.7,210.9,515.7,210.9,515.7z"/>
	<path class="st1" d="M87.5,341.6c-6,0.8-10.4,5.9-10.6,11.9c-0.1,2.8,0.5,6-1,8.4c-1.2,1.9-3.5,2.8-5.1,4.4c-1.9,2-2.6,4.8-1.9,7.5
		c0.4,1.3,1.1,2.5,1.1,3.9c-0.1,1.9-1.7,3.4-2.8,4.9c-3.9,5.5-1.4,13.9,4.1,17.9c5.5,4,12.9,4.4,19.5,3.1c5.9-1,11.5-3.5,16.2-7.2
		c2.7-2.2,5.2-5.5,4.3-8.9s-4.6-5.2-5.5-8.5c-0.7-2.4,0.4-5,1-7.4c1.7-6.6,0.1-13.6-1.9-20.1c-1-3.2-1.7-7.3-5.2-8.5
		c-1.5-0.5-3.3,0.7-3.3,0.7C95.7,341.5,89.7,341.2,87.5,341.6z"/>
	<path class="st0" d="M84.2,404.6c-4.7,0.2-9.4-1.2-13.3-3.8c-5.4-4-8.5-12.5-4.2-18.5c0.3-0.4,0.6-0.8,0.9-1.1
		c0.9-1.2,1.8-2.2,1.9-3.6c0-0.9-0.2-1.7-0.6-2.5c-0.2-0.4-0.3-0.8-0.4-1.2c-0.8-2.8,0-5.8,2-7.9c0.7-0.7,1.4-1.3,2.2-1.8
		c1.1-0.7,2-1.5,2.8-2.5c1.1-1.6,1-3.7,0.9-5.8c0-0.8,0-1.6,0-2.4c0.2-6.2,4.8-11.4,11-12.3l0,0c1.8-0.3,7.7-0.3,9.2,1.8
		c1-0.6,2.1-0.7,3.2-0.5c3.2,1.1,4.2,4.5,5.1,7.5c0.1,0.4,0.2,0.9,0.4,1.3c1.9,6.1,3.6,13.4,1.9,20.4c-0.1,0.5-0.3,1-0.4,1.5
		c-0.6,1.9-1.1,3.9-0.6,5.7c0.6,1.5,1.5,2.9,2.7,4c1.3,1.2,2.3,2.8,2.9,4.5c1.1,4.3-2.8,8-4.5,9.4c-4.8,3.8-10.4,6.3-16.4,7.3
		C88.6,404.4,86.4,404.6,84.2,404.6z M87.5,342.1c-5.7,0.8-10.1,5.7-10.3,11.5c0,0.7,0,1.5,0,2.3c0.1,2.2,0.1,4.4-1.1,6.3
		c-0.8,1.1-1.9,2.1-3.1,2.8c-0.8,0.5-1.5,1.1-2.1,1.7c-1.8,1.9-2.4,4.5-1.8,7c0.1,0.4,0.3,0.8,0.4,1.1c0.4,0.9,0.6,1.9,0.7,2.9
		c-0.1,1.6-1.1,2.9-2.1,4.1c-0.3,0.4-0.6,0.7-0.8,1.1c-3.2,4.5-2.3,12.6,4,17.2c4.7,3.4,11.5,4.5,19.2,3c5.8-1,11.3-3.4,16-7.1
		c1.6-1.3,5.2-4.7,4.2-8.4c-0.6-1.6-1.5-3-2.7-4.1c-1.3-1.2-2.3-2.7-2.9-4.4c-0.6-2.1,0-4.2,0.6-6.2c0.1-0.5,0.3-1,0.4-1.4
		c1.7-6.8,0-13.8-1.9-19.9l-0.4-1.3c-0.8-2.9-1.7-5.9-4.5-6.9c-1-0.2-2,0-2.9,0.6c-0.2,0.1-0.5,0.1-0.6-0.1c0,0,0-0.1-0.1-0.1
		C95.4,342,90.1,341.5,87.5,342.1L87.5,342.1z"/>
	<path class="st1" d="M98.4,512.3l1,11.7c0,0,17,3,21.4,3s4-2.6-2.8-6.7c-2.9-1.8-6-3-9.4-3.5l-0.5-5.4L98.4,512.3z"/>
	<path class="st0" d="M120.8,527.5c-4.4,0-20.8-2.9-21.5-3c-0.2,0-0.4-0.2-0.4-0.4L98,512.4c0-0.2,0.2-0.5,0.4-0.5l9.7-0.9
		c0.2,0,0.5,0.1,0.5,0.4c0,0,0,0,0,0l0.5,5.1c3.3,0.6,6.4,1.8,9.2,3.5c2.9,1.8,6.3,4.2,5.8,6.1C123.8,527,122.7,527.5,120.8,527.5z
		 M99.8,523.6c2.4,0.4,17,3,21,3c1.4,0,2.3-0.3,2.4-0.8c0.2-0.7-1.1-2.5-5.4-5.1c-2.8-1.8-5.9-2.9-9.2-3.5c-0.2,0-0.4-0.2-0.4-0.4
		l-0.5-5l-8.8,0.9L99.8,523.6z"/>
	<path class="st1" d="M75.2,512.5c-0.6,2.4-0.8,4.9-0.6,7.4c0.4,3.2,0.7,7.5-0.1,10.1c-0.8,2.6-4.1,5.3-6.7,3.6
		c-2.6-1.7-2.4-9.9-2-12.1c0.4-2.2,1.6-7.8,1.4-10.8L75.2,512.5z"/>
	<path class="st0" d="M69.7,534.7c-0.7,0-1.4-0.2-2-0.6c-3-2-2.5-10.9-2.2-12.6v-0.2c0.5-2.3,1.5-7.6,1.4-10.4
		c0-0.1,0.1-0.3,0.2-0.4c0.1-0.1,0.3-0.1,0.4-0.1l7.9,1.7c0.1,0,0.2,0.1,0.3,0.2c0.1,0.1,0.1,0.2,0.1,0.3c-0.6,2.4-0.7,4.8-0.6,7.3
		c0.2,1.6,0.8,7-0.1,10.3c-0.6,1.9-2,3.4-3.9,4.2C70.6,534.6,70.1,534.7,69.7,534.7z M67.8,511.4c-0.2,3.4-0.7,6.8-1.4,10.1v0.2
		c-0.4,2.2-0.5,10.1,1.8,11.6c0.8,0.5,1.8,0.6,2.6,0.2c1.6-0.7,2.8-2,3.3-3.6c0.9-3.1,0.3-8.4,0.1-9.9c-0.2-2.4,0-4.8,0.5-7.2
		L67.8,511.4z"/>
	<path class="st0" d="M86.1,413.4c1.5-0.9,23-1.6,23-1.6s1.4,71.6-0.4,102.6H98c0,0-10.7-46.3-8.9-62.7c0,0-11.9,46-12.3,64.1H64.6
		c0,0-1.8-42.3,2.7-61S86.1,413.4,86.1,413.4z"/>
	<path class="st0" d="M76.8,516.2H64.6c-0.2,0-0.4-0.2-0.4-0.4c0-0.4-1.7-42.6,2.7-61.1s18.8-41.3,19-41.6c0-0.1,0.1-0.1,0.1-0.1
		c1.5-0.9,19.6-1.5,23.2-1.7c0.1,0,0.2,0,0.3,0.1c0.1,0.1,0.1,0.2,0.1,0.3c0,0.7,1.4,71.9-0.4,102.6c0,0.2-0.2,0.4-0.4,0.4H98
		c-0.2,0-0.4-0.1-0.4-0.3c-0.1-0.4-9.1-39.5-9.1-58.4c-2.9,11.9-10.8,45.1-11.2,59.7C77.2,516,77.1,516.2,76.8,516.2z M65,515.4
		h11.3c0.6-18.2,12.2-63.3,12.3-63.8c0-0.2,0.3-0.4,0.5-0.4c0.2,0,0.4,0.3,0.4,0.5l0,0c-1.7,15.4,7.8,57.9,8.8,62.2h10
		c1.7-29.6,0.5-95.6,0.4-101.7c-8.1,0.3-20.8,0.9-22.3,1.5c-1.1,1.7-14.6,23.4-18.8,41.2C63.5,472.3,64.8,510.9,65,515.4L65,515.4z"
		/>
	<path class="st0" d="M93.1,374.1c0,0,10.4,5.8,12.4,15.9s-0.2,32.7-0.2,32.7l-25.7-1.1c0,0,2.5-28.5,0-36.5s-2.1-6,0.4-6.8
		C82.3,377.6,88.6,369.1,93.1,374.1z"/>
	<path class="st0" d="M105.2,423.2L105.2,423.2l-25.7-1.1c-0.1,0-0.2-0.1-0.3-0.1c-0.1-0.1-0.1-0.2-0.1-0.3c0-0.3,2.5-28.5,0-36.3
		l-0.4-1.4c-1.2-3.9-1.5-4.7-1.1-5.2c0.3-0.3,0.7-0.5,1.1-0.5c0.4,0,0.8-0.1,1.1-0.2c0.9-0.5,1.8-1.1,2.6-1.9c3-2.5,7.4-6.2,11-2.3
		c1,0.6,10.6,6.3,12.6,16.2c2,10-0.2,32.6-0.2,32.8C105.6,423,105.4,423.2,105.2,423.2z M80,421.2l24.8,1c0.3-3.1,2.1-23,0.2-32.1
		c-2-9.7-12.1-15.5-12.2-15.6c0,0-0.1-0.1-0.1-0.1c-3-3.3-7,0-9.8,2.4c-0.8,0.8-1.8,1.5-2.9,2c-0.4,0.1-0.9,0.2-1.3,0.3
		c-0.2,0-0.3,0-0.5,0.1c-0.1,0.3,0.4,1.9,1.2,4.5l0.4,1.4C82.3,392.5,80.3,417.4,80,421.2z"/>
	<path class="st7" d="M92.8,370.8c0,0,2,0,3.8,4c1.7,3.2,3.8,85.1,3.8,85.1h17.6c0,0-7.2-61.5-9-70.4
		C107.5,380.8,101.2,373.6,92.8,370.8z"/>
	<path class="st7" d="M95.7,371.9c0,0,8.4,3.1,11.8,6.2s18,30.3,18,30.3l-9.5,5l-11.6-14"/>
	<path class="st0" d="M112.5,408.9L112.5,408.9c-0.4,0-1.4-0.1-4.6-22.4c0-0.2,0.1-0.5,0.4-0.5c0.2,0,0.5,0.1,0.5,0.4
		c1.1,7.4,3,19.2,3.8,21.4c0.1,0,0.1,0,0.2,0c0.2,0,0.4,0.3,0.3,0.5c0,0,0,0,0,0C112.9,408.8,112.7,408.9,112.5,408.9z"/>
	<path class="st1" d="M97,370.1v7.9c0,0-0.8,4.4-5.6,3c-2.9-0.8-5.2-2.9-6.3-5.6l0.5-13.6c0.6-2.4,0.9-4.8,0.8-7.3
		c5.9,0,10.4-4.4,10.4-4.4s2,3,2.9,3.9c0.7,0.7,1.3,1.5,1.8,2.4c0.7,1.6,0.9,3.4,0.7,5.1c0,2-0.2,4-0.6,5.9
		C100.8,371,97,370.1,97,370.1z"/>
	<path class="st0" d="M93.2,381.7c-0.6,0-1.2-0.1-1.8-0.3c-3-0.9-5.5-3-6.7-5.9c0-0.1,0-0.1,0-0.2c0,0,0.5-13.5,0.6-13.6
		c0-0.2,0.1-0.5,0.1-0.7c0.5-2.1,0.7-4.4,0.6-6.6c0-0.2,0.2-0.4,0.4-0.5c0,0,0,0,0,0c5.6-0.1,10-4.3,10.1-4.4
		c0.1-0.1,0.2-0.1,0.4-0.1c0.1,0,0.3,0.1,0.3,0.2c0,0,2,3,2.8,3.9c0.7,0.7,1.3,1.6,1.9,2.5c0.7,1.7,1,3.5,0.8,5.3c0,2-0.2,4-0.6,6
		c-0.2,1.1-0.8,2-1.7,2.6c-0.9,0.5-1.9,0.7-2.9,0.6v7.3c-0.2,1.3-0.9,2.4-2,3.1C94.8,381.5,94,381.7,93.2,381.7z M85.6,375.3
		c1.1,2.6,3.3,4.5,6,5.3c1.8,0.8,3.9,0,4.7-1.8c0.1-0.3,0.2-0.6,0.3-0.9l-0.1-7.8c0-0.1,0.1-0.3,0.2-0.4c0.1-0.1,0.3-0.1,0.4-0.1
		c1,0.2,2,0.1,2.8-0.4c0.7-0.5,1.1-1.2,1.3-2c0.4-1.9,0.6-3.9,0.6-5.8c0.2-1.6-0.1-3.3-0.7-4.8c-0.5-0.8-1.1-1.6-1.7-2.3
		c-0.7-0.8-2-2.7-2.6-3.6c-2.8,2.4-6.2,3.9-9.8,4.2c0.1,2.1-0.2,4.3-0.7,6.4c-0.1,0.2-0.1,0.3-0.1,0.5l0,0
		C86.1,361.8,86.1,362,85.6,375.3z"/>
	<path class="st0" d="M96.9,373.9c-1.9,0-3.8-0.7-5.2-2c-1.2-1.1-1.8-2.7-1.8-4.3c2.1,1.4,4.5,2.2,7,2.4L96.9,373.9z"/>
	<path class="st0" d="M96.8,374.4c-2,0-4-0.7-5.4-2.1c-1.3-1.2-2-2.9-1.9-4.6c0-0.2,0.1-0.3,0.3-0.3c0.1-0.1,0.3-0.1,0.4,0
		c2,1.3,4.4,2.1,6.8,2.3c0.2,0,0.4,0.2,0.4,0.4v3.9c0,0.2-0.2,0.4-0.4,0.4c0,0,0,0,0,0L96.8,374.4z M97,373.9L97,373.9z M90.4,368.5
		c0.2,1.2,0.7,2.3,1.6,3.2c1.2,1.1,2.8,1.8,4.5,1.8v-3C94.4,370.3,92.3,369.6,90.4,368.5L90.4,368.5z"/>
	<path class="st1" d="M95.1,358.4c0,0,2.5,3.8,1.9,4.4s-2.3,0.2-2.3,0.2"/>
	<path class="st0" d="M95.8,363.6c-0.4,0-0.8-0.1-1.2-0.1c-0.2-0.1-0.4-0.3-0.3-0.5c0.1-0.2,0.3-0.4,0.5-0.3c0,0,0,0,0,0
		c0.6,0.2,1.6,0.2,1.8-0.1c0.1-0.3-0.8-2.2-2-3.9c-0.1-0.2-0.1-0.5,0.1-0.6c0.2-0.1,0.4-0.1,0.6,0.1c1.2,1.8,2.6,4.2,1.9,5
		C96.9,363.5,96.4,363.6,95.8,363.6z"/>
	
		<ellipse transform="matrix(0.9992 -3.925982e-02 3.925982e-02 0.9992 -13.9611 4.133)" class="st0" cx="98.3" cy="357.5" rx="0.4" ry="0.8"/>
	
		<ellipse transform="matrix(2.966619e-02 -0.9996 0.9996 2.966619e-02 -267.5318 438.7405)" class="st0" cx="92.2" cy="357.2" rx="0.8" ry="0.4"/>
	<path class="st1" d="M88.3,357.7c-0.3-1-0.8-1.9-1.4-2.7c-0.7-0.8-1.8-1.1-2.8-0.7c-1,0.6-1.5,1.8-1.3,2.9c0,1.3,0.3,2.6,0.7,3.8
		c0.2,0.7,0.6,1.4,1.1,2c0.5,0.6,1.4,0.7,2.1,0.3"/>
	<path class="st0" d="M85.8,364c-0.6,0-1.2-0.2-1.6-0.6c-0.6-0.6-1-1.3-1.2-2.1c-0.4-1.3-0.7-2.6-0.7-3.9c0-0.8,0.2-2.6,1.6-3.3
		c1.2-0.5,2.5-0.2,3.3,0.8c0.7,0.8,1.3,1.8,1.6,2.8c0.1,0.2,0,0.5-0.2,0.6c0,0,0,0,0,0c-0.2,0.1-0.5,0-0.6-0.2c0,0,0,0,0,0
		c-0.3-0.9-0.7-1.8-1.4-2.5c-0.6-0.6-1.5-0.9-2.3-0.6c-1,0.5-1.1,2-1.1,2.5c0.1,1.2,0.3,2.4,0.7,3.6c0.2,0.7,0.5,1.3,1,1.8
		c0.4,0.4,1,0.5,1.5,0.3c0.2-0.1,0.5-0.1,0.6,0.1c0,0,0,0,0,0c0.1,0.2,0.1,0.5-0.1,0.6c0,0,0,0,0,0C86.5,363.9,86.1,364,85.8,364z"
		/>
	<path class="st7" d="M84.5,372.8c0,0,0.6,18.3,0.6,29.4c0,12.7-1.9,56.8-1.9,56.8l-23.4-2.5c0,0,4.5-22.2,5.8-36.9
		c0.8-9.3,4.4-29.6,4-36.3C69.2,376.7,84.5,372.8,84.5,372.8z"/>
	<polygon class="st1" points="110.4,403.8 97.6,432.4 122.5,432.4 134.9,404.4 	"/>
	<path class="st0" d="M122.5,432.9H97.6c-0.2,0-0.5-0.2-0.5-0.4c0-0.1,0-0.1,0-0.2l12.8-28.7c0.1-0.2,0.2-0.3,0.4-0.3l24.5,0.7
		c0.2,0,0.3,0.1,0.4,0.2c0.1,0.1,0.1,0.3,0,0.4l-12.5,28C122.8,432.8,122.6,432.9,122.5,432.9z M98.3,432h23.8l12.1-27.1l-23.5-0.6
		L98.3,432z"/>
	<path class="st1" d="M88.1,428.3c5.2,0.2,10.7-1.1,15.6,0.8l3.4,1.3c0-0.8-0.5-1.5-1.2-1.8c-0.7-0.3-1.3-0.7-1.9-1.2l2.9,1.4
		c0.6,0.3,1.4,0.5,1.7-0.1c-1.1-1.1-2.4-2.1-3.7-2.9c1,0.5,2.1,0.9,3.2,1.3c0.7,0.2,1.6,0.4,2-0.1c-1.2-0.9-2.5-1.6-3.9-2.1l2.7,0.8
		c0.3,0.1,0.7,0.2,1,0.1c0.3,0,0.6-0.3,0.6-0.7c-0.1-0.3-0.2-0.5-0.5-0.6c-1.8-1.4-3.9-2.4-6.2-2.8c0.2-0.6,1.3-3.6,0.9-4.1
		s-1.9,2.3-4.3,2.6S90,420.8,90,420.8"/>
	<path class="st0" d="M107.2,430.8c-0.1,0-0.1,0-0.2,0l-3.4-1.3c-3.3-1.3-7-1.1-10.5-0.9c-1.7,0.1-3.3,0.2-5,0.1
		c-0.3,0-0.4-0.2-0.4-0.5c0-0.2,0.2-0.4,0.5-0.4c0,0,0,0,0,0c1.6,0.1,3.3,0,4.9-0.1c3.6-0.2,7.4-0.4,10.8,1l2.5,1
		c-0.2-0.3-0.5-0.5-0.8-0.7c-0.2-0.1-0.4-0.2-0.7-0.4c-0.5-0.2-0.9-0.5-1.3-0.9c-0.2-0.2-0.2-0.4-0.1-0.6c0.1-0.2,0.4-0.3,0.6-0.2
		l2.9,1.4c0.2,0.1,0.5,0.2,0.7,0.2c-1-0.9-2-1.7-3.1-2.4c-0.2-0.1-0.3-0.4-0.2-0.6c0.1-0.2,0.4-0.3,0.6-0.2c1,0.5,2.1,0.9,3.1,1.3
		c0.3,0.1,0.7,0.2,1,0.2c-1-0.7-2.1-1.2-3.2-1.6c-0.3,0-0.4-0.3-0.4-0.5c0-0.3,0.3-0.4,0.5-0.4c0,0,0.1,0,0.1,0l2.7,0.8
		c0.2,0.1,0.5,0.1,0.8,0.1c0.1,0,0.2-0.1,0.2-0.2c0,0-0.1-0.2-0.3-0.3c-1.8-1.4-3.8-2.3-6-2.8c-0.1,0-0.2-0.1-0.3-0.2
		c-0.1-0.1-0.1-0.3,0-0.4c0.5-1.1,0.8-2.2,1-3.4l-0.4,0.3c-0.9,1-2.1,1.8-3.5,2.1c-2.4,0.3-10.1,0.6-10.4,0.7
		c-0.2,0-0.4-0.1-0.5-0.4c0,0,0,0,0-0.1c0-0.3,0.2-0.5,0.4-0.5c0,0,0,0,0,0c0.1,0,8-0.4,10.4-0.6c1.2-0.3,2.2-0.9,3-1.8
		c0.6-0.5,0.8-0.8,1.3-0.8c0.2,0,0.3,0.1,0.4,0.2c0.2,0.2,0.5,0.7-0.7,4.1c2.1,0.5,4.1,1.5,5.8,2.8c0.4,0.2,0.6,0.6,0.7,1
		c0,0.6-0.4,1.1-1,1.1l0,0l0.5,0.4c0.1,0.1,0.2,0.2,0.2,0.3c0,0.1,0,0.2-0.1,0.3c-0.5,0.6-1.3,0.7-2.3,0.4c0.3,0.2,0.5,0.5,0.8,0.7
		c0.1,0.1,0.2,0.4,0.1,0.5c-0.3,0.5-1,0.7-1.5,0.5c0.2,0.3,0.2,0.7,0.2,1c0,0.1-0.1,0.3-0.2,0.4
		C107.4,430.9,107.3,430.9,107.2,430.8z"/>
	<path class="st7" d="M70,379.9c0,0-24.4,47.2-17.3,49.7c2.9,1,40.4,2.8,40.4,2.8l0.8-12.8l-16.2-2.2L70,379.9z"/>
	<path class="st0" d="M71.6,417.3L71.6,417.3c-0.3,0-0.4-0.2-0.4-0.5l2.7-31c0-0.2,0.2-0.4,0.5-0.4c0.2,0,0.4,0.2,0.4,0.5
		c0,0,0,0,0,0l-2.7,31C72.1,417.1,71.8,417.3,71.6,417.3z"/>
	<path class="st0" d="M88.7,433.7L88.7,433.7l-24.5-1.8c-0.3,0-0.4-0.2-0.4-0.5c0-0.2,0.2-0.4,0.5-0.4c0,0,0,0,0,0l24.5,1.8
		c0.3,0,0.4,0.3,0.4,0.5C89.1,433.5,88.9,433.7,88.7,433.7L88.7,433.7z"/>
	<path class="st1" d="M128.8,423.9c-0.2,0.5-0.3,0.9-0.5,1.3c-0.3,0.9-0.8,1.8-1.4,2.5c-0.8,0.7-1.8,1.1-2.9,1.2
		c-1.2,0.2-2.3,0.4-3.5,0.6c-0.6,0.2-1.2,0.1-1.8-0.1c-0.1-0.1-0.2-0.2-0.2-0.3c0-0.2,0.1-0.3,0.2-0.4c1.3-1.2,3.3-1.1,4.8-2
		c-1.2,0.3-2.5,0.5-3.7,0.4c-0.6,0-1.3-0.3-1.7-0.8c1.6-1.1,3.8-0.7,5.5-1.5c-1.5,0.3-3.1,0.1-4.5-0.5c-0.2-0.1-0.5-0.4-0.3-0.6
		c0.1-0.1,0.2-0.1,0.3-0.1l5.5-0.3c-1.1,0-2.1-0.3-3.1-0.7c-0.5-0.2-1-0.6-1.1-1.2c0-0.1,0-0.2,0.1-0.3c0.1-0.1,0.3-0.1,0.5-0.1
		c0.7,0.1,3.6,0.5,4.4,0.7c0.6,0.2,1.3,0.1,1.9-0.2c0.3-0.2,0.5-0.5,0.6-0.8c0.7,0.5,1.1,1.2,1.2,2.1
		C129,423,128.9,423.5,128.8,423.9z"/>
	<path class="st0" d="M119.5,430.1c-0.4,0-0.8-0.1-1.1-0.3c-0.2-0.1-0.4-0.3-0.4-0.6c0-0.3,0.1-0.7,0.4-0.9c0.4-0.4,0.9-0.6,1.4-0.8
		h-0.1c-0.8,0-1.5-0.3-2-1c-0.1-0.2,0-0.4,0.1-0.6c0.7-0.4,1.4-0.7,2.2-0.8c-0.4-0.1-0.7-0.2-1.1-0.4c-0.3-0.1-0.6-0.4-0.7-0.8
		c0-0.2,0-0.4,0.2-0.6c0.2-0.1,0.4-0.2,0.6-0.2l2.4-0.1h-0.1c-1-0.5-1.3-1.1-1.3-1.6c0-0.2,0-0.4,0.2-0.6c0.2-0.2,0.6-0.3,0.9-0.2
		l0.7,0.1c1.1,0.2,3,0.4,3.7,0.5c0.5,0.2,1.1,0.1,1.6-0.1c0.2-0.2,0.4-0.4,0.5-0.7c0.1-0.1,0.2-0.2,0.3-0.2c0.1,0,0.3,0,0.4,0.1
		c0.8,0.6,1.2,1.5,1.3,2.4c0,0.5-0.1,1-0.3,1.4c-0.1,0.3-0.2,0.5-0.3,0.8l-0.2,0.5c-0.3,1-0.8,1.9-1.5,2.7c-0.9,0.8-2,1.2-3.2,1.4
		c-1.2,0.2-2.3,0.4-3.5,0.6C120.2,430.1,119.9,430.1,119.5,430.1z M118.9,429c0.5,0.2,1,0.2,1.4,0c1.2-0.2,2.3-0.4,3.5-0.6
		c1-0.1,1.9-0.5,2.7-1.1c0.6-0.7,1-1.5,1.3-2.3c0.1-0.2,0.1-0.4,0.2-0.5l0.3-0.7l0,0c0.1-0.4,0.2-0.7,0.2-1.1
		c-0.1-0.5-0.3-1-0.6-1.3c-0.1,0.2-0.3,0.3-0.4,0.5c-0.7,0.4-1.5,0.5-2.3,0.3c-0.6-0.1-2.5-0.4-3.6-0.6l-0.7-0.1l0,0
		c0.2,0.3,0.5,0.6,0.8,0.7c0.9,0.4,1.9,0.7,2.9,0.7c0.3,0,0.4,0.3,0.4,0.5c0,0.2-0.2,0.4-0.4,0.4l-5,0.3c1.2,0.5,2.6,0.6,3.8,0.3
		c0.2-0.1,0.5,0.1,0.6,0.3c0.1,0.2-0.1,0.5-0.3,0.6l0,0c-0.8,0.3-1.7,0.5-2.6,0.6c-0.8,0.1-1.6,0.3-2.3,0.6c0.3,0.1,0.7,0.2,1,0.2
		c1.2,0.1,2.4,0,3.6-0.3c0.2-0.1,0.5,0.1,0.6,0.3c0,0.2,0,0.4-0.2,0.5c-0.7,0.4-1.5,0.7-2.3,0.9C120.5,428,119.7,428.4,118.9,429
		L118.9,429z"/>
	<path class="st0" d="M93.9,420.1L93.9,420.1l-25-2.8c-0.2,0-0.4-0.2-0.4-0.5c0,0,0,0,0,0c0-0.3,0.3-0.4,0.5-0.4l25,2.8
		c0.3,0,0.4,0.3,0.4,0.5C94.4,419.9,94.2,420,93.9,420.1L93.9,420.1z"/>
	<path class="st0" d="M95.8,366.5c-0.2,0-0.3,0-0.5,0c-2.6-0.3-4.4-2.9-4.4-3.1c-0.1-0.2-0.1-0.5,0.1-0.6c0.2-0.1,0.5-0.1,0.6,0.1
		c0,0,1.6,2.4,3.8,2.7c1.2,0.1,2.3-0.4,3.1-1.2c0.2-0.2,0.4-0.2,0.6,0c0.2,0.2,0.2,0.4,0,0.6c0,0,0,0-0.1,0
		C98.3,365.9,97.1,366.4,95.8,366.5z"/>
	<path class="st1" d="M309.9,520.9l-2.6,12.5c0,0-17.1,0.9-16.5-0.7c1.3-3.4,6.3-5,6.3-5l2-11.7"/>
	<path class="st0" d="M298.1,534.2c-3.8,0-7.3-0.2-7.8-1c-0.1-0.2-0.2-0.5-0.1-0.7c1.2-3.1,5.2-4.8,6.3-5.2l1.9-11.4
		c0-0.3,0.3-0.5,0.6-0.4c0.3,0,0.5,0.3,0.4,0.6l-2,11.7c0,0.2-0.2,0.3-0.3,0.4c0,0-4.6,1.5-5.9,4.5c1.3,0.6,8.7,0.6,15.6,0.2
		l2.6-12.2c0.1-0.3,0.3-0.4,0.6-0.4c0.3,0.1,0.4,0.3,0.4,0.6c0,0,0,0,0,0l-2.6,12.5c0,0.2-0.2,0.4-0.5,0.4
		C305.1,534,301.4,534.2,298.1,534.2z"/>
	<path class="st1" d="M348.2,517.9l0.1,13.8c0,0-12.9,6.5-15.5,3.9c0.2-3.9,4.6-7.2,4.6-7.2l-2.1-11.8"/>
	<path class="st0" d="M334.9,536.6c-0.9,0.1-1.7-0.2-2.4-0.7c-0.1-0.1-0.2-0.2-0.1-0.4c0.2-3.6,3.6-6.6,4.6-7.3l-2-11.5
		c-0.1-0.3,0.1-0.5,0.4-0.6c0,0,0,0,0,0c0.3,0,0.5,0.1,0.6,0.4l2.1,11.8c0,0.2,0,0.4-0.2,0.5c0,0-4,3-4.4,6.5c2,1.4,9.7-1.6,14.5-4
		l-0.1-13.4c0-0.3,0.2-0.5,0.5-0.5l0,0c0.3,0,0.5,0.2,0.5,0.5c0,0,0,0,0,0l0.1,13.8c0,0.2-0.1,0.4-0.3,0.4
		C347.5,532.6,339.4,536.6,334.9,536.6z"/>
	<path class="st0" d="M308.4,428.9l-12,92.4l16.3,0.7l13.9-67.8c0,0,6.6,68.9,7.6,68.5c1-0.3,16.9-0.9,16.9-0.9l-5-93.9L308.4,428.9
		z"/>
	<path class="st0" d="M334.1,523.1c-0.1,0-0.2,0-0.3-0.1c-1-0.6-4.5-35.2-7.5-65.6l-13.2,64.6c0,0.2-0.3,0.4-0.5,0.4l-16.3-0.7
		c-0.1,0-0.3-0.1-0.4-0.2c-0.1-0.1-0.1-0.2-0.1-0.4l12-92.4c0-0.2,0.2-0.4,0.5-0.4l37.7-1c0.3,0,0.5,0.2,0.5,0.4c0,0,0,0,0,0l5,93.9
		c0,0.1,0,0.3-0.1,0.4c-0.1,0.1-0.2,0.2-0.4,0.2c-6.1,0.2-16,0.6-16.8,0.8L334.1,523.1z M326.5,453.6L326.5,453.6
		c0.2,0,0.4,0.2,0.5,0.5c2.5,25.7,6.4,64.1,7.4,68c2.4-0.3,12.9-0.7,16.1-0.8l-4.9-92.9l-36.8,1l-11.9,91.5l15.3,0.6L326,454
		C326,453.8,326.2,453.6,326.5,453.6L326.5,453.6z"/>
	<path class="st7" d="M350.1,396.9l9.9-3.5c-0.4-0.6-5.6-15.1-11.4-17.9c-5-3.3-14.3-2.7-24.8-2c-3.4,0.2-6.7,0.8-9.8,2
		c-11.8,4.7-13.5,20.3-13.5,20.3l10.9,3.8c0,0-4.4,20.1-6,31.2c0,0,16.2,9.1,45.9,4.1C351.3,434.9,350.1,400,350.1,396.9z"/>
	<polygon class="st0" points="323.8,379.8 319.6,438.5 334.2,440.8 336.5,378.6 	"/>
	<path class="st0" d="M334.2,441.3L334.2,441.3l-14.6-2.3c-0.3,0-0.4-0.3-0.4-0.5l4.1-58.7c0-0.2,0.2-0.4,0.5-0.5l12.7-1.1
		c0.1,0,0.3,0,0.4,0.1c0.1,0.1,0.2,0.2,0.2,0.4l-2.4,62.3c0,0.1-0.1,0.3-0.2,0.4C334.4,441.3,334.3,441.3,334.2,441.3z M320.2,438.1
		l13.5,2.2l2.3-61.1l-11.7,1.1L320.2,438.1z"/>
	<polygon class="st1" points="326.7,385.8 328.4,387 325.3,411.3 329,414.5 332.9,409.9 330.2,387.2 332.4,386.1 329.5,383.3 	"/>
	<path class="st0" d="M329,415c-0.1,0-0.2,0-0.3-0.1l-3.7-3.2c-0.1-0.1-0.2-0.3-0.2-0.4l3.1-23.9l-1.5-1c-0.2-0.2-0.3-0.5-0.1-0.7
		c0,0,0-0.1,0.1-0.1l2.8-2.6c0.2-0.2,0.5-0.2,0.7,0l2.9,2.9c0.2,0.2,0.2,0.5,0,0.7c0,0-0.1,0.1-0.1,0.1l-1.9,1l2.6,22.3
		c0,0.1,0,0.3-0.1,0.4l-3.9,4.6C329.3,414.9,329.2,415,329,415L329,415z M325.8,411.1l3.1,2.7l3.4-4l-2.7-22.4
		c0-0.2,0.1-0.4,0.3-0.5l1.5-0.8l-2.1-2l-2,1.8l1.2,0.8c0.2,0.1,0.2,0.3,0.2,0.5L325.8,411.1z"/>
	<path class="st1" d="M338.2,363.6c1.2-2.8,1.9-5.8,2.1-8.9c0.3-5-3.8-6.1-3.8-6.1s-0.1-3.6-4.9-4.9c-4.8-1.4-11.1-0.6-13.4,2.5
		c-5.1,6.8,2.3,8.5,2.3,8.5s-2.3,7.4,1.8,9.8C326.4,366.9,338.2,363.6,338.2,363.6z"/>
	<path class="st0" d="M326.9,365.9c-1.7,0.1-3.4-0.2-4.9-0.9c-3.9-2.2-2.6-8.2-2.2-9.9c-1.7-0.5-3-1.6-3.7-3.2
		c-0.6-1.7,0-3.7,1.7-5.9c2.6-3.4,9.3-4.1,14-2.7c4.2,1.2,5.1,4.1,5.2,5c2.6,1.1,4.2,3.7,3.8,6.5c-0.2,3.1-0.9,6.2-2.1,9.1
		c-0.1,0.1-0.2,0.2-0.3,0.3C334.6,365.1,330.8,365.7,326.9,365.9z M326.8,343.5c-3.4,0-6.7,0.9-8.3,3s-2,3.6-1.5,5
		c0.7,2,3.5,2.7,3.5,2.7c0.1,0,0.3,0.1,0.3,0.2c0.1,0.1,0.1,0.3,0,0.4c0,0.1-2.1,7.1,1.6,9.3s13.6-0.4,15.3-0.9
		c1.1-2.7,1.8-5.6,2-8.5c0.3-4.5-3.2-5.6-3.4-5.6c-0.2-0.1-0.4-0.2-0.4-0.5c0-0.1-0.2-3.2-4.5-4.5
		C330,343.8,328.4,343.5,326.8,343.5z M338.2,363.6L338.2,363.6z"/>
	<path class="st1" d="M324.8,371.9l-1,7.9c0,0,2.8,4.8,7.9,3.2c5.1-1.6,5.7-5.6,5.7-5.6l-0.1-15.2c0,0-4-1.8-3.4-10.2
		c-4.1,2.1-8.7,3.1-13.3,2.8c0,0-1.7,9.2-0.8,13.2S324.8,371.9,324.8,371.9z"/>
	<path class="st0" d="M329.6,383.8c-4,0-6.2-3.7-6.2-3.8c0-0.1-0.1-0.2-0.1-0.3l1-7.4c-2.5-0.2-4.6-2-5.2-4.4
		c-0.9-4,0.7-13,0.8-13.4c0-0.3,0.3-0.4,0.5-0.4c4.5,0.3,9-0.7,13-2.7c0.2-0.1,0.4-0.1,0.5,0c0.2,0.1,0.3,0.3,0.2,0.4
		c-0.5,7.9,3.1,9.7,3.1,9.7c0.2,0.1,0.3,0.3,0.3,0.4l0.2,15.3c0,0.3-0.7,4.4-6,6.1C331.1,383.6,330.4,383.8,329.6,383.8z
		 M324.3,379.6c0.5,0.8,3,4.1,7.2,2.8c4.7-1.5,5.3-5.1,5.3-5.2l-0.1-14.9c-0.9-0.6-3.7-2.9-3.5-9.6c-3.9,1.8-8.1,2.6-12.4,2.5
		c-0.3,1.9-1.5,9.2-0.8,12.5c0.8,3.5,4.6,3.6,4.8,3.6c0.1,0,0.3,0.1,0.4,0.2c0.1,0.1,0.1,0.2,0.1,0.4L324.3,379.6z"/>
	<path class="st1" d="M334.7,365.8c1,0.4,2.2,0.3,3.2-0.1c1.4-0.7,2.3-2.1,2.4-3.6c0.1-0.6,0-1.1-0.1-1.7c-0.2-0.5-0.6-1-1.1-1.2
		c-0.7-0.2-1.4-0.1-2,0.1c-1,0.3-1.1,0.8-1.7,1.4c0.1-0.1,0.1-0.2,0.2-0.3"/>
	<path class="st0" d="M336.1,366.6c-0.5,0-1.1-0.1-1.6-0.3c-0.3-0.1-0.4-0.4-0.3-0.6c0.1-0.3,0.4-0.4,0.6-0.3c0,0,0,0,0,0
		c0.9,0.3,1.9,0.3,2.8-0.1c1.2-0.6,2-1.9,2.1-3.2c0.1-0.5,0-1-0.1-1.4c-0.1-0.4-0.4-0.7-0.8-0.9c-0.6-0.1-1.1-0.1-1.7,0.1
		c-0.4,0.1-0.8,0.4-1,0.7c-0.1,0.2-0.3,0.4-0.5,0.5l-0.1,0.1c-0.2,0.2-0.5,0.1-0.7-0.1c-0.2-0.2-0.1-0.5,0-0.7l0,0
		c0-0.1,0.1-0.2,0.2-0.3c0,0,0.1,0,0.1-0.1l0.1-0.1c0.4-0.5,0.9-0.9,1.5-1.1c0.7-0.3,1.5-0.3,2.3-0.1c0.7,0.3,1.2,0.8,1.4,1.5
		c0.2,0.6,0.2,1.3,0.1,1.9c-0.1,1.7-1.2,3.2-2.7,4C337.4,366.4,336.7,366.6,336.1,366.6z"/>
	<path class="st0" d="M324.3,376c1.8,0.2,3.7-0.5,4.9-1.9c2.1-2.4,1.8-4.2,1.8-4.2c-1.7,1.4-3.9,2.1-6.2,1.9L324.3,376z"/>
	<path class="st0" d="M325,376.6c-0.3,0-0.5,0-0.8,0c-0.3-0.1-0.4-0.3-0.4-0.6l0.6-4.1c0-0.3,0.3-0.5,0.6-0.4
		c2.1,0.2,4.1-0.5,5.7-1.8c0.1-0.1,0.3-0.2,0.5-0.1c0.2,0.1,0.3,0.2,0.3,0.4c0,0.1,0.3,2.1-1.9,4.6
		C328.4,375.8,326.7,376.6,325,376.6z M324.9,375.6c1.5,0,3-0.6,4-1.7c0.8-0.8,1.3-1.8,1.6-2.8c-1.5,1-3.3,1.5-5.1,1.4L324.9,375.6z
		"/>
	<path class="st1" d="M326.7,359.3c0,0-2.6,4.1-1.9,4.8s2.5,0.1,2.5,0.1"/>
	<path class="st0" d="M325.9,365c-0.5,0-1.1-0.1-1.5-0.5c-0.6-0.6,0-2.5,1.8-5.4c0.1-0.2,0.4-0.3,0.7-0.2c0,0,0,0,0,0
		c0.2,0.1,0.3,0.5,0.2,0.7c-1.2,1.9-2.1,3.9-1.9,4.3s1.3,0.1,1.9,0c0.3-0.1,0.5,0.1,0.6,0.3c0.1,0.3-0.1,0.5-0.3,0.6c0,0,0,0,0,0
		C326.9,365,326.4,365,325.9,365z"/>
	<ellipse transform="matrix(0.9929 -0.1188 0.1188 0.9929 -40.2917 41.7199)" class="st0" cx="329.9" cy="359" rx="0.7" ry="0.9"/>
	<ellipse transform="matrix(0.179 -0.9839 0.9839 0.179 -87.7259 613.2814)" class="st0" cx="323.6" cy="359.2" rx="1" ry="0.7"/>
	<path class="st0" d="M325.7,370.5c-0.7,0-1.4-0.2-1.9-0.7c-1.3-1.4-1-3.9-0.9-4c0-0.2,0.2-0.4,0.5-0.4c6.2-0.1,6.3-0.1,6.5,0.1
		c0.1,0.1,0.1,0.3,0.1,0.4c-0.1,1-0.4,1.9-0.9,2.7c-0.7,1-1.8,1.7-3,1.9L325.7,370.5z M323.8,366.4c-0.1,1,0.1,1.9,0.7,2.7
		c0.4,0.3,0.9,0.5,1.4,0.4c0.9-0.1,1.8-0.6,2.3-1.4c0.3-0.5,0.6-1.1,0.7-1.8C327.8,366.3,325.5,366.4,323.8,366.4z M329.5,365.9
		L329.5,365.9z M329.5,365.9L329.5,365.9z"/>
	<path class="st0" d="M328.6,368.4c-1.3,1.9-3.6,2-4.4,1.1c0.3-0.8,1-1.4,1.8-1.7C326.9,367.7,327.8,367.9,328.6,368.4z"/>
	<path class="st0" d="M325.7,370.5c-0.7,0-1.4-0.2-1.9-0.7c-0.1-0.2-0.2-0.4-0.1-0.6c0.4-0.9,1.2-1.7,2.1-1.9c1-0.1,2.1,0.1,3,0.6
		c0.2,0.1,0.3,0.5,0.2,0.7c0,0,0,0,0,0c-0.7,1-1.8,1.7-3,1.9L325.7,370.5z M324.8,369.3c0.3,0.2,0.7,0.2,1.1,0.2
		c0.7-0.1,1.4-0.4,1.9-1c-0.5-0.3-1.2-0.3-1.8-0.3C325.5,368.4,325.1,368.8,324.8,369.3L324.8,369.3z"/>
	<path class="st0" d="M314.8,381.7c0,0.5-3.4,17.8-3.4,17.8"/>
	<path class="st0" d="M311.4,400h-0.1c-0.3-0.1-0.4-0.3-0.4-0.6c1.4-6.8,3.4-17,3.4-17.7c0-0.3,0.2-0.5,0.4-0.5c0,0,0,0,0,0
		c0.3,0,0.5,0.2,0.5,0.5c0.1,0.5-2.1,11.5-3.4,18C311.8,399.9,311.6,400,311.4,400z"/>
	<path class="st1" d="M300.5,395.8c0,0.1-2.3,11.2-2.3,11.2l-18.6-12.6c-1.8-3.7-2.1-5.5-3.4-5.3c-1.5,0.2-0.6,3.2-0.4,3.8
		c-1-0.9-4.4-5.1-5.7-4.5c-2.3,1.1-3.2,3.8-2.1,6.1c0.1,0.3,0.3,0.5,0.4,0.7c0.9,1.1,6.8,5.8,6.8,5.8s18.9,20.9,29,25
		c2.8,1.1,7.1-26.5,7.1-26.5L300.5,395.8z"/>
	<path class="st0" d="M304.4,426.5c-0.1,0-0.3,0-0.4-0.1c-9.9-4.1-27.9-23.8-29.2-25.1c-0.5-0.4-6-4.7-6.9-5.8
		c-0.9-1.1-1.2-2.5-0.9-3.8c0.3-1.6,1.3-3,2.8-3.7c1.2-0.6,2.9,1,5.1,3.3c-0.2-0.7-0.1-1.4,0.3-2.1c0.2-0.3,0.6-0.6,1-0.6
		c1.3-0.2,1.8,0.9,2.7,3c0.3,0.7,0.7,1.5,1.2,2.5l17.9,12.1l2.1-10.5c0-0.1,0.1-0.3,0.2-0.3c0.1-0.1,0.3-0.1,0.4,0l10.9,3.8
		c0.2,0.1,0.4,0.3,0.3,0.6c-0.6,4.2-4,25.2-6.9,26.8C304.8,426.5,304.6,426.5,304.4,426.5z M270.4,388.8c0,0-0.1,0-0.1,0
		c-1.2,0.6-2,1.7-2.3,3c-0.2,1.1,0.1,2.2,0.7,3c0.7,0.9,5.1,4.4,6.8,5.7c0.2,0.3,19,20.9,28.9,25c1.5-0.3,4.5-13.5,6.4-25.7l-10-3.4
		l-2.1,10.6c0,0.2-0.1,0.3-0.3,0.4c-0.1,0.1-0.3,0.1-0.5,0l-18.6-12.6c-0.1,0-0.1-0.1-0.2-0.2c-0.5-1-0.9-1.9-1.2-2.7
		c-0.8-1.9-1.1-2.5-1.6-2.4c-0.1,0-0.2,0.1-0.3,0.2c-0.2,0.3-0.3,1,0.2,2.9v0.1c0.1,0.3-0.1,0.5-0.3,0.6c-0.2,0.1-0.4,0-0.5-0.1
		c-0.2-0.2-0.6-0.6-1.1-1.1C272.3,389.9,271,388.8,270.4,388.8L270.4,388.8z"/>
	<path class="st1" d="M346.9,397.2l0.8,13l-21.3,5.7c-2-1.5-6.5-4.7-6.6-3.2c-0.2,1.9,1.7,4,1.7,4s-9.7-1.9-10.1,0s0.9,3.6,1.7,5.2
		s16.5,2.3,16.5,2.3l0,0c6.2,0.5,24.1,1.7,29.7-0.2c6.7-2.3-0.1-30.7-0.1-30.7"/>
	<path class="st0" d="M348,425.5c-6.7,0-14.3-0.5-18.5-0.9c-4.8-0.2-16-1-16.9-2.6c-0.1-0.3-0.3-0.6-0.5-0.9
		c-0.8-1.4-1.6-2.9-1.2-4.6c0.4-1.9,6-1.2,9.4-0.6c-0.7-1-1.1-2.1-1.1-3.3c0-0.3,0.2-0.6,0.5-0.8c0.4-0.2,1.3-0.6,6.8,3.5l20.6-5.4
		l-0.8-12.6c0-0.3,0.2-0.5,0.5-0.5c0,0,0,0,0,0c0.3,0,0.5,0.2,0.5,0.5l0.8,13c0,0.2-0.1,0.5-0.4,0.5l-21.3,5.6c-0.1,0-0.3,0-0.4-0.1
		c-3.7-2.8-5.4-3.5-5.9-3.5c-0.1,1.6,1.6,3.5,1.6,3.5c0.1,0.2,0.2,0.4,0.1,0.6c-0.1,0.2-0.3,0.3-0.5,0.2c-5.3-1-9.4-1-9.5-0.4
		c-0.3,1.3,0.4,2.6,1.1,3.9c0.2,0.3,0.4,0.6,0.5,1c0.7,0.8,8.7,1.7,16.1,2.1c5.5,0.5,24,1.8,29.5-0.2c5.2-1.8,1.5-22.3-0.4-30.1
		c-0.1-0.3,0.1-0.5,0.4-0.6c0,0,0,0,0,0c0.3-0.1,0.5,0.1,0.6,0.4c0,0,0,0,0,0c1.1,4.8,2,9.6,2.6,14.5c1.2,10.1,0.2,15.7-2.8,16.8
		C357.1,425.3,352.8,425.5,348,425.5z"/>
	<line class="st2" x1="346.9" y1="397.2" x2="345.7" y2="383.3"/>
	<path class="st0" d="M346.9,397.7c-0.3,0-0.5-0.2-0.5-0.5l-1.2-13.9c0-0.3,0.2-0.5,0.5-0.5c0,0,0,0,0,0c0.3,0,0.5,0.2,0.5,0.4
		l1.2,14C347.4,397.5,347.2,397.7,346.9,397.7C346.9,397.8,346.9,397.8,346.9,397.7L346.9,397.7z"/>
	<path class="st0" d="M274.7,395.7c-0.2,0-0.4-0.1-0.5-0.3c-0.3-0.7-0.3-1.4,0.1-2.1c0.4-0.5,0.9-0.8,1.5-0.8c0.3,0,0.5,0.2,0.5,0.5
		s-0.2,0.5-0.5,0.5c-0.3,0-0.5,0.2-0.7,0.4c-0.2,0.4-0.2,0.8,0,1.2C275.2,395.3,275.1,395.6,274.7,395.7
		C274.8,395.7,274.8,395.7,274.7,395.7z"/>
	<path class="st6" d="M252.5,415.5L252.5,415.5c-0.2,0-0.4-0.1-0.4-0.3l-21.8-60.7l-24.1,46.9c-0.1,0.2-0.2,0.3-0.4,0.3
		c-0.2,0-0.3-0.1-0.4-0.2l-23.8-31.1l-15,24.1c-0.1,0.2-0.4,0.3-0.7,0.2c0,0,0,0,0,0l-12.6-7.6c-0.2-0.1-0.3-0.4-0.2-0.7
		c0,0,0,0,0,0c0.1-0.2,0.4-0.3,0.7-0.2c0,0,0,0,0,0l12.1,7.3l15.1-24.3c0.1-0.1,0.2-0.2,0.4-0.2c0.2,0,0.3,0.1,0.4,0.2l23.7,31
		l24.3-47.2c0.1-0.2,0.3-0.3,0.5-0.3c0.2,0,0.4,0.1,0.4,0.3l21.8,60.7l10.8-22.8c0.1-0.2,0.4-0.4,0.7-0.2c0.3,0.1,0.4,0.4,0.2,0.7
		c0,0,0,0,0,0l-11.3,23.9C252.8,415.4,252.7,415.5,252.5,415.5z"/>
	<circle class="st1" cx="166" cy="394.1" r="3"/>
	<path class="st6" d="M166,397.6c-1.9,0-3.5-1.6-3.5-3.5c0-1.9,1.6-3.5,3.5-3.5c1.9,0,3.5,1.6,3.5,3.5c0,0,0,0,0,0
		C169.5,396,168,397.6,166,397.6z M166,391.6c-1.4,0-2.5,1.1-2.5,2.5c0,1.4,1.1,2.5,2.5,2.5c1.4,0,2.5-1.1,2.5-2.5l0,0
		C168.5,392.7,167.4,391.6,166,391.6L166,391.6z"/>
	<circle class="st1" cx="181.4" cy="369.5" r="3"/>
	<path class="st6" d="M181.4,373c-1.9,0-3.5-1.5-3.5-3.5c0-1.9,1.5-3.5,3.5-3.5c1.9,0,3.5,1.5,3.5,3.5c0,0,0,0,0,0
		C184.9,371.4,183.4,373,181.4,373z M181.4,367c-1.4,0-2.5,1.1-2.5,2.5s1.1,2.5,2.5,2.5c1.4,0,2.5-1.1,2.5-2.5c0,0,0,0,0,0
		C183.9,368.1,182.8,367,181.4,367L181.4,367z"/>
	<circle class="st1" cx="230.3" cy="353.2" r="3"/>
	<path class="st6" d="M230.3,356.7c-1.9,0-3.5-1.5-3.5-3.5c0-1.9,1.5-3.5,3.5-3.5c1.9,0,3.5,1.5,3.5,3.5c0,0,0,0,0,0
		C233.7,355.1,232.2,356.7,230.3,356.7z M230.3,350.7c-1.4,0-2.5,1.1-2.5,2.5s1.1,2.5,2.5,2.5c1.4,0,2.5-1.1,2.5-2.5c0,0,0,0,0,0
		C232.7,351.8,231.6,350.8,230.3,350.7L230.3,350.7z"/>
	<circle class="st1" cx="252.5" cy="415" r="3"/>
	<path class="st6" d="M252.5,418.5c-1.9,0-3.5-1.6-3.5-3.5c0-1.9,1.6-3.5,3.5-3.5s3.5,1.6,3.5,3.5c0,0,0,0,0,0
		C255.9,417,254.4,418.5,252.5,418.5z M252.5,412.6c-1.4,0-2.5,1.1-2.5,2.5c0,1.4,1.1,2.5,2.5,2.5c1.4,0,2.5-1.1,2.5-2.5
		c0,0,0,0,0,0C254.9,413.7,253.8,412.6,252.5,412.6L252.5,412.6L252.5,412.6z"/>
	<circle class="st1" cx="205.6" cy="401.1" r="3"/>
	<path class="st6" d="M205.6,404.6c-1.9,0-3.5-1.6-3.5-3.5c0-1.9,1.6-3.5,3.5-3.5s3.5,1.6,3.5,3.5l0,0
		C209.1,403.1,207.6,404.6,205.6,404.6z M205.6,398.7c-1.4,0-2.5,1.1-2.5,2.5c0,1.4,1.1,2.5,2.5,2.5c1.4,0,2.5-1.1,2.5-2.5
		c0,0,0,0,0,0C208.1,399.8,207,398.7,205.6,398.7z"/>
	<path class="st6" d="M170.8,355.6H157c-0.3,0-0.5-0.2-0.5-0.5c0-0.3,0.2-0.5,0.5-0.5h13.8c0.3,0,0.5,0.2,0.5,0.5
		C171.3,355.4,171.1,355.6,170.8,355.6z"/>
	<path class="st6" d="M170.8,359.2H157c-0.3,0-0.5-0.2-0.5-0.5s0.2-0.5,0.5-0.5h13.8c0.3,0,0.5,0.2,0.5,0.5
		C171.3,359,171.1,359.2,170.8,359.2z"/>
	<path class="st6" d="M170.8,362.8H157c-0.3,0-0.5-0.2-0.5-0.5s0.2-0.5,0.5-0.5h13.8c0.3,0,0.5,0.2,0.5,0.5
		C171.3,362.5,171.1,362.7,170.8,362.8z"/>
	<path class="st6" d="M165.9,366.3H157c-0.3,0-0.5-0.2-0.5-0.5s0.2-0.5,0.5-0.5h8.9c0.3,0,0.5,0.2,0.5,0.5S166.2,366.3,165.9,366.3z
		"/>
	<path class="st6" d="M263.9,369.4h-13.8c-0.3,0-0.5-0.2-0.5-0.5c0-0.3,0.2-0.5,0.5-0.5h13.8c0.3,0,0.5,0.2,0.5,0.5
		C264.4,369.2,264.2,369.4,263.9,369.4z"/>
	<path class="st6" d="M263.9,373h-13.8c-0.3,0-0.5-0.2-0.5-0.5c0-0.3,0.2-0.5,0.5-0.5h13.8c0.3,0,0.5,0.2,0.5,0.5
		S264.2,373,263.9,373z"/>
	<path class="st6" d="M259.3,376.5h-9.1c-0.3,0-0.5-0.2-0.5-0.5c0-0.3,0.2-0.5,0.5-0.5h9.1c0.3,0,0.5,0.2,0.5,0.5
		C259.8,376.3,259.6,376.5,259.3,376.5z"/>
	<path class="st6" d="M267.7,426.4H149.7c-0.3,0-0.5-0.2-0.5-0.5c0-0.3,0.2-0.5,0.5-0.5h118.1c0.3,0,0.5,0.2,0.5,0.5
		C268.2,426.2,268,426.4,267.7,426.4z"/>
	<path class="st6" d="M267.7,433.3H149.7c-0.3,0-0.5-0.2-0.5-0.5c0-0.3,0.2-0.5,0.5-0.5h118.1c0.3,0,0.5,0.2,0.5,0.5
		C268.2,433,268,433.3,267.7,433.3z"/>
	<path class="st6" d="M248.3,440.1h-98.6c-0.3,0-0.5-0.2-0.5-0.5c0-0.3,0.2-0.5,0.5-0.5h98.6c0.3,0,0.5,0.2,0.5,0.5
		C248.8,439.9,248.5,440.1,248.3,440.1z"/>
	<path class="st1" d="M252.5,482.8c-1.7-1.6-3.7-2.8-5.8-3.8c-0.2,6.2,2.4,11.9,4.7,15.9h7.6"/>
	<path class="st0" d="M259,495.4h-7.6c-0.2,0-0.3-0.1-0.4-0.2c-2.3-3.8-4.9-9.7-4.8-16.1c0-0.2,0.1-0.3,0.2-0.4
		c0.1-0.1,0.3-0.1,0.5,0c2.2,1,4.2,2.3,5.9,3.9c0.2,0.2,0.2,0.5,0.1,0.7c-0.2,0.2-0.5,0.2-0.7,0c-1.5-1.3-3.2-2.5-5-3.4
		c0.1,5.8,2.4,11,4.5,14.6h7.3c0.3,0,0.5,0.2,0.5,0.5C259.5,495.2,259.3,495.4,259,495.4z"/>
	<path class="st1" d="M263.4,484.5c-1.9-9.7-9.5-15.8-9.5-15.8c-1.4,4.6-1.9,9.4-1.4,14.2c0.4,4.1,1.3,8.2,2.6,12.1h8.2"/>
	<path class="st0" d="M263.3,495.4h-8.2c-0.2,0-0.4-0.1-0.5-0.3c-1.4-3.9-2.2-8-2.6-12.1c-0.5-4.8,0-9.7,1.4-14.4
		c0.1-0.2,0.2-0.3,0.3-0.3c0.2,0,0.3,0,0.4,0.1c0.3,0.3,7.8,6.3,9.7,16.1c0.1,0.3-0.1,0.5-0.4,0.6c-0.3,0.1-0.5-0.1-0.6-0.4
		c-1.5-7.9-7-13.4-8.7-15c-1.2,4.3-1.6,8.8-1.1,13.2c0.4,4,1.2,7.8,2.5,11.6h7.8c0.3,0,0.5,0.2,0.5,0.5
		C263.8,495.2,263.6,495.4,263.3,495.4z"/>
	<path class="st1" d="M267.4,494.9h-7.2c-0.1-2.1,0.4-5.4,2.7-9.6l0.5-0.8c4.2-7.1,8-7,8-7C273,485,269.6,491.6,267.4,494.9z"/>
	<path class="st0" d="M267.4,495.4h-7.2c-0.3,0-0.5-0.2-0.5-0.5c-0.1-2,0.4-5.4,2.8-9.8l0.5-0.8c4.3-7.3,8.3-7.2,8.5-7.3
		c0.2,0,0.4,0.2,0.5,0.4c1.7,7.6-1.8,14.4-4,17.8C267.8,495.3,267.6,495.4,267.4,495.4z M260.7,494.4h6.5c2.1-3.2,5.2-9.4,3.9-16.3
		c-1,0.2-4,1.3-7.2,6.7l-0.5,0.8C261.8,488.2,260.9,491.3,260.7,494.4L260.7,494.4z"/>
	<polygon class="st0" points="266.1,506.3 252,506.3 249.7,494.9 268.4,494.9 	"/>
</g>
</svg>
