<?xml version="1.0" encoding="utf-8"?>
<!-- Generator: Adobe Illustrator 28.1.0, SVG Export Plug-In . SVG Version: 6.00 Build 0)  -->
<svg version="1.1" id="Calque_1" xmlns="http://www.w3.org/2000/svg" xmlns:xlink="http://www.w3.org/1999/xlink" x="0px" y="0px"
	 viewBox="0 0 400 300" style="enable-background:new 0 0 400 300;" xml:space="preserve">
<style type="text/css">
	.st0{fill:#231F20;}
	.st1{fill:#FFFFFF;}
	.st2{fill:none;}
	.st3{fill:#484948;}
	.st4{fill:#010002;}
	.st5{fill:url(#GRADLEPHANT_00000081645056379327328550000011245941012600951699_);}
</style>
<g id="_566_team_presentation_flatline">
	<path class="st0" d="M138.5,249.2c0,0-5.5,8.5-6.5,16.6h51.7c-1.3-3-3.8-5.3-6.8-6.5c-5.2-2-16.4-2.9-18.3-5
		c-1.1-1.5-1.7-3.3-1.5-5.2L138.5,249.2L138.5,249.2z"/>
	<path class="st0" d="M183.6,266.2h-51.7c-0.1,0-0.2-0.1-0.3-0.1c-0.1-0.1-0.1-0.2-0.1-0.4c1.1-8.1,6.6-16.7,6.6-16.8
		c0.1-0.1,0.2-0.2,0.4-0.2H157c0.1,0,0.2,0.1,0.3,0.1c0.1,0.1,0.1,0.2,0.1,0.3c-0.2,1.7,0.3,3.4,1.4,4.8c1,1.1,5.2,1.9,9.3,2.7
		c3,0.5,5.9,1.2,8.8,2.1c3.2,1.2,5.8,3.6,7.1,6.7c0.1,0.1,0,0.3-0.1,0.4C183.9,266.2,183.7,266.2,183.6,266.2L183.6,266.2z
		 M132.4,265.4h50.5c-1.3-2.6-3.6-4.6-6.3-5.6c-2.8-0.9-5.7-1.6-8.7-2.1c-4.6-0.9-8.6-1.7-9.8-3c-1.1-1.4-1.7-3.2-1.6-5h-17.9
		C137.9,250.9,133.5,258.3,132.4,265.4z"/>
	<polygon class="st1" points="139.8,243.6 138.5,249.2 157,249.2 157.6,242.2 	"/>
	<path class="st0" d="M157,249.7h-18.5c-0.3,0-0.5-0.2-0.5-0.5c0,0,0-0.1,0-0.1l1.4-5.6c0.1-0.2,0.2-0.4,0.4-0.4l17.8-1.4
		c0.1,0,0.3,0,0.4,0.1c0.1,0.1,0.2,0.2,0.1,0.4l-0.6,6.9C157.5,249.5,157.3,249.7,157,249.7L157,249.7z M139.1,248.7h17.5l0.5-5.9
		l-16.8,1.3L139.1,248.7L139.1,248.7z"/>
	<line class="st2" x1="109.2" y1="193.2" x2="121.2" y2="265.8"/>
	<path class="st0" d="M121.2,266.3c-0.2,0-0.5-0.2-0.5-0.4l-12-72.6c-0.1-0.3,0.1-0.5,0.4-0.6c0,0,0,0,0,0c0.3-0.1,0.5,0.1,0.6,0.4
		c0,0,0,0,0,0l12,72.6C121.7,266,121.5,266.2,121.2,266.3L121.2,266.3L121.2,266.3z"/>
	<line class="st2" x1="96" y1="193.2" x2="83.7" y2="265.8"/>
	<path class="st0" d="M83.7,266.3L83.7,266.3c-0.3,0-0.5-0.3-0.5-0.6v0l12.2-72.6c0.1-0.3,0.3-0.4,0.6-0.4c0.3,0,0.4,0.3,0.4,0.6
		c0,0,0,0,0,0l-12.2,72.6C84.2,266.1,84,266.3,83.7,266.3z"/>
	<path class="st0" d="M155.2,177.6c0,0,9.1-10.7,14.3-6.6S159,245.5,159,245.5h-21.1c0,0,2.1-43.7,4.7-52S155.2,177.6,155.2,177.6
		L155.2,177.6z"/>
	<path class="st0" d="M159,246h-21.1c-0.1,0-0.2-0.1-0.3-0.1c-0.1-0.1-0.1-0.2-0.1-0.3c0.1-1.8,2.2-43.8,4.7-52.1s12-15.5,12.8-16.1
		c0.7-0.8,9.5-10.9,14.9-6.7s-8.8,67.8-10.4,75C159.4,245.8,159.2,246,159,246z M138.4,245.1h20.3c6.3-28.2,14.4-70.9,10.7-73.8
		c-4.9-3.8-13.6,6.5-13.7,6.6l-0.1,0.1c-0.1,0.1-10.1,7.6-12.5,15.7C140.6,201.4,138.6,240.4,138.4,245.1L138.4,245.1L138.4,245.1z
		 M155.3,177.6L155.3,177.6z"/>
	<path class="st1" d="M107.7,242.8c-1.5,1.7-2.6,3.7-3.2,5.9h18.6l2.4-5.9C125.5,242.8,107.6,242.8,107.7,242.8z"/>
	<path class="st0" d="M123.1,249.2h-18.6c-0.2,0-0.3-0.1-0.4-0.2c-0.1-0.1-0.1-0.3-0.1-0.4c0.6-2.3,1.7-4.4,3.3-6.1
		c0.1-0.1,0.2-0.2,0.4-0.2h17.9c0.2,0,0.3,0.1,0.4,0.2c0.1,0.1,0.1,0.3,0,0.5l-2.4,5.9C123.5,249,123.3,249.1,123.1,249.2z
		 M105.1,248.2h17.7l2-4.9h-16.9C106.7,244.7,105.7,246.4,105.1,248.2L105.1,248.2L105.1,248.2z"/>
	<path class="st0" d="M89.3,177.2c0,0-0.7,7.9,7.5,13.4s36,2.6,36,2.6l-27.5,49.3l23.6,1.9c0,0,33.4-55.1,32.9-64.3
		s-14.2-10.9-14.2-10.9H91.9L89.3,177.2L89.3,177.2z"/>
	<path class="st0" d="M128.9,245L128.9,245l-23.6-2c-0.2,0-0.3-0.1-0.4-0.2c-0.1-0.1-0.1-0.3,0-0.4l27.1-48.5
		c-4.8,0.4-27.9,2.3-35.4-2.8c-8.3-5.6-7.7-13.7-7.7-13.8v-0.1l2.5-7.9c0.1-0.2,0.2-0.3,0.4-0.3h55.7c0.6,0.1,14.2,1.9,14.7,11.3
		c0.5,9.2-31.6,62.2-33,64.5C129.1,244.9,129,245,128.9,245z M106,242.2l22.6,1.9c2.4-3.9,33.2-55.1,32.7-63.8s-13.7-10.4-13.9-10.5
		H92.2l-2.4,7.5c0,0.6-0.3,7.8,7.3,12.9c8,5.4,35.4,2.6,35.7,2.6c0.2,0,0.3,0.1,0.4,0.2c0.1,0.1,0.1,0.3,0,0.5L106,242.2L106,242.2z
		"/>
	<path class="st1" d="M87,150.7c0.2,1.3,0.3,2.6,0.4,3.9c0.4,7.2-0.3,14.5,1.1,21.6c0.2,1.3,0.7,2.5,1.5,3.5
		c0.7,0.7,1.6,1.1,2.6,1.4c5.8,1.8,11.9,1.5,17.8,2.6s12.1,4,14.4,9.6c0.6,0.8,0.4,1.9-0.4,2.5c-0.2,0.1-0.5,0.3-0.7,0.3
		c-4.5,1.7-10.1,0.6-14.8,0.6c-6.6,0-13.2-0.3-19.8-0.7c-2.3,0-4.5-0.5-6.6-1.3c-7.6-3.6-9.6-15.2-10.5-22.5
		c-1.3-10.8-1.9-21.6-1.8-32.5c0-3.3,1.2-7.7,4.4-7.7s7.7,5.9,9.2,8.6C85.4,143.5,86.6,147.1,87,150.7z"/>
	<path class="st0" d="M117.4,197.4c-1.5,0-3.1-0.1-4.6-0.2s-2.7-0.2-4-0.2c-6.6,0-13.3-0.3-19.9-0.7c-2.3,0-4.6-0.5-6.8-1.4
		c-7.6-3.6-9.8-14.8-10.8-22.9c-1.3-10.8-1.9-21.7-1.8-32.6c0-3.8,1.4-8.1,4.9-8.2l0,0c3.9,0,8.3,6.5,9.6,8.8
		c1.7,3.3,2.8,6.9,3.3,10.6c0.2,1.2,0.3,2.5,0.4,3.9c0.2,2.6,0.2,5.2,0.2,7.7c-0.1,4.6,0.2,9.2,0.9,13.8c0.1,1.2,0.6,2.3,1.4,3.2
		c0.7,0.6,1.5,1,2.4,1.2c3.5,0.9,7.1,1.5,10.7,1.7c2.3,0.2,4.7,0.4,7.1,0.8c3.5,0.6,12,2.8,14.8,9.9c0.4,0.8,0.4,1.7,0,2.4
		c-0.3,0.5-0.9,0.8-1.4,1C121.7,197.1,119.6,197.4,117.4,197.4L117.4,197.4z M74.6,132.2L74.6,132.2c-3,0-3.9,4.5-4,7.2
		c-0.1,10.9,0.5,21.7,1.8,32.5c1,7.9,3.1,18.8,10.2,22.1c2.1,0.8,4.3,1.2,6.5,1.3c6.6,0.4,13.2,0.7,19.8,0.7c1.3,0,2.7,0.1,4.1,0.2
		c3.7,0.2,7.4,0.5,10.6-0.7c0.4-0.1,0.7-0.3,0.9-0.6c0.2-0.5,0.2-1.1-0.1-1.5c-2.6-6.6-10.7-8.7-14-9.3c-2.3-0.4-4.7-0.6-7-0.8
		c-3.7-0.2-7.3-0.8-10.9-1.8c-1-0.3-2-0.8-2.8-1.4c-0.9-1.1-1.5-2.4-1.7-3.7c-0.8-4.6-1.1-9.3-0.9-14c0-2.5,0-5.1-0.2-7.7
		c-0.1-1.3-0.2-2.6-0.4-3.8l0,0c-0.4-3.6-1.5-7-3.2-10.2C81.9,137.9,77.7,132.2,74.6,132.2z"/>
	<path class="st1" d="M188.2,160.4c2.9,0.7,5.4,2.3,7.2,4.7c0.2,0.3,0.4,0.6,0.4,1c-0.1,0.6-0.8,0.8-1.3,0.8
		c-1.8,0.1-3.6-0.1-5.4-0.4c-3.8-0.4-7.7,0.2-11.6-0.3c-3.3-0.4,0.5-5.6,2.2-6.3C181.9,158.9,185.9,159.7,188.2,160.4L188.2,160.4z"
		/>
	<path class="st0" d="M193.4,167.4c-1,0-2-0.1-3-0.3c-0.5-0.1-0.9-0.1-1.4-0.2c-1.8-0.1-3.6-0.2-5.4-0.1c-2.1,0.1-4.1,0-6.2-0.2
		c-0.9,0-1.6-0.6-1.7-1.5c-0.3-2,2.4-5.2,3.8-5.7c2.3-1,6.2-0.3,9,0.4c3,0.7,5.6,2.4,7.5,4.9c0.3,0.4,0.5,0.9,0.4,1.4
		c-0.1,0.7-0.8,1.1-1.8,1.2C194.2,167.4,193.8,167.4,193.4,167.4L193.4,167.4z M185.6,165.9c1.1,0,2.3,0,3.4,0.1l1.5,0.2
		c1.3,0.2,2.6,0.3,3.9,0.2c0.4,0,0.9-0.2,0.9-0.4s-0.1-0.4-0.3-0.6c-1.7-2.2-4.2-3.8-6.9-4.5l0,0c-3.8-1-6.7-1.2-8.3-0.5
		c-1.1,0.5-3.4,3.3-3.2,4.7c0,0.2,0.1,0.6,0.9,0.7c2,0.2,4,0.3,6.1,0.2L185.6,165.9z"/>
	<path class="st3" d="M91.9,171.6c0,0-14-33.1-12.4-51.9c1.2-13.9,13.5-19.9,18.1-20.2c4.2-0.3,26.9-3.3,35.1,6.8s7.6,63.6,7.6,63.6
		S91.9,171.6,91.9,171.6z"/>
	<polygon class="st0" points="120,108.2 119.7,146.4 103.5,105.7 	"/>
	<path class="st0" d="M119.7,146.9c-0.2,0-0.4-0.1-0.5-0.3L103,105.9c-0.1-0.2,0-0.4,0.1-0.5s0.3-0.2,0.5-0.2l16.5,2.6
		c0.2,0,0.4,0.2,0.4,0.5l-0.3,38.1C120.1,146.6,120,146.8,119.7,146.9L119.7,146.9L119.7,146.9z M104.3,106.3l14.9,37.5l0.3-35.1
		L104.3,106.3z"/>
	<path class="st3" d="M132.7,106.4c0,0,6.1,11.7,9.7,17.8c3.6,6,11.4,14.7,11.4,14.7s27.6,9.8,27.8,10.4S179,159,179,159
		s-29-2.1-33.8-4.4s-14.5-13.4-14.5-13.4L132.7,106.4z"/>
	<polygon class="st1" points="113.7,112.4 111.7,115.7 113.9,117 114.1,132.4 119.7,146.4 120,133.4 115.3,116.6 116.7,114.9 	"/>
	<path class="st0" d="M119.7,146.9c-0.2,0-0.4-0.1-0.5-0.3l-5.6-14c0-0.1,0-0.1,0-0.2l-0.2-15.1l-2-1.2c-0.1-0.1-0.2-0.2-0.2-0.3
		c0-0.1,0-0.3,0.1-0.4l2-3.2c0.1-0.1,0.2-0.2,0.3-0.2c0.1,0,0.3,0,0.4,0.1l3,2.5c0.2,0.2,0.2,0.5,0.1,0.7l0,0l-1.2,1.4l4.6,16.6
		c0,0,0,0.1,0,0.1l-0.3,13C120.1,146.7,120,146.8,119.7,146.9L119.7,146.9L119.7,146.9z M114.6,132.3l4.6,11.6l0.2-10.4l-4.6-16.8
		c-0.1-0.2,0-0.3,0.1-0.5l1-1.2l-2.2-1.8l-1.5,2.3l1.8,1.1c0.2,0.1,0.2,0.2,0.2,0.4L114.6,132.3L114.6,132.3z"/>
	<path class="st1" d="M101.8,66.1c0.6-0.2,1.2-0.4,1.8-0.5c2.5-0.3,2.6,0.2,4.5-1.4c2.9-2.3,6.5-3.7,10.3-3.9
		c7.2-0.5,12.5,3.1,10.8,11c-0.8,3.1-2.2,6.1-4.2,8.6c-4.1,5.6-9.8,10.8-16.8,11.3c-2,0.2-5.9,0-7.4-1.7C96.5,84.7,95.1,78,97,71.8
		c0.4-1.3,1-2.5,1.9-3.6C99.7,67.2,100.7,66.5,101.8,66.1z"/>
	<path class="st0" d="M107,91.9c-1.8,0-5.1-0.2-6.6-1.9c-4.4-5-5.9-12-3.9-18.4c0.4-1.4,1.1-2.7,2-3.8c0.8-1,1.9-1.7,3.1-2.2l0,0
		c0.6-0.2,1.3-0.4,2-0.5c0.7-0.1,1.2-0.1,1.6-0.1c1.1,0,1.3-0.1,2.7-1.2c3-2.4,6.7-3.8,10.6-4c4.3-0.3,7.7,0.8,9.7,3.1
		c1.8,2.1,2.4,5,1.6,8.5c-0.8,3.2-2.3,6.2-4.3,8.8c-3.6,4.9-9.4,10.9-17.1,11.5C108.2,91.8,107.7,91.9,107,91.9L107,91.9z M102,66.6
		c-1.1,0.4-2,1.1-2.7,1.9c-0.8,1-1.4,2.2-1.8,3.4c-1.9,6-0.5,12.6,3.7,17.4c1.2,1.3,4.5,1.7,7,1.5c7.3-0.6,13-6.3,16.4-11.1
		c2-2.5,3.4-5.3,4.1-8.4c0.7-3.2,0.2-5.8-1.4-7.7c-1.8-2.1-4.9-3.1-8.9-2.8c-3.6,0.2-7.1,1.5-10,3.8c-0.8,0.9-2,1.4-3.2,1.3
		c-0.5,0-1,0.1-1.5,0.1C103.2,66.2,102.6,66.3,102,66.6C102,66.5,102,66.6,102,66.6z"/>
	<path class="st1" d="M120.6,97.5v10.9c0,0-2.6,6-9.7,4.2s-8-6.9-8-6.9l0.3-20.2c0,0,5.3-2.8,3.9-14.3c5.8,2.6,12.2,3.6,18.5,2.8
		c0,0,2.2,12.6,1.4,18.1C126.4,97.5,120.7,97.4,120.6,97.5z"/>
	<path class="st0" d="M113.5,113.4c-0.9,0-1.8-0.1-2.7-0.3c-7.3-1.9-8.3-7.1-8.4-7.3l0.3-20.2c0-0.2,0.1-0.3,0.3-0.4
		c0,0,5-2.8,3.6-13.8c0-0.2,0.1-0.4,0.2-0.5c0.2-0.1,0.4-0.1,0.5,0c5.7,2.5,12,3.5,18.2,2.8c0.3,0,0.5,0.2,0.6,0.4
		c0.1,0.5,2.2,12.7,1.4,18.3c-0.4,3.3-2.8,5.3-6.5,5.7v10.4c0,0.1,0,0.1,0,0.2C119.7,111.5,116.7,113.3,113.5,113.4z M103.7,85.7
		l-0.3,19.9c0,0.1,0.9,4.7,7.6,6.4c6.2,1.6,8.7-3.1,9-3.8V97.5c0-0.2,0.1-0.3,0.2-0.4c0.1-0.1,0.3-0.1,0.5-0.1
		c3.4-0.3,5.5-2,5.9-4.9c0.7-4.8-1-15.2-1.3-17.5c-5.9,0.6-11.9-0.3-17.5-2.5C108.7,81.7,104.8,85,103.7,85.7z M120.6,108.3
		L120.6,108.3z"/>
	<path class="st1" d="M107.4,85.1c-0.2-1-0.8-1.9-1.6-2.5c-0.8-0.6-1.6-1-2.5-1.3c-0.5-0.2-1-0.3-1.5-0.3c-0.3,0.1-0.7,0.2-1,0.4
		c-0.8,0.4-1.4,1-1.8,1.8c-0.2,0.7-0.2,1.3-0.1,2c0.1,0.7,0.2,1.5,0.5,2.2c1.2,2.9,4.5,4.2,7.4,3c0,0,0,0,0.1,0"/>
	<path class="st0" d="M104.8,91.4c-0.8,0-1.6-0.2-2.3-0.4c-1.5-0.6-2.7-1.8-3.4-3.4c-0.3-0.7-0.5-1.5-0.6-2.3
		c-0.1-0.8-0.1-1.6,0.2-2.3c0.4-0.9,1.1-1.6,2-2c0.4-0.2,0.8-0.3,1.2-0.4c0.6,0,1.2,0.1,1.7,0.3c0.9,0.3,1.8,0.8,2.6,1.4
		c0.8,0.7,1.4,1.7,1.7,2.7c0.1,0.3-0.1,0.5-0.4,0.6c-0.3,0.1-0.5-0.1-0.6-0.4c-0.2-0.9-0.7-1.7-1.4-2.2c-0.7-0.5-1.5-0.9-2.3-1.2
		c-0.4-0.2-0.8-0.3-1.3-0.3c-0.3,0.1-0.6,0.2-0.8,0.3c-0.7,0.3-1.2,0.8-1.5,1.5c-0.2,0.6-0.2,1.2-0.1,1.8c0.1,0.7,0.2,1.4,0.5,2
		c1.1,2.6,4.1,3.9,6.7,2.8c0,0,0.1,0,0.1,0c0.2-0.1,0.6,0,0.7,0.3c0.1,0.2,0,0.6-0.3,0.7l0,0C106.4,91.2,105.6,91.4,104.8,91.4
		L104.8,91.4z"/>
	<path class="st1" d="M120.2,81.2c0,0,3.9,5.5,3,6.5s-3.4,0.4-3.4,0.4"/>
	<path class="st0" d="M121.3,88.8c-0.6,0-1.1-0.1-1.6-0.2c-0.3-0.1-0.4-0.3-0.4-0.6c0.1-0.3,0.3-0.4,0.6-0.4
		c0.9,0.2,2.4,0.3,2.9-0.2c0.2-0.5-1.2-3.2-3-5.9c-0.2-0.2-0.1-0.5,0.2-0.7c0.2-0.1,0.5-0.1,0.7,0.1c1.5,2.2,4,6,3,7.1
		C123,88.6,122.2,88.9,121.3,88.8z"/>
	
		<ellipse transform="matrix(6.157113e-02 -0.9981 0.9981 6.157113e-02 30.0316 191.9583)" class="st0" cx="117.1" cy="80" rx="1.3" ry="0.9"/>
	
		<ellipse transform="matrix(0.9975 -7.010469e-02 7.010469e-02 0.9975 -5.304 8.9631)" class="st0" cx="125" cy="80" rx="0.9" ry="1.3"/>
	<path class="st0" d="M120.3,92.1c-2.1,0-4.9-0.3-6.8-1.8c-0.2-0.2-0.2-0.5,0-0.7c0.2-0.2,0.4-0.2,0.6-0.1c2.9,2.4,9,1.4,9,1.4
		c0.3,0,0.5,0.1,0.6,0.4s-0.1,0.5-0.4,0.6C122.3,92,121.3,92.1,120.3,92.1z"/>
	<path class="st0" d="M127.3,86.9c-3.8,0-6.9-3.1-6.9-6.9s3.1-6.9,6.9-6.9c3.8,0,6.9,3.1,6.9,6.9c0,0.4,0,0.8-0.1,1.2
		C133.5,84.5,130.7,86.9,127.3,86.9z M127.3,74.1c-3.3,0-5.9,2.6-6,5.9c0,3.3,2.6,5.9,5.9,6c3.3,0,5.9-2.6,6-5.9
		c0-2.9-2.1-5.4-4.9-5.9C128,74.1,127.7,74.1,127.3,74.1L127.3,74.1z"/>
	<path class="st0" d="M113.9,86.4c-0.4,0-0.8,0-1.2-0.1c-3.8-0.7-6.3-4.2-5.6-8c0.3-1.8,1.3-3.4,2.8-4.5c3.1-2.2,7.4-1.4,9.6,1.7
		s1.4,7.4-1.7,9.6C116.7,86,115.3,86.4,113.9,86.4C113.9,86.4,113.9,86.4,113.9,86.4z M113.9,73.6c-3.3,0-5.9,2.7-5.9,5.9
		c0,2.9,2.1,5.3,4.9,5.8c3.2,0.4,6.2-1.9,6.6-5.1c0.4-3.1-1.6-5.9-4.6-6.6C114.5,73.6,114.2,73.6,113.9,73.6L113.9,73.6z"/>
	<path class="st0" d="M120.6,97.5c0,0-6.8,1.6-10.8-0.7c0,0,4.4,9.1,10.8,8.2V97.5z"/>
	<path class="st0" d="M119.6,105.5c-6.1,0-10.1-8.2-10.3-8.5c-0.1-0.2-0.1-0.4,0.1-0.6s0.4-0.2,0.6-0.1c3.8,2.2,10.3,0.7,10.4,0.7
		c0.3-0.1,0.5,0.1,0.6,0.4c0,0,0,0.1,0,0.1v7.5c0,0.2-0.2,0.4-0.4,0.5C120.3,105.5,120,105.5,119.6,105.5z M111,97.8
		c1.4,2.3,4.8,7,9.1,6.7v-6.4C118.5,98.4,114.3,99,111,97.8z"/>
	<path class="st3" d="M86.4,105.3c-8.4,5.3-19.4,56.4-12.2,61.9c11.2,8.6,42.6-8.4,42.6-8.4l-3.2-15c0,0-25,0.7-25.3-4.4
		s14.5-28.9,12.6-32.4S86.4,105.3,86.4,105.3z"/>
	<path class="st0" d="M97.6,167.4c-0.2,0-0.4-0.1-0.5-0.4c-0.1-0.3,0.1-0.5,0.3-0.6l13.7-3.9v-11.9l-21.9-2.2
		c-0.1,0-0.3-0.1-0.4-0.2s-0.1-0.3-0.1-0.4l8.3-37.3c0.1-0.3,0.3-0.4,0.6-0.4s0.4,0.3,0.4,0.6l0,0l-8.2,36.8l21.8,2.2
		c0.3,0,0.4,0.2,0.4,0.5V163c0,0.2-0.2,0.4-0.4,0.5l-14.1,4C97.7,167.5,97.6,167.5,97.6,167.4z"/>
	<path class="st1" d="M151,160.7c-0.2,0.5-1,0.4-1.5,0.1l-7.1-3.3c1.6,0.8,3.2,1.8,4.6,3c0.3,0.2,0.6,0.5,0.5,0.9
		c-0.1,0.6-1,0.5-1.6,0.2c-2.7-1.3-5.4-2.9-7.8-4.7l5.5,4.2c0,0.5-0.4,0.9-0.9,0.9c0,0,0,0,0,0c-0.5,0-0.9-0.2-1.3-0.4l-6.1-3.6
		l3.8,2.7c0.6,0.4,1.3,1.1,1,1.8s-1.5,0.6-2.3,0.2c-3.2-1.4-6.5-2.4-9.9-3c-1.2-0.4-2.4-0.6-3.7-0.8c-1.9,0.2-3.8,0.7-5.6,1.2
		c-2.3,0.5-4.7,1.1-7,1.6v-9.8c4,0.2,8,0,12-0.6c3-0.7,6.1-1.1,9.3-1.1c4.1,0.2,8.2,1.1,12,2.7c0.1,0.1,0.3,0.1,0.4,0.3
		c0.4,0.5-0.5,1-1.1,1c-1.6,0-3.3-0.2-4.9-0.6c3.9,1.4,7.6,3.4,11.1,5.9C150.7,159.8,151.2,160.3,151,160.7L151,160.7z"/>
	<path class="st0" d="M139.1,163.5c-0.5,0-1.1-0.1-1.5-0.4c-3.1-1.4-6.4-2.4-9.8-3c-0.4-0.1-0.8-0.2-1.2-0.3
		c-0.7-0.3-1.5-0.4-2.3-0.4c-1.3,0.1-2.5,0.4-3.8,0.8c-0.6,0.2-1.2,0.3-1.8,0.4l-6.9,1.6c-0.1,0-0.3,0-0.4-0.1
		c-0.1-0.1-0.2-0.2-0.2-0.3v-9.8c0-0.1,0.1-0.2,0.1-0.3s0.2-0.1,0.3-0.1c4,0.2,8,0,11.9-0.6l1.1-0.2c2.7-0.6,5.5-0.9,8.3-0.9
		c4.2,0.2,8.3,1.1,12.1,2.8c0.2,0.1,0.4,0.2,0.6,0.4c0.2,0.3,0.2,0.6,0.1,0.9c-0.4,0.5-0.9,0.8-1.6,0.8H143c2.7,1.2,5.2,2.7,7.6,4.4
		c0.7,0.5,1,1.1,0.8,1.7c-0.2,0.4-0.6,0.6-1.1,0.6c-0.4,0-0.7-0.1-1-0.2l-2.1-1c0.4,0.3,0.6,0.8,0.6,1.3c-0.1,0.3-0.3,0.5-0.5,0.7
		c-0.6,0.2-1.2,0.1-1.7-0.1c-0.5-0.3-1.1-0.5-1.6-0.8c0,0.3-0.1,0.5-0.3,0.7c-0.3,0.3-0.6,0.5-1,0.5c-0.5,0-1.1-0.2-1.5-0.5
		l-0.7-0.4c0.1,0.4,0.1,0.8,0,1.1c-0.1,0.3-0.4,0.6-0.7,0.7C139.6,163.4,139.4,163.5,139.1,163.5L139.1,163.5z M124.4,158.5
		c0.8,0,1.7,0.2,2.4,0.4c0.4,0.1,0.8,0.2,1.2,0.3c3.4,0.6,6.8,1.7,10,3.1c0.4,0.2,1,0.3,1.5,0.2c0.1,0,0.2-0.1,0.2-0.2
		c0.2-0.4-0.6-1-0.8-1.2l-1.6-1.1l-2.2-1.6c-0.2-0.1-0.2-0.4-0.1-0.6c0.1-0.2,0.4-0.3,0.6-0.1l6.1,3.6c0.3,0.2,0.6,0.4,1,0.4
		c0.1,0,0.3-0.1,0.4-0.2l0,0l-5.3-4.1c-0.2-0.2-0.2-0.4-0.1-0.6s0.4-0.2,0.6-0.1l0,0c2.4,1.8,5,3.4,7.8,4.7c0.3,0.1,0.6,0.2,0.9,0.1
		c0-0.1,0-0.2-0.3-0.5c-1.4-1.2-2.9-2.2-4.5-3c-0.2-0.1-0.3-0.4-0.2-0.6s0.4-0.3,0.6-0.2l3.1,1.4l4.1,1.9c0.2,0.1,0.4,0.2,0.7,0.2
		c0.2,0,0.2-0.1,0.2-0.1l0,0c0-0.1-0.1-0.3-0.5-0.6c-3.4-2.4-7.1-4.4-11-5.8c-0.2-0.1-0.4-0.3-0.3-0.6s0.3-0.4,0.6-0.3
		c1.6,0.4,3.1,0.6,4.8,0.6c0.3,0,0.6-0.1,0.8-0.3l-0.2-0.1c-3.8-1.6-7.7-2.5-11.8-2.7c-2.7-0.1-5.4,0.2-8.1,0.9l-1.1,0.2
		c-3.8,0.6-7.7,0.8-11.6,0.6v8.8c2.2-0.5,4.3-1,6.4-1.5c0.6-0.1,1.1-0.3,1.7-0.4c1.3-0.4,2.6-0.7,4-0.8L124.4,158.5L124.4,158.5z"/>
	<path class="st0" d="M136.3,147.7c-0.2,0-0.4-0.2-0.4-0.4c-0.6-13.7-2.2-34.6-2.2-34.8c0-0.2,0.2-0.5,0.4-0.5c0,0,0,0,0,0
		c0.2,0,0.5,0.2,0.5,0.4c0,0,0,0,0,0c0,0.2,1.6,21.1,2.2,34.8C136.8,147.5,136.6,147.7,136.3,147.7L136.3,147.7L136.3,147.7z"/>
	<rect x="146.7" y="34.5" class="st1" width="126.7" height="90.6"/>
	<path class="st0" d="M273.2,125.3H146.5c-0.3,0-0.5-0.2-0.5-0.5V34.2c0-0.3,0.2-0.5,0.5-0.5h126.7c0.3,0,0.5,0.2,0.5,0.5v90.6
		C273.7,125.1,273.5,125.3,273.2,125.3z M147,124.3h125.7V34.7H147L147,124.3L147,124.3z"/>
	<circle class="st1" cx="177" cy="78.9" r="2.3"/>
	<circle class="st1" cx="188.9" cy="59.9" r="2.3"/>
	<circle class="st1" cx="226.4" cy="47.4" r="2.3"/>
	<circle class="st1" cx="243.5" cy="95" r="2.3"/>
	<circle class="st1" cx="207.5" cy="84.3" r="2.3"/>
	<path class="st1" d="M281.1,158.9c0,0-8.8-0.7-12.8,1.1s-8.1,4.2-7.2,5.6s21.8,2.5,21.8,2.5L281.1,158.9L281.1,158.9z"/>
	<rect x="54.3" y="167.2" class="st1" width="291.3" height="8.8"/>
	<path class="st0" d="M345.7,176.6H54.3c-0.3,0-0.5-0.2-0.5-0.5v-8.8c0-0.3,0.2-0.5,0.5-0.5h291.3c0.3,0,0.5,0.2,0.5,0.5v8.8
		C346.2,176.4,345.9,176.6,345.7,176.6L345.7,176.6z M54.8,175.6h290.3v-7.8H54.8V175.6z"/>
	<polygon class="st1" points="138,166.9 148,133.6 189.8,133.6 181,166.6 	"/>
	<path class="st0" d="M138,167.4c-0.2,0-0.3-0.1-0.4-0.2c-0.1-0.1-0.1-0.3-0.1-0.4l10-33.3c0.1-0.2,0.3-0.4,0.5-0.4h41.8
		c0.1,0,0.3,0.1,0.4,0.2c0.1,0.1,0.1,0.3,0.1,0.4l-8.9,33c-0.1,0.2-0.2,0.4-0.5,0.4L138,167.4L138,167.4L138,167.4z M148.3,134.1
		l-9.7,32.3l41.9-0.3l8.6-32L148.3,134.1z"/>
	
		<ellipse transform="matrix(0.7768 -0.6297 0.6297 0.7768 -56.7669 137.325)" class="st0" cx="165.4" cy="148.7" rx="5.4" ry="3.5"/>
	<path class="st1" d="M142.1,223.2c-0.1,0-0.2,0-0.2-0.1c-0.2-0.1-0.3-0.4-0.2-0.7l0,0c8.4-15.3,20.5-39.1,19.6-42
		c-0.1-0.3,0.1-0.5,0.3-0.6c0,0,0,0,0,0c0.3-0.1,0.5,0.1,0.6,0.3c1.4,4.3-17.5,38.9-19.7,42.8C142.5,223.1,142.3,223.2,142.1,223.2
		L142.1,223.2z"/>
	<path class="st0" d="M104.5,248.7c0,0-6.7,12.8-6.7,17.1h49.4c0,0,1.7-4.4-5.1-5.8s-19-4.3-20.2-6.5s1.2-4.8,1.2-4.8H104.5z"/>
	<path class="st0" d="M147.2,266.2H97.8c-0.2,0-0.4-0.2-0.4-0.4l0,0c0-4.4,6.4-16.8,6.7-17.4c0.1-0.1,0.2-0.2,0.4-0.2h18.6
		c0.2,0,0.3,0.1,0.4,0.3c0.1,0.2,0,0.3-0.1,0.5c0,0-2.1,2.4-1.1,4.3c0.8,1.5,8.2,3.8,19.9,6.3c2.6,0.5,4.3,1.6,5.1,3.1
		c0.5,1,0.6,2.2,0.3,3.3C147.6,266.1,147.4,266.2,147.2,266.2L147.2,266.2z M98.3,265.4h48.6c0.2-0.8,0.1-1.6-0.3-2.3
		c-0.7-1.2-2.2-2.1-4.5-2.6c-8.7-1.8-19.3-4.5-20.5-6.7c-0.9-1.7,0-3.6,0.7-4.6h-17.5C103.9,250.8,98.7,261.1,98.3,265.4z"/>
	<path class="st0" d="M349.2,266.3H50.8c-0.3,0-0.5-0.2-0.5-0.5s0.2-0.5,0.5-0.5h298.4c0.3,0,0.5,0.2,0.5,0.5
		S349.5,266.3,349.2,266.3L349.2,266.3z"/>
	<g id="fondamental">
		<circle class="st3" cx="310.7" cy="111.1" r="4.5"/>
		<path class="st1" d="M330.1,132.5c0,0-1.8,0-4.5,2.1c2.3-10.2-1.4-19.3-1.4-19.3c-3.9,3.8-7.2,8.2-9.4,13.1
			c-3-4.2-5.9-6.6-5.9-6.6c-1.8,5.5-2.3,11.4-1.7,17.1c-2.1-1.9-4.5-3.4-7.1-4.6c-0.2,7.5,2.8,14.4,5.7,19.1h19.5
			C328,149.6,332.2,141.6,330.1,132.5L330.1,132.5z"/>
		<path class="st0" d="M330.8,132.4c-0.1-0.3-0.4-0.4-0.6-0.5c-0.1,0-1.5,0-3.6,1.3c1.6-9.6-1.6-17.7-1.8-18.2
			c-0.1-0.2-0.3-0.3-0.4-0.3c-0.2-0.1-0.4,0-0.5,0.2c-3.7,3.4-6.6,7.4-8.8,11.9c-0.8-4.2-1.7-7.9-2.5-10.8c1.8-0.8,3.1-2.6,3.1-4.7
			s-1.4-4.1-3.3-4.8c-0.4-0.2-0.8-0.3-1.1-0.3c-0.2,0-0.4-0.1-0.6-0.1c-2.9,0-5.2,2.3-5.2,5.2c0,2.6,2,4.8,4.5,5.1h0.6
			c0.3,0,0.6,0,0.9-0.1c0.7,2.5,1.5,5.9,2.2,9.5c-2.3-2.7-4.2-4.3-4.4-4.5c-0.2-0.1-0.4-0.2-0.5-0.1c-0.2,0.1-0.4,0.2-0.4,0.3
			c-1.6,5.2-2.2,10.6-1.8,15.9c-1.8-1.5-3.9-2.8-6.1-3.8c-0.2-0.1-0.4-0.1-0.5,0.1c-0.2,0.1-0.3,0.3-0.3,0.5
			c-0.2,7.5,2.9,14.6,5.6,19.1h-1.4l2.8,13.8h17.1l2.8-13.8h-0.4C328.8,149.3,332.8,141.4,330.8,132.4L330.8,132.4z M306.7,111.6
			c1-0.3,2.1-0.2,2.9-0.1c0,0.3-0.1,0.8-0.1,1.2c0,0.7,0.1,1.5,0.2,2.3C308.1,114.6,306.9,113.2,306.7,111.6L306.7,111.6z
			 M309.8,110.4L309.8,110.4c-0.8-0.1-1.9-0.2-3,0c0.2-0.9,0.7-1.8,1.4-2.3c0.7-0.5,1.6-0.9,2.5-0.9h0.1
			C310.4,108,310,109.1,309.8,110.4L309.8,110.4z M311.2,115.1h-0.3c-0.1-0.6-0.2-1.1-0.3-1.7l0,0c-0.1-0.8,0-1.6,0.1-2.3
			c0.3-1.6,0.7-2.9,1.1-3.7c1.6,0.5,2.7,2,2.7,3.8c0,1.6-1,3-2.3,3.6C312,114.9,311.6,115.1,311.2,115.1L311.2,115.1z M324.1,116.3
			c0.8,2.4,2.8,9.9,1.1,17.9c-1.3,1.1-2.9,2.8-4.5,5.2c-1-4.5-3.1-8.2-5.2-11.1C317.7,123.8,320.6,119.8,324.1,116.3L324.1,116.3z
			 M306.3,153c-2.5-4.4-5.4-10.7-5.4-17.6c2.1,1.1,4.1,2.4,5.9,3.9c0.4,4.6,1.5,9.3,3,13.7H306.3L306.3,153z M316.4,149.6
			c-0.2,0.7-0.3,1.3-0.3,1.9c-0.1,0.5-0.1,1-0.1,1.4H311c-1.5-4.5-2.5-9.1-3-13.7c0.1-0.2,0-0.4-0.1-0.5c-0.5-5.3-0.1-10.7,1.4-15.8
			c1,0.9,3,2.8,4.9,5.6l0,0c0.3,0.4,0.5,0.7,0.8,1.1c0.3,0.4,0.5,0.8,0.8,1.2c1.8,2.8,3.3,6.2,4,10.1l-0.4,0.8
			C317.7,144.7,316.9,147.4,316.4,149.6L316.4,149.6L316.4,149.6z M317.2,153L317.2,153c0.2-3.9,1.3-7.4,3.2-10.7
			c0.2-0.4,0.4-0.7,0.5-1c1.2-2.1,2.5-3.7,3.6-4.8c0.6-0.6,1.1-1.1,1.7-1.5c1.6-1.2,2.8-1.7,3.5-1.8c1.6,8.4-2.2,15.8-4.7,19.8
			L317.2,153L317.2,153z"/>
	</g>
	<g id="LOGO-STACKED">
		<path id="TEXT" class="st4" d="M191.5,103.7v5.7c-0.7,0.5-1.5,0.9-2.3,1.2c-0.9,0.2-1.7,0.4-2.6,0.4c-1.1,0-2.2-0.2-3.2-0.5
			c-0.9-0.3-1.7-0.9-2.4-1.5c-0.7-0.6-1.2-1.4-1.5-2.3c-0.4-0.9-0.6-1.9-0.5-2.9c0-1,0.2-2,0.5-2.9c0.3-0.9,0.8-1.6,1.5-2.3
			c0.7-0.7,1.5-1.2,2.3-1.5c1-0.4,2-0.5,3.1-0.5c0.5,0,1.1,0,1.6,0.1c0.5,0.1,0.9,0.2,1.4,0.4c0.4,0.2,0.8,0.3,1.2,0.6
			c0.3,0.2,0.7,0.5,1,0.8l-0.8,1.2c0,0.1-0.1,0.2-0.2,0.2c-0.1,0.1-0.2,0.1-0.3,0.1c-0.1,0-0.2,0-0.3,0s-0.2-0.1-0.3-0.1l-0.7-0.4
			c-0.2-0.1-0.5-0.2-0.7-0.3c-0.3-0.1-0.6-0.2-0.9-0.2c-0.4-0.1-0.8-0.1-1.2-0.1c-0.7,0-1.3,0.1-1.9,0.4c-0.6,0.2-1.1,0.6-1.5,1
			c-0.4,0.5-0.7,1-0.9,1.6c-0.2,0.7-0.3,1.4-0.3,2c0,0.7,0.1,1.5,0.3,2.2c0.2,0.6,0.6,1.1,1,1.6c0.4,0.4,1,0.8,1.5,1
			c1.1,0.4,2.3,0.5,3.4,0.2c0.4-0.1,0.8-0.3,1.2-0.5v-2.5h-1.8c-0.1,0-0.2,0-0.2,0c-0.1,0-0.1-0.1-0.2-0.1c0,0-0.1-0.1-0.1-0.2
			c0-0.1,0-0.1,0-0.2v-1.5H191.5z M195.8,102.5c0.3-0.5,0.7-1,1.1-1.4c0.4-0.3,1-0.5,1.5-0.5c0.4,0,0.8,0.1,1.1,0.3l-0.2,1.8
			c0,0.1-0.1,0.2-0.1,0.2c-0.1,0.1-0.2,0.1-0.3,0.1c-0.1,0-0.3,0-0.4,0c-0.2,0-0.4,0-0.6,0c-0.2,0-0.5,0-0.7,0.1
			c-0.2,0.1-0.4,0.2-0.6,0.3c-0.2,0.2-0.3,0.3-0.4,0.5c-0.1,0.2-0.3,0.5-0.4,0.7v6.2h-2.4v-10h1.4c0.2,0,0.4,0,0.5,0.1
			c0.1,0.1,0.2,0.3,0.2,0.5L195.8,102.5z M200.6,102.1c1.1-1,2.7-1.6,4.2-1.6c0.5,0,1.1,0.1,1.6,0.3c0.5,0.2,0.9,0.5,1.2,0.8
			c0.3,0.4,0.6,0.8,0.7,1.2c0.2,0.5,0.3,1,0.2,1.6v6.3h-1.1c-0.2,0-0.4,0-0.5-0.1c-0.1-0.1-0.3-0.2-0.3-0.4l-0.2-0.7
			c-0.2,0.2-0.5,0.4-0.8,0.6c-0.2,0.2-0.5,0.3-0.8,0.4c-0.3,0.1-0.5,0.2-0.8,0.3c-0.3,0.1-0.7,0.1-1,0.1c-0.4,0-0.8-0.1-1.2-0.2
			c-0.3-0.1-0.7-0.3-0.9-0.5c-0.3-0.2-0.5-0.5-0.6-0.9c-0.2-0.4-0.2-0.8-0.2-1.2c0-0.3,0-0.5,0.1-0.8c0.1-0.3,0.2-0.5,0.4-0.7
			c0.2-0.2,0.5-0.5,0.8-0.6c0.4-0.2,0.7-0.4,1.1-0.5c0.5-0.2,1-0.3,1.6-0.4c0.7-0.1,1.4-0.2,2.1-0.2v-0.6c0-0.5-0.1-1.1-0.4-1.5
			c-0.2-0.2-0.4-0.3-0.6-0.4c-0.2-0.1-0.4-0.1-0.7-0.1c-0.3,0-0.7,0-1,0.1c-0.2,0.1-0.5,0.2-0.7,0.3l-0.5,0.3
			c-0.2,0.1-0.4,0.1-0.5,0.1c-0.2,0-0.3,0-0.4-0.1c-0.1-0.1-0.2-0.2-0.3-0.3L200.6,102.1z M206.2,106.5c-0.6,0-1.2,0.1-1.8,0.2
			c-0.4,0.1-0.8,0.2-1.2,0.3c-0.2,0.1-0.5,0.3-0.6,0.5c-0.1,0.2-0.2,0.5-0.2,0.8c0,0.3,0.2,0.5,0.4,0.7c0.3,0.2,0.6,0.3,1,0.3
			c0.4,0,0.9-0.1,1.3-0.3c0.4-0.2,0.8-0.5,1.1-0.8V106.5z M219.7,96.2v14.5h-1.5c-0.1,0-0.3,0-0.4-0.1c-0.1-0.1-0.2-0.2-0.2-0.3
			l-0.2-1c-0.4,0.5-0.9,0.8-1.4,1.1c-0.6,0.3-1.2,0.4-1.9,0.4c-0.5,0-1.1-0.1-1.5-0.3c-0.5-0.2-0.9-0.6-1.2-1
			c-0.4-0.5-0.6-1-0.8-1.6c-0.2-0.7-0.3-1.4-0.3-2.2c0-0.7,0.1-1.4,0.3-2.1c0.2-0.6,0.5-1.2,0.9-1.7c0.4-0.5,0.8-0.8,1.4-1.1
			c0.6-0.3,1.2-0.4,1.8-0.4c0.5,0,1,0.1,1.5,0.3c0.4,0.2,0.8,0.4,1.1,0.7v-5.2H219.7z M217.2,103.3c-0.2-0.3-0.6-0.5-0.9-0.7
			c-0.3-0.1-0.7-0.2-1.1-0.2c-0.3,0-0.7,0.1-1,0.2c-0.3,0.1-0.6,0.4-0.8,0.6c-0.2,0.3-0.4,0.7-0.5,1.1c-0.1,0.5-0.2,1-0.2,1.5
			c0,0.5,0,1,0.1,1.5c0.1,0.4,0.2,0.7,0.4,1c0.2,0.2,0.4,0.4,0.7,0.6c0.3,0.1,0.6,0.2,0.9,0.2c0.5,0,0.9-0.1,1.3-0.3
			c0.4-0.2,0.7-0.5,1-0.9L217.2,103.3z M224.6,96.2v14.5h-2.4V96.2H224.6z M228.9,106.1c0,0.5,0.1,0.9,0.3,1.3
			c0.1,0.3,0.3,0.7,0.6,0.9c0.2,0.2,0.5,0.4,0.8,0.5c0.3,0.1,0.7,0.2,1.1,0.2c0.3,0,0.7,0,1-0.1c0.3-0.1,0.5-0.2,0.8-0.3
			c0.2-0.1,0.4-0.2,0.6-0.3c0.1-0.1,0.3-0.1,0.5-0.1c0.1,0,0.2,0,0.3,0.1c0.1,0,0.1,0.1,0.2,0.2l0.7,0.9c-0.3,0.3-0.6,0.6-0.9,0.8
			c-0.3,0.2-0.7,0.4-1.1,0.5c-0.4,0.1-0.7,0.2-1.1,0.3c-0.4,0.1-0.7,0.1-1.1,0.1c-0.7,0-1.3-0.1-2-0.3c-0.6-0.2-1.1-0.6-1.6-1
			c-0.5-0.5-0.8-1.1-1.1-1.7c-0.3-0.7-0.4-1.5-0.4-2.3c0-0.7,0.1-1.3,0.3-1.9c0.2-0.6,0.5-1.1,1-1.6c0.4-0.5,1-0.8,1.5-1.1
			c0.6-0.3,1.3-0.4,2-0.4c0.6,0,1.2,0.1,1.8,0.3c0.5,0.2,1,0.5,1.4,0.9c0.4,0.4,0.7,0.9,0.9,1.4c0.2,0.6,0.3,1.3,0.3,1.9
			c0,0.3,0,0.5-0.1,0.7c-0.1,0.1-0.1,0.1-0.2,0.2c-0.1,0-0.2,0-0.3,0L228.9,106.1z M233.5,104.6c0-0.3,0-0.6-0.1-0.9
			c-0.1-0.3-0.2-0.5-0.4-0.7c-0.2-0.2-0.4-0.4-0.7-0.5c-0.3-0.1-0.6-0.2-1-0.2c-0.3,0-0.6,0-0.9,0.1c-0.3,0.1-0.5,0.3-0.8,0.5
			c-0.4,0.5-0.7,1.1-0.8,1.7H233.5z"/>
		
			<linearGradient id="GRADLEPHANT_00000130634970711662316060000003272003020313218222_" gradientUnits="userSpaceOnUse" x1="186.904" y1="258.9916" x2="229.7201" y2="200.2966" gradientTransform="matrix(1 0 0 -1 0 302)">
			<stop  offset="0" style="stop-color:#209BC4"/>
			<stop  offset="1" style="stop-color:#4DC9C0"/>
		</linearGradient>
		<path id="GRADLEPHANT" style="fill:url(#GRADLEPHANT_00000130634970711662316060000003272003020313218222_);" d="M237.1,51.7
			c-1.8-1.8-4.2-2.8-6.7-2.8c-2.5,0-5,0.9-6.8,2.6c-0.1,0.1-0.2,0.2-0.2,0.3s-0.1,0.2-0.1,0.4c0,0.1,0,0.3,0.1,0.4s0.1,0.2,0.2,0.3
			l1.2,1.2c0.2,0.2,0.4,0.3,0.6,0.3c0.2,0,0.4-0.1,0.6-0.2c1.1-0.9,2.6-1.3,4-1.2c1.4,0.1,2.8,0.8,3.7,1.9c0.9,1.1,1.4,2.5,1.4,3.9
			c-0.1,1.4-0.7,2.8-1.8,3.8c-7.8,7.7-18.1-13.9-41.6-2.8c-0.4,0.2-0.7,0.5-1,0.8c-0.3,0.3-0.5,0.7-0.6,1.1
			c-0.1,0.4-0.2,0.9-0.1,1.3c0.1,0.4,0.2,0.9,0.4,1.2l4,6.9c0.4,0.7,1.1,1.2,1.9,1.5c0.8,0.2,1.7,0.1,2.4-0.3l0.1-0.1l-0.1,0.1
			l1.8-1c2-1.2,3.9-2.6,5.6-4.2c0.2-0.2,0.4-0.2,0.6-0.3c0.2,0,0.5,0.1,0.6,0.2c0.1,0.1,0.2,0.2,0.2,0.3c0.1,0.1,0.1,0.2,0.1,0.4
			s0,0.3-0.1,0.4c0,0.1-0.1,0.2-0.2,0.3c-1.8,1.7-3.8,3.1-5.9,4.4h-0.1l-1.8,1c-0.8,0.4-1.6,0.6-2.5,0.6c-0.9,0-1.8-0.2-2.6-0.7
			c-0.8-0.4-1.4-1.1-1.9-1.9l-3.8-6.5c-7.3,5.2-11.8,15.1-9.4,27.6c0,0.2,0.2,0.4,0.3,0.5c0.2,0.1,0.4,0.2,0.6,0.2h4.3
			c0.2,0,0.5-0.1,0.6-0.2c0.2-0.2,0.3-0.4,0.3-0.6c0.2-1.5,1-2.9,2.1-3.9c1.2-1,2.7-1.6,4.2-1.6c1.5,0,3,0.6,4.2,1.6
			c1.2,1,1.9,2.4,2.1,3.9c0,0.2,0.1,0.4,0.3,0.6c0.2,0.1,0.4,0.2,0.6,0.2h4.2c0.2,0,0.4-0.1,0.6-0.2c0.2-0.1,0.3-0.4,0.3-0.6
			c0.2-1.5,1-2.9,2.1-3.9c1.2-1,2.7-1.6,4.2-1.6c1.5,0,3,0.6,4.2,1.6c1.2,1,1.9,2.4,2.1,3.9c0,0.2,0.1,0.4,0.3,0.6
			c0.2,0.1,0.4,0.2,0.6,0.2h4.2c0.2,0,0.5-0.1,0.7-0.3c0.2-0.2,0.3-0.4,0.3-0.6c0.1-5.8,1.7-12.6,6.2-15.9
			C244.9,65.3,240.8,55.3,237.1,51.7z M221.1,69.3l-3-1.5c0-0.3,0.1-0.6,0.2-0.9c0.2-0.3,0.4-0.5,0.7-0.7s0.6-0.3,0.9-0.3
			c0.3,0,0.6,0.1,0.9,0.2c0.3,0.1,0.5,0.4,0.7,0.6c0.2,0.3,0.3,0.6,0.3,0.9c0,0.3,0,0.6-0.2,0.9S221.4,69.1,221.1,69.3L221.1,69.3z"
			/>
	</g>
</g>
</svg>
