<?xml version="1.0" encoding="UTF-8"?><svg id="Calque_1" xmlns="http://www.w3.org/2000/svg" xmlns:xlink="http://www.w3.org/1999/xlink" viewBox="0 0 400 300"><defs><style>.cls-1{fill:url(#Dégradé_sans_nom_5);}.cls-1,.cls-2,.cls-3,.cls-4,.cls-5,.cls-6,.cls-7,.cls-8{stroke-width:0px;}.cls-2{fill:url(#Dégradé_sans_nom_2);}.cls-4{fill:#231f20;}.cls-5{fill:#244b5a;}.cls-6{fill:#d1d3d4;}.cls-7{fill:#fff;}.cls-8{fill:#e52c36;}</style><linearGradient id="Dégradé_sans_nom_5" x1="-510.12" y1="684.77" x2="-514.73" y2="680.17" gradientTransform="translate(416.44 -2292.29) rotate(-135.21) scale(2.89 -2.89)" gradientUnits="userSpaceOnUse"><stop offset="0" stop-color="#72c9c9"/><stop offset="1" stop-color="#02b0ad"/></linearGradient><linearGradient id="Dégradé_sans_nom_2" x1="-669.35" y1="698.95" x2="-673.95" y2="694.35" gradientTransform="translate(127.1 -1488.01) rotate(-135.21) scale(1.7 -1.7)" gradientUnits="userSpaceOnUse"><stop offset="0" stop-color="#03b6b4"/><stop offset="1" stop-color="#74cbca"/></linearGradient></defs><path class="cls-7" d="M231.56,73.86v161.92c0,3.83-3.91,6.87-8.87,6.87H47.29c-4.87,0-8.87-3.04-8.87-6.87V73.86c0-3.83,3.91-6.87,8.87-6.87h175.4c4.87,0,8.87,3.04,8.87,6.87Z"/><path class="cls-6" d="M37.2,235.79V73.78c0-4.26,4.44-7.74,10-7.74h175.58c5.48,0,10,3.48,10,7.74v161.92c0,4.26-4.44,7.74-10,7.74H47.29c-5.48.09-10-3.3-10.09-7.65h0ZM230.25,73.78c0-3.22-3.39-5.83-7.48-5.83H47.29c-4.17,0-7.48,2.61-7.48,5.83h0v161.92c0,3.22,3.39,5.83,7.48,5.83h175.4c4.17,0,7.48-2.61,7.48-5.83l.09-161.92Z"/><path class="cls-6" d="M51.9,229.55V80.5c0-.52.52-.96,1.22-.96h163.75c.7,0,1.22.43,1.22.96v149.05c0,.52-.52.96-1.22.96H53.11c-.61,0-1.22-.43-1.22-.96h0ZM54.42,81.37v147.23h161.23V81.45l-161.23-.09Z"/><path class="cls-4" d="M366.96,277.18H35.29c-.35.09-.7-.43-.78-1.22s.17-1.48.61-1.57h331.85c.35-.09.7.43.78,1.22s-.17,1.48-.61,1.57c0,0-.09,0-.17,0Z"/><path class="cls-5" d="M83.07,172.11c1.01,1.34,2.32,2.43,3.83,3.17,1.63.81,3.43,1.22,5.25,1.19,1.47.04,2.93-.21,4.31-.74,1.1-.43,2.08-1.12,2.86-2,.74-.86,1.27-1.87,1.57-2.97.33-1.18.49-2.4.48-3.63v-4.26h-.1c-.95,1.51-2.33,2.71-3.96,3.45-1.55.68-3.23,1.02-4.92,1.01-1.66.01-3.3-.3-4.84-.91-1.46-.58-2.79-1.43-3.93-2.51-1.13-1.08-2.03-2.39-2.64-3.83-.65-1.52-.98-3.16-.96-4.82-.01-1.65.3-3.29.91-4.82.58-1.45,1.43-2.77,2.51-3.9,1.07-1.12,2.37-2.01,3.8-2.61,1.53-.64,3.18-.96,4.84-.94.76,0,1.51.07,2.26.2.82.14,1.62.38,2.38.71,1.81.79,3.38,2.05,4.54,3.65h.1v-3.96h3.35v23.53c-.01,1.38-.17,2.76-.48,4.11-.32,1.46-.96,2.82-1.88,4.01-1.04,1.3-2.37,2.34-3.88,3.04-1.66.81-3.82,1.22-6.49,1.22-2.17.04-4.32-.36-6.34-1.17-1.93-.83-3.66-2.05-5.07-3.6l2.48-2.64ZM83.68,155.17c0,1.21.22,2.41.68,3.52.44,1.07,1.08,2.05,1.88,2.89.8.83,1.74,1.5,2.79,1.98,1.09.5,2.28.75,3.47.74,2.37,0,4.66-.89,6.39-2.51.85-.8,1.52-1.78,1.95-2.87.47-1.19.69-2.47.63-3.75,0-1.2-.2-2.4-.61-3.52-.39-1.07-.99-2.06-1.77-2.89-.8-.85-1.77-1.52-2.84-1.98-1.19-.5-2.46-.75-3.75-.74-1.2-.01-2.38.24-3.47.74-1.05.48-1.99,1.15-2.79,1.98-.8.84-1.44,1.82-1.88,2.89-.46,1.12-.69,2.32-.68,3.52M118.36,167.34h-3.65v-35.9h11.05c3.65,0,6.53.79,8.65,2.38,2.11,1.59,3.17,3.99,3.17,7.2.06,2.33-.78,4.59-2.36,6.31-1.57,1.71-3.85,2.7-6.82,2.97l10.34,17.04h-4.46l-9.84-16.68h-6.08v16.68ZM118.36,147.31h6.49c1.39.03,2.79-.14,4.13-.51.98-.26,1.91-.72,2.71-1.34.65-.52,1.16-1.2,1.47-1.98.31-.78.46-1.62.46-2.46,0-.82-.15-1.64-.46-2.41-.32-.78-.82-1.47-1.47-2-.8-.64-1.72-1.09-2.71-1.34-1.35-.35-2.74-.51-4.13-.48h-6.49v12.52ZM145.03,131.44h10.45c3.65,0,6.53.79,8.64,2.38,2.11,1.59,3.17,3.99,3.17,7.2,0,3.21-1.06,5.62-3.17,7.23-2.11,1.61-4.99,2.41-8.64,2.41h-6.79v16.68h-3.65v-35.9ZM148.69,147.31h5.88c1.39.03,2.79-.14,4.13-.51.98-.26,1.91-.72,2.71-1.34.65-.52,1.16-1.2,1.47-1.98.31-.78.46-1.62.46-2.46,0-.82-.15-1.64-.46-2.41-.32-.78-.82-1.47-1.47-2-.8-.64-1.72-1.09-2.71-1.34-1.35-.35-2.74-.51-4.13-.48h-5.88v12.52ZM203.95,161.66c-.64.95-1.4,1.82-2.26,2.59-.93.83-1.96,1.54-3.07,2.1-1.19.61-2.44,1.07-3.73,1.39-1.38.34-2.81.51-4.23.51-2.55.02-5.07-.46-7.43-1.42-4.5-1.82-8.06-5.39-9.86-9.89-.97-2.4-1.45-4.97-1.42-7.56-.03-2.59.45-5.15,1.42-7.55,1.81-4.5,5.37-8.07,9.86-9.89,2.36-.96,4.88-1.44,7.43-1.42,2.29.01,4.57.46,6.69,1.32,2.27.91,4.25,2.42,5.73,4.36l-3.19,2.38c-.43-.64-.94-1.22-1.52-1.72-.67-.59-1.41-1.1-2.21-1.52-.85-.45-1.74-.8-2.66-1.06-.92-.27-1.88-.4-2.84-.41-2.13-.03-4.24.4-6.19,1.27-1.76.8-3.34,1.96-4.64,3.4-1.28,1.44-2.27,3.12-2.92,4.94-1.35,3.82-1.35,7.99,0,11.81.64,1.82,1.63,3.5,2.92,4.94,1.3,1.44,2.87,2.6,4.64,3.4,1.94.87,4.06,1.3,6.19,1.27.94,0,1.89-.08,2.81-.25.94-.17,1.86-.46,2.74-.86.92-.42,1.78-.98,2.54-1.65.85-.76,1.6-1.64,2.21-2.61l2.99,2.13Z"/><path class="cls-1" d="M77.48,164.44l-9.45-9.38,9.38-9.45,9.45,9.38-9.38,9.45Z"/><path class="cls-2" d="M103.21,160.55l-5.55-5.5,5.5-5.55,5.55,5.5-5.5,5.55Z"/><path class="cls-5" d="M77.82,149.33l-5.68,5.73,5.73,5.68,4.84-.02-5.08-5.04,25.08-.09-2.2,2.21h2.42s2.84-2.87,2.84-2.87l-2.86-2.84h-2.42s2.21,2.21,2.21,2.21l-25.08.09,5.04-5.08-4.84.02Z"/><g id="_488_dna_flatline"><path class="cls-4" d="M271.04,263l-1.74,12.61s77.48.96,76.53,0,0-19.48,0-19.48l-74.79,6.87Z"/><path class="cls-4" d="M327.04,276.57c-5.04,0-11.39,0-19.57-.09-18.87-.09-37.92-.35-38.18-.35-.17,0-.26-.09-.35-.17s-.17-.26-.09-.35l1.74-12.61c0-.26.17-.43.43-.43l74.79-6.87c.17,0,.26.09.35.17s.17.26.17.35c-.43,8.61-.61,18.26-.09,19.13.17.17.17.35.09.52-.17.35-.35.7-19.31.7ZM345.39,275.87c0,.09.09.09.09.17,0-.09,0-.17-.09-.17h0ZM269.82,275.18c28.52.35,70.61.61,75.4.17-.52-2.7-.17-12.35.09-18.61l-73.92,6.78-1.57,11.65Z"/><path class="cls-7" d="M235.39,166.82l-4.78-6.35s-.17-17.39-2.43-19.57-18.17-6.87-18.78-5.48c-.7,1.48.43,3.13,2.52,3.91,2,.78,9.3,2.26,10.09,3.83.78,1.65,1.04,5.74-1.22,6.44-2.26.78-6.7-8.35-8.87-8.96s-4,0-3.83,1.57c.17,1.57,5.65,14,7.3,17.83s8.7,10.7,8.7,10.7l11.31-3.91Z"/><path class="cls-4" d="M224.17,171.43c-.09,0-.17,0-.26-.09-.26-.26-7.13-6.96-8.78-10.78-4.78-10.96-7.22-16.87-7.39-18-.09-.61.17-1.22.61-1.65.78-.7,2.17-.78,3.74-.35,1.13.26,2.43,2.17,4,4.26s3.65,4.96,4.61,4.61c.52-.17.96-.7,1.22-1.22.52-1.57.43-3.22-.17-4.7-.43-.96-4.52-2.09-6.87-2.78-1.22-.35-2.35-.7-2.96-.87-1.22-.43-2.17-1.3-2.7-2.43-.26-.7-.26-1.39,0-2.09.17-.26.43-.43.7-.43,2.78-.52,16.61,3.74,18.7,5.74,2.17,2.09,2.52,17.39,2.52,19.74l4.7,6.26c.17.17.09.43-.09.61l-.09.09-11.22,4.17-.26-.09ZM210.43,141.08c-.52,0-1.13.09-1.57.43-.26.26-.43.61-.35.96.09.7,1.39,4.35,7.3,17.74,1.48,3.39,7.39,9.3,8.44,10.35l10.52-3.91-4.44-5.91c-.09-.09-.09-.17-.09-.26-.09-6.96-.7-17.74-2.26-19.22-2.35-2.26-17.04-6.35-18.17-5.48-.17.43-.17.96,0,1.39.43.96,1.3,1.65,2.26,2,.96.35,1.91.61,2.87.87,3.83,1.04,6.87,2,7.39,3.22.7,1.74.78,3.65.17,5.39-.26.78-.87,1.39-1.65,1.65-1.57.52-3.48-2.09-5.57-4.87-1.3-1.74-2.7-3.74-3.57-4-.35-.26-.87-.35-1.3-.35Z"/><path class="cls-3" d="M163.38,121.87c.09.17,48.61,17.83,54.26,19.39.7.17,1.13.87.87,1.57v.09h0c-.26.7-.96.96-1.65.78l-52.44-20.35c-.61-.26-1.04-.87-1.04-1.48h0Z"/><path class="cls-7" d="M298.17,110.21c.17-.26.35-.61.52-.87,6.26-9.74,19.65-10.61,28.35-3.39.61.61,1.3,1.04,2.09,1.39.96.26,1.91.35,2.87.35,3.39.43,5.74,3.48,7.57,6.26,5.48,8.26,6.44,21.91,6.44,31.65,0,7.57-1.83,15.39-6.44,21.39-6.61,8.52-17.83,12.09-28.61,13.04-11.91,1.04-25.13-1.39-32.78-10.61-3.22-3.83-5.13-9.22-3.48-13.91,1.48-4.09,5.3-6.78,8.17-10.09,8.61-9.57,8.7-24.18,15.31-35.22Z"/><path class="cls-4" d="M305.91,180.83c-12.17,0-22.26-3.91-28.09-10.96-2.96-3.57-5.39-9.22-3.48-14.44,1.13-3.04,3.39-5.3,5.65-7.48.87-.87,1.83-1.83,2.61-2.7,4.7-5.39,6.87-12.52,8.96-19.39,1.65-5.39,3.3-10.96,6.17-15.83h0c.17-.26.35-.61.52-.87,2.87-4.44,7.48-7.39,12.61-8.17,5.91-.87,11.83.78,16.44,4.61l.26.17c.52.43,1.04.87,1.65,1.13.61.17,1.13.26,1.74.26.35,0,.7,0,1.04.09,3.57.43,6,3.57,7.91,6.52,4.35,6.52,6.52,17.31,6.52,31.91,0,6.09-1.13,14.7-6.52,21.74-7.39,9.57-19.83,12.44-28.96,13.22-1.65.09-3.39.17-5.04.17ZM298.52,110.47c-2.87,4.7-4.52,10.26-6.09,15.57-2.09,6.96-4.26,14.17-9.13,19.74-.78.96-1.83,1.91-2.7,2.78-2.26,2.26-4.44,4.35-5.39,7.13-1.74,4.78.61,10.09,3.39,13.48,6.44,7.83,18.17,11.57,32.35,10.35,8.96-.78,21.04-3.57,28.26-12.87,5.22-6.78,6.35-15.22,6.35-21.13,0-14.44-2.09-24.96-6.35-31.39-1.83-2.78-4.09-5.65-7.3-6.09-.35,0-.61-.09-.96-.09-1.48.09-2.96-.52-4-1.65h-.26c-4.35-3.65-10.09-5.22-15.65-4.44-4.96.7-9.3,3.57-12,7.74l-.52.87h0Z"/><path class="cls-8" d="M349.39,267.7c2.78-18,13.31-91.92,1.22-103.75-13.83-13.48-51.83-12.87-58.79-.7-3.74,6.61-14.44,17.74-15.22,32.18-1.13,20.52-7.3,59.13-8.78,72.27h81.57Z"/><polygon class="cls-7" points="318.69 267.7 327.22 163.26 305.65 165.52 293.91 267.7 318.69 267.7"/><path class="cls-7" d="M306.87,152.13l-1.22,13.48s4.09,4.7,9.57,5.13c8.96.7,12-7.39,12-7.39.7-12.09,1.57-24.09,1.74-36.18,0-.26,0-.52-.17-.78-.26-.26-.7-.35-1.04-.17l-3.57.43-.35-6.7c-.87,1.13-1.65,2.26-2.35,3.57l-9.91-.87-1.13-6c-.78.78-.78,2-.87,3.13-.17,1.13-.61,2.35-1.65,2.7-.52.09-.96.09-1.48-.09l-7.48-1.48c-.09,0-1.3,20.18-1.22,21.83.35,6.96,9.13,9.39,9.13,9.39Z"/><path class="cls-4" d="M316.35,171.26h-1.13c-5.65-.43-9.74-5.13-9.91-5.3-.09-.09-.17-.26-.09-.35l1.22-13.04c-1.74-.52-8.7-3.22-9.04-9.74-.09-1.04.35-8.44.52-11.57.61-10.44.7-10.44.78-10.61.09-.09.26-.17.43-.09l7.48,1.48c.43.09.87.09,1.22.09.96-.26,1.22-1.65,1.3-2.26l.09-.43c0-1.04.35-2.09.96-2.96.09-.17.35-.17.52-.17.17.09.35.17.35.35l1.04,5.65,9.22.78c.61-1.22,1.39-2.26,2.26-3.3.09-.17.35-.17.52-.17.17.09.35.26.35.43l.35,6.17,3.04-.35c.52-.09,1.04,0,1.48.35.26.35.35.7.26,1.04-.17,9.22-.7,18.61-1.22,27.74-.17,2.87-.35,5.74-.52,8.52v.17c-.26-.17-3.13,7.57-11.48,7.57ZM306.09,165.35c.78.78,4.44,4.44,9.13,4.87,8.17.61,11.13-6.26,11.39-7.04.17-2.78.35-5.65.52-8.44.52-9.04,1.13-18.44,1.22-27.65,0-.17,0-.26-.09-.43,0-.09-.17-.09-.61,0l-3.57.43c-.17,0-.26,0-.35-.09s-.17-.17-.17-.35l-.26-5.39c-.52.78-1.04,1.57-1.48,2.43-.09.17-.26.26-.43.26l-9.91-.87c-.17,0-.43-.17-.43-.43l-.87-4.61c-.09.43-.17.78-.17,1.22l-.09.43c-.17,1.65-.96,2.78-2,3.04-.52.09-1.13.09-1.74-.09l-6.96-1.39c-.26,3.13-1.3,19.83-1.22,21.22.35,6.61,8.7,8.96,8.78,8.96.26.09.35.26.35.52l-1.04,13.39Z"/><path class="cls-7" d="M322.78,136.91c1.3-3.04,4.52-4.78,7.74-4.17,3.83.96,3.39,5.39,1.91,8.17-1.91,3.48-6.26,4.7-9.74,2.78,0,0-.09,0-.09-.09"/><path class="cls-4" d="M326.17,145c-1.3,0-2.61-.35-3.83-.96-.26-.09-.35-.35-.26-.61s.35-.35.61-.26c.09,0,.09.09.17.09,3.22,1.83,7.3.7,9.13-2.43,0,0,0-.09.09-.09.87-1.65,1.48-3.91.7-5.57-.43-.96-1.3-1.65-2.26-1.83-2.96-.52-6,1.04-7.13,3.83-.09.26-.35.35-.61.26h0c-.26-.09-.35-.35-.26-.61,1.13-3.13,5.13-5.3,8.35-4.44,1.3.26,2.43,1.13,2.96,2.43.87,2.09.17,4.78-.78,6.44-1.57,2.35-4.09,3.83-6.87,3.74h0Z"/><path class="cls-7" d="M308,128.56s-5.65,6.35-4.7,7.74c.96,1.39,4.17.96,4.17.96"/><path class="cls-4" d="M306.52,137.87c-1.13,0-2.87-.17-3.57-1.22-1.04-1.48,2.96-6.35,4.7-8.35.17-.17.52-.17.7,0h0c.17.17.26.52.09.7h0c-2.78,3.22-5.04,6.61-4.7,7.13.61.96,2.96.87,3.74.78.26,0,.52.17.52.43h0c0,.26-.17.52-.43.52h0c-.35,0-.7,0-1.04,0Z"/><path class="cls-4" d="M306.87,152.13s5.04,1.39,11.48-2c0,0-3.13,9.3-12.17,9.3l.7-7.3Z"/><path class="cls-4" d="M306.17,159.87c-.26,0-.52-.17-.52-.43v-.09l.7-7.3c0-.17.09-.26.17-.35.09-.09.26-.09.43-.09.09,0,4.96,1.3,11.13-1.91.26-.09.52,0,.61.17.09.09.09.26,0,.35.09.09-3.3,9.65-12.52,9.65ZM307.3,152.65l-.61,6.17c6.26-.26,9.57-5.39,10.7-7.74-3.13,1.57-6.7,2.09-10.09,1.57Z"/><ellipse class="cls-4" cx="315" cy="129.43" rx="2.17" ry=".96" transform="translate(184.53 444) rotate(-89.81)"/><ellipse class="cls-4" cx="302.9" cy="128.59" rx="2.17" ry=".96" transform="translate(157.5 423.79) rotate(-86.78)"/><path class="cls-4" d="M308.43,142.13c-1.48,0-2.96-.35-4.35-.78-.17-.09-.35-.09-.52-.17-.26,0-.52-.26-.52-.52s.26-.52.52-.52h.09c.26.09.52.09.7.17,2.09.7,7.48,2.52,10.44-3.57.09-.26.43-.35.61-.26h0c.26.09.35.43.26.7-1.83,3.91-4.7,4.96-7.22,4.96Z"/><path class="cls-8" d="M258.87,197.09c-3.57-1.74-23.83-36-23.83-36l-14.78,12.17c.26,2.26,16.7,60.96,31.65,58.18,14.96-2.78,47.22-21.91,47.22-21.91l-7.39-46.18c.09-.09-29.31,35.48-32.87,33.74Z"/><path class="cls-4" d="M269.3,256.66h-.09c-.26-.09-.43-.26-.43-.52l12.78-73.92c.09-.26.26-.43.52-.43s.43.26.43.52h0l-12.78,73.92c0,.26-.17.43-.43.43Z"/><polygon class="cls-7" points="297.74 258.57 293.82 213.78 254.69 217.7 257.91 263 297.74 258.57"/><path class="cls-4" d="M257.91,263.53c-.09,0-.26,0-.35-.09s-.17-.17-.17-.35l-3.3-45.31c0-.26.17-.52.43-.52l39.13-3.91c.09,0,.26,0,.35.09s.17.17.17.35l3.83,44.87c0,.26-.17.52-.43.52h0l-39.74,4.44h.09v-.09ZM255.21,218.13l3.13,44.35,38.87-4.26-3.74-43.92-38.26,3.83Z"/><path class="cls-7" d="M309.74,236.65s-8.78-9.83-11.39-8.7c-2.61,1.04-15.31,4.61-15.48,6.78-.17,2.17,7.48.17,7.48.17,0,0-11.04,3.3-10.61,5.48s10.17-.61,10.17-.61c0,0-9.83,2.61-9.3,4.7s11.22,0,11.22,0c0,0-11.48,3.39-8.96,4.44,2.52,1.04,12.35-3.57,13.31-2.35.96,1.22,13.57,3.57,13.57,3.57v-13.48Z"/><path class="cls-4" d="M309.74,250.57h-.09c-3.04-.52-12.87-2.43-13.91-3.74-.43-.26-3.13.61-5.13,1.13-3.22.96-6.52,2-8,1.3-.61-.26-.7-.61-.7-.78,0-.78,1.91-1.74,4.35-2.7-2.96.26-5.83.17-6.17-1.13-.09-.35,0-.7.17-.96.78-.96,1.74-1.65,2.87-2-1.13.17-2.26.09-3.3-.35-.35-.17-.52-.43-.61-.78-.09-.52.17-2,5.57-4.17-.7.09-1.39-.09-2-.52-.35-.26-.43-.61-.43-1.04.09-1.74,4.52-3.48,12.61-6.17,1.39-.43,2.52-.78,3.13-1.04,2.87-1.13,10.52,7.13,12,8.87.09.09.09.17.09.35v13.39c0,.17-.09.26-.17.35-.09,0-.17,0-.26,0ZM295.48,245.87c.43,0,.78.09,1.04.35.61.61,6.78,2.17,12.7,3.3v-12.61c-3.57-3.91-9.22-9.13-10.78-8.44-.61.26-1.74.61-3.22,1.13-3.3,1.04-11.83,3.91-11.91,5.3,0,.09,0,.17.09.26.78.7,4.44.09,6.78-.61.26-.09.52.09.61.35.09.26-.09.52-.35.61-5.74,1.65-10.44,3.91-10.26,4.87,0,0,0,.09.17.17,1.13.7,5.74-.17,8.7-.96l.61-.17c.26-.09.52.09.61.35.09.26-.09.52-.35.61h0l-.61.17c-3.04.87-7.57,2.52-8.26,3.74q-.09.17-.09.26c.26.87,5.22.7,10.61-.35.26-.09.52.09.61.35s-.09.52-.35.61c-3.83,1.13-8.17,2.78-8.87,3.48,1.22.43,4.61-.61,7.39-1.39,2.52-.96,4.09-1.39,5.13-1.39Z"/><path class="cls-8" d="M352.52,167c.35.78,29.57,70.35,14.7,79.48-14.87,9.13-61.05,5.57-61.05,5.57l1.83-20.61,37.13-4.96,7.39-59.48Z"/><path class="cls-4" d="M309.74,231.96c-.26,0-.52-.17-.52-.43s.17-.52.43-.52l43.57-6.87c.26,0,.52.17.52.43s-.17.52-.43.52l-43.57,6.87h0Z"/><path class="cls-4" d="M347.39,225.09h0c-.26,0-.43-.26-.52-.52.09-11.39-3.04-40.44-3.13-40.7,0-.26.17-.52.43-.52s.52.17.52.43h0c0,.26,3.22,29.31,3.13,40.87,0,.26-.17.43-.43.43Z"/><rect class="cls-4" x="268.53" y="213.79" width="11.91" height="4.26" transform="translate(-18.07 25.2) rotate(-5.09)"/><path class="cls-4" d="M268.78,219c-.09,0-.26,0-.35-.09s-.17-.17-.17-.35l-.35-4.26c0-.26.17-.52.43-.52l11.91-1.04c.09,0,.26,0,.35.09s.17.17.17.35l.35,4.26c0,.26-.17.52-.43.52h0l-11.91,1.04h0ZM268.87,214.74l.26,3.3,10.87-.96-.26-3.3-10.87.96Z"/></g><g id="expert"><path class="cls-7" d="M81.14,231.65s-2.3-.05-5.66,2.61c2.86-12.98-1.75-24.55-1.75-24.55-5.06,4.76-9.12,10.42-12.03,16.74-3.81-5.36-7.57-8.37-7.57-8.37-2.2,7.06-2.91,14.48-2.15,21.85-2.66-2.41-5.71-4.36-9.02-5.86-.25,9.57,3.61,18.39,7.22,24.4h24.75c3.41-5.06,8.67-15.33,6.21-26.81Z"/><path class="cls-4" d="M81.9,231.5c-.1-.35-.4-.6-.75-.6-.15,0-1.9,0-4.51,1.65,2.05-12.18-2-22.6-2.2-23.1-.1-.25-.3-.4-.55-.45s-.5,0-.7.2c-4.46,4.16-8.12,9.02-10.92,14.43-1.35-10.32-4.06-21.34-9.27-30.56l-1.3.75c5.06,8.97,7.77,19.69,9.07,29.76l-.6-.35c-2.86-3.46-5.31-5.46-5.51-5.66-.2-.15-.45-.2-.7-.15s-.45.25-.5.5c-2.05,6.56-2.86,13.48-2.3,20.29-2.35-1.9-4.96-3.56-7.72-4.81-.25-.1-.5-.05-.7.05-.2.15-.35.35-.35.65-.25,9.62,3.66,18.59,7.11,24.45h-1.85l3.51,17.64h21.8l3.51-17.64h-.55c3.51-5.41,8.52-15.58,6.01-27.06ZM73.33,211.06c1.05,3.16,3.61,12.53,1.45,22.8-1.7,1.4-3.66,3.51-5.66,6.61-1.4-5.66-3.91-10.42-6.51-14.18v-.1c2.66-5.56,6.31-10.72,10.72-15.13ZM50.73,257.75c-3.21-5.51-6.86-13.63-6.86-22.5,2.71,1.35,5.21,3.06,7.47,5.01.6,5.96,1.85,11.82,3.76,17.49h-4.36ZM63.56,253.45c-.2.9-.3,1.7-.35,2.46-.05.65-.1,1.25-.1,1.75h-6.46c-1.9-5.66-3.16-11.52-3.76-17.49.05-.2.05-.45-.05-.65-.65-6.76-.1-13.58,1.75-20.09,1.25,1.15,3.76,3.61,6.26,7.11h0c.15.15.25.35.35.5.2.3.4.6.65.9.35.5.65,1,.95,1.55.05.1.1.15.15.25,2.15,3.51,4.06,7.77,5.01,12.63l-.55.95c-2.15,3.91-3.31,7.27-3.86,10.02v.1ZM64.66,257.7h0c.2-4.86,1.65-9.52,4.16-13.58.25-.45.5-.85.7-1.25,1.55-2.66,3.11-4.66,4.51-6.11.75-.75,1.45-1.4,2.1-1.9,2-1.6,3.61-2.1,4.41-2.3,2,10.67-2.76,20.19-6.01,25.15h-9.87Z"/><path class="cls-8" d="M71.27,193.32c0-1.15-2.61-2.1-6.21-2.51,3.21-1.7,5.26-3.61,4.81-4.66-.45-1.1-3.31-1-6.91.1,2.41-2.91,3.61-5.51,2.76-6.31-.8-.8-3.36.35-6.16,2.66,1.05-3.51,1.15-6.26.1-6.71-1.1-.45-3.01,1.65-4.81,4.96-.35-3.71-1.35-6.41-2.51-6.41s-2.1,2.61-2.51,6.21c-1.7-3.21-3.61-5.26-4.66-4.81-1.1.45-1,3.31.1,6.91-2.91-2.41-5.51-3.61-6.31-2.76-.8.8.35,3.36,2.66,6.16-3.51-1.05-6.26-1.15-6.71-.1-.45,1.1,1.65,3.01,4.96,4.81-3.71.35-6.41,1.35-6.41,2.51s2.61,2.1,6.21,2.51c-3.21,1.7-5.26,3.61-4.81,4.66.45,1.1,3.31,1,6.91-.1-2.41,2.91-3.61,5.51-2.76,6.31.8.8,3.36-.35,6.16-2.66-1.05,3.51-1.15,6.26-.1,6.71,1.1.45,3.01-1.65,4.81-4.96.35,3.71,1.35,6.41,2.51,6.41s2.1-2.61,2.51-6.21c1.7,3.21,3.61,5.26,4.66,4.81,1.1-.45,1-3.31-.1-6.91,2.91,2.41,5.51,3.61,6.31,2.76.8-.8-.35-3.36-2.66-6.16,3.51,1.05,6.26,1.15,6.71.1.45-1.1-1.65-3.01-4.96-4.81,3.71-.3,6.41-1.3,6.41-2.51Z"/><path class="cls-4" d="M35.5,186.3c.05-.2.5-.3,1.25-.3.95,0,2.46.2,4.36.75-.5-.65-1-1.3-1.45-1.9-2.71-.55-4.96-.5-5.56.85-.55,1.35,1,3.11,3.41,4.66.75-.15,1.55-.25,2.41-.3-3.16-1.75-4.56-3.36-4.41-3.76Z"/><path class="cls-4" d="M44.82,175.08c-1.35.55-1.45,2.86-.9,5.66.65.45,1.25.95,1.9,1.45-1-3.46-.85-5.56-.45-5.71h.05c.5,0,2,1.4,3.61,4.36.05-.8.2-1.65.3-2.41-1.5-2.35-3.16-3.91-4.51-3.36Z"/><path class="cls-4" d="M59.9,175.18c-1-.45-2.25.25-3.71,2.05-.3.4-.65.8-.95,1.3.15.75.25,1.55.3,2.35.6-1.05,1.2-2,1.8-2.76,1.1-1.4,1.75-1.6,1.9-1.6h.05c.1.05.45.6.2,2.51-.1.95-.35,2-.65,3.11.65-.5,1.25-1,1.9-1.45.1-.5.2-1,.25-1.5.3-2.25-.1-3.61-1.1-4.01Z"/><path class="cls-4" d="M70.52,185.85c-.55-1.35-2.86-1.45-5.61-.9-.45.65-.95,1.25-1.45,1.9,3.46-1,5.51-.85,5.71-.45.15.4-1.2,1.95-4.31,3.61.8.05,1.6.2,2.35.3,2.3-1.45,3.86-3.11,3.31-4.46Z"/><path class="cls-4" d="M67.07,196.28c-.75.15-1.55.25-2.41.3,3.16,1.75,4.56,3.31,4.41,3.76-.15.4-2.2.55-5.56-.45.5.65,1,1.25,1.4,1.9,1,.2,1.9.35,2.71.35,1.4,0,2.41-.35,2.76-1.2.65-1.35-.9-3.06-3.31-4.66Z"/><path class="cls-4" d="M60.65,205.85c-.65-.45-1.3-.95-1.95-1.5,1.05,3.51.9,5.66.5,5.81-.4.15-1.95-1.2-3.61-4.26-.05.8-.2,1.65-.35,2.41,1.3,2,2.71,3.36,3.91,3.36.2,0,.4-.05.6-.1,1.35-.55,1.45-2.91.9-5.71Z"/><path class="cls-4" d="M49.03,205.65c-1.75,3.21-3.36,4.61-3.76,4.46-.4-.15-.5-2.2.45-5.56-.65.55-1.3,1.05-1.95,1.45-.55,2.71-.45,4.91.9,5.46.2.1.35.1.6.1,1.25,0,2.71-1.45,4.06-3.56-.15-.7-.25-1.55-.3-2.35Z"/><path class="cls-4" d="M35.45,200.23c-.15-.4,1.2-1.95,4.26-3.61-.8-.05-1.6-.2-2.35-.35-2.35,1.5-3.86,3.16-3.31,4.51.35.85,1.4,1.25,2.86,1.25.85,0,1.8-.1,2.86-.35.45-.65.95-1.3,1.5-1.95-3.51,1.05-5.66.9-5.81.5Z"/><path class="cls-4" d="M71.98,193.32c0-2.35-5.31-3.41-10.22-3.41-.45,0-.85,0-1.3.05.3-.3.6-.6.95-.9,3.46-3.46,6.46-7.97,4.81-9.67-1.65-1.65-6.16,1.35-9.67,4.81-.3.3-.6.6-.9.95,0-.45.05-.85.05-1.3,0-4.91-1.05-10.22-3.41-10.22s-3.41,5.31-3.41,10.22c0,.45,0,.85.05,1.3-.3-.3-.6-.6-.9-.95-3.46-3.46-7.97-6.46-9.62-4.81s1.35,6.16,4.81,9.67c.3.3.6.6.95.9-.45,0-.85-.05-1.3-.05-4.91,0-10.22,1.05-10.22,3.41s5.31,3.41,10.22,3.41c.45,0,.85,0,1.3-.05-.3.3-.6.6-.95.9-3.46,3.46-6.46,7.97-4.81,9.62.35.35.75.5,1.25.5,2.1,0,5.56-2.51,8.37-5.31.3-.3.6-.6.9-.95,0,.45-.05.85-.05,1.3,0,4.91,1.1,10.22,3.41,10.22s3.41-5.31,3.41-10.22c0-.45,0-.85-.05-1.3.3.3.6.6.9.95,2.81,2.81,6.26,5.31,8.37,5.31.5,0,.95-.15,1.25-.5,1.65-1.65-1.35-6.16-4.81-9.62-.3-.3-.6-.6-.95-.9.45,0,.85.05,1.3.05,5.01,0,10.27-1.05,10.27-3.41ZM58.6,195.07c-1.75-.2-3.11-.5-4.06-.8.9.4,2.05,1.15,3.46,2.25.75.6,1.55,1.3,2.35,2.15,4.01,4.01,5.21,7.11,4.81,7.52-.4.4-3.51-.8-7.52-4.81-.85-.85-1.55-1.65-2.15-2.35-1.05-1.3-1.8-2.46-2.2-3.31.3.95.6,2.25.8,3.96.1.95.15,2,.15,3.16,0,5.66-1.35,8.72-1.9,8.72s-1.9-3.06-1.9-8.72c0-1.15.05-2.25.15-3.16.15-1.6.45-2.91.75-3.86-.45.85-1.15,1.95-2.15,3.26-.6.75-1.3,1.55-2.15,2.35-4.01,4.01-7.11,5.21-7.52,4.81s.8-3.51,4.81-7.52c.85-.85,1.65-1.55,2.35-2.15,1.35-1.1,2.51-1.8,3.41-2.25-.95.35-2.25.65-4.01.8-.95.1-2,.15-3.21.15-5.66,0-8.72-1.35-8.72-1.9s3.06-1.9,8.72-1.9c1.15,0,2.25.05,3.21.15,1.75.15,3.11.5,4.01.8-.2-.1-.4-.2-.65-.35-.85-.5-1.8-1.1-2.71-1.9-.8-.65-1.6-1.35-2.41-2.15-4.01-4.01-5.21-7.11-4.81-7.52.05-.05.1-.05.25-.05.9,0,3.76,1.35,7.27,4.91.85.85,1.55,1.65,2.15,2.35,1.1,1.3,1.8,2.46,2.2,3.31-.3-.95-.6-2.25-.8-3.96-.1-.95-.15-2-.15-3.16,0-5.66,1.35-8.72,1.9-8.72s1.9,3.06,1.9,8.72c0,1.15-.05,2.25-.15,3.16-.2,1.75-.5,3.06-.8,4.01.45-.85,1.15-2,2.25-3.36.6-.75,1.3-1.55,2.15-2.41,3.56-3.56,6.36-4.91,7.27-4.91.1,0,.2.05.25.05.4.4-.8,3.51-4.81,7.52-.8.8-1.6,1.5-2.41,2.15-.95.8-1.85,1.4-2.71,1.9-.25.15-.5.25-.65.35.95-.35,2.3-.65,4.01-.8.95-.1,2-.15,3.21-.15,5.66,0,8.72,1.35,8.72,1.9s-3.06,1.9-8.72,1.9c-1.25,0-2.3-.05-3.26-.15Z"/><circle class="cls-7" cx="52.33" cy="193.32" r="3.76"/><path class="cls-4" d="M52.33,197.83c-1.45,0-2.91-.7-3.76-2.05-1.35-2.05-.75-4.86,1.35-6.21,2.1-1.35,4.86-.75,6.21,1.35h0c1.35,2.05.75,4.86-1.35,6.21-.8.45-1.6.7-2.46.7ZM52.33,190.36c-.55,0-1.1.15-1.6.45-1.4.9-1.8,2.76-.9,4.11.9,1.4,2.76,1.8,4.11.9,1.4-.9,1.8-2.76.9-4.11h0c-.55-.9-1.55-1.35-2.51-1.35Z"/></g></svg>