<?xml version="1.0" encoding="utf-8"?>
<!-- Generator: Adobe Illustrator 28.1.0, SVG Export Plug-In . SVG Version: 6.00 Build 0)  -->
<svg version="1.1" id="Calque_1" xmlns="http://www.w3.org/2000/svg" xmlns:xlink="http://www.w3.org/1999/xlink" x="0px" y="0px"
	 viewBox="0 0 400 300" style="enable-background:new 0 0 400 300;" xml:space="preserve">
<style type="text/css">
	.st0{fill:#231F20;}
	.st1{fill:#FFFFFF;}
	.st2{fill:#D1D3D4;}
	.st3{fill:#68E1FD;}
	.st4{fill:#1C88C7;}
	.st5{fill:#E34F26;}
	.st6{fill:#EF652A;}
	.st7{fill:#1B73BA;}
	.st8{fill:#E52C36;}
</style>
<g id="_566_team_presentation_flatline">
	<path class="st0" d="M349.2,266.3H50.8c-0.3,0-0.5-0.2-0.5-0.5s0.2-0.5,0.5-0.5h298.4c0.3,0,0.5,0.2,0.5,0.5
		S349.5,266.3,349.2,266.3L349.2,266.3z"/>
</g>
<g id="_122_project_presentation_flatline">
	<path class="st1" d="M45.7,57.4h149.2c3,0,5.5,2.2,5.5,4.8v86c0,2.7-2.4,4.8-5.5,4.8H45.7c-3,0-5.5-2.2-5.5-4.8v-86
		C40.2,59.6,42.7,57.4,45.7,57.4z"/>
	<rect x="47.1" y="64.9" class="st1" width="131.5" height="82.9"/>
	<path class="st2" d="M195.3,153H45.8c-3.4,0-6.2-2.4-6.2-5.5V62.2c0-3,2.8-5.5,6.2-5.5h149.6c3.4,0,6.2,2.5,6.2,5.5v85.4
		C201.6,150.6,198.8,153,195.3,153L195.3,153z M45.8,58c-2.6,0-4.7,1.9-4.7,4.2v85.4c0,2.3,2.1,4.2,4.7,4.2h149.6
		c2.6,0,4.7-1.9,4.7-4.2V62.2c0-2.3-2.1-4.2-4.7-4.2H45.8L45.8,58z"/>
	<path class="st2" d="M195,143.5H47.3c-0.4,0-0.8-0.3-0.8-0.6V67.8c0-0.3,0.3-0.6,0.8-0.6H195c0.4,0,0.8,0.3,0.8,0.6V143
		C195.8,143.3,195.5,143.5,195,143.5L195,143.5z M48,142.3h146.2V68.4H48V142.3z"/>
	<circle class="st1" cx="67.5" cy="98.2" r="4.3"/>
	<circle class="st1" cx="67.5" cy="113.3" r="4.3"/>
	<circle class="st1" cx="67.5" cy="128.5" r="4.3"/>
</g>
<g id="_182_code_css_flatline">
	<rect x="48" y="68.4" class="st3" width="146" height="73.8"/>
	<rect x="48" y="68.4" class="st0" width="146" height="73.8"/>
	<rect x="48" y="68.4" class="st4" width="73.8" height="73.8"/>
	<path class="st1" d="M158.8,79.1h-17.7c-0.2,0-0.4-0.2-0.4-0.3s0.2-0.3,0.4-0.3h17.7c0.2,0,0.4,0.2,0.4,0.3S158.9,79.1,158.8,79.1
		L158.8,79.1z"/>
	<path class="st1" d="M164.1,86h-17.7c-0.2,0-0.4-0.2-0.4-0.3s0.2-0.3,0.4-0.3h17.7c0.2,0,0.4,0.2,0.4,0.3S164.3,86,164.1,86
		L164.1,86z"/>
	<path class="st5" d="M138.8,92.8h-7.1c-0.2,0-0.4-0.2-0.4-0.3s0.2-0.3,0.4-0.3h7.1c0.2,0,0.4,0.2,0.4,0.3
		C139.2,92.7,139,92.8,138.8,92.8z"/>
	<path class="st1" d="M167.2,92.8h-22.1c-0.2,0-0.4-0.2-0.4-0.3s0.2-0.3,0.4-0.3h22.1c0.2,0,0.4,0.2,0.4,0.3S167.4,92.8,167.2,92.8z
		"/>
	<path class="st1" d="M171.8,99.7h-26.3c-0.2,0-0.4-0.2-0.4-0.3s0.2-0.3,0.4-0.3h26.3c0.2,0,0.4,0.2,0.4,0.3S172,99.7,171.8,99.7z"
		/>
	<path class="st1" d="M158,106.5h-14.3c-0.2,0-0.4-0.2-0.4-0.3s0.2-0.3,0.4-0.3H158c0.2,0,0.4,0.2,0.4,0.3S158.2,106.5,158,106.5z"
		/>
	<path class="st1" d="M158,113.4h-18.3c-0.2,0-0.4-0.2-0.4-0.3c0-0.2,0.2-0.3,0.4-0.3H158c0.2,0,0.4,0.2,0.4,0.3
		C158.3,113.2,158.2,113.4,158,113.4z"/>
	<path class="st1" d="M162.4,120.2h-21.7c-0.2,0-0.4-0.2-0.4-0.3c0-0.2,0.2-0.3,0.4-0.3h21.7c0.2,0,0.4,0.2,0.4,0.3
		S162.6,120.2,162.4,120.2z"/>
	<path class="st3" d="M173.4,120.2h-8.9c-0.2,0-0.4-0.2-0.4-0.3s0.2-0.3,0.4-0.3h8.9c0.2,0,0.4,0.2,0.4,0.3
		C173.8,120.1,173.6,120.2,173.4,120.2z"/>
	<path class="st1" d="M160.1,127.1h-20.5c-0.2,0-0.4-0.2-0.4-0.3s0.2-0.3,0.4-0.3h20.5c0.2,0,0.4,0.2,0.4,0.3
		S160.3,127.1,160.1,127.1z"/>
	<path class="st5" d="M136.4,79.1h-8.9c-0.2,0-0.3-0.2-0.3-0.3s0.2-0.3,0.3-0.3h8.9c0.2,0,0.4,0.2,0.4,0.3S136.6,79.1,136.4,79.1z"
		/>
	<path class="st5" d="M138.5,86h-8.9c-0.2,0-0.4-0.2-0.4-0.3s0.2-0.3,0.4-0.3h8.9c0.2,0,0.4,0.2,0.4,0.3S138.7,86,138.5,86z"/>
	<path class="st5" d="M142.6,99.7h-8.9c-0.2,0-0.4-0.2-0.4-0.3s0.2-0.3,0.4-0.3h8.9c0.2,0,0.4,0.2,0.4,0.3S142.8,99.7,142.6,99.7z"
		/>
	<path class="st5" d="M140.3,106.5h-8.9c-0.2,0-0.4-0.2-0.4-0.3s0.2-0.3,0.4-0.3h8.9c0.2,0,0.4,0.2,0.4,0.3S140.5,106.5,140.3,106.5
		z"/>
	<path class="st5" d="M177.7,106.5h-14.3c-0.2,0-0.4-0.2-0.4-0.3s0.2-0.3,0.4-0.3h14.3c0.2,0,0.4,0.2,0.4,0.3
		S177.9,106.5,177.7,106.5z"/>
	<path class="st5" d="M134.5,113.4h-3.1c-0.2,0-0.4-0.2-0.4-0.3c0-0.2,0.2-0.3,0.4-0.3h3.1c0.2,0,0.4,0.2,0.4,0.3
		C134.8,113.2,134.7,113.4,134.5,113.4z"/>
	<path class="st5" d="M165.2,113.4h-5.1c-0.2,0-0.4-0.2-0.4-0.3s0.2-0.3,0.4-0.3h5.1c0.2,0,0.4,0.2,0.4,0.3S165.4,113.4,165.2,113.4
		z"/>
	<path class="st5" d="M136.2,120.2h-4.8c-0.2,0-0.4-0.2-0.4-0.3c0-0.2,0.2-0.3,0.4-0.3h4.8c0.2,0,0.4,0.2,0.4,0.3
		C136.6,120.1,136.4,120.2,136.2,120.2z"/>
	<path class="st5" d="M134.1,127.1h-4.7c-0.2,0-0.4-0.2-0.4-0.3s0.2-0.3,0.4-0.3h4.7c0.2,0,0.4,0.2,0.4,0.3S134.2,127.1,134.1,127.1
		z"/>
	<path class="st5" d="M138.2,133.9h-8.9c-0.2,0-0.4-0.2-0.4-0.4s0.2-0.4,0.4-0.4h8.9c0.2,0,0.4,0.2,0.4,0.4S138.4,133.9,138.2,133.9
		z"/>
	<path class="st5" d="M187.4,99.7h-12c-0.2,0-0.4-0.2-0.4-0.3c0-0.2,0.2-0.3,0.4-0.3h12c0.2,0,0.4,0.2,0.4,0.3
		S187.6,99.7,187.4,99.7z"/>
	<path class="st5" d="M169.5,79.2c-4,0-6.1,0-6.2-0.1c-0.2,0-0.3-0.2-0.3-0.4c0-0.2,0.2-0.3,0.4-0.3c0.7,0.1,14.6,0,20,0l0,0
		c0.2,0,0.4,0.2,0.4,0.3s-0.2,0.3-0.4,0.3C177.5,79.2,172.8,79.2,169.5,79.2z"/>
	<path class="st3" d="M171.4,127.1h-8.9c-0.2,0-0.4-0.2-0.4-0.3s0.2-0.3,0.4-0.3h9c0.2,0,0.4,0.2,0.4,0.3S171.6,127.1,171.4,127.1
		L171.4,127.1L171.4,127.1z"/>
	<path class="st1" d="M150.8,133.9h-6.6c-0.2,0-0.4-0.2-0.4-0.4s0.2-0.4,0.4-0.4h6.6c0.2,0,0.4,0.2,0.4,0.4S151,133.9,150.8,133.9z"
		/>
	<path class="st3" d="M169,133.9h-15.7c-0.2,0-0.4-0.2-0.4-0.4s0.2-0.4,0.4-0.4H169c0.2,0,0.4,0.2,0.4,0.4S169.2,133.9,169,133.9z"
		/>
	<path class="st0" d="M142.5,76.2H48c-0.2,0-0.3-0.2-0.3-0.3c0-0.2,0.2-0.3,0.3-0.3h94.6c0.2,0,0.4,0.2,0.4,0.3
		S142.7,76.2,142.5,76.2L142.5,76.2z"/>
	<circle class="st1" cx="54.1" cy="72.1" r="1.6"/>
	<circle class="st1" cx="60.1" cy="72.1" r="1.6"/>
	<circle class="st1" cx="66.2" cy="72.1" r="1.6"/>
	<rect x="54.5" y="80.3" class="st1" width="60.6" height="24.9"/>
	<path class="st4" d="M54.5,105.6c-0.2,0-0.3-0.2-0.3-0.3c0-0.1,0-0.2,0.1-0.2l22.2-19.9c0.1-0.1,0.3-0.1,0.5,0l18.6,17.2
		c0.1,0.1,0.1,0.4,0,0.5s-0.4,0.1-0.5,0l0,0l-18.5-17l-21.9,19.7C54.7,105.6,54.6,105.6,54.5,105.6L54.5,105.6z"/>
	<path class="st4" d="M91.8,99.8c-0.1,0-0.2,0-0.2-0.1c-0.1-0.1-0.1-0.3,0-0.5l0,0l11.9-11.1c0.1-0.1,0.3-0.1,0.5,0l11.4,11.1
		c0.1,0.1,0.1,0.4,0,0.5s-0.4,0.1-0.5,0l0,0l-11.1-10.8L92.1,99.7C92,99.8,91.9,99.8,91.8,99.8L91.8,99.8z"/>
	<path class="st4" d="M93,91.1c-1.7,0.2-3.2-1-3.4-2.6s1-3.2,2.6-3.4c1.7-0.2,3.2,1,3.4,2.6c0,0.1,0,0.3,0,0.4
		C95.7,89.6,94.5,91,93,91.1L93,91.1L93,91.1z M93,85.8c-1.3-0.2-2.5,0.6-2.7,1.9s0.6,2.5,1.9,2.7s2.5-0.6,2.7-1.9
		c0-0.1,0-0.3,0-0.4C95,86.9,94.1,85.9,93,85.8z"/>
	<path class="st1" d="M114.7,110.5H54.5c-0.2,0-0.3-0.2-0.3-0.3s0.2-0.3,0.3-0.3h60.2c0.2,0,0.3,0.2,0.3,0.3
		S114.8,110.5,114.7,110.5z"/>
	<path class="st1" d="M114.7,115.4H54.5c-0.2,0-0.3-0.2-0.3-0.3s0.2-0.3,0.3-0.3h60.2c0.2,0,0.3,0.2,0.3,0.3
		C115,115.2,114.8,115.4,114.7,115.4z"/>
	<path class="st1" d="M106.3,120.3H54.5c-0.2,0-0.3-0.2-0.3-0.3s0.2-0.3,0.3-0.3h51.8c0.2,0,0.3,0.2,0.3,0.3
		C106.7,120.1,106.5,120.3,106.3,120.3z"/>
	<path class="st1" d="M71.7,136.2H54.5c-0.2,0-0.3-0.2-0.3-0.4v-11.9c0-0.2,0.2-0.3,0.3-0.3h17.2c0.2,0,0.3,0.2,0.3,0.3v11.9
		C72,136.1,71.8,136.2,71.7,136.2z M54.8,135.5h16.5v-11.2H54.8V135.5z"/>
	<path class="st1" d="M93.2,136.2H76c-0.2,0-0.3-0.2-0.3-0.4v-11.9c0-0.2,0.2-0.3,0.3-0.3h17.2c0.2,0,0.3,0.2,0.3,0.3v11.9
		C93.5,136.1,93.3,136.2,93.2,136.2L93.2,136.2z M76.3,135.5h16.5v-11.2H76.3V135.5z"/>
	<path class="st1" d="M114.7,136.2H97.5c-0.2,0-0.3-0.2-0.3-0.4v-11.9c0-0.2,0.2-0.3,0.3-0.3h17.1c0.2,0,0.3,0.2,0.3,0.3v11.9
		C115,136.1,114.8,136.2,114.7,136.2z M97.8,135.5h16.5v-11.2H97.9L97.8,135.5z"/>
	<rect x="171" y="118.9" class="st1" width="34.6" height="38.6"/>
	<path class="st2" d="M205.6,157.8h-34.8c-0.1,0-0.2-0.2-0.2-0.4v-38.6c0-0.2,0.1-0.3,0.2-0.3h34.8c0.1,0,0.2,0.2,0.2,0.3v38.6
		C205.8,157.7,205.7,157.8,205.6,157.8L205.6,157.8z M170.9,157.1h34.4v-37.9h-34.4V157.1z"/>
	<path class="st2" d="M205.6,126H171c-0.1,0-0.2-0.2-0.2-0.3s0.1-0.3,0.2-0.3h34.6c0.1,0,0.2,0.2,0.2,0.3S205.7,126,205.6,126z"/>
	<rect x="37" y="99.7" class="st1" width="27.5" height="26.7"/>
	<path class="st2" d="M64.7,127.1h-28c-0.2,0-0.4-0.2-0.4-0.4V99.8c0-0.2,0.2-0.4,0.4-0.4h27.9c0.2,0,0.4,0.2,0.4,0.4v26.9
		C65,126.9,64.9,127.1,64.7,127.1z M37.2,126.2h27.1v-26H37.2V126.2z"/>
	<path class="st2" d="M64.4,102.8H36.7c-0.2,0-0.4-0.2-0.4-0.3s0.2-0.3,0.4-0.3h27.7c0.2,0,0.4,0.2,0.4,0.3
		C64.8,102.7,64.7,102.8,64.4,102.8z"/>
	<g>
		<path class="st5" d="M178.5,152.5l-2-24.1l23.6,0.1l-2.1,24.1l-9.6,2.8L178.5,152.5L178.5,152.5z"/>
		<path class="st6" d="M188.4,153v-22.2h9.7l-1.7,19.9L188.4,153z"/>
		<path class="st1" d="M195.4,136.3l0.3-2.9h-14.9l0.8,9h10.3l-0.4,3.9l-3.3,0.9l-3.4-1l-0.2-2.3h-3l0.4,4.7l6.1,1.7l6.1-1.7
			l0.8-9.1h-10.8l-0.3-3.1L195.4,136.3L195.4,136.3z"/>
	</g>
	<g>
		<path class="st7" d="M43.5,122.6L42,104.6h17.6L58,122.6l-7.2,2L43.5,122.6L43.5,122.6z"/>
		<path class="st4" d="M50.9,123v-16.7h7.3L57,121.3L50.9,123L50.9,123z"/>
		<path class="st1" d="M56.4,108.5H45.2l0.3,2.2h5.3l-5.2,2.3l0.3,2.2h7.7l-0.3,3l-2.6,0.5l-2.3-0.5l-0.1-1.6h-2.2l0.3,3.5l4.6,1.2
			l4.5-1.4l0.5-6.8h-4.8l5.2-2.2v-2.4H56.4z"/>
	</g>
</g>
<g>
	<g>
		<path class="st0" d="M245.6,138.7h49.9c14.1,0,25.5,11.4,25.5,25.6c0,1.1-0.1,2.2-0.2,3.4l-8.1,60.6H211.3l9-67.3
			C222,148.2,232.8,138.7,245.6,138.7L245.6,138.7z"/>
		<path class="st1" d="M181.7,164c0,0-13-19.3-12.8-14.9c0.2,2.9,0.9,5.7,2.2,8.3c0,0-14.9-6.6-15.9-3.5s10.4,11,11.3,12.2
			s4.5,7.1,4.5,7.1"/>
		<path class="st0" d="M171.1,173.8c-0.2,0-0.3-0.1-0.4-0.2c0-0.1-3.6-5.9-4.5-7.1c-0.8-0.7-1.5-1.4-2.4-2
			c-5.2-4.2-9.8-8.2-9.1-10.6c0.1-0.4,0.4-0.8,0.8-0.9c2.6-1.2,11.2,2.2,14.5,3.6c-1-2.3-1.5-4.8-1.7-7.3c0-0.8,0.3-1.1,0.6-1.2
			c1.8-0.6,9,9.6,13.1,15.7c0.1,0.2,0.1,0.5-0.1,0.7c-0.2,0.2-0.5,0.1-0.7-0.1l0,0c-4.8-7.1-10.3-14.5-11.9-15.2v0.1
			c0.2,2.8,0.9,5.5,2.1,8.1c0.1,0.2,0.1,0.4-0.1,0.6c-0.1,0.2-0.4,0.2-0.6,0.1c-3.4-1.5-12.7-5.2-14.9-4.1c-0.2,0.1-0.3,0.2-0.3,0.3
			c-0.6,2,5.7,7.1,8.7,9.6c0.9,0.7,1.8,1.4,2.5,2.2c1,1.2,4.4,7,4.6,7.2c0.1,0.2,0.1,0.5-0.2,0.7l0,0
			C171.3,173.8,171.2,173.8,171.1,173.8L171.1,173.8z"/>
		<path class="st8" d="M182.2,159.8c0,0,20.4,27.5,22.9,27.1c4.2-5.5,23.6-33.6,23.6-33.6c3.8-5,14.9-9,30.7-6.8
			c0,0,35,0.7,41.8,11.9c3.9,6.4,7.2,23.5,9.4,48.8h-124c-9.5-14.4-18.6-33.6-18.6-33.6L182.2,159.8L182.2,159.8z"/>
		<polygon class="st0" points="253.8,151.8 254.6,199.6 275.6,149.1 		"/>
		<path class="st0" d="M254.6,200.1h-0.1c-0.2,0-0.4-0.2-0.4-0.5l-0.8-47.8c0-0.2,0.2-0.5,0.4-0.5l21.8-2.6c0.2,0,0.4,0.1,0.5,0.2
			c0.1,0.1,0.1,0.3,0.1,0.5l-21,50.4C255,200,254.8,200.1,254.6,200.1L254.6,200.1z M254.3,152.2l0.7,45l19.8-47.4L254.3,152.2
			L254.3,152.2z"/>
		<path class="st1" d="M243.4,99.9c7.1-14.4,27.3-14.8,38.7-4.8c11.1,9.8,12,28.8,12,42.6c-17.3,11.5-41.3,11.9-59,1
			C236.3,131.4,241,104.7,243.4,99.9L243.4,99.9z"/>
		<path class="st0" d="M263.7,147.1c-10.2,0.1-20.2-2.7-28.9-7.9c-0.2-0.1-0.3-0.3-0.2-0.5c0.6-3.4,5.8-33.8,8.4-38.9l0,0
			c3-6.1,8.8-10.3,15.4-11.4c8.6-1.6,17.4,0.8,24,6.5c10.7,9.4,12.2,27,12.1,43c0,0.2-0.1,0.3-0.2,0.4
			C285.2,144.1,274.5,147.2,263.7,147.1L263.7,147.1z M235.6,138.5c17.3,10.5,41,10.1,57.9-1c0-15.7-1.4-32.8-11.8-42
			c-6.4-5.5-14.9-7.8-23.2-6.2c-6.4,1.1-11.8,5.1-14.7,10.9C241.8,104.2,237.7,126,235.6,138.5L235.6,138.5z"/>
		<path class="st1" d="M249,121.8c-0.3-1.1-0.9-2.2-1.7-3.1s-2.1-1.2-3.2-0.8c-0.8,0.5-1.3,1.3-1.4,2.2c-0.1,0.9,0.1,1.8,0.4,2.6
			c0.5,1.6,1.4,3,2.6,4.2c1.2,1.2,2.8,1.8,4.5,1.8"/>
		<path class="st0" d="M249.9,129.3c-1.7,0-3.3-0.7-4.5-1.9c-1.2-1.2-2.2-2.8-2.7-4.4c-0.4-0.9-0.5-1.9-0.5-2.8
			c0.1-1.1,0.7-2.1,1.6-2.6c1.3-0.6,2.9-0.2,3.8,0.9c0.8,1,1.4,2.1,1.8,3.3c0.1,0.3,0,0.6-0.3,0.6c-0.2,0.1-0.5,0-0.6-0.3l0,0
			c-0.3-1.1-0.9-2.1-1.6-2.9c-0.7-0.7-1.7-1-2.6-0.7c-0.6,0.4-1.1,1.1-1.1,1.8c0,0.8,0.1,1.7,0.4,2.4c0.5,1.5,1.3,2.9,2.4,4
			c1.1,1.1,2.6,1.7,4.1,1.6c0.3,0,0.5,0.2,0.5,0.5l0,0c0,0.3-0.2,0.5-0.5,0.5l0,0H249.9L249.9,129.3z"/>
		<path class="st1" d="M255.2,137.7l-1.4,14.1c0,0,0.7,8,9.5,6.4c5.2-1,9.8-4.3,12.3-9l1.3-24.5c0-1-3.7-5.3-2.7-14.3
			c-6.1-0.6-11.6-3.8-15.3-8.7c0,0-4.1,5-5.8,6.6c-1.4,1.2-2.6,2.5-3.6,4c-2.7,4.1-3,9.8-2.4,14.4
			C247.7,130.6,250.3,137.8,255.2,137.7L255.2,137.7z"/>
		<path class="st0" d="M261.1,158.9c-1.7,0.1-3.4-0.5-4.8-1.5c-1.7-1.4-2.8-3.4-3-5.6l1.4-13.6c-4.7-0.4-7.4-7.1-8-11.4
			c-0.5-3.4-0.8-9.9,2.4-14.8c1.1-1.5,2.3-2.8,3.7-4c1.7-1.5,5.7-6.5,5.7-6.5c0.1-0.1,0.3-0.2,0.4-0.2c0.2,0,0.3,0.1,0.4,0.2
			c3.6,4.8,9,7.8,14.9,8.4c0.1,0,0.3,0.1,0.3,0.2c0.1,0.1,0.1,0.2,0.1,0.4c-0.6,4.3,0.2,8.7,2.2,12.6c0.3,0.5,0.5,1,0.6,1.6
			l-1.3,24.4c0,0.1,0,0.1,0,0.2c-2.6,4.9-7.3,8.3-12.7,9.3C262.7,158.8,261.9,158.9,261.1,158.9L261.1,158.9z M254.3,151.8
			c0.3,1.9,1.2,3.6,2.6,4.8c1.5,1.2,3.7,1.5,6.3,1.1c5.1-1,9.4-4.2,11.9-8.7l1.3-24.4c-0.1-0.4-0.3-0.8-0.5-1.1
			c-2-3.9-2.8-8.3-2.3-12.7c-5.8-0.7-11.1-3.7-14.8-8.3c-1.7,2.1-3.5,4.2-5.4,6.1c-1.3,1.1-2.5,2.4-3.5,3.8
			c-3.1,4.6-2.7,10.8-2.3,14.1c0.5,3.5,3,10.6,7.5,10.6h0.1c0.1,0,0.3,0.1,0.4,0.2c0.1,0.1,0.1,0.2,0.1,0.4L254.3,151.8L254.3,151.8
			L254.3,151.8z"/>
		<path class="st1" d="M261.1,113.5c0,0-5.2,6.3-4.2,7.6c1,1.3,4.1,0.8,4.1,0.8"/>
		<path class="st0" d="M259.6,122.5c-1.1,0.1-2.3-0.3-3.1-1.1c-1.1-1.4,2.6-6.2,4.2-8.2c0.2-0.2,0.5-0.2,0.7-0.1
			c0.2,0.2,0.2,0.5,0.1,0.7l0,0c-2.5,3.1-4.5,6.5-4.2,7c0.6,0.8,2.9,0.7,3.6,0.6c0.3,0,0.5,0.2,0.6,0.4c0,0.3-0.1,0.5-0.4,0.6l0,0
			C260.6,122.4,260.1,122.5,259.6,122.5L259.6,122.5z"/>
		
			<ellipse transform="matrix(0.1326 -0.9912 0.9912 0.1326 106.8035 352.2206)" class="st0" cx="254.6" cy="115.1" rx="1.5" ry="0.8"/>
		
			<ellipse transform="matrix(1.169378e-02 -0.9999 0.9999 1.169378e-02 149.766 380.968)" class="st0" cx="267.6" cy="114.7" rx="1.5" ry="0.8"/>
		<path class="st1" d="M272.9,119.3c0.3-1.2,0.9-2.3,1.6-3.3c0.8-1.2,2.2-1.9,3.6-1.8c0.9,0,1.7,0.5,2.2,1.2
			c0.3,0.5,0.5,1.1,0.6,1.7c0.5,3.1-0.6,7.2-3.5,8.8c-1,0.7-2.3,0.7-3.3,0"/>
		<path class="st0" d="M275.5,126.8c-0.6,0-1.2-0.2-1.8-0.6c-0.2-0.1-0.3-0.4-0.2-0.7s0.4-0.3,0.7-0.2l0.1,0.1
			c0.9,0.5,1.9,0.5,2.8-0.1c2.7-1.5,3.7-5.3,3.3-8.3c-0.1-0.5-0.2-1-0.5-1.5c-0.4-0.6-1.1-1-1.8-1c-1.3,0-2.5,0.6-3.2,1.7
			c-0.7,1-1.2,2-1.5,3.2c-0.1,0.3-0.4,0.4-0.6,0.3c-0.3-0.1-0.4-0.3-0.4-0.6l0,0c0.3-1.3,0.9-2.5,1.7-3.5c1-1.3,2.5-2,4.1-2
			c1,0,2,0.6,2.6,1.4c0.4,0.6,0.6,1.2,0.6,1.9c0.5,3.3-0.6,7.6-3.8,9.3C277,126.6,276.3,126.8,275.5,126.8L275.5,126.8z"/>
		<path class="st0" d="M228.7,203.1L228.7,203.1c-0.3,0-0.5-0.2-0.5-0.5c0-1,5.7-31.7,6.4-35.1c0.1-0.3,0.3-0.4,0.6-0.4l0,0
			c0.3,0.1,0.4,0.3,0.4,0.6c-2.5,13.6-6.3,34.1-6.4,35C229.1,202.9,228.9,203.1,228.7,203.1L228.7,203.1z"/>
		<path class="st0" d="M285.4,205.3c-0.3,0-0.5-0.2-0.5-0.5v-38.7c0-0.3,0.2-0.5,0.5-0.5s0.5,0.2,0.5,0.5v38.7
			C285.9,205.1,285.6,205.3,285.4,205.3z"/>
		<path class="st1" d="M266.1,123.7l-11.5,1.1c0,0,0,8.2,4.9,7.7S265.8,128.8,266.1,123.7z"/>
		<path class="st0" d="M259,133c-0.9,0-1.8-0.3-2.5-0.9c-2.4-2.1-2.4-7-2.4-7.2c0-0.3,0.2-0.5,0.4-0.5l11.5-1.1
			c0.3,0,0.5,0.2,0.5,0.5c0,0,0,0,0,0.1c-0.3,4.4-1.4,8.6-7.1,9.2L259,133L259,133z M255.1,125.2c0.1,1.2,0.4,4.6,2.1,6
			c0.6,0.6,1.4,0.8,2.2,0.7c3.9-0.4,5.7-2.6,6.1-7.7L255.1,125.2L255.1,125.2z"/>
		<path class="st0" d="M255.2,137.7c4.6,0.1,9.2-0.8,13.4-2.5c0,0-7.9,9.6-14.1,13.1L255.2,137.7L255.2,137.7z"/>
		<path class="st0" d="M254.6,148.8c-0.3,0-0.5-0.2-0.5-0.5v-0.1l0.6-10.6c0-0.3,0.3-0.5,0.5-0.5c4.5,0.1,9-0.8,13.2-2.5
			c0.2-0.1,0.5,0,0.7,0.2c0.1,0.2,0,0.4-0.1,0.5c-0.3,0.4-8.1,9.7-14.2,13.2C254.8,148.8,254.7,148.8,254.6,148.8L254.6,148.8z
			 M255.7,138.2l-0.6,9.2c4.4-2.8,9.5-8.3,11.8-11C263.4,137.6,259.5,138.2,255.7,138.2L255.7,138.2L255.7,138.2z"/>
		<path class="st0" d="M249.1,180.2c-0.1,0-0.3-0.1-0.4-0.1l-9.2-9.7c-0.1-0.1-0.1-0.2-0.1-0.4c0-0.1,0.1-0.3,0.2-0.4l8.6-5.9
			l-8.6-6.4c-0.2-0.1-0.3-0.5-0.1-0.7c0-0.1,0.1-0.1,0.1-0.1l10.3-7.1c0.2-0.2,0.5-0.2,0.7,0.1c0.2,0.2,0.2,0.5-0.1,0.7l-0.1,0.1
			l-9.8,6.7l8.6,6.4c0.1,0.1,0.2,0.2,0.2,0.4s-0.1,0.3-0.2,0.4l-8.7,6l8.8,9.2c0.2,0.2,0.2,0.5,0,0.7l0,0
			C249.4,180.2,249.2,180.2,249.1,180.2L249.1,180.2z"/>
		<path class="st0" d="M266.7,180.9c-0.2,0-0.3-0.1-0.4-0.2c-0.1-0.2-0.1-0.5,0.2-0.7l13.5-8.1l-7.5-8.5c-0.1-0.1-0.1-0.3-0.1-0.4
			c0-0.2,0.1-0.3,0.3-0.4l9.4-4.4l-5.5-5.9c-0.2-0.2-0.2-0.5-0.1-0.7c0.2-0.2,0.5-0.2,0.7-0.1l0.1,0.1l5.9,6.4
			c0.1,0.1,0.2,0.3,0.1,0.4c0,0.2-0.1,0.3-0.3,0.4l-9.4,4.4l7.4,8.4c0.1,0.1,0.1,0.3,0.1,0.4c0,0.1-0.1,0.3-0.2,0.4l-14.1,8.4
			C266.9,180.8,266.8,180.9,266.7,180.9L266.7,180.9z"/>
	</g>
	<rect x="75.7" y="204.8" class="st1" width="248.3" height="51.1"/>
	<path class="st0" d="M324,256.4H75.7c-0.2,0-0.4-0.2-0.5-0.4v-51.1c0-0.2,0.2-0.4,0.5-0.5H324c0.2,0,0.5,0.2,0.5,0.5V256
		C324.4,256.2,324.2,256.4,324,256.4z M76.1,255.4h247.4v-50.2H76.1V255.4z"/>
	<rect x="75.7" y="255.9" class="st1" width="248.3" height="10.2"/>
	<path class="st0" d="M324,266.5H75.7c-0.2,0-0.4-0.2-0.5-0.5v-10.1c0-0.2,0.2-0.5,0.5-0.5H324c0.2,0,0.5,0.2,0.5,0.4l0,0V266
		C324.4,266.3,324.2,266.5,324,266.5z M76.1,265.6h247.4v-9.2H76.1V265.6z"/>
	<rect x="267.5" y="213.4" class="st1" width="34.5" height="31.9"/>
</g>
<g id="fondamental">
	<circle class="st8" cx="119.9" cy="200.1" r="4.5"/>
	<path class="st1" d="M139.4,221.4c0,0-1.8,0-4.5,2.1c2.3-10.2-1.4-19.3-1.4-19.3c-3.9,3.8-7.2,8.2-9.4,13.1c-3-4.2-5.9-6.6-5.9-6.6
		c-1.8,5.5-2.3,11.4-1.7,17.1c-2.1-1.9-4.5-3.4-7.1-4.6c-0.2,7.5,2.8,14.4,5.7,19.1h19.5C137.2,238.5,141.4,230.5,139.4,221.4
		L139.4,221.4z"/>
	<path class="st0" d="M140,221.3c-0.1-0.3-0.4-0.4-0.6-0.5c-0.1,0-1.5,0-3.6,1.3c1.6-9.6-1.6-17.7-1.8-18.2
		c-0.1-0.2-0.3-0.4-0.4-0.4c-0.2-0.1-0.4,0-0.5,0.2c-3.7,3.4-6.6,7.4-8.8,11.9c-0.8-4.2-1.7-7.9-2.4-10.8c1.8-0.8,3.2-2.6,3.2-4.7
		s-1.4-4.1-3.3-4.8c-0.3-0.2-0.8-0.3-1.1-0.3c-0.2,0-0.4-0.1-0.6-0.1c-2.9,0-5.2,2.3-5.2,5.2c0,2.6,2,4.8,4.5,5.1h0.6
		c0.3,0,0.6,0,0.9-0.1c0.7,2.5,1.5,5.9,2.2,9.5c-2.3-2.7-4.2-4.3-4.4-4.5c-0.2-0.1-0.3-0.2-0.5-0.1c-0.2,0.1-0.3,0.2-0.4,0.4
		c-1.6,5.2-2.2,10.6-1.8,15.9c-1.8-1.5-3.9-2.8-6.1-3.8c-0.2-0.1-0.3-0.1-0.5,0.1c-0.2,0.1-0.3,0.3-0.3,0.5
		c-0.2,7.5,2.9,14.6,5.6,19.1H113l2.8,13.8h17.1l2.8-13.8h-0.4C138,238.2,141.9,230.3,140,221.3L140,221.3z M115.9,200.5
		c1-0.3,2.1-0.2,2.9-0.1c0,0.4-0.1,0.8-0.1,1.2c0,0.7,0.1,1.5,0.2,2.3C117.3,203.5,116.1,202.1,115.9,200.5L115.9,200.5z M119,199.3
		L119,199.3c-0.8-0.1-1.9-0.2-3,0c0.2-0.9,0.7-1.8,1.4-2.3c0.7-0.5,1.6-0.9,2.5-0.9h0.1C119.6,196.9,119.2,198,119,199.3L119,199.3z
		 M120.4,204h-0.3c-0.1-0.6-0.2-1.1-0.3-1.7l0,0c-0.1-0.8,0-1.6,0.1-2.3c0.3-1.6,0.7-2.9,1.1-3.7c1.6,0.5,2.7,2,2.7,3.8
		c0,1.6-1,3-2.3,3.6C121.2,203.8,120.8,204,120.4,204L120.4,204z M133.3,205.2c0.8,2.4,2.8,9.9,1.1,17.9c-1.3,1.1-2.9,2.8-4.5,5.2
		c-1.1-4.5-3.1-8.2-5.2-11.1C126.9,212.7,129.8,208.7,133.3,205.2L133.3,205.2z M115.5,241.9c-2.5-4.4-5.4-10.7-5.4-17.6
		c2.1,1.1,4.1,2.4,5.9,3.9c0.4,4.6,1.5,9.3,3,13.7L115.5,241.9L115.5,241.9z M125.6,238.5c-0.2,0.7-0.3,1.3-0.3,1.9
		c-0.1,0.5-0.1,1-0.1,1.4h-5.1c-1.5-4.5-2.5-9.1-3-13.7c0.1-0.2,0-0.4-0.1-0.5c-0.5-5.3-0.1-10.7,1.4-15.8c1,0.9,3,2.8,4.9,5.6l0,0
		c0.3,0.4,0.5,0.7,0.8,1.1c0.3,0.4,0.5,0.8,0.8,1.2c1.8,2.8,3.3,6.2,4,10.1l-0.4,0.8C126.9,233.6,126.1,236.3,125.6,238.5
		L125.6,238.5L125.6,238.5z M126.4,241.9L126.4,241.9c0.2-3.9,1.3-7.4,3.2-10.7c0.2-0.4,0.4-0.7,0.5-1c1.2-2.1,2.4-3.7,3.6-4.8
		c0.6-0.6,1.1-1.1,1.7-1.5c1.6-1.2,2.8-1.7,3.5-1.8c1.6,8.4-2.2,15.8-4.7,19.8H126.4L126.4,241.9z"/>
</g>
</svg>
