<?xml version="1.0" encoding="UTF-8"?><svg id="Calque_1" xmlns="http://www.w3.org/2000/svg" xmlns:xlink="http://www.w3.org/1999/xlink" viewBox="0 0 400 300"><defs><style>.cls-1{clip-path:url(#clippath);}.cls-2{fill:none;}.cls-2,.cls-3,.cls-4,.cls-5,.cls-6,.cls-7,.cls-8,.cls-9,.cls-10,.cls-11,.cls-12,.cls-13,.cls-14,.cls-15,.cls-16,.cls-17,.cls-18,.cls-19,.cls-20,.cls-21,.cls-22,.cls-23,.cls-24,.cls-25,.cls-26,.cls-27,.cls-28,.cls-29,.cls-30,.cls-31,.cls-32,.cls-33,.cls-34,.cls-35,.cls-36,.cls-37,.cls-38,.cls-39,.cls-40,.cls-41,.cls-42,.cls-43,.cls-44,.cls-45,.cls-46,.cls-47,.cls-48,.cls-49,.cls-50,.cls-51,.cls-52,.cls-53,.cls-54,.cls-55,.cls-56,.cls-57,.cls-58,.cls-59,.cls-60,.cls-61,.cls-62,.cls-63,.cls-64,.cls-65,.cls-66,.cls-67,.cls-68,.cls-69,.cls-70,.cls-71,.cls-72,.cls-73,.cls-74,.cls-75,.cls-76,.cls-77,.cls-78,.cls-79,.cls-80,.cls-81,.cls-82,.cls-83,.cls-84,.cls-85,.cls-86,.cls-87,.cls-88,.cls-89,.cls-90,.cls-91,.cls-92,.cls-93,.cls-94,.cls-95,.cls-96,.cls-97,.cls-98,.cls-99,.cls-100,.cls-101,.cls-102,.cls-103,.cls-104,.cls-105,.cls-106,.cls-107,.cls-108,.cls-109,.cls-110,.cls-111,.cls-112,.cls-113{stroke-width:0px;}.cls-114{clip-path:url(#clippath-1);}.cls-3{fill:#7767a2;}.cls-4{fill:#7564a4;}.cls-5{fill:#7666a3;}.cls-6{fill:#7665a4;}.cls-7{fill:#796aa1;}.cls-8{fill:#7969a1;}.cls-9{fill:#7a6ba0;}.cls-10{fill:#7868a2;}.cls-11{fill:#837798;}.cls-12{fill:#837699;}.cls-13{fill:#7c6d9f;}.cls-14{fill:#7b6c9f;}.cls-15{fill:#484948;}.cls-16{fill:#877c95;}.cls-17{fill:#867a96;}.cls-18{fill:#9b9685;}.cls-19{fill:#9b9585;}.cls-20{fill:#897e94;}.cls-21{fill:#9a9486;}.cls-22{fill:#887d95;}.cls-23{fill:#968f89;}.cls-24{fill:#a29f80;}.cls-25{fill:#a2a07f;}.cls-26{fill:#958e8a;}.cls-27{fill:#82759a;}.cls-28{fill:#a3a17e;}.cls-29{fill:#948c8b;}.cls-30{fill:#948d8a;}.cls-31{fill:#231f20;}.cls-32{fill:#a8a77b;}.cls-33{fill:#c4cc63;}.cls-34{fill:#c3ca65;}.cls-35{fill:#c4cb64;}.cls-36{fill:#afb075;}.cls-37{fill:#c5cd63;}.cls-38{fill:#c6ce62;}.cls-39{fill:#bdc369;}.cls-40{fill:#bbc06b;}.cls-41{fill:#bdc26a;}.cls-42{fill:#bec468;}.cls-43{fill:#c0c667;}.cls-44{fill:#abab78;}.cls-45{fill:#b1b373;}.cls-46{fill:#aeaf76;}.cls-47{fill:#a4a27e;}.cls-48{fill:#b0b274;}.cls-49{fill:#b0b174;}.cls-50{fill:#adae76;}.cls-51{fill:#bcc16a;}.cls-52{fill:#a7a67b;}.cls-53{fill:#aaaa79;}.cls-54{fill:#a9a979;}.cls-55{fill:#acac77;}.cls-56{fill:#acad77;}.cls-57{fill:#a9a87a;}.cls-58{fill:#a6a57c;}.cls-59{fill:#a6a47d;}.cls-60{fill:#bfc568;}.cls-61{fill:#b2b472;}.cls-62{fill:#a5a37d;}.cls-63{fill:#b7bb6e;}.cls-64{fill:#b4b771;}.cls-65{fill:#8a7f93;}.cls-66{fill:#8a8093;}.cls-67{fill:#b7ba6f;}.cls-68{fill:#b5b870;}.cls-69{fill:#b8bc6d;}.cls-70{fill:#9d9984;}.cls-71{fill:#9c9784;}.cls-72{fill:#9e9a83;}.cls-73{fill:#a19e80;}.cls-74{fill:#c2c965;}.cls-75{fill:#8f868f;}.cls-76{fill:#90878e;}.cls-77{fill:#b3b671;}.cls-78{fill:#b3b572;}.cls-79{fill:#b6b96f;}.cls-80{fill:#c1c766;}.cls-81{fill:#c1c866;}.cls-82{fill:#babe6c;}.cls-83{fill:#babf6b;}.cls-84{fill:#8d8391;}.cls-85{fill:#8e8590;}.cls-86{fill:#8e8490;}.cls-87{fill:#b9bd6d;}.cls-88{fill:#8c8291;}.cls-89{fill:#999387;}.cls-90{fill:#989287;}.cls-91{fill:#989188;}.cls-92{fill:#7e709d;}.cls-93{fill:#979089;}.cls-94{fill:#7d6e9e;}.cls-95{fill:#7d6f9d;}.cls-96{fill:#8b8192;}.cls-97{fill:#928a8c;}.cls-98{fill:#9f9c82;}.cls-99{fill:#9f9b82;}.cls-100{fill:#a09d81;}.cls-101{fill:#847898;}.cls-102{fill:#938b8c;}.cls-103{fill:#877b96;}.cls-104{fill:#857997;}.cls-105{fill:#91898d;}.cls-106{fill:#91888e;}.cls-107{fill:#80739b;}.cls-108{fill:#80729c;}.cls-109{fill:#7462a4;}.cls-110{fill:#81749a;}.cls-111{fill:#7f719c;}.cls-112{fill:#7463a5;}.cls-113{fill:#fff;}</style><clipPath id="clippath"><path class="cls-2" d="M175.41,128.71c2.41-.79,4.92-1.18,7.46-1.17,2.71,0,5.41.43,7.98,1.29.67.2,1.9.19,2.83-.97.4-.53.59-1.19.54-1.86-.03-.95-.8-1.93-1.51-2.2-6.13-2.12-12.78-2.19-18.96-.21-.71.23-1.76.44-2.28,1.99-.2.68-.12,1.41.22,2.03.61,1.1,1.89,1.64,3.1,1.3.28-.09.5-.16.62-.2Z"/></clipPath><clipPath id="clippath-1"><path class="cls-2" d="M183.11,110.88c-21.26,0-38.6,16.78-39.52,37.81,1.58-1.03,3.7-.57,4.72,1.01.03.05.06.09.09.14.32-19.17,16.12-34.44,35.29-34.12,9,.15,17.6,3.8,23.96,10.17,6.53,6.5,10.19,15.33,10.17,24.54,0,.32,0,.65-.01.97.38-.31,1.14-.46,2.34-.46,1.41,0,2.21.2,2.51.63.01-.38.02-.76.02-1.15-.02-21.85-17.72-39.56-39.57-39.56Z"/></clipPath></defs><g id="_566_team_presentation_flatline"><path class="cls-31" d="M349.2,266.31H50.8c-.28,0-.5-.22-.5-.5s.22-.5.5-.5h298.4c.28,0,.5.22.5.5s-.22.5-.5.5Z"/></g><g id="_125_team_presentation_flatline"><path class="cls-31" d="M215.58,266.48c-.18,0-.37-.03-.54-.1l-28-10.83-28,10.83c-.77.3-1.64-.09-1.94-.86s.09-1.64.86-1.94l28.12-10.91c.59-.23,1.24-.23,1.83,0l28.17,10.91c.77.3,1.16,1.17.86,1.94-.22.58-.78.96-1.4.96h.04Z"/><path class="cls-113" d="M184.96,200.92h4.42v48.92c0,.55-.45,1-1,1h-2.34c-.55,0-1-.45-1-1v-48.92h-.08Z"/><path class="cls-31" d="M188.33,251.38h-2.34c-.85,0-1.53-.69-1.53-1.54v-48.92c0-.28.22-.5.5-.5h4.41c.28,0,.5.22.5.5v48.92c0,.85-.69,1.54-1.54,1.54h0ZM185.46,201.38v48.42c0,.29.24.53.53.54h2.34c.3,0,.54-.24.54-.54v-48.38l-3.41-.04Z"/><path class="cls-113" d="M186.3,250.88h1.72c1.56,0,2.83,1.26,2.83,2.82h0c0,1.56-1.27,2.82-2.83,2.82h-1.72c-1.56,0-2.83-1.26-2.83-2.82h0c0-1.56,1.27-2.82,2.83-2.82Z"/><path class="cls-31" d="M188.08,257.03h-1.73c-1.84.1-3.41-1.31-3.51-3.14-.1-1.84,1.31-3.41,3.14-3.51.12,0,.24,0,.36,0h1.73c1.84.1,3.24,1.67,3.14,3.51-.09,1.7-1.45,3.05-3.14,3.14ZM186.35,251.38c-1.28-.08-2.39.89-2.48,2.17-.08,1.28.89,2.39,2.17,2.48.1,0,.2,0,.31,0h1.73c1.28-.08,2.26-1.19,2.17-2.48-.08-1.17-1.01-2.1-2.17-2.17h-1.73Z"/><rect class="cls-113" x="102.59" y="92.85" width="165.26" height="106.77"/><path class="cls-31" d="M267.61,199.49H102.36c-.28,0-.5-.22-.5-.5v-106.77c0-.28.22-.5.5-.5h165.25c.28,0,.5.22.5.5v106.77c0,.28-.22.5-.5.5ZM102.86,198.49h164.22v-105.77H102.86v105.77Z"/><rect class="cls-113" x="98.16" y="87.23" width="173.6" height="4.99"/><path class="cls-31" d="M271.75,92.72H98.16c-.28,0-.5-.22-.5-.5v-5c0-.28.22-.5.5-.5h173.59c.28,0,.5.22.5.5v5c0,.28-.22.5-.5.5ZM98.66,91.72h172.59v-4H98.66v4Z"/><rect class="cls-113" x="98.16" y="198.99" width="173.6" height="4.99"/><path class="cls-31" d="M271.75,204.48H98.16c-.28,0-.5-.22-.5-.5v-5c0-.28.22-.5.5-.5h173.59c.28,0,.5.22.5.5v5c0,.28-.22.5-.5.5ZM98.66,203.48h172.59v-4H98.66v4Z"/><path class="cls-31" d="M187.16,266.48c-.83,0-1.5-.67-1.5-1.5h0v-11.31c0-.83.67-1.5,1.5-1.5s1.5.67,1.5,1.5v11.27c.02.83-.63,1.52-1.46,1.54-.01,0-.03,0-.04,0Z"/><path class="cls-113" d="M286.13,271.67l-2.65,12.55s-17.15.92-16.55-.67c1.29-3.4,6.27-5,6.27-5l2-11.7"/><path class="cls-31" d="M274.37,284.97c-3.82,0-7.27-.21-7.81-1-.15-.19-.18-.45-.09-.68,1.18-3.13,5.16-4.78,6.29-5.19l1.91-11.41c.04-.28.3-.46.58-.42.28.04.46.3.42.58l-2,11.7c-.03.19-.16.34-.34.4,0,0-4.56,1.5-5.86,4.49,1.29.58,8.7.58,15.58.22l2.57-12.17c.06-.27.33-.44.6-.39.27.06.44.33.38.6,0,0,0,0,0,0l-2.65,12.54c-.04.22-.23.39-.46.4-2.19.17-5.8.33-9.12.33Z"/><path class="cls-113" d="M324.48,268.67l.09,13.76s-12.86,6.47-15.46,3.88c.2-3.94,4.62-7.16,4.62-7.16l-2.08-11.78"/><path class="cls-31" d="M311.16,287.37c-.87.08-1.73-.18-2.41-.73-.1-.1-.15-.24-.14-.38.19-3.63,3.6-6.58,4.58-7.35l-2-11.48c-.05-.27.12-.52.38-.58,0,0,.01,0,.02,0,.27-.05.53.13.58.4l2.08,11.78c.04.19-.04.38-.19.49-.05,0-4.05,3-4.41,6.54,2,1.35,9.71-1.62,14.45-4l-.12-13.39c0-.28.22-.5.5-.5h0c.27,0,.49.21.5.48,0,0,0,0,0,.01l.09,13.76c0,.19-.11.37-.28.45-1.09.53-9.15,4.5-13.63,4.5Z"/><path class="cls-31" d="M284.6,179.67l-12,92.41,16.29.67,13.88-67.84s6.6,68.86,7.58,68.52,16.92-.87,16.92-.87l-5-93.89-37.67,1Z"/><path class="cls-31" d="M310.33,273.91c-.11,0-.21-.03-.3-.08-1-.64-4.55-35.25-7.47-65.58l-13.22,64.59c-.04.24-.26.41-.5.4l-16.29-.67c-.14,0-.27-.07-.36-.18-.09-.1-.13-.24-.11-.38l12-92.42c.03-.24.24-.43.48-.43l37.68-1c.26-.02.49.17.51.43,0,.01,0,.03,0,.04l5,93.9c0,.13-.04.26-.13.36-.09.1-.22.16-.35.16-6.07.2-16,.6-16.77.84l-.17.02ZM302.74,204.4h0c.24.01.44.21.46.45,2.47,25.67,6.38,64.07,7.39,68,2.44-.32,12.85-.68,16.1-.79l-4.91-92.9-36.77,1-11.9,91.45,15.32.63,13.79-67.43c.05-.25.27-.42.52-.41h0Z"/><path class="cls-15" d="M326.3,147.67l9.94-3.54c-.44-.65-5.63-15.08-11.35-17.91-5-3.32-14.29-2.7-24.78-2-3.36.15-6.68.83-9.84,2-11.83,4.7-13.52,20.28-13.52,20.28l10.88,3.75s-4.36,20.13-6,31.2c0,0,16.22,9.07,45.94,4.14-.02.08-1.22-34.84-1.27-37.92Z"/><polygon class="cls-31" points="300.03 130.52 295.88 189.27 310.4 191.6 312.75 129.37 300.03 130.52"/><path class="cls-31" d="M310.4,192.1h-.08l-14.52-2.33c-.26-.04-.44-.27-.42-.53l4.15-58.74c.02-.24.21-.44.45-.47l12.72-1.14c.14-.02.29.03.39.13.1.1.16.24.16.38l-2.36,62.27c0,.14-.07.28-.18.37-.09.05-.2.07-.31.06ZM296.4,188.85l13.52,2.17,2.31-61.1-11.74,1.06-4.09,57.87Z"/><polygon class="cls-113" points="302.92 136.61 304.67 137.81 301.56 162.03 305.25 165.22 309.15 160.64 306.47 138 308.63 136.87 305.75 134.02 302.92 136.61"/><path class="cls-31" d="M305.25,165.72c-.12,0-.24-.04-.33-.12l-3.69-3.2c-.13-.11-.19-.28-.16-.44l3.06-23.91-1.49-1c-.23-.15-.29-.47-.13-.69.02-.03.05-.06.07-.09l2.83-2.6c.2-.18.49-.18.69,0l2.88,2.85c.2.2.19.53-.01.72-.03.03-.07.06-.11.08l-1.85,1,2.63,22.3c.02.14-.02.28-.11.39l-3.9,4.58c-.09.1-.22.16-.35.17l-.03-.04ZM302.09,161.82l3.1,2.7,3.44-4-2.66-22.42c-.03-.21.08-.41.27-.5l1.55-.81-2.06-2-2,1.85,1.23.84c.16.1.24.29.21.47l-3.08,23.87Z"/><path class="cls-113" d="M314.41,114.4c1.18-2.83,1.89-5.84,2.1-8.9.32-5-3.76-6.13-3.76-6.13,0,0-.15-3.55-4.91-4.93s-11.1-.57-13.44,2.51c-5.12,6.75,2.28,8.49,2.28,8.49,0,0-2.32,7.44,1.83,9.85s15.9-.89,15.9-.89Z"/><path class="cls-31" d="M303.14,116.67c-1.68.1-3.36-.23-4.88-.94-3.85-2.23-2.65-8.18-2.19-9.94-1.66-.46-3.02-1.63-3.74-3.19-.61-1.68,0-3.68,1.67-5.94,2.59-3.42,9.28-4.06,14-2.69,4.22,1.22,5.06,4.05,5.23,5,2.6,1.06,4.16,3.74,3.8,6.53-.21,3.12-.93,6.19-2.14,9.08-.06.14-.18.24-.32.28-3.73,1.03-7.56,1.64-11.43,1.81ZM303.08,94.29c-3.38,0-6.73.94-8.26,3s-2,3.65-1.53,5c.72,2,3.5,2.7,3.53,2.71.13.03.25.12.32.24.06.12.06.27,0,.39,0,.07-2.15,7.09,1.6,9.26s13.64-.43,15.29-.87c1.1-2.72,1.78-5.59,2-8.51.29-4.53-3.24-5.58-3.39-5.62-.21-.06-.36-.24-.37-.46,0-.13-.22-3.21-4.55-4.47-1.51-.44-3.07-.66-4.64-.67ZM314.43,114.4h0Z"/><path class="cls-113" d="M301.08,122.67l-1,7.85s2.76,4.78,7.85,3.17,5.68-5.61,5.68-5.61l-.14-15.25s-4-1.78-3.43-10.19c-4.1,2.12-8.7,3.08-13.31,2.8,0,0-1.72,9.2-.81,13.16s5.16,4.07,5.16,4.07Z"/><path class="cls-31" d="M305.84,134.52c-4,0-6.22-3.7-6.25-3.75-.05-.1-.07-.21-.06-.32l1-7.38c-2.48-.21-4.55-1.98-5.15-4.4-.92-4,.74-13,.81-13.36.04-.25.27-.43.52-.41,4.5.27,8.99-.68,13-2.73.16-.1.35-.1.51,0,.16.09.25.27.24.45-.51,7.9,3.1,9.68,3.14,9.7.17.08.29.26.29.45l.19,15.3c0,.26-.71,4.41-6,6.1-.72.24-1.48.35-2.24.35ZM300.55,130.41c.49.76,3,4.14,7.18,2.81,4.7-1.49,5.31-5.07,5.34-5.22l-.15-14.88c-.92-.59-3.67-2.9-3.47-9.63-3.87,1.8-8.11,2.64-12.37,2.47-.32,1.85-1.51,9.19-.75,12.53.81,3.52,4.6,3.63,4.76,3.64.14,0,.28.06.37.17.1.1.14.25.12.39l-1.03,7.72Z"/><path class="cls-113" d="M310.91,116.61c1.04.37,2.17.31,3.17-.15,1.37-.71,2.28-2.09,2.39-3.63.09-.56.05-1.13-.12-1.67-.18-.55-.58-.99-1.1-1.22-.66-.17-1.37-.12-2,.14-1,.28-1.07.78-1.72,1.43.07-.06.15-.24.21-.3"/><path class="cls-31" d="M312.31,117.35c-.53,0-1.07-.09-1.57-.27-.26-.09-.4-.37-.32-.63s.37-.4.63-.32c0,0,.02,0,.03,0,.91.32,1.91.27,2.78-.13,1.22-.64,2.02-1.87,2.12-3.24.07-.48.03-.98-.1-1.45-.13-.4-.43-.73-.81-.91-.56-.13-1.14-.08-1.67.15-.41.11-.77.38-1,.74-.15.18-.3.36-.47.53l-.06.06c-.22.17-.53.14-.7-.08-.16-.2-.14-.48.03-.66h0c.05-.12.13-.22.22-.3.03-.03.06-.05.1-.06l.08-.09c.35-.53.89-.91,1.5-1.07.73-.3,1.55-.34,2.31-.12.66.28,1.17.83,1.39,1.51.2.61.25,1.26.15,1.9-.14,1.71-1.15,3.22-2.68,4-.61.28-1.28.43-1.96.43Z"/><path class="cls-31" d="M300.54,126.78c1.83.23,3.66-.47,4.88-1.85,2.12-2.35,1.82-4.18,1.82-4.18-1.73,1.41-3.94,2.1-6.16,1.92l-.54,4.11Z"/><path class="cls-31" d="M301.21,127.32c-.25,0-.51-.02-.76-.05-.26-.07-.42-.33-.37-.6l.57-4.15c.04-.27.29-.46.56-.43,2.07.17,4.12-.46,5.74-1.76.14-.12.33-.15.5-.09.17.06.29.21.32.38,0,.09.32,2.1-1.94,4.61-1.17,1.33-2.85,2.09-4.62,2.09ZM301.1,126.32c1.52.04,2.99-.59,4-1.73.76-.79,1.32-1.77,1.61-2.83-1.53.98-3.32,1.47-5.13,1.4l-.48,3.16Z"/><path class="cls-113" d="M302.93,110.11s-2.58,4.14-1.91,4.83,2.46.15,2.46.15"/><path class="cls-31" d="M302.17,115.79c-.55.05-1.09-.13-1.5-.5-.63-.64,0-2.47,1.84-5.44.14-.24.45-.31.69-.17,0,0,0,0,0,0,.23.15.3.45.16.69-1.16,1.86-2.07,3.86-1.94,4.27s1.31.15,1.92,0c.26-.07.54.08.62.34.08.26-.06.53-.32.61,0,0-.01,0-.02,0-.47.13-.96.19-1.45.19Z"/><ellipse class="cls-31" cx="306.19" cy="109.72" rx=".67" ry=".95" transform="translate(-10.86 37.14) rotate(-6.82)"/><ellipse class="cls-31" cx="299.84" cy="109.97" rx=".95" ry=".67" transform="translate(137.99 385.29) rotate(-79.69)"/><path class="cls-31" d="M301.93,121.3c-.71.02-1.4-.24-1.91-.74-1.31-1.41-.95-3.86-.93-4,.04-.24.24-.41.48-.42,6.24-.14,6.27-.1,6.47.11.09.11.14.25.13.4-.1.97-.42,1.91-.94,2.74-.66,1.05-1.77,1.74-3,1.87l-.3.04ZM300.08,117.16c-.11.96.14,1.92.7,2.71.38.34.89.49,1.39.42.93-.11,1.77-.63,2.27-1.43.34-.54.58-1.14.69-1.77-1.05,0-3.37.04-5.05.07ZM305.71,116.62h0ZM305.71,116.62h0Z"/><path class="cls-31" d="M304.81,119.14c-1.28,1.93-3.56,2-4.43,1.08.32-.8.99-1.42,1.82-1.66.91-.12,1.83.09,2.61.58Z"/><path class="cls-31" d="M301.93,121.29c-.71.03-1.4-.24-1.91-.73-.14-.15-.18-.38-.08-.57.37-.95,1.16-1.66,2.14-1.92,1.04-.15,2.11.08,3,.64.24.15.31.46.16.7,0,0,0,0,0,0-.66,1.05-1.77,1.73-3,1.86h-.31ZM301.03,120.09c.34.17.72.24,1.1.2.74-.08,1.43-.43,1.92-1-.55-.26-1.16-.35-1.76-.26-.53.17-.97.56-1.21,1.06h-.05Z"/><path class="cls-31" d="M291.08,132.49c0,.48-3.42,17.8-3.42,17.8"/><path class="cls-31" d="M287.63,150.79h-.1c-.27-.06-.44-.32-.39-.59,1.36-6.75,3.38-17,3.41-17.7-.03-.26.16-.49.42-.52,0,0,.02,0,.02,0,.28-.02.52.18.55.46.06.49-2.12,11.46-3.42,18-.07.21-.27.36-.49.35Z"/><path class="cls-113" d="M276.75,146.54c0,.07-2.26,11.2-2.26,11.2l-18.65-12.56c-1.84-3.72-2.11-5.53-3.37-5.33-1.5.23-.57,3.25-.44,3.78-1-.88-4.44-5.14-5.67-4.46-2.27,1.09-3.23,3.81-2.15,6.08.12.26.27.5.44.73.9,1.1,6.84,5.75,6.84,5.75,0,0,18.93,20.89,29,25,2.82,1.15,7.12-26.48,7.12-26.48l-10.86-3.71Z"/><path class="cls-31" d="M280.69,177.3c-.13,0-.25-.02-.37-.07-9.9-4.06-27.94-23.75-29.17-25.13-.51-.4-6-4.7-6.89-5.8-.86-1.08-1.2-2.49-.93-3.84.32-1.6,1.35-2.97,2.79-3.72,1.16-.65,2.9,1,5.06,3.3-.15-.7-.06-1.44.26-2.08.21-.33.56-.56.95-.61,1.29-.2,1.79.93,2.68,3,.31.7.68,1.54,1.16,2.52l17.92,12.07,2.11-10.47c.03-.14.12-.27.24-.34.13-.06.28-.06.41,0l10.88,3.75c.23.08.37.31.33.55-.65,4.19-4,25.17-6.91,26.79-.16.07-.34.09-.52.08ZM246.69,139.58s-.08-.01-.12,0c-1.17.61-2.01,1.71-2.29,3-.2,1.06.06,2.15.72,3,.72.86,5.13,4.38,6.76,5.66.25.27,19,20.92,28.91,25,1.49-.29,4.45-13.47,6.37-25.67l-9.96-3.37-2.14,10.64c-.03.16-.14.3-.3.36-.15.08-.32.08-.47,0l-18.65-12.56c-.07-.05-.13-.11-.17-.19-.52-1-.91-1.94-1.23-2.68-.82-1.86-1.14-2.46-1.62-2.38-.11.01-.2.07-.26.16-.18.29-.3,1,.2,2.87v.13c.08.26-.07.54-.33.62-.17.05-.36,0-.49-.11-.25-.23-.61-.61-1.07-1.1-2-2.29-3.31-3.38-3.83-3.38h-.03Z"/><path class="cls-113" d="M323.15,147.97l.78,13-21.27,5.7c-2.05-1.53-6.52-4.67-6.65-3.21-.17,1.91,1.74,4,1.74,4,0,0-9.69-1.9-10.12,0s.91,3.63,1.71,5.19,16.48,2.34,16.48,2.34h0c6.19.5,24.14,1.74,29.69-.18,6.74-2.34-.09-30.69-.09-30.69"/><path class="cls-31" d="M324.23,176.31c-6.7,0-14.29-.53-18.45-.86-4.79-.24-16.05-1-16.89-2.62-.15-.29-.32-.6-.5-.91-.77-1.36-1.64-2.89-1.25-4.61.43-1.88,6-1.21,9.43-.62-.7-.95-1.07-2.11-1.06-3.29.02-.33.21-.62.51-.75.36-.16,1.3-.58,6.75,3.45l20.63-5.43-.75-12.65c-.02-.28.19-.51.47-.53,0,0,0,0,0,0,.27,0,.5.2.53.47l.78,13c.01.24-.14.45-.37.52l-21.27,5.62c-.15.04-.31,0-.43-.08-3.7-2.76-5.39-3.48-5.86-3.49-.08,1.65,1.61,3.5,1.62,3.52.15.16.18.39.07.58-.1.19-.32.29-.53.25-5.27-1-9.39-1.05-9.54-.38-.31,1.34.43,2.64,1.14,3.9.19.32.37.64.52,1,.67.82,8.7,1.7,16.06,2.07,5.54.45,24,1.75,29.51-.16,5.17-1.79,1.45-22.33-.41-30.09-.07-.26.09-.53.35-.6,0,0,0,0,0,0,.27-.07.54.09.61.36,0,0,0,0,0,0,1.11,4.79,1.97,9.64,2.58,14.52,1.18,10.06.23,15.69-2.82,16.75-2.31.78-6.65,1.05-11.44,1.05Z"/><line class="cls-2" x1="323.15" y1="147.97" x2="321.94" y2="134.02"/><path class="cls-31" d="M323.15,148.47c-.26,0-.47-.19-.5-.45l-1.21-13.95c-.02-.28.18-.52.46-.54,0,0,0,0,0,0,.27-.02.51.18.54.45l1.21,14c.02.28-.18.52-.46.54,0,0,0,0,0,0l-.04-.05Z"/><path class="cls-31" d="M250.99,146.48c-.21,0-.4-.13-.47-.33-.3-.67-.26-1.44.1-2.07.36-.47.91-.77,1.5-.81.28,0,.5.22.5.5s-.22.5-.5.5c-.28.02-.54.16-.72.38-.17.37-.17.8,0,1.17.08.26-.06.55-.32.64-.03,0-.06.02-.09.02Z"/><circle class="cls-113" cx="142.29" cy="144.87" r="2.98"/><circle class="cls-113" cx="157.69" cy="120.25" r="2.98"/><circle class="cls-113" cx="206.52" cy="104" r="2.98"/><circle class="cls-113" cx="228.7" cy="165.8" r="2.98"/><circle class="cls-113" cx="181.89" cy="151.9" r="2.98"/><path class="cls-109" d="M153.42,146.49s0,.01,0,.02v-.02Z"/><g class="cls-1"><rect class="cls-112" x="171.29" y="122.17" width=".07" height="6.98"/><rect class="cls-112" x="171.37" y="122.17" width=".21" height="6.98"/><rect class="cls-4" x="171.58" y="122.17" width=".21" height="6.98"/><rect class="cls-6" x="171.79" y="122.17" width=".21" height="6.98"/><rect class="cls-5" x="172.01" y="122.17" width=".21" height="6.98"/><rect class="cls-3" x="172.22" y="122.17" width=".21" height="6.98"/><rect class="cls-10" x="172.43" y="122.17" width=".21" height="6.98"/><rect class="cls-8" x="172.65" y="122.17" width=".21" height="6.98"/><rect class="cls-7" x="172.86" y="122.17" width=".21" height="6.98"/><rect class="cls-9" x="173.08" y="122.17" width=".21" height="6.98"/><rect class="cls-14" x="173.29" y="122.17" width=".21" height="6.98"/><rect class="cls-13" x="173.5" y="122.17" width=".21" height="6.98"/><rect class="cls-94" x="173.72" y="122.17" width=".21" height="6.98"/><rect class="cls-95" x="173.93" y="122.17" width=".21" height="6.98"/><rect class="cls-92" x="174.14" y="122.17" width=".21" height="6.98"/><rect class="cls-111" x="174.36" y="122.17" width=".21" height="6.98"/><rect class="cls-108" x="174.57" y="122.17" width=".21" height="6.98"/><rect class="cls-107" x="174.79" y="122.17" width=".21" height="6.98"/><rect class="cls-110" x="175" y="122.17" width=".21" height="6.98"/><rect class="cls-27" x="175.21" y="122.17" width=".21" height="6.98"/><rect class="cls-12" x="175.43" y="122.17" width=".21" height="6.98"/><rect class="cls-11" x="175.64" y="122.17" width=".21" height="6.98"/><rect class="cls-101" x="175.85" y="122.17" width=".21" height="6.98"/><rect class="cls-104" x="176.07" y="122.17" width=".21" height="6.98"/><rect class="cls-17" x="176.28" y="122.17" width=".21" height="6.98"/><rect class="cls-103" x="176.49" y="122.17" width=".21" height="6.98"/><rect class="cls-16" x="176.71" y="122.17" width=".21" height="6.98"/><rect class="cls-22" x="176.92" y="122.17" width=".21" height="6.98"/><rect class="cls-20" x="177.13" y="122.17" width=".21" height="6.98"/><rect class="cls-65" x="177.35" y="122.17" width=".21" height="6.98"/><rect class="cls-66" x="177.56" y="122.17" width=".21" height="6.98"/><rect class="cls-96" x="177.78" y="122.17" width=".21" height="6.98"/><rect class="cls-88" x="177.99" y="122.17" width=".21" height="6.98"/><rect class="cls-84" x="178.2" y="122.17" width=".21" height="6.98"/><rect class="cls-86" x="178.42" y="122.17" width=".21" height="6.98"/><rect class="cls-85" x="178.63" y="122.17" width=".21" height="6.98"/><rect class="cls-75" x="178.84" y="122.17" width=".21" height="6.98"/><rect class="cls-76" x="179.06" y="122.17" width=".21" height="6.98"/><rect class="cls-106" x="179.27" y="122.17" width=".21" height="6.98"/><rect class="cls-105" x="179.49" y="122.17" width=".21" height="6.98"/><rect class="cls-97" x="179.7" y="122.17" width=".21" height="6.98"/><rect class="cls-102" x="179.91" y="122.17" width=".21" height="6.98"/><rect class="cls-29" x="180.13" y="122.17" width=".21" height="6.98"/><rect class="cls-30" x="180.34" y="122.17" width=".21" height="6.98"/><rect class="cls-26" x="180.55" y="122.17" width=".21" height="6.98"/><rect class="cls-23" x="180.77" y="122.17" width=".21" height="6.98"/><rect class="cls-93" x="180.98" y="122.17" width=".21" height="6.98"/><rect class="cls-91" x="181.2" y="122.17" width=".21" height="6.98"/><rect class="cls-90" x="181.41" y="122.17" width=".21" height="6.98"/><rect class="cls-89" x="181.62" y="122.17" width=".21" height="6.98"/><rect class="cls-21" x="181.84" y="122.17" width=".21" height="6.98"/><rect class="cls-19" x="182.05" y="122.17" width=".21" height="6.98"/><rect class="cls-18" x="182.26" y="122.17" width=".21" height="6.98"/><rect class="cls-71" x="182.48" y="122.17" width=".21" height="6.98"/><rect class="cls-70" x="182.69" y="122.17" width=".21" height="6.98"/><rect class="cls-72" x="182.9" y="122.17" width=".21" height="6.98"/><rect class="cls-99" x="183.12" y="122.17" width=".21" height="6.98"/><rect class="cls-98" x="183.33" y="122.17" width=".21" height="6.98"/><rect class="cls-100" x="183.55" y="122.17" width=".21" height="6.98"/><rect class="cls-73" x="183.76" y="122.17" width=".21" height="6.98"/><rect class="cls-24" x="183.97" y="122.17" width=".21" height="6.98"/><rect class="cls-25" x="184.19" y="122.17" width=".21" height="6.98"/><rect class="cls-28" x="184.4" y="122.17" width=".21" height="6.98"/><rect class="cls-47" x="184.61" y="122.17" width=".21" height="6.98"/><rect class="cls-62" x="184.83" y="122.17" width=".21" height="6.98"/><rect class="cls-59" x="185.04" y="122.17" width=".21" height="6.98"/><rect class="cls-58" x="185.25" y="122.17" width=".21" height="6.98"/><rect class="cls-52" x="185.47" y="122.17" width=".21" height="6.98"/><rect class="cls-32" x="185.68" y="122.17" width=".21" height="6.98"/><rect class="cls-57" x="185.9" y="122.17" width=".21" height="6.98"/><rect class="cls-54" x="186.11" y="122.17" width=".21" height="6.98"/><rect class="cls-53" x="186.32" y="122.17" width=".21" height="6.98"/><rect class="cls-44" x="186.54" y="122.17" width=".21" height="6.98"/><rect class="cls-55" x="186.75" y="122.17" width=".21" height="6.98"/><rect class="cls-56" x="186.97" y="122.17" width=".21" height="6.98"/><rect class="cls-50" x="187.18" y="122.17" width=".21" height="6.98"/><rect class="cls-46" x="187.39" y="122.17" width=".21" height="6.98"/><rect class="cls-36" x="187.61" y="122.17" width=".21" height="6.98"/><rect class="cls-49" x="187.82" y="122.17" width=".21" height="6.98"/><rect class="cls-48" x="188.03" y="122.17" width=".21" height="6.98"/><rect class="cls-45" x="188.25" y="122.17" width=".21" height="6.98"/><rect class="cls-61" x="188.46" y="122.17" width=".21" height="6.98"/><rect class="cls-78" x="188.67" y="122.17" width=".21" height="6.98"/><rect class="cls-77" x="188.89" y="122.17" width=".21" height="6.98"/><rect class="cls-64" x="189.1" y="122.17" width=".21" height="6.98"/><rect class="cls-68" x="189.31" y="122.17" width=".21" height="6.98"/><rect class="cls-79" x="189.53" y="122.17" width=".21" height="6.98"/><rect class="cls-67" x="189.74" y="122.17" width=".21" height="6.98"/><rect class="cls-63" x="189.96" y="122.17" width=".21" height="6.98"/><rect class="cls-69" x="190.17" y="122.17" width=".21" height="6.98"/><rect class="cls-87" x="190.38" y="122.17" width=".21" height="6.98"/><rect class="cls-82" x="190.6" y="122.17" width=".21" height="6.98"/><rect class="cls-83" x="190.81" y="122.17" width=".21" height="6.98"/><rect class="cls-40" x="191.02" y="122.17" width=".21" height="6.98"/><rect class="cls-51" x="191.24" y="122.17" width=".21" height="6.98"/><rect class="cls-41" x="191.45" y="122.17" width=".21" height="6.98"/><rect class="cls-39" x="191.66" y="122.17" width=".21" height="6.98"/><rect class="cls-42" x="191.88" y="122.17" width=".21" height="6.98"/><rect class="cls-60" x="192.09" y="122.17" width=".21" height="6.98"/><rect class="cls-43" x="192.31" y="122.17" width=".21" height="6.98"/><rect class="cls-80" x="192.52" y="122.17" width=".21" height="6.98"/><rect class="cls-81" x="192.73" y="122.17" width=".21" height="6.98"/><rect class="cls-74" x="192.95" y="122.17" width=".21" height="6.98"/><rect class="cls-34" x="193.16" y="122.17" width=".21" height="6.98"/><rect class="cls-35" x="193.38" y="122.17" width=".21" height="6.98"/><rect class="cls-33" x="193.59" y="122.17" width=".21" height="6.98"/><rect class="cls-37" x="193.8" y="122.17" width=".21" height="6.98"/><rect class="cls-38" x="194.02" y="122.17" width=".21" height="6.98"/><rect class="cls-38" x="194.23" y="122.17" width=".04" height="6.98"/></g><path class="cls-109" d="M183.11,140.06c6.31,0,11.7,4.55,12.77,10.77h4.89c-1.2-9.75-10.09-16.69-19.84-15.48-8.1,1-14.48,7.38-15.48,15.48h4.89c1.07-6.22,6.46-10.76,12.77-10.77Z"/><path class="cls-109" d="M152.31,160.58h-.69c-.95,0-1.89.15-2.8.42v-5.84c0-.75-.63-2.49-2.63-2.96-.91-.2-1.86-.02-2.63.5v27.68c0,.5.39.82,1.15.97.49.09.99.13,1.48.12,1.8,0,2.63-.35,2.63-1.1v-13.59c.77-.69,1.77-1.07,2.8-1.06h.69c2.29-.02,4.16,1.81,4.18,4.1v6.65c0,.97,0,2.63,1.41,3.69,1.12.85,2.64.92,3.85.2v-10.55c0-5.11-4.23-9.27-9.44-9.27Z"/><path class="cls-109" d="M181.2,160.58c-3.01-.1-3.05.6-3.08.98v13.79c-.77.68-1.77,1.06-2.8,1.06h-.69c-2.29.02-4.16-1.81-4.18-4.1v-11.16c0-.07-.98-.64-1.99-.58-2.91.3-3.28,2.6-3.28,3.31v8.43c0,5.11,4.23,9.27,9.44,9.27h.69c1.06,0,2.11-.16,3.11-.5.37.29,1.11.42,2.34.42,1.86,0,2.62-.29,2.62-1v-18.94c0-.84-1.14-.94-2.19-.97Z"/><path class="cls-109" d="M195.59,176.33h-.69c-1.03,0-2.03-.37-2.8-1.06v-8.94c.9-.34,1.84-.54,2.8-.59h.69c2.29-.02,4.16,1.81,4.18,4.1v2.38c-.02,2.28-1.89,4.12-4.18,4.1ZM192.1,155.7c-.1-1.64-1.58-3.14-3.43-3.09,0,0-1.11.05-1.84.57v27.21c0,.5.39.82,1.15.97.49.09.99.13,1.48.12,1.21,0,1.99-.16,2.36-.5.99.34,2.03.5,3.07.5h.69c5.21,0,9.44-4.16,9.44-9.26v-2.38c0-5.11-4.24-9.27-9.44-9.27-1.17-.01-2.33.06-3.49.22v-5.1"/><path class="cls-38" d="M210.21,155.01c-1.42-.32-2.63.35-2.63.91v22.26c0,.82.43,2.66,2.63,3.23,1.36.25,2.22-.2,2.63-.49v-22.68c-.01-1.56-1.1-2.9-2.63-3.23Z"/><path class="cls-38" d="M225.76,176.33h-1.12c-.72,0-1.48,0-1.71-.22-.12-.12-.15-.37-.15-.56v-10.09h2.98c.75,0,1.12-.8,1.12-2.44s-.37-2.43-1.12-2.43h-2.98v-4.57c0-.75-.81-1.08-2.63-1.08s-2.63.33-2.63,1.08v4.57h-2.61c-.28.49-.42,1.04-.42,1.6,0,1.83,1.56,3.21,3.02,3.27h0v10.36c0,5.25,3.51,5.69,7.44,5.69h.81c.5,0,.84-.38,1-1.13.09-.48.13-.97.13-1.45,0-1.77-.36-2.59-1.12-2.59Z"/><path class="cls-38" d="M207.61,151.89c0-.57,1.23-1.24,2.66-.92,1.16.25,2.11,1.09,2.49,2.22h.09l.09.03-.17-.02c.08.24.14.49.17.75.01-.08.02-.17.03-.25v-.19s0-.09,0-.09c0,0,0-.01,0-.02h0v-.38h.01v-.5h0v-.53h0v-.12s0-.02,0-.04v-.57s0-.01,0-.01v-.22s0-.02,0-.03h0v-.12h0v-.24s0-.02,0-.03v-.17h0v-.15s-.01,0-.01,0v-.06s-.01-.07-.01-.07h0v-.1s0-.02,0-.03l-.06-.71h0l-.14-1.15h0l-.12-.66h0l-.04-.23c-1.1-6.5-4.29-12.46-9.08-16.97-1.08-1.02-2.78-.96-3.8.12-1.02,1.08-.96,2.78.12,3.8h0c4.47,4.19,7.21,9.88,7.71,15.98l.08,1.68Z"/><g class="cls-114"><rect class="cls-112" x="143.59" y="110.88" width=".74" height="40.7"/><rect class="cls-4" x="144.33" y="110.88" width=".74" height="40.7"/><rect class="cls-6" x="145.07" y="110.88" width=".74" height="40.7"/><rect class="cls-5" x="145.81" y="110.88" width=".74" height="40.7"/><rect class="cls-3" x="146.55" y="110.88" width=".74" height="40.7"/><rect class="cls-10" x="147.29" y="110.88" width=".74" height="40.7"/><rect class="cls-8" x="148.03" y="110.88" width=".74" height="40.7"/><rect class="cls-7" x="148.77" y="110.88" width=".74" height="40.7"/><rect class="cls-9" x="149.51" y="110.88" width=".74" height="40.7"/><rect class="cls-14" x="150.24" y="110.88" width=".74" height="40.7"/><rect class="cls-13" x="150.98" y="110.88" width=".74" height="40.7"/><rect class="cls-94" x="151.72" y="110.88" width=".74" height="40.7"/><rect class="cls-95" x="152.46" y="110.88" width=".74" height="40.7"/><rect class="cls-92" x="153.2" y="110.88" width=".74" height="40.7"/><rect class="cls-111" x="153.94" y="110.88" width=".74" height="40.7"/><rect class="cls-108" x="154.68" y="110.88" width=".74" height="40.7"/><rect class="cls-107" x="155.42" y="110.88" width=".74" height="40.7"/><rect class="cls-110" x="156.16" y="110.88" width=".74" height="40.7"/><rect class="cls-27" x="156.9" y="110.88" width=".74" height="40.7"/><rect class="cls-12" x="157.63" y="110.88" width=".74" height="40.7"/><rect class="cls-11" x="158.37" y="110.88" width=".74" height="40.7"/><rect class="cls-101" x="159.11" y="110.88" width=".74" height="40.7"/><rect class="cls-104" x="159.85" y="110.88" width=".74" height="40.7"/><rect class="cls-17" x="160.59" y="110.88" width=".74" height="40.7"/><rect class="cls-103" x="161.33" y="110.88" width=".74" height="40.7"/><rect class="cls-16" x="162.07" y="110.88" width=".74" height="40.7"/><rect class="cls-22" x="162.81" y="110.88" width=".74" height="40.7"/><rect class="cls-20" x="163.55" y="110.88" width=".74" height="40.7"/><rect class="cls-65" x="164.29" y="110.88" width=".74" height="40.7"/><rect class="cls-66" x="165.02" y="110.88" width=".74" height="40.7"/><rect class="cls-96" x="165.76" y="110.88" width=".74" height="40.7"/><rect class="cls-88" x="166.5" y="110.88" width=".74" height="40.7"/><rect class="cls-84" x="167.24" y="110.88" width=".74" height="40.7"/><rect class="cls-86" x="167.98" y="110.88" width=".74" height="40.7"/><rect class="cls-85" x="168.72" y="110.88" width=".74" height="40.7"/><rect class="cls-75" x="169.46" y="110.88" width=".74" height="40.7"/><rect class="cls-76" x="170.2" y="110.88" width=".74" height="40.7"/><rect class="cls-106" x="170.94" y="110.88" width=".74" height="40.7"/><rect class="cls-105" x="171.67" y="110.88" width=".74" height="40.7"/><rect class="cls-97" x="172.41" y="110.88" width=".74" height="40.7"/><rect class="cls-102" x="173.15" y="110.88" width=".74" height="40.7"/><rect class="cls-29" x="173.89" y="110.88" width=".74" height="40.7"/><rect class="cls-30" x="174.63" y="110.88" width=".74" height="40.7"/><rect class="cls-26" x="175.37" y="110.88" width=".74" height="40.7"/><rect class="cls-23" x="176.11" y="110.88" width=".74" height="40.7"/><rect class="cls-93" x="176.85" y="110.88" width=".74" height="40.7"/><rect class="cls-91" x="177.59" y="110.88" width=".74" height="40.7"/><rect class="cls-90" x="178.33" y="110.88" width=".74" height="40.7"/><rect class="cls-89" x="179.06" y="110.88" width=".74" height="40.7"/><rect class="cls-21" x="179.8" y="110.88" width=".74" height="40.7"/><rect class="cls-19" x="180.54" y="110.88" width=".74" height="40.7"/><rect class="cls-18" x="181.28" y="110.88" width=".74" height="40.7"/><rect class="cls-71" x="182.02" y="110.88" width=".74" height="40.7"/><rect class="cls-70" x="182.76" y="110.88" width=".74" height="40.7"/><rect class="cls-72" x="183.5" y="110.88" width=".74" height="40.7"/><rect class="cls-99" x="184.24" y="110.88" width=".74" height="40.7"/><rect class="cls-98" x="184.98" y="110.88" width=".74" height="40.7"/><rect class="cls-100" x="185.72" y="110.88" width=".74" height="40.7"/><rect class="cls-73" x="186.46" y="110.88" width=".74" height="40.7"/><rect class="cls-24" x="187.19" y="110.88" width=".74" height="40.7"/><rect class="cls-25" x="187.93" y="110.88" width=".74" height="40.7"/><rect class="cls-28" x="188.67" y="110.88" width=".74" height="40.7"/><rect class="cls-47" x="189.41" y="110.88" width=".74" height="40.7"/><rect class="cls-62" x="190.15" y="110.88" width=".74" height="40.7"/><rect class="cls-59" x="190.89" y="110.88" width=".74" height="40.7"/><rect class="cls-58" x="191.63" y="110.88" width=".74" height="40.7"/><rect class="cls-52" x="192.37" y="110.88" width=".74" height="40.7"/><rect class="cls-32" x="193.11" y="110.88" width=".74" height="40.7"/><rect class="cls-57" x="193.84" y="110.88" width=".74" height="40.7"/><rect class="cls-54" x="194.58" y="110.88" width=".74" height="40.7"/><rect class="cls-53" x="195.32" y="110.88" width=".74" height="40.7"/><rect class="cls-44" x="196.06" y="110.88" width=".74" height="40.7"/><rect class="cls-55" x="196.8" y="110.88" width=".74" height="40.7"/><rect class="cls-56" x="197.54" y="110.88" width=".74" height="40.7"/><rect class="cls-50" x="198.28" y="110.88" width=".74" height="40.7"/><rect class="cls-46" x="199.02" y="110.88" width=".74" height="40.7"/><rect class="cls-36" x="199.76" y="110.88" width=".74" height="40.7"/><rect class="cls-49" x="200.49" y="110.88" width=".74" height="40.7"/><rect class="cls-48" x="201.23" y="110.88" width=".74" height="40.7"/><rect class="cls-45" x="201.97" y="110.88" width=".74" height="40.7"/><rect class="cls-61" x="202.71" y="110.88" width=".74" height="40.7"/><rect class="cls-78" x="203.45" y="110.88" width=".74" height="40.7"/><rect class="cls-77" x="204.19" y="110.88" width=".74" height="40.7"/><rect class="cls-64" x="204.93" y="110.88" width=".74" height="40.7"/><rect class="cls-68" x="205.67" y="110.88" width=".74" height="40.7"/><rect class="cls-79" x="206.41" y="110.88" width=".74" height="40.7"/><rect class="cls-67" x="207.15" y="110.88" width=".74" height="40.7"/><rect class="cls-63" x="207.89" y="110.88" width=".74" height="40.7"/><rect class="cls-69" x="208.62" y="110.88" width=".74" height="40.7"/><rect class="cls-87" x="209.36" y="110.88" width=".74" height="40.7"/><rect class="cls-82" x="210.1" y="110.88" width=".74" height="40.7"/><rect class="cls-83" x="210.84" y="110.88" width=".74" height="40.7"/><rect class="cls-40" x="211.58" y="110.88" width=".74" height="40.7"/><rect class="cls-51" x="212.32" y="110.88" width=".74" height="40.7"/><rect class="cls-41" x="213.06" y="110.88" width=".74" height="40.7"/><rect class="cls-39" x="213.8" y="110.88" width=".74" height="40.7"/><rect class="cls-42" x="214.54" y="110.88" width=".74" height="40.7"/><rect class="cls-60" x="215.28" y="110.88" width=".74" height="40.7"/><rect class="cls-43" x="216.01" y="110.88" width=".74" height="40.7"/><rect class="cls-80" x="216.75" y="110.88" width=".74" height="40.7"/><rect class="cls-81" x="217.49" y="110.88" width=".74" height="40.7"/><rect class="cls-74" x="218.23" y="110.88" width=".74" height="40.7"/><rect class="cls-34" x="218.97" y="110.88" width=".74" height="40.7"/><rect class="cls-35" x="219.71" y="110.88" width=".74" height="40.7"/><rect class="cls-33" x="220.45" y="110.88" width=".74" height="40.7"/><rect class="cls-37" x="221.19" y="110.88" width=".74" height="40.7"/><rect class="cls-38" x="221.93" y="110.88" width=".74" height="40.7"/></g><path class="cls-109" d="M158.29,150.91c0-.06,0-.08.01-.19.37-6.03,2.94-11.72,7.22-15.99.84-.74,1.14-1.38,1.17-2.16.02-.55-.12-1.08-.41-1.55l-.1-.14c-.5-.68-1.28-1.09-2.12-1.1-.14,0-.28,0-.42.02-.84.1-1.37.59-1.93,1.14-5.12,5.07-8.19,11.86-8.78,19.27-.02.23-.03.44-.03.69h5.39Z"/></g><g id="fondamental"><circle class="cls-15" cx="120.07" cy="209.39" r="4.54"/><path class="cls-113" d="M139.56,230.71s-1.84,0-4.46,2.1c2.27-10.23-1.4-19.31-1.4-19.31-3.93,3.76-7.17,8.22-9.44,13.11-2.97-4.2-5.94-6.55-5.94-6.55-1.75,5.51-2.27,11.36-1.66,17.13-2.1-1.92-4.46-3.41-7.08-4.63-.17,7.52,2.8,14.42,5.68,19.14h19.49c2.62-3.85,6.82-11.89,4.81-20.98Z"/><path class="cls-31" d="M140.17,230.63c-.09-.26-.35-.44-.61-.52-.09,0-1.49,0-3.58,1.31,1.57-9.61-1.57-17.74-1.75-18.18-.09-.17-.26-.35-.44-.35-.17-.09-.44,0-.52.17-3.67,3.41-6.64,7.43-8.83,11.89-.79-4.2-1.66-7.95-2.45-10.75,1.84-.79,3.15-2.62,3.15-4.72s-1.4-4.11-3.32-4.81c-.35-.17-.79-.26-1.14-.26-.17,0-.44-.09-.61-.09-2.88,0-5.16,2.27-5.16,5.16,0,2.62,2.01,4.81,4.54,5.07h.61c.26,0,.61,0,.87-.09.7,2.53,1.49,5.86,2.18,9.53-2.27-2.71-4.2-4.28-4.37-4.46-.17-.09-.35-.17-.52-.09-.17.09-.35.17-.44.35-1.57,5.16-2.18,10.57-1.84,15.91-1.84-1.49-3.93-2.8-6.12-3.76-.17-.09-.35-.09-.52.09-.17.09-.26.26-.26.52-.17,7.52,2.88,14.6,5.59,19.14h-1.4l2.8,13.81h17.13l2.8-13.81h-.44c2.71-4.11,6.64-12.06,4.63-21.06ZM116.14,209.83c.96-.26,2.1-.17,2.88-.09,0,.35-.09.79-.09,1.22,0,.7.09,1.49.17,2.27-1.57-.35-2.8-1.75-2.97-3.41ZM119.2,208.6h0c-.79-.09-1.92-.17-2.97,0,.17-.87.7-1.75,1.4-2.27.7-.52,1.57-.87,2.53-.87h.09c-.44.79-.87,1.84-1.05,3.15ZM120.6,213.32h-.26c-.09-.61-.17-1.14-.26-1.66h0c-.09-.79,0-1.57.09-2.27.26-1.57.7-2.88,1.14-3.67,1.57.52,2.71,2.01,2.71,3.76,0,1.57-.96,2.97-2.27,3.58-.35.09-.7.26-1.14.26ZM133.53,214.54c.79,2.45,2.8,9.88,1.14,17.92-1.31,1.14-2.88,2.8-4.46,5.24-1.05-4.46-3.06-8.22-5.16-11.1,2.1-4.54,4.98-8.56,8.48-12.06ZM115.7,251.25c-2.53-4.37-5.42-10.66-5.42-17.65,2.1,1.05,4.11,2.36,5.86,3.93.44,4.63,1.49,9.26,2.97,13.72h-3.41ZM125.84,247.84c-.17.7-.26,1.31-.26,1.92-.09.52-.09.96-.09,1.4h-5.07c-1.49-4.46-2.53-9.09-2.97-13.72.09-.17,0-.35-.09-.52-.52-5.33-.09-10.66,1.4-15.82.96.87,2.97,2.8,4.89,5.59h0c.26.35.52.7.79,1.14.26.35.52.79.79,1.22,1.75,2.8,3.32,6.21,4.02,10.05l-.44.79c-1.66,3.06-2.53,5.77-2.97,7.95h0ZM126.63,251.25h0c.17-3.85,1.31-7.43,3.23-10.66.17-.35.35-.7.52-.96,1.22-2.1,2.45-3.67,3.58-4.81.61-.61,1.14-1.14,1.66-1.49,1.57-1.22,2.8-1.66,3.5-1.84,1.57,8.39-2.18,15.82-4.72,19.75h-7.78Z"/></g></svg>