<?xml version="1.0" encoding="utf-8"?>
<!-- Generator: Adobe Illustrator 27.9.0, SVG Export Plug-In . SVG Version: 6.00 Build 0)  -->
<svg version="1.1" id="Layer_1" xmlns="http://www.w3.org/2000/svg" xmlns:xlink="http://www.w3.org/1999/xlink" x="0px" y="0px"
	 viewBox="0 0 400 300" style="enable-background:new 0 0 400 300;" xml:space="preserve">
<style type="text/css">
	.st0{fill:#FFFFFF;}
	.st1{fill:url(#SVGID_1_);}
	.st2{fill:url(#SVGID_00000039843609714146137220000005510769409401872283_);}
	.st3{fill:url(#SVGID_00000109745239060985894170000007018530397612637614_);}
	.st4{fill:url(#SVGID_00000119814029414274862760000008581209734067042216_);}
	.st5{fill:#231F20;}
	.st6{fill:#484948;}
	.st7{fill:none;}
	.st8{display:none;}
	.st9{display:inline;}
	.st10{display:inline;fill:#FFFFFF;}
	.st11{display:inline;fill:#231F20;}
	.st12{display:inline;fill:#484948;}
</style>
<rect x="132.7" y="65" class="st0" width="215.1" height="149.8"/>
<g id="_114_report_presentation_flatline">
	<g>
		<g>
			
				<linearGradient id="SVGID_1_" gradientUnits="userSpaceOnUse" x1="196.7291" y1="163.2626" x2="238.4427" y2="163.2626" gradientTransform="matrix(1 0 0 -1 0 302)">
				<stop  offset="0.2581" style="stop-color:#F97A12"/>
				<stop  offset="0.4591" style="stop-color:#B07B58"/>
				<stop  offset="0.7241" style="stop-color:#577BAE"/>
				<stop  offset="0.9105" style="stop-color:#1E7CE5"/>
				<stop  offset="1" style="stop-color:#087CFA"/>
			</linearGradient>
			<polygon class="st1" points="218.4,157.3 196.7,140.1 207.5,120.1 238.4,132.2 			"/>
			
				<linearGradient id="SVGID_00000129913166508433134430000002539864002794063012_" gradientUnits="userSpaceOnUse" x1="228.7594" y1="182.7698" x2="297.6273" y2="144.6629" gradientTransform="matrix(1 0 0 -1 0 302)">
				<stop  offset="0" style="stop-color:#F97A12"/>
				<stop  offset="7.179946e-02" style="stop-color:#CB7A3E"/>
				<stop  offset="0.1541" style="stop-color:#9E7B6A"/>
				<stop  offset="0.242" style="stop-color:#757B91"/>
				<stop  offset="0.3344" style="stop-color:#537BB1"/>
				<stop  offset="0.4324" style="stop-color:#387CCC"/>
				<stop  offset="0.5381" style="stop-color:#237CE0"/>
				<stop  offset="0.6552" style="stop-color:#147CEF"/>
				<stop  offset="0.7925" style="stop-color:#0B7CF7"/>
				<stop  offset="1" style="stop-color:#087CFA"/>
			</linearGradient>
			<polygon style="fill:url(#SVGID_00000129913166508433134430000002539864002794063012_);" points="285.5,111.3 283.9,163.3 
				249.4,177.1 228.6,163.8 259,132.2 245.6,103.1 257.6,88.7 			"/>
			
				<linearGradient id="SVGID_00000070830829240506678270000009172766854846577300_" gradientUnits="userSpaceOnUse" x1="276.8656" y1="159.6528" x2="257.6935" y2="216.9407" gradientTransform="matrix(1 0 0 -1 0 302)">
				<stop  offset="0" style="stop-color:#FE315D"/>
				<stop  offset="7.840246e-02" style="stop-color:#CB417E"/>
				<stop  offset="0.1601" style="stop-color:#9E4E9B"/>
				<stop  offset="0.2474" style="stop-color:#755BB4"/>
				<stop  offset="0.3392" style="stop-color:#5365CA"/>
				<stop  offset="0.4365" style="stop-color:#386DDB"/>
				<stop  offset="0.5414" style="stop-color:#2374E9"/>
				<stop  offset="0.6576" style="stop-color:#1478F3"/>
				<stop  offset="0.794" style="stop-color:#0B7BF8"/>
				<stop  offset="1" style="stop-color:#087CFA"/>
			</linearGradient>
			<polygon style="fill:url(#SVGID_00000070830829240506678270000009172766854846577300_);" points="285.5,111.3 258.2,143.6 
				245.6,103.1 257.6,88.7 			"/>
			
				<linearGradient id="SVGID_00000102504432591000618590000010170622725962134671_" gradientUnits="userSpaceOnUse" x1="209.4241" y1="193.5648" x2="266.9288" y2="98.449" gradientTransform="matrix(1 0 0 -1 0 302)">
				<stop  offset="0" style="stop-color:#FE315D"/>
				<stop  offset="4.023279e-02" style="stop-color:#F63462"/>
				<stop  offset="0.1037" style="stop-color:#DF3A71"/>
				<stop  offset="0.1667" style="stop-color:#C24383"/>
				<stop  offset="0.2912" style="stop-color:#AD4A91"/>
				<stop  offset="0.5498" style="stop-color:#755BB4"/>
				<stop  offset="0.9175" style="stop-color:#1D76ED"/>
				<stop  offset="1" style="stop-color:#087CFA"/>
			</linearGradient>
			<polygon style="fill:url(#SVGID_00000102504432591000618590000010170622725962134671_);" points="239,161.8 202.9,174.9 
				208.7,154.7 216.2,129.8 195.7,122.8 208.7,87.3 236.9,90.7 264.6,122.4 			"/>
		</g>
		<g>
			<rect x="213.3" y="104.6" width="55.4" height="55.4"/>
			<rect x="218.4" y="149.6" class="st0" width="20.8" height="3.5"/>
			<polygon class="st0" points="233.4,116 233.4,111.8 221.9,111.8 221.9,116 225.2,116 225.2,130.5 221.9,130.5 221.9,134.8 
				233.4,134.8 233.4,130.5 230.2,130.5 230.2,116 			"/>
			<path class="st0" d="M244.5,135.1c-1.8,0-3.3-0.4-4.5-1c-1.2-0.6-2.2-1.5-3-2.4l3.2-3.6c0.6,0.8,1.3,1.3,1.9,1.7
				c0.6,0.4,1.4,0.6,2.2,0.6c0.9,0,1.7-0.3,2.3-0.9c0.5-0.6,0.8-1.5,0.8-3v-14.8h5.1v15c0,1.4-0.1,2.6-0.5,3.6
				c-0.4,1-0.9,1.8-1.7,2.6c-0.6,0.6-1.5,1.3-2.6,1.5C246.8,134.9,245.8,135.1,244.5,135.1"/>
		</g>
	</g>
	<path class="st5" d="M387,237.9H7.1c-0.3,0-0.5-0.2-0.5-0.5s0.2-0.5,0.5-0.5H387c0.3,0,0.5,0.2,0.5,0.5S387.2,237.9,387,237.9z"/>
	<path class="st5" d="M347.3,215.3H132.7c-0.3,0-0.5-0.2-0.5-0.5V64.5c0-0.3,0.2-0.5,0.5-0.5h214.6c0.3,0,0.5,0.2,0.5,0.5v150.3
		C347.8,215.1,347.5,215.3,347.3,215.3z M133.2,214.3h213.6V65H133.2L133.2,214.3z"/>
	<rect x="132.7" y="51" class="st0" width="214.6" height="13.5"/>
	<path class="st5" d="M347.3,65H132.7c-0.3,0-0.5-0.2-0.5-0.5V51c0-0.3,0.2-0.5,0.5-0.5h214.6c0.3,0,0.5,0.2,0.5,0.5v13.5
		C347.8,64.8,347.5,65,347.3,65z M133.2,64h213.6V51.5H133.2V64z"/>
	<path class="st0" d="M46.8,119.2c-1.5-2.2-1.2-5.2,0.8-7.1c1.2,1.5,1.8,3.4,1.8,5.3c1.2-3.5,5.3-5.1,9-5.5s7.6,0.1,11-1.3
		s6.2-5.5,4.4-8.8c2.6,2.6,3.9,6.2,3.6,9.8c2.6-2,4.4-4.8,5.1-8c-0.1,0.4,5.1,3.6,5.1,14.1c0.2,5-1.6,9.8-5.1,13.4
		c-2,2-4.2,3.9-6.6,5.5l-4.9,3.6c-5,3.7-12,7.3-18.5,5.4c-8.3-2.4-11.5-17.8-6.2-23.8c-2.3,0.2-4.6,1.1-6.5,2.4
		C40.6,121.2,43.5,119,46.8,119.2z"/>
	<path class="st5" d="M56.3,146.8c-1.3,0-2.6-0.2-3.8-0.5c-3.7-1.1-6.8-4.8-8.3-10c-1.5-5.2-1-10.3,1.1-13.6
		c-1.8,0.3-3.6,1.1-5.2,2.1c-0.2,0.1-0.4,0.1-0.6,0c-0.2-0.1-0.3-0.3-0.2-0.5c0.7-3.1,3.3-5.3,6.5-5.6c-1.1-2.4-0.6-5.2,1.4-7
		c0.1-0.1,0.2-0.1,0.4-0.1c0.1,0,0.3,0.1,0.3,0.2c0.9,1.2,1.5,2.5,1.8,3.9c1.6-2.3,4.7-3.8,8.6-4.2c1.1-0.1,2.3-0.2,3.4-0.2
		c2.5,0.1,5-0.3,7.4-1.1c2-0.8,3.6-2.4,4.4-4.4c0.5-1.2,0.4-2.5-0.2-3.6c-0.1-0.2-0.1-0.5,0.1-0.6c0.2-0.2,0.5-0.2,0.7,0
		c2.4,2.4,3.8,5.6,3.8,9c2-1.9,3.5-4.3,4.1-7l0,0c0.1-0.3,0.3-0.4,0.6-0.4c0,0,0,0,0,0c0.2,0,0.3,0.2,0.4,0.4
		c0.1,0.1,0.2,0.2,0.3,0.3c1.2,1.3,4.8,5.1,4.8,13.9c0.3,5.1-1.6,10.2-5.2,13.9c-2,2-4.3,3.9-6.6,5.6l-4.9,3.6
		C67.4,143.6,61.9,146.8,56.3,146.8z M46.4,121.5c0.2,0,0.4,0.1,0.4,0.3c0.1,0.2,0.1,0.4-0.1,0.6c-2.5,2.8-3.2,8.3-1.7,13.6
		c1.4,4.9,4.2,8.3,7.6,9.3c6.4,1.9,13.3-1.9,18-5.4l4.9-3.6c2.3-1.6,4.5-3.4,6.5-5.4c3.5-3.8,5-7.6,5-13.1c0-8-3-11.6-4.3-13
		c-0.9,2.9-2.6,5.5-5,7.3c-0.2,0.1-0.4,0.1-0.5,0c-0.2-0.1-0.3-0.3-0.3-0.5c0.2-2.7-0.5-5.4-2-7.7c0,0.7-0.1,1.5-0.4,2.2
		c-0.9,2.3-2.7,4.1-4.9,5c-2.5,0.8-5.1,1.2-7.8,1.1c-1.1,0-2.2,0.1-3.4,0.2c-1.7,0.2-7.1,1-8.6,5.1c-0.1,0.2-0.3,0.4-0.6,0.3
		c-0.2,0-0.4-0.2-0.4-0.5c0-1.6-0.5-3.2-1.4-4.6c-1.4,1.7-1.6,4.1-0.3,6c0.1,0.2,0.1,0.4,0,0.5c-0.1,0.2-0.3,0.3-0.5,0.2
		c-2.5-0.1-4.9,1.3-5.9,3.6C42.6,122.2,44.5,121.6,46.4,121.5L46.4,121.5z"/>
	<path class="st6" d="M32.5,210l-16.9-4.3c0.6-1.2,10.9-32.1,20.4-38.1c8.1-6.7,24.4-7.4,42.8-8.1c5.9-0.3,11.8,0.2,17.5,1.7
		c21.5,5.9,43.2,29.5,43.2,29.5l-27,18.7c0,0,2.6,23.9,5.5,62.3c0,0-33.8,7.6-86.5,4.6C31.5,276.4,33,215.5,32.5,210z"/>
	<polygon class="st5" points="83.6,169.9 83.2,211.5 83,234.1 74.5,211.1 59,169.1 	"/>
	<path class="st5" d="M59,169.1l24.6,0.8l-0.4,41.6L83,234.1l-8.5-23L59,169.1 M59,168.1c-0.3,0-0.6,0.2-0.8,0.4
		c-0.2,0.3-0.2,0.6-0.1,0.9l15.5,42l8.5,23c0.1,0.4,0.5,0.6,0.9,0.6h0.2c0.5-0.1,0.8-0.5,0.8-1l0.2-22.6l0.4-41.6c0-0.6-0.4-1-1-1
		L59,168.1L59,168.1z"/>
	<polygon class="st0" points="83.2,211.5 83,234.1 74.5,211.1 74.5,184.7 71.9,181.5 75.1,176.6 79.6,181.2 76.7,184.6 	"/>
	<path class="st0" d="M81.7,154.8l1.9,15c0,0-1.4,8-10.8,7.3c-5.6-0.5-10.6-3.4-13.8-8.1l-4-25.3c0,0,6.1-4.6,1.8-18.8
		c7.9,2,16.1,1.8,23.8-0.6c0,0,6.6,15,6.7,22.1C87.4,153.7,81.7,154.8,81.7,154.8z"/>
	<path class="st5" d="M74,177.7c-0.4,0-0.8,0-1.2-0.1c-5.7-0.5-11-3.5-14.2-8.3c0-0.1-0.1-0.1-0.1-0.2l-4-25.3c0-0.2,0-0.4,0.2-0.5
		c0.1,0,5.7-4.6,1.6-18.2c-0.1-0.2,0-0.4,0.1-0.5c0.1-0.1,0.3-0.2,0.5-0.1c7.8,1.9,15.9,1.7,23.5-0.6c0.2-0.1,0.5,0,0.6,0.3
		c0.3,0.6,6.7,15.2,6.7,22.3c0,6.2-4.1,8.1-5.5,8.6l1.9,14.6c0,0,0,0.1,0,0.1C83.1,174.7,78.8,177.9,74,177.7z M59.5,168.9
		c3.1,4.4,8,7.3,13.4,7.7c8.4,0.6,10.1-6,10.2-6.8l-1.9-15c0-0.3,0.1-0.5,0.4-0.6c0.2,0,5.2-1.2,5.2-7.8c-0.1-6.3-5.4-19.1-6.4-21.5
		c-7.4,2.1-15.3,2.3-22.8,0.7c3.5,12.2-0.9,17.2-2,18.2L59.5,168.9z"/>
	<path class="st0" d="M60.2,142.5c-0.5-1.2-1.4-2.2-2.5-2.8c-1.1-0.5-2.2-0.9-3.4-1.1c-0.7-0.2-1.3-0.2-2,0
		c-0.4,0.1-0.8,0.4-1.2,0.7c-0.9,0.6-1.5,1.6-1.8,2.6c-0.1,0.9,0,1.8,0.3,2.6c0.3,0.9,0.6,1.8,1.1,2.6c2.1,3.4,6.6,4.4,9.9,2.2
		c0,0,0,0,0.1,0"/>
	<path class="st5" d="M56.9,150.9c-0.5,0-1.1-0.1-1.6-0.2c-2-0.4-3.8-1.7-4.9-3.4c-0.5-0.9-0.9-1.8-1.2-2.7
		c-0.3-0.9-0.4-1.9-0.3-2.8c0.3-1.2,1-2.2,2-2.9c0.4-0.3,0.9-0.6,1.4-0.8c0.7-0.2,1.5-0.2,2.2,0c1.2,0.2,2.4,0.6,3.6,1.1
		c1.2,0.7,2.2,1.7,2.7,3c0.1,0.3,0,0.5-0.3,0.6c-0.3,0.1-0.5,0-0.7-0.3c0,0,0,0,0,0c-0.5-1.1-1.3-2-2.3-2.6c-1-0.5-2.1-0.9-3.2-1
		c-0.6-0.1-1.2-0.1-1.7,0c-0.4,0.1-0.7,0.3-1,0.6c-0.8,0.6-1.4,1.4-1.6,2.3c-0.1,0.8,0,1.6,0.3,2.3c0.2,0.9,0.6,1.7,1.1,2.5
		c1,1.5,2.5,2.6,4.2,3c1.7,0.4,3.6,0,5.1-0.9c0.2-0.2,0.5-0.1,0.7,0.1c0.2,0.2,0.1,0.5-0.1,0.7c0,0,0,0,0,0
		C59.8,150.5,58.3,150.9,56.9,150.9z"/>
	<path class="st5" d="M83,163.4c-3.4-0.2-6.8-1.3-9.6-3.2c-4.6-3.2-4.6-5.4-4.6-5.4s6.9,2.5,12.6,0.3L83,163.4z"/>
	<path class="st5" d="M83,163.9L83,163.9c-3.5-0.1-7-1.3-9.9-3.3c-4.7-3.2-4.8-5.6-4.8-5.8c0-0.2,0.1-0.3,0.2-0.4
		c0.1-0.1,0.3-0.1,0.5-0.1c0.1,0,6.8,2.4,12.3,0.3c0.1-0.1,0.3-0.1,0.4,0c0.1,0.1,0.2,0.2,0.2,0.3l1.6,8.3c0,0.1,0,0.3-0.1,0.4
		C83.3,163.8,83.1,163.9,83,163.9z M69.5,155.6c0.4,0.9,1.4,2.4,4.1,4.3c2.6,1.7,5.6,2.8,8.7,3.1l-1.4-7.1
		C76.5,157.2,71.5,156.1,69.5,155.6z"/>
	<path class="st0" d="M71.8,134.9c0,0,6,6,5.2,7.5s-4.1,1.2-4.1,1.2"/>
	<path class="st5" d="M73.3,144.2h-0.4c-0.3,0-0.5-0.2-0.5-0.5c0-0.3,0.3-0.5,0.5-0.5c0.8,0,3.1-0.1,3.7-1c0.3-0.6-2.1-3.8-5.1-6.9
		c-0.2-0.2-0.2-0.5,0-0.7c0.2-0.2,0.5-0.2,0.7,0c0,0,0,0,0,0c1.9,1.9,6.2,6.5,5.3,8.1C76.6,144,74.3,144.2,73.3,144.2z"/>
	<ellipse transform="matrix(0.9938 -0.1113 0.1113 0.9938 -14.6768 8.1979)" class="st5" cx="66.1" cy="135.6" rx="1.2" ry="1.7"/>
	<ellipse transform="matrix(0.9169 -0.3992 0.3992 0.9169 -46.8585 41.8496)" class="st5" cx="77" cy="133.4" rx="1.2" ry="1.7"/>
	<path class="st5" d="M76.7,153.2h-0.6c-4.3-0.1-8.2-2.2-10.6-5.8c-0.1-0.1-0.1-0.3,0-0.5c0.1-0.1,0.2-0.2,0.4-0.3l17-0.9
		c0.3,0,0.5,0.2,0.5,0.5c0.1,1.9-0.6,3.8-1.8,5.2C80.3,152.6,78.5,153.3,76.7,153.2z M66.9,147.6c2.3,2.8,5.7,4.5,9.3,4.6
		c1.7,0.2,3.4-0.3,4.7-1.5c1-1.1,1.5-2.5,1.5-3.9L66.9,147.6z"/>
	<path class="st5" d="M81,140.9c-4.8,0-8.7-3.9-8.7-8.7c0-4.8,3.9-8.7,8.7-8.7c4.8,0,8.7,3.9,8.7,8.7l0,0
		C89.7,137,85.8,140.8,81,140.9z M81,124.5c-4.2,0-7.7,3.4-7.7,7.7c0,4.2,3.4,7.7,7.7,7.7s7.7-3.4,7.7-7.7c0,0,0,0,0,0
		C88.7,128,85.3,124.5,81,124.5z"/>
	<path class="st5" d="M64,143.1c-4.8,0-8.7-3.9-8.7-8.7c0-4.8,3.9-8.7,8.7-8.7s8.7,3.9,8.7,8.7c0,0,0,0,0,0
		C72.7,139.3,68.8,143.1,64,143.1z M64,126.8c-4.2,0-7.7,3.4-7.7,7.7c0,4.2,3.4,7.7,7.7,7.7c4.2,0,7.7-3.4,7.7-7.7c0,0,0,0,0,0
		C71.7,130.3,68.3,126.8,64,126.8z"/>
	<path class="st5" d="M74.5,225.7c-0.1,0-0.2-0.1-0.3-0.1l-21.3-19.9c-0.2-0.2-0.2-0.4-0.1-0.6l7.4-11.5l-11.1-8
		c-0.2-0.1-0.3-0.4-0.2-0.6l5.7-13.4c0.1-0.3,0.4-0.4,0.7-0.3c0.2,0.1,0.4,0.4,0.3,0.6l-5.6,13l11.2,8c0.2,0.2,0.3,0.5,0.1,0.7
		l-7.4,11.6l21,19.6c0.2,0.2,0.2,0.5,0,0.7c0,0,0,0,0,0C74.7,225.6,74.6,225.7,74.5,225.7z"/>
	<path class="st5" d="M89.2,222.8c-0.1,0-0.1,0-0.2,0c-0.3-0.1-0.4-0.4-0.3-0.6l9.6-27.5l-6-3.2c-0.2-0.1-0.2-0.2-0.3-0.4
		c0-0.2,0.1-0.3,0.2-0.4l6-4.2l-11.4-16.9c-0.2-0.2-0.1-0.5,0.1-0.7c0.2-0.2,0.5-0.1,0.7,0.1l11.7,17.3c0.2,0.2,0.1,0.5-0.1,0.7
		l-5.8,4.1l5.7,3.1c0.2,0.1,0.3,0.4,0.2,0.6l-9.8,27.9C89.6,222.6,89.4,222.8,89.2,222.8z"/>
	<path class="st0" d="M115.2,206.3c0,0,23.4,28,35.3,28c7.8,0,31-24.2,34.7-27.9c1.5-1.7,3.1-3.3,4.8-4.8c2.6-2,5.9-3.3,8.7-4.9
		c3.1-1.6,5.8-4,7.9-6.8c0.8-1.1,1.3-2.5,1.3-3.9c-0.2-3.5-6.5-6.3-9.5-6.2c-3.4,0.1-17.4,8.5-20.9,8.8c0,0-14.2,11.8-25.3,18.4
		c-8-7.6-15.2-15.6-15.2-15.6"/>
	<path class="st5" d="M150.5,234.8c-12,0-34.7-27-35.7-28.2c-0.2-0.2-0.1-0.5,0.1-0.7c0.2-0.2,0.5-0.2,0.7,0c0,0,0,0,0,0
		c0.2,0.3,23.4,27.8,34.9,27.8c4.7,0,15.8-8.9,33.2-26.5l1.2-1.2c0.5-0.5,1-1,1.5-1.6c1-1.2,2.1-2.3,3.3-3.2
		c1.8-1.3,3.7-2.4,5.7-3.3c1-0.5,2.1-1.1,3.1-1.6c2.3-1.3,5.7-3.5,7.7-6.7c0.8-1,1.2-2.3,1.2-3.6c-0.2-3.1-6-5.7-8.9-5.7h-0.1
		c-1.7,0.1-6.4,2.4-10.7,4.5s-8.2,4-10.1,4.3c-1.4,1.1-14.7,12.1-25.3,18.4c-0.2,0.1-0.4,0.1-0.6-0.1c-7.9-7.6-15.1-15.5-15.2-15.6
		c-0.2-0.2-0.2-0.5,0-0.7c0,0,0,0,0,0c0.2-0.2,0.5-0.2,0.7,0c0,0,0,0,0,0c0.1,0.1,7.1,7.8,14.9,15.3c10.9-6.6,24.8-18.1,24.9-18.2
		c0.1-0.1,0.2-0.1,0.3-0.1c1.6-0.1,5.8-2.2,9.9-4.2c4.7-2.3,9.2-4.5,11.1-4.6h0.2c3.3,0,9.6,2.8,9.9,6.6c0,1.5-0.5,3-1.4,4.2
		c-2.2,3.3-5.7,5.6-8.1,7c-1,0.6-2.1,1.1-3.1,1.6c-1.9,0.9-3.8,2-5.5,3.2c-1.2,1-2.2,2-3.2,3.1c-0.5,0.6-1,1.1-1.5,1.6l-1.2,1.2
		C166.6,226,155.5,234.8,150.5,234.8z"/>
	<polygon class="st5" points="100.8,222.3 83.2,277.8 129.8,280.6 149.7,228 	"/>
	<path class="st5" d="M129.8,281.1L129.8,281.1l-46.7-2.8c-0.2,0-0.3-0.1-0.4-0.2c-0.1-0.1-0.1-0.3-0.1-0.4l17.6-55.6
		c0.1-0.2,0.3-0.4,0.5-0.4l48.9,5.8c0.2,0,0.3,0.1,0.4,0.2c0.1,0.1,0.1,0.3,0,0.4l-19.9,52.6C130.2,280.9,130,281.1,129.8,281.1z
		 M83.8,277.4l45.7,2.7l19.5-51.6l-47.8-5.6L83.8,277.4z"/>
	<path class="st0" d="M15.5,205.7c0,0-15.7,45.4-7.7,55.1s79.4,0.2,79.4,0.2s15.9,1.7,18.7-1.7s8.1-20.4,4.4-20.4
		s-15.2,4.2-15.2,4.2s0.1-7.9,0-7.7s-7.9,6.8-7.9,6.8l-55-1.6l7.6-31"/>
	<path class="st5" d="M32.8,265.8c-12.2,0-22.5-1.1-25.3-4.6c-8.2-9.9,6.9-53.8,7.6-55.6c0.1-0.3,0.4-0.4,0.6-0.3c0,0,0,0,0,0
		c0.3,0.1,0.4,0.4,0.3,0.6c-0.2,0.4-15.5,45.2-7.7,54.7c2.2,2.7,11.4,5.5,42.3,3.6c18.6-1.2,36.5-3.6,36.6-3.6h0.1
		c4.3,0.5,16.1,1.1,18.3-1.5c2.4-2.9,6.7-16.1,5.3-19.1c-0.2-0.4-0.4-0.4-0.5-0.4c-3.6,0-14.9,4.2-15,4.2c-0.2,0.1-0.3,0-0.5-0.1
		c-0.1-0.1-0.2-0.2-0.2-0.4c0-2,0-5,0-6.6c-1,0.9-3,2.6-7.1,6.1c-0.1,0.1-0.2,0.1-0.3,0.1l-55-1.6c-0.1,0-0.3-0.1-0.4-0.2
		c-0.1-0.1-0.1-0.3-0.1-0.4l7.6-31c0.1-0.3,0.3-0.4,0.6-0.4c0,0,0,0,0,0c0.3,0.1,0.4,0.3,0.4,0.6c0,0,0,0,0,0l-7.5,30.4l54.2,1.6
		c2.8-2.4,7.3-6.2,7.7-6.6c0.1-0.2,0.3-0.2,0.5-0.2c0.2,0,0.3,0.1,0.4,0.6l0,0l0,0c0.1,0.8,0.1,2.6,0,6.8c2.6-0.9,11.4-4,14.7-4
		c0.6,0,1.2,0.4,1.4,1c1.7,3.6-3,17.3-5.5,20.2c-2.9,3.5-17.2,2.1-19.1,1.9C84.9,261.9,55.4,265.8,32.8,265.8z"/>
	<line class="st7" x1="105.3" y1="176.6" x2="113.4" y2="218.2"/>
	<path class="st5" d="M113.4,218.7c-0.2,0-0.4-0.2-0.5-0.4l-8-41.7c-0.1-0.3,0.1-0.5,0.4-0.6c0,0,0,0,0,0c0.3,0,0.5,0.1,0.6,0.4
		l8.1,41.7c0,0.3-0.1,0.5-0.4,0.6L113.4,218.7z"/>
	<path class="st5" d="M41.7,205.8h-0.2c-0.3-0.1-0.4-0.4-0.3-0.6c0,0,0,0,0,0l4.4-13.9c0.1-0.3,0.4-0.4,0.7-0.3
		c0.3,0.1,0.4,0.4,0.3,0.6l-4.4,13.9C42.2,205.7,41.9,205.8,41.7,205.8z"/>
	<polygon class="st5" points="181.1,200 242.1,133.3 243,133.9 183.6,201.7 	"/>
	<path class="st5" d="M183.6,202.2c-0.1,0-0.2,0-0.3-0.1l-2.6-1.7c-0.1-0.1-0.2-0.2-0.2-0.4c0-0.1,0-0.3,0.1-0.4l61-66.8
		c0.2-0.2,0.4-0.2,0.6-0.1l1,0.6c0.1,0.1,0.2,0.2,0.2,0.4c0,0.1,0,0.3-0.1,0.4L184,202.1C183.9,202.2,183.8,202.3,183.6,202.2z
		 M181.8,199.9l1.7,1.1l58.7-67.1l-0.1-0.1L181.8,199.9z"/>
	<path class="st0" d="M176.3,189.5c4-3.5,8.3-9.1,10.3-11.3c0.4-0.5,0.8-0.8,1.4-1.1c0.7-0.3,1.4-0.4,2.1-0.3
		c4.3,0.1,8.6,0.9,12.8,2.3c1.3,0.3,2.5,1.1,3.4,2.1c0.2,0.3,0.4,0.7,0.4,1.1c-0.1,0.7-0.8,1.2-1.4,1.4c-2.1,0.8-4.4,1.1-6.6,1
		c-3.2,0-4.3-0.8-7.5-1.1c0.4,0,0.9,3.4-0.1,5.5c-1.1,2-2.6,3.7-4.4,5"/>
	<path class="st5" d="M186.6,194.6c-0.1,0-0.3-0.1-0.4-0.2c-0.2-0.2-0.2-0.5,0-0.7l0.1-0.1c1.7-1.3,3.1-2.9,4.1-4.8
		c0.6-1.6,0.7-3.3,0.3-4.9c-0.2-0.2-0.3-0.5-0.1-0.7c0.1-0.2,0.3-0.2,0.5-0.2c1.1,0.1,2.2,0.3,3.3,0.6c1.4,0.4,2.7,0.5,4.1,0.5
		c2.2,0.1,4.4-0.3,6.4-1c0.4-0.2,1.1-0.5,1.1-1c0-0.3-0.1-0.5-0.3-0.8c-0.8-0.9-1.9-1.6-3.1-1.9c-4.1-1.4-8.3-2.2-12.6-2.3
		c-0.6-0.1-1.3,0-1.9,0.2c-0.5,0.3-0.9,0.6-1.2,1c-0.6,0.7-1.5,1.7-2.4,2.8c-2.4,3-5.1,5.8-7.9,8.5c-0.2,0.2-0.5,0.2-0.7,0
		c0,0,0,0,0,0c-0.2-0.2-0.2-0.5,0-0.7c2.8-2.6,5.4-5.4,7.8-8.4c1-1.2,1.8-2.2,2.5-2.9c0.9-1.2,2.4-1.8,3.9-1.6
		c4.4,0.1,8.7,0.9,12.9,2.3c1.4,0.4,2.7,1.1,3.6,2.3c0.3,0.4,0.5,0.9,0.4,1.4c-0.1,0.5-0.4,1.3-1.7,1.8c-2.2,0.8-4.5,1.1-6.8,1
		c-1.5,0-2.9-0.2-4.4-0.6c-0.7-0.2-1.4-0.3-2.3-0.4c0.3,1.7,0.2,3.5-0.5,5.1c-1.1,2-2.6,3.7-4.4,5.1l-0.1,0.1
		C186.7,194.5,186.7,194.5,186.6,194.6z"/>
</g>
<g id="essentiel">
	<path class="st0" d="M386.2,198c0,0-5.3-0.1-11,9.6l0,0.1l0-0.1c-2.6-13.4-13-21.7-13-21.7c-2,6.3-2.6,12.9-1.9,19.5
		c-2.4-2.1-5.1-3.9-8-5.2c-0.2,8.5,3.2,16.4,6.4,21.8h10.4l0,0h1.8h4.2h5.7C383.7,217.4,388.4,208.2,386.2,198z"/>
	<path class="st5" d="M386.9,197.9c-0.1-0.3-0.3-0.5-0.7-0.5c-0.2,0-5.2,0-10.7,8.6c-3-12.5-12.5-20.2-12.9-20.5
		c-0.2-0.1-0.4-0.2-0.6-0.1c-0.2,0.1-0.4,0.2-0.5,0.4c-1.8,5.9-2.5,12-2.1,18.1c-2.1-1.7-4.4-3.2-6.9-4.3c-0.2-0.1-0.4-0.1-0.6,0.1
		c-0.2,0.1-0.3,0.3-0.3,0.6c-0.2,8.6,3.3,16.5,6.3,21.8h-1.6l3.1,15.7h19.4l3.1-15.7h-0.5C384.6,217.2,389.1,208.1,386.9,197.9z
		 M385.7,198.8c1.8,9.5-2.5,18-5.3,22.4h-4.9c-0.1-0.1-0.3-0.1-0.5,0h-3.5c0.2-4.3,1.5-8.4,3.7-12.1c0.2-0.4,0.4-0.7,0.6-1.1
		C380.2,200.6,384.3,199.1,385.7,198.8z M362.4,187.1c2.5,2.2,9.8,9.7,12,20.5l-0.5,0.9c-3.1,5.6-3.8,9.9-3.8,12.8h-5.8
		c-1.7-5.1-2.8-10.3-3.4-15.6c0.1-0.2,0-0.4-0.1-0.6C360.3,199,360.8,192.9,362.4,187.1z M359.6,205.7c0.5,5.3,1.7,10.5,3.3,15.6
		h-3.8c-2.8-4.9-6.1-12.2-6.1-20.1C355.3,202.4,357.6,203.9,359.6,205.7z"/>
</g>
<g id="fondamental" class="st8">
	<g class="st9">
		<circle class="st6" cx="364" cy="173.8" r="5.2"/>
	</g>
	<path class="st10" d="M386.2,198c0,0-2.1,0-5,2.3c2.5-11.6-1.6-21.9-1.6-21.9c-4.5,4.2-8.1,9.3-10.7,14.9c-3.4-4.8-6.7-7.5-6.7-7.5
		c-2,6.3-2.6,12.9-1.9,19.5c-2.4-2.1-5.1-3.9-8-5.2c-0.2,8.5,3.2,16.4,6.4,21.8H369l0,0h1.8h4.2h5.7
		C383.7,217.4,388.4,208.2,386.2,198z"/>
	<path class="st11" d="M386.9,197.9c-0.1-0.3-0.3-0.5-0.7-0.5c-0.1,0-1.7,0-4,1.5c1.8-10.9-1.8-20.1-2-20.6
		c-0.1-0.2-0.3-0.4-0.5-0.4c-0.2-0.1-0.5,0-0.6,0.2c-4.1,3.9-7.5,8.4-10.1,13.5c-0.9-4.8-1.9-9.1-2.8-12.2c2.1-0.9,3.6-3,3.6-5.4
		c0-2.5-1.6-4.7-3.8-5.5c-0.4-0.2-0.9-0.3-1.3-0.3c-0.2,0-0.5-0.1-0.7-0.1c-3.2,0-5.9,2.6-5.9,5.9c0,3,2.2,5.5,5.1,5.8
		c0.2,0,0.5,0,0.7,0c0.3,0,0.7,0,1-0.1c0.7,2.8,1.7,6.6,2.5,10.8c-2.6-3.1-4.7-4.9-4.9-5c-0.2-0.1-0.4-0.2-0.6-0.1
		c-0.2,0.1-0.4,0.2-0.5,0.4c-1.8,5.9-2.5,12-2.1,18.1c-2.1-1.7-4.4-3.2-6.9-4.3c-0.2-0.1-0.4-0.1-0.6,0.1c-0.2,0.1-0.3,0.3-0.3,0.6
		c-0.2,8.6,3.2,16.6,6.3,21.8h-1.6l3.1,15.7h19.4l3.1-15.7h-0.5C384.6,217.2,389.1,208.1,386.9,197.9z M359.5,174.3
		c1.1-0.3,2.4-0.2,3.3-0.1c0,0.4-0.1,0.9-0.1,1.4c0,0.8,0.1,1.7,0.2,2.6C361.1,177.7,359.7,176.2,359.5,174.3z M363,172.9
		C363,172.9,363,172.9,363,172.9c-0.9-0.1-2.2-0.2-3.4,0c0.2-1,0.8-1.9,1.6-2.6c0.8-0.6,1.8-1,2.9-1h0.1
		C363.7,170.2,363.2,171.4,363,172.9z M364.6,178.2c-0.1,0-0.2,0-0.3,0c-0.1-0.7-0.2-1.3-0.3-1.9c0,0,0,0,0,0
		c-0.1-0.9,0-1.8,0.1-2.6c0.3-1.8,0.8-3.3,1.3-4.2c1.8,0.6,3.1,2.3,3.1,4.3c0,1.8-1.1,3.4-2.6,4.1
		C365.5,178,365.1,178.2,364.6,178.2z M379.2,179.6c0.9,2.8,3.2,11.2,1.3,20.3c-1.5,1.3-3.3,3.1-5.1,5.9c-1.2-5.1-3.5-9.3-5.8-12.7
		C372,188.2,375.3,183.6,379.2,179.6z M359.1,221.3c-2.8-4.9-6.1-12.2-6.1-20.1c2.4,1.2,4.6,2.7,6.6,4.5c0.5,5.3,1.7,10.5,3.3,15.6
		H359.1z M370.5,217.4c-0.2,0.8-0.3,1.5-0.3,2.2c-0.1,0.6-0.1,1.1-0.1,1.6h-0.2h-1.4h-4.2c-1.7-5.1-2.8-10.3-3.4-15.6
		c0.1-0.2,0-0.4-0.1-0.6c-0.6-6-0.1-12.1,1.6-17.9c1.1,1,3.4,3.2,5.6,6.3c0,0,0,0,0,0c0.3,0.4,0.6,0.8,0.9,1.3
		c0.3,0.4,0.6,0.9,0.9,1.4c2,3.2,3.7,7,4.6,11.5l-0.5,0.9C372,211.9,371,214.9,370.5,217.4C370.5,217.4,370.5,217.4,370.5,217.4z
		 M371.5,221.2L371.5,221.2c0.2-4.3,1.5-8.5,3.7-12.1c0.2-0.4,0.4-0.7,0.6-1.1c1.4-2.4,2.8-4.1,4-5.5c0.7-0.7,1.3-1.3,1.9-1.7
		c1.8-1.4,3.2-1.9,3.9-2c1.8,9.5-2.5,18-5.3,22.4H371.5z"/>
</g>
<g id="export" class="st8">
	<path class="st10" d="M386.2,198c0,0-2.1,0-5,2.3c2.5-11.6-1.6-21.9-1.6-21.9c-4.5,4.2-8.1,9.3-10.7,14.9c-3.4-4.8-6.7-7.5-6.7-7.5
		c-2,6.3-2.6,12.9-1.9,19.5c-2.4-2.1-5.1-3.9-8-5.2c-0.2,8.5,3.2,16.4,6.4,21.8H369l0,0h1.8h4.2h5.7
		C383.7,217.4,388.4,208.2,386.2,198z"/>
	<path class="st11" d="M386.9,197.9c-0.1-0.3-0.3-0.5-0.7-0.5c-0.1,0-1.7,0-4,1.5c1.8-10.9-1.8-20.1-2-20.6
		c-0.1-0.2-0.3-0.4-0.5-0.4c-0.2-0.1-0.5,0-0.6,0.2c-4,3.7-7.2,8.1-9.7,12.9c-1.2-9.2-3.6-19-8.3-27.3l-1.2,0.7
		c4.5,8,6.9,17.5,8.1,26.5l-0.5-0.3c-2.6-3.1-4.7-4.9-4.9-5c-0.2-0.1-0.4-0.2-0.6-0.1c-0.2,0.1-0.4,0.2-0.5,0.4
		c-1.8,5.9-2.5,12-2.1,18.1c-2.1-1.7-4.4-3.2-6.9-4.3c-0.2-0.1-0.4-0.1-0.6,0.1c-0.2,0.1-0.3,0.3-0.3,0.6
		c-0.2,8.6,3.2,16.6,6.3,21.8h-1.6l3.1,15.7h19.4l3.1-15.7h-0.5C384.6,217.2,389.1,208.1,386.9,197.9z M379.2,179.6
		c0.9,2.8,3.2,11.2,1.3,20.3c-1.5,1.3-3.3,3.1-5.1,5.9c-1.2-5.1-3.5-9.3-5.8-12.6c0,0,0,0,0,0s0,0,0,0
		C372,188.2,375.3,183.6,379.2,179.6z M359.1,221.3c-2.8-4.9-6.1-12.2-6.1-20.1c2.4,1.2,4.6,2.7,6.6,4.5c0.5,5.3,1.7,10.5,3.3,15.6
		H359.1z M370.5,217.4c-0.2,0.8-0.3,1.5-0.3,2.2c-0.1,0.6-0.1,1.1-0.1,1.6h-0.3h-1.4h-4.1c-1.7-5.1-2.8-10.3-3.4-15.6
		c0.1-0.2,0-0.4-0.1-0.6c-0.6-6-0.1-12.1,1.6-17.9c1.1,1,3.4,3.2,5.6,6.3c0,0,0,0,0,0c0.1,0.1,0.2,0.3,0.3,0.5
		c0.2,0.3,0.4,0.5,0.6,0.8c0.3,0.4,0.6,0.9,0.9,1.4c0,0.1,0.1,0.1,0.1,0.2c1.9,3.1,3.6,6.9,4.5,11.2l-0.5,0.9
		C372,211.9,371,214.9,370.5,217.4C370.5,217.4,370.5,217.4,370.5,217.4z M371.5,221.2L371.5,221.2c0.2-4.3,1.5-8.5,3.7-12.1
		c0.2-0.4,0.4-0.7,0.6-1.1c1.4-2.4,2.8-4.1,4-5.5c0.7-0.7,1.3-1.3,1.9-1.7c1.8-1.4,3.2-1.9,3.9-2c1.8,9.5-2.5,18-5.3,22.4H371.5z"/>
	<path class="st12" d="M377.4,163.8c0-1-2.3-1.9-5.6-2.2c2.9-1.5,4.7-3.2,4.3-4.2c-0.4-1-3-0.9-6.2,0.1c2.1-2.6,3.2-4.9,2.5-5.6
		c-0.7-0.7-3,0.3-5.5,2.4c0.9-3.1,1-5.6,0.1-6c-1-0.4-2.7,1.5-4.3,4.4c-0.3-3.3-1.2-5.7-2.2-5.7c-1,0-1.9,2.3-2.2,5.6
		c-1.5-2.9-3.2-4.7-4.2-4.3c-1,0.4-0.9,3,0.1,6.2c-2.6-2.1-4.9-3.2-5.6-2.5c-0.7,0.7,0.3,3,2.4,5.5c-3.1-0.9-5.6-1-6-0.1
		c-0.4,1,1.5,2.7,4.4,4.3c-3.3,0.3-5.7,1.2-5.7,2.2c0,1,2.3,1.9,5.6,2.2c-2.9,1.5-4.7,3.2-4.3,4.2c0.4,1,3,0.9,6.2-0.1
		c-2.1,2.6-3.2,4.9-2.5,5.6c0.7,0.7,3-0.3,5.5-2.4c-0.9,3.1-1,5.6-0.1,6c1,0.4,2.7-1.5,4.3-4.4c0.3,3.3,1.2,5.7,2.2,5.7
		c1,0,1.9-2.3,2.2-5.6c1.5,2.9,3.2,4.7,4.2,4.3c1-0.4,0.9-3-0.1-6.2c2.6,2.1,4.9,3.2,5.6,2.5c0.7-0.7-0.3-3-2.4-5.5
		c3.1,0.9,5.6,1,6,0.1c0.4-1-1.5-2.7-4.4-4.3C375,165.8,377.4,164.9,377.4,163.8z"/>
	<g class="st9">
		<g>
			<g>
				<path class="st5" d="M345.5,157.6c0.1-0.2,0.5-0.3,1.1-0.3c0.9,0,2.2,0.2,3.9,0.7c-0.5-0.6-0.9-1.2-1.3-1.7
					c-2.4-0.5-4.4-0.4-4.9,0.8c-0.5,1.2,0.9,2.8,3,4.1c0.7-0.1,1.4-0.2,2.1-0.3C346.6,159.4,345.4,157.9,345.5,157.6z"/>
			</g>
			<g>
				<path class="st5" d="M353.8,147.6c-1.2,0.5-1.3,2.6-0.8,5c0.6,0.4,1.1,0.8,1.7,1.3c-0.9-3.1-0.8-4.9-0.4-5.1c0,0,0,0,0.1,0
					c0.4,0,1.8,1.2,3.2,3.9c0.1-0.7,0.2-1.5,0.3-2.1C356.5,148.5,355,147.1,353.8,147.6z"/>
			</g>
			<g>
				<path class="st5" d="M367.2,147.6c-0.9-0.4-2,0.2-3.3,1.8c-0.3,0.3-0.6,0.7-0.8,1.2c0.1,0.7,0.2,1.4,0.3,2.1
					c0.5-0.9,1.1-1.8,1.6-2.4c1-1.2,1.6-1.4,1.7-1.4c0,0,0,0,0,0c0.1,0,0.4,0.5,0.2,2.2c-0.1,0.8-0.3,1.8-0.6,2.8
					c0.6-0.5,1.1-0.9,1.7-1.3c0.1-0.5,0.2-0.9,0.2-1.3C368.5,149.2,368.2,148,367.2,147.6z"/>
			</g>
			<g>
				<path class="st5" d="M376.7,157.2c-0.5-1.2-2.5-1.3-5-0.8c-0.4,0.6-0.8,1.1-1.3,1.7c3.1-0.9,4.9-0.8,5.1-0.4
					c0.1,0.3-1.1,1.7-3.8,3.2c0.7,0.1,1.4,0.2,2.1,0.3C375.8,159.9,377.2,158.4,376.7,157.2z"/>
			</g>
			<g>
				<path class="st5" d="M373.6,166.5c-0.7,0.1-1.4,0.2-2.1,0.3c2.8,1.6,4.1,3,3.9,3.3c-0.1,0.4-2,0.5-4.9-0.4
					c0.5,0.6,0.9,1.1,1.3,1.7c0.9,0.2,1.7,0.3,2.4,0.3c1.2,0,2.2-0.3,2.5-1.1C377.2,169.4,375.8,167.9,373.6,166.5z"/>
			</g>
			<g>
				<path class="st5" d="M367.9,175c-0.6-0.4-1.2-0.8-1.7-1.3c0.9,3.1,0.8,5,0.4,5.2c-0.3,0.1-1.7-1.1-3.2-3.8
					c-0.1,0.7-0.2,1.5-0.3,2.1c1.2,1.8,2.4,3,3.5,3c0.2,0,0.4,0,0.5-0.1C368.3,179.6,368.4,177.5,367.9,175z"/>
			</g>
			<g>
				<path class="st5" d="M357.6,174.8c-1.6,2.9-3,4.1-3.4,4c-0.3-0.1-0.5-2,0.4-4.9c-0.6,0.5-1.2,0.9-1.7,1.3
					c-0.5,2.4-0.4,4.4,0.8,4.9c0.2,0.1,0.3,0.1,0.5,0.1c1.1,0,2.4-1.3,3.6-3.2C357.7,176.3,357.6,175.5,357.6,174.8z"/>
			</g>
			<g>
				<path class="st5" d="M345.5,170c-0.1-0.3,1.1-1.7,3.8-3.2c-0.7-0.1-1.4-0.2-2.1-0.3c-2.1,1.3-3.5,2.8-3,4
					c0.3,0.8,1.3,1.1,2.5,1.1c0.7,0,1.6-0.1,2.6-0.3c0.4-0.6,0.8-1.2,1.3-1.7C347.5,170.5,345.6,170.3,345.5,170z"/>
			</g>
		</g>
		<g>
			<path class="st5" d="M378,163.8c0-2.1-4.7-3-9.1-3c-0.4,0-0.8,0-1.2,0c0.3-0.3,0.5-0.5,0.8-0.8c3.1-3.1,5.8-7.1,4.3-8.6
				c-1.5-1.5-5.5,1.2-8.6,4.3c-0.3,0.3-0.5,0.5-0.8,0.8c0-0.4,0-0.8,0-1.2c0-4.4-0.9-9.1-3-9.1s-3,4.7-3,9.1c0,0.4,0,0.8,0,1.2
				c-0.3-0.3-0.5-0.5-0.8-0.8c-3.1-3.1-7.1-5.8-8.6-4.3s1.2,5.5,4.3,8.6c0.3,0.3,0.5,0.5,0.8,0.8c-0.4,0-0.8,0-1.2,0
				c-4.4,0-9.1,0.9-9.1,3c0,2.1,4.7,3,9.1,3c0.4,0,0.8,0,1.2,0c-0.3,0.3-0.5,0.5-0.8,0.8c-3.1,3.1-5.8,7.1-4.3,8.6
				c0.3,0.3,0.7,0.4,1.1,0.4c1.9,0,5-2.2,7.5-4.7c0.3-0.3,0.5-0.5,0.8-0.8c0,0.4,0,0.8,0,1.2c0,4.4,1,9.1,3,9.1s3-4.7,3-9.1
				c0-0.4,0-0.8,0-1.2c0.3,0.3,0.5,0.5,0.8,0.8c2.5,2.5,5.6,4.7,7.5,4.7c0.5,0,0.8-0.1,1.1-0.4c1.5-1.5-1.2-5.5-4.3-8.6
				c-0.3-0.3-0.5-0.5-0.8-0.8c0.4,0,0.8,0,1.2,0C373.3,166.9,378,165.9,378,163.8z M366.1,165.4c-1.6-0.2-2.8-0.4-3.6-0.7
				c0.8,0.4,1.8,1,3.1,2c0.7,0.5,1.4,1.2,2.1,1.9c3.6,3.6,4.6,6.4,4.3,6.7c-0.3,0.4-3.1-0.7-6.7-4.3c-0.7-0.7-1.4-1.5-1.9-2.1
				c-0.9-1.2-1.6-2.2-2-3c0.3,0.8,0.5,2,0.7,3.5c0.1,0.8,0.1,1.8,0.1,2.8c0,5.1-1.2,7.8-1.7,7.8s-1.7-2.7-1.7-7.8c0-1,0.1-2,0.1-2.8
				c0.1-1.4,0.4-2.6,0.7-3.4c-0.4,0.8-1,1.8-1.9,2.9c-0.5,0.7-1.2,1.4-1.9,2.1c-3.6,3.6-6.4,4.6-6.7,4.3c-0.4-0.3,0.7-3.1,4.3-6.7
				c0.7-0.7,1.5-1.4,2.1-1.9c1.2-1,2.2-1.6,3-2c-0.8,0.3-2,0.6-3.6,0.7c-0.8,0.1-1.8,0.1-2.8,0.1c-5.1,0-7.8-1.2-7.8-1.7
				c0-0.5,2.7-1.7,7.8-1.7c1,0,2,0.1,2.8,0.1c1.6,0.1,2.8,0.4,3.6,0.7c-0.2-0.1-0.4-0.2-0.6-0.3c-0.8-0.4-1.6-1-2.4-1.7
				c-0.7-0.6-1.4-1.2-2.1-1.9c-3.6-3.6-4.6-6.4-4.3-6.7c0,0,0.1-0.1,0.2-0.1c0.8,0,3.3,1.2,6.5,4.4c0.7,0.7,1.4,1.5,1.9,2.1
				c1,1.2,1.6,2.2,2,3c-0.3-0.8-0.5-2-0.7-3.5c-0.1-0.8-0.1-1.8-0.1-2.8c0-5.1,1.2-7.8,1.7-7.8s1.7,2.7,1.7,7.8c0,1-0.1,2-0.1,2.8
				c-0.2,1.6-0.4,2.7-0.7,3.6c0.4-0.8,1-1.8,2-3c0.5-0.7,1.2-1.4,1.9-2.1c3.2-3.2,5.7-4.4,6.5-4.4c0.1,0,0.2,0,0.2,0.1
				c0.3,0.3-0.7,3.1-4.3,6.7c-0.7,0.7-1.4,1.4-2.1,1.9c-0.8,0.7-1.7,1.3-2.4,1.7c-0.2,0.1-0.4,0.2-0.6,0.3c0.8-0.3,2-0.6,3.6-0.7
				c0.8-0.1,1.8-0.1,2.8-0.1c5.1,0,7.8,1.2,7.8,1.7c0,0.5-2.7,1.7-7.8,1.7C367.9,165.5,366.9,165.5,366.1,165.4z"/>
		</g>
	</g>
	<g class="st9">
		<circle class="st0" cx="360.5" cy="163.8" r="3.3"/>
		<path class="st5" d="M360.5,167.8c-1.3,0-2.6-0.6-3.4-1.8c-1.2-1.9-0.7-4.3,1.2-5.5c1.9-1.2,4.3-0.7,5.5,1.2v0
			c1.2,1.9,0.7,4.3-1.2,5.5C362,167.6,361.3,167.8,360.5,167.8z M360.5,161.2c-0.5,0-1,0.1-1.4,0.4c-1.2,0.8-1.6,2.4-0.8,3.7
			c0.8,1.2,2.4,1.6,3.7,0.8c1.2-0.8,1.6-2.4,0.8-3.7l0,0C362.2,161.6,361.4,161.2,360.5,161.2z"/>
	</g>
</g>
</svg>
