<?xml version="1.0" encoding="UTF-8"?><svg id="Calque_1" xmlns="http://www.w3.org/2000/svg" viewBox="0 0 400 300"><defs><style>.cls-1{stroke:#d1d3d4;stroke-width:2px;}.cls-1,.cls-2{fill:none;stroke-miterlimit:10;}.cls-3,.cls-4,.cls-5,.cls-6,.cls-7,.cls-8,.cls-9,.cls-10{stroke-width:0px;}.cls-4{fill:#53b9ff;}.cls-5{fill:#3880ff;}.cls-6{fill:#231f20;}.cls-7{fill:#119eff;}.cls-8{fill:#d1d3d4;}.cls-9{fill:#fff;}.cls-10{fill:#e52c36;}.cls-2{stroke:#231f20;stroke-width:.5px;}</style></defs><rect class="cls-9" x="184.9" y="16.11" width="198.6" height="116.6"/><path class="cls-6" d="M383.5,133.31h-199.1c-.3,0-.5-.3-.5-.6V15.51c0-.4.2-.6.5-.6h199.1c.3,0,.5.3.5.6v117.2c0,.3-.2.6-.5.6ZM184.9,132.01h198V16.11h-198v115.9Z"/><g id="_017"><path class="cls-9" d="M132.2,124.11h34.4c9.5,0,17.2,7.7,17.2,17.2v65.9h-68.8v-65.9c0-9.5,7.7-17.2,17.2-17.2Z"/><path class="cls-8" d="M183.8,207.71h-68.8c-.3,0-.5-.2-.5-.5v-65.9c0-9.8,7.9-17.7,17.7-17.7h34.4c9.8,0,17.7,7.9,17.7,17.7v65.9c0,.3-.2.5-.5.5ZM115.5,206.81h67.9v-65.5c0-9.3-7.5-16.7-16.8-16.8h-34.4c-9.3,0-16.7,7.5-16.8,16.8v65.5h.1Z"/><path class="cls-9" d="M122.7,124.11h34.4c9.5,0,17.2,7.7,17.2,17.2h0v65.9h-68.9v-65.9c.1-9.5,7.8-17.2,17.3-17.2Z"/><path class="cls-8" d="M174.3,207.71h-68.9c-.3,0-.5-.2-.5-.5v-65.9c0-9.8,7.9-17.7,17.7-17.7h34.4c9.8,0,17.7,7.9,17.7,17.7v65.9c0,.3-.1.5-.4.5ZM106,206.81h67.8v-65.5c0-9.2-7.5-16.7-16.8-16.8h-34.4c-9.3,0-16.7,7.5-16.8,16.8l.2,65.5Z"/><path class="cls-6" d="M138.3,108.21c-.3,0-.5-.2-.5-.5s.2-.5.5-.5h0c1.7,0,3.4-1,5.1-3,7.4-8.8,3.9-22.4-3.8-29.2-6.6-5.8-16-6.8-22.9-2.4s-9,10.2-6.8,18.7c.1.2-.1.5-.3.6-.2.1-.5-.1-.6-.3-2.3-9-.1-15.1,7.1-19.7s17.1-3.6,24,2.5c8,7.1,11.6,21.3,3.9,30.5-1.7,2.1-3.7,3.3-5.7,3.3h0Z"/><path class="cls-10" d="M123.6,115.41s-21.4-.5-26.8,8.3-22,60.4-22,60.4l74.2.1s3.8-32.7.9-46.2c-3.2-15.7-.8-26.1-26.3-22.6Z"/><path class="cls-6" d="M111.8,116.21s-1.9,10.5-1.4,14.3c.7,5.2.4,13.4,11.7,13,8.9-.3,18.6-27.5,18.6-27.5,0,0-16.3-2.6-28.9.2Z"/><path class="cls-6" d="M121.2,144.01c-9.9,0-10.6-6.9-11.2-11.9,0-.5-.1-1-.2-1.5-.5-3.8,1.4-14,1.4-14.5,0-.2.2-.3.3-.3,12.6-2.9,28.8-.2,29-.2.1,0,.2.1.3.2s.1.3,0,.4c-.4,1.1-9.9,27.5-19,27.8h-.6ZM112.2,116.61c-.3,1.7-1.8,10.6-1.4,13.9.1.5.1,1,.2,1.5.5,5.1,1.2,11.4,11,11.1,7.8-.3,16.6-23,18-26.7-2.9-.4-16.8-2.2-27.8.2Z"/><path class="cls-9" d="M113.7,95.81c-.3-.9-.7-1.7-1.3-2.5-.6-.7-1.7-1-2.6-.6-.6.4-1,1-1.1,1.7,0,.7.1,1.4.4,2.1.4,1.3,1.1,2.4,2,3.3s2.2,1.4,3.6,1.4"/><path class="cls-6" d="M114.4,101.71c-1.3,0-2.6-.6-3.6-1.5-1-1-1.7-2.2-2.1-3.5-.3-.7-.4-1.5-.4-2.3.1-.9.5-1.6,1.3-2.1,1-.4,2.2-.1,3,.7.7.8,1.1,1.6,1.4,2.6.1.2,0,.4-.2.5s-.4,0-.5-.2c-.2-.9-.7-1.6-1.2-2.3-.5-.6-1.4-.8-2.1-.5-.5.3-.8.8-.9,1.4,0,.7.1,1.3.3,1.9.4,1.2,1,2.3,1.9,3.2.9.9,2,1.3,3.3,1.3.2,0,.4.1.4.4h0c0,.2-.1.4-.4.4h-.2Z"/><path class="cls-9" d="M118.7,108.31l-1.1,11.2s.5,6.3,7.5,5.1c4.2-.8,7.8-3.4,9.8-7.2l1.1-19.4c0-.8-3-4.2-2.2-11.3-4.8-.5-9.2-3-12.1-6.9,0,0-3.2,4-4.6,5.2-1.1.9-2.1,2-2.9,3.1-2.1,3.2-2.1,8.6-1.6,12.3.4,3.1,2.2,8,6.1,7.9Z"/><path class="cls-6" d="M123.3,125.21c-1.4,0-2.7-.4-3.8-1.2-1.4-1.1-2.2-2.7-2.4-4.5l1.1-10.8c-3.9-.3-5.6-5.3-6-8.3-.4-2.5-.9-8.8,1.6-12.6.8-1.2,1.8-2.3,2.9-3.2,1.3-1.2,4.5-5.1,4.6-5.2s.2-.2.4-.2c.1,0,.3.1.4.2,2.8,3.8,7.1,6.2,11.8,6.7.1,0,.2.1.3.2s.1.2.1.3c-.5,3.4.1,6.9,1.7,10,.2.4.4.8.5,1.3,0,.1-1,19.4-1,19.4v.2c-2.1,3.9-5.8,6.6-10.1,7.4-.8.3-1.4.3-2.1.3ZM118,119.61c.3,2.9,2.8,5.1,5.8,4.8.4,0,.8-.1,1.2-.3,4-.8,7.4-3.3,9.4-6.8l1-19.3c-.1-.3-.2-.6-.4-.8-1.6-3.1-2.2-6.6-1.8-10-4.6-.6-8.8-2.9-11.7-6.6-1.3,1.7-2.7,3.3-4.2,4.8-1.1.9-2,1.9-2.8,3-2.4,3.6-1.8,9.6-1.5,12,.4,2.8,2,7.6,5.6,7.5.1,0,.3,0,.3.2.1.1.1.2.1.3l-1,11.2h0Z"/><path class="cls-6" d="M118.2,111.71c1.8.5,3.8.4,5.5-.3,4-1.4,4.2-4.1,4.2-4.1,0,0-3.4,2.1-9.3,1l-.4,3.4Z"/><path class="cls-6" d="M120.4,112.51c-.8,0-1.5-.1-2.2-.3-.1,0-.2,0-.2-.1-.1-.1-.2-.3-.1-.5l.4-3.3c0-.1.1-.2.2-.3.1-.1.2-.1.3-.1,5.7,1.1,8.9-.9,8.9-.9.1-.1.3-.1.5,0,.1.1.2.2.2.4,0,.1-.3,3-4.5,4.5-1.1.4-2.3.6-3.5.6ZM118.7,111.41c1.6.4,3.3.2,4.9-.4,1.6-.4,2.9-1.5,3.6-2.9-2.6,1-5.4,1.2-8.2.7l-.3,2.6Z"/><path class="cls-9" d="M124.7,89.51s-4.1,5-3.3,6,3.2.6,3.2.6"/><path class="cls-6" d="M123.5,96.61c-.9.1-1.8-.2-2.5-.9-.9-1.1,1.7-4.6,3.3-6.6.1-.2.4-.2.6-.1h0c.2.2.2.4.1.6h0c-2,2.4-3.5,5-3.3,5.5.5.6,2.2.5,2.8.4.2-.1.5.1.6.3.1.2-.1.5-.3.6h-.1c-.4.2-.8.2-1.2.2Z"/><ellipse class="cls-6" cx="120.06" cy="90.59" rx="1.2" ry=".6" transform="translate(14.35 197.58) rotate(-82.38)"/><ellipse class="cls-6" cx="129.6" cy="91.31" rx="1.2" ry=".6" transform="translate(36.78 219.84) rotate(-89.33)"/><path class="cls-9" d="M133.5,93.71c.2-1,.7-1.9,1.2-2.7.7-.9,1.8-1.5,2.9-1.5.7,0,1.4.4,1.8.9.2.4.4.9.4,1.3.4,2.5-.5,5.7-2.8,7-.8.5-1.8.5-2.6,0"/><path class="cls-6" d="M135.6,99.71c-.5,0-1-.1-1.4-.4-.2-.2-.2-.4,0-.6.1-.1.3-.2.5-.1.7.4,1.5.4,2.2-.1,2.2-1.2,2.9-4.2,2.6-6.6,0-.4-.2-.8-.4-1.2-.4-.5-.9-.7-1.5-.8-1,0-2,.5-2.6,1.3-.5.8-.9,1.6-1.2,2.5-.1.2-.3.3-.5.3-.2-.1-.3-.3-.3-.5.3-1,.7-2,1.3-2.8.8-1,2-1.6,3.2-1.6.8,0,1.6.4,2.1,1.1.3.5.5,1,.5,1.5.4,2.6-.5,6-3,7.4-.3.4-.9.6-1.5.6Z"/><path class="cls-9" d="M118.6,98.41l10.8.3s-1.4,5.7-6,5.4-4.8-5.7-4.8-5.7Z"/><path class="cls-6" d="M123.6,104.61h-.3c-4.9-.3-5.1-6.1-5.1-6.2s.1-.2.1-.3c.1-.1.2-.1.3-.1l10.8.3c.1,0,.3.1.3.2.1.1.1.2.1.4-.1,0-1.6,5.7-6.2,5.7ZM119,98.91c.1,1.3.9,4.6,4.3,4.8s4.9-3.2,5.4-4.6l-9.7-.2Z"/><path class="cls-6" d="M27.6,144.61h48.7c1.3,0,2.4.9,2.8,2.1l9,32.9h31.6c1.1,0,2,.9,2,2s-.9,2-2,2H36.7c-1.3,0-2.4-.9-2.8-2.1l-9.1-33.3c-.4-1.5.5-3.1,2-3.5.3-.1.5-.1.8-.1Z"/><path class="cls-6" d="M119.8,184.11H36.8c-1.5,0-2.8-1-3.2-2.4l-9.2-33.3c-.5-1.8.6-3.6,2.3-4.1.3-.1.6-.1.9-.1h48.7c1.5,0,2.8,1,3.2,2.4l9,32.6h31.3c1.4,0,2.5,1.1,2.5,2.4-.1,1.4-1.2,2.4-2.5,2.5h0ZM27.6,145.11c-1.3,0-2.4,1.1-2.4,2.5,0,.2,0,.4.1.6l9.1,33.3c.3,1.1,1.2,1.8,2.3,1.8h83c.9,0,1.6-.7,1.6-1.6s-.7-1.6-1.6-1.6h-31.6c-.2,0-.4-.1-.4-.3l-9-32.9c-.3-1.1-1.3-1.8-2.4-1.8H27.6Z"/><path class="cls-9" d="M86.7,179.71h-48.7c-.3,0-.5-.2-.5-.5s.2-.5.5-.5h48.7c.3,0,.5.2.5.5s-.2.5-.5.5h0Z"/><path class="cls-6" d="M93.6,180.21h0c-.4,0-.6-.3-.5-.6.3-1.8,7.2-44.9,7.5-46,.1-.3.4-.4.7-.3.2.1.4.3.3.5-.2.9-5,30.4-7.5,45.9,0,.3-.2.5-.5.5Z"/><path class="cls-10" d="M145,118.71s19.6,28.4,21.6,28.7,18.2-21.5,18.2-21.5l11.3,10.9s-19.3,40.9-27.9,38.9-26.3-27-26.3-27l3.1-30Z"/><path class="cls-6" d="M148.2,91.01s2.7-4.9-.9-11.9-9.7-11-11.9-10.9c-1.6.2-3.2.5-4.7,1,0,0,14.5,2.6,17.5,21.8Z"/><path class="cls-6" d="M148.2,91.41h0c-.3,0-.4-.2-.4-.4-1.5-9.8-6.1-15.1-9.7-17.8-2.2-1.7-4.7-3-7.5-3.6-.2,0-.3-.2-.4-.4,0-.2.1-.4.3-.5,1.6-.5,3.2-.9,4.9-1.1h.1c2.6,0,8.6,4.3,12.1,11.1,3.6,7.2,1,12.1.9,12.3.1.3-.1.4-.3.4ZM132.3,69.21c3.7,1.2,13.2,5.8,16.1,20.1.8-3.4.3-7-1.4-10-3.4-6.8-9.4-10.8-11.4-10.7-1.2.1-2.2.3-3.3.6Z"/><path class="cls-6" d="M150.3,88.51c-.2,0-.4-.1-.4-.3-.1-.2,0-.5.3-.6,1.9-.8,3.4-2.3,4.2-4.3s1.1-4.1,1-6.2c.1-2.6-.6-5.1-1.9-7.4-2-2.9-5.2-4.8-8.7-5.3-1.5-.3-3-.3-4.4.2-1.4.4-2.4,1.6-2.7,3,0,.3-.2.5-.5.4-.3,0-.5-.2-.4-.5v-.1c.4-1.7,1.6-3.1,3.3-3.7,1.6-.5,3.3-.6,4.9-.2,3.8.5,7.2,2.6,9.3,5.7,1.4,2.4,2.1,5.1,2,7.8.1,2.2-.2,4.5-1,6.6-.9,2.2-2.5,3.9-4.7,4.8-.1.1-.2.1-.3.1Z"/><path class="cls-6" d="M166.2,175.01h-.2c-10.7-3.8-20.8-22.4-21.2-23.2-.1-.3,0-.6.3-.7.2-.1.5,0,.6.2s10.4,19.1,20.6,22.7c.3.1.4.4.3.6h0c.1.2-.1.4-.4.4Z"/><path class="cls-9" d="M223.9,184.51h18.2c5.3,0,9.6,4.3,9.6,9.6v30.4c0,5.3-4.3,9.6-9.6,9.6h-18.2c-5.3,0-9.6-4.3-9.6-9.6v-30.4c0-5.3,4.3-9.6,9.6-9.6Z"/><path class="cls-6" d="M242,234.61h-18.2c-5.6,0-10.1-4.5-10.1-10.1v-30.4c0-5.6,4.5-10.1,10.1-10.1h18.1c5.6,0,10.1,4.5,10.1,10.1v30.4c.1,5.6-4.4,10.1-10,10.1ZM223.9,185.01c-5,0-9.1,4.1-9.1,9.1v30.4c0,5,4.1,9.1,9.1,9.1h18.1c5,0,9.1-4.1,9.1-9.1v-30.4c0-5-4.1-9.1-9.1-9.1h-18.1Z"/><path class="cls-9" d="M230.7,234.11H18c-4.2,0-7.6-3.4-7.6-7.6v-34.4c0-4.2,3.4-7.6,7.6-7.6h212.7c4.2,0,7.6,3.4,7.6,7.6v34.4c0,4.2-3.4,7.6-7.6,7.6Z"/><path class="cls-6" d="M230.7,234.61H18c-4.5,0-8.1-3.6-8.1-8.1v-34.3c0-4.5,3.6-8.1,8.1-8.1h212.7c4.5,0,8.1,3.6,8.1,8.1v34.4c0,4.4-3.7,8-8.1,8ZM18,185.01c-3.9,0-7.1,3.2-7.1,7.1v34.5c0,3.9,3.2,7.1,7.1,7.1h212.7c3.9,0,7.1-3.2,7.1-7.1v-34.4c0-3.9-3.2-7.1-7.1-7.1l-212.7-.1Z"/><rect class="cls-9" x="19.6" y="234.11" width="222.5" height="54.3"/><path class="cls-6" d="M242,288.91H19.6c-.3,0-.5-.2-.5-.5h0v-54.3c0-.3.2-.5.5-.5h222.5c.3,0,.5.2.5.5h0v54.3c0,.2-.3.5-.6.5h0ZM20.1,287.91h221.4v-53.3H20.1v53.3Z"/><path class="cls-6" d="M230.7,288.51c-.3,0-.5-.2-.5-.5h0v-53.9c.1-.3.4-.4.6-.4s.3.2.4.4v53.9c0,.3-.3.5-.5.5Z"/><path class="cls-9" d="M186.5,126.61s6.1-15.3,7.1-14.9-.8,8.3-.8,8.3c0,0,7.6-8.3,8.6-7.8s.4,2.6-2.5,6.8c0,0,5-5.8,5.9-4.6s-4.2,6.4-4.2,6.4c0,0,4.8-5,5.5-4s-4.5,6.2-4.5,6.2c0,0,4.8-5.7,5.2-3.9s-9.3,13.1-12,16.2"/><path class="cls-6" d="M194.7,135.91c-.1,0-.2,0-.3-.1-.2-.2-.2-.5,0-.7,4.9-5.6,11.7-14.1,11.9-15.7-.8.5-1.5,1-2.1,1.7-.7.8-1.4,1.6-2.2,2.3-.2.2-.5.2-.7,0s-.2-.5,0-.7c.6-.7,1.4-1.5,2.1-2.3.9-1,1.7-2,2.2-3.2-1.7,1.1-3.3,2.5-4.6,4h0c-.2.2-.5.2-.7,0s-.2-.5,0-.7h0c2.3-2.5,4.2-5.1,4.1-5.7-.7.1-3,2.2-5.1,4.6-.2.2-.5.2-.7.1-.2-.2-.3-.5-.1-.7,2.7-4,3-5.4,2.8-5.9q0-.1-.1-.2c-.9.3-4.9,4.1-8.1,7.6-.2.2-.4.2-.6.1-.2-.1-.3-.3-.2-.6.6-2.4,1-4.9,1.1-7.5-1.1,1.5-4.1,8.2-6.5,14.4-.1.3-.4.4-.6.3-.3-.1-.4-.4-.3-.7,6.2-15.8,7.2-15.4,7.8-15.2.3.1,1.3.5-.1,7.1,6.7-7.2,7.6-6.7,8-6.5.3.2.6.5.6.9.1.5.1,1.2-.7,2.8,1.1-1,2.2-1.8,2.9-1.8.3,0,.5.2.7.4.4.5.1,1.5-.5,2.5.4-.3.8-.4,1.2-.4.2,0,.5.1.6.3.3.4.1,1.1-.4,1.8h.5c.3.1.6.4.6.7.5,2.3-12,16.5-12.1,16.7-.1.2-.2.3-.4.3Z"/><path class="cls-9" d="M192.9,119.91c1.5,1,2.1,2.9,1.5,4.5"/><path class="cls-6" d="M194.3,125.01h-.2c-.3-.1-.4-.4-.3-.6.6-1.4.1-3.1-1.2-3.9-.2-.1-.3-.5-.2-.7s.4-.3.7-.2c1.7,1.1,2.4,3.2,1.6,5.1,0,.1-.2.3-.4.3Z"/><rect class="cls-9" x="38.2" y="81.01" width="48.3" height="34.5"/><path class="cls-8" d="M86.5,116.01h-48.3c-.3,0-.5-.2-.5-.5h0v-34.5c0-.3.2-.5.4-.5h48.3c.3,0,.5.2.5.5v34.5c.1.3-.1.5-.4.5ZM38.7,115.11h47.4v-33.6h-47.4v33.6Z"/><path class="cls-8" d="M80.2,91.31h-35.7c-.2,0-.5-.2-.5-.4h0c0-.3.2-.5.5-.5h35.7c.3,0,.5.2.5.5,0,.2-.2.4-.5.4h0Z"/><path class="cls-8" d="M80.2,98.81h-35.7c-.3,0-.4-.3-.4-.5s.2-.4.4-.4h35.7c.3,0,.4.3.4.5s-.2.3-.4.4Z"/><path class="cls-8" d="M80.2,106.21h-35.7c-.3,0-.5-.2-.5-.5,0-.2.2-.5.4-.5h35.7c.3,0,.5.2.5.5h0c.1.3-.1.5-.4.5Z"/><path class="cls-8" d="M61.8,83.21c-.3,0-.5-.2-.5-.5v-4.8c0-.3.2-.5.5-.5s.5.2.5.5v4.8c0,.2-.2.4-.5.5h0Z"/></g><g id="g12"><path id="path4" class="cls-5" d="M249.65,35.28c-4.45,0-8.05,3.61-8.05,8.05s3.61,8.05,8.05,8.05,8.05-3.61,8.05-8.05c-.02-4.45-3.63-8.05-8.05-8.05Z"/><g id="g8"><circle id="circle6" class="cls-5" cx="261.19" cy="32.33" r="3.68"/></g><path id="path10" class="cls-5" d="M265.71,36.01l-.14-.34-.24.29c-.6.67-1.37,1.2-2.21,1.51l-.24.1.1.24c.75,1.76,1.11,3.63,1.11,5.53,0,7.96-6.47,14.45-14.45,14.45s-14.43-6.49-14.43-14.45,6.47-14.45,14.45-14.45c2.16,0,4.23.48,6.18,1.39l.22.1.1-.24c.36-.84.91-1.56,1.63-2.14l.29-.24-.34-.17c-2.52-1.3-5.24-1.97-8.1-1.97-9.74,0-17.67,7.93-17.67,17.67s7.93,17.67,17.67,17.67,17.67-7.93,17.67-17.67c0-2.5-.53-4.95-1.59-7.29Z"/></g><g id="g27"><g id="g16"><rect id="rect14" class="cls-5" x="276.41" y="35.65" width="3.73" height="15.39"/></g><g id="g20"><rect id="rect18" class="cls-5" x="316.63" y="35.65" width="3.73" height="15.39"/></g><path id="path22" class="cls-5" d="M308.03,35.28c-2.62,0-4.64,1.59-5.1,2.02h0l-.24-1.66h-3.1v15.39h3.73v-9.3c0-1.83,2.48-3.32,4.3-3.32s3.17,1.73,3.17,3.8v8.82h3.73v-8.46c-.02-4.04-1.78-7.29-6.49-7.29Z"/><path id="path24" class="cls-5" d="M330.12,48.24c-2.81,0-4.66-2.19-4.66-4.9s1.85-4.9,4.66-4.9c2.38,0,3.85,2.31,3.85,2.31l2.69-1.8c-.77-1.2-1.68-1.92-2.91-2.67-.91-.55-2.14-1.01-3.51-1.01-4.66,0-8.22,3.51-8.25,8.05.02,4.54,3.58,8.05,8.25,8.05,1.37,0,2.6-.46,3.51-1.01,1.23-.75,2.14-1.47,2.91-2.67l-2.69-1.8s-1.44,2.36-3.85,2.36Z"/><path id="path3000" class="cls-5" d="M289.85,35.28c-4.69,0-8.05,3.68-8.05,7.98s3.27,8.13,8.13,8.13c4.4,0,7.98-3.37,7.98-8.03,0-5.34-4.18-8.08-8.05-8.08ZM289.9,38.46c2.31,0,4.5,1.88,4.5,4.9s-2.19,4.88-4.52,4.88c-2.55,0-4.57-2.07-4.57-4.9s2-4.88,4.59-4.88Z"/></g><path class="cls-7" d="M291.95,101.2l-7.22,7.21,11.12,11.11,7.2-7.21-11.1-11.11Z"/><path class="cls-3" d="M291.95,101.2l-7.22,7.21,2.78,2.76,4.44-9.97Z"/><path class="cls-4" d="M273.63,85.86l-7.2,7.21,11.1,11.13-11.16,11.19,7.17,7.21,11.18-11.19,11.12,11.11,7.2-7.21-29.42-29.45Z"/><path class="cls-4" d="M301.79,94.39l11.18-11.19-7.2-7.18-11.18,11.17-11.12-11.11-7.2,7.21,29.42,29.45,7.2-7.21-11.1-11.13Z"/><path class="cls-7" d="M287.37,94.39l7.22-7.21-11.12-11.11-7.2,7.21,11.1,11.11Z"/><path class="cls-3" d="M287.37,94.39l7.22-7.21-2.78-2.76-4.44,9.97Z"/><line class="cls-1" x1="234.11" y1="67.8" x2="331.34" y2="67.8"/><path class="cls-6" d="M130.45,95.81c-2.53,0-6.24-.42-7.17-1.01-.59-.42-1.01-.93-1.27-1.6h0c-.25.51-.76,1.27-1.52,1.27h0c-.08,0-6.5-.25-8.27-1.94-1.69-1.52-1.18-6.41-1.18-7,0-.25.25-.42.51-.42l23.88,2.28c.25,0,.42.25.42.51v.08c-.34,1.69-1.69,7.26-3.46,7.76-.59,0-1.27.08-1.94.08ZM122.09,91.93c.08,0,.25,0,.34.08.25.17.42.42.51.76.17.51.51.84.93,1.18.76.59,6.67,1.18,8.35.76.76-.17,1.94-3.46,2.7-6.5l-22.95-2.19c-.08,1.6-.17,4.73.93,5.74,1.35,1.18,6.33,1.69,7.68,1.69.25,0,.51-.42.76-.76.08-.34.34-.76.76-.76h0Z"/><path class="cls-2" d="M138.43,89.8s-.05,0-.08-.02l-3.1-1.66c-.08-.02-.1-.12-.05-.17h0c.03-.07.13-.1.18-.05h0l3.1,1.66c.08.02.1.12.05.2,0,.02-.05.05-.1.05h0Z"/><g id="fondamental"><circle class="cls-10" cx="236.09" cy="214.74" r="6.01"/><path class="cls-9" d="M261.86,242.93s-2.43,0-5.89,2.77c3-13.52-1.85-25.54-1.85-25.54-5.2,4.97-9.48,10.86-12.48,17.33-3.93-5.55-7.86-8.67-7.86-8.67-2.31,7.28-3,15.02-2.2,22.65-2.77-2.54-5.89-4.51-9.36-6.12-.23,9.94,3.7,19.07,7.51,25.31h25.77c3.47-5.08,9.01-15.72,6.36-27.73Z"/><path class="cls-6" d="M262.67,242.82c-.12-.35-.46-.58-.81-.69-.12,0-1.96,0-4.74,1.73,2.08-12.71-2.08-23.46-2.31-24.04-.12-.23-.35-.46-.58-.46-.23-.12-.58,0-.69.23-4.85,4.51-8.78,9.82-11.67,15.72-1.04-5.55-2.2-10.52-3.24-14.21,2.43-1.04,4.16-3.47,4.16-6.24s-1.85-5.43-4.39-6.36c-.46-.23-1.04-.35-1.5-.35-.23,0-.58-.12-.81-.12-3.81,0-6.82,3-6.82,6.82,0,3.47,2.66,6.36,6.01,6.7h.81c.35,0,.81,0,1.16-.12.92,3.35,1.96,7.74,2.89,12.6-3-3.58-5.55-5.66-5.78-5.89-.23-.12-.46-.23-.69-.12-.23.12-.46.23-.58.46-2.08,6.82-2.89,13.98-2.43,21.03-2.43-1.96-5.2-3.7-8.09-4.97-.23-.12-.46-.12-.69.12-.23.12-.35.35-.35.69-.23,9.94,3.81,19.3,7.4,25.31h-1.85l3.7,18.26h22.65l3.7-18.26h-.58c3.58-5.43,8.78-15.95,6.12-27.85ZM230.89,215.32c1.27-.35,2.77-.23,3.81-.12,0,.46-.12,1.04-.12,1.62,0,.92.12,1.96.23,3-2.08-.46-3.7-2.31-3.93-4.51ZM234.94,213.7h0c-1.04-.12-2.54-.23-3.93,0,.23-1.16.92-2.31,1.85-3,.92-.69,2.08-1.16,3.35-1.16h.12c-.58,1.04-1.16,2.43-1.39,4.16ZM236.79,219.94h-.35c-.12-.81-.23-1.5-.35-2.2h0c-.12-1.04,0-2.08.12-3,.35-2.08.92-3.81,1.5-4.85,2.08.69,3.58,2.66,3.58,4.97,0,2.08-1.27,3.93-3,4.74-.46.12-.92.35-1.5.35ZM253.89,221.56c1.04,3.24,3.7,13.06,1.5,23.69-1.73,1.5-3.81,3.7-5.89,6.93-1.39-5.89-4.04-10.86-6.82-14.68,2.77-6.01,6.59-11.32,11.21-15.95ZM230.31,270.09c-3.35-5.78-7.16-14.1-7.16-23.34,2.77,1.39,5.43,3.12,7.74,5.2.58,6.12,1.96,12.25,3.93,18.14h-4.51ZM243.72,265.58c-.23.92-.35,1.73-.35,2.54-.12.69-.12,1.27-.12,1.85h-6.7c-1.96-5.89-3.35-12.02-3.93-18.14.12-.23,0-.46-.12-.69-.69-7.05-.12-14.1,1.85-20.92,1.27,1.16,3.93,3.7,6.47,7.4h0c.35.46.69.92,1.04,1.5.35.46.69,1.04,1.04,1.62,2.31,3.7,4.39,8.2,5.32,13.29l-.58,1.04c-2.2,4.04-3.35,7.63-3.93,10.52h0ZM244.76,270.09h0c.23-5.08,1.73-9.82,4.28-14.1.23-.46.46-.92.69-1.27,1.62-2.77,3.24-4.85,4.74-6.36.81-.81,1.5-1.5,2.2-1.96,2.08-1.62,3.7-2.2,4.62-2.43,2.08,11.09-2.89,20.92-6.24,26.12h-10.28Z"/></g></svg>