<?xml version="1.0" encoding="utf-8"?>
<!-- Generator: Adobe Illustrator 27.9.0, SVG Export Plug-In . SVG Version: 6.00 Build 0)  -->
<svg version="1.1" id="Layer_1" xmlns="http://www.w3.org/2000/svg" xmlns:xlink="http://www.w3.org/1999/xlink" x="0px" y="0px"
	 viewBox="0 0 400 300" style="enable-background:new 0 0 400 300;" xml:space="preserve">
<style type="text/css">
	.st0{fill:#201D1D;}
	.st1{fill:#FFFFFF;}
	.st2{fill:#231F20;}
	.st3{fill:#E2272F;}
	.st4{fill-rule:evenodd;clip-rule:evenodd;fill:#0074BD;}
	.st5{fill-rule:evenodd;clip-rule:evenodd;fill:#EA2D2E;}
	.st6{display:none;}
	.st7{display:inline;fill:#FFFFFF;}
	.st8{display:inline;fill:#201D1D;}
	.st9{display:inline;fill:#E2272F;}
	.st10{display:inline;}
</style>
<g id="_79_presentation">
	<path class="st0" d="M338.5,233.6H61.5c-0.3,0-0.5-0.2-0.5-0.5s0.2-0.5,0.5-0.5h277.1c0.3,0,0.5,0.2,0.5,0.5
		S338.8,233.6,338.5,233.6z"/>
	<polygon class="st1" points="229.3,173.9 191.9,250.1 197.2,250.1 236.9,173.9 	"/>
	<path class="st2" d="M197.2,250.7h-5.4c-0.2,0-0.3-0.1-0.4-0.2c-0.1-0.2-0.1-0.3,0-0.5l37.4-76.3c0.1-0.2,0.3-0.3,0.5-0.3h7.6
		c0.2,0,0.3,0.1,0.4,0.2c0.1,0.2,0.1,0.4,0,0.5l-39.7,76.3C197.7,250.6,197.5,250.7,197.2,250.7z M192.7,249.7h4.2l39.2-75.3h-6.4
		L192.7,249.7z"/>
	<polygon class="st1" points="274.2,173.9 311.7,250.1 306.3,250.1 266.6,173.9 	"/>
	<path class="st2" d="M311.7,250.7h-5.4c-0.2,0-0.4-0.1-0.5-0.3l-39.7-76.3c-0.1-0.2,0-0.6,0.2-0.7c0.1,0,0.2-0.1,0.3-0.1h7.6
		c0.2,0,0.4,0.1,0.5,0.3l37.5,76.3c0.1,0.2,0.1,0.3,0,0.5C312,250.6,311.8,250.7,311.7,250.7z M306.7,249.7h4.2l-36.9-75.3h-6.4
		L306.7,249.7z"/>
	<polygon class="st1" points="253.2,237.5 250.3,237.5 249.4,173.9 254.2,173.9 	"/>
	<path class="st2" d="M253.2,238h-2.9c-0.3,0-0.5-0.2-0.5-0.5l-0.9-63.6c0-0.1,0.1-0.3,0.1-0.4c0.1-0.1,0.2-0.2,0.4-0.1h4.8
		c0.3,0,0.5,0.2,0.5,0.5c0,0,0,0,0,0l-0.9,63.6C253.7,237.8,253.5,238,253.2,238z M250.8,237h1.9l0.9-62.6h-3.7L250.8,237z"/>
	<rect x="175.1" y="40.2" class="st1" width="153.4" height="130.3"/>
	<path class="st2" d="M328.5,171H175.1c-0.3,0-0.5-0.2-0.5-0.5c0,0,0,0,0,0V40.2c0-0.3,0.2-0.5,0.5-0.5c0,0,0,0,0,0h153.4
		c0.3,0,0.5,0.2,0.5,0.5c0,0,0,0,0,0v130.3C329,170.8,328.8,171,328.5,171C328.5,171,328.5,171,328.5,171z M175.6,170H328V40.7
		H175.6L175.6,170z"/>
	<rect x="171.8" y="170.5" class="st1" width="159.9" height="6.8"/>
	<path class="st2" d="M331.8,177.8H171.8c-0.3,0-0.5-0.2-0.5-0.5c0,0,0,0,0,0v-6.8c0-0.3,0.2-0.5,0.5-0.5c0,0,0,0,0,0h159.9
		c0.3,0,0.5,0.2,0.5,0.5c0,0,0,0,0,0v6.8C332.3,177.5,332,177.8,331.8,177.8L331.8,177.8z M172.3,176.8h158.9V171H172.3V176.8z"/>
	<path class="st2" d="M328.5,171H175.1c-0.3,0.1-0.6-0.1-0.6-0.4c-0.1-0.3,0.1-0.6,0.4-0.6c0.1,0,0.2,0,0.3,0h153.4
		c0.3-0.1,0.6,0.1,0.6,0.4c0.1,0.3-0.1,0.6-0.4,0.6C328.7,171,328.6,171,328.5,171z"/>
	<rect x="225.1" y="37.4" class="st1" width="53.3" height="8.6"/>
	<path class="st2" d="M278.4,46.5h-53.3c-0.3,0-0.5-0.2-0.5-0.5v-8.6c0-0.3,0.2-0.5,0.5-0.5h53.3c0.3,0,0.5,0.2,0.5,0.5c0,0,0,0,0,0
		V46C279,46.3,278.7,46.5,278.4,46.5C278.4,46.5,278.4,46.5,278.4,46.5z M225.6,45.5h52.3v-7.6h-52.3L225.6,45.5z"/>
	<rect x="197.3" y="127.8" class="st1" width="18.6" height="26.5"/>
	<rect x="287.7" y="100.6" class="st1" width="18.6" height="53.7"/>
	<path class="st1" d="M129.4,236.6V252l7.4,2.1l-0.2-3.2l3.3,3.3c0,0,19.8,3.6,19.7,0.9s-2.1-4.1-4.6-5.4c-2.7-1.4-9.8-5.4-9.8-5.4
		l-1.1-11.3"/>
	<path class="st2" d="M156,256.7c-5.2,0-13.9-1.5-16.1-1.9c-0.1,0-0.2-0.1-0.3-0.1l-2.4-2.4l0.1,1.8c0,0.2-0.1,0.3-0.2,0.4
		c-0.1,0.1-0.3,0.1-0.5,0.1l-7.4-2.1c-0.2-0.1-0.4-0.3-0.4-0.5v-15.5c0.1-0.3,0.4-0.4,0.6-0.4c0.2,0,0.3,0.2,0.4,0.4v15.1l6.3,1.8
		L136,251c0-0.3,0.2-0.5,0.5-0.5c0.1,0,0.3,0,0.4,0.1l3.2,3.2c8.7,1.6,18.3,2.5,19,1.4c-0.1-2.3-1.8-3.6-4.4-4.9s-9.7-5.4-9.8-5.4
		c-0.1-0.1-0.2-0.2-0.3-0.4l-1.1-11.3c0-0.3,0.3-0.5,0.6-0.4c0.2,0,0.3,0.2,0.4,0.3l1,11.1c1.2,0.7,7.1,4,9.5,5.3s4.8,2.9,4.9,5.8
		c0,0.3-0.1,0.6-0.4,0.8C159.2,256.5,157.8,256.7,156,256.7z"/>
	<path class="st1" d="M107.6,245l-0.1,13l8.4,2.2l0.1-3.7l2.9,4.6c0,0,20.8,4.6,21.9,1.8s-0.8-6.9-5.9-9.4c-3.3-1.6-6.8-3-10.3-4.2
		l-1.2-5.7"/>
	<path class="st2" d="M137,264.4c-5.5,0-14.7-1.9-18.2-2.7c-0.1,0-0.2-0.1-0.3-0.2l-2-3.2l-0.1,2c0,0.2-0.1,0.3-0.2,0.4
		c-0.1,0.1-0.3,0.1-0.4,0.1l-8.4-2.2c-0.2-0.1-0.4-0.3-0.4-0.5l0.1-13c0-0.3,0.2-0.5,0.5-0.5c0,0,0,0,0,0l0,0c0.3,0,0.5,0.2,0.5,0.5
		c0,0,0,0,0,0l-0.1,12.6l7.4,2l0.1-3c0-0.3,0.2-0.5,0.4-0.6c0.2,0,0.5,0.1,0.6,0.3l2.8,4.4c12.5,2.8,20.6,3.2,21.1,2.1
		c1-2.5-0.7-6.4-5.7-8.8c-3.3-1.6-6.7-3-10.2-4.2c-0.2,0-0.3-0.2-0.3-0.4l-1.2-5.7c0-0.3,0.2-0.5,0.5-0.5c0.2,0,0.4,0.1,0.5,0.3
		l1.1,5.4c3.4,1.2,6.8,2.6,10.1,4.1c5.5,2.7,7.3,7.1,6.2,10.1C140.9,264,139.3,264.4,137,264.4z"/>
	<polygon class="st2" points="102.6,141.8 105.8,246.8 129.2,246.9 128.9,241.5 146.7,242.2 149.1,135.4 	"/>
	<path class="st2" d="M129.2,247.4L129.2,247.4l-23.4-0.1c-0.3,0-0.5-0.2-0.5-0.5l-3.2-105c0-0.3,0.2-0.5,0.4-0.5l46.6-6.4
		c0.1,0,0.3,0,0.4,0.1c0.1,0.1,0.2,0.2,0.2,0.4l-2.4,106.8c0,0.1-0.1,0.3-0.2,0.4c-0.1,0.1-0.2,0.1-0.4,0.1l-17.3-0.7l0.2,4.9
		c0,0.1,0,0.3-0.1,0.4C129.5,247.3,129.3,247.4,129.2,247.4z M106.3,246.3l22.4,0.1l-0.2-4.9c0-0.1,0-0.3,0.1-0.4
		c0.1-0.1,0.2-0.2,0.4-0.1l17.3,0.6l2.4-105.7l-45.6,6.3L106.3,246.3z"/>
	<path class="st3" d="M119.9,76.9c0,0-18.7,4.2-21.7,11.9s5.2,49.6,5.2,49.6l45.2-4.6c0,0,1.2-43.9-1.8-52.6
		C140.9,75.4,132,74.8,119.9,76.9z"/>
	<path class="st1" d="M135.4,40.8c2.3,0.9,4.3,2.5,5.8,4.5c1.5,2,2.2,4.5,2.2,7c-0.1,3.2-1.2,4.6-3.4,6.6c-1.8,1.7-4.7,2.2-7.1,2.6
		c-2.1,0.4-4.3,1.1-6.4,1.3s-4.6,0.6-6.5-0.1c-2.4-0.8-4.3-3.9-5.7-6c-1.7-2.6-1.3-6.1-0.1-8.9c0.3-0.9,0.9-1.6,1.6-2.2
		c0.8-0.6,1.8-0.6,2.6-0.2c2.1-4.2,7.1-6.2,11.8-6C131.9,39.7,133.7,40.1,135.4,40.8z"/>
	<path class="st2" d="M122.8,63.8c-1,0-2-0.1-3-0.4c-2.4-0.8-4.3-3.6-5.7-5.7l-0.3-0.5c-1.6-2.3-1.7-5.8-0.2-9.4
		c0.3-1,1-1.8,1.8-2.5c0.8-0.6,1.8-0.7,2.7-0.4c2.2-3.8,6.9-6.1,12-5.8c1.9,0.1,3.7,0.5,5.4,1.2l0,0c2.4,1,4.5,2.6,6,4.7
		c1.5,2.1,2.3,4.7,2.3,7.3c0,3.4-1.4,4.9-3.5,7c-1.8,1.7-4.4,2.2-6.8,2.7l-0.5,0.1c-0.8,0.2-1.6,0.3-2.4,0.5c-1.3,0.3-2.7,0.6-4,0.8
		h-0.5C125,63.6,123.9,63.7,122.8,63.8z M117.2,45.8c-0.4,0-0.8,0.1-1.2,0.4c-0.6,0.5-1.1,1.2-1.4,2c-1.3,3.2-1.3,6.3,0.1,8.4
		l0.3,0.5c1.3,1.9,3.1,4.5,5.1,5.3c1.7,0.6,4,0.3,5.8,0.1l0.5,0c1.3-0.2,2.6-0.4,3.9-0.8c0.8-0.2,1.6-0.4,2.4-0.6l0.5-0.1
		c2.2-0.4,4.7-0.9,6.3-2.4c2.2-2.1,3.2-3.3,3.2-6.3c0-2.4-0.7-4.8-2.1-6.7c-1.4-1.9-3.3-3.4-5.6-4.3l0,0c-1.6-0.7-3.3-1.1-5.1-1.2
		c-4-0.2-9.1,1.5-11.3,5.7c-0.1,0.1-0.2,0.2-0.3,0.3c-0.1,0-0.3,0-0.4-0.1C117.8,45.9,117.5,45.8,117.2,45.8L117.2,45.8z"/>
	<path class="st1" d="M136.1,72.2l0.9,9.2c0,0-4,4.7-10,3.3s-7-5.4-7-5.4l-0.3-16.8c0,0,4.4-2.5,2.9-12c0,0,9.3,2.6,18.1,1.3
		c0,0,0.4,10.9-0.3,15.5S136.1,72.2,136.1,72.2z"/>
	<path class="st2" d="M129.2,85.6c-0.8,0-1.5-0.1-2.3-0.2c-6.2-1.4-7.3-5.6-7.3-5.8c0,0,0-0.1,0-0.1l-0.3-16.8
		c0-0.2,0.1-0.4,0.3-0.5c0,0,4-2.4,2.6-11.5c0-0.2,0-0.4,0.2-0.5c0.1-0.1,0.3-0.2,0.5-0.1c0.1,0,9.3,2.6,17.9,1.3
		c0.1,0,0.3,0,0.4,0.1c0.1,0.1,0.2,0.2,0.2,0.4c0,0.5,0.3,11-0.3,15.6c-0.5,3.9-3.2,4.9-4.3,5.2l0.8,8.8c0,0.1,0,0.3-0.1,0.4
		C135.3,84.1,132.3,85.5,129.2,85.6z M120.6,79.3c0.1,0.5,1.2,3.8,6.6,5c5,1.1,8.5-2.2,9.3-3l-0.8-9c0-0.1,0-0.3,0.1-0.4
		c0.1-0.1,0.2-0.2,0.4-0.2l0,0c0.1,0,3.4-0.3,3.9-4.4c0.5-3.9,0.3-12.5,0.3-14.8c-5.7,0.6-11.4,0.1-17-1.2c1,8-2,10.9-3,11.6
		L120.6,79.3z"/>
	<path class="st1" d="M123.3,62.2c-0.2-0.8-0.7-1.5-1.4-2c-0.6-0.5-1.4-0.8-2.1-1c-0.4-0.2-0.8-0.2-1.3-0.2
		c-0.3,0.1-0.6,0.2-0.8,0.3c-0.6,0.3-1.1,0.9-1.4,1.5c-0.1,0.6-0.1,1.1,0,1.7c0.1,0.6,0.3,1.2,0.5,1.8c1.1,2.4,3.9,3.4,6.2,2.4
		c0,0,0,0,0.1,0"/>
	<path class="st2" d="M121.1,67.6c-0.6,0-1.2-0.1-1.8-0.3c-1.3-0.5-2.4-1.5-2.9-2.8c-0.3-0.6-0.4-1.3-0.5-1.9
		c-0.1-0.6-0.1-1.3,0.1-1.9c0.3-0.8,0.9-1.4,1.6-1.8c0.3-0.2,0.6-0.3,1-0.4c0.5,0,1,0,1.5,0.2c0.8,0.2,1.6,0.6,2.3,1.1
		c0.8,0.6,1.3,1.4,1.6,2.3c0.1,0.3-0.1,0.6-0.4,0.6c-0.3,0.1-0.6-0.1-0.6-0.4c0,0,0,0,0,0c-0.2-0.7-0.6-1.3-1.2-1.8
		c-0.6-0.4-1.3-0.7-2-0.9c-0.3-0.1-0.7-0.2-1-0.2c-0.2,0-0.4,0.1-0.7,0.3c-0.5,0.3-0.9,0.7-1.1,1.3c-0.1,0.5-0.1,1,0,1.5
		c0.1,0.6,0.2,1.1,0.5,1.7c0.9,2.1,3.4,3.1,5.5,2.1c0,0,0,0,0.1,0c0.3-0.1,0.6,0,0.7,0.2c0.1,0.3,0,0.6-0.2,0.7
		C122.6,67.5,121.8,67.6,121.1,67.6z"/>
	<path class="st2" d="M136.3,76.8c-2.2,0.3-4.5-0.4-6.1-1.8c-2.7-2.5-2.5-4-2.5-4s4.3,2.2,8.2,1.4L136.3,76.8z"/>
	<path class="st2" d="M135.3,77.4c-2,0-4-0.7-5.5-2.1c-2.8-2.6-2.7-4.2-2.6-4.4c0-0.2,0.1-0.3,0.3-0.4c0.1-0.1,0.3-0.1,0.5,0
		c0,0,4.2,2.1,7.8,1.3c0.1,0,0.3,0,0.4,0.1c0.1,0.1,0.2,0.2,0.2,0.3l0.4,4.4c0,0.3-0.2,0.5-0.4,0.5C136,77.4,135.7,77.4,135.3,77.4z
		 M128.4,71.9c0.5,1,1.2,2,2.1,2.7c1.4,1.3,3.3,1.9,5.3,1.8l-0.4-3.4C133,73.2,130.6,72.9,128.4,71.9L128.4,71.9z"/>
	<ellipse transform="matrix(0.9908 -0.1355 0.1355 0.9908 -6.5943 17.9559)" class="st2" cx="128.6" cy="57.4" rx="0.8" ry="1.1"/>
	<ellipse transform="matrix(0.9908 -0.1355 0.1355 0.9908 -6.5315 19.3098)" class="st2" cx="138.5" cy="57.6" rx="0.8" ry="1.1"/>
	<path class="st2" d="M133.1,67c-2.1-0.1-4.1-0.8-5.7-2.2c-0.2-0.1-0.3-0.4-0.2-0.7c0.1-0.2,0.4-0.3,0.7-0.2c0,0,0.1,0,0.1,0.1
		c5.9,4.3,9.2,0.3,9.4,0.1c0.2-0.2,0.5-0.3,0.7-0.1c0.2,0.2,0.3,0.5,0.1,0.7C136.9,66.2,135,67,133.1,67z"/>
	<path class="st2" d="M131.9,61.2h-6c-1,0-1.9-0.7-1.9-1.7c0,0,0,0,0-0.1v-2.9c0-1,0.8-1.8,1.8-1.8h6c1,0,1.8,0.8,1.8,1.8v2.9
		C133.6,60.3,132.9,61.1,131.9,61.2z M125.9,55.6c-0.5,0-0.8,0.4-0.8,0.8v0v2.9c0,0.5,0.4,0.8,0.8,0.8h6c0.5,0,0.8-0.4,0.8-0.8v-2.9
		c0-0.5-0.4-0.8-0.8-0.8l0,0H125.9z"/>
	<path class="st2" d="M142.6,61.2h-6c-1,0-1.8-0.8-1.8-1.8c0,0,0,0,0,0v-2.9c0-1,0.8-1.8,1.8-1.8l0,0h6c1,0,1.8,0.8,1.8,1.8
		c0,0,0,0,0,0v2.9C144.4,60.4,143.6,61.2,142.6,61.2L142.6,61.2z M136.6,55.6c-0.5,0-0.8,0.4-0.8,0.8v0v2.9c0,0.5,0.4,0.8,0.8,0.8h6
		c0.5,0,0.8-0.4,0.8-0.8v-2.9c0-0.5-0.4-0.8-0.8-0.8l0,0H136.6z"/>
	<path class="st1" d="M133.9,57.2c0,0,3.4,4.5,2.7,5.3s-2.8,0.4-2.8,0.4"/>
	<path class="st2" d="M134.9,63.6c-0.4,0-0.8,0-1.2-0.1c-0.3,0-0.4-0.3-0.4-0.6c0,0,0,0,0,0c0.1-0.3,0.3-0.4,0.6-0.4
		c0.6,0.1,1.9,0.2,2.3-0.2c0.1-0.4-1.1-2.7-2.7-4.7c-0.2-0.2-0.1-0.5,0.1-0.7s0.5-0.1,0.7,0.1l0,0c1.6,2.2,3.4,5,2.7,6
		C136.4,63.4,135.6,63.7,134.9,63.6z"/>
	<path class="st1" d="M129.4,241.4c-0.3,0-0.5-0.2-0.5-0.5l-0.1-80.8c0-0.3,0.2-0.5,0.5-0.5l0,0c0.3,0,0.5,0.2,0.5,0.5l0.1,80.8
		C129.9,241.1,129.7,241.4,129.4,241.4z"/>
	
		<rect x="101" y="133.5" transform="matrix(0.9995 -3.088741e-02 3.088741e-02 0.9995 -4.1796 3.9428)" class="st1" width="49.1" height="7.6"/>
	<path class="st2" d="M101.1,142.3c-0.1,0-0.3-0.1-0.4-0.1c-0.1-0.1-0.2-0.2-0.2-0.4l-0.2-7.6c0-0.3,0.2-0.5,0.5-0.5c0,0,0,0,0,0
		l49.1-1.5c0.1,0,0.3,0.1,0.4,0.1c0.1,0.1,0.2,0.2,0.2,0.4l0.2,7.6c0,0.3-0.2,0.5-0.5,0.5c0,0,0,0,0,0L101.1,142.3L101.1,142.3z
		 M101.4,134.7l0.2,6.5l48.1-1.5l-0.2-6.5L101.4,134.7z"/>
	
		<rect x="123.7" y="133.4" transform="matrix(0.9995 -3.018961e-02 3.018961e-02 0.9995 -4.0821 3.9708)" class="st1" width="11.5" height="7.6"/>
	<path class="st2" d="M123.9,141.6c-0.1,0-0.3,0-0.3-0.1c-0.1-0.1-0.2-0.2-0.2-0.4l-0.2-7.6c0-0.3,0.2-0.5,0.5-0.5c0,0,0,0,0,0
		l11.4-0.4c0.3,0,0.5,0.2,0.5,0.5l0.2,7.6c0,0.1-0.1,0.3-0.1,0.4c-0.1,0.1-0.2,0.1-0.4,0.2L123.9,141.6L123.9,141.6z M124.2,134
		l0.2,6.5l10.4-0.3l-0.2-6.5L124.2,134z"/>
	
		<rect x="126.3" y="135.1" transform="matrix(0.9995 -3.018961e-02 3.018961e-02 0.9995 -4.0818 3.9777)" class="st2" width="6.8" height="4.2"/>
	<path class="st2" d="M117.8,90c-0.9,0-1.9-0.1-2.7-0.5c-0.8-0.3-1.4-1-1.7-1.7c-1.7-4.4,2.2-9.2,2.4-9.4c0.2-0.2,0.5-0.3,0.7-0.1
		c0.2,0.2,0.3,0.5,0.1,0.7c0,0,0,0,0,0.1c0,0-3.7,4.5-2.2,8.4c0.2,0.5,0.6,0.9,1.1,1.2c3.2,1.4,10.5-1.4,10.6-1.4
		c0.3-0.1,0.6,0,0.7,0.3c0.1,0.3,0,0.6-0.3,0.7c0,0,0,0,0,0C123.7,89.2,120.8,89.8,117.8,90z"/>
	<path class="st2" d="M138.7,90.6c-3.6,0-8.4-2.9-8.6-3c-0.2-0.1-0.3-0.5-0.2-0.7c0,0,0,0,0,0c0.1-0.2,0.5-0.3,0.7-0.2
		c2,1.2,7.7,4,10,2.4s0.6-7.1-0.2-9.2c-0.1-0.3,0-0.6,0.3-0.7c0.3-0.1,0.6,0,0.7,0.3l0,0c0.1,0.3,3.2,8.1-0.2,10.4
		C140.5,90.5,139.6,90.7,138.7,90.6z"/>
	<path class="st2" d="M130.7,130.9c-0.3,0-0.5-0.2-0.5-0.5c0-30.1-1.3-40.7-1.3-40.8c0-0.3,0.2-0.5,0.5-0.5c0.2,0,0.4,0.2,0.5,0.4
		c0,0.1,1.3,10.8,1.3,40.9C131.2,130.6,131,130.9,130.7,130.9z"/>
	<path class="st1" d="M102.5,148.6c-0.2,2-0.9,3.5,1.2,4.4c2.8,1.1,5.7,1.9,8.6,2.9c0.3,0.1,0.6,0.2,0.8,0.4
		c0.2,0.2,0.3,0.6,0.2,0.8c-0.2,0.3-0.6,0.3-1,0.3c-2.2-0.2-4.4-0.7-6.5-1.3c1.7,0.4,3.2,1,4.7,1.8c0.6,0.3,1.2,0.9,0.9,1.5
		c-0.2,0.4-0.8,0.4-1.2,0.4c-1.8-0.2-3.6-0.5-5.4-0.9c1.9,0.2,3.7,1.1,5.1,2.5c0.1,0.1,0.2,0.2,0.2,0.4c0,0.4-0.5,0.6-0.9,0.6
		c-1.6,0-3.1-0.4-4.6-1l3.6,1.8c0.7,0.3,1.4,0.9,1.2,1.6c-0.1,0.4-0.5,0.7-0.9,0.7c-1.6,0.2-4-0.6-5.6-1c-1.6-0.5-3.1-1.2-4.4-2.2
		c-3.3-2.2-10.2-9.2-12.3-12.7l4-8.3C94.1,144.1,98.2,146.6,102.5,148.6z"/>
	<path class="st2" d="M108.1,166.1c-1.3-0.1-2.6-0.3-3.9-0.8c-0.4-0.1-0.9-0.2-1.2-0.3c-1.7-0.5-3.2-1.2-4.6-2.3
		c-3.3-2.3-10.2-9.2-12.5-12.9c-0.1-0.2-0.1-0.3,0-0.5l4-8.3c0.1-0.1,0.2-0.2,0.3-0.3c0.2,0,0.3,0,0.4,0.1c3.8,2.9,7.8,5.3,12.1,7.3
		c0.2,0.1,0.3,0.3,0.3,0.5c0,0.4-0.1,0.7-0.2,1c-0.2,1.6-0.3,2.3,1,2.8c1.8,0.7,3.8,1.4,5.7,1.9c1,0.3,1.9,0.6,2.9,0.9
		c0.4,0.1,0.7,0.3,1,0.5c0.4,0.4,0.5,1,0.2,1.5c-0.4,0.4-0.9,0.6-1.5,0.5l-0.9-0.1c0.3,0.2,0.5,0.5,0.6,0.9c0.1,0.3,0,0.6-0.1,0.9
		c-0.4,0.5-1.1,0.7-1.7,0.6l-0.8-0.1c0.4,0.3,0.7,0.5,1,0.9c0.2,0.2,0.3,0.4,0.4,0.7c0,0.3,0,0.5-0.2,0.7c-0.3,0.3-0.7,0.5-1.2,0.4
		h-0.5c1.4,0.8,1.4,1.6,1.3,2.1c-0.2,0.6-0.7,1-1.3,1.1C108.6,166,108.3,166,108.1,166.1z M86.9,149.5c2.3,3.6,8.9,10.2,12,12.4
		c1.3,1,2.7,1.7,4.3,2.2c0.4,0.1,0.8,0.2,1.3,0.3c1.3,0.5,2.7,0.7,4.1,0.7c0.2,0,0.4-0.2,0.5-0.4c0.1-0.3-0.4-0.8-1-1l-3.6-1.8
		c-0.3-0.1-0.4-0.4-0.2-0.7c0.1-0.2,0.4-0.4,0.7-0.2c1.4,0.6,2.8,0.9,4.3,0.9c0.1,0,0.2,0,0.3,0l0,0c-0.9-0.9-2-1.6-3.3-2
		c-0.5-0.1-1.1-0.2-1.6-0.4c-0.3-0.1-0.4-0.3-0.4-0.6c0.1-0.3,0.3-0.5,0.6-0.4c0.6,0.1,1.1,0.2,1.7,0.4c1.2,0.2,2.4,0.4,3.7,0.5
		c0.6,0,0.7-0.1,0.7-0.1c-0.1-0.3-0.3-0.6-0.7-0.8c-0.9-0.5-1.8-0.9-2.8-1.2c-0.6-0.2-1.2-0.3-1.9-0.5c-0.3-0.1-0.4-0.4-0.3-0.6
		c0.1-0.3,0.3-0.4,0.6-0.4c0.6,0.1,1.3,0.3,1.9,0.5c1.5,0.4,3,0.6,4.5,0.8c0.4,0.1,0.5,0,0.5,0c0-0.1,0-0.1-0.1-0.2
		c-0.2-0.1-0.4-0.2-0.6-0.3c-0.9-0.3-1.9-0.6-2.8-0.9c-1.9-0.6-3.9-1.2-5.8-2c-2.2-0.9-1.9-2.4-1.7-3.9l0.1-0.6
		c-4-2-7.9-4.4-11.5-7.1L86.9,149.5z"/>
	<path class="st3" d="M100.9,85c0,0-35.3,31.4-38.4,37.3c-3.2,5.9,26.9,34.4,26.9,34.4l8.2-12.5L85,123.6l28.9-19.6L100.9,85z"/>
	<path class="st2" d="M116.9,110.5h-0.1c-0.6-0.1-4.5-2.8-6.7-4.4c-0.1-0.1-0.2-0.3-0.2-0.4v-8.3c0-0.3,0.2-0.5,0.5-0.5c0,0,0,0,0,0
		H122c0.1,0,0.3,0.1,0.4,0.2c0.1,0.1,0.1,0.2,0.1,0.4l-0.5,8.3c0,0.1-0.1,0.2-0.1,0.3C118.2,110.1,117.3,110.5,116.9,110.5z
		 M110.9,105.3c2.6,1.8,5.4,3.7,6,4.1c1.4-1.2,2.8-2.6,4-4l0.5-7.6h-10.4L110.9,105.3z"/>
	<path class="st1" d="M201.1,94.2c0.6-0.4,1.3-0.6,2-0.6c0.5,0,1.1,0.2,1.6,0.4c2.4,0.9,4.9,1.9,7.2,3c0.6,0.3,1.2,0.6,1.3,1.3
		s-0.6,1.3-1.4,1.5s-1.5,0-2.2,0.2c0.8-0.2,1.5,0.8,1.3,1.5c-0.2,0.8-1,1.4-1.8,1.4c-0.8,0-1.6-0.1-2.4-0.3c0.7,0.1,1.3,0.7,1.2,1.4
		c0,0.1,0,0.3-0.1,0.4c-0.4,0.8-1.3,1.2-2.1,1.1c-0.8-0.1-1.7-0.4-2.4-0.8c0.9,0.5,2,1.3,1.8,2.4c-0.3,0.8-1.1,1.3-1.9,1.2
		c-0.8-0.2-1.6-0.4-2.3-0.8c-5.2-2-14.1,0.9-14.2,0.6c-0.6-1.4-0.5-4.6-0.7-6.1C190.8,98.9,195.9,96.4,201.1,94.2z"/>
	<path class="st2" d="M203.4,108.7h-0.2c-0.7-0.1-1.3-0.3-1.9-0.6l-0.6-0.2c-3.9-1.5-10-0.2-12.6,0.4c-1.4,0.3-1.7,0.4-1.9-0.1
		c-0.4-1.4-0.6-2.8-0.6-4.3c0-0.8-0.1-1.5-0.1-2c0-0.2,0.1-0.4,0.2-0.5c4.1-2.5,8.4-4.8,12.8-6.7c0.8-0.4,1.6-0.7,2.4-1.1l0,0
		c0.7-0.4,1.5-0.6,2.3-0.7c0.6,0,1.2,0.2,1.7,0.4c2.4,0.9,4.9,1.9,7.3,3c0.4,0.2,1.5,0.7,1.6,1.7c0,1-0.7,2-1.8,2.1
		c-0.2,0-0.5,0.1-0.7,0.1c0.2,0.4,0.3,0.9,0.2,1.3c-0.3,1-1.2,1.7-2.2,1.8c-0.3,0-0.5,0-0.8,0c0.1,0.4,0.1,0.8-0.1,1.2
		c-0.5,1-1.6,1.5-2.6,1.4h-0.2c0.2,0.4,0.2,0.8,0.1,1.2C205.4,108.1,204.5,108.8,203.4,108.7z M196.3,106.2c1.6,0,3.3,0.2,4.8,0.8
		l0.6,0.2c0.5,0.3,1,0.4,1.6,0.5c0.6,0.1,1.2-0.2,1.4-0.8c0.2-0.7-0.7-1.4-1.5-1.8c-0.3-0.1-0.3-0.4-0.2-0.7
		c0.1-0.3,0.4-0.3,0.7-0.2c0.7,0.4,1.4,0.7,2.2,0.8c0.7,0.1,1.3-0.2,1.6-0.8c0.1-0.3,0-0.6-0.1-0.8c0-0.1-0.1-0.1-0.1-0.2l-0.5-0.1
		c-0.3-0.1-0.4-0.4-0.3-0.7c0.1-0.2,0.2-0.3,0.4-0.3c0.3,0,0.6,0,0.8,0.2c0.5,0.1,1,0.2,1.5,0.2c0.6,0,1.1-0.4,1.4-1
		c0-0.3,0-0.5-0.2-0.7c-0.1-0.1-0.3-0.2-0.5-0.2c-0.3,0.1-0.6-0.1-0.6-0.4c-0.1-0.3,0.1-0.6,0.4-0.6l0,0c0.4-0.1,0.8-0.1,1.3-0.2
		c0.3,0,0.7,0,1-0.1c0.5-0.1,1-0.5,1-0.9s-0.6-0.7-1-0.9c-2.4-1.1-4.8-2.1-7.2-3c-0.4-0.2-0.9-0.3-1.4-0.3c-0.6,0-1.3,0.2-1.8,0.6
		l0,0c-0.8,0.4-1.6,0.7-2.4,1.1c-4.3,1.8-8.4,4-12.4,6.4c0.1,0.5,0.1,1.1,0.1,1.7c0,1.2,0.1,2.4,0.4,3.6l0.8-0.2
		C190.7,106.6,193.5,106.3,196.3,106.2z"/>
	<polygon class="st2" points="191.5,113.3 235.7,67.1 236.6,68.1 193.2,115.7 	"/>
	<path class="st2" d="M193.2,116.2L193.2,116.2c-0.2,0-0.3-0.1-0.4-0.2l-1.7-2.4c-0.1-0.2-0.1-0.5,0.1-0.6l44.2-46.2
		c0.1-0.1,0.2-0.2,0.4-0.2l0,0c0.1,0,0.3,0.1,0.4,0.2l0.9,1c0.2,0.2,0.2,0.5,0,0.7L193.6,116C193.5,116.1,193.3,116.2,193.2,116.2z
		 M192.1,113.4l1.1,1.5l42.7-46.8l-0.3-0.3L192.1,113.4z"/>
	<path class="st1" d="M203.6,96.2l-0.3,1.3l3.4,0.9c0.7,0.1,1.4,0.4,1.9,0.9c0.6,0.5,0.7,1.3,0.2,1.9c-0.5,0.6-1.5,0.4-2.3,0.3
		c-1.7-0.2-3.4-0.1-5,0.4c-0.8,0.3-1.6,0.6-2.4,1l-1.4,0.7"/>
	<path class="st2" d="M197.7,104.3c-0.3,0-0.5-0.2-0.5-0.5c0-0.2,0.1-0.4,0.3-0.5l1.4-0.7c0.8-0.4,1.6-0.8,2.5-1.1
		c1.7-0.6,3.5-0.7,5.3-0.5c0.7,0.1,1.5,0.2,1.8-0.2c0.2-0.4,0.1-0.9-0.2-1.2c-0.5-0.4-1.1-0.7-1.7-0.8l-3.4-0.9
		c-0.3-0.1-0.4-0.3-0.4-0.6l0.3-1.3c0-0.3,0.3-0.5,0.6-0.5c0.3,0,0.5,0.3,0.5,0.6c0,0.1,0,0.1,0,0.2l-0.2,0.8l2.9,0.8
		c0.8,0.1,1.5,0.5,2.1,1c0.7,0.7,0.9,1.8,0.3,2.6c-0.7,0.8-1.9,0.6-2.7,0.5c-1.6-0.2-3.3-0.1-4.8,0.4c-0.8,0.3-1.6,0.6-2.3,1
		l-1.4,0.7C197.8,104.3,197.8,104.3,197.7,104.3z"/>
	<path class="st3" d="M146.8,81.3c0,0,14.9,25.3,17,25.7S190,95.5,190,95.5l4.6,11.8c0,0-23.7,25.1-32.2,21.2s-18.6-20.9-18.6-20.9
		L146.8,81.3z"/>
	<path class="st1" d="M106.8,150c-0.3,0-0.5-0.1-0.6-0.4c0-0.3,0.1-0.5,0.4-0.6c2.2-0.7,3.6-2.8,3.7-5.1c0-0.3,0.2-0.5,0.5-0.5l0,0
		c0.3,0,0.5,0.2,0.5,0.5c0,0,0,0,0,0c0,2.7-1.8,5.1-4.4,6C106.9,150,106.8,150,106.8,150z"/>
	<path class="st1" d="M148.4,151L148.4,151c-0.7-0.1-1.3-0.5-1.8-0.9c-1-0.8-1.9-1.7-2.7-2.7c-0.9-1.1-1.2-2.5-1.1-3.9
		c0-0.3,0.3-0.5,0.6-0.4s0.5,0.3,0.4,0.6c-0.1,1.1,0.2,2.2,0.9,3.1c0.7,0.9,1.6,1.8,2.5,2.5c0.3,0.4,0.8,0.6,1.2,0.7
		c0.3,0,0.5,0.3,0.4,0.5c0,0,0,0,0,0C148.9,150.8,148.6,151,148.4,151z"/>
	<path class="st1" d="M129.6,157.6c-0.1,0-0.1,0-0.2,0c-0.2-0.1-0.3-0.4-0.2-0.7c2-4.1,2.8-8.6,2.4-13.2c0-0.3,0.2-0.5,0.4-0.6
		c0.3,0,0.5,0.2,0.5,0.4c0,0,0,0,0,0c0.4,4.7-0.4,9.5-2.5,13.7C129.9,157.5,129.8,157.6,129.6,157.6z"/>
	<path class="st2" d="M149,130.9c-0.3,0-0.5-0.2-0.5-0.5l-0.6-34.2c0-0.3,0.2-0.5,0.5-0.5c0,0,0,0,0,0c0.3,0,0.5,0.2,0.5,0.5
		c0,0,0,0,0,0.1l0.6,34.2C149.5,130.6,149.3,130.9,149,130.9C149,130.9,149,130.9,149,130.9L149,130.9z"/>
	<path class="st2" d="M90.3,120.6c-0.3,0-0.5-0.2-0.5-0.5c0-0.2,0.1-0.3,0.2-0.4l13.7-9.3c0.2-0.2,0.6-0.1,0.7,0.1c0,0,0,0,0,0
		c0.2,0.2,0.1,0.6-0.1,0.7l-13.7,9.3C90.5,120.5,90.4,120.6,90.3,120.6z"/>
	<g>
		<path class="st4" d="M242.2,103.6c0,0-2.3,1.3,1.6,1.8c4.8,0.5,7.2,0.5,12.5-0.5c0,0,1.4,0.9,3.3,1.6
			C247.8,111.5,232.9,106.2,242.2,103.6L242.2,103.6z"/>
		<path class="st4" d="M240.7,97c0,0-2.6,1.9,1.4,2.3c5.1,0.5,9.1,0.6,16.1-0.8c0,0,1,1,2.5,1.5C246.4,104.2,230.5,100.4,240.7,97
			L240.7,97z"/>
		<path class="st5" d="M252.9,85.8c2.9,3.4-0.8,6.4-0.8,6.4s7.4-3.8,4-8.6c-3.2-4.5-5.6-6.7,7.6-14.3
			C263.7,69.3,243,74.4,252.9,85.8L252.9,85.8z"/>
		<path class="st4" d="M268.5,108.5c0,0,1.7,1.4-1.9,2.5c-6.8,2.1-28.4,2.7-34.3,0.1c-2.2-0.9,1.9-2.2,3.2-2.5
			c1.3-0.3,2.1-0.2,2.1-0.2c-2.4-1.7-15.5,3.3-6.6,4.7C255,116.9,274.8,111.3,268.5,108.5L268.5,108.5z"/>
		<path class="st4" d="M243.3,90.1c0,0-11,2.6-3.9,3.6c3,0.4,8.9,0.3,14.5-0.2c4.5-0.4,9.1-1.2,9.1-1.2s-1.6,0.7-2.8,1.5
			c-11.1,2.9-32.6,1.6-26.4-1.4C239,89.9,243.3,90.1,243.3,90.1L243.3,90.1z"/>
		<path class="st4" d="M263,101.1c11.3-5.9,6.1-11.5,2.4-10.8c-0.9,0.2-1.3,0.3-1.3,0.3s0.3-0.5,1-0.7c7.2-2.5,12.8,7.5-2.3,11.5
			C262.7,101.4,262.9,101.3,263,101.1L263,101.1z"/>
		<path class="st5" d="M256.1,56.9c0,0,6.3,6.3-5.9,15.9c-9.8,7.7-2.2,12.1,0,17.2c-5.7-5.2-9.9-9.7-7.1-13.9
			C247.2,69.9,258.7,66.9,256.1,56.9L256.1,56.9z"/>
		<path class="st4" d="M244.4,117.1c10.9,0.7,27.5-0.4,27.9-5.5c0,0-0.8,1.9-9,3.5c-9.3,1.7-20.7,1.5-27.5,0.4
			C235.9,115.5,237.3,116.6,244.4,117.1L244.4,117.1z"/>
		<path class="st5" d="M271.8,126.3h-0.3v-0.2h0.9v0.2h-0.3v0.9h-0.2L271.8,126.3L271.8,126.3L271.8,126.3z M273.6,126.3
			L273.6,126.3l-0.3,0.9h-0.2l-0.3-0.9h0v0.9h-0.2v-1.1h0.3l0.3,0.8l0.3-0.8h0.3v1.1h-0.2L273.6,126.3L273.6,126.3z"/>
		<path class="st5" d="M242.6,136.7c-1,0.9-2.1,1.4-3.1,1.4c-1.4,0-2.1-0.8-2.1-2.2c0-1.4,0.8-2.5,4-2.5h1.2V136.7L242.6,136.7
			L242.6,136.7z M245.5,139.9V130c0-2.5-1.4-4.2-4.9-4.2c-2,0-3.8,0.5-5.2,1.1l0.4,1.7c1.1-0.4,2.6-0.8,4-0.8c2,0,2.9,0.8,2.9,2.5
			v1.2h-1c-4.9,0-7,1.9-7,4.7c0,2.4,1.4,3.8,4.2,3.8c1.7,0,3.1-0.7,4.3-1.8l0.2,1.5H245.5L245.5,139.9z"/>
		<path class="st5" d="M254.9,139.9h-3.5l-4.2-13.8h3.1l2.6,8.5l0.6,2.5c1.3-3.7,2.3-7.4,2.7-11h3
			C258.4,130.6,256.9,135.6,254.9,139.9L254.9,139.9z"/>
		<path class="st5" d="M268.4,136.7c-1,0.9-2.1,1.4-3.1,1.4c-1.4,0-2.1-0.8-2.1-2.2c0-1.4,0.8-2.5,4-2.5h1.2L268.4,136.7
			L268.4,136.7L268.4,136.7z M271.2,139.9V130c0-2.5-1.4-4.2-4.9-4.2c-2,0-3.8,0.5-5.2,1.1l0.4,1.7c1.1-0.4,2.6-0.8,4-0.8
			c2,0,2.9,0.8,2.9,2.5v1.2h-1c-4.9,0-7,1.9-7,4.7c0,2.4,1.4,3.8,4.2,3.8c1.7,0,3.1-0.7,4.3-1.8l0.2,1.5H271.2L271.2,139.9z"/>
		<path class="st5" d="M231.5,142.2c-0.8,1.2-2.1,2.1-3.5,2.6l-1.4-1.6c1.1-0.6,2-1.5,2.4-2.3c0.4-0.7,0.5-1.7,0.5-4v-15.8h3v15.5
			C232.5,139.8,232.3,141,231.5,142.2L231.5,142.2z"/>
	</g>
</g>
<g id="essentiel" class="st6">
	<path class="st7" d="M361.6,208.5c0,0-5.5-0.1-11.5,10.1l0,0.1l0-0.1c-2.7-14-13.6-22.8-13.6-22.8c-2.1,6.6-2.7,13.5-2,20.4
		c-2.5-2.2-5.3-4.1-8.4-5.5c-0.3,8.9,3.4,17.2,6.7,22.8h10.9l0,0h1.8h4.4h6C359,228.8,363.9,219.2,361.6,208.5z"/>
	<path class="st8" d="M362.3,208.3c-0.1-0.3-0.4-0.6-0.7-0.6c-0.2,0-5.4,0-11.3,9c-3.2-13.1-13.1-21.2-13.5-21.5
		c-0.2-0.1-0.4-0.2-0.7-0.1c-0.2,0.1-0.4,0.2-0.5,0.5c-1.9,6.1-2.6,12.6-2.2,19c-2.2-1.8-4.6-3.3-7.2-4.5c-0.2-0.1-0.5-0.1-0.7,0.1
		c-0.2,0.1-0.3,0.3-0.3,0.6c-0.2,9,3.4,17.3,6.6,22.8h-1.7l3.3,16.5H354l3.3-16.5h-0.5C360,228.6,364.7,219.1,362.3,208.3z
		 M361.1,209.3c1.8,10-2.6,18.9-5.6,23.5h-5.1c-0.1-0.1-0.3-0.1-0.5,0h-3.7c0.2-4.5,1.6-8.8,3.9-12.7c0.2-0.4,0.4-0.8,0.7-1.1
		C355.4,211.2,359.6,209.7,361.1,209.3z M336.8,197.1c2.6,2.3,10.3,10.2,12.6,21.4l-0.5,0.9c-3.2,5.8-4,10.4-4,13.4h-6.1
		c-1.8-5.3-3-10.8-3.5-16.3c0.1-0.2,0.1-0.4-0.1-0.6C334.5,209.5,335,203.2,336.8,197.1z M333.8,216.6c0.6,5.6,1.7,11,3.5,16.3h-4
		c-3-5.2-6.4-12.7-6.4-21C329.3,213.1,331.6,214.7,333.8,216.6z"/>
</g>
<g id="fondamental">
	<g>
		<circle class="st3" cx="338.4" cy="183.1" r="5.4"/>
	</g>
	<path class="st1" d="M361.6,208.5c0,0-2.2,0-5.3,2.4c2.7-12.1-1.6-23-1.6-23c-4.7,4.4-8.5,9.7-11.2,15.6c-3.5-5-7.1-7.8-7.1-7.8
		c-2.1,6.6-2.7,13.5-2,20.4c-2.5-2.2-5.3-4.1-8.4-5.5c-0.3,8.9,3.4,17.2,6.7,22.8h10.9l0,0h1.8h4.4h6
		C359,228.8,363.9,219.2,361.6,208.5z"/>
	<path class="st0" d="M362.3,208.3c-0.1-0.3-0.4-0.6-0.7-0.6c-0.1,0-1.8,0-4.2,1.5c1.9-11.4-1.9-21.1-2.1-21.6
		c-0.1-0.2-0.3-0.4-0.5-0.4c-0.2-0.1-0.5,0-0.6,0.2c-4.3,4.1-7.9,8.8-10.6,14.1c-0.9-5-2-9.5-2.9-12.8c2.2-0.9,3.8-3.1,3.8-5.6
		c0-2.6-1.7-4.9-4-5.7c-0.4-0.2-0.9-0.3-1.4-0.3c-0.3,0-0.5-0.1-0.8-0.1c-3.4,0-6.1,2.7-6.1,6.1c0,3.1,2.4,5.7,5.4,6.1
		c0.2,0,0.5,0,0.7,0c0.4,0,0.7,0,1-0.1c0.8,3,1.8,6.9,2.6,11.4c-2.7-3.3-4.9-5.1-5.2-5.3c-0.2-0.1-0.4-0.2-0.7-0.1
		c-0.2,0.1-0.4,0.2-0.5,0.5c-1.9,6.1-2.6,12.6-2.2,19c-2.2-1.8-4.6-3.3-7.2-4.5c-0.2-0.1-0.5-0.1-0.7,0.1c-0.2,0.1-0.3,0.4-0.3,0.6
		c-0.3,9,3.4,17.4,6.6,22.8h-1.7l3.3,16.5H354l3.3-16.5h-0.5C360,228.6,364.7,219,362.3,208.3z M333.7,183.6
		c1.2-0.3,2.5-0.2,3.4-0.1c0,0.5-0.1,1-0.1,1.5c0,0.9,0.1,1.7,0.2,2.7C335.4,187.2,333.9,185.6,333.7,183.6z M337.3,182.1
		C337.3,182.1,337.3,182.1,337.3,182.1c-0.9-0.1-2.3-0.2-3.6,0c0.2-1.1,0.8-2,1.6-2.7c0.8-0.7,1.9-1.1,3-1.1h0.1
		C338.1,179.3,337.6,180.6,337.3,182.1z M339.1,187.8c-0.1,0-0.2,0-0.3,0c-0.2-0.7-0.2-1.4-0.3-2c0,0,0,0,0,0c-0.1-1,0-1.9,0.1-2.7
		c0.3-1.9,0.9-3.4,1.3-4.4c1.9,0.6,3.2,2.4,3.2,4.5c0,1.9-1.1,3.5-2.7,4.3C340,187.6,339.5,187.7,339.1,187.8z M354.4,189.2
		c1,2.9,3.4,11.7,1.3,21.3c-1.6,1.3-3.4,3.3-5.3,6.2c-1.3-5.3-3.7-9.8-6.1-13.3C346.8,198.2,350.2,193.4,354.4,189.2z M333.2,232.9
		c-3-5.2-6.4-12.7-6.4-21c2.5,1.3,4.8,2.8,7,4.7c0.6,5.6,1.7,11,3.5,16.3H333.2z M345.2,228.8c-0.2,0.8-0.3,1.6-0.3,2.3
		c-0.1,0.6-0.1,1.1-0.1,1.7h-0.2h-1.4h-4.4c-1.8-5.3-3-10.8-3.5-16.3c0.1-0.2,0-0.4-0.1-0.6c-0.6-6.3-0.1-12.7,1.7-18.8
		c1.2,1.1,3.5,3.4,5.9,6.6c0,0,0,0,0,0c0.3,0.4,0.6,0.9,0.9,1.3c0.3,0.5,0.6,0.9,0.9,1.4c2,3.3,3.9,7.4,4.8,12l-0.5,0.9
		C346.8,223,345.7,226.2,345.2,228.8C345.2,228.8,345.2,228.8,345.2,228.8z M346.2,232.8L346.2,232.8c0.2-4.5,1.6-8.9,3.9-12.7
		c0.2-0.4,0.4-0.8,0.7-1.1c1.5-2.5,2.9-4.3,4.2-5.7c0.7-0.7,1.4-1.3,2-1.8c1.9-1.5,3.4-2,4.1-2.1c1.8,10-2.6,18.9-5.6,23.5H346.2z"
		/>
</g>
<g id="expert" class="st6">
	<path class="st7" d="M361.6,208.5c0,0-2.2,0-5.3,2.4c2.7-12.1-1.6-23-1.6-23c-4.7,4.4-8.5,9.7-11.2,15.6c-3.5-5-7.1-7.8-7.1-7.8
		c-2.1,6.6-2.7,13.5-2,20.4c-2.5-2.2-5.3-4.1-8.4-5.5c-0.3,8.9,3.4,17.2,6.7,22.8h10.9l0,0h1.8h4.4h6
		C359,228.8,363.9,219.2,361.6,208.5z"/>
	<path class="st8" d="M362.3,208.3c-0.1-0.3-0.4-0.6-0.7-0.6c-0.1,0-1.8,0-4.2,1.5c1.9-11.4-1.9-21.1-2.1-21.6
		c-0.1-0.2-0.3-0.4-0.5-0.4c-0.2-0.1-0.5,0-0.6,0.2c-4.1,3.9-7.6,8.4-10.2,13.5c-1.3-9.6-3.8-19.9-8.7-28.6l-1.2,0.7
		c4.8,8.4,7.2,18.4,8.5,27.8l-0.5-0.4c-2.7-3.3-4.9-5.1-5.2-5.3c-0.2-0.1-0.4-0.2-0.7-0.1c-0.2,0.1-0.4,0.2-0.5,0.5
		c-1.9,6.1-2.6,12.6-2.2,19c-2.2-1.8-4.6-3.3-7.2-4.5c-0.2-0.1-0.5-0.1-0.7,0.1c-0.2,0.1-0.3,0.4-0.3,0.6c-0.3,9,3.4,17.4,6.6,22.8
		h-1.7l3.3,16.5H354l3.3-16.5h-0.5C360,228.6,364.7,219,362.3,208.3z M354.4,189.2c1,2.9,3.4,11.7,1.3,21.3
		c-1.6,1.3-3.4,3.3-5.3,6.2c-1.3-5.3-3.7-9.8-6.1-13.2c0,0,0,0,0,0c0,0,0,0,0,0C346.8,198.2,350.2,193.4,354.4,189.2z M333.2,232.9
		c-3-5.2-6.4-12.7-6.4-21c2.5,1.3,4.8,2.8,7,4.7c0.6,5.6,1.7,11,3.5,16.3H333.2z M345.2,228.8c-0.2,0.8-0.3,1.6-0.3,2.3
		c-0.1,0.6-0.1,1.1-0.1,1.7h-0.4H343h-4.3c-1.8-5.3-3-10.8-3.5-16.3c0.1-0.2,0-0.4-0.1-0.6c-0.6-6.3-0.1-12.7,1.7-18.8
		c1.2,1.1,3.5,3.4,5.9,6.6c0,0,0,0,0,0c0.1,0.2,0.2,0.3,0.4,0.5c0.2,0.3,0.4,0.6,0.6,0.9c0.3,0.5,0.6,0.9,0.9,1.4
		c0,0.1,0.1,0.2,0.1,0.2c2,3.3,3.8,7.3,4.7,11.8l-0.5,0.9C346.8,223,345.7,226.2,345.2,228.8C345.2,228.8,345.2,228.8,345.2,228.8z
		 M346.2,232.8L346.2,232.8c0.2-4.5,1.6-8.9,3.9-12.7c0.2-0.4,0.4-0.8,0.7-1.1c1.5-2.5,2.9-4.3,4.2-5.7c0.7-0.7,1.4-1.3,2-1.8
		c1.9-1.5,3.4-2,4.1-2.1c1.8,10-2.6,18.9-5.6,23.5H346.2z"/>
	<path class="st9" d="M352.4,172.7c0-1.1-2.4-2-5.8-2.3c3-1.6,4.9-3.4,4.5-4.4c-0.4-1-3.1-0.9-6.4,0.1c2.2-2.7,3.4-5.1,2.6-5.9
		c-0.8-0.8-3.1,0.3-5.8,2.5c1-3.3,1.1-5.9,0.1-6.3c-1-0.4-2.8,1.5-4.5,4.6c-0.3-3.5-1.3-6-2.4-6c-1.1,0-2,2.4-2.3,5.8
		c-1.6-3-3.4-4.9-4.4-4.5c-1,0.4-0.9,3.1,0.1,6.4c-2.7-2.2-5.1-3.4-5.9-2.6c-0.8,0.8,0.3,3.1,2.5,5.8c-3.3-1-5.9-1.1-6.3-0.1
		c-0.4,1,1.5,2.8,4.6,4.5c-3.5,0.3-6,1.3-6,2.4c0,1.1,2.4,2,5.8,2.3c-3,1.6-4.9,3.4-4.5,4.4c0.4,1,3.1,0.9,6.4-0.1
		c-2.2,2.7-3.4,5.1-2.6,5.9c0.8,0.8,3.1-0.3,5.8-2.5c-1,3.3-1.1,5.9-0.1,6.3c1,0.4,2.8-1.5,4.5-4.6c0.3,3.5,1.3,6,2.4,6
		c1.1,0,2-2.4,2.3-5.8c1.6,3,3.4,4.9,4.4,4.5c1-0.4,0.9-3.1-0.1-6.4c2.7,2.2,5.1,3.4,5.9,2.6c0.8-0.8-0.3-3.1-2.5-5.8
		c3.3,1,5.9,1.1,6.3,0.1c0.4-1-1.5-2.8-4.6-4.5C349.9,174.7,352.4,173.8,352.4,172.7z"/>
	<g class="st10">
		<g>
			<g>
				<path class="st0" d="M319,166.1c0.1-0.2,0.5-0.3,1.2-0.3c0.9,0,2.3,0.2,4.1,0.7c-0.5-0.6-1-1.2-1.4-1.8
					c-2.5-0.5-4.7-0.4-5.2,0.8c-0.5,1.3,1,2.9,3.2,4.3c0.7-0.1,1.5-0.2,2.2-0.3C320.1,168,318.8,166.5,319,166.1z"/>
			</g>
			<g>
				<path class="st0" d="M327.7,155.6c-1.3,0.5-1.4,2.7-0.8,5.3c0.6,0.4,1.2,0.9,1.8,1.4c-0.9-3.2-0.8-5.2-0.4-5.3c0,0,0,0,0.1,0
					c0.5,0,1.9,1.3,3.3,4.1c0.1-0.8,0.2-1.5,0.3-2.2C330.5,156.6,329,155.1,327.7,155.6z"/>
			</g>
			<g>
				<path class="st0" d="M341.8,155.7c-1-0.4-2.1,0.2-3.4,1.9c-0.3,0.4-0.6,0.8-0.9,1.2c0.1,0.7,0.2,1.5,0.3,2.2
					c0.5-1,1.1-1.9,1.7-2.6c1-1.3,1.6-1.5,1.8-1.5c0,0,0,0,0,0c0.1,0,0.4,0.6,0.2,2.3c-0.1,0.9-0.3,1.8-0.6,2.9
					c0.6-0.5,1.2-1,1.8-1.3c0.1-0.5,0.2-1,0.2-1.4C343.1,157.4,342.7,156.1,341.8,155.7z"/>
			</g>
			<g>
				<path class="st0" d="M351.7,165.7c-0.5-1.3-2.7-1.4-5.3-0.8c-0.4,0.6-0.9,1.2-1.4,1.8c3.2-1,5.2-0.8,5.3-0.4
					c0.2,0.4-1.1,1.8-4,3.4c0.8,0.1,1.5,0.2,2.2,0.3C350.8,168.5,352.2,167,351.7,165.7z"/>
			</g>
			<g>
				<path class="st0" d="M348.5,175.4c-0.7,0.1-1.5,0.2-2.2,0.3c3,1.6,4.3,3.1,4.1,3.5c-0.2,0.4-2.1,0.5-5.2-0.4
					c0.5,0.6,0.9,1.2,1.3,1.8c0.9,0.2,1.8,0.3,2.6,0.3c1.3,0,2.3-0.3,2.6-1.1C352.2,178.5,350.7,176.9,348.5,175.4z"/>
			</g>
			<g>
				<path class="st0" d="M342.5,184.4c-0.6-0.4-1.2-0.9-1.8-1.4c1,3.3,0.8,5.3,0.4,5.4c-0.4,0.2-1.8-1.1-3.4-4
					c-0.1,0.8-0.2,1.5-0.3,2.2c1.2,1.8,2.5,3.2,3.7,3.2c0.2,0,0.4,0,0.5-0.1C342.9,189.2,343,187,342.5,184.4z"/>
			</g>
			<g>
				<path class="st0" d="M331.6,184.2c-1.6,3-3.1,4.3-3.5,4.2c-0.4-0.2-0.5-2.1,0.4-5.2c-0.6,0.5-1.2,1-1.8,1.4
					c-0.5,2.5-0.4,4.6,0.8,5.1c0.2,0.1,0.4,0.1,0.5,0.1c1.2,0,2.6-1.4,3.8-3.3C331.8,185.7,331.7,184.9,331.6,184.2z"/>
			</g>
			<g>
				<path class="st0" d="M319,179.1c-0.2-0.4,1.1-1.8,4-3.4c-0.8-0.1-1.5-0.2-2.2-0.3c-2.2,1.4-3.6,3-3.1,4.2
					c0.3,0.8,1.3,1.1,2.7,1.1c0.8,0,1.7-0.1,2.7-0.3c0.4-0.6,0.9-1.2,1.4-1.8C321.1,179.6,319.1,179.5,319,179.1z"/>
			</g>
		</g>
		<g>
			<path class="st0" d="M353.1,172.7c0-2.2-4.9-3.2-9.5-3.2c-0.4,0-0.8,0-1.2,0c0.3-0.3,0.6-0.5,0.9-0.8c3.3-3.3,6-7.5,4.5-9
				c-1.5-1.5-5.8,1.2-9,4.5c-0.3,0.3-0.6,0.6-0.8,0.9c0-0.4,0-0.8,0-1.2c0-4.6-1-9.5-3.2-9.5c-2.2,0-3.2,4.9-3.2,9.5
				c0,0.4,0,0.8,0,1.2c-0.3-0.3-0.5-0.6-0.8-0.9c-3.2-3.3-7.4-6.1-9-4.5c-1.6,1.6,1.2,5.8,4.5,9c0.3,0.3,0.6,0.6,0.9,0.8
				c-0.4,0-0.8,0-1.2,0c-4.6,0-9.6,1-9.6,3.2c0,2.2,5,3.2,9.6,3.2c0.4,0,0.8,0,1.2,0c-0.3,0.3-0.6,0.5-0.9,0.8
				c-3.3,3.3-6.1,7.5-4.5,9c0.3,0.3,0.7,0.4,1.2,0.4c2,0,5.2-2.3,7.8-4.9c0.3-0.3,0.6-0.6,0.8-0.9c0,0.4,0,0.8,0,1.2
				c0,4.6,1,9.6,3.2,9.6c2.2,0,3.2-5,3.2-9.6c0-0.4,0-0.8,0-1.2c0.3,0.3,0.5,0.6,0.8,0.9c2.6,2.6,5.9,4.9,7.8,4.9
				c0.5,0,0.9-0.1,1.2-0.4c1.5-1.5-1.2-5.7-4.5-9c-0.3-0.3-0.6-0.6-0.9-0.8c0.4,0,0.8,0,1.2,0C348.1,175.9,353.1,174.9,353.1,172.7z
				 M340.6,174.3c-1.6-0.2-2.9-0.5-3.8-0.8c0.8,0.4,1.9,1.1,3.2,2.1c0.7,0.6,1.4,1.2,2.2,2c3.7,3.7,4.9,6.7,4.5,7
				c-0.4,0.4-3.3-0.7-7-4.5c-0.8-0.8-1.4-1.5-2-2.2c-1-1.2-1.7-2.3-2.1-3.1c0.3,0.9,0.6,2.1,0.7,3.7c0.1,0.9,0.1,1.9,0.1,3
				c0,5.3-1.3,8.2-1.8,8.2c-0.5,0-1.8-2.9-1.8-8.2c0-1.1,0.1-2.1,0.2-3c0.2-1.5,0.4-2.7,0.7-3.6c-0.4,0.8-1.1,1.8-2,3
				c-0.6,0.7-1.2,1.4-2,2.2c-3.7,3.7-6.7,4.9-7,4.5c-0.4-0.4,0.7-3.3,4.5-7c0.8-0.8,1.5-1.4,2.2-2c1.3-1,2.4-1.7,3.2-2.1
				c-0.9,0.3-2.1,0.6-3.7,0.8c-0.9,0.1-1.9,0.2-3,0.2c-5.3,0-8.2-1.3-8.2-1.8s2.9-1.8,8.2-1.8c1.1,0,2.1,0.1,3,0.2
				c1.6,0.2,2.9,0.4,3.8,0.8c-0.2-0.1-0.4-0.2-0.6-0.3c-0.8-0.4-1.7-1.1-2.6-1.8c-0.7-0.6-1.5-1.3-2.2-2c-3.7-3.7-4.9-6.7-4.5-7
				c0,0,0.1-0.1,0.2-0.1c0.8,0,3.5,1.3,6.8,4.6c0.8,0.8,1.4,1.5,2,2.2c1,1.2,1.7,2.3,2.1,3.1c-0.3-0.9-0.6-2.1-0.7-3.7
				c-0.1-0.9-0.2-1.9-0.2-3c0-5.3,1.3-8.1,1.8-8.1c0.5,0,1.8,2.8,1.8,8.1c0,1.1-0.1,2.1-0.1,3c-0.2,1.6-0.4,2.9-0.8,3.7
				c0.4-0.8,1.1-1.9,2.1-3.1c0.6-0.7,1.2-1.4,2-2.2c3.3-3.3,6-4.6,6.8-4.6c0.1,0,0.2,0,0.2,0.1c0.4,0.4-0.8,3.3-4.5,7
				c-0.7,0.7-1.5,1.4-2.2,2c-0.9,0.7-1.8,1.3-2.6,1.8c-0.2,0.1-0.4,0.2-0.6,0.3c0.9-0.3,2.1-0.6,3.8-0.8c0.9-0.1,1.9-0.2,3-0.2
				c5.3,0,8.1,1.3,8.1,1.8s-2.8,1.8-8.1,1.8C342.5,174.5,341.4,174.4,340.6,174.3z"/>
		</g>
	</g>
	<g class="st10">
		<circle class="st1" cx="334.7" cy="172.7" r="3.5"/>
		<path class="st0" d="M334.7,176.9c-1.4,0-2.7-0.7-3.5-1.9c-1.3-1.9-0.7-4.5,1.2-5.8c1.9-1.3,4.5-0.7,5.8,1.3v0
			c1.3,1.9,0.7,4.5-1.3,5.8C336.3,176.7,335.5,176.9,334.7,176.9z M334.7,169.9c-0.5,0-1,0.1-1.5,0.4c-1.3,0.8-1.7,2.6-0.8,3.9
			c0.8,1.3,2.6,1.7,3.9,0.8c1.3-0.8,1.7-2.6,0.8-3.9l0,0C336.5,170.3,335.6,169.9,334.7,169.9z"/>
	</g>
</g>
</svg>
