<svg width="459" height="376" viewBox="0 0 459 376" fill="none" xmlns="http://www.w3.org/2000/svg">
<path d="M457.974 324.572H0.825C0.606196 324.572 0.396354 324.485 0.241636 324.33C0.0869188 324.175 0 323.965 0 323.747C0 323.528 0.0869188 323.318 0.241636 323.163C0.396354 323.009 0.606196 322.922 0.825 322.922H457.974C458.193 322.922 458.403 323.009 458.557 323.163C458.712 323.318 458.799 323.528 458.799 323.747C458.799 323.965 458.712 324.175 458.557 324.33C458.403 324.485 458.193 324.572 457.974 324.572Z" fill="#D1D3D4"/>
<path d="M277.81 226.017L216.034 351.912H224.862L290.367 226.017H277.81Z" fill="white"/>
<path d="M224.862 352.77H216.035C215.888 352.769 215.745 352.73 215.618 352.658C215.491 352.586 215.384 352.483 215.309 352.358C215.243 352.23 215.209 352.089 215.209 351.945C215.209 351.802 215.243 351.66 215.309 351.533L277.101 225.638C277.175 225.5 277.284 225.384 277.417 225.303C277.551 225.222 277.704 225.178 277.86 225.176H290.45C290.594 225.175 290.736 225.211 290.863 225.28C290.99 225.35 291.098 225.45 291.176 225.572C291.248 225.7 291.286 225.845 291.286 225.992C291.286 226.14 291.248 226.285 291.176 226.413L225.687 352.308C225.608 352.456 225.489 352.578 225.342 352.66C225.196 352.742 225.029 352.78 224.862 352.77ZM217.404 351.12H224.334L288.965 226.941H278.355L217.404 351.12Z" fill="#231F20"/>
<path d="M351.846 226.017L413.638 351.912H404.811L339.306 226.017H351.846Z" fill="white"/>
<path d="M413.638 352.77H404.811C404.655 352.768 404.502 352.724 404.368 352.643C404.235 352.561 404.126 352.446 404.052 352.308L338.547 226.413C338.478 226.284 338.444 226.138 338.448 225.992C338.453 225.845 338.495 225.702 338.572 225.577C338.649 225.452 338.757 225.349 338.886 225.279C339.014 225.208 339.159 225.173 339.306 225.176H351.846C352.003 225.172 352.159 225.214 352.293 225.296C352.428 225.378 352.536 225.496 352.605 225.638L414.397 351.533C414.467 351.659 414.503 351.801 414.503 351.945C414.503 352.089 414.467 352.231 414.397 352.358C414.318 352.486 414.206 352.592 414.072 352.664C413.939 352.736 413.79 352.773 413.638 352.77ZM405.388 351.12H412.335L351.384 226.941H340.774L405.388 351.12Z" fill="#231F20"/>
<path d="M317.229 331.007H312.427L310.876 226.017H318.78L317.229 331.007Z" fill="white"/>
<path d="M317.229 331.865H312.427C312.204 331.865 311.99 331.776 311.832 331.618C311.675 331.46 311.586 331.246 311.586 331.023L310.035 226.034C310.033 225.921 310.054 225.808 310.097 225.703C310.139 225.598 310.202 225.503 310.282 225.423C310.359 225.343 310.452 225.28 310.554 225.238C310.656 225.195 310.766 225.174 310.876 225.176H318.78C318.893 225.173 319.006 225.194 319.111 225.236C319.216 225.279 319.312 225.342 319.392 225.422C319.472 225.502 319.535 225.598 319.577 225.703C319.62 225.808 319.64 225.92 319.638 226.034L318.087 331.023C318.079 331.247 317.985 331.458 317.825 331.615C317.666 331.771 317.452 331.861 317.229 331.865ZM313.269 330.215H316.387L317.922 226.941H311.751L313.269 330.215Z" fill="#231F20"/>
<path d="M441.408 5.49463H188.265V220.424H441.408V5.49463Z" fill="white"/>
<path d="M441.408 221.315H188.265C188.153 221.317 188.042 221.297 187.938 221.255C187.834 221.214 187.739 221.152 187.659 221.074C187.579 220.996 187.516 220.902 187.473 220.799C187.429 220.696 187.407 220.585 187.407 220.473V5.49462C187.407 5.38271 187.429 5.27192 187.473 5.16873C187.516 5.06555 187.579 4.97204 187.659 4.89368C187.739 4.81532 187.834 4.75368 187.938 4.71238C188.042 4.67107 188.153 4.65092 188.265 4.65312H441.408C441.52 4.65092 441.631 4.67107 441.735 4.71238C441.839 4.75368 441.934 4.81532 442.014 4.89368C442.094 4.97204 442.157 5.06555 442.2 5.16873C442.244 5.27192 442.266 5.38271 442.266 5.49462V220.44C442.271 220.555 442.252 220.669 442.21 220.776C442.169 220.883 442.106 220.981 442.026 221.063C441.945 221.145 441.849 221.209 441.743 221.252C441.637 221.296 441.523 221.317 441.408 221.315ZM189.106 219.665H440.599V6.35262H189.106V219.665Z" fill="#231F20"/>
<path d="M446.787 220.44H182.886V231.611H446.787V220.44Z" fill="white"/>
<path d="M446.787 232.452H182.886C182.774 232.454 182.663 232.434 182.559 232.393C182.455 232.352 182.36 232.29 182.28 232.212C182.2 232.133 182.137 232.04 182.094 231.937C182.05 231.833 182.028 231.723 182.028 231.611V220.44C182.028 220.213 182.118 219.994 182.279 219.833C182.44 219.673 182.658 219.582 182.886 219.582H446.787C446.899 219.582 447.01 219.604 447.113 219.648C447.216 219.691 447.31 219.755 447.388 219.834C447.466 219.914 447.528 220.009 447.569 220.113C447.611 220.217 447.631 220.328 447.629 220.44V231.611C447.629 231.834 447.54 232.048 447.382 232.206C447.224 232.364 447.01 232.452 446.787 232.452ZM183.728 230.802H445.929V221.315H183.728V230.802Z" fill="#231F20"/>
<path d="M441.408 221.315H188.265C188.137 221.351 188.003 221.358 187.872 221.333C187.742 221.309 187.619 221.255 187.513 221.175C187.407 221.095 187.321 220.991 187.261 220.872C187.202 220.753 187.171 220.623 187.171 220.49C187.171 220.357 187.202 220.226 187.261 220.107C187.321 219.988 187.407 219.885 187.513 219.805C187.619 219.725 187.742 219.671 187.872 219.646C188.003 219.622 188.137 219.628 188.265 219.665H441.408C441.536 219.628 441.67 219.622 441.801 219.646C441.931 219.671 442.054 219.725 442.16 219.805C442.266 219.885 442.352 219.988 442.412 220.107C442.471 220.226 442.502 220.357 442.502 220.49C442.502 220.623 442.471 220.753 442.412 220.872C442.352 220.991 442.266 221.095 442.16 221.175C442.054 221.255 441.931 221.309 441.801 221.333C441.67 221.358 441.536 221.351 441.408 221.315Z" fill="#231F20"/>
<path d="M358.809 0.841675H270.848V15.0812H358.809V0.841675Z" fill="white"/>
<path d="M358.809 15.9557H270.848C270.623 15.9513 270.409 15.859 270.251 15.6986C270.094 15.5382 270.006 15.3224 270.006 15.0977V0.841665C270.006 0.618486 270.095 0.404444 270.252 0.246632C270.41 0.0888202 270.624 0.000161767 270.848 0.000161767H358.809C358.921 -0.00203254 359.032 0.0181163 359.136 0.0594221C359.24 0.100728 359.335 0.162362 359.415 0.240722C359.495 0.319082 359.558 0.412594 359.601 0.51578C359.645 0.618967 359.667 0.729756 359.667 0.841665V15.0647C359.671 15.1801 359.653 15.2952 359.611 15.4031C359.57 15.5111 359.508 15.6096 359.428 15.6928C359.348 15.776 359.251 15.8422 359.145 15.8873C359.039 15.9325 358.925 15.9558 358.809 15.9557ZM271.706 14.3057H357.968V1.69967H271.706V14.3057Z" fill="#231F20"/>
<path d="M255.602 149.985H224.945V193.71H255.602V149.985Z" fill="white"/>
<path d="M112.827 329.472V354.965L125.004 358.446L124.723 353.232L130.234 358.743C130.234 358.743 162.954 364.617 162.789 360.261C162.624 355.905 159.307 353.513 155.166 351.335C150.744 349.008 139.078 342.425 139.078 342.425L137.329 323.714" fill="white"/>
<path d="M156.799 362.736C148.137 362.736 133.782 360.261 130.168 359.601C129.994 359.576 129.832 359.495 129.706 359.37L125.779 355.443L125.944 358.43C125.954 358.565 125.931 358.7 125.876 358.824C125.822 358.947 125.737 359.056 125.631 359.139C125.524 359.226 125.398 359.286 125.263 359.315C125.128 359.343 124.989 359.34 124.855 359.304L112.678 355.823C112.503 355.767 112.349 355.657 112.239 355.509C112.13 355.361 112.07 355.182 112.068 354.998V329.472C112.119 329.293 112.227 329.135 112.376 329.023C112.525 328.911 112.707 328.85 112.893 328.85C113.079 328.85 113.261 328.911 113.41 329.023C113.559 329.135 113.667 329.293 113.718 329.472V354.354L124.129 357.324L123.799 353.315C123.795 353.144 123.84 352.976 123.931 352.832C124.022 352.688 124.154 352.575 124.31 352.505C124.465 352.436 124.638 352.415 124.806 352.445C124.973 352.474 125.129 352.553 125.252 352.671L130.581 358.001C144.919 360.558 160.842 362.093 161.931 360.311C161.766 356.582 158.944 354.354 154.753 352.143C150.562 349.932 138.765 343.283 138.649 343.217C138.531 343.149 138.429 343.054 138.355 342.939C138.28 342.824 138.234 342.693 138.221 342.557L136.471 323.846C136.502 323.659 136.593 323.487 136.731 323.358C136.868 323.228 137.045 323.148 137.233 323.129C137.421 323.11 137.61 323.154 137.771 323.254C137.932 323.354 138.055 323.504 138.121 323.681L139.771 341.946C141.834 343.118 151.536 348.546 155.446 350.642C159.357 352.737 163.334 355.427 163.515 360.278C163.529 360.538 163.48 360.798 163.374 361.036C163.268 361.274 163.107 361.483 162.904 361.647C162.096 362.423 159.753 362.736 156.799 362.736Z" fill="#231F20"/>
<path d="M76.8735 343.415L76.6425 364.865L90.5685 368.561L90.783 362.472L95.568 370.079C95.568 370.079 129.937 377.685 131.686 373.049C133.435 368.412 130.383 361.598 121.885 357.456C116.361 354.836 110.699 352.517 104.923 350.51L102.976 341.154" fill="white"/>
<path d="M125.449 375.359C116.374 375.359 101.194 372.207 95.3865 370.92C95.1716 370.859 94.9848 370.725 94.8585 370.541L91.5585 365.261L91.443 368.561C91.433 368.686 91.397 368.808 91.3374 368.919C91.2777 369.03 91.1957 369.127 91.0965 369.204C90.9954 369.284 90.8772 369.339 90.7511 369.364C90.625 369.39 90.4947 369.386 90.3705 369.353L76.4445 365.657C76.2616 365.606 76.1008 365.495 75.9873 365.343C75.8739 365.191 75.8141 365.005 75.8175 364.815L76.032 343.365C76.032 343.253 76.0543 343.142 76.0976 343.039C76.1409 342.936 76.2044 342.843 76.2843 342.764C76.3642 342.686 76.4589 342.624 76.5629 342.583C76.6669 342.542 76.7781 342.521 76.89 342.524C77.0019 342.524 77.1127 342.546 77.2159 342.589C77.3191 342.633 77.4126 342.696 77.4909 342.776C77.5693 342.856 77.6309 342.95 77.6722 343.054C77.7135 343.158 77.7337 343.27 77.7315 343.382L77.517 364.106L89.7765 367.406L89.958 362.456C89.9285 362.247 89.9768 362.035 90.0937 361.86C90.2105 361.684 90.3878 361.558 90.5917 361.505C90.7955 361.452 91.0118 361.476 91.1992 361.572C91.3866 361.668 91.5321 361.83 91.608 362.027L96.2115 369.336C116.803 373.874 130.284 374.666 130.977 372.768C132.627 368.577 129.838 362.241 121.621 358.248C116.125 355.647 110.496 353.334 104.758 351.318C104.615 351.279 104.485 351.199 104.386 351.087C104.286 350.976 104.221 350.839 104.197 350.691L102.234 341.336C102.23 341.136 102.296 340.941 102.42 340.785C102.545 340.628 102.72 340.52 102.915 340.479C103.111 340.438 103.315 340.466 103.492 340.56C103.668 340.653 103.807 340.805 103.884 340.989L105.649 349.85C111.294 351.853 116.834 354.138 122.248 356.697C131.389 361.152 134.31 368.445 132.462 373.346C131.934 374.765 129.211 375.359 125.449 375.359Z" fill="#231F20"/>
<path d="M68.6235 173.151L73.9695 346.434L112.546 346.583L112.101 337.673L141.471 338.762L145.497 162.509L68.6235 173.151Z" fill="#231F20"/>
<path d="M112.546 347.408L73.986 347.259C73.7713 347.255 73.5662 347.169 73.4129 347.019C73.2595 346.868 73.1694 346.665 73.161 346.451L67.815 173.201C67.8158 172.999 67.8873 172.805 68.017 172.651C68.1467 172.497 68.3263 172.394 68.5245 172.359L145.398 161.717C145.517 161.705 145.637 161.719 145.75 161.756C145.864 161.792 145.968 161.852 146.058 161.931C146.148 162.009 146.22 162.105 146.268 162.213C146.317 162.322 146.341 162.439 146.339 162.558L142.313 338.811C142.302 339.03 142.207 339.237 142.048 339.389C141.972 339.467 141.879 339.527 141.776 339.564C141.673 339.601 141.563 339.614 141.454 339.603L112.976 338.465L113.355 346.484C113.362 346.595 113.347 346.706 113.31 346.811C113.273 346.916 113.216 347.012 113.14 347.094C113.068 347.184 112.978 347.259 112.876 347.313C112.774 347.367 112.662 347.399 112.546 347.408ZM74.7615 345.609L111.672 345.758L111.292 337.706C111.284 337.593 111.301 337.48 111.341 337.375C111.381 337.269 111.443 337.174 111.523 337.095C111.6 337.011 111.695 336.945 111.8 336.902C111.906 336.859 112.02 336.84 112.134 336.848L140.663 337.904L144.656 163.449L69.465 173.861L74.7615 345.609Z" fill="#231F20"/>
<path d="M97.2675 66.0497C97.2675 66.0497 66.3465 72.9632 61.4295 85.6682C56.5125 98.3732 69.927 167.541 69.927 167.541L144.523 160.034C144.523 160.034 146.57 87.6647 141.587 73.2602C131.835 63.5252 117.2 62.6012 97.2675 66.0497Z" fill="#1F292E"/>
<path d="M122.76 6.53422C126.559 8.08065 129.859 10.6439 132.297 13.9427C134.707 17.3092 135.989 21.3525 135.96 25.4927C135.877 30.7562 133.93 33.0332 130.366 36.4322C127.38 39.2867 122.562 40.0292 118.684 40.7882C115.252 41.4482 111.623 42.6362 108.191 42.9992C104.759 43.3622 100.633 43.9562 97.449 42.8342C93.456 41.4317 90.288 36.3662 87.9945 32.9342C85.1235 28.6937 85.866 22.8362 87.78 18.2657C88.2931 16.8269 89.1956 15.5588 90.387 14.6027C90.9933 14.1327 91.7277 13.8575 92.4936 13.8133C93.2594 13.7691 94.0207 13.958 94.677 14.3552C98.1915 7.50771 106.425 4.05921 114.114 4.45521C117.095 4.6397 120.021 5.34327 122.76 6.53422Z" fill="white"/>
<path d="M102.036 44.4181C100.359 44.472 98.6842 44.2376 97.086 43.7251C93.126 42.3391 90.024 37.7356 87.7635 34.3696L87.219 33.5446C84.579 29.6836 84.48 23.8921 86.922 18.0841C87.4888 16.4894 88.4956 15.0878 89.826 14.0416C90.452 13.5769 91.1814 13.2711 91.9516 13.1504C92.7219 13.0297 93.5099 13.0977 94.248 13.3486C97.8615 7.14461 105.682 3.31661 114.048 3.71261C117.123 3.87085 120.149 4.55738 122.991 5.74211C126.939 7.34818 130.365 10.015 132.891 13.4476C135.425 16.9787 136.761 21.2291 136.703 25.5751C136.703 31.2181 134.442 33.7096 130.862 37.1251C127.925 39.9301 123.519 40.7716 119.641 41.5141L118.751 41.6791C117.464 41.9431 116.16 42.2566 114.84 42.5866C112.669 43.1639 110.465 43.6102 108.24 43.9231H107.465C105.665 44.1845 103.853 44.3497 102.036 44.4181ZM92.8455 14.7181C92.1406 14.7269 91.4554 14.9515 90.882 15.3616C89.8168 16.2223 89.0161 17.3662 88.572 18.6616C86.3445 23.9581 86.394 29.1391 88.704 32.5216L89.2485 33.3466C91.3935 36.5146 94.314 40.8541 97.7295 42.0586C100.485 43.0156 104.33 42.6031 107.3 42.2566L108.092 42.1741C110.261 41.8772 112.41 41.4474 114.527 40.8871C115.88 40.5571 117.216 40.2271 118.52 39.9631L119.41 39.7981C123.073 39.0886 127.199 38.2966 129.789 35.8381C133.436 32.3566 135.036 30.3271 135.102 25.4926C135.158 21.5065 133.932 17.6078 131.604 14.3716C129.26 11.1969 126.085 8.73047 122.43 7.24361C119.771 6.13571 116.941 5.49384 114.065 5.34611C107.465 5.01611 99.0165 7.82111 95.4195 14.8006C95.3672 14.9104 95.2913 15.0073 95.1971 15.0843C95.103 15.1613 94.993 15.2166 94.875 15.2461C94.6356 15.2955 94.3865 15.248 94.182 15.1141C93.7812 14.8688 93.3144 14.7536 92.8455 14.7841V14.7181Z" fill="#231F20"/>
<path d="M123.981 58.3607L125.384 73.5902C125.384 73.5902 118.849 81.2627 108.949 79.1012C99.0495 76.9397 97.3995 70.1747 97.3995 70.1747L96.9375 42.4382C96.9375 42.4382 104.148 38.3957 101.689 22.6382C101.689 22.6382 116.969 26.9942 131.538 24.8492C131.538 24.8492 132.115 42.7517 131.092 50.3912C130.069 58.0307 123.981 58.3607 123.981 58.3607Z" fill="white"/>
<path d="M112.563 80.3387C111.303 80.3339 110.048 80.1956 108.817 79.9262C98.5215 77.6657 96.7725 70.6697 96.69 70.3727C96.6818 70.3124 96.6818 70.2514 96.69 70.1912L96.228 42.4382C96.2285 42.2836 96.27 42.1319 96.3483 41.9985C96.4266 41.8652 96.5388 41.755 96.6735 41.6792C96.6735 41.6792 103.273 37.6532 100.996 22.7372C100.971 22.5961 100.982 22.4508 101.028 22.3151C101.074 22.1794 101.154 22.0577 101.26 21.9617C101.371 21.8694 101.502 21.8048 101.643 21.7733C101.783 21.7417 101.93 21.7441 102.069 21.7802C102.217 21.7802 117.348 26.0702 131.571 23.9747C131.812 23.944 132.055 24.0092 132.247 24.1562C132.339 24.2336 132.412 24.3295 132.464 24.4376C132.515 24.5458 132.542 24.6636 132.544 24.7832C132.544 25.5257 133.106 42.9332 132.083 50.4737C131.208 56.9252 126.819 58.6247 124.921 59.0702L126.258 73.5077C126.269 73.6201 126.257 73.7336 126.223 73.8413C126.189 73.949 126.133 74.0488 126.06 74.1347C124.347 76.0279 122.267 77.5538 119.947 78.6202C117.628 79.6865 115.115 80.2712 112.563 80.3387ZM98.373 70.0592C98.5875 70.8182 100.435 76.3457 109.18 78.3092C117.43 80.1407 123.288 74.6132 124.509 73.3592L123.14 58.5092C123.126 58.3941 123.137 58.2775 123.171 58.1668C123.205 58.056 123.262 57.9535 123.337 57.8657C123.411 57.78 123.502 57.7107 123.605 57.6624C123.707 57.6141 123.818 57.5877 123.931 57.5852C124.146 57.5852 129.459 57.1232 130.383 50.3087C131.258 43.8242 130.944 29.6342 130.861 25.8557C121.463 26.7819 111.976 26.0898 102.811 23.8097C104.461 37.0097 99.5115 41.7782 97.8615 42.9497L98.373 70.0592Z" fill="#231F20"/>
<path d="M102.828 41.8276C102.45 40.5129 101.657 39.3555 100.567 38.5276C99.5136 37.7763 98.3348 37.2177 97.086 36.8776C96.4267 36.6125 95.716 36.4997 95.007 36.5476C94.515 36.6316 94.0442 36.8109 93.621 37.0756C92.5724 37.6198 91.7531 38.5211 91.311 39.6166C91.0798 40.5373 91.0798 41.5009 91.311 42.4216C91.4506 43.4497 91.7281 44.4542 92.136 45.4081C92.561 46.3475 93.1682 47.1931 93.9225 47.8959C94.6768 48.5988 95.5632 49.1448 96.5302 49.5025C97.4971 49.8601 98.5255 50.0222 99.5556 49.9793C100.586 49.9364 101.597 49.6894 102.531 49.2526" fill="white"/>
<path d="M99.1485 50.7377C98.1246 50.7352 97.1088 50.5566 96.1455 50.2097C93.9844 49.3954 92.2342 47.7579 91.278 45.6557C90.8439 44.6317 90.5444 43.5557 90.387 42.4547C90.1621 41.3944 90.2017 40.295 90.5025 39.2537C91.0027 37.9582 91.9592 36.8901 93.192 36.2507C93.6975 35.9361 94.2569 35.7179 94.842 35.6072C95.6784 35.5406 96.519 35.6647 97.3005 35.9702C98.645 36.345 99.9128 36.9538 101.046 37.7687C102.291 38.7402 103.189 40.089 103.603 41.6132C103.659 41.8319 103.626 42.0637 103.512 42.2582C103.397 42.4528 103.211 42.5945 102.993 42.6527C102.885 42.6824 102.771 42.6901 102.66 42.6753C102.549 42.6606 102.441 42.6236 102.344 42.5667C102.248 42.5098 102.163 42.4341 102.096 42.344C102.029 42.2539 101.98 42.1513 101.953 42.0422C101.634 40.881 100.951 39.8521 100.006 39.1052C99.001 38.415 97.8849 37.9016 96.7065 37.5872C96.1834 37.3735 95.6212 37.2723 95.0565 37.2902C94.6772 37.3713 94.3145 37.5164 93.984 37.7192C93.1349 38.1809 92.4707 38.9209 92.103 39.8147C91.9126 40.6008 91.9126 41.4211 92.103 42.2072C92.2345 43.1603 92.4896 44.0921 92.862 44.9792C93.2388 45.8169 93.7789 46.5711 94.4505 47.1978C95.1221 47.8245 95.9119 48.311 96.7737 48.629C97.6355 48.947 98.552 49.09 99.4697 49.0498C100.387 49.0096 101.288 48.7869 102.118 48.3947C102.325 48.3033 102.559 48.2952 102.771 48.372C102.983 48.4489 103.157 48.6048 103.257 48.8072C103.353 49.013 103.363 49.2483 103.286 49.4616C103.209 49.675 103.05 49.8491 102.844 49.9457C101.687 50.4812 100.424 50.7518 99.1485 50.7377Z" fill="#231F20"/>
<path d="M124.328 65.9342C122.521 66.1855 120.682 66.046 118.934 65.525C117.186 65.0041 115.571 64.1139 114.196 62.9147C109.774 58.8227 110.105 56.3147 110.105 56.3147C110.105 56.3147 117.167 59.9942 123.585 58.5752L124.328 65.9342Z" fill="#231F20"/>
<path d="M122.678 66.8747C119.34 66.9203 116.109 65.6999 113.635 63.4592C109.032 59.2187 109.246 56.5292 109.279 56.2322C109.298 56.1018 109.349 55.9781 109.427 55.8717C109.504 55.7653 109.607 55.6794 109.725 55.6217C109.841 55.5566 109.972 55.5225 110.104 55.5225C110.237 55.5225 110.368 55.5566 110.484 55.6217C110.484 55.6217 117.381 59.1527 123.403 57.7997C123.518 57.7742 123.636 57.7742 123.75 57.7999C123.864 57.8256 123.971 57.8762 124.064 57.9482C124.159 58.0146 124.239 58.1004 124.298 58.1999C124.358 58.2995 124.396 58.4104 124.41 58.5257L125.153 65.8517C125.172 66.058 125.114 66.2643 124.988 66.4294C124.863 66.5944 124.68 66.7063 124.476 66.7427C123.881 66.8378 123.28 66.882 122.678 66.8747ZM111.259 57.7667C112.094 59.4937 113.287 61.0235 114.758 62.2547C117.144 64.351 120.266 65.4134 123.436 65.2082L122.859 59.6147C118.898 60.0198 114.899 59.3828 111.259 57.7667Z" fill="#231F20"/>
<path d="M111.771 35.6626C112.466 35.5675 112.921 34.6926 112.786 33.7085C112.651 32.7244 111.979 32.0037 111.284 32.0988C110.588 32.1939 110.134 33.0688 110.269 34.0529C110.403 35.037 111.076 35.7577 111.771 35.6626Z" fill="#231F20"/>
<path d="M128.234 36.02C128.93 35.9249 129.384 35.05 129.249 34.0659C129.115 33.0818 128.442 32.3611 127.747 32.4562C127.052 32.5513 126.597 33.4262 126.732 34.4103C126.867 35.3944 127.539 36.1151 128.234 36.02Z" fill="#231F20"/>
<path d="M119.015 49.7147C115.576 49.58 112.274 48.3289 109.61 46.1507C109.509 46.0925 109.422 46.0138 109.355 45.9198C109.287 45.8257 109.24 45.7184 109.216 45.6049C109.192 45.4914 109.193 45.3742 109.218 45.261C109.243 45.1477 109.291 45.0409 109.36 44.9476C109.429 44.8543 109.516 44.7766 109.617 44.7194C109.718 44.6623 109.83 44.6271 109.945 44.616C110.061 44.605 110.177 44.6184 110.287 44.6554C110.397 44.6924 110.498 44.7521 110.583 44.8307C120.285 51.9587 125.829 45.2597 126.06 44.9792C126.196 44.8092 126.394 44.7 126.61 44.6752C126.827 44.6505 127.044 44.7123 127.215 44.8472C127.385 44.9834 127.494 45.1812 127.519 45.3975C127.544 45.6139 127.482 45.8313 127.347 46.0022C126.291 47.1644 125.005 48.0946 123.571 48.7337C122.136 49.3727 120.585 49.7068 119.015 49.7147Z" fill="#231F20"/>
<path d="M117.051 40.0952H107.151C106.745 40.113 106.339 40.0486 105.959 39.9058C105.578 39.7631 105.23 39.545 104.936 39.2646C104.642 38.9841 104.407 38.6472 104.246 38.2739C104.085 37.9006 104.001 37.4987 103.999 37.0922V32.3237C104.004 31.5257 104.324 30.7619 104.89 30.1992C105.455 29.6365 106.221 29.3207 107.019 29.3207H116.919C117.714 29.325 118.475 29.6428 119.038 30.205C119.6 30.7673 119.918 31.5286 119.922 32.3237V37.0922C119.919 37.8651 119.619 38.6073 119.085 39.1659C118.551 39.7246 117.823 40.0572 117.051 40.0952ZM107.151 30.9542C106.788 30.9542 106.439 31.0985 106.183 31.3553C105.926 31.6121 105.781 31.9605 105.781 32.3237V37.0922C105.786 37.4525 105.932 37.7966 106.188 38.0499C106.445 38.3032 106.791 38.4452 107.151 38.4452H117.051C117.411 38.4452 117.757 38.3032 118.014 38.0499C118.27 37.7966 118.416 37.4525 118.421 37.0922V32.3237C118.421 32.1438 118.385 31.9657 118.316 31.7996C118.247 31.6334 118.147 31.4825 118.019 31.3553C117.892 31.2281 117.741 31.1273 117.575 31.0584C117.409 30.9896 117.231 30.9542 117.051 30.9542H107.151Z" fill="#231F20"/>
<path d="M134.64 40.0952H124.74C123.944 40.0952 123.18 39.7788 122.617 39.2156C122.053 38.6525 121.737 37.8886 121.737 37.0922V32.3237C121.737 31.5272 122.053 30.7634 122.617 30.2002C123.18 29.6371 123.944 29.3207 124.74 29.3207H134.64C135.436 29.3207 136.2 29.6371 136.763 30.2002C137.327 30.7634 137.643 31.5272 137.643 32.3237V37.0922C137.643 37.8886 137.327 38.6525 136.763 39.2156C136.2 39.7788 135.436 40.0952 134.64 40.0952ZM124.74 30.9542C124.377 30.9542 124.028 31.0985 123.772 31.3553C123.515 31.6121 123.371 31.9605 123.371 32.3237V37.0922C123.375 37.4525 123.521 37.7966 123.777 38.0499C124.034 38.3032 124.38 38.4452 124.74 38.4452H134.64C135 38.4452 135.346 38.3032 135.603 38.0499C135.859 37.7966 136.005 37.4525 136.009 37.0922V32.3237C136.009 31.9605 135.865 31.6121 135.608 31.3553C135.352 31.0985 135.003 30.9542 134.64 30.9542H124.74Z" fill="#231F20"/>
<path d="M120.269 33.5776C120.269 33.5776 125.846 40.9696 124.707 42.3721C123.569 43.7746 120.087 43.0816 120.087 43.0816" fill="white"/>
<path d="M121.902 44.0882C121.237 44.0921 120.573 44.0258 119.922 43.8902C119.815 43.8726 119.714 43.8334 119.623 43.7751C119.532 43.7167 119.454 43.6403 119.394 43.5507C119.333 43.461 119.292 43.36 119.272 43.2538C119.252 43.1476 119.255 43.0385 119.279 42.9332C119.319 42.7191 119.442 42.5296 119.621 42.406C119.8 42.2824 120.021 42.2346 120.236 42.2732C121.209 42.4712 123.437 42.6197 124.064 41.8607C124.245 41.1512 122.183 37.4717 119.609 34.0727C119.477 33.8976 119.421 33.6776 119.452 33.461C119.483 33.2444 119.598 33.049 119.774 32.9177C119.949 32.7864 120.169 32.73 120.385 32.761C120.602 32.7919 120.797 32.9076 120.929 33.0827C123.651 36.6962 126.621 41.3327 125.334 42.9002C124.879 43.3308 124.338 43.6594 123.746 43.8643C123.154 44.0692 122.526 44.1455 121.902 44.0882Z" fill="#231F20"/>
<path d="M112.976 337.409C112.758 337.404 112.551 337.316 112.397 337.162C112.243 337.008 112.155 336.801 112.151 336.584L112.002 203.346C112.002 203.127 112.089 202.917 112.244 202.763C112.398 202.608 112.608 202.521 112.827 202.521C113.046 202.521 113.256 202.608 113.41 202.763C113.565 202.917 113.652 203.127 113.652 203.346L113.801 336.584C113.796 336.801 113.708 337.008 113.554 337.162C113.4 337.316 113.193 337.404 112.976 337.409Z" fill="white"/>
<path d="M146.836 158.154L65.8262 160.657L66.2115 173.125L147.221 170.622L146.836 158.154Z" fill="white"/>
<path d="M66.198 173.976C65.9783 173.975 65.7667 173.893 65.604 173.745C65.4415 173.589 65.3467 173.376 65.34 173.151L64.9605 160.694C64.9561 160.582 64.974 160.47 65.0133 160.365C65.0526 160.26 65.1124 160.164 65.1892 160.083C65.2661 160.002 65.3584 159.936 65.4608 159.891C65.5632 159.846 65.6735 159.821 65.7855 159.819L146.801 157.311C147.024 157.317 147.239 157.398 147.411 157.542C147.573 157.698 147.668 157.911 147.675 158.136L148.054 170.61C148.059 170.722 148.041 170.834 148.002 170.939C147.962 171.043 147.903 171.139 147.826 171.221C147.749 171.302 147.657 171.367 147.554 171.413C147.452 171.458 147.341 171.483 147.229 171.485L66.2145 173.976H66.198ZM66.693 161.486L67.023 172.26L146.339 169.802L146.009 159.044L66.693 161.486Z" fill="#231F20"/>
<path d="M122.257 158.974L103.373 159.545L103.75 172.013L122.633 171.443L122.257 158.974Z" fill="white"/>
<path d="M103.768 172.838C103.553 172.839 103.346 172.756 103.191 172.607C103.024 172.453 102.923 172.24 102.91 172.013L102.547 159.555C102.543 159.443 102.561 159.332 102.6 159.227C102.64 159.122 102.699 159.026 102.776 158.945C102.853 158.863 102.945 158.798 103.048 158.753C103.15 158.707 103.261 158.683 103.372 158.681L122.248 158.103C122.473 158.099 122.691 158.183 122.854 158.337C123.018 158.491 123.114 158.704 123.123 158.928L123.503 171.402C123.501 171.627 123.419 171.843 123.271 172.013C123.107 172.163 122.899 172.256 122.678 172.277L103.801 172.838H103.768ZM104.263 160.347L104.593 171.122L121.77 170.594L121.44 159.836L104.263 160.347Z" fill="#231F20"/>
<path d="M118.861 161.883L107.696 162.22L107.903 169.081L119.068 168.744L118.861 161.883Z" fill="#231F20"/>
<path d="M93.819 87.6647C92.2803 87.7166 90.7473 87.4526 89.3145 86.8892C88.6811 86.6249 88.1084 86.2339 87.6317 85.7402C87.155 85.2465 86.7844 84.6604 86.5425 84.0182C83.787 76.6922 90.1725 68.8547 90.4365 68.5247C90.5046 68.4283 90.5919 68.3469 90.6929 68.2858C90.7939 68.2247 90.9065 68.1851 91.0235 68.1694C91.1405 68.1538 91.2595 68.1625 91.373 68.1949C91.4865 68.2274 91.5921 68.2829 91.6832 68.358C91.7742 68.4332 91.8488 68.5263 91.9023 68.6316C91.9557 68.7368 91.9868 68.852 91.9937 68.9699C92.0006 69.0877 91.9831 69.2057 91.9423 69.3165C91.9014 69.4273 91.8382 69.5284 91.7565 69.6137C91.7565 69.6137 85.7175 77.0222 88.1265 83.4242C88.2904 83.8541 88.5424 84.245 88.8664 84.5718C89.1903 84.8986 89.579 85.154 90.0075 85.3217C95.238 87.6647 107.398 82.9787 107.53 82.9292C107.743 82.8486 107.978 82.8555 108.186 82.9483C108.393 83.0411 108.555 83.2122 108.636 83.4242C108.676 83.5281 108.694 83.6389 108.691 83.7501C108.687 83.8613 108.662 83.9707 108.616 84.0719C108.57 84.1732 108.504 84.2643 108.423 84.3401C108.341 84.4158 108.245 84.4746 108.141 84.5132C103.559 86.2984 98.7273 87.3616 93.819 87.6647Z" fill="#231F20"/>
<path d="M128.287 88.6712C122.331 88.6712 114.428 83.9027 114.015 83.7212C113.919 83.6637 113.835 83.5875 113.768 83.497C113.702 83.4066 113.654 83.3037 113.628 83.1946C113.602 83.0854 113.598 82.9721 113.616 82.8614C113.634 82.7506 113.675 82.6447 113.734 82.5497C113.851 82.3596 114.037 82.2233 114.254 82.1707C114.471 82.1181 114.699 82.1535 114.89 82.2692C118.19 84.2657 127.545 88.8692 131.389 86.2457C135.234 83.6222 132.429 74.4647 131.076 71.1317C131.034 71.0234 131.013 70.9078 131.016 70.7915C131.018 70.6752 131.043 70.5606 131.09 70.4541C131.137 70.3476 131.204 70.2514 131.288 70.1709C131.372 70.0904 131.471 70.0272 131.579 69.985C131.688 69.9427 131.803 69.9222 131.919 69.9246C132.036 69.9271 132.15 69.9524 132.257 69.9991C132.363 70.0458 132.46 70.1131 132.54 70.197C132.621 70.2809 132.684 70.3799 132.726 70.4882C132.94 71.0327 138.006 83.7872 132.429 87.6482C131.189 88.4131 129.741 88.7708 128.287 88.6712Z" fill="#231F20"/>
<path d="M115.088 155.117C114.864 155.117 114.65 155.028 114.492 154.87C114.335 154.712 114.246 154.498 114.246 154.275C114.246 104.676 112.15 87.1696 112.134 86.9881C112.138 86.7869 112.215 86.5939 112.349 86.4441C112.484 86.2944 112.667 86.1978 112.867 86.1718C113.066 86.1459 113.269 86.1923 113.437 86.3027C113.605 86.4131 113.728 86.5802 113.784 86.7736C113.784 86.9551 115.913 104.544 115.913 154.275C115.913 154.495 115.826 154.707 115.672 154.864C115.518 155.022 115.308 155.112 115.088 155.117Z" fill="#231F20"/>
<path d="M68.574 184.388C68.1945 187.688 67.023 190.229 70.5705 191.648C75.174 193.479 80.0415 194.816 84.7275 196.4C85.2263 196.522 85.6896 196.76 86.0805 197.093C86.2737 197.261 86.4037 197.49 86.4487 197.742C86.4937 197.994 86.4511 198.254 86.328 198.479C85.998 198.974 85.2885 198.974 84.678 198.924C81.0528 198.558 77.4719 197.84 73.986 196.779C76.7126 197.37 79.3407 198.348 81.7905 199.683C82.731 200.178 83.7705 201.218 83.2095 202.125C82.83 202.752 81.939 202.769 81.213 202.703C78.2327 202.442 75.2763 201.956 72.369 201.251C75.5713 201.647 78.5441 203.119 80.8005 205.425C80.9956 205.577 81.1301 205.794 81.18 206.036C81.18 206.679 80.388 206.96 79.728 206.96C77.1382 206.936 74.5817 206.374 72.2205 205.31L78.144 208.296C79.2165 208.841 80.487 209.781 80.19 210.953C80.0737 211.278 79.8679 211.563 79.5965 211.776C79.325 211.989 78.9988 212.121 78.6555 212.157C76.065 212.553 72.0555 211.085 69.4485 210.507C66.8211 209.753 64.3546 208.523 62.172 206.877C56.661 203.165 45.375 191.615 41.8935 185.856L48.4935 172.211C54.7451 176.957 61.4751 181.038 68.574 184.388Z" fill="white"/>
<path d="M77.715 213.147C75.5378 213.002 73.3872 212.587 71.313 211.91C70.587 211.695 69.894 211.514 69.2835 211.365C66.5515 210.595 63.9882 209.319 61.7265 207.603C56.232 203.808 44.847 192.374 41.1675 186.302C41.0949 186.179 41.0566 186.04 41.0566 185.897C41.0566 185.755 41.0949 185.615 41.1675 185.493L47.7675 171.831C47.8259 171.718 47.9076 171.618 48.0071 171.539C48.1066 171.459 48.2217 171.401 48.345 171.369C48.4708 171.345 48.6004 171.347 48.7254 171.375C48.8503 171.404 48.968 171.458 49.071 171.534C55.2838 176.254 61.9756 180.308 69.036 183.629C69.1956 183.704 69.3276 183.827 69.4134 183.981C69.4993 184.135 69.5346 184.312 69.5145 184.487C69.5145 185.081 69.366 185.642 69.267 186.137C68.8545 188.793 68.772 189.915 70.917 190.806C73.953 192.011 77.187 193.034 80.3055 194.007C81.9555 194.519 83.4735 195.014 85.041 195.542C85.6539 195.703 86.2195 196.009 86.691 196.433C87.0218 196.744 87.2364 197.159 87.2994 197.609C87.3624 198.059 87.27 198.517 87.0375 198.908C86.7465 199.248 86.3689 199.502 85.9447 199.645C85.5205 199.787 85.0656 199.812 84.6285 199.716L83.2095 199.551C83.6611 199.943 83.9976 200.451 84.183 201.02C84.2555 201.271 84.2739 201.535 84.2369 201.793C84.1999 202.052 84.1084 202.3 83.9685 202.521C83.6397 202.927 83.2055 203.234 82.7135 203.408C82.2215 203.583 81.6909 203.619 81.18 203.511L79.8765 203.379C80.4583 203.808 81.0096 204.277 81.5265 204.782C81.8513 205.069 82.067 205.459 82.137 205.887C82.1632 206.093 82.1459 206.302 82.0863 206.501C82.0266 206.7 81.9258 206.885 81.7905 207.042C81.2671 207.528 80.5738 207.789 79.86 207.768H78.9855C81.279 209.055 81.3285 210.474 81.1305 211.217C80.9768 211.705 80.6844 212.138 80.2889 212.463C79.8934 212.789 79.4119 212.992 78.903 213.048C78.51 213.11 78.1129 213.143 77.715 213.147ZM42.8505 185.807C46.6125 191.664 57.5025 202.62 62.6505 206.201C64.7461 207.824 67.1316 209.033 69.6795 209.765C70.3065 209.913 71.016 210.111 71.7585 210.326C73.9386 211.105 76.2415 211.485 78.5565 211.448C78.7346 211.432 78.9056 211.37 79.053 211.269C79.2004 211.168 79.3192 211.031 79.398 210.87C79.5465 210.309 78.6555 209.633 77.748 209.22L71.841 206.234C71.6397 206.137 71.4849 205.965 71.4107 205.755C71.3364 205.544 71.3488 205.313 71.445 205.112C71.5447 204.913 71.7162 204.76 71.9245 204.684C72.1329 204.607 72.3625 204.613 72.567 204.699C74.8288 205.678 77.2636 206.194 79.728 206.217C79.8909 206.255 80.0601 206.255 80.223 206.217C78.7185 204.696 76.8668 203.564 74.8275 202.917C73.953 202.752 73.0785 202.554 72.204 202.34C71.9917 202.292 71.8061 202.164 71.6861 201.983C71.5661 201.801 71.5211 201.58 71.5605 201.366C71.6008 201.153 71.7201 200.963 71.8946 200.835C72.0691 200.706 72.2857 200.649 72.501 200.673C73.4357 200.787 74.358 200.986 75.2565 201.267C77.2639 201.66 79.2907 201.947 81.3285 202.125C82.2525 202.125 82.4835 202.026 82.533 201.944C82.4483 201.668 82.306 201.414 82.1154 201.198C81.9247 200.981 81.6902 200.808 81.4275 200.69C79.9627 199.902 78.4337 199.239 76.857 198.71C75.8175 198.446 74.7945 198.165 73.7715 197.852C73.5609 197.79 73.3826 197.649 73.2747 197.458C73.1668 197.266 73.1379 197.041 73.194 196.829C73.2523 196.617 73.3882 196.435 73.5747 196.318C73.7612 196.202 73.9846 196.161 74.2005 196.202C75.2565 196.433 76.296 196.73 77.3355 197.06C79.7888 197.656 82.2809 198.081 84.7935 198.33C85.503 198.413 85.6185 198.33 85.6185 198.33C85.6203 198.269 85.6095 198.208 85.5868 198.151C85.5641 198.095 85.53 198.043 85.4865 198C85.1835 197.77 84.8347 197.606 84.4635 197.522C82.9125 196.994 81.3285 196.499 79.761 196.004C76.6095 195.014 73.359 193.991 70.257 192.704C66.693 191.268 67.089 188.678 67.5015 186.186L67.65 185.163C60.9932 181.876 54.6667 177.959 48.7575 173.465L42.8505 185.807Z" fill="#231F20"/>
<path d="M65.901 79.4147C65.901 79.4147 7.72199 131.225 2.49149 140.927C-2.73901 150.629 46.8435 197.67 46.8435 197.67L60.3405 177.045L39.6495 143.171L87.3345 110.765L65.901 79.4147Z" fill="#1F292E"/>
<path d="M92.3505 121.44H92.1525C91.1625 121.242 84.7605 116.754 81.0315 114.098C80.9225 114.018 80.8341 113.914 80.7738 113.793C80.7135 113.673 80.683 113.54 80.685 113.405V99.7097C80.6828 99.5978 80.703 99.4866 80.7443 99.3826C80.7856 99.2786 80.8472 99.1839 80.9256 99.104C81.0039 99.0241 81.0974 98.9606 81.2006 98.9173C81.3038 98.874 81.4146 98.8517 81.5265 98.8517H100.7C100.935 98.8551 101.16 98.9497 101.326 99.1157C101.407 99.2014 101.469 99.3027 101.509 99.4134C101.549 99.5241 101.565 99.6418 101.557 99.7592L100.683 113.454C100.674 113.645 100.598 113.826 100.469 113.966C94.413 120.764 92.9445 121.44 92.3505 121.44ZM82.3185 112.976C86.5425 115.979 91.1625 119.13 92.2185 119.708C94.5961 117.693 96.8035 115.485 98.8185 113.108L99.6105 100.601H82.3845L82.3185 112.976Z" fill="#231F20"/>
<path d="M231.297 94.5782C232.305 93.9943 233.434 93.65 234.597 93.5717C235.49 93.6331 236.366 93.8451 237.187 94.1987C241.23 95.7002 245.206 97.3667 249.117 99.1487C250.074 99.5942 251.13 100.188 251.295 101.228C251.46 102.267 250.255 103.439 249.051 103.703C247.846 103.967 246.576 103.703 245.388 104.082C246.691 103.785 247.863 105.336 247.549 106.623C247.35 107.262 246.96 107.826 246.433 108.238C245.905 108.651 245.265 108.893 244.596 108.933C243.267 109.005 241.937 108.809 240.685 108.356C241.028 108.387 241.359 108.5 241.65 108.684C241.941 108.868 242.184 109.118 242.36 109.414C242.535 109.711 242.638 110.044 242.66 110.388C242.681 110.732 242.621 111.076 242.484 111.392C242.149 112.015 241.636 112.524 241.01 112.853C240.383 113.183 239.673 113.317 238.969 113.24C237.571 113.054 236.224 112.588 235.009 111.87C236.544 112.712 238.309 114.048 237.946 115.764C237.711 116.4 237.265 116.935 236.682 117.28C236.1 117.626 235.416 117.76 234.745 117.662C233.414 117.412 232.125 116.973 230.917 116.358C222.337 113.058 207.652 117.827 207.471 117.414C206.431 115.022 206.646 109.874 206.266 107.283C214.275 102.419 222.643 98.1713 231.297 94.5782Z" fill="white"/>
<path d="M235.059 118.536H234.712C233.622 118.394 232.562 118.07 231.578 117.579L230.637 117.183C224.251 114.675 214.137 116.936 209.797 117.909C207.454 118.437 207.042 118.536 206.712 117.794C206.021 115.493 205.682 113.101 205.705 110.699C205.705 109.461 205.59 108.29 205.458 107.399C205.435 107.233 205.46 107.064 205.53 106.912C205.6 106.759 205.713 106.631 205.854 106.541C212.602 102.366 219.65 98.6987 226.941 95.5681C228.327 94.9576 229.63 94.3801 230.917 93.7696C232.067 93.143 233.34 92.7769 234.646 92.6971C235.636 92.7505 236.608 92.9795 237.517 93.3736C241.56 94.8751 245.586 96.5581 249.513 98.3236C250.239 98.6701 251.922 99.4456 252.17 101.046C252.209 101.879 251.931 102.696 251.392 103.333C250.854 103.97 250.094 104.379 249.265 104.478C248.874 104.56 248.477 104.61 248.078 104.627C248.445 105.278 248.562 106.04 248.408 106.772C248.161 107.573 247.68 108.282 247.027 108.808C246.375 109.335 245.58 109.654 244.745 109.725C244.311 109.758 243.875 109.758 243.441 109.725C243.597 110.367 243.551 111.041 243.309 111.656C242.904 112.44 242.272 113.084 241.494 113.502C240.717 113.92 239.831 114.094 238.953 113.999H238.607C238.875 114.593 238.944 115.259 238.804 115.896C238.573 116.697 238.076 117.394 237.396 117.874C236.715 118.354 235.89 118.588 235.059 118.536ZM223.36 114.329C226.05 114.258 228.729 114.683 231.264 115.583L232.271 115.995C233.075 116.416 233.946 116.695 234.845 116.82C235.311 116.906 235.792 116.83 236.209 116.605C236.626 116.38 236.954 116.019 237.138 115.583C237.402 114.428 235.917 113.339 234.63 112.629C234.431 112.524 234.282 112.344 234.215 112.129C234.149 111.914 234.17 111.681 234.275 111.482C234.38 111.283 234.56 111.134 234.775 111.068C234.99 111.001 235.223 111.023 235.422 111.128C236.532 111.795 237.768 112.227 239.052 112.398C239.58 112.463 240.116 112.373 240.593 112.138C241.071 111.904 241.47 111.536 241.741 111.078C241.815 110.844 241.835 110.597 241.801 110.355C241.766 110.112 241.679 109.88 241.543 109.676C241.476 109.585 241.398 109.502 241.312 109.428L240.487 109.197C240.31 109.129 240.161 109.005 240.062 108.843C239.963 108.681 239.921 108.491 239.942 108.302C239.962 108.114 240.045 107.937 240.177 107.801C240.308 107.664 240.481 107.575 240.669 107.547C241.143 107.514 241.616 107.63 242.022 107.877C242.837 108.105 243.686 108.189 244.53 108.125C245.02 108.091 245.49 107.917 245.885 107.625C246.28 107.333 246.582 106.934 246.758 106.475C246.798 106.254 246.783 106.027 246.714 105.814C246.644 105.601 246.523 105.408 246.361 105.254C246.269 105.146 246.151 105.063 246.019 105.011C245.886 104.96 245.744 104.941 245.603 104.957C245.384 105.009 245.153 104.973 244.961 104.855C244.769 104.737 244.632 104.548 244.579 104.33C244.527 104.111 244.564 103.88 244.681 103.688C244.799 103.496 244.988 103.359 245.207 103.307C245.899 103.144 246.607 103.061 247.318 103.059C247.872 103.066 248.425 103.017 248.968 102.911C249.81 102.729 250.618 102.069 250.618 101.409C250.618 100.749 249.661 100.32 248.968 99.9736C245.074 98.1916 241.082 96.5251 237.089 95.0236C236.362 94.7065 235.586 94.5167 234.795 94.4626C233.737 94.5099 232.709 94.8281 231.809 95.3866C230.505 95.9971 229.185 96.5746 227.783 97.1851C220.735 100.226 213.915 103.766 207.372 107.778C207.471 108.603 207.521 109.593 207.57 110.633C207.581 112.626 207.808 114.612 208.246 116.556L209.583 116.259C214.095 115.132 218.713 114.485 223.36 114.329Z" fill="#231F20"/>
<path d="M215.325 126.126L288.239 49.8796L289.823 51.5296L218.146 130.037L215.325 126.126Z" fill="#231F20"/>
<path d="M218.146 130.862C218.023 130.853 217.903 130.817 217.795 130.757C217.687 130.697 217.593 130.615 217.52 130.515L214.681 126.605C214.57 126.45 214.518 126.26 214.533 126.07C214.548 125.88 214.63 125.701 214.764 125.565L287.645 49.3187C287.719 49.2352 287.811 49.1685 287.913 49.123C288.016 49.0774 288.126 49.0542 288.239 49.0547C288.463 49.0614 288.677 49.1562 288.833 49.3187L290.4 50.9687C290.545 51.1194 290.626 51.3205 290.626 51.5297C290.626 51.7389 290.545 51.94 290.4 52.0907L218.757 130.565C218.681 130.654 218.588 130.726 218.483 130.777C218.378 130.829 218.263 130.857 218.146 130.862ZM216.381 126.209L218.229 128.733L288.684 51.5462L288.239 51.0677L216.381 126.209Z" fill="#231F20"/>
<path d="M235.273 97.9276L234.778 100.056L240.372 101.624C241.541 101.844 242.636 102.354 243.556 103.109C244 103.503 244.286 104.044 244.362 104.632C244.437 105.22 244.298 105.816 243.969 106.31C243.111 107.3 241.544 107.052 240.24 106.871C237.47 106.46 234.642 106.715 231.99 107.613C230.64 108.074 229.323 108.626 228.046 109.263L225.671 110.385" fill="white"/>
<path d="M225.588 111.293C225.387 111.301 225.189 111.238 225.029 111.115C224.87 110.992 224.759 110.816 224.715 110.62C224.672 110.423 224.699 110.217 224.793 110.039C224.886 109.86 225.039 109.72 225.225 109.643L227.584 108.521C228.9 107.859 230.256 107.28 231.644 106.788C234.451 105.843 237.441 105.572 240.372 105.996C241.527 106.178 242.781 106.359 243.326 105.732C243.504 105.403 243.566 105.023 243.5 104.654C243.434 104.285 243.244 103.949 242.963 103.703C242.14 103.055 241.171 102.619 240.141 102.432L234.547 100.865C234.334 100.807 234.152 100.667 234.04 100.475C233.929 100.284 233.898 100.056 233.953 99.8416L234.432 97.7131C234.44 97.5889 234.474 97.4678 234.534 97.3583C234.593 97.2488 234.675 97.1535 234.775 97.0791C234.875 97.0046 234.99 96.9528 235.112 96.9271C235.233 96.9014 235.359 96.9026 235.481 96.9305C235.602 96.9584 235.716 97.0124 235.814 97.0887C235.913 97.165 235.993 97.2618 236.05 97.3724C236.108 97.4829 236.14 97.6046 236.146 97.729C236.151 97.8534 236.129 97.9775 236.082 98.0926L235.769 99.4456L240.587 100.782C241.889 101.025 243.109 101.592 244.134 102.432C244.73 102.976 245.107 103.72 245.192 104.522C245.277 105.325 245.065 106.131 244.596 106.788C243.441 108.125 241.544 107.844 240.158 107.63C237.477 107.225 234.739 107.469 232.171 108.339C230.862 108.807 229.583 109.358 228.344 109.989L225.951 111.144C225.84 111.216 225.717 111.266 225.588 111.293Z" fill="#231F20"/>
<path d="M141.586 73.2601C141.586 73.2601 166.155 115.071 169.636 115.698C173.118 116.325 212.899 96.8056 212.899 96.8056L220.539 116.21C220.539 116.21 181.385 157.658 167.459 151.14C153.533 144.623 136.818 116.622 136.818 116.622L141.586 73.2601Z" fill="#1F292E"/>
<path d="M75.57 186.665C75.3512 186.697 75.1283 186.642 74.9504 186.51C74.7725 186.379 74.6541 186.182 74.6213 185.963C74.5884 185.745 74.6439 185.522 74.7754 185.344C74.9069 185.166 75.1037 185.047 75.3225 185.015C77.0678 184.414 78.5855 183.291 79.6691 181.797C80.7527 180.303 81.3494 178.511 81.378 176.666C81.378 176.447 81.4649 176.237 81.6197 176.082C81.7744 175.928 81.9842 175.841 82.203 175.841C82.3106 175.838 82.4175 175.858 82.5175 175.897C82.6175 175.937 82.7086 175.996 82.7854 176.072C82.8622 176.147 82.9233 176.237 82.9649 176.336C83.0066 176.435 83.028 176.542 83.028 176.649C83.0066 178.845 82.3002 180.979 81.0076 182.753C79.715 184.528 77.9006 185.855 75.8175 186.549C75.744 186.604 75.6597 186.644 75.57 186.665Z" fill="white"/>
<path d="M144.243 188.315H144.144C143.053 188.095 142.049 187.562 141.256 186.78C139.578 185.484 138.075 183.975 136.785 182.292C135.38 180.485 134.745 178.196 135.019 175.923C135.037 175.815 135.075 175.711 135.133 175.618C135.19 175.524 135.266 175.443 135.354 175.379C135.443 175.314 135.544 175.268 135.651 175.242C135.757 175.217 135.868 175.213 135.976 175.23C136.085 175.248 136.189 175.286 136.282 175.344C136.376 175.401 136.457 175.476 136.521 175.565C136.586 175.654 136.632 175.755 136.657 175.861C136.683 175.968 136.687 176.079 136.669 176.187C136.486 178.035 137.017 179.884 138.154 181.352C139.365 182.914 140.774 184.312 142.345 185.51C142.897 186.088 143.6 186.5 144.375 186.698C144.481 186.71 144.584 186.743 144.678 186.796C144.772 186.848 144.854 186.919 144.92 187.003C144.986 187.087 145.034 187.184 145.063 187.288C145.091 187.391 145.098 187.499 145.084 187.605C145.056 187.806 144.955 187.99 144.799 188.121C144.644 188.252 144.446 188.321 144.243 188.315Z" fill="white"/>
<path d="M113.223 199.155C113.103 199.178 112.98 199.178 112.86 199.155C112.666 199.056 112.518 198.885 112.447 198.679C112.376 198.473 112.388 198.247 112.48 198.05C115.794 191.315 117.17 183.791 116.457 176.319C116.438 176.101 116.506 175.884 116.644 175.715C116.783 175.545 116.982 175.437 117.199 175.412C117.307 175.4 117.416 175.411 117.519 175.442C117.623 175.474 117.719 175.525 117.802 175.595C117.885 175.664 117.953 175.749 118.003 175.845C118.052 175.941 118.082 176.046 118.09 176.154C118.83 183.931 117.403 191.761 113.965 198.776C113.888 198.9 113.778 199.002 113.647 199.069C113.516 199.135 113.37 199.165 113.223 199.155Z" fill="white"/>
<path d="M145.25 155.117C145.028 155.117 144.814 155.031 144.654 154.877C144.494 154.723 144.4 154.513 144.392 154.292L143.385 97.9442C143.383 97.8315 143.403 97.7195 143.444 97.6146C143.485 97.5096 143.546 97.4138 143.625 97.3326C143.703 97.2514 143.796 97.1864 143.899 97.1413C144.003 97.0962 144.114 97.0718 144.227 97.0697C144.34 97.0626 144.453 97.0795 144.559 97.119C144.665 97.1586 144.762 97.2201 144.843 97.2994C144.924 97.3788 144.987 97.4742 145.029 97.5796C145.07 97.685 145.089 97.798 145.085 97.9112L146.091 154.259C146.093 154.369 146.074 154.479 146.033 154.582C145.993 154.685 145.933 154.779 145.856 154.859C145.78 154.938 145.688 155.002 145.587 155.046C145.486 155.091 145.377 155.115 145.266 155.117H145.25Z" fill="#231F20"/>
<path d="M48.411 138.089C48.2323 138.083 48.0598 138.022 47.9176 137.913C47.7754 137.805 47.6706 137.655 47.6179 137.484C47.5652 137.313 47.5672 137.13 47.6236 136.96C47.68 136.791 47.788 136.643 47.9325 136.538L70.488 121.193C70.58 121.131 70.6833 121.087 70.7921 121.065C70.9009 121.043 71.0129 121.043 71.1218 121.064C71.2307 121.086 71.3343 121.129 71.4265 121.19C71.5188 121.252 71.598 121.331 71.6595 121.424C71.7874 121.61 71.8367 121.839 71.7965 122.062C71.7564 122.284 71.63 122.482 71.445 122.612L48.8895 137.94C48.7483 138.036 48.5817 138.088 48.411 138.089Z" fill="#231F20"/>
<g clip-path="url(#clip0_5_389)">
<path d="M387.453 114.031L320.146 49.818L249.213 110.725C246.76 112.538 246.76 116.165 248.786 117.978L316.093 182.191L387.026 121.285C389.48 119.471 389.8 116.165 387.453 114.031ZM317.693 135.365L296.893 115.418L318.973 96.538L339.773 116.485L317.693 135.365Z" fill="#2684FF"/>
<path d="M318.973 96.5381C305.32 83.5247 305.746 62.8314 320.146 50.1381L271.72 91.5247L297 115.418L318.973 96.5381Z" fill="url(#paint0_linear_5_389)"/>
<path d="M340.199 116.485L317.799 135.685C331.453 148.698 331.026 169.818 316.626 182.511L365.479 140.805L340.199 116.485Z" fill="url(#paint1_linear_5_389)"/>
</g>
<defs>
<linearGradient id="paint0_linear_5_389" x1="315.488" y1="72.9316" x2="287.48" y2="102.251" gradientUnits="userSpaceOnUse">
<stop offset="0.18" stop-color="#0052CC"/>
<stop offset="1" stop-color="#2684FF"/>
</linearGradient>
<linearGradient id="paint1_linear_5_389" x1="325.16" y1="155.467" x2="353.17" y2="126.147" gradientUnits="userSpaceOnUse">
<stop offset="0.18" stop-color="#0052CC"/>
<stop offset="1" stop-color="#2684FF"/>
</linearGradient>
<clipPath id="clip0_5_389">
<rect width="144" height="144" fill="white" transform="translate(247.4 44.1647)"/>
</clipPath>
</defs>
</svg>
