<svg width="460" height="377" viewBox="0 0 460 377" fill="none" xmlns="http://www.w3.org/2000/svg">
<path d="M458.575 325.407H1.4255C1.2067 325.407 0.996856 325.32 0.842138 325.165C0.687421 325.011 0.600502 324.801 0.600502 324.582C0.600502 324.363 0.687421 324.153 0.842138 323.999C0.996856 323.844 1.2067 323.757 1.4255 323.757H458.575C458.793 323.757 459.003 323.844 459.158 323.999C459.313 324.153 459.4 324.363 459.4 324.582C459.4 324.801 459.313 325.011 459.158 325.165C459.003 325.32 458.793 325.407 458.575 325.407Z" fill="#D1D3D4"/>
<path d="M278.411 226.853L216.635 352.748H225.462L290.967 226.853H278.411Z" fill="white"/>
<path d="M225.463 353.605H216.635C216.489 353.604 216.345 353.566 216.218 353.494C216.091 353.421 215.985 353.318 215.909 353.193C215.844 353.065 215.81 352.924 215.81 352.78C215.81 352.637 215.844 352.496 215.909 352.368L277.702 226.473C277.775 226.335 277.884 226.22 278.018 226.138C278.151 226.057 278.304 226.013 278.46 226.011H291.05C291.195 226.01 291.337 226.047 291.464 226.116C291.591 226.185 291.698 226.285 291.776 226.407C291.848 226.535 291.886 226.68 291.886 226.828C291.886 226.975 291.848 227.12 291.776 227.248L226.288 353.143C226.209 353.291 226.089 353.414 225.943 353.496C225.797 353.578 225.63 353.616 225.463 353.605ZM218.004 351.955H224.934L289.565 227.777H278.956L218.004 351.955Z" fill="#231F20"/>
<path d="M352.446 226.853L414.239 352.748H405.411L339.906 226.853H352.446Z" fill="white"/>
<path d="M414.239 353.605H405.411C405.255 353.603 405.102 353.559 404.969 353.478C404.835 353.397 404.726 353.281 404.652 353.143L339.147 227.248C339.078 227.119 339.044 226.974 339.049 226.827C339.053 226.68 339.096 226.537 339.173 226.412C339.249 226.287 339.357 226.184 339.486 226.114C339.615 226.044 339.76 226.008 339.906 226.011H352.446C352.604 226.007 352.759 226.049 352.894 226.131C353.028 226.213 353.136 226.332 353.206 226.473L414.998 352.368C415.067 352.494 415.104 352.636 415.104 352.78C415.104 352.925 415.067 353.067 414.998 353.193C414.918 353.322 414.806 353.427 414.673 353.499C414.54 353.572 414.39 353.608 414.239 353.605ZM405.989 351.955H412.935L351.984 227.776H341.375L405.989 351.955Z" fill="#231F20"/>
<path d="M317.829 331.842H313.028L311.477 226.853H319.38L317.829 331.842Z" fill="white"/>
<path d="M317.829 332.7H313.028C312.805 332.7 312.591 332.611 312.433 332.453C312.275 332.296 312.186 332.082 312.186 331.858L310.635 226.869C310.634 226.756 310.654 226.643 310.697 226.538C310.74 226.434 310.803 226.338 310.883 226.258C310.96 226.179 311.052 226.116 311.154 226.073C311.256 226.03 311.366 226.009 311.477 226.011H319.38C319.494 226.009 319.606 226.029 319.711 226.072C319.817 226.114 319.912 226.177 319.992 226.257C320.072 226.337 320.135 226.433 320.178 226.538C320.22 226.643 320.241 226.756 320.238 226.869L318.687 331.858C318.679 332.082 318.586 332.293 318.426 332.45C318.266 332.606 318.053 332.696 317.829 332.7ZM313.869 331.05H316.988L318.522 227.776H312.351L313.869 331.05Z" fill="#231F20"/>
<path d="M442.008 6.32996H188.866V221.259H442.008V6.32996Z" fill="white"/>
<path d="M442.008 222.15H188.866C188.754 222.152 188.642 222.132 188.538 222.091C188.434 222.049 188.34 221.988 188.26 221.909C188.18 221.831 188.116 221.738 188.073 221.634C188.03 221.531 188.007 221.42 188.008 221.308V6.32995C188.007 6.21804 188.03 6.10725 188.073 6.00406C188.116 5.90088 188.18 5.80736 188.26 5.729C188.34 5.65064 188.434 5.58901 188.538 5.5477C188.642 5.5064 188.754 5.48625 188.866 5.48844H442.008C442.12 5.48625 442.232 5.5064 442.336 5.5477C442.44 5.58901 442.534 5.65064 442.614 5.729C442.694 5.80736 442.758 5.90088 442.801 6.00406C442.844 6.10725 442.867 6.21804 442.867 6.32995V221.275C442.871 221.39 442.852 221.504 442.811 221.612C442.769 221.719 442.707 221.816 442.626 221.898C442.546 221.98 442.45 222.044 442.343 222.088C442.237 222.131 442.123 222.152 442.008 222.15ZM189.707 220.5H441.2V7.18795H189.707V220.5Z" fill="#231F20"/>
<path d="M447.387 221.276H183.486V232.446H447.387V221.276Z" fill="white"/>
<path d="M447.387 233.287H183.486C183.375 233.29 183.263 233.27 183.159 233.228C183.055 233.187 182.961 233.125 182.881 233.047C182.801 232.969 182.737 232.875 182.694 232.772C182.651 232.669 182.628 232.558 182.628 232.446V221.275C182.628 221.048 182.719 220.83 182.88 220.669C183.041 220.508 183.259 220.417 183.486 220.417H447.387C447.499 220.417 447.61 220.44 447.713 220.483C447.817 220.526 447.91 220.59 447.988 220.67C448.067 220.75 448.128 220.844 448.17 220.948C448.211 221.052 448.231 221.164 448.229 221.275V232.446C448.229 232.669 448.14 232.883 447.983 233.041C447.825 233.199 447.611 233.287 447.387 233.287ZM184.328 231.637H446.53V222.15H184.328V231.637Z" fill="#231F20"/>
<path d="M442.008 222.15H188.866C188.738 222.187 188.603 222.193 188.473 222.169C188.342 222.144 188.219 222.09 188.113 222.01C188.007 221.93 187.921 221.827 187.862 221.708C187.803 221.589 187.772 221.458 187.772 221.325C187.772 221.192 187.803 221.061 187.862 220.942C187.921 220.824 188.007 220.72 188.113 220.64C188.219 220.56 188.342 220.506 188.473 220.482C188.603 220.457 188.738 220.464 188.866 220.5H442.008C442.136 220.464 442.271 220.457 442.401 220.482C442.532 220.506 442.655 220.56 442.761 220.64C442.867 220.72 442.953 220.824 443.012 220.942C443.071 221.061 443.102 221.192 443.102 221.325C443.102 221.458 443.071 221.589 443.012 221.708C442.953 221.827 442.867 221.93 442.761 222.01C442.655 222.09 442.532 222.144 442.401 222.169C442.271 222.193 442.136 222.187 442.008 222.15Z" fill="#231F20"/>
<path d="M359.409 1.677H271.448V15.9165H359.409V1.677Z" fill="white"/>
<path d="M359.409 16.791H271.448C271.223 16.7867 271.009 16.6944 270.852 16.5339C270.695 16.3735 270.606 16.1577 270.607 15.933V1.67699C270.607 1.45381 270.695 1.23977 270.853 1.08196C271.011 0.924147 271.225 0.835489 271.448 0.835489H359.409C359.521 0.833295 359.633 0.853443 359.737 0.894749C359.841 0.936055 359.935 0.997689 360.015 1.07605C360.095 1.15441 360.159 1.24792 360.202 1.35111C360.245 1.45429 360.268 1.56508 360.268 1.67699V15.9C360.272 16.0154 360.253 16.1305 360.212 16.2385C360.171 16.3464 360.108 16.4449 360.028 16.5281C359.948 16.6113 359.852 16.6775 359.746 16.7227C359.639 16.7678 359.525 16.7911 359.409 16.791ZM272.306 15.141H358.568V2.53499H272.306V15.141Z" fill="#231F20"/>
<path d="M256.202 150.821H225.545V194.546H256.202V150.821Z" fill="white"/>
<path d="M113.428 330.307V355.8L125.605 359.281L125.324 354.067L130.835 359.578C130.835 359.578 163.555 365.452 163.39 361.096C163.225 356.74 159.908 354.348 155.767 352.17C151.345 349.843 139.679 343.26 139.679 343.26L137.93 324.549" fill="white"/>
<path d="M157.4 363.572C148.738 363.572 134.383 361.097 130.769 360.437C130.594 360.411 130.432 360.33 130.307 360.206L126.38 356.279L126.545 359.265C126.555 359.4 126.531 359.535 126.477 359.659C126.422 359.783 126.338 359.891 126.232 359.975C126.124 360.061 125.998 360.121 125.864 360.15C125.729 360.179 125.589 360.175 125.456 360.14L113.279 356.658C113.103 356.602 112.95 356.493 112.84 356.345C112.73 356.196 112.67 356.017 112.669 355.833V330.308C112.72 330.128 112.828 329.971 112.977 329.858C113.126 329.746 113.307 329.685 113.494 329.685C113.68 329.685 113.861 329.746 114.01 329.858C114.159 329.971 114.267 330.128 114.319 330.308V355.19L124.73 358.16L124.4 354.15C124.395 353.98 124.441 353.812 124.532 353.668C124.623 353.524 124.754 353.41 124.91 353.341C125.066 353.272 125.238 353.251 125.406 353.28C125.574 353.31 125.729 353.389 125.852 353.507L131.182 358.836C145.52 361.394 161.443 362.928 162.532 361.146C162.367 357.417 159.545 355.19 155.354 352.979C151.163 350.768 139.366 344.118 139.25 344.052C139.131 343.984 139.03 343.889 138.955 343.774C138.881 343.659 138.835 343.528 138.821 343.392L137.072 324.681C137.102 324.494 137.193 324.323 137.331 324.193C137.469 324.064 137.645 323.983 137.834 323.964C138.022 323.946 138.211 323.99 138.372 324.089C138.532 324.189 138.655 324.339 138.722 324.516L140.372 342.782C142.434 343.953 152.136 349.382 156.047 351.477C159.957 353.573 163.934 356.262 164.116 361.113C164.129 361.373 164.081 361.633 163.975 361.871C163.869 362.109 163.708 362.319 163.505 362.483C162.696 363.258 160.354 363.572 157.4 363.572Z" fill="#231F20"/>
<path d="M77.474 344.25L77.243 365.7L91.169 369.396L91.3835 363.307L96.1685 370.914C96.1685 370.914 130.538 378.52 132.287 373.884C134.036 369.247 130.983 362.433 122.486 358.291C116.961 355.672 111.299 353.353 105.524 351.345L103.577 341.99" fill="white"/>
<path d="M126.05 376.194C116.975 376.194 101.795 373.043 95.987 371.756C95.7721 371.695 95.5853 371.56 95.459 371.376L92.159 366.096L92.0435 369.396C92.0335 369.521 91.9975 369.643 91.9379 369.754C91.8782 369.865 91.7962 369.962 91.697 370.04C91.5959 370.119 91.4777 370.174 91.3516 370.2C91.2255 370.226 91.0952 370.222 90.971 370.188L77.045 366.492C76.8621 366.441 76.7013 366.331 76.5879 366.178C76.4744 366.026 76.4146 365.84 76.418 365.651L76.6325 344.201C76.6325 344.089 76.6548 343.978 76.6981 343.875C76.7414 343.771 76.8049 343.678 76.8848 343.6C76.9647 343.521 77.0594 343.46 77.1634 343.418C77.2674 343.377 77.3786 343.357 77.4905 343.359C77.6024 343.359 77.7132 343.381 77.8164 343.425C77.9196 343.468 78.0131 343.531 78.0914 343.611C78.1698 343.691 78.2314 343.786 78.2727 343.89C78.3141 343.994 78.3342 344.105 78.332 344.217L78.1175 364.941L90.377 368.241L90.5585 363.291C90.529 363.082 90.5773 362.87 90.6942 362.695C90.811 362.52 90.9883 362.394 91.1922 362.341C91.396 362.288 91.6123 362.311 91.7997 362.408C91.9871 362.504 92.1326 362.666 92.2085 362.862L96.812 370.172C117.404 374.709 130.885 375.501 131.578 373.604C133.228 369.413 130.439 363.077 122.222 359.084C116.725 356.482 111.097 354.169 105.359 352.154C105.215 352.114 105.086 352.034 104.986 351.923C104.887 351.812 104.821 351.674 104.798 351.527L102.834 342.171C102.831 341.971 102.896 341.776 103.021 341.62C103.145 341.464 103.32 341.356 103.516 341.314C103.712 341.273 103.915 341.302 104.092 341.395C104.269 341.488 104.408 341.64 104.484 341.825L106.25 350.685C111.894 352.688 117.434 354.974 122.849 357.533C131.99 361.988 134.91 369.281 133.062 374.181C132.534 375.6 129.812 376.194 126.05 376.194Z" fill="#231F20"/>
<path d="M69.224 173.986L74.57 347.269L113.147 347.418L112.702 338.508L142.072 339.597L146.097 163.344L69.224 173.986Z" fill="#231F20"/>
<path d="M113.147 348.243L74.5865 348.094C74.3718 348.09 74.1667 348.004 74.0134 347.854C73.86 347.704 73.7699 347.501 73.7615 347.286L68.4155 174.036C68.4163 173.835 68.4878 173.64 68.6175 173.486C68.7472 173.333 68.9268 173.229 69.125 173.194L145.998 162.552C146.117 162.541 146.237 162.554 146.351 162.591C146.464 162.628 146.569 162.688 146.659 162.766C146.748 162.844 146.82 162.94 146.869 163.049C146.917 163.157 146.941 163.275 146.939 163.393L142.913 339.646C142.902 339.866 142.808 340.072 142.649 340.224C142.573 340.302 142.479 340.362 142.377 340.399C142.274 340.436 142.164 340.45 142.055 340.438L113.576 339.3L113.955 347.319C113.963 347.43 113.947 347.541 113.911 347.646C113.874 347.751 113.816 347.847 113.741 347.929C113.669 348.02 113.579 348.094 113.477 348.148C113.374 348.202 113.262 348.234 113.147 348.243ZM75.362 346.444L112.272 346.593L111.893 338.541C111.885 338.428 111.901 338.316 111.941 338.21C111.981 338.105 112.043 338.009 112.124 337.93C112.201 337.846 112.295 337.78 112.401 337.737C112.507 337.694 112.621 337.676 112.734 337.683L141.263 338.739L145.256 164.284L70.0655 174.696L75.362 346.444Z" fill="#231F20"/>
<path d="M97.868 66.885C97.868 66.885 66.947 73.7985 62.03 86.5035C57.113 99.2085 70.5275 168.377 70.5275 168.377L145.124 160.869C145.124 160.869 147.17 88.5 142.187 74.0955C132.436 64.3605 117.8 63.4365 97.868 66.885Z" fill="#1F292E"/>
<path d="M123.36 7.36954C127.16 8.91598 130.459 11.4793 132.897 14.778C135.308 18.1446 136.59 22.1878 136.56 26.328C136.478 31.5915 134.531 33.8685 130.967 37.2675C127.98 40.122 123.162 40.8645 119.285 41.6235C115.853 42.2835 112.223 43.4715 108.791 43.8345C105.359 44.1975 101.234 44.7915 98.0495 43.6695C94.0565 42.267 90.8885 37.2015 88.595 33.7695C85.724 29.529 86.4665 23.6715 88.3805 19.101C88.8936 17.6622 89.7961 16.3941 90.9875 15.438C91.5938 14.968 92.3282 14.6928 93.0941 14.6486C93.8599 14.6044 94.6212 14.7934 95.2775 15.1905C98.792 8.34304 107.026 4.89454 114.715 5.29054C117.696 5.47503 120.621 6.17859 123.36 7.36954Z" fill="white"/>
<path d="M102.636 45.2534C100.959 45.3073 99.2847 45.0729 97.6865 44.5604C93.7265 43.1744 90.6245 38.5709 88.364 35.2049L87.8195 34.3799C85.1795 30.5189 85.0805 24.7274 87.5225 18.9194C88.0893 17.3247 89.0961 15.9231 90.4265 14.8769C91.0525 14.4123 91.7819 14.1065 92.5521 13.9858C93.3223 13.8651 94.1103 13.9331 94.8485 14.1839C98.462 7.97993 106.283 4.15193 114.648 4.54793C117.724 4.70618 120.749 5.39271 123.591 6.57743C127.539 8.18351 130.965 10.8504 133.491 14.2829C136.026 17.814 137.362 22.0644 137.303 26.4104C137.303 32.0534 135.042 34.5449 131.462 37.9604C128.525 40.7654 124.119 41.6069 120.242 42.3494L119.351 42.5144C118.064 42.7784 116.761 43.0919 115.441 43.4219C113.269 43.9992 111.065 44.4455 108.84 44.7584H108.065C106.266 45.0198 104.454 45.185 102.636 45.2534ZM93.446 15.5534C92.7411 15.5622 92.0558 15.7868 91.4825 16.1969C90.4173 17.0576 89.6166 18.2015 89.1725 19.4969C86.945 24.7934 86.9945 29.9744 89.3045 33.3569L89.849 34.1819C91.994 37.3499 94.9145 41.6894 98.33 42.8939C101.085 43.8509 104.93 43.4384 107.9 43.0919L108.692 43.0094C110.861 42.7125 113.01 42.2827 115.127 41.7224C116.48 41.3924 117.817 41.0624 119.12 40.7984L120.011 40.6334C123.674 39.9239 127.799 39.1319 130.39 36.6734C134.036 33.1919 135.637 31.1624 135.703 26.3279C135.759 22.3418 134.532 18.4432 132.204 15.2069C129.86 12.0323 126.686 9.5658 123.03 8.07893C120.372 6.97103 117.542 6.32916 114.665 6.18144C108.065 5.85144 99.617 8.65644 96.02 15.6359C95.9677 15.7457 95.8917 15.8426 95.7976 15.9196C95.7035 15.9967 95.5935 16.0519 95.4755 16.0814C95.2361 16.1308 94.987 16.0834 94.7825 15.9494C94.3817 15.7042 93.9149 15.5889 93.446 15.6194V15.5534Z" fill="#231F20"/>
<path d="M124.581 59.196L125.984 74.4255C125.984 74.4255 119.45 82.098 109.55 79.9365C99.65 77.775 98 71.01 98 71.01L97.538 43.2735C97.538 43.2735 104.748 39.231 102.29 23.4735C102.29 23.4735 117.569 27.8295 132.138 25.6845C132.138 25.6845 132.716 43.587 131.693 51.2265C130.67 58.866 124.581 59.196 124.581 59.196Z" fill="white"/>
<path d="M113.163 81.174C111.904 81.1692 110.648 81.031 109.418 80.7615C99.122 78.501 97.373 71.505 97.2905 71.208C97.2823 71.1478 97.2823 71.0867 97.2905 71.0265L96.8285 43.2735C96.829 43.1189 96.8705 42.9672 96.9488 42.8339C97.0271 42.7005 97.1393 42.5903 97.274 42.5145C97.274 42.5145 103.874 38.4885 101.597 23.5725C101.571 23.4315 101.582 23.2862 101.628 23.1505C101.674 23.0147 101.755 22.8931 101.861 22.797C101.972 22.7047 102.103 22.6401 102.243 22.6086C102.384 22.577 102.53 22.5794 102.669 22.6155C102.818 22.6155 117.949 26.9055 132.172 24.81C132.412 24.7794 132.655 24.8446 132.848 24.9915C132.939 25.0689 133.013 25.1648 133.064 25.273C133.115 25.3811 133.143 25.4989 133.145 25.6185C133.145 26.361 133.706 43.7685 132.683 51.309C131.808 57.7605 127.419 59.46 125.522 59.9055L126.858 74.343C126.869 74.4554 126.857 74.5689 126.823 74.6766C126.789 74.7844 126.734 74.8841 126.66 74.97C124.947 76.8632 122.868 78.3891 120.548 79.4555C118.228 80.5219 115.716 81.1065 113.163 81.174ZM98.9735 70.8945C99.188 71.6535 101.036 77.181 109.781 79.1445C118.031 80.976 123.888 75.4485 125.109 74.1945L123.74 59.3445C123.727 59.2294 123.738 59.1128 123.772 59.0021C123.806 58.8914 123.862 58.7889 123.938 58.701C124.012 58.6153 124.103 58.546 124.205 58.4977C124.308 58.4494 124.419 58.4231 124.532 58.4205C124.746 58.4205 130.059 57.9585 130.983 51.144C131.858 44.6595 131.544 30.4695 131.462 26.691C122.064 27.6172 112.576 26.9252 103.412 24.645C105.062 37.845 100.112 42.6135 98.462 43.785L98.9735 70.8945Z" fill="#231F20"/>
<path d="M103.429 42.6629C103.05 41.3482 102.257 40.1908 101.168 39.3629C100.114 38.6116 98.9354 38.053 97.6865 37.7129C97.0272 37.4478 96.3165 37.335 95.6075 37.3829C95.1155 37.4669 94.6447 37.6463 94.2215 37.9109C93.173 38.4552 92.3536 39.3564 91.9115 40.4519C91.6803 41.3727 91.6803 42.3362 91.9115 43.2569C92.0511 44.285 92.3286 45.2895 92.7365 46.2434C93.1615 47.1828 93.7687 48.0284 94.523 48.7312C95.2773 49.4341 96.1637 49.9802 97.1307 50.3378C98.0977 50.6954 99.126 50.8575 100.156 50.8146C101.186 50.7717 102.198 50.5247 103.132 50.0879" fill="white"/>
<path d="M99.749 51.573C98.7251 51.5706 97.7093 51.392 96.746 51.045C94.5849 50.2307 92.8347 48.5932 91.8785 46.491C91.4444 45.467 91.1449 44.3911 90.9875 43.29C90.7626 42.2297 90.8022 41.1304 91.103 40.089C91.6032 38.7935 92.5597 37.7255 93.7925 37.086C94.298 36.7714 94.8575 36.5532 95.4425 36.4425C96.2789 36.3759 97.1195 36.5001 97.901 36.8055C99.2455 37.1804 100.513 37.7892 101.647 38.604C102.892 39.5755 103.789 40.9244 104.204 42.4485C104.259 42.6673 104.226 42.899 104.112 43.0936C103.998 43.2881 103.812 43.4299 103.594 43.488C103.485 43.5177 103.372 43.5254 103.261 43.5107C103.149 43.4959 103.042 43.459 102.945 43.4021C102.848 43.3452 102.764 43.2694 102.696 43.1794C102.629 43.0893 102.581 42.9866 102.554 42.8775C102.234 41.7163 101.552 40.6874 100.607 39.9405C99.6015 39.2503 98.4854 38.7369 97.307 38.4225C96.7839 38.2089 96.2218 38.1077 95.657 38.1255C95.2777 38.2066 94.9151 38.3517 94.5845 38.5545C93.7354 39.0163 93.0712 39.7562 92.7035 40.65C92.5131 41.4362 92.5131 42.2564 92.7035 43.0425C92.835 43.9956 93.0901 44.9274 93.4625 45.8145C93.8393 46.6523 94.3794 47.4065 95.051 48.0331C95.7226 48.6598 96.5124 49.1463 97.3742 49.4643C98.236 49.7823 99.1525 49.9254 100.07 49.8851C100.988 49.8449 101.888 49.6222 102.719 49.23C102.925 49.1386 103.159 49.1305 103.371 49.2074C103.583 49.2842 103.758 49.4402 103.858 49.6425C103.953 49.8483 103.964 50.0836 103.886 50.297C103.809 50.5104 103.65 50.6844 103.445 50.781C102.287 51.3165 101.025 51.5871 99.749 51.573Z" fill="#231F20"/>
<path d="M124.928 66.7695C123.122 67.0208 121.282 66.8813 119.534 66.3604C117.787 65.8394 116.171 64.9493 114.797 63.75C110.375 59.658 110.705 57.15 110.705 57.15C110.705 57.15 117.767 60.8295 124.185 59.4105L124.928 66.7695Z" fill="#231F20"/>
<path d="M123.278 67.71C119.941 67.7556 116.71 66.5352 114.236 64.2945C109.632 60.054 109.847 57.3645 109.88 57.0675C109.899 56.9371 109.949 56.8134 110.027 56.707C110.105 56.6006 110.207 56.5148 110.326 56.457C110.441 56.392 110.572 56.3578 110.705 56.3578C110.838 56.3578 110.969 56.392 111.085 56.457C111.085 56.457 117.981 59.988 124.004 58.635C124.118 58.6095 124.237 58.6096 124.351 58.6352C124.465 58.6609 124.572 58.7115 124.664 58.7835C124.759 58.85 124.839 58.9358 124.899 59.0353C124.959 59.1348 124.997 59.2458 125.01 59.361L125.753 66.687C125.773 66.8933 125.714 67.0996 125.589 67.2647C125.463 67.4298 125.281 67.5416 125.077 67.578C124.482 67.6731 123.88 67.7173 123.278 67.71ZM111.86 58.602C112.695 60.329 113.887 61.8589 115.358 63.09C117.745 65.1864 120.867 66.2488 124.037 66.0435L123.459 60.45C119.498 60.8551 115.499 60.2181 111.86 58.602Z" fill="#231F20"/>
<path d="M112.372 36.4979C113.067 36.4028 113.521 35.5279 113.387 34.5438C113.252 33.5597 112.579 32.839 111.884 32.9341C111.189 33.0292 110.734 33.9041 110.869 34.8882C111.004 35.8723 111.676 36.593 112.372 36.4979Z" fill="#231F20"/>
<path d="M128.835 36.8553C129.53 36.7602 129.985 35.8854 129.85 34.9012C129.715 33.9171 129.043 33.1964 128.347 33.2915C127.652 33.3866 127.198 34.2615 127.332 35.2456C127.467 36.2298 128.14 36.9505 128.835 36.8553Z" fill="#231F20"/>
<path d="M119.615 50.5499C116.176 50.4152 112.875 49.1641 110.21 46.9859C110.11 46.9277 110.023 46.849 109.955 46.755C109.887 46.6609 109.84 46.5537 109.817 46.4401C109.793 46.3266 109.794 46.2094 109.818 46.0962C109.843 45.9829 109.892 45.8761 109.96 45.7828C110.029 45.6895 110.117 45.6118 110.218 45.5546C110.319 45.4975 110.43 45.4623 110.546 45.4513C110.661 45.4402 110.778 45.4536 110.888 45.4906C110.997 45.5276 111.098 45.5874 111.183 45.6659C120.885 52.7939 126.429 46.0949 126.66 45.8144C126.797 45.6444 126.994 45.5352 127.211 45.5104C127.427 45.4857 127.645 45.5475 127.816 45.6824C127.986 45.8186 128.095 46.0164 128.119 46.2327C128.144 46.4491 128.082 46.6665 127.947 46.8374C126.891 47.9996 125.606 48.9298 124.171 49.5689C122.737 50.2079 121.185 50.542 119.615 50.5499Z" fill="#231F20"/>
<path d="M117.652 40.9305H107.752C107.345 40.9483 106.94 40.8839 106.559 40.7411C106.179 40.5984 105.831 40.3803 105.536 40.0999C105.242 39.8195 105.008 39.4825 104.847 39.1092C104.686 38.7359 104.602 38.334 104.6 37.9275V33.159C104.604 32.361 104.924 31.5973 105.49 31.0346C106.056 30.4719 106.822 30.156 107.62 30.156H117.52C118.315 30.1603 119.076 30.4781 119.638 31.0404C120.2 31.6026 120.518 32.3639 120.522 33.159V37.9275C120.519 38.7004 120.22 39.4426 119.686 40.0013C119.151 40.5599 118.423 40.8925 117.652 40.9305ZM107.752 31.7895C107.388 31.7895 107.04 31.9338 106.783 32.1906C106.526 32.4475 106.382 32.7958 106.382 33.159V37.9275C106.386 38.2879 106.533 38.632 106.789 38.8852C107.045 39.1385 107.391 39.2805 107.752 39.2805H117.652C118.012 39.2805 118.358 39.1385 118.614 38.8852C118.87 38.632 119.017 38.2879 119.021 37.9275V33.159C119.021 32.9792 118.986 32.8011 118.917 32.6349C118.848 32.4688 118.747 32.3178 118.62 32.1906C118.493 32.0635 118.342 31.9626 118.176 31.8938C118.009 31.8249 117.831 31.7895 117.652 31.7895H107.752Z" fill="#231F20"/>
<path d="M135.241 40.9305H125.341C124.544 40.9305 123.78 40.6141 123.217 40.051C122.654 39.4878 122.337 38.7239 122.337 37.9275V33.159C122.337 32.3626 122.654 31.5987 123.217 31.0356C123.78 30.4724 124.544 30.156 125.341 30.156H135.241C136.037 30.156 136.801 30.4724 137.364 31.0356C137.927 31.5987 138.243 32.3626 138.243 33.159V37.9275C138.243 38.7239 137.927 39.4878 137.364 40.051C136.801 40.6141 136.037 40.9305 135.241 40.9305ZM125.341 31.7895C124.977 31.7895 124.629 31.9338 124.372 32.1906C124.115 32.4475 123.971 32.7958 123.971 33.159V37.9275C123.975 38.2879 124.122 38.632 124.378 38.8852C124.634 39.1385 124.98 39.2805 125.341 39.2805H135.241C135.601 39.2805 135.947 39.1385 136.203 38.8852C136.459 38.632 136.606 38.2879 136.61 37.9275V33.159C136.61 32.7958 136.466 32.4475 136.209 32.1906C135.952 31.9338 135.604 31.7895 135.241 31.7895H125.341Z" fill="#231F20"/>
<path d="M120.869 34.413C120.869 34.413 126.446 41.805 125.308 43.2075C124.169 44.61 120.688 43.917 120.688 43.917" fill="white"/>
<path d="M122.503 44.9235C121.837 44.9275 121.174 44.8611 120.523 44.7255C120.416 44.708 120.314 44.6688 120.223 44.6104C120.132 44.552 120.054 44.4756 119.994 44.386C119.934 44.2964 119.893 44.1953 119.873 44.0892C119.853 43.983 119.855 43.8738 119.879 43.7685C119.919 43.5545 120.042 43.365 120.222 43.2413C120.401 43.1177 120.622 43.0699 120.836 43.1085C121.81 43.3065 124.037 43.455 124.664 42.696C124.846 41.9865 122.783 38.307 120.209 34.908C120.078 34.733 120.021 34.5129 120.052 34.2963C120.083 34.0797 120.199 33.8843 120.374 33.753C120.549 33.6217 120.769 33.5654 120.986 33.5963C121.202 33.6273 121.398 33.743 121.529 33.918C124.252 37.5315 127.222 42.168 125.935 43.7355C125.48 44.1661 124.938 44.4948 124.347 44.6996C123.755 44.9045 123.126 44.9808 122.503 44.9235Z" fill="#231F20"/>
<path d="M113.576 338.244C113.359 338.24 113.151 338.151 112.997 337.998C112.843 337.844 112.755 337.636 112.751 337.419L112.603 204.181C112.603 203.963 112.689 203.753 112.844 203.598C112.999 203.443 113.209 203.356 113.428 203.356C113.646 203.356 113.856 203.443 114.011 203.598C114.166 203.753 114.253 203.963 114.253 204.181L114.401 337.419C114.397 337.636 114.309 337.844 114.155 337.998C114.001 338.151 113.793 338.24 113.576 338.244Z" fill="white"/>
<path d="M147.436 158.989L66.4267 161.493L66.812 173.961L147.821 171.457L147.436 158.989Z" fill="white"/>
<path d="M66.7985 174.811C66.5788 174.81 66.3672 174.728 66.2045 174.58C66.042 174.425 65.9472 174.211 65.9405 173.986L65.561 161.529C65.5566 161.417 65.5745 161.305 65.6138 161.201C65.6531 161.096 65.7129 161 65.7897 160.918C65.8666 160.837 65.9589 160.772 66.0613 160.726C66.1637 160.681 66.274 160.657 66.386 160.654L147.401 158.146C147.625 158.152 147.84 158.234 148.011 158.377C148.174 158.533 148.269 158.747 148.275 158.971L148.655 171.445C148.659 171.557 148.641 171.669 148.602 171.774C148.563 171.879 148.503 171.975 148.426 172.056C148.349 172.138 148.257 172.203 148.155 172.248C148.052 172.293 147.942 172.318 147.83 172.32L66.815 174.811H66.7985ZM67.2935 162.321L67.6235 173.095L146.939 170.637L146.609 159.879L67.2935 162.321Z" fill="#231F20"/>
<path d="M122.857 159.81L103.973 160.38L104.35 172.848L123.234 172.278L122.857 159.81Z" fill="white"/>
<path d="M104.369 173.673C104.154 173.674 103.946 173.591 103.791 173.442C103.624 173.288 103.524 173.075 103.511 172.848L103.148 160.391C103.144 160.279 103.162 160.167 103.201 160.062C103.24 159.957 103.3 159.861 103.377 159.78C103.454 159.698 103.546 159.633 103.648 159.588C103.751 159.543 103.861 159.518 103.973 159.516L122.849 158.939C123.074 158.934 123.291 159.018 123.455 159.172C123.618 159.327 123.715 159.539 123.723 159.764L124.103 172.238C124.101 172.462 124.019 172.679 123.872 172.848C123.708 172.998 123.499 173.091 123.278 173.112L104.402 173.673H104.369ZM104.864 161.183L105.194 171.957L122.37 171.429L122.04 160.671L104.864 161.183Z" fill="#231F20"/>
<path d="M119.462 162.718L108.296 163.056L108.503 169.916L119.669 169.579L119.462 162.718Z" fill="#231F20"/>
<path d="M94.4195 88.5C92.8808 88.5519 91.3478 88.288 89.915 87.7245C89.2816 87.4602 88.7089 87.0692 88.2322 86.5755C87.7555 86.0818 87.3849 85.4958 87.143 84.8535C84.3875 77.5275 90.773 69.69 91.037 69.36C91.1051 69.2636 91.1925 69.1823 91.2935 69.1211C91.3945 69.06 91.507 69.0204 91.624 69.0048C91.741 68.9891 91.86 68.9978 91.9735 69.0302C92.087 69.0627 92.1926 69.1182 92.2837 69.1934C92.3748 69.2685 92.4493 69.3616 92.5028 69.4669C92.5562 69.5722 92.5873 69.6873 92.5942 69.8052C92.6011 69.923 92.5836 70.0411 92.5428 70.1518C92.5019 70.2626 92.4387 70.3638 92.357 70.449C92.357 70.449 86.318 77.8575 88.727 84.2595C88.8909 84.6894 89.1429 85.0803 89.4669 85.4071C89.7908 85.7339 90.1795 85.9893 90.608 86.157C95.8385 88.5 107.999 83.814 108.131 83.7645C108.343 83.6839 108.579 83.6908 108.786 83.7836C108.993 83.8764 109.155 84.0475 109.236 84.2595C109.276 84.3634 109.295 84.4742 109.291 84.5854C109.288 84.6966 109.262 84.806 109.216 84.9073C109.17 85.0085 109.105 85.0997 109.023 85.1754C108.942 85.2511 108.846 85.31 108.742 85.3485C104.159 87.1337 99.3278 88.1969 94.4195 88.5Z" fill="#231F20"/>
<path d="M128.888 89.5065C122.932 89.5065 115.028 84.738 114.616 84.5565C114.519 84.499 114.435 84.4228 114.369 84.3323C114.302 84.2419 114.255 84.1391 114.228 84.0299C114.202 83.9207 114.198 83.8074 114.217 83.6967C114.235 83.5859 114.275 83.48 114.335 83.385C114.451 83.1949 114.638 83.0586 114.855 83.006C115.071 82.9534 115.3 82.9889 115.49 83.1045C118.79 85.101 128.146 89.7045 131.99 87.081C135.835 84.4575 133.03 75.3 131.677 71.967C131.634 71.8587 131.614 71.7431 131.616 71.6268C131.619 71.5106 131.644 71.3959 131.691 71.2894C131.737 71.183 131.805 71.0867 131.889 71.0062C131.972 70.9257 132.071 70.8625 132.18 70.8203C132.288 70.778 132.404 70.7575 132.52 70.76C132.636 70.7624 132.751 70.7877 132.857 70.8344C132.964 70.8811 133.06 70.9484 133.141 71.0323C133.221 71.1162 133.284 71.2152 133.327 71.3235C133.541 71.868 138.606 84.6225 133.029 88.4835C131.79 89.2484 130.341 89.6061 128.888 89.5065Z" fill="#231F20"/>
<path d="M115.688 155.952C115.465 155.952 115.251 155.863 115.093 155.705C114.935 155.548 114.847 155.334 114.847 155.11C114.847 105.511 112.751 88.0049 112.734 87.8234C112.739 87.6222 112.815 87.4292 112.95 87.2795C113.084 87.1297 113.268 87.0331 113.467 87.0071C113.667 86.9812 113.869 87.0276 114.037 87.1381C114.206 87.2485 114.329 87.4155 114.384 87.609C114.384 87.7905 116.513 105.379 116.513 155.11C116.513 155.331 116.427 155.542 116.272 155.7C116.118 155.857 115.908 155.948 115.688 155.952Z" fill="#231F20"/>
<path d="M69.1745 185.223C68.795 188.523 67.6235 191.064 71.171 192.483C75.7745 194.315 80.642 195.651 85.328 197.235C85.8268 197.358 86.2901 197.595 86.681 197.928C86.8742 198.096 87.0042 198.325 87.0492 198.577C87.0942 198.829 87.0516 199.089 86.9285 199.314C86.5985 199.809 85.889 199.809 85.2785 199.759C81.6533 199.393 78.0724 198.675 74.5865 197.615C77.3131 198.206 79.9412 199.184 82.391 200.519C83.3315 201.014 84.371 202.053 83.81 202.961C83.4305 203.588 82.5395 203.604 81.8135 203.538C78.8332 203.277 75.8768 202.791 72.9695 202.086C76.1718 202.482 79.1447 203.954 81.401 206.261C81.5961 206.412 81.7306 206.629 81.7805 206.871C81.7805 207.515 80.9885 207.795 80.3285 207.795C77.7387 207.771 75.1822 207.209 72.821 206.145L78.7445 209.132C79.817 209.676 81.0875 210.617 80.7905 211.788C80.6742 212.113 80.4685 212.398 80.197 212.612C79.9255 212.825 79.5993 212.957 79.256 212.993C76.6655 213.389 72.656 211.92 70.049 211.343C67.4216 210.589 64.9551 209.358 62.7725 207.713C57.2615 204 45.9755 192.45 42.494 186.692L49.094 173.046C55.3456 177.793 62.0756 181.874 69.1745 185.223Z" fill="white"/>
<path d="M78.3155 213.982C76.1383 213.838 73.9877 213.422 71.9135 212.745C71.1875 212.53 70.4945 212.349 69.884 212.2C67.152 211.43 64.5887 210.154 62.327 208.438C56.8325 204.643 45.4475 193.209 41.768 187.137C41.6954 187.015 41.6571 186.875 41.6571 186.733C41.6571 186.59 41.6954 186.451 41.768 186.328L48.368 172.666C48.4264 172.553 48.5081 172.454 48.6076 172.374C48.7071 172.294 48.8222 172.237 48.9455 172.204C49.0713 172.18 49.2009 172.182 49.3259 172.211C49.4508 172.239 49.5685 172.293 49.6715 172.369C55.8843 177.089 62.5761 181.143 69.6365 184.464C69.7961 184.539 69.9281 184.662 70.0139 184.816C70.0998 184.97 70.1351 185.147 70.115 185.322C70.115 185.916 69.9665 186.477 69.8675 186.972C69.455 189.628 69.3725 190.75 71.5175 191.641C74.5535 192.846 77.7875 193.869 80.906 194.842C82.556 195.354 84.074 195.849 85.6415 196.377C86.2544 196.539 86.82 196.844 87.2915 197.268C87.6223 197.579 87.8369 197.995 87.8999 198.445C87.9629 198.895 87.8705 199.353 87.638 199.743C87.347 200.083 86.9694 200.338 86.5452 200.48C86.121 200.622 85.6661 200.647 85.229 200.551L83.81 200.386C84.2616 200.779 84.5981 201.286 84.7835 201.855C84.856 202.106 84.8744 202.37 84.8374 202.629C84.8004 202.888 84.7089 203.136 84.569 203.356C84.2402 203.762 83.806 204.069 83.314 204.244C82.822 204.418 82.2914 204.454 81.7805 204.346L80.477 204.214C81.0588 204.643 81.6101 205.112 82.127 205.617C82.4518 205.904 82.6675 206.295 82.7375 206.722C82.7637 206.928 82.7465 207.138 82.6868 207.337C82.6271 207.536 82.5263 207.72 82.391 207.877C81.8676 208.363 81.1743 208.624 80.4605 208.603H79.586C81.8795 209.89 81.929 211.309 81.731 212.052C81.5773 212.54 81.2849 212.974 80.8894 213.299C80.4939 213.624 80.0124 213.827 79.5035 213.883C79.1105 213.946 78.7134 213.979 78.3155 213.982ZM43.451 186.642C47.213 192.499 58.103 203.455 63.251 207.036C65.3466 208.659 67.7321 209.869 70.28 210.6C70.907 210.748 71.6165 210.946 72.359 211.161C74.5391 211.941 76.842 212.321 79.157 212.283C79.3351 212.267 79.5061 212.206 79.6535 212.105C79.8009 212.003 79.9197 211.866 79.9985 211.705C80.147 211.144 79.256 210.468 78.3485 210.055L72.4415 207.069C72.2402 206.973 72.0854 206.8 72.0112 206.59C71.9369 206.38 71.9493 206.148 72.0455 205.947C72.1452 205.749 72.3167 205.596 72.525 205.519C72.7334 205.442 72.963 205.448 73.1675 205.534C75.4293 206.513 77.8641 207.029 80.3285 207.052C80.4914 207.09 80.6606 207.09 80.8235 207.052C79.319 205.531 77.4673 204.399 75.428 203.752C74.5535 203.587 73.679 203.389 72.8045 203.175C72.5922 203.127 72.4066 202.999 72.2866 202.818C72.1666 202.636 72.1216 202.415 72.161 202.201C72.2013 201.989 72.3206 201.799 72.4951 201.67C72.6696 201.542 72.8862 201.484 73.1015 201.508C74.0362 201.622 74.9585 201.821 75.857 202.102C77.8644 202.496 79.8912 202.782 81.929 202.96C82.853 202.96 83.084 202.861 83.1335 202.779C83.0488 202.503 82.9065 202.249 82.7159 202.033C82.5252 201.817 82.2908 201.643 82.028 201.525C80.5632 200.737 79.0342 200.075 77.4575 199.545C76.418 199.281 75.395 199 74.372 198.687C74.1614 198.625 73.9831 198.484 73.8752 198.293C73.7673 198.102 73.7384 197.876 73.7945 197.664C73.8528 197.452 73.9887 197.27 74.1752 197.154C74.3617 197.038 74.5851 196.996 74.801 197.037C75.857 197.268 76.8965 197.565 77.936 197.895C80.3893 198.492 82.8814 198.916 85.394 199.165C86.1035 199.248 86.219 199.165 86.219 199.165C86.2208 199.104 86.21 199.043 86.1873 198.987C86.1646 198.93 86.1305 198.878 86.087 198.835C85.784 198.605 85.4352 198.442 85.064 198.357C83.513 197.829 81.929 197.334 80.3615 196.839C77.21 195.849 73.9595 194.826 70.8575 193.539C67.2935 192.103 67.6895 189.513 68.102 187.021L68.2505 185.998C61.5937 182.712 55.2672 178.794 49.358 174.3L43.451 186.642Z" fill="#231F20"/>
<path d="M66.5015 80.25C66.5015 80.25 8.3225 132.06 3.092 141.762C-2.1385 151.464 47.444 198.505 47.444 198.505L60.941 177.88L40.25 144.006L87.935 111.6L66.5015 80.25Z" fill="#1F292E"/>
<path d="M92.951 122.276H92.753C91.763 122.078 85.361 117.59 81.632 114.933C81.5229 114.854 81.4346 114.749 81.3743 114.629C81.3139 114.508 81.2835 114.375 81.2855 114.24V100.545C81.2833 100.433 81.3034 100.322 81.3448 100.218C81.3861 100.114 81.4477 100.019 81.5261 99.9393C81.6044 99.8594 81.6979 99.7959 81.8011 99.7526C81.9043 99.7093 82.0151 99.687 82.127 99.687H101.3C101.535 99.6904 101.76 99.785 101.927 99.951C102.008 100.037 102.07 100.138 102.109 100.249C102.149 100.359 102.166 100.477 102.158 100.595L101.283 114.29C101.275 114.48 101.199 114.661 101.069 114.801C95.0135 121.599 93.545 122.276 92.951 122.276ZM82.919 113.811C87.143 116.814 91.763 119.966 92.819 120.543C95.1966 118.528 97.404 116.321 99.419 113.943L100.211 101.436H82.985L82.919 113.811Z" fill="#231F20"/>
<path d="M231.898 95.4135C232.906 94.8297 234.035 94.4853 235.198 94.407C236.09 94.4685 236.966 94.6804 237.788 95.034C241.831 96.5355 245.807 98.202 249.718 99.984C250.675 100.429 251.731 101.023 251.896 102.063C252.061 103.102 250.856 104.274 249.652 104.538C248.447 104.802 247.177 104.538 245.989 104.917C247.292 104.62 248.464 106.171 248.15 107.458C247.95 108.098 247.561 108.661 247.033 109.074C246.506 109.486 245.865 109.729 245.197 109.768C243.867 109.841 242.537 109.644 241.286 109.191C241.629 109.223 241.96 109.335 242.251 109.519C242.542 109.703 242.785 109.953 242.96 110.25C243.136 110.546 243.239 110.88 243.26 111.223C243.282 111.567 243.222 111.911 243.084 112.227C242.75 112.85 242.236 113.359 241.61 113.689C240.984 114.018 240.273 114.153 239.57 114.075C238.171 113.889 236.825 113.424 235.61 112.705C237.145 113.547 238.91 114.883 238.547 116.599C238.312 117.235 237.866 117.77 237.283 118.116C236.7 118.461 236.016 118.596 235.346 118.497C234.014 118.247 232.725 117.808 231.518 117.193C222.938 113.893 208.253 118.662 208.072 118.249C207.032 115.857 207.247 110.709 206.867 108.118C214.876 103.254 223.243 99.0067 231.898 95.4135Z" fill="white"/>
<path d="M235.659 119.371H235.313C234.222 119.229 233.163 118.905 232.178 118.414L231.237 118.018C224.852 115.51 214.737 117.771 210.398 118.744C208.055 119.272 207.642 119.371 207.312 118.629C206.621 116.328 206.282 113.936 206.306 111.534C206.306 110.296 206.191 109.125 206.059 108.234C206.035 108.068 206.06 107.899 206.131 107.747C206.201 107.595 206.313 107.466 206.454 107.376C213.202 103.202 220.251 99.534 227.541 96.4035C228.927 95.793 230.231 95.2155 231.518 94.605C232.667 93.9784 233.94 93.6122 235.247 93.5325C236.237 93.5858 237.209 93.8149 238.118 94.209C242.16 95.7105 246.186 97.3935 250.113 99.159C250.839 99.5055 252.522 100.281 252.77 101.881C252.809 102.715 252.532 103.532 251.993 104.168C251.454 104.805 250.694 105.214 249.866 105.313C249.475 105.395 249.077 105.445 248.678 105.462C249.046 106.113 249.163 106.876 249.008 107.607C248.761 108.408 248.281 109.117 247.628 109.644C246.975 110.17 246.18 110.489 245.345 110.56C244.911 110.593 244.475 110.593 244.041 110.56C244.198 111.202 244.152 111.876 243.909 112.491C243.505 113.276 242.872 113.919 242.095 114.338C241.317 114.756 240.431 114.929 239.553 114.834H239.207C239.475 115.429 239.545 116.094 239.405 116.731C239.174 117.532 238.677 118.23 237.996 118.709C237.315 119.189 236.491 119.423 235.659 119.371ZM223.961 115.164C226.65 115.093 229.329 115.518 231.865 116.418L232.871 116.83C233.675 117.251 234.546 117.53 235.445 117.655C235.911 117.742 236.393 117.666 236.81 117.441C237.227 117.216 237.555 116.855 237.738 116.418C238.002 115.263 236.517 114.174 235.23 113.464C235.031 113.359 234.882 113.18 234.816 112.965C234.749 112.75 234.771 112.517 234.876 112.318C234.981 112.119 235.161 111.969 235.376 111.903C235.591 111.836 235.823 111.858 236.022 111.963C237.133 112.63 238.368 113.063 239.653 113.233C240.181 113.298 240.716 113.208 241.194 112.974C241.671 112.739 242.07 112.371 242.342 111.913C242.415 111.68 242.435 111.432 242.401 111.19C242.367 110.947 242.279 110.715 242.144 110.511C242.076 110.42 241.999 110.337 241.913 110.263L241.088 110.032C240.911 109.965 240.761 109.84 240.662 109.678C240.564 109.516 240.521 109.326 240.542 109.137C240.563 108.949 240.645 108.773 240.777 108.636C240.909 108.499 241.082 108.41 241.269 108.382C241.744 108.35 242.217 108.465 242.622 108.712C243.438 108.941 244.286 109.024 245.13 108.96C245.621 108.926 246.091 108.753 246.485 108.46C246.88 108.168 247.183 107.769 247.358 107.31C247.398 107.09 247.383 106.863 247.314 106.65C247.245 106.436 247.124 106.244 246.962 106.089C246.869 105.982 246.751 105.898 246.619 105.847C246.487 105.795 246.344 105.776 246.203 105.792C245.984 105.844 245.753 105.808 245.562 105.69C245.37 105.573 245.233 105.384 245.18 105.165C245.127 104.946 245.164 104.715 245.282 104.524C245.399 104.332 245.588 104.194 245.807 104.142C246.499 103.979 247.208 103.896 247.919 103.894C248.473 103.902 249.026 103.852 249.569 103.746C250.41 103.564 251.219 102.904 251.219 102.244C251.219 101.584 250.262 101.155 249.569 100.809C245.675 99.027 241.682 97.3605 237.689 95.859C236.962 95.5418 236.187 95.3521 235.395 95.298C234.337 95.3453 233.309 95.6634 232.409 96.222C231.106 96.8325 229.786 97.41 228.383 98.0205C221.336 101.061 214.515 104.601 207.972 108.613C208.071 109.438 208.121 110.428 208.17 111.468C208.182 113.461 208.408 115.447 208.847 117.391L210.184 117.094C214.695 115.967 219.313 115.32 223.961 115.164Z" fill="#231F20"/>
<path d="M215.926 126.961L288.839 50.715L290.423 52.365L218.747 130.872L215.926 126.961Z" fill="#231F20"/>
<path d="M218.747 131.697C218.624 131.688 218.504 131.652 218.396 131.592C218.287 131.533 218.193 131.45 218.12 131.351L215.282 127.44C215.171 127.285 215.118 127.095 215.133 126.905C215.148 126.715 215.23 126.536 215.364 126.401L288.245 50.154C288.32 50.0705 288.411 50.0038 288.514 49.9583C288.616 49.9128 288.727 49.8895 288.839 49.89C289.064 49.8967 289.277 49.9915 289.433 50.154L291 51.804C291.146 51.9547 291.227 52.1558 291.227 52.365C291.227 52.5743 291.146 52.7754 291 52.926L219.357 131.4C219.282 131.489 219.189 131.562 219.084 131.613C218.978 131.664 218.864 131.693 218.747 131.697ZM216.981 127.044L218.829 129.569L289.284 52.3815L288.839 51.903L216.981 127.044Z" fill="#231F20"/>
<path d="M235.874 98.7629L235.379 100.891L240.972 102.459C242.142 102.679 243.237 103.19 244.157 103.944C244.6 104.338 244.886 104.879 244.962 105.467C245.038 106.056 244.898 106.651 244.569 107.145C243.711 108.135 242.144 107.887 240.84 107.706C238.071 107.296 235.243 107.55 232.59 108.448C231.241 108.91 229.923 109.461 228.647 110.098L226.271 111.22" fill="white"/>
<path d="M226.189 112.128C225.987 112.136 225.789 112.073 225.63 111.95C225.47 111.827 225.359 111.652 225.316 111.455C225.273 111.258 225.3 111.053 225.393 110.874C225.486 110.695 225.639 110.555 225.826 110.478L228.185 109.356C229.501 108.694 230.856 108.116 232.244 107.623C235.051 106.678 238.041 106.407 240.972 106.831C242.127 107.013 243.382 107.194 243.926 106.567C244.105 106.238 244.166 105.858 244.101 105.489C244.035 105.12 243.845 104.785 243.563 104.538C242.741 103.89 241.772 103.454 240.741 103.267L235.148 101.7C234.934 101.642 234.752 101.502 234.641 101.31C234.53 101.119 234.498 100.891 234.554 100.677L235.033 98.5485C235.04 98.4242 235.075 98.3031 235.134 98.1936C235.194 98.0842 235.276 97.9889 235.376 97.9144C235.475 97.8399 235.59 97.7881 235.712 97.7624C235.834 97.7368 235.96 97.7379 236.081 97.7659C236.202 97.7938 236.316 97.8477 236.415 97.924C236.513 98.0003 236.594 98.0971 236.651 98.2077C236.708 98.3183 236.741 98.44 236.746 98.5644C236.751 98.6887 236.73 98.8128 236.683 98.928L236.369 100.281L241.187 101.617C242.49 101.86 243.71 102.428 244.734 103.267C245.331 103.811 245.707 104.555 245.792 105.358C245.878 106.16 245.666 106.967 245.197 107.623C244.042 108.96 242.144 108.679 240.758 108.465C238.078 108.061 235.339 108.304 232.772 109.174C231.462 109.642 230.183 110.193 228.944 110.824L226.552 111.979C226.441 112.051 226.318 112.102 226.189 112.128Z" fill="#231F20"/>
<path d="M142.187 74.0955C142.187 74.0955 166.755 115.906 170.237 116.533C173.718 117.16 213.5 97.641 213.5 97.641L221.139 117.045C221.139 117.045 181.985 158.493 168.059 151.975C154.133 145.458 137.418 117.457 137.418 117.457L142.187 74.0955Z" fill="#1F292E"/>
<path d="M76.1705 187.5C75.9517 187.533 75.7288 187.477 75.5509 187.346C75.373 187.214 75.2546 187.017 75.2218 186.799C75.1889 186.58 75.2444 186.357 75.3759 186.179C75.5074 186.001 75.7042 185.883 75.923 185.85C77.6683 185.25 79.186 184.126 80.2696 182.632C81.3532 181.138 81.9499 179.346 81.9785 177.501C81.9785 177.282 82.0654 177.072 82.2201 176.918C82.3749 176.763 82.5847 176.676 82.8035 176.676C82.9111 176.674 83.018 176.693 83.118 176.733C83.218 176.772 83.3091 176.832 83.3859 176.907C83.4627 176.982 83.5238 177.072 83.5654 177.171C83.6071 177.27 83.6285 177.377 83.6285 177.484C83.6071 179.68 82.9007 181.814 81.6081 183.589C80.3155 185.364 78.5011 186.69 76.418 187.384C76.3445 187.44 76.2602 187.479 76.1705 187.5Z" fill="white"/>
<path d="M144.843 189.15H144.744C143.653 188.93 142.65 188.397 141.857 187.615C140.179 186.319 138.675 184.811 137.385 183.127C135.98 181.32 135.345 179.031 135.62 176.758C135.637 176.65 135.676 176.546 135.733 176.453C135.791 176.359 135.866 176.278 135.955 176.214C136.044 176.149 136.145 176.103 136.251 176.078C136.358 176.052 136.469 176.048 136.577 176.065C136.685 176.083 136.789 176.121 136.883 176.179C136.976 176.236 137.057 176.312 137.122 176.4C137.186 176.489 137.232 176.59 137.258 176.697C137.283 176.803 137.287 176.914 137.27 177.022C137.086 178.87 137.618 180.719 138.755 182.187C139.965 183.749 141.374 185.147 142.946 186.345C143.498 186.924 144.201 187.335 144.975 187.533C145.082 187.545 145.185 187.578 145.279 187.631C145.372 187.683 145.454 187.754 145.52 187.838C145.586 187.923 145.635 188.019 145.663 188.123C145.691 188.226 145.699 188.334 145.685 188.44C145.657 188.642 145.555 188.825 145.4 188.956C145.245 189.087 145.046 189.156 144.843 189.15Z" fill="white"/>
<path d="M113.823 199.991C113.704 200.013 113.58 200.013 113.46 199.991C113.266 199.891 113.118 199.721 113.047 199.514C112.977 199.308 112.989 199.083 113.081 198.885C116.394 192.15 117.771 184.627 117.057 177.155C117.039 176.936 117.106 176.72 117.245 176.55C117.383 176.381 117.582 176.272 117.8 176.247C117.908 176.236 118.016 176.246 118.12 176.277C118.223 176.309 118.319 176.361 118.402 176.43C118.486 176.499 118.554 176.584 118.603 176.68C118.653 176.777 118.683 176.882 118.691 176.99C119.431 184.766 118.003 192.596 114.566 199.611C114.488 199.736 114.378 199.837 114.247 199.904C114.117 199.971 113.97 200.001 113.823 199.991Z" fill="white"/>
<path d="M145.85 155.952C145.628 155.952 145.415 155.866 145.255 155.712C145.095 155.559 145.001 155.349 144.992 155.127L143.986 98.7795C143.983 98.6668 144.003 98.5548 144.044 98.4499C144.086 98.3449 144.147 98.2491 144.225 98.1679C144.303 98.0867 144.397 98.0217 144.5 97.9766C144.603 97.9315 144.714 97.9072 144.827 97.905C144.94 97.898 145.053 97.9148 145.16 97.9544C145.266 97.9939 145.362 98.0554 145.443 98.1347C145.524 98.2141 145.588 98.3095 145.629 98.4149C145.671 98.5203 145.69 98.6333 145.685 98.7465L146.692 155.094C146.694 155.205 146.674 155.314 146.634 155.417C146.594 155.52 146.533 155.614 146.457 155.694C146.38 155.774 146.289 155.837 146.187 155.882C146.086 155.926 145.977 155.95 145.867 155.952H145.85Z" fill="#231F20"/>
<path d="M49.0115 138.924C48.8328 138.918 48.6603 138.857 48.5181 138.749C48.3759 138.64 48.2711 138.49 48.2184 138.319C48.1657 138.148 48.1677 137.965 48.2241 137.796C48.2805 137.626 48.3885 137.478 48.533 137.373L71.0885 122.028C71.1805 121.966 71.2838 121.923 71.3926 121.901C71.5014 121.878 71.6134 121.878 71.7223 121.9C71.8312 121.921 71.9348 121.964 72.027 122.026C72.1193 122.087 72.1985 122.167 72.26 122.259C72.3879 122.445 72.4372 122.675 72.397 122.897C72.3569 123.12 72.2305 123.317 72.0455 123.447L49.49 138.775C49.3488 138.871 49.1822 138.923 49.0115 138.924Z" fill="#231F20"/>
<g clip-path="url(#clip0_5_388)">
<path d="M388.053 114.867L320.747 50.6533L249.813 111.56C247.36 113.373 247.36 117 249.387 118.813L316.693 183.027L387.627 122.12C390.08 120.307 390.4 117 388.053 114.867ZM318.293 136.2L297.493 116.253L319.573 97.3733L340.373 117.32L318.293 136.2Z" fill="#2684FF"/>
<path d="M319.573 97.3734C305.92 84.3601 306.347 63.6667 320.747 50.9734L272.32 92.3601L297.6 116.253L319.573 97.3734Z" fill="url(#paint0_linear_5_388)"/>
<path d="M340.8 117.32L318.4 136.52C332.053 149.533 331.627 170.653 317.227 183.347L366.08 141.64L340.8 117.32Z" fill="url(#paint1_linear_5_388)"/>
</g>
<defs>
<linearGradient id="paint0_linear_5_388" x1="316.089" y1="73.7669" x2="288.08" y2="103.086" gradientUnits="userSpaceOnUse">
<stop offset="0.18" stop-color="#0052CC"/>
<stop offset="1" stop-color="#2684FF"/>
</linearGradient>
<linearGradient id="paint1_linear_5_388" x1="325.761" y1="156.303" x2="353.77" y2="126.983" gradientUnits="userSpaceOnUse">
<stop offset="0.18" stop-color="#0052CC"/>
<stop offset="1" stop-color="#2684FF"/>
</linearGradient>
<clipPath id="clip0_5_388">
<rect width="144" height="144" fill="white" transform="translate(248 45)"/>
</clipPath>
</defs>
</svg>
