<?xml version="1.0" encoding="utf-8"?>
<!-- Generator: Adobe Illustrator 27.9.0, SVG Export Plug-In . SVG Version: 6.00 Build 0)  -->
<svg version="1.1" id="Layer_1" xmlns="http://www.w3.org/2000/svg" xmlns:xlink="http://www.w3.org/1999/xlink" x="0px" y="0px"
	 viewBox="0 0 400 300" style="enable-background:new 0 0 400 300;" xml:space="preserve">
<style type="text/css">
	.st0{fill:#FFFFFF;}
	.st1{fill:#231F20;}
	.st2{fill:#D1D3D4;}
	.st3{fill:#E52C36;}
	.st4{fill:none;}
	.st5{fill:#3178C6;}
	.st6{fill:#F7DF1E;}
	.st7{display:none;}
	.st8{display:inline;fill:#FFFFFF;}
	.st9{display:inline;fill:#231F20;}
	.st10{display:inline;}
</style>
<g id="_121_team_presentation_flatline">
	<rect x="105.3" y="44.5" class="st0" width="189.3" height="90.8"/>
	<path class="st1" d="M294.7,135.8H105.3c-0.3,0-0.5-0.2-0.5-0.5V44.5c0-0.3,0.2-0.5,0.5-0.5h189.3c0.3,0,0.5,0.2,0.5,0.5v90.8
		C295.2,135.6,294.9,135.8,294.7,135.8z M105.8,134.8h188.3V45H105.8L105.8,134.8z"/>
	<path class="st2" d="M275.9,57.7H215c-0.3,0.1-0.6-0.1-0.6-0.4c-0.1-0.3,0.1-0.6,0.4-0.6c0.1,0,0.2,0,0.3,0h60.9
		c0.3-0.1,0.6,0.1,0.6,0.4s-0.1,0.6-0.4,0.6C276.1,57.7,276,57.7,275.9,57.7L275.9,57.7z"/>
	<path class="st2" d="M275.9,68.7H215c-0.3,0-0.5-0.2-0.5-0.5l0,0c0-0.3,0.2-0.5,0.5-0.5l0,0h60.9c0.3,0,0.5,0.2,0.5,0.5
		C276.4,68.5,276.2,68.7,275.9,68.7z"/>
	<path class="st2" d="M275.9,79.7H215c-0.3,0.1-0.6-0.1-0.6-0.4c-0.1-0.3,0.1-0.6,0.4-0.6c0.1,0,0.2,0,0.3,0h60.9
		c0.3,0.1,0.4,0.4,0.4,0.6C276.2,79.5,276.1,79.6,275.9,79.7L275.9,79.7z"/>
	<path class="st2" d="M270.2,90.7H215c-0.3,0-0.5-0.3-0.5-0.6c0-0.2,0.2-0.4,0.5-0.5h55.2c0.3,0,0.5,0.3,0.5,0.6
		C270.7,90.5,270.5,90.6,270.2,90.7L270.2,90.7z"/>
	<path class="st2" d="M235.3,125.8H215c-0.3,0-0.5-0.2-0.5-0.5v-9.8c0-0.3,0.2-0.5,0.5-0.5h20.3c0.3,0,0.5,0.2,0.5,0.5v9.8
		C235.8,125.6,235.6,125.8,235.3,125.8z M215.5,124.8h19.3V116h-19.3V124.8z"/>
	<path class="st1" d="M314.2,226.9H85.8c-0.3,0-0.5-0.1-0.5-0.4c0-0.3,0.1-0.5,0.4-0.5c0,0,0.1,0,0.1,0h228.4c0.3,0,0.5,0.1,0.5,0.4
		c0,0.3-0.1,0.5-0.4,0.5C314.3,226.9,314.3,226.9,314.2,226.9z"/>
	<path class="st0" d="M252.4,111.3l-8.4,5.9l-2.6-27c0,0,3.7-3.9,2.6-4.8s-3.2,1.9-3.2,1.9s-2.3-10-3.4-10.2s-1.6,1.1-1.4,2
		s1,5.1,1,5.1s-4.4,2.6-5.1,4.5s2.2,4.7,2.2,4.7s-1.6,36.7,3.1,40.2S257,124,257,124"/>
	<path class="st1" d="M239.3,134.6c-0.8,0-1.6-0.2-2.3-0.6c-0.8-0.6-3.1-2.3-3.5-21.8c-0.2-8.7,0.1-17.2,0.2-18.6
		c-0.7-0.7-2.9-3.2-2.2-5.1s3.9-3.9,5-4.5c-0.2-1-0.8-4.1-0.9-4.8c-0.1-0.7,0.1-1.4,0.6-2c0.3-0.4,0.9-0.5,1.4-0.5
		c0.9,0.1,2.1,3.4,3.6,9.7c0.8-0.9,2.2-2.1,3.3-1.3c0.2,0.2,0.4,0.4,0.4,0.7c0.1,1.3-2.1,3.8-2.8,4.6l2.5,26l7.8-5.4
		c0.2-0.1,0.5-0.1,0.6,0.1c0.1,0.2,0.1,0.5-0.1,0.6l-8.4,5.9c-0.1,0.1-0.3,0.1-0.4,0c-0.2-0.1-0.3-0.2-0.3-0.4l-2.6-27
		c0-0.1,0-0.3,0.1-0.4c1.2-1.2,2.8-3.3,2.7-4c-0.5-0.5-1.9,0.7-2.6,1.7c-0.1,0.1-0.3,0.2-0.5,0.2c-0.2,0-0.3-0.2-0.4-0.3
		c-1-4.4-2.4-9.4-3.1-9.9c-0.2,0-0.4,0.1-0.5,0.2c-0.3,0.4-0.4,0.8-0.3,1.2c0.1,0.8,1,5,1,5.1c0,0.2,0,0.4-0.2,0.5
		c-1.2,0.7-4.3,2.8-4.9,4.2s1.4,3.5,2.1,4.2c0.1,0.1,0.1,0.2,0.1,0.3c-0.4,10.1-0.7,37,2.9,39.8s15-6,19.1-9.6
		c0.2-0.2,0.5-0.2,0.6,0c0.2,0.2,0.2,0.5,0,0.6c0,0,0,0,0,0c-2.6,2.2-5.3,4.3-8.2,6.1C244.9,133.3,241.6,134.6,239.3,134.6z"/>
	<path class="st0" d="M266.4,229.6c0.1,0.8-0.7,10.1-0.7,10.1s-11.4,2-11.5,1.2s-3.5-4.2-3.5-4.2l4.6-2.1l0.4-11.3L266.4,229.6z"/>
	<path class="st1" d="M255.2,241.6c-0.4,0-0.8,0-1.2-0.2c-0.1-0.1-0.2-0.2-0.2-0.4c-1-1.5-2.1-2.8-3.3-4c-0.2-0.2-0.2-0.5,0-0.7
		c0,0,0.1-0.1,0.1-0.1l4.4-2l0.4-11c0-0.2,0.1-0.3,0.2-0.4c0.1-0.1,0.3-0.1,0.5,0l10.6,6.3c0.1,0.1,0.2,0.2,0.2,0.3
		c0.1,0.8-0.5,8.7-0.7,10.3c0,0.2-0.2,0.4-0.4,0.4C262.3,240.9,258.8,241.4,255.2,241.6z M254.6,240.7c1,0.2,6-0.5,10.7-1.3
		c0.3-3.3,0.7-8.3,0.7-9.5l-9.8-5.8l-0.4,10.5c0,0.2-0.1,0.3-0.3,0.4l-4,1.9C252.8,238,253.8,239.3,254.6,240.7L254.6,240.7z"/>
	<polygon class="st0" points="301.1,230.4 302.8,242 295.2,242 290.7,229.6 	"/>
	<path class="st1" d="M302.8,242.4h-7.6c-0.2,0-0.4-0.1-0.4-0.3l-4.4-12.4c0-0.1,0-0.3,0.1-0.4c0.1-0.1,0.2-0.2,0.4-0.2l10.4,0.8
		c0.2,0,0.4,0.2,0.4,0.4l1.7,11.6c0,0.1,0,0.3-0.1,0.4C303,242.4,302.9,242.4,302.8,242.4z M295.5,241.5h6.7l-1.5-10.7l-9.3-0.7
		L295.5,241.5z"/>
	<path class="st0" d="M275.8,73.7c0.3,0,0.5,0,0.8,0c1.2,0.3,2.4,0.7,3.5,1.2c1.8-1.3,4.3-1,6.5-0.3s5,2.4,6.2,4.5
		c2.2,3.9,2.6,8.7,5.7,11.9c1.5,1.5,3.4,2.5,5,3.9c2.4,2.1,4,5,4.4,8.2c0.2,1.5,0,3-0.5,4.4c-0.7,1.4-1.8,2.6-3.1,3.5
		c-5.3,4.1-12.1,5.7-18.7,7.2c-2.6,0.8-5.3,1-8,0.8c-1.8-0.3-3.6-1-5.2-2c-2-1.1-3.7-2.7-5-4.6c-2.4-4-1.1-10.4-0.7-14.9
		c0.6-5.5,0.4-11.5,2.8-16.6c0.9-2.2,2.1-4.3,3.7-6.1C273.8,74.2,274.7,73.8,275.8,73.7z"/>
	<path class="st1" d="M279.3,119.7c-0.6,0-1.3,0-1.9-0.2c-1.9-0.4-3.7-1.1-5.4-2.1c-2.1-1.1-3.9-2.7-5.2-4.7c-2.1-3.6-1.5-8.8-1-13
		c0.1-0.8,0.2-1.5,0.2-2.1c0.1-1.2,0.2-2.5,0.3-3.7c0.3-4.4,0.6-9,2.5-13c0.9-2.2,2.2-4.3,3.7-6.2c0.8-0.7,1.9-1.2,3-1.3l0,0
		c0.3,0,0.6,0,0.8,0c1.2,0.2,2.4,0.6,3.5,1c2.3-1.4,5.1-0.7,6.6-0.2c2.3,0.8,5.2,2.5,6.4,4.7c0.8,1.6,1.5,3.3,2.1,5
		c0.9,2.6,1.8,5,3.6,6.9c0.9,0.8,1.8,1.6,2.8,2.2c0.7,0.5,1.5,1.1,2.2,1.7c2.5,2.2,4.1,5.2,4.5,8.5c0.2,1.6,0,3.2-0.5,4.6
		c-0.8,1.5-1.9,2.8-3.2,3.7c-5.5,4.3-12.6,5.9-18.9,7.3C283.5,119.3,281.4,119.6,279.3,119.7z M275.8,74.2c-0.9,0.1-1.8,0.4-2.5,1
		c-1.5,1.8-2.7,3.8-3.6,5.9c-1.8,3.9-2.1,8.4-2.5,12.7c-0.1,1.3-0.2,2.5-0.3,3.8c-0.1,0.7-0.2,1.4-0.2,2.2
		c-0.5,4.1-1.1,9.2,0.9,12.4c1.2,1.9,2.9,3.4,4.9,4.4c1.5,1,3.2,1.7,5,2c2.6,0.4,5.4-0.2,7.8-0.8c6.2-1.4,13.2-3,18.5-7.2
		c1.2-0.9,2.2-2,2.9-3.4c0.5-1.3,0.7-2.7,0.5-4.1c-0.4-3.1-1.9-5.9-4.2-7.9c-0.7-0.6-1.3-1.1-2-1.6c-1-0.7-2-1.5-2.9-2.3
		c-1.9-2-2.9-4.7-3.8-7.2c-0.5-1.7-1.2-3.3-2-4.8c-1.1-2-3.8-3.5-5.9-4.3c-1.4-0.5-4.1-1.1-6,0.2c-0.2,0.1-0.4,0.1-0.6-0.1
		c-1-0.4-2.1-0.7-3.2-1C276.4,74.2,276.1,74.2,275.8,74.2L275.8,74.2z"/>
	<polygon class="st0" points="260.9,144.5 268.6,104.1 290.8,105.8 290.7,140.5 	"/>
	<path class="st1" d="M260.9,145c-0.1,0-0.2-0.1-0.3-0.1c-0.1-0.1-0.1-0.3-0.1-0.4l7.7-40.5c0-0.2,0.3-0.4,0.5-0.4l22.2,1.8
		c0.2,0,0.4,0.2,0.4,0.5l-0.1,34.7c0,0.2-0.2,0.4-0.4,0.4l-29.8,4H260.9z M269,104.5l-7.5,39.5l28.8-3.9l0.1-33.9L269,104.5z"/>
	<path class="st1" d="M293.9,138.9c0,0,6.1,67.4,8.9,92.1l-11.9,1.9c0,0-6.1-29.4-13.9-51.6l-7.4,51.6l-15.3-1.7l4.1-90.6
		L293.9,138.9z"/>
	<path class="st3" d="M309.5,124.8c0,0-0.9-4.7-6.7-12.5s-19.4-8.9-19.7-8.9c0.3,0,5.9,0.6-10.2-0.9c-9.4-0.9-23.2,8.9-23.2,8.9
		l5.2,15.7l4.1-3l-3,24.9l41.2,2.7l-1.4-22.9L309.5,124.8z M278.1,127c-4.8-16.8-5.1-19.4-5.1-19.6l12.6,0.5L278.1,127z"/>
	<path class="st0" d="M274.7,100.2l-1.5,7.8c0,0-0.1,4.6,5,4.2c3-0.3,5.8-1.9,7.5-4.4c0.5-3.2,1.1-6.5,1.6-9.7
		c0.6-3.6,1.6-7.4,1.8-11c-3.8,1.2-8.5-3.6-9.6-6.7c-0.6,2-0.2,4.1,1.2,5.6c-2.1-0.8-3.8-2.5-4.5-4.6c-1.1,0.9-2.2,1.8-3.1,2.8
		c-0.8,1.2-1.5,2.5-1.9,3.9c-0.7,2.4-1.4,6-0.1,8.4C272.6,99.7,274.7,100.2,274.7,100.2z"/>
	<path class="st1" d="M277.7,112.7c-1.3,0.1-2.5-0.4-3.4-1.2c-0.9-0.9-1.4-2.2-1.4-3.5c0.9-5,1.3-6.9,1.4-7.5
		c-1.6-0.8-2.9-2.1-3.6-3.7c-1.5-2.8-0.4-7,0.1-8.8c0.4-1.4,1.1-2.8,2-4c0,0,3-3.1,3.6-3c0.2,0,0.3,0.2,0.4,0.3
		c0.5,1.5,1.4,2.8,2.7,3.6c-0.7-1.4-0.8-3.1-0.3-4.6c0.1-0.2,0.2-0.3,0.4-0.3c0.2,0,0.4,0.1,0.4,0.3c1.1,2.9,5.6,7.5,9.1,6.4
		c0.1,0,0.3,0,0.4,0.1c0.1,0.1,0.2,0.2,0.2,0.4c-0.2,2.6-0.6,5.1-1.1,7.6c-0.2,1.2-0.5,2.3-0.6,3.4l-1.6,9.7c0,0.1,0,0.1-0.1,0.2
		c-1.8,2.6-4.7,4.3-7.8,4.6L277.7,112.7z M273.7,108.2c0,1,0.5,2,1.1,2.7c0.9,0.8,2.1,1.1,3.3,0.9c2.8-0.2,5.4-1.7,7.1-4.1l1.6-9.6
		c0.2-1.1,0.4-2.3,0.6-3.5c0.5-2.3,0.8-4.6,1.1-6.9c-3.5,0.6-7.3-2.9-9-5.8c-0.1,1.4,0.4,2.8,1.4,3.9c0.2,0.2,0.2,0.5,0,0.6
		c-0.1,0.1-0.3,0.2-0.5,0.1c-2.1-0.7-3.7-2.3-4.5-4.4c-0.8,0.7-2.3,2.1-2.5,2.4c-0.8,1.1-1.4,2.4-1.8,3.7c-0.5,1.6-1.5,5.6-0.2,8.1
		c1.5,2.8,3.4,3.4,3.4,3.4c0.2,0.1,0.4,0.3,0.3,0.5C275.2,100.4,273.8,108,273.7,108.2L273.7,108.2z"/>
	<path class="st0" d="M287,92.6c0.2-0.6,0.7-1,1.2-1.3c0.5-0.3,1-0.4,1.6-0.5c0.3-0.1,0.6-0.1,0.9,0c0.2,0.1,0.4,0.2,0.6,0.3
		c0.4,0.3,0.7,0.7,0.9,1.2c0.1,0.4,0,0.8-0.1,1.2c-0.1,0.4-0.3,0.9-0.5,1.2c-1,1.6-3.1,2-4.7,1"/>
	<path class="st1" d="M288.6,96.7c-0.7,0-1.5-0.2-2.1-0.6c-0.2-0.1-0.2-0.3-0.1-0.5c0.1-0.2,0.3-0.2,0.5-0.1c0,0,0,0,0,0
		c1.4,0.9,3.2,0.6,4.2-0.8c0,0,0-0.1,0.1-0.1c0.2-0.4,0.4-0.7,0.5-1.2c0.1-0.3,0.2-0.7,0.1-1c-0.1-0.4-0.4-0.8-0.7-1
		c-0.1-0.1-0.3-0.2-0.4-0.2c-0.2-0.1-0.5-0.1-0.8,0c-0.5,0.1-1,0.2-1.5,0.5c-0.4,0.3-0.8,0.7-1,1.2c-0.1,0.2-0.3,0.3-0.5,0.2
		s-0.3-0.3-0.2-0.5c0.3-0.6,0.7-1.2,1.3-1.5c0.5-0.3,1.1-0.5,1.7-0.5c0.4-0.1,0.7-0.1,1.1,0c0.3,0.1,0.5,0.2,0.7,0.4
		c0.5,0.3,0.9,0.9,1,1.5c0.1,0.5,0,0.9-0.1,1.4c-0.1,0.5-0.3,0.9-0.6,1.3c-0.5,0.8-1.4,1.4-2.4,1.7
		C289.2,96.7,288.9,96.7,288.6,96.7z"/>
	<path class="st1" d="M274.3,103.3c0,0,3,1.5,5.5-0.2c1.4-0.9,2.4-2.3,2.6-3.9c0,0-4.6,2.3-7.7,1.2L274.3,103.3z"/>
	<path class="st1" d="M277.1,104.4c-1,0-2.1-0.2-3-0.7c-0.2-0.1-0.3-0.3-0.2-0.4l0.4-3c0-0.1,0.1-0.3,0.2-0.3c0.1-0.1,0.3-0.1,0.4,0
		c2.9,1.1,7.3-1.1,7.4-1.1c0.2-0.1,0.5,0,0.6,0.2c0,0.1,0.1,0.2,0,0.2c-0.3,1.8-1.3,3.3-2.8,4.2
		C279.2,104.1,278.2,104.4,277.1,104.4z M274.8,103.1c1.5,0.7,3.3,0.6,4.8-0.3c1-0.7,1.8-1.7,2.2-2.8c-1.4,0.6-4.3,1.6-6.7,1
		L274.8,103.1z"/>
	<path class="st0" d="M275.9,87.7c0,0-3.3,3.3-2.8,4s2.2,0.7,2.2,0.7"/>
	<path class="st1" d="M275.1,92.8c-0.6,0-1.9-0.1-2.4-0.9s1.3-3,2.9-4.5c0.2-0.2,0.4-0.2,0.6,0c0.2,0.2,0.2,0.4,0,0.6c0,0,0,0,0,0
		c-1.5,1.5-2.8,3.2-2.7,3.6c0.2,0.4,1.4,0.5,1.9,0.4c0.2,0,0.4,0.2,0.4,0.4c0,0.2-0.1,0.4-0.4,0.4c0,0,0,0,0,0L275.1,92.8z"/>
	<ellipse transform="matrix(0.4002 -0.9164 0.9164 0.4002 86.6352 309.8139)" class="st1" cx="280" cy="88.7" rx="0.9" ry="0.6"/>
	<ellipse transform="matrix(0.4002 -0.9164 0.9164 0.4002 83.6 302.7007)" class="st1" cx="273" cy="87.5" rx="0.9" ry="0.6"/>
	<path class="st0" d="M271.8,93.7c0,0,1.6,3.8,6.2,1.4"/>
	<path class="st1" d="M275.2,96.3c-0.5,0-0.9-0.1-1.4-0.2c-1-0.4-1.9-1.2-2.4-2.2c-0.1-0.2,0-0.4,0.2-0.5c0,0,0,0,0,0
		c0.2-0.1,0.4,0,0.5,0.2c0,0,0,0,0,0c0.4,0.8,1.1,1.4,1.9,1.8c1.3,0.3,2.6,0.1,3.8-0.6c0.2-0.1,0.4,0,0.5,0.2c0,0,0,0,0,0
		c0.1,0.2,0,0.4-0.2,0.5C277.3,96,276.3,96.3,275.2,96.3z"/>
	<line class="st4" x1="297.3" y1="151.6" x2="295.5" y2="113.9"/>
	<path class="st1" d="M297.3,152.1c-0.2,0-0.4-0.2-0.5-0.4l-1.8-37.7c0-0.3,0.2-0.5,0.4-0.5c0.2,0,0.5,0.2,0.5,0.4l1.8,37.7
		C297.7,151.8,297.5,152,297.3,152.1L297.3,152.1z"/>
	<path class="st1" d="M293.8,237c0,0,6.8-3.8,9.7,0c1.8,2.5,2.9,5.5,3.1,8.6c0,0-14.3,2.4-14.4,0S293.8,237,293.8,237z"/>
	<path class="st1" d="M253,233.7l3,5.1l12-1l-0.2,6.1c0,0-25.4,2.3-26.1-0.6S253,233.7,253,233.7z"/>
	<polygon class="st0" points="280.3,130.4 259.8,134.2 265,158.7 286.6,157.6 	"/>
	<path class="st1" d="M265,159.2c-0.2,0-0.4-0.2-0.5-0.4l-5.2-24.5c0-0.1,0-0.2,0.1-0.4c0.1-0.1,0.2-0.2,0.3-0.2l20.5-3.7
		c0.2,0,0.5,0.1,0.5,0.4l6.3,27.2c0,0.1,0,0.3-0.1,0.4c-0.1,0.1-0.2,0.2-0.3,0.2L265,159.2L265,159.2z M260.4,134.6l5,23.7l20.7-1.1
		l-6-26.2L260.4,134.6z"/>
	<path class="st0" d="M297.6,128.2c0,0,3.4,13.4,2.7,14.2s-14.7-1.2-14.7-1.2s-2.2-5.2-3.1-4.6s0,4.1,0,4.1s-6.2-2.8-6.6-1
		c-0.4,2.4-0.4,4.8,0,7.2c0.4,1.1,30.7,9.9,34.7,4.7s-2.7-26.3-2.7-26.3"/>
	<path class="st1" d="M304.4,153.7c-3-0.1-5.9-0.4-8.9-0.9c-7.8-1.3-19.8-4.6-20.2-5.7c-0.4-2.5-0.4-5,0-7.4
		c0.1-0.3,0.3-0.6,0.6-0.8c1.2-0.6,4.2,0.4,5.8,1.1c-0.3-1.3-0.5-3.2,0.4-3.7c0.2-0.1,0.4-0.1,0.7-0.1c1.1,0.4,2.5,3.4,3,4.6
		c6.2,0.9,12.9,1.6,14,1.3c0.2-1.1-1.2-7.8-2.8-13.7c-0.1-0.2,0.1-0.5,0.4-0.5c0.2-0.1,0.5,0.1,0.5,0.3c2.3,9.1,3.2,14,2.5,14.6
		s-8.6-0.2-15.1-1.1c-0.2,0-0.3-0.1-0.4-0.3c-0.9-2.2-2.1-4.3-2.6-4.4c-0.2,0.2-0.1,1.9,0.3,3.6c0,0.2,0,0.4-0.1,0.5
		c-0.1,0.1-0.3,0.1-0.5,0.1c-1.9-0.9-5-1.9-5.8-1.5c-0.1,0.1-0.1,0.1-0.1,0.1c-0.3,2.3-0.3,4.6,0,6.9c1.4,1,21,6.8,30.1,6
		c2-0.2,3.3-0.6,3.8-1.4c3.8-4.9-2.7-25.7-2.8-25.9c-0.1-0.2,0.1-0.5,0.3-0.6c0.2-0.1,0.5,0.1,0.6,0.3l0,0
		c0.3,0.9,6.7,21.4,2.6,26.8C310,153.1,307.8,153.7,304.4,153.7z"/>
	<rect x="285" y="176.5" class="st0" width="8.6" height="73.7"/>
	<path class="st1" d="M293.7,250.7H285c-0.3,0-0.5-0.2-0.5-0.4v-73.7c0-0.3,0.2-0.5,0.5-0.4h8.6c0.2,0,0.5,0.2,0.5,0.4c0,0,0,0,0,0
		v73.7C294.1,250.5,293.9,250.7,293.7,250.7z M285.5,249.8h7.7V177h-7.7V249.8z"/>
	<rect x="93.6" y="176.5" class="st0" width="65.1" height="73.7"/>
	<path class="st1" d="M158.7,250.7H93.6c-0.3,0-0.5-0.2-0.5-0.4v-73.7c0-0.3,0.2-0.5,0.5-0.4h65.1c0.3,0,0.5,0.2,0.5,0.4v73.7
		C159.2,250.5,159,250.7,158.7,250.7z M94,249.8h64.2V177H94V249.8z"/>
	<path class="st2" d="M153.1,200.8H99.6c-0.3,0-0.5-0.2-0.5-0.5V183c0-0.3,0.2-0.5,0.5-0.5h53.5c0.3,0,0.5,0.2,0.5,0.5v17.3
		C153.5,200.6,153.3,200.8,153.1,200.8z M100.1,199.8h52.5v-16.3h-52.5L100.1,199.8z"/>
	<path class="st2" d="M153.1,222.5H99.6c-0.3,0-0.5-0.2-0.5-0.5v-17.3c0-0.3,0.2-0.5,0.5-0.5h53.5c0.3,0,0.5,0.2,0.5,0.5V222
		C153.6,222.3,153.4,222.5,153.1,222.5C153.1,222.5,153.1,222.5,153.1,222.5z M100.1,221.5h52.5v-16.3h-52.5L100.1,221.5z"/>
	<path class="st2" d="M153.1,244.3H99.6c-0.3,0-0.5-0.2-0.5-0.5v-17.3c0-0.3,0.2-0.5,0.5-0.5h53.5c0.3,0,0.5,0.2,0.5,0.5v17.3
		C153.6,244.1,153.3,244.3,153.1,244.3z M100.1,243.3h52.5V227h-52.5L100.1,243.3z"/>
	<rect x="88.2" y="168" class="st0" width="217.9" height="8.5"/>
	<path class="st1" d="M306.2,177H88.2c-0.3,0-0.5-0.2-0.5-0.5V168c0-0.3,0.2-0.5,0.5-0.5h217.9c0.3,0,0.5,0.2,0.5,0.5v8.5
		C306.6,176.8,306.4,177,306.2,177C306.2,177,306.2,177,306.2,177z M88.7,176.1h217v-7.6h-217V176.1z"/>
	<path class="st0" d="M218.8,135.4c-1.6-1-7.2,5.4-7.7,5.2s1.8-3.5,0.6-4.2s-6.8,8.4-6.8,8.4l-19.5,15.8l-8.1-8.5l-12.2,9.3
		c0,0,13.8,18.3,18,17.6c5.3-0.8,27.4-28.8,27.4-28.8s8.7-7.6,9.4-10.1S220.4,136.4,218.8,135.4z"/>
	<path class="st1" d="M182.9,179.5c-4.6,0-16.8-15.9-18.2-17.8c-0.2-0.2-0.1-0.5,0.1-0.6l12.2-9.3c0.2-0.1,0.4-0.1,0.6,0.1l7.8,8.2
		l19.1-15.5c2.6-4.3,6-9.3,7.3-8.5c1.1,0.6,0.4,2.3-0.1,3.5c0,0,0,0.1,0,0.1l1-0.9c2.8-2.5,5.1-4.4,6.3-3.6l0,0
		c1.7,1.1,2.1,2.5,1.3,5.2s-8.7,9.6-9.6,10.3c-0.9,1.1-22.2,28.1-27.6,28.9C183.1,179.5,183,179.5,182.9,179.5z M165.7,161.5
		c5.5,7.2,14.5,17.5,17.3,17.1c4.2-0.7,21-20.9,27.1-28.6c2.4-2.2,8.8-8,9.4-10c0.7-2.6,0.3-3.4-0.9-4.2l0,0
		c-0.7-0.4-3.8,2.4-5.2,3.6c-1.6,1.5-2,1.8-2.5,1.7c-0.1-0.1-0.3-0.2-0.4-0.3c-0.2-0.4,0-0.8,0.4-1.6s0.9-2.1,0.5-2.3
		c-0.8,0.1-3.8,4.4-6.1,8.3c0,0-0.1,0.1-0.1,0.1L185.6,161c-0.2,0.2-0.4,0.2-0.6,0l-7.8-8.2L165.7,161.5z"/>
	<path class="st0" d="M157.9,116.2c0,0,5.7,3.6,5.3,4.6s-3.1,1-3.1,1"/>
	<path class="st1" d="M160.2,122.2H160c-0.2,0-0.4-0.2-0.4-0.5c0-0.2,0.2-0.4,0.4-0.4c0,0,0,0,0,0c1,0,2.5-0.2,2.7-0.7
		c0-0.5-2.4-2.4-5.1-4.1c-0.2-0.1-0.3-0.4-0.1-0.6c0.1-0.2,0.4-0.3,0.6-0.1c2.8,1.7,5.9,4,5.5,5.2S161,122.2,160.2,122.2z"/>
	<path class="st0" d="M155,107.5c0,0,6.5,10.9,6,17.2s-8.3,5.8-8.3,5.8l1.1,7.8c0,0-10.2,0.4-10.2,0s-3.8-19.7-3.6-25
		S152,106,155,107.5z"/>
	<path class="st1" d="M146.6,138.9c-3,0-3.2-0.2-3.3-0.3c-0.1-0.1-0.1-0.2-0.1-0.4c0-0.1-0.2-1-0.4-2.1c-1-5.6-3.4-18.6-3.2-22.8
		c0.1-1.7,1.2-3.2,3.2-4.4c3.9-2.3,10.2-2.9,12.4-1.8c0.1,0,0.1,0.1,0.2,0.2c0.3,0.4,6.6,11.1,6.1,17.5c-0.4,5.6-6.3,6.2-8.2,6.2
		l1,7.2c0,0.1,0,0.3-0.1,0.4c-0.1,0.1-0.2,0.2-0.3,0.2C150.4,138.8,148.1,138.9,146.6,138.9z M144,137.9c1.1,0.1,5.3,0.1,9.3-0.1
		l-1-7.3c0-0.1,0-0.3,0.1-0.4c0.1-0.1,0.2-0.2,0.4-0.1c0.3,0,7.3,0.4,7.8-5.4s-5.2-15.6-5.9-16.8c-1.9-0.8-7.7-0.3-11.4,1.8
		c-1.2,0.7-2.7,1.9-2.8,3.6c-0.2,4.2,2.2,17.6,3.2,22.6C143.8,137,143.9,137.6,144,137.9L144,137.9z"/>
	<path class="st5" d="M161.3,56.2V102h45.8V56.2H161.3z M187.9,81.6h-5.7V98h-4.6V81.6h-5.7V78h16V81.6z M202.8,95.1
		c-0.4,0.8-1,1.4-1.7,1.8c-0.7,0.5-1.6,0.8-2.5,1c-1,0.2-2,0.3-3.1,0.3c-1.1,0-2.2-0.1-3.1-0.3c-1-0.2-1.9-0.5-2.6-0.8v-4.5l0,0
		c0.8,0.7,1.7,1.2,2.6,1.5c1,0.3,1.9,0.5,2.9,0.5c0.6,0,1.1-0.1,1.5-0.2c0.4-0.1,0.8-0.2,1.1-0.4s0.5-0.4,0.6-0.6s0.2-0.5,0.2-0.8
		c0-0.4-0.1-0.7-0.3-1.1c-0.2-0.3-0.5-0.6-0.9-0.9c-0.4-0.3-0.8-0.5-1.4-0.8s-1.1-0.5-1.7-0.7c-1.6-0.7-2.7-1.5-3.5-2.4
		c-0.8-0.9-1.2-2.1-1.2-3.4c0-1,0.2-1.9,0.6-2.7c0.4-0.8,1-1.4,1.7-1.9c0.7-0.5,1.6-0.8,2.5-1.1c1-0.2,2-0.3,3-0.3
		c1,0,2,0.1,2.8,0.2c0.8,0.1,1.6,0.3,2.2,0.6v4.2c-0.3-0.2-0.7-0.4-1.1-0.6c-0.4-0.2-0.8-0.3-1.2-0.4c-0.4-0.1-0.8-0.2-1.3-0.3
		c-0.4-0.1-0.8-0.1-1.2-0.1c-0.5,0-1,0-1.4,0.1c-0.4,0.1-0.8,0.2-1.1,0.4c-0.3,0.2-0.5,0.4-0.7,0.6c-0.2,0.2-0.2,0.5-0.2,0.8
		c0,0.3,0.1,0.6,0.3,0.9c0.2,0.3,0.4,0.5,0.8,0.8c0.3,0.2,0.7,0.5,1.2,0.7c0.5,0.2,1,0.5,1.6,0.7c0.8,0.3,1.5,0.7,2.2,1.1
		c0.6,0.4,1.2,0.8,1.6,1.3c0.5,0.5,0.8,1,1.1,1.6c0.2,0.6,0.4,1.3,0.4,2.1C203.4,93.4,203.2,94.3,202.8,95.1z"/>
	<g>
		<rect x="113.9" y="56.2" class="st6" width="46" height="46"/>
		<path d="M144.8,92.1c0.9,1.5,2.1,2.6,4.3,2.6c1.8,0,2.9-0.9,2.9-2.1c0-1.5-1.2-2-3.1-2.9l-1.1-0.5c-3.1-1.3-5.2-3-5.2-6.5
			c0-3.2,2.5-5.7,6.3-5.7c2.7,0,4.7,1,6.1,3.5l-3.4,2.2c-0.7-1.3-1.5-1.9-2.8-1.9c-1.3,0-2.1,0.8-2.1,1.9c0,1.3,0.8,1.8,2.7,2.6
			l1.1,0.5c3.7,1.6,5.7,3.2,5.7,6.8c0,3.9-3.1,6-7.2,6c-4,0-6.6-1.9-7.9-4.4L144.8,92.1z M129.5,92.5c0.7,1.2,1.3,2.2,2.8,2.2
			c1.4,0,2.3-0.6,2.3-2.7V77.3h4.3v14.8c0,4.5-2.6,6.5-6.5,6.5c-3.5,0-5.5-1.8-6.5-3.9L129.5,92.5z"/>
	</g>
	<path class="st0" d="M133.3,113.9c0-0.2,0-0.4,0-0.6c0-1.3,0.6-2.5,1.5-3.3c0.4-0.5,2.5-2.7,3.3-2.5c-1.9-0.6-3.9-0.4-5.7,0.5
		c0.4-1,1.1-1.7,2.1-2.2c2.7-1.7,5.9-2.6,9.1-2.6c-1.2-0.4-2.5-0.7-3.8-0.9c3.4-2.8,16.5-3.9,16.9,2.8c0.2,2.8-2.9,3.8-4.9,4.8
		c-2.3,1.2-1.7,4.6-0.6,11.2s-1.8,9-1.8,9c-1,0.8-4,0.9-5.2,1.1c-1.6,0.3-5.5,0.5-6.5-1.1c-0.8-1.3,0.7-2.4,0.6-3.7s-1.6-2.9-2.1-4
		C134.5,119.8,133.6,116.9,133.3,113.9z"/>
	<path class="st1" d="M141.5,131.9c-1.6,0-3.6-0.3-4.4-1.5c-0.4-0.8-0.4-1.8,0.2-2.6c0.2-0.4,0.4-0.8,0.4-1.3
		c-0.2-0.9-0.7-1.8-1.3-2.6c-0.3-0.4-0.6-0.9-0.8-1.3c-1.5-2.7-2.5-5.7-2.8-8.8l0,0c0-0.2,0-0.4,0-0.6c0-1.4,0.6-2.7,1.6-3.6
		c0.6-0.7,1.3-1.4,2.1-2c-1.4-0.2-2.8,0.1-4,0.7c-0.2,0.1-0.4,0.1-0.5-0.1c-0.1-0.1-0.2-0.3-0.1-0.5c0.4-1.1,1.2-1.9,2.3-2.4
		c2.1-1.3,4.3-2.1,6.7-2.5c-0.4-0.1-0.8-0.1-1.2-0.2c-0.2,0-0.3-0.1-0.4-0.3c-0.1-0.2,0-0.4,0.1-0.5c2.6-2.2,10-3.2,14.2-1.3
		c1.9,0.7,3.3,2.4,3.4,4.4c0.2,2.7-2.3,3.9-4.4,4.8l-0.8,0.4c-2,1-1.5,4-0.3,10.8s-1.9,9.3-2,9.5c-0.8,0.7-2.7,0.9-4.2,1
		c-0.5,0.1-0.9,0.1-1.2,0.1C143.3,131.8,142.4,131.9,141.5,131.9z M133.7,113.9c0.3,2.9,1.2,5.8,2.7,8.4c0.2,0.4,0.5,0.8,0.8,1.2
		c0.7,0.9,1.2,1.9,1.4,3c0,0.6-0.2,1.2-0.5,1.7c-0.3,0.7-0.5,1.2-0.2,1.7c0.7,1.2,3.9,1.2,6,0.9c0.3-0.1,0.8-0.1,1.3-0.2
		c1.2-0.1,3.1-0.3,3.7-0.8c0.1-0.1,2.8-2.3,1.7-8.6c-1.2-6.7-1.8-10.4,0.8-11.7l0.9-0.4c1.9-0.9,4-1.9,3.8-4
		c-0.1-1.7-1.3-3.1-2.9-3.7c-3.7-1.6-9.4-0.8-12.3,0.6c0.9,0.2,1.8,0.4,2.6,0.7c0.2,0.1,0.4,0.3,0.3,0.6c-0.1,0.2-0.3,0.3-0.5,0.3
		c-3.1,0-6.2,0.9-8.8,2.6c-0.4,0.2-0.8,0.5-1.1,0.8c1.5-0.5,3.2-0.5,4.7,0l0,0c0.2,0.1,0.3,0.4,0.2,0.6c-0.1,0.2-0.3,0.3-0.5,0.3
		c-0.4-0.1-1.8,1.1-2.8,2.3c-0.8,0.8-1.3,1.9-1.4,3c0,0.2,0,0.4,0,0.6L133.7,113.9z"/>
	<path class="st0" d="M152.9,119.4c-0.9-1.1-2.1-1.8-3.5-2.2c-1.4-0.2-3,0.7-3,2c0,0.4,0.1,0.8,0.3,1.2c1.2,2.6,3.5,4.6,6.4,5.2"/>
	<path class="st1" d="M153.1,126.1L153.1,126.1c-3-0.7-5.5-2.7-6.8-5.5c-0.2-0.4-0.3-0.9-0.4-1.4c0-0.7,0.3-1.3,0.9-1.8
		c0.8-0.6,1.7-0.9,2.7-0.7c1.4,0.4,2.7,1.2,3.7,2.3c0.2,0.2,0.2,0.5,0,0.6c0,0,0,0,0,0c-0.2,0.2-0.5,0.2-0.6,0c-0.9-1-2-1.7-3.3-2.1
		c-0.7-0.1-1.4,0.1-2,0.5c-0.3,0.3-0.5,0.7-0.6,1.1c0,0.3,0.1,0.7,0.3,1c1.1,2.5,3.3,4.3,6,4.9c0.2,0.1,0.4,0.3,0.4,0.5
		c0,0.2-0.2,0.4-0.5,0.4L153.1,126.1z"/>
	<path class="st1" d="M156.8,251.5c-0.2,1.4,0.2,2.9,0.9,4.1c1.2,1.8,0.9,7.2,0.9,7.2h-11.3c0,0-0.3-6.5,0.4-7.4s1-0.1,1.2-1.3
		c0-1.3-0.2-2.6-0.6-3.9L156.8,251.5z"/>
	<path class="st1" d="M158.7,263.3h-11.3c-0.2,0-0.4-0.2-0.4-0.4c-0.1-1.6-0.3-6.7,0.5-7.7c0.2-0.3,0.6-0.6,0.9-0.7
		c0.1,0,0.1-0.1,0.2-0.4c0-1.3-0.2-2.5-0.6-3.7c-0.1-0.2,0.1-0.5,0.3-0.5c0.1,0,0.1,0,0.2,0l8.4,1.3c0.2,0,0.4,0.3,0.4,0.5
		c-0.2,1.3,0.1,2.7,0.8,3.8c1.3,1.9,1,7.2,1,7.5C159.1,263.1,158.9,263.3,158.7,263.3z M147.8,262.4h10.5c0-1.7,0-5.2-0.9-6.5
		c-0.7-1.2-1.1-2.6-1-4l-7.4-1.1c0.3,1.1,0.5,2.3,0.4,3.5c-0.1,0.7-0.4,0.9-0.8,1.1c-0.2,0.1-0.4,0.2-0.5,0.4
		C147.8,256.2,147.7,259.5,147.8,262.4z"/>
	<path class="st1" d="M190,250.6c0,0,0.5,3.6,1.7,4.3s6.9,1.3,7.3,2.6c0.2,1.4,0.2,2.9,0,4.3h-17.4v-12.2L190,250.6z"/>
	<path class="st1" d="M198.9,262.2h-17.4c-0.2,0-0.4-0.2-0.4-0.4l0,0v-12.2c0-0.2,0.2-0.4,0.4-0.4c0,0,0.1,0,0.1,0l8.4,1.1
		c0.2,0,0.4,0.2,0.4,0.4c0.2,1.3,0.8,3.5,1.5,4c0.8,0.3,1.7,0.6,2.6,0.8c2.7,0.6,4.5,1.1,4.9,2c0.2,1.5,0.2,3,0,4.5
		C199.3,262,199.2,262.2,198.9,262.2z M182,261.3h16.6c0.2-1.2,0.2-2.5,0-3.7c-0.2-0.6-2.8-1.1-4.2-1.5c-1-0.2-2-0.5-2.9-0.9
		c-1.1-0.7-1.7-3.3-1.9-4.2l-7.6-1L182,261.3z"/>
	<polygon class="st0" points="157.7,253 147.4,253 133.8,204.4 155.1,199.8 	"/>
	<path class="st1" d="M157.7,253.5h-10.4c-0.2,0-0.4-0.1-0.4-0.3l-13.6-48.6c-0.1-0.1-0.1-0.2,0-0.4c0.1-0.1,0.2-0.2,0.3-0.2
		l21.3-4.6c0.1,0,0.3,0,0.4,0.1c0.1,0.1,0.2,0.2,0.2,0.3l2.7,53.2c0,0.1,0,0.2-0.1,0.3C158,253.4,157.9,253.5,157.7,253.5z
		 M147.7,252.6h9.5l-2.6-52.2l-20.3,4.3L147.7,252.6z"/>
	<path class="st0" d="M157.2,191.1c0,0,21,4.8,28,9.7c3,2.1,5.5,51.7,5.5,51.7l-9.2,1.1c0,0-8.4-40.4-11.6-41.8s-20.3-0.8-20.3-0.8
		S144.1,196.2,157.2,191.1z"/>
	<path class="st1" d="M181.5,254c-0.2,0-0.4-0.2-0.4-0.4c-3.2-15.6-9.1-40.5-11.3-41.4c-3.1-1.3-20-0.7-20.1-0.7
		c-0.2,0-0.4-0.1-0.4-0.3c0-0.1-5.5-15.3,7.9-20.5c0.1,0,0.2,0,0.3,0c0.9,0.2,21.1,4.8,28.2,9.8c0.6,0.4,2.1,1.4,4.1,27
		c1,12.5,1.6,24.9,1.6,25c0,0.2-0.2,0.4-0.4,0.5L181.5,254L181.5,254z M157.4,210.4c5,0,10.8,0.2,12.6,0.9
		c3.2,1.3,10.2,34,11.8,41.7l8.4-1c-1-19.1-3.3-49.4-5.3-50.9c-6.6-4.6-25.9-9.2-27.7-9.6c-4.9,1.7-8.2,6.3-8.3,11.4
		c-0.1,2.6,0.2,5.1,1,7.6C150.9,210.5,154,210.5,157.4,210.4L157.4,210.4z"/>
	<path class="st3" d="M131.6,134.1c0,0,25.6-3.4,32.5,0s21.1,24.8,21.1,24.8l-17.9,7.6l2.8,38c0,0-1.1,6.4-22,6.4s-21-2.6-21-2.6
		s-4.8-29.6-3.1-45.6l-10-3.1C113.9,159.7,119.4,140.1,131.6,134.1z"/>
	<path class="st1" d="M168.6,218.2h-42.3c-1.9,0-3.4-1.5-3.4-3.4v-1.1c0-1.9,1.5-3.4,3.4-3.4h42.3c1.9,0,3.4,1.5,3.4,3.4v1.1
		C172,216.7,170.5,218.2,168.6,218.2z"/>
	<path class="st1" d="M168.6,218.7h-42.3c-2.1,0-3.9-1.7-3.9-3.9v-1.1c0-2.1,1.7-3.9,3.9-3.9h42.3c2.1,0,3.9,1.7,3.9,3.9v1.1
		C172.4,217,170.7,218.7,168.6,218.7z M126.2,210.7c-1.7,0-3,1.3-3,3v1.1c0,1.7,1.3,3,3,3h42.3c1.7,0,3-1.3,3-3v-1.1
		c0-1.7-1.3-3-3-3H126.2z"/>
	<polygon class="st1" points="167.2,215.9 172,268.3 168.4,268.3 161.5,214.3 	"/>
	<path class="st1" d="M172,268.8h-3.6c-0.2,0-0.4-0.2-0.4-0.4l-6.8-54.1c0-0.1,0-0.3,0.1-0.4c0.1-0.1,0.3-0.1,0.4-0.1l5.7,1.6
		c0.2,0,0.3,0.2,0.3,0.4l4.8,52.4C172.5,268.5,172.3,268.7,172,268.8C172,268.7,172,268.7,172,268.8z M168.8,267.9h2.7l-4.7-51.6
		l-4.8-1.4L168.8,267.9z"/>
	<polygon class="st1" points="128.1,215.9 123.4,268.3 127,268.3 133.8,214.3 	"/>
	<path class="st1" d="M127,268.8h-3.6c-0.1,0-0.2,0-0.3-0.1c-0.1-0.1-0.1-0.2-0.1-0.3l4.8-52.4c0-0.2,0.1-0.3,0.3-0.4l5.7-1.6
		c0.1,0,0.3,0,0.4,0.1c0.1,0.1,0.2,0.2,0.1,0.4l-6.8,54.1C127.4,268.6,127.2,268.8,127,268.8z M123.9,267.9h2.7l6.7-53l-4.8,1.4
		L123.9,267.9z"/>
	<path class="st0" d="M161,124.7c-0.9,0.9-2.4,0.9-3.3,0.1c-0.1-0.1-0.3-0.3-0.4-0.5"/>
	<path class="st1" d="M159.2,125.9H159c-0.8-0.1-1.6-0.6-2-1.3c-0.1-0.2-0.1-0.5,0.1-0.6c0.2-0.1,0.5-0.1,0.6,0.1
		c0.3,0.5,0.8,0.9,1.4,0.9c0.6,0,1.2-0.2,1.6-0.6c0.2-0.2,0.5-0.2,0.6,0c0.2,0.2,0.2,0.4,0,0.6c0,0,0,0,0,0
		C160.8,125.5,160,125.8,159.2,125.9z"/>
	
		<ellipse transform="matrix(0.9659 -0.2588 0.2588 0.9659 -24.1975 44.0732)" class="st1" cx="155.3" cy="113.9" rx="0.6" ry="1.3"/>
</g>
<g id="essentiel" class="st7">
	<path class="st8" d="M114.8,141.3c0,0-3.6-0.1-7.5,6.6l0,0l0,0c-1.7-9.2-8.9-14.9-8.9-14.9c-1.3,4.3-1.8,8.8-1.3,13.3
		c-1.6-1.5-3.5-2.7-5.5-3.6c-0.2,5.8,2.2,11.2,4.4,14.9h7.1l0,0h1.2h2.9h3.9C113.1,154.5,116.3,148.3,114.8,141.3z"/>
	<path class="st9" d="M115.3,141.2c0-0.2-0.2-0.4-0.5-0.4c-0.2,0-3.6,0-7.3,5.9c-2.1-8.5-8.5-13.8-8.8-14.1
		c-0.1-0.1-0.3-0.1-0.4-0.1c-0.1,0-0.3,0.2-0.3,0.3c-1.3,4-1.7,8.2-1.4,12.4c-1.4-1.2-3-2.2-4.7-2.9c-0.1-0.1-0.3,0-0.4,0
		c-0.1,0.1-0.2,0.2-0.2,0.4c-0.2,5.9,2.2,11.3,4.3,14.9h-1.1l2.1,10.8h13.3l2.1-10.8h-0.3C113.8,154.4,116.8,148.2,115.3,141.2z
		 M114.5,141.8c1.2,6.5-1.7,12.3-3.7,15.4h-3.3c-0.1,0-0.2-0.1-0.3,0h-2.4c0.2-2.9,1-5.8,2.6-8.3c0.1-0.3,0.3-0.5,0.4-0.8
		C110.8,143,113.5,142,114.5,141.8z M98.6,133.8c1.7,1.5,6.7,6.7,8.2,14l-0.3,0.6c-2.1,3.8-2.6,6.8-2.6,8.8h-4
		c-1.2-3.5-1.9-7-2.3-10.7c0-0.1,0-0.3,0-0.4C97.1,141.9,97.5,137.8,98.6,133.8z M96.6,146.5c0.4,3.6,1.1,7.2,2.3,10.7h-2.6
		c-1.9-3.4-4.2-8.3-4.2-13.7C93.7,144.3,95.3,145.3,96.6,146.5z"/>
</g>
<g id="fondamental" class="st7">
	<g class="st10">
		<circle class="st3" cx="99.7" cy="124.7" r="3.5"/>
	</g>
	<path class="st8" d="M114.8,141.3c0,0-1.4,0-3.4,1.6c1.7-7.9-1.1-15-1.1-15c-3.1,2.9-5.6,6.4-7.3,10.2c-2.3-3.3-4.6-5.1-4.6-5.1
		c-1.3,4.3-1.8,8.8-1.3,13.3c-1.6-1.5-3.5-2.7-5.5-3.6c-0.2,5.8,2.2,11.2,4.4,14.9h7.1l0,0h1.2h2.9h3.9
		C113.1,154.5,116.3,148.3,114.8,141.3z"/>
	<path class="st9" d="M115.3,141.2c-0.1-0.2-0.2-0.4-0.5-0.4c-0.1,0-1.2,0-2.8,1c1.3-7.4-1.2-13.8-1.3-14.1
		c-0.1-0.1-0.2-0.2-0.3-0.3c-0.1,0-0.3,0-0.4,0.1c-2.8,2.7-5.2,5.8-6.9,9.2c-0.6-3.3-1.3-6.2-1.9-8.4c1.4-0.6,2.5-2,2.5-3.7
		c0-1.7-1.1-3.2-2.6-3.8c-0.3-0.1-0.6-0.2-0.9-0.2c-0.2,0-0.3,0-0.5,0c-2.2,0-4,1.8-4,4c0,2,1.5,3.7,3.5,4c0.2,0,0.3,0,0.5,0
		c0.2,0,0.4,0,0.7-0.1c0.5,1.9,1.1,4.5,1.7,7.4c-1.7-2.1-3.2-3.3-3.4-3.4c-0.1-0.1-0.3-0.1-0.4-0.1c-0.1,0-0.3,0.2-0.3,0.3
		c-1.3,4-1.7,8.2-1.4,12.4c-1.4-1.2-3-2.2-4.7-2.9c-0.1-0.1-0.3,0-0.4,0c-0.1,0.1-0.2,0.2-0.2,0.4c-0.2,5.9,2.2,11.3,4.3,14.9h-1.1
		l2.1,10.8h13.3l2.1-10.8h-0.3C113.8,154.4,116.8,148.2,115.3,141.2z M96.6,125c0.8-0.2,1.6-0.1,2.2,0c0,0.3,0,0.6,0,1
		c0,0.6,0,1.1,0.2,1.7C97.7,127.4,96.7,126.3,96.6,125z M99,124.1C99,124.1,99,124.1,99,124.1c-0.6-0.1-1.5-0.2-2.3,0
		c0.1-0.7,0.5-1.3,1.1-1.8c0.5-0.4,1.2-0.7,2-0.7h0.1C99.4,122.2,99.1,123,99,124.1z M100.1,127.7c-0.1,0-0.1,0-0.2,0
		c-0.1-0.4-0.2-0.9-0.2-1.3c0,0,0,0,0,0c0-0.6,0-1.2,0.1-1.8c0.2-1.2,0.6-2.2,0.9-2.9c1.2,0.4,2.1,1.6,2.1,2.9
		c0,1.2-0.7,2.3-1.8,2.8C100.7,127.6,100.4,127.7,100.1,127.7z M110.1,128.7c0.6,1.9,2.2,7.6,0.9,13.9c-1,0.9-2.2,2.1-3.5,4
		c-0.8-3.5-2.4-6.4-4-8.7C105.2,134.5,107.4,131.4,110.1,128.7z M96.3,157.2c-1.9-3.4-4.2-8.3-4.2-13.7c1.6,0.8,3.2,1.9,4.5,3.1
		c0.4,3.6,1.1,7.2,2.3,10.7H96.3z M104.1,154.6c-0.1,0.5-0.2,1-0.2,1.5c0,0.4-0.1,0.8-0.1,1.1h-0.2h-0.9h-2.9
		c-1.2-3.5-1.9-7-2.3-10.7c0-0.1,0-0.3,0-0.4c-0.4-4.1-0.1-8.3,1.1-12.3c0.8,0.7,2.3,2.2,3.8,4.3c0,0,0,0,0,0
		c0.2,0.3,0.4,0.6,0.6,0.9c0.2,0.3,0.4,0.6,0.6,0.9c1.3,2.2,2.6,4.8,3.2,7.8l-0.3,0.6C105.1,150.8,104.4,152.8,104.1,154.6
		C104.1,154.5,104.1,154.5,104.1,154.6z M104.8,157.2L104.8,157.2c0.1-3,1-5.8,2.5-8.3c0.1-0.3,0.3-0.5,0.4-0.8
		c1-1.6,1.9-2.8,2.8-3.7c0.5-0.5,0.9-0.9,1.3-1.2c1.2-1,2.2-1.3,2.7-1.4c1.2,6.5-1.7,12.3-3.7,15.4H104.8z"/>
</g>
<g id="expert">
	<path class="st0" d="M114.8,141.3c0,0-1.4,0-3.4,1.6c1.7-7.9-1.1-15-1.1-15c-3.1,2.9-5.6,6.4-7.3,10.2c-2.3-3.3-4.6-5.1-4.6-5.1
		c-1.3,4.3-1.8,8.8-1.3,13.3c-1.6-1.5-3.5-2.7-5.5-3.6c-0.2,5.8,2.2,11.2,4.4,14.9h7.1l0,0h1.2h2.9h3.9
		C113.1,154.5,116.3,148.3,114.8,141.3z"/>
	<path class="st1" d="M115.3,141.2c-0.1-0.2-0.2-0.4-0.5-0.4c-0.1,0-1.2,0-2.8,1c1.3-7.4-1.2-13.8-1.3-14.1
		c-0.1-0.1-0.2-0.2-0.3-0.3c-0.1,0-0.3,0-0.4,0.1c-2.7,2.5-5,5.5-6.7,8.8c-0.8-6.3-2.5-13-5.7-18.7l-0.8,0.4
		c3.1,5.5,4.7,12,5.5,18.2L102,136c-1.7-2.1-3.2-3.3-3.4-3.4c-0.1-0.1-0.3-0.1-0.4-0.1c-0.1,0-0.3,0.2-0.3,0.3
		c-1.3,4-1.7,8.2-1.4,12.4c-1.4-1.2-3-2.2-4.7-2.9c-0.1-0.1-0.3,0-0.4,0c-0.1,0.1-0.2,0.2-0.2,0.4c-0.2,5.9,2.2,11.3,4.3,14.9h-1.1
		l2.1,10.8h13.3l2.1-10.8h-0.3C113.8,154.4,116.8,148.2,115.3,141.2z M110.1,128.7c0.6,1.9,2.2,7.6,0.9,13.9c-1,0.9-2.2,2.1-3.5,4
		c-0.8-3.5-2.4-6.4-4-8.6c0,0,0,0,0,0c0,0,0,0,0,0C105.2,134.5,107.4,131.4,110.1,128.7z M96.3,157.2c-1.9-3.4-4.2-8.3-4.2-13.7
		c1.6,0.8,3.2,1.9,4.5,3.1c0.4,3.6,1.1,7.2,2.3,10.7H96.3z M104.1,154.6c-0.1,0.5-0.2,1-0.2,1.5c0,0.4-0.1,0.8-0.1,1.1h-0.2h-0.9
		h-2.8c-1.2-3.5-1.9-7-2.3-10.7c0-0.1,0-0.3,0-0.4c-0.4-4.1-0.1-8.3,1.1-12.3c0.8,0.7,2.3,2.2,3.8,4.3c0,0,0,0,0,0
		c0.1,0.1,0.2,0.2,0.2,0.3c0.1,0.2,0.3,0.4,0.4,0.6c0.2,0.3,0.4,0.6,0.6,0.9c0,0.1,0.1,0.1,0.1,0.2c1.3,2.1,2.5,4.7,3.1,7.7
		l-0.3,0.6C105.1,150.8,104.4,152.8,104.1,154.6C104.1,154.5,104.1,154.5,104.1,154.6z M104.8,157.2L104.8,157.2
		c0.1-3,1-5.8,2.5-8.3c0.1-0.3,0.3-0.5,0.4-0.8c1-1.6,1.9-2.8,2.8-3.7c0.5-0.5,0.9-0.9,1.3-1.2c1.2-1,2.2-1.3,2.7-1.4
		c1.2,6.5-1.7,12.3-3.7,15.4H104.8z"/>
	<path class="st3" d="M108.8,117.9c0-0.7-1.6-1.3-3.8-1.5c2-1.1,3.2-2.2,2.9-2.9c-0.3-0.7-2-0.6-4.2,0.1c1.5-1.8,2.2-3.3,1.7-3.9
		c-0.5-0.5-2,0.2-3.8,1.6c0.6-2.1,0.7-3.8,0.1-4.1c-0.7-0.3-1.8,1-2.9,3c-0.2-2.3-0.8-3.9-1.5-3.9c-0.7,0-1.3,1.6-1.5,3.8
		c-1.1-2-2.2-3.2-2.9-2.9c-0.7,0.3-0.6,2,0.1,4.2c-1.8-1.5-3.3-2.2-3.9-1.7c-0.5,0.5,0.2,2,1.6,3.8c-2.1-0.6-3.8-0.7-4.1-0.1
		c-0.3,0.7,1,1.8,3,2.9c-2.3,0.2-3.9,0.8-3.9,1.5c0,0.7,1.6,1.3,3.8,1.5c-2,1.1-3.2,2.2-2.9,2.9c0.3,0.7,2,0.6,4.2-0.1
		c-1.5,1.8-2.2,3.3-1.7,3.9c0.5,0.5,2-0.2,3.8-1.6c-0.6,2.1-0.7,3.8-0.1,4.1c0.7,0.3,1.8-1,2.9-3c0.2,2.3,0.8,3.9,1.5,3.9
		c0.7,0,1.3-1.6,1.5-3.8c1.1,2,2.2,3.2,2.9,2.9c0.7-0.3,0.6-2-0.1-4.2c1.8,1.5,3.3,2.2,3.9,1.7c0.5-0.5-0.2-2-1.6-3.8
		c2.1,0.6,3.8,0.7,4.1,0.1c0.3-0.7-1-1.8-3-2.9C107.2,119.2,108.8,118.6,108.8,117.9z"/>
	<g>
		<g>
			<g>
				<path class="st1" d="M87,113.6c0-0.1,0.3-0.2,0.8-0.2c0.6,0,1.5,0.1,2.7,0.5c-0.3-0.4-0.6-0.8-0.9-1.2c-1.7-0.3-3-0.3-3.4,0.5
					c-0.3,0.8,0.6,1.9,2.1,2.8c0.5-0.1,1-0.2,1.5-0.2C87.7,114.8,86.9,113.8,87,113.6z"/>
			</g>
			<g>
				<path class="st1" d="M92.7,106.7c-0.8,0.3-0.9,1.7-0.5,3.4c0.4,0.3,0.8,0.6,1.2,0.9c-0.6-2.1-0.5-3.4-0.3-3.5c0,0,0,0,0,0
					c0.3,0,1.2,0.9,2.2,2.6c0-0.5,0.1-1,0.2-1.5C94.5,107.3,93.5,106.4,92.7,106.7z"/>
			</g>
			<g>
				<path class="st1" d="M101.9,106.8c-0.6-0.3-1.4,0.2-2.3,1.3c-0.2,0.2-0.4,0.5-0.6,0.8c0.1,0.5,0.1,1,0.2,1.4
					c0.4-0.6,0.7-1.2,1.1-1.7c0.7-0.8,1.1-1,1.2-1c0,0,0,0,0,0c0.1,0,0.3,0.4,0.1,1.5c-0.1,0.6-0.2,1.2-0.4,1.9
					c0.4-0.3,0.8-0.6,1.2-0.9c0.1-0.3,0.1-0.6,0.2-0.9C102.7,107.9,102.5,107,101.9,106.8z"/>
			</g>
			<g>
				<path class="st1" d="M108.3,113.3c-0.3-0.8-1.7-0.9-3.4-0.5c-0.3,0.4-0.6,0.8-0.9,1.2c2.1-0.6,3.4-0.5,3.5-0.3
					c0.1,0.2-0.7,1.2-2.6,2.2c0.5,0,1,0.1,1.4,0.2C107.8,115.2,108.7,114.1,108.3,113.3z"/>
			</g>
			<g>
				<path class="st1" d="M106.3,119.7c-0.5,0.1-1,0.2-1.5,0.2c1.9,1.1,2.8,2,2.7,2.3c-0.1,0.2-1.3,0.3-3.4-0.3
					c0.3,0.4,0.6,0.8,0.9,1.2c0.6,0.1,1.2,0.2,1.7,0.2c0.9,0,1.5-0.2,1.7-0.7C108.7,121.7,107.7,120.6,106.3,119.7z"/>
			</g>
			<g>
				<path class="st1" d="M102.3,125.5c-0.4-0.3-0.8-0.6-1.2-0.9c0.6,2.1,0.5,3.4,0.3,3.5c-0.2,0.1-1.2-0.7-2.2-2.6
					c0,0.5-0.1,1-0.2,1.5c0.8,1.2,1.6,2.1,2.4,2.1c0.1,0,0.2,0,0.4-0.1C102.6,128.6,102.7,127.2,102.3,125.5z"/>
			</g>
			<g>
				<path class="st1" d="M95.2,125.4c-1.1,2-2,2.8-2.3,2.7c-0.2-0.1-0.3-1.3,0.3-3.4c-0.4,0.3-0.8,0.6-1.2,0.9
					c-0.3,1.6-0.3,3,0.5,3.3c0.1,0.1,0.2,0.1,0.4,0.1c0.8,0,1.7-0.9,2.5-2.2C95.3,126.4,95.3,125.9,95.2,125.4z"/>
			</g>
			<g>
				<path class="st1" d="M87,122.1c-0.1-0.2,0.7-1.2,2.6-2.2c-0.5,0-1-0.1-1.4-0.2c-1.4,0.9-2.4,1.9-2,2.8c0.2,0.5,0.9,0.8,1.7,0.8
					c0.5,0,1.1-0.1,1.7-0.2c0.3-0.4,0.6-0.8,0.9-1.2C88.4,122.4,87.1,122.3,87,122.1z"/>
			</g>
		</g>
		<g>
			<path class="st1" d="M109.3,117.9c0-1.4-3.2-2.1-6.2-2.1c-0.3,0-0.5,0-0.8,0c0.2-0.2,0.4-0.4,0.6-0.5c2.1-2.1,3.9-4.9,2.9-5.9
				c-1-1-3.8,0.8-5.9,2.9c-0.2,0.2-0.4,0.4-0.5,0.6c0-0.3,0-0.5,0-0.8c0-3-0.6-6.2-2.1-6.2s-2.1,3.2-2.1,6.2c0,0.3,0,0.5,0,0.8
				c-0.2-0.2-0.4-0.4-0.5-0.6c-2.1-2.1-4.9-4-5.9-2.9c-1,1,0.8,3.8,2.9,5.9c0.2,0.2,0.4,0.4,0.6,0.5c-0.3,0-0.5,0-0.8,0
				c-3,0-6.2,0.6-6.2,2.1c0,1.4,3.2,2.1,6.2,2.1c0.3,0,0.5,0,0.8,0c-0.2,0.2-0.4,0.4-0.6,0.5c-2.1,2.1-4,4.9-2.9,5.9
				c0.2,0.2,0.5,0.3,0.8,0.3c1.3,0,3.4-1.5,5.1-3.2c0.2-0.2,0.4-0.4,0.5-0.6c0,0.3,0,0.5,0,0.8c0,3,0.7,6.2,2.1,6.2s2.1-3.2,2.1-6.2
				c0-0.3,0-0.5,0-0.8c0.2,0.2,0.4,0.4,0.5,0.6c1.7,1.7,3.8,3.2,5.1,3.2c0.3,0,0.6-0.1,0.8-0.3c1-1-0.8-3.8-2.9-5.9
				c-0.2-0.2-0.4-0.4-0.6-0.5c0.3,0,0.5,0,0.8,0C106,120,109.3,119.3,109.3,117.9z M101.1,118.9c-1.1-0.1-1.9-0.3-2.5-0.5
				c0.5,0.3,1.3,0.7,2.1,1.4c0.4,0.4,0.9,0.8,1.4,1.3c2.4,2.4,3.2,4.3,2.9,4.6c-0.2,0.2-2.1-0.5-4.6-2.9c-0.5-0.5-0.9-1-1.3-1.4
				c-0.6-0.8-1.1-1.5-1.4-2c0.2,0.6,0.4,1.4,0.5,2.4c0.1,0.6,0.1,1.2,0.1,1.9c0,3.5-0.8,5.3-1.2,5.3s-1.2-1.9-1.2-5.3
				c0-0.7,0-1.4,0.1-1.9c0.1-1,0.3-1.8,0.4-2.3c-0.3,0.5-0.7,1.2-1.3,2c-0.4,0.4-0.8,0.9-1.3,1.4c-2.4,2.4-4.3,3.2-4.6,2.9
				c-0.2-0.2,0.5-2.1,2.9-4.6c0.5-0.5,1-0.9,1.4-1.3c0.8-0.7,1.5-1.1,2.1-1.4c-0.6,0.2-1.4,0.4-2.4,0.5c-0.6,0.1-1.2,0.1-1.9,0.1
				c-3.5,0-5.3-0.8-5.3-1.2c0-0.3,1.9-1.2,5.3-1.2c0.7,0,1.4,0,1.9,0.1c1.1,0.1,1.9,0.3,2.5,0.5c-0.1-0.1-0.3-0.1-0.4-0.2
				c-0.5-0.3-1.1-0.7-1.7-1.2c-0.5-0.4-1-0.8-1.5-1.3c-2.4-2.4-3.2-4.3-2.9-4.6c0,0,0.1,0,0.1,0c0.5,0,2.3,0.8,4.4,3
				c0.5,0.5,0.9,1,1.3,1.4c0.7,0.8,1.1,1.5,1.4,2c-0.2-0.6-0.4-1.4-0.5-2.4c-0.1-0.6-0.1-1.2-0.1-1.9c0-3.5,0.8-5.3,1.2-5.3
				s1.2,1.9,1.2,5.3c0,0.7,0,1.4-0.1,1.9c-0.1,1.1-0.3,1.9-0.5,2.4c0.3-0.5,0.7-1.2,1.4-2.1c0.4-0.5,0.8-0.9,1.3-1.5
				c2.2-2.2,3.9-3,4.4-3c0.1,0,0.1,0,0.2,0c0.2,0.2-0.5,2.1-2.9,4.6c-0.5,0.5-1,0.9-1.5,1.3c-0.6,0.5-1.1,0.9-1.7,1.2
				c-0.2,0.1-0.3,0.2-0.4,0.2c0.6-0.2,1.4-0.4,2.5-0.5c0.6-0.1,1.2-0.1,1.9-0.1c3.5,0,5.3,0.8,5.3,1.2c0,0.3-1.9,1.2-5.3,1.2
				C102.3,119,101.7,119,101.1,118.9z"/>
		</g>
	</g>
	<g>
		<circle class="st0" cx="97.3" cy="117.9" r="2.3"/>
		<path class="st1" d="M97.3,120.6c-0.9,0-1.8-0.4-2.3-1.3c-0.8-1.3-0.5-3,0.8-3.8c1.3-0.8,3-0.5,3.8,0.8v0c0.8,1.3,0.5,3-0.8,3.8
			C98.3,120.5,97.8,120.6,97.3,120.6z M97.3,116.1c-0.3,0-0.7,0.1-1,0.3c-0.8,0.5-1.1,1.7-0.5,2.5c0.5,0.8,1.7,1.1,2.5,0.5
			c0.8-0.5,1.1-1.7,0.5-2.5l0,0C98.4,116.3,97.9,116.1,97.3,116.1z"/>
	</g>
</g>
<path class="st1" d="M161.5,214.3c0,0,1.7-60.6-6.2-64.5s-48.2-5.1-50.7,0s8.8,50.7,18.2,64L161.5,214.3z"/>
<path class="st1" d="M161.5,214.7L161.5,214.7l-38.8-0.6c-0.1,0-0.3-0.1-0.3-0.2c-9.7-13.6-20.9-59.2-18.3-64.4
	c1.8-3.6,18.6-3.7,23.7-3.6c10.2,0.1,23.2,1.2,27.6,3.4c3.4,1.7,5.6,13.2,6.3,34.1c0.6,15.5,0.2,30.7,0.2,30.8
	C162,214.5,161.8,214.7,161.5,214.7C161.5,214.7,161.5,214.7,161.5,214.7z M123,213.3l38.1,0.6c0.4-17.1,0.2-60.6-6-63.7
	c-7.6-3.8-47.8-4.9-50.1-0.2S113.7,199.8,123,213.3z"/>
</svg>
