<?xml version="1.0" encoding="utf-8"?>
<!-- Generator: Adobe Illustrator 27.9.0, SVG Export Plug-In . SVG Version: 6.00 Build 0)  -->
<svg version="1.1" id="Layer_1" xmlns="http://www.w3.org/2000/svg" xmlns:xlink="http://www.w3.org/1999/xlink" x="0px" y="0px"
	 viewBox="0 0 400 300" style="enable-background:new 0 0 400 300;" xml:space="preserve">
<style type="text/css">
	.st0{fill:#FFFFFF;}
	.st1{fill:#D1D3D4;}
	.st2{fill:#E52C36;}
	.st3{fill:#231F20;}
	.st4{fill:#232020;}
	.st5{display:none;}
	.st6{display:inline;}
	.st7{display:inline;fill:#FFFFFF;}
	.st8{display:inline;fill:#232020;}
	.st9{display:inline;fill:#E52C36;}
</style>
<g id="_492_conventiona_flatline">
	<path class="st0" d="M132.8,44.8h230.7c3.9,0,7.1,3.4,7.1,7.5v149.1c0,4.1-3.2,7.5-7.1,7.5H132.8c-3.9,0-7.1-3.4-7.1-7.5V52.3
		C125.7,48.2,128.9,44.8,132.8,44.8z"/>
	<path class="st1" d="M363.5,210H132.8c-4.4,0-8-3.8-8-8.5V52.3c0-4.7,3.6-8.5,8-8.5h230.7c4.4,0,8,3.8,8,8.5v149.1
		C371.6,206.1,368,210,363.5,210C363.6,210,363.6,210,363.5,210z M132.8,45.9c-3.3,0-6,2.8-6,6.4v149.2c0,3.5,2.7,6.4,6,6.4l0,0
		h230.7c3.3,0,6-2.8,6-6.4l0,0V52.3c0-3.5-2.7-6.4-6-6.4L132.8,45.9z"/>
	<path class="st1" d="M356.9,197.5H139.5c-0.6,0-1-0.5-1-1.1V57.3c0-0.6,0.4-1.1,1-1.1h217.4c0.6,0,1,0.5,1,1.1v139.2
		C357.9,197,357.4,197.5,356.9,197.5L356.9,197.5z M140.4,195.4h215.5v-137H140.5L140.4,195.4z"/>
	<g>
		<polygon class="st0" points="26.8,211.7 27.2,215.1 26.8,217.7 25.7,225.1 25,235.3 25.9,238.5 27.2,240.5 28.4,241.6 31.3,241.9 
			32.1,241.7 33.2,240 33.9,237.8 34.2,235.5 35.1,229.7 35.6,228.3 36.2,228.2 37.2,230.8 38.3,232.8 39.2,233.3 39.9,232.2 
			40.4,228.5 39.9,223.8 39.8,220.6 39.2,217.3 39.3,214.9 39.7,212.5 27.3,210.7 		"/>
		<path class="st2" d="M43.5,115.1c0,0-16.8,10.1-19.6,27.7c-1.9,12.1,0,70.4,0,70.4h20L43.5,115.1z"/>
		<polygon class="st3" points="48.4,180.7 46.3,290.3 64.4,291.5 76.9,213.4 93.4,294.4 113.2,290.3 97.1,173.1 		"/>
		<path class="st3" d="M93.4,294.9c-0.1,0-0.2,0-0.3-0.1c-0.1-0.1-0.2-0.2-0.2-0.3L77,216.2l-12.1,75.4c0,0.3-0.3,0.4-0.5,0.4
			l-18.1-1.3c-0.3,0-0.5-0.2-0.5-0.5l2.1-109.6c0-0.2,0.2-0.4,0.4-0.5l48.7-7.6c0.1,0,0.3,0,0.4,0.1c0.1,0.1,0.2,0.2,0.2,0.3
			l16.1,117.1c0,0.3-0.1,0.5-0.4,0.6l-19.9,4.1L93.4,294.9z M76.9,212.9c0.2,0,0.4,0.2,0.5,0.4l16.4,80.4l18.9-3.9l-16-116.2
			l-47.8,7.4l-2.1,108.7L64,291l12.4-77.7C76.5,213.1,76.7,212.9,76.9,212.9L76.9,212.9z"/>
		<path class="st0" d="M56,93.7c-1-3.5-1.7-7.2-2.2-10.8c-0.3-3.7,0.2-7.5,2.2-10.6c0.8-1.3,2-2.2,3.4-2.7c1.1-0.2,2.3,0,3.3,0.3
			c1-0.7,2.1-1.4,3.2-2.1c2.4-1.1,4.9-1.7,7.6-1.8c3.7-0.3,7.9-0.2,10.3,2.7c1.7,2.1,1.9,5,1.9,7.8l0.2,6.9"/>
		<path class="st3" d="M56,94.2c-0.2,0-0.5-0.2-0.5-0.4c-0.2-0.9-0.4-1.9-0.7-2.8c-0.7-2.6-1.2-5.3-1.5-8.1c-0.3-3-0.1-7.4,2.4-10.9
			c1.3-2.6,4.3-3.8,7-2.7c1-0.7,2-1.4,3-2c2.4-1.1,5.1-1.7,7.7-1.9c5.2-0.5,8.7,0.4,10.7,2.9s2,5.6,2.1,8.1l0.2,7
			c0,0.3-0.2,0.5-0.5,0.5c-0.3,0-0.5-0.2-0.5-0.4c0,0,0,0,0-0.1l-0.2-7c-0.1-2.9-0.3-5.5-1.8-7.4c-1.8-2.2-5-3-9.8-2.5
			c-2.5,0.2-5,0.8-7.3,1.8c-1.1,0.6-2.1,1.3-3.1,2c-0.1,0.1-0.3,0.1-0.5,0.1c-1-0.3-2-0.4-3-0.3c-1.3,0.5-2.4,1.4-3.1,2.5
			c-2.2,3.3-2.4,7.4-2.2,10.2c0.3,2.7,0.8,5.3,1.5,7.9c0.2,0.9,0.4,1.9,0.7,2.8c0.1,0.3-0.1,0.5-0.4,0.6c0,0,0,0,0,0L56,94.2z"/>
		<path class="st3" d="M100.1,191.1c-4-18.8-11.8-75.3-13.6-76.2c-4.3-2-27.2-4.2-32.4,4.6c-1.6,2.8,3.1,60.8,5.2,76.8L100.1,191.1z
			"/>
		<polygon class="st0" points="77.8,123.7 74.9,130.5 81.9,171.4 76.9,179.9 68.8,174 71.6,130.2 64.4,121.3 		"/>
		<path class="st3" d="M76.9,180.4c-0.1,0-0.2,0-0.3-0.1l-8.1-6c-0.1-0.1-0.2-0.3-0.2-0.4l2.9-43.5l-7.1-8.8c-0.1-0.2-0.1-0.4,0-0.6
			c0.1-0.2,0.3-0.3,0.5-0.2l13.4,2.4c0.2,0,0.3,0.1,0.4,0.3c0.1,0.1,0.1,0.3,0,0.4l-2.9,6.7l7,40.7c0,0.1,0,0.2-0.1,0.4l-5,8.5
			c-0.1,0.1-0.2,0.2-0.3,0.2L76.9,180.4z M69.3,173.7l7.4,5.5l4.6-7.9l-7-40.7c0-0.1,0-0.2,0-0.3l2.7-6.2l-11.4-2.1l6.4,7.9
			c0.1,0.1,0.1,0.2,0.1,0.4L69.3,173.7z"/>
		<path class="st2" d="M68,202.9l-8-86.5l22-0.8l4,87.3l20.9-2.1c-3.2-28.5-5.8-81.2-8.5-84.1c-10.1-11-36.2-7.3-36.2-7.3
			s-18.7,0.9-24.7,11.9c-1.5,2.8,0.1,76.3,0.3,88.2L68,202.9z"/>
		<path class="st3" d="M40.9,206.3L40.9,206.3c-0.3,0-0.5-0.2-0.5-0.5c0-0.8,0-75,0-76.1c0-0.3,0.2-0.5,0.5-0.5c0,0,0,0,0,0
			c0.3,0,0.5,0.2,0.5,0.5c0,0,0,0,0,0c0,1.1,0,73.1,0,76.1C41.4,206.1,41.2,206.3,40.9,206.3C40.9,206.3,40.9,206.3,40.9,206.3z"/>
		<path class="st3" d="M37.7,210c-0.3,0-0.5-0.3-0.4-0.6c0-0.2,0.2-0.3,0.3-0.4l29.6-6.5l-0.6-15.4c0-0.3,0.2-0.5,0.5-0.5
			c0.3,0,0.5,0.2,0.5,0.5l0.6,15.9c0,0.3-0.2,0.5-0.4,0.5l-30,6.6L37.7,210z"/>
		<path class="st0" d="M80.4,109.1l1.2,7.7c0,0-1.2,11.2-9.7,9.2s-11.8-9.6-11.8-9.6L59,96.1c0,0,6.2-3.4,4.3-17
			c6.9,2.9,14.5,3.9,22,2.8c0,0,3,14,2.1,20.5C87,106.1,84,109,80.4,109.1z"/>
		<path class="st3" d="M73.8,126.7c-0.7,0-1.3-0.1-2-0.2c-5.3-1.3-9.8-5-12.2-9.9c0-0.1,0-0.1,0-0.2l-1.1-20.3
			c0-0.2,0.1-0.4,0.3-0.5c0.1,0,5.9-3.4,4-16.4c0-0.2,0.1-0.4,0.2-0.5c0.2-0.1,0.4-0.1,0.5,0c6.9,2.8,14.3,3.8,21.7,2.8
			c0.3,0,0.5,0.1,0.6,0.4c0.1,0.6,3,14.2,2.1,20.7c-0.3,3.7-3.2,6.6-6.8,7l1.1,7.2c0,0,0,0.1,0,0.1c0,0.2-0.7,6.1-4.4,8.7
			C76.5,126.3,75.2,126.8,73.8,126.7z M60.6,116.3c0.4,0.8,3.8,7.4,11.4,9.2c1.7,0.5,3.6,0.2,5.1-0.8c3.1-2.2,3.9-7.3,3.9-7.9
			l-1.2-7.7c0-0.1,0-0.3,0.1-0.4c0.1-0.1,0.2-0.2,0.4-0.2c3.4-0.1,6.1-2.8,6.4-6.2c0.8-5.7-1.4-17.4-2-19.9
			c-7.1,0.9-14.3,0-20.9-2.6c1.4,11.6-3.1,15.6-4.4,16.4L60.6,116.3z"/>
		<path class="st0" d="M76,90.1c0,0,4,7.4,2.8,8.5s-4.2,0-4.2,0"/>
		<path class="st3" d="M77.1,99.6c-0.9,0-1.8-0.2-2.7-0.5c-0.3-0.1-0.4-0.4-0.3-0.6c0.1-0.3,0.4-0.4,0.6-0.3c0,0,0,0,0,0
			c0.7,0.2,2.9,0.8,3.7,0.1c0.5-0.4-0.9-4.2-2.9-7.9c-0.1-0.2-0.1-0.5,0.2-0.7c0,0,0,0,0,0c0.2-0.1,0.5,0,0.7,0.2c0,0,0,0,0,0
			c1.3,2.3,4.1,7.8,2.7,9.1C78.6,99.4,77.9,99.7,77.1,99.6z"/>
		
			<ellipse transform="matrix(0.9991 -4.205003e-02 4.205003e-02 0.9991 -3.674 2.9718)" class="st3" cx="68.8" cy="88.8" rx="0.8" ry="1.9"/>
		
			<ellipse transform="matrix(0.9991 -4.205003e-02 4.205003e-02 0.9991 -3.6623 3.5301)" class="st3" cx="82.1" cy="88.8" rx="0.8" ry="1.9"/>
		<path class="st0" d="M64.4,92.6c-0.7-1.3-1.7-2.4-2.9-3.3c-0.6-0.5-1.4-0.9-2.2-1c-0.7,0-1.3,0.2-1.9,0.6c-1.7,1-2.9,2.6-3.3,4.6
			c-0.2,0.9-0.1,1.8,0.1,2.7c0.5,1.3,1.4,2.5,2.6,3.2c1.2,0.7,2.5,1.3,3.9,1.7"/>
		<path class="st3" d="M60.8,101.4c-0.1,0-0.1,0-0.2,0c-1.4-0.4-2.7-1-4-1.7c-1.3-0.8-2.3-2-2.9-3.4c-0.3-0.9-0.3-1.9-0.1-2.9
			c0.4-2.1,1.7-3.8,3.5-4.9c0.6-0.4,1.4-0.6,2.1-0.6c0.9,0.1,1.8,0.5,2.5,1.1c1.2,0.9,2.2,2.1,3,3.4c0.1,0.3,0,0.6-0.2,0.7
			c-0.2,0.1-0.5,0-0.6-0.2c-0.7-1.2-1.6-2.3-2.7-3.2c-0.5-0.5-1.2-0.8-1.9-0.8c-0.6,0-1.1,0.2-1.6,0.5c-1.6,0.9-2.6,2.5-3,4.2
			c-0.2,0.8-0.1,1.6,0.1,2.4c0.4,1.2,1.3,2.2,2.4,2.9c1.2,0.7,2.4,1.2,3.8,1.6c0.3,0.1,0.4,0.4,0.3,0.7
			C61.2,101.3,61,101.4,60.8,101.4z"/>
		<path class="st3" d="M80.4,109.1c-4.9,0.7-9.9-0.1-14.2-2.4c0,0,7.2,11.1,15.3,9.6L80.4,109.1z"/>
		<path class="st3" d="M79.9,116.9c-7.6,0-13.9-9.5-14.1-9.9c-0.1-0.2-0.1-0.4,0-0.6c0.2-0.2,0.4-0.2,0.6-0.1
			c4.3,2.2,9.1,3,13.9,2.3c0.1,0,0.3,0,0.4,0.1c0.1,0.1,0.2,0.2,0.2,0.3l1.1,7.2c0,0.3-0.1,0.5-0.4,0.6
			C81,116.9,80.4,116.9,79.9,116.9z M67.7,107.9c2.2,2.9,7.5,8.6,13.2,7.9l-1-6.2C75.8,110.2,71.6,109.6,67.7,107.9L67.7,107.9z"/>
		<ellipse class="st3" cx="76.4" cy="103.1" rx="1.4" ry="2.1"/>
		<path class="st3" d="M69.6,95.5c-3.7,0-6.7-3-6.7-6.7c0-3.7,3-6.7,6.7-6.7c3.7,0,6.7,3,6.7,6.7l0,0C76.4,92.5,73.3,95.5,69.6,95.5
			z M69.6,83.1c-3.1,0-5.7,2.6-5.7,5.7c0,3.1,2.6,5.7,5.7,5.7c3.1,0,5.7-2.6,5.7-5.7c0,0,0,0,0,0C75.3,85.7,72.8,83.1,69.6,83.1
			L69.6,83.1z"/>
		<path class="st3" d="M83,95.5c-3.7,0-6.7-3-6.7-6.7c0-3.7,3-6.7,6.7-6.7c3.7,0,6.7,3,6.7,6.7l0,0C89.8,92.5,86.8,95.5,83,95.5z
			 M83,83.1c-3.1,0-5.7,2.6-5.7,5.7c0,3.1,2.6,5.7,5.7,5.7c3.1,0,5.7-2.6,5.7-5.7c0,0,0,0,0,0C88.7,85.7,86.2,83.1,83,83.1L83,83.1z
			"/>
		<path class="st0" d="M150.1,128.3c-0.1-0.9,4.6-3.8,5.3-4.6c2.7-2.9,5.4-5.7,8.1-8.6c0.7-1,1.8-1.6,2.9-1.9c0.2,0,0.4,0,0.6,0.1
			c0.6,0.3,0.3,1.2,0,1.8c-1.2,2.3-2.5,4.5-4,6.6c4-2.8,8.1-5.4,12.2-7.9c0.6-0.4,1.4-0.8,2.1-0.4c0.4,0.3,0.7,0.7,0.8,1.2
			c0.3,2,0,4.1-1.1,5.9c-2.9,5.8-8.1,9.8-13.4,13.3c-2.6,1.7-4.7,3.6-7.2,5.4c-0.5,0.4-5.1,3.1-5,3.6L150.1,128.3z"/>
		<path class="st3" d="M151.4,143.4c-0.3,0-0.5-0.2-0.5-0.5l0,0l-0.2-2.8c-0.4-4.2-1.1-11.7-1.1-11.8c-0.1-0.8,1.2-1.8,3.8-3.7
			c0.6-0.4,1.1-0.8,1.7-1.3l5.3-5.7l2.8-2.9c0.8-1,2-1.7,3.2-2c0.3-0.1,0.7,0,1,0.2c0.7,0.4,0.8,1.4,0.2,2.4c-0.8,1.5-1.6,3-2.5,4.4
			c3.3-2.2,6.6-4.4,10-6.4c0.7-0.6,1.7-0.8,2.6-0.4c0.5,0.3,0.9,0.9,1,1.5c0.5,1.8,0.1,3.9-1.1,6.3c-3,6-8.6,10.2-13.6,13.5
			c-1.5,1-3,2.1-4.3,3.2c-0.9,0.7-1.9,1.5-2.8,2.2l-0.9,0.6c-1.4,0.8-2.7,1.7-4,2.8c0,0.2-0.2,0.4-0.5,0.4L151.4,143.4z
			 M151.9,142.8L151.9,142.8z M150.6,128.3c0.1,0.6,0.7,7.7,1.1,11.7c0.1,0.7,0.1,1.2,0.1,1.6c0.6-0.5,1.7-1.2,3.5-2.4
			c0.4-0.2,0.7-0.4,0.8-0.5c1-0.7,1.9-1.4,2.8-2.2c1.4-1.1,2.8-2.2,4.4-3.3c4.9-3.2,10.3-7.3,13.2-13.1c1-1.7,1.4-3.6,1.1-5.6
			c0-0.4-0.2-0.7-0.5-0.9c-0.4-0.2-1.1,0.1-1.6,0.4c-4.1,2.5-8.2,5.2-12.1,7.9c-0.2,0.1-0.5,0.1-0.7-0.1c-0.2-0.2-0.2-0.5-0.1-0.7
			c1.5-2.1,2.8-4.3,4-6.5c0.3-0.5,0.3-1,0.1-1.1c-0.1,0-0.2,0-0.3,0c-1,0.2-2,0.9-2.6,1.7l-2.8,2.9l-5.4,5.6c-0.6,0.5-1.2,1-1.8,1.4
			C152.9,126.2,150.8,127.8,150.6,128.3z"/>
		<path class="st2" d="M98.5,116.7c0,0,22.3,17.4,26.9,19.7s23.5-10.2,23.5-10.2l12.8,11.2c0,0-22.2,26.7-36.3,26.2
			s-31.9-24.9-31.9-24.9"/>
		<path class="st3" d="M161.7,130.2c-0.1,0-0.2,0-0.3-0.1c-0.2-0.2-0.3-0.5-0.2-0.7c3-4.6,1.4-7.4,1.4-7.4c-0.2-0.2-0.1-0.6,0.1-0.7
			s0.6-0.1,0.7,0.1c0,0,0,0.1,0.1,0.1c0.1,0.1,2,3.3-1.4,8.5C162,130.1,161.9,130.2,161.7,130.2z"/>
		<path class="st3" d="M86.1,203.4c-0.1,0-0.2,0-0.3-0.1c-0.1-0.1-0.2-0.2-0.2-0.4l-1.2-25.6c0-0.3,0.2-0.5,0.5-0.5
			c0.3,0,0.5,0.2,0.5,0.5l1.1,25l20.4-2c0.3-0.1,0.6,0,0.7,0.3s0,0.6-0.3,0.7c-0.1,0-0.2,0-0.3,0L86.1,203.4z"/>
	</g>
	<g transform="matrix(1.1458335,0,0,1.1458344,-8.815396,-4.3755997)">
		<path id="path3139" class="st3" d="M182,91.8L182,91.8c-0.5-0.5-1.2-0.8-1.9-0.8c-0.8,0-1.4,0.3-1.9,0.8h0c-0.5,0.5-0.8,1.2-0.8,2
			c0,0.8,0.3,1.5,0.8,2l0,0c0.5,0.5,1.2,0.8,1.9,0.8c0.8,0,1.4-0.3,1.9-0.8l0,0c0.5-0.5,0.8-1.2,0.8-2C182.8,93,182.5,92.3,182,91.8
			C182,91.8,182,91.8,182,91.8z M180.1,129.9L180.1,129.9c0.8,0,1.4-0.3,1.9-0.8l0,0c0.5-0.5,0.8-1.2,0.8-2c0-0.8-0.3-1.5-0.8-2h0
			c-0.5-0.5-1.2-0.8-1.9-0.8c-0.8,0-1.4,0.3-1.9,0.8h0c-0.5,0.5-0.8,1.2-0.8,2c0,0.8,0.3,1.5,0.8,2l0,0
			C178.6,129.6,179.3,129.9,180.1,129.9L180.1,129.9z M195,121.5L195,121.5c0.7-0.2,1.3-0.6,1.7-1.3l0.1-0.1l0,0
			c0.3-0.6,0.4-1.4,0.2-2c-0.2-0.7-0.6-1.3-1.3-1.7l0,0c-0.6-0.4-1.4-0.4-2-0.2c-0.7,0.2-1.3,0.6-1.7,1.3c-0.4,0.7-0.5,1.4-0.3,2.1
			c0.2,0.7,0.6,1.3,1.3,1.7h0C193.6,121.6,194.3,121.7,195,121.5L195,121.5L195,121.5z M182.9,107.6L182.9,107.6
			c-0.7-0.7-1.7-1.2-2.8-1.2c-1.1,0-2.1,0.5-2.8,1.2c-0.7,0.7-1.2,1.7-1.2,2.8s0.4,2.1,1.2,2.9c0.7,0.7,1.7,1.2,2.8,1.2
			c1.1,0,2.1-0.5,2.8-1.2c0.7-0.7,1.2-1.7,1.2-2.9S183.6,108.4,182.9,107.6C182.9,107.6,182.9,107.6,182.9,107.6z M181.3,102.9
			L181.3,102.9c1.6,0.3,3,1,4.1,2.2h0c0.2,0.2,0.3,0.4,0.5,0.6l2.7-1.6c-0.4-1.1-0.4-2.3-0.1-3.4c0.4-1.5,1.3-2.8,2.8-3.6l0,0
			c1.4-0.8,3-1,4.4-0.6c1.5,0.4,2.8,1.4,3.6,2.8v0c0.8,1.4,1,3.1,0.6,4.6c-0.4,1.5-1.3,2.8-2.8,3.6l-0.4,0.2h0
			c-1.3,0.6-2.7,0.7-4.1,0.4c-1.1-0.3-2.1-0.9-2.9-1.8l-2.7,1.6c0.3,0.8,0.5,1.8,0.5,2.7c0,1-0.2,1.9-0.5,2.7l2.7,1.6
			c0.8-0.9,1.8-1.5,2.9-1.8c1.5-0.4,3.1-0.2,4.5,0.6l0.1,0v0c1.4,0.8,2.3,2.1,2.7,3.6c0.4,1.5,0.2,3.1-0.6,4.5l0,0.1l0,0l0,0
			c-0.8,1.4-2.1,2.3-3.5,2.7c-1.5,0.4-3.1,0.2-4.5-0.6v0c-1.4-0.8-2.4-2.2-2.8-3.6c-0.3-1.1-0.3-2.3,0.1-3.4l-2.7-1.6
			c-0.2,0.2-0.3,0.4-0.5,0.6l0,0c-1.1,1.1-2.5,1.9-4.1,2.2v3.2c1.1,0.2,2.2,0.8,2.9,1.6l0,0l0,0c1.1,1.1,1.7,2.6,1.7,4.2
			c0,1.6-0.7,3.1-1.7,4.2l0,0l0,0c-1.1,1.1-2.5,1.8-4.2,1.8c-1.6,0-3.1-0.7-4.2-1.8h0v0c-1.1-1.1-1.7-2.6-1.7-4.2
			c0-1.7,0.7-3.2,1.7-4.2v0h0c0.8-0.8,1.8-1.4,2.9-1.6v-3.2c-1.6-0.3-3-1-4.1-2.2l0,0c-1.4-1.4-2.2-3.3-2.2-5.4c0-2.1,0.9-4,2.2-5.4
			h0c1.1-1.1,2.5-1.9,4.1-2.2v-3.2c-1.1-0.2-2.1-0.8-2.9-1.6h0v0c-1.1-1.1-1.7-2.6-1.7-4.2c0-1.6,0.7-3.2,1.7-4.2l0,0l0,0
			c1.1-1.1,2.5-1.8,4.2-1.8c1.6,0,3.1,0.7,4.2,1.8v0h0c1.1,1.1,1.7,2.6,1.7,4.2c0,1.7-0.7,3.2-1.7,4.2l0,0c-0.8,0.8-1.8,1.4-2.9,1.6
			C181.3,99.7,181.3,102.9,181.3,102.9z M196.7,100.7L196.7,100.7c-0.4-0.7-1-1.1-1.7-1.3c-0.7-0.2-1.4-0.1-2.1,0.3h0
			c-0.7,0.4-1.1,1-1.3,1.7c-0.2,0.7-0.1,1.5,0.3,2.1l0,0c0.4,0.7,1,1.1,1.7,1.3c0.7,0.2,1.4,0.1,2.1-0.3l0,0c0.6-0.4,1.1-1,1.2-1.7
			C197.1,102.2,197,101.4,196.7,100.7L196.7,100.7"/>
		<path id="path3141" class="st3" d="M208.8,101.7h3v9.5l4.4-4.9h3.7l-5.3,5.7l5.3,7.3h-3.5l-4.6-6.5v6.5h-3V101.7"/>
		<path id="path3143" class="st3" d="M223.4,112.8c0,1.6,1.1,4,3.9,4c1.7,0,2.8-0.9,3.4-2.1c0.3-0.6,0.4-1.2,0.5-1.8
			c0-0.6-0.1-1.3-0.4-1.8c-0.5-1.2-1.7-2.3-3.6-2.3C224.8,108.7,223.4,110.7,223.4,112.8C223.4,112.7,223.4,112.8,223.4,112.8z
			 M234.2,119.2h-3.1v-1.9c-0.8,1.5-2.5,2.3-4.3,2.3c-4.1,0-6.5-3.2-6.5-6.9c0-4.1,2.9-6.9,6.5-6.9c2.3,0,3.7,1.3,4.3,2.3v-1.9h3.1
			V119.2"/>
		<path id="path3145" class="st3" d="M237.7,108.6h-1.6v-2.4h1.6v-0.7c0-3.9,2.9-4.1,5.1-4.1v2.4c-0.8,0-2,0-2,1.8v0.6h2v2.4h-2
			v10.6h-3.1V108.6"/>
		<path id="path3147" class="st3" d="M244.8,101.7h3v9.5l4.4-4.9h3.7l-5.3,5.7l5.3,7.3h-3.5l-4.6-6.5v6.5h-3L244.8,101.7"/>
		<path id="path3149" class="st3" d="M259.5,112.8c0,1.6,1.1,4,3.9,4c1.7,0,2.8-0.9,3.4-2.1c0.3-0.6,0.4-1.2,0.5-1.8
			c0-0.6-0.1-1.3-0.4-1.8c-0.5-1.2-1.7-2.3-3.6-2.3C260.9,108.7,259.5,110.7,259.5,112.8C259.5,112.7,259.5,112.8,259.5,112.8z
			 M270.3,119.2h-3v-1.9c-0.8,1.5-2.5,2.3-4.3,2.3c-4.1,0-6.5-3.2-6.5-6.9c0-4.1,2.9-6.9,6.5-6.9c2.3,0,3.7,1.3,4.3,2.3v-1.9h3
			V119.2"/>
	</g>
	<path class="st3" d="M38.5,215.7c0,0.1,0,0.2,0,0.3c1,7.3,1.5,15.7,0.7,16.6c-0.7,0.1-1.4-2-1.7-3.4c-0.4-1.4-0.6-2.1-1.2-2.4
		c-0.2-0.1-0.5-0.1-0.7,0c-0.7,0.3-0.8,1.1-1.3,4.6c-0.4,2.9-1.4,9.5-2.8,9.7c-2.2,0.3-3.5-0.3-5.2-4.3c-1.3-3.1,0.6-16.8,1.5-22
		c0-0.3,0-0.6,0-0.9l-1.4,0.1c0,0.3,0,0.6,0,0.7c-0.3,1.9-3.2,18.5-1.4,22.7c1.7,4.2,3.5,5.5,6.7,5.1c2.2-0.3,3.1-4.9,4-10.9
		l0.3-2.2c0,0.1,0.1,0.1,0.1,0.1c0.6,2,1.4,4.8,3.3,4.5c2.3-0.4,1.6-10.1,0.5-18.1l0.5-2.5l-1.4,0.1L38.5,215.7z"/>
	<path class="st4" d="M390.8,275.3H13.6c-0.4,0-0.7-0.2-0.7-0.5c0-0.3,0.3-0.5,0.7-0.5h377.2c0.4,0,0.7,0.2,0.7,0.5
		C391.5,275.1,391.2,275.3,390.8,275.3z"/>
</g>
<g id="essentiel">
	<path class="st0" d="M381.1,230.9c0,0-5.8-0.1-12.2,10.6l0,0.1l0-0.1c-2.8-14.8-14.4-24.1-14.4-24.1c-2.2,7-2.9,14.3-2.1,21.5
		c-2.6-2.4-5.6-4.3-8.9-5.8c-0.3,9.4,3.6,18.1,7.1,24.1h11.5l0,0h1.9h4.7h6.3C378.3,252.3,383.5,242.2,381.1,230.9z"/>
	<path class="st4" d="M381.8,230.8c-0.1-0.3-0.4-0.6-0.7-0.6c-0.3,0-5.7,0-11.9,9.5c-3.4-13.8-13.8-22.3-14.3-22.7
		c-0.2-0.2-0.5-0.2-0.7-0.1c-0.2,0.1-0.4,0.3-0.5,0.5c-2,6.5-2.8,13.3-2.3,20c-2.3-1.9-4.9-3.5-7.6-4.7c-0.2-0.1-0.5-0.1-0.7,0.1
		c-0.2,0.1-0.3,0.4-0.4,0.6c-0.3,9.5,3.6,18.3,7,24.1H348l3.5,17.4H373l3.5-17.4h-0.5C379.3,252.1,384.3,242.1,381.8,230.8z
		 M380.5,231.8c2,10.5-2.7,19.9-5.9,24.8h-5.4c-0.2-0.1-0.3-0.1-0.5,0h-3.9c0.3-4.7,1.7-9.3,4.1-13.4c0.2-0.4,0.5-0.8,0.7-1.2
		C374.5,233.8,379,232.1,380.5,231.8z M354.8,218.9c2.7,2.5,10.9,10.8,13.3,22.6l-0.5,1c-3.4,6.2-4.2,11-4.2,14.1h-6.4
		c-1.9-5.6-3.1-11.4-3.7-17.2c0.1-0.2,0.1-0.5-0.1-0.7C352.4,232,353,225.3,354.8,218.9z M351.7,239.4c0.6,5.9,1.8,11.6,3.7,17.2
		h-4.3c-3.2-5.4-6.8-13.4-6.8-22.2C347,235.8,349.4,237.5,351.7,239.4z"/>
</g>
<g id="fondamental" class="st5">
	<g class="st6">
		<circle class="st2" cx="356.6" cy="204.1" r="5.7"/>
	</g>
	<path class="st7" d="M381.1,230.9c0,0-2.3,0-5.6,2.6c2.8-12.8-1.7-24.2-1.7-24.2c-5,4.7-9,10.3-11.8,16.5c-3.7-5.3-7.4-8.2-7.4-8.2
		c-2.2,7-2.9,14.3-2.1,21.5c-2.6-2.4-5.6-4.3-8.9-5.8c-0.3,9.4,3.6,18.1,7.1,24.1h11.5l0,0h1.9h4.7h6.3
		C378.3,252.3,383.5,242.2,381.1,230.9z"/>
	<path class="st8" d="M381.8,230.8c-0.1-0.3-0.4-0.6-0.7-0.6c-0.1,0-1.9,0-4.5,1.6c2-12-2-22.3-2.2-22.8c-0.1-0.2-0.3-0.4-0.5-0.5
		c-0.2-0.1-0.5,0-0.7,0.2c-4.6,4.3-8.3,9.3-11.1,14.9c-1-5.3-2.1-10-3-13.5c2.3-1,4-3.3,4-6c0-2.8-1.7-5.1-4.2-6.1
		c-0.5-0.2-0.9-0.3-1.4-0.4c-0.3,0-0.5-0.1-0.8-0.1c-3.6,0-6.5,2.9-6.5,6.5c0,3.3,2.5,6,5.7,6.4c0.3,0,0.5,0,0.8,0
		c0.4,0,0.7,0,1.1-0.1c0.8,3.2,1.8,7.3,2.8,12c-2.8-3.4-5.2-5.4-5.4-5.6c-0.2-0.1-0.5-0.2-0.7-0.1c-0.2,0.1-0.4,0.3-0.5,0.5
		c-2,6.5-2.8,13.3-2.3,20c-2.3-1.9-4.9-3.5-7.6-4.7c-0.2-0.1-0.5-0.1-0.7,0.1c-0.2,0.1-0.4,0.4-0.4,0.6c-0.3,9.5,3.6,18.3,7,24.1
		H348l3.5,17.4H373l3.5-17.4h-0.5C379.3,252.1,384.3,242.1,381.8,230.8z M351.6,204.7c1.2-0.3,2.7-0.2,3.6-0.1c0,0.5-0.1,1-0.1,1.5
		c0,0.9,0.1,1.8,0.3,2.8C353.4,208.5,351.8,206.8,351.6,204.7z M355.4,203.1C355.4,203.1,355.4,203.1,355.4,203.1
		c-1-0.1-2.4-0.3-3.8,0c0.2-1.1,0.9-2.1,1.7-2.9c0.9-0.7,2-1.1,3.2-1.1h0.1C356.2,200.1,355.7,201.5,355.4,203.1z M357.2,209
		c-0.1,0-0.2,0-0.3,0c-0.2-0.7-0.3-1.4-0.3-2.1c0,0,0,0,0,0c-0.1-1,0-2,0.1-2.9c0.3-2,0.9-3.6,1.4-4.7c2,0.7,3.4,2.5,3.4,4.7
		c0,2-1.2,3.7-2.9,4.5C358.2,208.8,357.7,209,357.2,209z M373.4,210.6c1,3.1,3.6,12.4,1.4,22.5c-1.7,1.4-3.6,3.5-5.6,6.5
		c-1.4-5.6-3.9-10.3-6.4-14C365.4,220,369,215,373.4,210.6z M351.1,256.7c-3.2-5.4-6.8-13.4-6.8-22.2c2.6,1.3,5.1,3,7.4,5
		c0.6,5.9,1.8,11.6,3.7,17.2H351.1z M363.7,252.4c-0.2,0.9-0.3,1.7-0.4,2.4c-0.1,0.6-0.1,1.2-0.1,1.7H363h-1.5h-4.7
		c-1.9-5.6-3.1-11.4-3.7-17.2c0.1-0.2,0-0.5-0.1-0.7c-0.7-6.7-0.1-13.4,1.7-19.8c1.3,1.1,3.7,3.6,6.2,7c0,0,0,0,0,0
		c0.3,0.4,0.7,0.9,1,1.4c0.3,0.5,0.7,1,1,1.5c2.2,3.5,4.1,7.8,5.1,12.7l-0.5,1C365.4,246.3,364.3,249.6,363.7,252.4
		C363.8,252.4,363.7,252.4,363.7,252.4z M364.8,256.6L364.8,256.6c0.2-4.8,1.6-9.4,4.1-13.4c0.2-0.4,0.5-0.8,0.7-1.2
		c1.6-2.6,3.1-4.6,4.5-6c0.7-0.8,1.4-1.4,2.1-1.9c2-1.6,3.6-2.1,4.4-2.3c2,10.5-2.7,19.9-5.9,24.8H364.8z"/>
</g>
<g id="expert" class="st5">
	<path class="st7" d="M381.1,230.9c0,0-2.3,0-5.6,2.6c2.8-12.8-1.7-24.2-1.7-24.2c-5,4.7-9,10.3-11.8,16.5c-3.7-5.3-7.4-8.2-7.4-8.2
		c-2.2,7-2.9,14.3-2.1,21.5c-2.6-2.4-5.6-4.3-8.9-5.8c-0.3,9.4,3.6,18.1,7.1,24.1h11.5l0,0h1.9h4.7h6.3
		C378.3,252.3,383.5,242.2,381.1,230.9z"/>
	<path class="st8" d="M381.8,230.8c-0.1-0.3-0.4-0.6-0.7-0.6c-0.1,0-1.9,0-4.5,1.6c2-12-2-22.3-2.2-22.8c-0.1-0.2-0.3-0.4-0.5-0.5
		c-0.2-0.1-0.5,0-0.7,0.2c-4.4,4.1-8,8.9-10.8,14.2c-1.3-10.2-4-21.1-9.2-30.1l-1.3,0.7c5,8.8,7.6,19.4,8.9,29.3l-0.6-0.4
		c-2.8-3.4-5.2-5.4-5.4-5.6c-0.2-0.1-0.5-0.2-0.7-0.1c-0.2,0.1-0.4,0.3-0.5,0.5c-2,6.5-2.8,13.3-2.3,20c-2.3-1.9-4.9-3.5-7.6-4.7
		c-0.2-0.1-0.5-0.1-0.7,0.1c-0.2,0.1-0.4,0.4-0.4,0.6c-0.3,9.5,3.6,18.3,7,24.1H348l3.5,17.4H373l3.5-17.4h-0.5
		C379.3,252.1,384.3,242.1,381.8,230.8z M373.4,210.6c1,3.1,3.6,12.4,1.4,22.5c-1.7,1.4-3.6,3.5-5.6,6.5c-1.4-5.6-3.9-10.3-6.4-14
		c0,0,0,0,0,0c0,0,0,0,0,0C365.4,220,369,214.9,373.4,210.6z M351.1,256.7c-3.2-5.4-6.8-13.4-6.8-22.2c2.6,1.3,5.1,3,7.4,5
		c0.6,5.9,1.8,11.6,3.7,17.2H351.1z M363.7,252.4c-0.2,0.9-0.3,1.7-0.4,2.4c-0.1,0.6-0.1,1.2-0.1,1.7h-0.4h-1.5h-4.6
		c-1.9-5.6-3.1-11.4-3.7-17.2c0.1-0.2,0-0.5-0.1-0.7c-0.7-6.7-0.1-13.4,1.7-19.8c1.3,1.1,3.7,3.6,6.2,7c0,0,0,0,0,0
		c0.1,0.2,0.3,0.3,0.4,0.5c0.2,0.3,0.4,0.6,0.6,0.9c0.3,0.5,0.7,1,1,1.5c0,0.1,0.1,0.2,0.1,0.3c2.1,3.5,4,7.7,5,12.4l-0.5,1
		C365.4,246.3,364.3,249.6,363.7,252.4C363.8,252.4,363.7,252.4,363.7,252.4z M364.8,256.6L364.8,256.6c0.2-4.8,1.6-9.4,4.1-13.4
		c0.2-0.4,0.5-0.8,0.7-1.2c1.6-2.6,3.1-4.6,4.5-6c0.7-0.8,1.4-1.4,2.1-1.9c2-1.6,3.6-2.1,4.4-2.3c2,10.5-2.7,19.9-5.9,24.8H364.8z"
		/>
	<path class="st9" d="M371.3,193.1c0-1.1-2.6-2.1-6.1-2.5c3.2-1.7,5.2-3.6,4.8-4.6c-0.4-1.1-3.3-1-6.8,0.1c2.3-2.8,3.5-5.4,2.7-6.2
		c-0.8-0.8-3.3,0.3-6.1,2.6c1-3.5,1.2-6.2,0.1-6.6c-1.1-0.4-3,1.6-4.7,4.9c-0.4-3.7-1.3-6.3-2.5-6.3c-1.1,0-2.1,2.6-2.5,6.1
		c-1.7-3.2-3.6-5.2-4.6-4.8c-1.1,0.4-1,3.3,0.1,6.8c-2.8-2.3-5.4-3.5-6.2-2.7c-0.8,0.8,0.3,3.3,2.6,6.1c-3.5-1-6.2-1.2-6.6-0.1
		c-0.4,1.1,1.6,3,4.9,4.7c-3.7,0.4-6.3,1.3-6.3,2.5c0,1.1,2.6,2.1,6.1,2.5c-3.2,1.7-5.2,3.6-4.8,4.6c0.4,1.1,3.3,1,6.8-0.1
		c-2.3,2.8-3.5,5.4-2.7,6.2c0.8,0.8,3.3-0.3,6.1-2.6c-1,3.5-1.2,6.2-0.1,6.6c1.1,0.4,3-1.6,4.7-4.9c0.4,3.7,1.3,6.3,2.5,6.3
		c1.1,0,2.1-2.6,2.5-6.1c1.7,3.2,3.6,5.2,4.6,4.8c1.1-0.4,1-3.3-0.1-6.8c2.8,2.3,5.4,3.5,6.2,2.7c0.8-0.8-0.3-3.3-2.6-6.1
		c3.5,1,6.2,1.2,6.6,0.1c0.4-1.1-1.6-3-4.9-4.7C368.7,195.3,371.3,194.3,371.3,193.1z"/>
	<g class="st6">
		<g>
			<g>
				<path class="st4" d="M336.1,186.2c0.1-0.2,0.5-0.3,1.3-0.3c1,0,2.4,0.2,4.3,0.8c-0.5-0.6-1-1.3-1.4-1.9
					c-2.7-0.6-4.9-0.5-5.5,0.9c-0.6,1.3,1,3,3.4,4.6c0.8-0.1,1.5-0.3,2.4-0.3C337.3,188.2,335.9,186.6,336.1,186.2z"/>
			</g>
			<g>
				<path class="st4" d="M345.3,175.1c-1.3,0.6-1.4,2.8-0.9,5.6c0.6,0.4,1.3,0.9,1.9,1.4c-1-3.4-0.8-5.5-0.4-5.6c0,0,0,0,0.1,0
					c0.5,0,2,1.4,3.5,4.3c0.1-0.8,0.2-1.6,0.3-2.4C348.2,176.1,346.6,174.6,345.3,175.1z"/>
			</g>
			<g>
				<path class="st4" d="M360.1,175.2c-1-0.4-2.2,0.3-3.6,2c-0.3,0.4-0.6,0.8-0.9,1.3c0.1,0.7,0.2,1.5,0.3,2.3
					c0.6-1.1,1.2-2,1.8-2.7c1.1-1.4,1.7-1.6,1.9-1.6c0,0,0,0,0,0c0.1,0,0.4,0.6,0.2,2.5c-0.1,0.9-0.3,2-0.7,3.1
					c0.6-0.5,1.3-1,1.9-1.4c0.1-0.5,0.2-1,0.3-1.5C361.5,177,361.1,175.6,360.1,175.2z"/>
			</g>
			<g>
				<path class="st4" d="M370.6,185.8c-0.5-1.3-2.8-1.4-5.5-0.9c-0.4,0.6-0.9,1.3-1.4,1.9c3.4-1,5.5-0.8,5.6-0.4
					c0.2,0.4-1.2,1.9-4.2,3.6c0.8,0.1,1.6,0.2,2.3,0.3C369.6,188.7,371.1,187.1,370.6,185.8z"/>
			</g>
			<g>
				<path class="st4" d="M367.2,196c-0.8,0.1-1.6,0.3-2.4,0.3c3.1,1.7,4.5,3.3,4.3,3.7c-0.2,0.4-2.2,0.5-5.5-0.4
					c0.5,0.6,1,1.3,1.4,1.9c1,0.2,1.9,0.3,2.7,0.3c1.4,0,2.4-0.3,2.7-1.2C371.1,199.3,369.5,197.6,367.2,196z"/>
			</g>
			<g>
				<path class="st4" d="M360.9,205.5c-0.6-0.4-1.3-0.9-1.9-1.5c1,3.4,0.9,5.6,0.5,5.7c-0.4,0.2-1.9-1.2-3.6-4.2
					c-0.1,0.8-0.2,1.6-0.3,2.4c1.3,2,2.7,3.3,3.9,3.3c0.2,0,0.4,0,0.6-0.1C361.3,210.5,361.4,208.2,360.9,205.5z"/>
			</g>
			<g>
				<path class="st4" d="M349.4,205.3c-1.7,3.2-3.3,4.6-3.7,4.4c-0.4-0.2-0.5-2.2,0.5-5.5c-0.6,0.5-1.3,1-1.9,1.4
					c-0.5,2.6-0.4,4.9,0.9,5.4c0.2,0.1,0.4,0.1,0.6,0.1c1.2,0,2.7-1.4,4-3.5C349.6,206.9,349.5,206.1,349.4,205.3z"/>
			</g>
			<g>
				<path class="st4" d="M336,199.9c-0.2-0.4,1.2-1.9,4.2-3.6c-0.8-0.1-1.6-0.2-2.3-0.3c-2.3,1.5-3.8,3.1-3.3,4.5
					c0.4,0.9,1.4,1.2,2.8,1.2c0.8,0,1.8-0.1,2.8-0.3c0.4-0.6,0.9-1.3,1.5-1.9C338.3,200.4,336.2,200.3,336,199.9z"/>
			</g>
		</g>
		<g>
			<path class="st4" d="M372.1,193.1c0-2.3-5.2-3.4-10.1-3.4c-0.4,0-0.8,0-1.3,0c0.3-0.3,0.6-0.6,0.9-0.9c3.4-3.4,6.4-7.9,4.7-9.5
				c-1.6-1.6-6.1,1.3-9.5,4.7c-0.3,0.3-0.6,0.6-0.9,0.9c0-0.4,0-0.8,0-1.3c0-4.9-1.1-10.1-3.4-10.1c-2.3,0-3.4,5.2-3.4,10.1
				c0,0.4,0,0.8,0,1.3c-0.3-0.3-0.6-0.6-0.9-0.9c-3.4-3.4-7.9-6.4-9.5-4.7c-1.6,1.6,1.3,6.1,4.7,9.5c0.3,0.3,0.6,0.6,0.9,0.9
				c-0.4,0-0.8,0-1.3,0c-4.9,0-10.1,1.1-10.1,3.4c0,2.3,5.2,3.4,10.1,3.4c0.4,0,0.8,0,1.3,0c-0.3,0.3-0.6,0.6-0.9,0.9
				c-3.4,3.4-6.4,7.9-4.7,9.5c0.3,0.3,0.7,0.5,1.2,0.5c2.1,0,5.5-2.5,8.3-5.2c0.3-0.3,0.6-0.6,0.9-0.9c0,0.4,0,0.8,0,1.3
				c0,4.9,1.1,10.1,3.4,10.1c2.3,0,3.4-5.2,3.4-10.1c0-0.4,0-0.8,0-1.3c0.3,0.3,0.6,0.6,0.9,0.9c2.8,2.8,6.2,5.2,8.3,5.2
				c0.5,0,0.9-0.1,1.3-0.5c1.6-1.6-1.3-6.1-4.7-9.5c-0.3-0.3-0.6-0.6-0.9-0.9c0.4,0,0.8,0,1.3,0
				C366.8,196.5,372.1,195.4,372.1,193.1z M358.8,194.8c-1.7-0.2-3.1-0.5-4-0.8c0.9,0.4,2,1.1,3.4,2.2c0.7,0.6,1.5,1.3,2.3,2.1
				c3.9,3.9,5.1,7,4.7,7.4c-0.4,0.4-3.5-0.8-7.4-4.7c-0.8-0.8-1.5-1.6-2.1-2.3c-1.1-1.3-1.8-2.4-2.2-3.3c0.3,0.9,0.6,2.2,0.8,3.9
				c0.1,0.9,0.1,2,0.1,3.1c0,5.6-1.3,8.6-1.9,8.6s-1.9-3-1.9-8.6c0-1.2,0.1-2.2,0.2-3.1c0.2-1.6,0.4-2.9,0.7-3.8
				c-0.4,0.8-1.1,1.9-2.1,3.2c-0.6,0.7-1.3,1.5-2.1,2.3c-3.9,3.9-7,5.1-7.4,4.7c-0.4-0.4,0.8-3.5,4.7-7.4c0.8-0.8,1.6-1.5,2.3-2.1
				c1.3-1.1,2.5-1.8,3.4-2.2c-0.9,0.3-2.2,0.6-3.9,0.8c-0.9,0.1-2,0.2-3.2,0.2c-5.6,0-8.6-1.3-8.6-1.9s3-1.9,8.6-1.9
				c1.2,0,2.2,0.1,3.2,0.2c1.7,0.2,3,0.5,4,0.8c-0.2-0.1-0.4-0.2-0.7-0.3c-0.8-0.5-1.8-1.1-2.7-1.9c-0.8-0.6-1.6-1.3-2.4-2.1
				c-3.9-3.9-5.1-7-4.7-7.4c0,0,0.1-0.1,0.2-0.1c0.9,0,3.7,1.3,7.2,4.8c0.8,0.8,1.5,1.6,2.1,2.3c1.1,1.3,1.8,2.4,2.2,3.3
				c-0.3-0.9-0.6-2.2-0.8-3.9c-0.1-0.9-0.2-2-0.2-3.1c0-5.6,1.3-8.6,1.9-8.6s1.9,3,1.9,8.6c0,1.2-0.1,2.2-0.1,3.1
				c-0.2,1.7-0.5,3-0.8,3.9c0.4-0.9,1.1-2,2.2-3.3c0.6-0.7,1.3-1.5,2.1-2.4c3.5-3.5,6.3-4.8,7.2-4.8c0.1,0,0.2,0,0.3,0.1
				c0.4,0.4-0.8,3.5-4.7,7.4c-0.8,0.8-1.6,1.5-2.4,2.1c-0.9,0.8-1.8,1.4-2.7,1.9c-0.3,0.1-0.5,0.3-0.7,0.3c0.9-0.3,2.2-0.6,4-0.8
				c0.9-0.1,2-0.2,3.2-0.2c5.6,0,8.6,1.3,8.6,1.9s-3,1.9-8.6,1.9C360.8,195,359.8,194.9,358.8,194.8z"/>
		</g>
	</g>
	<g class="st6">
		<circle class="st0" cx="352.7" cy="193.1" r="3.7"/>
		<path class="st4" d="M352.7,197.6c-1.5,0-2.9-0.7-3.7-2c-1.3-2-0.7-4.8,1.3-6.1c2.1-1.3,4.8-0.7,6.1,1.3v0c1.3,2,0.7,4.8-1.3,6.1
			C354.3,197.3,353.5,197.6,352.7,197.6z M352.7,190.2c-0.5,0-1.1,0.2-1.6,0.5c-1.4,0.9-1.8,2.7-0.9,4.1c0.9,1.4,2.7,1.8,4.1,0.9
			c1.4-0.9,1.8-2.7,0.9-4.1l0,0C354.6,190.7,353.6,190.2,352.7,190.2z"/>
	</g>
</g>
</svg>
