<?xml version="1.0" encoding="utf-8"?>
<!-- Generator: Adobe Illustrator 27.9.0, SVG Export Plug-In . SVG Version: 6.00 Build 0)  -->
<svg version="1.1" id="Layer_1" xmlns="http://www.w3.org/2000/svg" xmlns:xlink="http://www.w3.org/1999/xlink" x="0px" y="0px"
	 viewBox="0 0 400 300" style="enable-background:new 0 0 400 300;" xml:space="preserve">
<style type="text/css">
	.st0{fill:#231F20;}
	.st1{fill:#FFFFFF;}
	.st2{fill:#D1D3D4;}
	.st3{fill:#E52C36;}
	.st4{display:none;}
	.st5{display:inline;}
	.st6{display:inline;fill:#FFFFFF;}
	.st7{display:inline;fill:#231F20;}
	.st8{display:inline;fill:#E52C36;}
	.st9{fill:url(#XMLID_00000067957182524514739240000015703061476102261432_);}
	.st10{fill:url(#SVGID_1_);}
	.st11{fill:url(#SVGID_00000120559632554254100310000007578172506359140236_);}
</style>
<g id="_010">
	<path class="st0" d="M345.7,225.3H54.3c-0.3,0-0.5-0.2-0.5-0.5c0-0.3,0.2-0.5,0.5-0.5c0,0,0,0,0,0h291.4c0.3,0,0.5,0.2,0.5,0.5
		C346.2,225.1,346,225.3,345.7,225.3z"/>
	<polyline class="st0" points="246,173 255.4,242.1 259,242.6 251.6,172.3 243.5,173 	"/>
	<path class="st0" d="M259,243.1L259,243.1l-3.6-0.5c-0.2,0-0.4-0.2-0.4-0.4l-9.4-68.8l-2,0.2c-0.3,0-0.5-0.2-0.6-0.5c0,0,0,0,0-0.1
		c0-0.3,0.2-0.5,0.4-0.5c0,0,0,0,0,0l8.1-0.7c0.3,0,0.5,0.2,0.5,0.4l7.4,70.2c0,0.2,0,0.3-0.1,0.4C259.2,243,259.1,243,259,243.1z
		 M255.9,241.6l2.5,0.3l-7.2-69.1l-4.6,0.4L255.9,241.6z"/>
	<polygon class="st1" points="203.7,31.6 303.6,31.6 294,180.3 194.1,180.3 	"/>
	<path class="st0" d="M294,180.8h-99.9c-0.1,0-0.3-0.1-0.4-0.2c-0.1-0.1-0.2-0.2-0.1-0.4l9.6-148.7c0-0.3,0.2-0.5,0.5-0.5h99.9
		c0.3,0,0.5,0.2,0.5,0.5c0,0,0,0,0,0l-9.6,148.7C294.5,180.6,294.3,180.8,294,180.8z M194.6,179.8h98.9l9.6-147.7h-98.9L194.6,179.8
		z"/>
	<polygon class="st1" points="208.8,36.1 298,36.1 289,175.8 199.8,175.8 	"/>
	<path class="st2" d="M289,176.2h-89.2c-0.1,0-0.2-0.1-0.3-0.1c-0.1-0.1-0.1-0.2-0.1-0.3l9-139.6c0-0.2,0.2-0.4,0.5-0.4H298
		c0.1,0,0.2,0.1,0.3,0.1c0.1,0.1,0.1,0.2,0.1,0.3l-9,139.6C289.4,176,289.2,176.2,289,176.2z M200.3,175.3h88.3l9-138.7h-88.3
		L200.3,175.3z"/>
	<path class="st1" d="M205.4,24.6h97.5c1.5,0,2.7,1.2,2.8,2.7c0,0.1,0,0.2,0,0.3l-0.3,4H202l0.2-4C202.4,25.9,203.7,24.6,205.4,24.6
		z"/>
	<path class="st0" d="M305.4,32.1H202c-0.1,0-0.3-0.1-0.4-0.2c-0.1-0.1-0.2-0.2-0.1-0.4l0.3-4c0.1-1.9,1.7-3.4,3.7-3.4h97.5
		c1.8,0,3.3,1.4,3.3,3.3c0,0.1,0,0.2,0,0.3l-0.3,4C305.9,31.9,305.7,32.1,305.4,32.1z M202.5,31h102.4l0.2-3.5
		c0.1-1.2-0.8-2.3-2-2.4c-0.1,0-0.1,0-0.2,0h-97.5c-1.4,0-2.5,1.1-2.6,2.5L202.5,31z"/>
	<polygon class="st1" points="202.3,180.3 191.9,264.2 195.8,264.2 209.1,180.3 	"/>
	<path class="st0" d="M195.8,264.7h-3.9c-0.1,0-0.3-0.1-0.4-0.2c-0.1-0.1-0.1-0.3-0.1-0.4l10.4-83.9c0-0.3,0.2-0.5,0.5-0.5h6.8
		c0.2,0,0.3,0.1,0.4,0.2c0.1,0.1,0.1,0.3,0.1,0.4l-13.4,83.9C196.2,264.5,196,264.7,195.8,264.7z M192.5,263.7h2.8l13.2-82.9h-5.8
		L192.5,263.7z"/>
	<polygon class="st1" points="282.4,180.3 285.6,264.2 281.8,264.2 275.6,180.3 	"/>
	<path class="st0" d="M285.6,264.7h-3.9c-0.3,0-0.5-0.2-0.5-0.5l-6.2-83.9c0-0.1,0-0.3,0.1-0.4c0.1-0.1,0.2-0.2,0.4-0.2h6.8
		c0.3,0,0.5,0.2,0.5,0.5l3.2,83.9c0,0.1,0,0.3-0.1,0.4C285.9,264.7,285.8,264.7,285.6,264.7z M282.2,263.7h2.8l-3.2-82.9h-5.8
		L282.2,263.7z"/>
	<path class="st1" d="M125.2,246.2v16.5l7.9,2.2l-0.2-3.4l3.6,3.6c0,0,21.2,3.8,21.1,1s-2.2-4.4-4.9-5.8c-2.9-1.5-10.4-5.8-10.4-5.8
		l-1.1-12.1"/>
	<path class="st0" d="M153.6,267.7c-5.6,0-14.9-1.6-17.2-2c-0.1,0-0.2-0.1-0.3-0.1l-2.6-2.6l0.1,2c0,0.2-0.1,0.3-0.2,0.4
		c-0.1,0.1-0.3,0.1-0.5,0.1l-7.9-2.2c-0.2-0.1-0.4-0.3-0.4-0.5v-16.5c-0.1-0.3,0.1-0.6,0.4-0.6c0.3-0.1,0.6,0.1,0.6,0.4
		c0,0.1,0,0.2,0,0.3v16.1l6.8,2l-0.1-2.7c0-0.2,0.1-0.4,0.3-0.5c0.2-0.1,0.4,0,0.6,0.1l3.4,3.5c10.5,1.9,19.8,2.6,20.3,1.5
		c-0.1-2.4-1.9-3.9-4.6-5.3s-10.4-5.7-10.4-5.8c-0.2-0.1-0.2-0.2-0.3-0.4l-1.1-12.1c0-0.3,0.2-0.5,0.5-0.6c0,0,0,0,0,0
		c0.3,0,0.5,0.2,0.6,0.5c0,0,0,0,0,0l1.1,11.8c1.3,0.7,7.6,4.3,10.2,5.6s5.1,3.1,5.2,6.2c0,0.3-0.1,0.7-0.4,0.9
		C157.1,267.5,155.6,267.7,153.6,267.7z"/>
	<path class="st1" d="M102,255.3l-0.1,13.8l9,2.4l0.1-3.9l3.1,4.9c0,0,22.2,4.9,23.4,1.9s-0.8-7.4-6.3-10.1c-3.6-1.7-7.3-3.2-11-4.5
		l-1.3-6"/>
	<path class="st0" d="M133.4,275.9c-5.8,0-15.7-2-19.5-2.9c-0.1,0-0.2-0.1-0.3-0.2l-2.2-3.5l-0.1,2.3c0,0.3-0.2,0.5-0.5,0.5
		c0,0-0.1,0-0.1,0l-9-2.4c-0.2-0.1-0.4-0.3-0.4-0.5l0.1-13.9c0-0.3,0.2-0.5,0.5-0.5c0,0,0,0,0,0l0,0c0.3,0,0.5,0.2,0.5,0.5
		c0,0,0,0,0,0l-0.1,13.5l8,2.1l0.1-3.3c0-0.2,0.2-0.4,0.4-0.5c0.2-0.1,0.4,0,0.6,0.2l3,4.7c13.3,2.9,22.1,3.4,22.6,2.2
		c1-2.7-0.7-6.8-6.1-9.4c-3.6-1.7-7.2-3.2-10.9-4.5c-0.2-0.1-0.3-0.2-0.3-0.4l-1.3-6.1c-0.1-0.3,0.1-0.5,0.4-0.6
		c0.3-0.1,0.5,0.1,0.6,0.4c0,0,0,0,0,0l1.2,5.8c3.7,1.3,7.3,2.8,10.8,4.4c5.9,2.9,7.8,7.6,6.6,10.7
		C137.6,275.5,135.8,275.9,133.4,275.9z"/>
	<polygon class="st0" points="96.8,154.6 100.1,257.2 125.1,257.3 124.8,251.5 143.8,252.2 148.1,140.6 	"/>
	<path class="st0" d="M125.1,257.8L125.1,257.8l-25-0.1c-0.3,0-0.5-0.2-0.5-0.5l-3.2-102.6c0-0.2,0.1-0.4,0.4-0.5l51.3-14
		c0.2,0,0.3,0,0.4,0.1c0.1,0.1,0.2,0.3,0.2,0.4l-4.4,111.6c0,0.3-0.2,0.5-0.5,0.5l0,0l-18.5-0.7l0.2,5.2c0,0.1,0,0.3-0.1,0.4
		C125.3,257.8,125.2,257.8,125.1,257.8z M100.6,256.7l24,0.1l-0.2-5.2c0-0.1,0-0.3,0.1-0.4c0.1-0.1,0.2-0.2,0.4-0.1l18.5,0.7
		l4.3-110.5L97.3,155L100.6,256.7z"/>
	<path class="st1" d="M193.6,53.5c0.1-0.3,0.3-0.5,0.6-0.6c0.6-0.1,0.7,0.8,0.6,1.4l-1.5,6.8c2.4-4.1,5.1-8.1,8-11.9
		c0.1-0.2,0.3-0.4,0.6-0.4c0.6,0,0.6,0.9,0.3,1.4c-1.5,3.4-3.5,6.7-5.8,9.6l5.5-7.8c0.5-0.9,1.2-1.7,2-2.3c0.3,0.9,0.2,1.9-0.4,2.7
		c-1.1,2.4-2.4,4.6-3.9,6.8c2-3.2,4.3-6.2,6.9-9c0.3,1.8-0.2,3.6-1.4,5.1c-1.1,1.4-2.1,2.9-3,4.5c1.5-2.1,3.1-4.1,4.9-6
		c0.3-0.4,0.7-0.6,1.1-0.6c0.5,0.1,0.8,0.6,0.8,1c-0.1,0.5-0.2,0.9-0.5,1.3c-3.8,6.5-8.4,12.5-13.8,17.7c-0.3,0.3-4.8-3.7-5.2-4.1
		c-1.1-1-1.6-2.5-1.5-3.9C188.7,61.3,191.9,57,193.6,53.5z"/>
	<path class="st0" d="M194.9,73.8L194.9,73.8c-1,0-5.4-4.3-5.5-4.3c-1.2-1.1-1.8-2.7-1.6-4.3c0.3-2.9,2.1-6.1,3.7-8.8
		c0.6-1.1,1.2-2.1,1.7-3.1c0.2-0.4,0.5-0.8,1-0.9c0.3-0.1,0.6,0,0.9,0.3c0.4,0.5,0.5,1.1,0.3,1.7l-0.8,3.8c2-3.2,4.1-6.3,6.4-9.2
		c0.2-0.3,0.6-0.6,1-0.6c0.3,0,0.6,0.2,0.8,0.4c0.2,0.4,0.3,0.9,0.1,1.3c0.3-0.3,0.5-0.5,0.9-0.8c0.1-0.1,0.3-0.1,0.4-0.1
		c0.1,0,0.3,0.1,0.3,0.3c0.3,0.8,0.3,1.7-0.1,2.5c0.6-0.7,1.2-1.4,1.9-2.1c0.1-0.1,0.3-0.2,0.5-0.2c0.2,0,0.3,0.2,0.4,0.4
		c0.2,1.1,0.1,2.3-0.3,3.4c0,0,0.1,0,0.1-0.1c0.4-0.5,0.9-0.7,1.6-0.7c0.7,0.1,1.3,0.8,1.2,1.6c0,0.6-0.2,1.1-0.6,1.6
		c-3.8,6.5-8.5,12.5-13.9,17.8C195.2,73.8,195,73.8,194.9,73.8z M195,72.8L195,72.8z M194.3,53.5c0,0,0,0.1-0.1,0.3l0,0
		c-0.5,1-1.1,2-1.7,3.1c-1.5,2.7-3.3,5.7-3.6,8.4c-0.1,1.3,0.4,2.6,1.4,3.5c1.5,1.4,3,2.7,4.6,3.9c5.3-5.2,9.8-11,13.5-17.4
		c0.2-0.3,0.4-0.7,0.4-1.1c0-0.2-0.1-0.5-0.3-0.5s-0.5,0.2-0.7,0.4c-1.8,1.8-3.4,3.8-4.9,5.9c-0.1,0.2-0.4,0.3-0.7,0.2
		c-0.2-0.1-0.3-0.4-0.2-0.7c0.5-1.1,1.2-2.2,2-3.2c0.4-0.5,0.7-0.9,1-1.4c0.8-1,1.2-2.3,1.4-3.6c-1.8,2-3.4,4.1-4.9,6.3
		c-0.4,0.6-0.8,1.2-1.2,1.8c-0.1,0.2-0.5,0.3-0.7,0.2c0,0,0,0,0,0c-0.2-0.2-0.3-0.5-0.2-0.7c0.4-0.6,0.8-1.2,1.2-1.8
		c1-1.6,1.9-3.3,2.7-5c0.2-0.5,0.4-1,0.5-1.5c-0.5,0.5-0.9,1.1-1.3,1.7l-2.7,3.8c-0.9,1.4-1.8,2.8-2.8,4c-0.2,0.2-0.5,0.2-0.7,0
		c-0.2-0.2-0.2-0.4-0.1-0.7l2.8-4c1.1-1.8,2.1-3.6,2.9-5.5c0.1-0.2,0.1-0.4,0.1-0.7c0,0.1-0.1,0.1-0.2,0.2c-2.9,3.7-5.6,7.7-8,11.8
		c-0.1,0.2-0.4,0.3-0.6,0.2c-0.2-0.1-0.4-0.3-0.3-0.6l1.5-6.8C194.4,54,194.3,53.7,194.3,53.5L194.3,53.5z M193.6,53.6L193.6,53.6z"
		/>
	<polygon class="st0" points="184.3,67 186.6,64.2 197.2,72.3 194.2,76.3 	"/>
	<path class="st0" d="M194.2,76.8c-0.1,0-0.2-0.1-0.3-0.1l-9.9-9.2c-0.2-0.2-0.2-0.5,0-0.7l2.3-2.8c0.2-0.2,0.5-0.2,0.7-0.1l10.5,8
		c0.2,0.2,0.3,0.5,0.1,0.7l-3,4C194.5,76.7,194.4,76.7,194.2,76.8L194.2,76.8z M185,67l9.1,8.5l2.4-3.2l-9.8-7.4L185,67z"/>
	<path class="st3" d="M132.9,68c0,0,0.9,0.4,2.4,1.1c8.6,3.8,31.1,15,32,14.6c1.2-0.5,16.3-18.7,16.3-18.7l13,11
		c0,0-16.1,29.5-25.1,29.1S138.2,93,138.2,93"/>
	<path class="st1" d="M161.2,110.2c0,0,3.9-1.4,4.8-3.3s2.9-8.6,4-8.8s1.6,1,1,3.3s-1.1,6.4-1.1,6.5c0.1-0.8,17.2,0,18.8,0.1
		c0.7,0,1.6,0.4,1.4,1c-0.1,0.4-0.6,0.6-1,0.7c-3.7,0.8-7.6,1.3-11.4,1.4l7.9,0.1c1.2,0,2.6,0.2,3.1,1.2c-2.7,0.4-5.5,0.7-8.3,0.8
		l7.9,0.7c0.5,0,1.2,0.5,0.9,0.9c-2.8,0.4-5.5,0.7-8.3,0.9c2.2,0.1,4.4,0.5,6.5,1.3c0.3,0.1,0.7,0.4,0.7,0.7s-0.5,0.6-0.9,0.7
		c-2.5,0.5-5.2-0.1-7.8-0.2c-3.3-0.1-6.6-0.3-9.9-0.5c-1-0.1-8.9,1.5-9,2.7L161.2,110.2z"/>
	<path class="st0" d="M160.7,120.9L160.7,120.9c-0.3,0-0.5-0.3-0.5-0.5l0,0c0-0.2,0.6-10.2,0.6-10.2c0-0.2,0.2-0.4,0.4-0.5
		c1-0.4,3.9-1.6,4.5-3.1c0.2-0.5,0.6-1.4,0.9-2.4c1.7-4.6,2.6-6.5,3.5-6.7c0.5-0.1,1,0.1,1.3,0.4c0.6,0.6,0.7,1.8,0.3,3.5
		s-0.8,4.3-1,5.7c1.8-0.2,6.3-0.3,18.2,0.3c0.7,0,1.3,0.3,1.7,0.8c0.2,0.3,0.3,0.6,0.2,0.9c-0.2,0.8-1.1,1-1.4,1
		c-0.9,0.2-1.9,0.4-2.8,0.5c1.1,0,2.1,0.5,2.7,1.4c0.1,0.2,0.1,0.3,0,0.5c-0.1,0.2-0.2,0.3-0.4,0.3l-2.4,0.3l2.1,0.2
		c0.6,0,1.1,0.3,1.4,0.8c0.1,0.3,0.1,0.6-0.1,0.9c-0.1,0.1-0.2,0.2-0.3,0.2c-1.3,0.2-2.5,0.3-3.8,0.5c0.7,0.2,1.4,0.4,2.1,0.7
		c0.9,0.4,1,0.9,1,1.2s-0.1,1-1.4,1.2c-1.9,0.3-3.8,0.3-5.6,0c-0.8-0.1-1.5-0.1-2.3-0.2c-3.1-0.1-6.5-0.3-9.9-0.5
		c-1-0.1-7.8,1.4-8.4,2.3C161.2,120.7,160.9,120.9,160.7,120.9z M161.7,110.5c-0.3,5-0.4,7.5-0.5,8.7c2.7-1.1,5.5-1.7,8.4-2
		c3.4,0.2,6.9,0.4,9.9,0.5c0.8,0,1.5,0.1,2.3,0.2c1.8,0.2,3.6,0.2,5.4,0c0.2,0,0.4-0.1,0.5-0.2c-0.1-0.1-0.2-0.2-0.4-0.2
		c-2-0.8-4.2-1.2-6.4-1.2c-0.3,0-0.5-0.3-0.5-0.5c0-0.3,0.2-0.5,0.5-0.5c2.4-0.2,4.9-0.4,7.3-0.8l-7.8-0.7c-0.3,0-0.5-0.2-0.5-0.5
		c0-0.3,0.2-0.5,0.5-0.5c2.4-0.1,4.8-0.4,7.2-0.7c-0.6-0.2-1.3-0.3-2-0.3l-7.8-0.1c-0.3,0-0.5-0.2-0.5-0.5c0,0,0,0,0,0
		c0-0.3,0.2-0.5,0.5-0.5c3.8-0.2,7.6-0.7,11.3-1.4c0.6-0.1,0.6-0.2,0.6-0.3c-0.2-0.3-0.6-0.4-0.9-0.4c-10-0.5-17.6-0.6-18.5-0.3
		c-0.1,0.1-0.3,0.1-0.4,0.1c-0.3,0-0.5-0.3-0.4-0.6c0,0,0,0,0,0l0,0c0.1-1,0.6-4.4,1.1-6.5c0.4-1.9,0.1-2.4,0-2.6
		c-0.1-0.1-0.3-0.2-0.4-0.1c-0.6,0.3-2,4.2-2.7,6c-0.4,1-0.7,1.9-0.9,2.4C165.7,108.9,162.7,110.1,161.7,110.5z M170.5,107.9
		c0,0.1-0.1,0.2-0.2,0.3C170.4,108.2,170.5,108.1,170.5,107.9z"/>
	<path class="st3" d="M115.1,66.9c0,0-20,6.3-23.1,14.6s3.9,73.3,3.9,73.3l57.1,0.1c0,0-4.4-67.2-7.7-76.5S125,64,115.1,66.9z"/>
	<path class="st1" d="M114.4,72.2l16.8,47.6c0,0,2.2-37.6,1.2-44.8S114.4,72.2,114.4,72.2z"/>
	<polygon class="st2" points="121.9,76.2 126.1,81.6 126.1,105.3 131.2,119.8 132.2,105.3 127.7,81.5 130.1,75.8 	"/>
	<path class="st1" d="M132.9,27.2c1.3,0.9,2.6,2.1,3.9,2.8c2.3,1.4,5,2.2,7.7,2.3c0.7,0-0.2,6.1-0.3,6.7c-0.6,2.3-1.7,4.4-3.2,6.2
		c-1.4,1.6-2.8,3.1-4.4,4.5c-1.9,1.8-5.1,2.3-7.6,2.8c-2.2,0.4-4.6,1.2-6.8,1.4s-4.9,0.6-6.9-0.1c-2.7-1-4.5-4.2-5.5-6.7
		c-1.4-3.1-1.8-6.7-0.9-10c0.3-1.3,1-2.4,1.9-3.3c1.2-1.1,2.4-1,3.8-1.2c-0.2-1.8,0.3-2.8,1.7-4.1c3.4-3,9.7-3.7,14-2.6
		C131.3,26.2,132.1,26.7,132.9,27.2z"/>
	<path class="st0" d="M118.3,54.7c-1.1,0-2.1-0.1-3.1-0.4c-2.2-0.8-4.2-3.1-5.8-7c-1.5-3.2-1.8-6.9-0.9-10.4
		c0.4-1.3,1.1-2.6,2.1-3.5c1-0.8,2.3-1.3,3.6-1.3c-0.1-1.6,0.7-3.1,2-4c3.7-3.2,10.2-3.8,14.5-2.7c1,0.3,1.9,0.7,2.7,1.4l0,0
		c0.5,0.3,1,0.7,1.5,1.1c0.7,0.6,1.5,1.2,2.3,1.6c2.3,1.3,4.8,2.1,7.4,2.2c0.2,0,0.4,0.1,0.6,0.3c0.8,1-0.4,7-0.4,7.1
		c-0.6,2.3-1.7,4.5-3.3,6.4c-1.4,1.6-2.8,3.1-4.4,4.5c-1.9,1.8-4.7,2.3-7.2,2.8l-0.6,0.1c-0.8,0.2-1.7,0.4-2.5,0.6
		c-1.4,0.4-2.9,0.7-4.3,0.9l-0.5,0.1C120.7,54.6,119.5,54.7,118.3,54.7z M126.2,26c-3.4,0-7.1,0.9-9.4,2.9c-1.4,1.2-1.8,2.1-1.6,3.6
		c0,0.1,0,0.3-0.1,0.4c-0.1,0.1-0.2,0.2-0.4,0.2h-0.4c-1.1-0.1-2.2,0.3-3.1,1c-0.9,0.8-1.5,1.9-1.8,3.1c-0.8,3.2-0.5,6.6,0.9,9.7
		c1.5,3.6,3.3,5.8,5.2,6.4s4.2,0.4,6.2,0.1l0.5,0c1.4-0.2,2.8-0.5,4.2-0.8c0.9-0.2,1.7-0.4,2.6-0.6l0.6-0.1c2.4-0.5,5.1-1,6.7-2.6
		c1.5-1.4,3-2.9,4.3-4.5c1.4-1.8,2.5-3.8,3.1-6c0.4-2,0.6-4,0.6-6c-2.7-0.1-5.3-0.9-7.7-2.3c-0.9-0.5-1.7-1.1-2.4-1.7
		c-0.5-0.4-1-0.7-1.4-1.1l0,0c-0.7-0.5-1.5-0.9-2.3-1.2C128.9,26.1,127.5,26,126.2,26z"/>
	<path class="st1" d="M132.5,63.8l0.9,9.9c0,0-4.2,5-10.6,3.6s-7.4-5.8-7.4-5.8l-0.3-18c0,0,4.7-2.6,3.1-12.8c0,0,9.9,2.8,19.3,1.4
		c0,0,0.4,11.6-0.3,16.5S132.5,63.8,132.5,63.8z"/>
	<path class="st0" d="M125.1,78c-0.8,0-1.6-0.1-2.4-0.3c-6.6-1.5-7.8-6-7.8-6.2c0,0,0-0.1,0-0.1l-0.3-18c0-0.2,0.1-0.4,0.3-0.5
		c0,0,4.3-2.6,2.8-12.3c0-0.3,0.2-0.5,0.4-0.6c0.1,0,0.1,0,0.2,0c0.1,0,9.9,2.8,19.1,1.4c0.1,0,0.3,0,0.4,0.1
		c0.1,0.1,0.2,0.2,0.2,0.3c0,0.5,0.4,11.7-0.3,16.6c-0.6,4.2-3.4,5.3-4.6,5.5l0.9,9.4c0,0.1,0,0.3-0.1,0.4
		C131.6,76.4,128.4,77.9,125.1,78z M115.8,71.4c0.1,0.5,1.3,4.1,7,5.3c5.4,1.2,9.2-2.4,10-3.2l-0.9-9.7c0-0.1,0-0.3,0.1-0.4
		c0.1-0.1,0.2-0.2,0.4-0.2l0,0c0.1,0,3.6-0.3,4.2-4.7c0.6-4.2,0.4-13.5,0.3-15.9c-7.8,1-15.8-0.7-18.2-1.3
		c1.1,8.6-2.2,11.7-3.2,12.4L115.8,71.4z"/>
	<path class="st1" d="M118.8,53.1c-0.2-0.9-0.7-1.6-1.5-2.2c-0.7-0.5-1.4-0.8-2.2-1.1c-0.4-0.2-0.9-0.2-1.3-0.2
		c-0.3,0.1-0.6,0.2-0.9,0.3c-0.7,0.3-1.2,0.9-1.5,1.6c-0.1,0.6-0.1,1.2,0,1.8c0.1,0.7,0.3,1.3,0.5,1.9c1.1,2.5,4.1,3.7,6.6,2.6
		c0,0,0.1,0,0.1-0.1"/>
	<path class="st0" d="M116.4,58.8c-0.7,0-1.3-0.1-1.9-0.3c-1.4-0.5-2.5-1.6-3.1-2.9c-0.3-0.7-0.5-1.4-0.6-2.1
		c-0.1-0.7-0.1-1.4,0.1-2.1c0.3-0.8,0.9-1.5,1.7-1.9c0.3-0.2,0.7-0.3,1.1-0.4c0.5,0,1.1,0,1.6,0.2c0.9,0.3,1.7,0.6,2.4,1.2
		c0.8,0.6,1.4,1.5,1.6,2.5c0.1,0.3-0.1,0.6-0.4,0.6c-0.3,0.1-0.6-0.1-0.6-0.4c-0.2-0.8-0.6-1.4-1.3-1.9c-0.6-0.5-1.3-0.8-2.1-1
		c-0.4-0.1-0.7-0.2-1.1-0.2c-0.3,0.1-0.5,0.1-0.7,0.3c-0.6,0.3-1,0.8-1.3,1.4c-0.1,0.5-0.1,1.1,0,1.6c0.1,0.6,0.3,1.2,0.5,1.8
		c0.5,1.1,1.4,2,2.6,2.4c1.1,0.4,2.4,0.4,3.5-0.1c0.3-0.1,0.6,0,0.7,0.2c0.1,0.3,0,0.6-0.2,0.7c0,0,0,0,0,0
		C118,58.6,117.2,58.8,116.4,58.8z"/>
	<path class="st0" d="M132.7,68.7c-2.4,0.3-4.8-0.4-6.6-2c-2.9-2.7-2.6-4.2-2.6-4.2s4.6,2.4,8.7,1.5L132.7,68.7z"/>
	<path class="st0" d="M131.6,69.2c-2.1,0-4.2-0.8-5.8-2.2c-3-2.7-2.8-4.5-2.8-4.7c0-0.3,0.3-0.5,0.6-0.4c0,0,0.1,0,0.1,0
		c0,0,4.5,2.3,8.4,1.4c0.1,0,0.3,0,0.4,0.1c0.1,0.1,0.2,0.2,0.2,0.3l0.5,4.7c0,0.3-0.2,0.5-0.4,0.6C132.4,69.2,132,69.2,131.6,69.2z
		 M124.2,63.3c0.5,1.2,1.3,2.2,2.3,3c1.6,1.4,3.6,2.1,5.7,1.9l-0.4-3.7C129.2,64.8,126.5,64.4,124.2,63.3z"/>
	<path class="st1" d="M130.1,47.7c0,0,3.6,4.8,2.9,5.7s-3,0.5-3,0.5"/>
	<path class="st0" d="M131.1,54.5c-0.4,0-0.9,0-1.3-0.1c-0.3-0.1-0.4-0.3-0.4-0.6c0-0.3,0.3-0.4,0.6-0.4c0,0,0,0,0,0
		c0.6,0.1,2.1,0.2,2.5-0.3c0.1-0.5-1.2-2.8-2.9-5.1c-0.2-0.2-0.1-0.5,0.1-0.7s0.5-0.1,0.7,0.1c1.8,2.3,3.7,5.3,2.9,6.3
		C132.7,54.3,131.9,54.6,131.1,54.5z"/>
	<ellipse transform="matrix(0.9638 -0.2666 0.2666 0.9638 -8.2653 34.8955)" class="st0" cx="124.4" cy="47.9" rx="0.8" ry="1.2"/>
	<ellipse transform="matrix(0.9638 -0.2666 0.2666 0.9638 -7.8389 37.1899)" class="st0" cx="133.1" cy="47.5" rx="0.8" ry="1.2"/>
	<path class="st0" d="M129.8,57c-0.1,0.2-0.1,0.4-0.2,0.7c-0.2,0.7-0.1,1.5,0.3,2.2c0.5,0.6,1.4,0.8,2,0.3c0.3-0.3,0.5-0.7,0.5-1.2
		c0.1-0.5,0-1.1-0.2-1.6c-0.2-0.5-0.7-0.9-1.2-0.9c-0.5-0.1-1.1,0.3-1.2,0.8"/>
	<path class="st0" d="M131.2,60.9H131c-0.6-0.1-1.1-0.3-1.4-0.8c-0.5-0.7-0.7-1.7-0.4-2.6c0-0.2,0.1-0.4,0.2-0.7
		c0-0.1,0.1-0.2,0.2-0.3c0.4-0.5,1-0.7,1.6-0.7c0.7,0.1,1.3,0.6,1.6,1.2c0.3,0.6,0.3,1.2,0.2,1.8c0,0.6-0.3,1.1-0.7,1.5
		C132,60.8,131.6,61,131.2,60.9z M130.2,57.6c0,0.1,0,0.1,0,0.2c-0.2,0.6-0.1,1.2,0.2,1.7c0.2,0.2,0.4,0.4,0.7,0.4
		c0.2,0,0.4,0,0.5-0.2c0.2-0.2,0.4-0.6,0.4-0.9c0.1-0.4,0-0.9-0.2-1.3c-0.2-0.3-0.5-0.6-0.9-0.6c-0.3,0-0.6,0.1-0.7,0.4
		C130.3,57.5,130.2,57.5,130.2,57.6L130.2,57.6z"/>
	<path class="st1" d="M115,33.9c0.6,1.1,1.2,2.3,1.7,3.5"/>
	<path class="st0" d="M116.7,37.9c-0.2,0-0.4-0.1-0.5-0.3c-0.5-1.2-1.1-2.3-1.7-3.5c-0.1-0.2,0-0.5,0.2-0.7c0.2-0.1,0.5,0,0.7,0.2
		c0.6,1.2,1.2,2.3,1.7,3.6c0.1,0.2,0,0.5-0.3,0.6c0,0,0,0,0,0C116.9,37.9,116.8,37.9,116.7,37.9z"/>
	<polygon class="st0" points="156.8,107.8 161,106.9 164.8,121.4 158.3,121.9 	"/>
	<path class="st0" d="M158.3,122.4c-0.3,0-0.5-0.2-0.5-0.4l-1.5-14.2c0-0.3,0.1-0.5,0.4-0.5l4.2-0.9c0.3-0.1,0.5,0.1,0.6,0.4
		l3.9,14.5c0,0.1,0,0.3-0.1,0.4c-0.1,0.1-0.2,0.2-0.4,0.2L158.3,122.4L158.3,122.4z M157.3,108.2l1.4,13.2l5.5-0.4l-3.6-13.5
		L157.3,108.2z"/>
	<path class="st3" d="M95,93.8c0,0,4.8,43.9,10.7,43.8s56.3-15,56.3-15l-3.6-16.5l-43.1,2.6c0,0,0.6-25.4-4.1-26.6S97,82.4,95,93.8z
		"/>
	<path class="st0" d="M111.1,134.5c-2.2,0-3.9-0.3-4.6-1c-3.7-3.6-9-19.8-11.5-27.6c-0.6-1.7-1-3.1-1.2-3.6
		c-0.1-0.1-0.2-0.3-0.1-0.4c0-0.3,0.2-0.5,0.5-0.5c0.5-0.1,0.5-0.1,1.9,4.1c2.3,7.1,7.8,23.8,11.3,27.2c3.3,3.2,33.4-4.3,52.9-10.1
		c0.3-0.1,0.6,0.1,0.6,0.3c0.1,0.3-0.1,0.6-0.3,0.6c0,0,0,0,0,0C156.1,125,123.7,134.5,111.1,134.5z"/>
	<path class="st0" d="M117.2,110.4c-0.2,0-0.5-0.2-0.5-0.4l-6.1-27.8c-0.1-0.3,0.1-0.5,0.4-0.6c0.3-0.1,0.5,0.1,0.6,0.4c0,0,0,0,0,0
		l6,27.3l36.7-3.1c0.3,0.1,0.5,0.3,0.4,0.6c0,0.2-0.2,0.3-0.3,0.4L117.2,110.4L117.2,110.4z"/>
	<path class="st1" d="M125.3,251.3L125.3,251.3c-0.3,0-0.5-0.3-0.5-0.5l4.4-87c0-0.3,0.2-0.5,0.5-0.5c0,0,0,0,0,0
		c0.3,0,0.5,0.2,0.5,0.5c0,0,0,0,0,0l-4.4,86.9C125.9,251.1,125.7,251.3,125.3,251.3C125.4,251.3,125.4,251.3,125.3,251.3z"/>
	<path class="st1" d="M100.9,167.4c-0.3,0-0.5-0.2-0.5-0.5c0-0.2,0.1-0.3,0.3-0.4c3.5-1.9,5.6-5.5,5.8-9.4c0-0.3,0.2-0.5,0.5-0.5
		c0.3,0,0.5,0.2,0.5,0.5c0,0,0,0,0,0c-0.1,4.3-2.5,8.2-6.3,10.2C101,167.4,101,167.4,100.9,167.4z"/>
	<path class="st1" d="M193.6,60.8c1.7,1.5,2.5,3.8,2.1,6.1"/>
	<path class="st0" d="M195.7,67.4h-0.1c-0.3,0-0.5-0.3-0.4-0.6c0,0,0,0,0,0c0.4-2.1-0.4-4.2-1.9-5.6c-0.2-0.2-0.2-0.5,0-0.7
		c0.2-0.2,0.5-0.2,0.7,0c1.8,1.7,2.7,4.1,2.2,6.5C196.2,67.2,196,67.4,195.7,67.4z"/>
</g>
<g id="essentiel">
	<path class="st1" d="M348.7,215.4c0,0-5.3-0.1-11.1,9.7l0,0.1l0-0.1c-2.6-13.5-13.1-21.9-13.1-21.9c-2,6.3-2.6,13-1.9,19.6
		c-2.4-2.2-5.1-3.9-8.1-5.3c-0.2,8.6,3.2,16.5,6.5,21.9h10.5l0,0h1.8h4.3h5.7C346.2,235,351,225.8,348.7,215.4z"/>
	<path class="st0" d="M349.4,215.3c-0.1-0.3-0.3-0.5-0.7-0.6c-0.2,0-5.2,0-10.8,8.6c-3.1-12.6-12.6-20.4-13-20.7
		c-0.2-0.1-0.4-0.2-0.6-0.1c-0.2,0.1-0.4,0.2-0.5,0.4c-1.8,5.9-2.5,12.1-2.1,18.2c-2.1-1.7-4.5-3.2-7-4.3c-0.2-0.1-0.4-0.1-0.6,0.1
		c-0.2,0.1-0.3,0.3-0.3,0.6c-0.2,8.6,3.3,16.7,6.4,21.9h-1.6l3.2,15.8h19.6l3.2-15.8h-0.5C347.1,234.8,351.7,225.6,349.4,215.3z
		 M348.3,216.3c1.8,9.6-2.5,18.1-5.4,22.6H338c-0.1-0.1-0.3-0.1-0.5,0h-3.6c0.2-4.3,1.5-8.5,3.8-12.2c0.2-0.4,0.4-0.8,0.6-1.1
		C342.7,218.1,346.8,216.6,348.3,216.3z M324.8,204.5c2.5,2.2,9.9,9.8,12.1,20.6l-0.5,0.9c-3.1,5.6-3.8,10-3.9,12.9h-5.8
		c-1.7-5.1-2.9-10.4-3.4-15.7c0.1-0.2,0-0.4-0.1-0.6C322.6,216.4,323.2,210.3,324.8,204.5z M321.9,223.2c0.5,5.3,1.7,10.6,3.4,15.7
		h-3.9c-2.9-5-6.2-12.2-6.2-20.2C317.7,219.9,319.9,221.4,321.9,223.2z"/>
</g>
<g id="fondamental" class="st4">
	<g class="st5">
		<circle class="st3" cx="326.4" cy="191" r="5.2"/>
	</g>
	<path class="st6" d="M348.7,215.4c0,0-2.1,0-5.1,2.4c2.6-11.7-1.6-22.1-1.6-22.1c-4.5,4.3-8.2,9.4-10.8,15
		c-3.4-4.8-6.8-7.5-6.8-7.5c-2,6.3-2.6,13-1.9,19.6c-2.4-2.2-5.1-3.9-8.1-5.3c-0.2,8.6,3.2,16.5,6.5,21.9h10.5l0,0h1.8h4.3h5.7
		C346.2,235,351,225.8,348.7,215.4z"/>
	<path class="st7" d="M349.4,215.3c-0.1-0.3-0.4-0.5-0.7-0.6c-0.1,0-1.7,0-4.1,1.5c1.8-11-1.8-20.3-2-20.8c-0.1-0.2-0.3-0.4-0.5-0.4
		c-0.2-0.1-0.5,0-0.6,0.2c-4.2,3.9-7.6,8.5-10.1,13.6c-0.9-4.8-1.9-9.1-2.8-12.3c2.1-0.9,3.6-3,3.6-5.4c0-2.5-1.6-4.7-3.8-5.5
		c-0.4-0.2-0.9-0.3-1.3-0.3c-0.2,0-0.5-0.1-0.7-0.1c-3.3,0-5.9,2.6-5.9,5.9c0,3,2.3,5.5,5.2,5.8c0.2,0,0.5,0,0.7,0
		c0.3,0,0.7,0,1-0.1c0.8,2.9,1.7,6.7,2.5,10.9c-2.6-3.1-4.8-4.9-5-5.1c-0.2-0.1-0.4-0.2-0.6-0.1c-0.2,0.1-0.4,0.2-0.5,0.4
		c-1.8,5.9-2.5,12.1-2.1,18.2c-2.1-1.7-4.5-3.2-7-4.3c-0.2-0.1-0.4-0.1-0.6,0.1c-0.2,0.1-0.3,0.3-0.3,0.6
		c-0.2,8.6,3.3,16.7,6.4,21.9h-1.6l3.2,15.8h19.6l3.2-15.8h-0.5C347.2,234.7,351.7,225.6,349.4,215.3z M321.9,191.5
		c1.1-0.3,2.4-0.2,3.3-0.1c0,0.4-0.1,0.9-0.1,1.4c0,0.8,0.1,1.7,0.2,2.6C323.5,195,322.1,193.4,321.9,191.5z M325.4,190.1
		C325.4,190.1,325.4,190.1,325.4,190.1c-0.9-0.1-2.2-0.2-3.4,0c0.2-1,0.8-2,1.6-2.6c0.8-0.6,1.8-1,2.9-1h0.1
		C326.1,187.4,325.6,188.6,325.4,190.1z M327,195.5c-0.1,0-0.2,0-0.3,0c-0.1-0.7-0.2-1.3-0.3-1.9c0,0,0,0,0,0
		c-0.1-0.9,0-1.8,0.1-2.6c0.3-1.8,0.8-3.3,1.3-4.2c1.8,0.6,3.1,2.3,3.1,4.3c0,1.8-1.1,3.4-2.6,4.1
		C327.9,195.3,327.5,195.5,327,195.5z M341.8,196.9c0.9,2.8,3.2,11.3,1.3,20.5c-1.5,1.3-3.3,3.2-5.1,6c-1.2-5.1-3.5-9.4-5.9-12.7
		C334.5,205.5,337.8,200.9,341.8,196.9z M321.4,238.9c-2.9-5-6.2-12.2-6.2-20.2c2.4,1.2,4.7,2.7,6.7,4.5c0.5,5.3,1.7,10.6,3.4,15.7
		H321.4z M333,235c-0.2,0.8-0.3,1.5-0.3,2.2c-0.1,0.6-0.1,1.1-0.1,1.6h-0.2h-1.4h-4.2c-1.7-5.1-2.9-10.4-3.4-15.7
		c0.1-0.2,0-0.4-0.1-0.6c-0.6-6.1-0.1-12.2,1.6-18.1c1.1,1,3.4,3.2,5.6,6.4c0,0,0,0,0,0c0.3,0.4,0.6,0.8,0.9,1.3
		c0.3,0.4,0.6,0.9,0.9,1.4c2,3.2,3.8,7.1,4.6,11.5l-0.5,0.9C334.5,229.4,333.5,232.5,333,235C333,235,333,235,333,235z M333.9,238.9
		L333.9,238.9c0.2-4.4,1.5-8.5,3.7-12.2c0.2-0.4,0.4-0.8,0.6-1.1c1.4-2.4,2.8-4.2,4.1-5.5c0.7-0.7,1.3-1.3,1.9-1.7
		c1.8-1.4,3.2-1.9,4-2.1c1.8,9.6-2.5,18.1-5.4,22.6H333.9z"/>
</g>
<g id="expert" class="st4">
	<path class="st6" d="M348.7,215.4c0,0-2.1,0-5.1,2.4c2.6-11.7-1.6-22.1-1.6-22.1c-4.5,4.3-8.2,9.4-10.8,15
		c-3.4-4.8-6.8-7.5-6.8-7.5c-2,6.3-2.6,13-1.9,19.6c-2.4-2.2-5.1-3.9-8.1-5.3c-0.2,8.6,3.2,16.5,6.5,21.9h10.5l0,0h1.8h4.3h5.7
		C346.2,235,350.9,225.8,348.7,215.4z"/>
	<path class="st7" d="M349.4,215.3c-0.1-0.3-0.4-0.5-0.7-0.6c-0.1,0-1.7,0-4.1,1.5c1.8-11-1.8-20.3-2-20.8c-0.1-0.2-0.3-0.4-0.5-0.4
		c-0.2-0.1-0.5,0-0.6,0.2c-4,3.7-7.3,8.1-9.8,12.9c-1.2-9.3-3.7-19.2-8.3-27.5l-1.2,0.7c4.6,8,7,17.7,8.2,26.7l-0.5-0.3
		c-2.6-3.1-4.8-4.9-5-5.1c-0.2-0.1-0.4-0.2-0.6-0.1c-0.2,0.1-0.4,0.2-0.5,0.4c-1.8,5.9-2.5,12.1-2.1,18.2c-2.1-1.7-4.5-3.2-7-4.3
		c-0.2-0.1-0.4-0.1-0.6,0.1c-0.2,0.1-0.3,0.3-0.3,0.6c-0.2,8.6,3.3,16.7,6.4,21.9h-1.6l3.2,15.8h19.6l3.2-15.8h-0.5
		C347.2,234.7,351.7,225.6,349.4,215.3z M341.8,196.9c0.9,2.8,3.2,11.3,1.3,20.5c-1.5,1.3-3.3,3.2-5.1,6c-1.2-5.1-3.5-9.4-5.8-12.7
		c0,0,0,0,0,0s0,0,0,0C334.5,205.5,337.8,200.9,341.8,196.9z M321.4,238.9c-2.9-5-6.2-12.2-6.2-20.2c2.4,1.2,4.7,2.7,6.7,4.5
		c0.5,5.3,1.7,10.6,3.4,15.7H321.4z M333,235c-0.2,0.8-0.3,1.5-0.3,2.2c-0.1,0.6-0.1,1.1-0.1,1.6h-0.3h-1.4h-4.1
		c-1.7-5.1-2.9-10.4-3.4-15.7c0.1-0.2,0-0.4-0.1-0.6c-0.6-6.1-0.1-12.2,1.6-18.1c1.1,1,3.4,3.2,5.6,6.4c0,0,0,0,0,0
		c0.1,0.1,0.2,0.3,0.3,0.5c0.2,0.3,0.4,0.5,0.6,0.8c0.3,0.4,0.6,0.9,0.9,1.4c0,0.1,0.1,0.1,0.1,0.2c1.9,3.2,3.7,7,4.5,11.3l-0.5,0.9
		C334.5,229.4,333.5,232.5,333,235C333,235,333,235,333,235z M333.9,238.9L333.9,238.9c0.2-4.4,1.5-8.5,3.7-12.2
		c0.2-0.4,0.4-0.8,0.6-1.1c1.4-2.4,2.8-4.2,4.1-5.5c0.7-0.7,1.3-1.3,1.9-1.7c1.8-1.4,3.2-1.9,4-2.1c1.8,9.6-2.5,18.1-5.4,22.6H333.9
		z"/>
	<path class="st8" d="M339.9,181c0-1-2.3-1.9-5.6-2.2c2.9-1.5,4.7-3.2,4.3-4.2c-0.4-1-3-0.9-6.2,0.1c2.1-2.6,3.2-4.9,2.5-5.7
		c-0.7-0.7-3,0.3-5.5,2.4c1-3.1,1-5.6,0.1-6c-1-0.4-2.7,1.5-4.3,4.4c-0.3-3.3-1.2-5.8-2.3-5.8c-1,0-1.9,2.3-2.2,5.6
		c-1.5-2.9-3.2-4.7-4.2-4.3c-1,0.4-0.9,3,0.1,6.2c-2.6-2.1-4.9-3.2-5.7-2.5c-0.7,0.7,0.3,3,2.4,5.5c-3.1-1-5.6-1-6-0.1
		c-0.4,1,1.5,2.7,4.4,4.3c-3.3,0.3-5.8,1.2-5.8,2.3c0,1,2.3,1.9,5.6,2.2c-2.9,1.5-4.7,3.2-4.3,4.2c0.4,1,3,0.9,6.2-0.1
		c-2.1,2.6-3.2,4.9-2.5,5.7c0.7,0.7,3-0.3,5.5-2.4c-1,3.1-1,5.6-0.1,6c1,0.4,2.7-1.5,4.3-4.4c0.3,3.3,1.2,5.8,2.3,5.8
		c1,0,1.9-2.3,2.2-5.6c1.5,2.9,3.2,4.7,4.2,4.3c1-0.4,0.9-3-0.1-6.2c2.6,2.1,4.9,3.2,5.7,2.5c0.7-0.7-0.3-3-2.4-5.5
		c3.1,1,5.6,1,6,0.1c0.4-1-1.5-2.7-4.4-4.3C337.5,183,339.9,182.1,339.9,181z"/>
	<g class="st5">
		<g>
			<g>
				<path class="st0" d="M307.8,174.7c0.1-0.2,0.5-0.3,1.1-0.3c0.9,0,2.2,0.2,3.9,0.7c-0.5-0.6-0.9-1.2-1.3-1.7
					c-2.4-0.5-4.5-0.4-5,0.8c-0.5,1.2,0.9,2.8,3.1,4.2c0.7-0.1,1.4-0.2,2.1-0.3C308.9,176.5,307.6,175.1,307.8,174.7z"/>
			</g>
			<g>
				<path class="st0" d="M316.1,164.6c-1.2,0.5-1.3,2.6-0.8,5.1c0.6,0.4,1.1,0.8,1.7,1.3c-0.9-3.1-0.8-5-0.4-5.1c0,0,0,0,0.1,0
					c0.4,0,1.8,1.3,3.2,3.9c0.1-0.7,0.2-1.5,0.3-2.1C318.8,165.5,317.3,164.1,316.1,164.6z"/>
			</g>
			<g>
				<path class="st0" d="M329.7,164.7c-0.9-0.4-2,0.2-3.3,1.8c-0.3,0.4-0.6,0.7-0.8,1.2c0.1,0.7,0.2,1.4,0.3,2.1
					c0.5-1,1.1-1.8,1.6-2.5c1-1.2,1.6-1.5,1.7-1.5c0,0,0,0,0,0c0.1,0,0.4,0.5,0.2,2.3c-0.1,0.8-0.3,1.8-0.6,2.8
					c0.6-0.5,1.1-0.9,1.7-1.3c0.1-0.5,0.2-0.9,0.2-1.3C330.9,166.3,330.6,165.1,329.7,164.7z"/>
			</g>
			<g>
				<path class="st0" d="M339.2,174.3c-0.5-1.2-2.6-1.3-5.1-0.8c-0.4,0.6-0.8,1.1-1.3,1.7c3.1-0.9,5-0.8,5.1-0.4
					c0.1,0.4-1.1,1.8-3.9,3.3c0.7,0.1,1.5,0.2,2.1,0.3C338.3,177,339.7,175.5,339.2,174.3z"/>
			</g>
			<g>
				<path class="st0" d="M336.1,183.7c-0.7,0.1-1.4,0.2-2.2,0.3c2.8,1.6,4.1,3,3.9,3.4c-0.1,0.4-2,0.5-5-0.4
					c0.5,0.6,0.9,1.1,1.3,1.7c0.9,0.2,1.7,0.3,2.5,0.3c1.3,0,2.2-0.3,2.5-1.1C339.7,186.6,338.2,185.1,336.1,183.7z"/>
			</g>
			<g>
				<path class="st0" d="M330.3,192.3c-0.6-0.4-1.2-0.8-1.7-1.3c0.9,3.1,0.8,5.1,0.4,5.2c-0.4,0.1-1.7-1.1-3.2-3.8
					c-0.1,0.7-0.2,1.5-0.3,2.1c1.2,1.8,2.4,3,3.5,3c0.2,0,0.4,0,0.5-0.1C330.8,196.9,330.9,194.8,330.3,192.3z"/>
			</g>
			<g>
				<path class="st0" d="M319.9,192.1c-1.6,2.9-3,4.2-3.4,4c-0.4-0.1-0.5-2,0.4-5c-0.6,0.5-1.2,0.9-1.7,1.3
					c-0.5,2.4-0.4,4.4,0.8,4.9c0.2,0.1,0.3,0.1,0.5,0.1c1.1,0,2.5-1.3,3.7-3.2C320.1,193.6,320,192.8,319.9,192.1z"/>
			</g>
			<g>
				<path class="st0" d="M307.7,187.2c-0.1-0.4,1.1-1.8,3.8-3.2c-0.7-0.1-1.4-0.2-2.1-0.3c-2.1,1.3-3.5,2.9-3,4.1
					c0.3,0.8,1.3,1.1,2.6,1.1c0.8,0,1.6-0.1,2.6-0.3c0.4-0.6,0.8-1.2,1.3-1.7C309.8,187.7,307.9,187.6,307.7,187.2z"/>
			</g>
		</g>
		<g>
			<path class="st0" d="M340.5,181c0-2.1-4.8-3.1-9.2-3.1c-0.4,0-0.8,0-1.2,0c0.3-0.3,0.6-0.5,0.8-0.8c3.1-3.1,5.8-7.2,4.3-8.7
				c-1.5-1.5-5.5,1.2-8.7,4.3c-0.3,0.3-0.6,0.6-0.8,0.8c0-0.4,0-0.8,0-1.2c0-4.4-1-9.2-3.1-9.2c-2.1,0-3.1,4.8-3.1,9.2
				c0,0.4,0,0.8,0,1.2c-0.3-0.3-0.5-0.6-0.8-0.8c-3.1-3.1-7.2-5.8-8.7-4.3c-1.5,1.5,1.2,5.5,4.3,8.7c0.3,0.3,0.6,0.6,0.8,0.8
				c-0.4,0-0.8,0-1.2,0c-4.4,0-9.2,1-9.2,3.1c0,2.1,4.8,3.1,9.2,3.1c0.4,0,0.8,0,1.2,0c-0.3,0.3-0.6,0.5-0.8,0.8
				c-3.1,3.1-5.8,7.2-4.3,8.7c0.3,0.3,0.7,0.4,1.1,0.4c1.9,0,5-2.2,7.5-4.8c0.3-0.3,0.6-0.6,0.8-0.8c0,0.4,0,0.8,0,1.2
				c0,4.4,1,9.2,3.1,9.2c2.1,0,3.1-4.8,3.1-9.2c0-0.4,0-0.8,0-1.2c0.3,0.3,0.5,0.6,0.8,0.8c2.5,2.5,5.6,4.8,7.5,4.8
				c0.5,0,0.8-0.1,1.1-0.4c1.5-1.5-1.2-5.5-4.3-8.7c-0.3-0.3-0.6-0.6-0.8-0.8c0.4,0,0.8,0,1.2,0C335.8,184.1,340.5,183.1,340.5,181z
				 M328.5,182.6c-1.6-0.2-2.8-0.4-3.6-0.7c0.8,0.4,1.9,1,3.1,2c0.7,0.5,1.4,1.2,2.1,1.9c3.6,3.6,4.7,6.4,4.3,6.8
				c-0.4,0.4-3.2-0.7-6.8-4.3c-0.8-0.8-1.4-1.5-1.9-2.1c-1-1.2-1.6-2.2-2-3c0.3,0.8,0.6,2,0.7,3.5c0.1,0.8,0.1,1.8,0.1,2.8
				c0,5.1-1.2,7.8-1.7,7.8s-1.7-2.7-1.7-7.8c0-1.1,0.1-2,0.1-2.8c0.1-1.5,0.4-2.6,0.7-3.4c-0.4,0.8-1,1.8-2,2.9
				c-0.5,0.7-1.2,1.4-1.9,2.1c-3.6,3.6-6.4,4.7-6.8,4.3c-0.4-0.4,0.7-3.2,4.3-6.8c0.8-0.8,1.5-1.4,2.1-1.9c1.2-1,2.3-1.6,3.1-2
				c-0.8,0.3-2,0.6-3.6,0.7c-0.8,0.1-1.8,0.1-2.9,0.1c-5.1,0-7.8-1.2-7.8-1.7c0-0.5,2.7-1.7,7.8-1.7c1.1,0,2,0.1,2.9,0.1
				c1.6,0.1,2.8,0.4,3.6,0.7c-0.2-0.1-0.4-0.2-0.6-0.3c-0.8-0.4-1.6-1-2.5-1.7c-0.7-0.6-1.4-1.2-2.2-1.9c-3.6-3.6-4.7-6.4-4.3-6.8
				c0,0,0.1-0.1,0.2-0.1c0.8,0,3.4,1.2,6.5,4.4c0.8,0.8,1.4,1.5,1.9,2.1c1,1.2,1.6,2.2,2,3c-0.3-0.8-0.6-2-0.7-3.6
				c-0.1-0.8-0.1-1.8-0.1-2.8c0-5.1,1.2-7.8,1.7-7.8s1.7,2.7,1.7,7.8c0,1.1-0.1,2-0.1,2.8c-0.2,1.6-0.4,2.8-0.7,3.6
				c0.4-0.8,1-1.8,2-3c0.5-0.7,1.2-1.4,1.9-2.1c3.2-3.2,5.7-4.4,6.5-4.4c0.1,0,0.2,0,0.2,0.1c0.4,0.4-0.7,3.2-4.3,6.8
				c-0.7,0.7-1.4,1.4-2.1,1.9c-0.8,0.7-1.7,1.3-2.5,1.7c-0.2,0.1-0.4,0.2-0.6,0.3c0.8-0.3,2-0.6,3.6-0.7c0.8-0.1,1.8-0.1,2.9-0.1
				c5.1,0,7.8,1.2,7.8,1.7c0,0.5-2.7,1.7-7.8,1.7C330.3,182.7,329.3,182.7,328.5,182.6z"/>
		</g>
	</g>
	<g class="st5">
		<circle class="st1" cx="322.9" cy="181" r="3.4"/>
		<path class="st0" d="M322.9,185.1c-1.3,0-2.6-0.7-3.4-1.8c-1.2-1.9-0.7-4.4,1.2-5.6c1.9-1.2,4.4-0.7,5.6,1.2v0
			c1.2,1.9,0.7,4.4-1.2,5.6C324.4,184.8,323.6,185.1,322.9,185.1z M322.9,178.3c-0.5,0-1,0.1-1.5,0.4c-1.2,0.8-1.6,2.5-0.8,3.7
			c0.8,1.2,2.5,1.6,3.7,0.8c1.2-0.8,1.6-2.5,0.8-3.7l0,0C324.6,178.8,323.7,178.3,322.9,178.3z"/>
	</g>
</g>
<g>
	
		<linearGradient id="XMLID_00000116223634416314960390000016523620612682615220_" gradientUnits="userSpaceOnUse" x1="236.7886" y1="1141.9083" x2="259.2855" y2="1119.4114" gradientTransform="matrix(1 0 0 1 0 -1019)">
		<stop  offset="9.677000e-02" style="stop-color:#0095D5"/>
		<stop  offset="0.3007" style="stop-color:#238AD9"/>
		<stop  offset="0.6211" style="stop-color:#557BDE"/>
		<stop  offset="0.8643" style="stop-color:#7472E2"/>
		<stop  offset="1" style="stop-color:#806EE3"/>
	</linearGradient>
	<polygon id="XMLID_2_" style="fill:url(#XMLID_00000116223634416314960390000016523620612682615220_);" points="224.1,111.8 
		248,87.9 271.7,111.8 	"/>
	
		<linearGradient id="SVGID_1_" gradientUnits="userSpaceOnUse" x1="227.4457" y1="1092.722" x2="240.512" y2="1079.6559" gradientTransform="matrix(1 0 0 1 0 -1019)">
		<stop  offset="0.1183" style="stop-color:#0095D5"/>
		<stop  offset="0.4178" style="stop-color:#3C83DC"/>
		<stop  offset="0.6962" style="stop-color:#6D74E1"/>
		<stop  offset="0.8333" style="stop-color:#806EE3"/>
	</linearGradient>
	<polygon class="st10" points="224.1,64.2 248,64.2 224.1,90 	"/>
	
		<linearGradient id="SVGID_00000180347357747766733130000013301852512627250570_" gradientUnits="userSpaceOnUse" x1="216.0909" y1="1126.9331" x2="260.4009" y2="1082.6229" gradientTransform="matrix(1 0 0 1 0 -1019)">
		<stop  offset="0.1075" style="stop-color:#C757BC"/>
		<stop  offset="0.2138" style="stop-color:#D0609A"/>
		<stop  offset="0.4254" style="stop-color:#E1725C"/>
		<stop  offset="0.6048" style="stop-color:#EE7E2F"/>
		<stop  offset="0.743" style="stop-color:#F58613"/>
		<stop  offset="0.8232" style="stop-color:#F88909"/>
	</linearGradient>
	<polygon style="fill:url(#SVGID_00000180347357747766733130000013301852512627250570_);" points="248,64.2 224.1,89.3 224.1,111.8 
		248,87.9 271.7,64.2 	"/>
</g>
<g>
	<path d="M215.8,124h4.6v5.6l4.8-5.6h6.1l-5.4,5.6l5.7,9.2h-5.7l-3.1-6.1l-2.4,2.5v3.6h-4.6V124z"/>
	<path d="M231.6,133.5c0-1.6,0.6-3,1.7-4.1c1.1-1.1,2.6-1.6,4.5-1.6c2.2,0,3.8,0.6,4.9,1.9c0.9,1,1.3,2.2,1.3,3.7
		c0,1.7-0.5,3-1.6,4.1c-1.1,1.1-2.6,1.6-4.6,1.6c-1.7,0-3.1-0.4-4.2-1.3C232.2,136.7,231.6,135.2,231.6,133.5z M235.7,133.5
		c0,1,0.2,1.7,0.6,2.1s0.9,0.7,1.5,0.7c0.6,0,1.1-0.2,1.5-0.7c0.4-0.5,0.6-1.2,0.6-2.2c0-0.9-0.2-1.6-0.6-2.1s-0.9-0.7-1.4-0.7
		c-0.6,0-1.1,0.2-1.5,0.7S235.7,132.5,235.7,133.5z"/>
	<path d="M250.9,124v4.1h2.3v3h-2.3v3.8c0,0.5,0,0.8,0.1,0.9c0.1,0.2,0.4,0.3,0.7,0.3c0.3,0,0.7-0.1,1.3-0.3l0.3,2.8
		c-1,0.2-2,0.3-2.9,0.3c-1,0-1.8-0.1-2.3-0.4s-0.8-0.7-1.1-1.2s-0.3-1.4-0.3-2.6v-3.8h-1.5v-3h1.5v-2L250.9,124z"/>
	<path d="M255.3,124h4.1v14.9h-4.1V124z"/>
	<path d="M262.2,124h4.1v2.8h-4.1V124z M262.2,128.1h4.1v10.8h-4.1V128.1z"/>
	<path d="M269,128.1h3.8v1.8c0.6-0.7,1.2-1.2,1.7-1.5c0.6-0.3,1.3-0.5,2.1-0.5c1.1,0,2,0.3,2.7,1c0.6,0.7,1,1.7,1,3.1v6.8h-4.1v-5.9
		c0-0.7-0.1-1.2-0.4-1.4s-0.6-0.4-1.1-0.4c-0.5,0-0.9,0.2-1.2,0.6s-0.5,1.1-0.5,2v5.2H269V128.1z"/>
</g>
</svg>
