<?xml version="1.0" encoding="utf-8"?>
<!-- Generator: Adobe Illustrator 27.9.0, SVG Export Plug-In . SVG Version: 6.00 Build 0)  -->
<svg version="1.1" id="_240_share_flatline" xmlns="http://www.w3.org/2000/svg" xmlns:xlink="http://www.w3.org/1999/xlink"
	 x="0px" y="0px" viewBox="0 0 400 300" style="enable-background:new 0 0 400 300;" xml:space="preserve">
<style type="text/css">
	.st0{fill:#FFFFFF;}
	.st1{fill:#231F20;}
	.st2{fill:#0FAAC8;}
	.st3{fill:#D1D3D4;}
	.st4{fill:none;}
	.st5{fill:#326DE6;}
	.st6{fill:#232020;}
	.st7{display:none;}
	.st8{display:inline;}
	.st9{display:inline;fill:#FFFFFF;}
	.st10{display:inline;fill:#231F20;}
	.st11{display:inline;fill:#0FAAC8;}
</style>
<g>
	<path class="st0" d="M318.1,21.4c-2.1-0.1-4.2,0.2-6.2,0.8c-3,1.3-5.8,8.2-7.9,19.1c-1.8,9.4-2.6,19-2.3,28.5
		c0.1,1.7,0.9,3.3,2.4,4.3c9.2,6.6,40.3-1.5,43.6-2.3c1.6-3,15.9-31.3,8.9-38.9C350.4,26.2,329.6,21.4,318.1,21.4z"/>
	<path class="st1" d="M316.4,77.9c-5.4,0-10.2-0.7-13-2.8c-1.8-1.2-2.8-3.1-2.9-5.2c-0.8-14.8,3.3-45.6,11-48.9s38,2.2,46.2,11
		s-8.1,39.4-8.8,40.7c-0.1,0.2-0.2,0.3-0.4,0.3C347.4,73.2,329.9,77.9,316.4,77.9z M318.1,21.4c-2.1-0.1-4.2,0.2-6.2,0.8
		c-3,1.3-5.8,8.2-7.9,19.1c-1.8,9.4-2.6,19-2.3,28.5c0.1,1.7,0.9,3.3,2.4,4.3c9.2,6.6,40.3-1.5,43.6-2.3c1.6-3,15.9-31.3,8.9-38.9
		C350.4,26.2,329.6,21.4,318.1,21.4z M348.3,72.3L348.3,72.3z"/>
	<path class="st0" d="M230.1,248.5c21.9-9.6,36.7-30.5,38.6-54.4l-21.7-23.3l-29.8,57.6"/>
	<path class="st1" d="M230.1,249.2c-0.4,0-0.7-0.3-0.7-0.7c0-0.3,0.2-0.5,0.4-0.6c21.5-9.6,36.1-30.1,38.1-53.5L247.1,172
		l-29.4,56.8c-0.2,0.3-0.6,0.4-0.9,0.2c-0.3-0.2-0.4-0.5-0.3-0.8l29.8-57.6c0.1-0.2,0.3-0.3,0.5-0.4c0.2,0,0.4,0,0.6,0.2l21.7,23.3
		c0.1,0.1,0.2,0.3,0.2,0.5c-2,24.1-17,45.1-39,54.9C230.2,249.2,230.1,249.2,230.1,249.2z"/>
	<polygon class="st1" points="297.4,284.2 363,282.9 362.1,200.2 265.7,203.7 252.3,284.2 	"/>
	<path class="st1" d="M297.4,284.8h-45.1c-0.2,0-0.4-0.1-0.5-0.2c-0.1-0.1-0.2-0.3-0.1-0.5l13.4-80.5c0-0.3,0.3-0.5,0.6-0.6
		l96.4-3.5c0.2,0,0.3,0.1,0.5,0.2c0.1,0.1,0.2,0.3,0.2,0.5l0.9,82.6c0,0.4-0.3,0.7-0.6,0.7c0,0,0,0,0,0L297.4,284.8L297.4,284.8z
		 M253,283.5h44.3l65-1.3l-0.9-81.3l-95.2,3.4L253,283.5z"/>
	<path class="st2" d="M375.7,108.4c-5.9-8-19.9-12.2-29.4-13.7c-9.1-1.4-18.2,0-27.4-0.8c-8.4-0.5-16.8,0.3-24.9,2.4
		c-30.5,8.4-58.9,52.7-58.9,52.7l31.1,1.6c0,0-4.5,32.6-17.5,103.9c54.1,1.9,117.1,7.3,117.1,7.3s0.3-14.9,1-29.6
		c4.9-4.6,4.7-11.8,5.6-16c1.2-5.4-1.2-64.3-1.2-64.3l7.1-2.6C378.2,149.4,378.3,111.9,375.7,108.4z"/>
	<polygon class="st1" points="302.9,107.6 279.2,263.7 307.5,266.6 339.8,107.3 	"/>
	<path class="st1" d="M307.5,267.2L307.5,267.2l-28.4-2.8c-0.2,0-0.3-0.1-0.5-0.2c-0.1-0.1-0.2-0.3-0.1-0.5l23.7-156.1
		c0.1-0.3,0.3-0.5,0.6-0.6l36.8-0.3c0.2,0,0.4,0.1,0.5,0.2c0.1,0.2,0.2,0.4,0.1,0.6l-32.2,159.2C308.1,267,307.8,267.2,307.5,267.2z
		 M280,263.1l27.1,2.7L338.9,108l-35.4,0.3L280,263.1z"/>
	<path class="st0" d="M307.1,88.1l-4.1,19.6c0,0,4.3,13,17.5,11.6c7.9-0.9,14.9-5.3,19.2-11.9l4.7-36c0,0-8.8-6.3-3.2-26.4
		c-11,3.1-22.7,3.1-33.7,0.2c0,0-8.8,21.5-8.6,31.5C299.1,86.5,307.1,88.1,307.1,88.1z"/>
	<path class="st1" d="M318.6,120c-12,0-16.2-12.1-16.2-12.2c0-0.1,0-0.2,0-0.4l3.9-18.9c-2-0.6-7.9-3.2-8.1-11.9
		c-0.2-10.1,8.2-30.9,8.6-31.8c0.1-0.3,0.5-0.5,0.8-0.4c10.9,2.9,22.4,2.9,33.3-0.1c0.2-0.1,0.5,0,0.7,0.1c0.2,0.2,0.3,0.4,0.2,0.7
		c-5.3,19.5,2.9,25.7,3,25.7c0.2,0.1,0.3,0.4,0.3,0.6l-4.7,36c0,0.1,0,0.2-0.1,0.2c-4.3,6.9-11.6,11.4-19.7,12.3
		C320,120,319.3,120,318.6,120z M303.8,107.6c0.6,1.5,4.9,12.2,16.7,11c7.6-0.9,14.4-5.1,18.6-11.5l4.6-35.4
		c-1.6-1.3-7.9-8.2-3.5-25.7c-10.6,2.7-21.7,2.7-32.3,0c-1.3,3.4-8.5,21.8-8.3,30.7c0.2,9.4,7.4,10.8,7.7,10.8
		c0.2,0,0.3,0.1,0.4,0.3c0.1,0.2,0.1,0.3,0.1,0.5L303.8,107.6z"/>
	<path class="st0" d="M337,69.7c0.7-1.7,1.9-3.1,3.4-4.1c1.5-0.8,3.1-1.4,4.8-1.6c0.9-0.2,1.8-0.3,2.8-0.1c0.6,0.2,1.2,0.5,1.7,0.9
		c1.3,0.9,2.2,2.2,2.6,3.6c0.2,1.2,0.1,2.5-0.3,3.7c-0.3,1.3-0.8,2.6-1.5,3.7c-2.9,4.8-9.1,6.4-13.9,3.6c-0.1,0-0.1-0.1-0.2-0.1"/>
	<path class="st1" d="M341.8,81.4c-2,0-4-0.5-5.7-1.6c-0.3-0.2-0.4-0.6-0.2-0.9c0.2-0.3,0.6-0.4,0.9-0.2c0,0,0,0,0,0
		c2.2,1.3,4.8,1.7,7.2,1.1c2.5-0.6,4.6-2.2,5.9-4.4c0.6-1.1,1.1-2.3,1.4-3.6c0.4-1.1,0.5-2.2,0.3-3.3c-0.4-1.3-1.2-2.5-2.4-3.2
		c-0.4-0.4-1-0.6-1.5-0.8c-0.8-0.1-1.6-0.1-2.4,0.1c-1.6,0.3-3.2,0.8-4.6,1.6c-1.4,0.9-2.5,2.2-3.1,3.8c-0.1,0.4-0.5,0.5-0.9,0.4
		c-0.4-0.1-0.5-0.5-0.4-0.9c0.7-1.8,2-3.4,3.7-4.4c1.6-0.9,3.3-1.4,5.1-1.7c1-0.3,2-0.3,3.1-0.1c0.7,0.2,1.4,0.6,2,1
		c1.4,0.9,2.4,2.4,2.9,4c0.2,1.3,0.1,2.7-0.3,3.9c-0.3,1.4-0.9,2.7-1.6,3.9c-1.5,2.5-3.9,4.3-6.7,5
		C343.5,81.4,342.7,81.4,341.8,81.4z"/>
	<path class="st1" d="M305.6,97.8c4.7,1.2,9.7,0.3,13.6-2.5c6.3-4.7,6.3-7.9,6.3-7.9s-9.7,3.8-17.9,1L305.6,97.8z"/>
	<path class="st1" d="M309.7,99c-1.5,0-2.9-0.2-4.3-0.5c-0.3-0.1-0.5-0.4-0.4-0.8l2-9.4c0-0.2,0.2-0.3,0.3-0.4
		c0.2-0.1,0.4-0.1,0.5,0c7.8,2.6,17.3-0.9,17.4-0.9c0.2-0.1,0.4-0.1,0.6,0c0.2,0.1,0.3,0.3,0.3,0.5c0,0.1,0,3.6-6.6,8.4
		C316.7,97.9,313.2,99,309.7,99z M306.3,97.4c4.3,0.9,8.8,0,12.5-2.5c3.9-2.8,5.2-5.1,5.7-6.3c-2.8,0.9-9.9,2.7-16.4,0.8L306.3,97.4
		z"/>
	<path class="st0" d="M318.9,58.8c0,0-8.3,8.8-7,10.8c1.3,2,5.9,1.7,5.9,1.7"/>
	<path class="st1" d="M316.7,71.8c-1.6,0-4.4-0.2-5.5-1.9c-1.4-2.2,4.5-8.8,7.1-11.6c0.3-0.3,0.7-0.3,0.9,0c0,0,0,0,0,0
		c0.3,0.2,0.3,0.7,0,0.9c0,0,0,0,0,0c-4.2,4.5-7.5,9.2-7,10c0.9,1.3,4.2,1.4,5.2,1.3c0.4,0,0.7,0.2,0.7,0.6c0,0.4-0.2,0.7-0.6,0.7
		c0,0,0,0,0,0C317.7,71.8,317.3,71.8,316.7,71.8z"/>
	<ellipse transform="matrix(0.3733 -0.9277 0.9277 0.3733 150.8595 344.14)" class="st1" cx="330.2" cy="60.4" rx="2.3" ry="1.7"/>
	
		<ellipse transform="matrix(0.3733 -0.9277 0.9277 0.3733 142.6522 326.3358)" class="st1" cx="312.9" cy="57.6" rx="2.3" ry="1.7"/>
	<path class="st1" d="M317.7,82.9c-0.7,0-1.3-0.1-2-0.2c-9.1-2.2-8.9-12.8-8.9-12.9c0-0.4,0.3-0.6,0.7-0.6c0.4,0,0.6,0.3,0.6,0.7
		c0,0,0,0,0,0c0,0.4-0.2,9.6,7.9,11.6c8,1.9,12-10.8,12.1-10.9c0.1-0.4,0.4-0.6,0.8-0.5c0.4,0.1,0.6,0.4,0.5,0.8c0,0,0,0.1,0,0.1
		C329.2,71.4,325.5,82.9,317.7,82.9z"/>
	<rect x="80.7" y="33.6" class="st0" width="184.4" height="196.9"/>
	<path class="st1" d="M265.1,231.1H80.7c-0.4,0-0.7-0.3-0.7-0.7V33.6c0-0.4,0.3-0.7,0.7-0.7h184.4c0.4,0,0.7,0.3,0.7,0.7v196.8
		C265.8,230.8,265.5,231.1,265.1,231.1z M81.4,229.8h183.1V34.2H81.4V229.8z"/>
	<path class="st3" d="M252,207.8H116c-0.4,0-0.7-0.3-0.7-0.7c0-0.4,0.3-0.7,0.7-0.7h136c0.4,0,0.7,0.3,0.7,0.7
		C252.7,207.5,252.4,207.8,252,207.8z"/>
	<path class="st3" d="M218.2,218H116c-0.4,0-0.7-0.3-0.7-0.7c0-0.4,0.3-0.7,0.7-0.7h102.2c0.4,0,0.7,0.3,0.7,0.7
		C218.9,217.7,218.6,218,218.2,218z"/>
	<circle class="st0" cx="100.2" cy="209.8" r="7.6"/>
	<path class="st3" d="M100.2,218c-4.5,0-8.2-3.7-8.2-8.2c0-4.5,3.7-8.2,8.2-8.2c4.5,0,8.2,3.7,8.2,8.2c0,0,0,0,0,0
		C108.4,214.3,104.7,218,100.2,218z M100.2,202.9c-3.8,0-6.9,3.1-6.9,6.9s3.1,6.9,6.9,6.9s6.9-3.1,6.9-6.9c0,0,0,0,0,0
		C107.1,206,104,202.9,100.2,202.9z"/>
	<path class="st0" d="M201.8,231.1c-0.2-1.5-0.4-2.9-0.4-4.4c-0.1-3,0.4-6.1,1.4-9c0.3-1.3,1-2.4,2-3.3c1.1-0.8,2.6-0.7,3.5,0.2
		c0.5,1.1,0.6,2.3,0.1,3.4c-0.7,3-0.8,6.2-0.5,9.3c0.5-4.2,1-8.5,3.3-12c0.5-0.8,1.1-1.5,2-2c0.8-0.5,1.9-0.5,2.7,0
		c1.2,0.9,1.1,2.6,0.9,4c-0.4,3.7-0.3,7.4,0.2,11c-0.3-3.2,0-6.5,0.7-9.6c0.5-2.1,1.4-4.3,3.4-5c0.4-0.1,0.9-0.2,1.3-0.1
		c0.9,0.3,1.6,1.1,1.7,2.1c0.2,0.9,0.2,1.9,0,2.8c-0.4,3.7-0.3,7.4,0.3,11.1c-0.5-3.2-0.4-6.5,0.4-9.7c0.2-1.3,0.7-2.5,1.5-3.5
		c0.8-1,2.2-1.4,3.4-1c0.9,0.5,1.5,1.3,1.7,2.3c0.2,1,0.2,2,0.1,3c-0.1,3.7,0.6,7.5,2,10.9c1.2,2.9,2.7,6.1,2.4,9.3
		c-0.5,3.4-2.8,6.3-6.1,7.4c-3.2,1.1-6.7,1.3-9.9,0.5c-10.8-2.2-19.8-7.3-23.6-17.7"/>
	<path class="st1" d="M224.7,250.2c-1.6,0-3.1-0.2-4.7-0.5c-12.5-2.5-20.6-8.6-24.1-18.1c-0.1-0.4,0.1-0.8,0.4-0.9
		c0.4-0.1,0.8,0.1,0.9,0.4c3.4,9.1,11.1,14.9,23.1,17.3c3.2,0.8,6.5,0.6,9.6-0.4c3-1.1,5.2-3.7,5.6-6.9c0.2-2.7-0.9-5.4-2-8
		l-0.4-0.9c-1.5-3.5-2.2-7.4-2.1-11.2v-0.5c0.1-0.8,0-1.6-0.1-2.3c-0.1-0.8-0.6-1.5-1.3-1.8c-1-0.3-2,0-2.6,0.8
		c-0.7,0.9-1.2,2-1.3,3.2c-0.7,3.1-0.8,6.3-0.4,9.4c0.1,0.4-0.2,0.7-0.6,0.8c-0.3,0-0.7-0.2-0.7-0.5c-0.6-3.7-0.7-7.5-0.3-11.3v-0.2
		c0.1-0.8,0.1-1.6,0-2.4c-0.1-0.7-0.6-1.3-1.3-1.5c-0.3-0.1-0.7,0-1,0.1c-1.4,0.4-2.4,2-3,4.5c-0.7,3.1-0.9,6.2-0.7,9.4
		c-0.1,0.4-0.4,0.6-0.8,0.6c-0.2,0-0.4-0.2-0.5-0.4c-0.5-3.7-0.5-7.5-0.2-11.2c0.1-1.3,0.2-2.8-0.7-3.4c-0.6-0.4-1.4-0.4-2,0
		c-0.7,0.4-1.3,1-1.7,1.8c-2.2,3.5-2.7,7.9-3.2,11.8c0,0.3-0.3,0.6-0.7,0.6l0,0c-0.3,0-0.6-0.3-0.7-0.6c-0.4-3.2-0.2-6.4,0.5-9.5
		c0.4-0.9,0.4-1.9,0-2.8c-0.2-0.3-0.5-0.5-0.9-0.5c-0.6-0.1-1.2,0.1-1.7,0.4c-0.9,0.8-1.5,1.8-1.8,3c-1,2.8-1.5,5.7-1.4,8.7
		c0,0.5,0.1,0.9,0.1,1.2c0,1,0.2,2.1,0.3,3.1c0,0.4-0.3,0.7-0.7,0.6c-0.3,0-0.5-0.2-0.6-0.4c-0.2-1.1-0.3-2.1-0.3-3.2
		c0-0.4,0-0.8-0.1-1.2c-0.1-3.1,0.4-6.2,1.4-9.2c0.4-1.4,1.1-2.7,2.2-3.6c0.8-0.5,1.7-0.8,2.6-0.7c0.7,0.1,1.4,0.5,1.8,1.1
		c0.7,1.2,0.7,2.6,0.2,3.9c0,0.1,0,0.1,0,0.2c0.4-1.2,1-2.4,1.7-3.4c0.5-0.9,1.3-1.7,2.2-2.2c1.1-0.6,2.4-0.6,3.4,0.1
		c1.3,1,1.3,2.8,1.3,4.1c0.5-1.7,1.7-3.1,3.3-3.7c0.6-0.2,1.2-0.2,1.7-0.1c1.2,0.4,2.1,1.4,2.3,2.6c0.1,0.6,0.2,1.2,0.1,1.8
		c0.2-0.5,0.5-0.9,0.9-1.3c1-1.3,2.7-1.7,4.2-1.2c1.1,0.6,1.8,1.6,2,2.8c0.2,0.9,0.2,1.7,0.1,2.6v0.5c-0.1,3.6,0.6,7.3,2,10.6
		l0.4,0.9c1.1,2.6,2.4,5.6,2.1,8.7c-0.5,3.7-3,6.8-6.5,8C228.6,250,226.6,250.3,224.7,250.2z"/>
	<path class="st0" d="M339.1,157.9l-2,30.1c0,0-61.7-48.5-72-50.6v8.5c0,0-17.1-2.1-18.5,1.3c-1.4,3.4,1,16.4,5.4,19
		c2.6,1.6,24.8,1.7,24.8,1.7s3.1,7.7,33.7,35.8s59.3,43.2,61.1,16.8s4.1-70.8,4.1-70.8"/>
	<path class="st1" d="M360.3,234.9c-10.8,0-28.7-10.8-50.3-30.7c-26.9-24.8-32.6-33.7-33.7-35.7c-3.7,0-22.1-0.3-24.7-1.8
		c-4.9-2.9-7.2-16.2-5.7-19.8c1.5-3.7,14.3-2.3,18.5-1.8v-7.7c0-0.2,0.1-0.4,0.2-0.5c0.2-0.1,0.4-0.2,0.6-0.1c9.7,2,63,43.4,71.2,50
		l1.9-28.8c-0.1-0.4,0.2-0.7,0.5-0.8c0.4-0.1,0.7,0.2,0.8,0.5c0,0.1,0,0.2,0,0.4l-1.9,30.1c0,0.3-0.2,0.5-0.4,0.6
		c-0.2,0.1-0.5,0.1-0.7-0.1c-0.6-0.5-58.7-46.2-70.8-50.3v7.6c0,0.2-0.1,0.4-0.2,0.5c-0.1,0.1-0.3,0.2-0.5,0.2
		c-6.9-0.9-17.1-1.1-17.8,0.9c-1.2,3.1,1,15.7,5.1,18.2c1.8,1.1,15.6,1.6,24.4,1.6c0.3,0,0.5,0.2,0.6,0.4c0,0.1,3.6,8,33.5,35.6
		c24.5,22.6,43.9,33.3,53.4,29.6c3.9-1.6,6.1-5.7,6.6-12.3c1.8-26.1,4.1-70.4,4.1-70.8c0-0.4,0.3-0.7,0.7-0.6c0,0,0,0,0,0
		c0.4,0,0.7,0.3,0.6,0.7c0,0,0,0,0,0c0,0.4-2.3,44.8-4.1,70.8c-0.5,7.2-3,11.8-7.4,13.5C363.4,234.6,361.9,234.9,360.3,234.9z"/>
	<line class="st4" x1="337.1" y1="187.9" x2="351.9" y2="198.9"/>
	<path class="st1" d="M351.9,199.6c-0.1,0-0.3-0.1-0.4-0.1l-14.8-11c-0.3-0.2-0.4-0.7-0.1-1c0.2-0.3,0.6-0.4,0.9-0.1l14.8,11
		c0.3,0.2,0.4,0.7,0.1,1C352.3,199.5,352.1,199.6,351.9,199.6L351.9,199.6z"/>
	<path class="st1" d="M339.1,158.6L339.1,158.6c-0.4,0-0.6-0.4-0.6-0.7c0,0,0,0,0,0l2.8-30.4c0-0.4,0.4-0.6,0.7-0.6
		c0.4,0,0.6,0.3,0.6,0.7c0,0,0,0,0,0l-2.8,30.4C339.8,158.3,339.5,158.6,339.1,158.6C339.1,158.6,339.1,158.6,339.1,158.6z"/>
	<path id="path10349" class="st5" d="M230.6,80.4c-0.8-2.6-2.7-4.6-5.1-5.9l-48.8-23.4c-1.3-0.6-2.7-0.8-4-0.8s-2.7,0-4,0.3
		l-48.8,23.5c-2.4,1.1-4.2,3.2-4.8,5.9l-12,52.6c-0.5,2.7,0.2,5.4,1.8,7.7l33.7,41.7c1.9,1.9,4.6,3.2,7.4,3.4h53.7
		c2.9,0.3,5.6-1,7.4-3.4l33.7-41.7c1.6-2.2,2.2-5,1.9-7.7L230.6,80.4L230.6,80.4z"/>
	<path id="path10351" class="st0" d="M223.1,130.6L223.1,130.6c-0.2,0-0.3,0-0.3-0.2s-0.3-0.2-0.6-0.2c-0.6-0.2-1.3-0.2-1.9-0.2
		c-0.3,0-0.6,0-1-0.2h-0.2c-1.8-0.2-3.7-0.5-5.4-1c-0.5-0.2-1-0.6-1.1-1.1c0.2,0,0,0,0,0l0,0l-1.3-0.3c0.6-4.6,0.3-9.4-0.6-14.1
		c-1.1-4.6-3-9.1-5.6-13.1l1-1l0,0v-0.2c0-0.5,0.2-1.1,0.5-1.4c1.4-1.3,2.9-2.2,4.5-3.2l0,0c0.3-0.2,0.6-0.3,1-0.5
		c0.6-0.3,1.1-0.6,1.8-1c0.2-0.2,0.3-0.2,0.5-0.3c0.2-0.2,0-0.2,0-0.3l0,0c1.4-1.1,1.8-3,0.6-4.5c-0.5-0.6-1.4-1.1-2.2-1.1
		s-1.6,0.3-2.2,0.8l0,0l-0.2,0.2c-0.2,0.2-0.3,0.3-0.5,0.3c-0.5,0.5-1,1-1.3,1.4c-0.2,0.3-0.5,0.5-0.6,0.6l0,0
		c-1.1,1.3-2.6,2.6-4,3.5c-0.3,0.2-0.6,0.3-1,0.3c-0.2,0-0.5,0-0.6-0.2H202l-1.3,0.8c-1.3-1.3-2.7-2.6-4-3.8
		c-5.9-4.6-13.3-7.5-20.8-8.3l-0.2-1.3l0,0v0.2c-0.5-0.3-0.6-0.8-0.8-1.3c0-1.8,0-3.5,0.3-5.4v-0.2c0-0.3,0.2-0.6,0.2-1
		c0.2-0.6,0.2-1.3,0.3-1.9v-1l0,0c0.2-1.6-1.1-3.2-2.7-3.4c-1-0.2-1.9,0.3-2.7,1.1c-0.6,0.6-1,1.4-1,2.2l0,0v0.8
		c0,0.6,0.2,1.3,0.3,1.9c0.2,0.3,0.2,0.6,0.2,1v0.2c0.3,1.8,0.3,3.5,0.3,5.4c-0.2,0.5-0.3,1-0.8,1.3v0.3l0,0l-0.2,1.3
		c-1.8,0.2-3.5,0.5-5.4,0.8c-7.5,1.6-14.4,5.6-19.7,11.2l-1-0.6H143c-0.2,0-0.3,0.2-0.6,0.2c-0.3,0-0.6-0.2-1-0.3
		c-1.4-1.1-2.9-2.4-4-3.7l0,0c-0.2-0.3-0.5-0.5-0.6-0.6c-0.5-0.5-0.8-1-1.3-1.4c-0.2-0.2-0.3-0.2-0.5-0.3c-0.2-0.2-0.2-0.2-0.2-0.2
		l0,0c-0.6-0.5-1.4-0.8-2.2-0.8c-1,0-1.8,0.3-2.2,1.1c-1,1.4-0.6,3.4,0.6,4.5l0,0c0.2,0,0.2,0.2,0.2,0.2s0.3,0.3,0.5,0.3
		c0.5,0.3,1.1,0.6,1.8,1c0.3,0.2,0.6,0.3,1,0.5l0,0c1.6,1,3.2,1.9,4.5,3.2c0.3,0.3,0.6,1,0.5,1.4v-0.2l0,0l1,1
		c-0.2,0.3-0.3,0.5-0.5,0.8c-5,7.8-7,17.1-5.6,26.2l-1.3,0.3l0,0c0,0.2-0.2,0.2-0.2,0.2c-0.2,0.5-0.6,0.8-1.1,1.1
		c-1.8,0.5-3.5,0.8-5.4,1l0,0c-0.3,0-0.6,0-1,0.2c-0.6,0-1.3,0.2-1.9,0.2c-0.2,0-0.3,0.2-0.6,0.2c-0.2,0-0.2,0-0.3,0.2l0,0
		c-1.8,0.3-2.9,1.9-2.6,3.7l0,0c0.3,1.4,1.8,2.4,3.2,2.2c0.3,0,0.5,0,0.8-0.2l0,0c0.2,0,0.2,0,0.2-0.2s0.5,0,0.6,0
		c0.6-0.2,1.3-0.5,1.8-0.6c0.3-0.2,0.6-0.3,1-0.3h0.2c1.8-0.6,3.4-1.1,5.3-1.4h0.2c0.5,0,1,0.2,1.3,0.5c0.2,0,0.2,0.2,0.2,0.2l0,0
		l1.4-0.2c2.4,7.4,6.9,13.9,13.1,18.7c1.4,1.1,2.7,2.1,4.3,2.9l-0.8,1.1l0,0c0,0.2,0.2,0.2,0.2,0.2c0.3,0.5,0.3,1.1,0.2,1.6
		c-0.6,1.6-1.6,3.2-2.6,4.6v0.2c-0.2,0.3-0.3,0.5-0.6,0.8c-0.3,0.3-0.6,1-1.1,1.6c-0.2,0.2-0.2,0.3-0.3,0.5c0,0,0,0.2-0.2,0.2l0,0
		c-0.8,1.6-0.2,3.5,1.3,4.3c0.3,0.2,0.8,0.3,1.1,0.3c1.3,0,2.4-0.8,3-1.9l0,0c0,0,0-0.2,0.2-0.2c0-0.2,0.2-0.3,0.3-0.5
		c0.2-0.6,0.5-1.1,0.6-1.8l0.3-1l0,0c0.5-1.8,1.3-3.4,2.1-5c0.3-0.5,0.8-0.8,1.3-1c0.2,0,0.2,0,0.2-0.2l0,0l0.6-1.3
		c4.5,1.8,9.1,2.6,13.9,2.6c2.9,0,5.8-0.3,8.6-1.1c1.8-0.3,3.5-1,5.1-1.4l0.6,1.1l0,0c0.2,0,0.2,0,0.2,0.2c0.5,0.2,1,0.5,1.3,1
		c0.8,1.6,1.6,3.2,2.1,5v0.2l0.3,1c0.2,0.6,0.3,1.3,0.6,1.8c0.2,0.2,0.2,0.3,0.3,0.5c0,0,0,0.2,0.2,0.2l0,0c0.6,1.1,1.8,1.9,3,1.9
		c0.5,0,0.8-0.2,1.3-0.3c0.6-0.3,1.3-1,1.4-1.8s0.2-1.6-0.2-2.4l0,0c0-0.2-0.2-0.2-0.2-0.2c0-0.2-0.2-0.3-0.3-0.5
		c-0.3-0.6-0.6-1.1-1.1-1.6c-0.2-0.3-0.3-0.5-0.6-0.8v-0.3c-1.1-1.4-1.9-3-2.6-4.6c-0.2-0.5-0.2-1.1,0.2-1.6c0-0.2,0.2-0.2,0.2-0.2
		l0,0l-0.5-1.3c8.2-5,14.4-12.6,17.3-21.8l1.3,0.2l0,0c0.2,0,0.2-0.2,0.2-0.2c0.3-0.3,0.8-0.5,1.3-0.5h0.2c1.8,0.3,3.5,0.8,5.1,1.4
		h0.2c0.3,0.2,0.6,0.3,1,0.3c0.6,0.3,1.1,0.6,1.8,0.8c0.2,0,0.3,0.2,0.6,0.2c0.2,0,0.2,0,0.3,0.2l0,0c0.3,0.2,0.5,0.2,0.8,0.2
		c1.4,0,2.7-1,3.2-2.2C225.8,132.2,224.5,130.9,223.1,130.6L223.1,130.6z M176.9,125.7l-4.3,2.1l-4.3-2.1l-1.1-4.6l3-3.8h4.8l3,3.8
		L176.9,125.7z M202.9,115.3c0.8,3.4,1,6.7,0.6,10.1l-15.2-4.3l0,0c-1.4-0.3-2.2-1.8-1.9-3.2c0.2-0.5,0.3-0.8,0.6-1.1l12-10.9
		C200.9,108.7,202.1,111.9,202.9,115.3z M194.3,99.9l-13.1,9.3c-1.1,0.6-2.7,0.5-3.5-0.6c-0.3-0.3-0.5-0.6-0.5-1.1l-1-16.2
		C183.3,92.1,189.5,95.1,194.3,99.9C194.3,99.9,194.3,99.9,194.3,99.9z M165.4,91.8l3.2-0.6l-0.8,16l0,0c0,1.4-1.3,2.6-2.7,2.6
		c-0.5,0-0.8-0.2-1.3-0.3l-13.3-9.4C154.6,95.9,159.8,93,165.4,91.8z M145.8,105.8l11.8,10.6l0,0c1.1,1,1.3,2.6,0.3,3.7
		c-0.3,0.5-0.6,0.6-1.3,0.8l-15.5,4.5C140.7,118.6,142.3,111.7,145.8,105.8z M143.1,132.9l15.8-2.7c1.3,0,2.6,0.8,2.7,2.1
		c0.2,0.5,0.2,1.1-0.2,1.6l0,0l-6.1,14.7C149.8,144.9,145.4,139.3,143.1,132.9z M179.4,152.7c-2.2,0.5-4.5,0.8-6.9,0.8
		c-3.4,0-6.9-0.6-10.1-1.6l7.8-14.2c0.8-1,2.1-1.3,3.2-0.6c0.5,0.3,0.8,0.6,1.3,1.1l0,0l7.7,13.9
		C181.5,152.2,180.5,152.4,179.4,152.7z M198.9,138.8c-2.4,3.8-5.8,7.2-9.6,9.6l-6.2-15c-0.3-1.3,0.3-2.6,1.4-3
		c0.5-0.2,1-0.3,1.4-0.3l16,2.7C201.2,134.9,200.2,137,198.9,138.8z"/>
	<path class="st6" d="M377.7,274.6L13.9,285.4c-0.4,0-0.7-0.2-0.7-0.6s0.3-0.6,0.6-0.6l363.8-10.8c0.4,0,0.7,0.2,0.7,0.6
		C378.4,274.4,378.1,274.6,377.7,274.6z"/>
</g>
<g id="essentiel">
	<path class="st0" d="M73.6,228.3c0,0-7.3-0.1-15.3,13.4l-0.1,0.1l0-0.1c-3.6-18.6-18.1-30.3-18.1-30.3c-2.7,8.8-3.6,18-2.6,27.1
		c-3.3-3-7.1-5.4-11.2-7.3c-0.3,11.9,4.5,22.9,8.9,30.3h14.5l0,0h2.5H58H66C70.1,255.3,76.6,242.5,73.6,228.3z"/>
	<path class="st1" d="M74.5,228.1c-0.1-0.4-0.5-0.8-0.9-0.8c-0.3,0-7.2,0-15,11.9c-4.2-17.4-17.4-28.2-18-28.6
		c-0.2-0.2-0.6-0.3-0.9-0.2c-0.3,0.1-0.5,0.3-0.6,0.6c-2.5,8.2-3.5,16.7-2.9,25.2c-2.9-2.4-6.2-4.4-9.6-6c-0.3-0.1-0.6-0.1-0.9,0.1
		c-0.3,0.2-0.4,0.5-0.4,0.8c-0.3,11.9,4.5,23.1,8.8,30.4h-2.2l4.4,21.9h27.1l4.4-21.9h-0.7C71.4,255,77.6,242.3,74.5,228.1z
		 M72.9,229.4c2.5,13.3-3.4,25.1-7.5,31.3h-6.8c-0.2-0.1-0.4-0.1-0.6-0.1h-4.9c0.3-6,2.1-11.7,5.2-16.8c0.3-0.5,0.6-1,0.9-1.5
		C65.3,231.9,70.9,229.8,72.9,229.4z M40.5,213.1c3.4,3.1,13.7,13.5,16.7,28.5l-0.7,1.2c-4.3,7.8-5.3,13.8-5.3,17.8h-8.1
		c-2.4-7-4-14.3-4.7-21.7c0.1-0.3,0.1-0.6-0.1-0.8C37.5,229.7,38.2,221.2,40.5,213.1z M36.5,239c0.7,7.4,2.3,14.7,4.7,21.7h-5.4
		c-4-6.9-8.6-16.9-8.6-28C30.6,234.4,33.7,236.5,36.5,239z"/>
</g>
<g id="fondamental" class="st7">
	<g class="st8">
		<circle class="st2" cx="42.7" cy="194.5" r="7.2"/>
	</g>
	<path class="st9" d="M73.6,228.3c0,0-2.9-0.1-7,3.3c3.6-16.1-2.2-30.5-2.2-30.5c-6.3,5.9-11.3,13-14.9,20.8
		c-4.7-6.6-9.4-10.4-9.4-10.4c-2.7,8.8-3.6,18-2.6,27.1c-3.3-3-7.1-5.4-11.2-7.3c-0.3,11.9,4.5,22.9,8.9,30.3h14.5l0,0h2.5H58H66
		C70.1,255.3,76.6,242.5,73.6,228.3z"/>
	<path class="st10" d="M74.5,228.1c-0.1-0.4-0.5-0.7-0.9-0.8c-0.2,0-2.4,0-5.6,2c2.6-15.2-2.5-28.1-2.7-28.7
		c-0.1-0.3-0.4-0.5-0.7-0.6c-0.3-0.1-0.6,0-0.9,0.2c-5.7,5.4-10.5,11.7-14,18.8c-1.2-6.7-2.7-12.6-3.8-17c2.9-1.2,5-4.1,5-7.5
		c0-3.5-2.2-6.5-5.3-7.6c-0.6-0.2-1.2-0.4-1.8-0.4c-0.3-0.1-0.7-0.1-1-0.1c-4.5,0-8.2,3.7-8.2,8.2c0,4.2,3.1,7.6,7.2,8.1
		c0.3,0,0.7,0.1,1,0.1c0.5,0,0.9,0,1.4-0.1c1,4,2.3,9.2,3.5,15.1c-3.6-4.3-6.6-6.8-6.9-7c-0.3-0.2-0.6-0.3-0.9-0.2
		c-0.3,0.1-0.5,0.3-0.6,0.6c-2.6,8.2-3.5,16.7-2.9,25.2c-2.9-2.4-6.2-4.4-9.6-6c-0.3-0.1-0.6-0.1-0.9,0.1c-0.3,0.2-0.4,0.5-0.4,0.8
		c-0.3,11.9,4.5,23.1,8.8,30.4h-2.2l4.4,21.9h27.1l4.4-21.9h-0.7C71.4,255,77.6,242.3,74.5,228.1z M36.4,195.2
		c1.6-0.4,3.4-0.3,4.6-0.1c-0.1,0.6-0.1,1.3-0.1,1.9c0,1.1,0.1,2.3,0.3,3.6C38.7,200,36.7,197.8,36.4,195.2z M41.3,193.2
		C41.3,193.2,41.3,193.2,41.3,193.2c-1.2-0.2-3-0.3-4.7,0c0.3-1.4,1.1-2.7,2.2-3.6c1.1-0.9,2.5-1.4,4-1.4h0.1
		C42.2,189.5,41.6,191.2,41.3,193.2z M43.6,200.7c-0.1,0-0.3,0.1-0.4,0.1c-0.2-0.9-0.3-1.8-0.4-2.7c0,0,0,0,0,0
		c-0.1-1.3,0-2.5,0.1-3.7c0.4-2.5,1.1-4.6,1.8-5.9c2.5,0.8,4.3,3.2,4.3,6c0,2.5-1.5,4.7-3.6,5.7C44.8,200.5,44.2,200.6,43.6,200.7z
		 M63.9,202.7c1.3,3.9,4.5,15.6,1.8,28.3c-2.1,1.8-4.5,4.4-7.1,8.2c-1.7-7.1-4.9-13-8.1-17.6C53.9,214.6,58.4,208.2,63.9,202.7z
		 M35.8,260.7c-4-6.9-8.6-16.9-8.6-28c3.3,1.7,6.4,3.8,9.3,6.2c0.7,7.4,2.3,14.7,4.6,21.7H35.8z M51.7,255.4
		c-0.2,1.1-0.4,2.1-0.4,3.1c-0.1,0.8-0.1,1.5-0.1,2.2h-0.3H49h-5.9c-2.4-7-4-14.3-4.7-21.7c0.1-0.3,0.1-0.6-0.1-0.8
		c-0.8-8.4-0.1-16.9,2.2-25c1.6,1.4,4.7,4.5,7.8,8.8c0,0,0,0,0,0c0.4,0.6,0.8,1.2,1.2,1.8c0.4,0.6,0.8,1.2,1.2,1.9
		c2.7,4.4,5.2,9.8,6.4,16l-0.7,1.2C53.8,247.6,52.4,251.8,51.7,255.4C51.8,255.3,51.7,255.3,51.7,255.4z M53.1,260.7L53.1,260.7
		c0.3-6,2.1-11.8,5.2-16.9c0.3-0.5,0.6-1,0.9-1.5c2-3.3,3.9-5.8,5.6-7.6c0.9-1,1.8-1.8,2.6-2.4c2.5-2,4.5-2.6,5.5-2.9
		c2.5,13.3-3.4,25.1-7.5,31.3H53.1z"/>
</g>
<g id="expert" class="st7">
	<path class="st9" d="M73.6,228.3c0,0-2.9-0.1-7,3.3c3.6-16.1-2.2-30.5-2.2-30.5c-6.3,5.9-11.3,13-14.9,20.8
		c-4.7-6.6-9.4-10.4-9.4-10.4c-2.7,8.8-3.6,18-2.6,27.1c-3.3-3-7.1-5.4-11.2-7.3c-0.3,11.9,4.5,22.9,8.9,30.3h14.5l0,0h2.5H58h7.9
		C70.1,255.3,76.6,242.5,73.6,228.3z"/>
	<path class="st10" d="M74.5,228.1c-0.1-0.4-0.5-0.7-0.9-0.8c-0.2,0-2.4,0-5.6,2c2.6-15.2-2.5-28.1-2.7-28.7
		c-0.1-0.3-0.4-0.5-0.7-0.6c-0.3-0.1-0.6,0-0.9,0.2c-5.5,5.2-10.1,11.2-13.6,17.9c-1.7-12.8-5.1-26.5-11.5-38l-1.6,0.9
		c6.3,11.1,9.6,24.5,11.3,37l-0.7-0.5c-3.6-4.3-6.6-6.8-6.9-7c-0.3-0.2-0.6-0.3-0.9-0.2c-0.3,0.1-0.5,0.3-0.6,0.6
		c-2.6,8.2-3.5,16.7-2.9,25.2c-2.9-2.4-6.2-4.4-9.6-6c-0.3-0.1-0.6-0.1-0.9,0.1c-0.3,0.2-0.4,0.5-0.4,0.8
		c-0.3,11.9,4.5,23.1,8.8,30.4h-2.2l4.4,21.9h27.1l4.4-21.9h-0.7C71.4,255,77.6,242.3,74.5,228.1z M63.9,202.7
		c1.3,3.9,4.5,15.6,1.8,28.3c-2.1,1.8-4.5,4.4-7.1,8.2c-1.7-7-4.9-13-8.1-17.6c0,0,0,0,0,0c0,0,0,0,0,0
		C53.9,214.6,58.4,208.2,63.9,202.7z M35.8,260.7c-4-6.9-8.6-16.9-8.6-28c3.3,1.7,6.4,3.8,9.3,6.2c0.7,7.4,2.3,14.7,4.6,21.7H35.8z
		 M51.7,255.4c-0.2,1.1-0.4,2.1-0.4,3.1c-0.1,0.8-0.1,1.5-0.1,2.2h-0.5h-1.9h-5.7c-2.4-7-4-14.3-4.7-21.7c0.1-0.3,0.1-0.6-0.1-0.8
		c-0.8-8.4-0.1-16.9,2.2-25c1.6,1.4,4.7,4.5,7.8,8.8c0,0,0,0,0,0c0.2,0.2,0.3,0.4,0.5,0.7c0.3,0.4,0.5,0.7,0.8,1.1
		c0.4,0.6,0.8,1.2,1.2,1.9c0.1,0.1,0.1,0.2,0.2,0.3c2.6,4.4,5.1,9.7,6.2,15.7l-0.7,1.2C53.8,247.6,52.4,251.8,51.7,255.4
		C51.8,255.3,51.7,255.3,51.7,255.4z M53.1,260.7L53.1,260.7c0.3-6,2.1-11.8,5.2-16.9c0.3-0.5,0.6-1,0.9-1.5c2-3.3,3.9-5.8,5.6-7.6
		c0.9-1,1.8-1.8,2.6-2.4c2.5-2,4.5-2.6,5.5-2.9c2.5,13.3-3.4,25.1-7.5,31.3H53.1z"/>
	<path class="st11" d="M61.3,180.7c0-1.4-3.2-2.6-7.7-3.1c4-2.1,6.5-4.5,6-5.8c-0.6-1.3-4.1-1.2-8.6,0.1c3-3.6,4.5-6.8,3.4-7.8
		c-1-1-4.2,0.4-7.7,3.3c1.3-4.3,1.5-7.8,0.1-8.4c-1.3-0.6-3.8,2-6,6.1c-0.4-4.6-1.7-8-3.1-8c-1.4,0-2.6,3.2-3.1,7.7
		c-2.1-4-4.5-6.5-5.8-6c-1.3,0.6-1.2,4.1,0.1,8.6c-3.6-3-6.8-4.5-7.8-3.4c-1,1,0.4,4.2,3.3,7.7c-4.3-1.3-7.8-1.5-8.4-0.1
		c-0.6,1.3,2,3.8,6.1,6c-4.6,0.4-8,1.7-8,3.1c0,1.4,3.2,2.6,7.7,3.1c-4,2.1-6.5,4.5-6,5.8c0.6,1.3,4.1,1.2,8.6-0.1
		c-3,3.6-4.5,6.8-3.4,7.8c1,1,4.2-0.4,7.7-3.3c-1.3,4.3-1.5,7.8-0.1,8.4c1.3,0.6,3.8-2,6-6.1c0.4,4.6,1.7,8,3.1,8
		c1.4,0,2.6-3.2,3.1-7.7c2.1,4,4.5,6.5,5.8,6c1.3-0.6,1.2-4.1-0.1-8.6c3.6,3,6.8,4.5,7.8,3.4c1-1-0.4-4.2-3.3-7.7
		c4.3,1.3,7.8,1.5,8.4,0.1c0.6-1.3-2-3.8-6.1-6C58,183.4,61.3,182.1,61.3,180.7z"/>
	<g class="st8">
		<g>
			<g>
				<path class="st1" d="M16.9,171.9c0.1-0.2,0.6-0.4,1.6-0.4c1.2,0,3,0.2,5.4,1c-0.7-0.8-1.3-1.6-1.8-2.4c-3.4-0.7-6.2-0.6-6.9,1.1
					c-0.7,1.7,1.3,3.8,4.2,5.8c1-0.2,1.9-0.3,3-0.4C18.4,174.4,16.7,172.4,16.9,171.9z"/>
			</g>
			<g>
				<path class="st1" d="M28.5,158c-1.7,0.7-1.8,3.6-1.1,7c0.8,0.5,1.6,1.2,2.4,1.8c-1.2-4.3-1.1-6.9-0.6-7.1c0,0,0.1,0,0.1,0
					c0.6,0,2.5,1.7,4.5,5.4c0.1-1,0.2-2,0.4-3C32.2,159.2,30.1,157.3,28.5,158z"/>
			</g>
			<g>
				<path class="st1" d="M47.2,158.1c-1.3-0.5-2.8,0.3-4.6,2.6c-0.4,0.5-0.8,1-1.2,1.6c0.2,0.9,0.3,1.9,0.4,2.9
					c0.7-1.3,1.5-2.5,2.2-3.4c1.4-1.7,2.2-2,2.4-2c0,0,0,0,0,0c0.1,0,0.6,0.7,0.3,3.1c-0.1,1.2-0.4,2.5-0.8,3.9
					c0.8-0.7,1.6-1.3,2.4-1.8c0.1-0.7,0.2-1.3,0.3-1.8C48.9,160.3,48.5,158.6,47.2,158.1z"/>
			</g>
			<g>
				<path class="st1" d="M60.4,171.4c-0.7-1.7-3.5-1.8-7-1.1c-0.5,0.8-1.2,1.6-1.8,2.4c4.3-1.3,6.9-1.1,7.1-0.6
					c0.2,0.5-1.5,2.4-5.3,4.5c1,0.1,2,0.2,2.9,0.4C59.2,175.1,61.1,173,60.4,171.4z"/>
			</g>
			<g>
				<path class="st1" d="M56.1,184.3c-1,0.2-2,0.3-3,0.4c3.9,2.2,5.7,4.1,5.5,4.6c-0.2,0.5-2.7,0.7-6.9-0.6c0.7,0.8,1.2,1.6,1.8,2.4
					c1.2,0.3,2.4,0.4,3.4,0.4c1.7,0,3-0.4,3.4-1.5C61,188.4,59.1,186.3,56.1,184.3z"/>
			</g>
			<g>
				<path class="st1" d="M48.1,196.2c-0.8-0.6-1.6-1.2-2.4-1.9c1.3,4.3,1.1,7,0.6,7.2c-0.5,0.2-2.4-1.5-4.5-5.3c-0.1,1-0.2,2-0.4,3
					c1.6,2.5,3.4,4.2,4.9,4.2c0.3,0,0.5,0,0.7-0.1C48.7,202.6,48.8,199.7,48.1,196.2z"/>
			</g>
			<g>
				<path class="st1" d="M33.7,195.9c-2.2,4-4.2,5.7-4.7,5.5c-0.5-0.2-0.7-2.7,0.6-6.9c-0.8,0.7-1.6,1.3-2.4,1.8
					c-0.7,3.3-0.5,6.1,1.1,6.8c0.2,0.1,0.5,0.1,0.7,0.1c1.6,0,3.4-1.8,5.1-4.4C33.9,198,33.8,197,33.7,195.9z"/>
			</g>
			<g>
				<path class="st1" d="M16.8,189.2c-0.2-0.5,1.5-2.4,5.3-4.5c-1-0.1-2-0.2-2.9-0.4c-2.9,1.9-4.8,4-4.1,5.6
					c0.4,1.1,1.8,1.5,3.5,1.5c1,0,2.3-0.1,3.6-0.4c0.6-0.8,1.2-1.6,1.9-2.4C19.7,189.9,17,189.7,16.8,189.2z"/>
			</g>
		</g>
		<g>
			<path class="st1" d="M62.2,180.6c0-2.9-6.6-4.2-12.7-4.2c-0.5,0-1.1,0-1.6,0c0.4-0.4,0.8-0.7,1.2-1.1c4.3-4.3,8-9.9,6-12
				c-2.1-2.1-7.7,1.7-12,6c-0.4,0.4-0.8,0.8-1.1,1.2c0-0.5,0-1.1,0-1.6c0-6.1-1.3-12.7-4.2-12.7c-2.9,0-4.2,6.6-4.2,12.7
				c0,0.5,0,1.1,0,1.6c-0.4-0.4-0.7-0.8-1.1-1.2c-4.3-4.3-9.9-8.1-12-6c-2.1,2.1,1.7,7.7,6,12c0.4,0.4,0.8,0.8,1.2,1.1
				c-0.5,0-1.1,0-1.6,0c-6.1,0-12.7,1.3-12.7,4.2c0,2.9,6.6,4.2,12.7,4.2c0.5,0,1.1,0,1.6,0c-0.4,0.4-0.8,0.7-1.2,1.1
				c-4.3,4.3-8.1,9.9-6,12c0.4,0.4,0.9,0.6,1.6,0.6c2.6,0,6.9-3.1,10.4-6.6c0.4-0.4,0.8-0.8,1.1-1.2c0,0.5,0,1.1,0,1.6
				c0,6.1,1.3,12.7,4.2,12.7c2.9,0,4.2-6.6,4.2-12.7c0-0.5,0-1.1,0-1.6c0.4,0.4,0.7,0.8,1.1,1.2c3.5,3.5,7.8,6.6,10.4,6.6
				c0.6,0,1.2-0.2,1.6-0.6c2.1-2.1-1.7-7.6-6-12c-0.4-0.4-0.8-0.8-1.2-1.1c0.5,0,1.1,0,1.6,0C55.6,184.9,62.2,183.6,62.2,180.6z
				 M45.6,182.8c-2.2-0.2-3.9-0.6-5-1c1.1,0.5,2.6,1.4,4.3,2.8c0.9,0.7,1.9,1.6,2.9,2.7c5,5,6.5,8.9,6,9.3c-0.5,0.5-4.4-1-9.3-6
				c-1-1-1.9-2-2.7-2.9c-1.3-1.6-2.2-3.1-2.8-4.1c0.4,1.2,0.8,2.8,1,4.9c0.1,1.2,0.2,2.5,0.2,3.9c0,7-1.7,10.8-2.4,10.8
				c-0.7,0-2.4-3.8-2.4-10.8c0-1.5,0.1-2.8,0.2-3.9c0.2-2,0.5-3.6,0.9-4.8c-0.6,1.1-1.4,2.4-2.7,4c-0.7,0.9-1.6,1.9-2.7,2.9
				c-5,5-8.9,6.5-9.3,6c-0.5-0.5,1-4.4,6-9.3c1-1,2-1.9,2.9-2.7c1.7-1.4,3.1-2.3,4.2-2.8c-1.2,0.4-2.8,0.8-5,1
				c-1.2,0.1-2.5,0.2-4,0.2c-7,0-10.8-1.7-10.8-2.4c0-0.7,3.8-2.4,10.8-2.4c1.5,0,2.8,0.1,4,0.2c2.2,0.2,3.8,0.6,5,1
				c-0.2-0.1-0.5-0.3-0.8-0.4c-1.1-0.6-2.2-1.4-3.4-2.4c-1-0.8-2-1.7-3-2.7c-5-5-6.5-8.9-6-9.3c0.1-0.1,0.1-0.1,0.3-0.1
				c1.1,0,4.6,1.7,9,6.1c1,1,1.9,2,2.7,2.9c1.3,1.6,2.2,3.1,2.8,4.1c-0.4-1.2-0.8-2.8-1-4.9c-0.1-1.2-0.2-2.5-0.2-3.9
				c0-7,1.7-10.8,2.4-10.8c0.7,0,2.4,3.8,2.4,10.8c0,1.5-0.1,2.8-0.2,3.9c-0.2,2.2-0.6,3.8-1,5c0.5-1.1,1.4-2.5,2.8-4.2
				c0.7-0.9,1.6-1.9,2.7-3c4.4-4.4,7.9-6.1,9-6.1c0.1,0,0.3,0,0.3,0.1c0.5,0.5-1,4.4-6,9.3c-1,1-2,1.9-3,2.7c-1.2,1-2.3,1.8-3.4,2.4
				c-0.3,0.2-0.6,0.3-0.8,0.4c1.2-0.4,2.8-0.8,5-1c1.2-0.1,2.5-0.2,4-0.2c7,0,10.8,1.7,10.8,2.4c0,0.7-3.8,2.4-10.8,2.4
				C48.1,183,46.7,183,45.6,182.8z"/>
		</g>
	</g>
	<g class="st8">
		<circle class="st0" cx="37.8" cy="180.7" r="4.6"/>
		<path class="st1" d="M37.8,186.2c-1.8,0-3.6-0.9-4.7-2.6c-1.7-2.6-0.9-6,1.7-7.7c2.6-1.7,6-0.9,7.7,1.7v0c1.7,2.6,0.9,6-1.7,7.7
			C39.9,186,38.8,186.2,37.8,186.2z M37.8,177c-0.7,0-1.4,0.2-2,0.6c-1.7,1.1-2.2,3.4-1.1,5.1c1.1,1.7,3.4,2.2,5.1,1.1
			c1.7-1.1,2.2-3.4,1.1-5.1l0,0C40.2,177.6,39,177,37.8,177z"/>
	</g>
</g>
</svg>
