<?xml version="1.0" encoding="utf-8"?>
<!-- Generator: Adobe Illustrator 27.9.0, SVG Export Plug-In . SVG Version: 6.00 Build 0)  -->
<svg version="1.1" id="Layer_1" xmlns="http://www.w3.org/2000/svg" xmlns:xlink="http://www.w3.org/1999/xlink" x="0px" y="0px"
	 viewBox="0 0 400 300" style="enable-background:new 0 0 400 300;" xml:space="preserve">
<style type="text/css">
	.st0{fill:#FFFFFF;}
	.st1{fill:#D1D3D4;}
	.st2{fill:#231F20;}
	.st3{fill:#484948;}
	.st4{fill:url(#path7258_00000140731859515338483120000002610151496488270526_);}
	.st5{fill:none;}
	.st6{fill:#BE202E;}
	.st7{opacity:0.35;fill:#BE202E;enable-background:new    ;}
	.st8{fill:url(#path7286_00000145767916559197671260000017656583400597370037_);}
	.st9{fill:url(#path7298_00000179604861856005583000000004968976793024461750_);}
	.st10{fill:url(#path7310_00000182511103667574928650000013143916163624435586_);}
	.st11{fill:url(#path7322_00000039853634881281836910000010528298372941910423_);}
	.st12{fill:url(#path7334_00000171696269636885908400000005284422856252287413_);}
	.st13{fill:url(#path7346_00000122707427583481426930000000309861116131340212_);}
	.st14{fill:url(#path7362_00000037666644476909052480000005431033439420133809_);}
	.st15{fill:url(#path7378_00000002386155177474846030000011158673797806543272_);}
	.st16{fill:url(#path7394_00000109719115134261455330000000181917569683472281_);}
	.st17{fill:url(#path4710_00000064353211617333539990000006236798577749582978_);}
	.st18{fill:url(#path4737_00000167374421271022394850000014602643641771004089_);}
	.st19{fill:url(#path4748_00000027564512384707464790000003632422548909129874_);}
	.st20{fill:url(#path4759_00000034794686083062862940000010830578077124526465_);}
	.st21{fill:url(#path4770_00000183220526242635339950000017393907891761171077_);}
	.st22{fill:url(#path4781_00000146496273899381752440000001568413731985738887_);}
	.st23{fill:url(#path4792_00000160166986364112661400000017377686552734128317_);}
	.st24{fill:url(#path4807_00000150800253517343341620000016268591638342719372_);}
	.st25{fill:url(#path4822_00000149383502433884280310000010613297279326844560_);}
	.st26{fill:url(#path4837_00000088116515457406707040000001013578182556575404_);}
	.st27{display:none;}
	.st28{display:inline;}
	.st29{display:inline;fill:#FFFFFF;}
	.st30{display:inline;fill:#231F20;}
	.st31{display:inline;fill:#484948;}
</style>
<g>
	<path class="st0" d="M232.6,56.7v186.2c0,4.4-4.5,7.9-10.2,7.9H20.7c-5.6,0-10.2-3.5-10.2-7.9V56.7c0-4.4,4.5-7.9,10.2-7.9h201.7
		C228,48.8,232.6,52.3,232.6,56.7z"/>
	<path class="st1" d="M9.1,242.9V56.6c0-4.9,5.1-8.9,11.5-8.9h201.9c6.3,0,11.5,4,11.5,8.9v186.2c0,4.9-5.1,8.9-11.5,8.9H20.7
		C14.4,251.8,9.2,247.9,9.1,242.9C9.1,242.9,9.1,242.9,9.1,242.9z M231.1,56.6c0-3.7-3.9-6.7-8.6-6.7H20.7c-4.8,0-8.6,3-8.6,6.7l0,0
		v186.2c0,3.7,3.9,6.7,8.6,6.7l0,0h201.7c4.8,0,8.6-3,8.6-6.7L231.1,56.6z"/>
	<path class="st1" d="M26,235.5V64.1c0-0.6,0.6-1.1,1.4-1.1h188.3c0.8,0,1.4,0.5,1.4,1.1v171.4c0,0.6-0.6,1.1-1.4,1.1H27.4
		C26.7,236.6,26,236.1,26,235.5L26,235.5z M28.9,65.1v169.3h185.4V65.2L28.9,65.1z"/>
	<g id="_488_dna_flatline">
		<path class="st2" d="M278,274.2l-2,14.5c0,0,89.1,1.1,88,0c-1.1-1.1,0-22.4,0-22.4L278,274.2z"/>
		<path class="st2" d="M342.4,289.8c-5.8,0-13.1,0-22.5-0.1c-21.7-0.1-43.6-0.4-43.9-0.4c-0.2,0-0.3-0.1-0.4-0.2
			c-0.1-0.1-0.2-0.3-0.1-0.4l2-14.5c0-0.3,0.2-0.5,0.5-0.5l86-7.9c0.2,0,0.3,0.1,0.4,0.2c0.1,0.1,0.2,0.3,0.2,0.4
			c-0.5,9.9-0.7,21-0.1,22c0.2,0.2,0.2,0.4,0.1,0.6C364.4,289.4,364.2,289.8,342.4,289.8z M363.5,289c0,0.1,0.1,0.1,0.1,0.2
			C363.6,289.1,363.6,289,363.5,289L363.5,289z M276.6,288.2c32.8,0.4,81.2,0.7,86.7,0.2c-0.6-3.1-0.2-14.2,0.1-21.4l-85,7.8
			L276.6,288.2z"/>
		<path class="st0" d="M237,163.6l-5.5-7.3c0,0-0.2-20-2.8-22.5c-2.6-2.5-20.9-7.9-21.6-6.3c-0.8,1.7,0.5,3.6,2.9,4.5
			c2.3,0.9,10.7,2.6,11.6,4.4c0.9,1.9,1.2,6.6-1.4,7.4c-2.6,0.9-7.7-9.6-10.2-10.3c-2.5-0.7-4.6,0-4.4,1.8
			c0.2,1.8,6.5,16.1,8.4,20.5c1.9,4.4,10,12.3,10,12.3L237,163.6z"/>
		<path class="st2" d="M224.1,168.9c-0.1,0-0.2,0-0.3-0.1c-0.3-0.3-8.2-8-10.1-12.4c-5.5-12.6-8.3-19.4-8.5-20.7
			c-0.1-0.7,0.2-1.4,0.7-1.9c0.9-0.8,2.5-0.9,4.3-0.4c1.3,0.3,2.8,2.5,4.6,4.9s4.2,5.7,5.3,5.3c0.6-0.2,1.1-0.8,1.4-1.4
			c0.6-1.8,0.5-3.7-0.2-5.4c-0.5-1.1-5.2-2.4-7.9-3.2c-1.4-0.4-2.7-0.8-3.4-1c-1.4-0.5-2.5-1.5-3.1-2.8c-0.3-0.8-0.3-1.6,0-2.4
			c0.2-0.3,0.5-0.5,0.8-0.5c3.2-0.6,19.1,4.3,21.5,6.6c2.5,2.4,2.9,20,2.9,22.7l5.4,7.2c0.2,0.2,0.1,0.5-0.1,0.7
			c0,0-0.1,0.1-0.1,0.1l-12.9,4.8L224.1,168.9z M208.3,134c-0.6,0-1.3,0.1-1.8,0.5c-0.3,0.3-0.5,0.7-0.4,1.1c0.1,0.8,1.6,5,8.4,20.4
			c1.7,3.9,8.5,10.7,9.7,11.9l12.1-4.5l-5.1-6.8c-0.1-0.1-0.1-0.2-0.1-0.3c-0.1-8-0.8-20.4-2.6-22.1c-2.7-2.6-19.6-7.3-20.9-6.3
			c-0.2,0.5-0.2,1.1,0,1.6c0.5,1.1,1.5,1.9,2.6,2.3c1.1,0.4,2.2,0.7,3.3,1c4.4,1.2,7.9,2.3,8.5,3.7c0.8,2,0.9,4.2,0.2,6.2
			c-0.3,0.9-1,1.6-1.9,1.9c-1.8,0.6-4-2.4-6.4-5.6c-1.5-2-3.1-4.3-4.1-4.6C209.4,134.1,208.8,134,208.3,134z"/>
		<path d="M154.2,111.9c0.1,0.2,55.9,20.5,62.4,22.3c0.8,0.2,1.3,1,1,1.8c0,0,0,0.1,0,0.1l0,0c-0.3,0.8-1.1,1.1-1.9,0.9l-60.3-23.4
			C154.7,113.3,154.2,112.6,154.2,111.9L154.2,111.9z"/>
		<path class="st0" d="M309.2,98.5c0.2-0.3,0.4-0.7,0.6-1c7.2-11.2,22.6-12.2,32.6-3.9c0.7,0.7,1.5,1.2,2.4,1.6
			c1.1,0.3,2.2,0.4,3.3,0.4c3.9,0.5,6.6,4,8.7,7.2c6.3,9.5,7.4,25.2,7.4,36.4c0,8.7-2.1,17.7-7.4,24.6c-7.6,9.8-20.5,13.9-32.9,15
			c-13.7,1.2-28.9-1.6-37.7-12.2c-3.7-4.4-5.9-10.6-4-16c1.7-4.7,6.1-7.8,9.4-11.6C301.5,128,301.6,111.2,309.2,98.5z"/>
		<path class="st2" d="M318.1,179.7c-14,0-25.6-4.5-32.3-12.6c-3.4-4.1-6.2-10.6-4-16.6c1.3-3.5,3.9-6.1,6.5-8.6c1-1,2.1-2.1,3-3.1
			c5.4-6.2,7.9-14.4,10.3-22.3c1.9-6.2,3.8-12.6,7.1-18.2l0,0c0.2-0.3,0.4-0.7,0.6-1c3.3-5.1,8.6-8.5,14.5-9.4
			c6.8-1,13.6,0.9,18.9,5.3l0.3,0.2c0.6,0.5,1.2,1,1.9,1.3c0.7,0.2,1.3,0.3,2,0.3c0.4,0,0.8,0,1.2,0.1c4.1,0.5,6.9,4.1,9.1,7.5
			c5,7.5,7.5,19.9,7.5,36.7c0,7-1.3,16.9-7.5,25c-8.5,11-22.8,14.3-33.3,15.2C322,179.6,320,179.7,318.1,179.7z M309.6,98.8
			c-3.3,5.4-5.2,11.8-7,17.9c-2.4,8-4.9,16.3-10.5,22.7c-0.9,1.1-2.1,2.2-3.1,3.2c-2.6,2.6-5.1,5-6.2,8.2c-2,5.5,0.7,11.6,3.9,15.5
			c7.4,9,20.9,13.3,37.2,11.9c10.3-0.9,24.2-4.1,32.5-14.8c6-7.8,7.3-17.5,7.3-24.3c0-16.6-2.4-28.7-7.3-36.1
			c-2.1-3.2-4.7-6.5-8.4-7c-0.4,0-0.7-0.1-1.1-0.1c-1.7,0.1-3.4-0.6-4.6-1.9L342,94c-5-4.2-11.6-6-18-5.1
			c-5.7,0.8-10.7,4.1-13.8,8.9L309.6,98.8L309.6,98.8z"/>
		<path class="st3" d="M368.1,279.6c3.2-20.7,15.3-105.7,1.4-119.3c-15.9-15.5-59.6-14.8-67.6-0.8c-4.3,7.6-16.6,20.4-17.5,37
			c-1.3,23.6-8.4,68-10.1,83.1L368.1,279.6z"/>
		<polygon class="st0" points="332.8,279.6 342.6,159.5 317.8,162.1 304.3,279.6 		"/>
		<path class="st0" d="M319.2,146.7l-1.4,15.5c0,0,4.7,5.4,11,5.9c10.3,0.8,13.8-8.5,13.8-8.5c0.8-13.9,1.8-27.7,2-41.6
			c0-0.3,0-0.6-0.2-0.9c-0.3-0.3-0.8-0.4-1.2-0.2l-4.1,0.5l-0.4-7.7c-1,1.3-1.9,2.6-2.7,4.1l-11.4-1l-1.3-6.9
			c-0.9,0.9-0.9,2.3-1,3.6c-0.2,1.3-0.7,2.7-1.9,3.1c-0.6,0.1-1.1,0.1-1.7-0.1l-8.6-1.7c-0.1,0-1.5,23.2-1.4,25.1
			C309.1,143.9,319.2,146.7,319.2,146.7z"/>
		<path class="st2" d="M330.1,168.7c-0.4,0-0.9,0-1.3,0c-6.5-0.5-11.2-5.9-11.4-6.1c-0.1-0.1-0.2-0.3-0.1-0.4l1.4-15
			c-2-0.6-10-3.7-10.4-11.2c-0.1-1.2,0.4-9.7,0.6-13.3c0.7-12,0.8-12,0.9-12.2c0.1-0.1,0.3-0.2,0.5-0.1l8.6,1.7
			c0.5,0.1,1,0.1,1.4,0.1c1.1-0.3,1.4-1.9,1.5-2.6l0.1-0.5c0-1.2,0.4-2.4,1.1-3.4c0.1-0.2,0.4-0.2,0.6-0.2c0.2,0.1,0.4,0.2,0.4,0.4
			l1.2,6.5l10.6,0.9c0.7-1.4,1.6-2.6,2.6-3.8c0.1-0.2,0.4-0.2,0.6-0.2c0.2,0.1,0.4,0.3,0.4,0.5l0.4,7.1l3.5-0.4
			c0.6-0.1,1.2,0,1.7,0.4c0.3,0.4,0.4,0.8,0.3,1.2c-0.2,10.6-0.8,21.4-1.4,31.9c-0.2,3.3-0.4,6.6-0.6,9.8c0,0.1,0,0.1,0,0.2
			C343,159.8,339.7,168.7,330.1,168.7z M318.3,161.9c0.9,0.9,5.1,5.1,10.5,5.6c9.4,0.7,12.8-7.2,13.1-8.1c0.2-3.2,0.4-6.5,0.6-9.7
			c0.6-10.4,1.3-21.2,1.4-31.8c0-0.2,0-0.3-0.1-0.5c0-0.1-0.2-0.1-0.7,0l-4.1,0.5c-0.2,0-0.3,0-0.4-0.1c-0.1-0.1-0.2-0.2-0.2-0.4
			l-0.3-6.2c-0.6,0.9-1.2,1.8-1.7,2.8c-0.1,0.2-0.3,0.3-0.5,0.3l-11.4-1c-0.2,0-0.5-0.2-0.5-0.5l-1-5.3c-0.1,0.5-0.2,0.9-0.2,1.4
			l-0.1,0.5c-0.2,1.9-1.1,3.2-2.3,3.5c-0.6,0.1-1.3,0.1-2-0.1l-8-1.6c-0.3,3.6-1.5,22.8-1.4,24.4c0.4,7.6,10,10.3,10.1,10.3
			c0.3,0.1,0.4,0.3,0.4,0.6L318.3,161.9z"/>
		<path class="st0" d="M337.5,129.2c1.5-3.5,5.2-5.5,8.9-4.8c4.4,1.1,3.9,6.2,2.2,9.4c-2.2,4-7.2,5.4-11.2,3.2c0,0-0.1,0-0.1-0.1"/>
		<path class="st2" d="M341.4,138.5c-1.5,0-3-0.4-4.4-1.1c-0.3-0.1-0.4-0.4-0.3-0.7c0.1-0.3,0.4-0.4,0.7-0.3c0.1,0,0.1,0.1,0.2,0.1
			c3.7,2.1,8.4,0.8,10.5-2.8c0,0,0-0.1,0.1-0.1c1-1.9,1.7-4.5,0.8-6.4c-0.5-1.1-1.5-1.9-2.6-2.1c-3.4-0.6-6.9,1.2-8.2,4.4
			c-0.1,0.3-0.4,0.4-0.7,0.3c0,0,0,0,0,0c-0.3-0.1-0.4-0.4-0.3-0.7c1.3-3.6,5.9-6.1,9.6-5.1c1.5,0.3,2.8,1.3,3.4,2.8
			c1,2.4,0.2,5.5-0.9,7.4C347.5,136.9,344.6,138.6,341.4,138.5L341.4,138.5z"/>
		<path class="st0" d="M320.5,119.6c0,0-6.5,7.3-5.4,8.9c1.1,1.6,4.8,1.1,4.8,1.1"/>
		<path class="st2" d="M318.8,130.3c-1.3,0-3.3-0.2-4.1-1.4c-1.2-1.7,3.4-7.3,5.4-9.6c0.2-0.2,0.6-0.2,0.8,0c0,0,0,0,0,0
			c0.2,0.2,0.3,0.6,0.1,0.8c0,0,0,0,0,0c-3.2,3.7-5.8,7.6-5.4,8.2c0.7,1.1,3.4,1,4.3,0.9c0.3,0,0.6,0.2,0.6,0.5c0,0,0,0,0,0
			c0,0.3-0.2,0.6-0.5,0.6c0,0,0,0,0,0C319.6,130.3,319.2,130.3,318.8,130.3z"/>
		<path class="st2" d="M319.2,146.7c0,0,5.8,1.6,13.2-2.3c0,0-3.6,10.7-14,10.7L319.2,146.7z"/>
		<path class="st2" d="M318.4,155.6c-0.3,0-0.6-0.2-0.6-0.5c0,0,0,0,0-0.1l0.8-8.4c0-0.2,0.1-0.3,0.2-0.4c0.1-0.1,0.3-0.1,0.5-0.1
			c0.1,0,5.7,1.5,12.8-2.2c0.3-0.1,0.6,0,0.7,0.2c0.1,0.1,0.1,0.3,0,0.4C332.9,144.6,329,155.6,318.4,155.6z M319.7,147.3l-0.7,7.1
			c7.2-0.3,11-6.2,12.3-8.9C327.7,147.3,323.6,147.9,319.7,147.3z"/>
		
			<ellipse transform="matrix(3.316162e-03 -1 1 3.316162e-03 206.8614 448.7941)" class="st2" cx="328.6" cy="120.6" rx="2.5" ry="1.1"/>
		
			<ellipse transform="matrix(5.617004e-02 -0.9984 0.9984 5.617004e-02 177.5573 427.0148)" class="st2" cx="314.6" cy="119.6" rx="2.5" ry="1.1"/>
		<path class="st2" d="M321,135.2c-1.7,0-3.4-0.4-5-0.9c-0.2-0.1-0.4-0.1-0.6-0.2c-0.3,0-0.6-0.3-0.6-0.6c0-0.3,0.3-0.6,0.6-0.6
			c0,0,0.1,0,0.1,0c0.3,0.1,0.6,0.1,0.8,0.2c2.4,0.8,8.6,2.9,12-4.1c0.1-0.3,0.5-0.4,0.7-0.3c0,0,0,0,0,0c0.3,0.1,0.4,0.5,0.3,0.8
			C327.2,134,323.9,135.2,321,135.2z"/>
		<path class="st3" d="M264,198.4c-4.1-2-27.4-41.4-27.4-41.4l-17,14c0.3,2.6,19.2,70.1,36.4,66.9s54.3-25.2,54.3-25.2l-8.5-53.1
			C301.9,159.5,268.1,200.4,264,198.4z"/>
		<path class="st2" d="M276,266.9h-0.1c-0.3-0.1-0.5-0.3-0.5-0.6l14.7-85c0.1-0.3,0.3-0.5,0.6-0.5c0.3,0,0.5,0.3,0.5,0.6
			c0,0,0,0,0,0l-14.7,85C276.5,266.7,276.3,266.9,276,266.9z"/>
		<polygon class="st0" points="308.7,269.1 304.2,217.6 259.2,222.1 262.9,274.2 		"/>
		<path class="st2" d="M262.9,274.8c-0.1,0-0.3,0-0.4-0.1c-0.1-0.1-0.2-0.2-0.2-0.4l-3.8-52.1c0-0.3,0.2-0.6,0.5-0.6l45-4.5
			c0.1,0,0.3,0,0.4,0.1c0.1,0.1,0.2,0.2,0.2,0.4l4.4,51.6c0,0.3-0.2,0.6-0.5,0.6c0,0,0,0,0,0l-45.7,5.1H262.9z M259.8,222.6l3.6,51
			l44.7-4.9l-4.3-50.5L259.8,222.6z"/>
		<path class="st0" d="M322.5,243.9c0,0-10.1-11.3-13.1-10c-3,1.2-17.6,5.3-17.8,7.8c-0.2,2.5,8.6,0.2,8.6,0.2s-12.7,3.8-12.2,6.3
			s11.7-0.7,11.7-0.7s-11.3,3-10.7,5.4s12.9,0,12.9,0s-13.2,3.9-10.3,5.1c2.9,1.2,14.2-4.1,15.3-2.7c1.1,1.4,15.6,4.1,15.6,4.1
			L322.5,243.9z"/>
		<path class="st2" d="M322.5,259.9h-0.1c-3.5-0.6-14.8-2.8-16-4.3c-0.5-0.3-3.6,0.7-5.9,1.3c-3.7,1.1-7.5,2.3-9.2,1.5
			c-0.7-0.3-0.8-0.7-0.8-0.9c0-0.9,2.2-2,5-3.1c-3.4,0.3-6.7,0.2-7.1-1.3c-0.1-0.4,0-0.8,0.2-1.1c0.9-1.1,2-1.9,3.3-2.3
			c-1.3,0.2-2.6,0.1-3.8-0.4c-0.4-0.2-0.6-0.5-0.7-0.9c-0.1-0.6,0.2-2.3,6.4-4.8c-0.8,0.1-1.6-0.1-2.3-0.6c-0.4-0.3-0.5-0.7-0.5-1.2
			c0.1-2,5.2-4,14.5-7.1c1.6-0.5,2.9-0.9,3.6-1.2c3.3-1.3,12.1,8.2,13.8,10.2c0.1,0.1,0.1,0.2,0.1,0.4v15.4c0,0.2-0.1,0.3-0.2,0.4
			C322.7,259.9,322.6,259.9,322.5,259.9z M306.1,254.5c0.5,0,0.9,0.1,1.2,0.4c0.7,0.7,7.8,2.5,14.6,3.8v-14.5
			c-4.1-4.5-10.6-10.5-12.4-9.7c-0.7,0.3-2,0.7-3.7,1.3c-3.8,1.2-13.6,4.5-13.7,6.1c0,0.1,0,0.2,0.1,0.3c0.9,0.8,5.1,0.1,7.8-0.7
			c0.3-0.1,0.6,0.1,0.7,0.4c0.1,0.3-0.1,0.6-0.4,0.7c-6.6,1.9-12,4.5-11.8,5.6c0,0,0,0.1,0.2,0.2c1.3,0.8,6.6-0.2,10-1.1l0.7-0.2
			c0.3-0.1,0.6,0.1,0.7,0.4c0.1,0.3-0.1,0.6-0.4,0.7c0,0,0,0,0,0l-0.7,0.2c-3.5,1-8.7,2.9-9.5,4.3c-0.1,0.2-0.1,0.2-0.1,0.3
			c0.3,1,6,0.8,12.2-0.4c0.3-0.1,0.6,0.1,0.7,0.4s-0.1,0.6-0.4,0.7c-4.4,1.3-9.4,3.2-10.2,4c1.4,0.5,5.3-0.7,8.5-1.6
			C303.1,255,304.9,254.5,306.1,254.5z"/>
		<path class="st3" d="M371.7,163.8c0.4,0.9,34,80.9,16.9,91.4c-17.1,10.5-70.2,6.4-70.2,6.4l2.1-23.7l42.7-5.7L371.7,163.8z"/>
		<path class="st2" d="M328.7,126.4c-3,0-7.4-0.5-8.5-1.2c-0.7-0.5-1.2-1.1-1.5-1.9l0,0c-0.3,0.6-0.9,1.5-1.8,1.5l0,0
			c-0.1,0-7.7-0.3-9.8-2.3c-2-1.8-1.4-7.6-1.4-8.3c0-0.3,0.3-0.5,0.6-0.5l28.3,2.7c0.3,0,0.5,0.3,0.5,0.6c0,0,0,0,0,0.1
			c-0.4,2-2,8.6-4.1,9.2C330.3,126.3,329.5,126.4,328.7,126.4z M318.8,121.8c0.1,0,0.3,0,0.4,0.1c0.3,0.2,0.5,0.5,0.6,0.9
			c0.2,0.6,0.6,1,1.1,1.4c0.9,0.7,7.9,1.4,9.9,0.9c0.9-0.2,2.3-4.1,3.2-7.7l-27.2-2.6c-0.1,1.9-0.2,5.6,1.1,6.8c1.6,1.4,7.5,2,9.1,2
			c0.3,0,0.6-0.5,0.9-0.9C318,122.3,318.3,121.8,318.8,121.8L318.8,121.8z"/>
		<path class="st2" d="M346.4,124.9c-0.1,0-0.2,0-0.3-0.1l-12-6.7c-0.3-0.1-0.4-0.5-0.2-0.7c0,0,0,0,0,0c0.1-0.3,0.5-0.4,0.7-0.2
			c0,0,0,0,0,0l12,6.7c0.3,0.1,0.4,0.5,0.2,0.8C346.8,124.8,346.6,124.9,346.4,124.9L346.4,124.9z"/>
		<path class="st2" d="M322.5,238.5c-0.3,0-0.6-0.2-0.6-0.5c0-0.3,0.2-0.6,0.5-0.6l50.1-7.9c0.3,0,0.6,0.2,0.6,0.5
			c0,0.3-0.2,0.6-0.5,0.6L322.5,238.5L322.5,238.5z"/>
		<path class="st2" d="M365.8,230.6L365.8,230.6c-0.3,0-0.5-0.3-0.6-0.6c0.1-13.1-3.5-46.5-3.6-46.8c0-0.3,0.2-0.6,0.5-0.6
			s0.6,0.2,0.6,0.5l0,0c0,0.3,3.7,33.7,3.6,47C366.3,230.4,366.1,230.6,365.8,230.6z"/>
		
			<rect x="275.1" y="217.6" transform="matrix(0.9961 -8.872046e-02 8.872046e-02 0.9961 -18.4072 25.8836)" class="st2" width="13.7" height="4.9"/>
		<path class="st2" d="M275.4,223.6c-0.1,0-0.3,0-0.4-0.1c-0.1-0.1-0.2-0.2-0.2-0.4l-0.4-4.9c0-0.3,0.2-0.6,0.5-0.6l13.7-1.2
			c0.1,0,0.3,0,0.4,0.1c0.1,0.1,0.2,0.2,0.2,0.4l0.4,4.9c0,0.3-0.2,0.6-0.5,0.6c0,0,0,0,0,0L275.4,223.6L275.4,223.6z M275.5,218.7
			l0.3,3.8l12.5-1.1l-0.3-3.8L275.5,218.7z"/>
		<g id="g4855" transform="translate(385.61463,-191.53704)">
		</g>
	</g>
	<g id="g8927">
		<g id="g7248" transform="matrix(0.09561334,-0.07017507,0.07017507,0.09561334,132.73733,36.368381)">
			
				<linearGradient id="path7258_00000163786045994152992870000004137547519395434668_" gradientUnits="userSpaceOnUse" x1="-76587.25" y1="-94210.5078" x2="-76548.7812" y2="-94255.4922" gradientTransform="matrix(0.104 -5.699813e-02 -5.699813e-02 -0.104 1978.6707 -13546.8145)">
				<stop  offset="0" style="stop-color:#F69923"/>
				<stop  offset="0.3123" style="stop-color:#F79A23"/>
				<stop  offset="0.8383" style="stop-color:#E97826"/>
			</linearGradient>
			<path id="path7258" style="fill:url(#path7258_00000163786045994152992870000004137547519395434668_);" d="M-603.8,595.2
				c-4.3,2.5-11.4,9.7-19.8,20l7.8,14.7c5.4-7.8,11-14.8,16.6-20.8c0.4-0.5,0.7-0.7,0.7-0.7c-0.2,0.3-0.5,0.5-0.7,0.7
				c-1.8,2-7.3,8.4-15.6,21.2c8-0.4,20.2-2,30.3-3.8c3-16.7-2.9-24.3-2.9-24.3S-595.1,590-603.8,595.2z"/>
			<path id="path7260" class="st5" d="M-617.1,679c0.1,0,0.1,0,0.2-0.1l-1.1,0.1c-0.1,0.1-0.2,0.1-0.2,0.1
				C-617.8,679.1-617.4,679.1-617.1,679z"/>
			<path id="path7262" class="st5" d="M-625,705.3c-0.6,0.2-1.3,0.3-1.9,0.4C-626.3,705.6-625.6,705.5-625,705.3z"/>
			<path id="path7264" class="st5" d="M-679,764.3c0.1-0.2,0.2-0.5,0.3-0.7c1.7-4.5,3.4-8.9,5.1-13.2c1.9-4.8,3.8-9.5,5.6-14
				c1.9-4.7,3.9-9.4,5.7-13.8c2-4.7,3.9-9.2,5.8-13.5c1.6-3.5,3.1-6.9,4.6-10.2c0.5-1.1,1-2.2,1.5-3.3c1-2.1,2-4.2,2.9-6.3
				c0.9-1.9,1.8-3.7,2.6-5.5c0.3-0.6,0.6-1.2,0.9-1.8c0.1-0.1,0.1-0.2,0.2-0.3l-1,0.1l-0.8-1.5c-0.1,0.2-0.2,0.3-0.2,0.5
				c-1.4,2.7-2.7,5.4-4.1,8.2c-0.8,1.6-1.5,3.2-2.3,4.8c-2.1,4.5-4.2,8.9-6.3,13.5c-2.1,4.6-4.1,9.2-6.1,13.8
				c-2,4.5-3.9,9.1-5.7,13.6s-3.7,9-5.5,13.5c-1.9,4.7-3.7,9.3-5.4,13.9c-0.4,1-0.8,2.1-1.2,3.1c-1.4,3.7-2.8,7.3-4.1,10.9l1.2,2.4
				l1.1-0.1c0.1-0.1,0.1-0.2,0.1-0.3C-682.4,773.4-680.7,768.8-679,764.3z"/>
			<path id="path7266" class="st5" d="M-627.4,705.7L-627.4,705.7L-627.4,705.7L-627.4,705.7z"/>
			<path id="path7268" class="st6" d="M-630,718.6c-1,0.2-2,0.4-3.1,0.5l0,0c0.5-0.1,1.1-0.2,1.6-0.3
				C-631,718.8-630.5,718.7-630,718.6z"/>
			<path id="path7270" class="st7" d="M-630,718.6c-1,0.2-2,0.4-3.1,0.5l0,0c0.5-0.1,1.1-0.2,1.6-0.3
				C-631,718.8-630.5,718.7-630,718.6z"/>
			<path id="path7272" class="st6" d="M-627.4,705.7L-627.4,705.7C-627.4,705.7-627.4,705.7-627.4,705.7c0.2,0,0.3-0.1,0.5-0.1
				c0.7-0.1,1.3-0.2,1.9-0.4C-625.8,705.5-626.6,705.6-627.4,705.7L-627.4,705.7L-627.4,705.7z"/>
			<path id="path7274" class="st7" d="M-627.4,705.7L-627.4,705.7C-627.4,705.7-627.4,705.7-627.4,705.7c0.2,0,0.3-0.1,0.5-0.1
				c0.7-0.1,1.3-0.2,1.9-0.4C-625.8,705.5-626.6,705.6-627.4,705.7L-627.4,705.7L-627.4,705.7z"/>
			
				<linearGradient id="path7286_00000004516715041666031230000013550812964121521058_" gradientUnits="userSpaceOnUse" x1="-78547.6719" y1="-95596.1797" x2="-78273.2344" y2="-95596.1797" gradientTransform="matrix(0.104 -5.699813e-02 -5.699813e-02 -0.104 1978.6707 -13546.8145)">
				<stop  offset="0.3233" style="stop-color:#9E2064"/>
				<stop  offset="0.6302" style="stop-color:#C92037"/>
				<stop  offset="0.7514" style="stop-color:#CD2335"/>
				<stop  offset="1" style="stop-color:#E97826"/>
			</linearGradient>
			<path id="path7286" style="fill:url(#path7286_00000004516715041666031230000013550812964121521058_);" d="M-638.9,667.8
				c2.4-4.4,4.8-8.7,7.2-13c2.5-4.4,5-8.6,7.6-12.7c0.2-0.3,0.3-0.5,0.5-0.7c2.5-4,5.1-7.9,7.7-11.6l-7.8-14.6
				c-0.6,0.7-1.2,1.4-1.8,2.2c-2.2,2.8-4.6,5.8-7,9c-2.7,3.6-5.4,7.4-8.3,11.4c-2.6,3.7-5.2,7.6-7.9,11.6c-2.2,3.5-4.5,7-6.7,10.6
				c-0.1,0.2-0.2,0.3-0.3,0.4l10.1,20C-643.3,676.2-641.1,672-638.9,667.8z"/>
			
				<linearGradient id="path7298_00000174590177737410994540000013389526139191438227_" gradientUnits="userSpaceOnUse" x1="-78184.8906" y1="-95618.3828" x2="-78021.3516" y2="-95618.3828" gradientTransform="matrix(0.104 -5.699813e-02 -5.699813e-02 -0.104 1978.6707 -13546.8145)">
				<stop  offset="0" style="stop-color:#282662"/>
				<stop  offset="9.548389e-02" style="stop-color:#662E8D"/>
				<stop  offset="0.7882" style="stop-color:#9F2064"/>
				<stop  offset="0.9487" style="stop-color:#CD2032"/>
			</linearGradient>
			<path id="path7298" style="fill:url(#path7298_00000174590177737410994540000013389526139191438227_);" d="M-685,780.6
				c-1.3,3.7-2.7,7.4-4,11.3c0,0.1-0.1,0.1-0.1,0.2c-0.2,0.6-0.4,1.1-0.6,1.6c-0.9,2.6-1.7,4.9-3.5,10.2c3,1.4,5.4,4.9,7.6,9
				c-0.3-4.2-2-8.2-5.3-11.2c14.7,0.7,27.4-3.1,33.9-13.8c0.6-1,1.1-2,1.6-3.1c-3,3.8-6.7,5.4-13.6,5h-0.1h0.1
				c10.2-4.6,15.4-9,19.9-16.3c1.1-1.7,2.1-3.6,3.2-5.7c-8.9,9.2-19.3,11.8-30.3,9.8l-8.2,0.9C-684.5,779.2-684.8,779.8-685,780.6z"
				/>
			
				<linearGradient id="path7310_00000070107597273765084190000001241150349811997832_" gradientUnits="userSpaceOnUse" x1="-78455.5469" y1="-95502.0547" x2="-78181.1094" y2="-95502.0547" gradientTransform="matrix(0.104 -5.699813e-02 -5.699813e-02 -0.104 1978.6707 -13546.8145)">
				<stop  offset="0.3233" style="stop-color:#9E2064"/>
				<stop  offset="0.6302" style="stop-color:#C92037"/>
				<stop  offset="0.7514" style="stop-color:#CD2335"/>
				<stop  offset="1" style="stop-color:#E97826"/>
			</linearGradient>
			<path id="path7310" style="fill:url(#path7310_00000070107597273765084190000001241150349811997832_);" d="M-681.2,762.2
				c1.8-4.6,3.6-9.2,5.4-13.9c1.8-4.5,3.6-8.9,5.5-13.5s3.8-9.1,5.7-13.6c2-4.6,4-9.2,6.1-13.8c2-4.5,4.2-9.1,6.3-13.5
				c0.8-1.6,1.5-3.2,2.3-4.8c1.3-2.7,2.7-5.5,4.1-8.2c0.1-0.2,0.2-0.3,0.2-0.5l-10-19.9c-0.2,0.3-0.3,0.6-0.5,0.8
				c-2.3,3.9-4.7,7.8-7,11.8c-2.3,4.1-4.6,8.2-6.9,12.4c-1.9,3.6-3.7,7.1-5.5,10.7c-0.4,0.7-0.7,1.5-1.1,2.2
				c-2.2,4.5-4.2,8.9-6,13.2c-2,4.8-3.8,9.4-5.4,13.7c-1,2.8-2,5.6-2.8,8.2c-0.7,2.2-1.4,4.5-2,6.8c-1.5,5.3-2.8,10.6-3.9,15.9
				l10.2,20.1c1.3-3.6,2.7-7.2,4.1-10.9C-682,764.3-681.6,763.3-681.2,762.2z"/>
			
				<linearGradient id="path7322_00000124158109947537573610000012056044339781878454_" gradientUnits="userSpaceOnUse" x1="-78300.7344" y1="-95427.7578" x2="-78156.5156" y2="-95427.7578" gradientTransform="matrix(0.104 -5.699813e-02 -5.699813e-02 -0.104 1978.6707 -13546.8145)">
				<stop  offset="0" style="stop-color:#282662"/>
				<stop  offset="9.548389e-02" style="stop-color:#662E8D"/>
				<stop  offset="0.7882" style="stop-color:#9F2064"/>
				<stop  offset="0.9487" style="stop-color:#CD2032"/>
			</linearGradient>
			<path id="path7322" style="fill:url(#path7322_00000124158109947537573610000012056044339781878454_);" d="M-696.9,756.9
				c-1.3,6.4-2.2,12.8-2.6,19.2c0,0.2-0.1,0.5-0.1,0.7c-3.2-5.1-11.7-10.1-11.6-10c6.1,8.8,10.7,17.6,11.4,26.2
				c-3.3,0.7-7.7-0.3-12.9-2.2c5.4,4.9,9.4,6.3,11,6.7c-4.9,0.3-10.1,3.7-15.3,7.6c7.6-3.1,13.7-4.3,18.1-3.3
				c-7,19.7-13.9,41.4-20.9,64.5c2.1-0.6,3.4-2.1,4.1-4c1.2-4.2,9.5-31.6,22.4-67.7c0.4-1,0.8-2,1.1-3.1c0.1-0.3,0.2-0.6,0.3-0.9
				c1.4-3.8,2.8-7.6,4.3-11.6c0.4-0.9,0.7-1.8,1-2.7v-0.1l-10.2-20.1C-696.8,756.4-696.8,756.6-696.9,756.9z"/>
			
				<linearGradient id="path7334_00000074416460074297732760000016832175189404473989_" gradientUnits="userSpaceOnUse" x1="-78313.8594" y1="-95695.1016" x2="-78039.4219" y2="-95695.1016" gradientTransform="matrix(0.104 -5.699813e-02 -5.699813e-02 -0.104 1978.6707 -13546.8145)">
				<stop  offset="0.3233" style="stop-color:#9E2064"/>
				<stop  offset="0.6302" style="stop-color:#C92037"/>
				<stop  offset="0.7514" style="stop-color:#CD2335"/>
				<stop  offset="1" style="stop-color:#E97826"/>
			</linearGradient>
			<path id="path7334" style="fill:url(#path7334_00000074416460074297732760000016832175189404473989_);" d="M-643.9,682.2
				c-0.3,0.6-0.6,1.2-0.9,1.8c-0.9,1.8-1.8,3.7-2.6,5.5c-1,2-1.9,4.1-2.9,6.3c-0.5,1.1-1,2.1-1.5,3.3c-1.5,3.3-3.1,6.7-4.6,10.2
				c-1.9,4.3-3.9,8.8-5.8,13.5c-1.9,4.4-3.8,9.1-5.7,13.8c-1.8,4.5-3.7,9.2-5.6,14c-1.7,4.3-3.4,8.7-5.1,13.2
				c-0.1,0.2-0.2,0.5-0.3,0.7c-1.7,4.5-3.4,9.1-5.1,13.8c-0.1,0.1-0.1,0.2-0.1,0.3l8.2-0.9c-0.2-0.1-0.3-0.1-0.5-0.1
				c9.8-1.2,22.8-8.5,31.2-17.6c3.9-4.2,7.4-9.1,10.6-14.8c2.4-4.3,4.7-9,6.9-14.3c1.9-4.6,3.7-9.6,5.4-15c-2.2,1.2-4.8,2-7.7,2.6
				c-0.5,0.1-1,0.2-1.5,0.3s-1,0.2-1.6,0.3l0,0l0,0l0,0c9.2-3.5,14.9-10.3,19.1-18.6c-2.4,1.6-6.3,3.8-11,4.8
				c-0.6,0.2-1.3,0.3-1.9,0.4c-0.2,0-0.3,0.1-0.5,0.1l0,0l0,0l0,0l0,0l0,0c3.2-1.3,5.8-2.8,8.2-4.6c0.5-0.4,1-0.8,1.4-1.2
				c0.7-0.6,1.4-1.3,2-1.9c0.4-0.5,0.8-0.9,1.2-1.3c0.9-1.1,1.8-2.2,2.5-3.5c0.3-0.4,0.5-0.8,0.7-1.2c0.3-0.6,0.6-1.2,0.9-1.7
				c1.3-2.5,2.3-4.8,3.1-6.9c0.4-1,0.8-1.9,1.1-2.8c0.1-0.4,0.3-0.7,0.4-1c0.3-1,0.6-1.8,0.8-2.6c0.3-1.1,0.5-2,0.6-2.7l0,0l0,0
				c-0.3,0.3-0.7,0.5-1.1,0.7c-2.7,1.6-7.5,3.2-11.3,3.9l7.5-0.8l-7.5,0.8c-0.1,0-0.1,0-0.2,0.1c-0.4,0.1-0.8,0.1-1.2,0.2
				c0.1-0.1,0.2-0.1,0.2-0.1l-25.7,2.8C-643.8,682-643.8,682.1-643.9,682.2z"/>
			
				<linearGradient id="path7346_00000124151712044481409400000006145410777904894887_" gradientUnits="userSpaceOnUse" x1="-78436.4453" y1="-95770.6719" x2="-78162.0078" y2="-95770.6719" gradientTransform="matrix(0.104 -5.699813e-02 -5.699813e-02 -0.104 1978.6707 -13546.8145)">
				<stop  offset="0.3233" style="stop-color:#9E2064"/>
				<stop  offset="0.6302" style="stop-color:#C92037"/>
				<stop  offset="0.7514" style="stop-color:#CD2335"/>
				<stop  offset="1" style="stop-color:#E97826"/>
			</linearGradient>
			<path id="path7346" style="fill:url(#path7346_00000124151712044481409400000006145410777904894887_);" d="M-614.9,630.2
				c-2.3,3.5-4.8,7.5-7.5,12c-0.2,0.3-0.3,0.5-0.4,0.7c-2.3,3.9-4.8,8.2-7.4,12.9c-2.2,4.1-4.6,8.4-7,13.1c-2.1,4.1-4.3,8.4-6.6,13
				l25.7-2.8c7.5-3.5,10.8-6.6,14.1-11.1c0.9-1.2,1.7-2.5,2.6-3.9c2.6-4.1,5.2-8.6,7.5-13.2c2.2-4.4,4.2-8.7,5.7-12.6
				c1-2.5,1.7-4.8,2.3-6.8c0.5-1.8,0.8-3.5,1.1-5.1C-594.6,628.2-606.9,629.8-614.9,630.2z"/>
			<path id="path7348" class="st6" d="M-631.5,718.9c-0.5,0.1-1,0.2-1.6,0.3l0,0C-632.6,719-632.1,718.9-631.5,718.9z"/>
			<path id="path7350" class="st7" d="M-631.5,718.9c-0.5,0.1-1,0.2-1.6,0.3l0,0C-632.6,719-632.1,718.9-631.5,718.9z"/>
			
				<linearGradient id="path7362_00000156573321551357878960000008592869003582485674_" gradientUnits="userSpaceOnUse" x1="-78271.4219" y1="-95752.9219" x2="-77996.9844" y2="-95752.9219" gradientTransform="matrix(0.104 -5.699813e-02 -5.699813e-02 -0.104 1978.6707 -13546.8145)">
				<stop  offset="0.3233" style="stop-color:#9E2064"/>
				<stop  offset="0.6302" style="stop-color:#C92037"/>
				<stop  offset="0.7514" style="stop-color:#CD2335"/>
				<stop  offset="1" style="stop-color:#E97826"/>
			</linearGradient>
			<path id="path7362" style="fill:url(#path7362_00000156573321551357878960000008592869003582485674_);" d="M-631.5,718.9
				c-0.5,0.1-1,0.2-1.6,0.3l0,0C-632.6,719-632.1,718.9-631.5,718.9z"/>
			<path id="path7364" class="st6" d="M-627.4,705.7c0.2,0,0.3-0.1,0.5-0.1C-627.1,705.7-627.2,705.7-627.4,705.7L-627.4,705.7z"/>
			<path id="path7366" class="st7" d="M-627.4,705.7c0.2,0,0.3-0.1,0.5-0.1C-627.1,705.7-627.2,705.7-627.4,705.7L-627.4,705.7z"/>
			
				<linearGradient id="path7378_00000114032557743448061880000012382091118747688858_" gradientUnits="userSpaceOnUse" x1="-78276.4062" y1="-95746.1328" x2="-78001.9688" y2="-95746.1328" gradientTransform="matrix(0.104 -5.699813e-02 -5.699813e-02 -0.104 1978.6707 -13546.8145)">
				<stop  offset="0.3233" style="stop-color:#9E2064"/>
				<stop  offset="0.6302" style="stop-color:#C92037"/>
				<stop  offset="0.7514" style="stop-color:#CD2335"/>
				<stop  offset="1" style="stop-color:#E97826"/>
			</linearGradient>
			<path id="path7378" style="fill:url(#path7378_00000114032557743448061880000012382091118747688858_);" d="M-627.4,705.7
				c0.2,0,0.3-0.1,0.5-0.1C-627.1,705.7-627.2,705.7-627.4,705.7L-627.4,705.7z"/>
			<path id="path7380" class="st6" d="M-627.4,705.7L-627.4,705.7L-627.4,705.7L-627.4,705.7L-627.4,705.7L-627.4,705.7z"/>
			<path id="path7382" class="st7" d="M-627.4,705.7L-627.4,705.7L-627.4,705.7L-627.4,705.7L-627.4,705.7L-627.4,705.7z"/>
			
				<linearGradient id="path7394_00000113313684507809795120000012110768566648023702_" gradientUnits="userSpaceOnUse" x1="-77023.3594" y1="-94824.6484" x2="-77023.3594" y2="-94824.6484" gradientTransform="matrix(0.104 -5.699813e-02 -5.699813e-02 -0.104 1978.6707 -13546.8145)">
				<stop  offset="0.3233" style="stop-color:#9E2064"/>
				<stop  offset="0.6302" style="stop-color:#C92037"/>
				<stop  offset="0.7514" style="stop-color:#CD2335"/>
				<stop  offset="1" style="stop-color:#E97826"/>
			</linearGradient>
			<path id="path7394" style="fill:url(#path7394_00000113313684507809795120000012110768566648023702_);" d="M-627.4,705.7
				L-627.4,705.7L-627.4,705.7L-627.4,705.7L-627.4,705.7L-627.4,705.7z"/>
		</g>
		<g id="text5492">
			<path id="path4317" d="M47.6,127.1h6.7c0.5,0,1.1,0,1.6,0c0.6,0,1,0.1,1.2,0.4c0.2,0.2,0.3,0.4,0.4,0.8c0,0.3,0.1,0.6,0.2,0.9
				c0.1,0.5,0.1,1.1,0.2,1.7c0.1,0.5,0.2,1.1,0.3,1.7c0.4,2.1,0.7,4.3,0.9,6.5c0.3,2.2,0.6,4.4,1,6.6c0.1,0.7,0.2,1.4,0.3,2.1
				c0.1,0.7,0.2,1.4,0.3,2.1c0,0.2,0.1,0.3,0.1,0.5c0,0.2,0.1,0.3,0.3,0.4c0.1,0,0.1,0.1,0.2,0.1c0.1,0,0.2,0,0.3-0.1
				c0.3-0.1,0.5-0.3,0.7-0.6c0.2-0.3,0.3-0.6,0.5-0.9c0.4-0.8,0.8-1.5,1.2-2.3c0.4-0.8,0.8-1.6,1.2-2.3c1.1-2.1,2.2-4.1,3.3-6.2
				c1.1-2.1,2.2-4.2,3.3-6.3c0.3-0.5,0.5-1.1,0.8-1.6c0.3-0.5,0.6-1.1,0.9-1.6c0.1-0.3,0.3-0.5,0.5-0.8s0.4-0.5,0.7-0.7
				c0.2-0.2,0.5-0.3,0.8-0.3c0.3,0,0.7,0,1,0h3.3h3.5c0.3,0,0.6,0,0.9,0c0.3,0,0.6,0.1,0.7,0.2c0.3,0.2,0.4,0.6,0.3,1.2
				c-0.1,0.5-0.2,1.1-0.3,1.7l-1.5,7.6l-3.8,18.9l-0.9,4.4c-0.1,0.4-0.2,0.7-0.3,1.1c-0.1,0.3-0.3,0.6-0.5,0.8
				c-0.2,0.2-0.5,0.3-0.8,0.3c-0.3,0-0.6,0-1,0h-2.4h-1.4c-0.2-0.1-0.5-0.1-0.7-0.2c-0.2,0-0.3-0.2-0.4-0.4
				c-0.1-0.2-0.1-0.4-0.1-0.7c0.1-0.3,0.1-0.6,0.2-0.9l0.5-2.6l2.6-13.1c0.1-0.5,0.1-0.9,0.2-1.3c0.1-0.4,0.2-0.9,0.3-1.3
				c0.1-0.3,0.1-0.5,0.2-0.8c0.1-0.3,0.1-0.6,0.1-0.9c0-0.2,0-0.5,0-0.8c0.1-0.3,0-0.4-0.2-0.5c-0.1,0-0.2,0-0.3,0.1
				c-0.1,0.1-0.1,0.1-0.2,0.2c-0.2,0.1-0.3,0.3-0.5,0.5c-0.1,0.2-0.2,0.3-0.3,0.5c-0.3,0.5-0.6,1-0.9,1.6c-0.3,0.5-0.6,1.1-0.9,1.6
				c-0.1,0.2-0.2,0.4-0.3,0.6c-0.1,0.2-0.2,0.4-0.3,0.6c-0.3,0.4-0.5,0.9-0.8,1.3c-0.2,0.4-0.4,0.9-0.7,1.3
				c-0.1,0.1-0.1,0.2-0.2,0.4c0,0.1-0.1,0.2-0.2,0.3c-0.2,0.3-0.4,0.6-0.6,1c-0.1,0.3-0.3,0.7-0.6,1c-0.2,0.3-0.4,0.6-0.6,1
				c-0.1,0.3-0.3,0.7-0.5,1c-0.6,1-1.2,2-1.7,3c-0.5,1-1,2-1.6,2.9c-0.1,0.1-0.2,0.2-0.2,0.3c0,0.1-0.1,0.2-0.2,0.3
				c-0.2,0.4-0.5,0.8-0.7,1.2c-0.2,0.4-0.4,0.7-0.6,1.1c-0.1,0.2-0.3,0.5-0.4,0.7s-0.3,0.4-0.5,0.5c-0.2,0.1-0.4,0.2-0.6,0.3
				c-0.2,0-0.4,0-0.7,0.1H59c-0.2,0-0.5,0-0.9,0.1c-0.3,0-0.6,0-1,0c-0.3,0-0.6,0-0.9-0.1c-0.3,0-0.5-0.1-0.6-0.2
				c-0.2-0.2-0.4-0.4-0.5-0.6c0-0.2-0.1-0.5-0.2-0.8c-0.1-0.4-0.1-0.8-0.2-1.2c0-0.4-0.1-0.9-0.2-1.3l-0.1-0.5
				c-0.1-0.4-0.2-0.8-0.2-1.3c0-0.5-0.1-0.9-0.2-1.3c0-0.1,0-0.2,0-0.3c0-0.1,0-0.2-0.1-0.3c-0.1-0.3-0.2-0.6-0.2-1
				c0-0.3-0.1-0.7-0.2-1c0-0.1,0-0.2,0-0.3s0-0.2-0.1-0.3c-0.1-0.3-0.1-0.7-0.2-1c0-0.3-0.1-0.7-0.2-1c-0.1-0.7-0.3-1.4-0.4-2.1
				c-0.1-0.7-0.2-1.5-0.3-2.2c-0.1-0.8-0.3-1.7-0.4-2.6c-0.1-0.9-0.2-1.7-0.5-2.5c-0.1-0.5-0.2-0.9-0.3-1.2
				c-0.1-0.1-0.1-0.1-0.2-0.2c0-0.1-0.1-0.1-0.2,0c-0.2,0.1-0.3,0.3-0.4,0.5c0,0.2-0.1,0.5-0.2,0.7c-0.1,0.2-0.2,0.5-0.3,0.8
				c0,0.2-0.1,0.5-0.1,0.8c-0.1,0.4-0.2,0.7-0.3,1.1c-0.1,0.4-0.2,0.7-0.3,1.1l-2.7,13.5l-0.5,2.5c-0.1,0.3-0.1,0.5-0.2,0.8
				c0,0.3-0.1,0.5-0.3,0.7c-0.2,0.2-0.5,0.4-0.9,0.5c-0.2,0.1-0.5,0.1-0.8,0.1c-0.3,0-0.5-0.1-0.8-0.1H41c-0.4,0-0.7,0-1,0
				c-0.3,0-0.5-0.1-0.7-0.3c-0.2-0.2-0.2-0.4-0.2-0.8c0.1-0.4,0.1-0.7,0.2-1.1l0.9-4.5l3.8-18.9l1.4-7.1c0-0.2,0.1-0.4,0.1-0.7
				c0.1-0.3,0.1-0.6,0.2-0.9c0.1-0.3,0.1-0.5,0.2-0.8c0.1-0.3,0.2-0.5,0.3-0.6c0.2-0.2,0.5-0.4,0.9-0.5c0.1,0,0.2,0,0.2,0
				C47.4,127.2,47.5,127.2,47.6,127.1L47.6,127.1z"/>
			<path id="path4319" d="M108.3,161.3c0,0.4,0,0.7-0.1,1.1s-0.3,0.6-0.7,0.8c-0.2,0.1-0.5,0.2-0.8,0.2c-0.3,0-0.5,0-0.8,0h-2.7
				c-0.3,0-0.6,0-0.9,0c-0.3,0-0.5-0.1-0.6-0.3c-0.2-0.1-0.3-0.3-0.4-0.6c-0.1-0.3-0.2-0.5-0.4-0.7c-0.1-0.1-0.2-0.1-0.3-0.2
				c-0.1-0.1-0.2-0.1-0.4-0.1c-0.2,0.1-0.4,0.2-0.6,0.3c-0.2,0.1-0.3,0.2-0.5,0.3c-0.2,0.1-0.4,0.3-0.7,0.4
				c-0.2,0.1-0.4,0.2-0.7,0.3c-0.5,0.2-1,0.4-1.5,0.5c-0.5,0.1-1,0.2-1.5,0.4c-0.3,0.1-0.5,0.1-0.8,0.1c-0.2,0-0.4,0.1-0.7,0.1
				c-0.1,0-0.2,0-0.3,0c-0.1,0-0.2,0.1-0.3,0.1h-0.6c-0.4,0.1-0.7,0.1-1,0h-0.5c-0.2-0.1-0.5-0.1-0.7-0.1c-0.2,0-0.4,0-0.6-0.1
				c-0.3-0.1-0.6-0.1-0.9-0.2c-0.3,0-0.6-0.1-0.8-0.3c-0.9-0.4-1.7-0.8-2.2-1.4c-0.6-0.6-1-1.4-1.2-2.4c-0.1-0.2-0.1-0.5-0.2-0.8
				c0-0.3,0-0.6-0.1-0.9c0-0.2,0-0.3,0-0.5c0.1-0.2,0.1-0.3,0.1-0.5c0-0.1,0-0.3,0.1-0.6c0.1-0.3,0.1-0.6,0.2-0.7
				c0.1-0.3,0.2-0.6,0.3-0.9c0.2-0.4,0.3-0.7,0.5-1.1c0.2-0.4,0.4-0.8,0.7-1.1c0.7-1,1.5-1.7,2.4-2.2c0.8-0.5,1.9-0.9,3.2-1.3
				c0.5-0.2,0.9-0.3,1.4-0.4c0.5-0.1,1-0.2,1.5-0.3c0.3-0.1,0.6-0.1,0.9-0.1c0.3,0,0.7-0.1,1-0.2c0.2-0.1,0.5-0.1,0.7-0.1
				c0.2,0,0.5,0,0.8-0.1c0.2-0.1,0.5-0.1,0.7-0.1c0.2,0,0.5,0,0.8-0.1c0.7-0.2,1.4-0.3,2-0.4c0.6-0.1,1.3-0.4,1.8-0.9
				c0.3-0.3,0.6-0.6,0.8-1c0-0.1,0.1-0.2,0.1-0.3c0-0.1,0-0.1,0.1-0.2c0.1-0.1,0.1-0.2,0.1-0.3c0-0.1,0.1-0.2,0.1-0.3
				c0-0.1,0-0.3,0-0.4s0-0.3,0-0.4c-0.1-1-0.7-1.7-1.7-2.1c-0.3-0.1-0.6-0.2-1.1-0.2c-0.4-0.1-0.8-0.1-1.3-0.1c-0.4,0-0.9,0-1.3,0.1
				c-0.4,0.1-0.8,0.2-1.1,0.3c-0.2,0.1-0.5,0.2-0.7,0.3c-0.2,0.1-0.4,0.2-0.6,0.4c-0.2,0.1-0.4,0.3-0.7,0.6
				c-0.2,0.2-0.4,0.5-0.5,0.7c-0.2,0.3-0.4,0.7-0.6,1c-0.2,0.3-0.5,0.5-0.9,0.6c-0.3,0.1-0.6,0.1-0.9,0.1c-0.3,0-0.6,0-0.9,0h-1.9
				c-0.2,0-0.4,0-0.6,0.1c-0.2,0-0.3,0-0.4-0.1h-0.5c-0.1,0-0.2-0.1-0.3-0.1c-0.1,0-0.2,0-0.3-0.1c-0.2-0.1-0.4-0.3-0.4-0.7
				c0-0.2,0-0.3,0.1-0.5c0.1-0.2,0.1-0.3,0.2-0.5c0.2-0.4,0.3-0.7,0.5-1c0.2-0.3,0.4-0.6,0.6-0.9c0.1-0.2,0.3-0.3,0.4-0.5
				c0.1-0.2,0.3-0.3,0.4-0.5c0.3-0.4,0.7-0.7,1.2-1.1c0.1,0,0.2-0.1,0.4-0.3c0.2-0.1,0.4-0.3,0.5-0.4c0.2-0.1,0.4-0.2,0.6-0.3
				c0.6-0.4,1.3-0.7,2-0.9c0.7-0.2,1.4-0.5,2.1-0.7c0.4-0.1,0.9-0.2,1.3-0.2c0.4,0,0.9-0.1,1.4-0.2c0.1,0,0.3,0,0.6,0
				c0.3,0,0.5,0,0.6-0.1c1.4,0,2.7,0,3.9,0.2c1.3,0.1,2.4,0.4,3.3,0.8c1,0.4,1.8,0.9,2.4,1.5c0.6,0.6,1.1,1.4,1.3,2.4
				c0.1,0.6,0.1,1.2,0,2c-0.1,0.7-0.2,1.5-0.4,2.3l-2.3,11.3c-0.1,0.6-0.2,1.3-0.4,2c-0.1,0.6-0.2,1.2-0.2,1.8c0,0.1,0,0.2-0.1,0.4
				C108.3,161.1,108.3,161.2,108.3,161.3L108.3,161.3z M102.4,153.5c0.1-0.2,0.1-0.4,0.2-0.6c0-0.2,0.1-0.4,0.1-0.6
				c0-0.2,0-0.4,0.1-0.6c0-0.2,0-0.3-0.2-0.4c-0.1-0.1-0.4-0.2-0.7-0.2c-0.1,0-0.3,0.1-0.4,0.1c-0.1,0-0.2,0-0.4,0.1
				c-0.2,0.1-0.5,0.1-0.8,0.2c-0.3,0-0.6,0.1-0.9,0.2c-0.1,0-0.3,0.1-0.5,0.1c-0.5,0.1-0.9,0.2-1.4,0.2c-0.4,0-0.9,0.1-1.3,0.3
				c-0.3,0.1-0.5,0.1-0.8,0.2c-0.2,0-0.5,0.1-0.7,0.2c-0.8,0.3-1.5,0.8-2.1,1.4c-0.6,0.6-1,1.5-1.1,2.5c0,0.6,0.1,1.1,0.3,1.4
				c0.1,0.4,0.4,0.7,0.9,0.9c0.4,0.2,0.9,0.4,1.5,0.5c0.5,0.1,1.1,0.1,1.7,0.1c0.6-0.1,1.3-0.2,1.8-0.4c0.9-0.3,1.7-0.7,2.3-1.3
				c0.6-0.6,1.2-1.4,1.6-2.2c0.1-0.2,0.2-0.5,0.3-0.7c0.1-0.3,0.2-0.5,0.3-0.8L102.4,153.5L102.4,153.5z"/>
			<path id="path4321" class="st5" d="M117.6,137.1h3.7c0.4,0,0.7,0,1.1,0.1c0.3,0,0.6,0.1,0.8,0.2c0.3,0.2,0.5,0.7,0.5,1.3
				c0,0.6,0.1,1.2,0.2,1.6c0.1,1.1,0.3,2.3,0.4,3.5c0.1,1.2,0.2,2.3,0.4,3.5c0.1,0.8,0.2,1.6,0.3,2.5c0.1,0.8,0.2,1.7,0.3,2.4
				c0,0.3,0.1,0.6,0.1,1c0.1,0.3,0.3,0.5,0.7,0.5c0.1-0.1,0.2-0.1,0.2-0.1c0,0,0.1-0.1,0.2-0.2c0.1-0.2,0.3-0.3,0.4-0.5
				s0.2-0.4,0.3-0.6c0.3-0.4,0.5-0.8,0.6-1.2c0.2-0.4,0.4-0.8,0.6-1.2c0.7-1.4,1.5-2.8,2.2-4.3c0.7-1.5,1.4-2.9,2.2-4.3
				c0.3-0.4,0.5-0.8,0.7-1.2c0.2-0.4,0.4-0.8,0.6-1.2c0.1-0.3,0.3-0.5,0.4-0.8c0.2-0.3,0.4-0.5,0.6-0.7c0.1-0.1,0.3-0.2,0.7-0.3
				c0.2-0.1,0.4-0.1,0.7-0.1c0.2,0,0.5,0,0.7,0h2.5c0.4,0,0.7,0,1,0.1c0.3,0,0.6,0.1,0.7,0.3c0.2,0.2,0.2,0.4,0.1,0.8
				c-0.1,0.3-0.2,0.6-0.3,0.8c-0.3,0.5-0.5,1-0.8,1.5c-0.3,0.5-0.5,1-0.8,1.5c-0.1,0.2-0.3,0.5-0.4,0.7c-0.1,0.2-0.2,0.4-0.3,0.6
				c-0.2,0.4-0.5,0.7-0.7,1.1c-0.2,0.4-0.4,0.7-0.6,1.1c0,0.1-0.1,0.2-0.2,0.4c0,0.1-0.1,0.2-0.2,0.3c-0.3,0.5-0.6,1-0.9,1.6
				c-0.3,0.5-0.5,1-0.8,1.5c-0.6,1-1.1,2.1-1.7,3.2c-0.5,1.1-1.1,2.1-1.7,3.1c-0.3,0.5-0.5,0.9-0.8,1.4c-0.2,0.4-0.4,0.9-0.7,1.4
				c-0.1,0.2-0.2,0.3-0.3,0.5c-0.1,0.1-0.2,0.2-0.3,0.4c-0.2,0.4-0.4,0.8-0.6,1.2c-0.2,0.4-0.4,0.7-0.6,1.1
				c-0.2,0.4-0.5,0.7-0.7,1.1c-0.2,0.3-0.5,0.5-0.9,0.7c-0.3,0.1-0.6,0.2-0.9,0.2c-0.3,0-0.6-0.1-0.9-0.1h-3.3c-0.4,0-0.7,0-1.1,0
				c-0.3,0-0.6-0.1-0.9-0.2c-0.2-0.2-0.3-0.4-0.4-0.6c0-0.3-0.1-0.6-0.1-0.9c-0.1-0.4-0.2-0.8-0.3-1.3c0-0.4-0.1-0.9-0.2-1.3
				c0-0.1-0.1-0.3-0.1-0.4c0-0.1,0-0.3-0.1-0.5c-0.1-0.4-0.2-0.8-0.2-1.3c0-0.4-0.1-0.9-0.2-1.3c0-0.2-0.1-0.3-0.1-0.5
				c0-0.2,0-0.3-0.1-0.5c-0.1-0.3-0.1-0.6-0.2-0.9c0-0.3-0.1-0.7-0.2-1c0-0.1-0.1-0.2-0.1-0.3c0-0.1,0-0.3,0-0.4
				c-0.1-0.3-0.1-0.6-0.2-0.9c0-0.3-0.1-0.6-0.2-1c-0.1-0.8-0.3-1.6-0.4-2.4c-0.1-0.8-0.2-1.7-0.3-2.5c-0.2-0.9-0.4-1.8-0.5-2.7
				c-0.1-0.9-0.2-1.9-0.4-2.8l-0.2-1.4c0-0.1-0.1-0.2-0.1-0.4c0-0.2,0.1-0.3,0.2-0.5c0.1-0.2,0.4-0.4,0.8-0.5
				C117.4,137.2,117.5,137.2,117.6,137.1L117.6,137.1z"/>
			<path id="path4323" d="M167.3,150c0,0.3-0.1,0.6-0.2,0.9c-0.1,0.3-0.3,0.6-0.5,0.7c-0.2,0.1-0.4,0.2-0.8,0.3
				c-0.3,0-0.7,0.1-1.1,0.1c-0.4,0-0.8,0-1.2,0c-0.4,0-0.7-0.1-1-0.1h-12.4c-0.2,0-0.5,0-0.7,0c-0.2,0-0.4,0-0.6,0.1
				c-0.3,0.1-0.5,0.3-0.6,0.4c-0.1,0.1-0.2,0.2-0.3,0.4c-0.1,0.2-0.2,0.3-0.2,0.5c0,0.2,0,0.4,0,0.6c0,0.2,0,0.4,0.1,0.6
				c0.1,0.8,0.3,1.5,0.6,2c0.3,0.5,0.7,1,1.3,1.4c0.2,0.2,0.5,0.3,0.8,0.4c0.3,0,0.6,0.1,0.9,0.2c0.3,0.1,0.6,0.1,1.1,0.2
				c0.5,0,0.9,0,1.3-0.1h0.5c0.3-0.1,0.7-0.1,1-0.2c0.3-0.1,0.6-0.2,0.9-0.3c0.4-0.2,0.8-0.4,1.3-0.7c0.5-0.3,0.8-0.5,1.1-0.8
				c0.2-0.2,0.4-0.5,0.7-0.7c0.2-0.2,0.5-0.4,0.8-0.5c0.4-0.2,0.8-0.2,1.3-0.2c0.5,0,1,0,1.5,0c0.2,0,0.4,0,0.6,0
				c0.2,0,0.4,0,0.6,0.1h0.5c0.3,0.1,0.5,0.2,0.7,0.3c0.1,0.1,0.1,0.2,0.1,0.5c0,0.2-0.1,0.4-0.2,0.6c-0.3,0.5-0.6,0.9-0.9,1.3
				c-0.3,0.4-0.6,0.7-0.9,1.1c-0.9,1.1-2,2-3.1,2.7s-2.4,1.3-3.9,1.7c-0.4,0.1-0.8,0.2-1.2,0.3c-0.4,0-0.8,0.1-1.2,0.2
				c-0.1,0-0.3,0-0.5,0c-0.1,0-0.3,0-0.4,0.1h-0.6c-0.2,0.1-0.4,0.1-0.6,0.1c-0.2,0-0.4,0-0.6-0.1c-0.3,0-0.5,0-0.7,0
				c-0.2,0-0.4,0-0.7-0.1c-0.2-0.1-0.4-0.1-0.6-0.1s-0.4,0-0.5-0.1c-0.4-0.1-0.7-0.2-1.1-0.3c-0.3-0.1-0.6-0.2-0.9-0.4
				c-0.3-0.1-0.7-0.3-1-0.4c-0.3-0.1-0.6-0.3-0.8-0.5c-0.9-0.7-1.8-1.5-2.4-2.3c-0.6-0.9-1.1-2-1.4-3.2c-0.1-0.4-0.2-0.7-0.2-1.1
				c0-0.4-0.1-0.8-0.2-1.2c0-0.1,0-0.3,0-0.4c0-0.1,0.1-0.3,0.1-0.4c0-0.4,0-0.8,0-1.3c0.1-0.5,0.1-0.9,0.2-1.4
				c0-0.2,0.1-0.4,0.1-0.6c0-0.2,0.1-0.4,0.2-0.6l0.2-0.6l0.4-1.2c0.2-0.6,0.5-1.1,0.7-1.7c0.2-0.5,0.5-1.1,0.8-1.5
				c2.2-3.5,5.2-6,8.9-7.5c0.5-0.2,1-0.3,1.5-0.4c0.5-0.1,1.1-0.2,1.6-0.4c0.3,0,0.5-0.1,0.8-0.1s0.5,0,0.8-0.1
				c1.7,0,3.2,0.2,4.3,0.6c1.2,0.4,2.2,0.9,3,1.6c0.3,0.2,0.5,0.4,0.8,0.7c0.3,0.2,0.5,0.5,0.7,0.8c0.1,0.2,0.2,0.3,0.4,0.4
				c0.2,0.4,0.4,0.8,0.5,1.2c0.2,0.4,0.4,0.8,0.6,1.2c0.1,0.3,0.2,0.6,0.2,1c0.1,0.3,0.1,0.6,0.2,1c0.1,0.4,0.1,0.9,0.1,1.4
				c0,0.5,0.1,0.9,0.1,1.4c0,0.3-0.1,0.6-0.2,0.9c-0.1,0.3-0.1,0.6-0.1,0.9L167.3,150L167.3,150z M160.2,147
				c0.3-0.3,0.4-0.7,0.3-1.2c-0.1-0.5-0.1-0.9-0.2-1.1c-0.3-0.9-0.8-1.6-1.5-2.1c-0.7-0.5-1.7-0.8-3.1-0.8c-0.1,0.1-0.2,0.1-0.4,0.1
				c-0.1,0-0.3,0-0.4,0c-0.2,0.1-0.4,0.1-0.6,0.2c-0.2,0-0.4,0-0.6,0.1c-1.6,0.5-2.9,1.4-3.9,2.8c-0.1,0.1-0.2,0.3-0.4,0.6
				c-0.1,0.2-0.2,0.4-0.3,0.7c-0.1,0.2-0.1,0.4-0.1,0.6c0,0.2,0.1,0.4,0.3,0.5c0.2,0.2,0.6,0.3,1.1,0.3c0.5,0,0.9,0,1.4,0h5.6
				c0.5,0,1,0,1.5,0C159.7,147.4,160,147.3,160.2,147z"/>
			<path id="path4325" d="M189.2,136.5c2-0.1,3.7,0.2,4.9,0.9c1.3,0.6,2.1,1.6,2.6,2.8c0.2,0.4,0.3,0.8,0.3,1.2
				c0.1,0.4,0.1,0.8,0.2,1.3c0,0.3,0,0.5,0,0.8c0,0.2,0,0.5,0,0.7c-0.1,0.2-0.1,0.3-0.1,0.4c0,0.5-0.1,1-0.2,1.5
				c-0.1,0.5-0.2,1-0.3,1.5l-0.9,4.5l-1.7,8.2c-0.1,0.6-0.3,1.3-0.4,1.9c-0.1,0.6-0.5,0.9-1,1.1c-0.2,0.1-0.4,0.1-0.7,0.1
				c-0.3,0-0.5,0-0.8,0h-2.7c-0.4,0-0.8,0-1.1-0.1c-0.3-0.1-0.5-0.2-0.7-0.5c-0.1-0.2-0.1-0.5-0.1-0.8c0.1-0.3,0.1-0.7,0.2-1.1
				l0.7-3.6l1.5-7.6c0.2-1.3,0.4-2.4,0.5-3.5c0.1-1.1,0-2-0.4-2.7c-0.3-0.7-0.9-1.2-1.8-1.4c-0.2-0.1-0.4-0.1-0.6-0.1
				c-0.2,0-0.3,0-0.5-0.1c-0.2,0-0.4,0-0.7,0c-0.2,0-0.4,0-0.6,0.1c-0.2,0-0.3,0.1-0.4,0.1s-0.2,0-0.3,0.1c-0.8,0.2-1.5,0.5-2,0.8
				c-1.3,0.8-2.1,1.9-2.6,3.4c-0.5,1.5-0.9,3.2-1.3,5l-1.3,6.4l-0.6,3.1c-0.1,0.3-0.1,0.6-0.2,0.9c-0.1,0.3-0.2,0.6-0.3,0.8
				c-0.2,0.4-0.6,0.6-1,0.7c-0.4,0.1-0.8,0.1-1.4,0.1h-2.5c-0.4,0-0.7,0-1.1-0.1c-0.4,0-0.6-0.2-0.7-0.4c-0.2-0.3-0.2-0.7-0.1-1.3
				c0.1-0.6,0.3-1.1,0.4-1.6l1.4-6.9l2.2-11.2l0.6-2.6c0.1-0.4,0.1-0.7,0.2-1c0.1-0.3,0.2-0.6,0.5-0.8c0.1-0.1,0.2-0.2,0.4-0.2
				c0.2-0.1,0.3-0.1,0.5-0.2h0.3c0.2,0,0.3-0.1,0.5-0.1c0.2,0,0.4,0,0.6,0h2.1c0.3,0,0.5,0,0.8,0.1c0.3,0,0.5,0,0.7,0.1
				c0.2,0.1,0.3,0.3,0.4,0.5c0.1,0.2,0.1,0.4,0.1,0.7c0,0.1,0,0.3-0.1,0.4c0,0.1,0,0.2,0,0.3c0,0.2,0.1,0.3,0.1,0.3
				c0.1,0,0.2,0.1,0.3,0.2c0.3,0,0.7-0.1,1-0.4c0.3-0.3,0.6-0.5,0.9-0.7c1.1-0.7,2.2-1.2,3.4-1.6c0.3-0.1,0.7-0.2,1-0.2
				c0.3,0,0.7-0.1,1.1-0.2c0.1,0,0.3,0,0.5,0C189,136.5,189.2,136.5,189.2,136.5z"/>
		</g>
		<g id="text9112">
			<path id="path4328" d="M201.8,136.4c0,0,0.1,0.1,0.1,0.2s0,0.2-0.1,0.2l0,0.1c0,0.1-0.1,0.1-0.1,0.2c0,0-0.1,0.1-0.1,0.1
				c-0.1,0-0.1,0-0.3,0c-0.1,0-0.2,0-0.3,0h-0.2c0,0-0.1,0-0.1,0c0,0-0.1,0-0.1,0c-0.1,0-0.1,0.1-0.2,0.2c0,0,0,0.1,0,0.1
				c0,0,0,0.1,0,0.1l-0.5,2.4c0,0,0,0.1,0,0.1c0,0,0,0.1,0,0.1l0,0.1c0,0,0,0,0,0.1c0,0,0,0,0,0.1c0,0.1-0.1,0.1-0.1,0.1
				c0,0-0.1,0-0.1,0c0,0-0.1,0-0.1,0c-0.1,0-0.2,0-0.3,0c-0.1,0-0.2,0-0.2-0.1c0,0,0-0.1,0-0.1c0-0.1,0-0.1,0-0.2l0.5-2.4
				c0,0,0-0.1,0-0.1c0,0,0-0.1,0-0.1l0-0.1c0-0.1,0-0.2-0.1-0.2c-0.1,0-0.2,0-0.3,0c-0.1,0-0.2,0-0.3,0c0,0-0.1,0-0.1,0
				c0,0-0.1,0-0.1,0c0,0-0.1,0-0.1,0c0,0,0,0-0.1,0c-0.1,0-0.1-0.1-0.1-0.2c0-0.1,0-0.2,0-0.3c0,0,0-0.1,0-0.1c0,0,0-0.1,0.1-0.1
				c0,0,0-0.1,0.1-0.1c0,0,0.1,0,0.1-0.1c0,0,0,0,0,0c0,0,0,0,0.1,0h2.7c0.1,0,0.1,0,0.2,0C201.8,136.4,201.8,136.4,201.8,136.4
				L201.8,136.4z M207.2,136.5c0,0,0,0.1,0,0.2c0,0.1,0,0.1,0,0.2l-0.7,3.3c0,0.1,0,0.1-0.1,0.2c0,0.1,0,0.1-0.1,0.1
				c0,0.1-0.1,0.1-0.2,0.1c-0.1,0-0.2,0-0.3,0c0,0-0.1,0-0.1,0c0,0-0.1,0-0.1,0c-0.1,0-0.1-0.1-0.1-0.1c0,0,0-0.1,0-0.2l0-0.2
				c0,0,0,0,0-0.1c0,0,0-0.1,0-0.1l0.3-1.3c0-0.1,0-0.2,0-0.2c0-0.1,0-0.2,0-0.2c0,0,0-0.1,0-0.1c0,0,0,0,0-0.1c0,0,0,0,0,0
				c0,0,0,0-0.1,0c-0.1,0.1-0.1,0.2-0.2,0.3s-0.1,0.2-0.2,0.3c-0.1,0.2-0.2,0.4-0.4,0.6c-0.1,0.2-0.2,0.4-0.4,0.6
				c-0.1,0.1-0.1,0.2-0.2,0.3c-0.1,0.1-0.1,0.2-0.2,0.3c0,0-0.1,0-0.1,0.1c-0.1,0-0.1,0-0.2,0h-0.2c0,0-0.1,0-0.1,0
				c0,0-0.1,0-0.1-0.1c0,0,0,0,0-0.1c0,0,0-0.1,0-0.1c0-0.1,0-0.1,0-0.2c0-0.1,0-0.1,0-0.2c0-0.2-0.1-0.4-0.1-0.6
				c0-0.2-0.1-0.4-0.1-0.6c0-0.1,0-0.2-0.1-0.3c0-0.1-0.1-0.2-0.1-0.3c0,0,0,0,0,0c0,0,0,0,0,0c0,0-0.1,0.1-0.1,0.1c0,0,0,0.1,0,0.1
				c0,0,0,0.1,0,0.1l0,0.2c0,0,0,0.1,0,0.1c0,0,0,0.1,0,0.1l-0.2,1.2c0,0.1,0,0.2-0.1,0.3c0,0.1-0.1,0.2-0.1,0.3c0,0,0,0-0.1,0.1
				c0,0,0,0-0.1,0c0,0-0.1,0-0.1,0c0,0-0.1,0-0.1,0c-0.1,0-0.2,0-0.3,0c-0.1,0-0.2,0-0.2-0.1c0,0-0.1-0.1-0.1-0.1c0-0.1,0-0.1,0-0.2
				l0.7-3.4c0-0.1,0-0.1,0-0.2c0-0.1,0-0.1,0.1-0.1c0,0,0.1-0.1,0.2-0.1c0,0,0,0,0,0c0,0,0,0,0.1,0h0.7c0.1,0,0.1,0,0.2,0
				c0.1,0,0.1,0,0.2,0.1c0.1,0,0.1,0.1,0.1,0.2c0,0.1,0,0.2,0.1,0.2c0,0.2,0.1,0.4,0.1,0.6c0,0.2,0.1,0.4,0.1,0.6
				c0,0.1,0,0.2,0.1,0.3c0,0.1,0,0.2,0.1,0.3c0,0,0,0.1,0,0.1c0,0,0,0.1,0.1,0.1c0,0,0.1,0,0.1,0c0,0,0.1-0.1,0.1-0.1
				c0.1-0.1,0.1-0.2,0.2-0.2c0-0.1,0.1-0.2,0.1-0.3c0.1-0.2,0.3-0.5,0.4-0.7c0.1-0.2,0.3-0.5,0.4-0.7c0.1-0.1,0.1-0.2,0.2-0.3
				c0.1-0.1,0.1-0.2,0.2-0.2c0,0,0.1,0,0.1,0c0.1,0,0.1,0,0.2,0h0.4c0,0,0.1,0,0.1,0c0,0,0.1,0,0.1,0h0.1
				C207.1,136.4,207.2,136.4,207.2,136.5C207.2,136.4,207.2,136.4,207.2,136.5L207.2,136.5z"/>
		</g>
		<g id="g4701" transform="matrix(0.13272567,0.01947468,-0.01947468,0.13272567,170.19741,12.570146)">
			
				<linearGradient id="path4710_00000071561744685063341010000005546197791260288909_" gradientUnits="userSpaceOnUse" x1="-71057.7812" y1="-26559.8945" x2="-71019.3125" y2="-26604.875" gradientTransform="matrix(3.843945e-02 -0.1285 -0.1285 -3.843945e-02 -784.5182 -9187.6875)">
				<stop  offset="0" style="stop-color:#F69923"/>
				<stop  offset="0.3123" style="stop-color:#F79A23"/>
				<stop  offset="0.8383" style="stop-color:#E97826"/>
			</linearGradient>
			<path id="path4710" style="fill:url(#path4710_00000071561744685063341010000005546197791260288909_);" d="M-89.3,943.8
				c-4.3,2.5-11.4,9.7-19.8,20l7.8,14.7c5.4-7.8,11-14.8,16.6-20.8c0.4-0.5,0.7-0.7,0.7-0.7c-0.2,0.3-0.5,0.5-0.7,0.7
				c-1.8,2-7.3,8.4-15.6,21.2c8-0.4,20.2-2,30.3-3.8c3-16.7-2.9-24.3-2.9-24.3S-80.5,938.6-89.3,943.8z"/>
			<path id="path4712" class="st5" d="M-102.5,1027.6c0.1,0,0.1,0,0.2-0.1l-1.1,0.1c-0.1,0.1-0.2,0.1-0.2,0.1
				C-103.3,1027.7-102.9,1027.6-102.5,1027.6z"/>
			<path id="path4714" class="st5" d="M-110.4,1053.9c-0.6,0.2-1.3,0.3-1.9,0.4C-111.7,1054.1-111.1,1054-110.4,1053.9z"/>
			<path id="path4716" class="st5" d="M-164.4,1112.9c0.1-0.2,0.2-0.5,0.3-0.7c1.7-4.5,3.4-8.9,5.1-13.2c1.9-4.8,3.8-9.5,5.6-14
				c1.9-4.7,3.9-9.4,5.7-13.8c2-4.7,3.9-9.2,5.8-13.5c1.6-3.5,3.1-6.9,4.6-10.2c0.5-1.1,1-2.2,1.5-3.3c1-2.1,2-4.2,2.9-6.3
				c0.9-1.9,1.8-3.7,2.6-5.5c0.3-0.6,0.6-1.2,0.9-1.8c0.1-0.1,0.1-0.2,0.2-0.3l-1,0.1l-0.8-1.5c-0.1,0.2-0.2,0.3-0.2,0.5
				c-1.4,2.7-2.7,5.4-4.1,8.2c-0.8,1.6-1.5,3.2-2.3,4.8c-2.1,4.5-4.2,8.9-6.3,13.5c-2.1,4.6-4.1,9.2-6.1,13.8
				c-2,4.5-3.9,9.1-5.7,13.6c-1.9,4.5-3.7,9-5.5,13.5c-1.9,4.7-3.7,9.3-5.4,13.9c-0.4,1-0.8,2.1-1.2,3.1c-1.4,3.7-2.8,7.3-4.1,10.9
				l1.2,2.4l1.1-0.1c0.1-0.1,0.1-0.2,0.1-0.3C-167.9,1122-166.1,1117.4-164.4,1112.9z"/>
			<path id="path4718" class="st5" d="M-112.9,1054.3L-112.9,1054.3L-112.9,1054.3L-112.9,1054.3z"/>
			<path id="path4720" class="st6" d="M-115.5,1067.2c-1,0.2-2,0.4-3.1,0.5l0,0c0.5-0.1,1.1-0.2,1.6-0.3
				C-116.4,1067.4-115.9,1067.3-115.5,1067.2z"/>
			<path id="path4722" class="st7" d="M-115.5,1067.2c-1,0.2-2,0.4-3.1,0.5l0,0c0.5-0.1,1.1-0.2,1.6-0.3
				C-116.4,1067.4-115.9,1067.3-115.5,1067.2z"/>
			<path id="path4724" class="st6" d="M-112.8,1054.3L-112.8,1054.3C-112.9,1054.3-112.9,1054.3-112.8,1054.3c0.2,0,0.3-0.1,0.5-0.1
				c0.7-0.1,1.3-0.2,1.9-0.4C-111.2,1054-112,1054.1-112.8,1054.3L-112.8,1054.3L-112.8,1054.3z"/>
			<path id="path4726" class="st7" d="M-112.8,1054.3L-112.8,1054.3C-112.9,1054.3-112.9,1054.3-112.8,1054.3c0.2,0,0.3-0.1,0.5-0.1
				c0.7-0.1,1.3-0.2,1.9-0.4C-111.2,1054-112,1054.1-112.8,1054.3L-112.8,1054.3L-112.8,1054.3z"/>
			
				<linearGradient id="path4737_00000165204440327132418780000005931357967111230876_" gradientUnits="userSpaceOnUse" x1="-73151.9453" y1="-26214.3086" x2="-72877.5078" y2="-26214.3086" gradientTransform="matrix(3.843945e-02 -0.1285 -0.1285 -3.843945e-02 -784.5182 -9187.6875)">
				<stop  offset="0.3233" style="stop-color:#9E2064"/>
				<stop  offset="0.6302" style="stop-color:#C92037"/>
				<stop  offset="0.7514" style="stop-color:#CD2335"/>
				<stop  offset="1" style="stop-color:#E97826"/>
			</linearGradient>
			<path id="path4737" style="fill:url(#path4737_00000165204440327132418780000005931357967111230876_);" d="M-124.3,1016.4
				c2.4-4.4,4.8-8.7,7.2-13c2.5-4.4,5-8.6,7.6-12.7c0.2-0.3,0.3-0.5,0.5-0.7c2.5-4,5.1-7.9,7.7-11.6l-7.8-14.6
				c-0.6,0.7-1.2,1.4-1.8,2.2c-2.2,2.8-4.6,5.8-7,9c-2.7,3.6-5.4,7.4-8.3,11.4c-2.6,3.7-5.2,7.6-7.9,11.6c-2.2,3.5-4.5,7-6.7,10.6
				c-0.1,0.2-0.2,0.3-0.3,0.4l10.1,20C-128.7,1024.8-126.5,1020.6-124.3,1016.4z"/>
			
				<linearGradient id="path4748_00000120519393603765704270000013229074650297144747_" gradientUnits="userSpaceOnUse" x1="-72937.4609" y1="-26453.5801" x2="-72773.9219" y2="-26453.5801" gradientTransform="matrix(3.843945e-02 -0.1285 -0.1285 -3.843945e-02 -784.5182 -9187.6875)">
				<stop  offset="0" style="stop-color:#282662"/>
				<stop  offset="9.548389e-02" style="stop-color:#662E8D"/>
				<stop  offset="0.7882" style="stop-color:#9F2064"/>
				<stop  offset="0.9487" style="stop-color:#CD2032"/>
			</linearGradient>
			<path id="path4748" style="fill:url(#path4748_00000120519393603765704270000013229074650297144747_);" d="M-170.4,1129.1
				c-1.3,3.7-2.7,7.4-4,11.3c0,0.1-0.1,0.1-0.1,0.2c-0.2,0.6-0.4,1.1-0.6,1.6c-0.9,2.6-1.7,4.9-3.5,10.2c3,1.4,5.4,4.9,7.6,9
				c-0.3-4.2-2-8.2-5.3-11.2c14.7,0.7,27.4-3.1,33.9-13.8c0.6-1,1.1-2,1.6-3.1c-3,3.8-6.7,5.4-13.6,5h-0.1h0.1
				c10.2-4.6,15.4-9,19.9-16.3c1.1-1.7,2.1-3.6,3.2-5.7c-8.9,9.2-19.3,11.8-30.3,9.8l-8.2,0.9
				C-169.9,1127.8-170.2,1128.4-170.4,1129.1z"/>
			
				<linearGradient id="path4759_00000111170676573209315890000003240477994523243184_" gradientUnits="userSpaceOnUse" x1="-73035.5234" y1="-26212.2949" x2="-72761.0859" y2="-26212.2949" gradientTransform="matrix(3.843945e-02 -0.1285 -0.1285 -3.843945e-02 -784.5182 -9187.6875)">
				<stop  offset="0.3233" style="stop-color:#9E2064"/>
				<stop  offset="0.6302" style="stop-color:#C92037"/>
				<stop  offset="0.7514" style="stop-color:#CD2335"/>
				<stop  offset="1" style="stop-color:#E97826"/>
			</linearGradient>
			<path id="path4759" style="fill:url(#path4759_00000111170676573209315890000003240477994523243184_);" d="M-166.6,1110.8
				c1.8-4.6,3.6-9.2,5.4-13.9c1.8-4.5,3.6-8.9,5.5-13.5c1.9-4.5,3.8-9.1,5.7-13.6c2-4.6,4-9.2,6.1-13.8c2-4.5,4.2-9.1,6.3-13.5
				c0.8-1.6,1.5-3.2,2.3-4.8c1.3-2.7,2.7-5.5,4.1-8.2c0.1-0.2,0.2-0.3,0.2-0.5l-10-19.9c-0.2,0.3-0.3,0.6-0.5,0.8
				c-2.3,3.9-4.7,7.8-7,11.8c-2.3,4.1-4.6,8.2-6.9,12.4c-1.9,3.6-3.7,7.1-5.5,10.7c-0.4,0.7-0.7,1.5-1.1,2.2
				c-2.2,4.5-4.2,8.9-6,13.2c-2,4.8-3.8,9.4-5.4,13.7c-1,2.8-2,5.6-2.8,8.2c-0.7,2.2-1.4,4.5-2,6.8c-1.5,5.3-2.8,10.6-3.9,15.9
				l10.2,20.1c1.3-3.6,2.7-7.2,4.1-10.9C-167.4,1112.9-167,1111.9-166.6,1110.8z"/>
			
				<linearGradient id="path4770_00000094599255494075911060000015419067943685475725_" gradientUnits="userSpaceOnUse" x1="-72891.9688" y1="-26261.6855" x2="-72747.7422" y2="-26261.6855" gradientTransform="matrix(3.843945e-02 -0.1285 -0.1285 -3.843945e-02 -784.5182 -9187.6875)">
				<stop  offset="0" style="stop-color:#282662"/>
				<stop  offset="9.548389e-02" style="stop-color:#662E8D"/>
				<stop  offset="0.7882" style="stop-color:#9F2064"/>
				<stop  offset="0.9487" style="stop-color:#CD2032"/>
			</linearGradient>
			<path id="path4770" style="fill:url(#path4770_00000094599255494075911060000015419067943685475725_);" d="M-182.3,1105.5
				c-1.3,6.4-2.2,12.8-2.6,19.2c0,0.2-0.1,0.5-0.1,0.7c-3.2-5.1-11.7-10.1-11.6-10c6.1,8.8,10.7,17.6,11.4,26.2
				c-3.3,0.7-7.7-0.3-12.9-2.2c5.4,4.9,9.4,6.3,11,6.7c-4.9,0.3-10.1,3.7-15.3,7.6c7.6-3.1,13.7-4.3,18.1-3.3
				c-7,19.7-13.9,41.4-20.9,64.5c2.1-0.6,3.4-2.1,4.1-4c1.2-4.2,9.5-31.6,22.4-67.7c0.4-1,0.8-2,1.1-3.1c0.1-0.3,0.2-0.6,0.3-0.9
				c1.4-3.8,2.8-7.6,4.3-11.6c0.4-0.9,0.7-1.8,1-2.7v-0.1l-10.2-20.1C-182.2,1105-182.2,1105.2-182.3,1105.5z"/>
			
				<linearGradient id="path4781_00000179628715428829323220000011986656565343437194_" gradientUnits="userSpaceOnUse" x1="-73066.2578" y1="-26421.7637" x2="-72791.8203" y2="-26421.7637" gradientTransform="matrix(3.843945e-02 -0.1285 -0.1285 -3.843945e-02 -784.5182 -9187.6875)">
				<stop  offset="0.3233" style="stop-color:#9E2064"/>
				<stop  offset="0.6302" style="stop-color:#C92037"/>
				<stop  offset="0.7514" style="stop-color:#CD2335"/>
				<stop  offset="1" style="stop-color:#E97826"/>
			</linearGradient>
			<path id="path4781" style="fill:url(#path4781_00000179628715428829323220000011986656565343437194_);" d="M-129.3,1030.8
				c-0.3,0.6-0.6,1.2-0.9,1.8c-0.9,1.8-1.8,3.7-2.6,5.5c-1,2-1.9,4.1-2.9,6.3c-0.5,1.1-1,2.1-1.5,3.3c-1.5,3.3-3.1,6.7-4.6,10.2
				c-1.9,4.3-3.9,8.8-5.8,13.5c-1.9,4.4-3.8,9.1-5.7,13.8c-1.8,4.5-3.7,9.2-5.6,14c-1.7,4.3-3.4,8.7-5.1,13.2
				c-0.1,0.2-0.2,0.5-0.3,0.7c-1.7,4.5-3.4,9.1-5.1,13.8c-0.1,0.1-0.1,0.2-0.1,0.3l8.2-0.9c-0.2-0.1-0.3-0.1-0.5-0.1
				c9.8-1.2,22.8-8.5,31.2-17.6c3.9-4.2,7.4-9.1,10.6-14.8c2.4-4.3,4.7-9,6.9-14.3c1.9-4.6,3.7-9.6,5.4-15c-2.2,1.2-4.8,2-7.7,2.6
				c-0.5,0.1-1,0.2-1.5,0.3c-0.5,0.1-1,0.2-1.6,0.3l0,0l0,0l0,0c9.2-3.5,14.9-10.3,19.1-18.6c-2.4,1.6-6.3,3.8-11,4.8
				c-0.6,0.2-1.3,0.3-1.9,0.4c-0.2,0-0.3,0.1-0.5,0.1l0,0l0,0l0,0l0,0l0,0c3.2-1.3,5.8-2.8,8.2-4.6c0.5-0.4,1-0.8,1.4-1.2
				c0.7-0.6,1.4-1.3,2-1.9c0.4-0.5,0.8-0.9,1.2-1.3c0.9-1.1,1.8-2.2,2.5-3.5c0.3-0.4,0.5-0.8,0.7-1.2c0.3-0.6,0.6-1.2,0.9-1.7
				c1.3-2.5,2.3-4.8,3.1-6.9c0.4-1,0.8-1.9,1.1-2.8c0.1-0.4,0.3-0.7,0.4-1c0.3-1,0.6-1.8,0.8-2.6c0.3-1.1,0.5-2,0.6-2.7l0,0l0,0
				c-0.3,0.3-0.7,0.5-1.1,0.7c-2.7,1.6-7.5,3.2-11.3,3.9l7.5-0.8l-7.5,0.8c-0.1,0-0.1,0-0.2,0.1c-0.4,0.1-0.8,0.1-1.2,0.2
				c0.1-0.1,0.2-0.1,0.2-0.1l-25.7,2.8C-129.2,1030.6-129.3,1030.7-129.3,1030.8z"/>
			
				<linearGradient id="path4792_00000083050803285436353590000000674719706613965216_" gradientUnits="userSpaceOnUse" x1="-73190.3281" y1="-26393.1875" x2="-72915.8906" y2="-26393.1875" gradientTransform="matrix(3.843945e-02 -0.1285 -0.1285 -3.843945e-02 -784.5182 -9187.6875)">
				<stop  offset="0.3233" style="stop-color:#9E2064"/>
				<stop  offset="0.6302" style="stop-color:#C92037"/>
				<stop  offset="0.7514" style="stop-color:#CD2335"/>
				<stop  offset="1" style="stop-color:#E97826"/>
			</linearGradient>
			<path id="path4792" style="fill:url(#path4792_00000083050803285436353590000000674719706613965216_);" d="M-100.3,978.8
				c-2.3,3.5-4.8,7.5-7.5,12c-0.2,0.3-0.3,0.5-0.4,0.7c-2.3,3.9-4.8,8.2-7.4,12.9c-2.2,4.1-4.6,8.4-7,13.1c-2.1,4.1-4.3,8.4-6.6,13
				l25.7-2.8c7.5-3.5,10.8-6.6,14.1-11.1c0.9-1.2,1.7-2.5,2.6-3.9c2.6-4.1,5.2-8.6,7.5-13.2c2.2-4.4,4.2-8.7,5.7-12.6
				c1-2.5,1.7-4.8,2.3-6.8c0.5-1.8,0.8-3.5,1.1-5.1C-80.1,976.7-92.3,978.4-100.3,978.8z"/>
			<path id="path4794" class="st6" d="M-116.9,1067.5c-0.5,0.1-1,0.2-1.6,0.3l0,0C-118,1067.6-117.5,1067.5-116.9,1067.5z"/>
			<path id="path4796" class="st7" d="M-116.9,1067.5c-0.5,0.1-1,0.2-1.6,0.3l0,0C-118,1067.6-117.5,1067.5-116.9,1067.5z"/>
			
				<linearGradient id="path4807_00000094576796686068086230000017211086821187753893_" gradientUnits="userSpaceOnUse" x1="-73075.4609" y1="-26484.502" x2="-72801.0234" y2="-26484.502" gradientTransform="matrix(3.843945e-02 -0.1285 -0.1285 -3.843945e-02 -784.5182 -9187.6875)">
				<stop  offset="0.3233" style="stop-color:#9E2064"/>
				<stop  offset="0.6302" style="stop-color:#C92037"/>
				<stop  offset="0.7514" style="stop-color:#CD2335"/>
				<stop  offset="1" style="stop-color:#E97826"/>
			</linearGradient>
			<path id="path4807" style="fill:url(#path4807_00000094576796686068086230000017211086821187753893_);" d="M-116.9,1067.5
				c-0.5,0.1-1,0.2-1.6,0.3l0,0C-118,1067.6-117.5,1067.5-116.9,1067.5z"/>
			<path id="path4809" class="st6" d="M-112.9,1054.3c0.2,0,0.3-0.1,0.5-0.1C-112.5,1054.2-112.7,1054.3-112.9,1054.3L-112.9,1054.3
				z"/>
			<path id="path4811" class="st7" d="M-112.9,1054.3c0.2,0,0.3-0.1,0.5-0.1C-112.5,1054.2-112.7,1054.3-112.9,1054.3L-112.9,1054.3
				z"/>
			
				<linearGradient id="path4822_00000175309601599595537190000006596512016404775596_" gradientUnits="userSpaceOnUse" x1="-73074.3828" y1="-26477.1367" x2="-72799.9453" y2="-26477.1367" gradientTransform="matrix(3.843945e-02 -0.1285 -0.1285 -3.843945e-02 -784.5182 -9187.6875)">
				<stop  offset="0.3233" style="stop-color:#9E2064"/>
				<stop  offset="0.6302" style="stop-color:#C92037"/>
				<stop  offset="0.7514" style="stop-color:#CD2335"/>
				<stop  offset="1" style="stop-color:#E97826"/>
			</linearGradient>
			<path id="path4822" style="fill:url(#path4822_00000175309601599595537190000006596512016404775596_);" d="M-112.9,1054.3
				c0.2,0,0.3-0.1,0.5-0.1C-112.5,1054.2-112.7,1054.3-112.9,1054.3L-112.9,1054.3z"/>
			<path id="path4824" class="st6" d="M-112.8,1054.3L-112.8,1054.3L-112.8,1054.3L-112.8,1054.3L-112.8,1054.3L-112.8,1054.3z"/>
			<path id="path4826" class="st7" d="M-112.8,1054.3L-112.8,1054.3L-112.8,1054.3L-112.8,1054.3L-112.8,1054.3L-112.8,1054.3z"/>
			
				<linearGradient id="path4837_00000072969718079636699500000017161084066916620222_" gradientUnits="userSpaceOnUse" x1="-71713.6094" y1="-26675.4961" x2="-71713.6094" y2="-26675.4961" gradientTransform="matrix(3.843945e-02 -0.1285 -0.1285 -3.843945e-02 -784.5182 -9187.6875)">
				<stop  offset="0.3233" style="stop-color:#9E2064"/>
				<stop  offset="0.6302" style="stop-color:#C92037"/>
				<stop  offset="0.7514" style="stop-color:#CD2335"/>
				<stop  offset="1" style="stop-color:#E97826"/>
			</linearGradient>
			<path id="path4837" style="fill:url(#path4837_00000072969718079636699500000017161084066916620222_);" d="M-112.8,1054.3
				L-112.8,1054.3L-112.8,1054.3L-112.8,1054.3L-112.8,1054.3L-112.8,1054.3z"/>
		</g>
	</g>
	<path class="st2" d="M388.3,290.5H6.9c-0.4,0.1-0.8-0.5-0.9-1.4c-0.1-0.9,0.2-1.7,0.7-1.8c0.1,0,0.2,0,0.2,0h381.4
		c0.4-0.1,0.8,0.5,0.9,1.4c0.1,0.9-0.2,1.7-0.7,1.8C388.5,290.5,388.4,290.5,388.3,290.5z"/>
</g>
<g id="essentiel">
	<path class="st0" d="M61,246.4c0,0-5.5-0.1-11.5,10l0,0.1l0-0.1c-2.7-14-13.6-22.7-13.6-22.7c-2,6.6-2.7,13.5-2,20.3
		c-2.5-2.2-5.3-4.1-8.4-5.4c-0.3,8.9,3.4,17.1,6.7,22.7h10.9l0,0H45h4.4h5.9C58.4,266.6,63.3,257.1,61,246.4z"/>
	<path class="st2" d="M61.7,246.3c-0.1-0.3-0.4-0.6-0.7-0.6c-0.2,0-5.4,0-11.2,8.9c-3.2-13-13-21.1-13.5-21.4
		c-0.2-0.1-0.4-0.2-0.7-0.1c-0.2,0.1-0.4,0.2-0.5,0.5c-1.9,6.1-2.6,12.5-2.2,18.9c-2.2-1.8-4.6-3.3-7.2-4.5
		c-0.2-0.1-0.5-0.1-0.7,0.1c-0.2,0.1-0.3,0.3-0.3,0.6c-0.2,8.9,3.4,17.3,6.6,22.7h-1.6l3.3,16.4h20.3l3.3-16.4h-0.5
		C59.4,266.4,64,256.9,61.7,246.3z M60.5,247.2c1.8,9.9-2.6,18.8-5.6,23.4h-5.1c-0.1-0.1-0.3-0.1-0.5,0h-3.7
		c0.2-4.5,1.6-8.8,3.9-12.6c0.2-0.4,0.4-0.8,0.7-1.1C54.8,249.1,59,247.6,60.5,247.2z M36.2,235c2.6,2.3,10.3,10.1,12.5,21.3
		l-0.5,0.9c-3.2,5.8-4,10.4-4,13.3h-6.1c-1.8-5.3-3-10.7-3.5-16.3c0.1-0.2,0.1-0.4-0.1-0.6C34,247.4,34.5,241.1,36.2,235z
		 M33.3,254.4c0.6,5.5,1.7,11,3.5,16.3h-4c-3-5.1-6.4-12.7-6.4-20.9C28.8,251,31.1,252.6,33.3,254.4z"/>
</g>
<g id="fondamental" class="st27">
	<g class="st28">
		<circle class="st3" cx="37.9" cy="221.1" r="5.4"/>
	</g>
	<path class="st29" d="M61,246.4c0,0-2.2,0-5.3,2.4c2.7-12.1-1.6-22.9-1.6-22.9c-4.7,4.4-8.5,9.7-11.2,15.6c-3.5-5-7-7.8-7-7.8
		c-2,6.6-2.7,13.5-2,20.3c-2.5-2.2-5.3-4.1-8.4-5.4c-0.3,8.9,3.4,17.1,6.7,22.7h10.9l0,0H45h4.4h5.9C58.4,266.6,63.3,257.1,61,246.4
		z"/>
	<path class="st30" d="M61.7,246.3c-0.1-0.3-0.4-0.6-0.7-0.6c-0.1,0-1.8,0-4.2,1.5c1.9-11.3-1.9-21-2.1-21.5
		c-0.1-0.2-0.3-0.4-0.5-0.4c-0.2-0.1-0.5,0-0.6,0.2c-4.3,4-7.9,8.8-10.5,14c-0.9-5-2-9.4-2.9-12.7c2.2-0.9,3.7-3.1,3.7-5.6
		c0-2.6-1.6-4.9-4-5.7c-0.4-0.2-0.9-0.3-1.4-0.3c-0.3,0-0.5-0.1-0.8-0.1c-3.4,0-6.1,2.7-6.1,6.1c0,3.1,2.3,5.7,5.4,6.1
		c0.2,0,0.5,0,0.7,0c0.3,0,0.7,0,1-0.1c0.8,3,1.7,6.9,2.6,11.3c-2.7-3.2-4.9-5.1-5.1-5.2c-0.2-0.1-0.4-0.2-0.7-0.1
		c-0.2,0.1-0.4,0.2-0.5,0.5c-1.9,6.1-2.6,12.5-2.2,18.9c-2.2-1.8-4.6-3.3-7.2-4.5c-0.2-0.1-0.5-0.1-0.7,0.1
		c-0.2,0.1-0.3,0.3-0.3,0.6c-0.3,8.9,3.4,17.3,6.6,22.7h-1.6l3.3,16.4h20.3l3.3-16.4h-0.5C59.4,266.4,64,256.9,61.7,246.3z
		 M33.2,221.6c1.2-0.3,2.5-0.2,3.4-0.1c0,0.5-0.1,0.9-0.1,1.5c0,0.9,0.1,1.7,0.2,2.7C34.9,225.2,33.4,223.6,33.2,221.6z M36.8,220.2
		C36.8,220.2,36.8,220.2,36.8,220.2c-0.9-0.1-2.3-0.2-3.5,0c0.2-1.1,0.8-2,1.6-2.7c0.8-0.7,1.9-1.1,3-1.1H38
		C37.5,217.4,37.1,218.6,36.8,220.2z M38.5,225.8c-0.1,0-0.2,0-0.3,0c-0.2-0.7-0.2-1.4-0.3-2c0,0,0,0,0,0c-0.1-1,0-1.9,0.1-2.7
		c0.3-1.9,0.9-3.4,1.3-4.4c1.9,0.6,3.2,2.4,3.2,4.5c0,1.9-1.1,3.5-2.7,4.3C39.4,225.6,39,225.7,38.5,225.8z M53.8,227.2
		c1,2.9,3.3,11.7,1.3,21.2c-1.6,1.3-3.4,3.3-5.3,6.2c-1.3-5.3-3.7-9.7-6.1-13.2C46.2,236.2,49.6,231.3,53.8,227.2z M32.7,270.7
		c-3-5.1-6.4-12.7-6.4-20.9c2.5,1.3,4.8,2.8,6.9,4.7c0.6,5.5,1.7,11,3.5,16.3H32.7z M44.7,266.7c-0.2,0.8-0.3,1.6-0.3,2.3
		c-0.1,0.6-0.1,1.1-0.1,1.6H44h-1.4h-4.4c-1.8-5.3-3-10.7-3.5-16.3c0.1-0.2,0-0.4-0.1-0.6c-0.6-6.3-0.1-12.6,1.6-18.7
		c1.2,1.1,3.5,3.4,5.8,6.6c0,0,0,0,0,0c0.3,0.4,0.6,0.9,0.9,1.3c0.3,0.5,0.6,0.9,0.9,1.4c2,3.3,3.9,7.4,4.8,12l-0.5,0.9
		C46.2,260.9,45.2,264,44.7,266.7C44.7,266.6,44.7,266.7,44.7,266.7z M45.7,270.7L45.7,270.7c0.2-4.5,1.5-8.8,3.9-12.6
		c0.2-0.4,0.4-0.8,0.7-1.1c1.5-2.5,2.9-4.3,4.2-5.7c0.7-0.7,1.4-1.3,2-1.8c1.9-1.5,3.3-2,4.1-2.1c1.8,9.9-2.6,18.8-5.6,23.4H45.7z"
		/>
</g>
<g id="expert" class="st27">
	<path class="st29" d="M61,246.4c0,0-2.2,0-5.3,2.4c2.7-12.1-1.6-22.9-1.6-22.9c-4.7,4.4-8.5,9.7-11.2,15.6c-3.5-5-7-7.8-7-7.8
		c-2,6.6-2.7,13.5-2,20.3c-2.5-2.2-5.3-4.1-8.4-5.4c-0.3,8.9,3.4,17.1,6.7,22.7h10.9l0,0H45h4.4h5.9C58.4,266.6,63.3,257.1,61,246.4
		z"/>
	<path class="st30" d="M61.7,246.3c-0.1-0.3-0.4-0.6-0.7-0.6c-0.1,0-1.8,0-4.2,1.5c1.9-11.3-1.9-21-2.1-21.5
		c-0.1-0.2-0.3-0.4-0.5-0.4c-0.2-0.1-0.5,0-0.6,0.2c-4.1,3.9-7.6,8.4-10.2,13.4c-1.3-9.6-3.8-19.9-8.6-28.4l-1.2,0.7
		c4.7,8.3,7.2,18.3,8.4,27.7l-0.5-0.3c-2.7-3.2-4.9-5.1-5.1-5.2c-0.2-0.1-0.4-0.2-0.7-0.1c-0.2,0.1-0.4,0.2-0.5,0.5
		c-1.9,6.1-2.6,12.5-2.2,18.9c-2.2-1.8-4.6-3.3-7.2-4.5c-0.2-0.1-0.5-0.1-0.7,0.1c-0.2,0.1-0.3,0.3-0.3,0.6
		c-0.3,8.9,3.4,17.3,6.6,22.7h-1.6l3.3,16.4h20.3l3.3-16.4h-0.5C59.4,266.4,64,256.9,61.7,246.3z M53.8,227.2
		c1,2.9,3.3,11.7,1.3,21.2c-1.6,1.3-3.4,3.3-5.3,6.2c-1.3-5.3-3.6-9.7-6.1-13.2c0,0,0,0,0,0c0,0,0,0,0,0
		C46.3,236.1,49.6,231.3,53.8,227.2z M32.7,270.7c-3-5.1-6.4-12.7-6.4-20.9c2.5,1.3,4.8,2.8,6.9,4.7c0.6,5.5,1.7,11,3.5,16.3H32.7z
		 M44.7,266.7c-0.2,0.8-0.3,1.6-0.3,2.3c-0.1,0.6-0.1,1.1-0.1,1.6h-0.3h-1.4h-4.3c-1.8-5.3-3-10.7-3.5-16.3c0.1-0.2,0-0.4-0.1-0.6
		c-0.6-6.3-0.1-12.6,1.6-18.7c1.2,1.1,3.5,3.4,5.8,6.6c0,0,0,0,0,0c0.1,0.2,0.2,0.3,0.3,0.5c0.2,0.3,0.4,0.6,0.6,0.9
		c0.3,0.5,0.6,0.9,0.9,1.4c0,0.1,0.1,0.2,0.1,0.2c2,3.3,3.8,7.2,4.7,11.7l-0.5,0.9C46.2,260.9,45.2,264,44.7,266.7
		C44.7,266.6,44.7,266.7,44.7,266.7z M45.7,270.7L45.7,270.7c0.2-4.5,1.5-8.8,3.9-12.6c0.2-0.4,0.4-0.8,0.7-1.1
		c1.5-2.5,2.9-4.3,4.2-5.7c0.7-0.7,1.4-1.3,2-1.8c1.9-1.5,3.3-2,4.1-2.1c1.8,9.9-2.6,18.8-5.6,23.4H45.7z"/>
	<path class="st31" d="M51.8,210.8c0-1.1-2.4-2-5.8-2.3c3-1.6,4.9-3.4,4.5-4.3c-0.4-1-3.1-0.9-6.4,0.1c2.2-2.7,3.3-5.1,2.6-5.9
		c-0.8-0.8-3.1,0.3-5.7,2.5c1-3.3,1.1-5.8,0.1-6.3c-1-0.4-2.8,1.5-4.5,4.6c-0.3-3.5-1.3-6-2.3-6c-1.1,0-2,2.4-2.3,5.8
		c-1.6-3-3.4-4.9-4.3-4.5c-1,0.4-0.9,3.1,0.1,6.4c-2.7-2.2-5.1-3.3-5.9-2.6c-0.8,0.8,0.3,3.1,2.5,5.7c-3.3-1-5.8-1.1-6.3-0.1
		c-0.4,1,1.5,2.8,4.6,4.5c-3.5,0.3-6,1.3-6,2.3c0,1.1,2.4,2,5.8,2.3c-3,1.6-4.9,3.4-4.5,4.3c0.4,1,3.1,0.9,6.4-0.1
		c-2.2,2.7-3.3,5.1-2.6,5.9c0.8,0.8,3.1-0.3,5.7-2.5c-1,3.3-1.1,5.8-0.1,6.3c1,0.4,2.8-1.5,4.5-4.6c0.3,3.5,1.3,6,2.3,6
		c1.1,0,2-2.4,2.3-5.8c1.6,3,3.4,4.9,4.3,4.5c1-0.4,0.9-3.1-0.1-6.4c2.7,2.2,5.1,3.3,5.9,2.6c0.8-0.8-0.3-3.1-2.5-5.7
		c3.3,1,5.8,1.1,6.3,0.1c0.4-1-1.5-2.8-4.6-4.5C49.3,212.8,51.8,211.8,51.8,210.8z"/>
	<g class="st28">
		<g>
			<g>
				<path class="st2" d="M18.6,204.2c0.1-0.2,0.5-0.3,1.2-0.3c0.9,0,2.3,0.2,4,0.7c-0.5-0.6-0.9-1.2-1.4-1.8
					c-2.5-0.5-4.6-0.4-5.2,0.8c-0.5,1.3,0.9,2.9,3.2,4.3c0.7-0.1,1.5-0.2,2.2-0.3C19.7,206.1,18.4,204.6,18.6,204.2z"/>
			</g>
			<g>
				<path class="st2" d="M27.2,193.8c-1.3,0.5-1.4,2.7-0.8,5.2c0.6,0.4,1.2,0.9,1.8,1.4c-0.9-3.2-0.8-5.2-0.4-5.3c0,0,0,0,0.1,0
					c0.5,0,1.8,1.3,3.3,4c0.1-0.8,0.2-1.5,0.3-2.2C30,194.7,28.5,193.3,27.2,193.8z"/>
			</g>
			<g>
				<path class="st2" d="M41.2,193.8c-0.9-0.4-2.1,0.2-3.4,1.9c-0.3,0.4-0.6,0.8-0.9,1.2c0.1,0.7,0.2,1.5,0.3,2.2
					c0.5-1,1.1-1.9,1.7-2.6c1-1.3,1.6-1.5,1.8-1.5c0,0,0,0,0,0c0.1,0,0.4,0.6,0.2,2.3c-0.1,0.9-0.3,1.8-0.6,2.9
					c0.6-0.5,1.2-0.9,1.8-1.3c0.1-0.5,0.2-0.9,0.2-1.4C42.5,195.5,42.2,194.2,41.2,193.8z"/>
			</g>
			<g>
				<path class="st2" d="M51.1,203.8c-0.5-1.3-2.7-1.4-5.2-0.8c-0.4,0.6-0.9,1.2-1.4,1.8c3.2-0.9,5.2-0.8,5.3-0.4
					c0.2,0.4-1.1,1.8-4,3.4c0.8,0.1,1.5,0.2,2.2,0.3C50.2,206.6,51.6,205,51.1,203.8z"/>
			</g>
			<g>
				<path class="st2" d="M47.9,213.5c-0.7,0.1-1.5,0.2-2.2,0.3c2.9,1.6,4.2,3.1,4.1,3.5c-0.2,0.4-2.1,0.5-5.2-0.4
					c0.5,0.6,0.9,1.2,1.3,1.8c0.9,0.2,1.8,0.3,2.5,0.3c1.3,0,2.2-0.3,2.6-1.1C51.6,216.5,50.1,215,47.9,213.5z"/>
			</g>
			<g>
				<path class="st2" d="M41.9,222.4c-0.6-0.4-1.2-0.9-1.8-1.4c1,3.3,0.8,5.2,0.4,5.4c-0.4,0.2-1.8-1.1-3.3-4
					c-0.1,0.8-0.2,1.5-0.3,2.2c1.2,1.8,2.5,3.1,3.6,3.1c0.2,0,0.4,0,0.5-0.1C42.4,227.2,42.5,225,41.9,222.4z"/>
			</g>
			<g>
				<path class="st2" d="M31.1,222.2c-1.6,3-3.1,4.3-3.5,4.1c-0.4-0.2-0.5-2.1,0.4-5.2c-0.6,0.5-1.2,1-1.8,1.4
					c-0.5,2.5-0.4,4.6,0.8,5.1c0.2,0.1,0.3,0.1,0.5,0.1c1.2,0,2.5-1.4,3.8-3.3C31.3,223.7,31.2,223,31.1,222.2z"/>
			</g>
			<g>
				<path class="st2" d="M18.5,217.1c-0.2-0.4,1.1-1.8,4-3.4c-0.8-0.1-1.5-0.2-2.2-0.3c-2.2,1.4-3.6,3-3.1,4.2
					c0.3,0.8,1.3,1.1,2.7,1.1c0.8,0,1.7-0.1,2.7-0.3c0.4-0.6,0.9-1.2,1.4-1.8C20.7,217.7,18.7,217.5,18.5,217.1z"/>
			</g>
		</g>
		<g>
			<path class="st2" d="M52.5,210.7c0-2.2-4.9-3.2-9.5-3.2c-0.4,0-0.8,0-1.2,0c0.3-0.3,0.6-0.5,0.9-0.8c3.2-3.2,6-7.4,4.5-9
				c-1.5-1.5-5.7,1.2-9,4.5c-0.3,0.3-0.6,0.6-0.8,0.9c0-0.4,0-0.8,0-1.2c0-4.6-1-9.5-3.2-9.5c-2.2,0-3.2,4.9-3.2,9.5
				c0,0.4,0,0.8,0,1.2c-0.3-0.3-0.5-0.6-0.8-0.9c-3.2-3.2-7.4-6-9-4.5c-1.5,1.5,1.2,5.7,4.5,9c0.3,0.3,0.6,0.6,0.9,0.8
				c-0.4,0-0.8,0-1.2,0c-4.6,0-9.5,1-9.5,3.2c0,2.2,4.9,3.2,9.5,3.2c0.4,0,0.8,0,1.2,0c-0.3,0.3-0.6,0.5-0.9,0.8
				c-3.2,3.2-6,7.4-4.5,9c0.3,0.3,0.7,0.4,1.2,0.4c2,0,5.2-2.3,7.8-4.9c0.3-0.3,0.6-0.6,0.8-0.9c0,0.4,0,0.8,0,1.2
				c0,4.6,1,9.5,3.2,9.5c2.2,0,3.2-4.9,3.2-9.5c0-0.4,0-0.8,0-1.2c0.3,0.3,0.5,0.6,0.8,0.9c2.6,2.6,5.8,4.9,7.8,4.9
				c0.5,0,0.9-0.1,1.2-0.4c1.5-1.5-1.2-5.7-4.5-9c-0.3-0.3-0.6-0.6-0.9-0.8c0.4,0,0.8,0,1.2,0C47.6,213.9,52.5,212.9,52.5,210.7z
				 M40,212.4c-1.6-0.2-2.9-0.5-3.8-0.8c0.8,0.4,1.9,1.1,3.2,2.1c0.7,0.6,1.4,1.2,2.2,2c3.7,3.7,4.8,6.6,4.5,7
				c-0.4,0.4-3.3-0.7-7-4.5c-0.8-0.8-1.4-1.5-2-2.2c-1-1.2-1.7-2.3-2.1-3.1c0.3,0.9,0.6,2.1,0.7,3.7c0.1,0.9,0.1,1.9,0.1,2.9
				c0,5.3-1.3,8.1-1.8,8.1s-1.8-2.8-1.8-8.1c0-1.1,0.1-2.1,0.2-2.9c0.2-1.5,0.4-2.7,0.7-3.6c-0.4,0.8-1.1,1.8-2,3
				c-0.6,0.7-1.2,1.4-2,2.2c-3.7,3.7-6.6,4.8-7,4.5c-0.4-0.4,0.7-3.3,4.5-7c0.8-0.8,1.5-1.4,2.2-2c1.3-1,2.3-1.7,3.2-2.1
				c-0.9,0.3-2.1,0.6-3.7,0.8c-0.9,0.1-1.9,0.2-3,0.2c-5.3,0-8.1-1.3-8.1-1.8s2.8-1.8,8.1-1.8c1.1,0,2.1,0.1,3,0.2
				c1.6,0.2,2.9,0.4,3.7,0.8c-0.2-0.1-0.4-0.2-0.6-0.3c-0.8-0.4-1.7-1-2.5-1.8c-0.7-0.6-1.5-1.3-2.2-2c-3.7-3.7-4.8-6.6-4.5-7
				c0,0,0.1-0.1,0.2-0.1c0.8,0,3.5,1.3,6.8,4.6c0.8,0.8,1.4,1.5,2,2.2c1,1.2,1.7,2.3,2.1,3.1c-0.3-0.9-0.6-2.1-0.7-3.7
				c-0.1-0.9-0.2-1.9-0.2-2.9c0-5.3,1.3-8.1,1.8-8.1s1.8,2.8,1.8,8.1c0,1.1-0.1,2.1-0.1,2.9c-0.2,1.6-0.4,2.9-0.8,3.7
				c0.4-0.8,1.1-1.9,2.1-3.1c0.6-0.7,1.2-1.4,2-2.2c3.3-3.3,5.9-4.6,6.8-4.6c0.1,0,0.2,0,0.2,0.1c0.4,0.4-0.8,3.3-4.5,7
				c-0.7,0.7-1.5,1.4-2.2,2c-0.9,0.7-1.7,1.3-2.5,1.8c-0.2,0.1-0.4,0.2-0.6,0.3c0.9-0.3,2.1-0.6,3.7-0.8c0.9-0.1,1.9-0.2,3-0.2
				c5.3,0,8.1,1.3,8.1,1.8s-2.8,1.8-8.1,1.8C41.9,212.5,40.9,212.5,40,212.4z"/>
		</g>
	</g>
	<g class="st28">
		<circle class="st0" cx="34.2" cy="210.8" r="3.5"/>
		<path class="st2" d="M34.2,214.9c-1.4,0-2.7-0.7-3.5-1.9c-1.2-1.9-0.7-4.5,1.2-5.8c1.9-1.2,4.5-0.7,5.8,1.2v0
			c1.2,1.9,0.7,4.5-1.2,5.8C35.8,214.7,35,214.9,34.2,214.9z M34.2,208c-0.5,0-1,0.1-1.5,0.4c-1.3,0.8-1.7,2.6-0.8,3.8
			c0.8,1.3,2.6,1.7,3.8,0.8c1.3-0.8,1.7-2.6,0.8-3.8l0,0C36,208.4,35.1,208,34.2,208z"/>
	</g>
</g>
</svg>
