<?xml version="1.0" encoding="UTF-8"?><svg id="Calque_1" xmlns="http://www.w3.org/2000/svg" viewBox="0 0 400 300"><defs><style>.cls-1{fill:none;stroke:#231f20;stroke-linecap:round;stroke-linejoin:round;}.cls-2{fill:#47474a;}.cls-2,.cls-3,.cls-4,.cls-5,.cls-6,.cls-7,.cls-8,.cls-9{stroke-width:0px;}.cls-3{fill:#6cac48;}.cls-4{fill:#599636;}.cls-5{fill:#231f20;}.cls-6{fill:#d1d3d4;}.cls-7{fill:#c2bfbf;}.cls-8{fill:#fff;}.cls-9{fill:#e52c36;}</style></defs><g id="essentiel"><path class="cls-8" d="M332.71,234.51s-5.56-.09-11.6,10.14l-.05.09v-.05c-2.69-14.1-13.72-22.96-13.72-22.96-2.07,6.65-2.73,13.63-2.03,20.56-2.5-2.26-5.38-4.1-8.49-5.52-.24,9.01,3.39,17.3,6.79,22.96h23.29c3.16-4.76,8.11-14.43,5.8-25.22Z"/><path class="cls-5" d="M333.42,234.37c-.09-.33-.38-.57-.71-.57-.24,0-5.47,0-11.32,9.05-3.21-13.2-13.15-21.31-13.63-21.69-.19-.14-.42-.19-.66-.14s-.42.24-.47.47c-1.93,6.18-2.64,12.64-2.17,19.1-2.22-1.79-4.67-3.35-7.31-4.53-.24-.09-.47-.05-.66.05-.19.14-.33.33-.33.61-.24,9.05,3.44,17.45,6.7,23.01h-1.7l3.3,16.6h20.51l3.3-16.6h-.52c3.25-5,8.02-14.57,5.66-25.37ZM332.19,235.36c1.89,10.04-2.59,19-5.66,23.67h-5.14c-.14-.05-.33-.09-.47-.05h-3.72c.24-4.53,1.6-8.91,3.96-12.73.24-.42.47-.8.66-1.18,4.57-7.83,8.86-9.38,10.37-9.71ZM307.63,223c2.59,2.36,10.37,10.28,12.64,21.59l-.52.9c-3.25,5.89-4.01,10.47-4.05,13.48h-6.13c-1.79-5.33-2.97-10.84-3.54-16.46.09-.19.05-.42-.05-.61-.61-6.32-.05-12.78,1.65-18.91ZM304.61,242.66c.57,5.61,1.74,11.13,3.54,16.46h-4.05c-3.02-5.19-6.46-12.82-6.46-21.17,2.5,1.23,4.86,2.83,6.98,4.71Z"/></g><path class="cls-6" d="M210.92,258.33c-.3,0-.5-.2-.5-.5V64.03c0-.3.2-.5.5-.5s.5.2.5.5v193.8c0,.3-.2.5-.5.5Z"/><path class="cls-6" d="M193.52,276.43c-.1,0-.3-.1-.4-.1-.2-.2-.2-.5,0-.7h0l17.4-18c.2-.2.5-.2.7,0l17.4,18c.2.2.1.5-.1.7-.2.2-.5.2-.7,0l-17.1-17.6-16.8,17.5c-.1.1-.2.2-.4.2Z"/><path class="cls-1" d="M210.92,258.33c-.3,0-.5-.2-.5-.5V64.03c0-.3.2-.5.5-.5s.5.2.5.5v193.8c0,.3-.2.5-.5.5Z"/><path class="cls-1" d="M193.52,276.43c-.1,0-.3-.1-.4-.1-.2-.2-.2-.5,0-.7h0l17.4-18c.2-.2.5-.2.7,0l17.4,18c.2.2.1.5-.1.7-.2.2-.5.2-.7,0l-17.1-17.6-16.8,17.5c-.1.1-.2.2-.4.2Z"/><rect class="cls-8" x="135.52" y="68.23" width="150.9" height="111.5"/><path class="cls-5" d="M286.42,180.23h-150.9c-.3,0-.5-.2-.5-.5v-111.5c0-.3.2-.5.5-.5h150.9c.3,0,.5.2.5.5v111.6c.1.2-.1.4-.5.4q.1,0,0,0ZM136.12,179.23h149.8v-110.5h-149.8v110.5Z"/><path class="cls-6" d="M185.82,142.33h-35.8c-.3,0-.5-.2-.5-.5s.2-.5.5-.5h35.9c.3,0,.5.2.5.5-.1.3-.3.5-.6.5h0Z"/><path class="cls-6" d="M185.82,150.63h-35.8c-.3,0-.5-.2-.5-.5s.2-.5.5-.5h35.9c.3,0,.5.2.5.5-.1.2-.3.5-.6.5h0Z"/><path class="cls-6" d="M185.82,158.83h-35.8c-.3,0-.5-.2-.5-.5s.2-.5.5-.5h35.9c.3,0,.5.2.5.5s-.3.5-.6.5h0Z"/><path class="cls-6" d="M177.22,167.13h-27.2c-.3,0-.5-.2-.5-.5s.2-.5.5-.5h27.2c.3,0,.5.2.5.5,0,.2-.2.5-.5.5h0Z"/><path class="cls-6" d="M187.52,109.43h-36.4c-.3,0-.5-.2-.5-.5v-27.7c0-.3.2-.5.5-.5h36.4c.3,0,.5.2.5.5v27.6c0,.3-.2.6-.5.6ZM151.62,108.43h35.4v-26.7h-35.4v26.7h0Z"/><path class="cls-5" d="M377.42,276.83H32.42c-.3,0-.5-.2-.5-.5s.2-.5.5-.5h345.1c.3,0,.5.2.5.5s-.3.5-.6.5Z"/><path class="cls-8" d="M87.52,93.03c-.6-2.2-1.1-4.5-1.4-6.8-.3-2.3.2-4.7,1.4-6.7.5-.8,1.2-1.4,2.1-1.7s1.9,0,2.5.7c.6-.9,1.5-1.6,2.5-2,2.3-1.2,4.9-1.7,7.5-1.4,2.6.2,5,1.5,6.7,3.4.6.9,1.3,1.7,2,2.5,1.3,1.3,3.2,1.8,5,1.4-.6,3.4-2.5,6.5-5.4,8.4s-6.1,3.2-9.5,3.8c-1.8.4-3.6.6-5.4.4s-3.5-1.1-4.6-2.6"/><path class="cls-5" d="M97.02,95.63c-.5,0-1,0-1.5-.1-2-.2-3.8-1.2-5-2.8-.2-.2-.1-.5.1-.7h0c.2-.2.6-.1.7.1,1.1,1.3,2.6,2.2,4.3,2.3,1.7.2,3.5,0,5.2-.4,3.3-.6,6.5-1.8,9.3-3.7,2.6-1.8,4.4-4.4,5.1-7.4-1.7.2-3.5-.4-4.7-1.6-.5-.5-.9-1-1.3-1.6-.2-.3-.5-.6-.7-.9-1.6-1.9-3.9-3-6.3-3.2-2.5-.2-5,.3-7.2,1.4-.9.4-1.7,1-2.3,1.8-.1.1-.3.2-.4.2-.2,0-.3-.1-.4-.2-.6-.6-1.4-.8-2-.6-.8.3-1.4.8-1.9,1.5-1.1,1.9-1.6,4.1-1.3,6.4.2,1.7.5,3.4,1,5,.2.6.3,1.2.4,1.8.1.3-.1.5-.4.6h0c-.3.1-.5-.1-.6-.4-.1-.6-.3-1.2-.4-1.8-.5-1.7-.8-3.4-1-5.1-.3-2.4.2-4.9,1.5-7,.6-.9,1.4-1.6,2.4-1.9.9-.3,1.9-.1,2.6.4.7-.7,1.5-1.3,2.4-1.6,2.4-1.2,5.1-1.7,7.7-1.5,2.7.3,5.2,1.5,7,3.6.3.3.5.7.8,1,.4.5.7,1,1.2,1.4,1.2,1.1,2.9,1.6,4.5,1.2.2,0,.3,0,.5.1.1.1.2.3.2.4-.6,3.6-2.6,6.7-5.6,8.7-2.9,2-6.2,3.3-9.7,3.9-1.5.5-2.8.7-4.2.7Z"/><path class="cls-8" d="M103.92,103.33l.7,8.3s-2.5,5.1-7.8,3.9c-3.2-.8-5.9-3-7.3-5.9l-.1-15.1s3.9-2.2,2.7-10.7c4.4,1.8,9.2,2.5,13.9,1.8,0,0,2.5,9.3,1.9,13.4s-4,4.3-4,4.3Z"/><path class="cls-5" d="M98.42,116.23c-.6,0-1.2-.1-1.7-.2-3.4-.8-6.2-3.1-7.7-6.2v-.2l-.1-15.1c0-.2.1-.4.3-.5,0,0,3.6-2.1,2.4-10.2,0-.2,0-.4.2-.5s.4-.1.5,0c4.3,1.8,9,2.4,13.6,1.8.3,0,.5.1.6.4.1.4,2.5,9.5,1.9,13.7-.1,2.2-1.7,4.1-3.9,4.7l.6,7.8v.3c.1-.2-2.2,4.2-6.7,4.2ZM90.02,109.53c1.4,2.8,3.9,4.8,6.9,5.5,4.5,1,6.8-2.7,7.2-3.5l-.7-8.1c0-.1,0-.3.1-.4s.2-.2.4-.2h0c.1,0,3-.2,3.5-3.9.5-3.5-1.3-10.9-1.8-12.8-4.4.5-8.8,0-12.9-1.6.8,6.9-1.9,9.5-2.8,10.2l.1,14.8Z"/><path class="cls-5" d="M104.12,107.43c-2,.2-4-.4-5.5-1.7-2.4-2.2-2.2-3.6-2.2-3.6,0,0,3.8,2,7.3,1.3l.4,4Z"/><path class="cls-5" d="M103.32,108.03c-1.9,0-3.6-.7-5-1.9-2.5-2.3-2.3-3.8-2.3-4s.1-.3.3-.4c.1-.1.3-.1.5,0,0,0,3.7,2,7,1.3.1,0,.3,0,.4.1s.2.2.2.3l.4,4c0,.3-.2.5-.4.5-.5,0-.8.1-1.1.1ZM97.12,103.03c.4.9,1.1,1.7,1.8,2.3,1.3,1.1,2.9,1.7,4.6,1.6l-.3-3c-2,.3-4.1-.1-6.1-.9Z"/><path class="cls-8" d="M100.22,90.73s2.5,4.7,1.8,5.4-2.7,0-2.7,0"/><path class="cls-5" d="M100.92,96.93c-.6,0-1.2-.1-1.8-.3-.3-.1-.4-.4-.3-.6.1-.3.4-.4.6-.3h0c.7.2,1.8.4,2.2.1.1-.4-.7-2.6-1.9-4.8-.1-.2,0-.5.2-.7s.5,0,.7.2c1.2,2.3,2.5,5.2,1.7,6-.4.3-.9.4-1.4.4Z"/><path class="cls-5" d="M100.12,100.03h-.3c-1.6-.1-3-.9-4-2.1-.2-.2-.2-.5,0-.7s.5-.2.7,0c.8,1,2,1.7,3.2,1.8,1.5,0,2.9-.6,4-1.5.2-.2.5-.2.7,0s.2.5,0,.7h0c-1.1,1-2.7,1.7-4.3,1.8Z"/><ellipse class="cls-5" cx="96.91" cy="89.99" rx="1.2" ry=".5" transform="translate(.73 180.76) rotate(-86.22)"/><ellipse class="cls-5" cx="104.06" cy="89.92" rx="1.2" ry=".5" transform="translate(7.48 187.83) rotate(-86.22)"/><path class="cls-8" d="M92.82,92.33c-.5-.8-1.1-1.5-1.8-2.1-.4-.3-.9-.5-1.4-.6-.4,0-.8.1-1.2.3-1.1.6-1.8,1.7-2.1,2.9-.1.6-.1,1.1.1,1.7.3.8.9,1.6,1.7,2,.8.4,1.6.8,2.4,1.1"/><path class="cls-5" d="M90.62,98.13h-.2c-.9-.3-1.7-.6-2.5-1.1-.9-.5-1.5-1.3-1.9-2.3-.2-.6-.2-1.3-.1-1.9.3-1.4,1.1-2.5,2.3-3.2.4-.3.9-.4,1.4-.4.6.1,1.2.3,1.7.7.8.6,1.5,1.4,2,2.2.1.2.1.6-.2.7-.2.1-.6.1-.7-.2h0c-.4-.7-1-1.4-1.7-1.9-.3-.3-.7-.4-1.1-.5-.3,0-.6.1-.9.3-.9.6-1.6,1.5-1.8,2.5-.1.5-.1,1,0,1.4.3.7.8,1.3,1.4,1.7.7.4,1.5.8,2.3,1,.3.1.4.4.3.7.1.1-.1.3-.3.3Z"/><path class="cls-8" d="M61.12,265.53s-3.2,8.7-1.8,9.6,22.5,1.2,29.8,0c2.4-.4-11.1-9-11.1-9"/><path class="cls-5" d="M73.52,276.43c-7,0-13.5-.3-14.4-.9-1.5-.9.3-6.8,1.6-10.2.1-.3.4-.4.6-.3.3.1.4.4.3.6-1.6,4.3-2.5,8.5-2,9,1.3.7,21.2,1.2,29.2,0-.9-1.2-6.1-5-11-8.1-.2-.1-.3-.4-.2-.7h0c.1-.2.5-.3.7-.1,5.4,3.5,11.9,7.9,11.6,9.4-.1.3-.4.6-.7.6-5.2.6-10.5.8-15.7.7Z"/><path class="cls-8" d="M109.82,261.53l.4,14.1s28.9,1.4,27.4-.4c-1.5-1.9-15-11.8-15-11.8l-1.9-10.1-10.9,8.2Z"/><path class="cls-5" d="M128.02,276.63c-5.7,0-12.7-.3-17.8-.5-.3,0-.5-.2-.5-.5l-.4-14.1c0-.2.1-.3.2-.4l10.9-8.3c.2-.2.5-.1.7.1,0,.1.1.1.1.2l1.8,9.9c1.6,1.2,13.5,10,14.9,11.8.2.2.2.5.1.8-.4.7-4.6,1-10,1ZM110.62,275.13c11.5.6,24,.8,26.3.1-1.9-1.9-10.2-8.2-14.6-11.5-.1-.1-.2-.2-.2-.3l-1.7-9.3-10.1,7.7.3,13.3Z"/><path class="cls-5" d="M113.02,163.83l12.6,101.4-16.5.4-18.8-70.7-10.4,71.2-19.1-.9s3.3-39.8,5.1-55,4.4-41.3,4.4-41.3l42.7-5.1Z"/><path class="cls-8" d="M90.02,193.43c-.1,0-.2,0-.3-.1-.2-.2-6.1-5.2-6.1-13,0-.3.2-.5.5-.5h0c.3,0,.5.2.5.5,0,7.4,5.7,12.2,5.8,12.3.2.2.2.5.1.7h0c-.2.1-.3.1-.5.1Z"/><polygon class="cls-5" points="159.52 129.13 178.12 85.93 179.42 86.33 162.32 130.53 159.52 129.13"/><path class="cls-8" d="M149.12,131.03c2.1-1,4.1-2.1,6.1-3.3,3-2,4.4-5,6.3-8.1.2-.3.4-.6.7-.8.5-.2,1.1,0,1.5.5.3.5.5,1,.6,1.6,1.1-1.2,2.5-2.3,4-3,.2-.1.4-.2.6-.2s.5.2.6.3c1.7,1.5,2.5,3.7,2.3,6-.7,6.3-10.6,12.3-15.7,14.9"/><path class="cls-5" d="M156.02,139.43c-.2,0-.4-.1-.4-.3-.1-.2,0-.5.2-.7,2.4-1.2,14.7-7.6,15.4-14.5.2-2.1-.6-4.2-2.1-5.6-.1,0-.2-.2-.4-.2-.1,0-.2.1-.3.1-1.4.7-2.8,1.7-3.8,2.9-.2.2-.5.2-.7,0q-.1-.1-.1-.2c-.1-.5-.2-.9-.5-1.3-.2-.3-.5-.4-.9-.3-.2.1-.4.3-.5.6-.3.5-.6,1.1-1,1.6-1.5,2.5-2.9,4.9-5.4,6.6-2,1.3-4,2.4-6.1,3.3-.2.1-.5,0-.7-.2h0c-.1-.2,0-.5.2-.7h0c2.1-1,4.1-2,6-3.3,2.4-1.6,3.7-3.9,5.1-6.3l1-1.6c.2-.4.5-.7.9-.9.8-.3,1.6-.1,2.1.6.2.3.4.6.4.9,1-1,2.2-1.8,3.5-2.5.3-.1.5-.2.8-.2.4,0,.7.2.9.5,1.8,1.6,2.7,4,2.5,6.5-.8,7.2-12.4,13.5-16,15.2.1,0,0,0-.1,0Z"/><path class="cls-9" d="M152.62,125.13s-19.5,10.8-22.9,8.1c-7.1-5.7-18.6-20-22.2-23.6-5.4-5.4-23-8.3-30.2-.5,0,0-6.1,6.3-12,19.2-4.6,10.1-7.7,25-6.8,26.3,1.2,1.5,6.4,6,11.3,4.5-.9,10.6-.5,12.4-.5,12.4,13,10.3,47.1-.5,47.1-.5l-3.8-29.4s1.5,8,14.1,10.6c12.6,2.6,35.6-14.2,35.6-14.2l-9.7-12.9Z"/><path class="cls-5" d="M113.02,143.33c-.1,0-.3-.1-.4-.2-3.7-3.9-7.3-7.9-10.6-12.2-.2-.2-.1-.5.1-.7s.5-.1.7.1c3.3,4.2,6.8,8.3,10.5,12.1.2.2.2.5,0,.7h0c0,.1-.2.2-.3.2Z"/><path class="cls-5" d="M69.62,162.63c-.3,0-.5-.2-.5-.5,0-.2-.7-25.8,8.1-51.4.1-.3.4-.4.6-.3.3.1.4.4.3.6-8.7,25.5-8.1,50.8-8.1,51.1.1.2-.1.5-.4.5q.1,0,0,0h0Z"/><path class="cls-4" d="M241.14,77.9l2.06,3.87c.46.71.96,1.35,1.55,1.93,1.73,1.71,3.34,3.53,4.83,5.46,3.49,4.58,5.84,9.66,7.52,15.17,1.01,3.36,1.55,6.81,1.6,10.29.17,10.42-3.4,19.37-10.6,26.8-1.17,1.18-2.44,2.26-3.79,3.23-.71,0-1.05-.55-1.35-1.05-.54-.93-.89-1.96-1.05-3.02-.26-1.26-.42-2.52-.34-3.82v-.59c-.06-.13-.68-57.98-.43-58.28h0Z"/><path class="cls-3" d="M241.14,77.78c-.08-.17-.17-.04-.26.04.04.84-.26,1.6-.71,2.31-.51.71-1.18,1.26-1.85,1.85-3.73,3.23-6.67,7.14-9.03,11.51-3.14,5.88-4.75,12.18-5.2,18.82-.21,2.39.76,10.84,1.51,13.27,2.06,6.47,5.75,11.89,10.55,16.59,1.18,1.13,2.44,2.18,3.73,3.2.38,0,.42-.34.51-.59.17-.54.29-1.08.38-1.64l.84-6.3-.47-59.08Z"/><path class="cls-7" d="M243.2,147.22c.08-.96.55-1.76,1.05-2.56-.51-.21-.88-.63-1.18-1.09-.26-.44-.46-.9-.63-1.39-.59-1.76-.71-3.62-.88-5.42v-1.09c-.21.17-.26,1.6-.26,1.81-.12,1.91-.38,3.8-.76,5.67-.13.76-.21,1.51-.67,2.18,0,.08,0,.17.04.29.76,2.23.96,4.49,1.09,6.81v.84c0,1.01-.04.8.8,1.13.34.13.71.17,1.05.42.26,0,.29-.21.29-.38l-.13-1.39v-3.87c-.04-.67.09-1.35.17-1.98h0Z"/><path class="cls-2" d="M207.39,165.98v1.87c0,.08,0,.15.01.22.02.22.16.36.36.42.19.05.38.08.57.11.11.01.15.06.16.18.01.42-.02.47-.43.44-.95-.05-1.9-.06-2.84,0h-.09c-.3.01-.32-.01-.32-.31,0-.05.01-.11.01-.16,0-.09.06-.14.15-.14.2-.02.38-.08.57-.11.26-.06.41-.22.43-.48.04-.28.04-.58.04-.86v-3.3c.02-.19-.08-.38-.26-.47-.22-.12-.46-.22-.7-.3-.08-.02-.15-.04-.21-.08-.18-.09-.19-.25-.01-.34.06-.04.14-.06.21-.08.75-.11,1.48-.3,2.19-.55.15-.05.19-.04.2.11.01.09,0,.2-.01.28-.02.16-.02.32-.02.47,0,.06.01.12.08.16s.12,0,.18-.04c.26-.2.52-.38.8-.54.41-.22.83-.42,1.3-.48.57-.08,1.06.08,1.49.44.18.16.34.34.47.54.12.18.14.19.3.06.47-.34.96-.65,1.49-.87.55-.23,1.12-.27,1.68-.08.58.21.97.61,1.21,1.17.2.44.28.9.28,1.38v3.3c0,.22.09.36.31.47.23.09.49.14.74.19q.16.04.16.2c-.02.41-.06.43-.45.41-.99-.06-1.97-.06-2.96,0q-.2.01-.21-.19v-.06q-.01-.33.31-.41l.32-.09c.22-.05.38-.25.38-.48l.04-.92-.02-2.41c0-.22-.05-.43-.14-.63-.31-.75-.99-1.02-1.63-.95-.49.05-.92.25-1.33.53-.09.06-.15.14-.14.26.11.79.04,1.57.05,2.36v1.71c0,.31.12.45.42.53l.57.12c.09.01.14.05.14.15v.09c-.01.34-.04.36-.38.36-.99-.05-1.97-.04-2.94,0-.33.01-.36-.02-.34-.36.01-.2.04-.21.22-.25l.41-.08c.36-.08.49-.21.52-.59l.04-.83-.02-2.47c-.02-.31-.09-.6-.26-.88-.25-.46-.63-.69-1.16-.71-.53-.04-.99.16-1.44.41-.31.18-.44.39-.42.75v1.79h-.02ZM230.55,166.06v1.73c0,.12,0,.25.02.37,0,.17.13.31.3.34.21.06.43.1.65.11.12.01.15.06.16.16v.09c-.01.43-.06.48-.48.46-.94-.06-1.87-.05-2.8,0h-.36c-.08.01-.09-.02-.11-.08-.04-.17-.04-.35,0-.52.01-.08.06-.09.14-.11.18-.02.33-.06.5-.09.31-.08.42-.2.43-.52l.04-1.03v-3.03c0-.22-.09-.36-.28-.46-.22-.12-.46-.21-.7-.3-.08-.02-.15-.05-.21-.09-.16-.11-.18-.27-.02-.39.07-.06.15-.09.25-.1.79-.12,1.55-.3,2.29-.59.09-.04.12-.01.16.06s.05.16.04.25l-.04.58c0,.08-.04.18.02.21.08.05.12-.06.19-.09.36-.3.76-.56,1.19-.76.38-.18.77-.3,1.21-.27.83.05,1.41.47,1.79,1.19.2.38.28.8.32,1.23l.04.9v2.72c.03.21.1.34.31.42.22.07.44.12.66.16.2.02.21.06.22.25v.06c-.02.42-.05.43-.47.41-.92-.05-1.84-.05-2.75,0-.12.01-.25,0-.36.01-.08,0-.12-.01-.14-.09-.02-.16-.05-.32-.01-.49.01-.08.05-.11.14-.12l.57-.09c.2-.05.31-.18.33-.36l.02-.34v-2.57c-.01-.3-.03-.59-.09-.88-.15-.63-.63-1.08-1.28-1.14-.57-.06-1.08.09-1.55.39-.23.15-.33.36-.33.61v1.86s0-.04.01-.04v-.03Z"/><path class="cls-7" d="M266.54,162.58c-.14-.9-.47-1.7-1.05-2.4-.5-.62-1.15-1.1-1.9-1.4-.77-.32-1.6-.42-2.43-.44-.34-.01-5.04.06-5.38,0-.09-.01-.15.01-.2.09-.06.09-.12.19-.16.28-.15.33-.15.31.21.36.3.05.58.08.86.16.26.09.44.23.5.52.02.14.05,4.46.05,6.48l-.05,1.44c-.01.11-.02.22-.06.32-.05.15-.14.27-.28.33-.16.08-.34.12-.52.14-.33.04-.38.05-.49.42l-.04.14c-.02.16-.01.19.15.19l3.68.04,1.44-.02.99-.12c1.13-.21,2.14-.68,3-1.43.49-.43.89-.96,1.18-1.55.34-.69.49-1.44.53-2.2.07-.44.04-.88-.03-1.32h0ZM264.76,164.33c-.05.79-.21,1.55-.61,2.24-.52.9-1.25,1.52-2.27,1.74-.44.09-.88.14-1.35.08-.33-.04-.65-.08-.96-.19-.55-.2-.75-.54-.76-1.08v-7.41c-.01-.44.19-.54.5-.55.48-.04.97-.02,1.45.02.51.05,1.01.17,1.49.36.35.15.68.35.97.6.66.57,1.1,1.28,1.35,2.11.2.68.23,1.36.2,2.05v.03ZM276.76,165.53c0-.08,0-.14-.01-.21-.11-.68-.47-1.19-1.02-1.59-.36-.26-.76-.43-1.18-.55-.08-.02-.14-.05-.21-.06.01-.06.05-.08.09-.09.25-.12.48-.26.69-.44.38-.32.63-.71.76-1.19.08-.26.08-.52.05-.79-.04-.64-.37-1.23-.9-1.6-.57-.42-1.23-.59-1.92-.6-1.33-.02-2.67,0-3.99,0-.38,0-.76.02-1.16-.04-.08-.01-.18-.04-.23.05-.09.16-.2.32-.23.5-.01.09.01.14.11.15l.85.12c.33.05.57.23.59.53.02.2.04.41.04.61l-.02,2.3v4.55c-.01.27-.05.53-.1.8-.03.18-.15.32-.32.37-.25.08-.48.15-.74.15-.14-.01-.27.08-.32.21-.05.11-.09.23-.11.34-.02.15.01.2.16.18.11-.01,4.17.09,4.93.01.45-.05.9-.11,1.35-.25.77-.25,1.49-.6,2.05-1.21.47-.49.74-1.08.76-1.77.04-.16.04-.32.04-.49h0ZM270.8,160.49l.04-.99c0-.19.08-.27.26-.31.3-.06.59-.04.88-.02.3.02.58.06.87.15.54.16.96.47,1.21.99.11.23.17.49.17.75.01.34-.01.68-.15,1.01-.21.46-.54.75-1.02.83-.48.09-1.84.05-2.05.05-.19,0-.2-.02-.2-.21v-1.16c-.03-.36-.03-.72-.01-1.08h0ZM274.79,167.11c-.21.55-.59.94-1.13,1.14-.3.11-.59.18-.9.16-.38-.01-.76,0-1.14-.08-.52-.11-.75-.6-.79-.96-.06-.63-.02-1.27-.04-1.73v-1.62c0-.2.02-.26.23-.26h1.16s.79.1.79.1c.55.12,1.06.33,1.45.76.32.34.49.76.53,1.21.04.43.01.85-.15,1.25h-.01Z"/><path class="cls-2" d="M243.56,163.4l.32.05c.34.01.75-.11.87-.59.07-.23.07-.47,0-.7-.08,0-.11.06-.15.09-.19.15-.39.23-.61.26-.44.05-.88.02-1.32-.14l-.6-.21c-.42-.14-.86-.19-1.3-.17-.63.05-1.21.26-1.77.55-.59.32-1.01.8-1.21,1.45-.11.38-.12.77-.08,1.17.12.9.59,1.52,1.43,1.86.05.01.09.04.14.05.11.06.12.12.02.21l-.31.21-.74.45c-.19.11-.21.2-.15.39.08.23.21.43.39.59.17.15.36.26.57.34.14.06.14.09.01.2l-.7.5c-.23.18-.47.36-.66.59-.28.3-.39.71-.3,1.1.09.43.31.81.64,1.1.32.3.71.51,1.13.61.69.2,1.4.21,2.1.08,1.01-.19,1.89-.63,2.58-1.39.48-.5.76-1.1.79-1.8.06-.84-.51-1.6-1.33-1.79l-.66-.12-2.03-.18c-.22-.01-.44-.05-.63-.16-.23-.15-.3-.43-.15-.61.11-.14.25-.22.42-.23l.39-.04c.78-.08,1.51-.41,2.08-.95.3-.28.52-.65.63-1.05.15-.53.15-1.08.02-1.62-.04-.14-.02-.15.15-.12h0ZM240.55,169.53c.08.01.15,0,.22,0,.52.02,1.05.06,1.55.2.16.05.33.11.48.19.49.27.68.74.61,1.24-.08.55-.38.95-.86,1.21-.32.18-.68.26-1.05.3-.14.01-.26,0-.39,0-.43.01-.85-.04-1.25-.21-.28-.11-.52-.27-.72-.49-.43-.43-.63-1.21.01-1.86.39-.37.83-.62,1.4-.57h0ZM241.95,165.69c-.26.65-.83.85-1.39.76-.52-.08-.9-.36-1.14-.83-.32-.63-.41-1.28-.22-1.95.14-.5.44-.88.99-.97.69-.12,1.35.12,1.7.81.18.33.26.74.26,1.32-.01.23-.06.55-.19.86h0ZM226.47,164.85c-.11-.66-.36-1.27-.81-1.77-.68-.75-1.54-1.08-2.51-1.08-.85-.01-1.65.23-2.36.68-.7.42-1.21,1.09-1.44,1.88-.21.71-.2,1.44-.04,2.16.43,1.94,1.93,2.78,3.72,2.65.53-.04,1.03-.21,1.51-.44.71-.33,1.23-.86,1.59-1.56.28-.58.41-1.19.39-1.9l-.06-.63ZM224.72,167.58c-.18.57-.68.97-1.27,1.03-.54.08-1.05-.06-1.5-.38-.33-.24-.59-.56-.77-.92-.5-1.03-.59-2.11-.33-3.22.08-.34.26-.65.52-.9.45-.42.99-.52,1.57-.39.57.12.99.43,1.35.9s.52,1.01.61,1.57c.05.28.05.58.06.76,0,.59-.05,1.08-.23,1.55h0ZM253.32,164.95c-.09-.71-.36-1.36-.86-1.9-.66-.72-1.52-1.03-2.48-1.05-.83-.01-1.59.22-2.29.63-.79.47-1.33,1.13-1.54,2.03-.25.98-.15,2.01.3,2.92.41.86,1.1,1.41,2.01,1.66,1.01.27,1.97.15,2.9-.31.81-.39,1.39-1.01,1.72-1.84.2-.49.27-1.02.28-1.63,0-.11-.02-.31-.04-.5h0ZM251.63,167.42c-.2.66-.61,1.1-1.32,1.19-.52.08-1.01-.05-1.45-.34-.38-.26-.65-.6-.85-1.01-.22-.43-.34-.88-.39-1.35-.08-.58-.08-1.14.06-1.72.03-.11.06-.23.11-.33.34-.86,1.1-1.25,2.01-1.06.6.14,1.06.47,1.4.97.33.49.49,1.03.57,1.62.04.23.05.48.04.69,0,.48-.04.92-.18,1.35h0Z"/></svg>