<?xml version="1.0" encoding="utf-8"?>
<!-- Generator: Adobe Illustrator 28.1.0, SVG Export Plug-In . SVG Version: 6.00 Build 0)  -->
<svg version="1.1" id="Calque_1" xmlns="http://www.w3.org/2000/svg" xmlns:xlink="http://www.w3.org/1999/xlink" x="0px" y="0px"
	 viewBox="0 0 400 300" style="enable-background:new 0 0 400 300;" xml:space="preserve">
<style type="text/css">
	.st0{fill:#231F20;}
	.st1{fill:#0FAAC8;}
	.st2{fill:#FFFFFF;}
	.st3{fill:#D1D3D4;}
</style>
<path class="st0" d="M371.8,256.6h-345c-0.3,0-0.5-0.2-0.5-0.5s0.2-0.5,0.5-0.5h345.1c0.3,0,0.5,0.2,0.5,0.5
	C372.4,256.4,372.1,256.6,371.8,256.6z"/>
<g id="fondamental">
	<circle class="st1" cx="318.9" cy="199.8" r="4.6"/>
	<path class="st2" d="M338.5,221.2c0,0-1.8,0-4.5,2.1c2.3-10.3-1.4-19.4-1.4-19.4c-4,3.7-7.2,8.2-9.5,13.2c-3-4.2-6-6.6-6-6.6
		c-1.7,5.6-2.3,11.4-1.7,17.2c-2.1-1.9-4.5-3.5-7.1-4.6c-0.2,7.6,2.9,14.5,5.7,19.3h19.5C336.3,238.4,340.4,230.3,338.5,221.2z"/>
	<path class="st0" d="M339.1,221.1c-0.1-0.3-0.3-0.5-0.6-0.5c-0.1,0-1.5,0-3.6,1.3c1.6-9.6-1.6-17.8-1.7-18.2
		c-0.1-0.2-0.2-0.3-0.4-0.4c-0.2,0-0.4,0-0.5,0.1c-3.6,3.4-6.7,7.4-8.9,11.9c-0.8-4.3-1.7-8-2.4-10.8c1.9-0.8,3.2-2.6,3.2-4.8
		s-1.4-4.1-3.4-4.9c-0.4-0.1-0.8-0.2-1.2-0.3h-0.7c-2.9,0-5.2,2.3-5.2,5.2c0,2.6,2,4.8,4.6,5.1h0.6c0.3,0,0.6,0,0.9-0.1
		c0.7,2.5,1.5,5.9,2.2,9.6c-2.3-2.7-4.2-4.3-4.4-4.5c-0.2-0.1-0.4-0.2-0.6-0.1c-0.2,0.1-0.3,0.2-0.4,0.4c-1.6,5.2-2.2,10.6-1.8,16
		c-1.9-1.5-3.9-2.8-6.1-3.8c-0.2-0.1-0.4,0-0.6,0.1s-0.3,0.3-0.3,0.5c-0.2,7.6,2.9,14.7,5.6,19.3H312l2.8,13.9H332l2.8-13.9h-0.4
		C337.1,238.2,341.1,230.2,339.1,221.1L339.1,221.1z M314.9,200.2c1-0.3,2.1-0.2,2.9-0.1c0,0.4-0.1,0.8-0.1,1.2
		c0,0.7,0.1,1.5,0.2,2.3C316.3,203.3,315.1,201.9,314.9,200.2z M318,199L318,199c-0.8-0.1-1.9-0.2-3,0c0.2-0.9,0.7-1.7,1.4-2.3
		c0.7-0.6,1.6-0.9,2.5-0.9h0.1C318.6,196.6,318.2,197.7,318,199z M319.4,203.7h-0.2c-0.1-0.6-0.2-1.1-0.2-1.7l0,0
		c0-0.8,0-1.6,0.1-2.3c0.2-1.6,0.7-2.9,1.1-3.7c1.6,0.5,2.7,2,2.7,3.8c0,1.6-0.9,3-2.3,3.6C320.2,203.6,319.8,203.7,319.4,203.7
		L319.4,203.7z M332.4,205c0.8,2.5,2.8,9.9,1.1,18c-1.4,1.1-2.9,2.8-4.5,5.2c-1.1-4.5-3.1-8.3-5.2-11.2
		C326,212.5,328.8,208.5,332.4,205z M314.5,241.9c-2.5-4.4-5.4-10.8-5.4-17.8c2.1,1.1,4.1,2.4,5.9,4c0.5,4.7,1.5,9.3,2.9,13.8H314.5
		z M324.6,238.4c-0.1,0.7-0.2,1.4-0.3,1.9c0,0.5-0.1,1-0.1,1.4h-5.1c-1.5-4.5-2.5-9.1-3-13.8c0.1-0.2,0-0.4-0.1-0.5
		c-0.5-5.3-0.1-10.7,1.4-15.9c1,0.9,3,2.9,5,5.6l0,0c0.3,0.4,0.5,0.7,0.8,1.1c0.3,0.4,0.5,0.8,0.8,1.2c1.7,2.8,3.3,6.2,4.1,10.2
		l-0.4,0.8C326,233.5,325.1,236.2,324.6,238.4L324.6,238.4L324.6,238.4z M325.5,241.8L325.5,241.8c0.2-3.8,1.3-7.5,3.3-10.7
		c0.2-0.3,0.4-0.7,0.6-1c1.2-2.1,2.5-3.7,3.6-4.8c0.6-0.6,1.1-1.1,1.7-1.5c1.6-1.3,2.8-1.7,3.5-1.8c1.6,8.4-2.2,15.9-4.7,19.9
		L325.5,241.8L325.5,241.8L325.5,241.8z"/>
</g>
<g id="_518_data_processing_flatline">
	<polygon class="st2" points="190.6,131.2 147.9,131.2 152.3,116.2 195,116.2 	"/>
	<path class="st0" d="M190.6,131.6h-42.7c-0.2,0-0.4-0.2-0.4-0.4c0,0,0-0.1,0-0.1l4.5-15c0.1-0.2,0.2-0.3,0.4-0.3H195
		c0.2,0,0.4,0.2,0.4,0.4c0,0,0,0.1,0,0.1l-4.5,15C190.9,131.5,190.8,131.6,190.6,131.6L190.6,131.6z M148.5,130.7h41.8l4.2-14.1
		h-41.8L148.5,130.7z"/>
	<polygon class="st2" points="188.5,126.7 189.6,123.1 154.9,123.1 153.8,126.7 	"/>
	<path class="st0" d="M188.5,127.1h-34.7c-0.1,0-0.3-0.1-0.4-0.2s-0.1-0.2-0.1-0.4l1.1-3.6c0.1-0.2,0.2-0.3,0.4-0.3h34.7
		c0.1,0,0.3,0.1,0.4,0.2s0.1,0.2,0.1,0.4l-1.1,3.6C188.9,127,188.7,127.2,188.5,127.1z M154.4,126.2h33.8l0.8-2.7h-33.7L154.4,126.2
		L154.4,126.2z"/>
	<polygon class="st0" points="170.9,126.7 172,123.1 154.9,123.1 153.8,126.7 	"/>
	<path class="st0" d="M170.9,127.1h-17.1c-0.1,0-0.3-0.1-0.4-0.2c-0.1-0.1-0.1-0.2-0.1-0.4l1.1-3.6c0.1-0.2,0.2-0.3,0.4-0.3H172
		c0.2,0,0.4,0.2,0.4,0.4c0,0,0,0.1,0,0.1l-1.1,3.6C171.3,127,171.1,127.1,170.9,127.1L170.9,127.1z M154.4,126.2h16.1l0.8-2.7h-16.1
		L154.4,126.2z"/>
	<path class="st2" d="M187,165.4c0,0,9.4-10.7,10.9-15.5s5.9-13.1,7-11.5s-2.4,10.2-2.4,10.2s9-13.5,11.8-11.7s5.1,7.2,2.9,10.5
		s-18.5,22.2-18.5,22.2L187,165.4L187,165.4z"/>
	<path class="st0" d="M198.7,169.8c0,0-0.1,0-0.1,0l-11.7-4c-0.1-0.1-0.2-0.2-0.3-0.3s0-0.3,0.1-0.4c0.1-0.1,9.3-10.7,10.9-15.4
		c1.3-4,5-11.7,7-12c0.3-0.1,0.7,0.1,0.9,0.4c0.7,1.1-0.2,4.5-1.1,7.3c3-4.1,8.1-10.4,10.4-8.9c2,1.4,3.3,3.6,3.8,5.9
		c0.4,1.7,0.1,3.6-0.8,5.1c-2.2,3.2-17.9,21.4-18.5,22.2C199,169.7,198.9,169.8,198.7,169.8L198.7,169.8z M187.8,165.2l10.8,3.7
		c1.8-2.1,16.2-18.9,18.3-21.9c0.8-1.3,1.1-2.9,0.7-4.5c-0.4-2.1-1.6-4.1-3.4-5.4c-1-0.6-5.1,2.6-11.2,11.6c-0.2,0.2-0.4,0.2-0.6,0
		c-0.1-0.1-0.2-0.3-0.1-0.4c1.4-3.5,3.2-8.8,2.5-9.8l0,0c-1,0-4.6,6.4-6.3,11.4C197,154.3,189.7,163,187.8,165.2L187.8,165.2z"/>
	<path class="st0" d="M150.4,243.8l1.6,11.5c0,0-70.6,0.8-69.7,0s0-17.8,0-17.8L150.4,243.8z"/>
	<path class="st0" d="M99.4,256.1c-17.3,0-17.4-0.3-17.5-0.6c-0.1-0.2,0-0.4,0.1-0.5c0.4-0.8,0.3-9.6-0.1-17.4
		c0-0.2,0.2-0.4,0.4-0.5c0,0,0,0,0.1,0l68.1,6.2c0.2,0,0.4,0.2,0.4,0.4l1.6,11.5c0,0.1,0,0.2-0.1,0.3c-0.1,0.1-0.2,0.1-0.3,0.2
		c-0.2,0-17.6,0.2-34.7,0.3C109.9,256.1,104.1,256.2,99.4,256.1L99.4,256.1z M82.8,255c4.4,0.4,42.7,0.2,68.7-0.1l-1.5-10.7
		l-67.3-6.1C83,243.8,83.3,252.5,82.8,255L82.8,255z"/>
	<path class="st2" d="M125.7,104.7c-0.2-0.3-0.3-0.5-0.5-0.8c-3.2-4.9-8.7-7.7-14.6-7.4c-2.4,0.1-4.7,0.5-7,1.1
		c-2.3,0.7-3.1,2.7-5.1,3.7c-0.4,0.2-0.9,0.3-1.3,0.3c-1.4,0.1-2.8,0.5-4.2,1.1c-3.6,1.6-6,6.6-7.3,10.1c-2.4,6.8-4,14-4.5,21.2
		c-0.6,6.7-1.4,14.2,1.2,20.6c2.4,6.4,6,12.3,10.6,17.5c8.4,9.2,21,14.7,33.5,13.7c7.4-0.6,14.5-3.4,21-6.9c3.8-2,7.5-4.3,10.1-7.7
		c4.8-6.4,4.5-16.2-0.7-22.3c-5.6-6.7-14.4-9.6-20-16.4C130.6,124.8,130.8,113.1,125.7,104.7L125.7,104.7z"/>
	<path class="st0" d="M123.6,186.3c-11.3,0-22.9-5.2-30.9-13.9c-4.6-5.2-8.2-11.1-10.6-17.6c-2.5-6.3-1.8-13.6-1.2-20.1l0.1-0.7
		c0.5-7.3,2.1-14.5,4.5-21.3c1.4-3.8,3.9-8.8,7.6-10.3c1.4-0.6,2.8-1,4.3-1.1h0.1c0.3,0,0.7-0.1,1-0.2c0.8-0.4,1.4-1,2-1.6
		c0.8-1,1.9-1.7,3.2-2.1c2.3-0.6,4.7-1,7.1-1.1c6-0.3,11.7,2.6,15,7.6c0.2,0.3,0.3,0.5,0.5,0.8l0,0c2.3,3.8,3.6,8.4,4.8,12.8
		c1.4,5.3,2.9,10.8,6.3,14.9c2.8,3.4,6.5,5.9,10.1,8.3s7.1,4.8,9.9,8.1c5.3,6.3,5.6,16.4,0.7,22.9c-2.7,3.6-6.7,5.9-10.2,7.9
		c-7.7,4.1-14.7,6.4-21.2,6.9C125.5,186.2,124.5,186.3,123.6,186.3L123.6,186.3z M111.3,96.9h-0.6c-2.3,0.1-4.7,0.5-6.9,1.1
		c-1.1,0.4-2,1-2.8,1.9c-0.6,0.7-1.4,1.3-2.2,1.8c-0.4,0.2-0.9,0.3-1.3,0.3h-0.1c-1.4,0.1-2.8,0.4-4,1c-3.3,1.5-5.7,6.2-7.1,9.9
		c-2.4,6.8-3.9,13.9-4.5,21.1l-0.1,0.7c-0.6,6.4-1.2,13.6,1.2,19.7c2.4,6.4,5.9,12.2,10.5,17.4c8.5,9.3,21.2,14.5,33.1,13.6
		c6.4-0.5,13.2-2.7,20.8-6.8c3.4-1.8,7.3-4.2,9.9-7.6c4.7-6.2,4.3-15.7-0.7-21.8c-2.7-3.2-6.3-5.6-9.8-7.9
		c-3.6-2.4-7.4-4.9-10.3-8.5c-3.4-4.2-5-9.8-6.4-15.2c-1.2-4.4-2.4-8.9-4.7-12.6l0,0c-0.2-0.3-0.3-0.5-0.5-0.8
		C121.9,99.6,116.8,96.9,111.3,96.9L111.3,96.9z"/>
	<path class="st1" d="M79.1,248.1c-2.5-16.4-12.1-83.7-1.1-94.5c12.6-12.3,47.2-11.7,53.5-0.6c3.4,6,13.1,16.1,13.9,29.3
		c1.1,18.7,6.6,53.8,7.9,65.8L79.1,248.1L79.1,248.1z"/>
	<polygon class="st0" points="107,248.1 99.3,153 118.9,155.1 129.6,248.1 	"/>
	<path class="st0" d="M129.6,248.5H107c-0.2,0-0.4-0.2-0.4-0.4L98.8,153c0-0.2,0.2-0.4,0.4-0.5c0,0,0.1,0,0.1,0l19.6,2.1
		c0.2,0,0.4,0.2,0.4,0.4l10.7,93c0,0.1,0,0.2-0.1,0.3C129.9,248.5,129.7,248.5,129.6,248.5L129.6,248.5z M107.4,247.6h21.7
		l-10.6-92.2l-18.8-2L107.4,247.6L107.4,247.6z"/>
	<path class="st2" d="M117.8,142.8l1.1,12.3c0,0-3.7,4.3-8.8,4.7c-8.2,0.7-10.9-6.8-10.9-6.8c-0.3-5.7-0.7-11.4-1-17.1
		c-0.2-3.9-2.3-11.8,1.4-14.4c1-0.7,2.2-1.2,3.3-1.8c3.2-2.1,5-5.8,4.6-9.6c1.4,1.7,2.8,3.4,4.8,4.3c1.7,0.6,3.5,0.8,5.3,0.7
		c1.8,0,4-0.4,5.7-0.1c1.9,0.4,1.3,0,1.8,1.6c0.6,1.9,0.3,4.6,0.4,6.6c0.2,3.7,0.5,7.3,0.5,11C125.8,140.6,117.8,142.8,117.8,142.8
		L117.8,142.8z"/>
	<path class="st0" d="M109.2,160.2c-7.6,0-10.3-7-10.3-7.1c0,0,0-0.1,0-0.1c-0.2-2.6-0.3-5.1-0.4-7.7c-0.2-3.1-0.4-6.2-0.5-9.4
		c0-0.8-0.2-1.8-0.3-2.9c-0.5-4.1-1.2-9.8,1.9-12c0.6-0.4,1.2-0.8,1.9-1.1c0.5-0.2,1-0.5,1.4-0.7c3.1-2,4.7-5.5,4.3-9.1
		c0-0.2,0.1-0.4,0.3-0.5s0.4,0,0.5,0.1c1.3,1.6,2.7,3.3,4.7,4.1c1.7,0.5,3.4,0.8,5.1,0.6c0.6,0,1.2-0.1,1.8-0.1c1.3-0.2,2.7-0.1,4,0
		l0.7,0.1c0.9,0.2,1.1,0.2,1.2,1c0,0.2,0.1,0.4,0.2,0.7c0.3,1.5,0.5,3.1,0.4,4.7v2.1c0.1,0.9,0.1,1.7,0.2,2.6
		c0.2,2.8,0.4,5.6,0.4,8.4c-0.3,5.9-6.7,8.4-8.3,8.9l1.1,11.9c0,0.1,0,0.2-0.1,0.3c-0.2,0.2-3.9,4.4-9,4.8
		C109.9,160.2,109.5,160.2,109.2,160.2L109.2,160.2z M99.7,152.9c0.3,0.7,3,7,10.4,6.4c4.3-0.3,7.7-3.7,8.3-4.4l-1.1-12.1
		c0-0.2,0.1-0.4,0.3-0.5c0.1,0,7.6-2.1,8-8.2c0-2.8-0.2-5.6-0.4-8.3c-0.1-0.9-0.1-1.7-0.2-2.6c0-0.7,0-1.4,0-2.1
		c0.1-1.5,0-3-0.4-4.4c-0.1-0.3-0.2-0.6-0.2-0.8c0-0.1,0-0.2-0.1-0.3c-0.2,0-0.3,0-0.4-0.1l-0.7-0.1c-1.2-0.2-2.5-0.2-3.7,0
		c-0.7,0-1.3,0.1-1.9,0.1c-1.8,0.1-3.7-0.1-5.5-0.7c-1.6-0.8-3.1-2-4.2-3.4c-0.1,3.5-1.9,6.7-4.8,8.6c-0.5,0.3-1,0.6-1.5,0.8
		c-0.6,0.3-1.2,0.6-1.8,1c-2.7,1.9-2,7.2-1.5,11.2c0.1,1.1,0.3,2.1,0.3,2.9c0.2,3.1,0.3,6.2,0.5,9.4
		C99.4,147.8,99.6,150.4,99.7,152.9L99.7,152.9z"/>
	<path class="st2" d="M103.3,128.9c-0.9-2.6-4.3-4.5-7.1-3.8c-3.5,0.9-3.1,4.9-1.7,7.4c1.7,3.1,5.7,4.3,8.9,2.6c0,0,0,0,0.1,0"/>
	<path class="st0" d="M100.2,136.4c-2.5,0-4.9-1.4-6.1-3.6c-0.8-1.5-1.5-4-0.7-5.9c0.5-1.1,1.5-1.9,2.7-2.2c2.9-0.7,6.6,1.2,7.6,4.1
		c0.1,0.2,0,0.5-0.3,0.6s-0.5,0-0.6-0.3l0,0c-1.1-2.6-3.8-4-6.5-3.5c-0.9,0.2-1.7,0.8-2.1,1.7c-0.7,1.5-0.1,3.7,0.7,5.1
		c1.6,2.9,5.3,4,8.2,2.4c0,0,0.1,0,0.1,0c0.2-0.1,0.5-0.1,0.6,0.1c0,0,0,0,0,0c0.1,0.2,0.1,0.5-0.2,0.6l0,0
		C102.7,136.1,101.5,136.4,100.2,136.4L100.2,136.4z"/>
	<path class="st2" d="M116.7,121.4c0,0,5.2,5.8,4.3,7s-3.8,0.9-3.8,0.9"/>
	<path class="st0" d="M118.1,129.8c-0.5,0-0.9,0-1,0c-0.2,0-0.4-0.2-0.4-0.5c0-0.2,0.2-0.4,0.5-0.4c0,0,0,0,0,0
		c0.7,0.1,2.8,0.1,3.4-0.7c0.3-0.5-1.7-3.6-4.2-6.5c-0.2-0.2-0.2-0.4,0-0.6s0.4-0.2,0.6,0c0,0,0.1,0.1,0.1,0.1
		c1.6,1.8,5.3,6.2,4.3,7.6C120.7,129.7,119.1,129.8,118.1,129.8L118.1,129.8z"/>
	<path class="st0" d="M117.8,142.8c0,0-4.6,1.3-10.5-1.8c0,0,2.9,8.4,11.1,8.5L117.8,142.8L117.8,142.8z"/>
	<path class="st0" d="M118.4,149.9L118.4,149.9c-8.4,0-11.5-8.7-11.5-8.8c-0.1-0.2,0-0.4,0.1-0.5c0.1-0.1,0.3-0.1,0.5-0.1
		c5.7,3,10.1,1.8,10.2,1.8c0.1,0,0.3,0,0.4,0.1c0.1,0.1,0.2,0.2,0.2,0.3l0.6,6.6C118.9,149.6,118.7,149.8,118.4,149.9
		C118.4,149.9,118.4,149.9,118.4,149.9L118.4,149.9z M108.2,141.9c1.1,2.1,4,6.8,9.7,7.1l-0.5-5.7
		C114.3,143.7,111.1,143.2,108.2,141.9z"/>
	<ellipse class="st0" cx="110.2" cy="122.5" rx="0.9" ry="1.9"/>
	
		<ellipse transform="matrix(0.9984 -5.617002e-02 5.617002e-02 0.9984 -6.6257 7.0104)" class="st0" cx="121.4" cy="121.4" rx="0.9" ry="1.9"/>
	<path class="st0" d="M115.1,138.6c-0.2,0-0.4,0-0.7-0.1c-0.7-0.1-1.2-0.5-1.6-1.1c-1.3-2.1-0.2-6.3-0.1-6.5
		c0.1-0.2,0.3-0.4,0.5-0.3l6.7,1.4c0.2,0.1,0.4,0.3,0.3,0.5c-0.3,2-1.3,3.9-2.9,5.2C116.7,138.3,115.9,138.6,115.1,138.6
		L115.1,138.6z M113.4,131.7c-0.3,1.4-0.7,4.1,0.1,5.4c0.2,0.4,0.6,0.6,1,0.7c0.8,0.1,1.6-0.1,2.3-0.6c1.3-1.1,2.1-2.6,2.4-4.2
		L113.4,131.7L113.4,131.7z"/>
	<path class="st1" d="M161.5,183.8c3.2-1.6,28.8-29.6,28.8-29.6l14.9,12.5c-0.3,2.1-23.6,50.9-37.3,48.4s-43-20-43-20l6.7-42.1
		C131.5,153,158.3,185.4,161.5,183.8L161.5,183.8z"/>
	<path class="st0" d="M152,238c-0.2,0-0.4-0.1-0.4-0.4l-11.6-67.3c0-0.2,0.1-0.5,0.4-0.5s0.5,0.1,0.5,0.4l0,0l11.6,67.3
		C152.4,237.7,152.3,238,152,238C152.1,238,152.1,238,152,238L152,238L152,238z"/>
	<path class="st2" d="M113.1,218.5c0.1-0.4,3.4-0.9,3.9-1c1.7-0.5,3.5-0.8,5.3-1.2c3.4-0.7,7.1-1.4,10.6-1.1
		c6.1,0.6-1.4,4.5-1.4,4.5s14.2-3.6,13.4,0s-7.5,7-11.7,8.1s-21.2,0-21.2,0L113.1,218.5L113.1,218.5z"/>
	<path class="st0" d="M125.7,228.6c-6.1,0-13.4-0.5-13.8-0.5c-0.1,0-0.2-0.1-0.3-0.2c-0.1-0.1-0.1-0.2-0.1-0.3c0,0,1.2-9.1,1.2-9.2
		l0,0c0.1-0.5,0.7-0.7,3.4-1.2c0.4-0.1,0.7-0.1,0.8-0.2c1.5-0.4,3-0.7,4.5-1l0.9-0.2c3.4-0.7,7-1.4,10.5-1.1
		c1.1,0.1,2.6,0.4,2.8,1.4c0.2,0.8-0.7,1.8-1.7,2.5c3.5-0.7,9.5-1.7,11-0.2c0.4,0.4,0.5,0.9,0.4,1.4c-0.9,3.8-7.6,7.2-12,8.4
		C131.8,228.5,128.9,228.6,125.7,228.6L125.7,228.6z M112.4,227.3c2.8,0.2,16.9,1,20.6,0c4.3-1.1,10.6-4.5,11.4-7.8
		c0.1-0.2,0-0.4-0.1-0.6c-1.3-1.3-8.5,0-12.7,1.1c-0.2,0.1-0.4-0.1-0.5-0.3c-0.1-0.2,0-0.4,0.2-0.5c1.8-0.9,3.7-2.4,3.6-3
		c0-0.2-0.6-0.5-2-0.7c-3.4-0.3-6.9,0.4-10.2,1.1l-0.9,0.2c-1.5,0.3-3,0.6-4.5,1c-0.1,0-0.5,0.1-0.9,0.2c-0.9,0.1-1.8,0.4-2.7,0.6
		C113.4,219.7,112.6,225.6,112.4,227.3L112.4,227.3z"/>
	<path class="st1" d="M76.2,156.4c-0.3,0.7-26.9,64.1-13.4,72.4c13.5,8.3,55.6,5.1,55.6,5.1l-1.8-18.8l-33.8-4.5
		C82.9,210.6,76.2,156.4,76.2,156.4z"/>
	<path class="st0" d="M115.2,215.6L115.2,215.6l-39.7-6.3c-0.2,0-0.4-0.3-0.4-0.5c0-0.2,0.3-0.4,0.5-0.4l0,0l39.7,6.3
		c0.2,0,0.4,0.3,0.4,0.5C115.6,215.4,115.4,215.6,115.2,215.6L115.2,215.6z"/>
	<path class="st0" d="M80.9,209.3c-0.2,0-0.4-0.2-0.4-0.4c-0.1-10.5,2.8-36.9,2.8-37.2c0-0.2,0.2-0.4,0.5-0.4c0.2,0,0.4,0.2,0.4,0.5
		c0,0.3-2.9,26.6-2.8,37.1C81.3,209,81.1,209.2,80.9,209.3C80.9,209.2,80.9,209.2,80.9,209.3L80.9,209.3L80.9,209.3z"/>
	<polygon class="st2" points="161.4,218.2 111.2,218.2 119.9,187.1 170.1,187.1 	"/>
	<path class="st0" d="M161.3,218.6h-50.2c-0.1,0-0.3-0.1-0.3-0.2c-0.1-0.1-0.1-0.2-0.1-0.4l8.8-31.1c0.1-0.2,0.2-0.3,0.4-0.3h50.2
		c0.1,0,0.3,0.1,0.4,0.2c0.1,0.1,0.1,0.2,0.1,0.4l-8.8,31.1C161.7,218.5,161.5,218.6,161.3,218.6L161.3,218.6z M111.8,217.7H161
		l8.5-30.2h-49.2L111.8,217.7L111.8,217.7z"/>
	<rect x="97.7" y="218.2" class="st2" width="64.1" height="2.6"/>
	<path class="st0" d="M161.8,221.2H97.7c-0.2,0-0.4-0.2-0.4-0.4c0,0,0,0,0,0v-2.6c0-0.2,0.2-0.4,0.4-0.4c0,0,0,0,0,0h64.1
		c0.2,0,0.4,0.2,0.4,0.4v2.6C162.3,221,162.1,221.2,161.8,221.2L161.8,221.2z M98.2,220.3h63.2v-1.7H98.1
		C98.1,218.6,98.1,220.3,98.2,220.3z"/>
	<rect x="97.7" y="218.2" class="st2" width="14.2" height="2.6"/>
	<path class="st0" d="M111.9,221.2H97.7c-0.2,0-0.4-0.2-0.4-0.4c0,0,0,0,0,0v-2.6c0-0.2,0.2-0.4,0.4-0.4c0,0,0,0,0,0h14.2
		c0.2,0,0.4,0.2,0.4,0.4c0,0,0,0,0,0v2.6C112.3,221,112.2,221.2,111.9,221.2C111.9,221.2,111.9,221.2,111.9,221.2L111.9,221.2z
		 M98.2,220.3h13.3v-1.7H98.2C98.2,218.6,98.2,220.3,98.2,220.3z"/>
	<path class="st2" d="M125.8,220.8c3.1-1,5.8-2.9,8.6-4.6c2.2-1.4,4.7-2.6,7.4-3c1-0.1,2-0.1,3,0c0.9,0,2.1-0.4,2.7,0.5
		c1.1,1.7,0.3,5.8-6.2,10.1"/>
	<path class="st0" d="M141.2,224.4c-0.2,0-0.4-0.2-0.4-0.4c0-0.1,0.1-0.3,0.2-0.4c3.6-2.4,5.9-5,6.3-7.4c0.2-0.7,0.1-1.5-0.3-2.1
		c-0.3-0.5-0.9-0.4-1.8-0.4h-0.5c-0.4,0-0.9,0-1.3,0c-0.6-0.1-1.1-0.1-1.7,0c-2.6,0.5-5,1.5-7.2,2.9c-0.6,0.3-1.2,0.7-1.7,1.1
		c-2.2,1.5-4.5,2.7-7,3.6c-0.2,0.1-0.5-0.1-0.6-0.3s0.1-0.5,0.3-0.6c2.4-0.9,4.7-2.1,6.8-3.5l1.8-1.1c2.2-1.3,4.7-2.6,7.5-3
		c0.6-0.1,1.2-0.1,1.8,0c0.4,0,0.8,0,1.2,0h0.5c0.8-0.1,1.9-0.2,2.6,0.7c0.5,0.8,0.6,1.8,0.4,2.8c-0.3,1.5-1.6,4.6-6.7,7.9
		C141.4,224.3,141.3,224.3,141.2,224.4L141.2,224.4z"/>
	<path class="st0" d="M240.5,204.2h-69.9c-0.2,0-0.4-0.2-0.4-0.4c0-0.1,0-0.1,0-0.1l30.5-94.8c0.1-0.2,0.2-0.3,0.4-0.3h69.9
		c0.1,0,0.3,0.1,0.4,0.2c0.1,0.1,0.1,0.3,0.1,0.4L241,203.9C240.9,204.1,240.7,204.3,240.5,204.2L240.5,204.2z M171.2,203.4h69
		l30.3-93.9h-69L171.2,203.4L171.2,203.4z"/>
	<path class="st2" d="M229,123h-23.4c-0.1,0-0.2-0.1-0.3-0.1c-0.1-0.1-0.1-0.2-0.1-0.3l2.8-8.6c0.1-0.1,0.2-0.2,0.3-0.2h23.4
		c0.1,0,0.2,0.1,0.3,0.1c0.1,0.1,0.1,0.2,0.1,0.3l-2.8,8.6C229.3,122.9,229.2,123,229,123z M206,122.3h22.7l2.6-7.9h-22.7L206,122.3
		z"/>
	<path class="st2" d="M260.8,114.4h-23c-0.2,0-0.3-0.2-0.3-0.3c0-0.2,0.1-0.3,0.3-0.3h23c0.2,0,0.3,0.2,0.3,0.3
		C261.2,114.2,261,114.4,260.8,114.4C260.8,114.4,260.8,114.4,260.8,114.4L260.8,114.4z"/>
	<path class="st2" d="M259.1,119.8h-23c-0.2,0-0.3-0.1-0.3-0.3c0,0,0,0,0,0c0-0.2,0.1-0.3,0.3-0.3h23c0.2,0,0.3,0.2,0.3,0.3
		C259.4,119.7,259.3,119.8,259.1,119.8C259.1,119.8,259.1,119.8,259.1,119.8L259.1,119.8z"/>
	<path class="st2" d="M257.3,125.3h-23c-0.2,0-0.4-0.1-0.4-0.3c0-0.2,0.1-0.4,0.3-0.4c0,0,0.1,0,0.1,0h23c0.2,0,0.3,0.2,0.3,0.4
		C257.6,125.1,257.5,125.2,257.3,125.3L257.3,125.3z"/>
	<path class="st2" d="M255.6,130.7h-23c-0.2,0-0.3-0.2-0.3-0.4c0-0.1,0.1-0.3,0.3-0.3h23c0.2,0,0.3,0.2,0.3,0.4
		C255.9,130.6,255.7,130.7,255.6,130.7z"/>
	<path class="st2" d="M230.5,154.5h-3.9c-0.1,0-0.2-0.1-0.3-0.1c-0.1-0.1-0.1-0.2-0.1-0.3l2.4-7.5c0.1-0.1,0.2-0.2,0.3-0.2h3.9
		c0.1,0,0.2,0.1,0.3,0.1c0.1,0.1,0.1,0.2,0.1,0.3l-2.4,7.6C230.8,154.4,230.7,154.5,230.5,154.5z M227,153.8h3.2l2.2-6.9h-3.2
		L227,153.8z"/>
	<path class="st2" d="M239.6,154.5h-3.9c-0.1,0-0.2-0.1-0.3-0.1c-0.1-0.1-0.1-0.2-0.1-0.3l4.5-13.9c0-0.1,0.2-0.2,0.3-0.2h3.9
		c0.1,0,0.2,0.1,0.3,0.1c0.1,0.1,0.1,0.2,0,0.3l-4.5,14C239.9,154.4,239.8,154.5,239.6,154.5L239.6,154.5z M236.1,153.8h3.2
		l4.3-13.3h-3.2L236.1,153.8z"/>
	<path class="st2" d="M248.8,154.5h-3.9c-0.1,0-0.2-0.1-0.3-0.1c-0.1-0.1-0.1-0.2-0.1-0.3l5.9-18.5c0.1-0.1,0.2-0.2,0.3-0.2h3.9
		c0.1,0,0.2,0.1,0.3,0.1c0.1,0.1,0.1,0.2,0.1,0.3l-5.9,18.5C249,154.4,248.9,154.5,248.8,154.5z M245.3,153.8h3.2l5.8-17.8h-3.2
		L245.3,153.8z"/>
	<path class="st2" d="M252.2,154.5h-29.1c-0.2,0-0.4-0.1-0.4-0.3l0,0c0-0.2,0.2-0.3,0.4-0.3h29.1c0.2,0,0.3,0.1,0.3,0.3
		C252.5,154.4,252.4,154.5,252.2,154.5C252.2,154.5,252.2,154.5,252.2,154.5L252.2,154.5z"/>
	<path class="st2" d="M194,195.2h-11.7c-0.1,0-0.2-0.1-0.3-0.1c-0.1-0.1-0.1-0.2-0.1-0.3l8.1-25.2c0-0.1,0.2-0.2,0.3-0.2h11.7
		c0.1,0,0.2,0.1,0.3,0.1c0.1,0.1,0.1,0.2,0.1,0.3l-8.1,25.2C194.3,195.1,194.1,195.2,194,195.2L194,195.2z M182.7,194.5h11l7.9-24.5
		h-11L182.7,194.5L182.7,194.5z"/>
	<path class="st2" d="M222.5,194c-3.9,0-7-1.5-9-4.1c-2.1-2.9-2.5-6.7-1.2-10.8l0,0c2.6-8.1,11.3-14.7,19.5-14.7
		c0.1,0,0.2,0.1,0.3,0.1c0.1,0.1,0.1,0.2,0.1,0.3l-4.5,14h14c0.1,0,0.2,0.1,0.3,0.1c0.1,0.1,0.1,0.2,0.1,0.3
		C239.3,187.4,230.6,194,222.5,194L222.5,194z M213,179.3c-1.3,3.9-0.9,7.5,1.1,10.2c1.8,2.5,4.8,3.8,8.4,3.8
		c7.7,0,15.9-6.1,18.6-13.8h-14c-0.1,0-0.2-0.1-0.3-0.1c-0.1-0.1-0.1-0.2-0.1-0.3l4.5-14C223.6,165.4,215.5,171.6,213,179.3z"/>
	<path class="st2" d="M244.6,177.4h-14.4c-0.1,0-0.2-0.1-0.3-0.1c-0.1-0.1-0.1-0.2,0-0.3l4.7-14.5c0.1-0.1,0.2-0.2,0.3-0.2
		c3.8,0,7,1.5,8.9,4.1c2.1,2.9,2.5,6.7,1.2,10.8C244.9,177.3,244.8,177.4,244.6,177.4L244.6,177.4z M230.6,176.7h13.7
		c1.2-3.8,0.7-7.3-1.1-9.9c-1.8-2.4-4.7-3.8-8.2-3.9L230.6,176.7L230.6,176.7z"/>
	<path class="st2" d="M206.9,194.5h-8.1c-0.2,0-0.3-0.1-0.3-0.3l0,0c0-0.2,0.1-0.3,0.3-0.3c0,0,0,0,0,0h8.1c0.2,0,0.3,0.1,0.3,0.3
		c0,0,0,0,0,0C207.3,194.4,207.1,194.5,206.9,194.5L206.9,194.5z"/>
	<path class="st2" d="M205.1,189.7h-4.8c-0.2,0-0.3-0.1-0.3-0.3s0.1-0.3,0.3-0.3h4.8c0.2,0,0.3,0.1,0.3,0.3S205.3,189.7,205.1,189.7
		z"/>
	<path class="st2" d="M205.7,157.5c-3.5,0-6.5-1.4-8.2-3.8c-1.9-2.6-2.3-6.1-1.1-9.9c2.4-7.4,10.4-13.5,17.9-13.5
		c3.5,0,6.5,1.4,8.2,3.8c1.9,2.6,2.3,6.1,1.1,9.9l0,0C221.2,151.5,213.2,157.5,205.7,157.5L205.7,157.5z M214.3,131
		c-7.2,0-14.9,5.9-17.2,13c-1.1,3.6-0.8,6.9,1,9.3c1.6,2.2,4.4,3.5,7.7,3.5c7.2,0,14.9-5.8,17.2-13l0,0c1.1-3.6,0.8-6.9-1-9.3
		C220.3,132.2,217.6,131,214.3,131z M223.3,143.9L223.3,143.9z"/>
	<path class="st0" d="M253.6,233.5h-43.4c-0.1,0-0.3-0.1-0.4-0.2c-0.1-0.1-0.1-0.3-0.1-0.4l11.6-35.9c0.1-0.2,0.2-0.3,0.4-0.3h43.4
		c0.2,0,0.4,0.2,0.4,0.4c0,0.1,0,0.1,0,0.1L254,233.2C253.9,233.4,253.8,233.5,253.6,233.5L253.6,233.5z M210.7,232.6h42.5l11.3-35
		H222L210.7,232.6L210.7,232.6z"/>
	<path class="st0" d="M197.9,248.4h-36c-0.1,0-0.3-0.1-0.4-0.2c-0.1-0.1-0.1-0.3-0.1-0.4l9.6-29.8c0.1-0.2,0.2-0.3,0.4-0.3h36
		c0.1,0,0.3,0.1,0.4,0.2c0.1,0.1,0.1,0.3,0.1,0.4l-9.6,29.8C198.2,248.3,198,248.4,197.9,248.4L197.9,248.4z M162.4,247.5h35.1
		l9.3-28.9h-35.1L162.4,247.5L162.4,247.5z"/>
	<path class="st0" d="M205.6,224.4h-36c-0.2,0-0.4-0.2-0.4-0.4s0.2-0.4,0.4-0.4h36c0.2,0,0.4,0.2,0.4,0.4S205.8,224.4,205.6,224.4
		L205.6,224.4z"/>
	<path class="st2" d="M257.1,208.4h-34c-0.2,0-0.4-0.1-0.4-0.3l0,0c0-0.2,0.2-0.3,0.4-0.3h34c0.2,0,0.3,0.1,0.3,0.3
		S257.3,208.4,257.1,208.4L257.1,208.4z"/>
	<path class="st2" d="M255.6,213.6h-6.9c-0.2,0-0.3-0.1-0.3-0.3s0.1-0.3,0.3-0.3h6.9c0.2,0,0.3,0.1,0.3,0.3S255.8,213.6,255.6,213.6
		z"/>
	<path class="st2" d="M243.7,213.6h-8.5c-0.2,0-0.3-0.1-0.3-0.3s0.1-0.3,0.3-0.3h8.5c0.2,0,0.3,0.1,0.3,0.3
		C244.1,213.4,243.9,213.6,243.7,213.6C243.8,213.6,243.7,213.6,243.7,213.6L243.7,213.6z"/>
	<path class="st2" d="M229.6,213.6h-8c-0.2,0-0.3-0.1-0.3-0.3s0.1-0.3,0.3-0.3h8c0.2,0,0.3,0.1,0.3,0.3S229.8,213.6,229.6,213.6
		L229.6,213.6z"/>
	<path class="st2" d="M253.9,219.1h-25.6c-0.2,0-0.3-0.1-0.3-0.3c0,0,0,0,0,0c0-0.2,0.2-0.3,0.3-0.3h25.6c0.2,0,0.3,0.1,0.3,0.3
		C254.2,219,254.1,219.1,253.9,219.1L253.9,219.1z"/>
	<path class="st2" d="M223.5,219.1h-3.6c-0.2,0-0.3-0.1-0.3-0.3c0,0,0,0,0,0c0-0.2,0.1-0.3,0.3-0.3h3.6c0.2,0,0.3,0.1,0.3,0.3
		S223.7,219.1,223.5,219.1L223.5,219.1z"/>
	<path class="st2" d="M251.7,224.7h-9.1c-0.2,0-0.3-0.2-0.3-0.4c0-0.1,0.1-0.3,0.3-0.3h9.1c0.2,0,0.3,0.2,0.3,0.4
		C252,224.6,251.8,224.7,251.7,224.7z"/>
	<path class="st2" d="M235.5,224.7h-17.8c-0.2,0-0.3-0.2-0.3-0.4c0-0.1,0.1-0.3,0.3-0.3h17.8c0.2,0,0.3,0.2,0.3,0.4
		C235.8,224.6,235.7,224.7,235.5,224.7z"/>
	<path class="st0" d="M204.1,154.6L204.1,154.6c-0.2,0-0.4-0.2-0.4-0.5c0.2-3.8-1.4-5.3-1.4-5.4c-0.2-0.2-0.2-0.4,0-0.6
		s0.4-0.2,0.6,0l0,0c0.1,0.1,1.9,1.8,1.7,6C204.6,154.4,204.3,154.6,204.1,154.6L204.1,154.6z"/>
	<path class="st0" d="M183.1,226.9l1.3-0.4l0.7-0.2c0.3-0.1,0.6,0.1,0.6,0.3c0.1,0.3,0.2,0.6,0.2,0.9c0,0.2,0.1,0.3,0.1,0.5
		c0.1,0.1,0.1,0.2,0.3,0.2c0.5,0.1,1,0.2,1.5,0.3c0.2,0,0.4-0.1,0.5-0.2l1-0.9c0.1-0.1,0.3-0.2,0.4-0.3c0.1-0.1,0.2-0.1,0.4,0
		c0.6,0.3,1.2,0.6,1.6,1.1c0.1,0.2,0.2,0.4,0,0.6c-0.2,0.4-0.4,0.8-0.7,1.2c-0.2,0.2-0.2,0.6-0.1,0.9c0.2,0.3,0.4,0.7,0.6,1
		c0.1,0.1,0.2,0.2,0.4,0.2h1.6c0.2,0,0.4,0.1,0.4,0.4c0.1,0.6,0.1,1.2,0.1,1.9c0,0.3-0.2,0.5-0.4,0.6c-0.3,0.2-0.7,0.3-1,0.4
		c-0.2,0.1-0.3,0.1-0.5,0.2c-0.2,0.1-0.4,0.3-0.4,0.5c-0.2,0.4-0.3,0.9-0.5,1.3c-0.1,0.2-0.1,0.5,0.1,0.7l0.8,0.9
		c0.2,0.2,0.2,0.6,0,0.8c-0.4,0.5-0.7,1-1.2,1.5c-0.2,0.3-0.6,0.4-0.9,0.3c-0.2-0.1-0.5-0.2-0.7-0.3s-0.4-0.1-0.6-0.2
		c-0.2,0-0.4,0-0.5,0.1c-0.4,0.3-0.9,0.5-1.3,0.8c-0.2,0.1-0.4,0.4-0.4,0.6c0,0.3-0.1,0.6-0.1,0.9c0,0.2-0.1,0.4-0.1,0.5
		c-0.1,0.3-0.3,0.5-0.5,0.5l-1.8,0.4H184c-0.2,0-0.4-0.1-0.4-0.3l-0.3-1.1v-0.1c-0.1-0.3-0.3-0.6-0.7-0.6c-0.3,0-0.6-0.1-1-0.2
		c-0.3-0.1-0.7,0.1-0.9,0.3c-0.3,0.3-0.6,0.6-1,0.9s-0.6,0.3-0.9,0.1c-0.4-0.3-0.9-0.6-1.3-0.9c-0.2-0.2-0.3-0.4-0.1-0.7
		s0.4-0.6,0.5-1c0.4-0.7,0.4-0.8,0.1-1.4l-0.4-0.7c-0.1-0.3-0.4-0.4-0.7-0.3c-0.3,0-0.7,0.1-1,0.1c-0.2,0-0.3,0-0.5-0.1
		c-0.2,0-0.3-0.1-0.3-0.3c0-0.6-0.1-1.2-0.1-1.8c0-0.1,0-0.2,0-0.2c0-0.2,0.2-0.4,0.4-0.5l1.2-0.5l0.4-0.2c0.2-0.1,0.3-0.3,0.4-0.5
		c0.1-0.4,0.3-0.8,0.4-1.3c0.1-0.2,0.1-0.5-0.1-0.6l-0.7-0.8l0,0c-0.3-0.4-0.3-0.5,0.1-1s0.7-1,1.2-1.4c0.2-0.2,0.5-0.4,0.7-0.2
		c0.3,0.1,0.7,0.2,1,0.4c0.3,0.1,0.7,0.1,1-0.1c0.4-0.3,0.7-0.5,1.1-0.7c0.2-0.1,0.3-0.3,0.3-0.4c0.1-0.4,0.1-0.8,0.2-1.2
		c0-0.3,0.1-0.5,0.3-0.7L183.1,226.9L183.1,226.9z M186.2,238.9c2-1.2,2.9-3.6,2.1-5.4c-0.7-1.5-3-2.2-5.2-0.9
		c-2,1.2-2.9,3.6-2.1,5.4C182,240,184.6,240,186.2,238.9L186.2,238.9z"/>
	<path class="st0" d="M184,245.5c-0.4,0-0.8-0.2-0.9-0.6l-0.3-1.1v-0.1c0-0.1,0-0.2-0.3-0.2s-0.5-0.1-0.7-0.1l-0.3-0.1
		c-0.2,0-0.4,0-0.5,0.2c-0.3,0.3-0.6,0.6-1,0.9c-0.4,0.4-0.9,0.5-1.4,0.2c-0.5-0.3-0.9-0.6-1.4-0.9c-0.4-0.3-0.5-0.8-0.3-1.2
		c0,0,0,0,0,0c0.1-0.3,0.3-0.5,0.4-0.8l0.1-0.2c0.2-0.4,0.2-0.7,0.1-0.9l-0.4-0.7c0-0.1-0.1-0.1-0.2-0.1h-0.3l-0.7,0
		c-0.2,0-0.4,0-0.6,0c-0.4-0.1-0.7-0.4-0.6-0.7l0-0.6c0-0.4,0-0.8-0.1-1.2c0-0.1,0-0.2,0-0.3c0.1-0.4,0.3-0.7,0.6-0.8l1.2-0.5
		l0.3-0.2c0.1,0,0.2-0.1,0.2-0.2c0.1-0.4,0.3-0.7,0.4-1.2v-0.1c0-0.1,0-0.2,0-0.2l-0.5-0.6l-0.2-0.2c-0.4-0.4-0.5-1.1-0.1-1.5
		c0,0,0.1-0.1,0.1-0.1c0.4-0.5,0.8-1,1.2-1.5c0.3-0.4,0.8-0.6,1.2-0.4c0.4,0.1,0.7,0.2,1,0.4c0.2,0.1,0.4,0,0.6-0.1
		c0.2-0.2,0.5-0.3,0.7-0.5l0.4-0.3c0.1-0.1,0.1-0.1,0.1-0.1l0.1-0.5c0-0.2,0.1-0.5,0.1-0.7c0-0.4,0.2-0.7,0.4-1c0,0,0.1-0.1,0.1-0.1
		l0.1-0.1c0,0,0.1,0,0.1-0.1l0.4-0.1l1-0.3c0.2-0.1,0.5-0.1,0.7-0.2c0.5-0.1,1,0.1,1.1,0.6c0.1,0.2,0.1,0.4,0.2,0.6l0.1,0.4
		c0,0.1,0.1,0.2,0.1,0.3c0.4,0.1,0.9,0.2,1.4,0.3c0.1,0,0.1-0.1,0.2-0.1l0.4-0.4l0.6-0.5c0.2-0.1,0.3-0.3,0.5-0.4
		c0.2-0.1,0.5-0.1,0.7-0.1c0.7,0.3,1.3,0.7,1.8,1.2c0.3,0.3,0.3,0.8,0.1,1.1l-0.2,0.4c-0.1,0.3-0.3,0.5-0.4,0.8s-0.1,0.4-0.1,0.4
		c0.1,0.2,0.3,0.4,0.4,0.7l0.2,0.4c0.2,0,0.3-0.1,0.5-0.1h1.1c0.5,0,0.8,0.3,0.9,0.8l0,0c0.1,0.6,0.1,1.2,0.1,1.9
		c0,0.4-0.2,0.8-0.6,1c-0.2,0.1-0.5,0.2-0.7,0.3l-0.3,0.1l-0.4,0.2c-0.1,0.1-0.2,0.1-0.2,0.2l-0.1,0.3c-0.1,0.3-0.2,0.7-0.4,1
		c-0.1,0.2,0,0.2,0,0.2s0.3,0.3,0.4,0.4s0.3,0.3,0.4,0.4c0.4,0.4,0.4,1,0,1.4c-0.4,0.5-0.8,1-1.2,1.5c-0.3,0.5-0.9,0.6-1.4,0.4
		l-0.5-0.2l-0.3-0.1c-0.2-0.1-0.3-0.1-0.5-0.2c0,0-0.1,0-0.1,0l-0.3,0.2l-1,0.6c-0.1,0.1-0.2,0.2-0.2,0.3l-0.1,0.4
		c0,0.2,0,0.3-0.1,0.5s-0.1,0.4-0.1,0.6c-0.1,0.4-0.4,0.8-0.9,0.9l-1.8,0.4C184.2,245.4,184.1,245.4,184,245.5L184,245.5L184,245.5z
		 M183.9,244.6l0.1,0.4L183.9,244.6h0.2c0.6-0.1,1.2-0.3,1.8-0.4c0.1,0,0.2-0.1,0.2-0.2s0.1-0.3,0.1-0.5l0.1-0.5l0.1-0.4
		c0.1-0.4,0.3-0.7,0.6-0.9l1-0.6l0.2-0.2c0.2-0.2,0.6-0.2,0.9-0.1c0.2,0.1,0.4,0.1,0.6,0.2l0.3,0.1l0.4,0.1c0.2,0.1,0.2,0.1,0.4-0.2
		c0.4-0.5,0.8-1,1.2-1.5c0.1-0.1,0.1-0.2,0-0.2l-0.4-0.4l-0.4-0.4c-0.3-0.3-0.4-0.8-0.2-1.1c0.1-0.3,0.2-0.7,0.4-1l0.1-0.3
		c0.1-0.3,0.3-0.6,0.6-0.7c0.2-0.1,0.3-0.2,0.5-0.2l0.4-0.1c0.2-0.1,0.4-0.2,0.6-0.3c0.1,0,0.2-0.1,0.2-0.2c0-0.6-0.1-1.2-0.1-1.8
		c-0.2,0-0.4,0-0.6,0h-1c-0.3,0-0.6-0.2-0.7-0.4l-0.2-0.4c-0.1-0.2-0.2-0.4-0.4-0.6c-0.2-0.4-0.2-0.9,0.1-1.3
		c0.1-0.2,0.3-0.5,0.4-0.7l0.2-0.4c0,0,0-0.1,0-0.1c-0.4-0.4-0.9-0.7-1.4-1c-0.1,0.1-0.3,0.1-0.4,0.2l-0.6,0.5l-0.4,0.4
		c-0.2,0.2-0.6,0.4-0.9,0.3c-0.5-0.1-1-0.2-1.5-0.3c-0.2-0.1-0.4-0.2-0.6-0.4c-0.1-0.1-0.1-0.3-0.2-0.4l-0.1-0.4
		c-0.1-0.2-0.1-0.4-0.2-0.6h-0.1l-0.7,0.1l-0.9,0.3l-0.3,0.1c-0.1,0.1-0.1,0.3-0.2,0.5l-0.2,1.2c-0.1,0.3-0.2,0.6-0.5,0.7l-0.4,0.3
		l-0.7,0.5c-0.4,0.3-1,0.4-1.5,0.2c-0.3-0.1-0.6-0.3-1-0.4c-0.1,0-0.1,0-0.3,0.1c-0.4,0.5-0.8,0.9-1.2,1.4c-0.1,0.1-0.1,0.2-0.2,0.3
		l0,0c0,0,0,0,0.1,0.2l0.2,0.2c0.2,0.2,0.3,0.4,0.5,0.6c0.3,0.3,0.4,0.7,0.2,1.1v0.1l-0.4,1.2c-0.1,0.3-0.3,0.6-0.6,0.7
		c-0.1,0.1-0.2,0.1-0.4,0.2l-1.2,0.5c-0.1,0-0.1,0.1-0.1,0.2c0,0.1,0,0.1,0,0.2c0,0.4,0,0.8,0.1,1.2v0.5c0.1,0,0.2,0,0.4,0l0.6,0
		h0.3c0.4-0.1,0.8,0.2,1.1,0.5l0.4,0.7c0.4,0.5,0.4,1.3-0.1,1.8l-0.1,0.2c-0.1,0.2-0.3,0.5-0.4,0.7c0,0,0,0.1-0.1,0.1
		c0.5,0.3,0.9,0.6,1.4,0.9l0.1,0.1c0.1,0,0.2-0.1,0.2-0.2c0.3-0.3,0.6-0.6,0.9-0.9c0.3-0.3,0.8-0.5,1.3-0.4l0.3,0.1
		c0.2,0,0.4,0.1,0.6,0.1c0.5,0,1,0.4,1.1,0.9L183.9,244.6C184,244.6,183.9,244.6,183.9,244.6L183.9,244.6z M183.9,240.1
		c-0.4,0-0.7,0-1.1-0.1c-1-0.2-1.8-0.9-2.2-1.8c-0.9-1.9,0.1-4.6,2.2-5.9c1.1-0.7,2.4-0.9,3.7-0.6c0.9,0.2,1.7,0.9,2.1,1.7
		c1,2,0,4.6-2.2,6C185.7,239.8,184.8,240.1,183.9,240.1L183.9,240.1L183.9,240.1z M185.4,232.3c-0.7,0-1.5,0.2-2.1,0.6
		c-1.8,1.1-2.6,3.3-1.9,4.8c0.3,0.7,0.9,1.1,1.6,1.3c1,0.2,2.1,0,2.9-0.5l0,0c1.8-1.1,2.7-3.2,1.9-4.9c-0.3-0.6-0.9-1-1.6-1.2
		C186,232.4,185.7,232.3,185.4,232.3L185.4,232.3L185.4,232.3z"/>
	<path class="st3" d="M169.9,119.9h-13.7c-0.2,0-0.3-0.2-0.3-0.4c0-0.2,0.1-0.3,0.3-0.3h13.7c0.2,0,0.3,0.2,0.3,0.4
		C170.1,119.8,170,119.9,169.9,119.9L169.9,119.9z"/>
	<path class="st0" d="M201.5,109.5"/>
</g>
</svg>
