<?xml version="1.0" encoding="utf-8"?>
<!-- Generator: Adobe Illustrator 27.9.0, SVG Export Plug-In . SVG Version: 6.00 Build 0)  -->
<svg version="1.1" id="Layer_1" xmlns="http://www.w3.org/2000/svg" xmlns:xlink="http://www.w3.org/1999/xlink" x="0px" y="0px"
	 viewBox="0 0 400 300" style="enable-background:new 0 0 400 300;" xml:space="preserve">
<style type="text/css">
	.st0{fill:#FFFFFF;}
	.st1{fill:#231F20;}
	.st2{fill:#D1D3D4;}
	.st3{fill:#E52C36;}
	.st4{fill:none;}
	.st5{fill:#5FB832;}
	.st6{display:none;}
	.st7{display:inline;fill:#FFFFFF;}
	.st8{display:inline;fill:#231F20;}
	.st9{display:inline;}
	.st10{fill:#E52C36;}
</style>
<g>
	<rect x="184.1" y="17.7" class="st0" width="198.6" height="116.6"/>
	<path class="st1" d="M382.7,134.9H183.6c-0.3,0-0.5-0.3-0.5-0.6V17.1c0-0.4,0.2-0.6,0.5-0.6h199.1c0.3,0,0.5,0.3,0.5,0.6v117.2
		C383.2,134.6,383,134.9,382.7,134.9z M184.1,133.6h198V17.7h-198L184.1,133.6z"/>
	<g id="_017">
		<path class="st0" d="M131.4,125.7h34.4c9.5,0,17.2,7.7,17.2,17.2v65.9l0,0h-68.8l0,0v-65.9C114.2,133.4,121.9,125.7,131.4,125.7z"
			/>
		<path class="st2" d="M183,209.3h-68.8c-0.3,0-0.5-0.2-0.5-0.5v-65.9c0-9.8,7.9-17.7,17.7-17.7h34.4c9.8,0,17.7,7.9,17.7,17.7v65.9
			C183.5,209.1,183.3,209.3,183,209.3z M114.7,208.4h67.9v-65.5c0-9.3-7.5-16.7-16.8-16.8h-34.4c-9.3,0-16.7,7.5-16.8,16.8V208.4z"
			/>
		<path class="st0" d="M121.9,125.7h34.4c9.5,0,17.2,7.7,17.2,17.2c0,0,0,0,0,0v65.9l0,0h-68.9l0,0v-65.9
			C104.7,133.4,112.4,125.7,121.9,125.7z"/>
		<path class="st2" d="M173.5,209.3h-68.9c-0.3,0-0.5-0.2-0.5-0.5v-65.9c0-9.8,7.9-17.7,17.7-17.7h34.4c9.8,0,17.7,7.9,17.7,17.7
			v65.9C173.9,209.1,173.8,209.3,173.5,209.3z M105.2,208.4H173v-65.5c0-9.2-7.5-16.7-16.8-16.8h-34.4c-9.3,0-16.7,7.5-16.8,16.8
			L105.2,208.4z"/>
		<path class="st1" d="M137.5,109.8c-0.3,0-0.5-0.2-0.5-0.5s0.2-0.5,0.5-0.5c0,0,0,0,0,0c1.7,0,3.4-1,5.1-3
			c7.4-8.8,3.9-22.4-3.8-29.2c-6.6-5.8-16-6.8-22.9-2.4c-6.9,4.4-9,10.2-6.8,18.7c0.1,0.2-0.1,0.5-0.3,0.6c-0.2,0.1-0.5-0.1-0.6-0.3
			c-2.3-9-0.1-15.1,7.1-19.7s17.1-3.6,24,2.5c8,7.1,11.6,21.3,3.9,30.5C141.5,108.6,139.5,109.8,137.5,109.8L137.5,109.8z"/>
		<path class="st3" d="M122.8,117c0,0-21.4-0.5-26.8,8.3s-22,60.4-22,60.4l74.2,0.1c0,0,3.8-32.7,0.9-46.2
			C145.9,123.9,148.3,113.5,122.8,117z"/>
		<path class="st1" d="M111,117.8c0,0-1.9,10.5-1.4,14.3c0.7,5.2,0.4,13.4,11.7,13c8.9-0.3,18.6-27.5,18.6-27.5S123.6,115,111,117.8
			z"/>
		<path class="st1" d="M120.4,145.6c-9.9,0-10.6-6.9-11.2-11.9c0-0.5-0.1-1-0.2-1.5c-0.5-3.8,1.4-14,1.4-14.5c0-0.2,0.2-0.3,0.3-0.3
			c12.6-2.9,28.8-0.2,29-0.2c0.1,0,0.2,0.1,0.3,0.2c0.1,0.1,0.1,0.3,0,0.4c-0.4,1.1-9.9,27.5-19,27.8L120.4,145.6z M111.4,118.2
			c-0.3,1.7-1.8,10.6-1.4,13.9c0.1,0.5,0.1,1,0.2,1.5c0.5,5.1,1.2,11.4,11,11.1c7.8-0.3,16.6-23,18-26.7
			C136.3,117.6,122.4,115.8,111.4,118.2z"/>
		<path class="st0" d="M112.9,97.4c-0.3-0.9-0.7-1.7-1.3-2.5c-0.6-0.7-1.7-1-2.6-0.6c-0.6,0.4-1,1-1.1,1.7c0,0.7,0.1,1.4,0.4,2.1
			c0.4,1.3,1.1,2.4,2,3.3c0.9,0.9,2.2,1.4,3.6,1.4"/>
		<path class="st1" d="M113.6,103.3c-1.3,0-2.6-0.6-3.6-1.5c-1-1-1.7-2.2-2.1-3.5c-0.3-0.7-0.4-1.5-0.4-2.3c0.1-0.9,0.5-1.6,1.3-2.1
			c1-0.4,2.2-0.1,3,0.7c0.7,0.8,1.1,1.6,1.4,2.6c0.1,0.2,0,0.4-0.2,0.5c-0.2,0.1-0.4,0-0.5-0.2c-0.2-0.9-0.7-1.6-1.2-2.3
			c-0.5-0.6-1.4-0.8-2.1-0.5c-0.5,0.3-0.8,0.8-0.9,1.4c0,0.7,0.1,1.3,0.3,1.9c0.4,1.2,1,2.3,1.9,3.2c0.9,0.9,2,1.3,3.3,1.3
			c0.2,0,0.4,0.1,0.4,0.4c0,0,0,0,0,0c0,0.2-0.1,0.4-0.4,0.4c0,0,0,0,0,0L113.6,103.3z"/>
		<path class="st0" d="M117.9,109.9l-1.1,11.2c0,0,0.5,6.3,7.5,5.1c4.2-0.8,7.8-3.4,9.8-7.2l1.1-19.4c0-0.8-3-4.2-2.2-11.3
			c-4.8-0.5-9.2-3-12.1-6.9c0,0-3.2,4-4.6,5.2c-1.1,0.9-2.1,2-2.9,3.1c-2.1,3.2-2.1,8.6-1.6,12.3C112.2,105.1,114,110,117.9,109.9z"
			/>
		<path class="st1" d="M122.5,126.8c-1.4,0-2.7-0.4-3.8-1.2c-1.4-1.1-2.2-2.7-2.4-4.5l1.1-10.8c-3.9-0.3-5.6-5.3-6-8.3
			c-0.4-2.5-0.9-8.8,1.6-12.6c0.8-1.2,1.8-2.3,2.9-3.2c1.3-1.2,4.5-5.1,4.6-5.2c0.1-0.1,0.2-0.2,0.4-0.2c0.1,0,0.3,0.1,0.4,0.2
			c2.8,3.8,7.1,6.2,11.8,6.7c0.1,0,0.2,0.1,0.3,0.2c0.1,0.1,0.1,0.2,0.1,0.3c-0.5,3.4,0.1,6.9,1.7,10c0.2,0.4,0.4,0.8,0.5,1.3
			c0,0.1-1,19.4-1,19.4c0,0.1,0,0.1,0,0.2c-2.1,3.9-5.8,6.6-10.1,7.4C123.8,126.8,123.2,126.8,122.5,126.8z M117.2,121.2
			c0.3,2.9,2.8,5.1,5.8,4.8c0.4,0,0.8-0.1,1.2-0.3c4-0.8,7.4-3.3,9.4-6.8c1-19.3,1-19.3,1-19.3c-0.1-0.3-0.2-0.6-0.4-0.8
			c-1.6-3.1-2.2-6.6-1.8-10c-4.6-0.6-8.8-2.9-11.7-6.6c-1.3,1.7-2.7,3.3-4.2,4.8c-1.1,0.9-2,1.9-2.8,3c-2.4,3.6-1.8,9.6-1.5,12
			c0.4,2.8,2,7.6,5.6,7.5c0.1,0,0.3,0,0.3,0.2c0.1,0.1,0.1,0.2,0.1,0.3L117.2,121.2L117.2,121.2z"/>
		<path class="st1" d="M117.4,113.3c1.8,0.5,3.8,0.4,5.5-0.3c4-1.4,4.2-4.1,4.2-4.1s-3.4,2.1-9.3,1L117.4,113.3z"/>
		<path class="st1" d="M119.6,114.1c-0.8,0-1.5-0.1-2.2-0.3c-0.1,0-0.2,0-0.2-0.1c-0.1-0.1-0.2-0.3-0.1-0.5l0.4-3.3
			c0-0.1,0.1-0.2,0.2-0.3c0.1-0.1,0.2-0.1,0.3-0.1c5.7,1.1,8.9-0.9,8.9-0.9c0.1-0.1,0.3-0.1,0.5,0c0.1,0.1,0.2,0.2,0.2,0.4
			c0,0.1-0.3,3-4.5,4.5C122,113.9,120.8,114.1,119.6,114.1z M117.9,113c1.6,0.4,3.3,0.2,4.9-0.4c1.6-0.4,2.9-1.5,3.6-2.9
			c-2.6,1-5.4,1.2-8.2,0.7L117.9,113z"/>
		<path class="st0" d="M123.9,91.1c0,0-4.1,5-3.3,6s3.2,0.6,3.2,0.6"/>
		<path class="st1" d="M122.7,98.2c-0.9,0.1-1.8-0.2-2.5-0.9c-0.9-1.1,1.7-4.6,3.3-6.6c0.1-0.2,0.4-0.2,0.6-0.1c0,0,0,0,0,0
			c0.2,0.2,0.2,0.4,0.1,0.6c0,0,0,0,0,0c-2,2.4-3.5,5-3.3,5.5c0.5,0.6,2.2,0.5,2.8,0.4c0.2-0.1,0.5,0.1,0.6,0.3
			c0.1,0.2-0.1,0.5-0.3,0.6c0,0-0.1,0-0.1,0C123.5,98.2,123.1,98.2,122.7,98.2z"/>

			<ellipse transform="matrix(0.1326 -0.9912 0.9912 0.1326 12.0726 198.1092)" class="st1" cx="119.2" cy="92.2" rx="1.2" ry="0.6"/>

			<ellipse transform="matrix(1.169341e-02 -0.9999 0.9999 1.169341e-02 34.411 220.7051)" class="st1" cx="128.9" cy="92.9" rx="1.2" ry="0.6"/>
		<path class="st0" d="M132.7,95.3c0.2-1,0.7-1.9,1.2-2.7c0.7-0.9,1.8-1.5,2.9-1.5c0.7,0,1.4,0.4,1.8,0.9c0.2,0.4,0.4,0.9,0.4,1.3
			c0.4,2.5-0.5,5.7-2.8,7c-0.8,0.5-1.8,0.5-2.6,0"/>
		<path class="st1" d="M134.8,101.3c-0.5,0-1-0.1-1.4-0.4c-0.2-0.2-0.2-0.4,0-0.6c0.1-0.1,0.3-0.2,0.5-0.1c0.7,0.4,1.5,0.4,2.2-0.1
			c2.2-1.2,2.9-4.2,2.6-6.6c0-0.4-0.2-0.8-0.4-1.2c-0.4-0.5-0.9-0.7-1.5-0.8c-1,0-2,0.5-2.6,1.3c-0.5,0.8-0.9,1.6-1.2,2.5
			c-0.1,0.2-0.3,0.3-0.5,0.3c-0.2-0.1-0.3-0.3-0.3-0.5c0.3-1,0.7-2,1.3-2.8c0.8-1,2-1.6,3.2-1.6c0.8,0,1.6,0.4,2.1,1.1
			c0.3,0.5,0.5,1,0.5,1.5c0.4,2.6-0.5,6-3,7.4C136,101.1,135.4,101.3,134.8,101.3z"/>
		<path class="st0" d="M117.8,100l10.8,0.3c0,0-1.4,5.7-6,5.4S117.8,100,117.8,100z"/>
		<path class="st1" d="M122.8,106.2h-0.3c-4.9-0.3-5.1-6.1-5.1-6.2c0-0.1,0.1-0.2,0.1-0.3c0.1-0.1,0.2-0.1,0.3-0.1l10.8,0.3
			c0.1,0,0.3,0.1,0.3,0.2c0.1,0.1,0.1,0.2,0.1,0.4C128.9,100.5,127.4,106.2,122.8,106.2z M118.2,100.5c0.1,1.3,0.9,4.6,4.3,4.8
			s4.9-3.2,5.4-4.6L118.2,100.5z"/>
		<path class="st1" d="M26.8,146.2h48.7c1.3,0,2.4,0.9,2.8,2.1l9,32.9h31.6c1.1,0,2,0.9,2,2s-0.9,2-2,2h-83c-1.3,0-2.4-0.9-2.8-2.1
			L24,149.8c-0.4-1.5,0.5-3.1,2-3.5C26.3,146.2,26.5,146.2,26.8,146.2z"/>
		<path class="st1" d="M119,185.7H36c-1.5,0-2.8-1-3.2-2.4L23.6,150c-0.5-1.8,0.6-3.6,2.3-4.1c0.3-0.1,0.6-0.1,0.9-0.1h48.7
			c1.5,0,2.8,1,3.2,2.4l9,32.6H119c1.4,0,2.5,1.1,2.5,2.4C121.4,184.6,120.3,185.6,119,185.7C119,185.7,119,185.7,119,185.7z
			 M26.8,146.7c-1.3,0-2.4,1.1-2.4,2.5c0,0.2,0,0.4,0.1,0.6l9.1,33.3c0.3,1.1,1.2,1.8,2.3,1.8h83c0.9,0,1.6-0.7,1.6-1.6
			c0-0.9-0.7-1.6-1.6-1.6c0,0,0,0,0,0H87.3c-0.2,0-0.4-0.1-0.4-0.3l-9-32.9c-0.3-1.1-1.3-1.8-2.4-1.8H26.8z"/>
		<path class="st0" d="M85.9,181.3H37.2c-0.3,0-0.5-0.2-0.5-0.5s0.2-0.5,0.5-0.5h48.7c0.3,0,0.5,0.2,0.5,0.5S86.2,181.3,85.9,181.3
			L85.9,181.3z"/>
		<path class="st1" d="M92.8,181.8L92.8,181.8c-0.4,0-0.6-0.3-0.5-0.6c0.3-1.8,7.2-44.9,7.5-46c0.1-0.3,0.4-0.4,0.7-0.3
			c0.2,0.1,0.4,0.3,0.3,0.5c-0.2,0.9-5,30.4-7.5,45.9C93.3,181.6,93.1,181.8,92.8,181.8z"/>
		<path class="st3" d="M144.2,120.3c0,0,19.6,28.4,21.6,28.7s18.2-21.5,18.2-21.5l11.3,10.9c0,0-19.3,40.9-27.9,38.9
			s-26.3-27-26.3-27L144.2,120.3z"/>
		<path class="st1" d="M147.4,92.6c0,0,2.7-4.9-0.9-11.9s-9.7-11-11.9-10.9c-1.6,0.2-3.2,0.5-4.7,1
			C129.9,70.8,144.4,73.4,147.4,92.6z"/>
		<path class="st1" d="M147.4,93L147.4,93c-0.3,0-0.4-0.2-0.4-0.4c-1.5-9.8-6.1-15.1-9.7-17.8c-2.2-1.7-4.7-3-7.5-3.6
			c-0.2,0-0.3-0.2-0.4-0.4c0-0.2,0.1-0.4,0.3-0.5c1.6-0.5,3.2-0.9,4.9-1.1h0.1c2.6,0,8.6,4.3,12.1,11.1c3.6,7.2,1,12.1,0.9,12.3
			C147.8,92.9,147.6,93,147.4,93z M131.5,70.8c3.7,1.2,13.2,5.8,16.1,20.1c0.8-3.4,0.3-7-1.4-10c-3.4-6.8-9.4-10.8-11.4-10.7
			C133.6,70.3,132.6,70.5,131.5,70.8z"/>
		<path class="st1" d="M149.5,90.1c-0.2,0-0.4-0.1-0.4-0.3c-0.1-0.2,0-0.5,0.3-0.6c1.9-0.8,3.4-2.3,4.2-4.3c0.8-2,1.1-4.1,1-6.2
			c0.1-2.6-0.6-5.1-1.9-7.4c-2-2.9-5.2-4.8-8.7-5.3c-1.5-0.3-3-0.3-4.4,0.2c-1.4,0.4-2.4,1.6-2.7,3c0,0.3-0.2,0.5-0.5,0.4
			c-0.3,0-0.5-0.2-0.4-0.5c0,0,0-0.1,0-0.1c0.4-1.7,1.6-3.1,3.3-3.7c1.6-0.5,3.3-0.6,4.9-0.2c3.8,0.5,7.2,2.6,9.3,5.7
			c1.4,2.4,2.1,5.1,2,7.8c0.1,2.2-0.2,4.5-1,6.6c-0.9,2.2-2.5,3.9-4.7,4.8C149.7,90.1,149.6,90.1,149.5,90.1z"/>
		<path class="st1" d="M165.4,176.6h-0.2c-10.7-3.8-20.8-22.4-21.2-23.2c-0.1-0.3,0-0.6,0.3-0.7c0.2-0.1,0.5,0,0.6,0.2
			c0.1,0.2,10.4,19.1,20.6,22.7c0.3,0.1,0.4,0.4,0.3,0.6c0,0,0,0,0,0C165.9,176.4,165.7,176.6,165.4,176.6z"/>
		<path class="st0" d="M223.1,186.1h18.2c5.3,0,9.6,4.3,9.6,9.6v30.4c0,5.3-4.3,9.6-9.6,9.6h-18.2c-5.3,0-9.6-4.3-9.6-9.6v-30.4
			C213.5,190.4,217.8,186.1,223.1,186.1z"/>
		<path class="st1" d="M241.2,236.2h-18.2c-5.6,0-10.1-4.5-10.1-10.1v-30.4c0-5.6,4.5-10.1,10.1-10.1h18.1c5.6,0,10.1,4.5,10.1,10.1
			v30.4C251.3,231.7,246.8,236.2,241.2,236.2z M223.1,186.6c-5,0-9.1,4.1-9.1,9.1v30.4c0,5,4.1,9.1,9.1,9.1h18.1
			c5,0,9.1-4.1,9.1-9.1v-30.4c0-5-4.1-9.1-9.1-9.1H223.1z"/>
		<path class="st0" d="M229.9,235.7H17.2c-4.2,0-7.6-3.4-7.6-7.6v-34.4c0-4.2,3.4-7.6,7.6-7.6h212.7c4.2,0,7.6,3.4,7.6,7.6v34.4
			C237.5,232.3,234.1,235.7,229.9,235.7z"/>
		<path class="st1" d="M229.9,236.2H17.2c-4.5,0-8.1-3.6-8.1-8.1v-34.3c0-4.5,3.6-8.1,8.1-8.1h212.7c4.5,0,8.1,3.6,8.1,8.1v34.4
			C238,232.6,234.3,236.2,229.9,236.2z M17.2,186.6c-3.9,0-7.1,3.2-7.1,7.1c0,0,0,0,0,0.1v34.4c0,3.9,3.2,7.1,7.1,7.1h212.7
			c3.9,0,7.1-3.2,7.1-7.1v-34.4c0-3.9-3.2-7.1-7.1-7.1L17.2,186.6z"/>
		<rect x="18.8" y="235.7" class="st0" width="222.5" height="54.3"/>
		<path class="st1" d="M241.2,290.5H18.8c-0.3,0-0.5-0.2-0.5-0.5c0,0,0,0,0,0v-54.3c0-0.3,0.2-0.5,0.5-0.5h222.5
			c0.3,0,0.5,0.2,0.5,0.5c0,0,0,0,0,0V290C241.8,290.2,241.5,290.5,241.2,290.5L241.2,290.5z M19.3,289.5h221.4v-53.3H19.3
			L19.3,289.5z"/>
		<line class="st4" x1="229.9" y1="235.7" x2="229.9" y2="289.6"/>
		<path class="st1" d="M229.9,290.1c-0.3,0-0.5-0.2-0.5-0.5c0,0,0,0,0,0v-53.9c0.1-0.3,0.4-0.4,0.6-0.4c0.2,0,0.3,0.2,0.4,0.4v53.9
			C230.4,289.9,230.1,290.1,229.9,290.1z"/>
		<path class="st0" d="M185.7,128.2c0,0,6.1-15.3,7.1-14.9s-0.8,8.3-0.8,8.3s7.6-8.3,8.6-7.8s0.4,2.6-2.5,6.8c0,0,5-5.8,5.9-4.6
			s-4.2,6.4-4.2,6.4s4.8-5,5.5-4s-4.5,6.2-4.5,6.2s4.8-5.7,5.2-3.9s-9.3,13.1-12,16.2"/>
		<path class="st1" d="M193.9,137.5c-0.1,0-0.2,0-0.3-0.1c-0.2-0.2-0.2-0.5,0-0.7c4.9-5.6,11.7-14.1,11.9-15.7
			c-0.8,0.5-1.5,1-2.1,1.7c-0.7,0.8-1.4,1.6-2.2,2.3c-0.2,0.2-0.5,0.2-0.7,0c-0.2-0.2-0.2-0.5,0-0.7c0.6-0.7,1.4-1.5,2.1-2.3
			c0.9-1,1.7-2,2.2-3.2c-1.7,1.1-3.3,2.5-4.6,4l0,0c-0.2,0.2-0.5,0.2-0.7,0c-0.2-0.2-0.2-0.5,0-0.7c0,0,0,0,0,0l0,0l0,0
			c2.3-2.5,4.2-5.1,4.1-5.7c-0.7,0.1-3,2.2-5.1,4.6c-0.2,0.2-0.5,0.2-0.7,0.1c-0.2-0.2-0.3-0.5-0.1-0.7c2.7-4,3-5.4,2.8-5.9
			c0-0.1,0-0.1-0.1-0.2c-0.9,0.3-4.9,4.1-8.1,7.6c-0.2,0.2-0.4,0.2-0.6,0.1c-0.2-0.1-0.3-0.3-0.2-0.6c0.6-2.4,1-4.9,1.1-7.5
			c-1.1,1.5-4.1,8.2-6.5,14.4c-0.1,0.3-0.4,0.4-0.6,0.3c-0.3-0.1-0.4-0.4-0.3-0.7c6.2-15.8,7.2-15.4,7.8-15.2
			c0.3,0.1,1.3,0.5-0.1,7.1c6.7-7.2,7.6-6.7,8-6.5c0.3,0.2,0.6,0.5,0.6,0.9c0.1,0.5,0.1,1.2-0.7,2.8c1.1-1,2.2-1.8,2.9-1.8
			c0.3,0,0.5,0.2,0.7,0.4c0.4,0.5,0.1,1.5-0.5,2.5c0.4-0.3,0.8-0.4,1.2-0.4c0.2,0,0.5,0.1,0.6,0.3c0.3,0.4,0.1,1.1-0.4,1.8
			c0.2,0,0.3,0,0.5,0c0.3,0.1,0.6,0.4,0.6,0.7c0.5,2.3-12,16.5-12.1,16.7C194.2,137.4,194.1,137.5,193.9,137.5z"/>
		<path class="st0" d="M192.1,121.5c1.5,1,2.1,2.9,1.5,4.5"/>
		<path class="st1" d="M193.5,126.6h-0.2c-0.3-0.1-0.4-0.4-0.3-0.6c0.6-1.4,0.1-3.1-1.2-3.9c-0.2-0.1-0.3-0.5-0.2-0.7
			c0.1-0.2,0.4-0.3,0.7-0.2c1.7,1.1,2.4,3.2,1.6,5.1C193.9,126.4,193.7,126.6,193.5,126.6z"/>
		<rect x="37.4" y="82.6" class="st0" width="48.3" height="34.5"/>
		<path class="st2" d="M85.7,117.6H37.4c-0.3,0-0.5-0.2-0.5-0.5c0,0,0,0,0,0V82.6c0-0.3,0.2-0.5,0.4-0.5c0,0,0,0,0,0h48.3
			c0.3,0,0.5,0.2,0.5,0.5v34.5C86.2,117.4,86,117.6,85.7,117.6z M37.9,116.7h47.4V83.1H37.9V116.7z"/>
		<path class="st2" d="M79.4,92.9H43.7c-0.2,0-0.5-0.2-0.5-0.4c0,0,0,0,0,0c0-0.3,0.2-0.5,0.5-0.5h35.7c0.3,0,0.5,0.2,0.5,0.5
			C79.9,92.7,79.7,92.9,79.4,92.9L79.4,92.9z"/>
		<path class="st2" d="M79.4,100.4H43.7c-0.3,0-0.4-0.3-0.4-0.5c0-0.2,0.2-0.4,0.4-0.4h35.7c0.3,0,0.4,0.3,0.4,0.5
			C79.8,100.2,79.6,100.3,79.4,100.4z"/>
		<path class="st2" d="M79.4,107.8H43.7c-0.3,0-0.5-0.2-0.5-0.5c0-0.2,0.2-0.5,0.4-0.5c0,0,0,0,0,0h35.7c0.3,0,0.5,0.2,0.5,0.5v0
			C79.9,107.6,79.7,107.8,79.4,107.8z"/>
		<path class="st2" d="M61,84.8c-0.3,0-0.5-0.2-0.5-0.5v-4.8c0-0.3,0.2-0.5,0.5-0.5c0.3,0,0.5,0.2,0.5,0.5v4.8
			C61.5,84.5,61.3,84.7,61,84.8C61,84.8,61,84.8,61,84.8z"/>
	</g>
	<g id="g37" transform="matrix(1.3333333,0,0,-1.3333333,0,62.986667)">
		<g id="g39" transform="scale(0.1)">
			<path id="path41" class="st5" d="M1946.1,91.1c-2.6,1.4-4.6,4.4-4.6,8.4c0,5.4,4.2,9.8,9.8,9.8c2,0,3.8-0.6,5.2-1.4
				c10.2-6.8,20.9-10.2,30.5-10.2c10.4,0,16.4,4.4,16.4,11.4v0.4c0,8.2-11.2,11-23.7,14.8c-15.6,4.4-33.1,10.8-33.1,31.1v0.4
				c0,20,16.6,32.3,37.7,32.3c11.2,0,23.1-3.2,33.3-8.6c3.4-1.8,5.8-5,5.8-9.2c0-5.6-4.4-9.8-10-9.8c-2,0-3.2,0.4-4.8,1.2
				c-8.6,4.4-17.5,7.2-24.9,7.2c-9.4,0-14.8-4.4-14.8-10.4V158c0-7.8,11.4-11,23.9-15c15.4-4.8,32.9-11.8,32.9-30.9v-0.4
				c0-22.2-17.2-33.3-39.3-33.3C1973,78.4,1958.4,82.6,1946.1,91.1"/>
			<path id="path43" class="st5" d="M2119.7,133.1v0.4c0,20.4-13.8,33.9-30.3,33.9c-16.4,0-30.9-13.6-30.9-33.9v-0.4
				c0-20.2,14.4-33.9,30.9-33.9C2106.1,99.3,2119.7,112.3,2119.7,133.1 M2034.9,175.8c0,6.8,5.2,12.2,12,12.2
				c6.8,0,12.2-5.4,12.2-12.2v-7.2c7.8,11,18.8,19.8,36.1,19.8c24.9,0,49.1-19.6,49.1-54.9v-0.4c0-35.1-24.1-54.9-49.1-54.9
				c-17.6,0-28.7,8.8-36.1,18.6V59.4c0-6.8-5.4-12.1-12.2-12.1c-6.6,0-12,5.2-12,12.1V175.8"/>
			<path id="path45" class="st5" d="M2153.5,175.8c0,6.8,5.2,12.2,12,12.2c6.8,0,12.2-5.4,12.2-12.2V170c1.2,9.1,16,18.1,26.7,18.1
				c7.6,0,12-5,12-12c0-6.4-4.2-10.6-9.6-11.6c-17.2-3-29.1-18.1-29.1-39v-35c0-6.6-5.4-12-12.2-12c-6.6,0-12,5.2-12,12V175.8"/>
			<path id="path47" class="st5" d="M2225.6,175.8c0,6.8,5.2,12.2,12,12.2c6.8,0,12.2-5.4,12.2-12.2V90.5c0-6.8-5.4-12-12.2-12
				c-6.6,0-12,5.2-12,12V175.8"/>
			<path id="path49" class="st5" d="M2262.1,175.7c0,6.8,5.2,12.2,12,12.2c6.8,0,12.2-5.4,12.2-12.2v-5c6.8,9.8,16.6,17.3,33.1,17.3
				c23.9,0,37.7-16,37.7-40.5V90.5c0-6.8-5.2-12-12-12c-6.8,0-12.2,5.2-12.2,12v49.6c0,16.4-8.2,25.9-22.7,25.9
				c-14,0-23.9-9.8-23.9-26.3V90.5c0-6.8-5.4-12-12.2-12c-6.6,0-12,5.2-12,12V175.7"/>
			<path id="path51" class="st5" d="M2421.3,99.5c-16.7,0-30.3,13-30.3,33.9v0.4c0,20.4,13.8,33.9,30.3,33.9
				c16.4,0,30.9-13.6,30.9-33.9v-0.4C2452.1,113.1,2437.7,99.5,2421.3,99.5 M2463.7,188.3c-6.8,0-12.2-5.4-12.2-12.2v-7.2
				c-7.8,11-18.8,19.8-36.1,19.8c-24.9,0-49.1-19.6-49.1-54.9v-0.4c0-35.1,24-54.9,49.1-54.9c17.5,0,28.5,8.7,36,18.5
				c-1.2-19.1-12.9-29.1-33.4-29.1c-12.2,0-22.8,3-32.5,8.4c-1.2,0.6-2.6,1-4.4,1c-5.6,0-10.2-4.6-10.2-10c0-4.6,2.6-8,6.8-9.6
				c12.8-6.2,26-9.4,40.9-9.4c19.1,0,33.9,4.6,43.5,14.2c8.8,8.8,13.6,22,13.6,39.9V176C2475.8,182.9,2470.6,188.3,2463.7,188.3"/>
			<path id="path53" class="st5" d="M2250,217.2c0-6.7-5.5-12.2-12.2-12.2c-6.8,0-12.2,5.5-12.2,12.2c0,6.8,5.5,12.2,12.2,12.2
				C2244.5,229.4,2250,224,2250,217.2"/>
			<path id="path55" class="st5" d="M1864.7,85.7c-26.9-35.8-84.3-23.7-121.2-25.5c0,0-6.5-0.4-13.1-1.4c0,0,2.5,1.1,5.6,2.2
				c25.9,8.9,38.1,10.7,53.8,18.8c29.5,15.1,58.9,48.1,64.9,82.3c-11.2-32.9-45.4-61.3-76.6-72.8c-21.3-7.9-59.8-15.5-59.8-15.5
				c0,0-1.5,0.8-1.6,0.8c-26.2,12.7-27,69.5,20.6,87.8c20.9,8,40.8,3.6,63.4,9c24.1,5.7,51.9,23.8,63.2,47.3
				C1876.9,181,1892.1,122.1,1864.7,85.7z M1865.2,230.4c-3.2-7.6-7.1-14.5-11.6-20.6c-19.8,20.3-47.5,33-78.1,33
				c-60.2,0-109.1-48.9-109.1-109.1c0-31.5,13.5-60,34.9-79.9l2.4-2.1c-4,3.3-4.6,9.1-1.4,13.1c3.3,4,9.1,4.6,13.1,1.4
				c4-3.2,4.6-9.1,1.4-13.1c-3.2-4-9.1-4.6-13.1-1.4l1.6-1.4c19-16,43.4-25.6,70.2-25.6c57.5,0,104.7,44.8,108.8,101.2
				C1887.3,153.5,1879.1,188.6,1865.2,230.4"/>
			<path id="path57" class="st5" d="M2504.2,180.6h-3.8v-5h3.8c1.2,0,2.6,1,2.6,2.5C2506.8,179.6,2505.4,180.6,2504.2,180.6z
				 M2506.5,168.1l-3.7,5.6h-2.5v-5.6h-2v14.3h5.8c2.4,0,4.6-1.7,4.6-4.3c0-3.2-2.8-4.2-3.6-4.2l3.8-5.7H2506.5z M2503.1,185.9
				c-5.9,0-10.6-4.7-10.6-10.6c0-5.8,4.7-10.6,10.6-10.6c5.8,0,10.6,4.8,10.6,10.6C2513.7,181.2,2508.9,185.9,2503.1,185.9z
				 M2503.1,162.9c-6.9,0-12.4,5.6-12.4,12.4c0,6.9,5.6,12.4,12.4,12.4c6.9,0,12.4-5.5,12.4-12.4
				C2515.6,168.4,2510,162.9,2503.1,162.9"/>
		</g>
	</g>
	<g>
		<path d="M247.4,86V69.9h8.3c1.5,0,2.7,0.1,3.5,0.4c0.8,0.3,1.5,0.8,2,1.5c0.5,0.7,0.7,1.6,0.7,2.6c0,0.9-0.2,1.7-0.6,2.3
			c-0.4,0.6-0.9,1.2-1.6,1.6c-0.4,0.3-1,0.5-1.7,0.6c0.6,0.2,1,0.4,1.3,0.6c0.2,0.1,0.4,0.4,0.8,0.8s0.6,0.8,0.7,1l2.4,4.7h-5.6
			l-2.7-4.9c-0.3-0.6-0.6-1-0.9-1.2c-0.4-0.2-0.8-0.4-1.2-0.4h-0.4V86H247.4z M252.4,76.4h2.1c0.2,0,0.7-0.1,1.3-0.2
			c0.3-0.1,0.6-0.2,0.8-0.5c0.2-0.3,0.3-0.6,0.3-0.9c0-0.5-0.2-0.9-0.5-1.2c-0.3-0.3-0.9-0.4-1.9-0.4h-2.2V76.4z"/>
		<path d="M264.8,69.9h13.3v3.4h-8.3v2.6h7.7v3.3h-7.7v3.2h8.6V86h-13.6V69.9z"/>
		<path d="M280.2,80.7l4.7-0.3c0.1,0.8,0.3,1.4,0.6,1.8c0.5,0.7,1.2,1,2.2,1c0.7,0,1.3-0.2,1.6-0.5c0.4-0.3,0.6-0.7,0.6-1.2
			c0-0.4-0.2-0.8-0.5-1.1c-0.4-0.3-1.2-0.6-2.5-0.9c-2.2-0.5-3.7-1.1-4.7-2c-0.9-0.8-1.4-1.8-1.4-3.1c0-0.8,0.2-1.6,0.7-2.3
			s1.2-1.3,2.2-1.7c1-0.4,2.3-0.6,4-0.6c2.1,0,3.6,0.4,4.7,1.1c1.1,0.8,1.7,2,1.9,3.6l-4.7,0.3c-0.1-0.7-0.4-1.3-0.8-1.6
			c-0.4-0.3-1-0.5-1.7-0.5c-0.6,0-1,0.1-1.3,0.4c-0.3,0.2-0.4,0.5-0.4,0.9c0,0.3,0.1,0.5,0.4,0.7c0.2,0.2,0.8,0.4,1.7,0.6
			c2.2,0.5,3.7,0.9,4.7,1.4c0.9,0.5,1.6,1.1,2.1,1.8c0.4,0.7,0.6,1.5,0.6,2.4c0,1-0.3,2-0.9,2.9c-0.6,0.9-1.4,1.5-2.4,2
			c-1,0.4-2.3,0.7-3.9,0.7c-2.7,0-4.6-0.5-5.7-1.6S280.3,82.3,280.2,80.7z"/>
		<path d="M296.2,69.9h15.1v4h-5.1V86h-5V73.9h-5.1V69.9z"/>
	</g>
	<g>
		<path d="M263.7,102.5h5v8.7c0,1.8-0.2,3.2-0.5,4.2c-0.3,1-1,1.8-2,2.4s-2.2,1-3.8,1c-1.6,0-2.9-0.2-3.8-0.7s-1.6-1.1-2.1-1.9
			c-0.5-0.8-0.8-1.9-0.9-3.1l4.8-0.6c0,0.7,0.1,1.2,0.2,1.6s0.3,0.6,0.6,0.8c0.2,0.1,0.5,0.2,0.8,0.2c0.6,0,1-0.2,1.2-0.6
			c0.3-0.4,0.4-1.1,0.4-2.1V102.5z"/>
		<path d="M272,102.5h8.3c1.8,0,3.1,0.4,4,1.3c0.9,0.9,1.3,2.1,1.3,3.7c0,1.6-0.5,2.9-1.5,3.8c-1,0.9-2.5,1.4-4.5,1.4H277v6h-5
			V102.5z M277,109.4h1.2c1,0,1.6-0.2,2-0.5c0.4-0.3,0.6-0.8,0.6-1.3c0-0.5-0.2-0.9-0.5-1.3s-1-0.5-1.9-0.5H277V109.4z"/>
		<path d="M296.2,115.9h-5.6l-0.8,2.7h-5.1l6-16.1h5.4l6,16.1H297L296.2,115.9z M295.2,112.5l-1.8-5.8l-1.8,5.8H295.2z"/>
	</g>
</g>
<g id="essentiel" class="st6">
	<path class="st7" d="M261.5,253.2c0,0-4.9-0.1-10.3,9l0,0.1l0-0.1c-2.4-12.6-12.2-20.5-12.2-20.5c-1.8,5.9-2.4,12.1-1.8,18.3
		c-2.2-2-4.8-3.7-7.5-4.9c-0.2,8,3,15.4,6,20.5h9.8l0,0h1.7h4h5.3C259.2,271.4,263.6,262.8,261.5,253.2z"/>
	<path class="st8" d="M262.1,253.1c-0.1-0.3-0.3-0.5-0.6-0.5c-0.2,0-4.9,0-10.1,8.1c-2.9-11.7-11.7-19-12.1-19.3
		c-0.2-0.1-0.4-0.2-0.6-0.1c-0.2,0.1-0.4,0.2-0.4,0.4c-1.7,5.5-2.4,11.3-1.9,17c-2-1.6-4.2-3-6.5-4c-0.2-0.1-0.4-0.1-0.6,0.1
		c-0.2,0.1-0.3,0.3-0.3,0.5c-0.2,8.1,3.1,15.6,5.9,20.5h-1.5l2.9,14.8h18.3l2.9-14.8h-0.5C260,271.2,264.2,262.7,262.1,253.1z
		 M261,254c1.7,9-2.3,16.9-5,21.1h-4.6c-0.1-0.1-0.3-0.1-0.4,0h-3.3c0.2-4,1.4-7.9,3.5-11.4c0.2-0.4,0.4-0.7,0.6-1
		C255.9,255.7,259.7,254.3,261,254z M239.2,243c2.3,2.1,9.3,9.1,11.3,19.2L250,263c-2.9,5.2-3.6,9.3-3.6,12h-5.5
		c-1.6-4.8-2.7-9.7-3.2-14.7c0.1-0.2,0-0.4-0.1-0.6C237.1,254.2,237.6,248.4,239.2,243z M236.5,260.5c0.5,5,1.6,9.9,3.1,14.6H236
		c-2.7-4.6-5.8-11.4-5.8-18.9C232.5,257.4,234.6,258.8,236.5,260.5z"/>
</g>
<g id="fondamental" class="st6">
	<g class="st9">
		<circle class="st10" cx="240.7" cy="230.4" r="4.9"/>
	</g>
	<path class="st7" d="M261.5,253.2c0,0-2,0-4.7,2.2c2.4-10.9-1.5-20.6-1.5-20.6c-4.2,4-7.6,8.7-10.1,14c-3.2-4.5-6.3-7-6.3-7
		c-1.8,5.9-2.4,12.1-1.8,18.3c-2.2-2-4.8-3.7-7.5-4.9c-0.2,8,3,15.4,6,20.5h9.8l0,0h1.7h4h5.3C259.1,271.4,263.6,262.8,261.5,253.2z
		"/>
	<path class="st8" d="M262.1,253.1c-0.1-0.3-0.3-0.5-0.6-0.5c-0.1,0-1.6,0-3.8,1.4c1.7-10.2-1.7-18.9-1.8-19.4
		c-0.1-0.2-0.3-0.3-0.5-0.4c-0.2-0.1-0.4,0-0.6,0.2c-3.9,3.6-7.1,7.9-9.5,12.7c-0.8-4.5-1.8-8.5-2.6-11.5c2-0.8,3.4-2.8,3.4-5.1
		c0-2.4-1.5-4.4-3.6-5.2c-0.4-0.2-0.8-0.3-1.2-0.3c-0.2,0-0.5-0.1-0.7-0.1c-3,0-5.5,2.5-5.5,5.5c0,2.8,2.1,5.1,4.8,5.5
		c0.2,0,0.4,0,0.7,0c0.3,0,0.6,0,0.9-0.1c0.7,2.7,1.6,6.2,2.3,10.2c-2.4-2.9-4.4-4.6-4.6-4.7c-0.2-0.1-0.4-0.2-0.6-0.1
		c-0.2,0.1-0.4,0.2-0.4,0.4c-1.7,5.5-2.4,11.3-1.9,17c-2-1.6-4.2-3-6.5-4c-0.2-0.1-0.4-0.1-0.6,0.1c-0.2,0.1-0.3,0.3-0.3,0.5
		c-0.2,8.1,3.1,15.6,5.9,20.5h-1.5l2.9,14.8h18.3l2.9-14.8h-0.5C260,271.2,264.2,262.7,262.1,253.1z M236.4,230.9
		c1.1-0.3,2.3-0.2,3.1-0.1c0,0.4-0.1,0.9-0.1,1.3c0,0.8,0.1,1.6,0.2,2.4C238,234.1,236.6,232.7,236.4,230.9z M239.7,229.6
		C239.7,229.6,239.7,229.6,239.7,229.6c-0.8-0.1-2.1-0.2-3.2,0c0.2-1,0.7-1.8,1.5-2.4c0.7-0.6,1.7-1,2.7-1h0.1
		C240.4,227,239.9,228.2,239.7,229.6z M241.2,234.6c-0.1,0-0.2,0-0.3,0c-0.1-0.6-0.2-1.2-0.2-1.8c0,0,0,0,0,0
		c-0.1-0.9,0-1.7,0.1-2.5c0.2-1.7,0.8-3.1,1.2-4c1.7,0.6,2.9,2.2,2.9,4c0,1.7-1,3.2-2.5,3.8C242.1,234.4,241.7,234.6,241.2,234.6z
		 M255,236c0.9,2.6,3,10.5,1.2,19.1c-1.4,1.2-3.1,2.9-4.8,5.6c-1.2-4.8-3.3-8.8-5.5-11.9C248.2,244,251.2,239.7,255,236z M236,275.1
		c-2.7-4.6-5.8-11.4-5.8-18.9c2.3,1.1,4.4,2.6,6.3,4.2c0.5,5,1.6,9.9,3.1,14.7H236z M246.8,271.5c-0.2,0.7-0.2,1.4-0.3,2.1
		c-0.1,0.5-0.1,1-0.1,1.5h-0.2h-1.3h-4c-1.6-4.8-2.7-9.7-3.2-14.7c0.1-0.2,0-0.4-0.1-0.6c-0.6-5.7-0.1-11.4,1.5-16.9
		c1.1,1,3.2,3,5.3,5.9c0,0,0,0,0,0c0.3,0.4,0.6,0.8,0.8,1.2c0.3,0.4,0.6,0.8,0.8,1.3c1.8,3,3.5,6.6,4.3,10.8L250,263
		C248.2,266.3,247.2,269.1,246.8,271.5C246.8,271.5,246.8,271.5,246.8,271.5z M247.7,275.1L247.7,275.1c0.2-4.1,1.4-8,3.5-11.4
		c0.2-0.4,0.4-0.7,0.6-1c1.3-2.2,2.6-3.9,3.8-5.1c0.6-0.6,1.2-1.2,1.8-1.6c1.7-1.3,3-1.8,3.7-1.9c1.7,9-2.3,16.9-5,21.1H247.7z"/>
</g>
<g id="expert">
	<path class="st0" d="M261.5,253.2c0,0-2,0-4.7,2.2c2.4-10.9-1.5-20.6-1.5-20.6c-4.2,4-7.6,8.7-10.1,14c-3.2-4.5-6.3-7-6.3-7
		c-1.8,5.9-2.4,12.1-1.8,18.3c-2.2-2-4.8-3.7-7.5-4.9c-0.2,8,3,15.4,6,20.5h9.8l0,0h1.7h4h5.3C259.1,271.4,263.6,262.8,261.5,253.2z
		"/>
	<path class="st1" d="M262.1,253.1c-0.1-0.3-0.3-0.5-0.6-0.5c-0.1,0-1.6,0-3.8,1.4c1.7-10.2-1.7-18.9-1.8-19.4
		c-0.1-0.2-0.3-0.3-0.5-0.4c-0.2-0.1-0.4,0-0.6,0.2c-3.7,3.5-6.8,7.6-9.2,12.1c-1.1-8.7-3.4-17.9-7.8-25.6l-1.1,0.6
		c4.3,7.5,6.5,16.5,7.6,25l-0.5-0.3c-2.4-2.9-4.4-4.6-4.6-4.7c-0.2-0.1-0.4-0.2-0.6-0.1c-0.2,0.1-0.4,0.2-0.4,0.4
		c-1.7,5.5-2.4,11.3-1.9,17c-2-1.6-4.2-3-6.5-4c-0.2-0.1-0.4-0.1-0.6,0.1c-0.2,0.1-0.3,0.3-0.3,0.5c-0.2,8.1,3.1,15.6,5.9,20.5h-1.5
		l2.9,14.8h18.3l2.9-14.8h-0.5C260,271.2,264.2,262.7,262.1,253.1z M255,236c0.9,2.6,3,10.5,1.2,19.1c-1.4,1.2-3.1,2.9-4.8,5.6
		c-1.2-4.8-3.3-8.8-5.5-11.9c0,0,0,0,0,0s0,0,0,0C248.2,244,251.3,239.6,255,236z M236,275.1c-2.7-4.6-5.8-11.4-5.8-18.9
		c2.3,1.1,4.4,2.6,6.3,4.2c0.5,5,1.6,9.9,3.1,14.7H236z M246.8,271.5c-0.2,0.7-0.2,1.4-0.3,2.1c-0.1,0.5-0.1,1-0.1,1.5h-0.3h-1.3
		h-3.9c-1.6-4.8-2.7-9.7-3.2-14.7c0.1-0.2,0-0.4-0.1-0.6c-0.6-5.7-0.1-11.4,1.5-16.9c1.1,1,3.2,3,5.3,5.9c0,0,0,0,0,0
		c0.1,0.1,0.2,0.3,0.3,0.4c0.2,0.3,0.4,0.5,0.5,0.8c0.3,0.4,0.6,0.8,0.8,1.3c0,0.1,0.1,0.1,0.1,0.2c1.8,2.9,3.4,6.5,4.2,10.6
		L250,263C248.2,266.3,247.2,269.1,246.8,271.5C246.8,271.5,246.8,271.5,246.8,271.5z M247.7,275.1L247.7,275.1
		c0.2-4.1,1.4-8,3.5-11.4c0.2-0.4,0.4-0.7,0.6-1c1.3-2.2,2.6-3.9,3.8-5.1c0.6-0.6,1.2-1.2,1.8-1.6c1.7-1.3,3-1.8,3.7-1.9
		c1.7,9-2.3,16.9-5,21.1H247.7z"/>
	<path class="st10" d="M253.2,221.1c0-1-2.2-1.8-5.2-2.1c2.7-1.4,4.4-3,4-3.9c-0.4-0.9-2.8-0.8-5.8,0.1c2-2.4,3-4.6,2.3-5.3
		c-0.7-0.7-2.8,0.3-5.2,2.2c0.9-2.9,1-5.3,0.1-5.6c-0.9-0.4-2.5,1.4-4,4.1c-0.3-3.1-1.1-5.4-2.1-5.4c-1,0-1.8,2.2-2.1,5.2
		c-1.4-2.7-3-4.4-3.9-4c-0.9,0.4-0.8,2.8,0.1,5.8c-2.4-2-4.6-3-5.3-2.3c-0.7,0.7,0.3,2.8,2.2,5.2c-2.9-0.9-5.3-1-5.6-0.1
		c-0.4,0.9,1.4,2.5,4.1,4c-3.1,0.3-5.4,1.1-5.4,2.1c0,1,2.2,1.8,5.2,2.1c-2.7,1.4-4.4,3-4,3.9c0.4,0.9,2.8,0.8,5.8-0.1
		c-2,2.4-3,4.6-2.3,5.3c0.7,0.7,2.8-0.3,5.2-2.2c-0.9,2.9-1,5.3-0.1,5.6c0.9,0.4,2.5-1.4,4-4.1c0.3,3.1,1.1,5.4,2.1,5.4
		c1,0,1.8-2.2,2.1-5.2c1.4,2.7,3,4.4,3.9,4c0.9-0.4,0.8-2.8-0.1-5.8c2.4,2,4.6,3,5.3,2.3c0.7-0.7-0.3-2.8-2.2-5.2
		c2.9,0.9,5.3,1,5.6,0.1c0.4-0.9-1.4-2.5-4.1-4C251,222.9,253.2,222.1,253.2,221.1z"/>
	<g>
		<g>
			<g>
				<path class="st1" d="M223.2,215.2c0.1-0.2,0.4-0.3,1.1-0.3c0.8,0,2.1,0.2,3.6,0.6c-0.4-0.5-0.9-1.1-1.2-1.6
					c-2.3-0.5-4.2-0.4-4.7,0.7c-0.5,1.1,0.9,2.6,2.9,3.9c0.6-0.1,1.3-0.2,2-0.3C224.3,216.9,223.1,215.5,223.2,215.2z"/>
			</g>
			<g>
				<path class="st1" d="M231.1,205.8c-1.1,0.5-1.2,2.4-0.7,4.7c0.5,0.4,1.1,0.8,1.6,1.2c-0.8-2.9-0.7-4.7-0.4-4.8c0,0,0,0,0.1,0
					c0.4,0,1.7,1.2,3,3.6c0.1-0.7,0.2-1.4,0.3-2C233.6,206.6,232.2,205.3,231.1,205.8z"/>
			</g>
			<g>
				<path class="st1" d="M243.7,205.9c-0.9-0.4-1.9,0.2-3.1,1.7c-0.3,0.3-0.5,0.7-0.8,1.1c0.1,0.6,0.2,1.3,0.3,2
					c0.5-0.9,1-1.7,1.5-2.3c0.9-1.2,1.5-1.4,1.6-1.4c0,0,0,0,0,0c0.1,0,0.4,0.5,0.2,2.1c-0.1,0.8-0.3,1.7-0.6,2.6
					c0.5-0.4,1.1-0.9,1.6-1.2c0.1-0.4,0.2-0.9,0.2-1.2C244.9,207.4,244.5,206.2,243.7,205.9z"/>
			</g>
			<g>
				<path class="st1" d="M252.6,214.8c-0.5-1.1-2.4-1.2-4.7-0.8c-0.4,0.5-0.8,1.1-1.2,1.6c2.9-0.9,4.6-0.7,4.8-0.4
					c0.1,0.3-1,1.6-3.6,3c0.7,0.1,1.4,0.2,2,0.3C251.8,217.4,253.1,215.9,252.6,214.8z"/>
			</g>
			<g>
				<path class="st1" d="M249.7,223.6c-0.6,0.1-1.3,0.2-2,0.3c2.7,1.5,3.8,2.8,3.7,3.1c-0.1,0.3-1.8,0.5-4.7-0.4
					c0.4,0.5,0.8,1.1,1.2,1.6c0.8,0.2,1.6,0.3,2.3,0.3c1.2,0,2-0.3,2.3-1C253,226.3,251.7,224.9,249.7,223.6z"/>
			</g>
			<g>
				<path class="st1" d="M244.3,231.6c-0.5-0.4-1.1-0.8-1.6-1.3c0.9,2.9,0.7,4.7,0.4,4.9c-0.3,0.1-1.6-1-3-3.6
					c-0.1,0.7-0.2,1.4-0.3,2c1.1,1.7,2.3,2.8,3.3,2.8c0.2,0,0.3,0,0.5-0.1C244.7,235.9,244.8,233.9,244.3,231.6z"/>
			</g>
			<g>
				<path class="st1" d="M234.6,231.4c-1.5,2.7-2.8,3.9-3.2,3.7c-0.3-0.1-0.4-1.8,0.4-4.7c-0.5,0.5-1.1,0.9-1.6,1.2
					c-0.5,2.3-0.4,4.1,0.8,4.6c0.2,0.1,0.3,0.1,0.5,0.1c1.1,0,2.3-1.2,3.4-3C234.7,232.8,234.6,232.1,234.6,231.4z"/>
			</g>
			<g>
				<path class="st1" d="M223.2,226.8c-0.1-0.3,1-1.6,3.6-3c-0.7-0.1-1.3-0.2-2-0.3c-2,1.3-3.2,2.7-2.8,3.8c0.3,0.7,1.2,1,2.4,1
					c0.7,0,1.5-0.1,2.4-0.3c0.4-0.5,0.8-1.1,1.3-1.6C225.1,227.3,223.3,227.2,223.2,226.8z"/>
			</g>
		</g>
		<g>
			<path class="st1" d="M253.8,221.1c0-2-4.4-2.9-8.6-2.9c-0.4,0-0.7,0-1.1,0c0.3-0.2,0.5-0.5,0.8-0.8c2.9-2.9,5.4-6.7,4-8.1
				c-1.4-1.4-5.2,1.1-8.1,4c-0.3,0.3-0.5,0.5-0.8,0.8c0-0.4,0-0.7,0-1.1c0-4.1-0.9-8.6-2.9-8.6c-2,0-2.9,4.4-2.9,8.6
				c0,0.4,0,0.7,0,1.1c-0.2-0.3-0.5-0.5-0.8-0.8c-2.9-2.9-6.7-5.4-8.1-4s1.1,5.2,4,8.1c0.3,0.3,0.5,0.5,0.8,0.8c-0.4,0-0.7,0-1.1,0
				c-4.1,0-8.6,0.9-8.6,2.9c0,2,4.5,2.9,8.6,2.9c0.4,0,0.7,0,1.1,0c-0.3,0.2-0.5,0.5-0.8,0.8c-2.9,2.9-5.4,6.7-4,8.1
				c0.3,0.3,0.6,0.4,1.1,0.4c1.8,0,4.7-2.1,7-4.4c0.3-0.3,0.5-0.5,0.8-0.8c0,0.4,0,0.7,0,1.1c0,4.1,0.9,8.6,2.9,8.6
				c2,0,2.9-4.5,2.9-8.6c0-0.4,0-0.7,0-1.1c0.2,0.3,0.5,0.5,0.8,0.8c2.4,2.4,5.3,4.4,7,4.4c0.4,0,0.8-0.1,1.1-0.4
				c1.4-1.4-1.1-5.2-4-8.1c-0.3-0.3-0.5-0.5-0.8-0.8c0.4,0,0.7,0,1.1,0C249.4,223.9,253.8,223,253.8,221.1z M242.6,222.5
				c-1.5-0.2-2.6-0.4-3.4-0.7c0.7,0.4,1.7,1,2.9,1.9c0.6,0.5,1.3,1.1,2,1.8c3.4,3.4,4.4,6,4,6.3c-0.3,0.3-2.9-0.7-6.3-4
				c-0.7-0.7-1.3-1.4-1.8-2c-0.9-1.1-1.5-2.1-1.9-2.8c0.3,0.8,0.5,1.9,0.7,3.3c0.1,0.8,0.1,1.7,0.1,2.7c0,4.8-1.1,7.3-1.6,7.3
				c-0.5,0-1.6-2.6-1.6-7.3c0-1,0.1-1.9,0.1-2.7c0.1-1.4,0.4-2.4,0.6-3.2c-0.4,0.7-1,1.6-1.8,2.7c-0.5,0.6-1.1,1.3-1.8,2
				c-3.4,3.4-6,4.4-6.3,4c-0.3-0.3,0.7-2.9,4-6.3c0.7-0.7,1.4-1.3,2-1.8c1.1-0.9,2.1-1.5,2.9-1.9c-0.8,0.3-1.9,0.5-3.3,0.7
				c-0.8,0.1-1.7,0.1-2.7,0.1c-4.8,0-7.3-1.1-7.3-1.6s2.6-1.6,7.3-1.6c1,0,1.9,0.1,2.7,0.1c1.5,0.1,2.6,0.4,3.4,0.7
				c-0.2-0.1-0.4-0.2-0.6-0.3c-0.7-0.4-1.5-0.9-2.3-1.6c-0.7-0.5-1.3-1.1-2-1.8c-3.4-3.4-4.4-6-4-6.3c0,0,0.1-0.1,0.2-0.1
				c0.8,0,3.1,1.1,6.1,4.1c0.7,0.7,1.3,1.4,1.8,2c0.9,1.1,1.5,2.1,1.9,2.8c-0.3-0.8-0.5-1.9-0.7-3.3c-0.1-0.8-0.1-1.7-0.1-2.7
				c0-4.8,1.1-7.3,1.6-7.3c0.5,0,1.6,2.6,1.6,7.3c0,1-0.1,1.9-0.1,2.7c-0.2,1.5-0.4,2.6-0.7,3.4c0.4-0.7,1-1.7,1.9-2.8
				c0.5-0.6,1.1-1.3,1.8-2c3-3,5.3-4.1,6.1-4.1c0.1,0,0.2,0,0.2,0.1c0.3,0.3-0.7,2.9-4,6.3c-0.7,0.7-1.3,1.3-2,1.8
				c-0.8,0.7-1.6,1.2-2.3,1.6c-0.2,0.1-0.4,0.2-0.6,0.3c0.8-0.3,1.9-0.5,3.4-0.7c0.8-0.1,1.7-0.1,2.7-0.1c4.8,0,7.3,1.1,7.3,1.6
				s-2.6,1.6-7.3,1.6C244.3,222.7,243.4,222.6,242.6,222.5z"/>
		</g>
	</g>
	<g>
		<circle class="st0" cx="237.4" cy="221.1" r="3.1"/>
		<path class="st1" d="M237.4,224.9c-1.2,0-2.4-0.6-3.2-1.7c-1.1-1.7-0.6-4.1,1.1-5.2c1.7-1.1,4.1-0.6,5.2,1.1v0
			c1.1,1.7,0.6,4.1-1.1,5.2C238.8,224.7,238.1,224.9,237.4,224.9z M237.3,218.6c-0.5,0-0.9,0.1-1.4,0.4c-1.2,0.7-1.5,2.3-0.7,3.5
			c0.7,1.2,2.3,1.5,3.5,0.7c1.2-0.7,1.5-2.3,0.7-3.5l0,0C239,219,238.2,218.6,237.3,218.6z"/>
	</g>
</g>
</svg>
