<?xml version="1.0" encoding="utf-8"?>
<!-- Generator: Adobe Illustrator 28.1.0, SVG Export Plug-In . SVG Version: 6.00 Build 0)  -->
<svg version="1.1" id="Calque_1" xmlns="http://www.w3.org/2000/svg" xmlns:xlink="http://www.w3.org/1999/xlink" x="0px" y="0px"
	 viewBox="0 0 400 300" style="enable-background:new 0 0 400 300;" xml:space="preserve">
<style type="text/css">
	.st0{fill:#231F20;}
	.st1{fill:#D1D3D4;}
	.st2{fill:#FFFFFF;}
	.st3{fill-rule:evenodd;clip-rule:evenodd;fill:#7B42BC;}
	.st4{fill:#0FAAC8;}
</style>
<path class="st0" d="M391.5,256.6H10.8c-0.3,0-0.6-0.2-0.6-0.5s0.2-0.5,0.6-0.5h380.9c0.3,0,0.5,0.2,0.5,0.5
	C392.2,256.4,391.8,256.6,391.5,256.6L391.5,256.6z"/>
<g id="_84_data_process">
	<path class="st1" d="M99.9,150.6c-0.2,0-0.5-0.2-0.5-0.4l0,0V96c0-9.9,8.1-18,18-18h13.3c0.2,0,0.4,0.2,0.5,0.5
		c0,0.2-0.2,0.5-0.5,0.5h-13.3c-9.4,0-17,7.6-17,17v54.1C100.4,150.3,100.3,150.6,99.9,150.6C100,150.6,99.9,150.6,99.9,150.6z"/>
	<path class="st1" d="M99.9,150.7c-0.2,0-0.5-0.2-0.5-0.4l0,0V136c0-14.9-12.1-26.9-26.9-26.9H55c-0.2,0-0.5-0.2-0.5-0.5
		c0-0.2,0.2-0.5,0.5-0.5h17.5c15.4,0,27.8,12.5,27.9,27.9v14.3C100.4,150.5,100.2,150.7,99.9,150.7L99.9,150.7z"/>
	<path class="st1" d="M227.4,120.9h-88.3c-0.2,0-0.4-0.2-0.5-0.4l0,0V85c0-0.2,0.2-0.4,0.5-0.4c0.2,0,0.5,0.2,0.5,0.5l0,0v35h87.9
		c0.2,0,0.4,0.2,0.5,0.5C227.8,120.7,227.6,120.9,227.4,120.9z"/>
	<polyline class="st2" points="120.4,91.5 117.4,64.9 157.8,64.9 152.4,92.2 120.4,91.5 	"/>
	<path class="st0" d="M152.4,92.7L152.4,92.7l-32-0.7c-0.3,0-0.5-0.2-0.5-0.5l-3-26.5c0-0.2,0.1-0.3,0.2-0.4s0.2-0.2,0.4-0.2h40.3
		c0.1,0,0.3,0.1,0.4,0.2c0.1,0.1,0.1,0.3,0.1,0.4l-5.4,27.2C152.8,92.5,152.6,92.7,152.4,92.7z M120.9,91l31.1,0.6l5.1-26.2H118
		C118,65.4,120.9,91,120.9,91z"/>
	<polygon class="st0" points="120.4,91.5 120.4,59.7 158.2,59.7 158.2,92.2 	"/>
	<path class="st0" d="M158.2,92.7L158.2,92.7L120.4,92c-0.3,0-0.5-0.2-0.5-0.5l0,0V59.7c0-0.3,0.2-0.5,0.5-0.5l0,0h37.7
		c0.3,0,0.5,0.2,0.5,0.5l0,0v32.5c0,0.1-0.1,0.3-0.1,0.4C158.5,92.6,158.3,92.7,158.2,92.7z M121,91l36.7,0.6V60.2H121V91z"/>
	<polygon class="st2" points="120.4,91.5 125.4,67.2 146.4,67.2 148,63 164.4,63 158,92.2 	"/>
	<path class="st0" d="M158.1,92.7L158.1,92.7L120.5,92c-0.3,0-0.5-0.2-0.5-0.5v-0.1l4.9-24.3c0.1-0.2,0.3-0.4,0.5-0.4H146l1.5-3.9
		c0.1-0.2,0.3-0.3,0.5-0.3h16.4c0.2,0,0.3,0.1,0.4,0.2c0.1,0.1,0.1,0.3,0.1,0.4l-6.4,29.2C158.5,92.5,158.3,92.7,158.1,92.7z
		 M121.1,91l36.5,0.6l6.2-28.2h-15.4l-1.5,3.9c-0.1,0.2-0.3,0.3-0.5,0.3h-20.6C125.8,67.7,121.1,91,121.1,91z"/>
	<path d="M83.2,147.1h141.7c5.9,0,10.6,4.8,10.6,10.6l0,0v86.5H72.6v-86.5C72.6,151.9,77.3,147.1,83.2,147.1L83.2,147.1z"/>
	<rect x="82.9" y="155.2" class="st2" width="142.5" height="88.4"/>
	<path d="M55.7,244.3h196.8c0,6.5-5.3,11.8-11.8,11.8H67.4C60.9,256,55.7,250.8,55.7,244.3L55.7,244.3z"/>
	<polygon class="st2" points="116.1,168.7 106.2,173.7 116.1,178.7 126,173.7 	"/>
	<path class="st0" d="M249.1,244.8H59c-0.3-0.1-0.4-0.4-0.4-0.6c0-0.2,0.2-0.3,0.4-0.4h190c0.3,0.1,0.4,0.4,0.4,0.6
		C249.4,244.6,249.2,244.7,249.1,244.8z"/>
	<path class="st1" d="M258,120.3h-18.4c-0.3,0-0.4-0.3-0.4-0.5s0.2-0.4,0.4-0.4H258c4.6,0,8.3-3.7,8.3-8.3V101
		c0-0.2,0.2-0.5,0.5-0.5l0,0c0.3,0,0.5,0.2,0.5,0.5v10.1C267.2,116.2,263.1,120.3,258,120.3z"/>
	<path class="st1" d="M290.6,165.8c-0.2,0-0.5-0.2-0.5-0.5v-29.6c0-8.5-6.9-15.4-15.4-15.4h-29.5c-0.3,0-0.4-0.3-0.4-0.5
		s0.2-0.4,0.4-0.4h29.5c9,0,16.3,7.3,16.3,16.3v29.6C291.1,165.6,290.9,165.8,290.6,165.8z"/>
	<polygon class="st2" points="288,104.2 259.4,104.2 259.4,64.7 294.4,64.7 294.4,96.5 	"/>
	<path class="st0" d="M288,104.7h-28.6c-0.3,0-0.5-0.2-0.5-0.5l0,0V64.7c0-0.3,0.2-0.5,0.5-0.5h35c0.3,0,0.5,0.2,0.5,0.5l0,0v31.8
		c0,0.1,0,0.2-0.1,0.3l-6.5,7.8C288.3,104.7,288.2,104.7,288,104.7L288,104.7z M260,103.7h27.8l6.1-7.4v-31h-34L260,103.7z"/>
	<polyline class="st0" points="288,104.2 288,96.1 294.4,96.1 	"/>
	<path class="st0" d="M288,104.7c-0.3,0-0.5-0.2-0.5-0.5l0,0v-8.1c0-0.3,0.2-0.5,0.5-0.5h6.4c0.3-0.1,0.6,0.1,0.6,0.4
		c0.1,0.3-0.1,0.6-0.4,0.6c-0.1,0-0.2,0-0.3,0h-5.9v7.6C288.6,104.5,288.3,104.7,288,104.7L288,104.7L288,104.7z"/>
	<path class="st1" d="M289.1,73.2h-24.4c-0.2,0-0.5-0.2-0.5-0.5s0.2-0.5,0.5-0.5h24.4c0.2,0,0.5,0.2,0.5,0.5S289.4,73.2,289.1,73.2
		L289.1,73.2z"/>
	<path class="st1" d="M289.1,79.1h-24.4c-0.2,0-0.5-0.2-0.5-0.5s0.2-0.5,0.5-0.5h24.4c0.2,0,0.5,0.2,0.5,0.5S289.4,79.1,289.1,79.1
		L289.1,79.1z"/>
	<path class="st1" d="M289.1,85.1h-24.4c-0.2,0-0.5-0.2-0.5-0.4l0,0c0-0.2,0.2-0.5,0.5-0.5h24.4c0.2,0,0.5,0.2,0.5,0.5
		C289.6,84.8,289.4,85.1,289.1,85.1z"/>
	<path class="st1" d="M289.1,91h-24.4c-0.2,0-0.5-0.2-0.5-0.4l0,0c0-0.2,0.2-0.5,0.5-0.5h24.4c0.2,0,0.5,0.2,0.5,0.5
		C289.6,90.8,289.4,91,289.1,91z"/>
	<path class="st2" d="M239.6,121.9c-0.1,0.5-0.2,1-0.3,1.6c-1.2,4.6-5.3,7.8-10,7.9H192c-6.2,0-11.3-5.1-11.3-11.3
		c0-4.6,2.8-8.7,7-10.4c0.3-0.1,0.6-0.4,0.6-0.8c0.4-4.4,4.3-7.6,8.7-7.2c1.2,0.1,2.4,0.5,3.5,1.2l0.4,0.3c1.9-4.1,5.6-7.1,9.9-8.3
		c3.1-0.9,6.3-0.7,9.3,0.4c6.4,2.3,10.5,8.6,10.1,15.4c0.5,0.1,0.9,0.2,1.4,0.3c4.3,1.3,7,4.1,7.8,8.6c0,0.1,0.1,0.2,0.1,0.3
		C239.6,119.8,239.6,121.9,239.6,121.9z"/>
	<path class="st0" d="M209.7,131.9h-17.8c-5.6-0.1-10.4-4-11.5-9.5c-1.1-5.6,1.9-11.1,7.1-13.2c0.2-0.1,0.2-0.1,0.3-0.3
		c0.3-3,2.2-5.6,4.9-6.9c2.6-1.3,5.7-1.1,8.1,0.5c2.1-4,5.7-6.9,9.9-8.1c3.2-0.9,6.6-0.7,9.6,0.4c6.4,2.4,10.7,8.6,10.5,15.4
		c0.3,0.1,0.7,0.1,1,0.2c4.6,1.4,7.4,4.4,8.1,9c0,0.1,0,0.1,0,0.1v0.1c0,0,0,0.1,0,0.2v2.1v0.1l-0.1,0.5c-0.1,0.4-0.1,0.7-0.2,1.1
		c-1.2,4.8-5.6,8.2-10.5,8.3L209.7,131.9L209.7,131.9z M196.2,102.1c-1.1,0-2.1,0.2-3.1,0.7c-2.4,1.2-4,3.5-4.3,6.1
		c0,0.5-0.4,1-0.9,1.2c-4.8,1.9-7.5,7-6.5,12.1c1,5,5.4,8.6,10.5,8.7h37.3c4.5,0,8.4-3.1,9.5-7.5c0.1-0.3,0.2-0.7,0.2-1l0.1-0.4v-2
		c0-0.1-0.1-0.2-0.1-0.3c-0.7-4.2-3.2-6.9-7.4-8.2c-0.3-0.1-0.6-0.1-0.9-0.2l-0.4-0.1c-0.2-0.1-0.4-0.3-0.4-0.5
		c0.3-6.6-3.6-12.6-9.8-14.9c-2.9-1.1-6-1.2-9-0.4c-4.2,1.2-7.7,4.1-9.6,8.1c-0.1,0.1-0.2,0.2-0.4,0.2c-0.1,0-0.3,0-0.4-0.1
		l-0.4-0.3C199,102.5,197.7,102.1,196.2,102.1z M239.6,121.9L239.6,121.9z"/>
	<path class="st1" d="M286.6,210.9H236c-0.2,0-0.5-0.2-0.5-0.5s0.2-0.4,0.4-0.5l0,0h50.6c0.2,0,0.5,0.2,0.5,0.5
		S286.9,210.8,286.6,210.9L286.6,210.9z"/>
	<rect x="263.2" y="181.1" class="st0" width="54.9" height="51.4"/>
	<path class="st0" d="M318,232.9h-54.9c-0.3,0-0.5-0.2-0.5-0.5v-51.3c0-0.3,0.2-0.5,0.5-0.5H318c0.3,0,0.5,0.2,0.5,0.5l0,0v51.4
		C318.6,232.7,318.3,232.9,318,232.9L318,232.9z M263.7,231.9h53.9v-50.4h-53.8L263.7,231.9L263.7,231.9z"/>
	<path class="st2" d="M263.2,222.4h54.9c2.4,0,4.4,2,4.4,4.4v9.3c0,2.4-2,4.4-4.4,4.4h-54.9c-2.4,0-4.4-2-4.4-4.4v-9.3
		C258.9,224.3,260.8,222.4,263.2,222.4z"/>
	<path class="st0" d="M318,240.9h-54.8c-2.7,0-4.9-2.2-4.9-4.9l0,0v-9.3c0-2.7,2.2-4.9,4.9-4.9H318c2.7,0,4.9,2.2,4.9,4.9v9.3
		C322.9,238.7,320.8,240.9,318,240.9z M263.2,222.9c-2.1,0-3.9,1.7-3.9,3.9v9.3c0,2.1,1.7,3.9,3.9,3.9H318c2.1,0,3.9-1.7,3.9-3.9
		v-9.3c0-2.1-1.7-3.8-3.9-3.9H263.2z"/>
	<path class="st2" d="M263.2,200.4h54.9c2.4,0,4.4,2,4.4,4.4v9.3c0,2.4-2,4.4-4.4,4.4h-54.9c-2.4,0-4.4-2-4.4-4.4v-9.3
		C258.9,202.4,260.8,200.4,263.2,200.4z"/>
	<path class="st0" d="M318,219h-54.8c-2.7,0-4.9-2.2-4.9-4.9v-9.2c0-2.7,2.2-4.9,4.9-4.9H318c2.7,0,4.9,2.2,4.9,4.9v9.3
		C322.9,216.8,320.7,219,318,219z M263.2,201c-2.1,0-3.9,1.7-3.9,3.9v9.3c0,2.1,1.7,3.9,3.9,3.9H318c2.1,0,3.8-1.7,3.9-3.9v-9.3
		c0-2.1-1.7-3.9-3.9-3.9H263.2z"/>
	<path class="st2" d="M263.2,178.5h54.9c2.4,0,4.4,2,4.4,4.4v9.3c0,2.4-2,4.4-4.4,4.4h-54.9c-2.4,0-4.4-2-4.4-4.4v-9.3
		C258.9,180.4,260.8,178.5,263.2,178.5z"/>
	<path class="st0" d="M318,197h-54.8c-2.7,0-4.9-2.2-4.9-4.9l0,0v-9.3c0-2.7,2.2-4.9,4.9-4.9H318c2.7,0,4.9,2.2,4.9,4.9v9.3
		C322.9,194.8,320.7,197,318,197L318,197z M263.2,179c-2.1,0-3.9,1.7-3.9,3.9v9.3c0,2.1,1.7,3.9,3.9,3.9H318c2.1,0,3.9-1.7,3.9-3.9
		v-9.3c0-2.1-1.7-3.9-3.9-3.9H263.2L263.2,179z"/>
	<circle class="st2" cx="266.7" cy="184.8" r="1.2"/>
	<path class="st1" d="M266.7,186.4c-0.9,0-1.7-0.8-1.7-1.7s0.8-1.7,1.7-1.7s1.7,0.8,1.7,1.7S267.7,186.4,266.7,186.4z M266.7,184.1
		c-0.4,0-0.7,0.3-0.7,0.7s0.3,0.7,0.7,0.7l0,0c0.4,0,0.7-0.3,0.7-0.7S267.1,184.1,266.7,184.1L266.7,184.1z"/>
	<circle class="st2" cx="271.8" cy="184.8" r="1.2"/>
	<path class="st1" d="M271.8,186.4c-0.9,0-1.7-0.8-1.7-1.7s0.8-1.7,1.7-1.7s1.7,0.8,1.7,1.7S272.8,186.4,271.8,186.4L271.8,186.4z
		 M271.8,184.1c-0.4,0-0.7,0.3-0.7,0.7s0.3,0.7,0.7,0.7s0.7-0.3,0.7-0.7S272.2,184.1,271.8,184.1L271.8,184.1z"/>
	<circle class="st2" cx="276.9" cy="184.8" r="1.2"/>
	<path class="st1" d="M276.9,186.4c-0.9,0-1.7-0.8-1.7-1.7s0.8-1.7,1.7-1.7c0.9,0,1.7,0.8,1.7,1.7S277.8,186.4,276.9,186.4
		L276.9,186.4L276.9,186.4z M276.9,184.1c-0.4,0-0.7,0.3-0.7,0.7s0.3,0.7,0.7,0.7s0.7-0.3,0.7-0.7S277.3,184.1,276.9,184.1
		L276.9,184.1z"/>
	<path class="st0" d="M7.9,97.9c0.4-1.1,0.8-2.2,1.2-3.4c0.2-0.6,0.4-1.2,0.7-1.7c0.3-0.7,1-1.2,1.8-1.1c0.9,0.1,1.8,0.3,2.7,0.4
		c0.5,0.1,1,0.2,1.5,0.2c0.4,0,0.7-0.1,1-0.3c1-1,2-2,3-3.1c0.3-0.4,0.5-0.9,0.4-1.4c-0.2-1.1-0.5-2.2-0.7-3.3
		c-0.1-0.4-0.1-0.9-0.1-1.3c0-0.3,0.2-0.6,0.4-0.8c1.7-1.1,3.5-2,5.4-2.6c0.6-0.2,1.2,0,1.6,0.6c0.7,0.9,1.4,1.9,2.1,2.9
		c0.4,0.8,1.3,1.2,2.1,1.1c1.2-0.1,2.4-0.1,3.6-0.2c0.5,0,0.9-0.3,1.1-0.7c0.4-0.6,0.8-1.3,1.3-1.9s0.7-1.1,1.1-1.6
		c0.3-0.6,1-0.8,1.7-0.6c1.7,0.6,3.3,1.2,5,1.8c0.7,0.3,1,0.9,0.9,1.6c-0.1,0.9-0.3,1.8-0.4,2.8C45,85.7,45,86.1,45,86.6
		c-0.1,0.6,0.1,1.1,0.5,1.5c0.9,0.8,1.8,1.7,2.6,2.5c0.5,0.6,1.3,0.8,2,0.6l3.6-0.8c0.8-0.3,1.7,0.2,2,1c0.7,1.4,1.3,2.9,2,4.3
		c0.5,0.8,0.2,1.8-0.5,2.3c0,0,0,0-0.1,0c-0.6,0.5-1.3,0.9-1.9,1.4c-0.5,0.3-0.9,0.7-1.3,1c-0.4,0.3-0.6,0.8-0.6,1.2
		c0,1.2,0,2.5,0.1,3.8c0,0.7,0.4,1.3,1,1.7l2,1.2c0.4,0.3,0.8,0.5,1.2,0.8c0.6,0.4,0.8,1.1,0.6,1.8c-0.5,1.5-1.1,3-1.7,4.5
		c-0.1,0.2-0.2,0.4-0.4,0.6c-0.3,0.5-0.8,0.8-1.4,0.7l-3.2-0.5h-0.2c-0.9-0.2-1.9,0.1-2.5,0.9c-0.6,0.7-1.3,1.4-2,2.1
		c-0.6,0.6-0.9,1.5-0.6,2.4c0.3,1.1,0.5,2.1,0.7,3.2c0.3,0.8,0,1.7-0.8,2c0,0-0.1,0-0.2,0.1c-1.5,0.7-3,1.4-4.5,2
		c-0.7,0.4-1.6,0.2-2-0.5c-0.6-0.7-1.1-1.5-1.7-2.3c-1.2-1.6-1.5-1.8-3.5-1.7l-2.3,0.1c-0.8,0-1.5,0.4-1.8,1.1
		c-0.5,0.8-0.9,1.6-1.4,2.4c-0.3,0.4-0.6,0.8-0.9,1.1c-0.3,0.4-0.8,0.5-1.2,0.3l-4.7-1.8c-0.2-0.1-0.4-0.2-0.6-0.3
		c-0.5-0.3-0.8-0.8-0.7-1.4c0.2-1.1,0.4-2.1,0.5-3.2c0-0.3,0.1-0.7,0.1-1c0.1-0.5-0.1-1.1-0.5-1.4c-0.9-0.8-1.7-1.6-2.6-2.4
		c-0.5-0.5-1.2-0.7-1.9-0.4c-1,0.3-2.1,0.5-3.2,0.7h-0.1c-1.4,0.2-1.8,0.1-2.4-1.2s-1.3-2.8-1.8-4.2c-0.4-0.7-0.2-1.5,0.5-1.9
		c0,0,0.1,0,0.1-0.1c0.8-0.6,1.7-1.3,2.6-1.8s1.4-1.5,1.3-2.5c-0.1-1.1-0.1-2.2-0.2-3.4c0-0.5-0.3-0.9-0.7-1.2
		c-0.9-0.6-1.9-1.2-2.8-1.8c-0.7-0.3-1.2-0.9-1.5-1.5L7.9,97.9L7.9,97.9z M43.7,104.2c0-5.9-4.8-10.7-10.7-10.6c0,0,0,0-0.1,0
		c-5.8,0.2-10.5,4.9-10.5,10.7c0,5.8,4.8,10.5,10.6,10.6s10.6-4.6,10.7-10.4C43.7,104.4,43.7,104.3,43.7,104.2z"/>
	<path class="st0" d="M27,129.9c-0.2,0-0.4,0-0.6-0.1l-1.3-0.5l-3.5-1.3c-0.2-0.1-0.4-0.2-0.6-0.3c-0.7-0.4-1.1-1.2-1-2l0.2-1.4
		c0.1-0.6,0.2-1.2,0.3-1.8c0-0.3,0.1-0.6,0.1-0.9c0-0.4-0.1-0.8-0.4-1c-0.8-0.7-1.6-1.4-2.4-2.2l-0.2-0.2c-0.4-0.4-0.9-0.5-1.4-0.3
		c-0.7,0.2-1.5,0.3-2.2,0.5l-1.1,0.3c-1.6,0.3-2.3,0-3-1.5s-1.4-3.1-1.9-4.3c-0.5-0.9-0.2-2.1,0.7-2.6c1-0.8,1.8-1.3,2.6-1.9
		c0.7-0.4,1.1-1.2,1-2c0-0.7-0.1-1.4-0.1-2.1l-0.1-1.3c0-0.3-0.1-0.6-0.4-0.8l-1.2-0.8l-1.6-1c-0.8-0.4-1.4-1-1.7-1.8
		c0-0.1,0-0.1,0-0.2V98c0-0.1,0-0.1,0-0.2l0.3-1C7.8,96,8,95.2,8.3,94.4c0.2-0.6,0.4-1.2,0.7-1.8c0.4-0.9,1.3-1.5,2.3-1.4
		c0.6,0.1,1.2,0.2,1.8,0.3l0.9,0.2l0.4,0.1c0.3,0.1,0.7,0.1,1,0.1c0.2,0,0.5-0.1,0.7-0.2c1.1-1,2.1-2.1,3-3.1c0.2-0.3,0.3-0.7,0.2-1
		c-0.1-0.5-0.2-1-0.3-1.5s0-1.1-0.2-1.7c-0.1-0.5-0.2-1-0.1-1.5c0-0.5,0.3-0.9,0.7-1.2c1.8-1.2,3.7-2,5.7-2.6
		c0.8-0.2,1.6,0.1,2.1,0.8l0.8,1c0.5,0.6,0.9,1.2,1.4,1.9c0.3,0.6,1,0.9,1.7,0.9c0.8-0.1,1.6-0.1,2.4-0.1l1.3-0.1
		c0.3,0,0.5-0.2,0.7-0.4c0.3-0.4,0.5-0.8,0.8-1.1l0.7-1c0.3-0.5,0.6-1,0.9-1.4c0.5-0.8,1.4-1.1,2.2-0.8c2,0.7,3.6,1.2,5,1.8
		c0.8,0.3,1.3,1.2,1.2,2.1c-0.1,0.6-0.2,1.3-0.3,1.9c-0.1,0.3-0.1,0.6-0.2,0.9s-0.1,0.8-0.2,1.3c-0.1,0.4,0.1,0.8,0.4,1.1l0.6,0.6
		c0.7,0.6,1.4,1.3,2,1.9c0.4,0.4,1,0.6,1.5,0.4c0.6-0.1,1.2-0.3,1.7-0.4l1.8-0.4c1-0.3,2.2,0.2,2.6,1.2c0.7,1.4,1.3,2.9,2,4.3
		c0.6,1,0.3,2.4-0.8,3c-0.4,0.3-0.8,0.6-1.1,0.8l-0.8,0.6c-0.5,0.3-0.9,0.7-1.3,1c-0.3,0.2-0.4,0.5-0.4,0.8v0.8c0,1,0,2,0.1,2.9
		c0,0.5,0.3,1,0.8,1.2c0.3,0.2,0.6,0.3,0.9,0.5l1.2,0.7c0.4,0.2,0.8,0.5,1.3,0.9c0.8,0.5,1.1,1.5,0.7,2.4c-0.5,1.5-1.1,3-1.7,4.5
		c-0.1,0.2-0.2,0.5-0.4,0.7c-0.4,0.7-1.2,1.1-2,0.9l-3.2-0.5H51c-0.8-0.2-1.5,0.1-2,0.7c-0.4,0.5-0.9,1-1.4,1.5l-0.6,0.6
		c-0.5,0.5-0.7,1.2-0.5,1.9c0.3,1.2,0.5,2.2,0.8,3.2c0.4,1.1-0.2,2.3-1.2,2.7c0,0,0,0-0.1,0c-1.3,0.7-2.8,1.3-4.5,2
		c-0.9,0.4-1.9,0.2-2.5-0.6c-0.5-0.6-0.9-1.2-1.4-1.9l-0.3-0.4c-1.1-1.5-1.2-1.6-3-1.5L33,125l-1,0.1c-0.6,0-1.1,0.3-1.4,0.8
		l-0.5,0.8c-0.3,0.5-0.6,1.1-1,1.6c-0.3,0.4-0.6,0.8-1,1.2C27.9,129.7,27.4,129.9,27,129.9L27,129.9z M16.8,116.7
		c0.6,0,1.2,0.2,1.6,0.7l0.2,0.2c0.8,0.7,1.5,1.5,2.3,2.2c0.5,0.5,0.8,1.2,0.7,1.9c0,0.3,0,0.7-0.1,1c-0.1,0.6-0.2,1.2-0.3,1.8
		l-0.2,1.4c-0.1,0.4,0.1,0.7,0.4,0.9l0.1,0.1c0.1,0.1,0.3,0.2,0.4,0.2l3.5,1.3l1.3,0.5c0.2,0.1,0.5,0,0.7-0.2c0.3-0.3,0.6-0.7,0.8-1
		c0.3-0.5,0.6-1,0.9-1.5l0.5-0.8c0.5-0.8,1.3-1.3,2.2-1.3l1-0.1l1.3-0.1c2.2-0.1,2.6,0.1,3.9,1.9l0.3,0.4c0.4,0.6,0.9,1.2,1.3,1.8
		c0.3,0.5,0.9,0.6,1.4,0.4l0,0c1.7-0.7,3.1-1.4,4.4-2c0.8-0.4,0.9-0.6,0.7-1.5s-0.4-2-0.7-3.2c-0.3-1,0-2.1,0.7-2.8l0.6-0.6
		c0.5-0.5,0.9-0.9,1.3-1.4c0.7-0.9,1.9-1.3,3-1h0.2l3.2,0.6c0.4,0.1,0.7-0.1,0.9-0.4c0.1-0.2,0.2-0.3,0.3-0.5c0.6-1.5,1.1-3,1.7-4.5
		c0.2-0.4,0-0.9-0.4-1.2c-0.4-0.3-0.8-0.6-1.2-0.8l-1.2-0.7l-0.8-0.6c-0.8-0.4-1.2-1.2-1.2-2.1c0-1-0.1-2-0.1-3v-0.8
		c0-0.6,0.2-1.2,0.7-1.6c0.4-0.4,0.9-0.7,1.3-1.1c0.3-0.2,0.5-0.4,0.8-0.6s0.7-0.5,1.1-0.8c0.6-0.3,0.8-1,0.5-1.6
		c0-0.1,0-0.1-0.1-0.2c-0.6-1.4-1.3-2.9-2-4.3c-0.2-0.6-0.8-0.9-1.4-0.7l0,0l-1.8,0.4l-1.8,0.4c-0.9,0.2-1.8,0-2.4-0.7
		c-0.6-0.7-1.3-1.3-2-1.9l-0.6-0.5c-0.5-0.5-0.8-1.3-0.7-2c0-0.4,0.1-0.9,0.2-1.3c0-0.3,0.1-0.6,0.2-1c0.1-0.6,0.2-1.2,0.3-1.8
		c0.1-0.4-0.2-0.9-0.6-1.1c-1.4-0.6-3-1.1-5-1.8c-0.4-0.2-0.9,0-1.1,0.4c-0.3,0.4-0.6,0.9-0.9,1.4l-0.7,1c-0.2,0.4-0.5,0.8-0.8,1.2
		c-0.3,0.5-0.9,0.8-1.5,0.9l-1.3,0.1c-0.8,0-1.5,0.1-2.3,0.1c-1,0.1-2.1-0.4-2.6-1.3c-0.4-0.6-0.9-1.2-1.3-1.8l-0.8-1
		c-0.2-0.3-0.6-0.5-1-0.4c-1.9,0.6-3.7,1.4-5.3,2.5c-0.1,0.1-0.2,0.3-0.2,0.4c0,0.4,0,0.8,0.1,1.2c0.1,0.6,0.3,1.2,0.4,1.8
		s0.2,1,0.3,1.5c0.2,0.7,0,1.4-0.4,1.9c-0.9,0.9-1.9,2-3,3.1c-0.4,0.3-0.9,0.5-1.4,0.5c-0.4,0-0.8,0-1.2-0.1L13.7,93l-0.9-0.2
		c-0.6-0.1-1.2-0.2-1.8-0.3c-0.6-0.1-1.1,0.2-1.2,0.8c-0.2,0.6-0.5,1.1-0.7,1.7c-0.3,0.8-0.5,1.6-0.8,2.4L8,98.3v0.2
		c0.3,0.5,0.7,0.9,1.2,1.2l1.6,1l1.2,0.8c0.6,0.3,0.9,0.9,0.9,1.6l0.1,1.3c0,0.7,0.1,1.4,0.1,2.1c0.1,1.2-0.5,2.4-1.5,3
		c-0.8,0.5-1.6,1.1-2.6,1.8c-0.6,0.4-0.7,0.7-0.4,1.4c0.5,1.2,1.1,2.8,1.9,4.3c0.5,1,0.7,1.1,1.9,0.9L13,118l-0.1-0.5l1-0.2l2.1-0.6
		C16.3,116.7,16.5,116.7,16.8,116.7L16.8,116.7z M33,115.4L33,115.4c-6.1,0-11.1-5-11.1-11.2c0-3,1.2-5.8,3.3-7.9
		c2-2.1,4.8-3.3,7.7-3.3l0,0c6.2-0.1,11.2,4.8,11.3,11c0,0.1,0,0.1,0,0.2c0.1,2.9-1,5.6-3,7.7C39.1,114.1,36.2,115.4,33,115.4z
		 M32.9,94c-2.6,0.1-5.1,1.2-7,3.1s-3,4.4-3,7.1c0,5.6,4.5,10.1,10.1,10.1l0,0l0,0c2.8,0,5.5-1.1,7.4-3.2c1.8-1.8,2.8-4.3,2.7-6.9
		l0,0C43.1,98.6,38.6,94,32.9,94C33.1,94,33,94,32.9,94L32.9,94L32.9,94z"/>
	<g>
		<path d="M130.4,196.7h-4.6v-2.8h12.4v2.8h-4.6v13.8h-3.1V196.7z"/>
		<path d="M141.5,208.3c1.3,0,2.5-0.2,3.7-0.6l0.5,2.3c-1.4,0.5-2.9,0.8-4.5,0.8c-3.8,0-5.1-1.8-5.1-4.7v-3.2c0-2.6,1.1-4.7,5-4.7
			s4.8,2.3,4.8,4.9v2.6h-6.7v0.6C139.1,207.7,139.6,208.3,141.5,208.3z M139.1,203.2h3.9v-0.6c0-1.1-0.4-1.9-1.8-1.9
			c-1.5,0-2,0.8-2,1.9V203.2z"/>
		<path d="M154,200.9c-1.1,0.5-2.2,1.1-3.2,1.8v7.8h-3v-12.1h2.6l0.2,1.3c1-0.7,2.1-1.2,3.2-1.6L154,200.9z"/>
		<path d="M161.4,200.9c-1.1,0.5-2.2,1.1-3.2,1.8v7.8h-3v-12.1h2.6l0.2,1.3c1-0.7,2.1-1.2,3.2-1.6L161.4,200.9z"/>
		<path d="M171.6,210.5h-2.5l-0.2-0.8c-1.1,0.7-2.3,1.1-3.6,1.1c-2.2,0-3.2-1.5-3.2-3.6c0-2.5,1.1-3.4,3.5-3.4h2.9v-1.3
			c0-1.3-0.4-1.8-2.3-1.8c-1.1,0-2.3,0.1-3.4,0.4l-0.4-2.3c1.4-0.4,2.8-0.6,4.2-0.6c3.8,0,4.9,1.3,4.9,4.4L171.6,210.5z M168.5,206
			h-2.2c-1,0-1.3,0.3-1.3,1.2c0,0.8,0.3,1.2,1.2,1.2c0.8,0,1.6-0.2,2.3-0.6L168.5,206z"/>
		<path d="M180.9,195.6c-0.6-0.1-1.2-0.2-1.7-0.2c-1.2,0-1.4,0.5-1.4,1.4v1.5h3.1l-0.2,2.4h-2.9v9.7h-3v-9.7h-1.9v-2.4h1.9v-1.7
			c0-2.5,1.2-3.8,3.9-3.8c0.9,0,1.8,0.1,2.6,0.4L180.9,195.6z"/>
		<path d="M186.8,210.8c-4.2,0-5.3-2.3-5.3-4.8v-3.1c0-2.5,1.1-4.8,5.3-4.8s5.3,2.3,5.3,4.8v3.1C192.1,208.5,191,210.8,186.8,210.8z
			 M186.8,200.7c-1.6,0-2.2,0.7-2.2,2.1v3.3c0,1.4,0.6,2.1,2.2,2.1c1.6,0,2.2-0.7,2.2-2.1v-3.3C189.1,201.5,188.5,200.7,186.8,200.7
			z"/>
		<path d="M199.9,200.9c-1.1,0.5-2.2,1.1-3.2,1.8v7.8h-3v-12.1h2.6l0.2,1.3c1-0.7,2.1-1.2,3.2-1.6L199.9,200.9z"/>
		<path d="M208.3,210.5v-8.5c0-0.6-0.3-1-1-1s-2.1,0.4-3.2,1v8.4h-3v-12.1h2.3l0.3,1c1.5-0.8,3.2-1.2,4.9-1.3c1.2,0,1.9,0.5,2.3,1.3
			c1.5-0.8,3.2-1.2,4.9-1.3c2,0,2.7,1.4,2.7,3.6v8.8h-3v-8.5c0-0.6-0.3-1-1-1c-1.1,0.1-2.2,0.5-3.2,1v8.4H208.3z"/>
		<path class="st3" d="M98.6,191l7.9,4.5v9.1l-7.9-4.5V191z"/>
		<path class="st3" d="M107.3,195.5v9.1l7.9-4.5V191L107.3,195.5z"/>
		<path class="st3" d="M89.9,185.9v9.1l7.9,4.5v-9.1L89.9,185.9z"/>
		<path class="st3" d="M98.6,210.1l7.9,4.5v-9v-0.1l-7.9-4.5V210.1z"/>
		<path d="M129,189.8v-2.3h-2.1v2.3h-1.1v-5.6h1.1v2.3h2.1v-2.3h1.1v5.6H129z M134.1,189.8h-0.9l-0.1-0.3c-0.4,0.2-0.8,0.4-1.2,0.4
			c-0.8,0-1.1-0.5-1.1-1.2c0-0.8,0.4-1.1,1.2-1.1h1v-0.4c0-0.4-0.1-0.6-0.8-0.6c-0.4,0-0.8,0-1.2,0.1l-0.1-0.8
			c0.5-0.1,1-0.2,1.4-0.2c1.3,0,1.7,0.4,1.7,1.5L134.1,189.8z M133,188.3h-0.8c-0.3,0-0.4,0.1-0.4,0.4c0,0.3,0.1,0.4,0.4,0.4
			c0.3,0,0.6-0.1,0.8-0.2L133,188.3z M136.3,189.9c-0.5,0-1-0.1-1.4-0.2l0.1-0.8c0.4,0.1,0.8,0.2,1.2,0.2c0.5,0,0.5-0.1,0.5-0.4
			c0-0.3-0.1-0.4-0.7-0.5c-1-0.2-1.1-0.5-1.1-1.3s0.4-1.2,1.6-1.2c0.4,0,0.8,0,1.3,0.1l-0.1,0.8c-0.4-0.1-0.8-0.1-1.2-0.1
			c-0.5,0-0.5,0.1-0.5,0.3c0,0.3,0,0.4,0.6,0.5c1.2,0.3,1.3,0.4,1.3,1.3C137.8,189.5,137.6,189.9,136.3,189.9L136.3,189.9z
			 M141.1,189.8V187c0-0.2-0.1-0.3-0.3-0.3c-0.4,0-0.8,0.2-1.1,0.3v2.8h-1.1v-5.7l1.1,0.2v1.8c0.5-0.2,1-0.4,1.5-0.4
			c0.7,0,0.9,0.5,0.9,1.2v2.9L141.1,189.8z M143,185.2v-1h1.1v1H143z M143,189.8v-4h1.1v4H143z M144.9,185.8c0-1,0.6-1.6,2.1-1.6
			c0.5,0,1,0.1,1.6,0.2l-0.1,0.9c-0.5-0.1-0.9-0.1-1.4-0.1c-0.7,0-1,0.2-1,0.8v2.1c0,0.6,0.2,0.8,1,0.8c0.5,0,0.9-0.1,1.4-0.1
			l0.1,0.9c-0.5,0.1-1,0.2-1.6,0.2c-1.4,0-2.1-0.6-2.1-1.6V185.8z M150.9,189.9c-1.4,0-1.8-0.8-1.8-1.6v-1c0-0.8,0.4-1.6,1.8-1.6
			s1.8,0.8,1.8,1.6v1C152.7,189.2,152.3,189.9,150.9,189.9L150.9,189.9z M150.9,186.6c-0.6,0-0.8,0.2-0.8,0.7v1.1
			c0,0.5,0.2,0.7,0.8,0.7s0.8-0.2,0.8-0.7v-1.1C151.6,186.8,151.4,186.6,150.9,186.6L150.9,186.6z M155.7,186.6
			c-0.4,0.2-0.8,0.4-1.1,0.6v2.6h-1.1v-4h0.9l0.1,0.4c0.3-0.2,0.7-0.4,1.1-0.5L155.7,186.6z M159.9,188.5c0,0.9-0.4,1.4-1.4,1.4
			c-0.4,0-0.8,0-1.1-0.1v1.6l-1.1,0.2v-5.8h0.8l0.1,0.3c0.4-0.3,0.9-0.4,1.3-0.4c0.8,0,1.3,0.5,1.3,1.4L159.9,188.5z M157.4,188.9
			c0.3,0.1,0.6,0.1,0.9,0.1c0.4,0,0.5-0.2,0.5-0.5v-1.4c0-0.3-0.1-0.5-0.5-0.5c-0.3,0-0.7,0.1-0.9,0.4V188.9z"/>
	</g>
</g>
<g id="_507_data_analyst_flatline">
	<path class="st2" d="M365.5,239.9c0,0,7.6,11.5,8.9,10.8s17.3-11.4,14.9-12.5s-10.8,1.1-10.8,1.1l-6.3-7.5L365.5,239.9L365.5,239.9
		z"/>
	<path class="st0" d="M374.4,251.1c-1.5,0-5.8-5.9-9.2-11c-0.1-0.1-0.1-0.3,0-0.4l6.8-8.1c0.1-0.2,0.4-0.2,0.5-0.1c0,0,0,0,0,0.1
		l6.1,7.4c1.4-0.4,8.5-2.1,10.8-1.1c0.3,0.1,0.4,0.4,0.5,0.7C389.9,241.1,375.2,250.7,374.4,251.1
		C374.5,251.1,374.4,251.1,374.4,251.1L374.4,251.1z M366,239.9c3.4,5,7.5,10.4,8.3,10.4c0.5-0.3,4.3-2.8,8.1-5.5
		c6.8-5.1,6.9-6.1,6.9-6.2c-1.8-0.8-8.2,0.6-10.5,1.2c-0.1,0-0.3,0-0.4-0.1l-6-7.2L366,239.9L366,239.9z"/>
	<path class="st2" d="M339.1,237.4c0,0-3.6,13.5-2.6,14.7s24.4,2.3,23.5,1s-11.8-8.4-11.8-8.4l1-6.3L339.1,237.4L339.1,237.4z"/>
	<path class="st0" d="M355,253.9c-6.9,0-18-0.8-18.7-1.6c-1-1.2,1.7-11.8,2.5-15c0-0.2,0.2-0.3,0.4-0.3l10.1,0.9
		c0.1,0,0.2,0.1,0.3,0.1c0.1,0.1,0.1,0.2,0.1,0.3l-1,6.1c1.8,1.2,10.9,7.1,11.7,8.3c0.1,0.2,0.1,0.5-0.1,0.7l0,0
		C359.8,253.8,357.7,253.9,355,253.9L355,253.9z M339.4,237.8c-1.7,6.4-3.1,13.3-2.6,14c1.2,0.9,20,1.9,22.7,1.2
		c-1.3-1.3-7.4-5.4-11.5-8c-0.1-0.1-0.2-0.2-0.2-0.4l1-5.9L339.4,237.8L339.4,237.8z"/>
	<polygon class="st0" points="333.8,177.1 378,234.7 365,243.5 305.3,177.1 	"/>
	<path class="st0" d="M365,243.9c-0.1,0-0.2-0.1-0.3-0.1L305,177.4c-0.1-0.1-0.1-0.3-0.1-0.4c0.1-0.1,0.2-0.2,0.4-0.2h28.5
		c0.1,0,0.2,0.1,0.3,0.1l44.3,57.6c0.1,0.1,0.1,0.2,0.1,0.3s-0.1,0.2-0.2,0.2l-13,8.8C365.1,243.9,365.1,243.9,365,243.9L365,243.9z
		 M306.1,177.5l58.9,65.6l12.4-8.5l-43.9-57.1H306.1L306.1,177.5z"/>
	<path class="st0" d="M292.1,178.1c0,0,3.9,11.4,8.2,16.1S340,212,340,212l-3.2,28.4l16.4,1.7c0,0,11.2-31,7.4-36.1
		s-45.3-32.4-45.3-32.4L292.1,178.1L292.1,178.1z"/>
	<path class="st0" d="M353.2,242.6L353.2,242.6l-16.4-1.7c-0.1,0-0.2-0.1-0.3-0.1c-0.1-0.1-0.1-0.2-0.1-0.3l3.2-28.1
		C336,211,304.1,199,300,194.5c-4.3-4.7-8.1-15.8-8.3-16.2c0-0.1,0-0.2,0-0.3c0.1-0.1,0.1-0.2,0.3-0.2l23.3-4.4c0.1,0,0.2,0,0.3,0.1
		c1.8,1.1,41.6,27.4,45.4,32.5c1.6,2.2,0.9,9.1-2.2,20.3c-2.3,8.3-5.1,16.1-5.1,16.2C353.5,242.5,353.3,242.6,353.2,242.6
		L353.2,242.6z M337.2,240.2l15.7,1.7c0.5-1.5,3-8.4,5-15.8c3.8-13.7,3.4-18.2,2.3-19.6c-3.6-4.8-42.5-30.6-45-32.3l-22.7,4.3
		c0.8,2.1,4.2,11.5,8,15.6c4.2,4.5,39.2,17.6,39.6,17.7c0.2,0.1,0.3,0.2,0.2,0.4L337.2,240.2L337.2,240.2z"/>
	<path class="st2" d="M335.8,136.4c0,0,7.5,16.6,8.6,16.7l4.6-7.1c0,0,0.4-4.9,1.7-6.9s2.7-1.4,2.7-1.4s1.3-2.4,2.8-2.7
		s6.4,2.7,3.6,4.6s-12,28.4-15.4,28.7c-10.8,1-18.5-28.9-18.4-28.9L335.8,136.4L335.8,136.4z"/>
	<path class="st0" d="M343.7,168.7c-4.2,0-8.3-4.2-12.2-12.4c-3-6.4-6.4-16.7-5.9-17.2c0,0,0.1-0.1,0.2-0.1l9.9-3
		c0.2-0.1,0.4,0,0.5,0.2c3.2,7.1,7,14.9,8.1,16.3l4.3-6.7c0.1-0.7,0.5-5,1.8-6.9c1.1-1.7,2.3-1.7,2.8-1.6c0.4-0.7,1.5-2.4,2.9-2.6
		c1.3-0.2,4.1,1.3,4.7,2.9c0.4,0.9,0,1.9-0.9,2.4c-1.1,0.8-3.8,6.6-6.3,12.3c-4.4,9.8-7.4,16.3-9.4,16.5
		C344.1,168.6,343.9,168.7,343.7,168.7L343.7,168.7z M326.3,139.6c1.3,5.1,3,10,5.2,14.8c2.9,6.4,7.5,14,12.8,13.5
		c1.7-0.2,5.8-9.4,8.7-16.1c2.8-6.3,5.2-11.7,6.5-12.6c0.9-0.6,0.8-1.1,0.6-1.5c-0.5-1.3-3-2.6-3.9-2.4c-1.1,0.2-2.2,1.9-2.5,2.5
		c-0.1,0.2-0.3,0.2-0.5,0.2c0,0-1.1-0.4-2.3,1.3c-1.2,1.9-1.6,6.6-1.6,6.7c0,0.1,0,0.1-0.1,0.2l-4.6,7.2c-0.1,0.1-0.2,0.2-0.4,0.2
		c-1.1-0.1-5.9-10.3-8.8-16.6L326.3,139.6L326.3,139.6z"/>
	<path class="st2" d="M302.1,92.6c-0.5,0.5-1,0.9-1.4,1.5c-1.7,1.9-2.6,4.3-3.5,6.6c-1.4,3.5-2.2,10.4-4.4,13.3
		c-2.4,3.1-7.9,1.8-10,5.4c-1.4,2.3-0.2,5.4-1,8c-1.4,4.7-7.7,5.8-10.6,9.7c-2.3,3.1-2,7.5-1,11.3c0.8,2.6,1.9,5.2,3.8,7
		c6.3,6,18.3,1,22.6-5.1c2.1-3.1,3.4-7.2,6.7-8.9c2.4-1.2,5.3-0.8,8-0.9c3-0.1,6-0.9,8.6-2.3c2.8-1.5,5.5-4.5,4.4-7.4
		c-0.7-1.8-2.7-3-3-5c-0.5-2.7,2.2-4.6,4.1-6.5c5-5,4.9-14.2-0.1-19.1c2.3-3.2,2.1-7.6-0.6-10.5c-0.6-0.7-1.3-1.1-2.2-1.3
		c-0.9-0.1-1.7-0.1-2.5,0.1C313.1,89.3,307.5,87.7,302.1,92.6L302.1,92.6z"/>
	<path class="st0" d="M281.3,158.4c-2.8,0.1-5.5-0.9-7.6-2.8c-1.7-1.6-3-3.9-3.9-7.2s-1.6-8.1,1-11.6c1.3-1.7,3.2-2.9,5-4.1
		c2.5-1.5,4.8-3,5.5-5.5c0.2-1.1,0.3-2.2,0.3-3.4c0-1.6-0.1-3.2,0.8-4.7c1.2-2.1,3.4-2.6,5.5-3.2c1.8-0.5,3.5-0.9,4.6-2.3
		c1.4-1.7,2.2-5.2,3-8.3c0.4-1.6,0.8-3.3,1.4-4.9c0.9-2.3,1.8-4.8,3.5-6.7c0.5-0.5,1-1,1.5-1.5l0,0c4-3.6,8-3.8,12.7-3.9
		c1.8-0.1,3.5-0.1,5.5-0.4l0.3-0.1c0.8-0.2,1.6-0.2,2.4,0c0.9,0.2,1.7,0.8,2.4,1.5c2.7,3,3,7.4,0.8,10.7c5,5.5,4.9,13.9-0.1,19.4
		c-0.3,0.3-0.6,0.6-1,0.9c-1.7,1.6-3.4,3.2-3,5.3c0.3,1,0.8,1.8,1.5,2.6c0.6,0.7,1.1,1.5,1.5,2.3c1.1,3-1.5,6.2-4.6,7.9
		c-2.7,1.4-5.7,2.2-8.8,2.3h-2c-2,0-4.1,0-5.9,0.9c-2.3,1.1-3.5,3.4-4.8,5.7c-0.6,1-1.1,2.1-1.8,3c-2.8,4-8.7,7.3-14,7.9
		C282.3,158.3,281.8,158.4,281.3,158.4L281.3,158.4z M302.3,92.9c-0.5,0.4-1,0.9-1.4,1.4c-1.6,1.8-2.5,4.2-3.4,6.5
		c-0.5,1.6-1,3.2-1.3,4.8c-0.8,3.3-1.6,6.7-3.1,8.6c-1.2,1.6-3.1,2.1-5,2.6c-2,0.5-4,1-5,2.8c-0.8,1.2-0.7,2.7-0.7,4.3
		c0.1,1.2,0,2.4-0.3,3.6c-0.8,2.8-3.4,4.4-5.9,6c-1.8,1.1-3.6,2.3-4.8,3.9c-2.4,3.2-1.8,7.8-0.9,10.9s2.1,5.3,3.7,6.9
		c2.6,2.5,6.1,2.8,8.5,2.5c5.1-0.5,10.8-3.7,13.5-7.5c0.6-0.9,1.2-1.9,1.8-2.9c1.3-2.4,2.7-4.8,5.1-6c1.9-1,4.1-0.9,6.2-0.9h2
		c3-0.1,5.8-0.9,8.5-2.3c2.8-1.5,5.2-4.3,4.2-6.9c-0.4-0.8-0.8-1.5-1.4-2.1c-0.8-0.8-1.4-1.8-1.7-2.9c-0.5-2.4,1.5-4.3,3.3-5.9
		c0.3-0.3,0.7-0.6,1-0.9c4.8-5.3,4.8-13.4-0.1-18.6c-0.1-0.1-0.1-0.4,0-0.5c2.2-3,2-7.2-0.5-10c-0.5-0.6-1.2-1-2-1.2
		c-0.7-0.1-1.4-0.1-2.1,0.1l-0.3,0.1c-2,0.3-3.8,0.3-5.5,0.4C310,89.4,306.2,89.5,302.3,92.9L302.3,92.9L302.3,92.9z"/>
	<path class="st4" d="M326.5,124.1c0,0,9.3,9.6,11.8,15.6c-4.4,0.4-8.8,1.4-13,2.8L326.5,124.1z"/>
	<path class="st4" d="M312.2,118.4c0,0-8.6-3.5-19.3,5.4c-4.8,4-5.8,8.4-7.8,12.9c1.5,15.2,6.9,41.4,6.9,41.4l41.7-1
		c0,0-2.9-46-6.2-51.7S312.2,118.3,312.2,118.4L312.2,118.4z"/>
	<path class="st0" d="M306.6,120.3c0.6,1.3,7.8,28.6,7.8,28.6l3.9-25.4L306.6,120.3L306.6,120.3z"/>
	<path class="st0" d="M314.4,149.2c-0.2,0-0.3-0.1-0.4-0.3c-2-7.6-7.3-27.5-7.8-28.5c-0.1-0.1,0-0.3,0-0.4c0.1-0.1,0.2-0.2,0.4-0.1
		l11.6,3.2c0.2,0.1,0.3,0.2,0.3,0.4l-3.9,25.4C314.8,149.1,314.6,149.2,314.4,149.2L314.4,149.2L314.4,149.2z M307.2,120.8
		c1.2,3.8,5.6,20.6,7.1,26.2l3.5-23.2L307.2,120.8L307.2,120.8z"/>
	<path class="st2" d="M323.6,98.2c0,0,2,6.2,0.7,10.8c-0.6,2.6-2.8,4.6-5.4,5.1l-0.3,8.2c0,0-0.1,4.2-5.2,3.3
		c-3-0.5-5.5-2.5-6.7-5.3v-15.1c0,0,6-3.1,5.7-8.6C312.3,96.6,319.1,100.2,323.6,98.2L323.6,98.2z"/>
	<path class="st0" d="M314.6,126.1c-0.5,0-0.9,0-1.4-0.1c-3.1-0.5-5.8-2.6-7-5.6v-0.1v-15.1c0-0.1,0.1-0.3,0.2-0.3
		c0,0,5.7-3.1,5.5-8.2c0-0.1,0.1-0.3,0.2-0.3c0.1-0.1,0.3-0.1,0.4,0c0.1,0,6.7,3.5,11,1.6c0.2-0.1,0.4,0,0.5,0.2l0,0
		c0.1,0.3,2,6.3,0.7,11c-0.7,2.6-2.8,4.7-5.4,5.3l-0.3,7.9c-0.1,1.1-0.6,2.2-1.4,2.9C316.7,125.8,315.6,126.2,314.6,126.1
		L314.6,126.1z M307,120.2c1.1,2.7,3.5,4.6,6.4,5.1c1.6,0.3,2.8,0.1,3.6-0.6c0.7-0.6,1.1-1.4,1.2-2.3l0.3-8.2c0-0.2,0.1-0.3,0.3-0.4
		c2.5-0.4,4.5-2.3,5.1-4.8c1-3.8-0.2-8.7-0.6-10.2c-3.9,1.4-9-0.7-10.7-1.5c-0.1,4.7-4.6,7.5-5.7,8.2v14.7H307z"/>
	<path class="st2" d="M309.5,104.2c0,0-2.3-5.8-5.3-2.3s1,7.5,3.5,7.3"/>
	<path class="st0" d="M307.5,109.6c-1.5,0-3.4-1.2-4.2-3c-0.9-1.6-0.6-3.7,0.6-5c0.6-0.8,1.6-1.3,2.6-1.2c2,0.3,3.3,3.5,3.4,3.6
		c0.1,0.2,0,0.4-0.1,0.5s-0.4,0-0.5-0.1v-0.1c-0.3-0.8-1.5-2.9-2.8-3.2c-0.8,0-1.5,0.3-1.9,1c-1.1,1.1-1.3,2.8-0.5,4.2
		c0.8,1.5,2.5,2.7,3.8,2.5c0.2,0,0.4,0.1,0.4,0.3l0,0c0,0.2-0.1,0.4-0.3,0.4l0,0L307.5,109.6L307.5,109.6z"/>
	<path class="st0" d="M320.2,109.2c-0.6,0-1.2-0.1-1.8-0.3c-0.2-0.1-0.3-0.3-0.2-0.5c0.1-0.2,0.3-0.3,0.5-0.2
		c0.8,0.3,1.6,0.3,2.4,0.1c0.1-0.3-0.9-2.3-2.2-4.2c-0.1-0.2-0.1-0.4,0.1-0.5l0,0c0.2-0.1,0.4-0.1,0.5,0.1l0,0
		c0.6,0.9,2.5,3.8,2.3,4.8c0,0.2-0.2,0.4-0.4,0.4C321,109.1,320.6,109.2,320.2,109.2L320.2,109.2z"/>
	<path class="st0" d="M318.1,111.6c-0.5,0-1-0.1-1.5-0.2c-1.4-0.4-2.6-1.3-3.4-2.5c-0.1-0.2,0-0.4,0.2-0.5s0.4,0,0.4,0.2
		c0.7,1.1,1.8,1.8,3.1,2.1c1.6,0.4,3.2-0.1,4.9-1.3c0.2-0.1,0.4-0.1,0.5,0.1s0.1,0.4-0.1,0.5C321.2,111,319.7,111.5,318.1,111.6
		L318.1,111.6z"/>
	<path class="st0" d="M318.9,114.1c0,0-4.4,0.4-6.9-0.4c0,0,2.5,6.6,6.7,6.7L318.9,114.1z"/>
	<path class="st0" d="M318.6,120.8L318.6,120.8c-4.4-0.1-6.9-6.7-7-6.9c0-0.1,0-0.3,0.1-0.4s0.2-0.1,0.4-0.1
		c2.4,0.7,6.7,0.3,6.8,0.3c0.1,0,0.2,0,0.3,0.1c0.1,0.1,0.1,0.2,0.1,0.3l-0.2,6.3C319,120.7,318.8,120.8,318.6,120.8L318.6,120.8
		L318.6,120.8z M312.6,114.3c0.8,1.6,2.8,5.3,5.6,5.7l0.2-5.5C316.5,114.6,314.5,114.6,312.6,114.3z"/>
	
		<ellipse transform="matrix(0.9999 -1.553249e-02 1.553249e-02 0.9999 -1.5602 4.9254)" class="st0" cx="316.3" cy="102.9" rx="0.6" ry="1.1"/>
	
		<ellipse transform="matrix(0.9999 -1.553249e-02 1.553249e-02 0.9999 -1.5579 5.0171)" class="st0" cx="322.2" cy="102.8" rx="0.6" ry="1.1"/>
	<path class="st2" d="M285.2,136.7c0,0-8.7,28.4-2.6,35c4.2,4.6,15.1-0.4,19.8-2.2c23.3-8.9,31.6-16.3,29.7-15.9
		c0.6-1.9-5.3,0.8-6.3,1.1c-0.4-1.6,2.5-4.3,4.1-4.4s3.5,0.6,3.7-1c0.1-0.9-0.8-1.8-1.5-2.3s-7.6-0.8-9,0.5c-0.9,0.8-1.4,2.1-2.3,3
		c-1,0.8-2.1,1.4-3.3,1.8c-4.6,1.7-9.3,3.1-14,4.5c-2.3,0.6-7.7,1.9-7.7,1.9l2.7-16.8"/>
	<path class="st0" d="M287.9,174c-2.2,0-4.2-0.6-5.5-2c-6.2-6.7,2.1-34.2,2.5-35.4c0.1-0.2,0.3-0.3,0.5-0.3c0.2,0.1,0.3,0.3,0.2,0.5
		c-0.1,0.3-8.5,28.3-2.7,34.6c3.6,4,12.9,0.3,17.9-1.7l1.5-0.6c19.5-7.5,28.4-13.8,29.6-15.3l0,0c-0.1-0.1-0.1-0.2-0.1-0.4
		c0-0.1,0-0.1,0-0.1c-0.1-0.1-0.8-0.4-5.5,1.6L326,155c-0.1,0.1-0.2,0.1-0.3,0s-0.2-0.1-0.2-0.2c-0.1-0.9,0.2-1.7,0.8-2.4
		c0.9-1.2,2.4-2.4,3.7-2.5c0.4,0,0.9,0,1.3,0c1.4,0.1,2,0,2.1-0.8s-0.6-1.5-1.3-1.9s-7.3-0.8-8.7,0.4c-0.5,0.4-0.9,1-1.2,1.5
		c-1,1.7-2.6,2.9-4.5,3.3c-4.6,1.6-9.4,3.2-14.1,4.5c-2.3,0.6-7.7,1.9-7.7,1.9c-0.1,0-0.2,0-0.3-0.1s-0.1-0.2-0.1-0.3l2.7-16.8
		c0-0.2,0.2-0.3,0.4-0.3l0,0c0.2,0,0.3,0.2,0.3,0.4l-2.6,16.2c1.4-0.3,5.3-1.3,7.1-1.8c4.7-1.3,9.4-2.8,14-4.5
		c1.8-0.4,3.3-1.4,4.1-3c0.4-0.6,0.8-1.2,1.3-1.6c1.6-1.4,8.5-1,9.5-0.5s1.9,1.6,1.8,2.7c-0.2,1.5-1.6,1.4-2.9,1.4
		c-0.4,0-0.8,0-1.2,0c-0.8,0.1-2.3,1-3.1,2.2c-0.3,0.4-0.5,0.8-0.6,1.3c3.7-1.5,5.4-1.9,6-1.4c0.1,0.1,0.2,0.3,0.2,0.5
		c0.1,0.1,0.2,0.2,0.2,0.3c0.4,1.3-9.5,8.4-30.2,16.3l-1.5,0.6C297.4,171.9,292.2,174,287.9,174L287.9,174z"/>
	<path class="st0" d="M298.5,142.2L298.5,142.2c-0.3,0-0.4-0.2-0.4-0.4l0,0l1.8-9.8c0-0.2,0.2-0.3,0.4-0.3c0.2,0,0.3,0.2,0.3,0.4
		l-1.8,9.8C298.8,142.1,298.7,142.2,298.5,142.2L298.5,142.2z"/>
	<path class="st0" d="M351.7,144.6c-0.1,0-0.2,0-0.2-0.1c-0.2-0.1-0.2-0.4-0.1-0.5c1.1-1.3,0.3-4.3,0.3-4.3c0-0.2,0-0.4,0.2-0.4
		c0.2-0.1,0.4,0,0.5,0.2c0,0,0.8,1.6,2,1.7c0.2-0.3-0.5-1.9-1.4-3.3c-0.1-0.2,0-0.4,0.1-0.5c0.2-0.1,0.4,0,0.5,0.1
		c0.6,1,1.9,3.3,1.4,4.1c-0.2,0.2-0.5,0.4-0.8,0.3c-0.6-0.1-1.2-0.4-1.6-0.8c0.2,1.2-0.1,2.4-0.7,3.4
		C351.9,144.5,351.8,144.6,351.7,144.6L351.7,144.6z"/>
	<path class="st2" d="M355.7,155.1c-2.8,0.1-5.4-1.1-7.2-3.2c-1.8-2.2-2.5-5.1-1.9-7.9c1.1-6,6.9-11,13-11c2.8-0.1,5.4,1.1,7.2,3.2
		c1.8,2.2,2.5,5.1,1.9,7.9l0,0C367.6,150.1,361.8,155.1,355.7,155.1L355.7,155.1z M359.6,133.7c-5.7,0-11.2,4.7-12.3,10.4
		c-0.5,2.6,0.1,5.3,1.7,7.3c1.7,1.9,4.1,3,6.7,2.9c5.7,0,11.2-4.7,12.3-10.4l0,0c0.6-2.6-0.1-5.3-1.7-7.3
		C364.6,134.7,362.1,133.6,359.6,133.7L359.6,133.7z"/>
	<path class="st0" d="M366.3,159.5H320c-2,0-3.6-1.6-3.5-3.6c0-0.5,0.1-0.9,0.3-1.4l9.8-23.4c0.5-1.3,1.9-2.2,3.3-2.2h46.3
		c2,0,3.5,1.6,3.6,3.6c0,0.5-0.1,0.9-0.3,1.4l-9.8,23.4C369,158.6,367.8,159.5,366.3,159.5z M329.8,129.7c-1.1,0-2.1,0.7-2.6,1.7
		l-9.8,23.4c-0.6,1.4,0.1,3.1,1.5,3.7c0.3,0.1,0.7,0.2,1.1,0.2h46.4c1.1,0,2.1-0.7,2.6-1.7l9.8-23.4c0.6-1.4-0.1-3.1-1.5-3.7
		c-0.3-0.1-0.7-0.2-1.1-0.2H329.8z"/>
	<path class="st0" d="M343.2,134.3h-12.7c-0.2,0-0.4-0.2-0.4-0.4s0.2-0.4,0.4-0.4h12.7c0.2,0,0.4,0.2,0.4,0.4
		C343.6,134.2,343.4,134.3,343.2,134.3z"/>
	<path class="st0" d="M341.5,137.1h-12.7c-0.2,0-0.4-0.2-0.4-0.4s0.2-0.4,0.4-0.4h12.7c0.2,0,0.4,0.2,0.4,0.4
		S341.7,137.1,341.5,137.1z"/>
	<path class="st2" d="M355.6,235.1c-0.1,0-0.3-0.1-0.3-0.2c0-0.1,1.8-7.5,5.6-22.3c0-0.2,0.3-0.3,0.5-0.3s0.3,0.3,0.3,0.5
		c0,0-5.6,21.9-5.7,22.1C356,234.9,355.8,235,355.6,235.1L355.6,235.1L355.6,235.1z"/>
	<path class="st2" d="M348,195.7c-0.1,0-0.1,0-0.2-0.1l-21.4-14c-0.2-0.1-0.2-0.3-0.1-0.5l0,0c0.1-0.2,0.4-0.2,0.5-0.1l21.4,14
		c0.2,0.1,0.2,0.4,0.1,0.5C348.3,195.6,348.2,195.7,348,195.7L348,195.7z"/>
</g>
<g id="expert">
	<path class="st2" d="M78,221.4c0,0-1.8,0-4.5,2.1c2.3-10.3-1.4-19.4-1.4-19.4c-4,3.7-7.2,8.2-9.5,13.2c-3-4.2-6-6.6-6-6.6
		c-1.7,5.6-2.3,11.4-1.7,17.2c-2.1-1.9-4.5-3.5-7.1-4.6c-0.2,7.6,2.9,14.5,5.7,19.3H73C75.8,238.6,79.9,230.5,78,221.4z"/>
	<path class="st0" d="M78.6,221.3c-0.1-0.3-0.3-0.5-0.6-0.5c-0.1,0-1.5,0-3.6,1.3c1.6-9.6-1.6-17.8-1.7-18.2
		c-0.1-0.2-0.2-0.3-0.4-0.4c-0.2,0-0.4,0-0.5,0.1c-3.5,3.3-6.4,7.1-8.6,11.4c-1.1-8.1-3.2-16.9-7.3-24.1l-1,0.6
		c4,7.1,6.1,15.5,7.2,23.5l-0.5-0.3c-2.3-2.7-4.2-4.3-4.4-4.5c-0.2-0.1-0.4-0.2-0.6-0.1c-0.2,0.1-0.3,0.2-0.4,0.4
		c-1.6,5.2-2.2,10.6-1.8,16c-1.9-1.5-3.9-2.8-6.1-3.8c-0.2-0.1-0.4,0-0.6,0.1s-0.3,0.3-0.3,0.5c-0.2,7.6,2.9,14.7,5.6,19.3h-1.4
		l2.8,13.9h17.2l2.8-13.9H74C76.6,238.4,80.6,230.4,78.6,221.3L78.6,221.3z M71.9,205.2c0.8,2.5,2.8,9.9,1.1,18
		c-1.4,1.1-2.9,2.8-4.5,5.2c-1.1-4.5-3.1-8.2-5.1-11.2l0,0C65.5,212.7,68.3,208.7,71.9,205.2z M54,242.1c-2.5-4.4-5.4-10.8-5.4-17.8
		c2.1,1.1,4.1,2.4,5.9,4c0.5,4.7,1.5,9.3,2.9,13.8H54z M64.1,238.6c-0.1,0.7-0.2,1.4-0.3,1.9c0,0.5-0.1,1-0.1,1.4h-5.1
		c-1.5-4.5-2.5-9.1-3-13.8c0.1-0.2,0-0.4-0.1-0.5c-0.5-5.3-0.1-10.7,1.4-15.9c1,0.9,3,2.9,5,5.6l0,0c0.1,0.1,0.2,0.3,0.3,0.4
		c0.2,0.2,0.3,0.5,0.5,0.7c0.3,0.4,0.5,0.8,0.8,1.2c0,0.1,0.1,0.1,0.1,0.2c1.7,2.8,3.2,6.1,4,9.9l-0.4,0.8
		C65.5,233.7,64.6,236.4,64.1,238.6L64.1,238.6L64.1,238.6z M65,242L65,242c0.2-3.8,1.3-7.5,3.3-10.7c0.2-0.3,0.4-0.7,0.6-1
		c1.2-2.1,2.5-3.7,3.6-4.8c0.6-0.6,1.1-1.1,1.7-1.5c1.6-1.3,2.8-1.7,3.5-1.8c1.6,8.4-2.2,15.9-4.7,19.9L65,242L65,242L65,242z"/>
	<path class="st4" d="M70.2,191.2c0-0.9-2.1-1.7-4.9-2c2.5-1.4,4.1-2.9,3.8-3.7c-0.4-0.9-2.6-0.8-5.4,0.1c1.9-2.3,2.8-4.3,2.2-5
		c-0.6-0.6-2.6,0.3-4.9,2.1c0.8-2.8,0.9-5,0.1-5.3c-0.9-0.4-2.4,1.3-3.8,3.9c-0.3-2.9-1.1-5.1-2-5.1s-1.7,2.1-2,4.9
		c-1.4-2.5-2.9-4.1-3.7-3.8c-0.9,0.4-0.8,2.6,0.1,5.4c-2.3-1.9-4.3-2.8-5-2.2c-0.6,0.6,0.3,2.6,2.1,4.9c-2.8-0.8-5-0.9-5.3-0.1
		c-0.4,0.9,1.3,2.4,3.9,3.8c-2.9,0.3-5.1,1.1-5.1,2s2.1,1.7,4.9,2c-2.5,1.4-4.1,2.9-3.8,3.7c0.4,0.9,2.6,0.8,5.4-0.1
		c-1.9,2.3-2.8,4.3-2.2,5c0.6,0.6,2.6-0.3,4.9-2.1c-0.8,2.8-0.9,5-0.1,5.3c0.9,0.4,2.4-1.3,3.8-3.9c0.3,2.9,1.1,5.1,2,5.1
		s1.7-2.1,2-4.9c1.4,2.5,2.9,4.1,3.7,3.8c0.9-0.4,0.8-2.6-0.1-5.4c2.3,1.9,4.3,2.8,5,2.2c0.6-0.6-0.3-2.6-2.1-4.9
		c2.8,0.8,5,0.9,5.3,0.1c0.4-0.9-1.3-2.4-3.9-3.8C68.1,192.9,70.2,192.1,70.2,191.2z"/>
	<path class="st0" d="M42,185.6c0.1-0.1,0.4-0.2,1-0.2c0.8,0,1.9,0.2,3.4,0.6c-0.4-0.5-0.8-1-1.1-1.5c-2.1-0.5-3.9-0.4-4.4,0.7
		c-0.5,1.1,0.8,2.4,2.7,3.7c0.6-0.1,1.2-0.2,1.9-0.2C42.9,187.2,41.8,186,42,185.6z"/>
	<path class="st0" d="M49.3,176.8c-1.1,0.5-1.1,2.3-0.7,4.5c0.5,0.3,1,0.7,1.5,1.2c-0.8-2.7-0.7-4.4-0.4-4.5h0.1
		c0.4,0,1.6,1.1,2.8,3.4c0-0.7,0.1-1.3,0.2-1.9C51.7,177.6,50.4,176.3,49.3,176.8z"/>
	<path class="st0" d="M61.2,176.8c-0.8-0.3-1.8,0.2-2.9,1.6c-0.2,0.3-0.5,0.7-0.7,1c0.1,0.6,0.2,1.2,0.2,1.9
		c0.5-0.8,0.9-1.6,1.4-2.2c0.9-1.1,1.4-1.3,1.5-1.3l0,0c0.1,0,0.4,0.5,0.2,2c-0.1,0.7-0.3,1.6-0.5,2.5c0.5-0.4,1-0.8,1.5-1.1
		c0.1-0.4,0.2-0.8,0.2-1.2C62.3,178.3,62,177.2,61.2,176.8L61.2,176.8z"/>
	<path class="st0" d="M69.6,185.3c-0.4-1.1-2.3-1.2-4.4-0.7c-0.3,0.5-0.7,1-1.1,1.5c2.7-0.8,4.4-0.7,4.5-0.4s-0.9,1.5-3.4,2.9
		c0.7,0,1.3,0.1,1.9,0.2C68.8,187.7,70,186.3,69.6,185.3z"/>
	<path class="st0" d="M66.9,193.5c-0.6,0.1-1.2,0.2-1.9,0.2c2.5,1.4,3.6,2.6,3.5,2.9c-0.1,0.3-1.7,0.4-4.4-0.4
		c0.4,0.5,0.8,1,1.1,1.5c0.8,0.2,1.5,0.3,2.2,0.3c1.1,0,1.9-0.3,2.2-0.9C70,196.1,68.8,194.8,66.9,193.5L66.9,193.5z"/>
	<path class="st0" d="M61.8,201.1c-0.5-0.4-1-0.7-1.5-1.2c0.8,2.8,0.7,4.5,0.4,4.6s-1.5-0.9-2.8-3.4c-0.1,0.7-0.1,1.3-0.3,1.9
		c1,1.6,2.1,2.7,3.1,2.7c0.2,0,0.3,0,0.5-0.1C62.2,205.1,62.3,203.3,61.8,201.1L61.8,201.1z"/>
	<path class="st0" d="M52.6,200.9c-1.4,2.5-2.6,3.6-3,3.5c-0.3-0.1-0.4-1.7,0.4-4.4c-0.5,0.4-1,0.8-1.5,1.1
		c-0.4,2.1-0.3,3.9,0.7,4.3c0.1,0.1,0.3,0.1,0.5,0.1c1,0,2.2-1.2,3.2-2.8C52.8,202.2,52.7,201.6,52.6,200.9L52.6,200.9L52.6,200.9z"
		/>
	<path class="st0" d="M41.9,196.6c-0.1-0.3,0.9-1.5,3.4-2.9c-0.6-0.1-1.3-0.1-1.9-0.3c-1.8,1.2-3.1,2.5-2.6,3.6c0.3,0.7,1.1,1,2.3,1
		c0.7,0,1.4-0.1,2.3-0.3c0.4-0.5,0.7-1,1.2-1.5C43.8,197.1,42.1,196.9,41.9,196.6L41.9,196.6z"/>
	<path class="st0" d="M70.8,191.2c0-1.8-4.2-2.7-8.1-2.7h-1l0.7-0.7c2.7-2.7,5.1-6.3,3.8-7.6s-4.9,1.1-7.6,3.8l-0.7,0.7v-1
		c0-3.9-0.8-8.1-2.7-8.1s-2.7,4.2-2.7,8.1v1l-0.7-0.7c-2.7-2.7-6.3-5.1-7.6-3.8s1.1,4.9,3.8,7.6l0.7,0.7h-1c-3.9,0-8.1,0.8-8.1,2.7
		s4.2,2.7,8.1,2.7h1l-0.7,0.7c-2.7,2.7-5.1,6.3-3.8,7.6c0.3,0.3,0.6,0.4,1,0.4c1.7,0,4.4-2,6.6-4.2l0.7-0.7v1c0,3.9,0.9,8.1,2.7,8.1
		s2.7-4.2,2.7-8.1v-1l0.7,0.7c2.2,2.2,5,4.2,6.6,4.2c0.4,0,0.7-0.1,1-0.4c1.3-1.3-1.1-4.9-3.8-7.6l-0.7-0.7h1
		C66.6,193.9,70.8,193,70.8,191.2z M60.2,192.6c-1.4-0.1-2.5-0.4-3.2-0.7c0.7,0.3,1.6,0.9,2.7,1.8c0.6,0.5,1.2,1,1.9,1.7
		c3.2,3.2,4.1,5.6,3.8,5.9c-0.3,0.3-2.8-0.6-5.9-3.8c-0.7-0.7-1.2-1.3-1.7-1.9c-0.8-1-1.4-1.9-1.8-2.6c0.2,0.7,0.5,1.8,0.6,3.1
		c0.1,0.7,0.1,1.6,0.1,2.5c0,4.5-1.1,6.9-1.5,6.9s-1.5-2.4-1.5-6.9c0-0.9,0-1.8,0.1-2.5c0.1-1.3,0.3-2.3,0.6-3
		c-0.4,0.7-0.9,1.6-1.7,2.6c-0.5,0.6-1,1.2-1.7,1.9c-3.2,3.2-5.6,4.1-5.9,3.8s0.6-2.8,3.8-5.9c0.7-0.7,1.3-1.2,1.9-1.7
		c1.1-0.9,2-1.4,2.7-1.8c-0.7,0.3-1.8,0.5-3.2,0.6c-0.7,0.1-1.6,0.1-2.5,0.1c-4.5,0-6.9-1.1-6.9-1.5s2.4-1.5,6.9-1.5
		c0.9,0,1.8,0,2.5,0.1c1.4,0.1,2.4,0.4,3.2,0.6c-0.2-0.1-0.3-0.2-0.5-0.3c-0.7-0.4-1.4-0.9-2.2-1.5c-0.6-0.5-1.3-1.1-1.9-1.7
		c-3.2-3.2-4.1-5.6-3.8-5.9c0,0,0.1-0.1,0.2-0.1c0.7,0,2.9,1.1,5.7,3.9c0.7,0.7,1.2,1.3,1.7,1.9c0.9,1,1.4,1.9,1.8,2.6
		c-0.2-0.7-0.5-1.8-0.6-3.1c-0.1-0.7-0.1-1.6-0.1-2.5c0-4.5,1.1-6.9,1.5-6.9s1.5,2.4,1.5,6.9c0,0.9,0,1.8-0.1,2.5
		c-0.1,1.4-0.4,2.4-0.6,3.2c0.3-0.7,0.9-1.6,1.8-2.7c0.5-0.6,1-1.2,1.7-1.9c2.8-2.8,5-3.9,5.7-3.9c0.1,0,0.2,0,0.2,0.1
		c0.3,0.3-0.6,2.8-3.8,5.9c-0.6,0.6-1.3,1.2-1.9,1.7c-0.7,0.6-1.5,1.1-2.2,1.5c-0.2,0.1-0.4,0.2-0.5,0.3c0.7-0.3,1.8-0.5,3.2-0.6
		c0.7-0.1,1.6-0.1,2.5-0.1c4.5,0,6.9,1.1,6.9,1.5s-2.4,1.5-6.9,1.5C61.8,192.7,60.9,192.6,60.2,192.6L60.2,192.6L60.2,192.6z"/>
	<circle class="st2" cx="55.3" cy="191.2" r="3"/>
	<path class="st0" d="M55.3,194.7c-1.2,0-2.3-0.6-3-1.6c-1.1-1.6-0.6-3.8,1.1-4.9c1.6-1.1,3.8-0.6,4.9,1.1l0,0
		c1.1,1.6,0.6,3.8-1.1,4.9C56.6,194.6,55.9,194.7,55.3,194.7z M55.2,188.8c-0.4,0-0.9,0.1-1.3,0.4c-1.1,0.7-1.4,2.2-0.7,3.3
		s2.2,1.4,3.3,0.7s1.4-2.2,0.7-3.3l0,0C56.8,189.2,56,188.8,55.2,188.8L55.2,188.8L55.2,188.8z"/>
</g>
</svg>
