<svg width="766" height="520" viewBox="0 0 766 520" fill="none" xmlns="http://www.w3.org/2000/svg">
<path d="M668.718 461.587H97.282C96.7075 461.587 96.3245 461.24 96.3245 460.72C96.3245 460.2 96.7075 459.853 97.282 459.853H668.718C669.293 459.853 669.676 460.2 669.676 460.72C669.676 461.24 669.293 461.587 668.718 461.587Z" fill="#1F292E"/>
<path d="M632.333 371.627C637.092 371.627 640.951 368.134 640.951 363.827C640.951 359.519 637.092 356.027 632.333 356.027C627.574 356.027 623.716 359.519 623.716 363.827C623.716 368.134 627.574 371.627 632.333 371.627Z" fill="#484948"/>
<path d="M669.484 400.747C669.484 400.747 666.037 400.747 660.867 404.387C665.271 386.707 658.186 370.933 658.186 370.933C650.717 377.52 644.397 385.147 640.184 393.64C634.439 386.36 628.886 382.2 628.886 382.2C625.439 391.733 624.482 401.96 625.631 411.84C621.609 408.547 617.013 405.947 612.034 403.867C611.651 416.867 617.396 428.827 622.949 436.973H660.292C665.462 430.387 673.506 416.52 669.484 400.747Z" fill="white"/>
<path d="M670.825 400.573C670.633 400.053 670.059 399.88 669.676 399.707C669.484 399.707 666.803 399.707 662.782 401.96C665.846 385.32 659.718 371.28 659.335 370.413C659.143 370.067 658.76 369.72 658.569 369.72C658.186 369.547 657.803 369.72 657.611 370.067C650.526 375.96 644.972 382.893 640.759 390.693C639.227 383.413 637.504 377 635.972 371.973C639.419 370.587 641.908 367.467 641.908 363.827C641.908 360.187 639.227 356.72 635.589 355.507C634.823 355.16 634.057 354.987 633.482 354.987C633.099 354.987 632.716 354.813 632.333 354.813C626.78 354.813 622.375 358.8 622.375 363.827C622.375 368.333 626.205 372.147 630.993 372.667H632.142C632.716 372.667 633.291 372.667 633.865 372.493C635.206 376.827 636.738 382.72 638.078 388.96C633.674 384.28 630.035 381.507 629.652 381.16C629.269 380.987 628.886 380.813 628.695 380.987C628.312 381.16 627.929 381.333 627.929 381.68C624.865 390.693 623.716 400.053 624.482 409.24C621.035 406.64 617.013 404.387 612.8 402.653C612.417 402.48 612.034 402.48 611.843 402.827C611.46 403 611.268 403.347 611.268 403.693C610.885 416.693 616.822 429 621.992 436.8H619.311L624.673 460.72H657.42L662.782 436.8H662.016C666.995 429.867 674.655 416.173 670.825 400.573ZM624.673 364.52C626.588 364 628.695 364.173 630.227 364.347C630.227 365.04 630.035 365.733 630.035 366.427C630.035 367.64 630.227 369.027 630.418 370.413C627.354 369.72 625.056 367.293 624.673 364.52ZM630.61 362.44C629.078 362.267 626.971 362.093 624.865 362.44C625.248 360.88 626.205 359.32 627.546 358.453C628.886 357.587 630.61 356.893 632.333 356.893H632.525C631.759 358.28 630.993 360.187 630.61 362.44ZM633.291 370.587H632.716C632.525 369.547 632.333 368.68 632.142 367.64C631.95 366.253 632.142 364.867 632.333 363.653C632.908 360.88 633.674 358.627 634.44 357.24C637.504 358.107 639.61 360.707 639.61 363.827C639.61 366.6 637.695 369.027 635.206 370.067C634.823 370.24 634.057 370.587 633.291 370.587ZM657.994 372.667C659.526 376.827 663.356 389.827 660.101 403.693C657.611 405.6 654.547 408.547 651.483 412.707C649.568 404.907 645.547 398.493 641.525 393.467C645.738 385.667 651.292 378.733 657.994 372.667ZM623.907 436.28C619.12 428.653 613.566 417.733 613.566 405.773C617.588 407.68 621.418 409.933 624.865 412.533C625.631 420.507 627.737 428.653 630.61 436.28H623.907ZM643.249 430.387C642.866 431.6 642.674 432.64 642.674 433.68C642.483 434.547 642.483 435.413 642.483 436.107H632.716C629.844 428.307 627.929 420.333 626.971 412.36C627.163 412.013 626.971 411.667 626.78 411.493C625.822 402.307 626.588 392.947 629.461 384.107C631.376 385.667 635.206 388.96 638.844 393.813C639.419 394.507 639.802 395.027 640.376 395.72C640.951 396.413 641.334 397.107 641.908 397.8C645.355 402.653 648.228 408.547 649.568 415.307L648.802 416.693C645.738 421.893 644.206 426.573 643.249 430.387ZM644.781 436.28C645.164 429.52 647.27 423.453 650.909 417.733C651.292 417.04 651.675 416.52 651.866 416C654.164 412.36 656.654 409.587 658.76 407.68C659.909 406.64 660.867 405.773 662.016 405.08C665.08 403 667.378 402.133 668.718 401.96C671.782 416.52 664.505 429.347 659.718 436.28H644.781Z" fill="#1F292E"/>
<path d="M455.387 357.933L470.515 459.333L476.452 460.027L464.387 356.893L451.365 357.933" fill="#1F292E"/>
<path d="M476.452 460.72L470.516 460.027C470.133 460.027 469.941 459.68 469.941 459.507L454.621 358.453L451.366 358.8C450.983 358.8 450.6 358.453 450.408 358.107V357.933C450.408 357.587 450.791 357.24 450.983 357.24L464.196 356.2C464.579 356.2 464.962 356.547 464.962 356.72L477.027 459.68C477.027 460.027 477.027 460.027 476.835 460.2C476.835 460.72 476.644 460.72 476.452 460.72ZM471.473 458.64L475.495 458.987L463.813 357.587L456.345 358.107L471.473 458.64Z" fill="#1F292E"/>
<path d="M386.83 150.453H548.839L533.136 368.68H371.127L386.83 150.453Z" fill="white"/>
<path d="M533.136 369.373H371.127C370.936 369.373 370.744 369.2 370.553 369.027C370.361 368.853 370.169 368.68 370.361 368.507L385.873 150.28C385.873 149.933 386.255 149.587 386.638 149.587H548.648C549.031 149.587 549.414 149.933 549.414 150.28L533.902 368.507C534.094 369.027 533.711 369.373 533.136 369.373ZM372.085 367.813H532.37L547.882 150.973H387.596L372.085 367.813Z" fill="#1F292E"/>
<path d="M395.065 157.04H539.647L525.093 362.093H380.51L395.065 157.04Z" fill="white"/>
<path d="M525.093 362.613H380.51C380.319 362.613 380.127 362.44 380.127 362.44C379.936 362.267 379.936 362.093 379.936 362.093L394.49 157.213C394.49 156.867 394.873 156.693 395.256 156.693H539.647C539.838 156.693 540.03 156.867 540.03 156.867C540.221 157.04 540.221 157.213 540.221 157.213L525.667 362.093C525.667 362.267 525.285 362.613 525.093 362.613ZM381.276 361.227H524.518L539.072 157.733H395.83L381.276 361.227Z" fill="#C8CDD0"/>
<path d="M389.511 140.053H547.69C550.179 140.053 552.094 141.787 552.286 144.04V144.387L551.903 150.28H384.149L384.532 144.387C384.723 141.96 386.83 140.053 389.511 140.053Z" fill="white"/>
<path d="M551.711 151.147H383.957C383.766 151.147 383.574 150.973 383.383 150.8C383.191 150.627 383 150.453 383.192 150.28L383.575 144.387C383.766 141.613 386.255 139.36 389.511 139.36H547.69C550.562 139.36 553.052 141.44 553.052 144.213V144.56L552.669 150.453C552.477 150.8 552.094 151.147 551.711 151.147ZM384.723 149.413H550.754L551.137 144.213C551.328 142.48 549.796 140.92 547.881 140.747H389.511C387.213 140.747 385.489 142.307 385.298 144.387L384.723 149.413Z" fill="#1F292E"/>
<path d="M384.532 368.68L367.68 491.747H373.999L395.447 368.68H384.532Z" fill="white"/>
<path d="M373.999 492.44H367.68C367.488 492.44 367.297 492.267 367.105 492.093C366.914 491.92 366.914 491.747 366.914 491.573L383.766 368.507C383.766 368.16 384.149 367.813 384.532 367.813H395.639C396.022 367.813 396.022 367.987 396.213 368.16C396.405 368.333 396.405 368.507 396.405 368.68L374.574 491.747C374.574 492.093 374.191 492.44 373.999 492.44ZM368.637 491.053H373.233L394.682 369.373H385.298L368.637 491.053Z" fill="#1F292E"/>
<path d="M514.369 368.68L519.539 491.747H513.412L503.453 368.68H514.369Z" fill="white"/>
<path d="M519.539 492.44H513.22C512.837 492.44 512.454 492.093 512.454 491.747L502.496 368.68C502.496 368.507 502.496 368.333 502.687 368.16C502.879 367.987 503.07 367.813 503.262 367.813H514.369C514.752 367.813 515.135 368.16 515.135 368.507L520.306 491.573C520.306 491.747 520.305 491.92 520.114 492.093C520.114 492.44 519.922 492.44 519.539 492.44ZM513.986 491.053H518.582L513.411 369.373H504.028L513.986 491.053Z" fill="#1F292E"/>
<path d="M248.567 119.6C235.545 121.333 225.778 131.213 225.395 143C225.012 148.547 226.544 154.787 223.289 159.467C220.608 163.28 215.629 165.013 212.182 168.133C207.969 171.947 206.437 177.667 207.969 182.867C208.735 185.467 210.458 187.893 210.267 190.493C210.075 194.307 206.628 197.08 204.139 200.2C195.521 211.12 201.075 227.587 213.139 235.56C225.204 243.533 241.29 244.227 255.844 241.8C268.675 239.72 280.931 234.867 291.272 227.587C297.208 223.253 302.57 216.667 300.655 209.907C298.74 203.147 290.505 199.68 288.59 193.093C287.058 188.24 289.356 183.213 290.697 178.36C294.335 165.36 290.888 151.493 286.675 138.667C284.569 132.253 282.845 124.28 275.377 121.853C272.121 120.813 268.292 123.24 268.292 123.24C266.568 119.253 253.546 118.733 248.567 119.6Z" fill="white"/>
<path d="M241.481 244.053C231.14 244.4 220.991 241.627 212.565 236.427C200.692 228.453 193.989 211.64 203.373 199.853C203.947 199.16 204.713 198.293 205.288 197.6C207.394 195.347 209.309 193.093 209.309 190.493C209.309 188.76 208.735 187.2 207.969 185.64C207.586 184.773 207.394 184.08 207.011 183.213C205.288 177.667 206.82 171.6 211.416 167.613C212.948 166.227 214.48 165.187 216.395 164.147C218.693 162.76 220.799 161.2 222.523 159.12C224.821 155.827 224.629 151.84 224.629 147.68V143C225.012 130.693 235.162 120.467 248.567 118.733C252.589 118.04 265.419 118.04 268.675 122.2C270.781 121.16 273.27 120.813 275.76 121.333C282.846 123.587 284.952 130.173 286.867 136.067C287.059 136.933 287.441 137.8 287.633 138.667C291.846 150.8 295.485 165.187 291.655 178.88C291.463 179.92 291.08 180.787 290.697 181.827C289.548 185.64 288.208 189.453 289.357 193.093C290.506 196.04 292.612 198.813 295.102 201.067C297.974 203.493 300.08 206.613 301.421 209.907C303.91 218.4 295.485 225.68 291.655 228.453C281.314 235.907 268.866 240.76 255.844 243.013C251.057 243.707 246.269 244.053 241.481 244.053ZM248.758 120.467C236.311 122.027 226.736 131.56 226.353 143.173V147.68C226.544 152.013 226.544 156.52 224.055 160.16C222.331 162.413 220.033 164.32 217.352 165.707C215.629 166.747 214.097 167.787 212.756 169C208.926 172.64 207.394 178.013 208.926 182.867C209.118 183.56 209.501 184.427 209.884 185.12C210.841 186.853 211.224 188.76 211.416 190.84C211.224 193.96 209.118 196.56 207.011 198.987C206.437 199.68 205.671 200.373 205.096 201.067C198.202 209.907 199.926 226.027 213.905 235.213C224.055 241.973 238.992 244.053 255.844 241.107C268.675 239.2 280.548 234.347 290.697 227.067C294.144 224.467 301.996 217.88 299.889 210.427C298.74 207.307 296.634 204.533 294.144 202.28C291.272 199.853 289.165 196.907 287.825 193.613C286.484 189.453 287.825 185.293 289.165 181.307C289.548 180.267 289.74 179.4 290.123 178.533C293.761 165.187 290.122 151.147 286.101 139.187L285.335 136.587C283.42 130.867 281.505 124.8 275.568 123.067C273.462 122.72 271.164 123.24 269.249 124.28C268.866 124.627 268.1 124.453 267.908 124.107L267.717 123.933C265.994 120.293 254.312 119.427 248.758 120.467Z" fill="#1F292E"/>
<path d="M321.337 486.893C311.762 486.893 275.951 481.173 274.419 481C274.036 481 273.653 480.653 273.653 480.133L271.547 457.08C271.547 456.56 271.93 456.213 272.504 456.04L293.569 454.133C294.144 454.133 294.527 454.48 294.718 455L295.867 465.053C302.953 466.267 309.847 468.693 315.975 471.987C322.486 475.453 329.763 480.307 328.614 484.12C328.04 485.853 325.55 486.893 321.337 486.893ZM275.568 479.267C280.93 480.133 312.719 485.16 321.337 485.16C324.401 485.16 326.316 484.64 326.699 483.6C327.082 482.213 324.401 478.573 314.826 473.547C308.698 470.08 301.804 467.653 294.718 466.613C294.335 466.613 293.952 466.267 293.761 465.747L292.612 455.867L273.462 457.6L275.568 479.267Z" fill="#1F292E"/>
<path d="M209.693 501.107C208.161 501.107 206.628 500.76 205.288 499.893C198.777 495.907 199.734 478.4 200.5 475.107V474.587C201.458 470.08 203.756 459.68 203.565 453.96C203.565 453.613 203.756 453.44 203.948 453.267C204.139 453.093 204.522 453.093 204.905 453.093L222.14 456.56C222.332 456.56 222.715 456.733 222.715 456.907C222.906 457.08 222.906 457.427 222.906 457.6C221.757 462.28 221.374 467.133 221.565 471.987C221.948 475.107 223.48 485.853 221.374 492.44C220.033 496.253 216.969 499.2 212.948 500.76C211.799 500.933 210.842 501.107 209.693 501.107ZM205.671 455C205.288 461.76 204.139 468.347 202.607 474.933V475.453C201.65 479.787 201.458 495.387 206.629 498.333C208.352 499.373 210.459 499.547 212.374 498.853C215.821 497.64 218.501 495.04 219.65 491.747C221.565 485.68 220.225 475.107 219.842 472.16C219.459 467.48 219.842 462.627 220.991 458.12L205.671 455Z" fill="#1F292E"/>
<path d="M245.694 261.387C248.95 259.48 295.867 258.267 295.867 258.267C295.867 258.267 298.931 399.707 295.101 461.067H271.547C271.547 461.067 248.184 369.547 252.205 337.307C252.205 337.307 226.353 428.133 225.395 464.013H198.777C198.777 464.013 194.755 380.467 204.522 343.373C214.288 306.28 245.694 261.387 245.694 261.387Z" fill="#1F292E"/>
<path d="M225.396 464.707H198.586C198.011 464.707 197.628 464.36 197.628 463.84C197.628 462.973 193.798 379.773 203.373 343.027C212.948 306.28 244.354 261.387 244.929 260.867C245.12 260.693 245.12 260.693 245.312 260.52C248.567 258.613 288.208 257.4 296.059 257.227C296.251 257.227 296.634 257.4 296.825 257.4C297.017 257.573 297.208 257.747 297.208 258.093C297.208 259.48 300.272 400.227 296.442 460.893C296.442 461.413 296.059 461.76 295.485 461.76H271.93C271.547 461.76 271.164 461.413 270.973 461.067C270.781 460.2 251.057 383.067 251.057 345.8C244.737 369.2 227.311 435.067 226.545 463.84C226.353 464.187 225.97 464.533 225.396 464.707ZM199.543 462.973H224.247C225.587 427.093 250.865 337.827 251.057 336.96C251.248 336.44 251.631 336.093 252.206 336.267C252.78 336.44 253.163 336.787 252.972 337.307C249.142 367.64 270.015 451.707 272.122 460.2H293.953C297.591 401.787 295.101 271.267 294.718 259.307C276.909 259.827 249.333 261.04 246.078 262.253C243.78 265.547 214.097 308.533 205.097 343.72C196.288 377.867 199.16 454.133 199.543 462.973Z" fill="#1F292E"/>
<path d="M260.823 183.907C260.823 183.907 283.612 195.52 287.825 215.28C292.038 235.04 287.25 279.76 287.25 279.76L231.141 277.68C231.141 277.68 236.694 221.347 231.141 205.573C225.587 189.8 226.736 193.787 231.907 192.227C237.077 190.667 251.057 174.027 260.823 183.907Z" fill="#1F292E"/>
<path d="M287.441 280.627L231.332 278.547C231.14 278.547 230.757 278.373 230.566 278.2C230.374 278.027 230.374 277.853 230.374 277.507C230.374 276.987 235.736 221.173 230.374 205.747L229.417 202.973C226.736 195.347 226.161 193.787 226.927 192.573C227.502 192.053 228.459 191.533 229.225 191.707C229.991 191.707 230.949 191.533 231.715 191.36C233.821 190.32 235.736 189.107 237.268 187.72C243.779 182.867 253.546 175.413 261.206 183.04C263.312 184.08 284.377 195.52 288.59 214.933C292.995 234.693 288.207 279.24 288.016 279.76C288.399 280.453 287.824 280.8 287.441 280.627ZM232.289 276.813L286.484 278.72C287.058 272.48 290.888 233.307 286.867 215.28C282.654 196.04 260.44 184.6 260.248 184.427C260.057 184.427 260.057 184.253 260.057 184.253C253.546 177.667 244.737 184.253 238.609 188.933C236.694 190.493 234.587 191.88 232.289 192.92C231.332 193.267 230.374 193.267 229.417 193.44C229.034 193.44 228.842 193.44 228.459 193.613C228.268 194.133 229.417 197.253 231.14 202.453L232.098 205.227C237.268 220.307 233.055 269.36 232.289 276.813Z" fill="#1F292E"/>
<path d="M260.248 177.147C260.248 177.147 264.653 177.147 268.674 185.12C272.504 191.533 277.1 353.427 277.1 353.427H315.592C315.592 353.427 299.889 231.92 295.867 214.413C292.42 196.907 278.824 182.693 260.248 177.147Z" fill="#484948"/>
<path d="M266.568 179.4C266.568 179.4 284.952 185.467 292.229 191.707C299.506 197.947 331.487 251.68 331.487 251.68L310.805 261.56L285.527 233.827" fill="#484948"/>
<path d="M303.336 252.547C302.378 252.547 300.272 252.373 293.187 208.347C293.187 207.827 293.57 207.307 293.953 207.307C294.527 207.307 295.102 207.653 295.102 208C297.4 222.733 301.613 245.96 303.528 250.293C303.719 250.293 303.719 250.293 303.911 250.293C304.485 250.467 304.677 250.813 304.677 251.333C304.294 252.373 303.719 252.547 303.336 252.547Z" fill="#1F292E"/>
<path d="M269.44 175.76V191.36C269.44 191.36 267.717 200.027 257.184 197.253C251.056 195.693 245.886 191.533 243.396 186.16L244.545 159.293C245.886 154.613 246.46 149.76 246.269 144.907C259.1 144.733 269.057 136.24 269.057 136.24C269.057 136.24 273.462 142.133 275.377 144.04C276.909 145.427 278.249 146.987 279.398 148.72C280.93 151.84 281.505 155.307 280.93 158.773C280.93 162.76 280.547 166.573 279.59 170.56C277.866 177.667 269.44 175.76 269.44 175.76Z" fill="white"/>
<path d="M261.014 198.813C259.674 198.813 258.333 198.64 256.993 198.293C250.482 196.56 245.12 192.227 242.439 186.507C242.439 186.333 242.439 186.333 242.439 186.16C242.439 186.16 243.588 159.467 243.588 159.293C243.588 158.773 243.779 158.253 243.971 157.907C245.12 153.747 245.503 149.24 245.311 144.907C245.311 144.387 245.694 144.04 246.269 144.04C258.525 143.867 268.1 135.547 268.291 135.373C268.483 135.2 268.866 135.027 269.057 135.027C269.249 135.027 269.632 135.2 269.823 135.373C269.823 135.373 274.228 141.267 275.951 143C277.483 144.387 278.824 146.12 279.973 147.853C281.505 151.147 282.079 154.787 281.696 158.253C281.696 162.24 281.313 166.227 280.356 170.04C279.973 172.12 278.632 174.027 276.717 175.24C274.802 176.28 272.504 176.627 270.206 176.453V191.013C269.632 193.44 268.1 195.693 265.802 197.253C264.653 198.467 262.929 198.813 261.014 198.813ZM244.545 185.987C247.035 191.013 251.822 194.827 257.567 196.387C261.589 197.947 266.185 196.387 267.908 192.747C268.1 192.227 268.291 191.533 268.483 191.013L268.291 175.587C268.291 175.24 268.483 175.067 268.674 174.893C268.866 174.72 269.249 174.72 269.44 174.72C271.547 175.067 273.653 174.893 275.568 173.853C277.1 172.987 278.058 171.6 278.249 169.867C279.015 166.053 279.398 162.24 279.59 158.253C279.973 154.96 279.398 151.667 278.058 148.72C276.909 147.16 275.76 145.6 274.228 144.213C272.696 142.653 269.823 138.84 268.483 137.107C262.546 141.787 254.886 144.733 247.035 145.427C247.226 149.587 246.652 153.92 245.503 157.907C245.311 158.253 245.311 158.6 245.311 158.947C245.694 159.467 245.694 159.813 244.545 185.987Z" fill="#1F292E"/>
<path d="M269.249 183.387C265.036 183.387 260.823 182 257.759 179.4C255.078 177.32 253.738 174.2 253.929 170.907C258.525 173.68 263.696 175.24 269.249 175.587V183.387Z" fill="#1F292E"/>
<path d="M269.057 184.253C264.653 184.253 260.44 182.867 257.184 180.093C254.312 177.667 252.971 174.373 253.163 170.907C253.163 170.56 253.354 170.387 253.737 170.213C253.929 170.04 254.312 170.04 254.695 170.213C259.099 172.813 264.27 174.373 269.632 174.893C270.206 174.893 270.589 175.24 270.589 175.76V183.387C270.589 183.907 270.206 184.253 269.632 184.253H269.057ZM255.078 172.64C255.461 175.067 256.61 177.147 258.525 178.88C261.206 181.133 264.653 182.347 268.291 182.52V176.627C263.695 176.107 259.099 174.72 255.078 172.64Z" fill="#1F292E"/>
<path d="M265.228 152.707C265.228 152.707 270.781 160.16 269.441 161.547C268.1 162.933 264.462 161.893 264.462 161.893" fill="white"/>
<path d="M266.951 162.933C265.994 162.933 265.228 162.76 264.27 162.587C263.696 162.413 263.504 162.067 263.504 161.547C263.696 161.027 264.079 160.853 264.653 160.853C265.802 161.2 268.1 161.2 268.675 160.68C268.866 159.987 266.951 156.347 264.27 153.053C264.079 152.707 264.079 152.013 264.653 151.84C265.036 151.667 265.611 151.667 265.994 152.013C268.675 155.653 271.547 160.333 270.015 161.893C269.249 162.76 268.1 163.107 266.951 162.933Z" fill="#1F292E"/>
<path d="M272.179 152.53C272.707 152.511 273.105 151.798 273.068 150.937C273.031 150.076 272.572 149.393 272.044 149.412C271.515 149.431 271.117 150.144 271.155 151.005C271.192 151.866 271.651 152.549 272.179 152.53Z" fill="#1F292E"/>
<path d="M259.931 150.392C259.959 149.531 259.553 148.821 259.025 148.807C258.496 148.793 258.045 149.48 258.016 150.341C257.988 151.202 258.394 151.912 258.922 151.926C259.451 151.94 259.902 151.253 259.931 150.392Z" fill="#1F292E"/>
<path d="M250.482 151.32C249.907 149.413 248.758 147.507 247.418 146.12C245.886 144.56 243.396 144.04 241.29 144.733C239.183 145.947 238.034 148.2 238.417 150.453C238.609 153.053 238.992 155.48 239.949 157.907C240.332 159.293 241.098 160.68 242.247 161.893C243.396 162.933 245.311 163.28 246.843 162.413" fill="white"/>
<path d="M244.928 163.8C243.588 163.8 242.439 163.28 241.481 162.587C240.141 161.373 239.375 159.987 238.8 158.427C237.843 156 237.268 153.4 237.268 150.627C237.268 149.067 237.651 145.427 240.715 144.04C243.205 143.173 246.077 143.693 247.992 145.6C249.524 147.16 250.673 149.067 251.439 151.147C251.631 151.667 251.439 152.187 250.865 152.36C250.29 152.533 249.716 152.36 249.524 152.013C248.95 150.107 247.801 148.547 246.46 147.16C245.311 145.947 243.205 145.427 241.481 145.947C239.375 146.987 239.183 149.933 239.183 150.8C239.375 153.227 239.758 155.653 240.715 157.907C241.098 159.293 241.864 160.333 242.822 161.373C243.588 162.24 244.928 162.413 246.077 161.893C246.46 161.547 247.226 161.72 247.418 162.067C247.801 162.413 247.61 163.107 247.227 163.28C246.461 163.627 245.694 163.8 244.928 163.8Z" fill="#1F292E"/>
<path d="M242.248 181.307C242.248 181.307 243.588 217.533 243.588 239.373C243.588 264.507 239.375 351.693 239.375 351.693L188.245 346.667C188.245 346.667 198.011 302.813 200.884 273.693C202.607 255.32 210.459 215.107 209.693 202.107C208.927 189.107 242.248 181.307 242.248 181.307Z" fill="#484948"/>
<path d="M298.74 242.32L270.781 299H324.976L352.169 243.707L298.74 242.32Z" fill="white"/>
<path d="M324.975 300.04H270.781C270.206 300.04 269.823 299.693 269.823 299.173C269.823 299 269.823 298.827 270.015 298.827L297.974 242.147C298.166 241.8 298.549 241.627 298.932 241.627L352.36 242.84C352.743 242.84 352.934 243.013 353.126 243.187C353.317 243.36 353.317 243.707 353.126 244.053L325.933 299.347C325.741 299.693 325.358 299.867 324.975 300.04ZM272.313 298.133H324.401L350.828 244.573L299.506 243.36L272.313 298.133Z" fill="#1F292E"/>
<path d="M250.099 290.853C261.397 291.2 273.462 288.773 284.186 292.413L291.654 295.013C291.463 293.453 290.505 292.067 288.973 291.373C287.441 290.68 286.101 289.987 284.76 288.947L291.08 291.72C292.229 292.24 294.144 292.587 294.718 291.547C292.229 289.293 289.548 287.387 286.675 285.827C288.973 286.867 291.271 287.733 293.569 288.427C295.101 288.947 297.016 289.293 297.974 288.08C295.484 286.347 292.612 284.96 289.548 283.92L295.484 285.48C296.25 285.653 297.016 285.827 297.591 285.653C298.165 285.48 298.931 284.96 298.931 284.267C298.74 283.747 298.357 283.227 297.782 283.053C293.761 280.28 289.165 278.373 284.186 277.507C284.569 276.293 287.058 270.4 286.292 269.36C285.526 268.32 282.079 273.867 276.909 274.387C271.738 274.907 254.12 275.6 254.12 275.6" fill="white"/>
<path d="M291.655 295.88C291.463 295.88 291.463 295.88 291.272 295.88L283.995 293.28C276.718 290.853 268.674 291.2 261.206 291.547C257.568 291.72 253.929 291.893 250.291 291.72C249.716 291.72 249.333 291.373 249.333 290.853C249.333 290.333 249.716 289.987 250.291 289.987C253.929 290.16 257.568 289.987 261.015 289.813C268.866 289.467 277.101 289.12 284.761 291.72L290.314 293.627C289.931 293.107 289.357 292.587 288.591 292.24C288.208 291.893 287.633 291.72 287.058 291.547C285.909 291.027 284.952 290.507 284.186 289.813C283.803 289.467 283.803 288.947 283.995 288.6C284.186 288.253 284.761 288.08 285.335 288.253L291.655 291.027C292.038 291.2 292.612 291.373 293.187 291.373C291.08 289.64 288.782 288.08 286.293 286.693C285.91 286.52 285.718 286 285.91 285.48C286.101 285.133 286.676 284.787 287.25 285.133C289.548 286.173 291.846 287.04 294.144 287.733C294.91 287.907 295.676 288.08 296.251 288.08C294.144 286.693 291.846 285.653 289.357 284.96C288.782 284.787 288.399 284.44 288.591 283.92C288.782 283.4 289.165 283.053 289.74 283.227C289.931 283.227 289.931 283.227 289.931 283.227L295.868 284.787C296.442 284.96 297.016 284.96 297.591 284.96C297.974 284.96 298.166 284.613 298.166 284.613C298.166 284.613 297.974 284.267 297.591 283.92C293.761 281.147 289.165 279.413 284.569 278.547C284.378 278.547 283.995 278.373 283.803 278.2C283.612 278.027 283.612 277.68 283.803 277.507C284.761 275.427 285.527 273.173 285.91 270.747L285.143 271.44C283.228 273.52 280.547 274.907 277.483 275.6C272.313 276.12 255.461 276.813 254.695 276.987C254.121 276.987 253.738 276.64 253.738 276.293C253.738 276.293 253.738 276.293 253.738 276.12C253.738 275.6 254.121 275.253 254.695 275.08C254.887 275.08 272.122 274.387 277.292 273.867C279.782 273.347 282.08 272.133 283.803 270.227C284.952 269.187 285.718 268.493 286.676 268.667C287.059 268.667 287.442 268.84 287.633 269.187C288.016 269.533 288.782 270.573 286.101 277.16C290.697 278.2 295.102 280.107 298.932 282.707C299.698 283.227 300.272 283.92 300.272 284.613C300.272 285.827 299.315 286.693 298.166 286.867L299.123 287.56C299.315 287.733 299.506 287.907 299.506 288.253C299.506 288.427 299.506 288.773 299.315 288.947C298.166 289.987 296.634 290.333 294.144 289.64C294.719 290.16 295.293 290.68 295.868 291.027C296.251 291.373 296.251 291.72 296.059 292.067C295.293 293.107 293.953 293.453 292.612 293.107C292.995 293.8 293.187 294.493 292.995 295.013C292.995 295.36 292.804 295.533 292.612 295.707C292.038 296.053 291.846 295.88 291.655 295.88Z" fill="#1F292E"/>
<path d="M210.65 195.173C210.65 195.173 157.221 288.6 172.924 293.28C179.244 295.187 261.206 298.827 261.206 298.827L262.929 273.52L227.693 269.187C227.31 269.36 210.65 195.173 210.65 195.173Z" fill="#484948"/>
<path d="M213.905 269.187C213.331 269.187 212.948 268.667 212.948 268.147L218.885 206.96C218.885 206.44 219.459 206.093 220.034 206.093C220.608 206.093 220.991 206.613 220.991 206.96L215.055 268.147C215.055 268.84 214.48 269.187 213.905 269.187Z" fill="#1F292E"/>
<path d="M251.248 301.6L197.819 297.96C197.245 297.96 196.862 297.44 196.862 296.92C196.862 296.4 197.436 296.053 197.819 296.053L251.248 299.52C251.822 299.52 252.206 300.04 252.014 300.56C252.206 301.253 251.822 301.427 251.248 301.6Z" fill="#1F292E"/>
<path d="M318.656 294.32C317.89 294.32 316.932 294.147 316.166 293.8C315.783 293.627 315.4 293.107 315.209 292.587C315.209 291.893 315.4 291.2 315.975 290.853C316.932 290.16 317.89 289.64 319.039 289.293H318.847C317.124 289.293 315.4 288.6 314.443 287.387C314.251 287.04 314.251 286.52 314.826 286.173C316.166 285.307 317.89 284.787 319.613 284.613C318.847 284.44 318.081 284.093 317.315 283.92C316.549 283.573 316.166 283.053 315.975 282.36C315.783 282.013 315.975 281.493 316.358 281.147C316.741 280.8 317.124 280.8 317.507 280.8L322.677 280.453H322.486C320.379 279.413 319.613 278.2 319.613 277.333C319.613 276.987 319.805 276.467 319.996 276.12C320.571 275.6 321.337 275.427 321.911 275.6L323.443 275.773C325.933 276.12 329.954 276.64 331.486 276.813C332.635 277.16 333.784 276.987 334.933 276.64C335.316 276.293 335.699 275.773 336.082 275.253C336.274 275.08 336.465 274.907 336.848 274.733C337.04 274.733 337.423 274.733 337.614 274.907C339.338 276.12 340.295 277.68 340.487 279.587C340.487 280.627 340.295 281.493 339.912 282.36C339.721 282.88 339.529 283.4 339.338 283.92L338.955 284.96C338.38 286.867 337.231 288.773 335.699 290.333C333.784 291.893 331.295 292.76 328.805 292.933C326.316 293.28 323.635 293.8 321.145 294.147C320.188 294.32 319.422 294.493 318.656 294.32ZM317.315 292.24C318.273 292.587 319.422 292.587 320.379 292.24C323.06 291.893 325.55 291.373 328.039 291.027C330.146 290.853 332.252 289.987 333.784 288.773C335.125 287.387 336.082 285.827 336.657 284.093C336.848 283.747 336.848 283.4 337.04 283.053L337.614 281.667C337.806 280.973 337.997 280.107 338.189 279.413C337.997 278.373 337.614 277.507 336.848 276.813C336.657 277.16 336.274 277.507 335.891 277.68C334.359 278.547 332.635 278.72 330.912 278.2C329.571 278.027 325.55 277.507 323.06 277.16L321.528 276.987C321.911 277.68 322.486 278.2 323.252 278.373C325.167 279.24 327.273 279.76 329.571 279.76C330.146 279.76 330.529 280.28 330.337 280.8C330.337 281.147 329.954 281.493 329.571 281.493L318.656 282.013C321.337 282.88 324.209 283.053 327.082 282.707C327.656 282.533 328.231 282.88 328.231 283.227C328.422 283.747 328.039 284.267 327.656 284.267C325.933 284.96 324.018 285.307 321.911 285.48C320.188 285.653 318.464 286 316.741 286.52C317.507 286.867 318.273 286.867 318.847 287.04C321.528 287.213 324.209 287.04 326.699 286.347C327.273 286.173 327.848 286.52 327.848 287.04C328.039 287.387 327.848 287.733 327.465 288.08C325.933 288.947 324.209 289.467 322.486 289.813C320.762 290.333 318.847 291.027 317.315 292.24Z" fill="#1F292E"/>
<path d="M262.738 274.56L208.161 269.013C207.586 269.013 207.203 268.493 207.203 267.973C207.203 267.453 207.778 267.107 208.352 267.107L262.93 272.653C263.504 272.653 263.887 273.173 263.696 273.693C263.696 274.04 263.313 274.387 262.93 274.387H262.738V274.56Z" fill="#1F292E"/>
<path d="M266.951 168.653C266.568 168.653 266.185 168.653 265.993 168.653C260.44 168.133 256.418 162.933 256.227 162.587C256.035 162.24 256.035 161.72 256.418 161.373C256.801 161.027 257.376 161.2 257.759 161.547C257.759 161.547 261.397 166.4 265.993 166.747C268.483 166.92 270.972 166.053 272.696 164.32C273.079 163.973 273.653 163.973 274.036 164.32C274.419 164.667 274.419 165.187 274.036 165.533C274.036 165.533 274.036 165.533 273.845 165.707C272.313 167.613 269.632 168.653 266.951 168.653Z" fill="#1F292E"/>
<g clip-path="url(#clip0_1_194)">
<path d="M400.786 245.011L445.697 200.107C452.377 193.43 463.432 193.43 470.111 200.107L515.022 245.011C521.701 251.689 521.701 262.742 515.022 269.42L470.111 314.323C463.432 321.001 452.377 321.001 445.697 314.323L400.786 269.42C394.107 262.512 394.107 251.689 400.786 245.011Z" fill="#494849"/>
<path d="M459.056 280.012C452.607 280.012 446.388 278.17 440.861 274.716C439.249 273.565 438.327 271.953 438.327 270.111V256.064L425.43 249.156L459.056 230.964L492.451 248.925L479.553 255.834V269.88C479.553 271.723 478.632 273.565 477.02 274.486C471.723 278.17 465.274 280.012 459.056 280.012ZM442.243 258.367V270.111C442.243 270.571 442.473 271.262 442.934 271.492C452.607 277.71 465.274 277.71 474.947 271.492C475.408 271.262 475.638 270.571 475.638 270.111V258.597L458.825 267.578L442.243 258.367ZM433.721 248.925L459.056 262.742L484.39 248.925L459.056 235.109L433.721 248.925Z" fill="white"/>
</g>
<defs>
<clipPath id="clip0_1_194">
<rect width="124.369" height="124.348" fill="white" transform="translate(395.72 195)"/>
</clipPath>
</defs>
</svg>
