<?xml version="1.0" encoding="UTF-8"?>
<svg id="Calque_2" data-name="Calque 2" xmlns="http://www.w3.org/2000/svg" viewBox="0 0 18.58 16.85">
  <g id="Calque_1-2" data-name="Calque 1">
    <path d="M4.84,.16l-.36,1.27c-.28,.09-.55,.2-.8,.33l-1.15-.64c-.08-.04-.19-.03-.26,.04l-1.11,1.11c-.06,.07-.08,.18-.03,.26l.63,1.15c-.14,.26-.25,.53-.34,.81l-1.26,.36C.07,4.86,0,4.95,0,5.04v1.57c0,.09,.07,.18,.16,.21l1.26,.36c.09,.28,.21,.55,.34,.81l-.64,1.15c-.05,.08-.03,.2,.03,.26l1.11,1.11c.07,.06,.18,.08,.26,.03l1.15-.64c.25,.14,.52,.25,.8,.34l.36,1.26c.02,.09,.11,.16,.21,.16h1.57c.09,0,.19-.07,.21-.16l.36-1.26c.28-.09,.55-.2,.8-.34l1.15,.64c.08,.05,.19,.03,.26-.03l1.11-1.11c.07-.07,.08-.18,.03-.26l-.64-1.15c.14-.26,.26-.53,.34-.81l1.26-.36c.09-.03,.16-.12,.16-.21v-1.57c0-.09-.07-.18-.16-.21l-1.26-.36c-.09-.28-.2-.55-.34-.81l.63-1.15c.05-.08,.03-.19-.03-.26l-1.11-1.11c-.06-.07-.17-.08-.26-.04l-1.15,.64c-.25-.14-.52-.24-.8-.33l-.36-1.27C6.8,.07,6.71,0,6.62,0h-1.57C4.94,0,4.86,.08,4.84,.16Zm.36,.28h1.26l.34,1.2c.02,.07,.08,.13,.15,.15,.34,.09,.66,.23,.96,.4,.06,.04,.15,.04,.21,0l1.1-.61,.88,.88-.61,1.1c-.04,.06-.04,.15,0,.21,.17,.3,.31,.62,.4,.95,.02,.07,.08,.13,.15,.15l1.21,.34v1.25l-1.21,.34c-.07,.02-.13,.08-.15,.15-.09,.34-.23,.65-.4,.95-.04,.07-.04,.15,0,.22l.61,1.1-.87,.87-1.1-.61c-.06-.04-.15-.04-.21,0-.3,.17-.62,.31-.96,.4-.07,.02-.13,.08-.15,.15l-.34,1.21h-1.24l-.34-1.21c-.02-.07-.08-.13-.15-.15-.34-.09-.66-.23-.96-.4-.06-.04-.15-.04-.21,0l-1.1,.61-.87-.87,.61-1.1c.04-.07,.04-.15,0-.22-.17-.3-.31-.62-.4-.95-.02-.07-.08-.13-.15-.15l-1.21-.34v-1.25l1.21-.34c.07-.02,.13-.08,.15-.15,.09-.34,.23-.65,.4-.95,.04-.06,.04-.15,0-.21l-.61-1.1,.88-.88,1.1,.61c.06,.04,.15,.04,.21,0,.3-.17,.62-.31,.96-.4,.07-.02,.13-.08,.15-.15l.34-1.2Zm.63,2.81c-1.43,0-2.59,1.16-2.59,2.59s1.16,2.59,2.59,2.59,2.59-1.16,2.59-2.59-1.16-2.59-2.59-2.59Zm0,.43c1.2,0,2.16,.96,2.16,2.16s-.96,2.16-2.16,2.16-2.16-.96-2.16-2.16,.96-2.16,2.16-2.16Zm8.06,4.97c-.08,.02-.14,.08-.16,.16l-.24,.84c-.18,.06-.34,.13-.5,.22l-.77-.43c-.08-.04-.19-.03-.26,.04l-.77,.76c-.07,.07-.08,.18-.03,.26l.43,.76c-.08,.16-.15,.33-.2,.5l-.85,.24c-.09,.03-.16,.12-.16,.21v1.09c0,.09,.07,.18,.16,.21l.84,.24c.06,.17,.13,.34,.21,.5l-.43,.77c-.05,.08-.03,.19,.03,.26l.77,.76c.06,.07,.17,.08,.26,.04l.77-.43c.16,.08,.32,.16,.5,.22l.24,.84c.02,.09,.11,.16,.2,.16h1.09c.09,0,.18-.07,.2-.16l.24-.84c.18-.06,.34-.13,.5-.22l.77,.43c.08,.04,.19,.03,.26-.04l.77-.76c.06-.07,.08-.18,.03-.26l-.43-.77c.08-.16,.15-.33,.21-.5l.84-.24c.09-.03,.16-.12,.16-.21v-1.09c0-.09-.07-.18-.16-.21l-.85-.24c-.06-.17-.12-.34-.2-.5l.43-.76c.05-.08,.03-.2-.03-.26l-.77-.76c-.06-.07-.17-.08-.26-.04l-.77,.43c-.16-.08-.32-.16-.5-.22l-.24-.84c-.03-.09-.11-.15-.2-.16h-1.09s-.03,0-.04,0Zm.2,.43h.77l.22,.78c.02,.07,.08,.13,.15,.15,.23,.06,.44,.16,.64,.27,.07,.04,.15,.04,.22,0l.72-.4,.53,.53-.4,.72c-.03,.06-.03,.15,0,.21,.11,.2,.2,.42,.26,.65,.02,.07,.08,.13,.16,.15l.78,.22v.76l-.78,.22c-.07,.02-.14,.08-.16,.16-.06,.23-.15,.44-.26,.64-.04,.06-.04,.14,0,.21l.41,.72-.54,.53-.72-.4c-.07-.04-.15-.04-.22,0-.2,.11-.41,.21-.64,.27-.07,.02-.13,.08-.15,.15l-.22,.79h-.77l-.22-.79c-.02-.07-.08-.13-.15-.15-.23-.06-.44-.16-.64-.27-.07-.04-.15-.04-.22,0l-.72,.4-.54-.53,.41-.72c.03-.06,.03-.15,0-.21-.11-.2-.2-.41-.26-.64-.02-.07-.08-.14-.16-.16l-.78-.22v-.76l.78-.22c.07-.02,.13-.08,.16-.15,.06-.23,.15-.45,.26-.65,.04-.06,.04-.14,0-.21l-.4-.72,.53-.53,.72,.4c.07,.04,.15,.04,.22,0,.2-.11,.41-.21,.64-.27,.07-.02,.13-.08,.15-.15l.22-.78Zm.38,2.16c-.83,0-1.51,.68-1.51,1.51s.68,1.51,1.51,1.51,1.51-.68,1.51-1.51-.68-1.51-1.51-1.51Zm0,.43c.6,0,1.08,.48,1.08,1.08s-.48,1.08-1.08,1.08-1.08-.48-1.08-1.08,.48-1.08,1.08-1.08Z" style="fill: #1f4273;"/>
  </g>
</svg>