<?xml version="1.0" encoding="UTF-8"?>
<svg id="Calque_2" data-name="Calque 2" xmlns="http://www.w3.org/2000/svg" viewBox="0 0 11.54 13.24">
  <g id="Calque_1-2" data-name="Calque 1">
    <path d="M.67,13.24c-.37,0-.67-.3-.67-.67,0-2.48,2.02-4.5,4.5-4.5h2.55c2.48,0,4.5,2.02,4.5,4.5,0,.37-.3,.67-.67,.67H.67Zm3.82-4.25c-1.8,0-3.32,1.34-3.54,3.13l-.02,.2H10.61l-.02-.2c-.22-1.78-1.75-3.13-3.54-3.13h-2.55Zm1.27-2.55c-1.78,0-3.22-1.45-3.22-3.22S3.99,0,5.77,0s3.22,1.45,3.22,3.22-1.45,3.22-3.22,3.22ZM5.77,.92c-1.27,0-2.3,1.03-2.3,2.3s1.03,2.3,2.3,2.3,2.3-1.03,2.3-2.3S7.04,.92,5.77,.92Z" style="fill: #1f4273;"/>
  </g>
</svg>