<?xml version="1.0" encoding="UTF-8"?>
<svg id="Calque_2" data-name="Calque 2" xmlns="http://www.w3.org/2000/svg" viewBox="0 0 16.39 16.39">
  <g id="Calque_1-2" data-name="Calque 1">
    <g>
      <path d="M15.17,1.61s0,0,0,0c.11,.05,.23,.09,.36,.09,.47,0,.85-.38,.85-.85s-.38-.85-.85-.85-.85,.38-.85,.85c0,.13,.03,.25,.09,.36,0,0,0,0,0,0l-1.46,1.46s-.05,.06-.06,.1c-1.33-.97-2.98-1.57-4.78-1.63V.57h.85c.16,0,.28-.13,.28-.28s-.13-.28-.28-.28h-2.26c-.16,0-.28,.13-.28,.28s.13,.28,.28,.28h.85v.57C3.52,1.28,0,4.64,0,8.76s3.68,7.63,8.19,7.63,8.19-3.42,8.19-7.63c0-2.24-1.05-4.27-2.71-5.66,.01,0,.03-.02,.04-.03l1.46-1.46Zm.37-1.05c.16,0,.28,.13,.28,.28s-.13,.28-.28,.28-.28-.13-.28-.28,.13-.28,.28-.28Zm-7.35,1.13c3.58,0,6.5,2.91,6.5,6.5s-2.91,6.5-6.5,6.5S1.7,11.78,1.7,8.19,4.61,1.7,8.19,1.7Zm7.63,7.06c0,3.89-3.42,7.06-7.63,7.06S.57,12.65,.57,8.76c0-1.73,.68-3.33,1.8-4.56-.78,1.14-1.24,2.51-1.24,3.99,0,3.89,3.17,7.06,7.06,7.06s7.06-3.17,7.06-7.06c0-1.48-.46-2.85-1.24-3.99,1.12,1.23,1.8,2.82,1.8,4.56Z" style="fill: #1f4273;"/>
      <path d="M8.48,3.67c0-.16-.13-.28-.28-.28s-.28,.13-.28,.28v3.14c-.64,.13-1.13,.7-1.13,1.38s.49,1.25,1.13,1.38v.88c0,.16,.13,.28,.28,.28s.28-.13,.28-.28v-.88c.64-.13,1.13-.7,1.13-1.38s-.49-1.25-1.13-1.38V3.67Zm.57,4.52c0,.47-.38,.85-.85,.85s-.85-.38-.85-.85,.38-.85,.85-.85,.85,.38,.85,.85Z" style="fill: #1f4273;"/>
      <path d="M2.54,8.48c.16,0,.28-.13,.28-.28,0-2.96,2.41-5.37,5.37-5.37,.16,0,.28-.13,.28-.28s-.13-.28-.28-.28c-3.27,0-5.93,2.66-5.93,5.93,0,.16,.13,.28,.28,.28Z" style="fill: #1f4273;"/>
      <path d="M7.91,13.84c0,.16,.13,.28,.28,.28,3.27,0,5.93-2.66,5.93-5.93,0-.16-.13-.28-.28-.28s-.28,.13-.28,.28c0,2.96-2.41,5.37-5.37,5.37-.16,0-.28,.13-.28,.28Z" style="fill: #1f4273;"/>
      <path d="M7.91,13.84c0,.16,.13,.28,.28,.28,3.27,0,5.93-2.66,5.93-5.93,0-.16-.13-.28-.28-.28s-.28,.13-.28,.28c0,2.96-2.41,5.37-5.37,5.37-.16,0-.28,.13-.28,.28Z" style="fill: #1f4273;"/>
    </g>
  </g>
</svg>