<?xml version="1.0" encoding="UTF-8"?>
<svg id="Calque_2" data-name="Calque 2" xmlns="http://www.w3.org/2000/svg" viewBox="0 0 18.86 18.86">
  <g id="Calque_1-2" data-name="Calque 1">
    <g>
      <path d="M4.98,2.73c.29,0,.53-.24,.53-.53V.53c0-.29-.24-.53-.53-.53s-.53,.24-.53,.53v1.67c0,.29,.24,.53,.53,.53Z" style="fill: #1f4273;"/>
      <path d="M2.73,4.98c0-.29-.24-.53-.53-.53H.53c-.29,0-.53,.24-.53,.53s.24,.53,.53,.53h1.67c.29,0,.53-.24,.53-.53Z" style="fill: #1f4273;"/>
      <path d="M6.95,3.54c.13,0,.27-.05,.37-.15l1.18-1.18c.2-.21,.2-.54,0-.75-.21-.2-.54-.21-.75,0l-1.18,1.18c-.21,.21-.21,.54,0,.75,.1,.1,.24,.15,.37,.15Z" style="fill: #1f4273;"/>
      <path d="M2.21,1.46c-.1-.1-.23-.16-.37-.16h0c-.14,0-.27,.05-.37,.16-.21,.21-.21,.54,0,.75l1.18,1.18c.1,.1,.23,.16,.37,.16s.28-.06,.37-.16c.21-.21,.21-.54,0-.75l-1.18-1.18Z" style="fill: #1f4273;"/>
      <path d="M18.71,17.96l-6.11-6.11,4.82-1.93c.2-.08,.33-.28,.33-.49s-.13-.41-.34-.49L4.62,3.93c-.2-.08-.42-.03-.57,.12-.15,.15-.2,.37-.12,.57l5.01,12.8c.08,.2,.27,.33,.49,.34h0c.22,0,.41-.13,.49-.33l1.93-4.82,6.11,6.11c.1,.1,.24,.15,.37,.15s.27-.05,.37-.15c.21-.21,.21-.54,0-.75Zm-2.92-8.52l-4.33,1.73c-.13,.05-.24,.16-.29,.29l-1.73,4.32L5.36,5.36l10.43,4.08Z" style="fill: #1f4273;"/>
      <path d="M2.64,6.57l-1.18,1.18c-.21,.21-.21,.54,0,.75,.1,.1,.24,.15,.37,.15s.27-.05,.37-.15l1.18-1.18c.2-.21,.2-.54,0-.75s-.54-.2-.75,0Z" style="fill: #1f4273;"/>
    </g>
  </g>
</svg>