<?xml version="1.0" encoding="utf-8"?>
<!-- Generator: $$$/GeneralStr/196=Adobe Illustrator 27.6.0, SVG Export Plug-In . SVG Version: 6.00 Build 0)  -->
<svg version="1.1" id="Calque_1" xmlns="http://www.w3.org/2000/svg" xmlns:xlink="http://www.w3.org/1999/xlink" x="0px" y="0px"
	 viewBox="0 0 500 385.9" style="enable-background:new 0 0 500 385.9;" xml:space="preserve">
<style type="text/css">
	.st0{fill:#E8E6E7;}
	.st1{fill:#FFFFFF;}
	.st2{fill:#CCCACA;}
	.st3{fill:#423D56;}
	.st4{fill:#24A538;}
	.st5{fill:#CECCCC;}
	.st6{fill:#F6B6B8;}
	.st7{fill:#313043;}
	.st8{fill:#96C226;}
</style>
<path class="st0" d="M408.9-0.3H90.3C84.6-0.3,80,4.3,80,10v215c0,5.7,4.6,10.3,10.3,10.3h318.6c5.7,0,10.3-4.6,10.3-10.3V10
	C419.3,4.3,414.6-0.3,408.9-0.3"/>
<path class="st1" d="M407,228.2H198.2C137.3,228.1,88,178.7,87.8,117.8V12.7c0-3.2,2.6-5.9,5.9-5.9H407c3.2,0,5.9,2.6,5.9,5.9v209.7
	C412.8,225.6,410.2,228.2,407,228.2"/>
<path class="st2" d="M390.5,36H97.4c-0.6,0-1.2-0.5-1.1-1.2c0-0.6,0.5-1.1,1.1-1.1h293.2c0.6,0,1.2,0.5,1.1,1.2
	C391.7,35.5,391.2,36,390.5,36"/>
<path class="st3" d="M117.3,13.8c3.8,0,6.8,3.1,6.8,7s-3.1,7-6.8,7c-3.8,0-6.8-3.1-6.8-7S113.5,13.8,117.3,13.8"/>
<path class="st3" d="M140.9,13.8c3.8,0,6.8,3.1,6.8,7s-3.1,7-6.8,7c-3.8,0-6.8-3.1-6.8-7C134.1,16.9,137.1,13.8,140.9,13.8"/>
<path class="st3" d="M164.5,13.8c3.8,0,6.8,3.1,6.8,7s-3.1,7-6.8,7s-6.8-3.1-6.8-7S160.7,13.8,164.5,13.8"/>
<path class="st4" d="M297,140.8H178.3c-4.5,0.1-8.2-3.3-8.6-7.8c-0.3-4.6,3.2-8.6,7.8-8.9c0.2,0,0.4,0,0.6,0h119
	c4.6,0,8.3,3.7,8.3,8.4C305.4,137.1,301.6,140.8,297,140.8"/>
<path class="st0" d="M297.2,79c4.2,0,7.5,3.4,7.5,7.5s-3.4,7.5-7.5,7.5c-4.2,0-7.5-3.4-7.5-7.5S293.1,79,297.2,79"/>
<path class="st1" d="M296.2,90.5c-0.3,0-0.5-0.1-0.7-0.3l-2.1-2.7c-0.3-0.4-0.2-0.9,0.2-1.2c0.4-0.3,0.9-0.2,1.2,0.2l0,0l1.3,1.8
	l3.5-5.2c0.3-0.4,0.8-0.5,1.2-0.2s0.5,0.8,0.2,1.2l0,0l-4.1,6.2C296.7,90.3,296.5,90.5,296.2,90.5L296.2,90.5z"/>
<path class="st0" d="M297.2,170.8c4.2,0,7.5,3.4,7.5,7.5c0,4.2-3.4,7.5-7.5,7.5c-4.2,0-7.5-3.4-7.5-7.5S293.1,170.8,297.2,170.8"/>
<path class="st1" d="M296.2,182.3c-0.3,0-0.5-0.1-0.7-0.3l-2.1-2.7c-0.3-0.4-0.2-0.9,0.2-1.2c0.4-0.3,0.9-0.2,1.2,0.2l0,0l1.3,1.8
	l3.5-5.2c0.3-0.4,0.8-0.5,1.2-0.2c0.4,0.3,0.5,0.8,0.2,1.2l0,0l-4.1,6.2C296.7,182.2,296.5,182.3,296.2,182.3L296.2,182.3z"/>
<path class="st4" d="M236.5,94.9h-58.2c-4.5,0.1-8.2-3.3-8.6-7.8c-0.3-4.6,3.2-8.6,7.8-8.9c0.2,0,0.4,0,0.6,0h58.4
	c4.6,0,8.3,3.7,8.3,8.4C244.8,91.2,241.1,94.9,236.5,94.9"/>
<path class="st3" d="M297,95.3H178c-4.8,0-8.7-3.9-8.7-8.7c0-4.8,3.9-8.7,8.7-8.7h119c4.8,0,8.7,3.9,8.7,8.7S301.8,95.3,297,95.3
	 M178,79.3c-4,0-7.3,3.3-7.3,7.3s3.3,7.3,7.3,7.3h119c4,0,7.3-3.3,7.3-7.3s-3.3-7.3-7.3-7.3H178z"/>
<path class="st3" d="M297,141.2H178c-4.8,0-8.7-3.9-8.7-8.7s3.9-8.7,8.7-8.7h119c4.8,0,8.7,3.9,8.7,8.7
	C305.7,137.3,301.8,141.2,297,141.2 M178,125.2c-4,0-7.3,3.3-7.3,7.3s3.3,7.3,7.3,7.3h119c4,0,7.3-3.3,7.3-7.3s-3.3-7.3-7.3-7.3H178
	z"/>
<path class="st4" d="M211.4,186.8h-33.2c-4.5,0.1-8.2-3.3-8.6-7.8c-0.3-4.6,3.2-8.6,7.8-8.9c0.2,0,0.4,0,0.6,0h33.4
	c4.6,0,8.3,3.7,8.3,8.4S216,186.8,211.4,186.8"/>
<path class="st3" d="M297,187.1H178c-4.8,0-8.7-3.9-8.7-8.7s3.9-8.7,8.7-8.7h119c4.8,0,8.7,3.9,8.7,8.7
	C305.7,183.2,301.8,187.1,297,187.1 M178,171.1c-4,0-7.3,3.3-7.3,7.3s3.3,7.3,7.3,7.3h119c4,0,7.3-3.3,7.3-7.3s-3.3-7.3-7.3-7.3H178
	z"/>
<path class="st5" d="M200.3,69.3h-27.8c-1.5,0-2.8-1.2-2.8-2.8c0-1.5,1.2-2.8,2.8-2.8h27.8c1.5,0,2.8,1.2,2.8,2.8
	C203.1,68,201.8,69.3,200.3,69.3"/>
<path class="st5" d="M200.3,115.2h-27.8c-1.5,0-2.8-1.2-2.8-2.8c0-1.5,1.2-2.8,2.8-2.8h27.8c1.5,0,2.8,1.2,2.8,2.8
	C203.1,113.9,201.8,115.2,200.3,115.2"/>
<path class="st5" d="M200.3,161.1h-27.8c-1.5,0-2.8-1.2-2.8-2.8c0-1.5,1.2-2.8,2.8-2.8h27.8c1.5,0,2.8,1.2,2.8,2.8
	C203.1,159.8,201.8,161.1,200.3,161.1"/>
<path class="st3" d="M158.6,63.7c1.7,0,3,1.4,3,3.1c0,1.7-1.4,3.1-3,3.1c-1.7,0-3-1.4-3-3.1C155.5,65.1,156.9,63.7,158.6,63.7"/>
<path class="st3" d="M158.6,109.6c1.7,0,3,1.4,3,3.1s-1.4,3.1-3,3.1c-1.7,0-3-1.4-3-3.1C155.5,111,156.9,109.6,158.6,109.6"/>
<path class="st3" d="M158.6,155.5c1.7,0,3,1.4,3,3.1c0,1.7-1.4,3.1-3,3.1c-1.7,0-3-1.4-3-3.1C155.5,156.9,156.9,155.5,158.6,155.5"
	/>
<polygon class="st6" points="357.8,378.3 351,378.3 347.7,351.7 357.8,351.7 "/>
<path class="st7" d="M358.1,385.5h-21.2v-0.3c0-4.6,3.7-8.2,8.2-8.2l0,0l3.9-2.9l7.2,2.9h1.8v8.5H358.1z"/>
<polygon class="st6" points="385,378.3 378.1,378.3 374.8,351.7 385,351.7 "/>
<path class="st7" d="M385.2,385.5H364v-0.3c0-4.6,3.7-8.2,8.2-8.2l0,0l3.9-2.9l7.2,2.9h1.8v8.5H385.2z"/>
<path class="st7" d="M334.1,211.9l-4.9,16.7l5.7,70.7c0,0-3,4.4-0.9,4.4s4.8,1,3.1,3.6c-1.7,2.6,4.1,12.1,4.1,12.1l8.2,50.4
	l10.4-0.2c0,0,5.3-2.9,2.3-5.9s-5.1-3-2.3-5.8c2.8-2.8,2.8-1.9,2.8-4.1s2.8-28.5-3.8-38.7l2-41.3l4.7,40.5l9.7,54l10-0.1
	c0,0,4.6-4.5,4.6-7.8s-2.9-3.6-0.7-5.5c2.1-2,2.1-31.9-4.1-48.6v-74.5c0,0,6.2-16.7-0.1-23.3S334.1,211.9,334.1,211.9"/>
<path class="st6" d="M396.8,182.8l4.2-43.4c0.4-3.8-2.4-7.2-6.2-7.7c-3.9-0.4-7.3,2.4-7.8,6.2c0,0.1,0,0.2,0,0.4l-3,45.3l-3,27.4
	c-3.3,1-5.1,4.4-4.1,7.7s4.4,5.1,7.7,4.1c3.3-1,5.1-4.4,4.1-7.7c-0.1-0.3-0.2-0.7-0.4-1L396.8,182.8z"/>
<path class="st3" d="M381.1,117.3l15.1,1.9c0,0,11.3,21.3,9,23.2c-2.3,1.8-12.9,13.1-20.6,7.9C376.8,145.1,381.1,117.3,381.1,117.3"
	/>
<path class="st6" d="M355.1,64.7c8.9,0,16,7.2,16,16c0,8.9-7.2,16-16,16c-8.9,0-16-7.2-16-16S346.2,64.7,355.1,64.7"/>
<path class="st7" d="M361.3,95.5c-4.6-0.2-5-1.4-9.6-1.5c-1.5,0-3.2-0.2-3.9-1.5c-0.4-1-0.4-2.1,0.2-3c0.5-0.9,1-1.8,1.4-2.8
	c0.9-2.6-0.5-5.3-3.1-6.2c-0.6-0.2-1.2-0.3-1.8-0.3c-1.4,0.1-2.7,0.7-4.1,0.8c-1.9,0.2-6.2-6.2-5.3-7.9c0.9-1.7,2.6-2.9,2.9-4.8
	c0.2-1.2-0.3-2.4-0.4-3.6c-0.1-1.8,4.5,2.3,3.7,0.7c-2.1-3.9,17.4-8.8,20.6-3.9c1.2,1.8,3.3,1.7,5.2,2.8c1.2,0.7,4.4,3.2,5.1,4.8
	c0.7,1.6,1,3.3,0.9,5c0,8-1.2,15.4-7.7,20.1"/>
<path class="st3" d="M350.8,101.3l13.2-2.8l10.2,4.9c0,0,24,9.7,23.9,19.2s-4.3,30.4-9.1,32.5c-4.8,2.1,4.2,9,1.4,13.2
	c-2.8,4.2-7,32.7-7,32.7s9.9,19.6,1.5,23.5c-8.3,3.8-43.6,7.4-45.8,2.4c-2.3-5-2.3-2.3-7.5-3.6c-5.2-1.4,0-20.5,4.7-22.4
	s7.5-43.7,7.5-43.7l-7.5-32.5l11.4-16.1L350.8,101.3z"/>
<path class="st6" d="M341.6,190.5l11.9-42c1-3.7-1.1-7.6-4.8-8.7c-3.7-1.1-7.7,1-8.8,4.7c0,0.1-0.1,0.2-0.1,0.4l-11.1,44l-7.9,26.4
	c-3.4,0.4-5.8,3.4-5.4,6.8c0.4,3.4,3.4,5.8,6.8,5.4c3.4-0.4,5.8-3.4,5.4-6.8c0-0.4-0.1-0.7-0.2-1.1L341.6,190.5z"/>
<path class="st3" d="M337.9,123.2l14.5,4.6c0,0,9.4,13.9,5.9,15.9s-4.9,1.6-3,5.1c1.8,3.5,4.4,2.1,1.8,3.5s-15,10.6-21.7,4.1
	C328.7,149.8,337.9,123.2,337.9,123.2"/>
<path class="st5" d="M0.3,385.9c0,0.5,0.4,0.8,0.8,0.8h497.7c0.5,0,0.8-0.4,0.8-0.8c0-0.5-0.4-0.8-0.8-0.8H1.1
	C0.6,385.1,0.3,385.5,0.3,385.9L0.3,385.9z"/>
<path class="st8" d="M297.2,118.3c7.8,0,14.2,6.4,14.2,14.2s-6.4,14.2-14.2,14.2c-7.8,0-14.2-6.4-14.2-14.2
	C283,124.6,289.4,118.3,297.2,118.3"/>
<path class="st1" d="M295.3,139.9c-0.5,0-1-0.2-1.3-0.6l-3.9-5.2c-0.5-0.7-0.4-1.7,0.3-2.2c0.7-0.5,1.7-0.4,2.2,0.3l2.5,3.4l6.5-9.8
	c0.5-0.7,1.5-0.9,2.2-0.4s0.9,1.5,0.4,2.2l0,0l-7.7,11.6C296.3,139.6,295.9,139.8,295.3,139.9L295.3,139.9z"/>
</svg>
