<?xml version="1.0" encoding="utf-8"?>
<!-- Generator: $$$/GeneralStr/196=Adobe Illustrator 27.6.0, SVG Export Plug-In . SVG Version: 6.00 Build 0)  -->
<svg version="1.1" id="Calque_1" xmlns="http://www.w3.org/2000/svg" xmlns:xlink="http://www.w3.org/1999/xlink" x="0px" y="0px"
	 viewBox="0 0 200 200" style="enable-background:new 0 0 200 200;" xml:space="preserve">
<style type="text/css">
	.st0{fill:none;stroke:#24A538;stroke-width:6.47;stroke-miterlimit:10;}
</style>
<path class="st0" d="M120,132c2.4-8,7.4-14.8,12.3-21.5c1.3-1.8,2.6-3.6,3.9-5.3C141.1,98,144,89.4,144,80c0-24.3-19.7-44-44-44
	S56,55.7,56,80c0,9.3,2.9,18,7.8,25.1c1.2,1.8,2.5,3.6,3.8,5.3c4.9,6.8,9.9,13.6,12.3,21.5L120,132L120,132L120,132z M100,164
	c11,0,20-8.9,20-20v-4H80v4C80,155,89,164,100,164z M80,80c0,2.2-1.8,4-4,4s-4-1.8-4-4c0-15.5,12.5-28,28-28c2.2,0,4,1.8,4,4
	s-1.8,4-4,4C89,60,80,69,80,80L80,80z"/>
</svg>
