<?xml version="1.0" encoding="utf-8"?>
<!-- Generator: $$$/GeneralStr/196=Adobe Illustrator 27.6.0, SVG Export Plug-In . SVG Version: 6.00 Build 0)  -->
<svg version="1.1" id="Calque_1" xmlns="http://www.w3.org/2000/svg" xmlns:xlink="http://www.w3.org/1999/xlink" x="0px" y="0px"
	 viewBox="0 0 200 200" style="enable-background:new 0 0 200 200;" xml:space="preserve">
<style type="text/css">
	.st0{fill:none;stroke:#24A538;stroke-width:7.57;stroke-miterlimit:10;}
</style>
<path class="st0" d="M71.6,54.2c-24.8,0-44.8,20.1-44.8,44.8s20.1,44.8,44.8,44.8h59.8c24.8,0,44.9-20.1,44.9-44.8
	s-20.1-44.8-44.9-44.8C131.4,54.2,71.6,54.2,71.6,54.2z M142.6,78.4c5.2,0,9.3,4.2,9.3,9.3s-4.2,9.3-9.3,9.3s-9.3-4.2-9.3-9.3
	S137.4,78.4,142.6,78.4z M118.3,110.2c0-5.2,4.2-9.3,9.3-9.3s9.3,4.2,9.3,9.3s-4.2,9.3-9.3,9.3S118.3,115.4,118.3,110.2z M66,85.9
	c0-3.1,2.5-5.6,5.6-5.6s5.6,2.5,5.6,5.6v7.5h7.5c3.1,0,5.6,2.5,5.6,5.6s-2.5,5.6-5.6,5.6h-7.5v7.5c0,3.1-2.5,5.6-5.6,5.6
	s-5.6-2.5-5.6-5.6v-7.5h-7.5c-3.1,0-5.6-2.5-5.6-5.6s2.5-5.6,5.6-5.6H66V85.9z"/>
</svg>
