<?xml version="1.0" encoding="utf-8"?>
<!-- Generator: $$$/GeneralStr/196=Adobe Illustrator 27.6.0, SVG Export Plug-In . SVG Version: 6.00 Build 0)  -->
<svg version="1.1" id="Calque_1" xmlns="http://www.w3.org/2000/svg" xmlns:xlink="http://www.w3.org/1999/xlink" x="0px" y="0px"
	 viewBox="0 0 200 200" style="enable-background:new 0 0 200 200;" xml:space="preserve">
<style type="text/css">
	.st0{fill:#24A538;}
</style>
<g>
	<path class="st0" d="M160.9,173.6c-3.3,0-6.5-1.2-9-3.7l-32.1-32.1c-9.8,6.3-21.1,9.7-32.9,9.7c-33.4,0-60.5-27.2-60.5-60.5
		c0-33.4,27.2-60.5,60.5-60.5c33.4,0,60.5,27.2,60.5,60.5c0,11.8-3.3,23.1-9.7,32.9l32.1,32.1c5,4.9,5,13,0,18
		C167.4,172.3,164.1,173.6,160.9,173.6z M120.7,127.3l36.8,36.9c1.8,1.8,4.8,1.8,6.7,0c1.8-1.8,1.8-4.8,0-6.7l-36.8-36.9l2-2.8
		c6.6-9.1,10.1-19.8,10.1-31c0-29-23.6-52.5-52.5-52.5c-29,0-52.5,23.6-52.5,52.5c0,29,23.6,52.5,52.5,52.5c11.2,0,22-3.5,31-10.1
		L120.7,127.3z M108.7,117c-5.8,0-10.5-4.7-10.5-10.5V80.4c0-5.8,4.7-10.5,10.5-10.5s10.5,4.7,10.5,10.5v26.1
		C119.2,112.3,114.5,117,108.7,117z M108.7,77.9c-1.4,0-2.5,1.1-2.5,2.5v26.1c0,1.4,1.1,2.5,2.5,2.5s2.5-1.1,2.5-2.5V80.4
		C111.2,79,110.1,77.9,108.7,77.9z M87,117c-5.8,0-10.5-4.7-10.5-10.5V63c0-5.8,4.7-10.5,10.5-10.5S97.5,57.2,97.5,63v43.5
		C97.5,112.3,92.8,117,87,117z M87,60.5c-1.4,0-2.5,1.1-2.5,2.5v43.5c0,1.4,1.1,2.5,2.5,2.5s2.5-1.1,2.5-2.5V63
		C89.5,61.6,88.4,60.5,87,60.5z M65.2,117c-5.8,0-10.5-4.7-10.5-10.5V89.1c0-5.8,4.7-10.5,10.5-10.5s10.5,4.7,10.5,10.5v17.4
		C75.7,112.3,71,117,65.2,117z M65.2,86.6c-1.4,0-2.5,1.1-2.5,2.5v17.4c0,1.4,1.1,2.5,2.5,2.5s2.5-1.1,2.5-2.5V89.1
		C67.7,87.7,66.6,86.6,65.2,86.6z"/>
</g>
</svg>
