<?xml version="1.0" encoding="utf-8"?>
<!-- Generator: Adobe Illustrator 21.0.0, SVG Export Plug-In . SVG Version: 6.00 Build 0)  -->
<svg version="1.1" id="Calque_2" xmlns="http://www.w3.org/2000/svg" xmlns:xlink="http://www.w3.org/1999/xlink" x="0px" y="0px"
	 viewBox="0 0 750 249" style="enable-background:new 0 0 750 249;" xml:space="preserve">
<style type="text/css">
	.st0{fill:#FFFFFF;}
</style>
<g>
	<g>
		<path class="st0" d="M311.7,165.6h-43.5c-4.2,0-7.6,3.4-7.6,7.6v15.5c0,37.3,17.4,55,65.5,55c48,0,38.4,0,92.8,0
			c54.4,0,81.4-5.8,81.4-64.9c0-58.7-3.4-82.1-84.9-82.1c-15.6,0-47.8,0-71.3,0c-33.2,0-33.4-39.3-2.1-39.3c18.9,0,55.6,0,67.6,0
			c16.3,0,22.7,4.1,24.1,17.5c0.4,3.9,3.6,6.8,7.5,6.8h43.6c4.2,0,7.6-3.4,7.6-7.6V57.5c0-52.2-47.9-52.2-65.8-52.2
			c-17.9,0-78.2,0-91.7,0c-32.5,0-74.3-4.5-74.3,71.7c0,76.8,29.8,73.3,92.1,73.3c43.1,0,30.8,0,54.3,0c50.5,0,39.1,41.1,11.6,41.1
			c0,0-66.2,0-78.1,0c-10.7,0-19.6-1.3-21.4-18.9C318.8,168.6,315.6,165.6,311.7,165.6z"/>
	</g>
	<path class="st0" d="M621.7,175.3l-37-37c-3.9-3.9-3.9-10.1,0-14l37-37c3.9-3.9,10.1-3.9,14,0l37,37c3.9,3.9,3.9,10.1,0,14l-37,37
		C631.8,179.2,625.5,179.2,621.7,175.3z"/>
	<path class="st0" d="M568.9,243.6h-46c-3.8,0-6.8-3-6.8-6.8V12.3c0-3.8,3-6.8,6.8-6.8h46c3.8,0,6.8,3,6.8,6.8v224.5
		C575.7,240.5,572.7,243.6,568.9,243.6z"/>
	<path class="st0" d="M734.4,243.6h-46c-3.8,0-6.8-3-6.8-6.8V12.3c0-3.8,3-6.8,6.8-6.8h46c3.8,0,6.8,3,6.8,6.8v224.5
		C741.2,240.5,738.2,243.6,734.4,243.6z"/>
	<g>
		<path class="st0" d="M216.1,142.5v-130c0-3.9-3.2-7.1-7.1-7.1h-53.7c-5.2,0-10.3,1.7-14.5,4.8L18.7,100.1
			c-6.3,4.6-10,11.9-10,19.7v68.1c0,3.9,3.2,7.1,7.1,7.1h143.5v41.6c0,3.9,3.2,7.1,7.1,7.1H209c3.9,0,7.1-3.2,7.1-7.1v-41.6h21.7
			c3.9,0,7.1-3.2,7.1-7.1v-38.3c0-3.9-3.2-7.1-7.1-7.1H216.1z M158,142.5H58.8c-1.3,0-1.8-1.6-0.8-2.4l99.2-76
			c0.9-0.7,2.2,0,2.2,1.1v76C159.4,141.9,158.8,142.5,158,142.5z"/>
	</g>
</g>
</svg>
