<?xml version="1.0" encoding="utf-8"?>
<!-- Generator: Adobe Illustrator 21.0.0, SVG Export Plug-In . SVG Version: 6.00 Build 0)  -->
<svg version="1.1" id="Calque_2" xmlns="http://www.w3.org/2000/svg" xmlns:xlink="http://www.w3.org/1999/xlink" x="0px" y="0px"
	 viewBox="0 0 658 188" style="enable-background:new 0 0 658 188;" xml:space="preserve">
<style type="text/css">
	.st0{fill:url(#SVGID_1_);}
	.st1{fill:url(#SVGID_2_);}
	.st2{fill:url(#SVGID_3_);}
	.st3{fill:#10AAC7;}
	.st4{fill:#EA2631;}
	.st5{fill:#3E9D4B;}
	.st6{fill:#F1C433;}
</style>
<g>
	<linearGradient id="SVGID_1_" gradientUnits="userSpaceOnUse" x1="480.9909" y1="94.2494" x2="497.0864" y2="94.2494">
		<stop  offset="0" style="stop-color:#EA2631"/>
		<stop  offset="1" style="stop-color:#10AAC7"/>
	</linearGradient>
	<path class="st0" d="M475,80.1c7.8,7.8,20.4,7.8,28.2,0c-7.8,7.8-7.8,20.4,0,28.2c-7.8-7.8-20.4-7.8-28.2,0
		C482.8,100.6,482.8,87.9,475,80.1z"/>
	<linearGradient id="SVGID_2_" gradientUnits="userSpaceOnUse" x1="321.2409" y1="94.2494" x2="337.311" y2="94.2494">
		<stop  offset="0" style="stop-color:#F1C433"/>
		<stop  offset="1" style="stop-color:#EA2631"/>
	</linearGradient>
	<path class="st1" d="M343,80.1c-7.8,7.8-7.8,20.4,0,28.2c-7.8-7.8-20.4-7.8-28.2,0c7.8-7.8,7.8-20.4,0-28.2
		C322.6,87.9,335.3,87.9,343,80.1z"/>
	<linearGradient id="SVGID_3_" gradientUnits="userSpaceOnUse" x1="160.9909" y1="94.2494" x2="177.5382" y2="94.2494">
		<stop  offset="0" style="stop-color:#3E9D4B"/>
		<stop  offset="1" style="stop-color:#F1C433"/>
	</linearGradient>
	<path class="st2" d="M154.9,80.1c7.8,7.8,20.4,7.8,28.2,0c-7.8,7.8-7.8,20.4,0,28.2c-7.8-7.8-20.4-7.8-28.2,0
		C162.7,100.6,162.7,87.9,154.9,80.1z"/>
	<path class="st3" d="M555.4,159.8l-52.2-51.5c-7.8-7.7-7.9-20.4-0.2-28.2l51.5-52.2c7.7-7.8,20.4-7.9,28.2-0.2L635,79.2
		c7.8,7.7,7.9,20.4,0.2,28.2l-51.5,52.2C575.9,167.5,563.3,167.6,555.4,159.8z"/>
	<path class="st4" d="M394.9,160.2L343,108.4c-7.8-7.8-7.8-20.4,0-28.2l51.9-51.9c7.8-7.8,20.4-7.8,28.2,0L475,80.1
		c7.8,7.8,7.8,20.4,0,28.2l-51.9,51.9C415.3,168,402.7,168,394.9,160.2z"/>
	<path class="st5" d="M22.9,80.1l51.9-51.9c7.8-7.8,20.4-7.8,28.2,0l51.9,51.9c7.8,7.8,7.8,20.4,0,28.2L103,160.2
		c-7.8,7.8-20.4,7.8-28.2,0l-51.9-51.9C15.2,100.6,15.2,87.9,22.9,80.1z"/>
	<path class="st6" d="M234.9,160.2L183,108.4c-7.8-7.8-7.8-20.4,0-28.2l51.9-51.9c7.8-7.8,20.4-7.8,28.2,0L315,80.1
		c7.8,7.8,7.8,20.4,0,28.2l-51.9,51.9C255.3,168,242.7,168,234.9,160.2z"/>
</g>
</svg>
