<?xml version="1.0" encoding="utf-8"?>
<!-- Generator: Adobe Illustrator 21.0.0, SVG Export Plug-In . SVG Version: 6.00 Build 0)  -->
<svg version="1.1" id="Calque_1" xmlns="http://www.w3.org/2000/svg" xmlns:xlink="http://www.w3.org/1999/xlink" x="0px" y="0px"
	 viewBox="0 0 363 185.8" style="enable-background:new 0 0 363 185.8;" xml:space="preserve">
<style type="text/css">
	.fill-white{fill:#FFFFFF;}
	.st2-design{clip-path:url(#SVGID_12_DESIGN);}
	.fill-yellow{fill:#F1C433;}
	.opacity30{opacity:0.3;}
</style>
<path class="fill-yellow" d="M223.3,88.8L211,76.5c-0.2-0.2-0.3-0.3-0.5-0.4c-1.1-2-0.9-4.5,0.8-6.2c0,0,0,0,0,0l12-12
	c1.8-1.8,1.8-4.8,0-6.7L211,38.8c-1.8-1.8-4.8-1.8-6.7,0L192,51.2c-1.8,1.8-1.8,4.8,0,6.7l12,12c0,0,0,0,0,0c1.7,1.7,2,4.2,0.8,6.2
	c-0.2,0.1-0.4,0.3-0.5,0.4L192,88.8c-1,1-1.4,2.2-1.4,3.5c0,1.3,0.4,2.5,1.4,3.5l12.3,12.3c0.1,0.1,0.3,0.3,0.5,0.4
	c1.1,1.9,1,4.3-0.5,6L192,126.8c-1.8,1.8-1.8,4.8,0,6.7l12.3,12.3c1.8,1.8,4.8,1.8,6.7,0l12.3-12.3c1.8-1.8,1.8-4.8,0-6.7
	l-12.3-12.3c-1.5-1.7-1.7-4.1-0.5-6c0.2-0.1,0.3-0.2,0.5-0.4l12.3-12.3c1-1,1.4-2.2,1.4-3.5C224.8,91.1,224.3,89.8,223.3,88.8z"/>
<g>
	<path class="fill-yellow" d="M236,50.6c-0.1,0.1-0.1,0.1-0.2,0.2c-0.1,0-0.1,0.1-0.2,0.1c-0.1,0-0.2,0-0.3-0.1c-0.1-0.1-0.3-0.2-0.5-0.3
		c-0.2-0.1-0.4-0.2-0.7-0.3c-0.3-0.1-0.6-0.1-1-0.1c-0.4,0-0.7,0-1,0.1c-0.3,0.1-0.5,0.2-0.7,0.4c-0.2,0.2-0.3,0.4-0.4,0.6
		c-0.1,0.2-0.1,0.5-0.1,0.7c0,0.3,0.1,0.6,0.2,0.8c0.2,0.2,0.4,0.4,0.7,0.6c0.3,0.2,0.6,0.3,0.9,0.4s0.7,0.2,1.1,0.4
		c0.4,0.1,0.7,0.3,1.1,0.4s0.7,0.3,0.9,0.6c0.3,0.2,0.5,0.5,0.7,0.9s0.2,0.8,0.2,1.3c0,0.5-0.1,1-0.3,1.5c-0.2,0.5-0.4,0.9-0.8,1.2
		c-0.3,0.3-0.8,0.6-1.3,0.8c-0.5,0.2-1.1,0.3-1.7,0.3c-0.8,0-1.5-0.1-2.1-0.4c-0.6-0.3-1.2-0.7-1.6-1.2l0.5-0.8
		c0-0.1,0.1-0.1,0.2-0.2s0.1-0.1,0.2-0.1c0.1,0,0.2,0,0.2,0.1c0.1,0.1,0.2,0.1,0.3,0.2c0.1,0.1,0.3,0.2,0.4,0.3
		c0.2,0.1,0.3,0.2,0.5,0.3c0.2,0.1,0.4,0.2,0.7,0.2s0.5,0.1,0.8,0.1c0.4,0,0.7-0.1,1-0.2c0.3-0.1,0.6-0.3,0.8-0.5
		c0.2-0.2,0.4-0.4,0.5-0.7s0.2-0.6,0.2-0.9c0-0.4-0.1-0.7-0.2-0.9c-0.2-0.2-0.4-0.4-0.7-0.6s-0.6-0.3-0.9-0.4
		c-0.3-0.1-0.7-0.2-1.1-0.3s-0.7-0.2-1.1-0.4c-0.3-0.2-0.7-0.3-0.9-0.6c-0.3-0.2-0.5-0.5-0.7-0.9c-0.2-0.4-0.2-0.8-0.2-1.3
		c0-0.4,0.1-0.8,0.2-1.2c0.2-0.4,0.4-0.8,0.7-1.1c0.3-0.3,0.7-0.6,1.2-0.7c0.5-0.2,1-0.3,1.6-0.3c0.7,0,1.3,0.1,1.8,0.3
		c0.6,0.2,1,0.5,1.5,0.9L236,50.6z"/>
	<path class="fill-yellow" d="M239.9,53.6c0.4-0.4,0.8-0.8,1.2-1.1s1-0.4,1.6-0.4c0.5,0,0.9,0.1,1.3,0.3c0.4,0.2,0.7,0.5,1,0.8
		c0.3,0.4,0.5,0.8,0.6,1.4c0.2,0.5,0.2,1.2,0.2,1.9c0,0.6-0.1,1.2-0.3,1.8s-0.4,1-0.7,1.4c-0.3,0.4-0.7,0.7-1.2,0.9
		c-0.5,0.2-1,0.3-1.5,0.3c-0.5,0-1-0.1-1.3-0.3c-0.4-0.2-0.7-0.4-1-0.7v3.8h-1.5V52.3h0.9c0.2,0,0.3,0.1,0.4,0.3L239.9,53.6z
		 M240,58.8c0.3,0.4,0.6,0.6,0.9,0.8s0.7,0.2,1.1,0.2c0.8,0,1.4-0.3,1.8-0.9s0.6-1.4,0.6-2.4c0-0.6,0-1-0.1-1.4
		c-0.1-0.4-0.2-0.7-0.4-1c-0.2-0.3-0.4-0.4-0.7-0.6c-0.3-0.1-0.6-0.2-0.9-0.2c-0.5,0-0.9,0.1-1.3,0.3c-0.4,0.2-0.7,0.5-1,1V58.8z"/>
	<path class="fill-yellow" d="M254.8,59.6c-0.2,0.2-0.4,0.4-0.7,0.6c-0.3,0.2-0.5,0.3-0.8,0.4s-0.6,0.2-0.9,0.2c-0.3,0.1-0.6,0.1-0.9,0.1
		c-0.6,0-1.1-0.1-1.6-0.3c-0.5-0.2-0.9-0.5-1.3-0.9s-0.6-0.9-0.8-1.4s-0.3-1.2-0.3-2c0-0.6,0.1-1.2,0.3-1.7c0.2-0.5,0.4-1,0.8-1.3
		c0.3-0.4,0.8-0.7,1.3-0.9c0.5-0.2,1.1-0.3,1.7-0.3c0.5,0,1,0.1,1.4,0.3c0.4,0.2,0.8,0.4,1.1,0.7c0.3,0.3,0.6,0.7,0.7,1.2
		c0.2,0.5,0.3,1,0.3,1.6c0,0.2,0,0.4-0.1,0.5c-0.1,0.1-0.1,0.1-0.3,0.1h-5.7c0,0.5,0.1,1,0.2,1.4c0.1,0.4,0.3,0.7,0.6,1
		s0.5,0.5,0.8,0.6s0.7,0.2,1.1,0.2c0.4,0,0.7,0,1-0.1s0.5-0.2,0.7-0.3c0.2-0.1,0.4-0.2,0.5-0.3s0.2-0.1,0.3-0.1c0.1,0,0.2,0,0.3,0.1
		L254.8,59.6z M253.6,55.6c0-0.3,0-0.7-0.1-1c-0.1-0.3-0.2-0.5-0.4-0.8c-0.2-0.2-0.4-0.4-0.7-0.5c-0.3-0.1-0.6-0.2-0.9-0.2
		c-0.7,0-1.3,0.2-1.7,0.6c-0.4,0.4-0.7,1-0.8,1.7H253.6z M253.9,48.6l-2,2.2c-0.1,0.1-0.2,0.1-0.2,0.2c-0.1,0-0.2,0.1-0.3,0.1h-0.9
		l1.2-2c0.1-0.1,0.2-0.2,0.3-0.3s0.2-0.1,0.4-0.1H253.9z"/>
	<path class="fill-yellow" d="M262.7,53.8c0,0.1-0.1,0.1-0.1,0.1c0,0-0.1,0.1-0.2,0.1c-0.1,0-0.2,0-0.3-0.1c-0.1-0.1-0.2-0.1-0.4-0.2
		c-0.1-0.1-0.3-0.2-0.5-0.2c-0.2-0.1-0.5-0.1-0.8-0.1c-0.4,0-0.8,0.1-1.1,0.2c-0.3,0.1-0.6,0.4-0.8,0.6c-0.2,0.3-0.4,0.6-0.5,1
		c-0.1,0.4-0.2,0.8-0.2,1.3c0,0.5,0.1,1,0.2,1.4c0.1,0.4,0.3,0.7,0.5,1c0.2,0.3,0.5,0.5,0.8,0.6c0.3,0.1,0.7,0.2,1,0.2
		c0.4,0,0.7,0,0.9-0.1c0.2-0.1,0.4-0.2,0.6-0.3c0.2-0.1,0.3-0.2,0.4-0.3c0.1-0.1,0.2-0.1,0.3-0.1c0.1,0,0.2,0,0.3,0.1l0.4,0.5
		c-0.2,0.2-0.4,0.4-0.6,0.6c-0.2,0.2-0.5,0.3-0.8,0.4s-0.6,0.2-0.9,0.2s-0.6,0.1-0.9,0.1c-0.5,0-1-0.1-1.5-0.3
		c-0.5-0.2-0.9-0.5-1.2-0.9c-0.3-0.4-0.6-0.8-0.8-1.4c-0.2-0.5-0.3-1.2-0.3-1.9c0-0.6,0.1-1.2,0.3-1.8s0.4-1,0.8-1.4
		s0.8-0.7,1.3-0.9c0.5-0.2,1.1-0.3,1.7-0.3c0.6,0,1.1,0.1,1.6,0.3c0.5,0.2,0.9,0.5,1.2,0.8L262.7,53.8z"/>
	<path class="fill-yellow" d="M266.8,49.6c0,0.1,0,0.3-0.1,0.4c-0.1,0.1-0.1,0.2-0.2,0.3c-0.1,0.1-0.2,0.2-0.3,0.2c-0.1,0.1-0.3,0.1-0.4,0.1
		c-0.1,0-0.3,0-0.4-0.1c-0.1-0.1-0.2-0.1-0.3-0.2c-0.1-0.1-0.2-0.2-0.2-0.3c-0.1-0.1-0.1-0.3-0.1-0.4c0-0.1,0-0.3,0.1-0.4
		c0.1-0.1,0.1-0.2,0.2-0.3c0.1-0.1,0.2-0.2,0.3-0.2c0.1-0.1,0.3-0.1,0.4-0.1c0.1,0,0.3,0,0.4,0.1c0.1,0.1,0.2,0.1,0.3,0.2
		c0.1,0.1,0.2,0.2,0.2,0.3C266.7,49.3,266.8,49.5,266.8,49.6z M266.4,52.3v8.5h-1.5v-8.5H266.4z"/>
	<path class="fill-yellow" d="M269.5,60.8v-7.3l-0.9-0.1c-0.1,0-0.2-0.1-0.3-0.1c-0.1-0.1-0.1-0.1-0.1-0.3v-0.6h1.3V52c0-0.5,0.1-1,0.2-1.4
		s0.4-0.8,0.7-1.1c0.3-0.3,0.7-0.6,1.2-0.7c0.5-0.2,1-0.3,1.7-0.3c0.2,0,0.4,0,0.7,0c0.2,0,0.4,0.1,0.6,0.1l-0.1,0.8
		c0,0.1,0,0.1-0.1,0.1c0,0-0.1,0-0.1,0c-0.1,0-0.1,0-0.2,0s-0.2,0-0.3,0c-1,0-1.7,0.2-2.2,0.6s-0.7,1-0.7,1.9v0.4h5.2v8.4h-1.5v-7.3
		H271v7.3H269.5z"/>
	<path class="fill-yellow" d="M284.5,53.8c0,0.1-0.1,0.1-0.1,0.1c0,0-0.1,0.1-0.2,0.1c-0.1,0-0.2,0-0.3-0.1c-0.1-0.1-0.2-0.1-0.4-0.2
		c-0.1-0.1-0.3-0.2-0.5-0.2c-0.2-0.1-0.5-0.1-0.8-0.1c-0.4,0-0.8,0.1-1.1,0.2c-0.3,0.1-0.6,0.4-0.8,0.6c-0.2,0.3-0.4,0.6-0.5,1
		c-0.1,0.4-0.2,0.8-0.2,1.3c0,0.5,0.1,1,0.2,1.4c0.1,0.4,0.3,0.7,0.5,1c0.2,0.3,0.5,0.5,0.8,0.6c0.3,0.1,0.7,0.2,1,0.2
		c0.4,0,0.7,0,0.9-0.1c0.2-0.1,0.4-0.2,0.6-0.3c0.2-0.1,0.3-0.2,0.4-0.3c0.1-0.1,0.2-0.1,0.3-0.1c0.1,0,0.2,0,0.3,0.1l0.4,0.5
		c-0.2,0.2-0.4,0.4-0.6,0.6c-0.2,0.2-0.5,0.3-0.8,0.4s-0.6,0.2-0.9,0.2s-0.6,0.1-0.9,0.1c-0.5,0-1-0.1-1.5-0.3
		c-0.5-0.2-0.9-0.5-1.2-0.9c-0.3-0.4-0.6-0.8-0.8-1.4c-0.2-0.5-0.3-1.2-0.3-1.9c0-0.6,0.1-1.2,0.3-1.8s0.4-1,0.8-1.4
		s0.8-0.7,1.3-0.9c0.5-0.2,1.1-0.3,1.7-0.3c0.6,0,1.1,0.1,1.6,0.3c0.5,0.2,0.9,0.5,1.2,0.8L284.5,53.8z"/>
	<path class="fill-yellow" d="M286.4,53.5c0.5-0.5,1-0.8,1.5-1s1.1-0.3,1.8-0.3c0.5,0,0.9,0.1,1.3,0.2s0.7,0.4,0.9,0.7
		c0.3,0.3,0.4,0.6,0.6,1c0.1,0.4,0.2,0.8,0.2,1.3v5.5H292c-0.1,0-0.3,0-0.3-0.1c-0.1,0-0.1-0.1-0.2-0.3l-0.2-0.8
		c-0.2,0.2-0.4,0.4-0.7,0.6c-0.2,0.2-0.4,0.3-0.7,0.4c-0.2,0.1-0.5,0.2-0.8,0.3c-0.3,0.1-0.6,0.1-0.9,0.1c-0.3,0-0.6,0-0.9-0.1
		c-0.3-0.1-0.5-0.2-0.8-0.4c-0.2-0.2-0.4-0.4-0.5-0.7c-0.1-0.3-0.2-0.6-0.2-1c0-0.3,0.1-0.7,0.3-1s0.5-0.6,0.9-0.8s1-0.4,1.6-0.6
		c0.7-0.2,1.5-0.2,2.5-0.3v-0.7c0-0.7-0.1-1.2-0.4-1.5c-0.3-0.3-0.7-0.5-1.3-0.5c-0.4,0-0.7,0-0.9,0.1s-0.5,0.2-0.6,0.3
		c-0.2,0.1-0.3,0.2-0.5,0.3s-0.3,0.1-0.4,0.1c-0.1,0-0.2,0-0.3-0.1c-0.1-0.1-0.1-0.1-0.2-0.2L286.4,53.5z M291.2,57
		c-0.7,0-1.3,0.1-1.8,0.2c-0.5,0.1-0.9,0.2-1.2,0.3c-0.3,0.1-0.5,0.3-0.7,0.5c-0.1,0.2-0.2,0.4-0.2,0.6c0,0.2,0,0.4,0.1,0.6
		s0.2,0.3,0.3,0.4c0.1,0.1,0.3,0.2,0.4,0.2c0.2,0,0.4,0.1,0.6,0.1c0.3,0,0.5,0,0.7-0.1c0.2-0.1,0.4-0.1,0.6-0.2
		c0.2-0.1,0.4-0.2,0.6-0.4s0.3-0.3,0.5-0.5V57z"/>
	<path class="fill-yellow" d="M302.8,60.8h-1.5v-7.3h-4.4v5.1c0,0.4,0.1,0.6,0.3,0.8c0.2,0.2,0.4,0.3,0.7,0.3c0.2,0,0.3,0,0.4-0.1
		c0.1,0,0.2-0.1,0.3-0.1c0.1-0.1,0.2-0.1,0.2-0.1c0.1,0,0.1-0.1,0.2-0.1c0.1,0,0.1,0,0.2,0.1l0.4,0.7c-0.3,0.2-0.6,0.4-0.9,0.6
		s-0.7,0.2-1.1,0.2c-0.7,0-1.2-0.2-1.6-0.6c-0.4-0.4-0.5-0.9-0.5-1.6v-5.2h-1c-0.1,0-0.2,0-0.2-0.1s-0.1-0.1-0.1-0.2v-0.6l1.4-0.2
		l0.3-2.6c0-0.1,0.1-0.2,0.1-0.2c0.1-0.1,0.1-0.1,0.2-0.1h0.8v2.9h5.9V60.8z M303.2,49.6c0,0.1,0,0.3-0.1,0.4
		c-0.1,0.1-0.1,0.2-0.2,0.3c-0.1,0.1-0.2,0.2-0.3,0.2c-0.1,0.1-0.3,0.1-0.4,0.1s-0.3,0-0.4-0.1c-0.1-0.1-0.2-0.1-0.3-0.2
		c-0.1-0.1-0.2-0.2-0.2-0.3c-0.1-0.1-0.1-0.3-0.1-0.4c0-0.1,0-0.3,0.1-0.4c0.1-0.1,0.1-0.2,0.2-0.3c0.1-0.1,0.2-0.2,0.3-0.2
		c0.1-0.1,0.3-0.1,0.4-0.1s0.3,0,0.4,0.1c0.1,0.1,0.2,0.1,0.3,0.2c0.1,0.1,0.2,0.2,0.2,0.3S303.2,49.4,303.2,49.6z"/>
	<path class="fill-yellow" d="M308.8,52.2c0.6,0,1.2,0.1,1.7,0.3s0.9,0.5,1.3,0.9c0.4,0.4,0.6,0.8,0.8,1.4s0.3,1.1,0.3,1.8
		c0,0.7-0.1,1.3-0.3,1.8c-0.2,0.5-0.5,1-0.8,1.4c-0.4,0.4-0.8,0.7-1.3,0.9s-1.1,0.3-1.7,0.3c-0.6,0-1.2-0.1-1.7-0.3
		s-0.9-0.5-1.3-0.9c-0.4-0.4-0.6-0.8-0.8-1.4c-0.2-0.5-0.3-1.1-0.3-1.8c0-0.7,0.1-1.3,0.3-1.8s0.5-1,0.8-1.4
		c0.4-0.4,0.8-0.7,1.3-0.9S308.2,52.2,308.8,52.2z M308.8,59.8c0.8,0,1.5-0.3,1.9-0.8s0.6-1.4,0.6-2.4c0-1-0.2-1.8-0.6-2.4
		s-1-0.9-1.9-0.9c-0.4,0-0.8,0.1-1.1,0.2c-0.3,0.1-0.6,0.4-0.8,0.6s-0.4,0.6-0.5,1c-0.1,0.4-0.2,0.9-0.2,1.4c0,1,0.2,1.8,0.6,2.4
		S308,59.8,308.8,59.8z"/>
	<path class="fill-yellow" d="M316.2,53.5c0.2-0.2,0.4-0.4,0.6-0.6c0.2-0.2,0.4-0.3,0.7-0.4s0.5-0.2,0.7-0.3c0.3-0.1,0.5-0.1,0.8-0.1
		c0.5,0,0.9,0.1,1.2,0.2c0.4,0.2,0.7,0.4,0.9,0.7c0.2,0.3,0.4,0.6,0.5,1c0.1,0.4,0.2,0.8,0.2,1.3v5.4h-1.5v-5.4
		c0-0.6-0.1-1.1-0.4-1.5c-0.3-0.4-0.7-0.5-1.3-0.5c-0.4,0-0.9,0.1-1.2,0.3c-0.4,0.2-0.7,0.5-1.1,0.9v6.3h-1.5v-8.5h0.9
		c0.2,0,0.3,0.1,0.4,0.3L316.2,53.5z"/>
	<path class="fill-yellow" d="M329.2,53.7c-0.1,0.1-0.2,0.2-0.3,0.2c-0.1,0-0.2,0-0.3-0.1c-0.1-0.1-0.2-0.1-0.4-0.2
		c-0.2-0.1-0.3-0.1-0.6-0.2s-0.5-0.1-0.8-0.1c-0.3,0-0.5,0-0.7,0.1c-0.2,0.1-0.4,0.2-0.5,0.3c-0.1,0.1-0.3,0.2-0.3,0.4
		c-0.1,0.1-0.1,0.3-0.1,0.5c0,0.2,0.1,0.4,0.2,0.5c0.1,0.1,0.3,0.3,0.5,0.4c0.2,0.1,0.4,0.2,0.7,0.3c0.3,0.1,0.5,0.2,0.8,0.3
		s0.5,0.2,0.8,0.3c0.3,0.1,0.5,0.3,0.7,0.4c0.2,0.2,0.4,0.4,0.5,0.6c0.1,0.2,0.2,0.5,0.2,0.9c0,0.4-0.1,0.8-0.2,1.1
		c-0.1,0.3-0.3,0.6-0.6,0.9s-0.6,0.4-1,0.6c-0.4,0.1-0.9,0.2-1.4,0.2c-0.6,0-1.1-0.1-1.6-0.3c-0.5-0.2-0.9-0.4-1.2-0.7l0.4-0.6
		c0-0.1,0.1-0.1,0.2-0.2c0.1,0,0.1-0.1,0.2-0.1c0.1,0,0.2,0,0.3,0.1c0.1,0.1,0.2,0.2,0.4,0.3s0.4,0.2,0.6,0.3
		c0.2,0.1,0.5,0.1,0.9,0.1c0.3,0,0.5,0,0.8-0.1s0.4-0.2,0.5-0.3s0.3-0.3,0.3-0.4c0.1-0.2,0.1-0.3,0.1-0.5c0-0.2-0.1-0.4-0.2-0.6
		c-0.1-0.2-0.3-0.3-0.5-0.4c-0.2-0.1-0.4-0.2-0.7-0.3c-0.3-0.1-0.5-0.2-0.8-0.3s-0.6-0.2-0.8-0.3s-0.5-0.3-0.7-0.4s-0.4-0.4-0.5-0.6
		c-0.1-0.3-0.2-0.6-0.2-0.9c0-0.3,0.1-0.6,0.2-0.9s0.3-0.6,0.6-0.8c0.3-0.2,0.6-0.4,1-0.5c0.4-0.1,0.8-0.2,1.3-0.2
		c0.6,0,1.1,0.1,1.5,0.3c0.4,0.2,0.8,0.4,1.2,0.7L329.2,53.7z"/>
</g>
<g>
	<path class="fill-yellow" d="M240.3,92.3c0,0.9-0.1,1.7-0.4,2.5c-0.3,0.7-0.7,1.4-1.2,1.9s-1.2,0.9-1.9,1.2c-0.7,0.3-1.5,0.4-2.4,0.4h-4.5
		V86.3h4.5c0.9,0,1.7,0.1,2.4,0.4s1.4,0.7,1.9,1.2c0.5,0.5,0.9,1.2,1.2,1.9C240.2,90.6,240.3,91.4,240.3,92.3z M238.6,92.3
		c0-0.7-0.1-1.4-0.3-2c-0.2-0.6-0.5-1.1-0.9-1.5c-0.4-0.4-0.8-0.7-1.3-0.9c-0.5-0.2-1.1-0.3-1.8-0.3h-2.9V97h2.9
		c0.7,0,1.2-0.1,1.8-0.3c0.5-0.2,1-0.5,1.3-0.9c0.4-0.4,0.7-0.9,0.9-1.5C238.5,93.7,238.6,93,238.6,92.3z"/>
	<path class="fill-yellow" d="M249.1,97.1c-0.2,0.2-0.4,0.4-0.7,0.6c-0.3,0.2-0.5,0.3-0.8,0.4s-0.6,0.2-0.9,0.2c-0.3,0.1-0.6,0.1-0.9,0.1
		c-0.6,0-1.1-0.1-1.6-0.3c-0.5-0.2-0.9-0.5-1.3-0.9s-0.6-0.9-0.8-1.4s-0.3-1.2-0.3-2c0-0.6,0.1-1.2,0.3-1.7c0.2-0.5,0.4-1,0.8-1.3
		c0.3-0.4,0.8-0.7,1.3-0.9c0.5-0.2,1.1-0.3,1.7-0.3c0.5,0,1,0.1,1.4,0.3c0.4,0.2,0.8,0.4,1.1,0.7c0.3,0.3,0.6,0.7,0.7,1.2
		c0.2,0.5,0.3,1,0.3,1.6c0,0.2,0,0.4-0.1,0.5c-0.1,0.1-0.1,0.1-0.3,0.1h-5.7c0,0.5,0.1,1,0.2,1.4c0.1,0.4,0.3,0.7,0.6,1
		s0.5,0.5,0.8,0.6s0.7,0.2,1.1,0.2c0.4,0,0.7,0,1-0.1s0.5-0.2,0.7-0.3c0.2-0.1,0.4-0.2,0.5-0.3s0.2-0.1,0.3-0.1c0.1,0,0.2,0,0.3,0.1
		L249.1,97.1z M247.9,93.1c0-0.3,0-0.7-0.1-1c-0.1-0.3-0.2-0.5-0.4-0.8c-0.2-0.2-0.4-0.4-0.7-0.5c-0.3-0.1-0.6-0.2-0.9-0.2
		c-0.7,0-1.3,0.2-1.7,0.6c-0.4,0.4-0.7,1-0.8,1.7H247.9z"/>
	<path class="fill-yellow" d="M256.1,91.2c-0.1,0.1-0.2,0.2-0.3,0.2c-0.1,0-0.2,0-0.3-0.1c-0.1-0.1-0.2-0.1-0.4-0.2
		c-0.2-0.1-0.3-0.1-0.6-0.2s-0.5-0.1-0.8-0.1c-0.3,0-0.5,0-0.7,0.1c-0.2,0.1-0.4,0.2-0.5,0.3c-0.1,0.1-0.3,0.2-0.3,0.4
		c-0.1,0.1-0.1,0.3-0.1,0.5c0,0.2,0.1,0.4,0.2,0.5c0.1,0.1,0.3,0.3,0.5,0.4c0.2,0.1,0.4,0.2,0.7,0.3c0.3,0.1,0.5,0.2,0.8,0.3
		s0.5,0.2,0.8,0.3c0.3,0.1,0.5,0.3,0.7,0.4c0.2,0.2,0.4,0.4,0.5,0.6c0.1,0.2,0.2,0.5,0.2,0.9c0,0.4-0.1,0.8-0.2,1.1
		c-0.1,0.3-0.3,0.6-0.6,0.9s-0.6,0.4-1,0.6c-0.4,0.1-0.9,0.2-1.4,0.2c-0.6,0-1.1-0.1-1.6-0.3c-0.5-0.2-0.9-0.4-1.2-0.7l0.4-0.6
		c0-0.1,0.1-0.1,0.2-0.2c0.1,0,0.1-0.1,0.2-0.1c0.1,0,0.2,0,0.3,0.1c0.1,0.1,0.2,0.2,0.4,0.3s0.4,0.2,0.6,0.3
		c0.2,0.1,0.5,0.1,0.9,0.1c0.3,0,0.5,0,0.8-0.1s0.4-0.2,0.5-0.3s0.3-0.3,0.3-0.4c0.1-0.2,0.1-0.3,0.1-0.5c0-0.2-0.1-0.4-0.2-0.6
		c-0.1-0.2-0.3-0.3-0.5-0.4c-0.2-0.1-0.4-0.2-0.7-0.3c-0.3-0.1-0.5-0.2-0.8-0.3s-0.6-0.2-0.8-0.3s-0.5-0.3-0.7-0.4s-0.4-0.4-0.5-0.6
		c-0.1-0.3-0.2-0.6-0.2-0.9c0-0.3,0.1-0.6,0.2-0.9s0.3-0.6,0.6-0.8c0.3-0.2,0.6-0.4,1-0.5c0.4-0.1,0.8-0.2,1.3-0.2
		c0.6,0,1.1,0.1,1.5,0.3c0.4,0.2,0.8,0.4,1.2,0.7L256.1,91.2z"/>
	<path class="fill-yellow" d="M260.3,87.1c0,0.1,0,0.3-0.1,0.4c-0.1,0.1-0.1,0.2-0.2,0.3c-0.1,0.1-0.2,0.2-0.3,0.2c-0.1,0.1-0.3,0.1-0.4,0.1
		c-0.1,0-0.3,0-0.4-0.1c-0.1-0.1-0.2-0.1-0.3-0.2c-0.1-0.1-0.2-0.2-0.2-0.3c-0.1-0.1-0.1-0.3-0.1-0.4c0-0.1,0-0.3,0.1-0.4
		c0.1-0.1,0.1-0.2,0.2-0.3c0.1-0.1,0.2-0.2,0.3-0.2c0.1-0.1,0.3-0.1,0.4-0.1c0.1,0,0.3,0,0.4,0.1c0.1,0.1,0.2,0.1,0.3,0.2
		c0.1,0.1,0.2,0.2,0.2,0.3C260.3,86.8,260.3,87,260.3,87.1z M260,89.8v8.5h-1.5v-8.5H260z"/>
	<path class="fill-yellow" d="M269.6,90.1v0.6c0,0.2-0.1,0.3-0.4,0.4l-1,0.1c0.2,0.4,0.3,0.8,0.3,1.2c0,0.4-0.1,0.8-0.2,1.1
		s-0.4,0.6-0.7,0.9c-0.3,0.2-0.6,0.4-1,0.6s-0.8,0.2-1.3,0.2c-0.4,0-0.8,0-1.1-0.1c-0.2,0.1-0.3,0.2-0.4,0.4
		c-0.1,0.1-0.1,0.3-0.1,0.4c0,0.2,0.1,0.4,0.2,0.5c0.2,0.1,0.4,0.2,0.7,0.2c0.3,0,0.6,0.1,0.9,0.1c0.3,0,0.7,0,1.1,0.1
		s0.7,0.1,1.1,0.1c0.3,0.1,0.7,0.2,0.9,0.3s0.5,0.3,0.7,0.6c0.2,0.2,0.2,0.6,0.2,1c0,0.4-0.1,0.7-0.3,1.1s-0.4,0.6-0.8,0.9
		s-0.8,0.5-1.3,0.6s-1.1,0.2-1.7,0.2c-0.6,0-1.2-0.1-1.6-0.2c-0.5-0.1-0.9-0.3-1.2-0.5c-0.3-0.2-0.5-0.4-0.7-0.7
		c-0.2-0.3-0.2-0.6-0.2-0.9c0-0.4,0.1-0.8,0.4-1.1c0.3-0.3,0.6-0.5,1.1-0.7c-0.3-0.1-0.5-0.3-0.6-0.5c-0.1-0.2-0.2-0.4-0.2-0.8
		c0-0.1,0-0.3,0.1-0.4c0-0.1,0.1-0.3,0.2-0.4s0.2-0.3,0.3-0.4s0.3-0.2,0.5-0.3c-0.4-0.2-0.8-0.5-1-0.9c-0.2-0.4-0.4-0.8-0.4-1.4
		c0-0.4,0.1-0.8,0.2-1.1s0.4-0.6,0.7-0.9c0.3-0.2,0.6-0.4,1-0.6c0.4-0.1,0.8-0.2,1.3-0.2c0.4,0,0.7,0,1,0.1c0.3,0.1,0.6,0.2,0.9,0.4
		H269.6z M268.1,98.8c0-0.2-0.1-0.4-0.2-0.5s-0.3-0.2-0.5-0.3c-0.2-0.1-0.4-0.1-0.7-0.2c-0.3,0-0.5-0.1-0.8-0.1s-0.6,0-0.9-0.1
		c-0.3,0-0.6,0-0.9-0.1c-0.3,0.1-0.6,0.3-0.8,0.6c-0.2,0.2-0.3,0.5-0.3,0.8c0,0.2,0,0.4,0.1,0.5c0.1,0.2,0.2,0.3,0.5,0.4
		c0.2,0.1,0.5,0.2,0.8,0.3s0.7,0.1,1.1,0.1c0.4,0,0.8,0,1.1-0.1s0.6-0.2,0.8-0.3c0.2-0.1,0.4-0.3,0.5-0.5
		C268.1,99.2,268.1,99,268.1,98.8z M265.4,94.2c0.3,0,0.6,0,0.8-0.1c0.2-0.1,0.4-0.2,0.6-0.4c0.2-0.2,0.3-0.3,0.4-0.5
		c0.1-0.2,0.1-0.4,0.1-0.7c0-0.5-0.2-0.9-0.5-1.2c-0.3-0.3-0.8-0.5-1.4-0.5c-0.6,0-1.1,0.2-1.4,0.5c-0.3,0.3-0.5,0.7-0.5,1.2
		c0,0.3,0,0.5,0.1,0.7c0.1,0.2,0.2,0.4,0.4,0.5c0.2,0.2,0.4,0.3,0.6,0.4C264.8,94.1,265.1,94.2,265.4,94.2z"/>
	<path class="fill-yellow" d="M272.6,91c0.2-0.2,0.4-0.4,0.6-0.6c0.2-0.2,0.4-0.3,0.7-0.4s0.5-0.2,0.7-0.3c0.3-0.1,0.5-0.1,0.8-0.1
		c0.5,0,0.9,0.1,1.2,0.2c0.4,0.2,0.7,0.4,0.9,0.7c0.2,0.3,0.4,0.6,0.5,1c0.1,0.4,0.2,0.8,0.2,1.3v5.4h-1.5v-5.4
		c0-0.6-0.1-1.1-0.4-1.5c-0.3-0.4-0.7-0.5-1.3-0.5c-0.4,0-0.9,0.1-1.2,0.3c-0.4,0.2-0.7,0.5-1.1,0.9v6.3h-1.5v-8.5h0.9
		c0.2,0,0.3,0.1,0.4,0.3L272.6,91z"/>
	<path class="fill-yellow" d="M292.1,90.1v0.6c0,0.2-0.1,0.3-0.4,0.4l-1,0.1c0.2,0.4,0.3,0.8,0.3,1.2c0,0.4-0.1,0.8-0.2,1.1
		s-0.4,0.6-0.7,0.9c-0.3,0.2-0.6,0.4-1,0.6s-0.8,0.2-1.3,0.2c-0.4,0-0.8,0-1.1-0.1c-0.2,0.1-0.3,0.2-0.4,0.4
		c-0.1,0.1-0.1,0.3-0.1,0.4c0,0.2,0.1,0.4,0.2,0.5c0.2,0.1,0.4,0.2,0.7,0.2c0.3,0,0.6,0.1,0.9,0.1c0.3,0,0.7,0,1.1,0.1
		s0.7,0.1,1.1,0.1c0.3,0.1,0.7,0.2,0.9,0.3s0.5,0.3,0.7,0.6c0.2,0.2,0.2,0.6,0.2,1c0,0.4-0.1,0.7-0.3,1.1s-0.4,0.6-0.8,0.9
		s-0.8,0.5-1.3,0.6s-1.1,0.2-1.7,0.2c-0.6,0-1.2-0.1-1.6-0.2c-0.5-0.1-0.9-0.3-1.2-0.5c-0.3-0.2-0.5-0.4-0.7-0.7
		c-0.2-0.3-0.2-0.6-0.2-0.9c0-0.4,0.1-0.8,0.4-1.1c0.3-0.3,0.6-0.5,1.1-0.7c-0.3-0.1-0.5-0.3-0.6-0.5c-0.1-0.2-0.2-0.4-0.2-0.8
		c0-0.1,0-0.3,0.1-0.4c0-0.1,0.1-0.3,0.2-0.4s0.2-0.3,0.3-0.4s0.3-0.2,0.5-0.3c-0.4-0.2-0.8-0.5-1-0.9c-0.2-0.4-0.4-0.8-0.4-1.4
		c0-0.4,0.1-0.8,0.2-1.1s0.4-0.6,0.7-0.9c0.3-0.2,0.6-0.4,1-0.6c0.4-0.1,0.8-0.2,1.3-0.2c0.4,0,0.7,0,1,0.1c0.3,0.1,0.6,0.2,0.9,0.4
		H292.1z M290.6,98.8c0-0.2-0.1-0.4-0.2-0.5s-0.3-0.2-0.5-0.3c-0.2-0.1-0.4-0.1-0.7-0.2c-0.3,0-0.5-0.1-0.8-0.1s-0.6,0-0.9-0.1
		c-0.3,0-0.6,0-0.9-0.1c-0.3,0.1-0.6,0.3-0.8,0.6c-0.2,0.2-0.3,0.5-0.3,0.8c0,0.2,0,0.4,0.1,0.5c0.1,0.2,0.2,0.3,0.5,0.4
		c0.2,0.1,0.5,0.2,0.8,0.3s0.7,0.1,1.1,0.1c0.4,0,0.8,0,1.1-0.1s0.6-0.2,0.8-0.3c0.2-0.1,0.4-0.3,0.5-0.5
		C290.5,99.2,290.6,99,290.6,98.8z M287.9,94.2c0.3,0,0.6,0,0.8-0.1c0.2-0.1,0.4-0.2,0.6-0.4c0.2-0.2,0.3-0.3,0.4-0.5
		c0.1-0.2,0.1-0.4,0.1-0.7c0-0.5-0.2-0.9-0.5-1.2c-0.3-0.3-0.8-0.5-1.4-0.5c-0.6,0-1.1,0.2-1.4,0.5c-0.3,0.3-0.5,0.7-0.5,1.2
		c0,0.3,0,0.5,0.1,0.7c0.1,0.2,0.2,0.4,0.4,0.5c0.2,0.2,0.4,0.3,0.6,0.4C287.3,94.1,287.6,94.2,287.9,94.2z"/>
	<path class="fill-yellow" d="M295.1,91.5c0.3-0.6,0.6-1,1-1.4c0.4-0.3,0.9-0.5,1.4-0.5c0.2,0,0.4,0,0.5,0.1s0.3,0.1,0.4,0.2l-0.1,1.1
		c0,0.1-0.1,0.2-0.3,0.2c-0.1,0-0.2,0-0.3,0c-0.2,0-0.3-0.1-0.5-0.1c-0.3,0-0.5,0-0.7,0.1c-0.2,0.1-0.4,0.2-0.6,0.3
		c-0.2,0.2-0.3,0.3-0.4,0.6s-0.3,0.5-0.4,0.8v5.4h-1.5v-8.5h0.9c0.2,0,0.3,0,0.3,0.1s0.1,0.2,0.1,0.3L295.1,91.5z"/>
	<path class="fill-yellow" d="M299.5,91c0.5-0.5,1-0.8,1.5-1s1.1-0.3,1.8-0.3c0.5,0,0.9,0.1,1.3,0.2s0.7,0.4,0.9,0.7c0.3,0.3,0.4,0.6,0.6,1
		c0.1,0.4,0.2,0.8,0.2,1.3v5.5h-0.7c-0.1,0-0.3,0-0.3-0.1c-0.1,0-0.1-0.1-0.2-0.3l-0.2-0.8c-0.2,0.2-0.4,0.4-0.7,0.6
		c-0.2,0.2-0.4,0.3-0.7,0.4c-0.2,0.1-0.5,0.2-0.8,0.3c-0.3,0.1-0.6,0.1-0.9,0.1c-0.3,0-0.6,0-0.9-0.1c-0.3-0.1-0.5-0.2-0.8-0.4
		c-0.2-0.2-0.4-0.4-0.5-0.7c-0.1-0.3-0.2-0.6-0.2-1c0-0.3,0.1-0.7,0.3-1s0.5-0.6,0.9-0.8s1-0.4,1.6-0.6c0.7-0.2,1.5-0.2,2.5-0.3
		v-0.7c0-0.7-0.1-1.2-0.4-1.5c-0.3-0.3-0.7-0.5-1.3-0.5c-0.4,0-0.7,0-0.9,0.1s-0.5,0.2-0.6,0.3c-0.2,0.1-0.3,0.2-0.5,0.3
		s-0.3,0.1-0.4,0.1c-0.1,0-0.2,0-0.3-0.1c-0.1-0.1-0.1-0.1-0.2-0.2L299.5,91z M304.3,94.5c-0.7,0-1.3,0.1-1.8,0.2
		c-0.5,0.1-0.9,0.2-1.2,0.3c-0.3,0.1-0.5,0.3-0.7,0.5c-0.1,0.2-0.2,0.4-0.2,0.6c0,0.2,0,0.4,0.1,0.6s0.2,0.3,0.3,0.4
		c0.1,0.1,0.3,0.2,0.4,0.2c0.2,0,0.4,0.1,0.6,0.1c0.3,0,0.5,0,0.7-0.1c0.2-0.1,0.4-0.1,0.6-0.2c0.2-0.1,0.4-0.2,0.6-0.4
		s0.3-0.3,0.5-0.5V94.5z"/>
	<path class="fill-yellow" d="M309.5,91.1c0.4-0.4,0.8-0.8,1.2-1.1s1-0.4,1.6-0.4c0.5,0,0.9,0.1,1.3,0.3c0.4,0.2,0.7,0.5,1,0.8
		c0.3,0.4,0.5,0.8,0.6,1.4c0.2,0.5,0.2,1.2,0.2,1.9c0,0.6-0.1,1.2-0.3,1.8s-0.4,1-0.7,1.4c-0.3,0.4-0.7,0.7-1.2,0.9
		c-0.5,0.2-1,0.3-1.5,0.3c-0.5,0-1-0.1-1.3-0.3c-0.4-0.2-0.7-0.4-1-0.7v3.8h-1.5V89.8h0.9c0.2,0,0.3,0.1,0.4,0.3L309.5,91.1z
		 M309.6,96.3c0.3,0.4,0.6,0.6,0.9,0.8s0.7,0.2,1.1,0.2c0.8,0,1.4-0.3,1.8-0.9s0.6-1.4,0.6-2.4c0-0.6,0-1-0.1-1.4
		c-0.1-0.4-0.2-0.7-0.4-1c-0.2-0.3-0.4-0.4-0.7-0.6c-0.3-0.1-0.6-0.2-0.9-0.2c-0.5,0-0.9,0.1-1.3,0.3c-0.4,0.2-0.7,0.5-1,1V96.3z"/>
	<path class="fill-yellow" d="M319,90.9c0.4-0.4,0.8-0.7,1.2-0.9c0.4-0.2,1-0.3,1.5-0.3c0.5,0,0.9,0.1,1.2,0.2c0.4,0.2,0.7,0.4,0.9,0.7
		c0.2,0.3,0.4,0.6,0.5,1c0.1,0.4,0.2,0.8,0.2,1.3v5.4h-1.5v-5.4c0-0.6-0.1-1.1-0.4-1.5c-0.3-0.4-0.7-0.5-1.3-0.5
		c-0.4,0-0.9,0.1-1.2,0.3c-0.4,0.2-0.7,0.5-1.1,0.9v6.3h-1.5V85.9h1.5V90.9z"/>
	<path class="fill-yellow" d="M328.8,87.1c0,0.1,0,0.3-0.1,0.4c-0.1,0.1-0.1,0.2-0.2,0.3c-0.1,0.1-0.2,0.2-0.3,0.2c-0.1,0.1-0.3,0.1-0.4,0.1
		c-0.1,0-0.3,0-0.4-0.1c-0.1-0.1-0.2-0.1-0.3-0.2c-0.1-0.1-0.2-0.2-0.2-0.3c-0.1-0.1-0.1-0.3-0.1-0.4c0-0.1,0-0.3,0.1-0.4
		c0.1-0.1,0.1-0.2,0.2-0.3c0.1-0.1,0.2-0.2,0.3-0.2c0.1-0.1,0.3-0.1,0.4-0.1c0.1,0,0.3,0,0.4,0.1c0.1,0.1,0.2,0.1,0.3,0.2
		c0.1,0.1,0.2,0.2,0.2,0.3C328.8,86.8,328.8,87,328.8,87.1z M328.5,89.8v8.5H327v-8.5H328.5z"/>
	<path class="fill-yellow" d="M338,89.8v11.4h-1.5v-4.2c-0.4,0.4-0.8,0.8-1.2,1s-1,0.4-1.6,0.4c-0.5,0-0.9-0.1-1.3-0.3
		c-0.4-0.2-0.7-0.5-1-0.8c-0.3-0.4-0.5-0.8-0.6-1.4c-0.2-0.5-0.2-1.2-0.2-1.9c0-0.6,0.1-1.2,0.3-1.8s0.4-1,0.7-1.4
		c0.3-0.4,0.7-0.7,1.2-0.9s1-0.3,1.5-0.3c0.6,0,1,0.1,1.4,0.3c0.4,0.2,0.7,0.5,1,0.8l0.1-0.7c0.1-0.2,0.2-0.3,0.4-0.3H338z
		 M336.5,91.8c-0.3-0.4-0.6-0.6-0.9-0.8c-0.3-0.2-0.7-0.2-1.1-0.2c-0.8,0-1.4,0.3-1.8,0.9S332,93,332,94.1c0,0.6,0,1,0.1,1.4
		s0.2,0.7,0.4,1s0.4,0.4,0.7,0.6s0.6,0.2,0.9,0.2c0.5,0,0.9-0.1,1.3-0.3c0.4-0.2,0.7-0.5,1-1V91.8z"/>
	<path class="fill-yellow" d="M347.4,89.8v8.5h-0.9c-0.2,0-0.3-0.1-0.4-0.3l-0.1-0.9c-0.4,0.4-0.8,0.7-1.2,1c-0.5,0.2-1,0.4-1.6,0.4
		c-0.5,0-0.9-0.1-1.2-0.2c-0.4-0.2-0.7-0.4-0.9-0.7c-0.2-0.3-0.4-0.6-0.5-1c-0.1-0.4-0.2-0.8-0.2-1.3v-5.4h1.5v5.4
		c0,0.6,0.1,1.1,0.4,1.5s0.7,0.5,1.4,0.5c0.4,0,0.9-0.1,1.2-0.3s0.7-0.5,1.1-0.9v-6.3H347.4z"/>
	<path class="fill-yellow" d="M356.7,97.1c-0.2,0.2-0.4,0.4-0.7,0.6c-0.3,0.2-0.5,0.3-0.8,0.4s-0.6,0.2-0.9,0.2c-0.3,0.1-0.6,0.1-0.9,0.1
		c-0.6,0-1.1-0.1-1.6-0.3c-0.5-0.2-0.9-0.5-1.3-0.9s-0.6-0.9-0.8-1.4s-0.3-1.2-0.3-2c0-0.6,0.1-1.2,0.3-1.7c0.2-0.5,0.4-1,0.8-1.3
		c0.3-0.4,0.8-0.7,1.3-0.9c0.5-0.2,1.1-0.3,1.7-0.3c0.5,0,1,0.1,1.4,0.3c0.4,0.2,0.8,0.4,1.1,0.7c0.3,0.3,0.6,0.7,0.7,1.2
		c0.2,0.5,0.3,1,0.3,1.6c0,0.2,0,0.4-0.1,0.5c-0.1,0.1-0.1,0.1-0.3,0.1h-5.7c0,0.5,0.1,1,0.2,1.4c0.1,0.4,0.3,0.7,0.6,1
		s0.5,0.5,0.8,0.6s0.7,0.2,1.1,0.2c0.4,0,0.7,0,1-0.1s0.5-0.2,0.7-0.3c0.2-0.1,0.4-0.2,0.5-0.3s0.2-0.1,0.3-0.1c0.1,0,0.2,0,0.3,0.1
		L356.7,97.1z M355.5,93.1c0-0.3,0-0.7-0.1-1c-0.1-0.3-0.2-0.5-0.4-0.8c-0.2-0.2-0.4-0.4-0.7-0.5c-0.3-0.1-0.6-0.2-0.9-0.2
		c-0.7,0-1.3,0.2-1.7,0.6c-0.4,0.4-0.7,1-0.8,1.7H355.5z"/>
</g>
<g>
	<path class="fill-yellow" d="M234.5,136.3c0.5,0,0.9-0.1,1.3-0.3c0.4-0.2,0.7-0.4,1-0.7c0.3-0.3,0.5-0.7,0.6-1.1c0.1-0.4,0.2-0.9,0.2-1.4
		v-7.3h1.6v7.3c0,0.7-0.1,1.3-0.3,1.9c-0.2,0.6-0.5,1.1-1,1.5c-0.4,0.4-0.9,0.8-1.5,1c-0.6,0.2-1.3,0.4-2,0.4c-0.7,0-1.4-0.1-2-0.4
		c-0.6-0.2-1.1-0.6-1.5-1c-0.4-0.4-0.7-1-1-1.5c-0.2-0.6-0.3-1.2-0.3-1.9v-7.3h1.6v7.3c0,0.5,0.1,1,0.2,1.4c0.1,0.4,0.4,0.8,0.6,1.1
		c0.3,0.3,0.6,0.5,1,0.7C233.6,136.2,234,136.3,234.5,136.3z"/>
	<path class="fill-yellow" d="M246.5,130.4c-0.1,0.1-0.2,0.2-0.3,0.2c-0.1,0-0.2,0-0.3-0.1c-0.1-0.1-0.2-0.1-0.4-0.2
		c-0.2-0.1-0.3-0.1-0.6-0.2s-0.5-0.1-0.8-0.1c-0.3,0-0.5,0-0.7,0.1c-0.2,0.1-0.4,0.2-0.5,0.3c-0.1,0.1-0.3,0.2-0.3,0.4
		c-0.1,0.1-0.1,0.3-0.1,0.5c0,0.2,0.1,0.4,0.2,0.5c0.1,0.1,0.3,0.3,0.5,0.4c0.2,0.1,0.4,0.2,0.7,0.3c0.3,0.1,0.5,0.2,0.8,0.3
		s0.5,0.2,0.8,0.3c0.3,0.1,0.5,0.3,0.7,0.4c0.2,0.2,0.4,0.4,0.5,0.6c0.1,0.2,0.2,0.5,0.2,0.9c0,0.4-0.1,0.8-0.2,1.1
		c-0.1,0.3-0.3,0.6-0.6,0.9s-0.6,0.4-1,0.6c-0.4,0.1-0.9,0.2-1.4,0.2c-0.6,0-1.1-0.1-1.6-0.3c-0.5-0.2-0.9-0.4-1.2-0.7l0.4-0.6
		c0-0.1,0.1-0.1,0.2-0.2c0.1,0,0.1-0.1,0.2-0.1c0.1,0,0.2,0,0.3,0.1c0.1,0.1,0.2,0.2,0.4,0.3s0.4,0.2,0.6,0.3
		c0.2,0.1,0.5,0.1,0.9,0.1c0.3,0,0.5,0,0.8-0.1s0.4-0.2,0.5-0.3s0.3-0.3,0.3-0.4c0.1-0.2,0.1-0.3,0.1-0.5c0-0.2-0.1-0.4-0.2-0.6
		c-0.1-0.2-0.3-0.3-0.5-0.4c-0.2-0.1-0.4-0.2-0.7-0.3c-0.3-0.1-0.5-0.2-0.8-0.3s-0.6-0.2-0.8-0.3s-0.5-0.3-0.7-0.4s-0.4-0.4-0.5-0.6
		c-0.1-0.3-0.2-0.6-0.2-0.9c0-0.3,0.1-0.6,0.2-0.9s0.3-0.6,0.6-0.8c0.3-0.2,0.6-0.4,1-0.5c0.4-0.1,0.8-0.2,1.3-0.2
		c0.6,0,1.1,0.1,1.5,0.3c0.4,0.2,0.8,0.4,1.2,0.7L246.5,130.4z"/>
	<path class="fill-yellow" d="M255.7,136.4c-0.2,0.2-0.4,0.4-0.7,0.6c-0.3,0.2-0.5,0.3-0.8,0.4s-0.6,0.2-0.9,0.2c-0.3,0.1-0.6,0.1-0.9,0.1
		c-0.6,0-1.1-0.1-1.6-0.3c-0.5-0.2-0.9-0.5-1.3-0.9s-0.6-0.9-0.8-1.4s-0.3-1.2-0.3-2c0-0.6,0.1-1.2,0.3-1.7c0.2-0.5,0.4-1,0.8-1.3
		c0.3-0.4,0.8-0.7,1.3-0.9c0.5-0.2,1.1-0.3,1.7-0.3c0.5,0,1,0.1,1.4,0.3c0.4,0.2,0.8,0.4,1.1,0.7c0.3,0.3,0.6,0.7,0.7,1.2
		c0.2,0.5,0.3,1,0.3,1.6c0,0.2,0,0.4-0.1,0.5c-0.1,0.1-0.1,0.1-0.3,0.1h-5.7c0,0.5,0.1,1,0.2,1.4c0.1,0.4,0.3,0.7,0.6,1
		s0.5,0.5,0.8,0.6s0.7,0.2,1.1,0.2c0.4,0,0.7,0,1-0.1s0.5-0.2,0.7-0.3c0.2-0.1,0.4-0.2,0.5-0.3s0.2-0.1,0.3-0.1c0.1,0,0.2,0,0.3,0.1
		L255.7,136.4z M254.5,132.4c0-0.3,0-0.7-0.1-1c-0.1-0.3-0.2-0.5-0.4-0.8c-0.2-0.2-0.4-0.4-0.7-0.5c-0.3-0.1-0.6-0.2-0.9-0.2
		c-0.7,0-1.3,0.2-1.7,0.6c-0.4,0.4-0.7,1-0.8,1.7H254.5z"/>
	<path class="fill-yellow" d="M259.1,130.8c0.3-0.6,0.6-1,1-1.4c0.4-0.3,0.9-0.5,1.4-0.5c0.2,0,0.4,0,0.5,0.1s0.3,0.1,0.4,0.2l-0.1,1.1
		c0,0.1-0.1,0.2-0.3,0.2c-0.1,0-0.2,0-0.3,0c-0.2,0-0.3-0.1-0.5-0.1c-0.3,0-0.5,0-0.7,0.1c-0.2,0.1-0.4,0.2-0.6,0.3
		c-0.2,0.2-0.3,0.3-0.4,0.6s-0.3,0.5-0.4,0.8v5.4h-1.5V129h0.9c0.2,0,0.3,0,0.3,0.1s0.1,0.2,0.1,0.3L259.1,130.8z"/>
	<path class="fill-yellow" d="M274.7,136.4c-0.2,0.2-0.4,0.4-0.7,0.6c-0.3,0.2-0.5,0.3-0.8,0.4s-0.6,0.2-0.9,0.2c-0.3,0.1-0.6,0.1-0.9,0.1
		c-0.6,0-1.1-0.1-1.6-0.3c-0.5-0.2-0.9-0.5-1.3-0.9s-0.6-0.9-0.8-1.4s-0.3-1.2-0.3-2c0-0.6,0.1-1.2,0.3-1.7c0.2-0.5,0.4-1,0.8-1.3
		c0.3-0.4,0.8-0.7,1.3-0.9c0.5-0.2,1.1-0.3,1.7-0.3c0.5,0,1,0.1,1.4,0.3c0.4,0.2,0.8,0.4,1.1,0.7c0.3,0.3,0.6,0.7,0.7,1.2
		c0.2,0.5,0.3,1,0.3,1.6c0,0.2,0,0.4-0.1,0.5c-0.1,0.1-0.1,0.1-0.3,0.1h-5.7c0,0.5,0.1,1,0.2,1.4c0.1,0.4,0.3,0.7,0.6,1
		s0.5,0.5,0.8,0.6s0.7,0.2,1.1,0.2c0.4,0,0.7,0,1-0.1s0.5-0.2,0.7-0.3c0.2-0.1,0.4-0.2,0.5-0.3s0.2-0.1,0.3-0.1c0.1,0,0.2,0,0.3,0.1
		L274.7,136.4z M273.5,132.4c0-0.3,0-0.7-0.1-1c-0.1-0.3-0.2-0.5-0.4-0.8c-0.2-0.2-0.4-0.4-0.7-0.5c-0.3-0.1-0.6-0.2-0.9-0.2
		c-0.7,0-1.3,0.2-1.7,0.6c-0.4,0.4-0.7,1-0.8,1.7H273.5z"/>
	<path class="fill-yellow" d="M283.6,137.6h-1.4c-0.1,0-0.2,0-0.3-0.1s-0.1-0.1-0.2-0.2l-2.1-3.3c0,0.1,0,0.2-0.1,0.2c0,0.1-0.1,0.1-0.1,0.2
		l-2,2.9c-0.1,0.1-0.1,0.2-0.2,0.2c-0.1,0.1-0.2,0.1-0.3,0.1h-1.3l3-4.4l-2.9-4.2h1.4c0.1,0,0.2,0,0.3,0.1c0.1,0,0.1,0.1,0.2,0.2
		l2.1,3.2c0-0.2,0.1-0.3,0.2-0.5l1.8-2.7c0.1-0.1,0.1-0.1,0.2-0.2c0.1,0,0.1-0.1,0.2-0.1h1.4l-2.9,4.1L283.6,137.6z"/>
	<path class="fill-yellow" d="M286.4,130.4c0.4-0.4,0.8-0.8,1.2-1.1s1-0.4,1.6-0.4c0.5,0,0.9,0.1,1.3,0.3c0.4,0.2,0.7,0.5,1,0.8
		c0.3,0.4,0.5,0.8,0.6,1.4c0.2,0.5,0.2,1.2,0.2,1.9c0,0.6-0.1,1.2-0.3,1.8s-0.4,1-0.7,1.4c-0.3,0.4-0.7,0.7-1.2,0.9
		c-0.5,0.2-1,0.3-1.5,0.3c-0.5,0-1-0.1-1.3-0.3c-0.4-0.2-0.7-0.4-1-0.7v3.8H285V129h0.9c0.2,0,0.3,0.1,0.4,0.3L286.4,130.4z
		 M286.5,135.5c0.3,0.4,0.6,0.6,0.9,0.8s0.7,0.2,1.1,0.2c0.8,0,1.4-0.3,1.8-0.9s0.6-1.4,0.6-2.4c0-0.6,0-1-0.1-1.4
		c-0.1-0.4-0.2-0.7-0.4-1c-0.2-0.3-0.4-0.4-0.7-0.6c-0.3-0.1-0.6-0.2-0.9-0.2c-0.5,0-0.9,0.1-1.3,0.3c-0.4,0.2-0.7,0.5-1,1V135.5z"
		/>
	<path class="fill-yellow" d="M301.3,136.4c-0.2,0.2-0.4,0.4-0.7,0.6c-0.3,0.2-0.5,0.3-0.8,0.4s-0.6,0.2-0.9,0.2c-0.3,0.1-0.6,0.1-0.9,0.1
		c-0.6,0-1.1-0.1-1.6-0.3c-0.5-0.2-0.9-0.5-1.3-0.9s-0.6-0.9-0.8-1.4s-0.3-1.2-0.3-2c0-0.6,0.1-1.2,0.3-1.7c0.2-0.5,0.4-1,0.8-1.3
		c0.3-0.4,0.8-0.7,1.3-0.9c0.5-0.2,1.1-0.3,1.7-0.3c0.5,0,1,0.1,1.4,0.3c0.4,0.2,0.8,0.4,1.1,0.7c0.3,0.3,0.6,0.7,0.7,1.2
		c0.2,0.5,0.3,1,0.3,1.6c0,0.2,0,0.4-0.1,0.5c-0.1,0.1-0.1,0.1-0.3,0.1h-5.7c0,0.5,0.1,1,0.2,1.4c0.1,0.4,0.3,0.7,0.6,1
		s0.5,0.5,0.8,0.6s0.7,0.2,1.1,0.2c0.4,0,0.7,0,1-0.1s0.5-0.2,0.7-0.3c0.2-0.1,0.4-0.2,0.5-0.3s0.2-0.1,0.3-0.1c0.1,0,0.2,0,0.3,0.1
		L301.3,136.4z M300.1,132.4c0-0.3,0-0.7-0.1-1c-0.1-0.3-0.2-0.5-0.4-0.8c-0.2-0.2-0.4-0.4-0.7-0.5c-0.3-0.1-0.6-0.2-0.9-0.2
		c-0.7,0-1.3,0.2-1.7,0.6c-0.4,0.4-0.7,1-0.8,1.7H300.1z"/>
	<path class="fill-yellow" d="M304.7,130.8c0.3-0.6,0.6-1,1-1.4c0.4-0.3,0.9-0.5,1.4-0.5c0.2,0,0.4,0,0.5,0.1s0.3,0.1,0.4,0.2l-0.1,1.1
		c0,0.1-0.1,0.2-0.3,0.2c-0.1,0-0.2,0-0.3,0c-0.2,0-0.3-0.1-0.5-0.1c-0.3,0-0.5,0-0.7,0.1c-0.2,0.1-0.4,0.2-0.6,0.3
		c-0.2,0.2-0.3,0.3-0.4,0.6s-0.3,0.5-0.4,0.8v5.4h-1.5V129h0.9c0.2,0,0.3,0,0.3,0.1s0.1,0.2,0.1,0.3L304.7,130.8z"/>
	<path class="fill-yellow" d="M311.4,126.4c0,0.1,0,0.3-0.1,0.4c-0.1,0.1-0.1,0.2-0.2,0.3c-0.1,0.1-0.2,0.2-0.3,0.2
		c-0.1,0.1-0.3,0.1-0.4,0.1c-0.1,0-0.3,0-0.4-0.1c-0.1-0.1-0.2-0.1-0.3-0.2c-0.1-0.1-0.2-0.2-0.2-0.3c-0.1-0.1-0.1-0.3-0.1-0.4
		c0-0.1,0-0.3,0.1-0.4c0.1-0.1,0.1-0.2,0.2-0.3c0.1-0.1,0.2-0.2,0.3-0.2c0.1-0.1,0.3-0.1,0.4-0.1c0.1,0,0.3,0,0.4,0.1
		c0.1,0.1,0.2,0.1,0.3,0.2c0.1,0.1,0.2,0.2,0.2,0.3C311.3,126.1,311.4,126.2,311.4,126.4z M311,129v8.5h-1.5V129H311z"/>
	<path class="fill-yellow" d="M320.4,136.4c-0.2,0.2-0.4,0.4-0.7,0.6c-0.3,0.2-0.5,0.3-0.8,0.4s-0.6,0.2-0.9,0.2c-0.3,0.1-0.6,0.1-0.9,0.1
		c-0.6,0-1.1-0.1-1.6-0.3c-0.5-0.2-0.9-0.5-1.3-0.9s-0.6-0.9-0.8-1.4s-0.3-1.2-0.3-2c0-0.6,0.1-1.2,0.3-1.7c0.2-0.5,0.4-1,0.8-1.3
		c0.3-0.4,0.8-0.7,1.3-0.9c0.5-0.2,1.1-0.3,1.7-0.3c0.5,0,1,0.1,1.4,0.3c0.4,0.2,0.8,0.4,1.1,0.7c0.3,0.3,0.6,0.7,0.7,1.2
		c0.2,0.5,0.3,1,0.3,1.6c0,0.2,0,0.4-0.1,0.5c-0.1,0.1-0.1,0.1-0.3,0.1h-5.7c0,0.5,0.1,1,0.2,1.4c0.1,0.4,0.3,0.7,0.6,1
		s0.5,0.5,0.8,0.6s0.7,0.2,1.1,0.2c0.4,0,0.7,0,1-0.1s0.5-0.2,0.7-0.3c0.2-0.1,0.4-0.2,0.5-0.3s0.2-0.1,0.3-0.1c0.1,0,0.2,0,0.3,0.1
		L320.4,136.4z M319.2,132.4c0-0.3,0-0.7-0.1-1c-0.1-0.3-0.2-0.5-0.4-0.8c-0.2-0.2-0.4-0.4-0.7-0.5c-0.3-0.1-0.6-0.2-0.9-0.2
		c-0.7,0-1.3,0.2-1.7,0.6c-0.4,0.4-0.7,1-0.8,1.7H319.2z"/>
	<path class="fill-yellow" d="M323.8,130.3c0.2-0.2,0.4-0.4,0.6-0.6c0.2-0.2,0.4-0.3,0.7-0.4s0.5-0.2,0.7-0.3c0.3-0.1,0.5-0.1,0.8-0.1
		c0.5,0,0.9,0.1,1.2,0.2c0.4,0.2,0.7,0.4,0.9,0.7c0.2,0.3,0.4,0.6,0.5,1c0.1,0.4,0.2,0.8,0.2,1.3v5.4H328v-5.4
		c0-0.6-0.1-1.1-0.4-1.5c-0.3-0.4-0.7-0.5-1.3-0.5c-0.4,0-0.9,0.1-1.2,0.3c-0.4,0.2-0.7,0.5-1.1,0.9v6.3h-1.5V129h0.9
		c0.2,0,0.3,0.1,0.4,0.3L323.8,130.3z"/>
	<path class="fill-yellow" d="M337.7,130.6c0,0.1-0.1,0.1-0.1,0.1c0,0-0.1,0.1-0.2,0.1c-0.1,0-0.2,0-0.3-0.1c-0.1-0.1-0.2-0.1-0.4-0.2
		c-0.1-0.1-0.3-0.2-0.5-0.2c-0.2-0.1-0.5-0.1-0.8-0.1c-0.4,0-0.8,0.1-1.1,0.2c-0.3,0.1-0.6,0.4-0.8,0.6c-0.2,0.3-0.4,0.6-0.5,1
		c-0.1,0.4-0.2,0.8-0.2,1.3c0,0.5,0.1,1,0.2,1.4c0.1,0.4,0.3,0.7,0.5,1c0.2,0.3,0.5,0.5,0.8,0.6c0.3,0.1,0.7,0.2,1,0.2
		c0.4,0,0.7,0,0.9-0.1c0.2-0.1,0.4-0.2,0.6-0.3c0.2-0.1,0.3-0.2,0.4-0.3c0.1-0.1,0.2-0.1,0.3-0.1c0.1,0,0.2,0,0.3,0.1l0.4,0.5
		c-0.2,0.2-0.4,0.4-0.6,0.6c-0.2,0.2-0.5,0.3-0.8,0.4s-0.6,0.2-0.9,0.2s-0.6,0.1-0.9,0.1c-0.5,0-1-0.1-1.5-0.3
		c-0.5-0.2-0.9-0.5-1.2-0.9c-0.3-0.4-0.6-0.8-0.8-1.4c-0.2-0.5-0.3-1.2-0.3-1.9c0-0.6,0.1-1.2,0.3-1.8s0.4-1,0.8-1.4
		s0.8-0.7,1.3-0.9c0.5-0.2,1.1-0.3,1.7-0.3c0.6,0,1.1,0.1,1.6,0.3c0.5,0.2,0.9,0.5,1.2,0.8L337.7,130.6z"/>
	<path class="fill-yellow" d="M346.6,136.4c-0.2,0.2-0.4,0.4-0.7,0.6c-0.3,0.2-0.5,0.3-0.8,0.4s-0.6,0.2-0.9,0.2c-0.3,0.1-0.6,0.1-0.9,0.1
		c-0.6,0-1.1-0.1-1.6-0.3c-0.5-0.2-0.9-0.5-1.3-0.9s-0.6-0.9-0.8-1.4s-0.3-1.2-0.3-2c0-0.6,0.1-1.2,0.3-1.7c0.2-0.5,0.4-1,0.8-1.3
		c0.3-0.4,0.8-0.7,1.3-0.9c0.5-0.2,1.1-0.3,1.7-0.3c0.5,0,1,0.1,1.4,0.3c0.4,0.2,0.8,0.4,1.1,0.7c0.3,0.3,0.6,0.7,0.7,1.2
		c0.2,0.5,0.3,1,0.3,1.6c0,0.2,0,0.4-0.1,0.5c-0.1,0.1-0.1,0.1-0.3,0.1h-5.7c0,0.5,0.1,1,0.2,1.4c0.1,0.4,0.3,0.7,0.6,1
		s0.5,0.5,0.8,0.6s0.7,0.2,1.1,0.2c0.4,0,0.7,0,1-0.1s0.5-0.2,0.7-0.3c0.2-0.1,0.4-0.2,0.5-0.3s0.2-0.1,0.3-0.1c0.1,0,0.2,0,0.3,0.1
		L346.6,136.4z M345.4,132.4c0-0.3,0-0.7-0.1-1c-0.1-0.3-0.2-0.5-0.4-0.8c-0.2-0.2-0.4-0.4-0.7-0.5c-0.3-0.1-0.6-0.2-0.9-0.2
		c-0.7,0-1.3,0.2-1.7,0.6c-0.4,0.4-0.7,1-0.8,1.7H345.4z"/>
</g>
<path class="fill-white" d="M212.3,136.2l0-0.1l-0.1,0l-0.2-0.6l0.2,0l-0.4-1.4l-0.2,0l-0.2-0.6l-0.8,0.2l-1.9-7c0.2-0.3,0.3-0.6,0.3-1
	c0-0.8-0.5-1.5-1.3-1.8V122h-1.2v1.9c-0.7,0.3-1.3,1-1.3,1.8c0,0.4,0.1,0.8,0.4,1.1l-1.8,7l-0.3,5.9l2.6-10.1c0.7,0.2,1.4,0.2,2-0.1
	l1.9,6.9l0.8-0.2l0,0.2l-0.1,0l0.1,0.1l0,0.2l0.9,1.2l0.2-1.5L212.3,136.2z M207.3,124.9c0.5,0,0.8,0.4,0.8,0.8
	c0,0.5-0.4,0.8-0.8,0.8c-0.5,0-0.8-0.4-0.8-0.8C206.5,125.2,206.8,124.9,207.3,124.9z M206.9,127.5c0.3,0.1,0.6,0.1,0.9,0l0.3,1
	c-0.4,0.3-1,0.3-1.5,0.1L206.9,127.5z"/>
<g>
	<path class="fill-white" d="M207.7,46.8L203.8,63c0,0.2,0.3,0.3,0.4,0.2l10-10.2c0.1-0.1,0.1-0.3,0-0.4l-6.1-6
		C208,46.5,207.7,46.6,207.7,46.8z M211.8,53.1c0,0,0,0.1,0,0.2l-4.5,4.6c-0.1,0.1-0.2,0-0.2-0.1l1.8-7.3c0-0.1,0.1-0.2,0.2-0.1
		L211.8,53.1z"/>
	<path class="fill-white" d="M209.9,52l-10.4,4.5l-1.7,1.8l2.4,0l10.4-4.5L209.9,52z M198.8,58.1l-0.1-0.3l1-1.1l0.6,1.4L198.8,58.1z"/>
</g>
<g>
	<path class="fill-white" d="M206.4,85.1c-0.1,0.6,0.1,1,0.6,1.9c-1.3-1.4-1.4-2.5-1.3-2.8c-1.6,0.9-2.1,3.1-1.9,4.7
		c0.2,1.3,1.3,2.6,2.5,2.6c1.2,0,2.1-1.3,2.1-2.6C208.5,87.9,207,86.5,206.4,85.1z"/>
	<path class="fill-white" d="M209.9,99.8L209.9,99.8c-0.5,0.2-1,0-1.2-0.3l-2.6-7.7c-0.1-0.4,0.2-0.8,0.7-1l0,0c0.5-0.2,1,0,1.2,0.3
		l2.6,7.7C210.7,99.2,210.4,99.6,209.9,99.8z"/>
	<path class="fill-white" d="M205.3,99.9l7.4-9.6l0.6-2.6l-2.3,1.3l-7.4,9.6L205.3,99.9z M212.6,88.5l0.3,0.2l-0.4,1.5l-1.3-1L212.6,88.5z"
		/>
</g>
<path id="SVGID_1_DESIGN" class="fill-yellow" d="M151.6,2.9H93.3h-10H35C17.5,2.9,3.3,17.1,3.3,34.6v116.6c0,17.5,14.2,31.7,31.7,31.7h48.3h10
	h58.3c17.5,0,31.7-14.2,31.7-31.7V34.6C183.3,17.1,169.1,2.9,151.6,2.9z"/>
<g>
	<defs>
		<path id="SVGID_8_DESIGN" d="M151.9,3H93.6h-10H35.3C17.8,3,3.6,17.1,3.6,34.7v116.6c0,17.5,14.2,31.7,31.7,31.7h48.3h10h58.3
			c17.5,0,31.7-14.2,31.7-31.7V34.7C183.6,17.1,169.4,3,151.9,3z"/>
	</defs>
	<clipPath id="SVGID_14_DESIGN">
		<use xlink:href="#SVGID_8_DESIGN"  style="overflow:visible;"/>
	</clipPath>
	<g id="zHGm4z_7_" style="opacity:0.8;clip-path:url(#SVGID_14_DESIGN);">
		
			<image style="overflow:visible;" width="364" height="729" id="zHGm4z_8_" xlink:href="performance_scheme_bg.png"  transform="matrix(0.9877 0 0 0.9877 3.7488 -177.428)">
		</image>
	</g>
</g>
<g>
	<path class="fill-white" d="M56.2,100.4V81h8.3c1.4,0,2.6,0.3,3.6,0.8c1,0.5,1.7,1.2,2.3,2.1c0.6,0.9,1,1.9,1.2,3c0.2,1.1,0.4,2.3,0.4,3.5
		c0,1.2-0.1,2.4-0.4,3.6c-0.2,1.2-0.7,2.2-1.2,3.2c-0.6,0.9-1.4,1.7-2.3,2.3c-1,0.6-2.2,0.9-3.6,0.9L56.2,100.4z M64.5,99
		c1.1,0,1.9-0.3,2.6-0.8s1.3-1.2,1.7-2s0.7-1.7,0.9-2.8c0.2-1,0.3-2,0.3-3s-0.1-2-0.3-2.9c-0.2-1-0.5-1.8-0.9-2.6
		c-0.4-0.8-1-1.4-1.7-1.8s-1.6-0.7-2.7-0.7h-6.4V99L64.5,99z"/>
	<path class="fill-white" d="M86.4,99.8c-0.3,0.1-0.7,0.2-1.1,0.2s-0.9,0.2-1.4,0.2s-1,0.2-1.5,0.2c-0.5,0.1-1,0.1-1.4,0.1
		c-1.2,0-2.2-0.2-3-0.5c-0.8-0.3-1.4-0.8-1.9-1.4c-0.5-0.6-0.8-1.4-1-2.3c-0.2-0.9-0.3-1.9-0.3-3c0-1.3,0.1-2.5,0.4-3.4
		c0.3-0.9,0.7-1.7,1.2-2.2c0.5-0.6,1.1-1,1.9-1.2c0.7-0.2,1.6-0.4,2.5-0.4c2,0,3.5,0.5,4.5,1.6c1,1,1.5,2.7,1.5,5.1V94H76.8
		c0,0.9,0.1,1.7,0.2,2.3c0.1,0.7,0.4,1.2,0.7,1.7c0.3,0.5,0.8,0.8,1.3,1c0.5,0.2,1.2,0.3,2,0.3c0.4,0,0.8,0,1.3-0.1s0.9-0.1,1.4-0.2
		c0.5-0.1,0.9-0.2,1.4-0.3s0.8-0.2,1.1-0.2L86.4,99.8z M85,92.8c0-1.9-0.4-3.3-1-4.1c-0.7-0.8-1.7-1.2-3.1-1.2c-1.4,0-2.4,0.4-3,1.2
		c-0.7,0.8-1,2.2-1,4.1H85z"/>
	<path class="fill-white" d="M88.9,99c0.7,0.1,1.3,0.2,1.8,0.2c0.5,0.1,1,0.1,1.5,0.1h0.5c0.4,0,0.7-0.1,1.1-0.1c0.3-0.1,0.6-0.2,0.9-0.3
		c0.2-0.1,0.4-0.3,0.6-0.6c0.1-0.3,0.2-0.6,0.2-1.1c0-0.3-0.1-0.5-0.2-0.9c-0.1-0.3-0.3-0.6-0.6-0.9c-0.1-0.1-0.3-0.3-0.6-0.4
		c-0.2-0.2-0.5-0.4-0.8-0.6c-0.3-0.2-0.6-0.4-0.9-0.7c-0.3-0.2-0.7-0.4-1-0.7c-0.4-0.3-0.8-0.5-1.1-0.8s-0.6-0.5-0.8-0.8
		c-0.2-0.3-0.4-0.6-0.5-0.9c-0.1-0.3-0.2-0.7-0.2-1.2v-0.4c0-0.4,0.1-0.7,0.3-1c0.2-0.3,0.4-0.6,0.8-0.9c0.4-0.3,0.8-0.5,1.4-0.7
		c0.6-0.2,1.2-0.2,2-0.2c0.4,0,0.7,0,1,0c0.3,0,0.6,0,0.9,0c0.3,0,0.6,0,0.9,0.1c0.3,0,0.6,0.1,1,0.1l-0.2,1.2
		c-0.6-0.1-1.2-0.2-1.6-0.2c-0.5,0-0.9-0.1-1.4-0.1h-0.5c-0.9,0-1.6,0.2-2,0.5c-0.4,0.3-0.6,0.8-0.6,1.2v0.3c0,0.6,0.1,1.1,0.4,1.4
		c0.2,0.3,0.7,0.7,1.3,1.1c0.4,0.2,0.7,0.5,1.1,0.7c0.4,0.2,0.7,0.5,1,0.7c0.3,0.2,0.6,0.4,0.8,0.6c0.2,0.2,0.4,0.3,0.6,0.4
		c0.6,0.5,0.9,0.9,1.1,1.4c0.2,0.5,0.2,0.9,0.2,1.2c0,0.7-0.1,1.3-0.4,1.7c-0.3,0.4-0.7,0.8-1.1,1c-0.5,0.2-0.9,0.4-1.5,0.5
		c-0.5,0.1-1,0.1-1.5,0.1h-0.5c-0.5,0-1.1,0-1.7-0.1c-0.6-0.1-1.2-0.1-1.9-0.2L88.9,99z"/>
	<path class="fill-white" d="M99.9,81.1h1.9V83h-1.9V81.1z M99.9,86.5h1.9v13.8h-1.9V86.5z"/>
	<path class="fill-white" d="M104.7,103.1c0.3,0.1,0.7,0.2,1.2,0.3c0.4,0.1,0.9,0.2,1.3,0.2c0.5,0.1,0.9,0.1,1.4,0.2s0.9,0.1,1.3,0.1
		c0.7,0,1.4-0.1,1.8-0.2s0.9-0.4,1.1-0.8c0.3-0.4,0.5-0.8,0.6-1.4c0.1-0.6,0.2-1.2,0.2-2c-0.5,0.1-1,0.3-1.7,0.4
		c-0.7,0.1-1.4,0.2-2.2,0.2c-1.1,0-2-0.1-2.7-0.4c-0.7-0.3-1.3-0.7-1.7-1.2c-0.4-0.5-0.7-1.2-0.9-2c-0.2-0.8-0.2-1.7-0.2-2.8
		c0-1.3,0.1-2.4,0.3-3.3c0.2-0.9,0.6-1.7,1.1-2.3c0.5-0.6,1.3-1.1,2.2-1.4c1-0.3,2.2-0.5,3.7-0.5c0.7,0,1.4,0,2.1,0.1
		s1.3,0.1,1.9,0.1v11.9c0,1.1-0.1,2.1-0.2,2.9s-0.4,1.5-0.8,2.1c-0.4,0.6-1,1-1.7,1.3c-0.7,0.3-1.7,0.5-2.9,0.5
		c-0.5,0-0.9,0-1.5-0.1c-0.5-0.1-1-0.1-1.5-0.2c-0.5-0.1-0.9-0.2-1.4-0.3c-0.4-0.1-0.8-0.2-1.1-0.3L104.7,103.1z M113.6,87.6
		c-0.4,0-0.8,0-1.2-0.1c-0.4,0-0.8,0-1.1,0c-1.2,0-2.1,0.1-2.8,0.4s-1.2,0.6-1.6,1.1s-0.6,1.1-0.7,1.9s-0.2,1.7-0.2,2.7
		c0,0.9,0.1,1.7,0.2,2.3c0.1,0.7,0.3,1.2,0.6,1.6s0.6,0.8,1.1,1c0.5,0.2,1.1,0.3,1.9,0.3c0.8,0,1.5-0.1,2.2-0.2
		c0.7-0.2,1.3-0.3,1.8-0.5L113.6,87.6z"/>
	<path class="fill-white" d="M118.5,87.5c1.1-0.4,2.1-0.7,2.9-0.9c0.9-0.2,1.8-0.3,2.8-0.3c1.1,0,2,0.1,2.8,0.4c0.8,0.3,1.4,0.7,1.9,1.3
		c0.5,0.6,0.8,1.3,1,2.1c0.2,0.9,0.3,1.9,0.3,3v7.2h-1.9v-7.2c0-2-0.3-3.4-0.9-4.3c-0.6-0.9-1.7-1.3-3.2-1.3c-0.8,0-1.5,0.1-2.2,0.2
		c-0.7,0.2-1.3,0.3-1.7,0.5v12.2h-1.8L118.5,87.5z"/>
</g>
</svg>
