<?xml version="1.0" encoding="utf-8"?>
<!-- Generator: Adobe Illustrator 21.0.0, SVG Export Plug-In . SVG Version: 6.00 Build 0)  -->
<svg version="1.1" id="Calque_1" xmlns="http://www.w3.org/2000/svg" xmlns:xlink="http://www.w3.org/1999/xlink" x="0px" y="0px"
	 viewBox="0 0 186 186" style="enable-background:new 0 0 186 186;" xml:space="preserve">
<style type="text/css">
	.st0{fill:#10AAC7;}
	.st1{fill:#FFFFFF;}
	.st2{fill:#EA2631;}
	.st3{fill:#F1C433;}
	.st4{fill:#3E9D4B;}
</style>
<g>
	<path id="SVGID_3_" class="st0" d="M149.6,5.6H93h-9.7H36.4c-17,0-30.8,13.8-30.8,30.8v113.2c0,17,13.8,30.8,30.8,30.8h46.9H93
		h56.6c17,0,30.8-13.8,30.8-30.8V36.4C180.4,19.4,166.6,5.6,149.6,5.6z"/>
	<g>
		<g>
			<path class="st1" d="M53.2,59.2c-5-5-13.3-5-18.3,0s-5,13.3,0,18.3c4.4,4.4,11.2,5,16.2,1.7l9.5,9.5c0.6,0.6,1.5,0.6,2.1,0
				l1.7-1.7c0.6-0.6,0.6-1.5,0-2.1l-9.5-9.5C58.2,70.4,57.6,63.6,53.2,59.2z M51.4,75.7c-4,4-10.6,4-14.7,0s-4-10.6,0-14.7
				c4-4,10.6-4,14.7,0S55.5,71.6,51.4,75.7z"/>
			<g>
				<rect x="37.9" y="66.7" class="st1" width="2.7" height="7"/>
				<rect x="42.5" y="68.5" class="st1" width="2.7" height="5.2"/>
				<rect x="46.8" y="63.1" class="st1" width="2.7" height="10.6"/>
			</g>
		</g>
		<g>
			<path class="st1" d="M98.4,55.8L88.1,88.5c0,0.5,0.5,0.7,0.9,0.4l22-19.5c0.2-0.2,0.2-0.5,0-0.7L99.3,55.5
				C99,55.2,98.4,55.4,98.4,55.8z M105.9,69.2c0.1,0.1,0.1,0.2,0,0.3L96,78.3c-0.2,0.1-0.4,0-0.4-0.2l4.6-14.8
				c0-0.2,0.3-0.3,0.4-0.1L105.9,69.2z"/>
			<path class="st1" d="M102.3,66.7l-22,7.8L76.6,78l5,0.3l22-7.8L102.3,66.7z M78.5,77.7l-0.2-0.6l2.2-2.1l1,2.9L78.5,77.7z"/>
		</g>
		<path class="st1" d="M155.1,63.2l-15.7-9l-15.6,9l0.2,18l15.4,9l15.7-9.1V63.2z M124.4,81.1v-7.8l6.9,3.9v7.9L124.4,81.1z
			 M124.8,72.6l6.8-4l6.9,4l-6.9,4.1L124.8,72.6z M138.9,81l-6.9,4v-7.9l6.9-3.9V81z M132.3,67.2v-7.8l6.9,3.9v7.9L132.3,67.2z
			 M132.7,58.7l6.8-4l6.9,4l-6.9,4.1L132.7,58.7z M140,63.3l6.9-3.9v7.8l-6.9,4V63.3z M140.3,81v-7.8l6.9,3.9V85L140.3,81z
			 M140.6,72.5l6.8-4l6.9,4l-6.9,4.1L140.6,72.5z M154.8,81l-6.9,4v-7.9l6.9-3.9V81z"/>
		<path class="st1" d="M154,110.1l-4.2-3.2c-1.1-6-5.8-8.8-10.2-8.8c-2.8,0-5.4,1-7.3,2.9c-1.6,1.5-2.6,3.5-3.1,5.8l-4.2,3.3
			c-0.8,0.5-1.3,1.4-1.3,2.3v4.5c0,1.3,0.9,2.4,2.2,2.6l4,1v-10.1l0,0c0.5,0,0.9-0.4,0.9-0.9c0-6.6,4.6-9.6,8.8-9.6
			c2.3,0,4.4,0.8,5.9,2.3c1.8,1.7,2.7,4.2,2.7,7.2c0,0.5,0.4,0.9,0.9,0.9v10.1l1.8-0.4v5.8l-4,2.3c-0.3-0.3-0.7-0.4-1.2-0.4h-2.6
			c-1,0-1.8,0.8-1.8,1.8s0.8,1.8,1.8,1.8h2.6c0.9,0,1.6-0.6,1.8-1.4l5.3-3v-7.3l0.4-0.1c1.3-0.2,2.2-1.3,2.2-2.6v-4.5
			C155.3,111.5,154.8,110.6,154,110.1z"/>
		<g>
			<circle class="st1" cx="94" cy="114.1" r="4.8"/>
			<g>
				<path class="st1" d="M108.9,97.7c-1.6,0-2.9,1.3-2.9,2.9c0,0.8,0.3,1.5,0.8,2l-6.2,5c-1.7-1.7-4-2.8-6.6-2.8
					c-5.1,0-9.2,4.1-9.2,9.2c0,2.9,1.4,5.6,3.6,7.3l-1.9,3.1c-0.6-0.4-1.3-0.6-2.1-0.6c-2.2,0-4,1.8-4,4s1.8,4,4,4s4-1.8,4-4
					c0-1.2-0.6-2.3-1.4-3.1l1.9-3.1c1.5,1,3.2,1.6,5.2,1.6c5.1,0,9.2-4.1,9.2-9.2c0-2.3-0.8-4.4-2.2-6l6.3-5c0.5,0.3,1,0.5,1.7,0.5
					c1.6,0,2.9-1.3,2.9-2.9C111.8,99,110.5,97.7,108.9,97.7z M102.6,114.1c0,4.7-3.9,8.6-8.6,8.6s-8.6-3.9-8.6-8.6
					c0-4.7,3.9-8.6,8.6-8.6S102.6,109.4,102.6,114.1z"/>
				<path class="st1" d="M84.6,105.6c0.6-0.8,0.9-1.8,0.9-2.8c0-2.6-2.1-4.7-4.7-4.7s-4.7,2.1-4.7,4.7s2.1,4.7,4.7,4.7
					c1.3,0,2.5-0.6,3.4-1.4l2.6,2.2l0.4-0.5L84.6,105.6z"/>
			</g>
		</g>
		<g>
			<path class="st1" d="M65.4,125.5v-21.4c0-1.6-1.3-2.9-2.9-2.9h-29c-1.6,0-2.9,1.3-2.9,2.9v21.4c0,1.6,1.3,2.9,2.9,2.9h29
				C64.1,128.4,65.4,127.1,65.4,125.5z M62.1,102.4c0.8,0,1.5,0.6,1.5,1.5c0,0.8-0.6,1.5-1.5,1.5c-0.8,0-1.5-0.6-1.5-1.5
				C60.7,103,61.3,102.4,62.1,102.4z M33.3,102.6h20.1c0.7,0,1.2,0.6,1.2,1.2c0,0.7-0.6,1.2-1.2,1.2H33.3c-0.7,0-1.2-0.6-1.2-1.2
				C32.1,103.1,32.6,102.6,33.3,102.6z M33.4,127c-0.7,0-1.2-0.6-1.2-1.2v-18.2c0-0.7,0.6-1.2,1.2-1.2h29.1c0.7,0,1.2,0.6,1.2,1.2
				v18.2c0,0.7-0.6,1.2-1.2,1.2H33.4z"/>
			<g>
				<g>
					<polygon class="st1" points="44.7,118.2 41.3,116.7 41.3,116.7 44.7,115.2 44.7,114.2 40.2,116.3 40.2,117.1 44.7,119.2 					
						"/>
					<polygon class="st1" points="50.4,112.7 49.4,112.7 47.4,119.6 48.3,119.6 					"/>
					<polygon class="st1" points="55.5,116.3 50.9,114.2 50.9,115.2 54.4,116.7 54.4,116.7 50.9,118.2 50.9,119.2 55.5,117.1 					
						"/>
				</g>
			</g>
		</g>
	</g>
</g>
</svg>
