<?xml version="1.0" encoding="utf-8"?>
<!-- Generator: Adobe Illustrator 21.0.0, SVG Export Plug-In . SVG Version: 6.00 Build 0)  -->
<svg version="1.1" id="Calque_1" xmlns="http://www.w3.org/2000/svg" xmlns:xlink="http://www.w3.org/1999/xlink" x="0px" y="0px"
	 viewBox="0 0 186 186" style="enable-background:new 0 0 186 186;" xml:space="preserve">
<style type="text/css">
	.st0{fill:#10AAC7;}
	.st1{fill:#FFFFFF;}
	.st2{fill:#EA2631;}
	.st3{fill:#F1C433;}
	.st4{fill:#3E9D4B;}
</style>
<g>
	<path id="SVGID_5_" class="st4" d="M149.6,5.6H93h-9.7H36.4c-17,0-30.8,13.8-30.8,30.8v113.2c0,17,13.8,30.8,30.8,30.8h46.9H93
		h56.6c17,0,30.8-13.8,30.8-30.8V36.4C180.4,19.4,166.6,5.6,149.6,5.6z"/>
	<g>
		<path class="st1" d="M49.8,101c-0.3-0.3-0.9-0.1-0.9,0.4l-3.4,13.9L32.2,121l-3.4,3.7l5-0.1l10.5-4.5l-3.4,14.2
			c0,0.5,0.6,0.7,0.9,0.4L62.2,114c0.2-0.2,0.2-0.5,0-0.7L49.8,101z M30.8,124.2l-0.3-0.6l2-2.2l1.2,2.8L30.8,124.2z M48,123.7
			c-0.1,0.1-0.4,0-0.4-0.2l1.3-5.5l6.1-2.7l-1.6-3.7l-3.4,1.5l1.1-4.6c0-0.2,0.3-0.3,0.4-0.2l5.6,5.6c0.1,0.1,0.1,0.2,0,0.3
			L48,123.7z"/>
		<circle class="st1" cx="144.8" cy="114.4" r="5.3"/>
		<path class="st1" d="M161.2,96.4c-1.8,0-3.2,1.4-3.2,3.2c0,0.9,0.3,1.6,0.9,2.2l-6.8,5.5c-1.8-1.9-4.4-3-7.2-3
			c-5.6,0-10.1,4.5-10.1,10.1c0,3.2,1.5,6.1,3.9,8l-2.1,3.4c-0.7-0.4-1.5-0.7-2.3-0.7c-2.4,0-4.4,2-4.4,4.4c0,2.4,2,4.4,4.4,4.4
			s4.4-2,4.4-4.4c0-1.3-0.6-2.6-1.6-3.4l2-3.4c1.6,1.1,3.6,1.7,5.7,1.7c5.6,0,10.1-4.5,10.1-10.1c0-2.5-0.9-4.8-2.5-6.6l6.9-5.5
			c0.5,0.4,1.2,0.6,1.8,0.6c1.8,0,3.2-1.4,3.2-3.2C164.4,97.9,162.9,96.4,161.2,96.4z M154.2,114.4c0,5.2-4.2,9.5-9.5,9.5
			c-5.2,0-9.5-4.2-9.5-9.5c0-5.2,4.2-9.5,9.5-9.5C150,105,154.2,109.2,154.2,114.4z"/>
		<path class="st1" d="M134,105.7l2.9,2.4l0.4-0.5l-2.9-2.4c0.6-0.9,1-1.9,1-3.1c0-2.9-2.3-5.2-5.2-5.2s-5.2,2.3-5.2,5.2
			c0,2.9,2.3,5.2,5.2,5.2C131.7,107.2,133,106.6,134,105.7z"/>
		<path class="st1" d="M82.2,55.3h27.2c1.5,0,2.7-1.2,2.7-2.7v-20c0-1.5-1.2-2.7-2.7-2.7H82.3c-1.5,0-2.7,1.2-2.7,2.7v20
			C79.5,54.1,80.8,55.3,82.2,55.3z M110.6,52.8c0,0.6-0.5,1.2-1.2,1.2H82.1c-0.6,0-1.2-0.5-1.2-1.2v-17c0-0.6,0.5-1.2,1.2-1.2h27.3
			c0.6,0,1.2,0.5,1.2,1.2V52.8z M109.1,30.9c0.8,0,1.4,0.6,1.4,1.4c0,0.8-0.6,1.4-1.4,1.4s-1.4-0.6-1.4-1.4
			C107.7,31.5,108.3,30.9,109.1,30.9z M82.1,31.1h18.8c0.6,0,1.2,0.5,1.2,1.2c0,0.6-0.5,1.2-1.2,1.2H82.1c-0.6,0-1.2-0.5-1.2-1.2
			S81.4,31.1,82.1,31.1z"/>
		<polygon class="st1" points="84.7,45.2 91.2,48.2 91.2,46.8 86.3,44.6 86.3,44.6 91.2,42.4 91.2,41 84.7,44 		"/>
		<polygon class="st1" points="95,48.8 96.4,48.8 99.3,38.9 97.9,38.9 		"/>
		<polygon class="st1" points="100.1,42.4 105.1,44.6 105.1,44.6 100.1,46.8 100.1,48.2 106.6,45.2 106.6,44 100.1,41 		"/>
		<path class="st1" d="M141.4,73.9l-8.9-2.5l15,20.2l3.5-24.9l-6.6,6.5c-4.8-10.6-13-19.5-23.4-25l-1.4,2.6
			C129.2,55.8,136.8,64,141.4,73.9z"/>
		<path class="st1" d="M45.6,91.6c0.7-10.9,5.1-21.2,12.2-29.4l1.3,9.1l12.3-22l-24.2,7.1l8.7,3.4c-7.8,8.8-12.5,19.9-13.3,31.6
			L45.6,91.6z"/>
		<path class="st1" d="M89.4,144.9l6.9-6.1l-25.1,1.8l19.2,16.3l-2-9.1c2.4,0.3,4.9,0.6,7.4,0.6c9.2,0,18.3-2.4,26.3-7l-1.4-2.5
			C111.2,144.1,100.1,146.2,89.4,144.9z"/>
	</g>
</g>
</svg>
