<?xml version="1.0" encoding="utf-8"?>
<!-- Generator: Adobe Illustrator 21.0.0, SVG Export Plug-In . SVG Version: 6.00 Build 0)  -->
<svg version="1.1" id="Calque_1" xmlns="http://www.w3.org/2000/svg" xmlns:xlink="http://www.w3.org/1999/xlink" x="0px" y="0px"
	 viewBox="0 0 363 185.8" style="enable-background:new 0 0 363 185.8;" xml:space="preserve">
<style type="text/css">
	.fill-white{fill:#FFFFFF;}
	.st2-discover{clip-path:url(#SVGID_12_DISCOVER);}
	.fill-green{fill:#3E9D4B;}
	.opacity30{opacity:0.3;}
</style>
<path class="fill-green" d="M59.8,127.3L72.1,115c1.8-1.8,1.8-4.8,0-6.7L59.8,96c-1.8-2-1.7-5.1,0.2-7c0,0,0,0,0,0l12-12
	c1.8-1.8,1.8-4.8,0-6.7L59.8,58c-1.8-1.8-4.8-1.8-6.7,0L40.8,70.3c-1.8,1.8-1.8,4.8,0,6.7l12,12c0,0,0,0,0,0c1.9,1.9,2,5,0.2,7
	l-12.3,12.3c-1.8,1.8-1.8,4.8,0,6.7l12.3,12.3C54.9,129.2,57.9,129.2,59.8,127.3z"/>
<g>
	<path class="fill-green" d="M89.1,72.3c0,0.9-0.1,1.7-0.4,2.5c-0.3,0.7-0.7,1.4-1.2,1.9s-1.2,0.9-1.9,1.2c-0.7,0.3-1.5,0.4-2.4,0.4h-4.5
		V66.3h4.5c0.9,0,1.7,0.1,2.4,0.4s1.4,0.7,1.9,1.2c0.5,0.5,0.9,1.2,1.2,1.9C89,70.6,89.1,71.4,89.1,72.3z M87.5,72.3
		c0-0.7-0.1-1.4-0.3-2c-0.2-0.6-0.5-1.1-0.9-1.5c-0.4-0.4-0.8-0.7-1.3-0.9c-0.5-0.2-1.1-0.3-1.8-0.3h-2.9V77h2.9
		c0.7,0,1.2-0.1,1.8-0.3c0.5-0.2,1-0.5,1.3-0.9c0.4-0.4,0.7-0.9,0.9-1.5C87.4,73.7,87.5,73,87.5,72.3z"/>
	<path class="fill-green" d="M92.9,67.1c0,0.1,0,0.3-0.1,0.4c-0.1,0.1-0.1,0.2-0.2,0.3c-0.1,0.1-0.2,0.2-0.3,0.2c-0.1,0.1-0.3,0.1-0.4,0.1
		c-0.1,0-0.3,0-0.4-0.1c-0.1-0.1-0.2-0.1-0.3-0.2c-0.1-0.1-0.2-0.2-0.2-0.3c-0.1-0.1-0.1-0.3-0.1-0.4c0-0.1,0-0.3,0.1-0.4
		c0.1-0.1,0.1-0.2,0.2-0.3c0.1-0.1,0.2-0.2,0.3-0.2c0.1-0.1,0.3-0.1,0.4-0.1c0.1,0,0.3,0,0.4,0.1c0.1,0.1,0.2,0.1,0.3,0.2
		c0.1,0.1,0.2,0.2,0.2,0.3C92.9,66.8,92.9,67,92.9,67.1z M92.6,69.8v8.5h-1.5v-8.5H92.6z"/>
	<path class="fill-green" d="M100,71.2c-0.1,0.1-0.2,0.2-0.3,0.2c-0.1,0-0.2,0-0.3-0.1c-0.1-0.1-0.2-0.1-0.4-0.2c-0.2-0.1-0.3-0.1-0.6-0.2
		s-0.5-0.1-0.8-0.1c-0.3,0-0.5,0-0.7,0.1c-0.2,0.1-0.4,0.2-0.5,0.3c-0.1,0.1-0.3,0.2-0.3,0.4c-0.1,0.1-0.1,0.3-0.1,0.5
		c0,0.2,0.1,0.4,0.2,0.5c0.1,0.1,0.3,0.3,0.5,0.4c0.2,0.1,0.4,0.2,0.7,0.3c0.3,0.1,0.5,0.2,0.8,0.3s0.5,0.2,0.8,0.3
		c0.3,0.1,0.5,0.3,0.7,0.4c0.2,0.2,0.4,0.4,0.5,0.6c0.1,0.2,0.2,0.5,0.2,0.9c0,0.4-0.1,0.8-0.2,1.1c-0.1,0.3-0.3,0.6-0.6,0.9
		s-0.6,0.4-1,0.6c-0.4,0.1-0.9,0.2-1.4,0.2c-0.6,0-1.1-0.1-1.6-0.3c-0.5-0.2-0.9-0.4-1.2-0.7l0.4-0.6c0-0.1,0.1-0.1,0.2-0.2
		c0.1,0,0.1-0.1,0.2-0.1c0.1,0,0.2,0,0.3,0.1c0.1,0.1,0.2,0.2,0.4,0.3s0.4,0.2,0.6,0.3c0.2,0.1,0.5,0.1,0.9,0.1c0.3,0,0.5,0,0.8-0.1
		s0.4-0.2,0.5-0.3s0.3-0.3,0.3-0.4c0.1-0.2,0.1-0.3,0.1-0.5c0-0.2-0.1-0.4-0.2-0.6c-0.1-0.2-0.3-0.3-0.5-0.4
		c-0.2-0.1-0.4-0.2-0.7-0.3c-0.3-0.1-0.5-0.2-0.8-0.3s-0.6-0.2-0.8-0.3s-0.5-0.3-0.7-0.4s-0.4-0.4-0.5-0.6c-0.1-0.3-0.2-0.6-0.2-0.9
		c0-0.3,0.1-0.6,0.2-0.9s0.3-0.6,0.6-0.8c0.3-0.2,0.6-0.4,1-0.5c0.4-0.1,0.8-0.2,1.3-0.2c0.6,0,1.1,0.1,1.5,0.3
		c0.4,0.2,0.8,0.4,1.2,0.7L100,71.2z"/>
	<path class="fill-green" d="M108.3,71.3c0,0.1-0.1,0.1-0.1,0.1c0,0-0.1,0.1-0.2,0.1c-0.1,0-0.2,0-0.3-0.1c-0.1-0.1-0.2-0.1-0.4-0.2
		c-0.1-0.1-0.3-0.2-0.5-0.2c-0.2-0.1-0.5-0.1-0.8-0.1c-0.4,0-0.8,0.1-1.1,0.2c-0.3,0.1-0.6,0.4-0.8,0.6c-0.2,0.3-0.4,0.6-0.5,1
		c-0.1,0.4-0.2,0.8-0.2,1.3c0,0.5,0.1,1,0.2,1.4c0.1,0.4,0.3,0.7,0.5,1c0.2,0.3,0.5,0.5,0.8,0.6c0.3,0.1,0.7,0.2,1,0.2
		c0.4,0,0.7,0,0.9-0.1c0.2-0.1,0.4-0.2,0.6-0.3c0.2-0.1,0.3-0.2,0.4-0.3c0.1-0.1,0.2-0.1,0.3-0.1c0.1,0,0.2,0,0.3,0.1l0.4,0.5
		c-0.2,0.2-0.4,0.4-0.6,0.6c-0.2,0.2-0.5,0.3-0.8,0.4s-0.6,0.2-0.9,0.2s-0.6,0.1-0.9,0.1c-0.5,0-1-0.1-1.5-0.3
		c-0.5-0.2-0.9-0.5-1.2-0.9c-0.3-0.4-0.6-0.8-0.8-1.4c-0.2-0.5-0.3-1.2-0.3-1.9c0-0.6,0.1-1.2,0.3-1.8s0.4-1,0.8-1.4
		s0.8-0.7,1.3-0.9c0.5-0.2,1.1-0.3,1.7-0.3c0.6,0,1.1,0.1,1.6,0.3c0.5,0.2,0.9,0.5,1.2,0.8L108.3,71.3z"/>
	<path class="fill-green" d="M113.8,69.7c0.6,0,1.2,0.1,1.7,0.3s0.9,0.5,1.3,0.9c0.4,0.4,0.6,0.8,0.8,1.4s0.3,1.1,0.3,1.8
		c0,0.7-0.1,1.3-0.3,1.8c-0.2,0.5-0.5,1-0.8,1.4c-0.4,0.4-0.8,0.7-1.3,0.9s-1.1,0.3-1.7,0.3c-0.6,0-1.2-0.1-1.7-0.3
		s-0.9-0.5-1.3-0.9c-0.4-0.4-0.6-0.8-0.8-1.4c-0.2-0.5-0.3-1.1-0.3-1.8c0-0.7,0.1-1.3,0.3-1.8s0.5-1,0.8-1.4
		c0.4-0.4,0.8-0.7,1.3-0.9S113.2,69.7,113.8,69.7z M113.8,77.3c0.8,0,1.5-0.3,1.9-0.8s0.6-1.4,0.6-2.4c0-1-0.2-1.8-0.6-2.4
		s-1-0.9-1.9-0.9c-0.4,0-0.8,0.1-1.1,0.2c-0.3,0.1-0.6,0.4-0.8,0.6s-0.4,0.6-0.5,1c-0.1,0.4-0.2,0.9-0.2,1.4c0,1,0.2,1.8,0.6,2.4
		S113,77.3,113.8,77.3z"/>
	<path class="fill-green" d="M126.9,69.8l-3.5,8.5H122l-3.5-8.5h1.2c0.1,0,0.2,0,0.3,0.1c0.1,0.1,0.1,0.1,0.2,0.2l2.2,5.5
		c0.1,0.2,0.1,0.4,0.2,0.6c0,0.2,0.1,0.4,0.1,0.6c0-0.2,0.1-0.4,0.1-0.6c0.1-0.2,0.1-0.4,0.2-0.6l2.2-5.5c0-0.1,0.1-0.2,0.2-0.2
		c0.1-0.1,0.2-0.1,0.3-0.1H126.9z"/>
	<path class="fill-green" d="M134.9,77.1c-0.2,0.2-0.4,0.4-0.7,0.6c-0.3,0.2-0.5,0.3-0.8,0.4s-0.6,0.2-0.9,0.2c-0.3,0.1-0.6,0.1-0.9,0.1
		c-0.6,0-1.1-0.1-1.6-0.3c-0.5-0.2-0.9-0.5-1.3-0.9s-0.6-0.9-0.8-1.4c-0.2-0.6-0.3-1.2-0.3-2c0-0.6,0.1-1.2,0.3-1.7
		c0.2-0.5,0.4-1,0.8-1.3c0.3-0.4,0.8-0.7,1.3-0.9c0.5-0.2,1.1-0.3,1.7-0.3c0.5,0,1,0.1,1.4,0.3c0.4,0.2,0.8,0.4,1.1,0.7
		c0.3,0.3,0.6,0.7,0.7,1.2c0.2,0.5,0.3,1,0.3,1.6c0,0.2,0,0.4-0.1,0.5c-0.1,0.1-0.1,0.1-0.3,0.1H129c0,0.5,0.1,1,0.2,1.4
		c0.1,0.4,0.3,0.7,0.6,1s0.5,0.5,0.8,0.6s0.7,0.2,1.1,0.2c0.4,0,0.7,0,1-0.1s0.5-0.2,0.7-0.3c0.2-0.1,0.4-0.2,0.5-0.3
		s0.2-0.1,0.3-0.1c0.1,0,0.2,0,0.3,0.1L134.9,77.1z M133.7,73.1c0-0.3,0-0.7-0.1-1c-0.1-0.3-0.2-0.5-0.4-0.8
		c-0.2-0.2-0.4-0.4-0.7-0.5c-0.3-0.1-0.6-0.2-0.9-0.2c-0.7,0-1.3,0.2-1.7,0.6c-0.4,0.4-0.7,1-0.8,1.7H133.7z"/>
	<path class="fill-green" d="M138.3,71.5c0.3-0.6,0.6-1,1-1.4c0.4-0.3,0.9-0.5,1.4-0.5c0.2,0,0.4,0,0.5,0.1s0.3,0.1,0.4,0.2l-0.1,1.1
		c0,0.1-0.1,0.2-0.3,0.2c-0.1,0-0.2,0-0.3,0c-0.2,0-0.3-0.1-0.5-0.1c-0.3,0-0.5,0-0.7,0.1c-0.2,0.1-0.4,0.2-0.6,0.3
		c-0.2,0.2-0.3,0.3-0.4,0.6s-0.3,0.5-0.4,0.8v5.4h-1.5v-8.5h0.9c0.2,0,0.3,0,0.3,0.1s0.1,0.2,0.1,0.3L138.3,71.5z"/>
</g>
<g>
	<path class="fill-green" d="M88.5,116.1h-1.3c-0.1,0-0.3,0-0.4-0.1s-0.2-0.2-0.2-0.3l-1.1-2.9h-5.4l-1.1,2.9c0,0.1-0.1,0.2-0.2,0.3
		c-0.1,0.1-0.2,0.1-0.4,0.1h-1.3L82,104h1.7L88.5,116.1z M85.1,111.6l-1.9-4.9c-0.1-0.1-0.1-0.3-0.2-0.5c-0.1-0.2-0.1-0.4-0.2-0.6
		c-0.1,0.5-0.2,0.8-0.4,1.1l-1.9,4.9H85.1z"/>
	<path class="fill-green" d="M96.5,107.5v8.5h-0.9c-0.2,0-0.3-0.1-0.4-0.3l-0.1-0.9c-0.4,0.4-0.8,0.7-1.2,1c-0.5,0.2-1,0.4-1.6,0.4
		c-0.5,0-0.9-0.1-1.2-0.2c-0.4-0.2-0.7-0.4-0.9-0.7c-0.2-0.3-0.4-0.6-0.5-1c-0.1-0.4-0.2-0.8-0.2-1.3v-5.4h1.5v5.4
		c0,0.6,0.1,1.1,0.4,1.5s0.7,0.5,1.4,0.5c0.4,0,0.9-0.1,1.2-0.3s0.7-0.5,1.1-0.9v-6.3H96.5z"/>
	<path class="fill-green" d="M106,103.7v12.4h-0.9c-0.2,0-0.3-0.1-0.4-0.3l-0.1-1c-0.4,0.4-0.8,0.8-1.2,1.1c-0.5,0.3-1,0.4-1.6,0.4
		c-0.5,0-0.9-0.1-1.3-0.3c-0.4-0.2-0.7-0.5-1-0.8c-0.3-0.4-0.5-0.8-0.6-1.4c-0.2-0.5-0.2-1.2-0.2-1.9c0-0.6,0.1-1.2,0.3-1.8
		s0.4-1,0.7-1.4c0.3-0.4,0.7-0.7,1.2-0.9s1-0.3,1.5-0.3c0.5,0,1,0.1,1.3,0.3c0.4,0.2,0.7,0.4,1,0.7v-4.7H106z M104.5,109.6
		c-0.3-0.4-0.6-0.6-0.9-0.8c-0.3-0.1-0.7-0.2-1.1-0.2c-0.8,0-1.4,0.3-1.8,0.9s-0.6,1.4-0.6,2.4c0,0.6,0,1,0.1,1.4s0.2,0.7,0.4,1
		s0.4,0.4,0.7,0.6s0.6,0.2,0.9,0.2c0.5,0,0.9-0.1,1.3-0.3c0.4-0.2,0.7-0.5,1-1V109.6z"/>
	<path class="fill-green" d="M110.3,104.9c0,0.1,0,0.3-0.1,0.4c-0.1,0.1-0.1,0.2-0.2,0.3c-0.1,0.1-0.2,0.2-0.3,0.2
		c-0.1,0.1-0.3,0.1-0.4,0.1c-0.1,0-0.3,0-0.4-0.1c-0.1-0.1-0.2-0.1-0.3-0.2c-0.1-0.1-0.2-0.2-0.2-0.3c-0.1-0.1-0.1-0.3-0.1-0.4
		c0-0.1,0-0.3,0.1-0.4c0.1-0.1,0.1-0.2,0.2-0.3c0.1-0.1,0.2-0.2,0.3-0.2c0.1-0.1,0.3-0.1,0.4-0.1c0.1,0,0.3,0,0.4,0.1
		c0.1,0.1,0.2,0.1,0.3,0.2c0.1,0.1,0.2,0.2,0.2,0.3C110.2,104.6,110.3,104.7,110.3,104.9z M109.9,107.5v8.5h-1.5v-8.5H109.9z"/>
	<path class="fill-green" d="M115,116.2c-0.7,0-1.2-0.2-1.6-0.6c-0.4-0.4-0.5-0.9-0.5-1.6v-5.2h-1c-0.1,0-0.2,0-0.2-0.1s-0.1-0.1-0.1-0.2
		v-0.6l1.4-0.2l0.3-2.6c0-0.1,0.1-0.2,0.1-0.2c0.1-0.1,0.1-0.1,0.2-0.1h0.8v2.9h2.5v1.1h-2.5v5.1c0,0.4,0.1,0.6,0.3,0.8
		c0.2,0.2,0.4,0.3,0.7,0.3c0.2,0,0.3,0,0.4-0.1c0.1,0,0.2-0.1,0.3-0.1c0.1-0.1,0.2-0.1,0.2-0.1c0.1,0,0.1-0.1,0.2-0.1
		c0.1,0,0.1,0,0.2,0.1l0.4,0.7c-0.3,0.2-0.6,0.4-0.9,0.6S115.4,116.2,115,116.2z"/>
</g>
<g>
	<path class="fill-white" d="M56.6,65.7c-4.4,0-8,3.6-8,8c0,4.4,3.6,8,8,8s8-3.6,8-8C64.6,69.3,61,65.7,56.6,65.7z M56.6,80.2
		c-3.6,0-6.4-2.9-6.4-6.4s2.9-6.4,6.4-6.4c3.6,0,6.4,2.9,6.4,6.4S60.2,80.2,56.6,80.2z"/>
	<g>
		<rect x="56.2" y="67.6" class="fill-white" width="0.9" height="2.3"/>
	</g>
	<g>
		<rect x="60.4" y="73.3" class="fill-white" width="2.3" height="0.9"/>
	</g>
	<g>
		<rect x="56.2" y="77.5" class="fill-white" width="0.9" height="2.3"/>
	</g>
	<g>
		<rect x="50.5" y="73.3" class="fill-white" width="2.3" height="0.9"/>
	</g>
	<g>
		<g>
			<path class="fill-white" d="M55.6,73.8l-2-2.7c-0.2-0.2,0.1-0.5,0.4-0.4l2.7,2c0.1,0.1,0.1,0.3,0,0.4L56,73.8
				C55.9,73.9,55.7,73.9,55.6,73.8z"/>
		</g>
		<g>
			<path class="fill-white" d="M59.5,76.6c-0.2,0.2-0.4,0.2-0.6,0l-2.6-2c-0.1-0.1-0.2-0.2-0.2-0.3c0-0.1,0-0.3,0.1-0.3l0.6-0.6
				c0.1-0.1,0.2-0.1,0.3-0.1c0.1,0,0.3,0.1,0.3,0.2l0,0l2,2.6C59.7,76.2,59.7,76.5,59.5,76.6z M56.5,74.3l2.6,2c0,0,0,0,0.1,0
				c0,0,0,0,0-0.1l-2-2.6c0,0,0,0,0,0L56.5,74.3L56.5,74.3L56.5,74.3z"/>
		</g>
		<g>
			<ellipse transform="matrix(0.7071 -0.7071 0.7071 0.7071 -35.58 61.7003)" class="fill-white" cx="56.7" cy="73.8" rx="1.1" ry="1.1"/>
		</g>
	</g>
</g>
<g>
	<path class="fill-white" d="M57.9,105.2c-2.4-2.4-6.4-2.4-8.8,0c-2.4,2.4-2.4,6.4,0,8.8c2.1,2.1,5.4,2.4,7.8,0.8l4.6,4.6
		c0.3,0.3,0.7,0.3,1,0l0.8-0.8c0.3-0.3,0.3-0.7,0-1l-4.6-4.6C60.3,110.6,60,107.3,57.9,105.2z M57,113.1c-2,2-5.1,2-7.1,0
		c-2-2-2-5.1,0-7.1c2-2,5.1-2,7.1,0C59,108,59,111.2,57,113.1z"/>
	<g>
		<rect x="50.5" y="108.8" class="fill-white" width="1.3" height="3.4"/>
		<rect x="52.7" y="109.7" class="fill-white" width="1.3" height="2.5"/>
		<rect x="54.8" y="107.1" class="fill-white" width="1.3" height="5.1"/>
	</g>
</g>
<path id="SVGID_2_DISCOVER" class="fill-green" d="M327.9,2h-58.3h-10h-48.3c-17.5,0-31.7,14.2-31.7,31.7v116.6c0,17.5,14.2,31.7,31.7,31.7h48.3h10
	h58.3c17.5,0,31.7-14.2,31.7-31.7V33.7C359.6,16.1,345.4,2,327.9,2z"/>
<g>
	<defs>
		<path id="SVGID_7_DISCOVER" d="M327.9,2h-58.3h-10h-48.3c-17.5,0-31.7,14.2-31.7,31.7v116.6c0,17.5,14.2,31.7,31.7,31.7h48.3h10h58.3
			c17.5,0,31.7-14.2,31.7-31.7V33.7C359.6,16.1,345.4,2,327.9,2z"/>
	</defs>
	<clipPath id="SVGID_13_DISCOVER">
		<use xlink:href="#SVGID_7_DISCOVER"  style="overflow:visible;"/>
	</clipPath>
	<g id="zHGm4z_2_" style="opacity:0.8;clip-path:url(#SVGID_13_DISCOVER);">
		
			<image style="overflow:visible;" width="364" height="729" id="zHGm4z_4_" xlink:href="performance_scheme_bg.png"  transform="matrix(0.9877 0 0 0.9877 -0.1883 2)">
		</image>
	</g>
</g>
<g>
	<path class="fill-white" d="M223.1,102.4V83h8.3c1.4,0,2.6,0.3,3.6,0.8c1,0.5,1.7,1.2,2.3,2.1c0.6,0.9,1,1.9,1.2,3
		c0.2,1.1,0.4,2.3,0.4,3.5c0,1.2-0.1,2.4-0.4,3.6c-0.2,1.2-0.7,2.2-1.2,3.2c-0.6,0.9-1.4,1.7-2.3,2.3c-1,0.6-2.2,0.9-3.6,0.9
		L223.1,102.4z M231.4,101c1.1,0,1.9-0.3,2.6-0.8c0.7-0.5,1.3-1.2,1.7-2c0.4-0.8,0.7-1.7,0.9-2.8c0.2-1,0.3-2,0.3-3
		c0-1-0.1-2-0.3-2.9s-0.5-1.8-0.9-2.6c-0.4-0.8-1-1.4-1.7-1.8c-0.7-0.5-1.6-0.7-2.7-0.7H225V101L231.4,101z"/>
	<path class="fill-white" d="M242.5,83.1h1.9V85h-1.9V83.1z M242.5,88.5h1.9v13.8h-1.9V88.5z"/>
	<path class="fill-white" d="M246.9,101c0.7,0.1,1.3,0.2,1.8,0.2c0.5,0.1,1,0.1,1.5,0.1h0.5c0.4,0,0.7-0.1,1.1-0.1c0.3-0.1,0.6-0.2,0.9-0.3
		c0.2-0.1,0.4-0.3,0.6-0.6c0.1-0.3,0.2-0.6,0.2-1.1c0-0.3-0.1-0.5-0.2-0.9c-0.1-0.3-0.3-0.6-0.6-0.9c-0.1-0.1-0.3-0.3-0.6-0.4
		c-0.2-0.2-0.5-0.4-0.8-0.6c-0.3-0.2-0.6-0.4-0.9-0.7c-0.3-0.2-0.7-0.4-1-0.7c-0.4-0.3-0.8-0.5-1.1-0.8c-0.3-0.2-0.6-0.5-0.8-0.8
		s-0.4-0.6-0.5-0.9c-0.1-0.3-0.2-0.7-0.2-1.2v-0.4c0-0.4,0.1-0.7,0.3-1c0.2-0.3,0.4-0.6,0.8-0.9c0.4-0.3,0.8-0.5,1.4-0.7
		c0.6-0.2,1.2-0.2,2-0.2c0.4,0,0.7,0,1,0c0.3,0,0.6,0,0.9,0c0.3,0,0.6,0,0.9,0.1c0.3,0,0.6,0.1,1,0.1l-0.2,1.2
		c-0.6-0.1-1.2-0.2-1.6-0.2c-0.5,0-0.9-0.1-1.4-0.1h-0.5c-0.9,0-1.6,0.2-2,0.5c-0.4,0.3-0.6,0.8-0.6,1.2v0.3c0,0.6,0.1,1.1,0.4,1.4
		c0.2,0.3,0.7,0.7,1.3,1.1c0.4,0.2,0.7,0.5,1.1,0.7c0.4,0.2,0.7,0.5,1,0.7c0.3,0.2,0.6,0.4,0.8,0.6c0.2,0.2,0.4,0.3,0.6,0.4
		c0.6,0.5,0.9,0.9,1.1,1.4s0.2,0.9,0.2,1.2c0,0.7-0.1,1.3-0.4,1.7c-0.3,0.4-0.7,0.8-1.1,1c-0.5,0.2-0.9,0.4-1.5,0.5
		c-0.5,0.1-1,0.1-1.5,0.1h-0.5c-0.5,0-1.1,0-1.7-0.1c-0.6-0.1-1.2-0.1-1.9-0.2L246.9,101z"/>
	<path class="fill-white" d="M267.5,102c-0.1,0-0.3,0.1-0.6,0.1c-0.3,0.1-0.6,0.1-1,0.2c-0.4,0.1-0.8,0.1-1.2,0.2c-0.4,0.1-0.8,0.1-1.1,0.1
		c-1.3,0.1-2.4,0-3.2-0.3c-0.8-0.2-1.5-0.7-2-1.2c-0.5-0.6-0.8-1.3-1-2.3c-0.2-0.9-0.3-2-0.3-3.4c0-1.3,0.1-2.4,0.3-3.4
		s0.5-1.7,1-2.3c0.5-0.6,1.1-1,2-1.2c0.8-0.2,1.9-0.3,3.2-0.3c0.3,0,0.7,0.1,1.1,0.1s0.8,0.1,1.2,0.2c0.4,0.1,0.7,0.1,1,0.2
		c0.3,0.1,0.5,0.1,0.6,0.1l-0.1,1.2c-0.1,0-0.2,0-0.5-0.1c-0.3,0-0.7-0.1-1.1-0.2c-0.4-0.1-0.8-0.1-1.2-0.2
		c-0.4-0.1-0.8-0.1-1.1-0.1c-0.9,0-1.7,0-2.3,0.2c-0.6,0.2-1,0.5-1.4,1s-0.5,1.1-0.7,1.9c-0.1,0.8-0.2,1.7-0.2,2.8
		c0,1.1,0.1,2,0.2,2.8c0.1,0.8,0.3,1.4,0.7,1.9c0.3,0.5,0.8,0.8,1.4,1s1.4,0.3,2.3,0.2c0.3,0,0.6-0.1,1-0.1c0.4-0.1,0.8-0.1,1.2-0.2
		c0.4-0.1,0.7-0.1,1.1-0.2c0.3-0.1,0.5-0.1,0.6-0.1L267.5,102z"/>
	<path class="fill-white" d="M275.4,88.3c1,0,1.9,0.1,2.6,0.4c0.8,0.3,1.4,0.7,1.9,1.2s0.9,1.3,1.2,2.1c0.3,0.9,0.4,1.9,0.4,3.2
		c0,1.3-0.1,2.4-0.3,3.3c-0.2,0.9-0.5,1.7-1,2.3c-0.5,0.6-1.1,1.1-1.9,1.4c-0.8,0.3-1.8,0.4-3,0.4c-1.2,0-2.3-0.1-3.1-0.4
		c-0.8-0.3-1.5-0.7-1.9-1.3s-0.8-1.4-1-2.3c-0.2-1-0.3-2.1-0.3-3.5c0-1.3,0.1-2.3,0.4-3.2s0.6-1.6,1.1-2.1c0.5-0.5,1.2-0.9,2-1.2
		C273.3,88.4,274.3,88.3,275.4,88.3L275.4,88.3z M275.4,101.4c0.9,0,1.7-0.1,2.3-0.4c0.6-0.2,1-0.6,1.3-1.1c0.3-0.5,0.5-1.1,0.6-1.9
		c0.1-0.8,0.2-1.7,0.2-2.7s-0.1-1.9-0.3-2.7c-0.2-0.7-0.5-1.3-0.9-1.8c-0.4-0.5-0.8-0.8-1.4-1s-1.1-0.3-1.8-0.3
		c-0.8,0-1.5,0.1-2.1,0.2c-0.6,0.2-1,0.5-1.4,0.9c-0.4,0.4-0.6,1-0.8,1.7c-0.2,0.7-0.2,1.6-0.2,2.7c0,1.1,0.1,2.1,0.2,2.9
		c0.1,0.8,0.3,1.4,0.7,1.9s0.8,0.8,1.4,1.1C273.7,101.3,274.5,101.4,275.4,101.4z"/>
	<path class="fill-white" d="M284.3,88.5l4.2,12.1h0.4l4.2-12.1h1.9l-5,13.8h-2.7l-4.9-13.8H284.3z"/>
	<path class="fill-white" d="M307.4,101.8c-0.3,0.1-0.7,0.2-1.1,0.2c-0.4,0.1-0.9,0.2-1.4,0.2s-1,0.2-1.5,0.2c-0.5,0.1-1,0.1-1.4,0.1
		c-1.2,0-2.2-0.2-3-0.5c-0.8-0.3-1.4-0.8-1.9-1.4c-0.5-0.6-0.8-1.4-1-2.3c-0.2-0.9-0.3-1.9-0.3-3c0-1.3,0.1-2.5,0.4-3.4
		c0.3-0.9,0.7-1.7,1.2-2.2c0.5-0.6,1.1-1,1.9-1.2c0.7-0.2,1.6-0.4,2.5-0.4c2,0,3.5,0.5,4.5,1.6c1,1,1.5,2.7,1.5,5.1V96h-10.1
		c0,0.9,0.1,1.7,0.2,2.3c0.1,0.7,0.4,1.2,0.7,1.7c0.3,0.5,0.8,0.8,1.3,1c0.5,0.2,1.2,0.3,2,0.3c0.4,0,0.8,0,1.3-0.1
		c0.5-0.1,0.9-0.1,1.4-0.2c0.5-0.1,0.9-0.2,1.4-0.3c0.4-0.1,0.8-0.2,1.1-0.2L307.4,101.8z M306,94.8c0-1.9-0.4-3.3-1-4.1
		c-0.7-0.8-1.7-1.2-3.1-1.2c-1.4,0-2.4,0.4-3,1.2c-0.7,0.8-1,2.2-1,4.1H306z"/>
	<path class="fill-white" d="M310.2,89.5c1.1-0.4,2.1-0.7,3-0.9c0.9-0.2,1.8-0.3,2.8-0.3c0.2,0,0.4,0,0.6,0s0.5,0,0.8,0.1l-0.2,1.2
		c-0.3,0-0.5-0.1-0.7-0.1c-0.2,0-0.4,0-0.6,0c-0.8,0-1.5,0.1-2.2,0.2c-0.7,0.2-1.3,0.3-1.7,0.5v12.2h-1.9L310.2,89.5z"/>
</g>
</svg>
