<?xml version="1.0" encoding="utf-8"?>
<!-- Generator: Adobe Illustrator 21.0.0, SVG Export Plug-In . SVG Version: 6.00 Build 0)  -->
<svg version="1.1" id="Calque_1" xmlns="http://www.w3.org/2000/svg" xmlns:xlink="http://www.w3.org/1999/xlink" x="0px" y="0px"
	 viewBox="0 0 363 185.8" style="enable-background:new 0 0 363 185.8;" xml:space="preserve">
<style type="text/css">
	.fill-white{fill:#FFFFFF;}
	.st2{clip-path:url(#SVGID_12_);}
	.fill-purple{fill:#7E66AA;}
	.opacity30{opacity:0.3;}
</style>
<path class="fill-purple" d="M340.1,4.3H22.9C11.9,4.3,3,13.3,3,24.3v0.6c0,11,8.9,19.9,19.9,19.9h317.1c11,0,19.9-8.9,19.9-19.9v-0.6
	C360,13.3,351.1,4.3,340.1,4.3z"/>
<g class="opacity30">
	<defs>
		<path id="SVGID_11_" class="opacity30" d="M340.7,4.3H23.6c-11,0-19.9,8.9-19.9,19.9v0.6c0,11,8.9,19.9,19.9,19.9h317.1
			c11,0,19.9-8.9,19.9-19.9v-0.6C360.6,13.3,351.7,4.3,340.7,4.3z"/>
	</defs>
	<clipPath id="SVGID_12_">
		<use xlink:href="#SVGID_11_"  style="overflow:visible;"/>
	</clipPath>
	<g id="eOlMZ2_5_" class="st2">
		
			<image style="overflow:visible;" width="102" height="729" id="eOlMZ2_6_" xlink:href="performance_scheme_pilot_bg.png"  transform="matrix(6.123234e-17 1 -1 6.123234e-17 592.8052 7.523)">
		</image>
	</g>
</g>
<g>
	<path class="fill-white" d="M160.8,25.9v7H159V13.5h8.1c2.3,0,4,0.5,5.1,1.5c1.1,1,1.6,2.5,1.6,4.5c0,1-0.1,1.9-0.4,2.7
		c-0.3,0.8-0.7,1.5-1.2,2c-0.5,0.6-1.2,1-2.1,1.3c-0.8,0.3-1.9,0.5-3,0.5L160.8,25.9z M167.1,24.5c1.7,0,2.9-0.5,3.7-1.4
		s1.1-2.2,1.1-3.8c0-1.6-0.4-2.7-1.1-3.5c-0.7-0.7-1.9-1.1-3.7-1.1h-6.3v9.7H167.1z"/>
	<path class="fill-white" d="M177.2,13.6h1.9v1.9h-1.9V13.6z M177.2,19h1.9v13.8h-1.9V19z"/>
	<path class="fill-white" d="M181.9,13.5h1.9v19.4h-1.9V13.5z"/>
	<path class="fill-white" d="M192.4,18.8c1,0,1.9,0.1,2.6,0.4c0.8,0.3,1.4,0.7,1.9,1.2s0.9,1.3,1.2,2.1c0.3,0.9,0.4,1.9,0.4,3.2
		c0,1.3-0.1,2.4-0.3,3.3c-0.2,0.9-0.5,1.7-1,2.3s-1.1,1.1-1.9,1.4c-0.8,0.3-1.8,0.4-3,0.4c-1.2,0-2.3-0.1-3.1-0.4s-1.5-0.7-1.9-1.3
		c-0.5-0.6-0.8-1.4-1-2.3c-0.2-1-0.3-2.1-0.3-3.5c0-1.3,0.1-2.3,0.4-3.2s0.6-1.6,1.1-2.1c0.5-0.5,1.2-0.9,2-1.2
		C190.3,18.9,191.2,18.7,192.4,18.8L192.4,18.8z M192.4,31.9c0.9,0,1.7-0.1,2.3-0.4c0.6-0.2,1-0.6,1.3-1.1c0.3-0.5,0.5-1.1,0.6-1.9
		c0.1-0.8,0.2-1.7,0.2-2.7c0-1.1-0.1-1.9-0.3-2.7c-0.2-0.7-0.5-1.3-0.9-1.8s-0.8-0.8-1.4-1c-0.5-0.2-1.1-0.3-1.8-0.3
		c-0.8,0-1.5,0.1-2.1,0.2c-0.6,0.2-1,0.5-1.4,0.9c-0.4,0.4-0.6,1-0.8,1.7c-0.2,0.7-0.2,1.6-0.2,2.7c0,1.1,0.1,2.1,0.2,2.9
		c0.1,0.8,0.3,1.4,0.7,1.9s0.8,0.8,1.4,1.1S191.4,31.9,192.4,31.9z"/>
	<path class="fill-white" d="M203.9,15.5V19h3.2v1.2h-3.2v8.2c0,0.7,0,1.2,0.1,1.7s0.1,0.8,0.2,1c0.1,0.2,0.2,0.4,0.4,0.5
		c0.2,0.1,0.4,0.2,0.7,0.2h0.2c0.2,0,0.4,0,0.7-0.1c0.3,0,0.6-0.1,0.9-0.2l-0.2,1.3c-0.4,0.1-0.8,0.2-1.1,0.2c-0.3,0-0.5,0-0.7,0
		c-0.6,0-1.2-0.1-1.6-0.2s-0.7-0.4-0.9-0.8c-0.2-0.4-0.4-0.8-0.4-1.4c-0.1-0.6-0.1-1.3-0.1-2.2v-8.2h-2.9V19h2.9v-3.6H203.9z"/>
</g>
<g>
	<path class="fill-purple" d="M83.2,110.5L70.9,98.2c-0.2-0.2-0.3-0.3-0.5-0.4c-1.1-2-0.9-4.5,0.8-6.2c0,0,0,0,0,0l12-12
		c1.8-1.8,1.8-4.8,0-6.7L70.9,60.5c-1.8-1.8-4.8-1.8-6.7,0L51.9,72.9c-1.8,1.8-1.8,4.8,0,6.7l12,12c0,0,0,0,0,0
		c1.7,1.7,2,4.2,0.8,6.2c-0.2,0.1-0.4,0.3-0.5,0.4l-12.3,12.3c-1,1-1.4,2.2-1.4,3.5c0,1.3,0.4,2.5,1.4,3.5l12.3,12.3
		c0.1,0.1,0.3,0.3,0.5,0.4c1.1,1.9,1,4.3-0.5,6l-12.3,12.3c-1.8,1.8-1.8,4.8,0,6.7l12.3,12.3c1.8,1.8,4.8,1.8,6.7,0l12.3-12.3
		c1.8-1.8,1.8-4.8,0-6.7l-12.3-12.3c-1.5-1.7-1.7-4.1-0.5-6c0.2-0.1,0.3-0.2,0.5-0.4l12.3-12.3c1-1,1.4-2.2,1.4-3.5
		C84.6,112.8,84.2,111.5,83.2,110.5z"/>
	<g>
		<path class="fill-purple" d="M92.6,69.6c0.8,0,1.5,0.1,2.1,0.3c0.6,0.2,1.1,0.5,1.5,0.8c0.4,0.3,0.7,0.8,0.9,1.3c0.2,0.5,0.3,1,0.3,1.6
			c0,0.6-0.1,1.1-0.3,1.6s-0.5,0.9-0.9,1.3c-0.4,0.4-0.9,0.6-1.5,0.8c-0.6,0.2-1.3,0.3-2.1,0.3h-2.1v4.8h-1.7V69.6H92.6z M92.6,76.3
			c0.5,0,0.9-0.1,1.3-0.2s0.7-0.3,1-0.6c0.3-0.2,0.5-0.5,0.6-0.8c0.1-0.3,0.2-0.7,0.2-1.1c0-0.8-0.3-1.5-0.8-1.9S93.6,71,92.6,71
			h-2.1v5.3H92.6z"/>
		<path class="fill-purple" d="M100.8,70.6c0,0.2,0,0.3-0.1,0.4c-0.1,0.1-0.1,0.3-0.3,0.4c-0.1,0.1-0.2,0.2-0.4,0.2
			c-0.1,0.1-0.3,0.1-0.4,0.1c-0.2,0-0.3,0-0.4-0.1c-0.1-0.1-0.3-0.1-0.4-0.2c-0.1-0.1-0.2-0.2-0.2-0.4c-0.1-0.1-0.1-0.3-0.1-0.4
			c0-0.2,0-0.3,0.1-0.4c0.1-0.1,0.1-0.3,0.2-0.4c0.1-0.1,0.2-0.2,0.4-0.2c0.1-0.1,0.3-0.1,0.4-0.1c0.2,0,0.3,0,0.4,0.1
			c0.1,0.1,0.3,0.1,0.4,0.2c0.1,0.1,0.2,0.2,0.3,0.4C100.7,70.2,100.8,70.4,100.8,70.6z M100.4,73.4v9.1h-1.6v-9.1H100.4z"/>
		<path class="fill-purple" d="M104.3,69.3v13.3h-1.6V69.3H104.3z"/>
		<path class="fill-purple" d="M110.2,73.3c0.7,0,1.3,0.1,1.8,0.3c0.5,0.2,1,0.5,1.4,0.9c0.4,0.4,0.7,0.9,0.9,1.5c0.2,0.6,0.3,1.2,0.3,1.9
			c0,0.7-0.1,1.4-0.3,1.9s-0.5,1.1-0.9,1.5c-0.4,0.4-0.8,0.7-1.4,0.9c-0.5,0.2-1.1,0.3-1.8,0.3c-0.7,0-1.3-0.1-1.8-0.3
			c-0.5-0.2-1-0.5-1.4-0.9c-0.4-0.4-0.7-0.9-0.9-1.5s-0.3-1.2-0.3-1.9c0-0.7,0.1-1.4,0.3-1.9c0.2-0.6,0.5-1.1,0.9-1.5
			c0.4-0.4,0.8-0.7,1.4-0.9C109,73.4,109.6,73.3,110.2,73.3z M110.2,81.4c0.9,0,1.6-0.3,2-0.9c0.4-0.6,0.7-1.4,0.7-2.5
			c0-1.1-0.2-1.9-0.7-2.5c-0.4-0.6-1.1-0.9-2-0.9c-0.5,0-0.9,0.1-1.2,0.2c-0.3,0.2-0.6,0.4-0.8,0.7c-0.2,0.3-0.4,0.7-0.5,1.1
			c-0.1,0.4-0.2,0.9-0.2,1.5c0,1.1,0.2,1.9,0.7,2.5C108.7,81.1,109.3,81.4,110.2,81.4z"/>
		<path class="fill-purple" d="M118.8,82.7c-0.7,0-1.3-0.2-1.7-0.6c-0.4-0.4-0.6-1-0.6-1.7v-5.6h-1.1c-0.1,0-0.2,0-0.2-0.1
			c-0.1-0.1-0.1-0.1-0.1-0.3v-0.6l1.5-0.2l0.4-2.8c0-0.1,0.1-0.2,0.1-0.2c0.1-0.1,0.1-0.1,0.2-0.1h0.8v3.1h2.6v1.2h-2.6v5.5
			c0,0.4,0.1,0.7,0.3,0.9c0.2,0.2,0.4,0.3,0.7,0.3c0.2,0,0.3,0,0.4-0.1s0.2-0.1,0.3-0.1c0.1-0.1,0.2-0.1,0.2-0.1
			c0.1,0,0.1-0.1,0.2-0.1c0.1,0,0.2,0.1,0.2,0.2l0.5,0.8c-0.3,0.3-0.6,0.5-1,0.6C119.6,82.6,119.2,82.7,118.8,82.7z"/>
		<path class="fill-purple" d="M121.8,74.7c0.5-0.5,1-0.8,1.6-1.1s1.2-0.4,1.9-0.4c0.5,0,1,0.1,1.4,0.3c0.4,0.2,0.7,0.4,1,0.7
			c0.3,0.3,0.5,0.7,0.6,1.1c0.1,0.4,0.2,0.9,0.2,1.4v5.8h-0.7c-0.2,0-0.3,0-0.4-0.1s-0.2-0.2-0.2-0.3l-0.2-0.9
			c-0.2,0.2-0.5,0.4-0.7,0.6c-0.2,0.2-0.5,0.3-0.7,0.4s-0.5,0.2-0.8,0.3c-0.3,0.1-0.6,0.1-0.9,0.1c-0.4,0-0.7,0-1-0.1
			c-0.3-0.1-0.6-0.2-0.8-0.4c-0.2-0.2-0.4-0.4-0.5-0.8c-0.1-0.3-0.2-0.7-0.2-1.1c0-0.4,0.1-0.7,0.3-1s0.5-0.6,1-0.9
			c0.4-0.3,1-0.5,1.7-0.6s1.6-0.3,2.6-0.3v-0.7c0-0.7-0.2-1.2-0.5-1.6s-0.8-0.5-1.3-0.5c-0.4,0-0.7,0-1,0.1
			c-0.3,0.1-0.5,0.2-0.7,0.3c-0.2,0.1-0.4,0.2-0.5,0.3c-0.1,0.1-0.3,0.1-0.4,0.1c-0.1,0-0.2,0-0.3-0.1c-0.1-0.1-0.1-0.1-0.2-0.2
			L121.8,74.7z M126.9,78.4c-0.7,0-1.4,0.1-1.9,0.2c-0.5,0.1-0.9,0.2-1.3,0.4c-0.3,0.2-0.6,0.3-0.7,0.5c-0.1,0.2-0.2,0.4-0.2,0.7
			c0,0.2,0,0.4,0.1,0.6c0.1,0.2,0.2,0.3,0.3,0.4c0.1,0.1,0.3,0.2,0.5,0.2c0.2,0.1,0.4,0.1,0.6,0.1c0.3,0,0.5,0,0.8-0.1
			c0.2-0.1,0.5-0.1,0.7-0.2c0.2-0.1,0.4-0.2,0.6-0.4c0.2-0.1,0.4-0.3,0.6-0.5V78.4z"/>
		<path class="fill-purple" d="M138.2,73.8v0.6c0,0.2-0.1,0.3-0.4,0.4l-1,0.1c0.2,0.4,0.3,0.8,0.3,1.3c0,0.4-0.1,0.8-0.3,1.2
			c-0.2,0.4-0.4,0.7-0.7,0.9c-0.3,0.3-0.7,0.5-1.1,0.6c-0.4,0.1-0.9,0.2-1.4,0.2c-0.4,0-0.8-0.1-1.2-0.2c-0.2,0.1-0.3,0.2-0.4,0.4
			c-0.1,0.1-0.2,0.3-0.2,0.4c0,0.2,0.1,0.4,0.3,0.5c0.2,0.1,0.4,0.2,0.7,0.2c0.3,0,0.6,0.1,1,0.1c0.4,0,0.7,0,1.1,0.1
			c0.4,0,0.8,0.1,1.1,0.1c0.4,0.1,0.7,0.2,1,0.3c0.3,0.2,0.5,0.4,0.7,0.6c0.2,0.3,0.3,0.6,0.3,1c0,0.4-0.1,0.8-0.3,1.1
			s-0.5,0.7-0.8,1s-0.8,0.5-1.3,0.7c-0.5,0.2-1.1,0.3-1.8,0.3s-1.2-0.1-1.7-0.2s-0.9-0.3-1.2-0.5c-0.3-0.2-0.6-0.5-0.7-0.8
			s-0.2-0.6-0.2-0.9c0-0.5,0.1-0.8,0.4-1.1c0.3-0.3,0.7-0.6,1.2-0.7c-0.3-0.1-0.5-0.3-0.6-0.5c-0.2-0.2-0.2-0.5-0.2-0.8
			c0-0.1,0-0.3,0.1-0.4c0-0.1,0.1-0.3,0.2-0.4c0.1-0.1,0.2-0.3,0.4-0.4s0.3-0.2,0.5-0.3c-0.5-0.3-0.8-0.6-1.1-1s-0.4-0.9-0.4-1.5
			c0-0.4,0.1-0.8,0.3-1.2c0.2-0.4,0.4-0.7,0.7-0.9s0.7-0.5,1.1-0.6c0.4-0.1,0.9-0.2,1.4-0.2c0.4,0,0.8,0,1.1,0.1s0.7,0.2,0.9,0.4
			H138.2z M136.6,83c0-0.2-0.1-0.4-0.2-0.5c-0.1-0.1-0.3-0.2-0.5-0.3s-0.5-0.1-0.7-0.2c-0.3,0-0.6-0.1-0.9-0.1c-0.3,0-0.6,0-1-0.1
			s-0.6,0-0.9-0.1c-0.3,0.2-0.6,0.4-0.8,0.6c-0.2,0.2-0.3,0.5-0.3,0.8c0,0.2,0.1,0.4,0.2,0.6c0.1,0.2,0.3,0.3,0.5,0.5
			c0.2,0.1,0.5,0.2,0.8,0.3c0.3,0.1,0.7,0.1,1.2,0.1c0.4,0,0.8,0,1.2-0.1c0.3-0.1,0.6-0.2,0.9-0.3s0.4-0.3,0.5-0.5
			C136.5,83.5,136.6,83.3,136.6,83z M133.7,78.1c0.3,0,0.6,0,0.9-0.1s0.5-0.2,0.6-0.4s0.3-0.4,0.4-0.6c0.1-0.2,0.1-0.5,0.1-0.7
			c0-0.6-0.2-1-0.5-1.3c-0.3-0.3-0.8-0.5-1.5-0.5c-0.6,0-1.1,0.2-1.5,0.5c-0.3,0.3-0.5,0.8-0.5,1.3c0,0.3,0,0.5,0.1,0.7
			c0.1,0.2,0.2,0.4,0.4,0.6s0.4,0.3,0.6,0.4S133.4,78.1,133.7,78.1z"/>
		<path class="fill-purple" d="M146.7,81.3c-0.2,0.2-0.4,0.4-0.7,0.6c-0.3,0.2-0.6,0.3-0.9,0.4c-0.3,0.1-0.6,0.2-1,0.3
			c-0.3,0.1-0.7,0.1-1,0.1c-0.6,0-1.2-0.1-1.7-0.3s-1-0.5-1.4-0.9c-0.4-0.4-0.7-0.9-0.9-1.5c-0.2-0.6-0.3-1.3-0.3-2.1
			c0-0.6,0.1-1.2,0.3-1.8c0.2-0.6,0.5-1,0.8-1.4c0.4-0.4,0.8-0.7,1.3-1c0.5-0.2,1.1-0.3,1.8-0.3c0.5,0,1.1,0.1,1.5,0.3
			c0.5,0.2,0.9,0.4,1.2,0.8s0.6,0.8,0.8,1.3c0.2,0.5,0.3,1.1,0.3,1.7c0,0.3,0,0.4-0.1,0.5c-0.1,0.1-0.2,0.1-0.3,0.1h-6.1
			c0,0.6,0.1,1.1,0.2,1.5s0.3,0.8,0.6,1.1s0.6,0.5,0.9,0.6c0.3,0.1,0.7,0.2,1.2,0.2c0.4,0,0.7,0,1-0.1s0.5-0.2,0.8-0.3
			c0.2-0.1,0.4-0.2,0.5-0.3c0.1-0.1,0.3-0.1,0.4-0.1c0.1,0,0.2,0.1,0.3,0.2L146.7,81.3z M145.4,77c0-0.4-0.1-0.7-0.2-1
			c-0.1-0.3-0.3-0.6-0.5-0.8c-0.2-0.2-0.4-0.4-0.7-0.5c-0.3-0.1-0.6-0.2-1-0.2c-0.8,0-1.4,0.2-1.8,0.7c-0.4,0.4-0.7,1.1-0.8,1.9
			H145.4z"/>
	</g>
	<g>
		<path class="fill-purple" d="M99.3,120h-1.3c-0.2,0-0.3,0-0.4-0.1c-0.1-0.1-0.2-0.2-0.2-0.3l-1.2-3.1h-5.8l-1.2,3.1
			c0,0.1-0.1,0.2-0.2,0.3c-0.1,0.1-0.2,0.1-0.4,0.1h-1.4l5.2-12.9h1.8L99.3,120z M95.7,115.2l-2-5.2c-0.1-0.2-0.1-0.3-0.2-0.5
			c-0.1-0.2-0.1-0.4-0.2-0.7c-0.1,0.5-0.3,0.9-0.4,1.2l-2,5.2H95.7z"/>
		<path class="fill-purple" d="M105.5,112.4c-0.1,0.1-0.2,0.2-0.3,0.2c-0.1,0-0.2,0-0.3-0.1c-0.1-0.1-0.3-0.1-0.4-0.2s-0.4-0.2-0.6-0.2
			c-0.2-0.1-0.5-0.1-0.8-0.1c-0.3,0-0.5,0-0.7,0.1c-0.2,0.1-0.4,0.2-0.6,0.3c-0.2,0.1-0.3,0.3-0.4,0.4c-0.1,0.2-0.1,0.3-0.1,0.5
			c0,0.2,0.1,0.4,0.2,0.6c0.1,0.2,0.3,0.3,0.5,0.4c0.2,0.1,0.5,0.2,0.8,0.3c0.3,0.1,0.6,0.2,0.9,0.3c0.3,0.1,0.6,0.2,0.9,0.3
			s0.5,0.3,0.8,0.5c0.2,0.2,0.4,0.4,0.5,0.7s0.2,0.6,0.2,0.9c0,0.4-0.1,0.8-0.2,1.2c-0.2,0.4-0.4,0.7-0.7,0.9
			c-0.3,0.3-0.7,0.5-1.1,0.6c-0.4,0.2-0.9,0.2-1.5,0.2c-0.6,0-1.2-0.1-1.7-0.3c-0.5-0.2-1-0.5-1.3-0.8l0.4-0.6
			c0-0.1,0.1-0.1,0.2-0.2c0.1,0,0.1-0.1,0.3-0.1c0.1,0,0.2,0,0.3,0.1c0.1,0.1,0.3,0.2,0.4,0.3c0.2,0.1,0.4,0.2,0.6,0.3
			s0.6,0.1,0.9,0.1c0.3,0,0.6,0,0.8-0.1s0.4-0.2,0.6-0.3s0.3-0.3,0.3-0.5c0.1-0.2,0.1-0.4,0.1-0.6c0-0.3-0.1-0.5-0.2-0.6
			s-0.3-0.3-0.5-0.4c-0.2-0.1-0.5-0.2-0.8-0.3c-0.3-0.1-0.6-0.2-0.9-0.3c-0.3-0.1-0.6-0.2-0.9-0.3s-0.5-0.3-0.8-0.5
			c-0.2-0.2-0.4-0.4-0.5-0.7c-0.1-0.3-0.2-0.6-0.2-1c0-0.3,0.1-0.7,0.2-1c0.1-0.3,0.4-0.6,0.6-0.8c0.3-0.2,0.6-0.4,1-0.6
			c0.4-0.1,0.9-0.2,1.4-0.2c0.6,0,1.1,0.1,1.6,0.3c0.5,0.2,0.9,0.4,1.2,0.8L105.5,112.4z"/>
		<path class="fill-purple" d="M112.8,112.4c-0.1,0.1-0.2,0.2-0.3,0.2c-0.1,0-0.2,0-0.3-0.1c-0.1-0.1-0.3-0.1-0.4-0.2s-0.4-0.2-0.6-0.2
			c-0.2-0.1-0.5-0.1-0.8-0.1c-0.3,0-0.5,0-0.7,0.1c-0.2,0.1-0.4,0.2-0.6,0.3c-0.2,0.1-0.3,0.3-0.4,0.4c-0.1,0.2-0.1,0.3-0.1,0.5
			c0,0.2,0.1,0.4,0.2,0.6c0.1,0.2,0.3,0.3,0.5,0.4c0.2,0.1,0.5,0.2,0.8,0.3c0.3,0.1,0.6,0.2,0.9,0.3c0.3,0.1,0.6,0.2,0.9,0.3
			s0.5,0.3,0.8,0.5c0.2,0.2,0.4,0.4,0.5,0.7s0.2,0.6,0.2,0.9c0,0.4-0.1,0.8-0.2,1.2c-0.2,0.4-0.4,0.7-0.7,0.9
			c-0.3,0.3-0.7,0.5-1.1,0.6c-0.4,0.2-0.9,0.2-1.5,0.2c-0.6,0-1.2-0.1-1.7-0.3c-0.5-0.2-1-0.5-1.3-0.8l0.4-0.6
			c0-0.1,0.1-0.1,0.2-0.2c0.1,0,0.1-0.1,0.3-0.1c0.1,0,0.2,0,0.3,0.1c0.1,0.1,0.3,0.2,0.4,0.3c0.2,0.1,0.4,0.2,0.6,0.3
			s0.6,0.1,0.9,0.1c0.3,0,0.6,0,0.8-0.1s0.4-0.2,0.6-0.3s0.3-0.3,0.3-0.5c0.1-0.2,0.1-0.4,0.1-0.6c0-0.3-0.1-0.5-0.2-0.6
			s-0.3-0.3-0.5-0.4c-0.2-0.1-0.5-0.2-0.8-0.3c-0.3-0.1-0.6-0.2-0.9-0.3c-0.3-0.1-0.6-0.2-0.9-0.3s-0.5-0.3-0.8-0.5
			c-0.2-0.2-0.4-0.4-0.5-0.7c-0.1-0.3-0.2-0.6-0.2-1c0-0.3,0.1-0.7,0.2-1c0.1-0.3,0.4-0.6,0.6-0.8c0.3-0.2,0.6-0.4,1-0.6
			c0.4-0.1,0.9-0.2,1.4-0.2c0.6,0,1.1,0.1,1.6,0.3c0.5,0.2,0.9,0.4,1.2,0.8L112.8,112.4z"/>
		<path class="fill-purple" d="M116.9,108.1c0,0.2,0,0.3-0.1,0.4c-0.1,0.1-0.1,0.3-0.3,0.4c-0.1,0.1-0.2,0.2-0.4,0.2
			c-0.1,0.1-0.3,0.1-0.4,0.1c-0.2,0-0.3,0-0.4-0.1c-0.1-0.1-0.3-0.1-0.4-0.2c-0.1-0.1-0.2-0.2-0.2-0.4c-0.1-0.1-0.1-0.3-0.1-0.4
			c0-0.2,0-0.3,0.1-0.4c0.1-0.1,0.1-0.3,0.2-0.4c0.1-0.1,0.2-0.2,0.4-0.2c0.1-0.1,0.3-0.1,0.4-0.1c0.2,0,0.3,0,0.4,0.1
			c0.1,0.1,0.3,0.1,0.4,0.2c0.1,0.1,0.2,0.2,0.3,0.4C116.9,107.7,116.9,107.9,116.9,108.1z M116.5,110.9v9.1h-1.6v-9.1H116.5z"/>
		<path class="fill-purple" d="M124,112.4c-0.1,0.1-0.2,0.2-0.3,0.2c-0.1,0-0.2,0-0.3-0.1c-0.1-0.1-0.3-0.1-0.4-0.2s-0.4-0.2-0.6-0.2
			c-0.2-0.1-0.5-0.1-0.8-0.1c-0.3,0-0.5,0-0.7,0.1c-0.2,0.1-0.4,0.2-0.6,0.3c-0.2,0.1-0.3,0.3-0.4,0.4c-0.1,0.2-0.1,0.3-0.1,0.5
			c0,0.2,0.1,0.4,0.2,0.6c0.1,0.2,0.3,0.3,0.5,0.4c0.2,0.1,0.5,0.2,0.8,0.3c0.3,0.1,0.6,0.2,0.9,0.3c0.3,0.1,0.6,0.2,0.9,0.3
			s0.5,0.3,0.8,0.5c0.2,0.2,0.4,0.4,0.5,0.7s0.2,0.6,0.2,0.9c0,0.4-0.1,0.8-0.2,1.2c-0.2,0.4-0.4,0.7-0.7,0.9
			c-0.3,0.3-0.7,0.5-1.1,0.6c-0.4,0.2-0.9,0.2-1.5,0.2c-0.6,0-1.2-0.1-1.7-0.3c-0.5-0.2-1-0.5-1.3-0.8l0.4-0.6
			c0-0.1,0.1-0.1,0.2-0.2c0.1,0,0.1-0.1,0.3-0.1c0.1,0,0.2,0,0.3,0.1c0.1,0.1,0.3,0.2,0.4,0.3c0.2,0.1,0.4,0.2,0.6,0.3
			s0.6,0.1,0.9,0.1c0.3,0,0.6,0,0.8-0.1s0.4-0.2,0.6-0.3s0.3-0.3,0.3-0.5c0.1-0.2,0.1-0.4,0.1-0.6c0-0.3-0.1-0.5-0.2-0.6
			s-0.3-0.3-0.5-0.4c-0.2-0.1-0.5-0.2-0.8-0.3c-0.3-0.1-0.6-0.2-0.9-0.3c-0.3-0.1-0.6-0.2-0.9-0.3s-0.5-0.3-0.8-0.5
			c-0.2-0.2-0.4-0.4-0.5-0.7c-0.1-0.3-0.2-0.6-0.2-1c0-0.3,0.1-0.7,0.2-1c0.1-0.3,0.4-0.6,0.6-0.8c0.3-0.2,0.6-0.4,1-0.6
			c0.4-0.1,0.9-0.2,1.4-0.2c0.6,0,1.1,0.1,1.6,0.3c0.5,0.2,0.9,0.4,1.2,0.8L124,112.4z"/>
		<path class="fill-purple" d="M128.9,120.2c-0.7,0-1.3-0.2-1.7-0.6c-0.4-0.4-0.6-1-0.6-1.7v-5.6h-1.1c-0.1,0-0.2,0-0.2-0.1
			c-0.1-0.1-0.1-0.1-0.1-0.3v-0.6l1.5-0.2l0.4-2.8c0-0.1,0.1-0.2,0.1-0.2c0.1-0.1,0.1-0.1,0.2-0.1h0.8v3.1h2.6v1.2h-2.6v5.5
			c0,0.4,0.1,0.7,0.3,0.9c0.2,0.2,0.4,0.3,0.7,0.3c0.2,0,0.3,0,0.4-0.1s0.2-0.1,0.3-0.1c0.1-0.1,0.2-0.1,0.2-0.1
			c0.1,0,0.1-0.1,0.2-0.1c0.1,0,0.2,0.1,0.2,0.2l0.5,0.8c-0.3,0.3-0.6,0.5-1,0.6C129.7,120.1,129.3,120.2,128.9,120.2z"/>
		<path class="fill-purple" d="M131.8,112.2c0.5-0.5,1-0.8,1.6-1.1s1.2-0.4,1.9-0.4c0.5,0,1,0.1,1.4,0.3c0.4,0.2,0.7,0.4,1,0.7
			c0.3,0.3,0.5,0.7,0.6,1.1c0.1,0.4,0.2,0.9,0.2,1.4v5.8h-0.7c-0.2,0-0.3,0-0.4-0.1s-0.2-0.2-0.2-0.3l-0.2-0.9
			c-0.2,0.2-0.5,0.4-0.7,0.6c-0.2,0.2-0.5,0.3-0.7,0.4s-0.5,0.2-0.8,0.3c-0.3,0.1-0.6,0.1-0.9,0.1c-0.4,0-0.7,0-1-0.1
			c-0.3-0.1-0.6-0.2-0.8-0.4c-0.2-0.2-0.4-0.4-0.5-0.8c-0.1-0.3-0.2-0.7-0.2-1.1c0-0.4,0.1-0.7,0.3-1s0.5-0.6,1-0.9
			c0.4-0.3,1-0.5,1.7-0.6s1.6-0.3,2.6-0.3v-0.7c0-0.7-0.2-1.2-0.5-1.6s-0.8-0.5-1.3-0.5c-0.4,0-0.7,0-1,0.1
			c-0.3,0.1-0.5,0.2-0.7,0.3c-0.2,0.1-0.4,0.2-0.5,0.3c-0.1,0.1-0.3,0.1-0.4,0.1c-0.1,0-0.2,0-0.3-0.1c-0.1-0.1-0.1-0.1-0.2-0.2
			L131.8,112.2z M137,115.9c-0.7,0-1.4,0.1-1.9,0.2c-0.5,0.1-0.9,0.2-1.3,0.4c-0.3,0.2-0.6,0.3-0.7,0.5c-0.1,0.2-0.2,0.4-0.2,0.7
			c0,0.2,0,0.4,0.1,0.6c0.1,0.2,0.2,0.3,0.3,0.4c0.1,0.1,0.3,0.2,0.5,0.2c0.2,0.1,0.4,0.1,0.6,0.1c0.3,0,0.5,0,0.8-0.1
			c0.2-0.1,0.5-0.1,0.7-0.2c0.2-0.1,0.4-0.2,0.6-0.4c0.2-0.1,0.4-0.3,0.6-0.5V115.9z"/>
		<path class="fill-purple" d="M142.1,112.2c0.2-0.2,0.4-0.4,0.6-0.6c0.2-0.2,0.5-0.3,0.7-0.5s0.5-0.2,0.8-0.3c0.3-0.1,0.6-0.1,0.9-0.1
			c0.5,0,0.9,0.1,1.3,0.2c0.4,0.2,0.7,0.4,1,0.7c0.3,0.3,0.4,0.7,0.6,1.1s0.2,0.9,0.2,1.4v5.8h-1.6v-5.8c0-0.7-0.2-1.2-0.5-1.6
			c-0.3-0.4-0.8-0.6-1.4-0.6c-0.5,0-0.9,0.1-1.3,0.3c-0.4,0.2-0.8,0.5-1.1,0.9v6.7h-1.6v-9.1h1c0.2,0,0.4,0.1,0.4,0.3L142.1,112.2z"
			/>
		<path class="fill-purple" d="M156.5,112.5c0,0.1-0.1,0.1-0.1,0.2s-0.1,0.1-0.2,0.1c-0.1,0-0.2,0-0.3-0.1c-0.1-0.1-0.2-0.2-0.4-0.2
			c-0.2-0.1-0.4-0.2-0.6-0.2c-0.2-0.1-0.5-0.1-0.9-0.1c-0.4,0-0.8,0.1-1.2,0.2s-0.6,0.4-0.9,0.7c-0.2,0.3-0.4,0.7-0.5,1.1
			s-0.2,0.9-0.2,1.4c0,0.6,0.1,1,0.2,1.5c0.1,0.4,0.3,0.8,0.5,1.1c0.2,0.3,0.5,0.5,0.8,0.7c0.3,0.2,0.7,0.2,1.1,0.2
			c0.4,0,0.7,0,1-0.1c0.3-0.1,0.5-0.2,0.6-0.3c0.2-0.1,0.3-0.2,0.4-0.3c0.1-0.1,0.2-0.1,0.3-0.1c0.1,0,0.2,0.1,0.3,0.2l0.4,0.6
			c-0.2,0.2-0.4,0.5-0.7,0.6c-0.3,0.2-0.5,0.3-0.8,0.4c-0.3,0.1-0.6,0.2-0.9,0.3c-0.3,0.1-0.6,0.1-1,0.1c-0.6,0-1.1-0.1-1.6-0.3
			s-0.9-0.5-1.3-0.9c-0.4-0.4-0.6-0.9-0.8-1.5c-0.2-0.6-0.3-1.2-0.3-2c0-0.7,0.1-1.3,0.3-1.9c0.2-0.6,0.5-1.1,0.8-1.5
			c0.4-0.4,0.8-0.7,1.3-1c0.5-0.2,1.1-0.4,1.8-0.4c0.6,0,1.2,0.1,1.7,0.3s0.9,0.5,1.3,0.9L156.5,112.5z"/>
		<path class="fill-purple" d="M165.5,118.8c-0.2,0.2-0.4,0.4-0.7,0.6c-0.3,0.2-0.6,0.3-0.9,0.4c-0.3,0.1-0.6,0.2-1,0.3
			c-0.3,0.1-0.7,0.1-1,0.1c-0.6,0-1.2-0.1-1.7-0.3s-1-0.5-1.4-0.9c-0.4-0.4-0.7-0.9-0.9-1.5c-0.2-0.6-0.3-1.3-0.3-2.1
			c0-0.6,0.1-1.2,0.3-1.8c0.2-0.6,0.5-1,0.8-1.4c0.4-0.4,0.8-0.7,1.3-1c0.5-0.2,1.1-0.3,1.8-0.3c0.5,0,1.1,0.1,1.5,0.3
			c0.5,0.2,0.9,0.4,1.2,0.8s0.6,0.8,0.8,1.3c0.2,0.5,0.3,1.1,0.3,1.7c0,0.3,0,0.4-0.1,0.5c-0.1,0.1-0.2,0.1-0.3,0.1h-6.1
			c0,0.6,0.1,1.1,0.2,1.5s0.3,0.8,0.6,1.1s0.6,0.5,0.9,0.6c0.3,0.1,0.7,0.2,1.2,0.2c0.4,0,0.7,0,1-0.1s0.5-0.2,0.8-0.3
			c0.2-0.1,0.4-0.2,0.5-0.3c0.1-0.1,0.3-0.1,0.4-0.1c0.1,0,0.2,0.1,0.3,0.2L165.5,118.8z M164.2,114.5c0-0.4-0.1-0.7-0.2-1
			c-0.1-0.3-0.3-0.6-0.5-0.8c-0.2-0.2-0.4-0.4-0.7-0.5c-0.3-0.1-0.6-0.2-1-0.2c-0.8,0-1.4,0.2-1.8,0.7c-0.4,0.4-0.7,1.1-0.8,1.9
			H164.2z"/>
		<path class="fill-purple" d="M185.2,107.1V120h-1.5v-9.5c0-0.1,0-0.3,0-0.4c0-0.1,0-0.3,0-0.4l-4.4,8.1c-0.1,0.3-0.3,0.4-0.6,0.4h-0.3
			c-0.3,0-0.5-0.1-0.6-0.4l-4.5-8.1c0,0.3,0.1,0.6,0.1,0.9v9.5h-1.5v-12.9h1.3c0.2,0,0.3,0,0.4,0c0.1,0,0.2,0.1,0.2,0.3l4.5,7.9
			c0.1,0.1,0.1,0.3,0.2,0.5c0.1,0.2,0.1,0.3,0.2,0.5c0.1-0.2,0.1-0.3,0.2-0.5c0.1-0.2,0.1-0.3,0.2-0.5l4.4-7.9
			c0.1-0.1,0.2-0.2,0.2-0.3c0.1,0,0.2,0,0.4,0H185.2z"/>
		<path class="fill-purple" d="M187.1,112.2c0.5-0.5,1-0.8,1.6-1.1s1.2-0.4,1.9-0.4c0.5,0,1,0.1,1.4,0.3c0.4,0.2,0.7,0.4,1,0.7
			c0.3,0.3,0.5,0.7,0.6,1.1c0.1,0.4,0.2,0.9,0.2,1.4v5.8h-0.7c-0.2,0-0.3,0-0.4-0.1s-0.2-0.2-0.2-0.3l-0.2-0.9
			c-0.2,0.2-0.5,0.4-0.7,0.6c-0.2,0.2-0.5,0.3-0.7,0.4s-0.5,0.2-0.8,0.3c-0.3,0.1-0.6,0.1-0.9,0.1c-0.4,0-0.7,0-1-0.1
			c-0.3-0.1-0.6-0.2-0.8-0.4c-0.2-0.2-0.4-0.4-0.5-0.8c-0.1-0.3-0.2-0.7-0.2-1.1c0-0.4,0.1-0.7,0.3-1s0.5-0.6,1-0.9
			c0.4-0.3,1-0.5,1.7-0.6s1.6-0.3,2.6-0.3v-0.7c0-0.7-0.2-1.2-0.5-1.6s-0.8-0.5-1.3-0.5c-0.4,0-0.7,0-1,0.1
			c-0.3,0.1-0.5,0.2-0.7,0.3c-0.2,0.1-0.4,0.2-0.5,0.3c-0.1,0.1-0.3,0.1-0.4,0.1c-0.1,0-0.2,0-0.3-0.1c-0.1-0.1-0.1-0.1-0.2-0.2
			L187.1,112.2z M192.3,115.9c-0.7,0-1.4,0.1-1.9,0.2c-0.5,0.1-0.9,0.2-1.3,0.4c-0.3,0.2-0.6,0.3-0.7,0.5c-0.1,0.2-0.2,0.4-0.2,0.7
			c0,0.2,0,0.4,0.1,0.6c0.1,0.2,0.2,0.3,0.3,0.4c0.1,0.1,0.3,0.2,0.5,0.2c0.2,0.1,0.4,0.1,0.6,0.1c0.3,0,0.5,0,0.8-0.1
			c0.2-0.1,0.5-0.1,0.7-0.2c0.2-0.1,0.4-0.2,0.6-0.4c0.2-0.1,0.4-0.3,0.6-0.5V115.9z"/>
		<path class="fill-purple" d="M197.9,108.1c0,0.2,0,0.3-0.1,0.4c-0.1,0.1-0.1,0.3-0.3,0.4c-0.1,0.1-0.2,0.2-0.4,0.2
			c-0.1,0.1-0.3,0.1-0.4,0.1c-0.2,0-0.3,0-0.4-0.1c-0.1-0.1-0.3-0.1-0.4-0.2c-0.1-0.1-0.2-0.2-0.2-0.4c-0.1-0.1-0.1-0.3-0.1-0.4
			c0-0.2,0-0.3,0.1-0.4c0.1-0.1,0.1-0.3,0.2-0.4c0.1-0.1,0.2-0.2,0.4-0.2c0.1-0.1,0.3-0.1,0.4-0.1c0.2,0,0.3,0,0.4,0.1
			c0.1,0.1,0.3,0.1,0.4,0.2c0.1,0.1,0.2,0.2,0.3,0.4C197.8,107.7,197.9,107.9,197.9,108.1z M197.5,110.9v9.1h-1.6v-9.1H197.5z"/>
		<path class="fill-purple" d="M202.5,120.2c-0.7,0-1.3-0.2-1.7-0.6c-0.4-0.4-0.6-1-0.6-1.7v-5.6h-1.1c-0.1,0-0.2,0-0.2-0.1
			c-0.1-0.1-0.1-0.1-0.1-0.3v-0.6l1.5-0.2l0.4-2.8c0-0.1,0.1-0.2,0.1-0.2c0.1-0.1,0.1-0.1,0.2-0.1h0.8v3.1h2.6v1.2h-2.6v5.5
			c0,0.4,0.1,0.7,0.3,0.9c0.2,0.2,0.4,0.3,0.7,0.3c0.2,0,0.3,0,0.4-0.1s0.2-0.1,0.3-0.1c0.1-0.1,0.2-0.1,0.2-0.1
			c0.1,0,0.1-0.1,0.2-0.1c0.1,0,0.2,0.1,0.2,0.2l0.5,0.8c-0.3,0.3-0.6,0.5-1,0.6C203.3,120.1,202.9,120.2,202.5,120.2z"/>
		<path class="fill-purple" d="M207.2,112.7c0.3-0.6,0.6-1.1,1.1-1.5c0.4-0.4,0.9-0.5,1.5-0.5c0.2,0,0.4,0,0.6,0.1s0.3,0.1,0.5,0.2
			l-0.1,1.2c0,0.2-0.1,0.2-0.3,0.2c-0.1,0-0.2,0-0.4-0.1c-0.2,0-0.3-0.1-0.5-0.1c-0.3,0-0.5,0-0.8,0.1c-0.2,0.1-0.4,0.2-0.6,0.4
			s-0.3,0.4-0.5,0.6c-0.1,0.2-0.3,0.5-0.4,0.8v5.8h-1.6v-9.1h0.9c0.2,0,0.3,0,0.4,0.1c0.1,0.1,0.1,0.2,0.1,0.3L207.2,112.7z"/>
		<path class="fill-purple" d="M213.9,108.1c0,0.2,0,0.3-0.1,0.4c-0.1,0.1-0.1,0.3-0.3,0.4c-0.1,0.1-0.2,0.2-0.4,0.2
			c-0.1,0.1-0.3,0.1-0.4,0.1c-0.2,0-0.3,0-0.4-0.1c-0.1-0.1-0.3-0.1-0.4-0.2c-0.1-0.1-0.2-0.2-0.2-0.4c-0.1-0.1-0.1-0.3-0.1-0.4
			c0-0.2,0-0.3,0.1-0.4c0.1-0.1,0.1-0.3,0.2-0.4c0.1-0.1,0.2-0.2,0.4-0.2c0.1-0.1,0.3-0.1,0.4-0.1c0.2,0,0.3,0,0.4,0.1
			c0.1,0.1,0.3,0.1,0.4,0.2c0.1,0.1,0.2,0.2,0.3,0.4C213.8,107.7,213.9,107.9,213.9,108.1z M213.5,110.9v9.1h-1.6v-9.1H213.5z"/>
		<path class="fill-purple" d="M221,112.4c-0.1,0.1-0.2,0.2-0.3,0.2c-0.1,0-0.2,0-0.3-0.1c-0.1-0.1-0.3-0.1-0.4-0.2s-0.4-0.2-0.6-0.2
			c-0.2-0.1-0.5-0.1-0.8-0.1c-0.3,0-0.5,0-0.7,0.1c-0.2,0.1-0.4,0.2-0.6,0.3c-0.2,0.1-0.3,0.3-0.4,0.4c-0.1,0.2-0.1,0.3-0.1,0.5
			c0,0.2,0.1,0.4,0.2,0.6c0.1,0.2,0.3,0.3,0.5,0.4c0.2,0.1,0.5,0.2,0.8,0.3c0.3,0.1,0.6,0.2,0.9,0.3c0.3,0.1,0.6,0.2,0.9,0.3
			s0.5,0.3,0.8,0.5c0.2,0.2,0.4,0.4,0.5,0.7s0.2,0.6,0.2,0.9c0,0.4-0.1,0.8-0.2,1.2c-0.2,0.4-0.4,0.7-0.7,0.9
			c-0.3,0.3-0.7,0.5-1.1,0.6c-0.4,0.2-0.9,0.2-1.5,0.2c-0.6,0-1.2-0.1-1.7-0.3c-0.5-0.2-1-0.5-1.3-0.8l0.4-0.6
			c0-0.1,0.1-0.1,0.2-0.2c0.1,0,0.1-0.1,0.3-0.1c0.1,0,0.2,0,0.3,0.1c0.1,0.1,0.3,0.2,0.4,0.3c0.2,0.1,0.4,0.2,0.6,0.3
			s0.6,0.1,0.9,0.1c0.3,0,0.6,0,0.8-0.1s0.4-0.2,0.6-0.3s0.3-0.3,0.3-0.5c0.1-0.2,0.1-0.4,0.1-0.6c0-0.3-0.1-0.5-0.2-0.6
			s-0.3-0.3-0.5-0.4c-0.2-0.1-0.5-0.2-0.8-0.3c-0.3-0.1-0.6-0.2-0.9-0.3c-0.3-0.1-0.6-0.2-0.9-0.3s-0.5-0.3-0.8-0.5
			c-0.2-0.2-0.4-0.4-0.5-0.7c-0.1-0.3-0.2-0.6-0.2-1c0-0.3,0.1-0.7,0.2-1c0.1-0.3,0.4-0.6,0.6-0.8c0.3-0.2,0.6-0.4,1-0.6
			c0.4-0.1,0.9-0.2,1.4-0.2c0.6,0,1.1,0.1,1.6,0.3c0.5,0.2,0.9,0.4,1.2,0.8L221,112.4z"/>
		<path class="fill-purple" d="M230.4,118.8c-0.2,0.2-0.4,0.4-0.7,0.6c-0.3,0.2-0.6,0.3-0.9,0.4c-0.3,0.1-0.6,0.2-1,0.3
			c-0.3,0.1-0.7,0.1-1,0.1c-0.6,0-1.2-0.1-1.7-0.3s-1-0.5-1.4-0.9c-0.4-0.4-0.7-0.9-0.9-1.5c-0.2-0.6-0.3-1.3-0.3-2.1
			c0-0.6,0.1-1.2,0.3-1.8c0.2-0.6,0.5-1,0.8-1.4c0.4-0.4,0.8-0.7,1.3-1c0.5-0.2,1.1-0.3,1.8-0.3c0.5,0,1.1,0.1,1.5,0.3
			c0.5,0.2,0.9,0.4,1.2,0.8s0.6,0.8,0.8,1.3c0.2,0.5,0.3,1.1,0.3,1.7c0,0.3,0,0.4-0.1,0.5c-0.1,0.1-0.2,0.1-0.3,0.1h-6.1
			c0,0.6,0.1,1.1,0.2,1.5s0.3,0.8,0.6,1.1s0.6,0.5,0.9,0.6c0.3,0.1,0.7,0.2,1.2,0.2c0.4,0,0.7,0,1-0.1s0.5-0.2,0.8-0.3
			c0.2-0.1,0.4-0.2,0.5-0.3c0.1-0.1,0.3-0.1,0.4-0.1c0.1,0,0.2,0.1,0.3,0.2L230.4,118.8z M229.1,114.5c0-0.4-0.1-0.7-0.2-1
			c-0.1-0.3-0.3-0.6-0.5-0.8c-0.2-0.2-0.4-0.4-0.7-0.5c-0.3-0.1-0.6-0.2-1-0.2c-0.8,0-1.4,0.2-1.8,0.7c-0.4,0.4-0.7,1.1-0.8,1.9
			H229.1z"/>
		<path class="fill-purple" d="M243.8,106.8V120h-1c-0.2,0-0.4-0.1-0.4-0.3l-0.1-1.1c-0.4,0.5-0.8,0.8-1.3,1.1s-1.1,0.4-1.7,0.4
			c-0.5,0-1-0.1-1.4-0.3c-0.4-0.2-0.8-0.5-1.1-0.9c-0.3-0.4-0.5-0.9-0.7-1.5c-0.2-0.6-0.2-1.3-0.2-2c0-0.7,0.1-1.3,0.3-1.9
			s0.4-1.1,0.8-1.5c0.3-0.4,0.7-0.8,1.2-1c0.5-0.2,1-0.4,1.7-0.4c0.6,0,1,0.1,1.4,0.3c0.4,0.2,0.8,0.5,1.1,0.8v-5H243.8z
			 M242.2,113.1c-0.3-0.4-0.6-0.7-1-0.8c-0.3-0.2-0.7-0.2-1.2-0.2c-0.8,0-1.5,0.3-2,0.9c-0.5,0.6-0.7,1.5-0.7,2.6
			c0,0.6,0.1,1.1,0.2,1.5c0.1,0.4,0.3,0.8,0.5,1c0.2,0.3,0.4,0.5,0.7,0.6s0.6,0.2,1,0.2c0.5,0,1-0.1,1.4-0.4c0.4-0.2,0.8-0.6,1.1-1
			V113.1z"/>
		<path class="fill-purple" d="M247,106.3c0.3,0.4,0.4,0.9,0.5,1.3c0.1,0.5,0.1,0.9,0,1.4s-0.2,0.9-0.5,1.3c-0.2,0.4-0.5,0.8-0.9,1.1
			l-0.5-0.3c-0.1-0.1-0.1-0.1-0.1-0.2c0-0.1,0-0.2,0.1-0.2c0.2-0.2,0.3-0.4,0.4-0.7c0.1-0.3,0.2-0.6,0.2-0.9c0-0.3,0-0.6,0-1
			c-0.1-0.3-0.2-0.7-0.4-1c-0.1-0.1-0.1-0.2-0.1-0.3c0-0.1,0.1-0.2,0.2-0.2L247,106.3z"/>
		<path class="fill-purple" d="M261.6,113.6c0,1-0.2,1.9-0.5,2.7c-0.3,0.8-0.7,1.5-1.3,2.1c-0.6,0.6-1.2,1-2,1.4c-0.8,0.3-1.6,0.5-2.6,0.5
			s-1.8-0.2-2.6-0.5c-0.8-0.3-1.4-0.8-2-1.4c-0.6-0.6-1-1.3-1.3-2.1c-0.3-0.8-0.5-1.7-0.5-2.7c0-1,0.2-1.9,0.5-2.7
			c0.3-0.8,0.7-1.5,1.3-2.1c0.6-0.6,1.2-1,2-1.4c0.8-0.3,1.6-0.5,2.6-0.5s1.8,0.2,2.6,0.5c0.8,0.3,1.5,0.8,2,1.4
			c0.6,0.6,1,1.3,1.3,2.1C261.4,111.7,261.6,112.6,261.6,113.6z M259.8,113.6c0-0.8-0.1-1.5-0.3-2.1s-0.5-1.2-0.9-1.6
			c-0.4-0.4-0.9-0.8-1.4-1c-0.6-0.2-1.2-0.4-1.9-0.4c-0.7,0-1.3,0.1-1.9,0.4c-0.6,0.2-1,0.6-1.4,1c-0.4,0.4-0.7,1-0.9,1.6
			s-0.3,1.3-0.3,2.1s0.1,1.5,0.3,2.1s0.5,1.2,0.9,1.6c0.4,0.4,0.9,0.8,1.4,1c0.6,0.2,1.2,0.3,1.9,0.3c0.7,0,1.3-0.1,1.9-0.3
			c0.6-0.2,1-0.6,1.4-1c0.4-0.4,0.7-1,0.9-1.6S259.8,114.4,259.8,113.6z"/>
		<path class="fill-purple" d="M270.6,110.9v9.1h-1c-0.2,0-0.4-0.1-0.4-0.3l-0.1-1c-0.4,0.4-0.8,0.8-1.3,1.1c-0.5,0.3-1.1,0.4-1.7,0.4
			c-0.5,0-0.9-0.1-1.3-0.2s-0.7-0.4-1-0.7s-0.5-0.7-0.6-1.1c-0.1-0.4-0.2-0.9-0.2-1.4v-5.8h1.6v5.8c0,0.7,0.2,1.2,0.5,1.6
			c0.3,0.4,0.8,0.6,1.4,0.6c0.5,0,0.9-0.1,1.3-0.3c0.4-0.2,0.8-0.5,1.1-0.9v-6.7H270.6z"/>
		<path class="fill-purple" d="M280.5,110.9l-3.7,9.1h-1.4l-3.7-9.1h1.3c0.1,0,0.2,0,0.3,0.1c0.1,0.1,0.1,0.1,0.2,0.2l2.3,5.9
			c0.1,0.2,0.1,0.4,0.2,0.6c0.1,0.2,0.1,0.4,0.2,0.6c0-0.2,0.1-0.4,0.2-0.6c0.1-0.2,0.1-0.4,0.2-0.6l2.3-5.9c0-0.1,0.1-0.2,0.2-0.2
			c0.1-0.1,0.2-0.1,0.3-0.1H280.5z"/>
		<path class="fill-purple" d="M283,112.7c0.3-0.6,0.6-1.1,1.1-1.5c0.4-0.4,0.9-0.5,1.5-0.5c0.2,0,0.4,0,0.6,0.1s0.3,0.1,0.5,0.2l-0.1,1.2
			c0,0.2-0.1,0.2-0.3,0.2c-0.1,0-0.2,0-0.4-0.1c-0.2,0-0.3-0.1-0.5-0.1c-0.3,0-0.5,0-0.8,0.1c-0.2,0.1-0.4,0.2-0.6,0.4
			s-0.3,0.4-0.5,0.6c-0.1,0.2-0.3,0.5-0.4,0.8v5.8h-1.6v-9.1h0.9c0.2,0,0.3,0,0.4,0.1c0.1,0.1,0.1,0.2,0.1,0.3L283,112.7z"/>
		<path class="fill-purple" d="M287.2,112.2c0.5-0.5,1-0.8,1.6-1.1s1.2-0.4,1.9-0.4c0.5,0,1,0.1,1.4,0.3c0.4,0.2,0.7,0.4,1,0.7
			c0.3,0.3,0.5,0.7,0.6,1.1c0.1,0.4,0.2,0.9,0.2,1.4v5.8h-0.7c-0.2,0-0.3,0-0.4-0.1s-0.2-0.2-0.2-0.3l-0.2-0.9
			c-0.2,0.2-0.5,0.4-0.7,0.6c-0.2,0.2-0.5,0.3-0.7,0.4s-0.5,0.2-0.8,0.3c-0.3,0.1-0.6,0.1-0.9,0.1c-0.4,0-0.7,0-1-0.1
			c-0.3-0.1-0.6-0.2-0.8-0.4c-0.2-0.2-0.4-0.4-0.5-0.8c-0.1-0.3-0.2-0.7-0.2-1.1c0-0.4,0.1-0.7,0.3-1s0.5-0.6,1-0.9
			c0.4-0.3,1-0.5,1.7-0.6s1.6-0.3,2.6-0.3v-0.7c0-0.7-0.2-1.2-0.5-1.6s-0.8-0.5-1.3-0.5c-0.4,0-0.7,0-1,0.1
			c-0.3,0.1-0.5,0.2-0.7,0.3c-0.2,0.1-0.4,0.2-0.5,0.3c-0.1,0.1-0.3,0.1-0.4,0.1c-0.1,0-0.2,0-0.3-0.1c-0.1-0.1-0.1-0.1-0.2-0.2
			L287.2,112.2z M292.4,115.9c-0.7,0-1.4,0.1-1.9,0.2c-0.5,0.1-0.9,0.2-1.3,0.4c-0.3,0.2-0.6,0.3-0.7,0.5c-0.1,0.2-0.2,0.4-0.2,0.7
			c0,0.2,0,0.4,0.1,0.6c0.1,0.2,0.2,0.3,0.3,0.4c0.1,0.1,0.3,0.2,0.5,0.2c0.2,0.1,0.4,0.1,0.6,0.1c0.3,0,0.5,0,0.8-0.1
			c0.2-0.1,0.5-0.1,0.7-0.2c0.2-0.1,0.4-0.2,0.6-0.4c0.2-0.1,0.4-0.3,0.6-0.5V115.9z"/>
		<path class="fill-purple" d="M303.7,111.3v0.6c0,0.2-0.1,0.3-0.4,0.4l-1,0.1c0.2,0.4,0.3,0.8,0.3,1.3c0,0.4-0.1,0.8-0.3,1.2
			c-0.2,0.4-0.4,0.7-0.7,0.9c-0.3,0.3-0.7,0.5-1.1,0.6c-0.4,0.1-0.9,0.2-1.4,0.2c-0.4,0-0.8-0.1-1.2-0.2c-0.2,0.1-0.3,0.2-0.4,0.4
			c-0.1,0.1-0.2,0.3-0.2,0.4c0,0.2,0.1,0.4,0.3,0.5c0.2,0.1,0.4,0.2,0.7,0.2c0.3,0,0.6,0.1,1,0.1c0.4,0,0.7,0,1.1,0.1
			c0.4,0,0.8,0.1,1.1,0.1c0.4,0.1,0.7,0.2,1,0.3c0.3,0.2,0.5,0.4,0.7,0.6c0.2,0.3,0.3,0.6,0.3,1c0,0.4-0.1,0.8-0.3,1.1
			s-0.5,0.7-0.8,1s-0.8,0.5-1.3,0.7c-0.5,0.2-1.1,0.3-1.8,0.3s-1.2-0.1-1.7-0.2s-0.9-0.3-1.2-0.5c-0.3-0.2-0.6-0.5-0.7-0.8
			s-0.2-0.6-0.2-0.9c0-0.5,0.1-0.8,0.4-1.1c0.3-0.3,0.7-0.6,1.2-0.7c-0.3-0.1-0.5-0.3-0.6-0.5c-0.2-0.2-0.2-0.5-0.2-0.8
			c0-0.1,0-0.3,0.1-0.4c0-0.1,0.1-0.3,0.2-0.4c0.1-0.1,0.2-0.3,0.4-0.4s0.3-0.2,0.5-0.3c-0.5-0.3-0.8-0.6-1.1-1s-0.4-0.9-0.4-1.5
			c0-0.4,0.1-0.8,0.3-1.2c0.2-0.4,0.4-0.7,0.7-0.9s0.7-0.5,1.1-0.6c0.4-0.1,0.9-0.2,1.4-0.2c0.4,0,0.8,0,1.1,0.1s0.7,0.2,0.9,0.4
			H303.7z M302,120.5c0-0.2-0.1-0.4-0.2-0.5c-0.1-0.1-0.3-0.2-0.5-0.3s-0.5-0.1-0.7-0.2c-0.3,0-0.6-0.1-0.9-0.1c-0.3,0-0.6,0-1-0.1
			s-0.6,0-0.9-0.1c-0.3,0.2-0.6,0.4-0.8,0.6c-0.2,0.2-0.3,0.5-0.3,0.8c0,0.2,0.1,0.4,0.2,0.6c0.1,0.2,0.3,0.3,0.5,0.5
			c0.2,0.1,0.5,0.2,0.8,0.3c0.3,0.1,0.7,0.1,1.2,0.1c0.4,0,0.8,0,1.2-0.1c0.3-0.1,0.6-0.2,0.9-0.3s0.4-0.3,0.5-0.5
			C302,121,302,120.8,302,120.5z M299.1,115.6c0.3,0,0.6,0,0.9-0.1s0.5-0.2,0.6-0.4s0.3-0.4,0.4-0.6c0.1-0.2,0.1-0.5,0.1-0.7
			c0-0.6-0.2-1-0.5-1.3c-0.3-0.3-0.8-0.5-1.5-0.5c-0.6,0-1.1,0.2-1.5,0.5c-0.3,0.3-0.5,0.8-0.5,1.3c0,0.3,0,0.5,0.1,0.7
			c0.1,0.2,0.2,0.4,0.4,0.6s0.4,0.3,0.6,0.4S298.8,115.6,299.1,115.6z"/>
		<path class="fill-purple" d="M312.1,118.8c-0.2,0.2-0.4,0.4-0.7,0.6c-0.3,0.2-0.6,0.3-0.9,0.4c-0.3,0.1-0.6,0.2-1,0.3
			c-0.3,0.1-0.7,0.1-1,0.1c-0.6,0-1.2-0.1-1.7-0.3s-1-0.5-1.4-0.9c-0.4-0.4-0.7-0.9-0.9-1.5c-0.2-0.6-0.3-1.3-0.3-2.1
			c0-0.6,0.1-1.2,0.3-1.8c0.2-0.6,0.5-1,0.8-1.4c0.4-0.4,0.8-0.7,1.3-1c0.5-0.2,1.1-0.3,1.8-0.3c0.5,0,1.1,0.1,1.5,0.3
			c0.5,0.2,0.9,0.4,1.2,0.8s0.6,0.8,0.8,1.3c0.2,0.5,0.3,1.1,0.3,1.7c0,0.3,0,0.4-0.1,0.5c-0.1,0.1-0.2,0.1-0.3,0.1h-6.1
			c0,0.6,0.1,1.1,0.2,1.5s0.3,0.8,0.6,1.1s0.6,0.5,0.9,0.6c0.3,0.1,0.7,0.2,1.2,0.2c0.4,0,0.7,0,1-0.1s0.5-0.2,0.8-0.3
			c0.2-0.1,0.4-0.2,0.5-0.3c0.1-0.1,0.3-0.1,0.4-0.1c0.1,0,0.2,0.1,0.3,0.2L312.1,118.8z M310.8,114.5c0-0.4-0.1-0.7-0.2-1
			c-0.1-0.3-0.3-0.6-0.5-0.8c-0.2-0.2-0.4-0.4-0.7-0.5c-0.3-0.1-0.6-0.2-1-0.2c-0.8,0-1.4,0.2-1.8,0.7c-0.4,0.4-0.7,1.1-0.8,1.9
			H310.8z"/>
	</g>
	<g>
		<path class="fill-purple" d="M99.3,159.3h-1.3c-0.2,0-0.3,0-0.4-0.1c-0.1-0.1-0.2-0.2-0.2-0.3l-1.2-3.1h-5.8l-1.2,3.1
			c0,0.1-0.1,0.2-0.2,0.3c-0.1,0.1-0.2,0.1-0.4,0.1h-1.4l5.2-12.9h1.8L99.3,159.3z M95.7,154.5l-2-5.2c-0.1-0.2-0.1-0.3-0.2-0.5
			c-0.1-0.2-0.1-0.4-0.2-0.7c-0.1,0.5-0.3,0.9-0.4,1.2l-2,5.2H95.7z"/>
		<path class="fill-purple" d="M105.5,151.7c-0.1,0.1-0.2,0.2-0.3,0.2c-0.1,0-0.2,0-0.3-0.1c-0.1-0.1-0.3-0.1-0.4-0.2
			c-0.2-0.1-0.4-0.2-0.6-0.2c-0.2-0.1-0.5-0.1-0.8-0.1c-0.3,0-0.5,0-0.7,0.1c-0.2,0.1-0.4,0.2-0.6,0.3c-0.2,0.1-0.3,0.3-0.4,0.4
			c-0.1,0.2-0.1,0.3-0.1,0.5c0,0.2,0.1,0.4,0.2,0.6s0.3,0.3,0.5,0.4c0.2,0.1,0.5,0.2,0.8,0.3c0.3,0.1,0.6,0.2,0.9,0.3
			c0.3,0.1,0.6,0.2,0.9,0.3c0.3,0.1,0.5,0.3,0.8,0.4c0.2,0.2,0.4,0.4,0.5,0.7c0.1,0.3,0.2,0.6,0.2,0.9c0,0.4-0.1,0.8-0.2,1.2
			c-0.2,0.4-0.4,0.7-0.7,0.9c-0.3,0.3-0.7,0.5-1.1,0.6c-0.4,0.2-0.9,0.2-1.5,0.2c-0.6,0-1.2-0.1-1.7-0.3c-0.5-0.2-1-0.5-1.3-0.8
			l0.4-0.6c0-0.1,0.1-0.1,0.2-0.2c0.1,0,0.1-0.1,0.3-0.1c0.1,0,0.2,0,0.3,0.1c0.1,0.1,0.3,0.2,0.4,0.3c0.2,0.1,0.4,0.2,0.6,0.3
			s0.6,0.1,0.9,0.1c0.3,0,0.6,0,0.8-0.1c0.2-0.1,0.4-0.2,0.6-0.3c0.2-0.1,0.3-0.3,0.3-0.5s0.1-0.4,0.1-0.6c0-0.3-0.1-0.5-0.2-0.6
			c-0.1-0.2-0.3-0.3-0.5-0.4c-0.2-0.1-0.5-0.2-0.8-0.3c-0.3-0.1-0.6-0.2-0.9-0.3s-0.6-0.2-0.9-0.3s-0.5-0.3-0.8-0.5
			c-0.2-0.2-0.4-0.4-0.5-0.7c-0.1-0.3-0.2-0.6-0.2-1c0-0.3,0.1-0.7,0.2-1c0.1-0.3,0.4-0.6,0.6-0.8c0.3-0.2,0.6-0.4,1-0.6
			c0.4-0.1,0.9-0.2,1.4-0.2c0.6,0,1.1,0.1,1.6,0.3c0.5,0.2,0.9,0.4,1.2,0.8L105.5,151.7z"/>
		<path class="fill-purple" d="M112.8,151.7c-0.1,0.1-0.2,0.2-0.3,0.2c-0.1,0-0.2,0-0.3-0.1c-0.1-0.1-0.3-0.1-0.4-0.2
			c-0.2-0.1-0.4-0.2-0.6-0.2c-0.2-0.1-0.5-0.1-0.8-0.1c-0.3,0-0.5,0-0.7,0.1c-0.2,0.1-0.4,0.2-0.6,0.3c-0.2,0.1-0.3,0.3-0.4,0.4
			c-0.1,0.2-0.1,0.3-0.1,0.5c0,0.2,0.1,0.4,0.2,0.6s0.3,0.3,0.5,0.4c0.2,0.1,0.5,0.2,0.8,0.3c0.3,0.1,0.6,0.2,0.9,0.3
			c0.3,0.1,0.6,0.2,0.9,0.3c0.3,0.1,0.5,0.3,0.8,0.4c0.2,0.2,0.4,0.4,0.5,0.7c0.1,0.3,0.2,0.6,0.2,0.9c0,0.4-0.1,0.8-0.2,1.2
			c-0.2,0.4-0.4,0.7-0.7,0.9c-0.3,0.3-0.7,0.5-1.1,0.6c-0.4,0.2-0.9,0.2-1.5,0.2c-0.6,0-1.2-0.1-1.7-0.3c-0.5-0.2-1-0.5-1.3-0.8
			l0.4-0.6c0-0.1,0.1-0.1,0.2-0.2c0.1,0,0.1-0.1,0.3-0.1c0.1,0,0.2,0,0.3,0.1c0.1,0.1,0.3,0.2,0.4,0.3c0.2,0.1,0.4,0.2,0.6,0.3
			s0.6,0.1,0.9,0.1c0.3,0,0.6,0,0.8-0.1c0.2-0.1,0.4-0.2,0.6-0.3c0.2-0.1,0.3-0.3,0.3-0.5s0.1-0.4,0.1-0.6c0-0.3-0.1-0.5-0.2-0.6
			c-0.1-0.2-0.3-0.3-0.5-0.4c-0.2-0.1-0.5-0.2-0.8-0.3c-0.3-0.1-0.6-0.2-0.9-0.3s-0.6-0.2-0.9-0.3s-0.5-0.3-0.8-0.5
			c-0.2-0.2-0.4-0.4-0.5-0.7c-0.1-0.3-0.2-0.6-0.2-1c0-0.3,0.1-0.7,0.2-1c0.1-0.3,0.4-0.6,0.6-0.8c0.3-0.2,0.6-0.4,1-0.6
			c0.4-0.1,0.9-0.2,1.4-0.2c0.6,0,1.1,0.1,1.6,0.3c0.5,0.2,0.9,0.4,1.2,0.8L112.8,151.7z"/>
		<path class="fill-purple" d="M116.9,147.3c0,0.2,0,0.3-0.1,0.4c-0.1,0.1-0.1,0.3-0.3,0.4c-0.1,0.1-0.2,0.2-0.4,0.2
			c-0.1,0.1-0.3,0.1-0.4,0.1c-0.2,0-0.3,0-0.4-0.1c-0.1-0.1-0.3-0.1-0.4-0.2c-0.1-0.1-0.2-0.2-0.2-0.4c-0.1-0.1-0.1-0.3-0.1-0.4
			c0-0.2,0-0.3,0.1-0.4c0.1-0.1,0.1-0.3,0.2-0.4c0.1-0.1,0.2-0.2,0.4-0.2c0.1-0.1,0.3-0.1,0.4-0.1c0.2,0,0.3,0,0.4,0.1
			c0.1,0.1,0.3,0.1,0.4,0.2c0.1,0.1,0.2,0.2,0.3,0.4C116.9,147,116.9,147.1,116.9,147.3z M116.5,150.2v9.1h-1.6v-9.1H116.5z"/>
		<path class="fill-purple" d="M124,151.7c-0.1,0.1-0.2,0.2-0.3,0.2c-0.1,0-0.2,0-0.3-0.1c-0.1-0.1-0.3-0.1-0.4-0.2
			c-0.2-0.1-0.4-0.2-0.6-0.2c-0.2-0.1-0.5-0.1-0.8-0.1c-0.3,0-0.5,0-0.7,0.1c-0.2,0.1-0.4,0.2-0.6,0.3c-0.2,0.1-0.3,0.3-0.4,0.4
			c-0.1,0.2-0.1,0.3-0.1,0.5c0,0.2,0.1,0.4,0.2,0.6s0.3,0.3,0.5,0.4c0.2,0.1,0.5,0.2,0.8,0.3c0.3,0.1,0.6,0.2,0.9,0.3
			c0.3,0.1,0.6,0.2,0.9,0.3c0.3,0.1,0.5,0.3,0.8,0.4c0.2,0.2,0.4,0.4,0.5,0.7c0.1,0.3,0.2,0.6,0.2,0.9c0,0.4-0.1,0.8-0.2,1.2
			c-0.2,0.4-0.4,0.7-0.7,0.9c-0.3,0.3-0.7,0.5-1.1,0.6c-0.4,0.2-0.9,0.2-1.5,0.2c-0.6,0-1.2-0.1-1.7-0.3c-0.5-0.2-1-0.5-1.3-0.8
			l0.4-0.6c0-0.1,0.1-0.1,0.2-0.2c0.1,0,0.1-0.1,0.3-0.1c0.1,0,0.2,0,0.3,0.1c0.1,0.1,0.3,0.2,0.4,0.3c0.2,0.1,0.4,0.2,0.6,0.3
			s0.6,0.1,0.9,0.1c0.3,0,0.6,0,0.8-0.1c0.2-0.1,0.4-0.2,0.6-0.3c0.2-0.1,0.3-0.3,0.3-0.5s0.1-0.4,0.1-0.6c0-0.3-0.1-0.5-0.2-0.6
			c-0.1-0.2-0.3-0.3-0.5-0.4c-0.2-0.1-0.5-0.2-0.8-0.3c-0.3-0.1-0.6-0.2-0.9-0.3s-0.6-0.2-0.9-0.3s-0.5-0.3-0.8-0.5
			c-0.2-0.2-0.4-0.4-0.5-0.7c-0.1-0.3-0.2-0.6-0.2-1c0-0.3,0.1-0.7,0.2-1c0.1-0.3,0.4-0.6,0.6-0.8c0.3-0.2,0.6-0.4,1-0.6
			c0.4-0.1,0.9-0.2,1.4-0.2c0.6,0,1.1,0.1,1.6,0.3c0.5,0.2,0.9,0.4,1.2,0.8L124,151.7z"/>
		<path class="fill-purple" d="M128.9,159.4c-0.7,0-1.3-0.2-1.7-0.6c-0.4-0.4-0.6-1-0.6-1.7v-5.6h-1.1c-0.1,0-0.2,0-0.2-0.1
			c-0.1-0.1-0.1-0.1-0.1-0.3v-0.6l1.5-0.2l0.4-2.8c0-0.1,0.1-0.2,0.1-0.2c0.1-0.1,0.1-0.1,0.2-0.1h0.8v3.1h2.6v1.2h-2.6v5.5
			c0,0.4,0.1,0.7,0.3,0.9c0.2,0.2,0.4,0.3,0.7,0.3c0.2,0,0.3,0,0.4-0.1s0.2-0.1,0.3-0.1c0.1-0.1,0.2-0.1,0.2-0.1
			c0.1,0,0.1-0.1,0.2-0.1c0.1,0,0.2,0.1,0.2,0.2l0.5,0.8c-0.3,0.3-0.6,0.5-1,0.6C129.7,159.4,129.3,159.4,128.9,159.4z"/>
		<path class="fill-purple" d="M131.8,151.5c0.5-0.5,1-0.8,1.6-1.1s1.2-0.4,1.9-0.4c0.5,0,1,0.1,1.4,0.3c0.4,0.2,0.7,0.4,1,0.7
			c0.3,0.3,0.5,0.7,0.6,1.1c0.1,0.4,0.2,0.9,0.2,1.4v5.8h-0.7c-0.2,0-0.3,0-0.4-0.1s-0.2-0.2-0.2-0.3l-0.2-0.9
			c-0.2,0.2-0.5,0.4-0.7,0.6c-0.2,0.2-0.5,0.3-0.7,0.4s-0.5,0.2-0.8,0.3s-0.6,0.1-0.9,0.1c-0.4,0-0.7,0-1-0.1
			c-0.3-0.1-0.6-0.2-0.8-0.4c-0.2-0.2-0.4-0.4-0.5-0.8c-0.1-0.3-0.2-0.7-0.2-1.1c0-0.4,0.1-0.7,0.3-1c0.2-0.3,0.5-0.6,1-0.9
			c0.4-0.3,1-0.5,1.7-0.6c0.7-0.2,1.6-0.3,2.6-0.3v-0.7c0-0.7-0.2-1.2-0.5-1.6s-0.8-0.5-1.3-0.5c-0.4,0-0.7,0.1-1,0.1
			c-0.3,0.1-0.5,0.2-0.7,0.3c-0.2,0.1-0.4,0.2-0.5,0.3c-0.1,0.1-0.3,0.2-0.4,0.2c-0.1,0-0.2,0-0.3-0.1c-0.1-0.1-0.1-0.1-0.2-0.2
			L131.8,151.5z M137,155.2c-0.7,0-1.4,0.1-1.9,0.2c-0.5,0.1-0.9,0.2-1.3,0.4s-0.6,0.3-0.7,0.5c-0.1,0.2-0.2,0.4-0.2,0.7
			c0,0.2,0,0.4,0.1,0.6s0.2,0.3,0.3,0.4s0.3,0.2,0.5,0.2c0.2,0.1,0.4,0.1,0.6,0.1c0.3,0,0.5,0,0.8-0.1c0.2-0.1,0.5-0.1,0.7-0.2
			s0.4-0.2,0.6-0.4c0.2-0.2,0.4-0.3,0.6-0.5V155.2z"/>
		<path class="fill-purple" d="M142.1,151.5c0.2-0.2,0.4-0.4,0.6-0.6c0.2-0.2,0.5-0.3,0.7-0.5s0.5-0.2,0.8-0.3c0.3-0.1,0.6-0.1,0.9-0.1
			c0.5,0,0.9,0.1,1.3,0.2c0.4,0.2,0.7,0.4,1,0.7c0.3,0.3,0.4,0.7,0.6,1.1s0.2,0.9,0.2,1.4v5.8h-1.6v-5.8c0-0.7-0.2-1.2-0.5-1.6
			c-0.3-0.4-0.8-0.6-1.4-0.6c-0.5,0-0.9,0.1-1.3,0.3c-0.4,0.2-0.8,0.5-1.1,0.9v6.7h-1.6v-9.1h1c0.2,0,0.4,0.1,0.4,0.3L142.1,151.5z"
			/>
		<path class="fill-purple" d="M156.5,151.8c0,0.1-0.1,0.1-0.1,0.2c0,0-0.1,0.1-0.2,0.1c-0.1,0-0.2,0-0.3-0.1c-0.1-0.1-0.2-0.2-0.4-0.2
			s-0.4-0.2-0.6-0.2c-0.2-0.1-0.5-0.1-0.9-0.1c-0.4,0-0.8,0.1-1.2,0.2c-0.3,0.2-0.6,0.4-0.9,0.7c-0.2,0.3-0.4,0.7-0.5,1.1
			s-0.2,0.9-0.2,1.4c0,0.6,0.1,1,0.2,1.5s0.3,0.8,0.5,1.1c0.2,0.3,0.5,0.5,0.8,0.7s0.7,0.2,1.1,0.2c0.4,0,0.7,0,1-0.1
			c0.3-0.1,0.5-0.2,0.6-0.3s0.3-0.2,0.4-0.3s0.2-0.1,0.3-0.1c0.1,0,0.2,0.1,0.3,0.2l0.4,0.6c-0.2,0.2-0.4,0.5-0.7,0.6
			s-0.5,0.3-0.8,0.4c-0.3,0.1-0.6,0.2-0.9,0.3c-0.3,0.1-0.6,0.1-1,0.1c-0.6,0-1.1-0.1-1.6-0.3c-0.5-0.2-0.9-0.5-1.3-0.9
			c-0.4-0.4-0.6-0.9-0.8-1.5c-0.2-0.6-0.3-1.2-0.3-2c0-0.7,0.1-1.3,0.3-1.9c0.2-0.6,0.5-1.1,0.8-1.5c0.4-0.4,0.8-0.7,1.3-1
			c0.5-0.2,1.1-0.4,1.8-0.4c0.6,0,1.2,0.1,1.7,0.3s0.9,0.5,1.3,0.9L156.5,151.8z"/>
		<path class="fill-purple" d="M165.5,158c-0.2,0.2-0.4,0.4-0.7,0.6c-0.3,0.2-0.6,0.3-0.9,0.4c-0.3,0.1-0.6,0.2-1,0.3
			c-0.3,0.1-0.7,0.1-1,0.1c-0.6,0-1.2-0.1-1.7-0.3s-1-0.5-1.4-0.9c-0.4-0.4-0.7-0.9-0.9-1.5c-0.2-0.6-0.3-1.3-0.3-2.1
			c0-0.6,0.1-1.2,0.3-1.8c0.2-0.6,0.5-1,0.8-1.4s0.8-0.7,1.3-1c0.5-0.2,1.1-0.3,1.8-0.3c0.5,0,1.1,0.1,1.5,0.3
			c0.5,0.2,0.9,0.4,1.2,0.8c0.3,0.3,0.6,0.8,0.8,1.3c0.2,0.5,0.3,1.1,0.3,1.7c0,0.3,0,0.4-0.1,0.5c-0.1,0.1-0.2,0.1-0.3,0.1h-6.1
			c0,0.6,0.1,1.1,0.2,1.5s0.3,0.8,0.6,1.1s0.6,0.5,0.9,0.6c0.3,0.1,0.7,0.2,1.2,0.2c0.4,0,0.7,0,1-0.1c0.3-0.1,0.5-0.2,0.8-0.3
			c0.2-0.1,0.4-0.2,0.5-0.3c0.1-0.1,0.3-0.1,0.4-0.1c0.1,0,0.2,0.1,0.3,0.2L165.5,158z M164.2,153.7c0-0.4-0.1-0.7-0.2-1
			c-0.1-0.3-0.3-0.6-0.5-0.8c-0.2-0.2-0.4-0.4-0.7-0.5c-0.3-0.1-0.6-0.2-1-0.2c-0.8,0-1.4,0.2-1.8,0.7c-0.4,0.4-0.7,1.1-0.8,1.9
			H164.2z"/>
		<path class="fill-purple" d="M185.2,146.4v12.9h-1.5v-9.5c0-0.1,0-0.3,0-0.4c0-0.1,0-0.3,0-0.4l-4.4,8.1c-0.1,0.3-0.3,0.4-0.6,0.4h-0.3
			c-0.3,0-0.5-0.1-0.6-0.4l-4.5-8.1c0,0.3,0.1,0.6,0.1,0.9v9.5h-1.5v-12.9h1.3c0.2,0,0.3,0,0.4,0c0.1,0,0.2,0.1,0.2,0.3l4.5,7.9
			c0.1,0.1,0.1,0.3,0.2,0.4c0.1,0.2,0.1,0.3,0.2,0.5c0.1-0.2,0.1-0.3,0.2-0.5s0.1-0.3,0.2-0.5l4.4-7.9c0.1-0.1,0.2-0.2,0.2-0.3
			c0.1,0,0.2,0,0.4,0H185.2z"/>
		<path class="fill-purple" d="M187.1,151.5c0.5-0.5,1-0.8,1.6-1.1s1.2-0.4,1.9-0.4c0.5,0,1,0.1,1.4,0.3c0.4,0.2,0.7,0.4,1,0.7
			c0.3,0.3,0.5,0.7,0.6,1.1c0.1,0.4,0.2,0.9,0.2,1.4v5.8h-0.7c-0.2,0-0.3,0-0.4-0.1s-0.2-0.2-0.2-0.3l-0.2-0.9
			c-0.2,0.2-0.5,0.4-0.7,0.6c-0.2,0.2-0.5,0.3-0.7,0.4s-0.5,0.2-0.8,0.3s-0.6,0.1-0.9,0.1c-0.4,0-0.7,0-1-0.1
			c-0.3-0.1-0.6-0.2-0.8-0.4c-0.2-0.2-0.4-0.4-0.5-0.8c-0.1-0.3-0.2-0.7-0.2-1.1c0-0.4,0.1-0.7,0.3-1c0.2-0.3,0.5-0.6,1-0.9
			c0.4-0.3,1-0.5,1.7-0.6c0.7-0.2,1.6-0.3,2.6-0.3v-0.7c0-0.7-0.2-1.2-0.5-1.6s-0.8-0.5-1.3-0.5c-0.4,0-0.7,0.1-1,0.1
			c-0.3,0.1-0.5,0.2-0.7,0.3c-0.2,0.1-0.4,0.2-0.5,0.3c-0.1,0.1-0.3,0.2-0.4,0.2c-0.1,0-0.2,0-0.3-0.1c-0.1-0.1-0.1-0.1-0.2-0.2
			L187.1,151.5z M192.3,155.2c-0.7,0-1.4,0.1-1.9,0.2c-0.5,0.1-0.9,0.2-1.3,0.4s-0.6,0.3-0.7,0.5c-0.1,0.2-0.2,0.4-0.2,0.7
			c0,0.2,0,0.4,0.1,0.6s0.2,0.3,0.3,0.4s0.3,0.2,0.5,0.2c0.2,0.1,0.4,0.1,0.6,0.1c0.3,0,0.5,0,0.8-0.1c0.2-0.1,0.5-0.1,0.7-0.2
			s0.4-0.2,0.6-0.4c0.2-0.2,0.4-0.3,0.6-0.5V155.2z"/>
		<path class="fill-purple" d="M197.9,147.3c0,0.2,0,0.3-0.1,0.4c-0.1,0.1-0.1,0.3-0.3,0.4c-0.1,0.1-0.2,0.2-0.4,0.2
			c-0.1,0.1-0.3,0.1-0.4,0.1c-0.2,0-0.3,0-0.4-0.1c-0.1-0.1-0.3-0.1-0.4-0.2c-0.1-0.1-0.2-0.2-0.2-0.4c-0.1-0.1-0.1-0.3-0.1-0.4
			c0-0.2,0-0.3,0.1-0.4c0.1-0.1,0.1-0.3,0.2-0.4c0.1-0.1,0.2-0.2,0.4-0.2c0.1-0.1,0.3-0.1,0.4-0.1c0.2,0,0.3,0,0.4,0.1
			c0.1,0.1,0.3,0.1,0.4,0.2c0.1,0.1,0.2,0.2,0.3,0.4C197.8,147,197.9,147.1,197.9,147.3z M197.5,150.2v9.1h-1.6v-9.1H197.5z"/>
		<path class="fill-purple" d="M202.5,159.4c-0.7,0-1.3-0.2-1.7-0.6c-0.4-0.4-0.6-1-0.6-1.7v-5.6h-1.1c-0.1,0-0.2,0-0.2-0.1
			c-0.1-0.1-0.1-0.1-0.1-0.3v-0.6l1.5-0.2l0.4-2.8c0-0.1,0.1-0.2,0.1-0.2c0.1-0.1,0.1-0.1,0.2-0.1h0.8v3.1h2.6v1.2h-2.6v5.5
			c0,0.4,0.1,0.7,0.3,0.9c0.2,0.2,0.4,0.3,0.7,0.3c0.2,0,0.3,0,0.4-0.1s0.2-0.1,0.3-0.1c0.1-0.1,0.2-0.1,0.2-0.1
			c0.1,0,0.1-0.1,0.2-0.1c0.1,0,0.2,0.1,0.2,0.2l0.5,0.8c-0.3,0.3-0.6,0.5-1,0.6C203.3,159.4,202.9,159.4,202.5,159.4z"/>
		<path class="fill-purple" d="M207.2,152c0.3-0.6,0.6-1.1,1.1-1.5c0.4-0.3,0.9-0.5,1.5-0.5c0.2,0,0.4,0,0.6,0.1c0.2,0,0.3,0.1,0.5,0.2
			l-0.1,1.2c0,0.2-0.1,0.2-0.3,0.2c-0.1,0-0.2,0-0.4-0.1s-0.3-0.1-0.5-0.1c-0.3,0-0.5,0-0.8,0.1c-0.2,0.1-0.4,0.2-0.6,0.4
			c-0.2,0.2-0.3,0.4-0.5,0.6c-0.1,0.2-0.3,0.5-0.4,0.8v5.8h-1.6v-9.1h0.9c0.2,0,0.3,0,0.4,0.1c0.1,0.1,0.1,0.2,0.1,0.3L207.2,152z"
			/>
		<path class="fill-purple" d="M213.9,147.3c0,0.2,0,0.3-0.1,0.4c-0.1,0.1-0.1,0.3-0.3,0.4c-0.1,0.1-0.2,0.2-0.4,0.2
			c-0.1,0.1-0.3,0.1-0.4,0.1c-0.2,0-0.3,0-0.4-0.1c-0.1-0.1-0.3-0.1-0.4-0.2c-0.1-0.1-0.2-0.2-0.2-0.4c-0.1-0.1-0.1-0.3-0.1-0.4
			c0-0.2,0-0.3,0.1-0.4c0.1-0.1,0.1-0.3,0.2-0.4c0.1-0.1,0.2-0.2,0.4-0.2c0.1-0.1,0.3-0.1,0.4-0.1c0.2,0,0.3,0,0.4,0.1
			c0.1,0.1,0.3,0.1,0.4,0.2c0.1,0.1,0.2,0.2,0.3,0.4C213.8,147,213.9,147.1,213.9,147.3z M213.5,150.2v9.1h-1.6v-9.1H213.5z"/>
		<path class="fill-purple" d="M221,151.7c-0.1,0.1-0.2,0.2-0.3,0.2c-0.1,0-0.2,0-0.3-0.1c-0.1-0.1-0.3-0.1-0.4-0.2
			c-0.2-0.1-0.4-0.2-0.6-0.2c-0.2-0.1-0.5-0.1-0.8-0.1c-0.3,0-0.5,0-0.7,0.1c-0.2,0.1-0.4,0.2-0.6,0.3c-0.2,0.1-0.3,0.3-0.4,0.4
			c-0.1,0.2-0.1,0.3-0.1,0.5c0,0.2,0.1,0.4,0.2,0.6s0.3,0.3,0.5,0.4c0.2,0.1,0.5,0.2,0.8,0.3c0.3,0.1,0.6,0.2,0.9,0.3
			c0.3,0.1,0.6,0.2,0.9,0.3c0.3,0.1,0.5,0.3,0.8,0.4c0.2,0.2,0.4,0.4,0.5,0.7c0.1,0.3,0.2,0.6,0.2,0.9c0,0.4-0.1,0.8-0.2,1.2
			c-0.2,0.4-0.4,0.7-0.7,0.9c-0.3,0.3-0.7,0.5-1.1,0.6c-0.4,0.2-0.9,0.2-1.5,0.2c-0.6,0-1.2-0.1-1.7-0.3c-0.5-0.2-1-0.5-1.3-0.8
			l0.4-0.6c0-0.1,0.1-0.1,0.2-0.2c0.1,0,0.1-0.1,0.3-0.1c0.1,0,0.2,0,0.3,0.1c0.1,0.1,0.3,0.2,0.4,0.3c0.2,0.1,0.4,0.2,0.6,0.3
			s0.6,0.1,0.9,0.1c0.3,0,0.6,0,0.8-0.1c0.2-0.1,0.4-0.2,0.6-0.3c0.2-0.1,0.3-0.3,0.3-0.5s0.1-0.4,0.1-0.6c0-0.3-0.1-0.5-0.2-0.6
			c-0.1-0.2-0.3-0.3-0.5-0.4c-0.2-0.1-0.5-0.2-0.8-0.3c-0.3-0.1-0.6-0.2-0.9-0.3s-0.6-0.2-0.9-0.3s-0.5-0.3-0.8-0.5
			c-0.2-0.2-0.4-0.4-0.5-0.7c-0.1-0.3-0.2-0.6-0.2-1c0-0.3,0.1-0.7,0.2-1c0.1-0.3,0.4-0.6,0.6-0.8c0.3-0.2,0.6-0.4,1-0.6
			c0.4-0.1,0.9-0.2,1.4-0.2c0.6,0,1.1,0.1,1.6,0.3c0.5,0.2,0.9,0.4,1.2,0.8L221,151.7z"/>
		<path class="fill-purple" d="M230.4,158c-0.2,0.2-0.4,0.4-0.7,0.6c-0.3,0.2-0.6,0.3-0.9,0.4c-0.3,0.1-0.6,0.2-1,0.3
			c-0.3,0.1-0.7,0.1-1,0.1c-0.6,0-1.2-0.1-1.7-0.3s-1-0.5-1.4-0.9c-0.4-0.4-0.7-0.9-0.9-1.5c-0.2-0.6-0.3-1.3-0.3-2.1
			c0-0.6,0.1-1.2,0.3-1.8c0.2-0.6,0.5-1,0.8-1.4s0.8-0.7,1.3-1c0.5-0.2,1.1-0.3,1.8-0.3c0.5,0,1.1,0.1,1.5,0.3
			c0.5,0.2,0.9,0.4,1.2,0.8c0.3,0.3,0.6,0.8,0.8,1.3c0.2,0.5,0.3,1.1,0.3,1.7c0,0.3,0,0.4-0.1,0.5c-0.1,0.1-0.2,0.1-0.3,0.1h-6.1
			c0,0.6,0.1,1.1,0.2,1.5s0.3,0.8,0.6,1.1s0.6,0.5,0.9,0.6c0.3,0.1,0.7,0.2,1.2,0.2c0.4,0,0.7,0,1-0.1c0.3-0.1,0.5-0.2,0.8-0.3
			c0.2-0.1,0.4-0.2,0.5-0.3c0.1-0.1,0.3-0.1,0.4-0.1c0.1,0,0.2,0.1,0.3,0.2L230.4,158z M229.1,153.7c0-0.4-0.1-0.7-0.2-1
			c-0.1-0.3-0.3-0.6-0.5-0.8c-0.2-0.2-0.4-0.4-0.7-0.5c-0.3-0.1-0.6-0.2-1-0.2c-0.8,0-1.4,0.2-1.8,0.7c-0.4,0.4-0.7,1.1-0.8,1.9
			H229.1z"/>
		<path class="fill-purple" d="M243.8,146v13.3h-1c-0.2,0-0.4-0.1-0.4-0.3l-0.1-1.1c-0.4,0.5-0.8,0.8-1.3,1.1c-0.5,0.3-1.1,0.4-1.7,0.4
			c-0.5,0-1-0.1-1.4-0.3s-0.8-0.5-1.1-0.9s-0.5-0.9-0.7-1.5c-0.2-0.6-0.2-1.3-0.2-2c0-0.7,0.1-1.3,0.3-1.9c0.2-0.6,0.4-1.1,0.8-1.5
			c0.3-0.4,0.7-0.8,1.2-1c0.5-0.2,1-0.4,1.7-0.4c0.6,0,1,0.1,1.4,0.3c0.4,0.2,0.8,0.5,1.1,0.8v-5H243.8z M242.2,152.3
			c-0.3-0.4-0.6-0.7-1-0.8c-0.3-0.2-0.7-0.2-1.2-0.2c-0.8,0-1.5,0.3-2,0.9s-0.7,1.5-0.7,2.6c0,0.6,0.1,1.1,0.2,1.5
			c0.1,0.4,0.3,0.8,0.5,1c0.2,0.3,0.4,0.5,0.7,0.6c0.3,0.1,0.6,0.2,1,0.2c0.5,0,1-0.1,1.4-0.4c0.4-0.2,0.8-0.6,1.1-1V152.3z"/>
		<path class="fill-purple" d="M247,145.5c0.3,0.4,0.4,0.9,0.5,1.3c0.1,0.5,0.1,0.9,0,1.4c-0.1,0.5-0.2,0.9-0.5,1.3
			c-0.2,0.4-0.5,0.8-0.9,1.1l-0.5-0.3c-0.1-0.1-0.1-0.1-0.1-0.2c0-0.1,0-0.2,0.1-0.2c0.2-0.2,0.3-0.4,0.4-0.7s0.2-0.6,0.2-0.9
			s0-0.6,0-1c-0.1-0.3-0.2-0.7-0.4-1c-0.1-0.1-0.1-0.2-0.1-0.3c0-0.1,0.1-0.2,0.2-0.2L247,145.5z"/>
		<path class="fill-purple" d="M261.6,152.8c0,1-0.2,1.9-0.5,2.7c-0.3,0.8-0.7,1.5-1.3,2.1c-0.6,0.6-1.2,1-2,1.4c-0.8,0.3-1.6,0.5-2.6,0.5
			s-1.8-0.2-2.6-0.5c-0.8-0.3-1.4-0.8-2-1.4c-0.6-0.6-1-1.3-1.3-2.1c-0.3-0.8-0.5-1.7-0.5-2.7c0-1,0.2-1.9,0.5-2.7
			c0.3-0.8,0.7-1.5,1.3-2.1c0.6-0.6,1.2-1,2-1.4c0.8-0.3,1.6-0.5,2.6-0.5s1.8,0.2,2.6,0.5c0.8,0.3,1.5,0.8,2,1.4
			c0.6,0.6,1,1.3,1.3,2.1C261.4,151,261.6,151.9,261.6,152.8z M259.8,152.8c0-0.8-0.1-1.5-0.3-2.1c-0.2-0.6-0.5-1.2-0.9-1.6
			c-0.4-0.4-0.9-0.8-1.4-1c-0.6-0.2-1.2-0.4-1.9-0.4c-0.7,0-1.3,0.1-1.9,0.4c-0.6,0.2-1,0.6-1.4,1c-0.4,0.4-0.7,1-0.9,1.6
			c-0.2,0.6-0.3,1.3-0.3,2.1c0,0.8,0.1,1.5,0.3,2.1s0.5,1.2,0.9,1.6c0.4,0.4,0.9,0.8,1.4,1c0.6,0.2,1.2,0.3,1.9,0.3
			c0.7,0,1.3-0.1,1.9-0.3c0.6-0.2,1-0.6,1.4-1c0.4-0.4,0.7-1,0.9-1.6S259.8,153.6,259.8,152.8z"/>
		<path class="fill-purple" d="M270.5,158c-0.2,0.2-0.4,0.4-0.7,0.6c-0.3,0.2-0.6,0.3-0.9,0.4c-0.3,0.1-0.6,0.2-1,0.3
			c-0.3,0.1-0.7,0.1-1,0.1c-0.6,0-1.2-0.1-1.7-0.3s-1-0.5-1.4-0.9c-0.4-0.4-0.7-0.9-0.9-1.5c-0.2-0.6-0.3-1.3-0.3-2.1
			c0-0.6,0.1-1.2,0.3-1.8c0.2-0.6,0.5-1,0.8-1.4s0.8-0.7,1.3-1c0.5-0.2,1.1-0.3,1.8-0.3c0.5,0,1.1,0.1,1.5,0.3
			c0.5,0.2,0.9,0.4,1.2,0.8c0.3,0.3,0.6,0.8,0.8,1.3c0.2,0.5,0.3,1.1,0.3,1.7c0,0.3,0,0.4-0.1,0.5c-0.1,0.1-0.2,0.1-0.3,0.1h-6.1
			c0,0.6,0.1,1.1,0.2,1.5s0.3,0.8,0.6,1.1s0.6,0.5,0.9,0.6c0.3,0.1,0.7,0.2,1.2,0.2c0.4,0,0.7,0,1-0.1c0.3-0.1,0.5-0.2,0.8-0.3
			c0.2-0.1,0.4-0.2,0.5-0.3c0.1-0.1,0.3-0.1,0.4-0.1c0.1,0,0.2,0.1,0.3,0.2L270.5,158z M269.2,153.7c0-0.4-0.1-0.7-0.2-1
			c-0.1-0.3-0.3-0.6-0.5-0.8c-0.2-0.2-0.4-0.4-0.7-0.5c-0.3-0.1-0.6-0.2-1-0.2c-0.8,0-1.4,0.2-1.8,0.7c-0.4,0.4-0.7,1.1-0.8,1.9
			H269.2z"/>
		<path class="fill-purple" d="M279.7,150.2v9.1h-1c-0.2,0-0.4-0.1-0.4-0.3l-0.1-1c-0.4,0.4-0.8,0.8-1.3,1.1c-0.5,0.3-1.1,0.4-1.7,0.4
			c-0.5,0-0.9-0.1-1.3-0.2c-0.4-0.2-0.7-0.4-1-0.7c-0.3-0.3-0.5-0.7-0.6-1.1s-0.2-0.9-0.2-1.4v-5.8h1.6v5.8c0,0.7,0.2,1.2,0.5,1.6
			c0.3,0.4,0.8,0.6,1.4,0.6c0.5,0,0.9-0.1,1.3-0.3c0.4-0.2,0.8-0.5,1.1-0.9v-6.7H279.7z"/>
		<path class="fill-purple" d="M289.6,150.2l-3.7,9.1h-1.4l-3.7-9.1h1.3c0.1,0,0.2,0,0.3,0.1c0.1,0.1,0.1,0.1,0.2,0.2l2.3,5.9
			c0.1,0.2,0.1,0.4,0.2,0.6c0.1,0.2,0.1,0.4,0.2,0.6c0-0.2,0.1-0.4,0.2-0.6c0.1-0.2,0.1-0.4,0.2-0.6l2.3-5.9c0-0.1,0.1-0.2,0.2-0.2
			s0.2-0.1,0.3-0.1H289.6z"/>
		<path class="fill-purple" d="M292.1,152c0.3-0.6,0.6-1.1,1.1-1.5c0.4-0.3,0.9-0.5,1.5-0.5c0.2,0,0.4,0,0.6,0.1c0.2,0,0.3,0.1,0.5,0.2
			l-0.1,1.2c0,0.2-0.1,0.2-0.3,0.2c-0.1,0-0.2,0-0.4-0.1s-0.3-0.1-0.5-0.1c-0.3,0-0.5,0-0.8,0.1c-0.2,0.1-0.4,0.2-0.6,0.4
			c-0.2,0.2-0.3,0.4-0.5,0.6c-0.1,0.2-0.3,0.5-0.4,0.8v5.8h-1.6v-9.1h0.9c0.2,0,0.3,0,0.4,0.1c0.1,0.1,0.1,0.2,0.1,0.3L292.1,152z"
			/>
		<path class="fill-purple" d="M303.7,158c-0.2,0.2-0.4,0.4-0.7,0.6c-0.3,0.2-0.6,0.3-0.9,0.4c-0.3,0.1-0.6,0.2-1,0.3
			c-0.3,0.1-0.7,0.1-1,0.1c-0.6,0-1.2-0.1-1.7-0.3s-1-0.5-1.4-0.9c-0.4-0.4-0.7-0.9-0.9-1.5c-0.2-0.6-0.3-1.3-0.3-2.1
			c0-0.6,0.1-1.2,0.3-1.8c0.2-0.6,0.5-1,0.8-1.4s0.8-0.7,1.3-1c0.5-0.2,1.1-0.3,1.8-0.3c0.5,0,1.1,0.1,1.5,0.3
			c0.5,0.2,0.9,0.4,1.2,0.8c0.3,0.3,0.6,0.8,0.8,1.3c0.2,0.5,0.3,1.1,0.3,1.7c0,0.3,0,0.4-0.1,0.5c-0.1,0.1-0.2,0.1-0.3,0.1h-6.1
			c0,0.6,0.1,1.1,0.2,1.5s0.3,0.8,0.6,1.1s0.6,0.5,0.9,0.6c0.3,0.1,0.7,0.2,1.2,0.2c0.4,0,0.7,0,1-0.1c0.3-0.1,0.5-0.2,0.8-0.3
			c0.2-0.1,0.4-0.2,0.5-0.3c0.1-0.1,0.3-0.1,0.4-0.1c0.1,0,0.2,0.1,0.3,0.2L303.7,158z M302.4,153.7c0-0.4-0.1-0.7-0.2-1
			c-0.1-0.3-0.3-0.6-0.5-0.8c-0.2-0.2-0.4-0.4-0.7-0.5c-0.3-0.1-0.6-0.2-1-0.2c-0.8,0-1.4,0.2-1.8,0.7c-0.4,0.4-0.7,1.1-0.8,1.9
			H302.4z"/>
	</g>
	<path class="fill-white" d="M71.4,109.3v-2.9h-7.6v2.9h-5.3v6.7h2.8V115h2.5v1.1h7.5l0-1h2.5l0,1h2.9v-6.7H71.4z M64.9,107.5h5.2v1.8h-5.2
		V107.5z"/>
	<path class="fill-white" d="M73.8,117.4l0,0.4c0,0.7-0.6,1.3-1.3,1.3s-1.3-0.6-1.3-1.3l0-0.4h-7.5v0.5c0,0.7-0.6,1.3-1.3,1.3
		s-1.3-0.6-1.3-1.3v-0.5h-2.8v1c0,0.9,0.7,1.6,1.6,1.6h15.1c0.9,0,1.6-0.7,1.6-1.6v-1H73.8z"/>
	<g>
		<path class="fill-white" d="M58.9,154.5l-0.6,0.9c-0.5,0.7,0,1.7,0.9,1.7h17.5c0.9,0,1.4-1.1,0.8-1.8l-0.7-0.8H58.9z"/>
		<g>
			<path class="fill-white" d="M65.3,152.8c-0.2-0.1-0.4-0.3-0.4-0.6l-1.6-7.7c-2.5,0.5-4.3,2.6-4.3,5.3v4.8h9L65.3,152.8z"/>
			<path class="fill-white" d="M72.7,144.9l-1.2,7.2l0,0.1c0,0.3-0.2,0.5-0.4,0.6l-3,1.7h8.7v-3.3C76.9,148.3,75.2,145.9,72.7,144.9z"/>
		</g>
		<path class="fill-white" d="M71,143.7h-6.3c-0.2,0-0.5,0.2-0.5,0.4l1.4,7.2c0,0.2,0.1,0.4,0.3,0.4l2,1.3l2.2-1.3c0.2-0.1,0.3-0.2,0.3-0.4
			l0-0.1l1.1-7.1C71.5,143.9,71.3,143.7,71,143.7z"/>
	</g>
	<g>
		<path class="fill-white" d="M67.7,65.9c-4.9,0-8.8,4-8.8,8.8h1.8c0-3.9,3.1-7,7-7s7,3.1,7,7c0,3.9-3.1,7-7,7c-1.5,0-2.9-0.4-4-1.3
			l1.4-1.9l-6.5-0.6l2.7,5.9l1.3-1.9c1.5,1.1,3.3,1.6,5.1,1.6c4.9,0,8.8-4,8.8-8.8C76.5,69.9,72.6,65.9,67.7,65.9z"/>
		<ellipse transform="matrix(0.905 -0.4254 0.4254 0.905 -25.572 35.8901)" class="fill-white" cx="67.6" cy="75.2" rx="0.9" ry="0.9"/>
		<path class="fill-white" d="M67.5,74.9l-0.1,0.1c-0.2,0.1-0.5,0-0.6-0.2l-2.2-4.7c-0.1-0.2,0-0.5,0.2-0.6l0.1-0.1c0.2-0.1,0.5,0,0.6,0.2
			l2.2,4.7C67.8,74.5,67.7,74.8,67.5,74.9z"/>
		<path class="fill-white" d="M67.7,75.3l-0.1-0.1c-0.1-0.2,0-0.5,0.2-0.6l2.4-1.1c0.2-0.1,0.5,0,0.6,0.2l0.1,0.1c0.1,0.2,0,0.5-0.2,0.6
			l-2.4,1.1C68,75.6,67.8,75.5,67.7,75.3z"/>
	</g>
</g>
</svg>
