<?xml version="1.0" encoding="utf-8"?>
<!-- Generator: Adobe Illustrator 21.0.0, SVG Export Plug-In . SVG Version: 6.00 Build 0)  -->
<svg version="1.1" id="Calque_1" xmlns="http://www.w3.org/2000/svg" xmlns:xlink="http://www.w3.org/1999/xlink" x="0px" y="0px"
	 viewBox="0 0 363 185.8" style="enable-background:new 0 0 363 185.8;" xml:space="preserve">
<style type="text/css">
	.fill-white{fill:#FFFFFF;}
	.st2-develop{clip-path:url(#SVGID_12_DEVELOP);}
	.fill-red{fill:#EA2631;}
	.opacity30{opacity:0.3;}
</style>
<path id="SVGID_4_DEVELOP" class="fill-red" d="M328.2,2.9h-58.3h-10h-48.3c-17.5,0-31.7,14.2-31.7,31.7v116.6c0,17.5,14.2,31.7,31.7,31.7h48.3
	h10h58.3c17.5,0,31.7-14.2,31.7-31.7V34.6C359.9,17.1,345.7,2.9,328.2,2.9z"/>
<path class="fill-red" d="M43.9,88.3L31.6,76c-0.2-0.2-0.3-0.3-0.5-0.4c-1.1-2-0.9-4.5,0.8-6.2c0,0,0,0,0,0l12-12c1.8-1.8,1.8-4.8,0-6.7
	L31.6,38.3c-1.8-1.8-4.8-1.8-6.7,0L12.6,50.6c-1.8,1.8-1.8,4.8,0,6.7l12,12c0,0,0,0,0,0c1.7,1.7,2,4.2,0.8,6.2
	c-0.2,0.1-0.4,0.3-0.5,0.4L12.6,88.3c-1,1-1.4,2.2-1.4,3.5c0,1.3,0.4,2.5,1.4,3.5l12.3,12.3c0.1,0.1,0.3,0.3,0.5,0.4
	c1.1,1.9,1,4.3-0.5,6l-12.3,12.3c-1.8,1.8-1.8,4.8,0,6.7l12.3,12.3c1.8,1.8,4.8,1.8,6.7,0L43.9,133c1.8-1.8,1.8-4.8,0-6.7L31.6,114
	c-1.5-1.7-1.7-4.1-0.5-6c0.2-0.1,0.3-0.2,0.5-0.4l12.3-12.3c1-1,1.4-2.2,1.4-3.5C45.3,90.5,44.9,89.3,43.9,88.3z"/>
<g>
	<path class="fill-red" d="M61,58.1h-1.3c-0.1,0-0.3,0-0.4-0.1s-0.2-0.2-0.2-0.3l-1.1-2.9h-5.4l-1.1,2.9c0,0.1-0.1,0.2-0.2,0.3
		c-0.1,0.1-0.2,0.1-0.4,0.1h-1.3L54.6,46h1.7L61,58.1z M57.6,53.6l-1.9-4.9c-0.1-0.1-0.1-0.3-0.2-0.5c-0.1-0.2-0.1-0.4-0.2-0.6
		c-0.1,0.5-0.2,0.8-0.4,1.1l-1.9,4.9H57.6z"/>
	<path class="fill-red" d="M63.7,51.3c0.3-0.6,0.6-1,1-1.4c0.4-0.3,0.9-0.5,1.4-0.5c0.2,0,0.4,0,0.5,0.1s0.3,0.1,0.4,0.2L67,50.8
		c0,0.1-0.1,0.2-0.3,0.2c-0.1,0-0.2,0-0.3,0c-0.2,0-0.3-0.1-0.5-0.1c-0.3,0-0.5,0-0.7,0.1c-0.2,0.1-0.4,0.2-0.6,0.3
		c-0.2,0.2-0.3,0.3-0.4,0.6s-0.3,0.5-0.4,0.8v5.4h-1.5v-8.5h0.9c0.2,0,0.3,0,0.3,0.1s0.1,0.2,0.1,0.3L63.7,51.3z"/>
	<path class="fill-red" d="M74,51.1c0,0.1-0.1,0.1-0.1,0.1c0,0-0.1,0.1-0.2,0.1c-0.1,0-0.2,0-0.3-0.1c-0.1-0.1-0.2-0.1-0.4-0.2
		c-0.1-0.1-0.3-0.2-0.5-0.2c-0.2-0.1-0.5-0.1-0.8-0.1c-0.4,0-0.8,0.1-1.1,0.2c-0.3,0.1-0.6,0.4-0.8,0.6c-0.2,0.3-0.4,0.6-0.5,1
		c-0.1,0.4-0.2,0.8-0.2,1.3c0,0.5,0.1,1,0.2,1.4c0.1,0.4,0.3,0.7,0.5,1c0.2,0.3,0.5,0.5,0.8,0.6c0.3,0.1,0.7,0.2,1,0.2
		c0.4,0,0.7,0,0.9-0.1c0.2-0.1,0.4-0.2,0.6-0.3c0.2-0.1,0.3-0.2,0.4-0.3c0.1-0.1,0.2-0.1,0.3-0.1c0.1,0,0.2,0,0.3,0.1l0.4,0.5
		c-0.2,0.2-0.4,0.4-0.6,0.6c-0.2,0.2-0.5,0.3-0.8,0.4s-0.6,0.2-0.9,0.2s-0.6,0.1-0.9,0.1c-0.5,0-1-0.1-1.5-0.3
		c-0.5-0.2-0.9-0.5-1.2-0.9c-0.3-0.4-0.6-0.8-0.8-1.4c-0.2-0.5-0.3-1.2-0.3-1.9c0-0.6,0.1-1.2,0.3-1.8s0.4-1,0.8-1.4
		s0.8-0.7,1.3-0.9c0.5-0.2,1.1-0.3,1.7-0.3c0.6,0,1.1,0.1,1.6,0.3c0.5,0.2,0.9,0.5,1.2,0.8L74,51.1z"/>
	<path class="fill-red" d="M77.6,50.7c0.4-0.4,0.8-0.7,1.2-0.9c0.4-0.2,1-0.3,1.5-0.3c0.5,0,0.9,0.1,1.2,0.2c0.4,0.2,0.7,0.4,0.9,0.7
		c0.2,0.3,0.4,0.6,0.5,1c0.1,0.4,0.2,0.8,0.2,1.3v5.4h-1.5v-5.4c0-0.6-0.1-1.1-0.4-1.5c-0.3-0.4-0.7-0.5-1.3-0.5
		c-0.4,0-0.9,0.1-1.2,0.3c-0.4,0.2-0.7,0.5-1.1,0.9v6.3h-1.5V45.7h1.5V50.7z"/>
	<path class="fill-red" d="M87.4,46.9c0,0.1,0,0.3-0.1,0.4c-0.1,0.1-0.1,0.2-0.2,0.3c-0.1,0.1-0.2,0.2-0.3,0.2c-0.1,0.1-0.3,0.1-0.4,0.1
		c-0.1,0-0.3,0-0.4-0.1c-0.1-0.1-0.2-0.1-0.3-0.2c-0.1-0.1-0.2-0.2-0.2-0.3c-0.1-0.1-0.1-0.3-0.1-0.4c0-0.1,0-0.3,0.1-0.4
		c0.1-0.1,0.1-0.2,0.2-0.3c0.1-0.1,0.2-0.2,0.3-0.2c0.1-0.1,0.3-0.1,0.4-0.1c0.1,0,0.3,0,0.4,0.1c0.1,0.1,0.2,0.1,0.3,0.2
		c0.1,0.1,0.2,0.2,0.2,0.3C87.4,46.6,87.4,46.7,87.4,46.9z M87.1,49.5v8.5h-1.5v-8.5H87.1z"/>
	<path class="fill-red" d="M92.2,58.2c-0.7,0-1.2-0.2-1.6-0.6c-0.4-0.4-0.5-0.9-0.5-1.6v-5.2h-1c-0.1,0-0.2,0-0.2-0.1s-0.1-0.1-0.1-0.2
		v-0.6l1.4-0.2l0.3-2.6c0-0.1,0.1-0.2,0.1-0.2c0.1-0.1,0.1-0.1,0.2-0.1h0.8v2.9H94v1.1h-2.5v5.1c0,0.4,0.1,0.6,0.3,0.8
		c0.2,0.2,0.4,0.3,0.7,0.3c0.2,0,0.3,0,0.4-0.1c0.1,0,0.2-0.1,0.3-0.1c0.1-0.1,0.2-0.1,0.2-0.1c0.1,0,0.1-0.1,0.2-0.1
		c0.1,0,0.1,0,0.2,0.1l0.4,0.7c-0.3,0.2-0.6,0.4-0.9,0.6S92.5,58.2,92.2,58.2z"/>
	<path class="fill-red" d="M102.5,56.9c-0.2,0.2-0.4,0.4-0.7,0.6c-0.3,0.2-0.5,0.3-0.8,0.4s-0.6,0.2-0.9,0.2c-0.3,0.1-0.6,0.1-0.9,0.1
		c-0.6,0-1.1-0.1-1.6-0.3c-0.5-0.2-0.9-0.5-1.3-0.9s-0.6-0.9-0.8-1.4s-0.3-1.2-0.3-2c0-0.6,0.1-1.2,0.3-1.7c0.2-0.5,0.4-1,0.8-1.3
		c0.3-0.4,0.8-0.7,1.3-0.9c0.5-0.2,1.1-0.3,1.7-0.3c0.5,0,1,0.1,1.4,0.3c0.4,0.2,0.8,0.4,1.1,0.7c0.3,0.3,0.6,0.7,0.7,1.2
		c0.2,0.5,0.3,1,0.3,1.6c0,0.2,0,0.4-0.1,0.5c-0.1,0.1-0.1,0.1-0.3,0.1h-5.7c0,0.5,0.1,1,0.2,1.4c0.1,0.4,0.3,0.7,0.6,1
		s0.5,0.5,0.8,0.6s0.7,0.2,1.1,0.2c0.4,0,0.7,0,1-0.1s0.5-0.2,0.7-0.3c0.2-0.1,0.4-0.2,0.5-0.3s0.2-0.1,0.3-0.1c0.1,0,0.2,0,0.3,0.1
		L102.5,56.9z M101.3,52.9c0-0.3,0-0.7-0.1-1c-0.1-0.3-0.2-0.5-0.4-0.8c-0.2-0.2-0.4-0.4-0.7-0.5c-0.3-0.1-0.6-0.2-0.9-0.2
		c-0.7,0-1.3,0.2-1.7,0.6c-0.4,0.4-0.7,1-0.8,1.7H101.3z"/>
	<path class="fill-red" d="M110.4,51.1c0,0.1-0.1,0.1-0.1,0.1c0,0-0.1,0.1-0.2,0.1c-0.1,0-0.2,0-0.3-0.1c-0.1-0.1-0.2-0.1-0.4-0.2
		c-0.1-0.1-0.3-0.2-0.5-0.2c-0.2-0.1-0.5-0.1-0.8-0.1c-0.4,0-0.8,0.1-1.1,0.2c-0.3,0.1-0.6,0.4-0.8,0.6c-0.2,0.3-0.4,0.6-0.5,1
		c-0.1,0.4-0.2,0.8-0.2,1.3c0,0.5,0.1,1,0.2,1.4c0.1,0.4,0.3,0.7,0.5,1c0.2,0.3,0.5,0.5,0.8,0.6c0.3,0.1,0.7,0.2,1,0.2
		c0.4,0,0.7,0,0.9-0.1c0.2-0.1,0.4-0.2,0.6-0.3c0.2-0.1,0.3-0.2,0.4-0.3c0.1-0.1,0.2-0.1,0.3-0.1c0.1,0,0.2,0,0.3,0.1l0.4,0.5
		c-0.2,0.2-0.4,0.4-0.6,0.6c-0.2,0.2-0.5,0.3-0.8,0.4s-0.6,0.2-0.9,0.2s-0.6,0.1-0.9,0.1c-0.5,0-1-0.1-1.5-0.3
		c-0.5-0.2-0.9-0.5-1.2-0.9c-0.3-0.4-0.6-0.8-0.8-1.4c-0.2-0.5-0.3-1.2-0.3-1.9c0-0.6,0.1-1.2,0.3-1.8s0.4-1,0.8-1.4
		s0.8-0.7,1.3-0.9c0.5-0.2,1.1-0.3,1.7-0.3c0.6,0,1.1,0.1,1.6,0.3c0.5,0.2,0.9,0.5,1.2,0.8L110.4,51.1z"/>
	<path class="fill-red" d="M115.1,58.2c-0.7,0-1.2-0.2-1.6-0.6c-0.4-0.4-0.5-0.9-0.5-1.6v-5.2h-1c-0.1,0-0.2,0-0.2-0.1s-0.1-0.1-0.1-0.2
		v-0.6l1.4-0.2l0.3-2.6c0-0.1,0.1-0.2,0.1-0.2c0.1-0.1,0.1-0.1,0.2-0.1h0.8v2.9h2.5v1.1h-2.5v5.1c0,0.4,0.1,0.6,0.3,0.8
		c0.2,0.2,0.4,0.3,0.7,0.3c0.2,0,0.3,0,0.4-0.1c0.1,0,0.2-0.1,0.3-0.1c0.1-0.1,0.2-0.1,0.2-0.1c0.1,0,0.1-0.1,0.2-0.1
		c0.1,0,0.1,0,0.2,0.1l0.4,0.7c-0.3,0.2-0.6,0.4-0.9,0.6S115.5,58.2,115.1,58.2z"/>
	<path class="fill-red" d="M125.6,49.5v8.5h-0.9c-0.2,0-0.3-0.1-0.4-0.3l-0.1-0.9c-0.4,0.4-0.8,0.7-1.2,1c-0.5,0.2-1,0.4-1.6,0.4
		c-0.5,0-0.9-0.1-1.2-0.2c-0.4-0.2-0.7-0.4-0.9-0.7c-0.2-0.3-0.4-0.6-0.5-1c-0.1-0.4-0.2-0.8-0.2-1.3v-5.4h1.5V55
		c0,0.6,0.1,1.1,0.4,1.5s0.7,0.5,1.4,0.5c0.4,0,0.9-0.1,1.2-0.3s0.7-0.5,1.1-0.9v-6.3H125.6z"/>
	<path class="fill-red" d="M129.4,51.3c0.3-0.6,0.6-1,1-1.4c0.4-0.3,0.9-0.5,1.4-0.5c0.2,0,0.4,0,0.5,0.1s0.3,0.1,0.4,0.2l-0.1,1.1
		c0,0.1-0.1,0.2-0.3,0.2c-0.1,0-0.2,0-0.3,0c-0.2,0-0.3-0.1-0.5-0.1c-0.3,0-0.5,0-0.7,0.1c-0.2,0.1-0.4,0.2-0.6,0.3
		c-0.2,0.2-0.3,0.3-0.4,0.6s-0.3,0.5-0.4,0.8v5.4h-1.5v-8.5h0.9c0.2,0,0.3,0,0.3,0.1s0.1,0.2,0.1,0.3L129.4,51.3z"/>
	<path class="fill-red" d="M140.6,56.9c-0.2,0.2-0.4,0.4-0.7,0.6c-0.3,0.2-0.5,0.3-0.8,0.4s-0.6,0.2-0.9,0.2c-0.3,0.1-0.6,0.1-0.9,0.1
		c-0.6,0-1.1-0.1-1.6-0.3c-0.5-0.2-0.9-0.5-1.3-0.9s-0.6-0.9-0.8-1.4s-0.3-1.2-0.3-2c0-0.6,0.1-1.2,0.3-1.7c0.2-0.5,0.4-1,0.8-1.3
		c0.3-0.4,0.8-0.7,1.3-0.9c0.5-0.2,1.1-0.3,1.7-0.3c0.5,0,1,0.1,1.4,0.3c0.4,0.2,0.8,0.4,1.1,0.7c0.3,0.3,0.6,0.7,0.7,1.2
		c0.2,0.5,0.3,1,0.3,1.6c0,0.2,0,0.4-0.1,0.5c-0.1,0.1-0.1,0.1-0.3,0.1h-5.7c0,0.5,0.1,1,0.2,1.4c0.1,0.4,0.3,0.7,0.6,1
		s0.5,0.5,0.8,0.6s0.7,0.2,1.1,0.2c0.4,0,0.7,0,1-0.1s0.5-0.2,0.7-0.3c0.2-0.1,0.4-0.2,0.5-0.3s0.2-0.1,0.3-0.1c0.1,0,0.2,0,0.3,0.1
		L140.6,56.9z M139.4,52.9c0-0.3,0-0.7-0.1-1c-0.1-0.3-0.2-0.5-0.4-0.8c-0.2-0.2-0.4-0.4-0.7-0.5c-0.3-0.1-0.6-0.2-0.9-0.2
		c-0.7,0-1.3,0.2-1.7,0.6c-0.4,0.4-0.7,1-0.8,1.7H139.4z"/>
</g>
<g>
	<path class="fill-red" d="M63.8,121.6v12.1h-1.4v-8.9c0-0.1,0-0.2,0-0.4c0-0.1,0-0.3,0-0.4l-4.1,7.6c-0.1,0.3-0.3,0.4-0.6,0.4h-0.2
		c-0.3,0-0.5-0.1-0.6-0.4l-4.2-7.6c0,0.3,0,0.6,0,0.8v8.9h-1.4v-12.1h1.2c0.1,0,0.3,0,0.3,0c0.1,0,0.2,0.1,0.2,0.2l4.2,7.4
		c0.1,0.1,0.1,0.3,0.2,0.4c0.1,0.1,0.1,0.3,0.2,0.4c0.1-0.2,0.1-0.3,0.2-0.5s0.1-0.3,0.2-0.4l4.1-7.4c0.1-0.1,0.1-0.2,0.2-0.2
		c0.1,0,0.2,0,0.3,0H63.8z"/>
	<path class="fill-red" d="M66.1,126.4c0.5-0.5,1-0.8,1.5-1s1.1-0.3,1.8-0.3c0.5,0,0.9,0.1,1.3,0.2s0.7,0.4,0.9,0.7
		c0.3,0.3,0.4,0.6,0.6,1c0.1,0.4,0.2,0.8,0.2,1.3v5.5h-0.7c-0.1,0-0.3,0-0.3-0.1c-0.1,0-0.1-0.1-0.2-0.3l-0.2-0.8
		c-0.2,0.2-0.4,0.4-0.7,0.6c-0.2,0.2-0.4,0.3-0.7,0.4c-0.2,0.1-0.5,0.2-0.8,0.3c-0.3,0.1-0.6,0.1-0.9,0.1c-0.3,0-0.6,0-0.9-0.1
		c-0.3-0.1-0.5-0.2-0.8-0.4c-0.2-0.2-0.4-0.4-0.5-0.7c-0.1-0.3-0.2-0.6-0.2-1c0-0.3,0.1-0.7,0.3-1s0.5-0.6,0.9-0.8s1-0.4,1.6-0.6
		c0.7-0.2,1.5-0.2,2.5-0.3v-0.7c0-0.7-0.1-1.2-0.4-1.5c-0.3-0.3-0.7-0.5-1.3-0.5c-0.4,0-0.7,0-0.9,0.1s-0.5,0.2-0.6,0.3
		c-0.2,0.1-0.3,0.2-0.5,0.3s-0.3,0.1-0.4,0.1c-0.1,0-0.2,0-0.3-0.1c-0.1-0.1-0.1-0.1-0.2-0.2L66.1,126.4z M70.9,129.9
		c-0.7,0-1.3,0.1-1.8,0.2c-0.5,0.1-0.9,0.2-1.2,0.3c-0.3,0.1-0.5,0.3-0.7,0.5c-0.1,0.2-0.2,0.4-0.2,0.6c0,0.2,0,0.4,0.1,0.6
		s0.2,0.3,0.3,0.4c0.1,0.1,0.3,0.2,0.4,0.2c0.2,0,0.4,0.1,0.6,0.1c0.3,0,0.5,0,0.7-0.1c0.2-0.1,0.4-0.1,0.6-0.2
		c0.2-0.1,0.4-0.2,0.6-0.4s0.3-0.3,0.5-0.5V129.9z"/>
	<path class="fill-red" d="M76.6,122.5c0,0.1,0,0.3-0.1,0.4c-0.1,0.1-0.1,0.2-0.2,0.3c-0.1,0.1-0.2,0.2-0.3,0.2c-0.1,0.1-0.3,0.1-0.4,0.1
		c-0.1,0-0.3,0-0.4-0.1c-0.1-0.1-0.2-0.1-0.3-0.2c-0.1-0.1-0.2-0.2-0.2-0.3c-0.1-0.1-0.1-0.3-0.1-0.4c0-0.1,0-0.3,0.1-0.4
		c0.1-0.1,0.1-0.2,0.2-0.3c0.1-0.1,0.2-0.2,0.3-0.2c0.1-0.1,0.3-0.1,0.4-0.1c0.1,0,0.3,0,0.4,0.1c0.1,0.1,0.2,0.1,0.3,0.2
		c0.1,0.1,0.2,0.2,0.2,0.3C76.5,122.2,76.6,122.3,76.6,122.5z M76.2,125.2v8.5h-1.5v-8.5H76.2z"/>
	<path class="fill-red" d="M80.1,126.4c0.2-0.2,0.4-0.4,0.6-0.6c0.2-0.2,0.4-0.3,0.7-0.4s0.5-0.2,0.7-0.3c0.3-0.1,0.5-0.1,0.8-0.1
		c0.5,0,0.9,0.1,1.2,0.2c0.4,0.2,0.7,0.4,0.9,0.7c0.2,0.3,0.4,0.6,0.5,1c0.1,0.4,0.2,0.8,0.2,1.3v5.4h-1.5v-5.4
		c0-0.6-0.1-1.1-0.4-1.5c-0.3-0.4-0.7-0.5-1.3-0.5c-0.4,0-0.9,0.1-1.2,0.3c-0.4,0.2-0.7,0.5-1.1,0.9v6.3h-1.5v-8.5h0.9
		c0.2,0,0.3,0.1,0.4,0.3L80.1,126.4z"/>
	<path class="fill-red" d="M90.6,133.8c-0.7,0-1.2-0.2-1.6-0.6c-0.4-0.4-0.5-0.9-0.5-1.6v-5.2h-1c-0.1,0-0.2,0-0.2-0.1s-0.1-0.1-0.1-0.2
		v-0.6l1.4-0.2l0.3-2.6c0-0.1,0.1-0.2,0.1-0.2c0.1-0.1,0.1-0.1,0.2-0.1H90v2.9h2.5v1.1H90v5.1c0,0.4,0.1,0.6,0.3,0.8
		c0.2,0.2,0.4,0.3,0.7,0.3c0.2,0,0.3,0,0.4-0.1c0.1,0,0.2-0.1,0.3-0.1c0.1-0.1,0.2-0.1,0.2-0.1c0.1,0,0.1-0.1,0.2-0.1
		c0.1,0,0.1,0,0.2,0.1l0.4,0.7c-0.3,0.2-0.6,0.4-0.9,0.6S91,133.8,90.6,133.8z"/>
	<path class="fill-red" d="M100.9,132.5c-0.2,0.2-0.4,0.4-0.7,0.6c-0.3,0.2-0.5,0.3-0.8,0.4s-0.6,0.2-0.9,0.2c-0.3,0.1-0.6,0.1-0.9,0.1
		c-0.6,0-1.1-0.1-1.6-0.3c-0.5-0.2-0.9-0.5-1.3-0.9s-0.6-0.9-0.8-1.4s-0.3-1.2-0.3-2c0-0.6,0.1-1.2,0.3-1.7c0.2-0.5,0.4-1,0.8-1.3
		c0.3-0.4,0.8-0.7,1.3-0.9c0.5-0.2,1.1-0.3,1.7-0.3c0.5,0,1,0.1,1.4,0.3c0.4,0.2,0.8,0.4,1.1,0.7c0.3,0.3,0.6,0.7,0.7,1.2
		c0.2,0.5,0.3,1,0.3,1.6c0,0.2,0,0.4-0.1,0.5c-0.1,0.1-0.1,0.1-0.3,0.1H95c0,0.5,0.1,1,0.2,1.4c0.1,0.4,0.3,0.7,0.6,1
		s0.5,0.5,0.8,0.6s0.7,0.2,1.1,0.2c0.4,0,0.7,0,1-0.1s0.5-0.2,0.7-0.3c0.2-0.1,0.4-0.2,0.5-0.3s0.2-0.1,0.3-0.1c0.1,0,0.2,0,0.3,0.1
		L100.9,132.5z M99.7,128.5c0-0.3,0-0.7-0.1-1c-0.1-0.3-0.2-0.5-0.4-0.8c-0.2-0.2-0.4-0.4-0.7-0.5c-0.3-0.1-0.6-0.2-0.9-0.2
		c-0.7,0-1.3,0.2-1.7,0.6c-0.4,0.4-0.7,1-0.8,1.7H99.7z"/>
	<path class="fill-red" d="M104.3,126.4c0.2-0.2,0.4-0.4,0.6-0.6c0.2-0.2,0.4-0.3,0.7-0.4s0.5-0.2,0.7-0.3c0.3-0.1,0.5-0.1,0.8-0.1
		c0.5,0,0.9,0.1,1.2,0.2c0.4,0.2,0.7,0.4,0.9,0.7c0.2,0.3,0.4,0.6,0.5,1c0.1,0.4,0.2,0.8,0.2,1.3v5.4h-1.5v-5.4
		c0-0.6-0.1-1.1-0.4-1.5c-0.3-0.4-0.7-0.5-1.3-0.5c-0.4,0-0.9,0.1-1.2,0.3c-0.4,0.2-0.7,0.5-1.1,0.9v6.3h-1.5v-8.5h0.9
		c0.2,0,0.3,0.1,0.4,0.3L104.3,126.4z"/>
	<path class="fill-red" d="M112.1,126.4c0.5-0.5,1-0.8,1.5-1s1.1-0.3,1.8-0.3c0.5,0,0.9,0.1,1.3,0.2s0.7,0.4,0.9,0.7
		c0.3,0.3,0.4,0.6,0.6,1c0.1,0.4,0.2,0.8,0.2,1.3v5.5h-0.7c-0.1,0-0.3,0-0.3-0.1c-0.1,0-0.1-0.1-0.2-0.3l-0.2-0.8
		c-0.2,0.2-0.4,0.4-0.7,0.6c-0.2,0.2-0.4,0.3-0.7,0.4c-0.2,0.1-0.5,0.2-0.8,0.3c-0.3,0.1-0.6,0.1-0.9,0.1c-0.3,0-0.6,0-0.9-0.1
		c-0.3-0.1-0.5-0.2-0.8-0.4c-0.2-0.2-0.4-0.4-0.5-0.7c-0.1-0.3-0.2-0.6-0.2-1c0-0.3,0.1-0.7,0.3-1s0.5-0.6,0.9-0.8s1-0.4,1.6-0.6
		c0.7-0.2,1.5-0.2,2.5-0.3v-0.7c0-0.7-0.1-1.2-0.4-1.5c-0.3-0.3-0.7-0.5-1.3-0.5c-0.4,0-0.7,0-0.9,0.1s-0.5,0.2-0.6,0.3
		c-0.2,0.1-0.3,0.2-0.5,0.3s-0.3,0.1-0.4,0.1c-0.1,0-0.2,0-0.3-0.1c-0.1-0.1-0.1-0.1-0.2-0.2L112.1,126.4z M116.9,129.9
		c-0.7,0-1.3,0.1-1.8,0.2c-0.5,0.1-0.9,0.2-1.2,0.3c-0.3,0.1-0.5,0.3-0.7,0.5c-0.1,0.2-0.2,0.4-0.2,0.6c0,0.2,0,0.4,0.1,0.6
		s0.2,0.3,0.3,0.4c0.1,0.1,0.3,0.2,0.4,0.2c0.2,0,0.4,0.1,0.6,0.1c0.3,0,0.5,0,0.7-0.1c0.2-0.1,0.4-0.1,0.6-0.2
		c0.2-0.1,0.4-0.2,0.6-0.4s0.3-0.3,0.5-0.5V129.9z"/>
	<path class="fill-red" d="M122.1,126.4c0.2-0.2,0.4-0.4,0.6-0.6c0.2-0.2,0.4-0.3,0.7-0.4s0.5-0.2,0.7-0.3c0.3-0.1,0.5-0.1,0.8-0.1
		c0.5,0,0.9,0.1,1.2,0.2c0.4,0.2,0.7,0.4,0.9,0.7c0.2,0.3,0.4,0.6,0.5,1c0.1,0.4,0.2,0.8,0.2,1.3v5.4h-1.5v-5.4
		c0-0.6-0.1-1.1-0.4-1.5c-0.3-0.4-0.7-0.5-1.3-0.5c-0.4,0-0.9,0.1-1.2,0.3c-0.4,0.2-0.7,0.5-1.1,0.9v6.3h-1.5v-8.5h0.9
		c0.2,0,0.3,0.1,0.4,0.3L122.1,126.4z"/>
	<path class="fill-red" d="M136,126.7c0,0.1-0.1,0.1-0.1,0.1c0,0-0.1,0.1-0.2,0.1c-0.1,0-0.2,0-0.3-0.1c-0.1-0.1-0.2-0.1-0.4-0.2
		c-0.1-0.1-0.3-0.2-0.5-0.2c-0.2-0.1-0.5-0.1-0.8-0.1c-0.4,0-0.8,0.1-1.1,0.2c-0.3,0.1-0.6,0.4-0.8,0.6c-0.2,0.3-0.4,0.6-0.5,1
		c-0.1,0.4-0.2,0.8-0.2,1.3c0,0.5,0.1,1,0.2,1.4c0.1,0.4,0.3,0.7,0.5,1c0.2,0.3,0.5,0.5,0.8,0.6c0.3,0.1,0.7,0.2,1,0.2
		c0.4,0,0.7,0,0.9-0.1c0.2-0.1,0.4-0.2,0.6-0.3c0.2-0.1,0.3-0.2,0.4-0.3c0.1-0.1,0.2-0.1,0.3-0.1c0.1,0,0.2,0,0.3,0.1l0.4,0.5
		c-0.2,0.2-0.4,0.4-0.6,0.6c-0.2,0.2-0.5,0.3-0.8,0.4s-0.6,0.2-0.9,0.2s-0.6,0.1-0.9,0.1c-0.5,0-1-0.1-1.5-0.3
		c-0.5-0.2-0.9-0.5-1.2-0.9c-0.3-0.4-0.6-0.8-0.8-1.4c-0.2-0.5-0.3-1.2-0.3-1.9c0-0.6,0.1-1.2,0.3-1.8s0.4-1,0.8-1.4
		s0.8-0.7,1.3-0.9c0.5-0.2,1.1-0.3,1.7-0.3c0.6,0,1.1,0.1,1.6,0.3c0.5,0.2,0.9,0.5,1.2,0.8L136,126.7z"/>
	<path class="fill-red" d="M144.9,132.5c-0.2,0.2-0.4,0.4-0.7,0.6c-0.3,0.2-0.5,0.3-0.8,0.4s-0.6,0.2-0.9,0.2c-0.3,0.1-0.6,0.1-0.9,0.1
		c-0.6,0-1.1-0.1-1.6-0.3c-0.5-0.2-0.9-0.5-1.3-0.9s-0.6-0.9-0.8-1.4s-0.3-1.2-0.3-2c0-0.6,0.1-1.2,0.3-1.7c0.2-0.5,0.4-1,0.8-1.3
		c0.3-0.4,0.8-0.7,1.3-0.9c0.5-0.2,1.1-0.3,1.7-0.3c0.5,0,1,0.1,1.4,0.3c0.4,0.2,0.8,0.4,1.1,0.7c0.3,0.3,0.6,0.7,0.7,1.2
		c0.2,0.5,0.3,1,0.3,1.6c0,0.2,0,0.4-0.1,0.5c-0.1,0.1-0.1,0.1-0.3,0.1H139c0,0.5,0.1,1,0.2,1.4c0.1,0.4,0.3,0.7,0.6,1
		s0.5,0.5,0.8,0.6s0.7,0.2,1.1,0.2c0.4,0,0.7,0,1-0.1s0.5-0.2,0.7-0.3c0.2-0.1,0.4-0.2,0.5-0.3s0.2-0.1,0.3-0.1c0.1,0,0.2,0,0.3,0.1
		L144.9,132.5z M143.7,128.5c0-0.3,0-0.7-0.1-1c-0.1-0.3-0.2-0.5-0.4-0.8c-0.2-0.2-0.4-0.4-0.7-0.5c-0.3-0.1-0.6-0.2-0.9-0.2
		c-0.7,0-1.3,0.2-1.7,0.6c-0.4,0.4-0.7,1-0.8,1.7H143.7z"/>
</g>
<g>
	<path class="fill-white" d="M34.7,85.6H21.4c-0.7,0-1.3,0.6-1.3,1.3v9.9c0,0.7,0.6,1.3,1.3,1.3h13.4c0.7,0,1.3-0.6,1.3-1.3v-9.9
		C36.1,86.2,35.5,85.6,34.7,85.6z M35.3,95c0,0.7-0.6,1.3-1.3,1.3H22.1c-0.7,0-1.3-0.6-1.3-1.3v-7.1c0-0.7,0.6-1.3,1.3-1.3H34
		c0.7,0,1.3,0.6,1.3,1.3V95z"/>
	<g>
		<path class="fill-white" d="M21.9,90.1v-0.3c-0.2,0-0.4-0.1-0.5-0.1l0.1-0.3c0.1,0.1,0.3,0.1,0.5,0.1c0.2,0,0.3-0.1,0.3-0.2
			c0-0.1-0.1-0.2-0.3-0.3c-0.3-0.1-0.5-0.3-0.5-0.5c0-0.3,0.2-0.5,0.5-0.5v-0.3h0.3v0.3c0.2,0,0.3,0.1,0.4,0.1l-0.1,0.3
			c-0.1,0-0.2-0.1-0.4-0.1c-0.2,0-0.3,0.1-0.3,0.2c0,0.1,0.1,0.2,0.4,0.3c0.4,0.1,0.5,0.3,0.5,0.6c0,0.3-0.2,0.5-0.5,0.5v0.3H21.9z"
			/>
		<path class="fill-white" d="M24.4,89.2L23,89.8v-0.3l1.1-0.5v0L23,88.6v-0.3l1.4,0.7V89.2z"/>
		<path class="fill-white" d="M27.3,90v0.1h-1.5V90H27.3z"/>
	</g>
</g>
<path class="fill-white" d="M35.8,132.4v-3.8h-1.6c-0.1-0.4-0.3-0.9-0.5-1.3l1.1-1.1l-2.7-2.7l-1.1,1.1c-0.4-0.2-0.8-0.4-1.3-0.6v-1.6h-3.8
	v1.6c-0.4,0.1-0.9,0.3-1.3,0.5l-1.1-1.1l-2.7,2.7l1.1,1.1c-0.2,0.4-0.4,0.8-0.6,1.3h-1.6v3.8h1.6c0.1,0.4,0.3,0.9,0.5,1.3l-1.1,1.1
	l2.7,2.7l1.1-1.1c0.4,0.2,0.8,0.4,1.3,0.6v1.6h3.8v-1.6c0.4-0.1,0.9-0.3,1.3-0.5l1.1,1.1l2.7-2.7l-1.1-1.1c0.2-0.4,0.4-0.8,0.6-1.3
	H35.8z M31.9,133.2l-1.6-2c0.1-1,0.1-2,0.1-2c-0.8-0.8-2.1-1.5-3.1-1.2l1.6,1.6l-0.3,1.8l-1.8,0.3l-1.6-1.6c-0.3,1,0.4,2.3,1.2,3.1
	c0,0,1,0,1.9-0.1l2,1.6c-1.9,1.3-4.5,1.1-6.2-0.6c-1.9-1.9-1.9-5.1,0-7c1.9-1.9,5.1-1.9,7,0C33,128.6,33.2,131.3,31.9,133.2z"/>
<g>
	<defs>
		<path id="SVGID_9_DEVELOP" d="M327.9,3h-58.3h-10h-48.3c-17.5,0-31.7,14.2-31.7,31.7v116.6c0,17.5,14.2,31.7,31.7,31.7h48.3h10h58.3
			c17.5,0,31.7-14.2,31.7-31.7V34.7C359.6,17.1,345.4,3,327.9,3z"/>
	</defs>
	<clipPath id="SVGID_15_DEVELOP">
		<use xlink:href="#SVGID_9_DEVELOP"  style="overflow:visible;"/>
	</clipPath>
	<g id="zHGm4z_9_" style="opacity:0.8;clip-path:url(#SVGID_15_DEVELOP);">
		
			<image style="overflow:visible;" width="364" height="729" id="zHGm4z_10_" xlink:href="performance_scheme_bg.png"  transform="matrix(0.9877 0 0 0.9877 0.4993 -358)">
		</image>
	</g>
</g>
<g>
	<path class="fill-white" d="M224.8,99.9V80.5h8.3c1.4,0,2.6,0.3,3.6,0.8s1.7,1.2,2.3,2.1c0.6,0.9,1,1.9,1.2,3s0.4,2.3,0.4,3.5
		s-0.1,2.4-0.4,3.6s-0.7,2.2-1.2,3.2c-0.6,0.9-1.4,1.7-2.3,2.3s-2.2,0.9-3.6,0.9L224.8,99.9z M233.2,98.5c1.1,0,1.9-0.3,2.6-0.8
		c0.7-0.5,1.3-1.2,1.7-2c0.4-0.8,0.7-1.7,0.9-2.8c0.2-1,0.3-2,0.3-3c0-1-0.1-2-0.3-2.9c-0.2-1-0.5-1.8-0.9-2.6s-1-1.4-1.7-1.8
		c-0.7-0.5-1.6-0.7-2.7-0.7h-6.4v16.6L233.2,98.5z"/>
	<path class="fill-white" d="M255.1,99.3c-0.3,0.1-0.7,0.2-1.1,0.2c-0.4,0.1-0.9,0.2-1.4,0.2s-1,0.2-1.5,0.2c-0.5,0.1-1,0.1-1.4,0.1
		c-1.2,0-2.2-0.2-3-0.5s-1.4-0.8-1.9-1.4c-0.5-0.6-0.8-1.4-1-2.3c-0.2-0.9-0.3-1.9-0.3-3c0-1.3,0.1-2.5,0.4-3.4
		c0.3-0.9,0.7-1.7,1.2-2.2c0.5-0.6,1.1-1,1.9-1.2c0.7-0.2,1.6-0.4,2.5-0.4c2,0,3.5,0.5,4.5,1.6c1,1,1.5,2.7,1.5,5.1v1.1h-10.1
		c0,0.9,0.1,1.7,0.2,2.3c0.1,0.7,0.4,1.2,0.7,1.7s0.8,0.8,1.3,1c0.5,0.2,1.2,0.3,2,0.3c0.4,0,0.8,0,1.3-0.1c0.5-0.1,0.9-0.1,1.4-0.2
		c0.5-0.1,0.9-0.2,1.4-0.3c0.4-0.1,0.8-0.2,1.1-0.2L255.1,99.3z M253.7,92.3c0-1.9-0.4-3.3-1-4.1c-0.7-0.8-1.7-1.2-3.1-1.2
		c-1.4,0-2.4,0.4-3,1.2c-0.7,0.8-1,2.2-1,4.1H253.7z"/>
	<path class="fill-white" d="M258.1,86l4.2,12.1h0.4l4.2-12.1h1.9l-5,13.8h-2.7L256.2,86H258.1z"/>
	<path class="fill-white" d="M281.2,99.3c-0.3,0.1-0.7,0.2-1.1,0.2c-0.4,0.1-0.9,0.2-1.4,0.2s-1,0.2-1.5,0.2c-0.5,0.1-1,0.1-1.4,0.1
		c-1.2,0-2.2-0.2-3-0.5s-1.4-0.8-1.9-1.4c-0.5-0.6-0.8-1.4-1-2.3c-0.2-0.9-0.3-1.9-0.3-3c0-1.3,0.1-2.5,0.4-3.4
		c0.3-0.9,0.7-1.7,1.2-2.2c0.5-0.6,1.1-1,1.9-1.2c0.7-0.2,1.6-0.4,2.5-0.4c2,0,3.5,0.5,4.5,1.6c1,1,1.5,2.7,1.5,5.1v1.1h-10.1
		c0,0.9,0.1,1.7,0.2,2.3c0.1,0.7,0.4,1.2,0.7,1.7s0.8,0.8,1.3,1c0.5,0.2,1.2,0.3,2,0.3c0.4,0,0.8,0,1.3-0.1c0.5-0.1,0.9-0.1,1.4-0.2
		c0.5-0.1,0.9-0.2,1.4-0.3c0.4-0.1,0.8-0.2,1.1-0.2L281.2,99.3z M279.8,92.3c0-1.9-0.4-3.3-1-4.1c-0.7-0.8-1.7-1.2-3.1-1.2
		c-1.4,0-2.4,0.4-3,1.2c-0.7,0.8-1,2.2-1,4.1H279.8z"/>
	<path class="fill-white" d="M284.1,80.5h1.9v19.4h-1.9V80.5z"/>
	<path class="fill-white" d="M294.5,85.8c1,0,1.9,0.1,2.6,0.4c0.8,0.3,1.4,0.7,1.9,1.2s0.9,1.3,1.2,2.1c0.3,0.9,0.4,1.9,0.4,3.2
		c0,1.3-0.1,2.4-0.3,3.3s-0.5,1.7-1,2.3c-0.5,0.6-1.1,1.1-1.9,1.4s-1.8,0.4-3,0.4c-1.2,0-2.3-0.1-3.1-0.4c-0.8-0.3-1.5-0.7-1.9-1.3
		s-0.8-1.4-1-2.3c-0.2-1-0.3-2.1-0.3-3.5c0-1.3,0.1-2.3,0.4-3.2s0.6-1.6,1.1-2.1c0.5-0.5,1.2-0.9,2-1.2S293.4,85.7,294.5,85.8
		L294.5,85.8z M294.5,98.9c0.9,0,1.7-0.1,2.3-0.4c0.6-0.2,1-0.6,1.3-1.1c0.3-0.5,0.5-1.1,0.6-1.9c0.1-0.8,0.2-1.7,0.2-2.7
		c0-1.1-0.1-1.9-0.3-2.7s-0.5-1.3-0.9-1.8c-0.4-0.5-0.8-0.8-1.4-1c-0.5-0.2-1.1-0.3-1.8-0.3c-0.8,0-1.5,0.1-2.1,0.2
		c-0.6,0.2-1,0.5-1.4,0.9s-0.6,1-0.8,1.7c-0.2,0.7-0.2,1.6-0.2,2.7c0,1.1,0.1,2.1,0.2,2.9c0.1,0.8,0.3,1.4,0.7,1.9s0.8,0.8,1.4,1.1
		C292.8,98.8,293.6,98.9,294.5,98.9z"/>
	<path class="fill-white" d="M305.1,105.2h-1.9V85.9c0.6,0,1.3-0.1,2-0.1c0.7,0,1.4-0.1,2.1-0.1c1.5,0,2.7,0.2,3.7,0.5
		c0.9,0.3,1.7,0.8,2.2,1.4c0.5,0.6,0.9,1.4,1.1,2.3s0.3,2,0.3,3.3c0,1.2-0.1,2.2-0.2,3s-0.5,1.6-0.9,2.1c-0.4,0.6-1,1-1.7,1.3
		c-0.7,0.3-1.6,0.4-2.7,0.4c-0.8,0-1.5-0.1-2.2-0.2c-0.7-0.1-1.3-0.3-1.7-0.4V105.2z M305.1,98.2c0.5,0.1,1,0.3,1.8,0.5
		c0.7,0.2,1.4,0.2,2.2,0.2c0.8,0,1.4-0.1,1.9-0.3s0.9-0.6,1.1-1s0.5-1,0.6-1.8c0.1-0.7,0.2-1.6,0.2-2.6c0-1-0.1-1.9-0.2-2.7
		c-0.1-0.8-0.4-1.4-0.7-1.9c-0.4-0.5-0.9-0.9-1.6-1.1s-1.6-0.4-2.8-0.4c-0.3,0-0.7,0-1.2,0s-0.9,0-1.2,0.1V98.2z"/>
</g>
<g>
	<path class="fill-red" d="M61.7,89.9c0,0.9-0.1,1.7-0.4,2.5c-0.3,0.7-0.7,1.4-1.2,1.9s-1.2,0.9-1.9,1.2c-0.7,0.3-1.5,0.4-2.4,0.4h-4.5
		V83.9h4.5c0.9,0,1.7,0.1,2.4,0.4s1.4,0.7,1.9,1.2c0.5,0.5,0.9,1.2,1.2,1.9C61.6,88.2,61.7,89,61.7,89.9z M60,89.9
		c0-0.7-0.1-1.4-0.3-2c-0.2-0.6-0.5-1.1-0.9-1.5c-0.4-0.4-0.8-0.7-1.3-0.9c-0.5-0.2-1.1-0.3-1.8-0.3h-2.9v9.4h2.9
		c0.7,0,1.2-0.1,1.8-0.3c0.5-0.2,1-0.5,1.3-0.9c0.4-0.4,0.7-0.9,0.9-1.5C59.9,91.3,60,90.7,60,89.9z"/>
	<path class="fill-red" d="M70.5,94.8c-0.2,0.2-0.4,0.4-0.7,0.6c-0.3,0.2-0.5,0.3-0.8,0.4s-0.6,0.2-0.9,0.2c-0.3,0.1-0.6,0.1-0.9,0.1
		c-0.6,0-1.1-0.1-1.6-0.3c-0.5-0.2-0.9-0.5-1.3-0.9s-0.6-0.9-0.8-1.4s-0.3-1.2-0.3-2c0-0.6,0.1-1.2,0.3-1.7c0.2-0.5,0.4-1,0.8-1.3
		c0.3-0.4,0.8-0.7,1.3-0.9c0.5-0.2,1.1-0.3,1.7-0.3c0.5,0,1,0.1,1.4,0.3c0.4,0.2,0.8,0.4,1.1,0.7c0.3,0.3,0.6,0.7,0.7,1.2
		c0.2,0.5,0.3,1,0.3,1.6c0,0.2,0,0.4-0.1,0.5c-0.1,0.1-0.1,0.1-0.3,0.1h-5.7c0,0.5,0.1,1,0.2,1.4c0.1,0.4,0.3,0.7,0.6,1
		s0.5,0.5,0.8,0.6s0.7,0.2,1.1,0.2c0.4,0,0.7,0,1-0.1s0.5-0.2,0.7-0.3c0.2-0.1,0.4-0.2,0.5-0.3s0.2-0.1,0.3-0.1c0.1,0,0.2,0,0.3,0.1
		L70.5,94.8z M69.3,90.8c0-0.3,0-0.7-0.1-1c-0.1-0.3-0.2-0.5-0.4-0.8c-0.2-0.2-0.4-0.4-0.7-0.5c-0.3-0.1-0.6-0.2-0.9-0.2
		c-0.7,0-1.3,0.2-1.7,0.6c-0.4,0.4-0.7,1-0.8,1.7H69.3z M69.6,83.7l-2,2.2c-0.1,0.1-0.2,0.1-0.2,0.2c-0.1,0-0.2,0.1-0.3,0.1h-0.9
		l1.2-2c0.1-0.1,0.2-0.2,0.3-0.3s0.2-0.1,0.4-0.1H69.6z"/>
	<path class="fill-red" d="M79.6,87.4L76.1,96h-1.3l-3.5-8.5h1.2c0.1,0,0.2,0,0.3,0.1c0.1,0.1,0.1,0.1,0.2,0.2l2.2,5.5
		c0.1,0.2,0.1,0.4,0.2,0.6c0,0.2,0.1,0.4,0.1,0.6c0-0.2,0.1-0.4,0.1-0.6c0.1-0.2,0.1-0.4,0.2-0.6l2.2-5.5c0-0.1,0.1-0.2,0.2-0.2
		c0.1-0.1,0.2-0.1,0.3-0.1H79.6z"/>
	<path class="fill-red" d="M87.7,94.8c-0.2,0.2-0.4,0.4-0.7,0.6c-0.3,0.2-0.5,0.3-0.8,0.4s-0.6,0.2-0.9,0.2c-0.3,0.1-0.6,0.1-0.9,0.1
		c-0.6,0-1.1-0.1-1.6-0.3c-0.5-0.2-0.9-0.5-1.3-0.9s-0.6-0.9-0.8-1.4s-0.3-1.2-0.3-2c0-0.6,0.1-1.2,0.3-1.7c0.2-0.5,0.4-1,0.8-1.3
		c0.3-0.4,0.8-0.7,1.3-0.9c0.5-0.2,1.1-0.3,1.7-0.3c0.5,0,1,0.1,1.4,0.3c0.4,0.2,0.8,0.4,1.1,0.7c0.3,0.3,0.6,0.7,0.7,1.2
		c0.2,0.5,0.3,1,0.3,1.6c0,0.2,0,0.4-0.1,0.5c-0.1,0.1-0.1,0.1-0.3,0.1h-5.7c0,0.5,0.1,1,0.2,1.4c0.1,0.4,0.3,0.7,0.6,1
		s0.5,0.5,0.8,0.6s0.7,0.2,1.1,0.2c0.4,0,0.7,0,1-0.1s0.5-0.2,0.7-0.3c0.2-0.1,0.4-0.2,0.5-0.3s0.2-0.1,0.3-0.1c0.1,0,0.2,0,0.3,0.1
		L87.7,94.8z M86.5,90.8c0-0.3,0-0.7-0.1-1c-0.1-0.3-0.2-0.5-0.4-0.8c-0.2-0.2-0.4-0.4-0.7-0.5c-0.3-0.1-0.6-0.2-0.9-0.2
		c-0.7,0-1.3,0.2-1.7,0.6c-0.4,0.4-0.7,1-0.8,1.7H86.5z"/>
	<path class="fill-red" d="M91.2,83.5V96h-1.5V83.5H91.2z"/>
	<path class="fill-red" d="M97.2,87.3c0.6,0,1.2,0.1,1.7,0.3s0.9,0.5,1.3,0.9c0.4,0.4,0.6,0.8,0.8,1.4s0.3,1.1,0.3,1.8
		c0,0.7-0.1,1.3-0.3,1.8c-0.2,0.5-0.5,1-0.8,1.4c-0.4,0.4-0.8,0.7-1.3,0.9s-1.1,0.3-1.7,0.3c-0.6,0-1.2-0.1-1.7-0.3
		s-0.9-0.5-1.3-0.9c-0.4-0.4-0.6-0.8-0.8-1.4c-0.2-0.5-0.3-1.1-0.3-1.8c0-0.7,0.1-1.3,0.3-1.8s0.5-1,0.8-1.4
		c0.4-0.4,0.8-0.7,1.3-0.9S96.6,87.3,97.2,87.3z M97.2,94.9c0.8,0,1.5-0.3,1.9-0.8s0.6-1.4,0.6-2.4c0-1-0.2-1.8-0.6-2.4
		s-1-0.9-1.9-0.9c-0.4,0-0.8,0.1-1.1,0.2c-0.3,0.1-0.6,0.4-0.8,0.6s-0.4,0.6-0.5,1c-0.1,0.4-0.2,0.9-0.2,1.4c0,1,0.2,1.8,0.6,2.4
		S96.4,94.9,97.2,94.9z"/>
	<path class="fill-red" d="M104.6,88.7c0.4-0.4,0.8-0.8,1.2-1.1s1-0.4,1.6-0.4c0.5,0,0.9,0.1,1.3,0.3c0.4,0.2,0.7,0.5,1,0.8
		c0.3,0.4,0.5,0.8,0.6,1.4c0.2,0.5,0.2,1.2,0.2,1.9c0,0.6-0.1,1.2-0.3,1.8s-0.4,1-0.7,1.4c-0.3,0.4-0.7,0.7-1.2,0.9
		c-0.5,0.2-1,0.3-1.5,0.3c-0.5,0-1-0.1-1.3-0.3c-0.4-0.2-0.7-0.4-1-0.7v3.8h-1.5V87.4h0.9c0.2,0,0.3,0.1,0.4,0.3L104.6,88.7z
		 M104.7,93.9c0.3,0.4,0.6,0.6,0.9,0.8s0.7,0.2,1.1,0.2c0.8,0,1.4-0.3,1.8-0.9s0.6-1.4,0.6-2.4c0-0.6,0-1-0.1-1.4
		c-0.1-0.4-0.2-0.7-0.4-1c-0.2-0.3-0.4-0.4-0.7-0.6c-0.3-0.1-0.6-0.2-0.9-0.2c-0.5,0-0.9,0.1-1.3,0.3c-0.4,0.2-0.7,0.5-1,1V93.9z"/>
	<path class="fill-red" d="M114.1,88.7c0.4-0.4,0.8-0.8,1.2-1.1s1-0.4,1.6-0.4c0.5,0,0.9,0.1,1.3,0.3c0.4,0.2,0.7,0.5,1,0.8
		c0.3,0.4,0.5,0.8,0.6,1.4c0.2,0.5,0.2,1.2,0.2,1.9c0,0.6-0.1,1.2-0.3,1.8s-0.4,1-0.7,1.4c-0.3,0.4-0.7,0.7-1.2,0.9
		c-0.5,0.2-1,0.3-1.5,0.3c-0.5,0-1-0.1-1.3-0.3c-0.4-0.2-0.7-0.4-1-0.7v3.8h-1.5V87.4h0.9c0.2,0,0.3,0.1,0.4,0.3L114.1,88.7z
		 M114.1,93.9c0.3,0.4,0.6,0.6,0.9,0.8s0.7,0.2,1.1,0.2c0.8,0,1.4-0.3,1.8-0.9s0.6-1.4,0.6-2.4c0-0.6,0-1-0.1-1.4
		c-0.1-0.4-0.2-0.7-0.4-1c-0.2-0.3-0.4-0.4-0.7-0.6c-0.3-0.1-0.6-0.2-0.9-0.2c-0.5,0-0.9,0.1-1.3,0.3c-0.4,0.2-0.7,0.5-1,1V93.9z"/>
	<path class="fill-red" d="M129,94.8c-0.2,0.2-0.4,0.4-0.7,0.6c-0.3,0.2-0.5,0.3-0.8,0.4s-0.6,0.2-0.9,0.2c-0.3,0.1-0.6,0.1-0.9,0.1
		c-0.6,0-1.1-0.1-1.6-0.3c-0.5-0.2-0.9-0.5-1.3-0.9s-0.6-0.9-0.8-1.4s-0.3-1.2-0.3-2c0-0.6,0.1-1.2,0.3-1.7c0.2-0.5,0.4-1,0.8-1.3
		c0.3-0.4,0.8-0.7,1.3-0.9c0.5-0.2,1.1-0.3,1.7-0.3c0.5,0,1,0.1,1.4,0.3c0.4,0.2,0.8,0.4,1.1,0.7c0.3,0.3,0.6,0.7,0.7,1.2
		c0.2,0.5,0.3,1,0.3,1.6c0,0.2,0,0.4-0.1,0.5c-0.1,0.1-0.1,0.1-0.3,0.1h-5.7c0,0.5,0.1,1,0.2,1.4c0.1,0.4,0.3,0.7,0.6,1
		s0.5,0.5,0.8,0.6s0.7,0.2,1.1,0.2c0.4,0,0.7,0,1-0.1s0.5-0.2,0.7-0.3c0.2-0.1,0.4-0.2,0.5-0.3c0.1-0.1,0.2-0.1,0.3-0.1
		c0.1,0,0.2,0,0.3,0.1L129,94.8z M127.8,90.8c0-0.3,0-0.7-0.1-1c-0.1-0.3-0.2-0.5-0.4-0.8c-0.2-0.2-0.4-0.4-0.7-0.5
		c-0.3-0.1-0.6-0.2-0.9-0.2c-0.7,0-1.3,0.2-1.7,0.6c-0.4,0.4-0.7,1-0.8,1.7H127.8z"/>
	<path class="fill-red" d="M131,96v-8.5h0.9c0.2,0,0.3,0.1,0.4,0.3l0.1,0.9c0.3-0.4,0.7-0.7,1.1-1c0.4-0.2,0.8-0.4,1.4-0.4
		c0.6,0,1,0.2,1.4,0.5c0.4,0.3,0.6,0.8,0.8,1.3c0.1-0.3,0.3-0.6,0.5-0.8c0.2-0.2,0.4-0.4,0.7-0.6c0.2-0.1,0.5-0.3,0.8-0.3
		s0.5-0.1,0.8-0.1c0.5,0,0.8,0.1,1.2,0.2s0.6,0.4,0.9,0.6s0.4,0.6,0.6,1c0.1,0.4,0.2,0.9,0.2,1.4V96H141v-5.4c0-0.7-0.1-1.2-0.4-1.5
		s-0.7-0.5-1.3-0.5c-0.2,0-0.5,0-0.7,0.1c-0.2,0.1-0.4,0.2-0.6,0.4c-0.2,0.2-0.3,0.4-0.4,0.6c-0.1,0.3-0.1,0.6-0.1,0.9V96H136v-5.4
		c0-0.7-0.1-1.2-0.4-1.5s-0.7-0.5-1.2-0.5c-0.4,0-0.7,0.1-1,0.3c-0.3,0.2-0.6,0.5-0.9,0.8V96H131z"/>
	<path class="fill-red" d="M151.8,94.8c-0.2,0.2-0.4,0.4-0.7,0.6c-0.3,0.2-0.5,0.3-0.8,0.4s-0.6,0.2-0.9,0.2c-0.3,0.1-0.6,0.1-0.9,0.1
		c-0.6,0-1.1-0.1-1.6-0.3c-0.5-0.2-0.9-0.5-1.3-0.9s-0.6-0.9-0.8-1.4s-0.3-1.2-0.3-2c0-0.6,0.1-1.2,0.3-1.7c0.2-0.5,0.4-1,0.8-1.3
		c0.3-0.4,0.8-0.7,1.3-0.9c0.5-0.2,1.1-0.3,1.7-0.3c0.5,0,1,0.1,1.4,0.3c0.4,0.2,0.8,0.4,1.1,0.7c0.3,0.3,0.6,0.7,0.7,1.2
		c0.2,0.5,0.3,1,0.3,1.6c0,0.2,0,0.4-0.1,0.5c-0.1,0.1-0.1,0.1-0.3,0.1h-5.7c0,0.5,0.1,1,0.2,1.4c0.1,0.4,0.3,0.7,0.6,1
		s0.5,0.5,0.8,0.6s0.7,0.2,1.1,0.2c0.4,0,0.7,0,1-0.1s0.5-0.2,0.7-0.3c0.2-0.1,0.4-0.2,0.5-0.3s0.2-0.1,0.3-0.1c0.1,0,0.2,0,0.3,0.1
		L151.8,94.8z M150.6,90.8c0-0.3,0-0.7-0.1-1c-0.1-0.3-0.2-0.5-0.4-0.8c-0.2-0.2-0.4-0.4-0.7-0.5c-0.3-0.1-0.6-0.2-0.9-0.2
		c-0.7,0-1.3,0.2-1.7,0.6c-0.4,0.4-0.7,1-0.8,1.7H150.6z"/>
	<path class="fill-red" d="M155.2,88.7c0.2-0.2,0.4-0.4,0.6-0.6c0.2-0.2,0.4-0.3,0.7-0.4s0.5-0.2,0.7-0.3c0.3-0.1,0.5-0.1,0.8-0.1
		c0.5,0,0.9,0.1,1.2,0.2c0.4,0.2,0.7,0.4,0.9,0.7c0.2,0.3,0.4,0.6,0.5,1c0.1,0.4,0.2,0.8,0.2,1.3V96h-1.5v-5.4
		c0-0.6-0.1-1.1-0.4-1.5c-0.3-0.4-0.7-0.5-1.3-0.5c-0.4,0-0.9,0.1-1.2,0.3c-0.4,0.2-0.7,0.5-1.1,0.9V96h-1.5v-8.5h0.9
		c0.2,0,0.3,0.1,0.4,0.3L155.2,88.7z"/>
	<path class="fill-red" d="M165.7,96.1c-0.7,0-1.2-0.2-1.6-0.6c-0.4-0.4-0.5-0.9-0.5-1.6v-5.2h-1c-0.1,0-0.2,0-0.2-0.1s-0.1-0.1-0.1-0.2
		v-0.6l1.4-0.2l0.3-2.6c0-0.1,0.1-0.2,0.1-0.2c0.1-0.1,0.1-0.1,0.2-0.1h0.8v2.9h2.5v1.1h-2.5v5.1c0,0.4,0.1,0.6,0.3,0.8
		c0.2,0.2,0.4,0.3,0.7,0.3c0.2,0,0.3,0,0.4-0.1c0.1,0,0.2-0.1,0.3-0.1c0.1-0.1,0.2-0.1,0.2-0.1c0.1,0,0.1-0.1,0.2-0.1
		c0.1,0,0.1,0,0.2,0.1l0.4,0.7c-0.3,0.2-0.6,0.4-0.9,0.6S166,96.1,165.7,96.1z"/>
</g>
<path class="fill-white" d="M36,49.7l-7.9-4.5l-7.8,4.5l0.1,9l7.7,4.5l7.9-4.6L36,49.7z M20.6,58.6l0-3.9l3.5,2l0,4L20.6,58.6z M20.8,54.3
	l3.4-2l3.5,2l-3.5,2.1L20.8,54.3z M27.9,58.6l-3.5,2l0-4l3.5-2L27.9,58.6z M24.6,51.6l0-3.9l3.5,2l0,4L24.6,51.6z M24.8,47.4l3.4-2
	l3.5,2l-3.5,2.1L24.8,47.4z M28.5,49.7l3.5-2l0,3.9l-3.5,2L28.5,49.7z M28.6,58.6l0-3.9l3.5,2l0,4L28.6,58.6z M28.8,54.3l3.4-2
	l3.5,2l-3.5,2.1L28.8,54.3z M35.9,58.5l-3.5,2l0-4l3.5-2L35.9,58.5z"/>
</svg>
