<?xml version="1.0" encoding="utf-8"?>
<!-- Generator: Adobe Illustrator 21.0.0, SVG Export Plug-In . SVG Version: 6.00 Build 0)  -->
<svg version="1.1" id="Calque_1" xmlns="http://www.w3.org/2000/svg" xmlns:xlink="http://www.w3.org/1999/xlink" x="0px" y="0px"
	 viewBox="0 0 363 185.8" style="enable-background:new 0 0 363 185.8;" xml:space="preserve">
<style type="text/css">
	.fill-blue{fill:#10AAC7;}
	.fill-white{fill:#FFFFFF;}
</style>
<path id="SVGID_5_DEPLOY" class="fill-blue" d="M151.6,3.9H93.3h-10H35C17.5,3.9,3.3,18.1,3.3,35.6v116.6c0,17.5,14.2,31.7,31.7,31.7h48.3h10
	h58.3c17.5,0,31.7-14.2,31.7-31.7V35.6C183.3,18.1,169.1,3.9,151.6,3.9z"/>

<path class="fill-blue" d="M235.6,95l-12.3-12.3c-0.2-0.2-0.3-0.3-0.5-0.4c-1.1-2-0.9-4.5,0.8-6.2c0,0,0,0,0,0l12-12
	c1.8-1.8,1.8-4.8,0-6.7l-12.3-12.3c-1.8-1.8-4.8-1.8-6.7,0l-12.3,12.3c-1.8,1.8-1.8,4.8,0,6.7l12,12c0,0,0,0,0,0
	c1.7,1.7,2,4.2,0.8,6.2c-0.2,0.1-0.4,0.3-0.5,0.4L204.2,95c-1,1-1.4,2.2-1.4,3.5c0,1.3,0.4,2.5,1.4,3.5l12.3,12.3
	c0.1,0.1,0.3,0.3,0.5,0.4c1.1,1.9,1,4.3-0.5,6L204.2,133c-1.8,1.8-1.8,4.8,0,6.7l12.3,12.3c1.8,1.8,4.8,1.8,6.7,0l12.3-12.3
	c1.8-1.8,1.8-4.8,0-6.7l-12.3-12.3c-1.5-1.7-1.7-4.1-0.5-6c0.2-0.1,0.3-0.2,0.5-0.4l12.3-12.3c1-1,1.4-2.2,1.4-3.5
	C237,97.3,236.5,96,235.6,95z"/>
<path class="fill-white" d="M226.7,96.4l-2-1.6c-0.5-2.9-2.8-4.2-4.9-4.2c-1.3,0-2.6,0.5-3.5,1.4c-0.8,0.7-1.3,1.7-1.5,2.8l-2,1.6
	c-0.4,0.2-0.6,0.7-0.6,1.1v2.2c0,0.6,0.5,1.2,1.1,1.3l1.9,0.5v-4.9l0,0c0.2,0,0.4-0.2,0.4-0.4c0-3.2,2.2-4.6,4.3-4.6
	c1.1,0,2.1,0.4,2.8,1.1c0.8,0.8,1.3,2,1.3,3.5c0,0.2,0.2,0.4,0.4,0.4v4.9l0.9-0.2v2.8l-1.9,1.1c-0.2-0.1-0.4-0.2-0.6-0.2h-1.2
	c-0.5,0-0.9,0.4-0.9,0.9c0,0.5,0.4,0.9,0.9,0.9h1.2c0.4,0,0.8-0.3,0.9-0.7l2.5-1.5V101l0.2,0c0.6-0.1,1.1-0.6,1.1-1.3v-2.2
	C227.4,97.1,227.1,96.7,226.7,96.4z"/>
<g>
	<path class="fill-white" d="M225.8,131.5c-0.2-0.8-0.5-1.5-1-2.1c-1.7-1.9-4.6-2.1-6.6-0.5c-0.8,0.7-1.2,1.5-1.5,2.4c-0.3,0-0.6,0-0.9,0.1
		c-0.3,0.2-0.5,0.4-0.6,0.7c-0.4-0.1-0.8-0.2-1.3-0.2c-2.3,0-4.1,1.8-4.1,4.1c0,2.1,1.6,3.8,3.7,4l0,0l0.2,0c0.1,0,0.1,0,0.2,0
		c0.1,0,0.1,0,0.2,0l3.8,0v-1.3h0.9l-0.6-0.6l2.3-2.3l0.7,0.7v-0.9h3.3v0.9l0.6-0.6l2,2c0.5-0.7,0.7-1.6,0.7-2.5
		C227.9,133.7,227.1,132.3,225.8,131.5z"/>
	<path class="fill-white" d="M222.9,138.4c-0.5,0-1,0.2-1.4,0.6c-0.3,0.3-0.5,0.6-0.5,1l2.4,0c0.5,0,1-0.1,1.4-0.3
		c-0.1-0.3-0.2-0.5-0.5-0.8C223.9,138.6,223.4,138.4,222.9,138.4z"/>
	<path class="fill-white" d="M226,138.7l0.6-0.6l-1.4-1.4l-0.6,0.6c-0.2-0.1-0.4-0.2-0.7-0.3v-0.9h-2v0.9c-0.2,0.1-0.5,0.2-0.7,0.3
		l-0.6-0.6l-1.4,1.4l0.6,0.6c-0.1,0.2-0.2,0.4-0.3,0.7h-0.9v2h0.9c0.1,0.2,0.2,0.5,0.3,0.7l-0.6,0.6l1.4,1.4l0.6-0.6
		c0.2,0.1,0.4,0.2,0.7,0.3v0.9h2v-0.9c0.2-0.1,0.5-0.2,0.7-0.3l0.6,0.6l1.4-1.4l-0.6-0.6c0.1-0.2,0.2-0.4,0.3-0.7h0.9v-2h-0.9
		C226.2,139.2,226.1,139,226,138.7z M224.7,142.2c-1,1-2.7,1-3.7,0c-1-1-1-2.7,0-3.7c1-1,2.7-1,3.7,0
		C225.7,139.6,225.7,141.2,224.7,142.2z"/>
</g>
<g>
	<path class="fill-blue" d="M251.5,92.6c-0.1,0.1-0.1,0.1-0.2,0.2c-0.1,0-0.1,0.1-0.2,0.1c-0.1,0-0.2,0-0.3-0.1c-0.1-0.1-0.3-0.2-0.5-0.3
		c-0.2-0.1-0.4-0.2-0.7-0.3c-0.3-0.1-0.6-0.1-1-0.1c-0.4,0-0.7,0-1,0.1c-0.3,0.1-0.5,0.2-0.7,0.4c-0.2,0.2-0.3,0.4-0.4,0.6
		c-0.1,0.2-0.1,0.5-0.1,0.7c0,0.3,0.1,0.6,0.2,0.8c0.2,0.2,0.4,0.4,0.7,0.6c0.3,0.2,0.6,0.3,0.9,0.4s0.7,0.2,1.1,0.4
		c0.4,0.1,0.7,0.3,1.1,0.4s0.7,0.3,0.9,0.6c0.3,0.2,0.5,0.5,0.7,0.9s0.2,0.8,0.2,1.3c0,0.5-0.1,1-0.3,1.5c-0.2,0.5-0.4,0.9-0.8,1.2
		c-0.3,0.3-0.8,0.6-1.3,0.8c-0.5,0.2-1.1,0.3-1.7,0.3c-0.8,0-1.5-0.1-2.1-0.4c-0.6-0.3-1.2-0.7-1.6-1.2l0.5-0.8
		c0-0.1,0.1-0.1,0.2-0.2s0.1-0.1,0.2-0.1c0.1,0,0.2,0,0.2,0.1c0.1,0.1,0.2,0.1,0.3,0.2c0.1,0.1,0.3,0.2,0.4,0.3
		c0.2,0.1,0.3,0.2,0.5,0.3c0.2,0.1,0.4,0.2,0.7,0.2s0.5,0.1,0.8,0.1c0.4,0,0.7-0.1,1-0.2c0.3-0.1,0.6-0.3,0.8-0.5
		c0.2-0.2,0.4-0.4,0.5-0.7s0.2-0.6,0.2-0.9c0-0.4-0.1-0.7-0.2-0.9c-0.2-0.2-0.4-0.4-0.7-0.6s-0.6-0.3-0.9-0.4
		c-0.3-0.1-0.7-0.2-1.1-0.3s-0.7-0.2-1.1-0.4c-0.3-0.2-0.7-0.3-0.9-0.6c-0.3-0.2-0.5-0.5-0.7-0.9c-0.2-0.4-0.2-0.8-0.2-1.3
		c0-0.4,0.1-0.8,0.2-1.2c0.2-0.4,0.4-0.8,0.7-1.1c0.3-0.3,0.7-0.6,1.2-0.7c0.5-0.2,1-0.3,1.6-0.3c0.7,0,1.3,0.1,1.8,0.3
		c0.6,0.2,1,0.5,1.5,0.9L251.5,92.6z"/>
	<path class="fill-blue" d="M261,94.2v8.5h-0.9c-0.2,0-0.3-0.1-0.4-0.3l-0.1-0.9c-0.4,0.4-0.8,0.7-1.2,1c-0.5,0.2-1,0.4-1.6,0.4
		c-0.5,0-0.9-0.1-1.2-0.2c-0.4-0.2-0.7-0.4-0.9-0.7c-0.2-0.3-0.4-0.6-0.5-1c-0.1-0.4-0.2-0.8-0.2-1.3v-5.4h1.5v5.4
		c0,0.6,0.1,1.1,0.4,1.5s0.7,0.5,1.4,0.5c0.4,0,0.9-0.1,1.2-0.3s0.7-0.5,1.1-0.9v-6.3H261z"/>
	<path class="fill-blue" d="M264.8,95.6c0.4-0.4,0.8-0.8,1.2-1.1s1-0.4,1.6-0.4c0.5,0,0.9,0.1,1.3,0.3c0.4,0.2,0.7,0.5,1,0.8
		c0.3,0.4,0.5,0.8,0.6,1.4c0.2,0.5,0.2,1.2,0.2,1.9c0,0.6-0.1,1.2-0.3,1.8s-0.4,1-0.7,1.4c-0.3,0.4-0.7,0.7-1.2,0.9
		c-0.5,0.2-1,0.3-1.5,0.3c-0.5,0-1-0.1-1.3-0.3c-0.4-0.2-0.7-0.4-1-0.7v3.8h-1.5V94.2h0.9c0.2,0,0.3,0.1,0.4,0.3L264.8,95.6z
		 M264.9,100.7c0.3,0.4,0.6,0.6,0.9,0.8s0.7,0.2,1.1,0.2c0.8,0,1.4-0.3,1.8-0.9s0.6-1.4,0.6-2.4c0-0.6,0-1-0.1-1.4
		c-0.1-0.4-0.2-0.7-0.4-1c-0.2-0.3-0.4-0.4-0.7-0.6c-0.3-0.1-0.6-0.2-0.9-0.2c-0.5,0-0.9,0.1-1.3,0.3c-0.4,0.2-0.7,0.5-1,1V100.7z"
		/>
	<path class="fill-blue" d="M274.2,95.6c0.4-0.4,0.8-0.8,1.2-1.1s1-0.4,1.6-0.4c0.5,0,0.9,0.1,1.3,0.3c0.4,0.2,0.7,0.5,1,0.8
		c0.3,0.4,0.5,0.8,0.6,1.4c0.2,0.5,0.2,1.2,0.2,1.9c0,0.6-0.1,1.2-0.3,1.8s-0.4,1-0.7,1.4c-0.3,0.4-0.7,0.7-1.2,0.9
		c-0.5,0.2-1,0.3-1.5,0.3c-0.5,0-1-0.1-1.3-0.3c-0.4-0.2-0.7-0.4-1-0.7v3.8h-1.5V94.2h0.9c0.2,0,0.3,0.1,0.4,0.3L274.2,95.6z
		 M274.3,100.7c0.3,0.4,0.6,0.6,0.9,0.8s0.7,0.2,1.1,0.2c0.8,0,1.4-0.3,1.8-0.9s0.6-1.4,0.6-2.4c0-0.6,0-1-0.1-1.4
		c-0.1-0.4-0.2-0.7-0.4-1c-0.2-0.3-0.4-0.4-0.7-0.6c-0.3-0.1-0.6-0.2-0.9-0.2c-0.5,0-0.9,0.1-1.3,0.3c-0.4,0.2-0.7,0.5-1,1V100.7z"
		/>
	<path class="fill-blue" d="M285.9,94.1c0.6,0,1.2,0.1,1.7,0.3s0.9,0.5,1.3,0.9c0.4,0.4,0.6,0.8,0.8,1.4s0.3,1.1,0.3,1.8
		c0,0.7-0.1,1.3-0.3,1.8c-0.2,0.5-0.5,1-0.8,1.4c-0.4,0.4-0.8,0.7-1.3,0.9s-1.1,0.3-1.7,0.3c-0.6,0-1.2-0.1-1.7-0.3
		s-0.9-0.5-1.3-0.9c-0.4-0.4-0.6-0.8-0.8-1.4c-0.2-0.5-0.3-1.1-0.3-1.8c0-0.7,0.1-1.3,0.3-1.8s0.5-1,0.8-1.4
		c0.4-0.4,0.8-0.7,1.3-0.9S285.2,94.1,285.9,94.1z M285.9,101.7c0.8,0,1.5-0.3,1.9-0.8s0.6-1.4,0.6-2.4c0-1-0.2-1.8-0.6-2.4
		s-1-0.9-1.9-0.9c-0.4,0-0.8,0.1-1.1,0.2c-0.3,0.1-0.6,0.4-0.8,0.6s-0.4,0.6-0.5,1c-0.1,0.4-0.2,0.9-0.2,1.4c0,1,0.2,1.8,0.6,2.4
		S285,101.7,285.9,101.7z"/>
	<path class="fill-blue" d="M293.2,96c0.3-0.6,0.6-1,1-1.4c0.4-0.3,0.9-0.5,1.4-0.5c0.2,0,0.4,0,0.5,0.1s0.3,0.1,0.4,0.2l-0.1,1.1
		c0,0.1-0.1,0.2-0.3,0.2c-0.1,0-0.2,0-0.3,0c-0.2,0-0.3-0.1-0.5-0.1c-0.3,0-0.5,0-0.7,0.1c-0.2,0.1-0.4,0.2-0.6,0.3
		c-0.2,0.2-0.3,0.3-0.4,0.6s-0.3,0.5-0.4,0.8v5.4h-1.5v-8.5h0.9c0.2,0,0.3,0,0.3,0.1s0.1,0.2,0.1,0.3L293.2,96z"/>
	<path class="fill-blue" d="M300.6,102.9c-0.7,0-1.2-0.2-1.6-0.6c-0.4-0.4-0.5-0.9-0.5-1.6v-5.2h-1c-0.1,0-0.2,0-0.2-0.1s-0.1-0.1-0.1-0.2
		v-0.6l1.4-0.2l0.3-2.6c0-0.1,0.1-0.2,0.1-0.2c0.1-0.1,0.1-0.1,0.2-0.1h0.8v2.9h2.5v1.1H300v5.1c0,0.4,0.1,0.6,0.3,0.8
		c0.2,0.2,0.4,0.3,0.7,0.3c0.2,0,0.3,0,0.4-0.1c0.1,0,0.2-0.1,0.3-0.1c0.1-0.1,0.2-0.1,0.2-0.1c0.1,0,0.1-0.1,0.2-0.1
		c0.1,0,0.1,0,0.2,0.1l0.4,0.7c-0.3,0.2-0.6,0.4-0.9,0.6S301,102.9,300.6,102.9z"/>
</g>
<g>
	<path class="fill-blue" d="M255.2,52l-4.9,12.1h-1.5L243.9,52h1.3c0.1,0,0.3,0,0.4,0.1c0.1,0.1,0.2,0.2,0.2,0.3l3.4,8.5
		c0.1,0.2,0.1,0.4,0.2,0.6s0.1,0.5,0.2,0.7c0.1-0.2,0.1-0.5,0.2-0.7s0.1-0.4,0.2-0.6l3.4-8.5c0-0.1,0.1-0.2,0.2-0.3
		c0.1-0.1,0.2-0.1,0.4-0.1H255.2z"/>
	<path class="fill-blue" d="M254.9,56.8c0.5-0.5,1-0.8,1.5-1s1.1-0.3,1.8-0.3c0.5,0,0.9,0.1,1.3,0.2s0.7,0.4,0.9,0.7
		c0.3,0.3,0.4,0.6,0.6,1c0.1,0.4,0.2,0.8,0.2,1.3v5.5h-0.7c-0.1,0-0.3,0-0.3-0.1c-0.1,0-0.1-0.1-0.2-0.3l-0.2-0.8
		c-0.2,0.2-0.4,0.4-0.7,0.6c-0.2,0.2-0.4,0.3-0.7,0.4c-0.2,0.1-0.5,0.2-0.8,0.3c-0.3,0.1-0.6,0.1-0.9,0.1c-0.3,0-0.6,0-0.9-0.1
		c-0.3-0.1-0.5-0.2-0.8-0.4c-0.2-0.2-0.4-0.4-0.5-0.7c-0.1-0.3-0.2-0.6-0.2-1c0-0.3,0.1-0.7,0.3-1s0.5-0.6,0.9-0.8s1-0.4,1.6-0.6
		c0.7-0.2,1.5-0.2,2.5-0.3v-0.7c0-0.7-0.1-1.2-0.4-1.5c-0.3-0.3-0.7-0.5-1.3-0.5c-0.4,0-0.7,0-0.9,0.1s-0.5,0.2-0.6,0.3
		c-0.2,0.1-0.3,0.2-0.5,0.3s-0.3,0.1-0.4,0.1c-0.1,0-0.2,0-0.3-0.1c-0.1-0.1-0.1-0.1-0.2-0.2L254.9,56.8z M259.8,60.3
		c-0.7,0-1.3,0.1-1.8,0.2c-0.5,0.1-0.9,0.2-1.2,0.3c-0.3,0.1-0.5,0.3-0.7,0.5c-0.1,0.2-0.2,0.4-0.2,0.6c0,0.2,0,0.4,0.1,0.6
		s0.2,0.3,0.3,0.4c0.1,0.1,0.3,0.2,0.4,0.2c0.2,0,0.4,0.1,0.6,0.1c0.3,0,0.5,0,0.7-0.1c0.2-0.1,0.4-0.1,0.6-0.2
		c0.2-0.1,0.4-0.2,0.6-0.4s0.3-0.3,0.5-0.5V60.3z"/>
	<path class="fill-blue" d="M265.1,51.7v12.4h-1.5V51.7H265.1z"/>
	<path class="fill-blue" d="M269.4,52.9c0,0.1,0,0.3-0.1,0.4c-0.1,0.1-0.1,0.2-0.2,0.3c-0.1,0.1-0.2,0.2-0.3,0.2c-0.1,0.1-0.3,0.1-0.4,0.1
		c-0.1,0-0.3,0-0.4-0.1c-0.1-0.1-0.2-0.1-0.3-0.2c-0.1-0.1-0.2-0.2-0.2-0.3c-0.1-0.1-0.1-0.3-0.1-0.4c0-0.1,0-0.3,0.1-0.4
		c0.1-0.1,0.1-0.2,0.2-0.3c0.1-0.1,0.2-0.2,0.3-0.2c0.1-0.1,0.3-0.1,0.4-0.1c0.1,0,0.3,0,0.4,0.1c0.1,0.1,0.2,0.1,0.3,0.2
		c0.1,0.1,0.2,0.2,0.2,0.3C269.4,52.6,269.4,52.8,269.4,52.9z M269.1,55.6v8.5h-1.5v-8.5H269.1z"/>
	<path class="fill-blue" d="M278.6,51.7v12.4h-0.9c-0.2,0-0.3-0.1-0.4-0.3l-0.1-1c-0.4,0.4-0.8,0.8-1.2,1.1c-0.5,0.3-1,0.4-1.6,0.4
		c-0.5,0-0.9-0.1-1.3-0.3c-0.4-0.2-0.7-0.5-1-0.8c-0.3-0.4-0.5-0.8-0.6-1.4c-0.2-0.5-0.2-1.2-0.2-1.9c0-0.6,0.1-1.2,0.3-1.8
		s0.4-1,0.7-1.4c0.3-0.4,0.7-0.7,1.2-0.9s1-0.3,1.5-0.3c0.5,0,1,0.1,1.3,0.3c0.4,0.2,0.7,0.4,1,0.7v-4.7H278.6z M277.1,57.6
		c-0.3-0.4-0.6-0.6-0.9-0.8c-0.3-0.1-0.7-0.2-1.1-0.2c-0.8,0-1.4,0.3-1.8,0.9s-0.6,1.4-0.6,2.4c0,0.6,0,1,0.1,1.4s0.2,0.7,0.4,1
		s0.4,0.4,0.7,0.6s0.6,0.2,0.9,0.2c0.5,0,0.9-0.1,1.3-0.3c0.4-0.2,0.7-0.5,1-1V57.6z"/>
	<path class="fill-blue" d="M280.8,56.8c0.5-0.5,1-0.8,1.5-1s1.1-0.3,1.8-0.3c0.5,0,0.9,0.1,1.3,0.2s0.7,0.4,0.9,0.7
		c0.3,0.3,0.4,0.6,0.6,1c0.1,0.4,0.2,0.8,0.2,1.3v5.5h-0.7c-0.1,0-0.3,0-0.3-0.1c-0.1,0-0.1-0.1-0.2-0.3l-0.2-0.8
		c-0.2,0.2-0.4,0.4-0.7,0.6c-0.2,0.2-0.4,0.3-0.7,0.4c-0.2,0.1-0.5,0.2-0.8,0.3c-0.3,0.1-0.6,0.1-0.9,0.1c-0.3,0-0.6,0-0.9-0.1
		c-0.3-0.1-0.5-0.2-0.8-0.4c-0.2-0.2-0.4-0.4-0.5-0.7c-0.1-0.3-0.2-0.6-0.2-1c0-0.3,0.1-0.7,0.3-1s0.5-0.6,0.9-0.8s1-0.4,1.6-0.6
		c0.7-0.2,1.5-0.2,2.5-0.3v-0.7c0-0.7-0.1-1.2-0.4-1.5c-0.3-0.3-0.7-0.5-1.3-0.5c-0.4,0-0.7,0-0.9,0.1s-0.5,0.2-0.6,0.3
		c-0.2,0.1-0.3,0.2-0.5,0.3s-0.3,0.1-0.4,0.1c-0.1,0-0.2,0-0.3-0.1c-0.1-0.1-0.1-0.1-0.2-0.2L280.8,56.8z M285.6,60.3
		c-0.7,0-1.3,0.1-1.8,0.2c-0.5,0.1-0.9,0.2-1.2,0.3c-0.3,0.1-0.5,0.3-0.7,0.5c-0.1,0.2-0.2,0.4-0.2,0.6c0,0.2,0,0.4,0.1,0.6
		s0.2,0.3,0.3,0.4c0.1,0.1,0.3,0.2,0.4,0.2c0.2,0,0.4,0.1,0.6,0.1c0.3,0,0.5,0,0.7-0.1c0.2-0.1,0.4-0.1,0.6-0.2
		c0.2-0.1,0.4-0.2,0.6-0.4s0.3-0.3,0.5-0.5V60.3z"/>
	<path class="fill-blue" d="M297.2,64.1h-1.5v-7.3h-4.4V62c0,0.4,0.1,0.6,0.3,0.8c0.2,0.2,0.4,0.3,0.7,0.3c0.2,0,0.3,0,0.4-0.1
		c0.1,0,0.2-0.1,0.3-0.1c0.1-0.1,0.2-0.1,0.2-0.1c0.1,0,0.1-0.1,0.2-0.1c0.1,0,0.1,0,0.2,0.1l0.4,0.7c-0.3,0.2-0.6,0.4-0.9,0.6
		s-0.7,0.2-1.1,0.2c-0.7,0-1.2-0.2-1.6-0.6c-0.4-0.4-0.5-0.9-0.5-1.6v-5.2h-1c-0.1,0-0.2,0-0.2-0.1s-0.1-0.1-0.1-0.2v-0.6l1.4-0.2
		l0.3-2.6c0-0.1,0.1-0.2,0.1-0.2c0.1-0.1,0.1-0.1,0.2-0.1h0.8v2.9h5.9V64.1z M297.6,52.8c0,0.1,0,0.3-0.1,0.4
		c-0.1,0.1-0.1,0.2-0.2,0.3c-0.1,0.1-0.2,0.2-0.3,0.2c-0.1,0.1-0.3,0.1-0.4,0.1s-0.3,0-0.4-0.1c-0.1-0.1-0.2-0.1-0.3-0.2
		c-0.1-0.1-0.2-0.2-0.2-0.3c-0.1-0.1-0.1-0.3-0.1-0.4c0-0.1,0-0.3,0.1-0.4c0.1-0.1,0.1-0.2,0.2-0.3c0.1-0.1,0.2-0.2,0.3-0.2
		c0.1-0.1,0.3-0.1,0.4-0.1s0.3,0,0.4,0.1c0.1,0.1,0.2,0.1,0.3,0.2c0.1,0.1,0.2,0.2,0.2,0.3S297.6,52.7,297.6,52.8z"/>
	<path class="fill-blue" d="M303.3,55.4c0.6,0,1.2,0.1,1.7,0.3s0.9,0.5,1.3,0.9c0.4,0.4,0.6,0.8,0.8,1.4s0.3,1.1,0.3,1.8
		c0,0.7-0.1,1.3-0.3,1.8c-0.2,0.5-0.5,1-0.8,1.4c-0.4,0.4-0.8,0.7-1.3,0.9s-1.1,0.3-1.7,0.3c-0.6,0-1.2-0.1-1.7-0.3
		s-0.9-0.5-1.3-0.9c-0.4-0.4-0.6-0.8-0.8-1.4c-0.2-0.5-0.3-1.1-0.3-1.8c0-0.7,0.1-1.3,0.3-1.8s0.5-1,0.8-1.4
		c0.4-0.4,0.8-0.7,1.3-0.9S302.6,55.4,303.3,55.4z M303.3,63.1c0.8,0,1.5-0.3,1.9-0.8s0.6-1.4,0.6-2.4c0-1-0.2-1.8-0.6-2.4
		s-1-0.9-1.9-0.9c-0.4,0-0.8,0.1-1.1,0.2c-0.3,0.1-0.6,0.4-0.8,0.6s-0.4,0.6-0.5,1c-0.1,0.4-0.2,0.9-0.2,1.4c0,1,0.2,1.8,0.6,2.4
		S302.4,63.1,303.3,63.1z"/>
	<path class="fill-blue" d="M310.6,56.8c0.2-0.2,0.4-0.4,0.6-0.6c0.2-0.2,0.4-0.3,0.7-0.4s0.5-0.2,0.7-0.3c0.3-0.1,0.5-0.1,0.8-0.1
		c0.5,0,0.9,0.1,1.2,0.2c0.4,0.2,0.7,0.4,0.9,0.7c0.2,0.3,0.4,0.6,0.5,1c0.1,0.4,0.2,0.8,0.2,1.3v5.4h-1.5v-5.4
		c0-0.6-0.1-1.1-0.4-1.5c-0.3-0.4-0.7-0.5-1.3-0.5c-0.4,0-0.9,0.1-1.2,0.3c-0.4,0.2-0.7,0.5-1.1,0.9v6.3h-1.5v-8.5h0.9
		c0.2,0,0.3,0.1,0.4,0.3L310.6,56.8z"/>
</g>
<g>
	<path class="fill-blue" d="M255.1,128.3v12.1h-1.6v-5.5H247v5.5h-1.6v-12.1h1.6v5.4h6.5v-5.4H255.1z"/>
	<path class="fill-blue" d="M264.5,139.2c-0.2,0.2-0.4,0.4-0.7,0.6c-0.3,0.2-0.5,0.3-0.8,0.4s-0.6,0.2-0.9,0.2c-0.3,0.1-0.6,0.1-0.9,0.1
		c-0.6,0-1.1-0.1-1.6-0.3c-0.5-0.2-0.9-0.5-1.3-0.9s-0.6-0.9-0.8-1.4s-0.3-1.2-0.3-2c0-0.6,0.1-1.2,0.3-1.7c0.2-0.5,0.4-1,0.8-1.3
		c0.3-0.4,0.8-0.7,1.3-0.9c0.5-0.2,1.1-0.3,1.7-0.3c0.5,0,1,0.1,1.4,0.3c0.4,0.2,0.8,0.4,1.1,0.7c0.3,0.3,0.6,0.7,0.7,1.2
		c0.2,0.5,0.3,1,0.3,1.6c0,0.2,0,0.4-0.1,0.5c-0.1,0.1-0.1,0.1-0.3,0.1h-5.7c0,0.5,0.1,1,0.2,1.4c0.1,0.4,0.3,0.7,0.6,1
		s0.5,0.5,0.8,0.6s0.7,0.2,1.1,0.2c0.4,0,0.7,0,1-0.1s0.5-0.2,0.7-0.3c0.2-0.1,0.4-0.2,0.5-0.3s0.2-0.1,0.3-0.1c0.1,0,0.2,0,0.3,0.1
		L264.5,139.2z M263.3,135.2c0-0.3,0-0.7-0.1-1c-0.1-0.3-0.2-0.5-0.4-0.8c-0.2-0.2-0.4-0.4-0.7-0.5c-0.3-0.1-0.6-0.2-0.9-0.2
		c-0.7,0-1.3,0.2-1.7,0.6c-0.4,0.4-0.7,1-0.8,1.7H263.3z M263.6,128.2l-2,2.2c-0.1,0.1-0.2,0.1-0.2,0.2c-0.1,0-0.2,0.1-0.3,0.1h-0.9
		l1.2-2c0.1-0.1,0.2-0.2,0.3-0.3s0.2-0.1,0.4-0.1H263.6z"/>
	<path class="fill-blue" d="M268,133.1c0.4-0.4,0.8-0.7,1.2-1c0.5-0.2,1-0.4,1.6-0.4c0.5,0,1,0.1,1.4,0.3c0.4,0.2,0.7,0.5,1,0.8
		s0.5,0.8,0.6,1.3c0.1,0.5,0.2,1.1,0.2,1.7c0,0.7-0.1,1.3-0.3,1.9c-0.2,0.6-0.4,1.1-0.7,1.5c-0.3,0.4-0.7,0.7-1.2,0.9
		s-1,0.3-1.5,0.3c-0.6,0-1-0.1-1.4-0.3s-0.7-0.5-1-0.9l-0.1,0.8c0,0.2-0.2,0.3-0.4,0.3h-1V128h1.5V133.1z M268,138.3
		c0.3,0.4,0.6,0.6,0.9,0.8c0.3,0.2,0.7,0.2,1.1,0.2c0.8,0,1.4-0.3,1.8-0.9s0.6-1.4,0.6-2.5c0-1-0.2-1.8-0.6-2.3
		c-0.4-0.5-0.9-0.7-1.6-0.7c-0.5,0-0.9,0.1-1.3,0.3c-0.4,0.2-0.7,0.5-1,1V138.3z"/>
	<path class="fill-blue" d="M282.9,139.2c-0.2,0.2-0.4,0.4-0.7,0.6c-0.3,0.2-0.5,0.3-0.8,0.4s-0.6,0.2-0.9,0.2c-0.3,0.1-0.6,0.1-0.9,0.1
		c-0.6,0-1.1-0.1-1.6-0.3c-0.5-0.2-0.9-0.5-1.3-0.9s-0.6-0.9-0.8-1.4s-0.3-1.2-0.3-2c0-0.6,0.1-1.2,0.3-1.7c0.2-0.5,0.4-1,0.8-1.3
		c0.3-0.4,0.8-0.7,1.3-0.9c0.5-0.2,1.1-0.3,1.7-0.3c0.5,0,1,0.1,1.4,0.3c0.4,0.2,0.8,0.4,1.1,0.7c0.3,0.3,0.6,0.7,0.7,1.2
		c0.2,0.5,0.3,1,0.3,1.6c0,0.2,0,0.4-0.1,0.5c-0.1,0.1-0.1,0.1-0.3,0.1h-5.7c0,0.5,0.1,1,0.2,1.4c0.1,0.4,0.3,0.7,0.6,1
		s0.5,0.5,0.8,0.6s0.7,0.2,1.1,0.2c0.4,0,0.7,0,1-0.1s0.5-0.2,0.7-0.3c0.2-0.1,0.4-0.2,0.5-0.3s0.2-0.1,0.3-0.1c0.1,0,0.2,0,0.3,0.1
		L282.9,139.2z M281.7,135.2c0-0.3,0-0.7-0.1-1c-0.1-0.3-0.2-0.5-0.4-0.8c-0.2-0.2-0.4-0.4-0.7-0.5c-0.3-0.1-0.6-0.2-0.9-0.2
		c-0.7,0-1.3,0.2-1.7,0.6c-0.4,0.4-0.7,1-0.8,1.7H281.7z"/>
	<path class="fill-blue" d="M286.3,133.6c0.3-0.6,0.6-1,1-1.4c0.4-0.3,0.9-0.5,1.4-0.5c0.2,0,0.4,0,0.5,0.1s0.3,0.1,0.4,0.2l-0.1,1.1
		c0,0.1-0.1,0.2-0.3,0.2c-0.1,0-0.2,0-0.3,0c-0.2,0-0.3-0.1-0.5-0.1c-0.3,0-0.5,0-0.7,0.1c-0.2,0.1-0.4,0.2-0.6,0.3
		c-0.2,0.2-0.3,0.3-0.4,0.6s-0.3,0.5-0.4,0.8v5.4h-1.5v-8.5h0.9c0.2,0,0.3,0,0.3,0.1s0.1,0.2,0.1,0.3L286.3,133.6z"/>
	<path class="fill-blue" d="M298,132.2v0.6c0,0.2-0.1,0.3-0.4,0.4l-1,0.1c0.2,0.4,0.3,0.8,0.3,1.2c0,0.4-0.1,0.8-0.2,1.1s-0.4,0.6-0.7,0.9
		c-0.3,0.2-0.6,0.4-1,0.6s-0.8,0.2-1.3,0.2c-0.4,0-0.8,0-1.1-0.1c-0.2,0.1-0.3,0.2-0.4,0.4c-0.1,0.1-0.1,0.3-0.1,0.4
		c0,0.2,0.1,0.4,0.2,0.5c0.2,0.1,0.4,0.2,0.7,0.2c0.3,0,0.6,0.1,0.9,0.1c0.3,0,0.7,0,1.1,0.1s0.7,0.1,1.1,0.1
		c0.3,0.1,0.7,0.2,0.9,0.3s0.5,0.3,0.7,0.6c0.2,0.2,0.2,0.6,0.2,1c0,0.4-0.1,0.7-0.3,1.1s-0.4,0.6-0.8,0.9s-0.8,0.5-1.3,0.6
		s-1.1,0.2-1.7,0.2c-0.6,0-1.2-0.1-1.6-0.2c-0.5-0.1-0.9-0.3-1.2-0.5c-0.3-0.2-0.5-0.4-0.7-0.7c-0.2-0.3-0.2-0.6-0.2-0.9
		c0-0.4,0.1-0.8,0.4-1.1c0.3-0.3,0.6-0.5,1.1-0.7c-0.3-0.1-0.5-0.3-0.6-0.5c-0.1-0.2-0.2-0.4-0.2-0.8c0-0.1,0-0.3,0.1-0.4
		c0-0.1,0.1-0.3,0.2-0.4s0.2-0.3,0.3-0.4s0.3-0.2,0.5-0.3c-0.4-0.2-0.8-0.5-1-0.9c-0.2-0.4-0.4-0.8-0.4-1.4c0-0.4,0.1-0.8,0.2-1.1
		s0.4-0.6,0.7-0.9c0.3-0.2,0.6-0.4,1-0.6c0.4-0.1,0.8-0.2,1.3-0.2c0.4,0,0.7,0,1,0.1c0.3,0.1,0.6,0.2,0.9,0.4H298z M296.5,140.8
		c0-0.2-0.1-0.4-0.2-0.5s-0.3-0.2-0.5-0.3c-0.2-0.1-0.4-0.1-0.7-0.2c-0.3,0-0.5-0.1-0.8-0.1s-0.6,0-0.9-0.1c-0.3,0-0.6,0-0.9-0.1
		c-0.3,0.1-0.6,0.3-0.8,0.6c-0.2,0.2-0.3,0.5-0.3,0.8c0,0.2,0,0.4,0.1,0.5c0.1,0.2,0.2,0.3,0.5,0.4c0.2,0.1,0.5,0.2,0.8,0.3
		s0.7,0.1,1.1,0.1c0.4,0,0.8,0,1.1-0.1s0.6-0.2,0.8-0.3c0.2-0.1,0.4-0.3,0.5-0.5C296.4,141.3,296.5,141.1,296.5,140.8z M293.8,136.2
		c0.3,0,0.6,0,0.8-0.1c0.2-0.1,0.4-0.2,0.6-0.4c0.2-0.2,0.3-0.3,0.4-0.5c0.1-0.2,0.1-0.4,0.1-0.7c0-0.5-0.2-0.9-0.5-1.2
		c-0.3-0.3-0.8-0.5-1.4-0.5c-0.6,0-1.1,0.2-1.4,0.5c-0.3,0.3-0.5,0.7-0.5,1.2c0,0.3,0,0.5,0.1,0.7c0.1,0.2,0.2,0.4,0.4,0.5
		c0.2,0.2,0.4,0.3,0.6,0.4C293.2,136.2,293.5,136.2,293.8,136.2z"/>
	<path class="fill-blue" d="M306.3,139.2c-0.2,0.2-0.4,0.4-0.7,0.6c-0.3,0.2-0.5,0.3-0.8,0.4s-0.6,0.2-0.9,0.2c-0.3,0.1-0.6,0.1-0.9,0.1
		c-0.6,0-1.1-0.1-1.6-0.3c-0.5-0.2-0.9-0.5-1.3-0.9s-0.6-0.9-0.8-1.4s-0.3-1.2-0.3-2c0-0.6,0.1-1.2,0.3-1.7c0.2-0.5,0.4-1,0.8-1.3
		c0.3-0.4,0.8-0.7,1.3-0.9c0.5-0.2,1.1-0.3,1.7-0.3c0.5,0,1,0.1,1.4,0.3c0.4,0.2,0.8,0.4,1.1,0.7c0.3,0.3,0.6,0.7,0.7,1.2
		c0.2,0.5,0.3,1,0.3,1.6c0,0.2,0,0.4-0.1,0.5c-0.1,0.1-0.1,0.1-0.3,0.1h-5.7c0,0.5,0.1,1,0.2,1.4c0.1,0.4,0.3,0.7,0.6,1
		s0.5,0.5,0.8,0.6s0.7,0.2,1.1,0.2c0.4,0,0.7,0,1-0.1s0.5-0.2,0.7-0.3c0.2-0.1,0.4-0.2,0.5-0.3s0.2-0.1,0.3-0.1c0.1,0,0.2,0,0.3,0.1
		L306.3,139.2z M305.1,135.2c0-0.3,0-0.7-0.1-1c-0.1-0.3-0.2-0.5-0.4-0.8c-0.2-0.2-0.4-0.4-0.7-0.5c-0.3-0.1-0.6-0.2-0.9-0.2
		c-0.7,0-1.3,0.2-1.7,0.6c-0.4,0.4-0.7,1-0.8,1.7H305.1z"/>
	<path class="fill-blue" d="M308.3,140.4v-8.5h0.9c0.2,0,0.3,0.1,0.4,0.3l0.1,0.9c0.3-0.4,0.7-0.7,1.1-1c0.4-0.2,0.8-0.4,1.4-0.4
		c0.6,0,1,0.2,1.4,0.5c0.4,0.3,0.6,0.8,0.8,1.3c0.1-0.3,0.3-0.6,0.5-0.8c0.2-0.2,0.4-0.4,0.7-0.6c0.2-0.1,0.5-0.3,0.8-0.3
		s0.5-0.1,0.8-0.1c0.5,0,0.8,0.1,1.2,0.2s0.6,0.4,0.9,0.6s0.4,0.6,0.6,1c0.1,0.4,0.2,0.9,0.2,1.4v5.4h-1.5v-5.4
		c0-0.7-0.1-1.2-0.4-1.5s-0.7-0.5-1.3-0.5c-0.2,0-0.5,0-0.7,0.1c-0.2,0.1-0.4,0.2-0.6,0.4c-0.2,0.2-0.3,0.4-0.4,0.6
		c-0.1,0.3-0.1,0.6-0.1,0.9v5.4h-1.5v-5.4c0-0.7-0.1-1.2-0.4-1.5s-0.7-0.5-1.2-0.5c-0.4,0-0.7,0.1-1,0.3c-0.3,0.2-0.6,0.5-0.9,0.8
		v6.4H308.3z"/>
	<path class="fill-blue" d="M329.1,139.2c-0.2,0.2-0.4,0.4-0.7,0.6c-0.3,0.2-0.5,0.3-0.8,0.4s-0.6,0.2-0.9,0.2c-0.3,0.1-0.6,0.1-0.9,0.1
		c-0.6,0-1.1-0.1-1.6-0.3c-0.5-0.2-0.9-0.5-1.3-0.9s-0.6-0.9-0.8-1.4s-0.3-1.2-0.3-2c0-0.6,0.1-1.2,0.3-1.7c0.2-0.5,0.4-1,0.8-1.3
		c0.3-0.4,0.8-0.7,1.3-0.9c0.5-0.2,1.1-0.3,1.7-0.3c0.5,0,1,0.1,1.4,0.3c0.4,0.2,0.8,0.4,1.1,0.7c0.3,0.3,0.6,0.7,0.7,1.2
		c0.2,0.5,0.3,1,0.3,1.6c0,0.2,0,0.4-0.1,0.5c-0.1,0.1-0.1,0.1-0.3,0.1h-5.7c0,0.5,0.1,1,0.2,1.4c0.1,0.4,0.3,0.7,0.6,1
		s0.5,0.5,0.8,0.6s0.7,0.2,1.1,0.2c0.4,0,0.7,0,1-0.1s0.5-0.2,0.7-0.3c0.2-0.1,0.4-0.2,0.5-0.3s0.2-0.1,0.3-0.1c0.1,0,0.2,0,0.3,0.1
		L329.1,139.2z M327.9,135.2c0-0.3,0-0.7-0.1-1c-0.1-0.3-0.2-0.5-0.4-0.8c-0.2-0.2-0.4-0.4-0.7-0.5c-0.3-0.1-0.6-0.2-0.9-0.2
		c-0.7,0-1.3,0.2-1.7,0.6c-0.4,0.4-0.7,1-0.8,1.7H327.9z"/>
	<path class="fill-blue" d="M332.5,133.1c0.2-0.2,0.4-0.4,0.6-0.6c0.2-0.2,0.4-0.3,0.7-0.4s0.5-0.2,0.7-0.3c0.3-0.1,0.5-0.1,0.8-0.1
		c0.5,0,0.9,0.1,1.2,0.2c0.4,0.2,0.7,0.4,0.9,0.7c0.2,0.3,0.4,0.6,0.5,1c0.1,0.4,0.2,0.8,0.2,1.3v5.4h-1.5v-5.4
		c0-0.6-0.1-1.1-0.4-1.5c-0.3-0.4-0.7-0.5-1.3-0.5c-0.4,0-0.9,0.1-1.2,0.3c-0.4,0.2-0.7,0.5-1.1,0.9v6.3h-1.5v-8.5h0.9
		c0.2,0,0.3,0.1,0.4,0.3L332.5,133.1z"/>
	<path class="fill-blue" d="M343,140.5c-0.7,0-1.2-0.2-1.6-0.6c-0.4-0.4-0.5-0.9-0.5-1.6v-5.2h-1c-0.1,0-0.2,0-0.2-0.1s-0.1-0.1-0.1-0.2
		v-0.6l1.4-0.2l0.3-2.6c0-0.1,0.1-0.2,0.1-0.2c0.1-0.1,0.1-0.1,0.2-0.1h0.8v2.9h2.5v1.1h-2.5v5.1c0,0.4,0.1,0.6,0.3,0.8
		c0.2,0.2,0.4,0.3,0.7,0.3c0.2,0,0.3,0,0.4-0.1c0.1,0,0.2-0.1,0.3-0.1c0.1-0.1,0.2-0.1,0.2-0.1c0.1,0,0.1-0.1,0.2-0.1
		c0.1,0,0.1,0,0.2,0.1l0.4,0.7c-0.3,0.2-0.6,0.4-0.9,0.6S343.4,140.5,343,140.5z"/>
</g>
<g>
	<defs>
		<path id="SVGID_10_DEPLOY" d="M151.9,4H93.6h-10H35.3C17.8,4,3.6,18.1,3.6,35.7v116.6c0,17.5,14.2,31.7,31.7,31.7h48.3h10h58.3
			c17.5,0,31.7-14.2,31.7-31.7V35.7C183.6,18.1,169.4,4,151.9,4z"/>
	</defs>
	<clipPath id="SVGID_15_DEPLOY">
		<use xlink:href="#SVGID_10_DEPLOY"  style="overflow:visible;"/>
	</clipPath>
	<g id="zHGm4z_11_" style="opacity:0.8;clip-path:url(#SVGID_15_DEPLOY);">
		
			<image style="overflow:visible;" width="364" height="729" id="zHGm4z_12_" xlink:href="performance_scheme_bg.png"  transform="matrix(0.9877 0 0 0.9877 3.5523 -536.0567)">
		</image>
	</g>
</g>
<g>
	<path class="fill-white" d="M54,101.1V81.7h8.3c1.4,0,2.6,0.3,3.6,0.8c1,0.5,1.7,1.2,2.3,2.1c0.6,0.9,1,1.9,1.2,3c0.2,1.1,0.4,2.3,0.4,3.5
		c0,1.2-0.1,2.4-0.4,3.6c-0.2,1.2-0.7,2.2-1.2,3.2c-0.6,0.9-1.4,1.7-2.3,2.3c-1,0.6-2.2,0.9-3.6,0.9L54,101.1z M62.3,99.7
		c1.1,0,1.9-0.3,2.6-0.8s1.3-1.2,1.7-2s0.7-1.7,0.9-2.8c0.2-1,0.3-2,0.3-3s-0.1-2-0.3-2.9c-0.2-1-0.5-1.8-0.9-2.6
		c-0.4-0.8-1-1.4-1.7-1.8c-0.7-0.5-1.6-0.7-2.7-0.7h-6.4v16.6L62.3,99.7z"/>
	<path class="fill-white" d="M84.2,100.5c-0.3,0.1-0.7,0.2-1.1,0.2s-0.9,0.2-1.4,0.2s-1,0.2-1.5,0.2c-0.5,0.1-1,0.1-1.4,0.1
		c-1.2,0-2.2-0.2-3-0.5c-0.8-0.3-1.4-0.8-1.9-1.4c-0.5-0.6-0.8-1.4-1-2.3c-0.2-0.9-0.3-1.9-0.3-3c0-1.3,0.1-2.5,0.4-3.4
		c0.3-0.9,0.7-1.7,1.2-2.2s1.1-1,1.9-1.2c0.7-0.2,1.6-0.4,2.5-0.4c2,0,3.5,0.5,4.5,1.6c1,1,1.5,2.7,1.5,5.1v1.1H74.6
		c0,0.9,0.1,1.7,0.2,2.3c0.1,0.7,0.4,1.2,0.7,1.7c0.3,0.5,0.8,0.8,1.3,1c0.5,0.2,1.2,0.3,2,0.3c0.4,0,0.8,0,1.3-0.1s0.9-0.1,1.4-0.2
		s0.9-0.2,1.4-0.3s0.8-0.2,1.1-0.2L84.2,100.5z M82.8,93.5c0-1.9-0.4-3.3-1-4.1c-0.7-0.8-1.7-1.2-3.1-1.2c-1.4,0-2.4,0.4-3,1.2
		c-0.7,0.8-1,2.2-1,4.1H82.8z"/>
	<path class="fill-white" d="M88.9,106.4h-1.9V87.1c0.6,0,1.3-0.1,2-0.1s1.4-0.1,2.1-0.1c1.5,0,2.7,0.2,3.7,0.5s1.7,0.8,2.2,1.4
		c0.5,0.6,0.9,1.4,1.1,2.3c0.2,0.9,0.3,2,0.3,3.3c0,1.2-0.1,2.2-0.2,3c-0.2,0.9-0.5,1.6-0.9,2.1c-0.4,0.6-1,1-1.7,1.3
		c-0.7,0.3-1.6,0.4-2.7,0.4c-0.8,0-1.5-0.1-2.2-0.2c-0.7-0.1-1.3-0.3-1.7-0.4V106.4z M88.9,99.4c0.5,0.1,1,0.3,1.8,0.5
		c0.7,0.2,1.4,0.2,2.2,0.2c0.8,0,1.4-0.1,1.9-0.3c0.5-0.2,0.9-0.6,1.1-1c0.3-0.5,0.5-1,0.6-1.8c0.1-0.7,0.2-1.6,0.2-2.6
		c0-1-0.1-1.9-0.2-2.7c-0.1-0.8-0.4-1.4-0.7-1.9c-0.4-0.5-0.9-0.9-1.6-1.1c-0.7-0.3-1.6-0.4-2.8-0.4c-0.3,0-0.7,0-1.2,0
		c-0.5,0-0.9,0-1.2,0.1V99.4z"/>
	<path class="fill-white" d="M101.1,81.7h1.9V101h-1.9V81.7z"/>
	<path class="fill-white" d="M111.6,87c1,0,1.9,0.1,2.6,0.4c0.8,0.3,1.4,0.7,1.9,1.2c0.5,0.6,0.9,1.3,1.2,2.1c0.3,0.9,0.4,1.9,0.4,3.2
		c0,1.3-0.1,2.4-0.3,3.3c-0.2,0.9-0.5,1.7-1,2.3s-1.1,1.1-1.9,1.4c-0.8,0.3-1.8,0.4-3,0.4s-2.3-0.1-3.1-0.4s-1.5-0.7-1.9-1.3
		s-0.8-1.4-1-2.3c-0.2-1-0.3-2.1-0.3-3.5c0-1.3,0.1-2.3,0.4-3.2c0.2-0.9,0.6-1.6,1.1-2.1c0.5-0.5,1.2-0.9,2-1.2
		C109.5,87.1,110.4,87,111.6,87L111.6,87z M111.6,100.1c0.9,0,1.7-0.1,2.3-0.4c0.6-0.2,1-0.6,1.3-1.1s0.5-1.1,0.6-1.9
		s0.2-1.7,0.2-2.7c0-1.1-0.1-1.9-0.3-2.7c-0.2-0.7-0.5-1.3-0.9-1.8c-0.4-0.5-0.8-0.8-1.4-1c-0.5-0.2-1.1-0.3-1.8-0.3
		c-0.8,0-1.5,0.1-2.1,0.2c-0.6,0.2-1,0.5-1.4,0.9c-0.4,0.4-0.6,1-0.8,1.7c-0.2,0.7-0.2,1.6-0.2,2.7c0,1.1,0.1,2.1,0.2,2.9
		c0.1,0.8,0.3,1.4,0.7,1.9s0.8,0.8,1.4,1.1C109.8,100,110.6,100.1,111.6,100.1z"/>
	<path class="fill-white" d="M131.2,87.2l-6.6,18.4h-1.9l1.6-4.5h-0.9l-4.9-13.8h1.9l4.2,12.1h0.4l4.2-12.1H131.2z"/>
</g>
<g>
	<path class="fill-white" d="M227.7,55.4L227.7,55.4c-0.3-0.3-0.8-0.3-1.1,0l-4.9,3.5c-0.4,0.3-0.9,0.3-1.2-0.1l-1-1.1
		c-0.3-0.4-0.9-0.4-1.2,0l-1.1,1.1c-0.3,0.3-0.3,0.9,0,1.2l3.3,3.3c0.3,0.3,0.9,0.3,1.2,0l6.1-6.7C228,56.2,228,55.7,227.7,55.4z"/>
	<path class="fill-white" d="M221.1,64.6h-6.6c-0.6,0-1.1-0.5-1.1-1.1v-6.7c0-0.6,0.5-1.1,1.1-1.1h6.6c0.6,0,1.1,0.5,1.1,1.1v0.1l1-0.7
		v-0.4c0-0.6-0.5-1.1-1.1-1.1h-8.7c-0.6,0-1.1,0.5-1.1,1.1v8.8c0,0.6,0.5,1.1,1.1,1.1h8.7c0.6,0,1.1-0.5,1.1-1.1V63l-1.1,0.8
		C222,64.2,221.6,64.6,221.1,64.6z"/>
</g>
</svg>
