<?xml version="1.0" encoding="utf-8"?>
<!-- Generator: Adobe Illustrator 21.0.0, SVG Export Plug-In . SVG Version: 6.00 Build 0)  -->
<svg version="1.1" id="Calque_1" xmlns="http://www.w3.org/2000/svg" xmlns:xlink="http://www.w3.org/1999/xlink" x="0px" y="0px"
	 viewBox="0 0 186 186" style="enable-background:new 0 0 186 186;" xml:space="preserve">
<style type="text/css">
	.st0{fill:#10AAC7;}
	.st1{fill:#FFFFFF;}
	.st2{fill:#EA2631;}
	.st3{fill:#F1C433;}
	.st4{fill:#3E9D4B;}
</style>
<g>
	<path id="SVGID_2_" class="st2" d="M149.6,5.6H93h-9.7H36.4c-17,0-30.8,13.8-30.8,30.8v113.2c0,17,13.8,30.8,30.8,30.8h46.9H93
		h56.6c17,0,30.8-13.8,30.8-30.8V36.4C180.4,19.4,166.6,5.6,149.6,5.6z"/>
	<g id="HMNFP7_1_">
		<g>
			<path class="st1" d="M80.8,65.4c-0.3,0.2-0.5,0.4-0.8,0.6c-2.9,2.1-5.8,4.3-8.7,6.3c-3.5,2.5-6.8,5.8-4.3,10.9
				c1.6,3.4,5.4,5.7,9.2,5.7c1.1,0,2.2-0.2,3.3-0.6c5.5-2,11.3-4.4,17.8-7.3c1-0.4,1.8-0.7,2.5-0.7c1,0,2,0.4,3.2,1.4
				c7.1,5.8,14.4,11.5,21.5,17.1c4,3.2,8,6.3,12,9.5c1.3,1.1,2,2.5,1.8,3.8c-0.2,0.8-0.8,1.4-1.7,1.7c-0.2,0-0.4,0.1-0.6,0.1
				c-1.1,0-2.7-0.5-3.6-1.2c-6.3-4.8-12.7-9.8-18.9-14.7c-3-2.3-5.9-4.7-8.9-7c-0.8-0.6-1.6-1.1-2.4-1.5c-0.2-0.1-0.4-0.2-0.7-0.4
				c-0.3-0.2-0.7-0.3-1-0.3c-0.7,0-1.3,0.3-1.7,0.9l-0.4,0.5c-0.6,0.8-0.5,2,0.2,2.7c0.2,0.2,0.4,0.4,0.7,0.6
				c0.7,0.7,1.4,1.4,2.3,2.1c3.4,2.7,6.7,5.3,10.1,7.9c4.3,3.4,8.6,6.8,12.9,10.2c1.3,1,2,2.2,1.9,3.2c0,1.1-0.8,1.8-1.5,2.2
				c-0.5,0.4-1,0.5-1.5,0.5c-0.9,0-1.9-0.6-3.1-1.6c-7.3-5.8-15.1-11.9-23-18.1c-0.8-0.7-1.8-1.1-2.6-1.5l-0.5-0.3
				c-0.3-0.2-0.7-0.3-1.1-0.3c-0.7,0-1.4,0.3-1.9,0.9l-0.5,0.6c-0.5,0.6-0.7,1.4-0.5,2.2c0.2,0.8,0.8,1.4,1.5,1.7h0.1
				c0.8,0.3,1.5,0.6,2,1c6,4.6,12,9.4,17.8,14.1l0.4,0.3c3.2,2.5,2.6,3.8,1.7,5c-0.8,1.1-1.5,1.2-2,1.2c-0.9,0-2.2-0.6-3.5-1.6
				c-0.6-0.5-1.2-0.9-1.8-1.4c-1.6-1.2-3-2.3-4.4-3.6c-1.3-1.2-2.3-2.7-3-4.2c-1.3-3.1-3.6-4.8-7.2-5.5c-1.6-0.3-2.9-0.8-3.5-1.5
				c-2.2-2.5-4.2-4.1-6.8-4.1c-1.4,0-2.8,0.4-4.7,1.4c-2.3-2.4-4.3-3.7-6.6-3.7c-1.7,0-3.3,0.7-4.9,1.6c-2.6-2.5-4.6-3.6-6.8-3.6
				s-4.3,1.2-6.9,3.9l-5.1-2.9l-8.3-4.8c0.2-0.5,0.4-1,0.6-1.4c1.5-2.8,3.1-5.5,4.6-8.3c2.9-5.1,5.8-10.5,8.7-15.7
				c0.9-1.7,1.4-1.7,1.5-1.7c0.2,0,0.6,0.1,1.2,0.4c2.3,1.3,4.8,2,7.3,2c2.3,0,4.7-0.5,7.4-1.7c3.2-1.3,6.6-2.3,9.9-3.2l0.2-0.1
				C80.3,65.5,80.6,65.5,80.8,65.4 M84.7,63.5c-0.1,0-0.1,0-0.2,0c-1.6,0.2-3.3,0.1-4.9,0.6c-3.5,1-7,1.9-10.3,3.3
				c-2.3,1-4.5,1.5-6.7,1.5c-2.2,0-4.3-0.5-6.5-1.8c-0.8-0.4-1.4-0.7-2-0.7c-1.3,0-2.1,1-3,2.6c-4.3,8-8.8,16-13.2,24
				c-0.5,0.8-0.7,1.8-1.2,2.9c5.4,3.1,10.6,6.1,15.7,9c2.5-2.9,4.6-4.3,6.6-4.3s4,1.4,6.5,4.1c2.1-1.4,3.7-2.1,5.1-2.1
				c1.9,0,3.7,1.3,6.3,4.1c2.1-1.2,3.6-1.8,5-1.8c1.9,0,3.5,1.2,5.6,3.6c1,1.1,2.8,1.7,4.4,2c2.8,0.5,4.8,1.8,6,4.5
				c0.8,1.8,1.9,3.4,3.3,4.7c1.9,1.9,4.2,3.4,6.3,5.1c1.7,1.3,3.2,1.9,4.5,1.9s2.4-0.6,3.3-1.8c1.8-2.5,1.3-4.7-2-7.3
				c-6.1-4.8-12.1-9.7-18.3-14.4c-0.7-0.6-1.6-0.9-2.5-1.2c-0.6-0.2-0.7-0.9-0.3-1.4l0.5-0.6c0.2-0.2,0.4-0.3,0.7-0.3
				c0.1,0,0.3,0,0.4,0.1c1,0.5,2,1,2.9,1.6c7.7,6,15.4,12,23,18.1c1.3,1,2.6,1.9,4.1,1.9c0.7,0,1.5-0.2,2.4-0.8c3.1-2,3-5.4-0.3-8.1
				c-7.6-6.1-15.3-12.1-23-18.1c-1-0.8-1.9-1.7-2.8-2.6c-0.2-0.2-0.2-0.4-0.1-0.6l0.4-0.5c0.1-0.1,0.2-0.2,0.4-0.2
				c0.1,0,0.2,0,0.2,0.1c1,0.5,2,1,2.8,1.7c9.3,7.3,18.4,14.6,27.8,21.7c1.2,0.9,3,1.6,4.6,1.6c0.4,0,0.8,0,1.1-0.1
				c3.7-1.1,3.9-5.6,0.5-8.3c-11.2-8.9-22.5-17.6-33.6-26.6c-1.5-1.2-2.8-1.8-4.2-1.8c-1,0-2,0.3-3.2,0.8
				c-5.8,2.6-11.7,5.1-17.7,7.3c-0.9,0.3-1.8,0.5-2.7,0.5c-3.3,0-6.4-2-7.8-4.8c-1.6-3.4-0.5-5.8,3.8-8.9c4.2-3,8.4-6.1,12.6-9.2
				C85.5,64,85.7,63.5,84.7,63.5L84.7,63.5z"/>
			<path class="st1" d="M106.2,58.5c1.1-0.2,2.3-0.1,3.4,0.3c0.4,0.2,0.8,0.3,1.2,0.5c5.3,2.6,10.7,4.9,15.8,7.8
				c3.5,1.9,6.7,2.5,10.2,0.4c3.7-2.2,4.7-0.3,7.7,4.6c5.3,8.8,5.3,9.1,10,18.1c2.6,4.9,3.3,6-0.5,8.2c-3,1.7-5.9,3.7-8.4,6.1
				c-2.7,2.5-4.3,2.8-6.9,0.7c-11.5-9.3-23.1-18.4-34.6-27.7c-2-1.6-3.7-1.9-6.1-0.8c-6,2.8-12.2,5.2-18.3,7.8
				c-2.9,1.2-6.3,0.6-8.5-1.6c-1.9-2-2-4.2,0.2-6C81.8,68.6,92.8,61.3,106.2,58.5L106.2,58.5z"/>
			<path class="st1" d="M85.7,129.7c-1.6-1.5-2.1-3.8-1.4-5.9c1.2-3.5,2.2-6.6,3.8-9.5c0.7-1.2,3.8-2,5.4-1.5
				c1.3,0.4,2.9,3.2,2.6,4.6c-0.7,3.9-2.1,7.7-3.8,11.2c-0.6,1.3-3.4,2.4-4.9,2.1C86.7,130.6,86.2,130.2,85.7,129.7z"/>
			<path class="st1" d="M85.6,109.2c0.8,0.9,1,2.2,0.6,3.4c-1.5,4-2.6,7.6-4.4,10.9c-0.6,1.1-3.7,1.9-5.1,1.3
				c-1.4-0.6-3-3.2-2.8-4.5c0.8-4,2.2-8,4-11.6c0.6-1.2,3.5-2.1,5-1.7C83.9,107.3,84.8,108.2,85.6,109.2z"/>
			<path class="st1" d="M70.6,118.4c-0.9,0.7-2,0.9-3.1,0.7c-2.8-0.6-4.2-2.6-3.7-5.2c0.5-2.4,1.3-4.8,2.4-7
				c1.1-2.2,3.1-3.3,5.6-2.3s3.7,2.9,2.9,5.7c-0.6,2-1,4.2-2.1,6C72.2,117.1,71.3,117.8,70.6,118.4z"/>
			<path class="st1" d="M53.5,109.1c-0.1-3.3,2.4-6.6,5.2-6.8c2.6-0.1,4.9,1.9,4.9,4.5c0.1,3.3-2.5,6.7-5.2,6.9
				C56,113.9,53.6,111.6,53.5,109.1z"/>
			<path class="st1" d="M97,121.1c0.2-0.6,1-0.8,1.5-0.4c1.5,1.2,2.8,2.2,3.9,3.3c1.9,2.1,1.7,4.9-0.6,6.1c-1.7,0.9-4.7,1.5-6.4-0.3
				c-0.6-0.6-0.7-2-0.4-2.9C95.5,125.1,96.2,123.3,97,121.1z"/>
		</g>
	</g>
</g>
</svg>
