<?xml version="1.0" encoding="utf-8"?>
<!-- Generator: Adobe Illustrator 21.0.0, SVG Export Plug-In . SVG Version: 6.00 Build 0)  -->
<svg version="1.1" id="Calque_1" xmlns="http://www.w3.org/2000/svg" xmlns:xlink="http://www.w3.org/1999/xlink" x="0px" y="0px"
	 viewBox="0 0 186 186" style="enable-background:new 0 0 186 186;" xml:space="preserve">
<style type="text/css">
	.st0{fill:#10AAC7;}
	.st1{fill:#FFFFFF;}
	.st2{fill:#EA2631;}
	.st3{fill:#F1C433;}
	.st4{fill:#3E9D4B;}
</style>
<g>
	<path id="SVGID_1_" class="st3" d="M149.6,4.2H93h-9.7H36.4C19.4,4.2,5.6,18,5.6,35v113.2c0,17,13.8,30.8,30.8,30.8h46.9H93h56.6
		c17,0,30.8-13.8,30.8-30.8V35C180.4,18,166.6,4.2,149.6,4.2z"/>
	<g>
		<path class="st1" d="M74.2,113.9c6.3,15.8,11.9,30.6,3.6,38.8l5,5c10.1-10.1,6.2-25.1,0.4-40.3c-2.5-1-5.1-2-7.6-3
			C75.2,114.3,74.7,114.1,74.2,113.9z"/>
		<g>
			<path class="st1" d="M159.2,71.4c-8.3,8.3-23,2.7-38.8-3.6c-0.5-0.2-0.9-0.4-1.4-0.6c-2.5-1-5.1-2-7.6-3c-7.9-3-15.8-5.5-23-5.8
				c-0.6-0.9-1.3-1.7-2-2.5c-6.6-6.6-17.3-6.6-24,0c-6.6,6.6-6.6,17.3,0,24c0.8,0.8,1.6,1.4,2.5,2c0.3,7.1,2.8,15,5.8,23
				c2.5,1,5.1,2,7.6,3c0.5,0.2,0.9,0.4,1.4,0.6c-3.4-8.5-6.5-16.7-7.5-23.7c3.9,0.5,8-0.4,11.4-2.6l10.2,10.2l5-5L88.6,77.2
				c2.2-3.4,3.1-7.5,2.6-11.4c7,0.9,15.2,4.1,23.7,7.5c0.5,0.2,0.9,0.4,1.4,0.6c2.5,1,5,2,7.6,3c15.2,5.8,30.2,9.8,40.3-0.4
				L159.2,71.4z M82.4,76c-4.4,4.4-11.6,4.4-16,0s-4.4-11.6,0-16s11.6-4.4,16,0C86.8,64.4,86.8,71.5,82.4,76z"/>
			<path class="st1" d="M68.5,62.1c-3.2,3.2-3.2,8.5,0,11.7s8.5,3.2,11.7,0s3.2-8.5,0-11.7C77,58.9,71.8,58.9,68.5,62.1z M79.6,65.6
				L74,71.2c-0.1,0.1-0.3,0.2-0.4,0.2l0,0c-0.2,0-0.3-0.1-0.4-0.2l-3.8-3.8c-0.1-0.1-0.2-0.3-0.2-0.4c0-0.2,0.1-0.3,0.2-0.4l1.2-1.2
				c0.2-0.2,0.6-0.2,0.9,0l2.2,2.2l4-4c0.2-0.2,0.6-0.2,0.9,0l1.2,1.2C79.8,65,79.8,65.4,79.6,65.6z"/>
		</g>
		<g>
			<path class="st1" d="M111.8,26.5l2.5,2.5c-7.6,9.5-1.5,24.7,5,40.8c4.1,10.2,8.3,20.8,8.7,29.9v0.9l0.7,0.5
				c0.8,0.6,1.5,1.1,2.1,1.7c2.9,2.9,4.4,6.7,4.4,10.7s-1.6,7.9-4.4,10.7c-2.9,2.9-6.7,4.4-10.7,4.4c-4.1,0-7.9-1.6-10.7-4.4
				c-0.6-0.6-1.2-1.3-1.7-2.1l-0.5-0.7h-0.9c-9.1-0.4-19.7-4.6-29.9-8.7c-10.9-4.4-21.2-8.5-29.7-8.5c-4.5,0-8.2,1.1-11.1,3.5
				l-2.5-2.5c3.6-3,8-4.5,13.5-4.5c9.4,0,20.5,4.4,31.2,8.7c8.7,3.5,17.7,7.1,25.4,8.1l2.3,0.3l-0.3-2.3c-0.5-3.6,0.3-7.3,2.3-10.4
				l0.8-1.2l-1-1L96.5,92.1l2.5-2.5l10.8,10.8l1,1l1.2-0.8c2.4-1.6,5.3-2.4,8.3-2.4c0.7,0,1.4,0,2.1,0.1l2.3,0.3l-0.3-2.3
				c-1-7.7-4.6-16.7-8.1-25.4C109.4,54.7,102.5,37.6,111.8,26.5 M111.7,24c-11.8,11.8-4.5,30.1,2.6,47.9c3.6,8.9,7,17.6,8,25
				c-0.8-0.1-1.6-0.2-2.4-0.2c-3.2,0-6.4,0.9-9.2,2.7l-12-12l-5,5l12,12c-2.3,3.5-3.1,7.6-2.6,11.6c-7.4-1-16.1-4.5-25-8
				c-10.9-4.4-22.1-8.8-31.8-8.8c-6,0-11.5,1.7-16,6.2l5,5c3-3,6.8-4.2,11.2-4.2c8.2,0,18.4,4.1,29,8.3c10.4,4.2,21.1,8.4,30.5,8.8
				c0.6,0.8,1.2,1.6,1.9,2.3c3.3,3.3,7.6,5,12,5c4.3,0,8.7-1.7,12-5c6.6-6.6,6.6-17.3,0-24c-0.7-0.7-1.5-1.3-2.3-1.9
				c-0.4-9.4-4.6-20.1-8.8-30.5c-6.5-16.3-12.7-31.7-4.2-40.2L111.7,24L111.7,24z"/>
			<g>
				<path class="st1" d="M115.4,105.4l1.2,1.2c1-0.6,1.9-1.1,2.9-1.4s2-0.4,2.9-0.4s1.8,0.2,2.7,0.6c0.9,0.4,1.6,0.9,2.3,1.6
					c0.9,0.9,1.6,2,1.9,3s0.4,2.1,0.2,3.2h-2.2c-0.2,0-0.3,0-0.5,0s-0.3-0.1-0.5-0.3c-0.2-0.2-0.2-0.3-0.3-0.6c0-0.2,0-0.5,0-0.7
					c0-0.3-0.1-0.6-0.2-0.9s-0.4-0.7-0.8-1.1c-0.6-0.6-1.4-0.9-2.3-0.9s-1.9,0.3-2.9,1l4.6,4.6l-0.9,0.9c-0.1,0.1-0.2,0.2-0.3,0.2
					c-0.1,0-0.3,0.1-0.4,0.1s-0.3,0-0.4-0.1s-0.3-0.2-0.4-0.3l-4-4c-0.1,0.1-0.2,0.2-0.3,0.3c-0.1,0.1-0.2,0.2-0.3,0.3l-0.4,0.4
					l3.9,3.9l-0.9,0.9c-0.1,0.1-0.2,0.2-0.3,0.2c-0.1,0-0.3,0.1-0.4,0.1s-0.3,0-0.4-0.1s-0.3-0.2-0.4-0.3l-2.9-2.9
					c-0.8,1.1-1.2,2.2-1.2,3.1s0.3,1.7,0.9,2.3c0.3,0.3,0.5,0.5,0.8,0.6s0.5,0.2,0.7,0.3c0.2,0.1,0.4,0.1,0.6,0.1s0.4,0,0.5,0
					c0.2,0,0.3,0,0.5,0s0.3,0.1,0.4,0.2s0.2,0.2,0.2,0.3c0,0.1,0.1,0.2,0.1,0.4l0.1,2.6c-1.2,0.3-2.4,0.3-3.5-0.1s-2.2-1-3.1-2
					c-0.8-0.8-1.4-1.6-1.7-2.5c-0.4-0.9-0.5-1.8-0.5-2.8c0-0.9,0.2-1.9,0.6-2.9s0.9-1.9,1.6-2.9l-1.1-1.1l1.7-1.7l1,1l0.4-0.4
					c0.1-0.1,0.2-0.2,0.3-0.3c0.1-0.1,0.2-0.2,0.3-0.3l-1-1L115.4,105.4z"/>
			</g>
		</g>
	</g>
</g>
</svg>
