<?xml version="1.0" encoding="utf-8"?>
<!-- Generator: Adobe Illustrator 21.0.0, SVG Export Plug-In . SVG Version: 6.00 Build 0)  -->
<svg version="1.1" id="Calque_1" xmlns="http://www.w3.org/2000/svg" xmlns:xlink="http://www.w3.org/1999/xlink" x="0px" y="0px"
     viewBox="0 0 41.2 720" style="enable-background:new 0 0 41.2 720;" xml:space="preserve">
<style type="text/css">
	.fill-white{fill:#FFFFFF;}
	.pilotContainer{clip-path:url(#pilotContainerPath);}
	.fill-purple{fill:#7E66AA;}
	.opacity30{opacity:0.3;}
</style>
<path class="fill-purple" d="M0.8,19.9v680.1c0,11,8.9,19.9,19.9,19.9h0.6c11,0,19.9-8.9,19.9-19.9V19.9C41.2,8.9,32.3,0,21.3,0h-0.6
    C9.7,0,0.8,8.9,0.8,19.9z"/>
<g class="fill-white1">
    <defs>
        <path id="pilotBlocPath" class="fill-white1" d="M0.8,19.9v680.1c0,11,8.9,19.9,19.9,19.9h0.6c11,0,19.9-8.9,19.9-19.9V19.9
            C41.2,8.9,32.3,0,21.3,0h-0.6C9.7,0,0.8,8.9,0.8,19.9z"/>
    </defs>
    <clipPath id="pilotContainerPath">
        <use xlink:href="#pilotBlocPath"  style="overflow:visible;"/>
    </clipPath>
    <g id="eOlMZ2_1_" class="pilotContainer">

            <image class="opacity30" style="overflow:visible;" width="102" height="729" id="eOlMZ2_3_" xlink:href="performance_scheme_pilot_bg.png"  transform="matrix(1 0 0 1 -9.7561 -5.0869)">
        </image>
    </g>
</g>
<g>
    <path class="fill-white" d="M22.3,380.5h7v1.9H9.9v-8.1c0-2.3,0.5-4,1.5-5.1c1-1.1,2.5-1.6,4.5-1.6c1,0,1.9,0.1,2.7,0.4
        c0.8,0.3,1.5,0.7,2,1.2c0.6,0.5,1,1.2,1.3,2.1c0.3,0.8,0.5,1.9,0.5,3L22.3,380.5z M21,374.3c0-1.7-0.5-2.9-1.4-3.7
        s-2.2-1.1-3.8-1.1c-1.6,0-2.7,0.4-3.5,1.1c-0.7,0.7-1.1,1.9-1.1,3.7v6.3H21V374.3z"/>
    <path class="fill-white" d="M10,364.2v-1.9h1.9v1.9H10z M15.4,364.2v-1.9h13.8v1.9H15.4z"/>
    <path class="fill-white" d="M9.9,359.4v-1.9h19.4v1.9H9.9z"/>
    <path class="fill-white" d="M15.2,349c0-1,0.1-1.9,0.4-2.6c0.3-0.8,0.7-1.4,1.2-1.9s1.3-0.9,2.1-1.2c0.9-0.3,1.9-0.4,3.2-0.4
        c1.3,0,2.4,0.1,3.3,0.3c0.9,0.2,1.7,0.5,2.3,1s1.1,1.1,1.4,1.9c0.3,0.8,0.4,1.8,0.4,3c0,1.2-0.1,2.3-0.4,3.1s-0.7,1.5-1.3,1.9
        s-1.4,0.8-2.3,1c-1,0.2-2.1,0.3-3.5,0.3c-1.3,0-2.3-0.1-3.2-0.4s-1.6-0.6-2.1-1.1c-0.5-0.5-0.9-1.2-1.2-2
        C15.3,351.1,15.2,350.1,15.2,349L15.2,349z M28.3,349c0-0.9-0.1-1.7-0.4-2.3c-0.2-0.6-0.6-1-1.1-1.3c-0.5-0.3-1.1-0.5-1.9-0.6
        c-0.8-0.1-1.7-0.2-2.7-0.2c-1.1,0-1.9,0.1-2.7,0.3c-0.7,0.2-1.3,0.5-1.8,0.9s-0.8,0.8-1,1.4c-0.2,0.5-0.3,1.1-0.3,1.8
        c0,0.8,0.1,1.5,0.2,2.1c0.2,0.6,0.5,1,0.9,1.4c0.4,0.4,1,0.6,1.7,0.8c0.7,0.2,1.6,0.2,2.7,0.2c1.1,0,2.1-0.1,2.9-0.2
        c0.8-0.1,1.4-0.3,1.9-0.7s0.8-0.8,1.1-1.4S28.3,349.9,28.3,349z"/>
    <path class="fill-white" d="M11.9,337.5h3.6v-3.2h1.2v3.2h8.2c0.7,0,1.2,0,1.7-0.1s0.8-0.1,1-0.2c0.2-0.1,0.4-0.2,0.5-0.4
        c0.1-0.2,0.2-0.4,0.2-0.7V336c0-0.2,0-0.4-0.1-0.7c0-0.3-0.1-0.6-0.2-0.9l1.3,0.2c0.1,0.4,0.2,0.8,0.2,1.1c0,0.3,0,0.5,0,0.7
        c0,0.6-0.1,1.2-0.2,1.6s-0.4,0.7-0.8,0.9c-0.4,0.2-0.8,0.4-1.4,0.4c-0.6,0.1-1.3,0.1-2.2,0.1h-8.2v2.9h-1.2v-2.9h-3.6V337.5z"/>
</g>
</svg>