<?xml version="1.0" encoding="utf-8"?>
<!-- Generator: Adobe Illustrator 21.0.0, SVG Export Plug-In . SVG Version: 6.00 Build 0)  -->
<svg version="1.1" id="Calque_1" xmlns="http://www.w3.org/2000/svg" xmlns:xlink="http://www.w3.org/1999/xlink" x="0px" y="0px"
	 viewBox="0 0 350 700" style="enable-background:new 0 0 350 700;" xml:space="preserve">
<style type="text/css">
	.st0{clip-path:url(#SVGID_1_);}
	.st1{fill:#10AAC7;}
	.st2{fill:#EA2631;}
	.st3{fill:#3E9D4B;}
	.st4{fill:#F1C433;}
	.st5{fill:#FFFFFF;}
	.st6{fill:url(#SVGID_2_);}
	.st7{fill:url(#SVGID_3_);}
	.st8{fill:url(#SVGID_4_);}
</style>
<g>
	<defs>
		<path id="SVGID_6_" d="M350,494.2V380.8c0-17-13.8-30.8-30.8-30.8H205.8c-17,0-30.8-13.8-30.8-30.8v0V205.8
			c0-17,13.8-30.8,30.8-30.8h113.4c17,0,30.8-13.8,30.8-30.8V30.8c0-17-13.8-30.8-30.8-30.8H205.8c-17,0-30.8,13.8-30.8,30.8v113.4
			c0,17-13.8,30.8-30.8,30.8H30.8C13.8,175,0,188.8,0,205.8v113.4c0,17,13.8,30.8,30.8,30.8h113.4c17,0,30.8,13.8,30.8,30.8v113.4
			c0,17-13.8,30.8-30.8,30.8H30.8C13.8,525,0,538.8,0,555.8v113.4c0,17,13.8,30.8,30.8,30.8h113.4c17,0,30.8-13.8,30.8-30.8V555.8
			c0-17,13.8-30.8,30.8-30.8h113.4C336.2,525,350,511.2,350,494.2L350,494.2z"/>
	</defs>
	<clipPath id="SVGID_1_">
		<use xlink:href="#SVGID_6_"  style="overflow:visible;"/>
	</clipPath>
	<g class="st0">
		<path class="st1" d="M155.1,525H19.9C8.9,525,0,533.9,0,544.9v135.1c0,11,8.9,19.9,19.9,19.9h135.1c11,0,19.9-8.9,19.9-19.9V544.9
			C175,533.9,166.1,525,155.1,525z"/>
		<path class="st2" d="M330.1,350H194.9c-11,0-19.9,8.9-19.9,19.9v135.1c0,11,8.9,19.9,19.9,19.9h135.1c11,0,19.9-8.9,19.9-19.9
			V369.9C350,358.9,341.1,350,330.1,350z"/>
		<path class="st3" d="M330.1,0H194.9c-11,0-19.9,8.9-19.9,19.9v135.1c0,11,8.9,19.9,19.9,19.9h135.1c11,0,19.9-8.9,19.9-19.9V19.9
			C350,8.9,341.1,0,330.1,0z"/>
		<path class="st4" d="M155.1,175H19.9C8.9,175,0,183.9,0,194.9v135.1c0,11,8.9,19.9,19.9,19.9h135.1c11,0,19.9-8.9,19.9-19.9V194.9
			C175,183.9,166.1,175,155.1,175z"/>
	</g>
</g>
<g>
	<g>
		<path class="st5" d="M48.1,582c-5-5-13.3-5-18.3,0c-5,5-5,13.3,0,18.3c4.4,4.4,11.2,5,16.2,1.7l9.5,9.5c0.6,0.6,1.5,0.6,2.1,0
			l1.7-1.7c0.6-0.6,0.6-1.5,0-2.1l-9.5-9.5C53.1,593.2,52.5,586.4,48.1,582z M46.3,598.5c-4,4-10.6,4-14.7,0s-4-10.6,0-14.7
			c4-4,10.6-4,14.7,0S50.4,594.4,46.3,598.5z"/>
		<g>
			<rect x="32.8" y="589.5" class="st5" width="2.7" height="7"/>
			<rect x="37.4" y="591.3" class="st5" width="2.7" height="5.2"/>
			<rect x="41.7" y="585.9" class="st5" width="2.7" height="10.6"/>
		</g>
	</g>
	<g>
		<path class="st5" d="M93.3,578.6L83,611.3c0,0.5,0.5,0.7,0.9,0.4l22-19.5c0.2-0.2,0.2-0.5,0-0.7l-11.7-13.2
			C93.9,578,93.3,578.2,93.3,578.6z M100.8,592c0.1,0.1,0.1,0.2,0,0.3l-9.9,8.8c-0.2,0.1-0.4,0-0.4-0.2l4.6-14.8
			c0-0.2,0.3-0.3,0.4-0.1L100.8,592z"/>
		<path class="st5" d="M97.2,589.5l-22,7.8l-3.7,3.5l5,0.3l22-7.8L97.2,589.5z M73.4,600.5l-0.2-0.6l2.2-2.1l1,2.9L73.4,600.5z"/>
	</g>
	<path class="st5" d="M150,586l-15.7-9l-15.6,9l0.2,18l15.4,9l15.7-9.1L150,586z M119.3,603.9l0-7.8l6.9,3.9l0,7.9L119.3,603.9z
		 M119.7,595.4l6.8-4l6.9,4l-6.9,4.1L119.7,595.4z M133.8,603.8l-6.9,4l0-7.9l6.9-3.9L133.8,603.8z M127.2,590l0-7.8l6.9,3.9l0,7.9
		L127.2,590z M127.6,581.5l6.8-4l6.9,4l-6.9,4.1L127.6,581.5z M134.9,586.1l6.9-3.9l0,7.8l-6.9,4L134.9,586.1z M135.2,603.8l0-7.8
		l6.9,3.9l0,7.9L135.2,603.8z M135.5,595.3l6.8-4l6.9,4l-6.9,4.1L135.5,595.3z M149.7,603.8l-6.9,4l0-7.9l6.9-3.9L149.7,603.8z"/>
	<path class="st5" d="M148.9,632.9l-4.2-3.2c-1.1-6-5.8-8.8-10.2-8.8c-2.8,0-5.4,1-7.3,2.9c-1.6,1.5-2.6,3.5-3.1,5.8l-4.2,3.3
		c-0.8,0.5-1.3,1.4-1.3,2.3v4.5c0,1.3,0.9,2.4,2.2,2.6l4,1v-10.1l0,0c0.5,0,0.9-0.4,0.9-0.9c0-6.6,4.6-9.6,8.8-9.6
		c2.3,0,4.4,0.8,5.9,2.3c1.8,1.7,2.7,4.2,2.7,7.2c0,0.5,0.4,0.9,0.9,0.9v10.1l1.8-0.4v5.8l-4,2.3c-0.3-0.3-0.7-0.4-1.2-0.4h-2.6
		c-1,0-1.8,0.8-1.8,1.8c0,1,0.8,1.8,1.8,1.8h2.6c0.9,0,1.6-0.6,1.8-1.4l5.3-3v-7.3l0.4-0.1c1.3-0.2,2.2-1.3,2.2-2.6v-4.5
		C150.2,634.3,149.7,633.4,148.9,632.9z"/>
	<g>
		<circle class="st5" cx="88.9" cy="636.9" r="4.8"/>
		<g>
			<path class="st5" d="M103.8,620.5c-1.6,0-2.9,1.3-2.9,2.9c0,0.8,0.3,1.5,0.8,2l-6.2,5c-1.7-1.7-4-2.8-6.6-2.8
				c-5.1,0-9.2,4.1-9.2,9.2c0,2.9,1.4,5.6,3.6,7.3l-1.9,3.1c-0.6-0.4-1.3-0.6-2.1-0.6c-2.2,0-4,1.8-4,4c0,2.2,1.8,4,4,4
				c2.2,0,4-1.8,4-4c0-1.2-0.6-2.3-1.4-3.1l1.9-3.1c1.5,1,3.2,1.6,5.2,1.6c5.1,0,9.2-4.1,9.2-9.2c0-2.3-0.8-4.4-2.2-6l6.3-5
				c0.5,0.3,1,0.5,1.7,0.5c1.6,0,2.9-1.3,2.9-2.9C106.7,621.8,105.4,620.5,103.8,620.5z M97.5,636.9c0,4.7-3.9,8.6-8.6,8.6
				s-8.6-3.9-8.6-8.6c0-4.7,3.9-8.6,8.6-8.6S97.5,632.2,97.5,636.9z"/>
			<path class="st5" d="M79.5,628.4c0.6-0.8,0.9-1.8,0.9-2.8c0-2.6-2.1-4.7-4.7-4.7s-4.7,2.1-4.7,4.7s2.1,4.7,4.7,4.7
				c1.3,0,2.5-0.6,3.4-1.4l2.6,2.2l0.4-0.5L79.5,628.4z"/>
		</g>
	</g>
	<g>
		<path class="st5" d="M60.3,648.3v-21.4c0-1.6-1.3-2.9-2.9-2.9h-29c-1.6,0-2.9,1.3-2.9,2.9v21.4c0,1.6,1.3,2.9,2.9,2.9h29
			C59,651.2,60.3,649.9,60.3,648.3z M57,625.2c0.8,0,1.5,0.6,1.5,1.5c0,0.8-0.6,1.5-1.5,1.5c-0.8,0-1.5-0.6-1.5-1.5
			C55.6,625.8,56.2,625.2,57,625.2z M28.2,625.4h20.1c0.7,0,1.2,0.6,1.2,1.2c0,0.7-0.6,1.2-1.2,1.2H28.2c-0.7,0-1.2-0.6-1.2-1.2
			C27,625.9,27.5,625.4,28.2,625.4z M28.3,649.8c-0.7,0-1.2-0.6-1.2-1.2v-18.2c0-0.7,0.6-1.2,1.2-1.2h29.1c0.7,0,1.2,0.6,1.2,1.2
			v18.2c0,0.7-0.6,1.2-1.2,1.2H28.3z"/>
		<g>
			<g>
				<polygon class="st5" points="39.6,641 36.2,639.5 36.2,639.5 39.6,638 39.6,637 35.1,639.1 35.1,639.9 39.6,642 				"/>
				<polygon class="st5" points="45.3,635.5 44.3,635.5 42.3,642.4 43.2,642.4 				"/>
				<polygon class="st5" points="50.4,639.1 45.8,637 45.8,638 49.3,639.5 49.3,639.5 45.8,641 45.8,642 50.4,639.9 				"/>
			</g>
		</g>
	</g>
</g>
<g id="HMNFP7_1_">
	<g>
		<path class="st5" d="M250.4,409.8c-0.3,0.2-0.5,0.4-0.8,0.6c-2.9,2.1-5.8,4.3-8.7,6.3c-3.5,2.5-6.8,5.8-4.3,10.9
			c1.6,3.4,5.4,5.7,9.2,5.7c1.1,0,2.2-0.2,3.3-0.6c5.5-2,11.3-4.4,17.8-7.3c1-0.4,1.8-0.7,2.5-0.7c1,0,2,0.4,3.2,1.4
			c7.1,5.8,14.4,11.5,21.5,17.1c4,3.2,8,6.3,12,9.5c1.3,1.1,2,2.5,1.8,3.8c-0.2,0.8-0.8,1.4-1.7,1.7c-0.2,0-0.4,0.1-0.6,0.1
			c-1.1,0-2.7-0.5-3.6-1.2c-6.3-4.8-12.7-9.8-18.9-14.7c-3-2.3-5.9-4.7-8.9-7c-0.8-0.6-1.6-1.1-2.4-1.5c-0.2-0.1-0.4-0.2-0.7-0.4
			c-0.3-0.2-0.7-0.3-1-0.3c-0.7,0-1.3,0.3-1.7,0.9l-0.4,0.5c-0.6,0.8-0.5,2,0.2,2.7c0.2,0.2,0.4,0.4,0.7,0.6
			c0.7,0.7,1.4,1.4,2.3,2.1c3.4,2.7,6.7,5.3,10.1,7.9c4.3,3.4,8.6,6.8,12.9,10.2c1.3,1,2,2.2,1.9,3.2c0,1.1-0.8,1.8-1.5,2.2
			c-0.5,0.4-1,0.5-1.5,0.5c-0.9,0-1.9-0.6-3.1-1.6c-7.3-5.8-15.1-11.9-23-18.1c-0.8-0.7-1.8-1.1-2.6-1.5l-0.5-0.3
			c-0.3-0.2-0.7-0.3-1.1-0.3c-0.7,0-1.4,0.3-1.9,0.9l-0.5,0.6c-0.5,0.6-0.7,1.4-0.5,2.2c0.2,0.8,0.8,1.4,1.5,1.7l0.1,0
			c0.8,0.3,1.5,0.6,2,1c6,4.6,12,9.4,17.8,14.1l0.4,0.3c3.2,2.5,2.6,3.8,1.7,5c-0.8,1.1-1.5,1.2-2,1.2c-0.9,0-2.2-0.6-3.5-1.6
			c-0.6-0.5-1.2-0.9-1.8-1.4c-1.6-1.2-3-2.3-4.4-3.6c-1.3-1.2-2.3-2.7-3-4.2c-1.3-3.1-3.6-4.8-7.2-5.5c-1.6-0.3-2.9-0.8-3.5-1.5
			c-2.2-2.5-4.2-4.1-6.8-4.1c-1.4,0-2.8,0.4-4.7,1.4c-2.3-2.4-4.3-3.7-6.6-3.7c-1.7,0-3.3,0.7-4.9,1.6c-2.6-2.5-4.6-3.6-6.8-3.6
			c-2.2,0-4.3,1.2-6.9,3.9l-5.1-2.9l-8.3-4.8c0.2-0.5,0.4-1,0.6-1.4c1.5-2.8,3.1-5.5,4.6-8.3c2.9-5.1,5.8-10.5,8.7-15.7
			c0.9-1.7,1.4-1.7,1.5-1.7c0.2,0,0.6,0.1,1.2,0.4c2.3,1.3,4.8,2,7.3,2c2.3,0,4.7-0.5,7.4-1.7c3.2-1.3,6.6-2.3,9.9-3.2l0.2-0.1
			C249.9,409.9,250.2,409.9,250.4,409.8 M254.3,407.9c-0.1,0-0.1,0-0.2,0c-1.6,0.2-3.3,0.1-4.9,0.6c-3.5,1-7,1.9-10.3,3.3
			c-2.3,1-4.5,1.5-6.7,1.5c-2.2,0-4.3-0.5-6.5-1.8c-0.8-0.4-1.4-0.7-2-0.7c-1.3,0-2.1,1-3,2.6c-4.3,8-8.8,16-13.2,24
			c-0.5,0.8-0.7,1.8-1.2,2.9c5.4,3.1,10.6,6.1,15.7,9c2.5-2.9,4.6-4.3,6.6-4.3c2,0,4,1.4,6.5,4.1c2.1-1.4,3.7-2.1,5.1-2.1
			c1.9,0,3.7,1.3,6.3,4.1c2.1-1.2,3.6-1.8,5-1.8c1.9,0,3.5,1.2,5.6,3.6c1,1.1,2.8,1.7,4.4,2c2.8,0.5,4.8,1.8,6,4.5
			c0.8,1.8,1.9,3.4,3.3,4.7c1.9,1.9,4.2,3.4,6.3,5.1c1.7,1.3,3.2,1.9,4.5,1.9c1.3,0,2.4-0.6,3.3-1.8c1.8-2.5,1.3-4.7-2-7.3
			c-6.1-4.8-12.1-9.7-18.3-14.4c-0.7-0.6-1.6-0.9-2.5-1.2c-0.6-0.2-0.7-0.9-0.3-1.4l0.5-0.6c0.2-0.2,0.4-0.3,0.7-0.3
			c0.1,0,0.3,0,0.4,0.1c1,0.5,2,1,2.9,1.6c7.7,6,15.4,12,23,18.1c1.3,1,2.6,1.9,4.1,1.9c0.7,0,1.5-0.2,2.4-0.8c3.1-2,3-5.4-0.3-8.1
			c-7.6-6.1-15.3-12.1-23-18.1c-1-0.8-1.9-1.7-2.8-2.6c-0.2-0.2-0.2-0.4-0.1-0.6l0.4-0.5c0.1-0.1,0.2-0.2,0.4-0.2
			c0.1,0,0.2,0,0.2,0.1c1,0.5,2,1,2.8,1.7c9.3,7.3,18.4,14.6,27.8,21.7c1.2,0.9,3,1.6,4.6,1.6c0.4,0,0.8,0,1.1-0.1
			c3.7-1.1,3.9-5.6,0.5-8.3c-11.2-8.9-22.5-17.6-33.6-26.6c-1.5-1.2-2.8-1.8-4.2-1.8c-1,0-2,0.3-3.2,0.8c-5.8,2.6-11.7,5.1-17.7,7.3
			c-0.9,0.3-1.8,0.5-2.7,0.5c-3.3,0-6.4-2-7.8-4.8c-1.6-3.4-0.5-5.8,3.8-8.9c4.2-3,8.4-6.1,12.6-9.2
			C255.1,408.4,255.3,407.9,254.3,407.9L254.3,407.9z"/>
		<path class="st5" d="M275.8,402.9c1.1-0.2,2.3-0.1,3.4,0.3c0.4,0.2,0.8,0.3,1.2,0.5c5.3,2.6,10.7,4.9,15.8,7.8
			c3.5,1.9,6.7,2.5,10.2,0.4c3.7-2.2,4.7-0.3,7.7,4.6c5.3,8.8,5.3,9.1,10,18.1c2.6,4.9,3.3,6-0.5,8.2c-3,1.7-5.9,3.7-8.4,6.1
			c-2.7,2.5-4.3,2.8-6.9,0.7c-11.5-9.3-23.1-18.4-34.6-27.7c-2-1.6-3.7-1.9-6.1-0.8c-6,2.8-12.2,5.2-18.3,7.8
			c-2.9,1.2-6.3,0.6-8.5-1.6c-1.9-2-2-4.2,0.2-6C251.4,413,262.4,405.7,275.8,402.9C275.8,402.9,275.8,402.9,275.8,402.9z"/>
		<path class="st5" d="M255.3,474.1c-1.6-1.5-2.1-3.8-1.4-5.9c1.2-3.5,2.2-6.6,3.8-9.5c0.7-1.2,3.8-2,5.4-1.5
			c1.3,0.4,2.9,3.2,2.6,4.6c-0.7,3.9-2.1,7.7-3.8,11.2c-0.6,1.3-3.4,2.4-4.9,2.1C256.3,475,255.8,474.6,255.3,474.1z"/>
		<path class="st5" d="M255.2,453.6c0.8,0.9,1,2.2,0.6,3.4c-1.5,4-2.6,7.6-4.4,10.9c-0.6,1.1-3.7,1.9-5.1,1.3
			c-1.4-0.6-3-3.2-2.8-4.5c0.8-4,2.2-8,4-11.6c0.6-1.2,3.5-2.1,5-1.7C253.5,451.7,254.4,452.6,255.2,453.6z"/>
		<path class="st5" d="M240.2,462.8c-0.9,0.7-2,0.9-3.1,0.7c-2.8-0.6-4.2-2.6-3.7-5.2c0.5-2.4,1.3-4.8,2.4-7
			c1.1-2.2,3.1-3.3,5.6-2.3c2.5,1,3.7,2.9,2.9,5.7c-0.6,2-1,4.2-2.1,6C241.8,461.5,240.9,462.2,240.2,462.8z"/>
		<path class="st5" d="M223.1,453.5c-0.1-3.3,2.4-6.6,5.2-6.8c2.6-0.1,4.9,1.9,4.9,4.5c0.1,3.3-2.5,6.7-5.2,6.9
			C225.6,458.3,223.2,456,223.1,453.5z"/>
		<path class="st5" d="M266.6,465.5c0.2-0.6,1-0.8,1.5-0.4c1.5,1.2,2.8,2.2,3.9,3.3c1.9,2.1,1.7,4.9-0.6,6.1
			c-1.7,0.9-4.7,1.5-6.4-0.3c-0.6-0.6-0.7-2-0.4-2.9C265.1,469.5,265.8,467.7,266.6,465.5z"/>
	</g>
</g>
<g>
	<path class="st5" d="M68.6,284.9c6.3,15.8,11.9,30.6,3.6,38.8l5,5c10.1-10.1,6.2-25.1,0.4-40.3c-2.5-1-5.1-2-7.6-3
		C69.6,285.3,69.1,285.1,68.6,284.9z"/>
	<g>
		<path class="st5" d="M153.6,242.4c-8.3,8.3-23,2.7-38.8-3.6c-0.5-0.2-0.9-0.4-1.4-0.6c-2.5-1-5.1-2-7.6-3c-7.9-3-15.8-5.5-23-5.8
			c-0.6-0.9-1.3-1.7-2-2.5c-6.6-6.6-17.3-6.6-24,0c-6.6,6.6-6.6,17.3,0,24c0.8,0.8,1.6,1.4,2.5,2c0.3,7.1,2.8,15,5.8,23
			c2.5,1,5.1,2,7.6,3c0.5,0.2,0.9,0.4,1.4,0.6c-3.4-8.5-6.5-16.7-7.5-23.7c3.9,0.5,8-0.4,11.4-2.6l10.2,10.2l5-5L83,248.2
			c2.2-3.4,3.1-7.5,2.6-11.4c7,0.9,15.2,4.1,23.7,7.5c0.5,0.2,0.9,0.4,1.4,0.6c2.5,1,5,2,7.6,3c15.2,5.8,30.2,9.8,40.3-0.4
			L153.6,242.4z M76.8,247c-4.4,4.4-11.6,4.4-16,0c-4.4-4.4-4.4-11.6,0-16c4.4-4.4,11.6-4.4,16,0C81.2,235.4,81.2,242.5,76.8,247z"
			/>
		<path class="st5" d="M62.9,233.1c-3.2,3.2-3.2,8.5,0,11.7c3.2,3.2,8.5,3.2,11.7,0c3.2-3.2,3.2-8.5,0-11.7
			C71.4,229.9,66.2,229.9,62.9,233.1z M74,236.6l-5.6,5.6c-0.1,0.1-0.3,0.2-0.4,0.2c0,0,0,0,0,0c-0.2,0-0.3-0.1-0.4-0.2l-3.8-3.8
			c-0.1-0.1-0.2-0.3-0.2-0.4c0-0.2,0.1-0.3,0.2-0.4l1.2-1.2c0.2-0.2,0.6-0.2,0.9,0l2.2,2.2l4-4c0.2-0.2,0.6-0.2,0.9,0l1.2,1.2
			C74.2,236,74.2,236.4,74,236.6z"/>
	</g>
	<g>
		<path class="st5" d="M106.2,197.5l2.5,2.5c-7.6,9.5-1.5,24.7,5,40.8c4.1,10.2,8.3,20.8,8.7,29.9l0,0.9l0.7,0.5
			c0.8,0.6,1.5,1.1,2.1,1.7c2.9,2.9,4.4,6.7,4.4,10.7s-1.6,7.9-4.4,10.7c-2.9,2.9-6.7,4.4-10.7,4.4c-4.1,0-7.9-1.6-10.7-4.4
			c-0.6-0.6-1.2-1.3-1.7-2.1l-0.5-0.7l-0.9,0c-9.1-0.4-19.7-4.6-29.9-8.7c-10.9-4.4-21.2-8.5-29.7-8.5c-4.5,0-8.2,1.1-11.1,3.5
			l-2.5-2.5c3.6-3,8-4.5,13.5-4.5c9.4,0,20.5,4.4,31.2,8.7c8.7,3.5,17.7,7.1,25.4,8.1l2.3,0.3l-0.3-2.3c-0.5-3.6,0.3-7.3,2.3-10.4
			l0.8-1.2l-1-1l-10.8-10.8l2.5-2.5l10.8,10.8l1,1l1.2-0.8c2.4-1.6,5.3-2.4,8.3-2.4c0.7,0,1.4,0,2.1,0.1l2.3,0.3l-0.3-2.3
			c-1-7.7-4.6-16.7-8.1-25.4C103.8,225.7,96.9,208.6,106.2,197.5 M106.1,195c-11.8,11.8-4.5,30.1,2.6,47.9c3.6,8.9,7,17.6,8,25
			c-0.8-0.1-1.6-0.2-2.4-0.2c-3.2,0-6.4,0.9-9.2,2.7l-12-12l-5,5l12,12c-2.3,3.5-3.1,7.6-2.6,11.6c-7.4-1-16.1-4.5-25-8
			c-10.9-4.4-22.1-8.8-31.8-8.8c-6,0-11.5,1.7-16,6.2l5,5c3-3,6.8-4.2,11.2-4.2c8.2,0,18.4,4.1,29,8.3c10.4,4.2,21.1,8.4,30.5,8.8
			c0.6,0.8,1.2,1.6,1.9,2.3c3.3,3.3,7.6,5,12,5c4.3,0,8.7-1.7,12-5c6.6-6.6,6.6-17.3,0-24c-0.7-0.7-1.5-1.3-2.3-1.9
			c-0.4-9.4-4.6-20.1-8.8-30.5c-6.5-16.3-12.7-31.7-4.2-40.2L106.1,195L106.1,195z"/>
		<g>
			<path class="st5" d="M109.8,276.4l1.2,1.2c1-0.6,1.9-1.1,2.9-1.4c1-0.3,2-0.4,2.9-0.4c0.9,0,1.8,0.2,2.7,0.6
				c0.9,0.4,1.6,0.9,2.3,1.6c0.9,0.9,1.6,2,1.9,3s0.4,2.1,0.2,3.2l-2.2,0c-0.2,0-0.3,0-0.5,0c-0.2,0-0.3-0.1-0.5-0.3
				c-0.2-0.2-0.2-0.3-0.3-0.6c0-0.2,0-0.5,0-0.7c0-0.3-0.1-0.6-0.2-0.9c-0.1-0.3-0.4-0.7-0.8-1.1c-0.6-0.6-1.4-0.9-2.3-0.9
				c-0.9,0-1.9,0.3-2.9,1l4.6,4.6l-0.9,0.9c-0.1,0.1-0.2,0.2-0.3,0.2c-0.1,0-0.3,0.1-0.4,0.1s-0.3,0-0.4-0.1
				c-0.1-0.1-0.3-0.2-0.4-0.3l-4-4c-0.1,0.1-0.2,0.2-0.3,0.3c-0.1,0.1-0.2,0.2-0.3,0.3l-0.4,0.4l3.9,3.9l-0.9,0.9
				c-0.1,0.1-0.2,0.2-0.3,0.2c-0.1,0-0.3,0.1-0.4,0.1s-0.3,0-0.4-0.1c-0.1-0.1-0.3-0.2-0.4-0.3l-2.9-2.9c-0.8,1.1-1.2,2.2-1.2,3.1
				c0,0.9,0.3,1.7,0.9,2.3c0.3,0.3,0.5,0.5,0.8,0.6c0.3,0.1,0.5,0.2,0.7,0.3c0.2,0.1,0.4,0.1,0.6,0.1c0.2,0,0.4,0,0.5,0
				c0.2,0,0.3,0,0.5,0s0.3,0.1,0.4,0.2c0.1,0.1,0.2,0.2,0.2,0.3c0,0.1,0.1,0.2,0.1,0.4l0.1,2.6c-1.2,0.3-2.4,0.3-3.5-0.1
				c-1.1-0.4-2.2-1-3.1-2c-0.8-0.8-1.4-1.6-1.7-2.5c-0.4-0.9-0.5-1.8-0.5-2.8c0-0.9,0.2-1.9,0.6-2.9c0.4-1,0.9-1.9,1.6-2.9l-1.1-1.1
				l1.7-1.7l1,1l0.4-0.4c0.1-0.1,0.2-0.2,0.3-0.3c0.1-0.1,0.2-0.2,0.3-0.3l-1-1L109.8,276.4z"/>
		</g>
	</g>
</g>
<g>
	<path class="st5" d="M219.4,95.4c-0.3-0.3-0.9-0.1-0.9,0.4l-3.4,13.9l-13.3,5.7l-3.4,3.7l5-0.1l10.5-4.5l-3.4,14.2
		c0,0.5,0.6,0.7,0.9,0.4l20.4-20.7c0.2-0.2,0.2-0.5,0-0.7L219.4,95.4z M200.4,118.6l-0.3-0.6l2-2.2l1.2,2.8L200.4,118.6z
		 M217.6,118.1c-0.1,0.1-0.4,0-0.4-0.2l1.3-5.5l6.1-2.7l-1.6-3.7l-3.4,1.5l1.1-4.6c0-0.2,0.3-0.3,0.4-0.2l5.6,5.6
		c0.1,0.1,0.1,0.2,0,0.3L217.6,118.1z"/>
	<circle class="st5" cx="314.4" cy="108.8" r="5.3"/>
	<path class="st5" d="M330.8,90.8c-1.8,0-3.2,1.4-3.2,3.2c0,0.9,0.3,1.6,0.9,2.2l-6.8,5.5c-1.8-1.9-4.4-3-7.2-3
		c-5.6,0-10.1,4.5-10.1,10.1c0,3.2,1.5,6.1,3.9,8l-2.1,3.4c-0.7-0.4-1.5-0.7-2.3-0.7c-2.4,0-4.4,2-4.4,4.4c0,2.4,2,4.4,4.4,4.4
		c2.4,0,4.4-2,4.4-4.4c0-1.3-0.6-2.6-1.6-3.4l2-3.4c1.6,1.1,3.6,1.7,5.7,1.7c5.6,0,10.1-4.5,10.1-10.1c0-2.5-0.9-4.8-2.5-6.6
		l6.9-5.5c0.5,0.4,1.2,0.6,1.8,0.6c1.8,0,3.2-1.4,3.2-3.2C334,92.3,332.5,90.8,330.8,90.8z M323.8,108.8c0,5.2-4.2,9.5-9.5,9.5
		c-5.2,0-9.5-4.2-9.5-9.5c0-5.2,4.2-9.5,9.5-9.5C319.6,99.4,323.8,103.6,323.8,108.8z"/>
	<path class="st5" d="M303.6,100.1l2.9,2.4l0.4-0.5l-2.9-2.4c0.6-0.9,1-1.9,1-3.1c0-2.9-2.3-5.2-5.2-5.2s-5.2,2.3-5.2,5.2
		c0,2.9,2.3,5.2,5.2,5.2C301.3,101.6,302.6,101,303.6,100.1z"/>
	<path class="st5" d="M251.8,49.7H279c1.5,0,2.7-1.2,2.7-2.7V27c0-1.5-1.2-2.7-2.7-2.7h-27.1c-1.5,0-2.7,1.2-2.7,2.7v20
		C249.1,48.5,250.4,49.7,251.8,49.7z M280.2,47.2c0,0.6-0.5,1.2-1.2,1.2h-27.3c-0.6,0-1.2-0.5-1.2-1.2v-17c0-0.6,0.5-1.2,1.2-1.2
		H279c0.6,0,1.2,0.5,1.2,1.2V47.2z M278.7,25.3c0.8,0,1.4,0.6,1.4,1.4c0,0.8-0.6,1.4-1.4,1.4c-0.8,0-1.4-0.6-1.4-1.4
		C277.3,25.9,277.9,25.3,278.7,25.3z M251.7,25.5h18.8c0.6,0,1.2,0.5,1.2,1.2c0,0.6-0.5,1.2-1.2,1.2h-18.8c-0.6,0-1.2-0.5-1.2-1.2
		C250.5,26,251,25.5,251.7,25.5z"/>
	<polygon class="st5" points="254.3,39.6 260.8,42.6 260.8,41.2 255.9,39 255.9,39 260.8,36.8 260.8,35.4 254.3,38.4 	"/>
	<polygon class="st5" points="264.6,43.2 266,43.2 268.9,33.3 267.5,33.3 	"/>
	<polygon class="st5" points="269.7,36.8 274.7,39 274.7,39 269.7,41.2 269.7,42.6 276.2,39.6 276.2,38.4 269.7,35.4 	"/>
	<path class="st5" d="M311,68.3l-8.9-2.5l15,20.2l3.5-24.9l-6.6,6.5c-4.8-10.6-13-19.5-23.4-25l-1.4,2.6
		C298.8,50.2,306.4,58.4,311,68.3z"/>
	<path class="st5" d="M215.2,86c0.7-10.9,5.1-21.2,12.2-29.4l1.3,9.1l12.3-22l-24.2,7.1l8.7,3.4c-7.8,8.8-12.5,19.9-13.3,31.6
		L215.2,86z"/>
	<path class="st5" d="M259,139.3l6.9-6.1l-25.1,1.8l19.2,16.3l-2-9.1c2.4,0.3,4.9,0.6,7.4,0.6c9.2,0,18.3-2.4,26.3-7l-1.4-2.5
		C280.8,138.5,269.7,140.6,259,139.3z"/>
</g>
<linearGradient id="SVGID_2_" gradientUnits="userSpaceOnUse" x1="164.7168" y1="41.6098" x2="185.4423" y2="62.3354" gradientTransform="matrix(6.123234e-17 1 1 -6.123234e-17 123.0537 174.9465)">
	<stop  offset="0" style="stop-color:#F1C433"/>
	<stop  offset="1" style="stop-color:#EA2631"/>
</linearGradient>
<path class="st6" d="M141.9,350c18.3,0,33.1-14.8,33.1-33.1c0,18.3,14.8,33.1,33.1,33.1c-18.3,0-33.1,14.8-33.1,33.1
	C175,364.8,160.2,350,141.9,350z"/>
<linearGradient id="SVGID_3_" gradientUnits="userSpaceOnUse" x1="-9.0588" y1="61.0586" x2="9.4888" y2="42.511" gradientTransform="matrix(6.123234e-17 1 1 -6.123234e-17 123.0537 174.9465)">
	<stop  offset="0" style="stop-color:#3E9D4B"/>
	<stop  offset="1" style="stop-color:#F1C433"/>
</linearGradient>
<path class="st7" d="M141.4,175c18.5,0,33.6-15,33.6-33.6c0,18.5,15,33.6,33.6,33.6c-18.5,0-33.6,15-33.6,33.6
	C175,190,160,175,141.4,175z"/>
<linearGradient id="SVGID_4_" gradientUnits="userSpaceOnUse" x1="340.8189" y1="61.181" x2="359.5716" y2="42.4283" gradientTransform="matrix(6.123234e-17 1 1 -6.123234e-17 123.0537 174.9465)">
	<stop  offset="0" style="stop-color:#EA2631"/>
	<stop  offset="1" style="stop-color:#10AAC7"/>
</linearGradient>
<path class="st8" d="M142.3,525c18.1,0,32.7-14.6,32.7-32.7c0,18.1,14.6,32.7,32.7,32.7c-18.1,0-32.7,14.6-32.7,32.7
	C175,539.6,160.4,525,142.3,525z"/>
</svg>
