<svg id="Calque_2" data-name="Calque 2" xmlns="http://www.w3.org/2000/svg" viewBox="0 0 273.85 93.85"><defs><style>.cls-1{fill:#fff;}</style></defs><title>style-text</title><path class="cls-1" d="M219.93,175.3l-37-37a9.82,9.82,0,0,1,0-14l37-37a9.84,9.84,0,0,1,14,0l37,37a9.84,9.84,0,0,1,0,14l-37,37A9.84,9.84,0,0,1,219.93,175.3Z" transform="translate(0 -84.38)"/><path class="cls-1" d="M0,138V124.62c0-1.1,2-2,4.43-2H150.57c2.48,0,4.43.87,4.43,2V138c0,1.1-1.95,2-4.43,2H4.43C2,140,0,139.08,0,138Z" transform="translate(0 -84.38)"/></svg>