<?xml version="1.0" encoding="UTF-8"?>
<svg id="Calque_2" data-name="Calque 2" xmlns="http://www.w3.org/2000/svg" viewBox="0 0 19.2 18.77">
  <g id="Calque_1-2" data-name="Calque 1">
    <g>
      <path d="M9.6,14.4c-.24,0-.44-.2-.44-.44V.44c0-.24,.2-.44,.44-.44s.44,.2,.44,.44V13.96c0,.24-.2,.44-.44,.44Z" style="fill: #276586;"/>
      <path d="M13.09,4.36c-.11,0-.22-.04-.31-.13l-3.18-3.18-3.18,3.18c-.17,.17-.45,.17-.62,0s-.17-.45,0-.62L9.29,.13c.17-.17,.45-.17,.62,0l3.49,3.49c.17,.17,.17,.45,0,.62-.09,.09-.2,.13-.31,.13Z" style="fill: #276586;"/>
      <path d="M18.77,18.77H.44c-.14,0-.27-.07-.35-.18-.08-.11-.11-.26-.06-.39L3.08,8.6c.06-.18,.23-.3,.42-.3h3.49c.24,0,.44,.2,.44,.44s-.2,.44-.44,.44H3.81L1.03,17.89H18.17l-2.78-8.73h-3.17c-.24,0-.44-.2-.44-.44s.2-.44,.44-.44h3.49c.19,0,.36,.12,.42,.3l3.05,9.6c.04,.13,.02,.28-.06,.39-.08,.11-.21,.18-.35,.18Z" style="fill: #276586;"/>
    </g>
  </g>
</svg>