<?xml version="1.0" encoding="UTF-8"?>
<svg id="Calque_2" data-name="Calque 2" xmlns="http://www.w3.org/2000/svg" viewBox="0 0 17.32 12.77">
  <g id="Calque_1-2" data-name="Calque 1">
    <g>
      <path d="M8.66,12.77C3.22,12.77,.16,6.78,.03,6.53c-.04-.09-.04-.2,0-.28C.16,5.99,3.22,0,8.66,0s8.5,5.99,8.63,6.24c.04,.09,.04,.2,0,.28-.13,.25-3.18,6.24-8.63,6.24ZM.68,6.38c.5,.9,3.38,5.75,7.98,5.75s7.49-4.85,7.98-5.75c-.5-.9-3.38-5.75-7.98-5.75S1.17,5.48,.68,6.38Z" style="fill: #276586;"/>
      <path d="M8.66,9.74c-1.85,0-3.35-1.5-3.35-3.35s1.5-3.35,3.35-3.35,3.35,1.5,3.35,3.35-1.5,3.35-3.35,3.35Zm0-6.07c-1.5,0-2.72,1.22-2.72,2.72s1.22,2.72,2.72,2.72,2.72-1.22,2.72-2.72-1.22-2.72-2.72-2.72Z" style="fill: #276586;"/>
    </g>
  </g>
</svg>