<?xml version="1.0" encoding="UTF-8"?>
<svg id="Calque_2" data-name="Calque 2" xmlns="http://www.w3.org/2000/svg" viewBox="0 0 13.97 17.32">
  <g id="Calque_1-2" data-name="Calque 1">
    <g>
      <path d="M10.34,6.43c-.15,0-.28-.12-.28-.28V3.63c0-1.69-1.38-3.07-3.07-3.07S3.91,1.94,3.91,3.63v2.51c0,.15-.12,.28-.28,.28s-.28-.12-.28-.28V3.63C3.35,1.63,4.98,0,6.99,0s3.63,1.63,3.63,3.63v2.51c0,.15-.12,.28-.28,.28Z" style="fill: #276586;"/>
      <path d="M12.3,17.32H1.68c-.92,0-1.68-.75-1.68-1.68v-6.71c0-.92,.75-1.68,1.68-1.68H12.3c.92,0,1.68,.75,1.68,1.68v6.71c0,.92-.75,1.68-1.68,1.68ZM1.68,7.82c-.62,0-1.12,.5-1.12,1.12v6.71c0,.62,.5,1.12,1.12,1.12H12.3c.62,0,1.12-.5,1.12-1.12v-6.71c0-.62-.5-1.12-1.12-1.12H1.68Z" style="fill: #276586;"/>
      <path d="M6.99,15.09c-.15,0-.28-.12-.28-.28v-1.68c0-.15,.12-.28,.28-.28s.28,.12,.28,.28v1.68c0,.15-.12,.28-.28,.28Z" style="fill: #276586;"/>
      <path d="M6.99,13.41c-1.08,0-1.96-.88-1.96-1.96s.88-1.96,1.96-1.96,1.96,.88,1.96,1.96-.88,1.96-1.96,1.96Zm0-3.35c-.77,0-1.4,.63-1.4,1.4s.63,1.4,1.4,1.4,1.4-.63,1.4-1.4-.63-1.4-1.4-1.4Z" style="fill: #276586;"/>
    </g>
  </g>
</svg>