<?xml version="1.0" encoding="UTF-8"?>
<svg id="Calque_2" data-name="Calque 2" xmlns="http://www.w3.org/2000/svg" viewBox="0 0 17.18 10.52">
  <g id="Calque_1-2" data-name="Calque 1">
    <g>
      <path d="M8.59,10.52c-.1,0-.19-.05-.23-.14l-2.78-5.55c-.06-.13-.01-.29,.12-.35,.13-.06,.29-.01,.35,.12l2.78,5.55c.06,.13,.01,.29-.12,.35-.04,.02-.08,.03-.12,.03Z" style="fill: #276586;"/>
      <path d="M14.14,10.52H3.04c-.14,0-.26-.12-.26-.26s.12-.26,.26-.26H14.14c.14,0,.26,.12,.26,.26s-.12,.26-.26,.26Z" style="fill: #276586;"/>
      <path d="M16.75,10.52H.43c-.12,0-.23-.09-.26-.21-.11-.56-.17-1.14-.17-1.72C0,3.85,3.85,0,8.59,0s8.59,3.85,8.59,8.59c0,.57-.06,1.15-.17,1.72-.03,.12-.13,.21-.26,.21ZM.65,10h15.89c.08-.46,.12-.94,.12-1.4C16.66,4.14,13.04,.52,8.59,.52S.52,4.14,.52,8.59c0,.47,.04,.94,.12,1.4Z" style="fill: #276586;"/>
    </g>
  </g>
</svg>