<?xml version="1.0" encoding="UTF-8"?>
<svg id="Calque_2" data-name="Calque 2" xmlns="http://www.w3.org/2000/svg" viewBox="0 0 16.42 16.76">
  <g id="Calque_1-2" data-name="Calque 1">
    <g>
      <path d="M8.21,3.84c-1.06,0-1.92-.86-1.92-1.92s.86-1.92,1.92-1.92,1.92,.86,1.92,1.92-.86,1.92-1.92,1.92Zm0-3.23c-.72,0-1.31,.59-1.31,1.31s.59,1.31,1.31,1.31,1.31-.59,1.31-1.31-.59-1.31-1.31-1.31Z" style="fill: #276586;"/>
      <path d="M1.92,14.73c-1.06,0-1.92-.86-1.92-1.92s.86-1.92,1.92-1.92,1.92,.86,1.92,1.92-.86,1.92-1.92,1.92Zm0-3.23c-.72,0-1.31,.59-1.31,1.31s.59,1.31,1.31,1.31,1.31-.59,1.31-1.31-.59-1.31-1.31-1.31Z" style="fill: #276586;"/>
      <path d="M14.5,14.73c-1.06,0-1.92-.86-1.92-1.92s.86-1.92,1.92-1.92,1.92,.86,1.92,1.92-.86,1.92-1.92,1.92Zm0-3.23c-.72,0-1.31,.59-1.31,1.31s.59,1.31,1.31,1.31,1.31-.59,1.31-1.31-.59-1.31-1.31-1.31Z" style="fill: #276586;"/>
      <path d="M1.28,11.65c-.13,0-.25-.08-.29-.22C-.07,8.03,1.34,4.42,4.42,2.64c.15-.08,.33-.03,.42,.11,.08,.15,.03,.34-.11,.42C1.9,4.8,.6,8.13,1.57,11.25c.05,.16-.04,.33-.2,.38-.03,0-.06,.01-.09,.01Z" style="fill: #276586;"/>
      <path d="M8.22,16.76c-1.29,0-2.6-.33-3.79-1.03-.15-.08-.2-.27-.11-.42,.08-.15,.27-.2,.42-.11,2.84,1.64,6.36,1.1,8.57-1.31,.12-.12,.31-.13,.43-.02,.12,.11,.13,.31,.02,.43-1.48,1.61-3.49,2.46-5.54,2.46Z" style="fill: #276586;"/>
      <path d="M15.47,9.49c-.17,0-.31-.14-.31-.31,0-3.27-2.23-6.06-5.42-6.78-.17-.04-.27-.2-.23-.37,.04-.17,.2-.27,.37-.23,3.48,.78,5.9,3.82,5.9,7.38,0,.17-.14,.31-.31,.31Z" style="fill: #276586;"/>
    </g>
  </g>
</svg>