<?xml version="1.0" encoding="UTF-8"?>
<svg id="Calque_2" data-name="Calque 2" xmlns="http://www.w3.org/2000/svg" viewBox="0 0 180.54 182.14">
  <defs>
    <style>
      .cls-1 {
        opacity: .1;
      }

      .cls-1, .cls-2 {
        fill: #1f4273;
      }

      .cls-3 {
        fill: #f2f2f2;
      }

      .cls-4 {
        fill: #ebb1b6;
      }

      .cls-5 {
        fill: #f5f7fa;
      }

      .cls-6 {
        fill: #e7e6e6;
      }

      .cls-7 {
        fill: #fff;
      }

      .cls-8 {
        fill: #e4e4e3;
      }

      .cls-9 {
        fill: #302f42;
      }

      .cls-10 {
        fill: #cdcccc;
      }

      .cls-11 {
        fill: #403d56;
      }

      .cls-12 {
        opacity: .17;
      }

      .cls-12, .cls-13 {
        fill: #010101;
        isolation: isolate;
      }

      .cls-13 {
        opacity: .4;
      }
    </style>
  </defs>
  <g id="Calque_3" data-name="Calque 3">
    <g>
      <path class="cls-5" d="M177.89,79.28C173,47.25,152.93,7.9,113.29,3.78c0,0-30.1-3.66-59.76,1.89-17.61,3.29-33.05,13.09-42.82,27.18C.95,46.94-2.32,64.12,1.64,80.49c2.57,10.64,4.31,21.65,3.83,32.58-.6,13.78-1.73,28.28,4.36,41.13,8.93,18.83,30.71,24.38,49.72,26.15,7,.65,14.04,.91,21.05,1.47,13.45,1.06,28.53-.66,41.5-4.16,66.06-17.85,60.68-66.35,55.79-98.38Z"/>
      <g>
        <path class="cls-11" d="M15.97,51.1c2.08-1.42,4.76,1.71,3.31,3.67-1.47,1.98-4.7,1.42-5.81-.6-1.42-2.57,0-5.64,2.28-7.13,2.59-1.7,5.77-1.79,8.76-1.63,3.02,.16,5.97,.37,8.98-.06,2.55-.37,5.04-1.07,7.41-2.08,4.88-2.05,9.16-5.29,12.45-9.43,1.54-1.95,2.97-4.14,3.85-6.47,.68-1.8,1-4.16,.04-5.92-.78-1.47-2.6-2.04-4.07-1.26-.18,.1-.35,.21-.51,.34-1.6,1.31-2.03,3.74-.81,5.44,1.31,1.82,3.79,2.44,5.92,2.11,2.96-.46,5.36-2.55,7.63-4.35l16.8-13.34c2.77-2.2,5.51-4.44,8.32-6.59,2.28-1.75,5.07-3.45,8.04-2.51,1.2,.38,2.4,1.27,2.7,2.55,.23,1.2-.23,2.42-1.18,3.18-.85,.72-2.13,.62-2.85-.23-.04-.04-.07-.09-.11-.14-.63-.87-.68-2.12-.32-3.11,.96-2.64,4.5-2.91,6.86-2.7,2.78,.28,5.48,1.17,7.88,2.59,4.99,2.9,8.68,7.61,10.84,12.91,2.4,5.87,3.14,12.37,3.04,18.67-.02,1.29-.11,2.71-.83,3.82-.71,1.09-1.94,1.41-3.05,.69-.36-.24-.83-.7-.73-1.18,.12-.61,1.33-.61,1.82-.59,1.33,.06,2.59,.74,3.55,1.64,2.27,2.15,2.44,5.44,2.15,8.37-.32,3.21-1.25,6.41-.88,9.66,.6,5.33,4.98,8.29,9.27,10.74,2.2,1.25,4.45,2.45,6.43,4.05,2.02,1.63,3.78,3.55,5.24,5.7,2.88,4.24,4.58,9.16,4.92,14.27,.17,2.55-.03,5.12-.6,7.61-.57,2.44-1.46,5.52-3.8,6.83-1.14,.65-2.58,.53-3.59-.32-.95-.76-1.41-2.12-.43-3.07,.81-.79,2.11-.62,3.1-.3,1.18,.39,2.1,1.11,2.98,1.96,1.68,1.62,3.64,3.62,6.2,3.1,.47-.1,.27-.82-.2-.72-3.08,.63-4.94-2.96-7.22-4.34-1.65-1-4.46-1.74-5.74,.21-1.39,2.1,.84,4.37,2.92,4.64,2.7,.35,4.57-2.28,5.47-4.46,2.1-5.05,2.17-10.97,.88-16.22-1.28-5.34-4.06-10.2-8-14.02-1.99-1.9-4.27-3.35-6.65-4.71-2.4-1.37-4.91-2.68-6.96-4.55-2.31-2.03-3.6-4.98-3.53-8.05,.02-3.5,1.15-6.89,1.08-10.4-.06-2.91-1.05-5.74-3.57-7.38-1.04-.71-2.29-1.05-3.54-.99-.51,.04-1.23,.13-1.65,.45-.34,.26-.4,.86-.33,1.25,.16,.93,1.04,1.57,1.89,1.83,1.06,.34,2.22,0,2.92-.86,.82-.95,1.1-2.21,1.22-3.42,.16-1.64,.07-3.33,0-4.98-.29-6.69-1.62-13.55-5.1-19.36-2.96-4.94-7.56-9.09-13.07-10.92-2.6-.86-5.68-1.38-8.36-.6-2.31,.68-4.07,2.57-3.69,5.09,.32,2.13,2.53,3.6,4.47,2.26,1.76-1.22,2.2-3.63,.98-5.39-.11-.16-.23-.31-.36-.45-1.88-1.97-4.94-1.95-7.29-.95-1.41,.6-2.66,1.5-3.87,2.44-1.54,1.19-3.05,2.42-4.58,3.63l-18.37,14.58c-1.45,1.15-2.88,2.34-4.37,3.43-1.4,1.02-2.94,1.96-4.66,2.28-2.42,.46-6.26-.74-5.96-3.82,.11-1.19,.9-2.51,2.11-2.85,1.18-.34,2.3,.43,2.74,1.51,.97,2.38-.17,5.1-1.3,7.19-2.81,5.17-7.24,9.38-12.42,12.12-2.6,1.37-5.38,2.36-8.26,2.93-3.24,.64-6.42,.51-9.69,.31-3.17-.19-6.51-.17-9.33,1.48-2.32,1.36-3.87,3.82-3.49,6.56,.32,2.38,2.23,4.2,4.69,4,2.07-.17,4.14-1.93,3.41-4.17-.61-1.86-2.95-3.32-4.74-2.09-.4,.27-.02,.92,.38,.65h0Z"/>
        <path class="cls-3" d="M174.65,105.16h-18.14c-.59,0-1.07,.48-1.07,1.07v11.29c0,.59,.48,1.07,1.07,1.07h18.14c.59,0,1.07-.48,1.07-1.07v-11.29c0-.59-.48-1.07-1.07-1.07Z"/>
        <path class="cls-6" d="M174.65,105.16h-18.14c-.59,0-1.07,.48-1.07,1.07v11.29c0,.59,.48,1.07,1.07,1.07h18.14c.59,0,1.07-.48,1.07-1.07v-11.29c0-.59-.48-1.07-1.07-1.07Zm.35,8.11c0,2.39-1.93,4.34-4.32,4.38-1.84,.02,1.02,.03-1.2,.03-5.08,0-10.37-.05-12.35-.08-.54-.01-.97-.45-.98-.99v-10.38c0-.19,.16-.35,.35-.35h18.14c.19,0,.35,.16,.35,.35v7.04Z"/>
        <path class="cls-6" d="M172.41,98.66h-13.82c-.25,0-.47,.16-.56,.39l-2.13,5.99c-.11,.31,.05,.65,.36,.76,.06,.02,.13,.03,.2,.03l18.54,.03h0c.33,0,.59-.27,.59-.59,0-.08-.02-.16-.05-.23h-.03s.03,0,.03,0l-2.58-6.02c-.09-.22-.31-.36-.54-.36Z"/>
        <path class="cls-6" d="M175.59,105.17c0,.08-.02,.16-.05,.23l-2.58,4.64c-.09,.22-.31,.36-.55,.36h-13.82c-.25,0-.47-.16-.56-.39l-2.13-4.6c-.11-.31,.05-.65,.36-.76,0,0,0,0,0,0,.06-.02,.13-.03,.2-.03h2.26s.92,0,.92,0l12.16-.02h.92s2.26,0,2.26,0h0c.33,0,.59,.27,.59,.59Z"/>
        <path class="cls-6" d="M157.87,113.63c.27,0,4.04,.23,4.04,.5s-3.76,.49-4.04,.49-.5-.22-.5-.5,.22-.5,.5-.5Z"/>
        <path class="cls-3" d="M171.55,95.01h-11.65c-.65,0-1.18,.53-1.18,1.18v14.2h13.69c.11,0,.22-.03,.32-.09v-14.11c0-.65-.53-1.18-1.18-1.18Z"/>
        <path class="cls-7" d="M167.1,95.97h-6.39c-.59,0-1.07,.48-1.07,1.07v13.36h12.16v-9.73c0-2.6-2.11-4.7-4.7-4.7Z"/>
        <path class="cls-8" d="M169.73,109.21h-8.02c-.14,0-.26,.12-.26,.26,0,.14,.12,.26,.26,.26h8.02c.14,0,.26-.12,.26-.26,0-.14-.12-.26-.26-.26h0Z"/>
        <path class="cls-8" d="M169.73,108.18h-8.02c-.14,0-.26,.12-.26,.26,0,.14,.12,.26,.26,.26h8.02c.14,0,.26-.12,.26-.26,0-.14-.12-.26-.26-.26h0Z"/>
        <path class="cls-8" d="M165.19,107.14h-3.48c-.14,0-.26,.12-.26,.26,0,.14,.12,.26,.26,.26h3.48c.14,0,.26-.12,.26-.26,0-.14-.12-.26-.26-.26h0Z"/>
        <path class="cls-8" d="M169.73,104.98h-8.02c-.14,0-.26,.12-.26,.26,0,.14,.12,.26,.26,.26h8.02c.14,0,.26-.12,.26-.26,0-.14-.12-.26-.26-.26h0Z"/>
        <path class="cls-8" d="M169.73,103.95h-8.02c-.14,0-.26,.12-.26,.26,0,.14,.12,.26,.26,.26h8.02c.14,0,.26-.12,.26-.26,0-.14-.12-.26-.26-.26h0Z"/>
        <path class="cls-8" d="M165.19,102.91h-3.48c-.14,0-.26,.12-.26,.26,0,.14,.12,.26,.26,.26h3.48c.14,0,.26-.12,.26-.26,0-.14-.12-.26-.26-.26h0Z"/>
        <path class="cls-8" d="M169.73,100.75h-8.02c-.14,0-.26,.12-.26,.26,0,.14,.12,.26,.26,.26h8.02c.14,0,.26-.12,.26-.26,0-.14-.12-.26-.26-.26h0Z"/>
        <path class="cls-8" d="M169.73,99.72h-8.02c-.14,0-.26,.12-.26,.26,0,.14,.12,.26,.26,.26h8.02c.14,0,.26-.12,.26-.26,0-.14-.12-.26-.26-.26h0Z"/>
        <path class="cls-8" d="M165.19,98.68h-3.48c-.14,0-.26,.12-.26,.26,0,.14,.12,.26,.26,.26h3.48c.14,0,.26-.12,.26-.26,0-.14-.12-.26-.26-.26h0Z"/>
        <circle class="cls-4" cx="78.84" cy="41.96" r="7.74"/>
        <path class="cls-9" d="M87.68,37.53c-.81-1.26-2.34-2.1-3.82-1.86-.42-2.85-3.07-4.83-5.92-4.41-1.06,.15-2.05,.63-2.83,1.37-.46-.33-1.07-.39-1.59-.16-.51,.23-.95,.59-1.29,1.03-1.73,2.16-2.13,5.09-1.05,7.64-.18-.66,.48-1.28,1.14-1.42,.67-.15,1.36,0,2.04-.1,.87-.12,1.64-.63,2.51-.74,.73-.09,1.46,.09,2.17,.28,.71,.19,1.44,.38,2.17,.29,.73-.09,1.67,2.68,1.66,4.63,0,.37,.07,.84,.43,.92,.44,.1,.7-.52,1.12-.68,.41-.12,.83,.11,.96,.51,.11,.4,.02,.82-.24,1.14-.26,.31-.57,.58-.91,.79l.17,.14c.29,.38,.89,.4,1.31,.16,.4-.27,.72-.64,.94-1.07,.77-1.28,1.45-2.65,1.72-4.13,.27-1.47,.11-3.07-.71-4.33Z"/>
        <polygon class="cls-4" points="87.92 177.45 83.74 177.45 81.75 161.33 87.92 161.33 87.92 177.45"/>
        <path class="cls-9" d="M88.07,181.81h-12.85v-.16c0-2.76,2.24-5,5-5h0l2.35-1.78,4.38,1.78h1.12s0,5.16,0,5.16Z"/>
        <polygon class="cls-4" points="95.45 170.07 92.18 172.66 80.62 161.25 85.46 157.43 95.45 170.07"/>
        <path class="cls-9" d="M98.27,173.4l-10.08,7.97-.1-.13c-1.71-2.17-1.34-5.31,.82-7.02h0s.74-2.85,.74-2.85l4.54-1.32,.88-.7,3.2,4.05Z"/>
        <polygon class="cls-9" points="66.31 101.9 66.06 106.61 67.3 108.1 67.16 112.81 68.36 115.89 69.21 125.68 81.06 166.55 91.75 163.13 80.08 125.03 94.12 124.68 94.59 103.19 92.11 98.38 66.31 101.9"/>
        <polygon class="cls-9" points="92.77 121.44 94.12 124.68 88.9 170.28 81.58 170.82 78.41 119.83 92.77 121.44"/>
        <polygon class="cls-1" points="85.59 54.23 83.19 50.9 75.42 51.21 75.27 53.78 70.11 102.5 75.18 102.39 81.47 103.86 93.56 99.62 85.59 54.23"/>
        <path class="cls-11" d="M72.1,103.4h-11.91l3.11-21.93,1.26-8.89s-.89-6.35-1.32-9.67c-.04-.35,.02-.71,.18-1.03,.14-.3,.33-.58,.55-.83,1.45-1.67,4.71-3.12,6.75-3.91,1.05-.41,1.78-.64,1.78-.64l2.77-2.72c3.98,4.98-3.17,49.63-3.17,49.63Z"/>
        <path class="cls-11" d="M84.08,52.42l3.78,2.17s11.19,1.84,12.28,6.04l-4.12,12.43v26.13l-9.99,4s-8.61-42.22-1.95-50.77Z"/>
        <polyline class="cls-13" points="80.26 118.78 78.41 140.16 81.56 165.04"/>
        <path class="cls-4" d="M35.69,78.94c1.16-.84,2.78-.57,3.62,.59,.09,.12,.17,.26,.23,.39l9.15-1.04-2.17,4.27-8.36,.33c-1.34,.53-2.85-.12-3.39-1.45-.45-1.12-.07-2.4,.91-3.09h0Z"/>
        <polygon class="cls-11" points="74.11 60.26 76.73 61.82 62.06 82.49 44.15 84.01 43.44 78.9 56.63 74.94 63.15 62.3 74.11 60.26"/>
        <path class="cls-4" d="M127.51,77.2c-1.16-.84-2.78-.57-3.62,.59-.09,.12-.17,.26-.23,.39l-9.15-1.04,2.17,4.27,8.36,.33c1.34,.53,2.85-.12,3.39-1.45,.45-1.12,.07-2.4-.91-3.09h0Z"/>
        <polygon class="cls-11" points="89.09 58.51 86.47 60.07 101.14 80.74 119.05 82.26 119.76 77.15 106.56 73.19 100.04 60.55 89.09 58.51"/>
        <path class="cls-6" d="M53.42,53.65v-.27h-4.58v-6.37h-.27v6.37h-5.25v-4.92c-.09,.07-.18,.15-.27,.22v4.7h-3.47c-.04,.09-.08,.18-.11,.27h3.58v5.35h-4.44c0,.09,.01,.18,.02,.27h4.42v4.27h-3.31c.04,.09,.08,.18,.13,.27h3.19v3.59h.27v-3.59h5.25v3.59h.27v-3.59h4.58v-.27h-4.58c0-2.36,1.91-4.27,4.27-4.27h.31v-.27h-4.58v-5.35h4.58Zm-4.85,9.9h-5.25v-4.27h5.25v4.27Zm0-4.55h-5.25v-.11c0-2.9,2.35-5.25,5.25-5.25h0v5.35Z"/>
        <path class="cls-11" d="M93.2,15.84c-.07,.03-.16,0-.19-.08l-.38-.92c-.03-.07,0-.16,.08-.19,.07-.03,.16,0,.19,.08l.38,.92c.03,.07,0,.16-.08,.19Z"/>
        <path class="cls-11" d="M100.85,9.05h0l-1.13-2.74c-.36-.87-1.36-1.29-2.24-.93h0s-5.79,2.4-5.79,2.4c-.87,.36-1.29,1.36-.93,2.24h0s6.21,15,6.21,15c.36,.87,1.36,1.29,2.24,.93h0s5.79-2.4,5.79-2.4c.87-.36,1.29-1.36,.93-2.24h0l-4.27-10.32h0c.06-.02,.08-.09,.06-.14h0s-.72-1.75-.72-1.75c-.02-.06-.09-.08-.14-.06h0Z"/>
        <path class="cls-2" d="M99.39,6.46l6.2,14.98c.27,.65-.04,1.39-.68,1.67,0,0,0,0-.01,0l-5.82,2.41c-.65,.27-1.4-.04-1.67-.69l-6.2-14.98c-.27-.65,.04-1.4,.69-1.67,0,0,0,0,0,0l.71-.29c0,.34,.28,.61,.61,.61,.08,0,.16-.02,.23-.05l3.32-1.37c.07-.03,.14-.07,.19-.13,.24-.23,.24-.62,0-.86,0,0,0,0,0,0l.76-.31c.65-.27,1.4,.04,1.67,.69Z"/>
        <path class="cls-11" d="M92.56,14.27c-.07,.03-.16,0-.19-.08l-.38-.92c-.03-.07,0-.16,.08-.19,.07-.03,.16,0,.19,.08l.38,.92c.03,.07,0,.16-.08,.19Z"/>
        <path class="cls-11" d="M91.79,12.51c-.07,.03-.16,0-.19-.08l-.38-.92c-.03-.07,0-.16,.08-.19,.07-.03,.16,0,.19,.08h0l.38,.92c.03,.07,0,.16-.08,.19Z"/>
        <path class="cls-7" d="M93.93,7.52c-.03-.07,0-.16,.08-.19l.92-.38c.07-.03,.16,0,.19,.08s0,.16-.08,.19l-.92,.38c-.07,.03-.16,0-.19-.08Z"/>
        <circle class="cls-7" cx="95.49" cy="6.87" r=".15"/>
        <path class="cls-2" d="M127.12,71.73s-.04,0-.06,0c-.44-.02-.84-.25-1.08-.62-.88-1.31-1.96-2.48-3.2-3.47-.75-.6-1.54-1.16-2.29-1.7-1.96-1.39-3.8-2.7-4.82-4.51-2.23-3.95,.4-9.45,4.15-11.92,4.21-2.77,9.75-3.2,15.11-3.26,.56,0,1.11,0,1.67,0h0c9.65,0,19.29,.88,28.78,2.63,3.16,.58,6.46,1.3,9.12,3.03,2.64,1.72,4.24,4.43,4.09,6.91-.23,3.61-4.06,6.31-7.54,7.02-3.32,.67-6.77,.22-10.43-.26-.81-.11-1.64-.22-2.47-.31-8.97-1.04-25.81,2.16-26.52,2.29l-.71,.14-2.74,3.53c-.25,.33-.64,.52-1.05,.52Z"/>
        <path class="cls-7" d="M167.04,54.11h-37.89c-.46,0-.82-.37-.82-.83,0-.45,.37-.82,.82-.82h37.89c.46,0,.82,.37,.82,.83,0,.45-.37,.82-.82,.82Z"/>
        <path class="cls-7" d="M167.04,59.17h-37.89c-.46,0-.82-.37-.82-.83,0-.45,.37-.82,.82-.82h37.9c.46,0,.82,.37,.82,.83,0,.45-.37,.82-.82,.82Z"/>
        <path class="cls-7" d="M133.56,64.23h-4.42c-.46,0-.82-.37-.82-.83,0-.45,.37-.82,.82-.82h4.42c.46,0,.82,.37,.82,.83,0,.45-.37,.82-.82,.82Z"/>
        <circle class="cls-7" cx="127.59" cy="73.47" r="4.01"/>
        <path class="cls-11" d="M127.59,77.52c-2.24,0-4.06-1.82-4.06-4.06s1.82-4.06,4.06-4.06c2.24,0,4.06,1.82,4.06,4.06,0,2.24-1.82,4.05-4.06,4.06Z"/>
        <path class="cls-7" d="M127.29,75.07s-.02,0-.03,0c-.15,0-.29-.08-.39-.2l-.67-.86c-.18-.23-.14-.56,.09-.74h0s.02-.02,.02-.02c.23-.18,.56-.14,.74,.09,0,0,0,0,0,0,.13,.17,.37,.2,.54,.07,.02-.01,.03-.02,.04-.04l1.36-1.44c.2-.21,.53-.22,.74-.02l.02,.02c.21,.2,.22,.53,.02,.74,0,0,0,0,0,0l-2.11,2.23c-.1,.1-.24,.16-.38,.16Z"/>
        <path class="cls-11" d="M52.75,21.66l-2.45-14.74c-.1-.62,.32-1.21,.94-1.31l11.14-1.85c.62-.1,1.21,.32,1.31,.94l2.45,14.74c.1,.62-.32,1.21-.94,1.31l-11.14,1.85c-.62,.1-1.21-.32-1.31-.94Z"/>
        <path class="cls-7" d="M52.87,17.07l-1.58-9.48c-.1-.58,.3-1.13,.88-1.23l9.57-1.59c.58-.1,1.13,.3,1.23,.88l2.18,13.12c.1,.58-.3,1.13-.88,1.23l-5.93,.99c-2.59,.43-5.04-1.32-5.48-3.91Z"/>
        <path class="cls-2" d="M53.28,9.98c-.09-.57,.29-1.11,.86-1.2l6.64-1.1c.57-.09,1.11,.29,1.2,.86,.09,.57-.29,1.11-.86,1.2l-6.64,1.1c-.57,.09-1.11-.29-1.2-.86Z"/>
        <path class="cls-2" d="M53.81,13.18c-.09-.57,.29-1.11,.86-1.2l6.64-1.1c.57-.09,1.11,.29,1.2,.86,.09,.57-.29,1.11-.86,1.2h0l-6.64,1.1c-.57,.09-1.11-.29-1.2-.86Z"/>
        <path class="cls-2" d="M54.35,16.39c-.09-.57,.29-1.11,.86-1.2l6.64-1.1c.57-.09,1.11,.29,1.2,.86,.09,.57-.29,1.11-.86,1.2l-6.64,1.1c-.57,.09-1.11-.29-1.2-.86Z"/>
        <path class="cls-3" d="M110.94,171.62l.18-3.97c1.84-.98,3.89-1.5,5.98-1.51-2.87,2.35-2.51,6.87-4.46,10.03-1.25,1.99-3.33,3.3-5.65,3.56l-2.4,1.47c-.67-3.72,.33-7.55,2.72-10.47,.67-.8,1.44-1.52,2.29-2.13,.58,1.52,1.34,3.02,1.34,3.02Z"/>
        <path class="cls-10" d="M142.79,181.63c0,.21-.17,.39-.39,.39H38.06c-.21,0-.39-.17-.39-.39s.17-.39,.39-.39h104.34c.21,0,.39,.17,.39,.39h0Z"/>
        <path class="cls-11" d="M38.32,76.95c-1.85-.04-11.79-.32-13.42-.25-.09-.32-3.18,3.64-3.26,3.66-.17,.18-.16,.47,.02,.64,.04,.04,.08,.07,.13,.09,.18,.11,16.21-.19,16.4-.15,.17,0,.33-.1,.4-.26l.11-.24c.01-.41,.15-2.51,.02-2.87,.1-.22,0-.49-.23-.58-.06-.02-.12-.04-.18-.04Z"/>
        <path class="cls-12" d="M38.69,80.43c-.09,.23-.21,.51-.5,.5l-16.23,.18c-.25,0-.45-.21-.44-.45,0-.07,.02-.14,.05-.2l17.13-.02Z"/>
        <path class="cls-11" d="M24.97,76.64c-.17-.3-4.51-21.77-4.88-21.95l-2.96-3.62-.26-.2c-.37-.2-1.25-.07-1.17,.5h0c.7,3.34,5.17,22.34,5.27,25.31l.54,3.77c.04,.25,.27,.43,.53,.39,.02,0,.03,0,.05,0,.31-.03,.59-.23,.72-.52,.04-.13,2.38-3.59,2.17-3.66Z"/>
        <path class="cls-12" d="M17.13,51.07l5.67,29.24c-.19,.48-1.08,.82-1.28,.19,0,0-5.81-29.11-5.82-29.13-.06-.7,1.1-.72,1.44-.3Z"/>
        <polygon class="cls-2" points="17.3 52.26 20.18 56.27 23.41 71.62 21.91 72.93 17.3 52.26"/>
        <path class="cls-9" d="M36.46,79.01l.8,.03c.01-.23,.05-.46,.11-.69,.12-.57,.23-1.25-.27-1.24-.34-.03-.45,.39-.51,.86-.02,.35-.06,.7-.13,1.04Z"/>
        <path class="cls-9" d="M31.89,77.94l.54,.02h.26c0-.27,.13-.86-.19-1.01-.05-.02-.11-.03-.16-.03-.3-.02-.39,.21-.42,.48-.02,.16,0,.33-.01,.46,0,.03,0,.05,0,.08Z"/>
        <path class="cls-9" d="M30.3,77.88l.54,.02h.26c0-.32,.17-1.03-.36-1.04-.48-.03-.42,.59-.43,.94,0,.03,0,.05,0,.08Z"/>
        <path class="cls-9" d="M28.71,77.82l.54,.02h.26c0-.31,.17-1.03-.36-1.04-.48-.03-.42,.59-.43,.94,0,.03,0,.05,0,.08Z"/>
        <path class="cls-9" d="M27.12,77.75l.54,.02h.26c0-.32,.17-1.03-.36-1.04-.48-.03-.42,.59-.43,.94,0,.03,0,.05,0,.08Z"/>
        <path class="cls-9" d="M25.53,77.69l.54,.02h.26c0-.29,.14-.92-.24-1.02h0s-.07-.02-.11-.01c-.05,0-.09,0-.13,.01h0c-.33,.09-.29,.61-.3,.93,0,.03,0,.05,0,.08Z"/>
        <path class="cls-9" d="M34.85,77.52l.8,.03s0-.06,0-.1c.02-.19,.02-.38,0-.57-.03-.21-.12-.37-.37-.38-.26-.01-.36,.15-.4,.36,0,.04-.02,.07-.02,.11h0c-.02,.2,0,.41-.02,.55Z"/>
        <path class="cls-9" d="M33.26,77.45l.8,.03c.02-.21,.02-.43,.01-.64-.02-.22-.11-.4-.37-.4-.26-.02-.37,.16-.41,.38-.04,.21-.02,.47-.03,.63Z"/>
        <path class="cls-9" d="M31.67,77.39h.24s.56,.03,.56,.03c0-.12,.02-.29,.02-.47,0-.05,0-.1,0-.15-.02-.23-.1-.42-.37-.43-.28-.01-.37,.18-.41,.41-.03,.21-.01,.45-.03,.61Z"/>
        <path class="cls-9" d="M34.87,78.95l.8,.03c0-.32,.17-1.04-.36-1.05-.52-.03-.41,.69-.44,1.02Z"/>
        <path class="cls-9" d="M33.28,78.89l.8,.03c0-.33,.17-1.04-.36-1.05-.52-.03-.41,.69-.44,1.02Z"/>
        <path class="cls-9" d="M31.69,78.82l.8,.03c0-.23,.08-.66-.06-.89-.06-.1-.18-.16-.3-.16-.08,0-.16,.01-.23,.06-.25,.17-.18,.7-.21,.96Z"/>
        <path class="cls-9" d="M30.1,78.76l.8,.03c0-.23,.08-.66-.05-.89-.06-.11-.18-.17-.3-.16-.08,0-.16,.01-.23,.06-.25,.17-.18,.7-.21,.96Z"/>
        <path class="cls-9" d="M28.51,78.7l.8,.03c0-.23,.08-.66-.06-.89-.06-.1-.18-.16-.3-.16-.08,0-.16,.01-.23,.06-.25,.17-.18,.7-.21,.96Z"/>
        <path class="cls-9" d="M26.92,78.63l.8,.03c0-.23,.08-.66-.05-.89-.06-.11-.18-.17-.3-.16-.08,0-.16,.01-.23,.06-.25,.17-.18,.7-.21,.96Z"/>
        <path class="cls-9" d="M25.33,78.57l.8,.03c0-.23,.08-.66-.06-.89-.06-.1-.18-.16-.3-.16-.08,0-.16,.01-.23,.06-.25,.17-.18,.7-.21,.96Z"/>
      </g>
    </g>
  </g>
</svg>