<svg width="3295" height="1594" viewBox="0 0 3295 1594" fill="none" xmlns="http://www.w3.org/2000/svg">
<g clip-path="url(#clip0_793_521)">
<path d="M448.326 1274.34H2926.42V20.4448H448.326V1274.34Z" fill="white"/>
<path d="M2946.73 1294.79H427.872V0H2946.87V1294.79H2946.73ZM468.779 1253.9H2905.96V40.8895H468.779V1254.04V1253.9Z" fill="#E5E5E4"/>
<path d="M1604.8 285.674V711.284H985.929L871.499 848.457L884.628 711.284H828.933V285.674H1604.8Z" fill="#58587A"/>
<path d="M1979.46 310.954V583.781H2376.24L2449.62 671.776L2441.19 583.781H2476.85V310.954H1979.46Z" fill="#F0F0F0"/>
<path d="M341.634 1553.66H377.428L394.427 1415.66H341.634V1553.66Z" fill="#F6B6B8"/>
<path d="M332.513 1542.06H402.995C427.872 1542.06 447.911 1562.23 447.911 1586.96V1588.47H332.513V1542.06Z" fill="#302F42"/>
<path d="M771.717 1552.56L806.544 1543.99L790.098 1405.85L738.825 1418.56L771.717 1552.56Z" fill="#F6B6B8"/>
<path d="M760.108 1543.44L828.518 1526.59C852.565 1520.65 876.889 1535.43 882.831 1559.46L883.246 1560.85L771.165 1588.47L760.108 1543.44Z" fill="#302F42"/>
<path d="M319.66 1520.79L327.123 1482.8C327.123 1482.8 340.805 1335.95 439.066 1189.39L470.991 1030.11C470.991 1030.11 461.455 909.653 553.221 844.313L581.552 824.835L680.642 830.499L703.584 955.792L749.743 1252.1C749.743 1252.1 761.629 1253.21 766.051 1287.47C775.172 1301.83 780.424 1318.27 781.668 1335.26C781.668 1335.26 805.3 1400.33 811.657 1448.26L810.967 1495.09L761.076 1521.61L657.148 1228.07L582.796 1063.96C582.796 1063.96 547.002 1179.58 492.274 1278.63C492.274 1278.63 417.23 1440.94 402.305 1473.82L385.997 1527.83L319.798 1520.79H319.66Z" fill="#302F42"/>
<path d="M650.929 572.868C690.008 572.868 721.688 541.202 721.688 502.14C721.688 463.078 690.008 431.412 650.929 431.412C611.85 431.412 580.17 463.078 580.17 502.14C580.17 541.202 611.85 572.868 650.929 572.868Z" fill="#F6B6B8"/>
<path d="M650.929 572.868C690.008 572.868 721.688 541.202 721.688 502.14C721.688 463.078 690.008 431.412 650.929 431.412C611.85 431.412 580.17 463.078 580.17 502.14C580.17 541.202 611.85 572.868 650.929 572.868Z" fill="#F6B6B9"/>
<path d="M553.359 845.142L576.715 786.708C560.131 733.248 561.236 675.92 579.617 623.012L584.04 619.283C623.012 587.234 657.148 593.036 688.935 632.268C694.048 638.622 699.991 644.286 706.763 648.983C720.721 658.791 742.971 712.113 713.673 743.332L690.178 880.091C692.666 955.654 637.8 927.197 553.359 844.865V845.142Z" fill="#58587A"/>
<path d="M888.636 765.711C877.165 757.008 860.995 759.357 852.289 770.684C851.321 771.928 850.492 773.171 849.801 774.552L790.789 769.994L779.18 805.219L862.654 810.607C875.921 816.271 891.262 810.192 896.928 796.931C901.627 785.88 898.172 773.033 888.498 765.849L888.636 765.711Z" fill="#F6B6B8"/>
<path d="M831.973 822.763L663.644 791.405L608.916 699.68C601.591 679.374 612.094 656.995 632.41 649.674C652.726 642.352 675.114 652.851 682.439 673.157L708.144 744.161L841.232 766.126L831.973 822.763Z" fill="#CDCCCC"/>
<path d="M524.613 486.668C562.165 486.668 592.608 456.239 592.608 418.703C592.608 381.167 562.165 350.738 524.613 350.738C487.06 350.738 456.618 381.167 456.618 418.703C456.618 456.239 487.06 486.668 524.613 486.668Z" fill="#302F42"/>
<path d="M466.016 474.926C496.42 496.89 538.848 490.121 560.96 459.73C565.383 453.514 568.838 446.607 571.049 439.286C566.35 476.445 532.352 502.83 495.176 498.272C458 493.575 431.603 459.592 436.164 422.433C436.579 418.703 437.408 415.111 438.514 411.52C435.473 436.108 445.976 460.559 466.154 475.064L466.016 474.926Z" fill="#302F42"/>
<path d="M734.264 474.926C722.379 453.653 717.818 444.812 702.616 431.965C689.072 420.499 672.488 417.184 659.083 427.959C618.313 410.415 571.048 429.064 553.497 469.815C535.945 510.566 554.602 557.81 595.372 575.354C636.141 592.898 683.406 574.249 700.958 533.498C705.242 523.413 707.591 512.639 707.591 501.587C707.591 498.548 707.453 495.509 707.039 492.47C718.647 490.812 722.655 476.446 734.402 474.788L734.264 474.926Z" fill="#302F42"/>
<path d="M2823.04 983.144C2823.87 965.462 2838.94 951.786 2856.62 952.615C2858.56 952.615 2860.36 952.891 2862.29 953.444L2904.72 893.629L2947.42 910.482L2886.34 994.057C2881.22 1011.19 2863.26 1020.86 2846.12 1015.74C2831.89 1011.46 2822.35 997.925 2823.18 983.144H2823.04Z" fill="#A1626A"/>
<path d="M2869.62 931.618L2945.07 804.805L2914.39 722.888L2956.27 611.271L2957.79 611.961C2958.76 612.376 2982.53 623.012 2986.12 661.001L3034.21 812.126L2905.82 978.723L2869.62 931.756V931.618Z" fill="#58587A"/>
<path d="M2459.85 465.256C2477.4 467.466 2489.84 483.491 2487.76 501.035C2487.49 502.969 2487.07 504.764 2486.52 506.56L2542.91 553.528L2522.73 594.694L2444.09 527.281C2427.51 520.927 2419.22 502.278 2425.57 485.563C2430.96 471.611 2445.06 463.184 2459.85 465.118V465.256Z" fill="#A1626A"/>
<path d="M2507.53 515.677L2628.18 600.633L2712.34 576.321L2820.42 626.742L2819.59 628.261C2819.03 629.228 2806.6 652.16 2768.45 652.712L2613.94 689.043L2457.78 548.14L2507.39 515.677H2507.53Z" fill="#58587A"/>
<path d="M2728.37 1549.52H2686.36L2666.46 1387.62H2728.37V1549.52Z" fill="#A1626A"/>
<path d="M2656.37 1537.5H2737.36V1588.47H2605.51C2605.51 1560.29 2628.32 1537.5 2656.51 1537.5H2656.37Z" fill="#302F42"/>
<path d="M2896.01 1549.52H2854.14L2834.1 1387.62H2896.15L2896.01 1549.52Z" fill="#A1626A"/>
<path d="M2824.15 1537.5H2905.13V1588.47H2773.29C2773.29 1560.29 2796.09 1537.5 2824.29 1537.5H2824.15Z" fill="#302F42"/>
<path d="M2910.94 958.969L2907.62 1198.37L2904.17 1513.19L2828.85 1506.28L2791.26 1071.83L2743.3 1506.28H2665.49L2657.75 1068.38L2685.12 972.645L2910.94 958.969Z" fill="#302F42"/>
<path d="M2677.65 974.027L2666.18 973.474L2719.53 680.064L2697.69 591.378C2695.34 581.846 2700.46 572.038 2709.72 568.585L2748.97 553.804L2762.79 515.677L2872.24 527.419L2874.87 557.257C2886.75 561.125 2984.32 593.588 2977.69 630.61C2971.06 667.217 2931.81 782.15 2929.73 787.952L2922.82 952.891L2921.99 953.305C2921.03 953.858 2845.57 990.88 2763.62 990.88C2734.04 991.432 2704.74 985.63 2677.65 973.888V974.027Z" fill="#58587A"/>
<path d="M2813.23 497.029C2856.74 497.029 2892 461.776 2892 418.289C2892 374.802 2856.74 339.549 2813.23 339.549C2769.72 339.549 2734.46 374.802 2734.46 418.289C2734.46 461.776 2769.72 497.029 2813.23 497.029Z" fill="#A1626A"/>
<path d="M2876.94 494.404C2861.88 510.428 2834.1 501.863 2832.02 480.037C2831.89 478.379 2831.89 476.584 2832.02 474.926C2832.99 465.256 2838.66 456.415 2837.28 446.193C2837 443.706 2836.03 441.22 2834.51 439.148C2822.49 423.123 2794.43 446.331 2783.24 431.826C2776.33 422.985 2784.48 408.895 2779.09 398.949C2772.05 385.826 2751.32 392.318 2738.32 385.135C2723.81 377.123 2724.64 354.882 2734.18 341.344C2745.79 324.906 2766.24 316.065 2786.42 314.821C2806.6 313.578 2826.64 318.966 2845.43 326.287C2866.85 334.576 2888 346.179 2901.13 364.828C2917.16 387.621 2918.68 418.427 2910.66 445.088C2905.82 461.388 2889.24 481.142 2876.94 494.266V494.404Z" fill="#302F42"/>
<path d="M2023.41 1527.69L2035.16 1497.58L1924.59 1438.18L1907.32 1482.52L2023.41 1527.69Z" fill="#F6B6B9"/>
<path d="M2086.15 1449.23C2065.28 1441.08 2041.79 1451.44 2033.63 1472.3L2025.76 1492.61L2013.6 1523.96L2010.56 1531.7L2049.53 1546.89L2087.26 1449.92L2086.01 1449.37L2086.15 1449.23Z" fill="#302F42"/>
<path d="M2013.6 1469.81L2008.48 1483.35L1995.77 1517.06L1995.49 1517.89C1963.15 1522.03 1927.63 1513.88 1894.88 1501.17C1881.75 1496.06 1868.9 1490.4 1856.32 1484.04C1837.8 1474.65 1821.08 1464.84 1807.95 1456.27C1788.05 1443.43 1775.61 1433.9 1775.61 1433.9C1775.61 1433.9 1772.3 1436.8 1766.49 1441.91C1758.61 1448.68 1745.9 1459.18 1730.01 1471.61C1723.93 1476.44 1717.29 1481.42 1710.38 1486.53C1658.69 1524.79 1592.5 1422.71 1592.5 1422.71C1592.5 1422.71 1611.15 1410.83 1615.99 1408.48C1631.61 1401.02 1668.51 1383.61 1700.29 1368C1716.6 1359.99 1731.66 1352.39 1741.75 1347.14C1777.41 1328.22 1821.77 1364.14 1821.77 1364.14L2013.73 1469.81H2013.6Z" fill="#302F42"/>
<path opacity="0.14" d="M2013.6 1469.81L2008.48 1483.35L1995.77 1517.06L1995.49 1517.89C1963.15 1522.03 1927.63 1513.88 1894.88 1501.17C1881.75 1496.06 1868.9 1490.4 1856.32 1484.04C1837.8 1474.65 1821.08 1464.84 1807.95 1456.27C1788.05 1443.43 1775.61 1433.9 1775.61 1433.9C1775.61 1433.9 1772.3 1436.8 1766.49 1441.91C1758.61 1448.68 1745.9 1459.18 1730.01 1471.61C1723.93 1476.44 1717.29 1481.42 1710.38 1486.53C1658.69 1524.79 1592.5 1422.71 1592.5 1422.71C1592.5 1422.71 1611.15 1410.83 1615.99 1408.48C1631.61 1401.02 1668.51 1383.61 1700.29 1368C1716.6 1359.99 1731.66 1352.39 1741.75 1347.14C1777.41 1328.22 1821.77 1364.14 1821.77 1364.14L2013.73 1469.81H2013.6Z" fill="#010101"/>
<path d="M1497 1186.62H1344.15C1337.65 1186.62 1332.26 1181.38 1332.26 1174.74V1108.85C1332.26 1060.09 1371.79 1020.58 1420.43 1020.58C1469.22 1020.58 1508.75 1060.09 1508.75 1108.71V1174.61C1508.75 1181.1 1503.49 1186.49 1496.86 1186.49L1497 1186.62Z" fill="#302F42"/>
<path d="M1642.39 1269.23C1628.98 1271.58 1620 1284.43 1622.35 1297.83C1622.62 1299.21 1623.04 1300.73 1623.45 1301.97L1581.85 1340.24L1598.85 1371.18L1656.76 1316.48C1669.34 1310.95 1675 1296.31 1669.47 1283.74C1664.78 1273.24 1653.58 1267.3 1642.25 1269.37L1642.39 1269.23Z" fill="#F6B6B9"/>
<path d="M1517.31 1442.87C1515.38 1442.87 1513.58 1442.87 1511.65 1442.6C1488.84 1440.66 1468.67 1427.26 1458.16 1406.96L1391.55 1278.9C1382.15 1260.94 1389.2 1238.7 1407.17 1229.31C1424.03 1220.61 1444.76 1226.13 1455.12 1242.02L1516.48 1379.74L1600.1 1311.92L1648.47 1330.7L1566.79 1420.91C1554.08 1434.86 1536.11 1442.74 1517.31 1442.87Z" fill="#58587A"/>
<path d="M2014.01 1570.1L2028.11 1540.95L1922.38 1473.13L1901.79 1516.09L2014.01 1570.1Z" fill="#F6B6B9"/>
<path d="M2082.56 1496.61C2062.38 1486.94 2038.2 1495.37 2028.52 1515.54L2019.12 1535.15L2004.61 1565.41L2001.02 1572.86L2038.75 1590.96L2083.8 1497.16L2082.56 1496.61Z" fill="#302F42"/>
<path d="M2008.76 1511.53L2002.68 1524.65L1987.48 1557.25L1987.06 1558.08C1954.45 1559.74 1919.76 1548.83 1887.97 1533.77C1875.26 1527.69 1862.82 1521.06 1850.93 1513.74C1833.1 1502.97 1817.35 1491.78 1804.77 1482.38C1785.84 1468.02 1774.23 1457.52 1774.23 1457.52C1774.23 1457.52 1770.78 1460.14 1764.42 1464.84C1755.99 1470.92 1742.58 1480.59 1725.72 1491.64C1719.23 1495.92 1712.32 1500.34 1704.99 1505.04C1650.54 1539.3 1573.15 1580.88 1507.36 1589.72C1391.69 1605.19 1418.91 1450.89 1418.91 1450.89L1510.96 1403.09L1550.07 1410.96L1593.6 1419.81L1609.08 1422.98C1609.08 1422.98 1611.98 1421.88 1617.1 1419.94C1633.27 1413.73 1671.41 1399.08 1704.3 1386.1C1721.3 1379.33 1736.78 1372.98 1747.28 1368.42C1784.32 1352.25 1825.78 1391.49 1825.78 1391.49L2009.03 1511.53H2008.76Z" fill="#302F42"/>
<path d="M1250.45 1593.31C1263.71 1590.27 1272.01 1577.01 1268.97 1563.75C1268.69 1562.37 1268.14 1560.98 1267.58 1559.6L1307.11 1519.27L1288.45 1489.29L1233.45 1547.03C1221.15 1553.25 1216.31 1568.17 1222.53 1580.46C1227.64 1590.69 1239.25 1596.07 1250.45 1593.45V1593.31Z" fill="#F6B6B9"/>
<path d="M1442.27 1189.53C1476.31 1189.53 1503.91 1161.94 1503.91 1127.92C1503.91 1093.89 1476.31 1066.3 1442.27 1066.3C1408.23 1066.3 1380.63 1093.89 1380.63 1127.92C1380.63 1161.94 1408.23 1189.53 1442.27 1189.53Z" fill="#F6B6B9"/>
<path d="M1362.11 1298.93L1415.74 1451.03L1415.46 1451.58C1408 1463.87 1405.51 1473.82 1408.41 1480.31C1409.93 1483.63 1412.83 1486.11 1416.43 1487.22L1543.43 1398.53L1539.01 1363.03L1539.29 1362.62C1551.59 1343 1555.6 1325.18 1551.17 1309.71C1547.17 1297.28 1538.46 1286.78 1526.99 1280.56L1526.57 1280.15L1463.28 1203.06L1378.56 1218.12L1362.39 1298.93H1362.11Z" fill="#58587A"/>
<path d="M1280.44 1565.82L1244.5 1521.61L1331.16 1378.64L1371.51 1253.76C1380.08 1227.38 1408.27 1213.01 1434.67 1221.44C1461.07 1230 1475.44 1258.18 1467.01 1284.57C1465.63 1288.99 1463.55 1293.13 1461.07 1297L1386.85 1408.06L1280.44 1565.82Z" fill="#58587A"/>
<path d="M1529.75 1115.48H1436.33L1435.36 1102.08L1430.52 1115.48H1416.15L1414.22 1088.96L1404.68 1115.48H1376.9V1114.1C1376.9 1075.56 1408.13 1044.34 1446.69 1044.34H1459.82C1498.38 1044.34 1529.61 1075.56 1529.61 1114.1V1115.48H1529.75Z" fill="#302F42"/>
<path d="M1435.64 1198.92C1434.95 1198.92 1434.26 1198.92 1433.56 1198.78L1365.15 1186.76V1073.76H1440.47L1438.68 1075.97C1412.7 1106.23 1432.32 1155.27 1446.28 1181.79C1448.35 1185.8 1448.08 1190.63 1445.31 1194.22C1443.1 1197.26 1439.51 1199.06 1435.78 1199.06L1435.64 1198.92Z" fill="#302F42"/>
<path d="M2457.78 996.405V1155.54H1752.12L1650.13 1277.8L1661.87 1155.54H1612.26V996.405H2457.78Z" fill="#F0F0F0"/>
<path d="M1905.66 1104.57C1921.61 1104.57 1934.54 1091.64 1934.54 1075.7C1934.54 1059.75 1921.61 1046.83 1905.66 1046.83C1889.71 1046.83 1876.78 1059.75 1876.78 1075.7C1876.78 1091.64 1889.71 1104.57 1905.66 1104.57Z" fill="white"/>
<path d="M1808.23 1104.57C1824.18 1104.57 1837.11 1091.64 1837.11 1075.7C1837.11 1059.75 1824.18 1046.83 1808.23 1046.83C1792.28 1046.83 1779.34 1059.75 1779.34 1075.7C1779.34 1091.64 1792.28 1104.57 1808.23 1104.57Z" fill="white"/>
<path d="M1710.8 1104.57C1726.75 1104.57 1739.68 1091.64 1739.68 1075.7C1739.68 1059.75 1726.75 1046.83 1710.8 1046.83C1694.84 1046.83 1681.91 1059.75 1681.91 1075.7C1681.91 1091.64 1694.84 1104.57 1710.8 1104.57Z" fill="white"/>
<path d="M3291.41 1591.51H3.59324C1.65842 1591.51 0 1589.86 0 1587.92C0 1585.99 1.65842 1584.33 3.59324 1584.33H3291.41C3293.34 1584.33 3295 1585.99 3295 1587.92C3295 1589.86 3293.34 1591.51 3291.41 1591.51Z" fill="#CBCACA"/>
</g>
<defs>
<clipPath id="clip0_793_521">
<rect width="3295" height="1594" fill="white"/>
</clipPath>
</defs>
</svg>
