<svg width="19" height="19" viewBox="0 0 19 19" fill="none" xmlns="http://www.w3.org/2000/svg">
<g clip-path="url(#clip0_825_542)">
<path d="M4.9802 2.73C5.2702 2.73 5.5102 2.49 5.5102 2.2V0.53C5.5102 0.24 5.2702 0 4.9802 0C4.6902 0 4.4502 0.24 4.4502 0.53V2.2C4.4502 2.49 4.6902 2.73 4.9802 2.73Z" fill="#59587A"/>
<path d="M2.73 4.9802C2.73 4.6902 2.49 4.4502 2.2 4.4502H0.53C0.24 4.4502 0 4.6902 0 4.9802C0 5.2702 0.24 5.5102 0.53 5.5102H2.2C2.49 5.5102 2.73 5.2702 2.73 4.9802Z" fill="#59587A"/>
<path d="M6.9501 3.53993C7.0801 3.53993 7.2201 3.48993 7.3201 3.38993L8.5001 2.20993C8.7001 1.99993 8.7001 1.66993 8.5001 1.45993C8.2901 1.25993 7.9601 1.24993 7.7501 1.45993L6.5701 2.63993C6.3601 2.84993 6.3601 3.17993 6.5701 3.38993C6.6701 3.48993 6.8101 3.53993 6.9401 3.53993H6.9501Z" fill="#59587A"/>
<path d="M2.21 1.4598C2.11 1.3598 1.98 1.2998 1.84 1.2998C1.7 1.2998 1.57 1.3498 1.47 1.4598C1.26 1.6698 1.26 1.9998 1.47 2.2098L2.65 3.3898C2.75 3.4898 2.88 3.5498 3.02 3.5498C3.16 3.5498 3.3 3.4898 3.39 3.3898C3.6 3.1798 3.6 2.8498 3.39 2.6398L2.21 1.4598Z" fill="#59587A"/>
<path d="M18.7099 17.9599L12.5999 11.8499L17.4199 9.91994C17.6199 9.83994 17.7499 9.63994 17.7499 9.42994C17.7499 9.21994 17.6199 9.01994 17.4099 8.93994L4.61994 3.92994C4.41994 3.84994 4.19994 3.89994 4.04994 4.04994C3.89994 4.19994 3.84994 4.41994 3.92994 4.61994L8.93994 17.4199C9.01994 17.6199 9.20994 17.7499 9.42994 17.7599C9.64994 17.7599 9.83994 17.6299 9.91994 17.4299L11.8499 12.6099L17.9599 18.7199C18.0599 18.8199 18.1999 18.8699 18.3299 18.8699C18.4599 18.8699 18.5999 18.8199 18.6999 18.7199C18.9099 18.5099 18.9099 18.1799 18.6999 17.9699L18.7099 17.9599ZM15.7899 9.43994L11.4599 11.1699C11.3299 11.2199 11.2199 11.3299 11.1699 11.4599L9.43994 15.7799L5.35994 5.35994L15.7899 9.43994Z" fill="#59587A"/>
<path d="M2.64023 6.56979L1.46023 7.74979C1.25023 7.95979 1.25023 8.28979 1.46023 8.49979C1.56023 8.59979 1.70023 8.64979 1.83023 8.64979C1.96023 8.64979 2.10023 8.59979 2.20023 8.49979L3.38023 7.31979C3.58023 7.10979 3.58023 6.77979 3.38023 6.56979C3.18023 6.35979 2.84023 6.36979 2.63023 6.56979H2.64023Z" fill="#59587A"/>
</g>
<defs>
<clipPath id="clip0_825_542">
<rect width="18.86" height="18.86" fill="white"/>
</clipPath>
</defs>
</svg>
