<svg width="29" height="25" viewBox="0 0 29 25" fill="none" xmlns="http://www.w3.org/2000/svg">
<g clip-path="url(#clip0_825_549)">
<path d="M14.2899 4.93C16.4699 4.93 18.5199 5.89 19.9299 7.55C20.3699 8.07 21.0199 8.39 21.6999 8.42C22.3799 8.44 23.0599 8.19 23.5499 7.7C24.4499 6.8 24.5199 5.35 23.7199 4.4C21.3799 1.6 17.9399 0 14.2899 0C7.65988 0 2.23988 5.26 1.97988 11.83H0.489879C0.289879 11.83 0.109879 11.95 0.0298791 12.13C-0.0501209 12.31 -0.000120923 12.53 0.139879 12.67L4.07988 16.61C4.17988 16.71 4.29988 16.75 4.42988 16.75C4.55988 16.75 4.67988 16.7 4.77988 16.61L8.71988 12.67C8.85988 12.53 8.89988 12.32 8.82988 12.13C8.74988 11.95 8.56988 11.83 8.36988 11.83H6.91988C7.17988 7.98 10.3799 4.93 14.2899 4.93ZM4.43988 15.57L1.68988 12.82H7.19988L4.44988 15.57H4.43988ZM5.92988 11.83H2.96988C3.22988 5.81 8.20988 0.99 14.2899 0.99C17.6499 0.99 20.8099 2.47 22.9699 5.04C23.4399 5.6 23.3899 6.47 22.8499 7C22.5499 7.3 22.1499 7.45 21.7399 7.43C21.3199 7.41 20.9499 7.23 20.6799 6.91C19.0799 5.02 16.7499 3.94 14.2899 3.94C9.83988 3.94 6.17988 7.43 5.92988 11.83Z" fill="#59587A"/>
<path d="M24.7401 8.0302C24.5501 7.8402 24.2401 7.8402 24.0401 8.0302L20.1001 11.9702C19.9601 12.1102 19.9201 12.3202 19.9901 12.5102C20.0701 12.6902 20.2501 12.8102 20.4501 12.8102H21.9001C21.6501 16.7202 18.5101 19.7102 14.5301 19.7102C12.3501 19.7102 10.3001 18.7502 8.89011 17.0902C8.45011 16.5702 7.80011 16.2502 7.12011 16.2202C6.43011 16.1902 5.76011 16.4502 5.27011 16.9402C4.37011 17.8402 4.30011 19.2902 5.10011 20.2402C7.45011 23.0402 10.8901 24.6402 14.5401 24.6402C21.1701 24.6402 26.5901 19.3802 26.8501 12.8102H28.3401C28.5401 12.8102 28.7201 12.6902 28.8001 12.5102C28.8801 12.3302 28.8301 12.1102 28.6901 11.9702L24.7501 8.0302H24.7401ZM14.5401 23.6602C11.1801 23.6602 8.02011 22.1802 5.86011 19.6102C5.39011 19.0502 5.44011 18.1802 5.98011 17.6502C6.26011 17.3702 6.63011 17.2102 7.03011 17.2102C7.05011 17.2102 7.07011 17.2102 7.10011 17.2102C7.52011 17.2302 7.89011 17.4102 8.16011 17.7302C9.76011 19.6202 12.0901 20.7002 14.5501 20.7002C19.0801 20.7002 22.6701 17.2702 22.9101 12.8102H25.8701C25.6101 18.8302 20.6301 23.6502 14.5501 23.6502L14.5401 23.6602ZM26.3601 11.8302H21.6401L24.3901 9.0802L27.1401 11.8302H26.3601Z" fill="#59587A"/>
<path d="M20.9101 5.70004C21.0101 5.80004 21.1301 5.84004 21.2601 5.84004C21.3901 5.84004 21.5101 5.79004 21.6101 5.70004C21.8001 5.51004 21.8001 5.20004 21.6101 5.00004C17.5701 0.970039 11.0101 0.970039 6.97014 5.00004C6.78014 5.19004 6.78014 5.50004 6.97014 5.70004C7.16014 5.89004 7.47014 5.89004 7.67014 5.70004C11.3201 2.05004 17.2601 2.05004 20.9101 5.70004Z" fill="#59587A"/>
<path d="M20.91 18.9402C17.26 22.5902 11.32 22.5902 7.67 18.9402C7.48 18.7502 7.17 18.7502 6.97 18.9402C6.77 19.1302 6.78 19.4402 6.97 19.6402C8.99 21.6602 11.64 22.6702 14.29 22.6702C16.94 22.6702 19.59 21.6602 21.61 19.6402C21.8 19.4502 21.8 19.1402 21.61 18.9402C21.42 18.7402 21.1 18.7502 20.91 18.9402Z" fill="#59587A"/>
</g>
<defs>
<clipPath id="clip0_825_549">
<rect width="28.83" height="24.64" fill="white"/>
</clipPath>
</defs>
</svg>
