<svg width="22" height="20" viewBox="0 0 22 20" fill="none" xmlns="http://www.w3.org/2000/svg">
<g clip-path="url(#clip0_825_525)">
<path d="M18.1198 3.55C18.3998 3.72 18.7298 3.82 19.0798 3.82C20.1298 3.82 20.9898 2.96 20.9898 1.91C20.9898 0.86 20.1298 0 19.0798 0C18.0298 0 17.1698 0.86 17.1698 1.91C17.1698 2.26 17.2698 2.59 17.4398 2.87L14.3198 5.99C14.0398 5.82 13.7098 5.72 13.3598 5.72C13.0098 5.72 12.6798 5.82 12.3998 5.99L9.27977 2.87C9.44977 2.59 9.54977 2.26 9.54977 1.91C9.54977 0.86 8.68977 0 7.63977 0C6.58977 0 5.72977 0.86 5.72977 1.91C5.72977 2.26 5.82977 2.59 5.99977 2.87L2.87977 5.99C2.59977 5.82 2.26977 5.72 1.91977 5.72C0.869766 5.72 0.00976562 6.58 0.00976562 7.63C0.00976562 8.68 0.869766 9.54 1.91977 9.54C2.96977 9.54 3.82977 8.68 3.82977 7.63C3.82977 7.28 3.72977 6.95 3.55977 6.67L6.67977 3.55C6.95977 3.72 7.28977 3.82 7.63977 3.82C7.98977 3.82 8.31977 3.72 8.59977 3.55L11.7198 6.67C11.5498 6.95 11.4498 7.28 11.4498 7.63C11.4498 8.68 12.3098 9.54 13.3598 9.54C14.4098 9.54 15.2698 8.68 15.2698 7.63C15.2698 7.28 15.1698 6.95 14.9998 6.67L18.1198 3.55ZM19.0898 0.95C19.6198 0.95 20.0398 1.38 20.0398 1.9C20.0398 2.42 19.6098 2.85 19.0898 2.85C18.8298 2.85 18.5898 2.74 18.4198 2.57C18.2498 2.4 18.1398 2.16 18.1398 1.9C18.1398 1.37 18.5698 0.95 19.0898 0.95ZM1.90977 8.59C1.37977 8.59 0.959766 8.16 0.959766 7.64C0.959766 7.12 1.38977 6.69 1.90977 6.69C2.16977 6.69 2.40977 6.8 2.57977 6.97C2.74977 7.14 2.85977 7.38 2.85977 7.64C2.85977 8.17 2.42977 8.59 1.90977 8.59ZM6.95977 2.58C6.78977 2.41 6.67977 2.17 6.67977 1.91C6.67977 1.38 7.10977 0.96 7.62977 0.96C8.14977 0.96 8.57977 1.39 8.57977 1.91C8.57977 2.17 8.46977 2.41 8.29977 2.58C8.12977 2.75 7.88977 2.86 7.62977 2.86C7.36977 2.86 7.12977 2.75 6.95977 2.58ZM13.3598 8.59C12.8298 8.59 12.4098 8.16 12.4098 7.64C12.4098 7.38 12.5198 7.14 12.6898 6.97C12.8598 6.8 13.0998 6.69 13.3598 6.69C13.6198 6.69 13.8598 6.8 14.0298 6.97C14.1998 7.14 14.3098 7.38 14.3098 7.64C14.3098 8.17 13.8798 8.59 13.3598 8.59Z" fill="#59587A"/>
<path opacity="0.08" d="M18.32 3.92988C18.6 4.09988 18.93 4.19988 19.28 4.19988C20.33 4.19988 21.19 3.33988 21.19 2.28988C21.19 1.23988 20.33 0.379883 19.28 0.379883C18.23 0.379883 17.37 1.23988 17.37 2.28988C17.37 2.63988 17.47 2.96988 17.64 3.24988L14.52 6.36988C14.24 6.19988 13.91 6.09988 13.56 6.09988C13.21 6.09988 12.88 6.19988 12.6 6.36988L9.47996 3.24988C9.64996 2.96988 9.74996 2.63988 9.74996 2.28988C9.74996 1.23988 8.88996 0.379883 7.83996 0.379883C6.78996 0.379883 5.92996 1.23988 5.92996 2.28988C5.92996 2.63988 6.02996 2.96988 6.19996 3.24988L3.07996 6.36988C2.79996 6.19988 2.46996 6.09988 2.11996 6.09988C1.06996 6.09988 0.209961 6.95988 0.209961 8.00988C0.209961 9.05988 1.06996 9.91988 2.11996 9.91988C3.16996 9.91988 4.02996 9.05988 4.02996 8.00988C4.02996 7.65988 3.92996 7.32988 3.75996 7.04988L6.87996 3.92988C7.15996 4.09988 7.48996 4.19988 7.83996 4.19988C8.18996 4.19988 8.51996 4.09988 8.79996 3.92988L11.92 7.04988C11.75 7.32988 11.65 7.65988 11.65 8.00988C11.65 9.05988 12.51 9.91988 13.56 9.91988C14.61 9.91988 15.47 9.05988 15.47 8.00988C15.47 7.65988 15.37 7.32988 15.2 7.04988L18.32 3.92988ZM19.28 1.33988C19.81 1.33988 20.23 1.76988 20.23 2.28988C20.23 2.80988 19.8 3.23988 19.28 3.23988C19.02 3.23988 18.78 3.12988 18.61 2.95988C18.44 2.78988 18.33 2.54988 18.33 2.28988C18.33 1.75988 18.76 1.33988 19.28 1.33988ZM2.09996 8.97988C1.56996 8.97988 1.14996 8.54988 1.14996 8.02988C1.14996 7.50988 1.57996 7.07988 2.09996 7.07988C2.35996 7.07988 2.59996 7.18988 2.76996 7.35988C2.93996 7.52988 3.04996 7.76988 3.04996 8.02988C3.04996 8.55988 2.61996 8.97988 2.09996 8.97988ZM7.15996 2.96988C6.98996 2.79988 6.87996 2.55988 6.87996 2.29988C6.87996 1.76988 7.30996 1.34988 7.82996 1.34988C8.34996 1.34988 8.77996 1.77988 8.77996 2.29988C8.77996 2.55988 8.66996 2.79988 8.49996 2.96988C8.32996 3.13988 8.08996 3.24988 7.82996 3.24988C7.56996 3.24988 7.32996 3.13988 7.15996 2.96988ZM13.55 8.97988C13.02 8.97988 12.6 8.54988 12.6 8.02988C12.6 7.76988 12.71 7.52988 12.88 7.35988C13.05 7.18988 13.29 7.07988 13.55 7.07988C13.81 7.07988 14.05 7.18988 14.22 7.35988C14.39 7.52988 14.5 7.76988 14.5 8.02988C14.5 8.55988 14.07 8.97988 13.55 8.97988Z" fill="#59587A"/>
<path d="M3.34 13.3599H0.48C0.22 13.3599 0 13.5699 0 13.8399V18.6099C0 18.8699 0.21 19.0899 0.48 19.0899H3.34C3.6 19.0899 3.82 18.8799 3.82 18.6099V13.8399C3.82 13.5799 3.61 13.3599 3.34 13.3599ZM2.86 18.1299H0.95V14.3099H2.86V18.1299Z" fill="#59587A"/>
<path d="M9.06998 7.64014H6.20998C5.94998 7.64014 5.72998 7.85014 5.72998 8.12014V18.6201C5.72998 18.8801 5.93998 19.1001 6.20998 19.1001H9.06998C9.32998 19.1001 9.54998 18.8901 9.54998 18.6201V8.12014C9.54998 7.86014 9.33998 7.64014 9.06998 7.64014ZM8.58998 18.1301H6.67998V8.59014H8.58998V18.1301Z" fill="#59587A"/>
<path d="M14.7902 13.3599H11.9302C11.6702 13.3599 11.4502 13.5699 11.4502 13.8399V18.6099C11.4502 18.8699 11.6602 19.0899 11.9302 19.0899H14.7902C15.0502 19.0899 15.2702 18.8799 15.2702 18.6099V13.8399C15.2702 13.5799 15.0602 13.3599 14.7902 13.3599ZM14.3202 18.1299H12.4102V14.3099H14.3202V18.1299Z" fill="#59587A"/>
<path d="M20.5202 7.64014H17.6602C17.4002 7.64014 17.1802 7.85014 17.1802 8.12014V18.6201C17.1802 18.8801 17.3902 19.1001 17.6602 19.1001H20.5202C20.7802 19.1001 21.0002 18.8901 21.0002 18.6201V8.12014C21.0002 7.86014 20.7902 7.64014 20.5202 7.64014ZM20.0402 18.1301H18.1302V8.59014H20.0402V18.1301Z" fill="#59587A"/>
</g>
<defs>
<clipPath id="clip0_825_525">
<rect width="21.19" height="19.09" fill="white"/>
</clipPath>
</defs>
</svg>
