<?xml version="1.0" encoding="utf-8"?>
<!-- Generator: Adobe Illustrator 25.0.0, SVG Export Plug-In . SVG Version: 6.00 Build 0)  -->
<svg version="1.1" id="Layer_1" xmlns="http://www.w3.org/2000/svg" xmlns:xlink="http://www.w3.org/1999/xlink" x="0px" y="0px"
	 viewBox="0 0 973.5 438.8" style="enable-background:new 0 0 973.5 438.8;" xml:space="preserve">
<style type="text/css">
	.st0{fill:#9EBE43;}
	.st1{fill:url(#SVGID_1_);}
	.st2{fill:url(#SVGID_2_);}
	.st3{fill:#F1C433;}
	.st4{fill:url(#SVGID_3_);}
	.st5{fill:url(#SVGID_4_);}
	.st6{opacity:0.54;fill:#FFFFFF;enable-background:new    ;}
	.st7{fill:url(#SVGID_5_);}
	.st8{fill:#7A69A7;}
	.st9{fill:url(#SVGID_26_);}
	.st10{fill:url(#SVGID_27_);}
	.st11{opacity:0.52;}
	.st12{fill:#FFFFFF;}
	.st13{fill:url(#SVGID_28_);}
	.st14{fill:url(#SVGID_29_);}
	.st15{fill:url(#SVGID_30_);}
	.st16{fill:url(#SVGID_31_);}
	.st17{fill:#68E1FD;}
	.st18{opacity:0.74;fill:#FFFFFF;enable-background:new    ;}
	.st19{fill:url(#SVGID_32_);}
	.st20{fill:url(#SVGID_33_);}
	.st21{fill:#E69535;}
	.st22{fill:url(#SVGID_34_);}
	.st23{fill:url(#SVGID_35_);}
	.st24{fill:url(#SVGID_36_);}
	.st25{fill:url(#SVGID_37_);}
	.st26{fill:#4CA7C4;}
	.st27{fill:url(#SVGID_38_);}
	.st28{fill:url(#SVGID_39_);}
	.st29{fill:url(#SVGID_40_);}
	.st30{fill:#EBEBEB;enable-background:new    ;}
	.st31{fill:#25233A;}
	.st32{fill:#3F3D56;}
	.st33{fill:#EC2228;}
	.st34{fill:url(#SVGID_41_);}
	.st35{fill:url(#SVGID_42_);}
	.st36{fill:url(#SVGID_43_);}
	.st37{fill:none;stroke:#3F3D56;stroke-width:1.027;stroke-miterlimit:5.1351;}
	.st38{fill:#091240;}
	.st39{fill:url(#SVGID_44_);}
	.st40{fill:url(#SVGID_45_);}
	.st41{fill:url(#SVGID_46_);}
	.st42{opacity:0.24;fill:#FFFFFF;enable-background:new    ;}
	.st43{fill:#494849;}
</style>
<g>
	<path class="st0" d="M943.1,207.4c-29.6,27.4-60.1,60-59.6,99.1c7.3-18.9,18.2-36.4,32-51.7L891,319.9
		c16.5-23.4,34.7-48.1,62.7-58.3c-28.6,16.8-49,43.1-57.3,73.7c11.2-14.4,27.6-24.6,46.2-28.7l-41.1,40.2
		c10.9-7.6,23.2-13.4,36.3-17.1l-34.4,32.5l34.9-6.2c-10.5,6.7-20.3,14.2-29.3,22.6c8.5-2.8,17.3-4.6,26.3-5.1l-20,23.8
		c5.6-4.7,12.4-7.9,19.7-9.4c1.5,5.7-2.4,11.7-7.7,14.8c-5.3,3.1-11.8,4-18,4.9l-45.9,6.1c4.5-22.4,6.8-45.1,7.1-67.9
		c0.2-19.1-1.9-36.1,3.8-54.4c5.5-18,13.1-34.5,25.4-49.4C912.2,227.1,929.4,220,943.1,207.4z"/>
	
		<linearGradient id="SVGID_1_" gradientUnits="userSpaceOnUse" x1="-728.6472" y1="244.1547" x2="-659.0688" y2="244.1547" gradientTransform="matrix(1.1188 9.929638e-02 9.929638e-02 -1.1188 1662.1396 653.2282)">
		<stop  offset="1.000000e-02" style="stop-color:#000000"/>
		<stop  offset="0.13" style="stop-color:#000000;stop-opacity:0.69"/>
		<stop  offset="1" style="stop-color:#000000;stop-opacity:0"/>
	</linearGradient>
	<path class="st1" d="M943.1,207.4c-29.6,27.4-60.1,60-59.6,99.1c7.3-18.9,18.2-36.4,32-51.7L891,319.9
		c16.5-23.4,34.7-48.1,62.7-58.3c-28.6,16.8-49,43.1-57.3,73.7c11.2-14.4,27.6-24.6,46.2-28.7l-41.1,40.2
		c10.9-7.6,23.2-13.4,36.3-17.1l-34.4,32.5l34.9-6.2c-10.5,6.7-20.3,14.2-29.3,22.6c8.5-2.8,17.3-4.6,26.3-5.1l-20,23.8
		c5.6-4.7,12.4-7.9,19.7-9.4c1.5,5.7-2.4,11.7-7.7,14.8c-5.3,3.1-11.8,4-18,4.9l-45.9,6.1c4.5-22.4,6.8-45.1,7.1-67.9
		c0.2-19.1-1.9-36.1,3.8-54.4c5.5-18,13.1-34.5,25.4-49.4C912.2,227.1,929.4,220,943.1,207.4z"/>
	<g>
		
			<linearGradient id="SVGID_2_" gradientUnits="userSpaceOnUse" x1="678.7171" y1="307.6881" x2="679.4556" y2="259.7943" gradientTransform="matrix(1.1232 0 0 -1.1232 -0.1232 713.8197)">
			<stop  offset="1.000000e-02" style="stop-color:#000000"/>
			<stop  offset="0.13" style="stop-color:#000000;stop-opacity:0.69"/>
			<stop  offset="1" style="stop-color:#000000;stop-opacity:0"/>
		</linearGradient>
		<ellipse class="st2" cx="762.9" cy="412.2" rx="46.8" ry="5"/>
		<path class="st3" d="M795.4,373.2v0.2c0,2.9-0.2,5.8-0.7,8.7c-0.8,5-2.4,9.8-5,14.2c-0.1,0.2-0.3,0.4-0.4,0.7
			c-1.4,2.4-3.1,4.5-5.1,6.5c-8,8-19.5,11.9-31.8,11.9c-11.2,0-21-3.1-28.1-9.7c-1.9-1.7-3.6-3.7-5-5.8c-2.6-3.9-4.5-8.2-5.6-12.7
			c-1.1-4.5-1.6-9.1-1.6-13.7c0-0.6,0-1.2,0-1.9c0-1.7,0.1-3.4,0.3-5.1c0.3-3.7,0.9-7.3,1.7-10.9c3.8-17.6,12.7-35.6,24.1-44.7
			c4.8-3.9,10-6.2,15.5-6.2C776.7,304.8,795.3,344.6,795.4,373.2z"/>
		
			<linearGradient id="SVGID_3_" gradientUnits="userSpaceOnUse" x1="624.435" y1="217.3914" x2="669.2081" y2="263.8082" gradientTransform="matrix(1.1232 0 0 -1.1232 -5.335 668.8459)">
			<stop  offset="1.000000e-02" style="stop-color:#000000"/>
			<stop  offset="0.13" style="stop-color:#000000;stop-opacity:0.69"/>
			<stop  offset="1" style="stop-color:#000000;stop-opacity:0"/>
		</linearGradient>
		<path class="st4" d="M795.4,373.2v0.2c0,2.9-0.2,5.8-0.7,8.7c-0.1,0.9-0.3,1.7-0.5,2.5c-0.4,1.8-0.9,3.6-1.5,5.4
			c-0.8,2.2-1.8,4.3-2.9,6.3c-0.1,0.2-0.3,0.4-0.4,0.7l-0.5,0.8c-0.9,1.3-1.8,2.6-2.9,3.8c-0.5,0.6-1.1,1.2-1.7,1.8
			c-2.4,2.4-5.1,4.5-8,6.1c-3.6,2-7.4,3.5-11.4,4.4c-4.1,0.9-8.2,1.4-12.4,1.3c-0.8,0-1.6,0-2.4,0c-2.1-0.1-4.1-0.3-6.2-0.6
			c-7.3-1-14.1-4.2-19.6-9c-1.9-1.7-3.6-3.7-5-5.8c-2.6-3.9-4.5-8.2-5.6-12.7c-1.1-4.5-1.6-9.1-1.6-13.7c0-0.6,0-1.2,0-1.9
			c0-1.7,0.2-3.4,0.3-5.1c0.4-3.7,0.9-7.3,1.7-10.9c1.7-7.6,4.2-14.9,7.5-22c4.4-9.4,10.1-17.5,16.6-22.7c0.2-0.2,0.4-0.3,0.6-0.5
			c3.6-3,8-4.9,12.6-5.5c3.3-0.4,6.6,0.1,9.7,1.3c1.6,0.6,3.1,1.4,4.6,2.3c1.8,1.1,3.5,2.4,5.1,3.8c1.5,1.4,3,2.8,4.3,4.4
			c1.8,2.1,3.5,4.3,5,6.6c0.9,1.3,1.8,2.8,2.6,4.3c1.3,2.2,2.4,4.5,3.5,6.9c4.4,9.6,7.3,19.8,8.6,30.3l0,0c0.1,0.8,0.2,1.6,0.2,2.4
			C795.3,369.2,795.4,371.3,795.4,373.2z"/>
		<path class="st3" d="M795.4,373.4c0,9.5-2.2,17.4-6,23.6c-7.6,5.6-17.3,8.3-27.6,8.3c-23,0-40.3-13.4-40.3-42
			c0-17,6.6-38.1,16.8-52.4c4.8-3.9,10-6.2,15.5-6.2C776.8,304.8,795.4,344.8,795.4,373.4z"/>
		
			<linearGradient id="SVGID_4_" gradientUnits="userSpaceOnUse" x1="721.0866" y1="294.2247" x2="644.2612" y2="264.9357" gradientTransform="matrix(1.1232 0 0 -1.1232 -5.335 668.8459)">
			<stop  offset="1.000000e-02" style="stop-color:#FFFFFF"/>
			<stop  offset="0.13" style="stop-color:#FFFFFF;stop-opacity:0.69"/>
			<stop  offset="1" style="stop-color:#FFFFFF;stop-opacity:0"/>
		</linearGradient>
		<path class="st5" d="M795.4,373.4c0,9.5-2.2,17.4-6,23.6c-7.6,5.6-17.3,8.3-27.6,8.3c-23,0-40.3-13.4-40.3-42
			c0-17,6.6-38.1,16.8-52.4c4.8-3.9,10-6.2,15.5-6.2C776.8,304.8,795.4,344.8,795.4,373.4z"/>
		<circle class="st6" cx="768.6" cy="341.1" r="11.4"/>
		<circle class="st6" cx="769.8" cy="376.5" r="11.4"/>
		<circle class="st6" cx="753.8" cy="399.7" r="11.4"/>
		<circle class="st6" cx="746.3" cy="322.1" r="7.6"/>
		<circle class="st6" cx="767.3" cy="317" r="7.6"/>
		<circle class="st6" cx="732" cy="361.4" r="7.6"/>
		<circle class="st6" cx="748.6" cy="348.6" r="5.2"/>
		<circle class="st6" cx="786.5" cy="360.1" r="5.2"/>
		<circle class="st6" cx="746.3" cy="379.7" r="5.2"/>
		<circle class="st6" cx="726.2" cy="394.4" r="5.2"/>
	</g>
	<g>
		
			<linearGradient id="SVGID_5_" gradientUnits="userSpaceOnUse" x1="758.3215" y1="329.9259" x2="759.5483" y2="249.8487" gradientTransform="matrix(1.1232 0 0 -1.1232 -0.1232 713.8197)">
			<stop  offset="1.000000e-02" style="stop-color:#000000"/>
			<stop  offset="0.13" style="stop-color:#000000;stop-opacity:0.69"/>
			<stop  offset="1" style="stop-color:#000000;stop-opacity:0"/>
		</linearGradient>
		<ellipse class="st7" cx="852.8" cy="416.8" rx="78.2" ry="8.3"/>
		<path class="st8" d="M907.1,351.6v0.4c0,4.9-0.4,9.7-1.1,14.5c-1.3,8.4-4.1,16.5-8.3,23.8l-0.6,1.1c-2.4,3.9-5.3,7.6-8.5,10.8
			c-13.3,13.4-32.5,19.9-53.2,19.9c-18.7,0-35.1-5.3-47.1-16.2c-3.2-2.9-6-6.1-8.4-9.7c-4.4-6.5-7.5-13.8-9.3-21.4
			c-1.8-7.5-2.7-15.2-2.6-22.9c0-1,0-2.1,0-3.1c0.1-2.8,0.2-5.6,0.5-8.5c0.6-6.1,1.5-12.2,2.9-18.2c6.4-29.4,21.2-59.4,40.1-74.7
			c8-6.5,16.8-10.3,25.9-10.3C875.9,237.2,906.9,303.8,907.1,351.6z"/>
		
			<linearGradient id="SVGID_26_" gradientUnits="userSpaceOnUse" x1="664.4233" y1="205.8793" x2="739.2715" y2="283.5027" gradientTransform="matrix(1.1232 0 0 -1.1232 -5.335 668.8459)">
			<stop  offset="1.000000e-02" style="stop-color:#000000"/>
			<stop  offset="0.13" style="stop-color:#000000;stop-opacity:0.69"/>
			<stop  offset="1" style="stop-color:#000000;stop-opacity:0"/>
		</linearGradient>
		<path class="st9" d="M907.1,351.6v0.4c0,4.9-0.4,9.7-1.1,14.5c-0.2,1.4-0.5,2.8-0.8,4.2c-0.7,3.1-1.5,6.1-2.6,9
			c-1.3,3.7-3,7.2-4.9,10.6c-0.2,0.4-0.4,0.7-0.6,1.1c-0.2,0.3-0.6,0.9-0.9,1.3c-1.5,2.2-3.1,4.4-4.8,6.4c-0.9,1-1.8,2.1-2.8,3
			c-4,4-8.5,7.4-13.4,10.2c-6,3.3-12.3,5.8-19,7.4c-6.8,1.6-13.8,2.4-20.7,2.3c-1.3,0-2.7,0-4-0.1c-3.5-0.1-6.9-0.5-10.3-1
			c-12.8-2.1-24-7.1-32.8-15.1c-3.2-2.9-6-6.1-8.4-9.7c-4.4-6.5-7.5-13.7-9.3-21.3c-1.8-7.5-2.7-15.2-2.6-23c0-1,0-2.1,0-3.1
			c0.1-2.8,0.3-5.6,0.5-8.5c0.6-6.1,1.5-12.2,2.9-18.2c2.8-12.7,6.9-25,12.4-36.8c7.3-15.6,16.8-29.2,27.7-38l1.1-0.8
			c6.1-5,13.4-8.1,21.1-9.2c1.3-0.1,2.5-0.2,3.8-0.2c4.2,0,8.5,0.8,12.4,2.3c2.7,1,5.3,2.3,7.7,3.8c3,1.9,5.8,4,8.5,6.3
			c2.5,2.3,4.9,4.8,7.2,7.4c3,3.5,5.8,7.2,8.3,11c1.5,2.3,3,4.7,4.4,7.1c2.1,3.7,4.1,7.6,5.9,11.6c7.4,16.1,12.2,33.2,14.4,50.7l0,0
			c0.2,1.3,0.3,2.7,0.4,4C906.9,345,907.1,348.4,907.1,351.6z"/>
		<path class="st8" d="M907.1,352c0,15.9-3.7,29.1-10.1,39.4c-12.6,9.3-28.9,13.8-46.1,13.8c-38.4,0-67.3-22.3-67.3-70.2
			c0-28.5,11-63.7,28.1-87.6c8-6.5,16.8-10.3,25.9-10.3C876,237.2,907.1,304.1,907.1,352z"/>
		
			<linearGradient id="SVGID_27_" gradientUnits="userSpaceOnUse" x1="826.0251" y1="334.3154" x2="697.5897" y2="285.3377" gradientTransform="matrix(1.1232 0 0 -1.1232 -5.335 668.8459)">
			<stop  offset="1.000000e-02" style="stop-color:#FFFFFF"/>
			<stop  offset="0.13" style="stop-color:#FFFFFF;stop-opacity:0.69"/>
			<stop  offset="1" style="stop-color:#FFFFFF;stop-opacity:0"/>
		</linearGradient>
		<path class="st10" d="M907.1,352c0,15.9-3.7,29.1-10.1,39.4c-12.6,9.3-28.9,13.8-46.1,13.8c-38.4,0-67.3-22.3-67.3-70.2
			c0-28.5,11-63.7,28.1-87.6c8-6.5,16.8-10.3,25.9-10.3C876,237.2,907.1,304.1,907.1,352z"/>
		<g class="st11">
			<path class="st12" d="M896.2,392.8c-1.5,2.2-3.1,4.4-4.8,6.4c-2.5-11.9-6.5-23.4-11.9-34.3c-7.9-16.3-17.9-31.3-27.8-46.5
				c-5.7-8.7-11.4-17.8-13-28.1c-1.5-9.4,0.7-19,4.8-27.5c3.2-6.5,7.5-12.6,12.5-17.8c0.6-0.6,1.1-1.2,1.6-1.7c3,1.9,5.8,4,8.5,6.3
				c-6.7,8.5-12.8,17.8-14.9,28.4c-2.2,11.3,0.5,23,4.9,33.5c4.5,10.6,10.8,20.2,16.4,30.2c8.4,15.2,15.8,31,22,47.3
				C895.2,390.3,895.7,391.6,896.2,392.8z"/>
			<path class="st12" d="M905.2,370.7c-0.7,3.1-1.5,6.1-2.6,9l-33-58.1c-4.7-8.2-9.5-16.9-9.2-26.4c0.1-6.4,2.6-12.5,5-18.5
				c1.7-4,4.2-15.2,7.8-19.7c3,3.5,5.8,7.2,8.3,11c-1.2,2.6-2.7,5-4,7.6c-3.8,7.5-5.4,16-4.5,24.4c1.5,14.2,9.6,26.6,16.6,39
				c5.3,9.3,10.1,18.9,14.3,28.8C904.4,368.8,904.8,369.7,905.2,370.7z"/>
			<path class="st12" d="M906.6,341.5c-7.4-9-14.1-18.6-20.2-28.5c-1.7-2.5-3-5.3-3.8-8.3c-0.5-2.7-0.5-5.4-0.1-8
				c0.4-3.8,1.2-14.7,3.5-21.4c2.1,3.7,4.1,7.6,5.9,11.6c-0.6,1-1.1,2.1-1.4,3.3c-0.7,2.8-0.8,5.7-0.4,8.6
				c0.8,7.2,2.8,14.2,5.8,20.8c2.3,4.8,5,9.5,7.9,14l2.5,4l0,0C906.4,338.9,906.5,340.2,906.6,341.5z"/>
			<path class="st12" d="M875.1,412.5c-6,3.3-12.3,5.8-19,7.4c-2.8-18.7-8.6-36.8-17.3-53.5c-6.7-12.9-15-24.9-21.6-37.9
				c-6.6-13-11.5-27.3-10.5-41.8c0.9-13.8,7.1-26.9,15.7-37.7c3.3-4.3,7.2-8.2,11.4-11.5c1.3-0.1,2.5-0.2,3.8-0.2
				c4.2,0,8.5,0.8,12.4,2.3c-2.1,5.7-11.2,12.9-13.4,15.5c-6.4,7.5-10.4,16.8-11.6,26.6c-1.8,15.3,3.6,30.5,10.9,44.1
				c7.3,13.5,16.7,25.8,24,39.4c6.4,12,11.1,24.9,14,38.3C874.6,406.3,875,409.4,875.1,412.5z"/>
			<path class="st12" d="M831.4,422.1c-3.5-0.1-6.9-0.5-10.3-1c-1.4-22.6-16.1-41.9-25.4-62.6c-10.3-22.9-14.4-48.1-11.8-73.1
				c7.3-15.6,16.8-29.2,27.7-38l1.1-0.8c-1.4,7.7-5.7,19.3-6.4,22.1c-4.2,15.8-8.3,32-7,48.3c2,24.8,16.3,46.5,27.1,68.9
				c3.1,6.5,6,13.3,6.9,20.4C834.1,411.7,833.4,417.1,831.4,422.1z"/>
		</g>
	</g>
</g>
<g>
	<path class="st0" d="M83.5,236.8c12.3,14.9,19.9,31.4,25.4,49.4c5.7,18.4,3.6,35.4,3.8,54.4c0.2,22.8,2.6,45.5,7.1,67.9l-45.9-6.1
		c-6.3-0.8-12.7-1.8-18-4.9c-5.3-3.1-9.2-9.1-7.7-14.8c7.4,1.5,14.1,4.7,19.7,9.4l-20-23.8c9,0.5,17.9,2.2,26.3,5.1
		c-9-8.4-18.8-15.9-29.3-22.6l34.9,6.2l-34.4-32.5c13.1,3.7,25.4,9.5,36.3,17.1l-41.1-40.2c18.6,4.1,35,14.3,46.2,28.7
		c-8.2-30.6-28.7-56.9-57.3-73.7c28,10.2,46.2,34.9,62.7,58.3l-24.5-65.1c13.9,15.3,24.7,32.8,32,51.7c0.5-39.1-29.9-71.7-59.6-99.1
		C53.9,214.8,71.2,221.9,83.5,236.8z"/>
	<g>
		
			<linearGradient id="SVGID_28_" gradientUnits="userSpaceOnUse" x1="105.896" y1="321.2153" x2="175.4745" y2="321.2153" gradientTransform="matrix(-1.1188 9.929638e-02 -9.929638e-02 -1.1188 262.5647 653.2282)">
			<stop  offset="1.000000e-02" style="stop-color:#000000"/>
			<stop  offset="0.13" style="stop-color:#000000;stop-opacity:0.69"/>
			<stop  offset="1" style="stop-color:#000000;stop-opacity:0"/>
		</linearGradient>
		<path class="st13" d="M83.5,238.7c12.3,14.9,19.9,31.4,25.4,49.4c5.7,18.4,3.6,35.4,3.8,54.4c0.2,22.8,2.6,45.5,7.1,67.9
			l-45.9-6.1c-6.3-0.8-12.7-1.8-18-4.9c-5.3-3.1-9.2-9.1-7.7-14.8c7.4,1.5,14.1,4.7,19.7,9.4l-20-23.8c9,0.5,17.9,2.2,26.3,5.1
			c-9-8.4-18.8-15.9-29.3-22.6l34.9,6.2l-34.4-32.5c13.1,3.7,25.4,9.5,36.3,17.1l-41.1-40.2c18.6,4.1,35,14.3,46.2,28.7
			c-8.2-30.6-28.7-56.9-57.3-73.7c28,10.2,46.2,34.9,62.7,58.3l-24.5-65.1c13.9,15.3,24.7,32.8,32,51.7
			c0.5-39.1-29.9-71.7-59.6-99.1C53.9,216.7,71.2,223.8,83.5,238.7z"/>
		<g>
			
				<linearGradient id="SVGID_29_" gradientUnits="userSpaceOnUse" x1="156.9397" y1="286.51" x2="157.9791" y2="218.3473" gradientTransform="matrix(-1.0906 0 0 -1.0906 301.8539 662.8185)">
				<stop  offset="1.000000e-02" style="stop-color:#000000"/>
				<stop  offset="0.13" style="stop-color:#000000;stop-opacity:0.69"/>
				<stop  offset="1" style="stop-color:#000000;stop-opacity:0"/>
			</linearGradient>
			<ellipse class="st14" cx="129.8" cy="411.2" rx="64.6" ry="6.9"/>
			<path class="st0" d="M84.9,357.3v0.3c0,4,0.3,8,0.9,12c1,6.9,3.4,13.6,6.8,19.7c0.2,0.3,0.4,0.6,0.5,0.9c2,3.2,4.3,6.3,7,9
				c11,11.1,26.9,16.5,44,16.5c15.4,0,29-4.4,38.9-13.4c2.6-2.4,4.9-5.1,6.9-8c3.6-5.4,6.2-11.3,7.7-17.6c1.5-6.2,2.2-12.6,2.1-19
				c0-0.9,0-1.7,0-2.6c-0.1-2.3-0.2-4.7-0.4-7c-0.5-5.1-1.3-10.1-2.3-15c-5.3-24.3-17.5-49.1-33.2-61.8c-6.6-5.3-13.9-8.5-21.4-8.5
				C110.7,262.7,85,317.7,84.9,357.3z"/>
			
				<linearGradient id="SVGID_30_" gradientUnits="userSpaceOnUse" x1="73.059" y1="214.9947" x2="136.7747" y2="281.0678" gradientTransform="matrix(-1.0906 0 0 -1.0906 301.8539 662.8185)">
				<stop  offset="1.000000e-02" style="stop-color:#000000"/>
				<stop  offset="0.13" style="stop-color:#000000;stop-opacity:0.69"/>
				<stop  offset="1" style="stop-color:#000000;stop-opacity:0"/>
			</linearGradient>
			<path class="st15" d="M84.9,357.3v0.3c0,4,0.3,8,0.9,12c1,6.9,3.4,13.6,6.8,19.7c0.2,0.3,0.4,0.6,0.5,0.9c2,3.2,4.3,6.3,7,9
				c11,11.1,26.9,16.5,44,16.5c15.4,0,29-4.4,38.9-13.4c2.6-2.4,4.9-5.1,6.9-8c3.6-5.4,6.2-11.3,7.7-17.6c1.5-6.2,2.2-12.6,2.1-19
				c0-0.9,0-1.7,0-2.6c-0.1-2.3-0.2-4.7-0.4-7c-0.5-5.1-1.3-10.1-2.3-15c-5.3-24.3-17.5-49.1-33.2-61.8c-6.6-5.3-13.9-8.5-21.4-8.5
				C110.7,262.7,85,317.7,84.9,357.3z"/>
			<path class="st0" d="M84.9,357.6c0,13.2,3.1,24,8.3,32.6c10.4,7.7,23.9,11.4,38.1,11.4c31.7,0,55.7-18.4,55.7-58
				c0-23.5-9.1-52.6-23.2-72.4c-6.6-5.3-13.9-8.5-21.4-8.5C110.6,262.7,84.9,318,84.9,357.6z"/>
			
				<linearGradient id="SVGID_31_" gradientUnits="userSpaceOnUse" x1="210.6162" y1="324.3439" x2="101.2837" y2="282.6598" gradientTransform="matrix(-1.0906 0 0 -1.0906 301.8539 662.8185)">
				<stop  offset="1.000000e-02" style="stop-color:#FFFFFF"/>
				<stop  offset="0.13" style="stop-color:#FFFFFF;stop-opacity:0.69"/>
				<stop  offset="1" style="stop-color:#FFFFFF;stop-opacity:0"/>
			</linearGradient>
			<path class="st16" d="M84.9,357.6c0,13.2,3.1,24,8.3,32.6c10.4,7.7,23.9,11.4,38.1,11.4c31.7,0,55.7-18.4,55.7-58
				c0-23.5-9.1-52.6-23.2-72.4c-6.6-5.3-13.9-8.5-21.4-8.5C110.6,262.7,84.9,318,84.9,357.6z"/>
			<polygon class="st17" points="190.9,312.7 178.8,316.8 162,309.6 147.9,316.8 133.4,309.6 120,318.4 106.3,309.6 93.2,314 
				89.9,324.1 104.4,318.2 123.5,326.8 135.5,318.2 149.2,327.5 164.1,316.8 181.8,329.8 194.3,322.5 			"/>
			<polygon class="st12" points="190.9,312.7 178.8,316.8 162,309.6 147.9,316.8 133.4,309.6 120,318.4 106.3,309.6 93.2,314 
				89.9,324.1 104.4,318.2 123.5,326.8 135.5,318.2 149.2,327.5 164.1,316.8 181.8,329.8 194.3,322.5 			"/>
			<path class="st18" d="M84.9,357.3v0.3c0,4,0.3,8,0.9,12c2.7-1.9,5.3-4.1,7.5-6.6c1.6-1.8,3.3-3.9,5.6-4.5
				c2.7-0.7,5.4,0.7,7.5,2.6c2.1,1.8,3.7,4.1,5.8,5.8c3.1,2.3,7.1,3.1,10.9,2.2c3.6-0.9,6.6-3.1,9.8-5s6.9-3.5,10.4-2.6
				c5.2,1.2,8.1,6.8,12.4,10c5.6,3.9,13,3.6,18.3-0.6c3-2.5,5.4-6.3,9.2-6.5c3.6-0.2,6.4,2.9,8.4,5.8c1.7,2.4,3.4,5.1,5.9,6.4
				c1.5-6.2,2.2-12.6,2.1-19c0-0.9,0-1.7,0-2.6c-0.1,0-0.2,0.1-0.2,0.1c-3.8-4.2-10-5.4-15.1-2.7c-2.7,1.5-4.8,4.1-7.4,5.8
				c-4,2.7-9.1,3.3-13.6,1.8c-5.2-1.8-9-6.2-12.2-10.6c-2.2-3-7.2-2.3-10.9-1.3c-3.6,1.2-6.9,3.3-9.6,5.9c-3.3,3.1-6.8,6.8-11.3,6.8
				c-4.9,0-8.7-4.5-10.7-8.9c-0.8-1.8-1.6-3.8-3.3-4.9c-1.2-0.6-2.4-0.9-3.8-1c-3.7-0.4-7.8-0.6-10.5,1.7S87.8,354.8,84.9,357.3
				L84.9,357.3z"/>
			<path class="st12" d="M92.6,389.3c0.2,0.3,0.4,0.6,0.5,0.9c2,3.2,4.3,6.3,7,9c3.1,0.2,6.2-0.1,9.2-0.8c4.7-1.2,9-4,13.9-4.8
				c10.5-1.9,20.8,5.2,31.4,4.8c3.9-0.1,7.6-1.3,11.5-1.8c3.8-0.6,8-0.5,11.3,1.4c2,1.2,3.6,3,5.6,4.3c2.6-2.4,4.9-5.1,6.9-8
				c-4.2-0.4-8.3-1.8-12-3.9c-4.1-2.5-8.3-5.9-13.1-5.2c-2.5,0.4-4.7,1.8-6.9,2.9c-3.7,1.8-7.8,2.7-11.9,2.6c-2.4,0-4.7-0.5-6.8-1.5
				c-1.5-0.8-2.8-2-4.3-2.8c-3.1-1.8-6.8-2.3-10.4-2.7c-1.7-0.3-3.5-0.3-5.2,0c-2.8,0.6-5,2.8-7.6,4.3
				C106.1,391.1,99.3,390.8,92.6,389.3z"/>
			<circle class="st12" cx="167.3" cy="340.6" r="7.6"/>
			<circle class="st12" cx="133.7" cy="338.2" r="7.6"/>
			<circle class="st12" cx="105.6" cy="334.7" r="7.6"/>
			<path class="st12" d="M190,340.6c0,4.2,3.4,7.6,7.6,7.6c0.6,0,1.1-0.1,1.7-0.2c-0.5-5.1-1.3-10.1-2.3-15
				C193,333.3,190,336.6,190,340.6z"/>
			<path class="st12" d="M190,378.2c0.3,0.1,0.5,0.3,0.7,0.5c0.1,0.3,0.2,0.5,0.2,0.8l0.1,1.3c0.1,0.3,0.1,0.6,0,0.8
				c-0.2,0.7-1.2,1-1.9,0.9c-1.2-0.2-2.4-0.5-3.6-1c-3.4-1.2-7-1.2-10.6-1.2c-0.7,0-1.6-0.1-2-0.7c-1.3-2.3,4.9-3.5,6.2-3.5
				C182.9,376.1,186.6,376.7,190,378.2z"/>
			<path class="st12" d="M150,375c1.5,0.3,2.8,1.2,3.7,2.4c0.2,0.2,0.2,0.6,0.2,0.9c-0.2,0.5-0.9,0.6-1.4,0.6l-16.1-0.5
				c-1.4,0.1-2.6-0.9-2.7-2.3c0-0.2,0-0.5,0-0.7c0.4-1.6,1.8-1.7,3.2-1.9C141.3,373,145.8,373.6,150,375z"/>
			<path class="st12" d="M110.7,371.7c2.5-0.1,5,0.1,7.5,0.6c0.7,0.2,1.4,0.5,1.5,1.2c0.1,0.6-0.2,1.2-0.7,1.6
				c-1.2,1-2.7,1.5-4.3,1.6c-1.5,0.1-3.1,0-4.7,0.2c-3.4,0.3-7,1.7-10.1,0.4c-0.2-0.1-0.3-0.2-0.5-0.3c-1.3-1.8,1.8-4.5,3.3-4.9
				C105.2,371.2,108.3,371.7,110.7,371.7z"/>
			
				<linearGradient id="SVGID_32_" gradientUnits="userSpaceOnUse" x1="281.8086" y1="249.8582" x2="131.9171" y2="296.7717" gradientTransform="matrix(1.0906 0 0 -1.0906 -4.3751 662.8185)">
				<stop  offset="1.000000e-02" style="stop-color:#000000"/>
				<stop  offset="0.13" style="stop-color:#000000;stop-opacity:0.69"/>
				<stop  offset="1" style="stop-color:#000000;stop-opacity:0"/>
			</linearGradient>
			<path class="st19" d="M151.4,381.6c0.3,8.9,1.3,19.4-5.7,25c7.9,0.4,15.9,0.2,23.8-0.8c3.2-0.4,6.6-1,9.1-3
				c3.2-2.6,4.3-6.9,5.1-11c3.5-18.1,4.3-36.6,2.3-54.9c-1.8-16.5-4.9-39.5-14.5-53.3C163.9,314.8,150.3,349.2,151.4,381.6z"/>
			
				<linearGradient id="SVGID_33_" gradientUnits="userSpaceOnUse" x1="290.335" y1="315.4598" x2="291.4388" y2="243.418" gradientTransform="matrix(1.0906 0 0 -1.0906 17.8622 689.1674)">
				<stop  offset="1.000000e-02" style="stop-color:#000000"/>
				<stop  offset="0.13" style="stop-color:#000000;stop-opacity:0.69"/>
				<stop  offset="1" style="stop-color:#000000;stop-opacity:0"/>
			</linearGradient>
			<ellipse class="st20" cx="335.5" cy="409.4" rx="68.3" ry="7.3"/>
			<path class="st21" d="M383,352.5v0.3c0,4.2-0.3,8.5-1,12.7c-1.1,7.3-3.5,14.4-7.2,20.8c-0.2,0.3-0.4,0.6-0.6,1
				c-2.1,3.4-4.6,6.6-7.4,9.5c-11.6,11.7-28.4,17.4-46.5,17.4c-16.4,0-30.7-4.6-41.1-14.2c-2.8-2.5-5.2-5.4-7.3-8.4
				c-3.8-5.7-6.6-12-8.1-18.7c-1.6-6.6-2.3-13.3-2.3-20c0-0.9,0-1.8,0-2.7c0.1-2.4,0.2-4.9,0.5-7.4c0.5-5.3,1.3-10.6,2.5-15.9
				c5.6-25.7,18.5-51.9,35.1-65.3c7-5.7,14.7-9,22.7-9C355.7,252.5,382.9,310.7,383,352.5z"/>
			
				<linearGradient id="SVGID_34_" gradientUnits="userSpaceOnUse" x1="222.084" y1="215.7247" x2="289.4217" y2="285.5483" gradientTransform="matrix(1.0906 0 0 -1.0906 -4.3751 662.8185)">
				<stop  offset="1.000000e-02" style="stop-color:#000000"/>
				<stop  offset="0.13" style="stop-color:#000000;stop-opacity:0.69"/>
				<stop  offset="1" style="stop-color:#000000;stop-opacity:0"/>
			</linearGradient>
			<path class="st22" d="M383,352.5v0.3c0,4.2-0.3,8.5-1,12.7c-0.2,1.3-0.4,2.5-0.7,3.7c-0.6,2.7-1.3,5.3-2.2,7.9
				c-1.1,3.2-2.6,6.3-4.3,9.3c-0.2,0.3-0.4,0.7-0.6,1s-0.5,0.8-0.8,1.2c-1.3,2-2.7,3.8-4.2,5.6c-0.8,0.9-1.6,1.8-2.4,2.7
				c-3.5,3.5-7.4,6.5-11.7,8.9c-5.2,2.9-10.8,5.1-16.6,6.4c-5.9,1.4-12,2.1-18.1,2c-1.2,0-2.3,0-3.4-0.1c-3-0.1-6-0.4-9-0.9
				c-11.1-1.8-21-6.2-28.6-13.2c-2.8-2.5-5.3-5.3-7.4-8.4c-3.8-5.7-6.6-12-8.1-18.6c-1.6-6.6-2.3-13.3-2.3-20.1c0-0.9,0-1.8,0-2.7
				c0.1-2.4,0.2-4.9,0.5-7.4c0.5-5.3,1.3-10.6,2.5-15.9c2.4-11.1,6.1-21.9,10.9-32.1c6.4-13.6,14.7-25.5,24.2-33.2l0.9-0.7
				c5.3-4.3,11.6-7.1,18.4-8.1c1.1-0.1,2.2-0.2,3.3-0.2c3.7,0,7.4,0.7,10.8,2c2.3,0.9,4.6,2,6.7,3.3c2.6,1.6,5.1,3.5,7.4,5.5
				c2.2,2,4.3,4.2,6.3,6.4c2.6,3.1,5,6.3,7.2,9.6c1.3,2,2.6,4.1,3.8,6.2c1.8,3.2,3.6,6.6,5.2,10.1c6.4,14,10.7,29,12.6,44.3l0,0
				c0.1,1.2,0.3,2.3,0.4,3.5C382.8,346.6,382.9,349.6,383,352.5z"/>
			<path class="st21" d="M383,352.8c0,13.9-3.2,25.4-8.8,34.4c-11,8.1-25.2,12-40.3,12c-33.6,0-58.8-19.5-58.8-61.3
				c0-24.9,9.6-55.6,24.5-76.5c7-5.7,14.7-9,22.7-9C355.8,252.5,383,311,383,352.8z"/>
			
				<linearGradient id="SVGID_35_" gradientUnits="userSpaceOnUse" x1="367.4696" y1="331.2866" x2="251.922" y2="287.2235" gradientTransform="matrix(1.0906 0 0 -1.0906 -4.3751 662.8185)">
				<stop  offset="1.000000e-02" style="stop-color:#FFFFFF"/>
				<stop  offset="0.13" style="stop-color:#FFFFFF;stop-opacity:0.69"/>
				<stop  offset="1" style="stop-color:#FFFFFF;stop-opacity:0"/>
			</linearGradient>
			<path class="st23" d="M383,352.8c0,13.9-3.2,25.4-8.8,34.4c-11,8.1-25.2,12-40.3,12c-33.6,0-58.8-19.5-58.8-61.3
				c0-24.9,9.6-55.6,24.5-76.5c7-5.7,14.7-9,22.7-9C355.8,252.5,383,311,383,352.8z"/>
			<circle class="st12" cx="295.9" cy="334.8" r="8.1"/>
			<path class="st12" d="M271.9,334.8c0,4.4-3.6,8.1-8.1,8.1c-0.6,0-1.2-0.1-1.8-0.2c0.5-5.3,1.3-10.6,2.5-15.9
				C268.7,327.1,271.9,330.6,271.9,334.8z"/>
			<path class="st12" d="M271.9,374.6c-0.6,0.2-1.1,0.8-1,1.4l-0.1,1.4c-0.1,0.3-0.1,0.6,0,0.9c0.2,0.8,1.2,1,2,1
				c1.3-0.2,2.6-0.5,3.8-1.1c3.6-1.2,7.4-1.2,11.2-1.3c0.8,0,1.7-0.1,2.1-0.8c1.3-2.4-5.2-3.6-6.6-3.7
				C279.3,372.3,275.4,373,271.9,374.6z"/>
			<g class="st11">
				<path class="st12" d="M373.4,388.4c-1.3,2-2.7,3.8-4.2,5.6c-2.2-10.4-5.7-20.4-10.4-29.9c-6.9-14.2-15.7-27.3-24.2-40.6
					c-5-7.6-10-15.5-11.4-24.5c-1.3-8.2,0.6-16.6,4.2-24c2.8-5.7,6.5-11,11-15.6c0.5-0.5,1-1,1.4-1.5c2.6,1.6,5.1,3.5,7.4,5.6
					c-5.9,7.4-11.2,15.5-13,24.8c-1.9,9.8,0.4,20.1,4.3,29.3c3.9,9.2,9.4,17.7,14.4,26.4c7.3,13.3,13.8,27.1,19.3,41.3
					C372.6,386.2,373,387.3,373.4,388.4z"/>
				<path class="st12" d="M381.3,369.1c-0.6,2.7-1.3,5.3-2.2,7.9l-28.8-50.8c-4.1-7.2-8.3-14.8-8.1-23c0.1-5.6,2.3-11,4.4-16.1
					c1.5-3.5,3.7-13.3,6.8-17.2c2.6,3.1,5,6.3,7.2,9.6c-1,2.3-2.3,4.4-3.5,6.6c-3.3,6.6-4.7,14-3.9,21.3c1.3,12.4,8.4,23.2,14.5,34
					c4.6,8.1,8.8,16.5,12.5,25.1C380.6,367.4,381,368.3,381.3,369.1z"/>
				<path class="st12" d="M382.6,343.6c-6.4-7.9-12.3-16.2-17.6-24.9c-1.5-2.2-2.6-4.6-3.3-7.2c-0.4-2.3-0.5-4.7-0.1-7
					c0.4-3.3,1-12.9,3-18.7c1.8,3.2,3.6,6.6,5.2,10.1c-0.5,0.9-0.9,1.9-1.3,2.9c-0.6,2.5-0.7,5-0.3,7.5c0.7,6.3,2.4,12.4,5.1,18.2
					c2,4.2,4.3,8.3,6.9,12.2l2.2,3.5l0,0C382.3,341.3,382.5,342.5,382.6,343.6z"/>
				<path class="st12" d="M355,405.6c-5.2,2.9-10.8,5.1-16.6,6.4c-2.4-16.3-7.5-32.2-15.1-46.8c-5.8-11.3-13.1-21.8-18.9-33.1
					c-5.8-11.3-10-23.8-9.2-36.5c0.8-12,6.2-23.5,13.7-32.9c2.9-3.7,6.3-7.1,10-10c1.1-0.1,2.2-0.2,3.3-0.2c3.7,0,7.4,0.7,10.8,2
					c-1.8,5-9.8,11.3-11.7,13.5c-5.6,6.6-9.1,14.7-10.1,23.3c-1.5,13.3,3.1,26.7,9.6,38.5c6.4,11.8,14.6,22.6,20.9,34.4
					c5.6,10.5,9.7,21.7,12.2,33.4C354.5,400.2,354.9,402.9,355,405.6z"/>
				<path class="st12" d="M316.9,414c-3-0.1-6-0.4-9-0.9c-1.2-19.7-14-36.6-22.2-54.6c-9-20-12.5-42-10.3-63.8
					c6.4-13.6,14.7-25.5,24.2-33.2l0.9-0.7c-1.3,6.7-4.9,16.9-5.6,19.3c-3.6,13.8-7.3,27.9-6.1,42.2c1.8,21.6,14.3,40.6,23.7,60.2
					c2.7,5.7,5.3,11.6,6.1,17.8C319.2,404.9,318.6,409.7,316.9,414z"/>
			</g>
			
				<linearGradient id="SVGID_36_" gradientUnits="userSpaceOnUse" x1="181.6872" y1="229.0342" x2="314.9158" y2="318.7676" gradientTransform="matrix(1.0906 0 0 -1.0906 -4.3751 662.8185)">
				<stop  offset="1.000000e-02" style="stop-color:#000000"/>
				<stop  offset="0.13" style="stop-color:#000000;stop-opacity:0.69"/>
				<stop  offset="1" style="stop-color:#000000;stop-opacity:0"/>
			</linearGradient>
			<path class="st24" d="M327.1,378c-1.8,9.8-4.3,21.3,2.5,28.5c-8.1,2.8-16.5,5.1-25,4.9c-8.5-0.2-17.3-3.3-22.8-9.8
				c-7-8.3-7.5-20.2-7.6-31.1l-0.7-67.3c-0.1-8.4-0.1-17,2.9-24.8c4.1-10.8,14.7-19.9,23.9-9.9c8.6,9.3,14.8,22.3,19.4,34
				C329.2,326.4,331.8,352.6,327.1,378z"/>
			
				<linearGradient id="SVGID_37_" gradientUnits="userSpaceOnUse" x1="217.8469" y1="322.5644" x2="219.2078" y2="234.1918" gradientTransform="matrix(1.0906 0 0 -1.0906 17.8622 689.1674)">
				<stop  offset="1.000000e-02" style="stop-color:#000000"/>
				<stop  offset="0.13" style="stop-color:#000000;stop-opacity:0.69"/>
				<stop  offset="1" style="stop-color:#000000;stop-opacity:0"/>
			</linearGradient>
			<ellipse class="st25" cx="256.7" cy="416.3" rx="83.8" ry="8.9"/>
			<path class="st26" d="M314.9,346.4v0.4c0,5.2-0.4,10.4-1.2,15.6c-1.3,9-4.4,17.6-8.9,25.5c-0.2,0.4-0.5,0.8-0.7,1.2
				c-2.6,4.2-5.6,8.1-9.1,11.6c-14.3,14.4-34.8,21.3-57,21.3c-20,0-37.6-5.6-50.4-17.4c-3.4-3.1-6.4-6.6-9-10.4
				c-4.7-7-8-14.7-10-22.9c-1.9-8-2.8-16.3-2.8-24.5c0-1.1,0-2.2,0-3.3c0.1-3,0.3-6,0.6-9.1c0.6-6.6,1.7-13.1,3.1-19.5
				c6.8-31.5,22.7-63.7,43-80.1c8.6-6.9,18-11,27.8-11C281.4,223.8,314.7,295.1,314.9,346.4z"/>
			
				<linearGradient id="SVGID_38_" gradientUnits="userSpaceOnUse" x1="129.5333" y1="205.6728" x2="212.1301" y2="291.3236" gradientTransform="matrix(1.0906 0 0 -1.0906 -4.3751 662.8185)">
				<stop  offset="1.000000e-02" style="stop-color:#000000"/>
				<stop  offset="0.13" style="stop-color:#000000;stop-opacity:0.69"/>
				<stop  offset="1" style="stop-color:#000000;stop-opacity:0"/>
			</linearGradient>
			<path class="st27" d="M314.9,346.4v0.4c0,5.2-0.4,10.4-1.2,15.6c-1.3,9-4.4,17.6-8.9,25.5c-0.2,0.4-0.5,0.8-0.7,1.2
				c-2.6,4.2-5.6,8.1-9.1,11.6c-14.3,14.4-34.8,21.3-57,21.3c-20,0-37.6-5.6-50.4-17.4c-3.4-3.1-6.4-6.6-9-10.4
				c-4.7-7-8-14.7-10-22.9c-1.9-8-2.8-16.3-2.8-24.5c0-1.1,0-2.2,0-3.3c0.1-3,0.3-6,0.6-9.1c0.6-6.6,1.7-13.1,3.1-19.5
				c6.8-31.5,22.7-63.7,43-80.1c8.6-6.9,18-11,27.8-11C281.4,223.8,314.7,295.1,314.9,346.4z"/>
			<path class="st26" d="M314.9,346.8c0,17.1-4,31.1-10.8,42.2c-13.6,9.9-30.9,14.8-49.4,14.8c-41.1,0-72.2-23.9-72.2-75.2
				c0-30.5,11.8-68.2,30-93.8c8.6-6.9,18-11,27.8-11C281.5,223.8,314.9,295.5,314.9,346.8z"/>
			
				<linearGradient id="SVGID_39_" gradientUnits="userSpaceOnUse" x1="307.8347" y1="347.4401" x2="166.1086" y2="293.4007" gradientTransform="matrix(1.0906 0 0 -1.0906 -4.3751 662.8185)">
				<stop  offset="1.000000e-02" style="stop-color:#FFFFFF"/>
				<stop  offset="0.13" style="stop-color:#FFFFFF;stop-opacity:0.69"/>
				<stop  offset="1" style="stop-color:#FFFFFF;stop-opacity:0"/>
			</linearGradient>
			<path class="st28" d="M314.9,346.8c0,17.1-4,31.1-10.8,42.2c-13.6,9.9-30.9,14.8-49.4,14.8c-41.1,0-72.2-23.9-72.2-75.2
				c0-30.5,11.8-68.2,30-93.8c8.6-6.9,18-11,27.8-11C281.5,223.8,314.9,295.5,314.9,346.8z"/>
			<polygon class="st17" points="177.4,288.5 193.2,293.9 214.9,284.5 233.2,293.9 252,284.5 269.3,295.9 287.1,284.5 304,290.2 
				308.3,303.3 289.5,295.7 264.8,306.8 249.2,295.7 231.5,307.8 212.2,293.9 189.2,310.7 173,301.3 			"/>
			<polygon class="st12" points="177.4,288.5 193.2,293.9 214.9,284.5 233.2,293.9 252,284.5 269.3,295.9 287.1,284.5 304,290.2 
				308.3,303.3 289.5,295.7 264.8,306.8 249.2,295.7 231.5,307.8 212.2,293.9 189.2,310.7 173,301.3 			"/>
			<path class="st18" d="M314.9,346.4v0.4c0,5.2-0.4,10.4-1.2,15.6c-3.5-2.4-6.8-5.3-9.7-8.5c-2.1-2.3-4.3-5-7.3-5.8
				c-3.4-0.9-7,1-9.7,3.4c-2.7,2.4-4.8,5.4-7.6,7.5c-4,3-9.2,4-14.1,2.9c-4.7-1.1-8.6-4.1-12.7-6.5c-4.1-2.5-8.9-4.5-13.5-3.4
				c-6.8,1.6-10.5,8.8-16.1,12.9c-7.2,5-16.9,4.7-23.7-0.8c-3.8-3.2-7-8.2-12-8.5c-4.7-0.3-8.3,3.8-10.9,7.6
				c-2.2,3.1-4.4,6.6-7.7,8.3c-1.9-8-2.8-16.3-2.8-24.5c0-1.1,0-2.2,0-3.3c0.1,0,0.2,0.1,0.3,0.1c4.9-5.5,13-7,19.6-3.5
				c3.5,2,6.2,5.3,9.5,7.5c5.2,3.5,11.7,4.3,17.7,2.3c6.7-2.3,11.7-8,15.9-13.8c2.9-4,9.3-3.1,14-1.7s8.8,4.4,12.4,7.7
				c4.3,4,8.8,8.8,14.7,8.8c6.4,0,11.3-5.8,13.9-11.6c1.1-2.3,2.1-5,4.3-6.3c1.5-0.8,3.2-1.2,4.8-1.3c4.7-0.5,10.1-0.8,13.7,2.3
				S311,343.2,314.9,346.4L314.9,346.4z"/>
			<path class="st12" d="M304.8,387.8c-0.2,0.4-0.5,0.8-0.7,1.2c-2.6,4.2-5.6,8.1-9.1,11.6c-4,0.3-8-0.1-11.9-1
				c-6.1-1.6-11.7-5.1-18-6.3c-13.6-2.5-26.9,6.7-40.8,6.3c-5-0.2-9.9-1.6-14.9-2.3c-5-0.7-10.3-0.7-14.7,1.8
				c-2.6,1.5-4.7,3.9-7.3,5.5c-3.4-3.1-6.4-6.6-9-10.4c5.5-0.5,10.8-2.3,15.5-5.1c5.3-3.2,10.8-7.7,17-6.8c3.2,0.4,6,2.3,9,3.7
				c4.8,2.3,10.1,3.5,15.4,3.4c3.1,0.1,6.1-0.6,8.9-2c2-1,3.7-2.5,5.6-3.6c4-2.3,8.8-2.9,13.4-3.5c2.2-0.4,4.5-0.4,6.7,0
				c3.7,0.8,6.5,3.6,9.8,5.5C287.3,390.3,296.2,389.7,304.8,387.8z"/>
			<circle class="st12" cx="208" cy="324.7" r="9.9"/>
			<circle class="st12" cx="251.6" cy="321.6" r="9.9"/>
			<circle class="st12" cx="288" cy="317.1" r="9.9"/>
			<path class="st12" d="M178.6,324.7c0,5.5-4.4,9.9-9.9,9.9h0c-0.8,0-1.5-0.1-2.2-0.3c0.6-6.6,1.7-13.1,3.1-19.5
				C174.7,315.2,178.7,319.5,178.6,324.7z"/>
			<path class="st12" d="M178.6,373.5c-0.4,0.1-0.7,0.3-1,0.7c-0.2,0.3-0.3,0.7-0.3,1.1l-0.1,1.7c-0.1,0.4,0,0.7,0.1,1.1
				c0.3,0.9,1.5,1.3,2.5,1.2c1.6-0.2,3.2-0.7,4.7-1.3c4.4-1.5,9.1-1.5,13.7-1.5c1,0,2.1-0.1,2.6-1c1.6-2.9-6.3-4.5-8.1-4.5
				C187.8,370.7,183,371.6,178.6,373.5z"/>
			<path class="st12" d="M230.5,369.3c-1.9,0.6-3.9,1.4-4.8,3.2c-0.2,0.3-0.3,0.7-0.2,1.1c0.2,0.7,1.2,0.8,1.9,0.8l20.9-0.7
				c2-0.1,4-1.6,3.4-3.9c-0.5-2.1-2.3-2.3-4.2-2.5C241.7,366.8,235.9,367.5,230.5,369.3z"/>
			<path class="st12" d="M281.4,365.1c-3.3-0.2-6.5,0.1-9.7,0.8c-0.8,0.2-1.8,0.7-2,1.5c-0.1,0.8,0.3,1.6,0.9,2.1
				c1.6,1.3,3.5,2,5.5,2.1c2,0.2,4,0,6,0.2c4.4,0.4,9.1,2.2,13.1,0.5c0.2-0.1,0.4-0.2,0.6-0.4c1.7-2.3-2.3-5.8-4.3-6.4
				C288.5,364.5,284.5,365.1,281.4,365.1z"/>
		</g>
	</g>
</g>
<g>
	<linearGradient id="SVGID_40_" gradientUnits="userSpaceOnUse" x1="488.8761" y1="344.3265" x2="485.0052" y2="421.7457">
		<stop  offset="1.000000e-02" style="stop-color:#000000"/>
		<stop  offset="0.13" style="stop-color:#000000;stop-opacity:0.69"/>
		<stop  offset="1" style="stop-color:#000000;stop-opacity:0"/>
	</linearGradient>
	<path class="st29" d="M431.3,410.1c-12.8,6.2,26.2,9.8,40.4,8.9l62.2-4c2.7-0.2,9.8-0.2,7.7-2C531,404.4,448.2,402,431.3,410.1z"/>
	<path class="st30" d="M687.5,350.4c-4,5.8-8.4,10-13.2,12.1c-37.7,16.7-48.6-26.2-146.3,8.4c-7.6,2.7-15.3,5-23.1,6.8
		c-55.4,12.8-80.2-9.3-87.9-27.3c-3.2-7.3-3.5-13.9-2-17.2c5.8-12.5,0.5-33-10.5-91.5c-11-58.5,37.7-78,75.5-87.2
		c24.2-5.9,36.1-14,41.4-19c6.2-5.9,13.6-10.6,21.6-13.6c54.4-20.3,80.9-2.1,113.3,23.8c7.2,5.7,14.6,11.8,22.7,17.9
		C721.5,195.7,714.9,310.6,687.5,350.4z"/>
	<path class="st12" d="M679,188.2v140.4c0,5.7-4.6,10.3-10.3,10.3l0,0H455.6c-5.7,0-10.3-4.6-10.3-10.3V188.2
		c0-5.7,4.6-10.3,10.3-10.3h213.1C674.4,177.9,679,182.5,679,188.2C679,188.2,679,188.2,679,188.2L679,188.2L679,188.2z"/>
	<path class="st31" d="M484.4,377.1c-0.4,2.7-16.4,31.7-16.4,31.7c4.7,0.8,6.4,4.2,6.4,4.2H460l11.4-35.9c0,0,0.5-17.2-2.5-26.5
		c-2-6.2-1.9-13.4-1.5-17.5c0.1-2.1,0.3-3.3,0.3-3.3l21.3,9.6C489,339.4,484.8,374.4,484.4,377.1z"/>
	<path class="st32" d="M510.4,413.1h-14.6V413l-2.6-37.8c0,0-12.4-15.1-19.5-26c-7.2-11-6-18.2-6-18.2h19.7c1,0.4,2.3,4.3,3.2,6.3
		c3.7,8.3,12,25.5,12.7,28.8c2.3,10.4-0.9,41.7-0.9,41.7C506.8,408,510.4,413.1,510.4,413.1z"/>
	
		<rect x="642.8" y="252.3" transform="matrix(0.6003 -0.7998 0.7998 0.6003 53.588 616.2733)" class="st12" width="1.1" height="4.5"/>
	<path class="st33" d="M679,188.2v3.4H445.2v-3.4c0-5.7,4.6-10.3,10.3-10.3h213.1C674.4,177.9,679,182.5,679,188.2
		C679,188.2,679,188.2,679,188.2L679,188.2L679,188.2z"/>
	
		<linearGradient id="SVGID_41_" gradientUnits="userSpaceOnUse" x1="788.4689" y1="370.7094" x2="786.2189" y2="467.5694" gradientTransform="matrix(0.5135 0 0 0.5135 50.2015 -15.9458)">
		<stop  offset="0" style="stop-color:#000000;stop-opacity:0"/>
		<stop  offset="0.91" style="stop-color:#000000;stop-opacity:0.8"/>
		<stop  offset="1" style="stop-color:#000000"/>
	</linearGradient>
	<path class="st34" d="M457,185.5c0,1.2-1,2.2-2.2,2.2c-1.2,0-2.2-1-2.2-2.2s1-2.2,2.2-2.2l0,0l0,0C456,183.3,457,184.3,457,185.5
		C457,185.5,457,185.5,457,185.5L457,185.5L457,185.5z"/>
	
		<linearGradient id="SVGID_42_" gradientUnits="userSpaceOnUse" x1="800.7124" y1="370.9895" x2="798.4624" y2="467.8495" gradientTransform="matrix(0.5135 0 0 0.5135 50.2015 -15.9458)">
		<stop  offset="0" style="stop-color:#000000;stop-opacity:0"/>
		<stop  offset="0.91" style="stop-color:#000000;stop-opacity:0.8"/>
		<stop  offset="1" style="stop-color:#000000"/>
	</linearGradient>
	<path class="st35" d="M463.3,185.5c0,1.2-1,2.2-2.2,2.2c-1.2,0-2.2-1-2.2-2.2s1-2.2,2.2-2.2c0,0,0,0,0,0l0,0
		C462.3,183.3,463.3,184.3,463.3,185.5C463.3,185.5,463.3,185.5,463.3,185.5L463.3,185.5L463.3,185.5z"/>
	
		<linearGradient id="SVGID_43_" gradientUnits="userSpaceOnUse" x1="812.9457" y1="371.2794" x2="810.6957" y2="468.1294" gradientTransform="matrix(0.5135 0 0 0.5135 50.2015 -15.9458)">
		<stop  offset="0" style="stop-color:#000000;stop-opacity:0"/>
		<stop  offset="0.91" style="stop-color:#000000;stop-opacity:0.8"/>
		<stop  offset="1" style="stop-color:#000000"/>
	</linearGradient>
	<path class="st36" d="M469.6,185.5c0,1.2-1,2.2-2.2,2.2s-2.2-1-2.2-2.2s1-2.2,2.2-2.2l0,0l0,0C468.6,183.3,469.6,184.3,469.6,185.5
		C469.6,185.5,469.6,185.5,469.6,185.5L469.6,185.5L469.6,185.5z"/>
	<path class="st33" d="M472.3,313l-4.8,8.6c-0.6-0.4-1.2-0.9-1.8-1.5c-3.7-3.4-11.3-12.8-4-27.6c0,0,3.4-9.2,5.3-13.1
		c0.2-0.6,0.6-1.2,1-1.7C469.1,276.9,472.3,313,472.3,313z"/>
	
		<ellipse transform="matrix(0.8209 -0.5711 0.5711 0.8209 -57.7451 324.613)" class="st37" cx="488.6" cy="254.4" rx="4.9" ry="9.7"/>
	<polygon class="st32" points="493.5,262.8 496.5,266.9 498,265.7 495,261.9 	"/>
	
		<rect x="497.9" y="262" transform="matrix(0.7657 -0.6432 0.6432 0.7657 -55.8226 384.1357)" class="st38" width="2.9" height="13.4"/>
	
		<linearGradient id="SVGID_44_" gradientUnits="userSpaceOnUse" x1="918.7283" y1="-49.1157" x2="959.7052" y2="-49.1157" gradientTransform="matrix(0.5135 0 0 -0.5135 -4.2459 236.4182)">
		<stop  offset="0" style="stop-color:#ECC4D7"/>
		<stop  offset="0.42" style="stop-color:#EFD4D1"/>
		<stop  offset="1" style="stop-color:#F2EAC9"/>
	</linearGradient>
	<path class="st39" d="M483.8,247.9c0,0,1.3,3.1,2.5,6.4c0.3,0.8,2,1.4,2.2,2.2c0.5,1.6-0.8,2.1-0.8,3.1c-0.2,3.2,0.9,6.6-4.4,8.6
		c-4.7,1.7-2.8,9.4-2.8,9.4s-6.1,2.7-8.7-0.7c0,0,1-10.2-3.2-18.9C464.2,249.2,475.7,239.6,483.8,247.9z"/>
	<path class="st31" d="M470.9,275.4l0.5-2.5c0,0,8.4,0.5,9.2,1.3c0.6,0.6,1.1,1.3,1.4,2L470.9,275.4z"/>
	<path class="st33" d="M487.3,331.2h-17.8c-2.8-0.1-3.9-0.6-3.9-3.3c0.1-5,0-39.5,1.3-47.2c0.8-4.8,4.3-5.7,5.1-5.9h0.1
		c0,0,5.3,0.5,7.5,0.4c2.3,0,5.2,3.4,5.2,3.4s1.8,7.1,3.5,13.1c0.8,2.9,1.5,5.6,2,7.1c1,3.1,2.1,17.7,2.7,26.1
		c0.2,3.2-2.2,6-5.4,6.2l0,0L487.3,331.2z"/>
	
		<linearGradient id="SVGID_45_" gradientUnits="userSpaceOnUse" x1="821.9631" y1="679.8022" x2="901.3632" y2="541.2822" gradientTransform="matrix(0.5135 0 0 0.5135 50.2015 -15.9458)">
		<stop  offset="0" style="stop-color:#000000;stop-opacity:0"/>
		<stop  offset="0.91" style="stop-color:#000000;stop-opacity:0.8"/>
		<stop  offset="1" style="stop-color:#000000"/>
	</linearGradient>
	<path class="st40" d="M487.3,331.2h-5.1l-2.1-41.8l8.3,2.3c0.8,2.9,1.5,5.6,2,7.1c1,3.1,2.1,17.7,2.7,26.1c0.2,3.2-2.2,6-5.4,6.2
		l0,0L487.3,331.2z"/>
	<path class="st32" d="M483.8,247.9l-2-0.2c-0.1,1.3-0.7,2.4-1.8,3.2c-0.2-0.4-0.6-0.7-1-0.9c-0.7,0.8,0.1,2.1,0.1,3.2
		c0,0.5-0.1,1-0.3,1.5c-0.3,1.1-0.3,2.3-0.2,3.4c-0.7-0.1-1.1-1.1-1.8-1.2c-0.7-0.1-1.2,0.5-1.4,1.1c-0.4,1.6,0.6,3.2,2.2,3.5h0.1
		c0.2,0,0.4,0.1,0.5,0.2c0.1,0.1,0.1,0.2,0.1,0.3c0,1.4-0.3,2.9-0.7,4.2c-0.5,1.4-1.5,2.5-2.8,3.1c-0.9,0.4-2.2,0.4-2.6-0.5
		c0.1,0.5-0.5,0.8-0.9,0.7c-0.4-0.1-0.8-0.5-1-0.9c-1.4-2.1-1.8-4.7-2.6-7.1c-0.7-2.1-1.8-4-2.7-6.1c-0.9-2.1-1.5-4.3-1.1-6.5
		c0.5-3.2,3-5.8,6.2-6.5c0.6-0.1,1.2-0.2,1.7-0.4c0.5-0.3,0.9-0.6,1.4-0.9c1-0.5,2-0.7,3.1-0.8c1.1-0.1,2.2-0.1,3.3,0.1
		c4.1,0.3,3.9,4.2,4.2,5.1C483.6,245.8,484,247.9,483.8,247.9z"/>
	
		<linearGradient id="SVGID_46_" gradientUnits="userSpaceOnUse" x1="1080.6506" y1="-6.3538" x2="1099.8307" y2="-6.3538" gradientTransform="matrix(0.5091 -6.684865e-02 -6.684865e-02 -0.5091 -56.0784 337.3692)">
		<stop  offset="0" style="stop-color:#ECC4D7"/>
		<stop  offset="0.42" style="stop-color:#EFD4D1"/>
		<stop  offset="1" style="stop-color:#F2EAC9"/>
	</linearGradient>
	<path class="st41" d="M497.4,263.5c0-0.4,0.1-0.8,0.3-1.1c0.2-0.4,0.5-0.6,0.9-0.6c0.5,0.1,0.8,0.5,1,1c0.3,0.6,0.7,1.3,1,1.9
		c0.7-0.3,1.6,0.3,2.1,0.9s0.7,1.5,1.4,2c0.2,0.1,0.4,0.3,0.5,0.5c0.2,0.3,0.2,0.6,0.1,1l-0.1,1.3c-0.1,0.9-0.2,1.8-0.8,2.4
		c-0.6,0.5-1.3,0.7-2.1,0.8c-0.6,0.1-1.3,0.2-2,0.1c-0.9-0.2-1.7-0.7-2.4-1.3c-1-0.8-3.7-3.4-1.9-4.5c0.7-0.4,1.1,0.1,1.5-0.7
		C497.5,266.2,497.4,264.4,497.4,263.5z"/>
	<path class="st33" d="M504.4,291.5c-1.4,6.2-5.7,9.8-10.1,10.5c-2,0.4-4,0.1-5.8-0.8c-5.5-2.9-11.5-17.9-11.2-22.7
		c0.1-2.3,1.1-3.3,2.5-3.4c1.5,0,3.4,1.2,5.2,3.4c1.8,2.2,3.3,5.2,4.8,7.4c0.5,0.8,1.2,1.6,1.9,2.2c0.4,0.4,1,0.7,1.5,0.8
		c0.8,0.1,1.6-0.2,2.1-0.7c4.1-3.2,2.5-15.6,2.5-15.6l2.1-0.1l4.3-0.3C504.2,272.3,506.4,282.5,504.4,291.5z"/>
	<path class="st42" d="M468.8,330.4c0.2,0.2,0.5,0.5,0.6,0.8c-2.8-0.1-3.9-0.6-3.9-3.3c0.1-5,0-39.5,1.3-47.2
		c0.8-4.8,4.3-5.7,5.1-5.9h0.1c-1.8,2.2-2.9,4.8-3.4,7.7C468.2,286.9,467.4,328.9,468.8,330.4z"/>
	<path class="st42" d="M494.2,302.1c-2,0.4-4,0.1-5.8-0.8c-5.5-2.9-11.5-17.9-11.2-22.7c0.1-2.3,1.1-3.3,2.5-3.4
		c0,0.5-2.2,6.1,4.5,17.9C488.7,301.1,493,301.4,494.2,302.1z"/>
	<path class="st12" d="M491.6,288.2c-0.8-0.6-1.5-1.3-1.9-2.2C490.2,286.8,490.9,287.6,491.6,288.2z"/>
	<path class="st42" d="M493.1,289c0.8,0.1,1.6-0.2,2.1-0.7c4.1-3.2,2.5-15.6,2.5-15.6l2.1-0.1C499.8,272.6,501.9,292.3,493.1,289z"
		/>
	<path class="st42" d="M460.8,305c-1.1,6.8,5,12.9,5,12.9v2.3c-3.7-3.4-11.3-12.8-4-27.6c0,0,3.4-9.2,5.3-13.1v1.2
		C467,280.6,461.8,298.2,460.8,305z"/>
	<path class="st42" d="M496.4,413.1c0,0.5,0.1,1.1,0.2,1.6l-0.8-1.6l0-0.1l-2.6-37.8c0,0-12.4-15.1-19.5-26c-7.2-11-6-18.2-6-18.2
		h1.4c0.1,0.1,0.3,0.1,0.4,0.2c0,0,1.4,13,23.7,40.9c0,0,4.4,4,3.4,19.4C495.7,405,496.2,410.7,496.4,413.1z"/>
	<path class="st42" d="M473.6,378.6l-11.9,34.5H460l11.4-35.9c0,0,0.5-17.2-2.5-26.5c-2-6.2-1.9-13.4-1.5-17.5l2.1,8.2
		c0.4,4.5,1.3,9,2.7,13.3C474.4,361.2,473.6,378.6,473.6,378.6z"/>
	<g>
		<g>
			<g>
				<path class="st33" d="M544.6,259.1h-3.3c-0.3,0-0.6,0.3-0.6,0.6v1.2c0,2.9,1.3,4.2,5,4.2c3.7,0,2.9,0,7.1,0s6.2-0.4,6.2-5
					c0-4.5-0.3-6.3-6.5-6.3c-1.2,0-3.7,0-5.5,0c-2.5,0-2.6-3-0.2-3c1.4,0,4.3,0,5.2,0c1.2,0,1.7,0.3,1.8,1.3c0,0.3,0.3,0.5,0.6,0.5
					h3.3c0.3,0,0.6-0.3,0.6-0.6v-1.3c0-4-3.7-4-5-4s-6,0-7,0c-2.5,0-5.7-0.3-5.7,5.5c0,5.9,2.3,5.6,7.1,5.6c3.3,0,2.4,0,4.2,0
					c3.9,0,3,3.1,0.9,3.1c0,0-5.1,0-6,0c-0.8,0-1.5-0.1-1.6-1.4C545.2,259.3,544.9,259.1,544.6,259.1z"/>
			</g>
			<path class="st33" d="M568.4,259.9l-2.8-2.8c-0.3-0.3-0.3-0.8,0-1.1l2.8-2.8c0.3-0.3,0.8-0.3,1.1,0l2.8,2.8
				c0.3,0.3,0.3,0.8,0,1.1l-2.8,2.8C569.1,260.2,568.7,260.2,568.4,259.9z"/>
			<path class="st33" d="M564.3,265.1h-3.5c-0.3,0-0.5-0.2-0.5-0.5v-17.2c0-0.3,0.2-0.5,0.5-0.5h3.5c0.3,0,0.5,0.2,0.5,0.5v17.2
				C564.9,264.8,564.6,265.1,564.3,265.1z"/>
			<path class="st33" d="M577,265.1h-3.5c-0.3,0-0.5-0.2-0.5-0.5v-17.2c0-0.3,0.2-0.5,0.5-0.5h3.5c0.3,0,0.5,0.2,0.5,0.5v17.2
				C577.5,264.8,577.3,265.1,577,265.1z"/>
			<g>
				<path class="st33" d="M537.3,257.3v-10c0-0.3-0.2-0.5-0.5-0.5h-4.1c-0.4,0-0.8,0.1-1.1,0.4l-9.3,6.9c-0.5,0.4-0.8,0.9-0.8,1.5
					v5.2c0,0.3,0.2,0.5,0.5,0.5h11v3.2c0,0.3,0.2,0.5,0.5,0.5h3.3c0.3,0,0.5-0.2,0.5-0.5v-3.2h1.7c0.3,0,0.5-0.2,0.5-0.5v-2.9
					c0-0.3-0.2-0.5-0.5-0.5H537.3L537.3,257.3z M532.9,257.3h-7.6c-0.1,0-0.1-0.1-0.1-0.2l7.6-5.8c0.1-0.1,0.2,0,0.2,0.1v5.8
					C533,257.3,532.9,257.3,532.9,257.3z"/>
			</g>
		</g>
		<g>
			<path class="st33" d="M579.5,265.4V263c0-0.6,0.5-0.9,1.6-0.9h0.9c1.1,0,1.6,0.3,1.6,0.9v2.5c0,0.6-0.5,0.9-1.6,0.9h-0.9
				C580,266.3,579.5,266,579.5,265.4z"/>
			<path class="st33" d="M586.3,265.4v-10.1h-0.5c-0.3,0-0.5-0.1-0.6-0.3c-0.1-0.2-0.2-0.6-0.2-1v-0.5c0-0.5,0.1-0.8,0.2-1
				c0.1-0.2,0.3-0.3,0.6-0.3h0.5v-2c0-2.9,1.3-4.3,3.9-4.3c1.8,0,2.7,0.4,2.7,1.3c0,0.1,0,0.3-0.1,0.6c-0.1,0.3-0.2,0.6-0.3,0.9
				s-0.3,0.4-0.4,0.4c-0.1,0-0.2,0-0.4-0.1c-0.2,0-0.3-0.1-0.4-0.1c-0.3,0-0.6,0.1-0.7,0.3c-0.2,0.2-0.2,0.5-0.2,0.9v2.1h1.3
				c0.3,0,0.5,0.1,0.6,0.3s0.2,0.6,0.2,1v0.5c0,0.5-0.1,0.8-0.2,1c-0.1,0.2-0.3,0.3-0.6,0.3h-1.3v10.1c0,0.6-0.5,0.9-1.6,0.9H588
				C586.9,266.3,586.3,266,586.3,265.4z"/>
			<path class="st33" d="M594.6,265.4v-8.5c0-0.8,0-1.4-0.1-1.8s-0.1-0.9-0.2-1.4c-0.1-0.3-0.1-0.4-0.1-0.6c0-0.3,0.4-0.5,1.1-0.6
				c0.7-0.1,1.4-0.2,1.9-0.2c0.3,0,0.5,0.1,0.7,0.4c0.1,0.2,0.2,0.5,0.3,0.8c0.1,0.3,0.1,0.5,0.1,0.6c0.3-0.6,0.7-1.1,1.2-1.5
				s1-0.5,1.7-0.5c0.6,0,1,0.1,1.2,0.4s0.3,0.6,0.3,1c0,0.4-0.1,0.8-0.2,1.4s-0.4,0.8-0.6,0.8c-0.1,0-0.3,0-0.6-0.1
				c-0.3-0.1-0.5-0.1-0.7-0.1c-0.5,0-0.9,0.1-1.3,0.4c-0.4,0.3-0.7,0.6-0.9,0.9v8.6c0,0.6-0.5,0.9-1.6,0.9h-0.8
				C595.1,266.3,594.6,266,594.6,265.4z"/>
		</g>
	</g>
</g>
<g>
	<g>
		<path class="st33" d="M296.2,145.2c-0.3-0.3-0.5-0.9-0.5-1.7v-34.2c0-0.8,0.2-1.3,0.5-1.7c0.3-0.3,0.9-0.5,1.7-0.5h19.4
			c0.6,0,1,0.2,1.3,0.7c0.3,0.4,0.4,1.1,0.4,2.1v1.7c0,1-0.1,1.7-0.4,2.1c-0.3,0.4-0.7,0.7-1.3,0.7h-13.1v8h11.6
			c0.6,0,1,0.2,1.3,0.7c0.3,0.4,0.4,1.1,0.4,2.1v1.7c0,1-0.1,1.7-0.4,2.1c-0.3,0.4-0.7,0.7-1.3,0.7h-11.6v8.9h13.1
			c0.6,0,1,0.2,1.3,0.7c0.3,0.4,0.4,1.1,0.4,2.1v1.7c0,1-0.1,1.7-0.4,2.1c-0.3,0.4-0.7,0.7-1.3,0.7h-19.4
			C297.1,145.7,296.6,145.5,296.2,145.2z"/>
		<path class="st33" d="M325.9,143.9c-1.3-1.5-2-3.4-2-5.8c0-2.9,1.1-5.4,3.2-7.3c2.2-1.9,6.4-2.9,12.6-2.9V126c0-1.1-0.3-1.9-1-2.4
			c-0.7-0.5-1.8-0.8-3.3-0.8c-1.3,0-2.3,0.1-3.3,0.4c-0.9,0.3-1.8,0.6-2.5,0.9c-0.7,0.3-1.2,0.5-1.3,0.5c-0.4,0-0.8-0.3-1.2-0.8
			s-0.8-1.2-1.2-1.9s-0.5-1.3-0.5-1.7c0-0.6,0.5-1.2,1.4-1.8c0.9-0.6,2.2-1.1,3.8-1.4c1.6-0.4,3.4-0.6,5.4-0.6c4.2,0,7.2,0.8,9,2.5
			c1.9,1.6,2.8,3.9,2.8,6.8V136c0,1.7,0,3,0.1,3.9c0.1,0.9,0.2,1.9,0.4,2.9c0.1,0.5,0.2,0.9,0.2,1.2c0,0.6-0.7,1-2.2,1.3
			c-1.5,0.3-2.8,0.4-3.9,0.4c-0.7,0-1.1-0.3-1.4-0.8c-0.3-0.5-0.5-1.1-0.6-1.7c-0.1-0.6-0.2-1-0.2-1.3c-0.2,0.4-0.7,0.9-1.3,1.6
			s-1.6,1.2-2.8,1.8c-1.2,0.6-2.5,0.8-4,0.8C329.3,146.1,327.2,145.4,325.9,143.9z M337.7,138.7c0.9-0.7,1.6-1.5,2-2.5v-3
			c-5.2,0-7.7,1.4-7.7,4.1c0,0.7,0.2,1.3,0.7,1.8c0.5,0.4,1.2,0.7,2,0.7C335.8,139.7,336.8,139.3,337.7,138.7z"/>
		<path class="st33" d="M356.3,145.1c-1.9-0.7-2.9-1.6-2.9-2.7c0-0.7,0.3-1.6,1-2.7c0.7-1,1.3-1.6,1.9-1.6c0.3,0,0.7,0.1,1.2,0.4
			c0.8,0.3,1.5,0.6,2.1,0.8s1.4,0.3,2.2,0.3c1,0,1.8-0.2,2.4-0.6c0.6-0.4,0.8-1,0.8-1.7c0-0.7-0.2-1.2-0.6-1.6
			c-0.4-0.4-0.8-0.7-1.3-0.9c-0.5-0.2-1.4-0.6-2.8-1.1c-1.9-0.7-3.4-1.7-4.6-2.9c-1.2-1.2-1.7-3-1.7-5.4c0-2.8,0.9-5,2.7-6.6
			c1.8-1.6,4.2-2.4,7.3-2.4c1.9,0,3.8,0.3,5.6,0.8c1.8,0.6,2.7,1.3,2.7,2.4c0,0.7-0.3,1.6-0.8,2.7s-1.1,1.7-1.5,1.7
			c-0.1,0-0.7-0.2-1.6-0.6c-0.9-0.4-2-0.6-3.1-0.6c-2,0-2.9,0.6-2.9,1.9c0,0.8,0.3,1.4,1,1.9s1.6,0.9,3,1.5c0.2,0.1,0.6,0.3,1,0.4
			c0.5,0.2,0.9,0.4,1.2,0.6c1.5,0.7,2.6,1.6,3.5,2.8c0.9,1.2,1.3,2.8,1.3,4.8c0,2.9-1,5.2-2.9,6.9c-1.9,1.7-4.6,2.6-7.9,2.6
			C360.3,146.1,358.2,145.8,356.3,145.1z"/>
		<path class="st33" d="M378.7,137.2v-13.9h-0.9c-0.6,0-1-0.2-1.3-0.7c-0.3-0.4-0.4-1.1-0.4-2.1v-0.9c0-1,0.1-1.7,0.4-2.1
			c0.3-0.4,0.7-0.7,1.3-0.7h0.9l0.7-5.2c0.2-1.2,1.2-1.8,3-1.8h1.7c1.8,0,2.8,0.6,2.8,1.8v5.2h2.7c0.6,0,1,0.2,1.3,0.7
			c0.3,0.4,0.4,1.1,0.4,2.1v0.9c0,1-0.1,1.7-0.4,2.1c-0.3,0.4-0.7,0.7-1.3,0.7h-2.7v14c0,0.8,0.2,1.5,0.5,1.8
			c0.3,0.4,0.8,0.6,1.5,0.6c0.2,0,0.4,0,0.7-0.1c0.3-0.1,0.6-0.1,0.7-0.1c0.3,0,0.6,0.3,0.9,0.8c0.3,0.6,0.5,1.2,0.6,1.8
			c0.1,0.7,0.2,1.1,0.2,1.3c0,1.8-1.8,2.7-5.3,2.7C381.4,146.1,378.7,143.1,378.7,137.2z"/>
		<path class="st33" d="M399.2,142.2c-2.4-2.6-3.6-6.2-3.6-10.8c0-5.2,1.2-9,3.6-11.4s5.7-3.6,9.8-3.6c4.1,0,7.1,1.3,9,4
			s2.9,6.1,2.9,10.3c0,0.4-0.4,1.1-1.1,2c-0.8,0.9-1.3,1.3-1.7,1.3h-14.1c0.2,2.1,0.8,3.6,1.9,4.5c1.1,0.9,2.6,1.3,4.5,1.3
			c1,0,2-0.1,2.8-0.4c0.8-0.2,1.7-0.5,2.6-0.9c0.6-0.3,1-0.4,1.2-0.4c0.4,0,0.8,0.3,1.2,0.8c0.5,0.5,0.8,1.1,1.2,1.8
			c0.3,0.7,0.5,1.2,0.5,1.6c0,0.8-0.6,1.6-1.7,2.2c-1.1,0.6-2.5,1.1-4.1,1.4c-1.6,0.3-3,0.4-4.1,0.4
			C405.2,146.1,401.6,144.8,399.2,142.2z M413,128.4c0-1.7-0.3-3-1-4.1c-0.7-1-1.7-1.5-3-1.5c-2.7,0-4.4,1.9-5,5.6H413z"/>
		<path class="st33" d="M426.5,144v-17.5c0-1.6,0-2.9-0.1-3.7c-0.1-0.9-0.2-1.8-0.4-2.9c-0.1-0.5-0.2-0.9-0.2-1.2
			c0-0.6,0.7-1,2.2-1.3c1.5-0.3,2.8-0.4,3.9-0.4c0.7,0,1.1,0.2,1.4,0.7c0.3,0.5,0.5,1,0.6,1.6c0.1,0.6,0.2,1,0.2,1.2
			c0.7-1.3,1.5-2.3,2.5-3.1c0.9-0.8,2.1-1.1,3.6-1.1c1.2,0,2,0.3,2.5,0.9c0.5,0.6,0.7,1.3,0.7,2.1s-0.2,1.7-0.5,2.9
			s-0.7,1.7-1.2,1.7c-0.2,0-0.6-0.1-1.2-0.2c-0.6-0.1-1-0.2-1.4-0.2c-1,0-1.9,0.3-2.6,0.9c-0.8,0.6-1.4,1.2-1.8,1.9V144
			c0,1.2-1.1,1.8-3.3,1.8h-1.5C427.6,145.8,426.5,145.2,426.5,144z"/>
		<path class="st33" d="M461.2,145.2c-0.3-0.3-0.5-0.9-0.5-1.7v-34.2c0-0.8,0.2-1.3,0.5-1.7c0.3-0.3,0.9-0.5,1.7-0.5h19.4
			c0.6,0,1,0.2,1.3,0.7c0.3,0.4,0.4,1.1,0.4,2.1v1.7c0,1-0.1,1.7-0.4,2.1c-0.3,0.4-0.7,0.7-1.3,0.7h-13.1v8h11.6
			c0.6,0,1,0.2,1.3,0.7c0.3,0.4,0.4,1.1,0.4,2.1v1.7c0,1-0.1,1.7-0.4,2.1c-0.3,0.4-0.7,0.7-1.3,0.7h-11.6v8.9h13.1
			c0.6,0,1,0.2,1.3,0.7c0.3,0.4,0.4,1.1,0.4,2.1v1.7c0,1-0.1,1.7-0.4,2.1c-0.3,0.4-0.7,0.7-1.3,0.7h-19.4
			C462.1,145.7,461.6,145.5,461.2,145.2z"/>
		<path class="st33" d="M488,149.8c0-1.4,0.4-2.7,1.3-3.8s2.1-2,3.7-2.6l0.1-0.2c-0.8-0.4-1.4-0.9-1.8-1.7c-0.4-0.7-0.6-1.6-0.6-2.5
			c0-0.9,0.3-1.8,0.9-2.6s1.4-1.5,2.5-2c-3-1.7-4.5-4.4-4.5-8.2c0-3.3,1.1-5.8,3.3-7.4s5-2.4,8.6-2.4c1.4,0,2.9,0.1,4.2,0.4h8.9
			c0.6,0,1,0.2,1.3,0.7c0.3,0.4,0.4,1.1,0.4,2.1v0.9c0,1.7-0.4,2.6-1.3,2.6c-0.3,0-0.7,0-1.2-0.1c-0.5,0-0.9-0.1-1.2-0.2l-0.1,0.2
			c0.3,0.3,0.5,0.8,0.6,1.4s0.2,1.2,0.2,1.7c0,3.3-1,5.7-3.1,7.3c-2.1,1.6-4.8,2.4-8.1,2.4c-2.2,0-3.4,0.5-3.4,1.5
			c0,0.6,0.4,1.1,1.2,1.3s2.1,0.5,4,0.8c1.3,0.1,2.3,0.3,3,0.4c2.6,0.5,4.7,1.4,6.2,2.5s2.3,3,2.3,5.5c0,1.9-0.6,3.5-1.8,4.9
			c-1.2,1.4-2.8,2.5-5,3.3s-4.6,1.2-7.5,1.2C492.3,157.4,488,154.8,488,149.8z M506,150.2c1-0.5,1.4-1.1,1.4-2
			c0-0.8-0.6-1.5-1.8-1.8c-1.2-0.4-3.4-0.7-6.6-0.9c-0.9,0.3-1.6,0.8-2.2,1.3s-0.8,1.1-0.8,1.7c0,0.8,0.5,1.4,1.4,1.8
			s2.4,0.7,4.4,0.7C503.6,150.9,505,150.7,506,150.2z M504.4,129.1c0.8-0.6,1.2-1.6,1.2-2.9c0-1.3-0.4-2.3-1.2-3c-0.8-0.6-1.8-1-3-1
			s-2.2,0.3-3,1c-0.8,0.6-1.2,1.6-1.2,3c0,1.3,0.4,2.3,1.2,2.9c0.8,0.6,1.8,1,3,1S503.6,129.7,504.4,129.1z"/>
		<path class="st33" d="M519.2,149.8c0-1.4,0.4-2.7,1.3-3.8s2.1-2,3.7-2.6l0.1-0.2c-0.8-0.4-1.4-0.9-1.8-1.7
			c-0.4-0.7-0.6-1.6-0.6-2.5c0-0.9,0.3-1.8,0.9-2.6s1.4-1.5,2.5-2c-3-1.7-4.5-4.4-4.5-8.2c0-3.3,1.1-5.8,3.3-7.4s5-2.4,8.6-2.4
			c1.4,0,2.9,0.1,4.2,0.4h8.9c0.6,0,1,0.2,1.3,0.7c0.3,0.4,0.4,1.1,0.4,2.1v0.9c0,1.7-0.4,2.6-1.3,2.6c-0.3,0-0.7,0-1.2-0.1
			c-0.5,0-0.9-0.1-1.2-0.2l-0.1,0.2c0.3,0.3,0.5,0.8,0.6,1.4s0.2,1.2,0.2,1.7c0,3.3-1,5.7-3.1,7.3c-2.1,1.6-4.8,2.4-8.1,2.4
			c-2.2,0-3.4,0.5-3.4,1.5c0,0.6,0.4,1.1,1.2,1.3s2.1,0.5,4,0.8c1.3,0.1,2.3,0.3,3,0.4c2.6,0.5,4.7,1.4,6.2,2.5s2.3,3,2.3,5.5
			c0,1.9-0.6,3.5-1.8,4.9c-1.2,1.4-2.8,2.5-5,3.3s-4.6,1.2-7.5,1.2C523.6,157.4,519.2,154.8,519.2,149.8z M537.2,150.2
			c1-0.5,1.4-1.1,1.4-2c0-0.8-0.6-1.5-1.8-1.8c-1.2-0.4-3.4-0.7-6.6-0.9c-0.9,0.3-1.6,0.8-2.2,1.3s-0.8,1.1-0.8,1.7
			c0,0.8,0.5,1.4,1.4,1.8s2.4,0.7,4.4,0.7C534.8,150.9,536.2,150.7,537.2,150.2z M535.6,129.1c0.8-0.6,1.2-1.6,1.2-2.9
			c0-1.3-0.4-2.3-1.2-3c-0.8-0.6-1.8-1-3-1s-2.2,0.3-3,1c-0.8,0.6-1.2,1.6-1.2,3c0,1.3,0.4,2.3,1.2,2.9c0.8,0.6,1.8,1,3,1
			S534.8,129.7,535.6,129.1z"/>
		<path class="st33" d="M565.4,144v-35.3c0-1.2,1.1-1.8,3.3-1.8h1.9c2.2,0,3.3,0.6,3.3,1.8v13.6h14.9v-13.6c0-1.2,1.1-1.8,3.3-1.8
			h1.9c2.2,0,3.3,0.6,3.3,1.8V144c0,1.2-1.1,1.8-3.3,1.8h-1.9c-2.2,0-3.3-0.6-3.3-1.8v-14.4H574V144c0,1.2-1.1,1.8-3.3,1.8h-1.9
			C566.5,145.8,565.4,145.2,565.4,144z"/>
		<path class="st33" d="M606.9,143.9c-1.3-1.5-2-3.7-2-6.8v-18.7c0-1.2,1.1-1.8,3.3-1.8h1.5c2.2,0,3.3,0.6,3.3,1.8V136
			c0,1.1,0.3,2,0.8,2.6c0.5,0.6,1.4,0.9,2.5,0.9c1,0,1.9-0.3,2.6-1s1.4-1.4,1.8-2.2v-17.7c0-1.2,1.1-1.8,3.3-1.8h1.5
			c2.2,0,3.3,0.6,3.3,1.8V136c0,1.7,0,3,0.1,3.9c0.1,0.9,0.2,1.9,0.4,2.9c0.1,0.5,0.2,0.9,0.2,1.2c0,0.6-0.7,1-2.2,1.3
			c-1.5,0.3-2.8,0.4-3.9,0.4c-0.7,0-1.1-0.3-1.4-0.8c-0.3-0.5-0.5-1.1-0.6-1.7c-0.1-0.6-0.2-1-0.2-1.3c-0.9,1.2-2.1,2.2-3.5,3
			s-3,1.2-4.7,1.2C610.3,146.1,608.2,145.4,606.9,143.9z"/>
		<path class="st33" d="M635.8,144v-17.5c0-1.6,0-2.9-0.1-3.7c-0.1-0.9-0.2-1.8-0.4-2.9c-0.1-0.5-0.2-0.9-0.2-1.2
			c0-0.6,0.7-1,2.2-1.3c1.5-0.3,2.8-0.4,3.9-0.4c0.7,0,1.1,0.2,1.4,0.7c0.3,0.5,0.5,1,0.6,1.6c0.1,0.6,0.2,1,0.2,1.2
			c0.9-1.2,2.1-2.2,3.5-3c1.5-0.8,3-1.2,4.7-1.2c2.8,0,4.8,0.7,6.1,2.2c1.3,1.5,2,3.7,2,6.8V144c0,1.2-1.1,1.8-3.3,1.8H655
			c-2.2,0-3.3-0.6-3.3-1.8v-17.5c0-1.1-0.3-2-0.8-2.6c-0.5-0.6-1.4-0.9-2.5-0.9c-1,0-1.9,0.3-2.6,1c-0.8,0.6-1.4,1.4-1.8,2.2V144
			c0,1.2-1.1,1.8-3.3,1.8h-1.5C636.9,145.8,635.8,145.2,635.8,144z"/>
		<path class="st33" d="M667.4,137.2v-13.9h-0.9c-0.6,0-1-0.2-1.3-0.7c-0.3-0.4-0.4-1.1-0.4-2.1v-0.9c0-1,0.1-1.7,0.4-2.1
			c0.3-0.4,0.7-0.7,1.3-0.7h0.9l0.7-5.2c0.2-1.2,1.2-1.8,3-1.8h1.7c1.8,0,2.8,0.6,2.8,1.8v5.2h2.7c0.6,0,1,0.2,1.3,0.7
			s0.4,1.1,0.4,2.1v0.9c0,1-0.1,1.7-0.4,2.1s-0.7,0.7-1.3,0.7h-2.7v14c0,0.8,0.2,1.5,0.5,1.8c0.3,0.4,0.8,0.6,1.5,0.6
			c0.2,0,0.4,0,0.7-0.1c0.3-0.1,0.6-0.1,0.7-0.1c0.3,0,0.6,0.3,0.9,0.8c0.3,0.6,0.5,1.2,0.6,1.8s0.2,1.1,0.2,1.3
			c0,1.8-1.8,2.7-5.3,2.7C670.1,146.1,667.4,143.1,667.4,137.2z"/>
	</g>
	<g>
		<g>
			<path class="st43" d="M468.6,66.5h-12.5c-1.2,0-2.2,1-2.2,2.2v4.4c0,10.7,5,15.8,18.8,15.8c13.8,0,11,0,26.6,0
				c15.6,0,23.3-1.7,23.3-18.6c0-16.8-1-23.5-24.3-23.5c-4.5,0-13.7,0-20.4,0c-9.5,0-9.6-11.3-0.6-11.3c5.4,0,15.9,0,19.4,0
				c4.7,0,6.5,1.2,6.9,5c0.1,1.1,1,1.9,2.1,1.9h12.5c1.2,0,2.2-1,2.2-2.2v-4.8c0-15-13.7-15-18.9-15c-5.1,0-22.4,0-26.3,0
				c-9.3,0-21.3-1.3-21.3,20.5c0,22,8.5,21,26.4,21c12.3,0,8.8,0,15.6,0c14.5,0,11.2,11.8,3.3,11.8c0,0-19,0-22.4,0
				c-3.1,0-5.6-0.4-6.1-5.4C470.7,67.3,469.7,66.5,468.6,66.5z"/>
		</g>
		<path class="st33" d="M557.4,69.3l-10.6-10.6c-1.1-1.1-1.1-2.9,0-4L557.4,44c1.1-1.1,2.9-1.1,4,0l10.6,10.6c1.1,1.1,1.1,2.9,0,4
			l-10.6,10.6C560.3,70.4,558.5,70.4,557.4,69.3z"/>
		<path class="st43" d="M542.3,88.8h-13.2c-1.1,0-1.9-0.9-1.9-1.9V22.6c0-1.1,0.9-1.9,1.9-1.9h13.2c1.1,0,1.9,0.9,1.9,1.9v64.3
			C544.3,87.9,543.4,88.8,542.3,88.8z"/>
		<path class="st43" d="M589.7,88.8h-13.2c-1.1,0-1.9-0.9-1.9-1.9V22.6c0-1.1,0.9-1.9,1.9-1.9h13.2c1.1,0,1.9,0.9,1.9,1.9v64.3
			C591.7,87.9,590.8,88.8,589.7,88.8z"/>
		<g>
			<path class="st43" d="M441.2,59.9V22.6c0-1.1-0.9-2-2-2h-15.4c-1.5,0-3,0.5-4.2,1.4l-35,25.8c-1.8,1.3-2.9,3.4-2.9,5.6v19.5
				c0,1.1,0.9,2,2,2H425v11.9c0,1.1,0.9,2,2,2h12.2c1.1,0,2-0.9,2-2V74.9h6.2c1.1,0,2-0.9,2-2v-11c0-1.1-0.9-2-2-2L441.2,59.9
				L441.2,59.9z M424.6,59.9h-28.4c-0.4,0-0.5-0.5-0.2-0.7l28.4-21.8c0.3-0.2,0.6,0,0.6,0.3v21.8C425,59.7,424.8,59.9,424.6,59.9z"
				/>
		</g>
	</g>
</g>
</svg>
